0, 0, Header, 1, 2, 480
1, 0, Start_track
1, 0, Title_t, "Close Encounters"
1, 0, Text_t, "Sample for MIDIcsv Distribution"
1, 0, Copyright_t, "This file is in the public domain"
1, 0, Time_signature, 4, 2, 24, 8
1, 0, Tempo, 500000
1, 0, End_track
2, 0, Start_track
2, 0, Instrument_name_t, "Solo Lute or Keyboard"
2, 0, Program_c, 0, 19
2, 0, Note_on_c, 0, 0, 100
2, 0, Note_on_c, 0, 1, 100
2, 0, Note_on_c, 0, 66, 100
2, 0, Note_on_c, 0, 117, 100
2, 0, Note_on_c, 0, 100, 100
2, 0, Note_on_c, 0, 49, 100
2, 0, Note_on_c, 0, 16, 100
2, 0, Note_on_c, 0, 8, 100
2, 0, Note_on_c, 0, 37, 100
2, 0, Note_on_c, 0, 2, 100
2, 0, Note_on_c, 0, 11, 100
2, 1, Note_on_c, 0, 64, 100
2, 1, Note_on_c, 0, 128, 100
2, 1, Note_on_c, 0, 4, 100
2, 1, Note_off_c, 0, 66, 0
2, 1, Note_off_c, 0, 100, 0
2, 1, Note_off_c, 0, 8, 0
2, 1, Note_off_c, 0, 11, 0
2, 2, Note_on_c, 0, 8, 100
2, 2, Note_off_c, 0, 117, 0
2, 2, Note_off_c, 0, 37, 0
2, 3, Note_off_c, 0, 49, 0
2, 4, Note_on_c, 0, 3, 100
2, 4, Note_on_c, 0, 11, 100
2, 4, Note_on_c, 0, 69, 100
2, 4, Note_on_c, 0, 37, 100
2, 4, Note_on_c, 0, 68, 100
2, 4, Note_on_c, 0, 83, 100
2, 4, Note_on_c, 0, 66, 100
2, 4, Note_on_c, 0, 96, 100
2, 4, Note_on_c, 0, 24, 100
2, 5, Note_off_c, 0, 3, 0
2, 5, Note_off_c, 0, 69, 0
2, 5, Note_off_c, 0, 68, 0
2, 5, Note_off_c, 0, 66, 0
2, 5, Note_off_c, 0, 24, 0
2, 6, Note_off_c, 0, 11, 0
2, 6, Note_off_c, 0, 83, 0
2, 7, Note_off_c, 0, 16, 0
2, 7, Note_off_c, 0, 128, 0
2, 7, Note_off_c, 0, 8, 0
2, 7, Note_off_c, 0, 96, 0
2, 8, Note_off_c, 0, 0, 0
2, 8, Note_off_c, 0, 1, 0
2, 8, Note_off_c, 0, 2, 0
2, 8, Note_off_c, 0, 64, 0
2, 8, Note_off_c, 0, 4, 0
2, 8, Note_off_c, 0, 37, 0
2, 8, End_track
0, 0, End_of_file
