0, 0, Header, 1, 2, 480
1, 0, Start_track
1, 0, Title_t, "Close Encounters"
1, 0, Text_t, "Sample for MIDIcsv Distribution"
1, 0, Copyright_t, "This file is in the public domain"
1, 0, Time_signature, 4, 2, 24, 8
1, 0, Tempo, 500000
1, 0, End_track
2, 0, Start_track
2, 0, Instrument_name_t, "Solo Lute or Keyboard"
2, 0, Program_c, 0, 19
2, 0, Note_on_c, 0, 72, 100
2, 74, Note_off_c, 0, 72, 0
2, 75, Note_on_c, 0, 71, 100
2, 76, Note_off_c, 0, 71, 0
2, 77, Note_on_c, 0, 69, 100
2, 78, Note_off_c, 0, 69, 0
2, 79, Note_on_c, 0, 67, 100
2, 80, Note_off_c, 0, 67, 0
2, 81, Note_on_c, 0, 69, 100
2, 82, Note_off_c, 0, 69, 0
2, 83, Note_on_c, 0, 71, 100
2, 84, Note_off_c, 0, 71, 0
2, 85, Note_on_c, 0, 69, 100
2, 86, Note_off_c, 0, 69, 0
2, 87, Note_on_c, 0, 67, 100
2, 95, Note_off_c, 0, 67, 0
2, 96, Note_on_c, 0, 62, 100
2, 97, Note_off_c, 0, 62, 0
2, 98, Note_on_c, 0, 48, 100
2, 99, Note_off_c, 0, 48, 0
2, 100, Note_on_c, 0, 70, 100
2, 101, Note_off_c, 0, 70, 0
2, 102, Note_on_c, 0, 69, 100
2, 103, Note_off_c, 0, 69, 0
2, 104, Note_on_c, 0, 55, 100
2, 105, Note_off_c, 0, 55, 0
2, 106, Note_on_c, 0, 74, 100
2, 107, Note_off_c, 0, 74, 0
2, 108, Note_on_c, 0, 76, 100
2, 109, Note_off_c, 0, 76, 0
2, 110, Note_on_c, 0, 64, 100
2, 111, Note_off_c, 0, 64, 0
2, 112, Note_on_c, 0, 55, 100
2, 113, Note_off_c, 0, 55, 0
2, 114, Note_on_c, 0, 43, 100
2, 115, Note_off_c, 0, 43, 0
2, 116, Note_on_c, 0, 52, 100
2, 249, Note_off_c, 0, 52, 0
2, 250, Note_on_c, 0, 45, 100
2, 326, Note_off_c, 0, 45, 0
2, 327, Note_on_c, 0, 73, 100
2, 328, Note_off_c, 0, 73, 0
2, 329, Note_on_c, 0, 49, 100
2, 330, Note_off_c, 0, 49, 0
2, 332, Note_on_c, 0, 42, 100
2, 504, Note_off_c, 0, 42, 0
2, 505, Note_on_c, 0, 40, 100
2, 506, Note_on_c, 0, 28, 100
2, 506, Note_off_c, 0, 40, 0
2, 507, Note_on_c, 0, 80, 100
2, 507, Note_off_c, 0, 28, 0
2, 512, Note_on_c, 0, 42, 100
2, 512, Note_off_c, 0, 80, 0
2, 683, Note_off_c, 0, 42, 0
2, 684, Note_on_c, 0, 40, 100
2, 799, Note_off_c, 0, 40, 0
2, 800, Note_on_c, 0, 63, 100
2, 801, Note_on_c, 0, 33, 100
2, 801, Note_off_c, 0, 63, 0
2, 803, Note_on_c, 0, 30, 100
2, 803, Note_off_c, 0, 33, 0
2, 804, Note_on_c, 0, 28, 100
2, 804, Note_off_c, 0, 30, 0
2, 805, Note_on_c, 0, 35, 100
2, 805, Note_off_c, 0, 28, 0
2, 806, Note_on_c, 0, 33, 100
2, 806, Note_off_c, 0, 35, 0
2, 807, Note_on_c, 0, 30, 100
2, 807, Note_off_c, 0, 33, 0
2, 808, Note_on_c, 0, 28, 100
2, 808, Note_off_c, 0, 30, 0
2, 809, Note_on_c, 0, 33, 100
2, 809, Note_off_c, 0, 28, 0
2, 810, Note_off_c, 0, 33, 0
2, 811, Note_on_c, 0, 47, 100
2, 1054, Note_off_c, 0, 47, 0
2, 1055, Note_on_c, 0, 49, 100
2, 1065, Note_off_c, 0, 49, 0
2, 1066, Note_on_c, 0, 51, 100
2, 1076, Note_on_c, 0, 54, 100
2, 1076, Note_off_c, 0, 51, 0
2, 1077, Note_off_c, 0, 54, 0
2, 1078, Note_on_c, 0, 60, 100
2, 1079, Note_off_c, 0, 60, 0
2, 1080, Note_on_c, 0, 55, 100
2, 1231, Note_off_c, 0, 55, 0
2, 1232, Note_on_c, 0, 48, 100
2, 1289, Note_off_c, 0, 48, 0
2, 1290, Note_on_c, 0, 46, 100
2, 1380, Note_off_c, 0, 46, 0
2, 1381, Note_on_c, 0, 40, 100
2, 1449, Note_off_c, 0, 40, 0
2, 1450, Note_on_c, 0, 43, 100
2, 1483, Note_off_c, 0, 43, 0
2, 1484, Note_on_c, 0, 45, 100
2, 1783, Note_off_c, 0, 45, 0
2, 1784, Note_on_c, 0, 57, 100
2, 1856, Note_off_c, 0, 57, 0
2, 1857, Note_on_c, 0, 59, 100
2, 1917, Note_off_c, 0, 59, 0
2, 1918, Note_on_c, 0, 54, 100
2, 1957, Note_off_c, 0, 54, 0
2, 1958, Note_on_c, 0, 56, 100
2, 1990, Note_off_c, 0, 56, 0
2, 1991, Note_on_c, 0, 54, 100
2, 2512, Note_off_c, 0, 54, 0
2, 2513, Note_on_c, 0, 55, 100
2, 2598, Note_off_c, 0, 55, 0
2, 2599, Note_on_c, 0, 57, 100
2, 2754, Note_off_c, 0, 57, 0
2, 2755, Note_on_c, 0, 40, 100
2, 2889, Note_off_c, 0, 40, 0
2, 2890, Note_on_c, 0, 40, 100
2, 2891, Note_on_c, 0, 79, 100
2, 2891, Note_off_c, 0, 40, 0
2, 2892, Note_on_c, 0, 40, 100
2, 2892, Note_off_c, 0, 79, 0
2, 2893, Note_on_c, 0, 79, 100
2, 2893, Note_off_c, 0, 40, 0
2, 2949, Note_off_c, 0, 79, 0
2, 2950, Note_on_c, 0, 61, 100
2, 3248, Note_off_c, 0, 61, 0
2, 3249, Note_on_c, 0, 62, 100
2, 3304, Note_off_c, 0, 62, 0
2, 3305, Note_on_c, 0, 64, 100
2, 3333, Note_off_c, 0, 64, 0
2, 3334, Note_on_c, 0, 69, 100
2, 3396, Note_off_c, 0, 69, 0
2, 3398, Note_on_c, 0, 73, 100
2, 3399, Note_off_c, 0, 73, 0
2, 3400, Note_on_c, 0, 71, 100
2, 3401, Note_off_c, 0, 71, 0
2, 3402, Note_on_c, 0, 69, 100
2, 3403, Note_off_c, 0, 69, 0
2, 3404, Note_on_c, 0, 73, 100
2, 3405, Note_off_c, 0, 73, 0
2, 3406, Note_on_c, 0, 71, 100
2, 3407, Note_off_c, 0, 71, 0
2, 3408, Note_on_c, 0, 69, 100
2, 3409, Note_off_c, 0, 69, 0
2, 3410, Note_on_c, 0, 71, 100
2, 3411, Note_off_c, 0, 71, 0
2, 3412, Note_on_c, 0, 73, 100
2, 3413, Note_off_c, 0, 73, 0
2, 3414, Note_on_c, 0, 74, 100
2, 3415, Note_off_c, 0, 74, 0
2, 3416, Note_on_c, 0, 73, 100
2, 3417, Note_off_c, 0, 73, 0
2, 3418, Note_on_c, 0, 71, 100
2, 3419, Note_off_c, 0, 71, 0
2, 3420, Note_on_c, 0, 70, 100
2, 3421, Note_off_c, 0, 70, 0
2, 3422, Note_on_c, 0, 73, 100
2, 3423, Note_off_c, 0, 73, 0
2, 3424, Note_on_c, 0, 73, 100
2, 3425, Note_off_c, 0, 73, 0
2, 3426, Note_on_c, 0, 69, 100
2, 3427, Note_off_c, 0, 69, 0
2, 3428, Note_on_c, 0, 76, 100
2, 3429, Note_off_c, 0, 76, 0
2, 3430, Note_on_c, 0, 68, 100
2, 3431, Note_off_c, 0, 68, 0
2, 3432, Note_on_c, 0, 69, 100
2, 3433, Note_off_c, 0, 69, 0
2, 3434, Note_on_c, 0, 71, 100
2, 3435, Note_off_c, 0, 71, 0
2, 3436, Note_on_c, 0, 83, 100
2, 3437, Note_off_c, 0, 83, 0
2, 3438, Note_on_c, 0, 81, 100
2, 3439, Note_off_c, 0, 81, 0
2, 3440, Note_on_c, 0, 46, 100
2, 3441, Note_off_c, 0, 46, 0
2, 3442, Note_on_c, 0, 73, 100
2, 3443, Note_off_c, 0, 73, 0
2, 3445, Note_on_c, 0, 78, 100
2, 3446, Note_off_c, 0, 78, 0
2, 3447, Note_on_c, 0, 72, 100
2, 3448, Note_off_c, 0, 72, 0
2, 3449, Note_on_c, 0, 71, 100
2, 3450, Note_off_c, 0, 71, 0
2, 3451, Note_on_c, 0, 69, 100
2, 3452, Note_off_c, 0, 69, 0
2, 3453, Note_on_c, 0, 67, 100
2, 3454, Note_off_c, 0, 67, 0
2, 3455, Note_on_c, 0, 66, 100
2, 3456, Note_off_c, 0, 66, 0
2, 3457, Note_on_c, 0, 69, 100
2, 3458, Note_off_c, 0, 69, 0
2, 3459, Note_on_c, 0, 71, 100
2, 3460, Note_off_c, 0, 71, 0
2, 3461, Note_on_c, 0, 68, 100
2, 3462, Note_off_c, 0, 68, 0
2, 3463, Note_on_c, 0, 69, 100
2, 3464, Note_off_c, 0, 69, 0
2, 3465, Note_on_c, 0, 67, 100
2, 3466, Note_off_c, 0, 67, 0
2, 3467, Note_on_c, 0, 66, 100
2, 3468, Note_off_c, 0, 66, 0
2, 3469, Note_on_c, 0, 66, 100
2, 3470, Note_off_c, 0, 66, 0
2, 3471, Note_on_c, 0, 73, 100
2, 3472, Note_off_c, 0, 73, 0
2, 3473, Note_on_c, 0, 74, 100
2, 3474, Note_off_c, 0, 74, 0
2, 3475, Note_on_c, 0, 73, 100
2, 3476, Note_off_c, 0, 73, 0
2, 3477, Note_on_c, 0, 71, 100
2, 3478, Note_off_c, 0, 71, 0
2, 3479, Note_on_c, 0, 69, 100
2, 3480, Note_off_c, 0, 69, 0
2, 3481, Note_on_c, 0, 66, 100
2, 3482, Note_off_c, 0, 66, 0
2, 3483, Note_on_c, 0, 68, 100
2, 3484, Note_off_c, 0, 68, 0
2, 3485, Note_on_c, 0, 55, 100
2, 3486, Note_off_c, 0, 55, 0
2, 3487, Note_on_c, 0, 57, 100
2, 3488, Note_off_c, 0, 57, 0
2, 3489, Note_on_c, 0, 59, 100
2, 3490, Note_off_c, 0, 59, 0
2, 3491, Note_on_c, 0, 66, 100
2, 3492, Note_off_c, 0, 66, 0
2, 3493, Note_on_c, 0, 68, 100
2, 3494, Note_off_c, 0, 68, 0
2, 3495, Note_on_c, 0, 69, 100
2, 3496, Note_off_c, 0, 69, 0
2, 3497, Note_on_c, 0, 67, 100
2, 3498, Note_off_c, 0, 67, 0
2, 3499, Note_on_c, 0, 41, 100
2, 3500, Note_off_c, 0, 41, 0
2, 3501, Note_on_c, 0, 70, 100
2, 3502, Note_off_c, 0, 70, 0
2, 3503, Note_on_c, 0, 46, 100
2, 3504, Note_off_c, 0, 46, 0
2, 3505, Note_on_c, 0, 68, 100
2, 3506, Note_off_c, 0, 68, 0
2, 3507, Note_on_c, 0, 69, 100
2, 3508, Note_off_c, 0, 69, 0
2, 3509, Note_on_c, 0, 71, 100
2, 3510, Note_off_c, 0, 71, 0
2, 3511, Note_on_c, 0, 73, 100
2, 3512, Note_off_c, 0, 73, 0
2, 3513, Note_on_c, 0, 74, 100
2, 3514, Note_off_c, 0, 74, 0
2, 3515, Note_on_c, 0, 78, 100
2, 3516, Note_off_c, 0, 78, 0
2, 3517, Note_on_c, 0, 76, 100
2, 3518, Note_off_c, 0, 76, 0
2, 3519, Note_on_c, 0, 74, 100
2, 3520, Note_off_c, 0, 74, 0
2, 3521, Note_on_c, 0, 73, 100
2, 3522, Note_off_c, 0, 73, 0
2, 3523, Note_on_c, 0, 80, 100
2, 3524, Note_off_c, 0, 80, 0
2, 3525, Note_on_c, 0, 76, 100
2, 3526, Note_off_c, 0, 76, 0
2, 3527, Note_on_c, 0, 78, 100
2, 3528, Note_off_c, 0, 78, 0
2, 3529, Note_on_c, 0, 78, 100
2, 3530, Note_off_c, 0, 78, 0
2, 3531, Note_on_c, 0, 79, 100
2, 3532, Note_off_c, 0, 79, 0
2, 3533, Note_on_c, 0, 76, 100
2, 3534, Note_off_c, 0, 76, 0
2, 3535, Note_on_c, 0, 78, 100
2, 3536, Note_off_c, 0, 78, 0
2, 3537, Note_on_c, 0, 86, 100
2, 3538, Note_off_c, 0, 86, 0
2, 3539, Note_on_c, 0, 81, 100
2, 3540, Note_off_c, 0, 81, 0
2, 3541, Note_on_c, 0, 78, 100
2, 3544, Note_off_c, 0, 78, 0
2, 3545, Note_on_c, 0, 78, 100
2, 3546, Note_off_c, 0, 78, 0
2, 3547, Note_on_c, 0, 79, 100
2, 3548, Note_off_c, 0, 79, 0
2, 3549, Note_on_c, 0, 78, 100
2, 3550, Note_off_c, 0, 78, 0
2, 3551, Note_on_c, 0, 76, 100
2, 3552, Note_off_c, 0, 76, 0
2, 3553, Note_on_c, 0, 64, 100
2, 3554, Note_off_c, 0, 64, 0
2, 3555, Note_on_c, 0, 66, 100
2, 3556, Note_off_c, 0, 66, 0
2, 3557, Note_on_c, 0, 62, 100
2, 3558, Note_off_c, 0, 62, 0
2, 3559, Note_on_c, 0, 61, 100
2, 3560, Note_off_c, 0, 61, 0
2, 3561, Note_on_c, 0, 62, 100
2, 3562, Note_off_c, 0, 62, 0
2, 3563, Note_on_c, 0, 59, 100
2, 3564, Note_off_c, 0, 59, 0
2, 3565, Note_on_c, 0, 61, 100
2, 3566, Note_off_c, 0, 61, 0
2, 3567, Note_on_c, 0, 59, 100
2, 3568, Note_off_c, 0, 59, 0
2, 3569, Note_on_c, 0, 61, 100
2, 3570, Note_off_c, 0, 61, 0
2, 3571, Note_on_c, 0, 61, 100
2, 3572, Note_off_c, 0, 61, 0
2, 3573, Note_on_c, 0, 66, 100
2, 3574, Note_off_c, 0, 66, 0
2, 3575, Note_on_c, 0, 64, 100
2, 3576, Note_off_c, 0, 64, 0
2, 3577, Note_on_c, 0, 66, 100
2, 3578, Note_off_c, 0, 66, 0
2, 3579, Note_on_c, 0, 57, 100
2, 3580, Note_off_c, 0, 57, 0
2, 3581, Note_on_c, 0, 61, 100
2, 3582, Note_off_c, 0, 61, 0
2, 3583, Note_on_c, 0, 58, 100
2, 3584, Note_off_c, 0, 58, 0
2, 3585, Note_on_c, 0, 78, 100
2, 3586, Note_off_c, 0, 78, 0
2, 3587, Note_on_c, 0, 66, 100
2, 3588, Note_off_c, 0, 66, 0
2, 3589, Note_on_c, 0, 68, 100
2, 3590, Note_off_c, 0, 68, 0
2, 3591, Note_on_c, 0, 66, 100
2, 3592, Note_off_c, 0, 66, 0
2, 3593, Note_on_c, 0, 61, 100
2, 3594, Note_off_c, 0, 61, 0
2, 3595, Note_on_c, 0, 59, 100
2, 3596, Note_off_c, 0, 59, 0
2, 3597, Note_on_c, 0, 61, 100
2, 3598, Note_off_c, 0, 61, 0
2, 3599, Note_on_c, 0, 61, 100
2, 3600, Note_off_c, 0, 61, 0
2, 3601, Note_on_c, 0, 59, 100
2, 3602, Note_off_c, 0, 59, 0
2, 3603, Note_on_c, 0, 57, 100
2, 3604, Note_off_c, 0, 57, 0
2, 3605, Note_on_c, 0, 54, 100
2, 3606, Note_off_c, 0, 54, 0
2, 3607, Note_on_c, 0, 49, 100
2, 3608, Note_off_c, 0, 49, 0
2, 3609, Note_on_c, 0, 50, 100
2, 3610, Note_off_c, 0, 50, 0
2, 3611, Note_on_c, 0, 71, 100
2, 3612, Note_off_c, 0, 71, 0
2, 3613, Note_on_c, 0, 49, 100
2, 3614, Note_off_c, 0, 49, 0
2, 3615, Note_on_c, 0, 66, 100
2, 3616, Note_off_c, 0, 66, 0
2, 3617, Note_on_c, 0, 61, 100
2, 3618, Note_off_c, 0, 61, 0
2, 3619, Note_on_c, 0, 61, 100
2, 3620, Note_off_c, 0, 61, 0
2, 3621, Note_on_c, 0, 61, 100
2, 3622, Note_off_c, 0, 61, 0
2, 3623, Note_on_c, 0, 61, 100
2, 3701, Note_off_c, 0, 61, 0
2, 3702, Note_on_c, 0, 64, 100
2, 3753, Note_off_c, 0, 64, 0
2, 3754, Note_on_c, 0, 64, 100
2, 3941, Note_off_c, 0, 64, 0
2, 3942, Note_on_c, 0, 62, 100
2, 3971, Note_off_c, 0, 62, 0
2, 3978, Note_on_c, 0, 66, 100
2, 4175, Note_off_c, 0, 66, 0
2, 4176, Note_on_c, 0, 66, 100
2, 4389, Note_off_c, 0, 66, 0
2, 4390, Note_on_c, 0, 64, 100
2, 4520, Note_on_c, 0, 73, 100
2, 4520, Note_off_c, 0, 64, 0
2, 4541, Note_on_c, 0, 76, 100
2, 4541, Note_off_c, 0, 73, 0
2, 4544, Note_off_c, 0, 76, 0
2, 4545, Note_on_c, 0, 78, 100
2, 4546, Note_off_c, 0, 78, 0
2, 4547, Note_on_c, 0, 64, 100
2, 4548, Note_off_c, 0, 64, 0
2, 4550, Note_on_c, 0, 71, 100
2, 4581, Note_off_c, 0, 71, 0
2, 4582, Note_on_c, 0, 62, 100
2, 4589, Note_off_c, 0, 62, 0
2, 4590, Note_on_c, 0, 61, 100
2, 4609, Note_off_c, 0, 61, 0
2, 4610, Note_on_c, 0, 61, 100
2, 5403, Note_off_c, 0, 61, 0
2, 5404, Note_on_c, 0, 61, 100
2, 6543, Note_off_c, 0, 61, 0
2, 6544, Note_on_c, 0, 69, 100
2, 6776, Note_off_c, 0, 69, 0
2, 6777, Note_on_c, 0, 71, 100
2, 6778, Note_off_c, 0, 71, 0
2, 6779, Note_on_c, 0, 72, 100
2, 6780, Note_off_c, 0, 72, 0
2, 6781, Note_on_c, 0, 74, 100
2, 6782, Note_off_c, 0, 74, 0
2, 6783, Note_on_c, 0, 69, 100
2, 6784, Note_off_c, 0, 69, 0
2, 6785, Note_on_c, 0, 69, 100
2, 6786, Note_off_c, 0, 69, 0
2, 6787, Note_on_c, 0, 71, 100
2, 6788, Note_off_c, 0, 71, 0
2, 6789, Note_on_c, 0, 73, 100
2, 6790, Note_off_c, 0, 73, 0
2, 6791, Note_on_c, 0, 74, 100
2, 6792, Note_off_c, 0, 74, 0
2, 6793, Note_on_c, 0, 76, 100
2, 6794, Note_off_c, 0, 76, 0
2, 6795, Note_on_c, 0, 78, 100
2, 6796, Note_off_c, 0, 78, 0
2, 6797, Note_on_c, 0, 74, 100
2, 6798, Note_off_c, 0, 74, 0
2, 6799, Note_on_c, 0, 74, 100
2, 6800, Note_off_c, 0, 74, 0
2, 6801, Note_on_c, 0, 76, 100
2, 6802, Note_off_c, 0, 76, 0
2, 6803, Note_on_c, 0, 78, 100
2, 6804, Note_off_c, 0, 78, 0
2, 6805, Note_on_c, 0, 76, 100
2, 6806, Note_off_c, 0, 76, 0
2, 6807, Note_on_c, 0, 74, 100
2, 6808, Note_off_c, 0, 74, 0
2, 6809, Note_on_c, 0, 74, 100
2, 6810, Note_off_c, 0, 74, 0
2, 6811, Note_on_c, 0, 73, 100
2, 6812, Note_off_c, 0, 73, 0
2, 6813, Note_on_c, 0, 74, 100
2, 6814, Note_off_c, 0, 74, 0
2, 6815, Note_on_c, 0, 76, 100
2, 6816, Note_off_c, 0, 76, 0
2, 6817, Note_on_c, 0, 73, 100
2, 6818, Note_off_c, 0, 73, 0
2, 6819, Note_on_c, 0, 71, 100
2, 6820, Note_off_c, 0, 71, 0
2, 6821, Note_on_c, 0, 68, 100
2, 6822, Note_off_c, 0, 68, 0
2, 6823, Note_on_c, 0, 66, 100
2, 6824, Note_off_c, 0, 66, 0
2, 6825, Note_on_c, 0, 68, 100
2, 6826, Note_off_c, 0, 68, 0
2, 6827, Note_on_c, 0, 69, 100
2, 6828, Note_off_c, 0, 69, 0
2, 6829, Note_on_c, 0, 71, 100
2, 6830, Note_off_c, 0, 71, 0
2, 6831, Note_on_c, 0, 75, 100
2, 6832, Note_off_c, 0, 75, 0
2, 6833, Note_on_c, 0, 78, 100
2, 6834, Note_off_c, 0, 78, 0
2, 6835, Note_on_c, 0, 79, 100
2, 6836, Note_off_c, 0, 79, 0
2, 6837, Note_on_c, 0, 81, 100
2, 6838, Note_off_c, 0, 81, 0
2, 6839, Note_on_c, 0, 83, 100
2, 6840, Note_off_c, 0, 83, 0
2, 6841, Note_on_c, 0, 81, 100
2, 6842, Note_off_c, 0, 81, 0
2, 6843, Note_on_c, 0, 83, 100
2, 6844, Note_off_c, 0, 83, 0
2, 6845, Note_on_c, 0, 85, 100
2, 6846, Note_off_c, 0, 85, 0
2, 6847, Note_on_c, 0, 50, 100
2, 6848, Note_off_c, 0, 50, 0
2, 6849, Note_on_c, 0, 71, 100
2, 6850, Note_off_c, 0, 71, 0
2, 6851, Note_on_c, 0, 43, 100
2, 6852, Note_off_c, 0, 43, 0
2, 6853, Note_on_c, 0, 45, 100
2, 6854, Note_off_c, 0, 45, 0
2, 6855, Note_on_c, 0, 68, 100
2, 6856, Note_off_c, 0, 68, 0
2, 6857, Note_on_c, 0, 69, 100
2, 6858, Note_off_c, 0, 69, 0
2, 6859, Note_on_c, 0, 60, 100
2, 6860, Note_off_c, 0, 60, 0
2, 6861, Note_on_c, 0, 66, 100
2, 6862, Note_off_c, 0, 66, 0
2, 6863, Note_on_c, 0, 64, 100
2, 6864, Note_off_c, 0, 64, 0
2, 6865, Note_on_c, 0, 69, 100
2, 6866, Note_off_c, 0, 69, 0
2, 6867, Note_on_c, 0, 71, 100
2, 6868, Note_off_c, 0, 71, 0
2, 6869, Note_on_c, 0, 73, 100
2, 6870, Note_off_c, 0, 73, 0
2, 6871, Note_on_c, 0, 50, 100
2, 6872, Note_off_c, 0, 50, 0
2, 6873, Note_on_c, 0, 79, 100
2, 6874, Note_off_c, 0, 79, 0
2, 6875, Note_on_c, 0, 78, 100
2, 6876, Note_off_c, 0, 78, 0
2, 6877, Note_on_c, 0, 76, 100
2, 6878, Note_off_c, 0, 76, 0
2, 6879, Note_on_c, 0, 49, 100
2, 6880, Note_off_c, 0, 49, 0
2, 6881, Note_on_c, 0, 68, 100
2, 6882, Note_off_c, 0, 68, 0
2, 6883, Note_on_c, 0, 69, 100
2, 6884, Note_off_c, 0, 69, 0
2, 6885, Note_on_c, 0, 73, 100
2, 6886, Note_off_c, 0, 73, 0
2, 6887, Note_on_c, 0, 71, 100
2, 6888, Note_off_c, 0, 71, 0
2, 6889, Note_on_c, 0, 69, 100
2, 6890, Note_off_c, 0, 69, 0
2, 6891, Note_on_c, 0, 71, 100
2, 6892, Note_off_c, 0, 71, 0
2, 6893, Note_on_c, 0, 73, 100
2, 6894, Note_off_c, 0, 73, 0
2, 6895, Note_on_c, 0, 76, 100
2, 6896, Note_off_c, 0, 76, 0
2, 6897, Note_on_c, 0, 73, 100
2, 6898, Note_off_c, 0, 73, 0
2, 6899, Note_on_c, 0, 71, 100
2, 6900, Note_off_c, 0, 71, 0
2, 6901, Note_on_c, 0, 69, 100
2, 6902, Note_off_c, 0, 69, 0
2, 6903, Note_on_c, 0, 68, 100
2, 6904, Note_off_c, 0, 68, 0
2, 6905, Note_on_c, 0, 69, 100
2, 6906, Note_off_c, 0, 69, 0
2, 6907, Note_on_c, 0, 76, 100
2, 6908, Note_off_c, 0, 76, 0
2, 6909, Note_on_c, 0, 74, 100
2, 6910, Note_off_c, 0, 74, 0
2, 6911, Note_on_c, 0, 73, 100
2, 6912, Note_off_c, 0, 73, 0
2, 6913, Note_on_c, 0, 76, 100
2, 6914, Note_off_c, 0, 76, 0
2, 6915, Note_on_c, 0, 73, 100
2, 6916, Note_off_c, 0, 73, 0
2, 6917, Note_on_c, 0, 74, 100
2, 6918, Note_off_c, 0, 74, 0
2, 6919, Note_on_c, 0, 77, 100
2, 6940, Note_off_c, 0, 77, 0
2, 6941, Note_on_c, 0, 69, 100
2, 6942, Note_off_c, 0, 69, 0
2, 6943, Note_on_c, 0, 69, 100
2, 6944, Note_off_c, 0, 69, 0
2, 6945, Note_on_c, 0, 46, 100
2, 6946, Note_off_c, 0, 46, 0
2, 6947, Note_on_c, 0, 76, 100
2, 6948, Note_off_c, 0, 76, 0
2, 6949, Note_on_c, 0, 71, 100
2, 6950, Note_off_c, 0, 71, 0
2, 6951, Note_on_c, 0, 73, 100
2, 6952, Note_off_c, 0, 73, 0
2, 6953, Note_on_c, 0, 54, 100
2, 6954, Note_off_c, 0, 54, 0
2, 6955, Note_on_c, 0, 56, 100
2, 6956, Note_off_c, 0, 56, 0
2, 6957, Note_on_c, 0, 74, 100
2, 6958, Note_off_c, 0, 74, 0
2, 6959, Note_on_c, 0, 76, 100
2, 6960, Note_off_c, 0, 76, 0
2, 6961, Note_on_c, 0, 80, 100
2, 6962, Note_off_c, 0, 80, 0
2, 6963, Note_on_c, 0, 78, 100
2, 6964, Note_off_c, 0, 78, 0
2, 6965, Note_on_c, 0, 79, 100
2, 6966, Note_off_c, 0, 79, 0
2, 6967, Note_on_c, 0, 78, 100
2, 6968, Note_off_c, 0, 78, 0
2, 6969, Note_on_c, 0, 76, 100
2, 6970, Note_off_c, 0, 76, 0
2, 6971, Note_on_c, 0, 75, 100
2, 6972, Note_off_c, 0, 75, 0
2, 6973, Note_on_c, 0, 73, 100
2, 6974, Note_off_c, 0, 73, 0
2, 6975, Note_on_c, 0, 71, 100
2, 6976, Note_off_c, 0, 71, 0
2, 6977, Note_on_c, 0, 69, 100
2, 6978, Note_off_c, 0, 69, 0
2, 6979, Note_on_c, 0, 67, 100
2, 6980, Note_off_c, 0, 67, 0
2, 6981, Note_on_c, 0, 69, 100
2, 6982, Note_off_c, 0, 69, 0
2, 6983, Note_on_c, 0, 68, 100
2, 6984, Note_off_c, 0, 68, 0
2, 6985, Note_on_c, 0, 71, 100
2, 6986, Note_off_c, 0, 71, 0
2, 6987, Note_on_c, 0, 69, 100
2, 6988, Note_off_c, 0, 69, 0
2, 6989, Note_on_c, 0, 71, 100
2, 6990, Note_off_c, 0, 71, 0
2, 6991, Note_on_c, 0, 73, 100
2, 6992, Note_off_c, 0, 73, 0
2, 6993, Note_on_c, 0, 69, 100
2, 6994, Note_off_c, 0, 69, 0
2, 6995, Note_on_c, 0, 71, 100
2, 6996, Note_off_c, 0, 71, 0
2, 6997, Note_on_c, 0, 61, 100
2, 6998, Note_off_c, 0, 61, 0
2, 6999, Note_on_c, 0, 69, 100
2, 7000, Note_off_c, 0, 69, 0
2, 7001, Note_on_c, 0, 70, 100
2, 7002, Note_off_c, 0, 70, 0
2, 7003, Note_on_c, 0, 73, 100
2, 7004, Note_off_c, 0, 73, 0
2, 7005, Note_on_c, 0, 76, 100
2, 7013, Note_off_c, 0, 76, 0
2, 7014, Note_on_c, 0, 74, 100
2, 7015, Note_off_c, 0, 74, 0
2, 7016, Note_on_c, 0, 73, 100
2, 7017, Note_off_c, 0, 73, 0
2, 7018, Note_on_c, 0, 71, 100
2, 7019, Note_off_c, 0, 71, 0
2, 7020, Note_on_c, 0, 54, 100
2, 7021, Note_off_c, 0, 54, 0
2, 7022, Note_on_c, 0, 73, 100
2, 7023, Note_off_c, 0, 73, 0
2, 7024, Note_on_c, 0, 74, 100
2, 7025, Note_off_c, 0, 74, 0
2, 7026, Note_on_c, 0, 69, 100
2, 7027, Note_off_c, 0, 69, 0
2, 7028, Note_on_c, 0, 61, 100
2, 7029, Note_off_c, 0, 61, 0
2, 7030, Note_on_c, 0, 59, 100
2, 7031, Note_off_c, 0, 59, 0
2, 7032, Note_on_c, 0, 56, 100
2, 7033, Note_off_c, 0, 56, 0
2, 7034, Note_on_c, 0, 57, 100
2, 7035, Note_off_c, 0, 57, 0
2, 7036, Note_on_c, 0, 61, 100
2, 7037, Note_off_c, 0, 61, 0
2, 7038, Note_on_c, 0, 59, 100
2, 7039, Note_off_c, 0, 59, 0
2, 7040, Note_on_c, 0, 64, 100
2, 7041, Note_off_c, 0, 64, 0
2, 7042, Note_on_c, 0, 66, 100
2, 7043, Note_off_c, 0, 66, 0
2, 7044, Note_on_c, 0, 65, 100
2, 7045, Note_off_c, 0, 65, 0
2, 7046, Note_on_c, 0, 64, 100
2, 7047, Note_off_c, 0, 64, 0
2, 7048, Note_on_c, 0, 66, 100
2, 7049, Note_off_c, 0, 66, 0
2, 7050, Note_on_c, 0, 68, 100
2, 7051, Note_off_c, 0, 68, 0
2, 7052, Note_on_c, 0, 56, 100
2, 7053, Note_off_c, 0, 56, 0
2, 7054, Note_on_c, 0, 57, 100
2, 7055, Note_off_c, 0, 57, 0
2, 7056, Note_on_c, 0, 56, 100
2, 7057, Note_off_c, 0, 56, 0
2, 7058, Note_on_c, 0, 78, 100
2, 7059, Note_off_c, 0, 78, 0
2, 7060, Note_on_c, 0, 62, 100
2, 7061, Note_off_c, 0, 62, 0
2, 7062, Note_on_c, 0, 61, 100
2, 7063, Note_off_c, 0, 61, 0
2, 7064, Note_on_c, 0, 61, 100
2, 7065, Note_off_c, 0, 61, 0
2, 7066, Note_on_c, 0, 59, 100
2, 7067, Note_off_c, 0, 59, 0
2, 7068, Note_on_c, 0, 61, 100
2, 7069, Note_off_c, 0, 61, 0
2, 7070, Note_on_c, 0, 64, 100
2, 7071, Note_off_c, 0, 64, 0
2, 7072, Note_on_c, 0, 66, 100
2, 7073, Note_off_c, 0, 66, 0
2, 7074, Note_on_c, 0, 64, 100
2, 7075, Note_off_c, 0, 64, 0
2, 7076, Note_on_c, 0, 66, 100
2, 7077, Note_off_c, 0, 66, 0
2, 7078, Note_on_c, 0, 68, 100
2, 7079, Note_off_c, 0, 68, 0
2, 7080, Note_on_c, 0, 62, 100
2, 7081, Note_off_c, 0, 62, 0
2, 7082, Note_on_c, 0, 61, 100
2, 7083, Note_off_c, 0, 61, 0
2, 7084, Note_on_c, 0, 59, 100
2, 7085, Note_off_c, 0, 59, 0
2, 7086, Note_on_c, 0, 61, 100
2, 7087, Note_off_c, 0, 61, 0
2, 7088, Note_on_c, 0, 59, 100
2, 7089, Note_off_c, 0, 59, 0
2, 7090, Note_on_c, 0, 61, 100
2, 7091, Note_off_c, 0, 61, 0
2, 7092, Note_on_c, 0, 61, 100
2, 7093, Note_off_c, 0, 61, 0
2, 7094, Note_on_c, 0, 59, 100
2, 7095, Note_off_c, 0, 59, 0
2, 7096, Note_on_c, 0, 57, 100
2, 7097, Note_off_c, 0, 57, 0
2, 7098, Note_on_c, 0, 59, 100
2, 7099, Note_off_c, 0, 59, 0
2, 7100, Note_on_c, 0, 61, 100
2, 7101, Note_off_c, 0, 61, 0
2, 7102, Note_on_c, 0, 59, 100
2, 7103, Note_off_c, 0, 59, 0
2, 7104, Note_on_c, 0, 61, 100
2, 7105, Note_off_c, 0, 61, 0
2, 7106, Note_on_c, 0, 58, 100
2, 7107, Note_off_c, 0, 58, 0
2, 7108, Note_on_c, 0, 54, 100
2, 7109, Note_off_c, 0, 54, 0
2, 7110, Note_on_c, 0, 68, 100
2, 7111, Note_off_c, 0, 68, 0
2, 7112, Note_on_c, 0, 56, 100
2, 7113, Note_off_c, 0, 56, 0
2, 7114, Note_on_c, 0, 64, 100
2, 7115, Note_off_c, 0, 64, 0
2, 7116, Note_on_c, 0, 61, 100
2, 7117, Note_off_c, 0, 61, 0
2, 7118, Note_on_c, 0, 62, 100
2, 7119, Note_off_c, 0, 62, 0
2, 7120, Note_on_c, 0, 61, 100
2, 7121, Note_off_c, 0, 61, 0
2, 7122, Note_on_c, 0, 62, 100
2, 7123, Note_off_c, 0, 62, 0
2, 7124, Note_on_c, 0, 61, 100
2, 7125, Note_off_c, 0, 61, 0
2, 7126, Note_on_c, 0, 66, 100
2, 7127, Note_off_c, 0, 66, 0
2, 7128, Note_on_c, 0, 64, 100
2, 7129, Note_off_c, 0, 64, 0
2, 7130, Note_on_c, 0, 61, 100
2, 7131, Note_off_c, 0, 61, 0
2, 7132, Note_on_c, 0, 59, 100
2, 7133, Note_off_c, 0, 59, 0
2, 7134, Note_on_c, 0, 61, 100
2, 7135, Note_off_c, 0, 61, 0
2, 7136, Note_on_c, 0, 59, 100
2, 7137, Note_off_c, 0, 59, 0
2, 7138, Note_on_c, 0, 54, 100
2, 7139, Note_off_c, 0, 54, 0
2, 7140, Note_on_c, 0, 50, 100
2, 7141, Note_off_c, 0, 50, 0
2, 7142, Note_on_c, 0, 55, 100
2, 7143, Note_off_c, 0, 55, 0
2, 7144, Note_on_c, 0, 57, 100
2, 7145, Note_off_c, 0, 57, 0
2, 7146, Note_on_c, 0, 55, 100
2, 7147, Note_off_c, 0, 55, 0
2, 7148, Note_on_c, 0, 57, 100
2, 7149, Note_off_c, 0, 57, 0
2, 7150, Note_on_c, 0, 58, 100
2, 7151, Note_off_c, 0, 58, 0
2, 7152, Note_on_c, 0, 58, 100
2, 7153, Note_off_c, 0, 58, 0
2, 7154, Note_on_c, 0, 58, 100
2, 7155, Note_off_c, 0, 58, 0
2, 7156, Note_on_c, 0, 57, 100
2, 7157, Note_off_c, 0, 57, 0
2, 7158, Note_on_c, 0, 58, 100
2, 7159, Note_off_c, 0, 58, 0
2, 7160, Note_on_c, 0, 57, 100
2, 7161, Note_off_c, 0, 57, 0
2, 7162, Note_on_c, 0, 53, 100
2, 7163, Note_off_c, 0, 53, 0
2, 7164, Note_on_c, 0, 54, 100
2, 7165, Note_off_c, 0, 54, 0
2, 7166, Note_on_c, 0, 56, 100
2, 7167, Note_off_c, 0, 56, 0
2, 7168, Note_on_c, 0, 57, 100
2, 7169, Note_off_c, 0, 57, 0
2, 7170, Note_on_c, 0, 56, 100
2, 7171, Note_off_c, 0, 56, 0
2, 7172, Note_on_c, 0, 61, 100
2, 7173, Note_off_c, 0, 61, 0
2, 7174, Note_on_c, 0, 50, 100
2, 7175, Note_off_c, 0, 50, 0
2, 7176, Note_on_c, 0, 50, 100
2, 7177, Note_off_c, 0, 50, 0
2, 7178, Note_on_c, 0, 57, 100
2, 7179, Note_off_c, 0, 57, 0
2, 7180, Note_on_c, 0, 59, 100
2, 7181, Note_off_c, 0, 59, 0
2, 7182, Note_on_c, 0, 61, 100
2, 7183, Note_off_c, 0, 61, 0
2, 7184, Note_on_c, 0, 59, 100
2, 7185, Note_off_c, 0, 59, 0
2, 7186, Note_on_c, 0, 57, 100
2, 7187, Note_off_c, 0, 57, 0
2, 7188, Note_on_c, 0, 58, 100
2, 7189, Note_off_c, 0, 58, 0
2, 7190, Note_on_c, 0, 57, 100
2, 7191, Note_off_c, 0, 57, 0
2, 7192, Note_on_c, 0, 61, 100
2, 7193, Note_off_c, 0, 61, 0
2, 7194, Note_on_c, 0, 59, 100
2, 7195, Note_off_c, 0, 59, 0
2, 7196, Note_on_c, 0, 57, 100
2, 7197, Note_off_c, 0, 57, 0
2, 7198, Note_on_c, 0, 56, 100
2, 7199, Note_off_c, 0, 56, 0
2, 7200, Note_on_c, 0, 57, 100
2, 7201, Note_off_c, 0, 57, 0
2, 7202, Note_on_c, 0, 57, 100
2, 7203, Note_off_c, 0, 57, 0
2, 7204, Note_on_c, 0, 61, 100
2, 7205, Note_off_c, 0, 61, 0
2, 7206, Note_on_c, 0, 58, 100
2, 7207, Note_off_c, 0, 58, 0
2, 7208, Note_on_c, 0, 58, 100
2, 7209, Note_off_c, 0, 58, 0
2, 7210, Note_on_c, 0, 57, 100
2, 7211, Note_off_c, 0, 57, 0
2, 7212, Note_on_c, 0, 58, 100
2, 7213, Note_off_c, 0, 58, 0
2, 7214, Note_on_c, 0, 58, 100
2, 7215, Note_off_c, 0, 58, 0
2, 7216, Note_on_c, 0, 58, 100
2, 7217, Note_off_c, 0, 58, 0
2, 7218, Note_on_c, 0, 58, 100
2, 7219, Note_off_c, 0, 58, 0
2, 7220, Note_on_c, 0, 58, 100
2, 7221, Note_off_c, 0, 58, 0
2, 7222, Note_on_c, 0, 57, 100
2, 7223, Note_off_c, 0, 57, 0
2, 7224, Note_on_c, 0, 55, 100
2, 7225, Note_off_c, 0, 55, 0
2, 7226, Note_on_c, 0, 46, 100
2, 7227, Note_off_c, 0, 46, 0
2, 7228, Note_on_c, 0, 50, 100
2, 7229, Note_off_c, 0, 50, 0
2, 7230, Note_on_c, 0, 50, 100
2, 7231, Note_off_c, 0, 50, 0
2, 7232, Note_on_c, 0, 72, 100
2, 7233, Note_off_c, 0, 72, 0
2, 7234, Note_on_c, 0, 50, 100
2, 7235, Note_off_c, 0, 50, 0
2, 7236, Note_on_c, 0, 71, 100
2, 7237, Note_off_c, 0, 71, 0
2, 7238, Note_on_c, 0, 57, 100
2, 7239, Note_off_c, 0, 57, 0
2, 7240, Note_on_c, 0, 55, 100
2, 7241, Note_off_c, 0, 55, 0
2, 7242, Note_on_c, 0, 43, 100
2, 7243, Note_off_c, 0, 43, 0
2, 7244, Note_on_c, 0, 55, 100
2, 7245, Note_off_c, 0, 55, 0
2, 7246, Note_on_c, 0, 57, 100
2, 7247, Note_off_c, 0, 57, 0
2, 7248, Note_on_c, 0, 58, 100
2, 7249, Note_off_c, 0, 58, 0
2, 7250, Note_on_c, 0, 57, 100
2, 7251, Note_off_c, 0, 57, 0
2, 7252, Note_on_c, 0, 56, 100
2, 7253, Note_off_c, 0, 56, 0
2, 7254, Note_on_c, 0, 57, 100
2, 7255, Note_off_c, 0, 57, 0
2, 7256, Note_on_c, 0, 50, 100
2, 7257, Note_off_c, 0, 50, 0
2, 7258, Note_on_c, 0, 52, 100
2, 7259, Note_off_c, 0, 52, 0
2, 7260, Note_on_c, 0, 50, 100
2, 7261, Note_off_c, 0, 50, 0
2, 7262, Note_on_c, 0, 49, 100
2, 7263, Note_off_c, 0, 49, 0
2, 7264, Note_on_c, 0, 47, 100
2, 7265, Note_off_c, 0, 47, 0
2, 7266, Note_on_c, 0, 48, 100
2, 7267, Note_off_c, 0, 48, 0
2, 7268, Note_on_c, 0, 46, 100
2, 7269, Note_off_c, 0, 46, 0
2, 7270, Note_on_c, 0, 46, 100
2, 7271, Note_off_c, 0, 46, 0
2, 7272, Note_on_c, 0, 46, 100
2, 7273, Note_off_c, 0, 46, 0
2, 7274, Note_on_c, 0, 46, 100
2, 7275, Note_off_c, 0, 46, 0
2, 7276, Note_on_c, 0, 50, 100
2, 7359, Note_off_c, 0, 50, 0
2, 7360, Note_on_c, 0, 42, 100
2, 7361, Note_on_c, 0, 65, 100
2, 7361, Note_off_c, 0, 42, 0
2, 7362, Note_off_c, 0, 65, 0
2, 7363, Note_on_c, 0, 45, 100
2, 7873, Note_off_c, 0, 45, 0
2, 7874, Note_on_c, 0, 40, 100
2, 7891, Note_off_c, 0, 40, 0
2, 7892, Note_on_c, 0, 41, 100
2, 7893, Note_on_c, 0, 30, 100
2, 7893, Note_off_c, 0, 41, 0
2, 7895, Note_on_c, 0, 28, 100
2, 7895, Note_off_c, 0, 30, 0
2, 7896, Note_on_c, 0, 35, 100
2, 7896, Note_off_c, 0, 28, 0
2, 7898, Note_on_c, 0, 24, 100
2, 7898, Note_off_c, 0, 35, 0
2, 7899, Note_on_c, 0, 28, 100
2, 7899, Note_off_c, 0, 24, 0
2, 7900, Note_on_c, 0, 30, 100
2, 7900, Note_off_c, 0, 28, 0
2, 7901, Note_on_c, 0, 28, 100
2, 7901, Note_off_c, 0, 30, 0
2, 7902, Note_on_c, 0, 37, 100
2, 7902, Note_off_c, 0, 28, 0
2, 7903, Note_on_c, 0, 35, 100
2, 7903, Note_off_c, 0, 37, 0
2, 7904, Note_on_c, 0, 30, 100
2, 7904, Note_off_c, 0, 35, 0
2, 7905, Note_on_c, 0, 35, 100
2, 7905, Note_off_c, 0, 30, 0
2, 7906, Note_on_c, 0, 28, 100
2, 7906, Note_off_c, 0, 35, 0
2, 7907, Note_on_c, 0, 33, 100
2, 7907, Note_off_c, 0, 28, 0
2, 7909, Note_on_c, 0, 30, 100
2, 7909, Note_off_c, 0, 33, 0
2, 7910, Note_on_c, 0, 24, 100
2, 7910, Note_off_c, 0, 30, 0
2, 7911, Note_on_c, 0, 33, 100
2, 7911, Note_off_c, 0, 24, 0
2, 7912, Note_on_c, 0, 28, 100
2, 7912, Note_off_c, 0, 33, 0
2, 7914, Note_on_c, 0, 33, 100
2, 7914, Note_off_c, 0, 28, 0
2, 7915, Note_on_c, 0, 57, 100
2, 7915, Note_off_c, 0, 33, 0
2, 7916, Note_on_c, 0, 37, 100
2, 7916, Note_off_c, 0, 57, 0
2, 7917, Note_on_c, 0, 28, 100
2, 7917, Note_off_c, 0, 37, 0
2, 7918, Note_on_c, 0, 30, 100
2, 7918, Note_off_c, 0, 28, 0
2, 7919, Note_on_c, 0, 28, 100
2, 7919, Note_off_c, 0, 30, 0
2, 7920, Note_on_c, 0, 35, 100
2, 7920, Note_off_c, 0, 28, 0
2, 7921, Note_on_c, 0, 33, 100
2, 7921, Note_off_c, 0, 35, 0
2, 7925, Note_on_c, 0, 30, 100
2, 7925, Note_off_c, 0, 33, 0
2, 7926, Note_on_c, 0, 39, 100
2, 7926, Note_off_c, 0, 30, 0
2, 7927, Note_on_c, 0, 33, 100
2, 7927, Note_off_c, 0, 39, 0
2, 7928, Note_on_c, 0, 28, 100
2, 7928, Note_off_c, 0, 33, 0
2, 7929, Note_on_c, 0, 33, 100
2, 7929, Note_off_c, 0, 28, 0
2, 7930, Note_on_c, 0, 90, 100
2, 7930, Note_off_c, 0, 33, 0
2, 7932, Note_on_c, 0, 39, 100
2, 7932, Note_off_c, 0, 90, 0
2, 7933, Note_on_c, 0, 35, 100
2, 7933, Note_off_c, 0, 39, 0
2, 7934, Note_on_c, 0, 33, 100
2, 7934, Note_off_c, 0, 35, 0
2, 7935, Note_on_c, 0, 35, 100
2, 7935, Note_off_c, 0, 33, 0
2, 7936, Note_on_c, 0, 30, 100
2, 7936, Note_off_c, 0, 35, 0
2, 7937, Note_on_c, 0, 39, 100
2, 7937, Note_off_c, 0, 30, 0
2, 7938, Note_on_c, 0, 35, 100
2, 7938, Note_off_c, 0, 39, 0
2, 7940, Note_on_c, 0, 37, 100
2, 7940, Note_off_c, 0, 35, 0
2, 7941, Note_on_c, 0, 33, 100
2, 7941, Note_off_c, 0, 37, 0
2, 7942, Note_off_c, 0, 33, 0
2, 7943, Note_on_c, 0, 62, 100
2, 7944, Note_off_c, 0, 62, 0
2, 7945, Note_on_c, 0, 50, 100
2, 7946, Note_off_c, 0, 50, 0
2, 7947, Note_on_c, 0, 49, 100
2, 7948, Note_off_c, 0, 49, 0
2, 7949, Note_on_c, 0, 51, 100
2, 7950, Note_off_c, 0, 51, 0
2, 7951, Note_on_c, 0, 73, 100
2, 7952, Note_off_c, 0, 73, 0
2, 7953, Note_on_c, 0, 69, 100
2, 7954, Note_off_c, 0, 69, 0
2, 7955, Note_on_c, 0, 54, 100
2, 7956, Note_off_c, 0, 54, 0
2, 7957, Note_on_c, 0, 51, 100
2, 7958, Note_off_c, 0, 51, 0
2, 7959, Note_on_c, 0, 53, 100
2, 7960, Note_off_c, 0, 53, 0
2, 7961, Note_on_c, 0, 78, 100
2, 7962, Note_off_c, 0, 78, 0
2, 7963, Note_on_c, 0, 42, 100
2, 7964, Note_off_c, 0, 42, 0
2, 7965, Note_on_c, 0, 78, 100
2, 7966, Note_off_c, 0, 78, 0
2, 7967, Note_on_c, 0, 76, 100
2, 7968, Note_off_c, 0, 76, 0
2, 7969, Note_on_c, 0, 49, 100
2, 8035, Note_off_c, 0, 49, 0
2, 8036, Note_on_c, 0, 45, 100
2, 8053, Note_off_c, 0, 45, 0
2, 8054, Note_on_c, 0, 45, 100
2, 8144, Note_off_c, 0, 45, 0
2, 8145, Note_on_c, 0, 57, 100
2, 8176, Note_off_c, 0, 57, 0
2, 8177, Note_on_c, 0, 58, 100
2, 8235, Note_off_c, 0, 58, 0
2, 8236, Note_on_c, 0, 40, 100
2, 8342, Note_off_c, 0, 40, 0
2, 8343, Note_on_c, 0, 44, 100
2, 8360, Note_off_c, 0, 44, 0
2, 8361, Note_on_c, 0, 40, 100
2, 8381, Note_off_c, 0, 40, 0
2, 8382, Note_on_c, 0, 41, 100
2, 8445, Note_on_c, 0, 37, 100
2, 8445, Note_off_c, 0, 41, 0
2, 8446, Note_on_c, 0, 41, 100
2, 8446, Note_off_c, 0, 37, 0
2, 8453, Note_off_c, 0, 41, 0
2, 8454, Note_on_c, 0, 47, 100
2, 8616, Note_off_c, 0, 47, 0
2, 8617, Note_on_c, 0, 49, 100
2, 8654, Note_off_c, 0, 49, 0
2, 8655, Note_on_c, 0, 49, 100
2, 8757, Note_off_c, 0, 49, 0
2, 8758, Note_on_c, 0, 54, 100
2, 8934, Note_off_c, 0, 54, 0
2, 8935, Note_on_c, 0, 57, 100
2, 8985, Note_off_c, 0, 57, 0
2, 8986, Note_on_c, 0, 56, 100
2, 9042, Note_off_c, 0, 56, 0
2, 9043, Note_on_c, 0, 69, 100
2, 9044, Note_on_c, 0, 42, 100
2, 9044, Note_off_c, 0, 69, 0
2, 9045, Note_on_c, 0, 47, 100
2, 9045, Note_off_c, 0, 42, 0
2, 9046, Note_on_c, 0, 69, 100
2, 9046, Note_off_c, 0, 47, 0
2, 9047, Note_on_c, 0, 47, 100
2, 9047, Note_off_c, 0, 69, 0
2, 9048, Note_on_c, 0, 69, 100
2, 9048, Note_off_c, 0, 47, 0
2, 9055, Note_off_c, 0, 69, 0
2, 9056, Note_on_c, 0, 45, 100
2, 9113, Note_on_c, 0, 70, 100
2, 9113, Note_off_c, 0, 45, 0
2, 9114, Note_on_c, 0, 45, 100
2, 9114, Note_off_c, 0, 70, 0
2, 9364, Note_off_c, 0, 45, 0
2, 9365, Note_on_c, 0, 47, 100
2, 9494, Note_off_c, 0, 47, 0
2, 9495, Note_on_c, 0, 45, 100
2, 9530, Note_off_c, 0, 45, 0
2, 9531, Note_on_c, 0, 42, 100
2, 9614, Note_off_c, 0, 42, 0
2, 9615, Note_on_c, 0, 42, 100
2, 10016, Note_off_c, 0, 42, 0
2, 10017, Note_on_c, 0, 45, 100
2, 10040, Note_off_c, 0, 45, 0
2, 10041, Note_on_c, 0, 44, 100
2, 10093, Note_off_c, 0, 44, 0
2, 10094, Note_on_c, 0, 42, 100
2, 10216, Note_off_c, 0, 42, 0
2, 10217, Note_on_c, 0, 37, 100
2, 10218, Note_on_c, 0, 40, 100
2, 10218, Note_off_c, 0, 37, 0
2, 10219, Note_on_c, 0, 33, 100
2, 10219, Note_off_c, 0, 40, 0
2, 10220, Note_on_c, 0, 40, 100
2, 10220, Note_off_c, 0, 33, 0
2, 10221, Note_on_c, 0, 35, 100
2, 10221, Note_off_c, 0, 40, 0
2, 10223, Note_on_c, 0, 30, 100
2, 10223, Note_off_c, 0, 35, 0
2, 10224, Note_on_c, 0, 28, 100
2, 10224, Note_off_c, 0, 30, 0
2, 10225, Note_on_c, 0, 35, 100
2, 10225, Note_off_c, 0, 28, 0
2, 10226, Note_on_c, 0, 33, 100
2, 10226, Note_off_c, 0, 35, 0
2, 10227, Note_on_c, 0, 28, 100
2, 10227, Note_off_c, 0, 33, 0
2, 10228, Note_on_c, 0, 35, 100
2, 10228, Note_off_c, 0, 28, 0
2, 10229, Note_on_c, 0, 28, 100
2, 10229, Note_off_c, 0, 35, 0
2, 10230, Note_on_c, 0, 35, 100
2, 10230, Note_off_c, 0, 28, 0
2, 10231, Note_on_c, 0, 28, 100
2, 10231, Note_off_c, 0, 35, 0
2, 10232, Note_on_c, 0, 30, 100
2, 10232, Note_off_c, 0, 28, 0
2, 10234, Note_on_c, 0, 28, 100
2, 10234, Note_off_c, 0, 30, 0
2, 10235, Note_on_c, 0, 33, 100
2, 10235, Note_off_c, 0, 28, 0
2, 10236, Note_on_c, 0, 35, 100
2, 10236, Note_off_c, 0, 33, 0
2, 10237, Note_on_c, 0, 60, 100
2, 10237, Note_off_c, 0, 35, 0
2, 10238, Note_on_c, 0, 28, 100
2, 10238, Note_off_c, 0, 60, 0
2, 10239, Note_on_c, 0, 35, 100
2, 10239, Note_off_c, 0, 28, 0
2, 10240, Note_on_c, 0, 33, 100
2, 10240, Note_off_c, 0, 35, 0
2, 10241, Note_on_c, 0, 35, 100
2, 10241, Note_off_c, 0, 33, 0
2, 10245, Note_on_c, 0, 33, 100
2, 10245, Note_off_c, 0, 35, 0
2, 10248, Note_on_c, 0, 35, 100
2, 10248, Note_off_c, 0, 33, 0
2, 10249, Note_on_c, 0, 28, 100
2, 10249, Note_off_c, 0, 35, 0
2, 10250, Note_on_c, 0, 35, 100
2, 10250, Note_off_c, 0, 28, 0
2, 10251, Note_on_c, 0, 30, 100
2, 10251, Note_off_c, 0, 35, 0
2, 10252, Note_on_c, 0, 33, 100
2, 10252, Note_off_c, 0, 30, 0
2, 10253, Note_on_c, 0, 58, 100
2, 10253, Note_off_c, 0, 33, 0
2, 10254, Note_on_c, 0, 30, 100
2, 10254, Note_off_c, 0, 58, 0
2, 10255, Note_on_c, 0, 79, 100
2, 10255, Note_off_c, 0, 30, 0
2, 10256, Note_on_c, 0, 88, 100
2, 10256, Note_off_c, 0, 79, 0
2, 10257, Note_on_c, 0, 39, 100
2, 10257, Note_off_c, 0, 88, 0
2, 10258, Note_on_c, 0, 30, 100
2, 10258, Note_off_c, 0, 39, 0
2, 10259, Note_on_c, 0, 79, 100
2, 10259, Note_off_c, 0, 30, 0
2, 10260, Note_off_c, 0, 79, 0
2, 10261, Note_on_c, 0, 38, 100
2, 10262, Note_on_c, 0, 72, 100
2, 10262, Note_off_c, 0, 38, 0
2, 10266, Note_off_c, 0, 72, 0
2, 10267, Note_on_c, 0, 60, 100
2, 10305, Note_off_c, 0, 60, 0
2, 10306, Note_on_c, 0, 62, 100
2, 10410, Note_off_c, 0, 62, 0
2, 10411, Note_on_c, 0, 59, 100
2, 10412, Note_off_c, 0, 59, 0
2, 10413, Note_on_c, 0, 61, 100
2, 10414, Note_off_c, 0, 61, 0
2, 10415, Note_on_c, 0, 59, 100
2, 10416, Note_off_c, 0, 59, 0
2, 10417, Note_on_c, 0, 57, 100
2, 10418, Note_off_c, 0, 57, 0
2, 10419, Note_on_c, 0, 61, 100
2, 10420, Note_off_c, 0, 61, 0
2, 10421, Note_on_c, 0, 56, 100
2, 10422, Note_off_c, 0, 56, 0
2, 10423, Note_on_c, 0, 61, 100
2, 10424, Note_off_c, 0, 61, 0
2, 10425, Note_on_c, 0, 59, 100
2, 10426, Note_off_c, 0, 59, 0
2, 10427, Note_on_c, 0, 61, 100
2, 10428, Note_off_c, 0, 61, 0
2, 10429, Note_on_c, 0, 61, 100
2, 10430, Note_off_c, 0, 61, 0
2, 10431, Note_on_c, 0, 75, 100
2, 10432, Note_off_c, 0, 75, 0
2, 10433, Note_on_c, 0, 68, 100
2, 10434, Note_off_c, 0, 68, 0
2, 10435, Note_on_c, 0, 61, 100
2, 10636, Note_off_c, 0, 61, 0
2, 10637, Note_on_c, 0, 78, 100
2, 10638, Note_off_c, 0, 78, 0
2, 10639, Note_on_c, 0, 56, 100
2, 10640, Note_off_c, 0, 56, 0
2, 10641, Note_on_c, 0, 61, 100
2, 10809, Note_off_c, 0, 61, 0
2, 10810, Note_on_c, 0, 64, 100
2, 10857, Note_off_c, 0, 64, 0
2, 10858, Note_on_c, 0, 57, 100
2, 10901, Note_off_c, 0, 57, 0
2, 10902, Note_on_c, 0, 57, 100
2, 10903, Note_off_c, 0, 57, 0
2, 10904, Note_on_c, 0, 61, 100
2, 10905, Note_off_c, 0, 61, 0
2, 10906, Note_on_c, 0, 57, 100
2, 10907, Note_off_c, 0, 57, 0
2, 10908, Note_on_c, 0, 61, 100
2, 10909, Note_off_c, 0, 61, 0
2, 10910, Note_on_c, 0, 59, 100
2, 10911, Note_off_c, 0, 59, 0
2, 10912, Note_on_c, 0, 62, 100
2, 10913, Note_off_c, 0, 62, 0
2, 10914, Note_on_c, 0, 61, 100
2, 10915, Note_off_c, 0, 61, 0
2, 10916, Note_on_c, 0, 61, 100
2, 10917, Note_off_c, 0, 61, 0
2, 10918, Note_on_c, 0, 54, 100
2, 10919, Note_off_c, 0, 54, 0
2, 10920, Note_on_c, 0, 51, 100
2, 10921, Note_off_c, 0, 51, 0
2, 10922, Note_on_c, 0, 54, 100
2, 10961, Note_off_c, 0, 54, 0
2, 10962, Note_on_c, 0, 42, 100
2, 10965, Note_off_c, 0, 42, 0
2, 10966, Note_on_c, 0, 54, 100
2, 12001, Note_off_c, 0, 54, 0
2, 12002, Note_on_c, 0, 56, 100
2, 12079, Note_off_c, 0, 56, 0
2, 12080, Note_on_c, 0, 57, 100
2, 12098, Note_off_c, 0, 57, 0
2, 12099, Note_on_c, 0, 61, 100
2, 13159, Note_off_c, 0, 61, 0
2, 13160, Note_on_c, 0, 59, 100
2, 13304, Note_off_c, 0, 59, 0
2, 13305, Note_on_c, 0, 61, 100
2, 13315, Note_off_c, 0, 61, 0
2, 13316, Note_on_c, 0, 54, 100
2, 13363, Note_off_c, 0, 54, 0
2, 13364, Note_on_c, 0, 42, 100
2, 13452, Note_off_c, 0, 42, 0
2, 13486, Note_on_c, 0, 59, 100
2, 20185, Note_off_c, 0, 59, 0
2, 20186, Note_on_c, 0, 66, 100
2, 20412, Note_off_c, 0, 66, 0
2, 20413, Note_on_c, 0, 66, 100
2, 20629, Note_off_c, 0, 66, 0
2, 20630, Note_on_c, 0, 66, 100
2, 20883, Note_off_c, 0, 66, 0
2, 20884, Note_on_c, 0, 66, 100
2, 20943, Note_off_c, 0, 66, 0
2, 20944, Note_on_c, 0, 69, 100
2, 20967, Note_off_c, 0, 69, 0
2, 20986, Note_on_c, 0, 61, 100
2, 21075, Note_off_c, 0, 61, 0
2, 21076, Note_on_c, 0, 54, 100
2, 21234, Note_off_c, 0, 54, 0
2, 21235, Note_on_c, 0, 46, 100
2, 21289, Note_off_c, 0, 46, 0
2, 21290, Note_on_c, 0, 61, 100
2, 21511, Note_off_c, 0, 61, 0
2, 21512, Note_on_c, 0, 59, 100
2, 21759, Note_off_c, 0, 59, 0
2, 21760, Note_on_c, 0, 56, 100
2, 21761, Note_on_c, 0, 65, 100
2, 21761, Note_off_c, 0, 56, 0
2, 21762, Note_on_c, 0, 56, 100
2, 21762, Note_off_c, 0, 65, 0
2, 21880, Note_off_c, 0, 56, 0
2, 21881, Note_on_c, 0, 59, 100
2, 37559, Note_on_c, 0, 56, 100
2, 37559, Note_off_c, 0, 59, 0
2, 37560, Note_on_c, 0, 59, 100
2, 37560, Note_off_c, 0, 56, 0
2, 37561, Note_on_c, 0, 56, 100
2, 37561, Note_off_c, 0, 59, 0
2, 37562, Note_on_c, 0, 59, 100
2, 37562, Note_off_c, 0, 56, 0
2, 37563, Note_on_c, 0, 56, 100
2, 37563, Note_off_c, 0, 59, 0
2, 37564, Note_on_c, 0, 59, 100
2, 37564, Note_off_c, 0, 56, 0
2, 37565, Note_on_c, 0, 56, 100
2, 37565, Note_off_c, 0, 59, 0
2, 37566, Note_on_c, 0, 59, 100
2, 37566, Note_off_c, 0, 56, 0
2, 37567, Note_on_c, 0, 57, 100
2, 37567, Note_off_c, 0, 59, 0
2, 37568, Note_on_c, 0, 59, 100
2, 37568, Note_off_c, 0, 57, 0
2, 37569, Note_on_c, 0, 57, 100
2, 37569, Note_off_c, 0, 59, 0
2, 37570, Note_on_c, 0, 59, 100
2, 37570, Note_off_c, 0, 57, 0
2, 37571, Note_on_c, 0, 57, 100
2, 37571, Note_off_c, 0, 59, 0
2, 37572, Note_on_c, 0, 59, 100
2, 37572, Note_off_c, 0, 57, 0
2, 37573, Note_on_c, 0, 57, 100
2, 37573, Note_off_c, 0, 59, 0
2, 37574, Note_on_c, 0, 59, 100
2, 37574, Note_off_c, 0, 57, 0
2, 37575, Note_on_c, 0, 57, 100
2, 37575, Note_off_c, 0, 59, 0
2, 37576, Note_on_c, 0, 59, 100
2, 37576, Note_off_c, 0, 57, 0
2, 37577, Note_on_c, 0, 57, 100
2, 37577, Note_off_c, 0, 59, 0
2, 37578, Note_on_c, 0, 59, 100
2, 37578, Note_off_c, 0, 57, 0
2, 37579, Note_on_c, 0, 57, 100
2, 37579, Note_off_c, 0, 59, 0
2, 37580, Note_on_c, 0, 59, 100
2, 37580, Note_off_c, 0, 57, 0
2, 37581, Note_on_c, 0, 56, 100
2, 37581, Note_off_c, 0, 59, 0
2, 37582, Note_on_c, 0, 59, 100
2, 37582, Note_off_c, 0, 56, 0
2, 37583, Note_on_c, 0, 56, 100
2, 37583, Note_off_c, 0, 59, 0
2, 37584, Note_on_c, 0, 59, 100
2, 37584, Note_off_c, 0, 56, 0
2, 37585, Note_on_c, 0, 41, 100
2, 37585, Note_off_c, 0, 59, 0
2, 37586, Note_on_c, 0, 59, 100
2, 37586, Note_off_c, 0, 41, 0
2, 37587, Note_on_c, 0, 56, 100
2, 37587, Note_off_c, 0, 59, 0
2, 37588, Note_on_c, 0, 59, 100
2, 37588, Note_off_c, 0, 56, 0
2, 37589, Note_on_c, 0, 56, 100
2, 37589, Note_off_c, 0, 59, 0
2, 37590, Note_on_c, 0, 59, 100
2, 37590, Note_off_c, 0, 56, 0
2, 37591, Note_on_c, 0, 56, 100
2, 37591, Note_off_c, 0, 59, 0
2, 37592, Note_on_c, 0, 59, 100
2, 37592, Note_off_c, 0, 56, 0
2, 37593, Note_on_c, 0, 56, 100
2, 37593, Note_off_c, 0, 59, 0
2, 37594, Note_on_c, 0, 59, 100
2, 37594, Note_off_c, 0, 56, 0
2, 37595, Note_on_c, 0, 56, 100
2, 37595, Note_off_c, 0, 59, 0
2, 37596, Note_on_c, 0, 59, 100
2, 37596, Note_off_c, 0, 56, 0
2, 37597, Note_on_c, 0, 56, 100
2, 37597, Note_off_c, 0, 59, 0
2, 37598, Note_on_c, 0, 59, 100
2, 37598, Note_off_c, 0, 56, 0
2, 37599, Note_on_c, 0, 56, 100
2, 37599, Note_off_c, 0, 59, 0
2, 37600, Note_on_c, 0, 59, 100
2, 37600, Note_off_c, 0, 56, 0
2, 37601, Note_on_c, 0, 56, 100
2, 37601, Note_off_c, 0, 59, 0
2, 37602, Note_on_c, 0, 59, 100
2, 37602, Note_off_c, 0, 56, 0
2, 37603, Note_on_c, 0, 56, 100
2, 37603, Note_off_c, 0, 59, 0
2, 37604, Note_on_c, 0, 59, 100
2, 37604, Note_off_c, 0, 56, 0
2, 37605, Note_on_c, 0, 56, 100
2, 37605, Note_off_c, 0, 59, 0
2, 37606, Note_on_c, 0, 59, 100
2, 37606, Note_off_c, 0, 56, 0
2, 37607, Note_on_c, 0, 56, 100
2, 37607, Note_off_c, 0, 59, 0
2, 37608, Note_on_c, 0, 59, 100
2, 37608, Note_off_c, 0, 56, 0
2, 37609, Note_on_c, 0, 56, 100
2, 37609, Note_off_c, 0, 59, 0
2, 37610, Note_on_c, 0, 59, 100
2, 37610, Note_off_c, 0, 56, 0
2, 37611, Note_on_c, 0, 56, 100
2, 37611, Note_off_c, 0, 59, 0
2, 37612, Note_on_c, 0, 59, 100
2, 37612, Note_off_c, 0, 56, 0
2, 37613, Note_on_c, 0, 56, 100
2, 37613, Note_off_c, 0, 59, 0
2, 37614, Note_on_c, 0, 59, 100
2, 37614, Note_off_c, 0, 56, 0
2, 37615, Note_on_c, 0, 56, 100
2, 37615, Note_off_c, 0, 59, 0
2, 37616, Note_on_c, 0, 59, 100
2, 37616, Note_off_c, 0, 56, 0
2, 37617, Note_on_c, 0, 51, 100
2, 37617, Note_off_c, 0, 59, 0
2, 37618, Note_on_c, 0, 59, 100
2, 37618, Note_off_c, 0, 51, 0
2, 37619, Note_on_c, 0, 56, 100
2, 37619, Note_off_c, 0, 59, 0
2, 37620, Note_on_c, 0, 61, 100
2, 37620, Note_off_c, 0, 56, 0
2, 43281, Note_off_c, 0, 61, 0
2, 43282, Note_on_c, 0, 59, 100
2, 44915, Note_off_c, 0, 59, 0
2, 44916, Note_on_c, 0, 54, 100
2, 44917, Note_off_c, 0, 54, 0
2, 44918, Note_on_c, 0, 54, 100
2, 44919, Note_off_c, 0, 54, 0
2, 44920, Note_on_c, 0, 52, 100
2, 44921, Note_off_c, 0, 52, 0
2, 44922, Note_on_c, 0, 50, 100
2, 44972, Note_off_c, 0, 50, 0
2, 44973, Note_on_c, 0, 50, 100
2, 45086, Note_off_c, 0, 50, 0
2, 45087, Note_on_c, 0, 44, 100
2, 45088, Note_on_c, 0, 46, 100
2, 45088, Note_off_c, 0, 44, 0
2, 45157, Note_off_c, 0, 46, 0
2, 45158, Note_on_c, 0, 46, 100
2, 45263, Note_off_c, 0, 46, 0
2, 45264, Note_on_c, 0, 47, 100
2, 45831, Note_off_c, 0, 47, 0
2, 45832, Note_on_c, 0, 52, 100
2, 50289, Note_on_c, 0, 10, 100
2, 50289, Note_off_c, 0, 52, 0
2, 50290, Note_off_c, 0, 10, 0
2, 50290, End_track
0, 0, End_of_file
