0, 0, Header, 1, 21, 240
1, 0, Start_track
1, 0, Time_signature, 2, 3, 12, 8
1, 0, Tempo, 441176
1, 0, Marker_t, "Frederic Chopin: 24 Preludes, Op. 28  (realtime sequence 5/97 by Ron Lubetsky, M.D. )"
1, 0, Marker_t, "Prelude No. 1 in C Major- Agitato"
1, 3600, Tempo, 521739
1, 3840, Tempo, 441176
1, 10800, Tempo, 521739
1, 11280, Tempo, 441176
1, 12240, Tempo, 504202
1, 13200, Tempo, 441176
1, 17280, Time_signature, 4, 2, 24, 8
1, 17280, Tempo, 500000
1, 19200, Marker_t, "Prelude No. 2 in a minor- Lento"
1, 76800, Tempo, 416667
1, 76800, Marker_t, "Prelude No. 3 in G Major- Vivace"
1, 78720, Tempo, 500000
1, 88320, Tempo, 521739
1, 90240, Tempo, 545455
1, 95040, Tempo, 571429
1, 98880, Tempo, 500000
1, 101760, Marker_t, "Prelude No. 4 in e minor- Largo"
1, 152640, Time_signature, 3, 3, 12, 8
1, 152640, Marker_t, "Prelude No. 5 in D Major- Molto allegro"
1, 167400, Time_signature, 3, 2, 24, 8
1, 167400, Marker_t, "Prelude No. 6 in b minor- Assai lento"
1, 215640, Marker_t, "Prelude No. 7 in A Major- Andantino"
1, 240120, Time_signature, 4, 2, 24, 8
1, 240120, Marker_t, "Prelude No. 8 in f-sharp minor- Molto agitato"
1, 258360, Tempo, 571429
1, 263160, Tempo, 500000
1, 267000, Tempo, 600000
1, 283320, Tempo, 500000
1, 283320, Marker_t, "Prelude No. 9 in E Major- Largo"
1, 324600, Time_signature, 3, 2, 24, 8
1, 324600, Tempo, 416667
1, 324600, Marker_t, "Prelude No. 10 in c-sharp minor- Molto allegro"
1, 326040, Tempo, 500000
1, 327480, Tempo, 468750
1, 328920, Tempo, 500000
1, 330360, Tempo, 441176
1, 331800, Tempo, 500000
1, 333240, Tempo, 416667
1, 333960, Tempo, 500000
1, 337560, Time_signature, 6, 3, 12, 8
1, 337560, Marker_t, "Prelude No. 11 in B Major- Vivace"
1, 357720, Time_signature, 3, 2, 24, 8
1, 357720, Tempo, 416667
1, 357720, Marker_t, "Prelude No. 12 in g-sharp minor- Presto"
1, 360600, Tempo, 441176
1, 361320, Tempo, 454545
1, 364200, Tempo, 500000
1, 377160, Tempo, 555556
1, 380760, Tempo, 500000
1, 389400, Time_signature, 6, 2, 24, 8
1, 389400, Tempo, 441176
1, 389400, Marker_t, "Prelude No. 13 in F-sharp Major- Lento"
1, 423960, Tempo, 416667
1, 425400, Tempo, 375000
1, 426840, Tempo, 416667
1, 428280, Tempo, 441176
1, 434040, Tempo, 500000
1, 452760, Tempo, 441176
1, 457080, Tempo, 416667
1, 458520, Tempo, 441176
1, 464280, Tempo, 375000
1, 470040, Tempo, 441176
1, 475800, Tempo, 500000
1, 477240, Time_signature, 4, 2, 24, 8
1, 477240, Tempo, 375000
1, 477240, Marker_t, "Prelude No. 14 in e-flat minor- Allegro"
1, 484920, Tempo, 416667
1, 486840, Tempo, 454545
1, 487800, Tempo, 416667
1, 488760, Tempo, 441176
1, 492600, Tempo, 500000
1, 494520, Marker_t, "Prelude No. 15 in D-flat Major- Sostenuto"
1, 554040, Tempo, 535714
1, 555000, Tempo, 500000
1, 570360, Tempo, 535714
1, 571320, Tempo, 500000
1, 574200, Tempo, 535714
1, 575160, Tempo, 500000
1, 625080, Marker_t, "Prelude No. 16 in b-flat minor- Presto con fuoco"
1, 641400, Tempo, 697674
1, 642360, Tempo, 545455
1, 643320, Tempo, 500000
1, 651000, Tempo, 550459
1, 651960, Tempo, 600000
1, 653880, Tempo, 500000
1, 654840, Time_signature, 6, 3, 12, 8
1, 656280, Marker_t, "Prelude No. 17 in A-flat Major- Allegretto"
1, 741240, Time_signature, 4, 2, 24, 8
1, 741240, Marker_t, "Prelude No. 18 in f minor- Molto allegro"
1, 757560, Tempo, 750000
1, 758520, Tempo, 810811
1, 759480, Tempo, 857143
1, 760440, Tempo, 750000
1, 763320, Time_signature, 3, 2, 24, 8
1, 763320, Tempo, 500000
1, 763320, Marker_t, "Prelude No. 19 in E-flat Major- Vivace"
1, 779160, Tempo, 588235
1, 779880, Tempo, 500000
1, 795000, Tempo, 535714
1, 797160, Tempo, 500000
1, 800040, Time_signature, 4, 2, 24, 8
1, 800040, Marker_t, "Prelude No. 20 in c minor- Largo"
1, 871080, Time_signature, 3, 2, 24, 8
1, 871080, Marker_t, "Prelude No. 21 in B-flat Major- Cantabile"
1, 920760, Time_signature, 6, 3, 12, 8
1, 920760, Marker_t, "Prelude No. 22 in g minor- Molto agitato"
1, 938760, Time_signature, 4, 2, 24, 8
1, 938760, Tempo, 416667
1, 938760, Marker_t, "Prelude No. 23 in F Major- Moderato"
1, 962760, Tempo, 454545
1, 963720, Tempo, 416667
1, 969480, Time_signature, 6, 3, 12, 8
1, 969480, Tempo, 447761
1, 969480, Marker_t, "Prelude No. 24 in d minor- Allegro appassionato"
1, 971640, Tempo, 504202
1, 978120, Tempo, 535714
1, 980280, Tempo, 638298
1, 981000, Tempo, 571429
1, 981720, Tempo, 526316
1, 983160, Tempo, 600000
1, 984600, Tempo, 512821
1, 986760, Tempo, 526316
1, 988920, Tempo, 512821
1, 993960, Tempo, 600000
1, 994680, Tempo, 512821
1, 996120, Tempo, 571429
1, 997560, Tempo, 535714
1, 998280, Tempo, 504202
1, 1003320, Tempo, 526316
1, 1010520, Tempo, 582524
1, 1011960, Tempo, 652174
1, 1012680, Tempo, 582524
1, 1014120, Tempo, 652174
1, 1014840, Tempo, 582524
1, 1017720, Tempo, 697674
1, 1018440, Tempo, 612245
1, 1019160, Tempo, 631579
1, 1019880, Tempo, 652174
1, 1020600, Tempo, 697674
1, 1021320, Tempo, 652174
1, 1023480, Tempo, 606061
1, 1023480, End_track
2, 0, Start_track
2, 0, Title_t, "Frederic Chopin:"
2, 0, Program_c, 0, 0
2, 138, Note_on_c, 0, 36, 60
2, 160, Control_c, 0, 64, 127
2, 252, Note_on_c, 0, 55, 30
2, 252, Note_on_c, 0, 43, 43
2, 345, Note_on_c, 0, 60, 52
2, 348, Note_on_c, 0, 52, 38
2, 418, Note_off_c, 0, 55, 64
2, 442, Note_on_c, 0, 64, 38
2, 447, Note_on_c, 0, 67, 68
2, 457, Note_off_c, 0, 60, 64
2, 457, Note_off_c, 0, 43, 64
2, 489, Note_on_c, 0, 60, 55
2, 548, Note_off_c, 0, 64, 64
2, 560, Note_on_c, 0, 57, 33
2, 562, Note_on_c, 0, 69, 44
2, 577, Note_off_c, 0, 60, 64
2, 605, Control_c, 0, 64, 0
2, 617, Note_off_c, 0, 67, 64
2, 639, Note_off_c, 0, 36, 64
2, 639, Note_off_c, 0, 52, 64
2, 661, Note_on_c, 0, 35, 69
2, 700, Control_c, 0, 64, 127
2, 756, Note_off_c, 0, 57, 64
2, 756, Note_on_c, 0, 43, 52
2, 758, Note_off_c, 0, 69, 64
2, 760, Note_on_c, 0, 55, 60
2, 824, Note_on_c, 0, 53, 54
2, 825, Note_on_c, 0, 62, 55
2, 898, Note_off_c, 0, 55, 64
2, 900, Note_on_c, 0, 67, 72
2, 903, Note_on_c, 0, 65, 61
2, 917, Note_off_c, 0, 62, 64
2, 971, Note_on_c, 0, 62, 62
2, 979, Note_off_c, 0, 65, 64
2, 1020, Note_off_c, 0, 53, 64
2, 1040, Note_on_c, 0, 57, 64
2, 1041, Note_on_c, 0, 69, 52
2, 1046, Note_off_c, 0, 62, 64
2, 1048, Note_off_c, 0, 67, 64
2, 1059, Control_c, 0, 64, 0
2, 1061, Note_off_c, 0, 43, 64
2, 1144, Note_off_c, 0, 35, 64
2, 1144, Note_on_c, 0, 36, 72
2, 1183, Control_c, 0, 64, 127
2, 1208, Note_on_c, 0, 43, 44
2, 1219, Note_on_c, 0, 55, 62
2, 1230, Note_off_c, 0, 57, 64
2, 1231, Note_off_c, 0, 69, 64
2, 1288, Note_on_c, 0, 60, 69
2, 1288, Note_on_c, 0, 52, 40
2, 1360, Note_off_c, 0, 43, 64
2, 1368, Note_on_c, 0, 64, 58
2, 1370, Note_on_c, 0, 67, 91
2, 1379, Note_off_c, 0, 55, 64
2, 1390, Note_off_c, 0, 60, 64
2, 1439, Note_on_c, 0, 60, 68
2, 1475, Note_off_c, 0, 64, 64
2, 1493, Note_off_c, 0, 52, 64
2, 1496, Note_on_c, 0, 57, 60
2, 1498, Note_on_c, 0, 69, 57
2, 1510, Note_off_c, 0, 67, 64
2, 1515, Note_off_c, 0, 60, 64
2, 1539, Control_c, 0, 64, 0
2, 1573, Note_off_c, 0, 36, 64
2, 1590, Note_on_c, 0, 40, 90
2, 1655, Control_c, 0, 64, 127
2, 1672, Note_on_c, 0, 48, 69
2, 1675, Note_on_c, 0, 59, 73
2, 1684, Note_off_c, 0, 57, 64
2, 1686, Note_off_c, 0, 69, 64
2, 1728, Note_on_c, 0, 55, 38
2, 1735, Note_on_c, 0, 64, 69
2, 1782, Note_off_c, 0, 59, 64
2, 1824, Note_on_c, 0, 71, 80
2, 1824, Note_on_c, 0, 67, 69
2, 1843, Note_off_c, 0, 64, 64
2, 1891, Note_on_c, 0, 64, 73
2, 1915, Note_off_c, 0, 48, 64
2, 1940, Control_c, 0, 64, 0
2, 1961, Note_off_c, 0, 67, 64
2, 1963, Note_off_c, 0, 64, 64
2, 1964, Note_on_c, 0, 60, 72
2, 1969, Note_on_c, 0, 72, 80
2, 1980, Note_off_c, 0, 71, 64
2, 1983, Note_off_c, 0, 55, 64
2, 2011, Note_off_c, 0, 40, 64
2, 2040, Note_on_c, 0, 41, 96
2, 2096, Control_c, 0, 64, 127
2, 2132, Note_off_c, 0, 60, 64
2, 2137, Note_off_c, 0, 72, 64
2, 2148, Note_on_c, 0, 48, 52
2, 2149, Note_on_c, 0, 64, 72
2, 2204, Note_on_c, 0, 57, 39
2, 2210, Note_on_c, 0, 69, 79
2, 2283, Note_off_c, 0, 64, 64
2, 2292, Note_on_c, 0, 76, 98
2, 2292, Note_on_c, 0, 72, 73
2, 2304, Note_off_c, 0, 48, 64
2, 2307, Note_off_c, 0, 69, 64
2, 2348, Note_on_c, 0, 69, 67
2, 2388, Note_off_c, 0, 72, 64
2, 2405, Control_c, 0, 64, 0
2, 2408, Note_on_c, 0, 62, 62
2, 2409, Note_on_c, 0, 74, 84
2, 2411, Note_off_c, 0, 76, 64
2, 2424, Note_off_c, 0, 69, 64
2, 2460, Note_off_c, 0, 41, 64
2, 2485, Note_off_c, 0, 57, 64
2, 2508, Note_on_c, 0, 42, 102
2, 2534, Control_c, 0, 64, 127
2, 2591, Note_off_c, 0, 62, 64
2, 2592, Note_off_c, 0, 74, 64
2, 2592, Note_on_c, 0, 50, 66
2, 2598, Note_on_c, 0, 64, 74
2, 2664, Note_on_c, 0, 69, 67
2, 2668, Note_on_c, 0, 60, 50
2, 2710, Note_off_c, 0, 64, 64
2, 2740, Note_on_c, 0, 72, 62
2, 2746, Note_on_c, 0, 76, 86
2, 2762, Note_off_c, 0, 69, 64
2, 2802, Note_on_c, 0, 69, 62
2, 2819, Note_off_c, 0, 60, 64
2, 2838, Note_off_c, 0, 72, 64
2, 2843, Note_off_c, 0, 50, 64
2, 2854, Control_c, 0, 64, 0
2, 2868, Note_on_c, 0, 74, 72
2, 2868, Note_on_c, 0, 62, 51
2, 2888, Note_off_c, 0, 76, 64
2, 2890, Note_off_c, 0, 69, 64
2, 2928, Note_off_c, 0, 42, 64
2, 2947, Note_on_c, 0, 43, 74
2, 2995, Control_c, 0, 64, 127
2, 3039, Note_off_c, 0, 62, 64
2, 3041, Note_off_c, 0, 74, 64
2, 3056, Note_on_c, 0, 53, 64
2, 3058, Note_on_c, 0, 64, 66
2, 3124, Note_on_c, 0, 59, 12
2, 3128, Note_on_c, 0, 67, 58
2, 3170, Note_off_c, 0, 64, 64
2, 3224, Note_on_c, 0, 71, 40
2, 3226, Note_on_c, 0, 76, 69
2, 3234, Note_off_c, 0, 67, 64
2, 3266, Note_off_c, 0, 53, 64
2, 3277, Note_off_c, 0, 59, 64
2, 3292, Note_on_c, 0, 67, 50
2, 3336, Control_c, 0, 64, 0
2, 3352, Control_c, 0, 64, 127
2, 3364, Note_on_c, 0, 74, 61
2, 3367, Note_on_c, 0, 62, 40
2, 3378, Note_off_c, 0, 76, 64
2, 3392, Note_off_c, 0, 67, 64
2, 3405, Note_off_c, 0, 71, 64
2, 3444, Note_off_c, 0, 43, 64
2, 3487, Note_on_c, 0, 31, 64
2, 3544, Note_off_c, 0, 74, 64
2, 3547, Note_off_c, 0, 62, 64
2, 3580, Note_on_c, 0, 59, 40
2, 3580, Note_on_c, 0, 43, 43
2, 3687, Note_on_c, 0, 62, 44
2, 3688, Note_on_c, 0, 53, 38
2, 3792, Note_on_c, 0, 65, 28
2, 3793, Note_off_c, 0, 59, 64
2, 3796, Note_on_c, 0, 71, 51
2, 3805, Note_off_c, 0, 62, 64
2, 3880, Note_on_c, 0, 62, 32
2, 3921, Note_off_c, 0, 43, 64
2, 3921, Note_off_c, 0, 65, 64
2, 3940, Note_on_c, 0, 57, 30
2, 3946, Note_on_c, 0, 69, 43
2, 3953, Note_off_c, 0, 71, 64
2, 3958, Note_off_c, 0, 62, 64
2, 3968, Note_off_c, 0, 53, 64
2, 4002, Note_off_c, 0, 31, 64
2, 4047, Control_c, 0, 64, 0
2, 4085, Note_on_c, 0, 36, 86
2, 4122, Note_off_c, 0, 57, 64
2, 4128, Note_off_c, 0, 69, 64
2, 4139, Control_c, 0, 64, 127
2, 4179, Note_on_c, 0, 43, 55
2, 4190, Note_on_c, 0, 55, 43
2, 4248, Note_on_c, 0, 52, 36
2, 4251, Note_on_c, 0, 60, 50
2, 4312, Note_on_c, 0, 64, 36
2, 4316, Note_on_c, 0, 67, 51
2, 4328, Note_off_c, 0, 60, 64
2, 4329, Note_off_c, 0, 55, 64
2, 4377, Note_off_c, 0, 43, 64
2, 4388, Note_on_c, 0, 60, 48
2, 4406, Note_off_c, 0, 64, 64
2, 4444, Note_on_c, 0, 57, 39
2, 4445, Note_on_c, 0, 69, 52
2, 4451, Control_c, 0, 64, 0
2, 4461, Note_off_c, 0, 67, 64
2, 4463, Note_off_c, 0, 60, 64
2, 4466, Note_off_c, 0, 52, 64
2, 4499, Note_off_c, 0, 36, 64
2, 4542, Note_on_c, 0, 35, 52
2, 4572, Control_c, 0, 64, 127
2, 4621, Note_off_c, 0, 69, 64
2, 4625, Note_off_c, 0, 57, 64
2, 4628, Note_on_c, 0, 43, 66
2, 4629, Note_on_c, 0, 55, 43
2, 4676, Note_on_c, 0, 53, 55
2, 4679, Note_on_c, 0, 62, 50
2, 4744, Note_on_c, 0, 65, 48
2, 4745, Note_off_c, 0, 55, 64
2, 4748, Note_on_c, 0, 67, 75
2, 4762, Note_off_c, 0, 62, 64
2, 4806, Note_on_c, 0, 62, 62
2, 4807, Note_off_c, 0, 65, 64
2, 4858, Control_c, 0, 64, 0
2, 4864, Note_on_c, 0, 57, 61
2, 4867, Note_on_c, 0, 69, 55
2, 4880, Note_off_c, 0, 53, 64
2, 4888, Note_off_c, 0, 62, 64
2, 4893, Note_off_c, 0, 67, 64
2, 4901, Note_off_c, 0, 35, 64
2, 4933, Note_off_c, 0, 43, 64
2, 4966, Note_on_c, 0, 36, 72
2, 4980, Control_c, 0, 64, 127
2, 5045, Note_on_c, 0, 55, 60
2, 5045, Note_on_c, 0, 43, 48
2, 5051, Note_off_c, 0, 57, 64
2, 5054, Note_off_c, 0, 69, 64
2, 5100, Note_on_c, 0, 60, 55
2, 5100, Note_on_c, 0, 52, 36
2, 5136, Note_on_c, 0, 64, 54
2, 5137, Note_on_c, 0, 67, 73
2, 5145, Note_off_c, 0, 55, 64
2, 5180, Note_off_c, 0, 60, 64
2, 5192, Note_off_c, 0, 43, 64
2, 5225, Note_off_c, 0, 64, 64
2, 5229, Note_on_c, 0, 60, 60
2, 5268, Control_c, 0, 64, 0
2, 5274, Note_on_c, 0, 69, 58
2, 5276, Note_on_c, 0, 57, 39
2, 5283, Note_off_c, 0, 67, 64
2, 5296, Note_off_c, 0, 60, 64
2, 5300, Note_off_c, 0, 52, 64
2, 5356, Note_on_c, 0, 40, 79
2, 5358, Note_off_c, 0, 36, 64
2, 5382, Control_c, 0, 64, 127
2, 5432, Note_on_c, 0, 48, 51
2, 5438, Note_on_c, 0, 59, 50
2, 5456, Note_off_c, 0, 69, 64
2, 5458, Note_off_c, 0, 57, 64
2, 5480, Note_on_c, 0, 64, 62
2, 5484, Note_on_c, 0, 55, 30
2, 5531, Note_off_c, 0, 59, 64
2, 5546, Note_on_c, 0, 67, 51
2, 5548, Note_on_c, 0, 71, 79
2, 5564, Note_off_c, 0, 64, 64
2, 5607, Note_on_c, 0, 64, 51
2, 5616, Note_off_c, 0, 67, 64
2, 5626, Note_off_c, 0, 48, 64
2, 5650, Control_c, 0, 64, 0
2, 5673, Note_off_c, 0, 64, 64
2, 5676, Note_on_c, 0, 72, 62
2, 5676, Note_on_c, 0, 60, 69
2, 5692, Note_off_c, 0, 55, 64
2, 5697, Note_off_c, 0, 71, 64
2, 5742, Note_off_c, 0, 40, 64
2, 5751, Note_on_c, 0, 41, 61
2, 5781, Control_c, 0, 64, 127
2, 5808, Note_on_c, 0, 61, 60
2, 5816, Note_on_c, 0, 48, 52
2, 5846, Note_off_c, 0, 60, 64
2, 5846, Note_off_c, 0, 72, 64
2, 5880, Note_on_c, 0, 65, 67
2, 5880, Note_on_c, 0, 57, 40
2, 5952, Note_on_c, 0, 73, 81
2, 5952, Note_on_c, 0, 69, 38
2, 5959, Note_off_c, 0, 61, 64
2, 5960, Note_off_c, 0, 65, 64
2, 5991, Note_off_c, 0, 69, 64
2, 5997, Note_off_c, 0, 48, 64
2, 6008, Note_on_c, 0, 65, 67
2, 6027, Note_off_c, 0, 57, 64
2, 6079, Note_off_c, 0, 65, 64
2, 6083, Control_c, 0, 64, 0
2, 6088, Note_on_c, 0, 74, 72
2, 6088, Note_on_c, 0, 62, 51
2, 6102, Note_off_c, 0, 73, 64
2, 6175, Note_off_c, 0, 41, 64
2, 6183, Note_on_c, 0, 43, 87
2, 6225, Control_c, 0, 64, 127
2, 6255, Note_off_c, 0, 62, 64
2, 6259, Note_off_c, 0, 74, 64
2, 6272, Note_on_c, 0, 63, 76
2, 6272, Note_on_c, 0, 48, 55
2, 6348, Note_on_c, 0, 58, 38
2, 6349, Note_on_c, 0, 67, 73
2, 6415, Note_off_c, 0, 63, 64
2, 6416, Note_on_c, 0, 72, 68
2, 6418, Note_on_c, 0, 75, 73
2, 6437, Note_off_c, 0, 67, 64
2, 6453, Note_off_c, 0, 48, 64
2, 6476, Note_off_c, 0, 72, 64
2, 6485, Note_off_c, 0, 58, 64
2, 6486, Note_on_c, 0, 67, 68
2, 6544, Note_on_c, 0, 76, 84
2, 6548, Note_on_c, 0, 64, 62
2, 6567, Control_c, 0, 64, 0
2, 6568, Note_off_c, 0, 75, 64
2, 6571, Note_off_c, 0, 67, 64
2, 6615, Note_off_c, 0, 43, 64
2, 6643, Note_on_c, 0, 45, 66
2, 6672, Control_c, 0, 64, 127
2, 6712, Note_on_c, 0, 53, 45
2, 6718, Note_on_c, 0, 67, 45
2, 6731, Note_off_c, 0, 76, 64
2, 6735, Note_off_c, 0, 64, 64
2, 6779, Note_on_c, 0, 69, 52
2, 6780, Note_on_c, 0, 60, 22
2, 6846, Note_on_c, 0, 72, 51
2, 6848, Note_on_c, 0, 79, 66
2, 6869, Note_off_c, 0, 69, 64
2, 6871, Note_off_c, 0, 67, 64
2, 6916, Note_off_c, 0, 53, 64
2, 6930, Note_on_c, 0, 69, 50
2, 6955, Note_off_c, 0, 60, 64
2, 6985, Note_off_c, 0, 72, 64
2, 6990, Control_c, 0, 64, 0
2, 6992, Note_on_c, 0, 77, 43
2, 6998, Note_off_c, 0, 79, 64
2, 6999, Note_on_c, 0, 65, 55
2, 7007, Note_off_c, 0, 69, 64
2, 7053, Note_off_c, 0, 45, 64
2, 7068, Note_on_c, 0, 43, 67
2, 7120, Control_c, 0, 64, 127
2, 7156, Note_on_c, 0, 52, 54
2, 7158, Note_on_c, 0, 63, 66
2, 7172, Note_off_c, 0, 77, 64
2, 7179, Note_off_c, 0, 65, 64
2, 7224, Note_on_c, 0, 60, 21
2, 7225, Note_on_c, 0, 67, 60
2, 7259, Note_off_c, 0, 52, 64
2, 7276, Note_on_c, 0, 75, 74
2, 7280, Note_on_c, 0, 72, 51
2, 7292, Note_off_c, 0, 67, 64
2, 7321, Note_off_c, 0, 63, 64
2, 7338, Note_off_c, 0, 72, 64
2, 7352, Note_on_c, 0, 67, 46
2, 7420, Control_c, 0, 64, 0
2, 7424, Note_on_c, 0, 64, 81
2, 7428, Note_on_c, 0, 76, 68
2, 7435, Note_off_c, 0, 67, 64
2, 7446, Note_off_c, 0, 75, 64
2, 7449, Note_off_c, 0, 60, 64
2, 7513, Note_off_c, 0, 43, 64
2, 7525, Note_on_c, 0, 45, 88
2, 7563, Note_off_c, 0, 64, 64
2, 7580, Note_on_c, 0, 64, 73
2, 7584, Note_on_c, 0, 53, 45
2, 7603, Control_c, 0, 64, 127
2, 7608, Note_off_c, 0, 76, 64
2, 7660, Note_on_c, 0, 69, 48
2, 7660, Note_on_c, 0, 60, 32
2, 7723, Note_off_c, 0, 53, 64
2, 7753, Note_on_c, 0, 72, 60
2, 7757, Note_on_c, 0, 76, 50
2, 7771, Note_off_c, 0, 69, 64
2, 7824, Note_off_c, 0, 72, 64
2, 7825, Note_on_c, 0, 69, 45
2, 7878, Control_c, 0, 64, 0
2, 7882, Note_off_c, 0, 60, 64
2, 7890, Note_off_c, 0, 64, 64
2, 7891, Note_off_c, 0, 69, 64
2, 7897, Note_on_c, 0, 65, 69
2, 7903, Note_on_c, 0, 77, 57
2, 7917, Note_off_c, 0, 76, 64
2, 7962, Note_off_c, 0, 45, 64
2, 7976, Note_on_c, 0, 66, 80
2, 7981, Note_on_c, 0, 47, 58
2, 7992, Note_off_c, 0, 65, 64
2, 8028, Note_on_c, 0, 55, 31
2, 8038, Control_c, 0, 64, 127
2, 8096, Note_on_c, 0, 71, 60
2, 8098, Note_off_c, 0, 77, 64
2, 8139, Note_off_c, 0, 55, 64
2, 8160, Note_on_c, 0, 62, 36
2, 8192, Note_on_c, 0, 78, 55
2, 8192, Note_on_c, 0, 74, 40
2, 8193, Note_off_c, 0, 71, 64
2, 8234, Note_off_c, 0, 74, 64
2, 8272, Note_on_c, 0, 71, 64
2, 8303, Control_c, 0, 64, 0
2, 8317, Note_off_c, 0, 62, 64
2, 8332, Note_off_c, 0, 66, 64
2, 8340, Note_off_c, 0, 71, 64
2, 8344, Note_on_c, 0, 79, 32
2, 8347, Note_on_c, 0, 67, 76
2, 8362, Note_off_c, 0, 78, 64
2, 8389, Note_off_c, 0, 47, 64
2, 8422, Note_on_c, 0, 48, 73
2, 8424, Note_on_c, 0, 68, 91
2, 8437, Note_off_c, 0, 67, 64
2, 8460, Control_c, 0, 64, 127
2, 8488, Note_on_c, 0, 55, 66
2, 8536, Note_on_c, 0, 72, 66
2, 8554, Note_off_c, 0, 79, 64
2, 8568, Note_on_c, 0, 64, 38
2, 8630, Note_off_c, 0, 55, 64
2, 8633, Note_off_c, 0, 72, 64
2, 8636, Note_on_c, 0, 76, 37
2, 8640, Note_on_c, 0, 80, 73
2, 8690, Note_off_c, 0, 76, 64
2, 8709, Note_on_c, 0, 72, 75
2, 8726, Control_c, 0, 64, 0
2, 8760, Note_on_c, 0, 81, 84
2, 8760, Note_on_c, 0, 69, 68
2, 8764, Note_off_c, 0, 68, 64
2, 8783, Note_off_c, 0, 72, 64
2, 8790, Note_off_c, 0, 64, 64
2, 8790, Note_off_c, 0, 80, 64
2, 8826, Note_off_c, 0, 48, 64
2, 8848, Note_on_c, 0, 70, 93
2, 8849, Note_on_c, 0, 50, 73
2, 8850, Note_off_c, 0, 69, 64
2, 8877, Control_c, 0, 64, 127
2, 8928, Note_on_c, 0, 55, 73
2, 8948, Note_on_c, 0, 74, 69
2, 8975, Note_off_c, 0, 81, 64
2, 9008, Note_on_c, 0, 65, 43
2, 9010, Note_off_c, 0, 70, 64
2, 9027, Note_off_c, 0, 74, 64
2, 9051, Note_on_c, 0, 82, 48
2, 9052, Note_on_c, 0, 77, 72
2, 9083, Note_off_c, 0, 55, 64
2, 9113, Note_on_c, 0, 74, 76
2, 9120, Note_off_c, 0, 77, 64
2, 9174, Control_c, 0, 64, 0
2, 9186, Note_on_c, 0, 83, 75
2, 9190, Note_on_c, 0, 71, 51
2, 9194, Note_off_c, 0, 74, 64
2, 9196, Note_off_c, 0, 65, 64
2, 9201, Note_off_c, 0, 82, 64
2, 9259, Note_off_c, 0, 50, 64
2, 9281, Note_on_c, 0, 52, 104
2, 9328, Control_c, 0, 64, 127
2, 9346, Note_on_c, 0, 74, 84
2, 9348, Note_on_c, 0, 60, 60
2, 9359, Note_off_c, 0, 83, 64
2, 9363, Note_off_c, 0, 71, 64
2, 9400, Note_on_c, 0, 67, 57
2, 9403, Note_on_c, 0, 76, 66
2, 9448, Note_off_c, 0, 67, 64
2, 9472, Note_on_c, 0, 86, 62
2, 9472, Note_on_c, 0, 79, 61
2, 9477, Note_off_c, 0, 60, 64
2, 9484, Note_off_c, 0, 76, 64
2, 9487, Note_off_c, 0, 74, 64
2, 9533, Note_on_c, 0, 76, 73
2, 9579, Note_off_c, 0, 79, 64
2, 9596, Note_on_c, 0, 84, 76
2, 9598, Control_c, 0, 64, 0
2, 9603, Note_on_c, 0, 72, 72
2, 9614, Note_off_c, 0, 76, 64
2, 9614, Note_off_c, 0, 86, 64
2, 9684, Note_on_c, 0, 42, 90
2, 9685, Note_off_c, 0, 52, 64
2, 9712, Control_c, 0, 64, 127
2, 9773, Note_on_c, 0, 71, 61
2, 9776, Note_off_c, 0, 84, 64
2, 9776, Note_on_c, 0, 51, 45
2, 9784, Note_off_c, 0, 72, 64
2, 9824, Note_on_c, 0, 60, 44
2, 9825, Note_on_c, 0, 72, 62
2, 9900, Note_on_c, 0, 75, 38
2, 9904, Note_on_c, 0, 83, 76
2, 9907, Note_off_c, 0, 51, 64
2, 9918, Note_off_c, 0, 72, 64
2, 9920, Note_off_c, 0, 71, 64
2, 9959, Note_off_c, 0, 60, 64
2, 9979, Note_on_c, 0, 72, 46
2, 9991, Control_c, 0, 64, 0
2, 10045, Note_off_c, 0, 42, 64
2, 10048, Note_on_c, 0, 81, 72
2, 10051, Note_on_c, 0, 69, 55
2, 10054, Note_off_c, 0, 83, 64
2, 10058, Note_off_c, 0, 75, 64
2, 10063, Note_off_c, 0, 72, 64
2, 10114, Note_on_c, 0, 43, 60
2, 10119, Note_off_c, 0, 69, 64
2, 10124, Note_on_c, 0, 69, 82
2, 10161, Control_c, 0, 64, 127
2, 10180, Note_on_c, 0, 52, 21
2, 10236, Note_on_c, 0, 72, 40
2, 10248, Note_off_c, 0, 81, 64
2, 10296, Note_on_c, 0, 60, 30
2, 10333, Note_off_c, 0, 72, 64
2, 10380, Note_on_c, 0, 81, 44
2, 10384, Note_on_c, 0, 76, 33
2, 10414, Note_off_c, 0, 60, 64
2, 10424, Note_off_c, 0, 52, 64
2, 10431, Control_c, 0, 64, 0
2, 10469, Note_on_c, 0, 72, 50
2, 10523, Note_off_c, 0, 76, 64
2, 10524, Note_on_c, 0, 79, 58
2, 10524, Note_on_c, 0, 67, 36
2, 10530, Note_off_c, 0, 81, 64
2, 10534, Note_off_c, 0, 69, 64
2, 10541, Note_off_c, 0, 72, 64
2, 10542, Note_off_c, 0, 43, 64
2, 10614, Note_on_c, 0, 43, 55
2, 10658, Control_c, 0, 64, 127
2, 10717, Note_on_c, 0, 53, 32
2, 10720, Note_on_c, 0, 64, 28
2, 10723, Note_off_c, 0, 67, 64
2, 10723, Note_off_c, 0, 79, 64
2, 10772, Note_on_c, 0, 59, 22
2, 10778, Note_on_c, 0, 67, 38
2, 10846, Note_off_c, 0, 59, 64
2, 10859, Note_off_c, 0, 64, 64
2, 10862, Note_on_c, 0, 71, 25
2, 10864, Note_on_c, 0, 76, 39
2, 10878, Note_off_c, 0, 67, 64
2, 10919, Note_off_c, 0, 53, 64
2, 10938, Note_on_c, 0, 67, 25
2, 11020, Note_on_c, 0, 74, 45
2, 11021, Note_on_c, 0, 62, 19
2, 11028, Note_off_c, 0, 67, 64
2, 11034, Note_off_c, 0, 76, 64
2, 11043, Note_off_c, 0, 71, 64
2, 11069, Note_off_c, 0, 43, 64
2, 11082, Note_off_c, 0, 62, 64
2, 11092, Note_on_c, 0, 36, 30
2, 11096, Note_on_c, 0, 55, 55
2, 11106, Control_c, 0, 64, 0
2, 11212, Note_on_c, 0, 43, 30
2, 11232, Note_on_c, 0, 60, 22
2, 11235, Note_off_c, 0, 74, 64
2, 11271, Control_c, 0, 64, 127
2, 11312, Note_on_c, 0, 52, 19
2, 11337, Note_off_c, 0, 60, 64
2, 11400, Note_on_c, 0, 64, 19
2, 11408, Note_on_c, 0, 67, 55
2, 11467, Note_off_c, 0, 43, 64
2, 11478, Note_off_c, 0, 52, 64
2, 11504, Note_on_c, 0, 60, 30
2, 11528, Note_off_c, 0, 64, 64
2, 11532, Note_off_c, 0, 36, 64
2, 11575, Note_off_c, 0, 55, 64
2, 11582, Note_on_c, 0, 69, 39
2, 11582, Note_on_c, 0, 57, 45
2, 11592, Note_off_c, 0, 60, 64
2, 11598, Note_off_c, 0, 67, 64
2, 11643, Control_c, 0, 64, 0
2, 11652, Note_off_c, 0, 57, 64
2, 11688, Note_on_c, 0, 64, 61
2, 11693, Note_on_c, 0, 36, 45
2, 11759, Control_c, 0, 64, 127
2, 11760, Note_on_c, 0, 43, 43
2, 11772, Note_off_c, 0, 69, 64
2, 11784, Note_on_c, 0, 67, 36
2, 11844, Note_on_c, 0, 53, 22
2, 11863, Note_off_c, 0, 64, 64
2, 11868, Note_off_c, 0, 67, 64
2, 11904, Note_on_c, 0, 76, 32
2, 11906, Note_on_c, 0, 71, 33
2, 11980, Note_on_c, 0, 67, 39
2, 12017, Note_off_c, 0, 53, 64
2, 12035, Note_on_c, 0, 74, 57
2, 12036, Note_on_c, 0, 62, 37
2, 12054, Note_off_c, 0, 76, 64
2, 12060, Note_off_c, 0, 67, 64
2, 12071, Note_off_c, 0, 43, 64
2, 12071, Note_off_c, 0, 71, 64
2, 12091, Note_off_c, 0, 36, 64
2, 12106, Control_c, 0, 64, 0
2, 12112, Note_off_c, 0, 62, 64
2, 12144, Note_on_c, 0, 36, 39
2, 12208, Control_c, 0, 64, 127
2, 12231, Note_off_c, 0, 74, 64
2, 12240, Note_on_c, 0, 55, 19
2, 12240, Note_on_c, 0, 43, 30
2, 12272, Note_on_c, 0, 52, 21
2, 12275, Note_on_c, 0, 60, 44
2, 12311, Note_off_c, 0, 55, 64
2, 12340, Note_on_c, 0, 67, 52
2, 12340, Note_on_c, 0, 64, 21
2, 12348, Note_off_c, 0, 60, 64
2, 12393, Note_off_c, 0, 64, 64
2, 12393, Note_on_c, 0, 60, 32
2, 12426, Note_off_c, 0, 52, 64
2, 12432, Note_off_c, 0, 43, 64
2, 12456, Note_on_c, 0, 69, 55
2, 12460, Note_on_c, 0, 57, 33
2, 12465, Note_off_c, 0, 60, 64
2, 12482, Note_off_c, 0, 67, 64
2, 12492, Note_off_c, 0, 36, 64
2, 12518, Control_c, 0, 64, 0
2, 12555, Note_on_c, 0, 36, 50
2, 12600, Note_on_c, 0, 64, 44
2, 12600, Note_on_c, 0, 43, 37
2, 12603, Control_c, 0, 64, 127
2, 12614, Note_off_c, 0, 69, 64
2, 12619, Note_off_c, 0, 57, 64
2, 12672, Note_on_c, 0, 67, 37
2, 12672, Note_on_c, 0, 53, 26
2, 12768, Note_on_c, 0, 76, 52
2, 12768, Note_on_c, 0, 71, 37
2, 12789, Note_off_c, 0, 64, 64
2, 12803, Note_off_c, 0, 67, 64
2, 12880, Note_on_c, 0, 67, 33
2, 12886, Note_off_c, 0, 53, 64
2, 12921, Note_off_c, 0, 43, 64
2, 12929, Note_off_c, 0, 71, 64
2, 12944, Note_on_c, 0, 74, 33
2, 12945, Note_off_c, 0, 76, 64
2, 12952, Note_on_c, 0, 62, 30
2, 12964, Note_off_c, 0, 67, 64
2, 12980, Control_c, 0, 64, 0
2, 13047, Note_off_c, 0, 36, 64
2, 13115, Note_on_c, 0, 36, 55
2, 13136, Control_c, 0, 64, 127
2, 13195, Note_on_c, 0, 43, 43
2, 13196, Note_on_c, 0, 60, 52
2, 13258, Note_off_c, 0, 74, 64
2, 13266, Note_off_c, 0, 62, 64
2, 13272, Note_on_c, 0, 65, 37
2, 13272, Note_on_c, 0, 55, 21
2, 13307, Note_off_c, 0, 60, 64
2, 13364, Note_on_c, 0, 72, 54
2, 13364, Note_on_c, 0, 69, 36
2, 13370, Note_off_c, 0, 65, 64
2, 13420, Note_off_c, 0, 69, 64
2, 13421, Note_on_c, 0, 65, 43
2, 13423, Note_off_c, 0, 55, 64
2, 13450, Control_c, 0, 64, 0
2, 13496, Note_on_c, 0, 67, 36
2, 13496, Note_on_c, 0, 64, 26
2, 13501, Note_off_c, 0, 65, 64
2, 13502, Note_off_c, 0, 43, 64
2, 13510, Note_off_c, 0, 36, 64
2, 13582, Note_on_c, 0, 36, 33
2, 13591, Control_c, 0, 64, 127
2, 13668, Note_on_c, 0, 60, 37
2, 13668, Note_on_c, 0, 43, 43
2, 13677, Note_off_c, 0, 64, 64
2, 13677, Note_off_c, 0, 67, 64
2, 13698, Note_off_c, 0, 72, 64
2, 13744, Note_on_c, 0, 55, 26
2, 13751, Note_on_c, 0, 65, 37
2, 13782, Note_off_c, 0, 60, 64
2, 13843, Note_on_c, 0, 72, 61
2, 13843, Note_on_c, 0, 69, 40
2, 13851, Note_off_c, 0, 65, 64
2, 13891, Note_off_c, 0, 55, 64
2, 13918, Control_c, 0, 64, 0
2, 13928, Note_on_c, 0, 65, 32
2, 13933, Note_off_c, 0, 69, 64
2, 13983, Note_off_c, 0, 43, 64
2, 14008, Note_on_c, 0, 67, 26
2, 14015, Note_on_c, 0, 64, 28
2, 14019, Note_off_c, 0, 65, 64
2, 14038, Note_off_c, 0, 36, 64
2, 14068, Control_c, 0, 64, 127
2, 14088, Note_on_c, 0, 36, 33
2, 14179, Note_on_c, 0, 43, 37
2, 14180, Note_off_c, 0, 72, 64
2, 14186, Note_on_c, 0, 60, 44
2, 14219, Note_off_c, 0, 67, 64
2, 14221, Note_off_c, 0, 64, 64
2, 14280, Note_on_c, 0, 55, 26
2, 14284, Note_on_c, 0, 65, 31
2, 14297, Note_off_c, 0, 60, 64
2, 14380, Note_on_c, 0, 69, 18
2, 14384, Note_on_c, 0, 72, 50
2, 14389, Note_off_c, 0, 65, 64
2, 14443, Note_off_c, 0, 55, 64
2, 14464, Note_on_c, 0, 65, 33
2, 14476, Note_off_c, 0, 69, 64
2, 14480, Control_c, 0, 64, 0
2, 14516, Note_off_c, 0, 43, 64
2, 14556, Note_on_c, 0, 67, 25
2, 14561, Note_on_c, 0, 64, 10
2, 14567, Note_off_c, 0, 36, 64
2, 14568, Note_off_c, 0, 65, 64
2, 14625, Control_c, 0, 64, 127
2, 14652, Note_on_c, 0, 36, 26
2, 14719, Note_off_c, 0, 72, 64
2, 14741, Note_on_c, 0, 43, 31
2, 14744, Note_on_c, 0, 60, 39
2, 14762, Note_off_c, 0, 67, 64
2, 14767, Note_off_c, 0, 64, 64
2, 14857, Note_on_c, 0, 65, 18
2, 14863, Note_on_c, 0, 55, 16
2, 14896, Note_off_c, 0, 60, 64
2, 14994, Note_on_c, 0, 72, 39
2, 14998, Note_on_c, 0, 69, 18
2, 15016, Note_off_c, 0, 65, 64
2, 15082, Note_off_c, 0, 69, 64
2, 15158, Note_on_c, 0, 65, 14
2, 15189, Control_c, 0, 64, 0
2, 15230, Note_off_c, 0, 43, 64
2, 15235, Note_off_c, 0, 55, 64
2, 15317, Note_on_c, 0, 67, 9
2, 15319, Note_on_c, 0, 64, 14
2, 15324, Note_off_c, 0, 36, 64
2, 15326, Note_off_c, 0, 65, 64
2, 15501, Note_on_c, 0, 36, 24
2, 15525, Control_c, 0, 64, 127
2, 15652, Note_off_c, 0, 67, 64
2, 15664, Note_off_c, 0, 72, 64
2, 15672, Note_on_c, 0, 43, 24
2, 15702, Note_off_c, 0, 64, 64
2, 15816, Note_on_c, 0, 48, 22
2, 16004, Note_on_c, 0, 52, 28
2, 16164, Note_on_c, 0, 55, 24
2, 16380, Note_on_c, 0, 60, 21
2, 16716, Note_on_c, 0, 64, 14
2, 16927, Note_off_c, 0, 43, 64
2, 16931, Note_off_c, 0, 52, 64
2, 16934, Note_off_c, 0, 48, 64
2, 16935, Note_off_c, 0, 60, 64
2, 16935, Note_off_c, 0, 64, 64
2, 16938, Note_off_c, 0, 55, 64
2, 16945, Note_off_c, 0, 36, 64
2, 18899, Control_c, 0, 64, 0
2, 19296, Note_on_c, 0, 40, 27
2, 19297, Note_on_c, 0, 47, 26
2, 19305, Control_c, 0, 64, 127
2, 19592, Note_on_c, 0, 46, 32
2, 19596, Note_on_c, 0, 55, 26
2, 19612, Note_off_c, 0, 40, 64
2, 19635, Note_off_c, 0, 47, 64
2, 19859, Control_c, 0, 64, 0
2, 19864, Note_on_c, 0, 47, 33
2, 19864, Note_on_c, 0, 40, 32
2, 19877, Note_off_c, 0, 55, 64
2, 19886, Note_off_c, 0, 46, 64
2, 20136, Note_on_c, 0, 55, 28
2, 20141, Note_off_c, 0, 40, 64
2, 20142, Note_on_c, 0, 43, 31
2, 20152, Control_c, 0, 64, 127
2, 20172, Note_off_c, 0, 47, 64
2, 20403, Note_off_c, 0, 43, 64
2, 20407, Note_on_c, 0, 40, 29
2, 20411, Note_on_c, 0, 47, 29
2, 20418, Control_c, 0, 64, 0
2, 20436, Note_off_c, 0, 55, 64
2, 20680, Control_c, 0, 64, 127
2, 20691, Note_on_c, 0, 46, 32
2, 20701, Note_on_c, 0, 55, 22
2, 20720, Note_off_c, 0, 47, 64
2, 20742, Note_off_c, 0, 40, 64
2, 20757, Control_c, 0, 64, 0
2, 20970, Note_on_c, 0, 40, 26
2, 20978, Note_on_c, 0, 47, 34
2, 20998, Note_off_c, 0, 46, 64
2, 21008, Note_off_c, 0, 55, 64
2, 21219, Control_c, 0, 64, 127
2, 21237, Control_c, 0, 64, 0
2, 21254, Control_c, 0, 64, 127
2, 21260, Note_on_c, 0, 43, 27
2, 21261, Note_on_c, 0, 55, 22
2, 21277, Note_off_c, 0, 47, 64
2, 21284, Note_off_c, 0, 40, 64
2, 21453, Control_c, 0, 64, 0
2, 21519, Note_on_c, 0, 40, 29
2, 21533, Note_on_c, 0, 47, 21
2, 21535, Note_off_c, 0, 43, 64
2, 21570, Note_off_c, 0, 55, 64
2, 21807, Note_on_c, 0, 46, 22
2, 21809, Note_on_c, 0, 55, 20
2, 21835, Note_off_c, 0, 47, 64
2, 21861, Note_off_c, 0, 40, 64
2, 22079, Note_on_c, 0, 40, 17
2, 22093, Note_on_c, 0, 47, 19
2, 22109, Note_off_c, 0, 46, 64
2, 22122, Note_off_c, 0, 55, 64
2, 22366, Note_on_c, 0, 55, 17
2, 22366, Note_on_c, 0, 43, 17
2, 22373, Note_off_c, 0, 47, 64
2, 22379, Control_c, 0, 64, 127
2, 22397, Note_off_c, 0, 40, 64
2, 22399, Control_c, 0, 64, 0
2, 22639, Note_on_c, 0, 40, 16
2, 22648, Note_on_c, 0, 47, 15
2, 22654, Note_off_c, 0, 43, 64
2, 22668, Note_off_c, 0, 55, 64
2, 22910, Note_on_c, 0, 46, 17
2, 22927, Note_on_c, 0, 55, 13
2, 22940, Note_off_c, 0, 47, 64
2, 22951, Note_off_c, 0, 40, 64
2, 23186, Note_on_c, 0, 40, 11
2, 23196, Note_on_c, 0, 47, 12
2, 23197, Control_c, 0, 64, 127
2, 23209, Note_off_c, 0, 46, 64
2, 23215, Note_off_c, 0, 55, 64
2, 23217, Control_c, 0, 64, 0
2, 23238, Control_c, 0, 64, 127
2, 23448, Note_on_c, 0, 55, 11
2, 23470, Note_on_c, 0, 43, 14
2, 23507, Note_off_c, 0, 40, 64
2, 23514, Note_off_c, 0, 47, 64
2, 23760, Note_on_c, 0, 40, 4
2, 23767, Note_on_c, 0, 47, 8
2, 23789, Note_off_c, 0, 43, 64
2, 23826, Note_off_c, 0, 55, 64
2, 23841, Note_on_c, 0, 64, 49
2, 23931, Control_c, 0, 64, 0
2, 24112, Note_off_c, 0, 40, 64
2, 24137, Note_on_c, 0, 46, 17
2, 24143, Note_on_c, 0, 55, 14
2, 24154, Note_off_c, 0, 47, 64
2, 24403, Note_on_c, 0, 40, 13
2, 24404, Note_on_c, 0, 47, 16
2, 24417, Control_c, 0, 64, 127
2, 24424, Note_off_c, 0, 55, 64
2, 24430, Note_off_c, 0, 46, 64
2, 24653, Note_on_c, 0, 43, 28
2, 24661, Note_on_c, 0, 55, 17
2, 24671, Note_off_c, 0, 40, 64
2, 24680, Note_off_c, 0, 47, 64
2, 24684, Control_c, 0, 64, 0
2, 24900, Note_on_c, 0, 40, 21
2, 24907, Note_off_c, 0, 43, 64
2, 24910, Note_on_c, 0, 47, 19
2, 24925, Note_off_c, 0, 55, 64
2, 24931, Control_c, 0, 64, 127
2, 24947, Control_c, 0, 64, 0
2, 24968, Control_c, 0, 64, 127
2, 25165, Note_on_c, 0, 46, 24
2, 25166, Note_on_c, 0, 55, 16
2, 25181, Control_c, 0, 64, 0
2, 25195, Note_off_c, 0, 47, 64
2, 25201, Note_off_c, 0, 40, 64
2, 25420, Note_on_c, 0, 40, 20
2, 25429, Note_on_c, 0, 47, 21
2, 25440, Note_off_c, 0, 46, 64
2, 25454, Note_off_c, 0, 55, 64
2, 25670, Note_on_c, 0, 59, 39
2, 25679, Note_on_c, 0, 43, 23
2, 25687, Note_off_c, 0, 40, 64
2, 25702, Note_off_c, 0, 64, 64
2, 25754, Note_off_c, 0, 47, 64
2, 25974, Note_on_c, 0, 47, 19
2, 25974, Note_on_c, 0, 38, 24
2, 25988, Note_off_c, 0, 43, 64
2, 26005, Note_on_c, 0, 62, 48
2, 26027, Note_off_c, 0, 59, 64
2, 26308, Note_off_c, 0, 38, 64
2, 26313, Note_on_c, 0, 55, 19
2, 26313, Note_on_c, 0, 46, 27
2, 26340, Note_off_c, 0, 47, 64
2, 26549, Control_c, 0, 64, 127
2, 26562, Note_on_c, 0, 47, 21
2, 26562, Note_on_c, 0, 38, 20
2, 26570, Note_off_c, 0, 55, 64
2, 26587, Note_off_c, 0, 46, 64
2, 26784, Control_c, 0, 64, 0
2, 26806, Note_off_c, 0, 38, 64
2, 26807, Note_on_c, 0, 43, 32
2, 26814, Note_on_c, 0, 55, 20
2, 26832, Note_off_c, 0, 47, 64
2, 27052, Control_c, 0, 64, 127
2, 27063, Note_on_c, 0, 38, 19
2, 27066, Note_on_c, 0, 47, 20
2, 27071, Note_off_c, 0, 43, 64
2, 27071, Note_off_c, 0, 55, 64
2, 27078, Control_c, 0, 64, 0
2, 27093, Control_c, 0, 64, 127
2, 27303, Note_on_c, 0, 46, 23
2, 27314, Note_on_c, 0, 55, 16
2, 27321, Note_off_c, 0, 38, 64
2, 27323, Note_off_c, 0, 47, 64
2, 27556, Note_on_c, 0, 38, 21
2, 27563, Note_off_c, 0, 55, 64
2, 27563, Note_on_c, 0, 47, 25
2, 27584, Note_off_c, 0, 46, 64
2, 27813, Note_on_c, 0, 43, 26
2, 27817, Note_on_c, 0, 55, 21
2, 27826, Note_off_c, 0, 38, 64
2, 27855, Note_off_c, 0, 47, 64
2, 27903, Note_off_c, 0, 62, 64
2, 28088, Note_on_c, 0, 38, 21
2, 28094, Note_on_c, 0, 45, 21
2, 28101, Note_off_c, 0, 43, 64
2, 28138, Control_c, 0, 64, 0
2, 28148, Note_on_c, 0, 62, 51
2, 28176, Note_off_c, 0, 55, 64
2, 28407, Note_off_c, 0, 45, 64
2, 28408, Note_on_c, 0, 44, 29
2, 28413, Note_on_c, 0, 55, 21
2, 28417, Note_off_c, 0, 38, 64
2, 28657, Note_on_c, 0, 45, 21
2, 28657, Note_on_c, 0, 38, 18
2, 28668, Note_off_c, 0, 44, 64
2, 28671, Note_off_c, 0, 55, 64
2, 28892, Note_on_c, 0, 43, 28
2, 28896, Note_on_c, 0, 55, 26
2, 28923, Note_off_c, 0, 38, 64
2, 28954, Note_on_c, 0, 66, 39
2, 28955, Note_off_c, 0, 45, 64
2, 28998, Note_off_c, 0, 62, 64
2, 29010, Note_on_c, 0, 64, 47
2, 29016, Note_off_c, 0, 66, 64
2, 29246, Note_on_c, 0, 62, 49
2, 29248, Note_off_c, 0, 55, 64
2, 29250, Note_off_c, 0, 64, 64
2, 29256, Note_on_c, 0, 45, 23
2, 29256, Note_on_c, 0, 38, 23
2, 29259, Note_off_c, 0, 43, 64
2, 29522, Note_on_c, 0, 54, 23
2, 29525, Note_on_c, 0, 44, 23
2, 29546, Note_off_c, 0, 45, 64
2, 29557, Note_off_c, 0, 38, 64
2, 29709, Note_off_c, 0, 54, 64
2, 29762, Note_on_c, 0, 38, 22
2, 29778, Note_on_c, 0, 45, 20
2, 29781, Note_off_c, 0, 44, 64
2, 30058, Note_on_c, 0, 57, 39
2, 30069, Note_on_c, 0, 54, 20
2, 30075, Note_on_c, 0, 42, 18
2, 30095, Note_off_c, 0, 38, 64
2, 30104, Note_off_c, 0, 45, 64
2, 30111, Control_c, 0, 64, 127
2, 30203, Note_off_c, 0, 62, 64
2, 30346, Note_off_c, 0, 54, 64
2, 30352, Note_off_c, 0, 42, 64
2, 30399, Note_on_c, 0, 43, 23
2, 30407, Note_on_c, 0, 59, 42
2, 30408, Note_on_c, 0, 31, 52
2, 30429, Note_off_c, 0, 57, 64
2, 30678, Note_on_c, 0, 52, 29
2, 30685, Note_on_c, 0, 55, 22
2, 30731, Note_off_c, 0, 43, 64
2, 30740, Note_off_c, 0, 31, 64
2, 30787, Note_off_c, 0, 59, 64
2, 30861, Control_c, 0, 64, 0
2, 30936, Note_on_c, 0, 59, 41
2, 30936, Note_on_c, 0, 50, 28
2, 30951, Note_on_c, 0, 43, 20
2, 30958, Note_off_c, 0, 52, 64
2, 30979, Control_c, 0, 64, 127
2, 30996, Note_off_c, 0, 55, 64
2, 31180, Note_on_c, 0, 51, 32
2, 31187, Note_off_c, 0, 50, 64
2, 31192, Note_on_c, 0, 55, 18
2, 31213, Note_off_c, 0, 59, 64
2, 31229, Note_off_c, 0, 43, 64
2, 31290, Note_on_c, 0, 59, 40
2, 31361, Note_off_c, 0, 59, 64
2, 31422, Note_on_c, 0, 59, 35
2, 31434, Note_on_c, 0, 50, 29
2, 31436, Note_off_c, 0, 51, 64
2, 31442, Note_on_c, 0, 43, 28
2, 31452, Control_c, 0, 64, 0
2, 31464, Note_off_c, 0, 55, 64
2, 31677, Note_on_c, 0, 52, 25
2, 31683, Note_on_c, 0, 55, 20
2, 31687, Note_off_c, 0, 50, 64
2, 31692, Control_c, 0, 64, 127
2, 31698, Note_off_c, 0, 43, 64
2, 31946, Note_on_c, 0, 50, 21
2, 31952, Note_on_c, 0, 43, 21
2, 31958, Note_off_c, 0, 52, 64
2, 32001, Note_off_c, 0, 55, 64
2, 32013, Control_c, 0, 64, 0
2, 32196, Note_on_c, 0, 51, 27
2, 32198, Note_off_c, 0, 50, 64
2, 32206, Note_on_c, 0, 55, 17
2, 32207, Control_c, 0, 64, 127
2, 32231, Note_off_c, 0, 43, 64
2, 32387, Control_c, 0, 64, 0
2, 32440, Note_on_c, 0, 50, 33
2, 32456, Note_on_c, 0, 43, 23
2, 32460, Note_off_c, 0, 51, 64
2, 32463, Note_off_c, 0, 55, 64
2, 32682, Note_on_c, 0, 52, 28
2, 32688, Note_on_c, 0, 55, 20
2, 32691, Note_off_c, 0, 43, 64
2, 32691, Note_off_c, 0, 50, 64
2, 32716, Control_c, 0, 64, 127
2, 32933, Note_off_c, 0, 52, 64
2, 32933, Note_on_c, 0, 50, 21
2, 32936, Note_on_c, 0, 43, 20
2, 32960, Note_off_c, 0, 55, 64
2, 33169, Note_off_c, 0, 50, 64
2, 33177, Control_c, 0, 64, 0
2, 33182, Note_on_c, 0, 51, 20
2, 33192, Note_off_c, 0, 43, 64
2, 33198, Note_on_c, 0, 55, 17
2, 33444, Note_on_c, 0, 50, 24
2, 33453, Note_off_c, 0, 51, 64
2, 33455, Note_on_c, 0, 43, 21
2, 33460, Control_c, 0, 64, 127
2, 33476, Note_off_c, 0, 55, 64
2, 33705, Note_off_c, 0, 43, 64
2, 33709, Note_off_c, 0, 50, 64
2, 33711, Note_on_c, 0, 52, 18
2, 33724, Note_on_c, 0, 55, 15
2, 34011, Note_on_c, 0, 43, 19
2, 34016, Note_on_c, 0, 50, 20
2, 34022, Note_off_c, 0, 52, 64
2, 34051, Note_off_c, 0, 59, 64
2, 34059, Note_off_c, 0, 55, 64
2, 34308, Note_off_c, 0, 43, 64
2, 34308, Note_on_c, 0, 55, 26
2, 34319, Note_on_c, 0, 52, 32
2, 34349, Note_off_c, 0, 50, 64
2, 34614, Note_off_c, 0, 55, 64
2, 34625, Note_off_c, 0, 52, 64
2, 34644, Note_on_c, 0, 47, 38
2, 34651, Note_on_c, 0, 54, 48
2, 34695, Control_c, 0, 64, 0
2, 34960, Note_on_c, 0, 53, 32
2, 34974, Note_on_c, 0, 62, 35
2, 34989, Note_off_c, 0, 54, 64
2, 35006, Note_off_c, 0, 47, 64
2, 35232, Note_on_c, 0, 47, 29
2, 35240, Note_on_c, 0, 54, 37
2, 35256, Note_off_c, 0, 53, 64
2, 35256, Control_c, 0, 64, 127
2, 35274, Note_off_c, 0, 62, 64
2, 35277, Control_c, 0, 64, 0
2, 35293, Control_c, 0, 64, 127
2, 35494, Note_on_c, 0, 50, 24
2, 35498, Note_on_c, 0, 62, 17
2, 35532, Note_off_c, 0, 47, 64
2, 35540, Note_off_c, 0, 54, 64
2, 35725, Note_on_c, 0, 47, 20
2, 35732, Note_on_c, 0, 54, 16
2, 35738, Note_off_c, 0, 50, 64
2, 35786, Note_on_c, 0, 71, 79
2, 35819, Note_off_c, 0, 62, 64
2, 35846, Control_c, 0, 64, 0
2, 36001, Note_off_c, 0, 54, 64
2, 36039, Note_on_c, 0, 62, 12
2, 36053, Note_on_c, 0, 53, 10
2, 36163, Note_off_c, 0, 47, 64
2, 36282, Note_on_c, 0, 54, 14
2, 36285, Note_off_c, 0, 53, 64
2, 36312, Note_on_c, 0, 47, 8
2, 36334, Control_c, 0, 64, 127
2, 36339, Note_off_c, 0, 62, 64
2, 36536, Note_on_c, 0, 62, 10
2, 36536, Note_on_c, 0, 50, 7
2, 36542, Note_off_c, 0, 47, 64
2, 36546, Note_on_c, 0, 66, 72
2, 36549, Note_off_c, 0, 54, 64
2, 36563, Note_off_c, 0, 71, 64
2, 36786, Note_off_c, 0, 50, 64
2, 36787, Note_on_c, 0, 45, 27
2, 36791, Note_on_c, 0, 54, 21
2, 36834, Note_on_c, 0, 69, 73
2, 36836, Note_off_c, 0, 62, 64
2, 36857, Note_off_c, 0, 66, 64
2, 37053, Note_off_c, 0, 54, 64
2, 37064, Note_on_c, 0, 53, 20
2, 37084, Note_on_c, 0, 62, 35
2, 37107, Note_off_c, 0, 45, 64
2, 37282, Note_off_c, 0, 62, 64
2, 37310, Note_on_c, 0, 54, 29
2, 37317, Note_on_c, 0, 45, 20
2, 37331, Note_off_c, 0, 53, 64
2, 37516, Note_off_c, 0, 45, 64
2, 37540, Note_on_c, 0, 62, 20
2, 37541, Note_on_c, 0, 50, 37
2, 37556, Note_off_c, 0, 54, 64
2, 37591, Control_c, 0, 64, 0
2, 37780, Note_off_c, 0, 50, 64
2, 37781, Note_on_c, 0, 45, 14
2, 37796, Control_c, 0, 64, 127
2, 37802, Note_on_c, 0, 54, 21
2, 37824, Note_off_c, 0, 62, 64
2, 38022, Note_on_c, 0, 62, 19
2, 38032, Note_on_c, 0, 53, 20
2, 38040, Note_off_c, 0, 54, 64
2, 38043, Note_off_c, 0, 45, 64
2, 38251, Note_on_c, 0, 45, 22
2, 38262, Note_on_c, 0, 54, 28
2, 38282, Note_off_c, 0, 53, 64
2, 38289, Note_off_c, 0, 62, 64
2, 38494, Note_off_c, 0, 45, 64
2, 38498, Note_on_c, 0, 62, 26
2, 38502, Note_on_c, 0, 50, 23
2, 38542, Note_off_c, 0, 54, 64
2, 38557, Note_off_c, 0, 69, 64
2, 38734, Note_off_c, 0, 50, 64
2, 38739, Note_on_c, 0, 45, 19
2, 38765, Note_on_c, 0, 52, 31
2, 38818, Note_on_c, 0, 69, 71
2, 38845, Note_off_c, 0, 62, 64
2, 38864, Control_c, 0, 64, 0
2, 39051, Note_on_c, 0, 51, 24
2, 39054, Note_off_c, 0, 52, 64
2, 39059, Note_off_c, 0, 45, 64
2, 39059, Note_on_c, 0, 62, 28
2, 39165, Control_c, 0, 64, 127
2, 39269, Note_off_c, 0, 51, 64
2, 39283, Note_on_c, 0, 52, 26
2, 39287, Note_on_c, 0, 45, 16
2, 39408, Note_off_c, 0, 62, 64
2, 39519, Note_off_c, 0, 45, 64
2, 39540, Note_on_c, 0, 50, 14
2, 39552, Note_on_c, 0, 61, 24
2, 39556, Note_on_c, 0, 73, 42
2, 39573, Note_off_c, 0, 52, 64
2, 39586, Note_off_c, 0, 69, 64
2, 39611, Note_on_c, 0, 71, 66
2, 39633, Note_off_c, 0, 73, 64
2, 39832, Note_on_c, 0, 69, 69
2, 39839, Note_off_c, 0, 71, 64
2, 39845, Note_off_c, 0, 50, 64
2, 39848, Note_on_c, 0, 45, 20
2, 39857, Note_off_c, 0, 61, 64
2, 39864, Note_on_c, 0, 52, 20
2, 40027, Control_c, 0, 64, 0
2, 40045, Control_c, 0, 64, 127
2, 40080, Note_on_c, 0, 61, 2
2, 40087, Note_on_c, 0, 51, 30
2, 40100, Note_off_c, 0, 45, 64
2, 40105, Note_off_c, 0, 52, 64
2, 40241, Note_off_c, 0, 61, 64
2, 40298, Note_off_c, 0, 51, 64
2, 40304, Note_on_c, 0, 52, 29
2, 40306, Note_on_c, 0, 45, 14
2, 40524, Note_on_c, 0, 64, 54
2, 40542, Note_off_c, 0, 52, 64
2, 40543, Note_on_c, 0, 61, 20
2, 40548, Note_on_c, 0, 49, 2
2, 40559, Note_off_c, 0, 69, 64
2, 40592, Note_off_c, 0, 45, 64
2, 40705, Note_off_c, 0, 61, 64
2, 40710, Note_off_c, 0, 49, 64
2, 40740, Control_c, 0, 64, 0
2, 40773, Note_on_c, 0, 66, 60
2, 40776, Note_off_c, 0, 64, 64
2, 40776, Note_on_c, 0, 45, 22
2, 40782, Note_on_c, 0, 51, 40
2, 40902, Control_c, 0, 64, 127
2, 40952, Note_off_c, 0, 45, 64
2, 41004, Note_off_c, 0, 51, 64
2, 41020, Note_on_c, 0, 61, 21
2, 41030, Note_on_c, 0, 50, 32
2, 41162, Note_off_c, 0, 66, 64
2, 41231, Note_off_c, 0, 50, 64
2, 41250, Note_on_c, 0, 66, 65
2, 41257, Note_on_c, 0, 45, 32
2, 41275, Note_on_c, 0, 51, 24
2, 41282, Note_off_c, 0, 61, 64
2, 41311, Control_c, 0, 64, 0
2, 41500, Note_off_c, 0, 51, 64
2, 41514, Note_off_c, 0, 45, 64
2, 41523, Note_on_c, 0, 61, 30
2, 41534, Note_on_c, 0, 49, 23
2, 41571, Control_c, 0, 64, 127
2, 41583, Note_off_c, 0, 66, 64
2, 41642, Note_on_c, 0, 66, 60
2, 41734, Control_c, 0, 64, 0
2, 41755, Note_off_c, 0, 66, 64
2, 41806, Note_off_c, 0, 49, 64
2, 41811, Note_on_c, 0, 66, 60
2, 41820, Note_on_c, 0, 45, 29
2, 41837, Note_off_c, 0, 61, 64
2, 41837, Note_on_c, 0, 51, 28
2, 41917, Control_c, 0, 64, 127
2, 42076, Note_off_c, 0, 51, 64
2, 42081, Note_on_c, 0, 61, 27
2, 42082, Note_on_c, 0, 50, 35
2, 42089, Note_off_c, 0, 45, 64
2, 42281, Note_off_c, 0, 50, 64
2, 42303, Note_on_c, 0, 45, 20
2, 42312, Note_on_c, 0, 51, 25
2, 42320, Note_off_c, 0, 61, 64
2, 42343, Control_c, 0, 64, 0
2, 42528, Note_off_c, 0, 51, 64
2, 42530, Note_off_c, 0, 45, 64
2, 42536, Note_on_c, 0, 61, 30
2, 42558, Note_on_c, 0, 49, 16
2, 42775, Note_on_c, 0, 51, 28
2, 42776, Note_on_c, 0, 45, 30
2, 42780, Note_off_c, 0, 49, 64
2, 42785, Note_off_c, 0, 61, 64
2, 42801, Control_c, 0, 64, 127
2, 42817, Control_c, 0, 64, 0
2, 42834, Control_c, 0, 64, 127
2, 43005, Note_off_c, 0, 45, 64
2, 43010, Note_off_c, 0, 51, 64
2, 43014, Note_on_c, 0, 50, 34
2, 43015, Note_on_c, 0, 61, 19
2, 43220, Note_off_c, 0, 50, 64
2, 43231, Note_on_c, 0, 45, 23
2, 43241, Control_c, 0, 64, 0
2, 43251, Note_on_c, 0, 51, 20
2, 43256, Note_off_c, 0, 61, 64
2, 43475, Note_off_c, 0, 51, 64
2, 43475, Note_off_c, 0, 45, 64
2, 43482, Note_on_c, 0, 49, 31
2, 43488, Note_on_c, 0, 61, 28
2, 43489, Control_c, 0, 64, 127
2, 43705, Note_off_c, 0, 49, 64
2, 43705, Note_on_c, 0, 45, 28
2, 43716, Note_on_c, 0, 51, 28
2, 43718, Note_off_c, 0, 61, 64
2, 43934, Note_off_c, 0, 45, 64
2, 43978, Note_on_c, 0, 50, 40
2, 43992, Note_on_c, 0, 60, 25
2, 44012, Note_off_c, 0, 51, 64
2, 44055, Control_c, 0, 64, 0
2, 44232, Note_off_c, 0, 50, 64
2, 44240, Note_on_c, 0, 51, 22
2, 44247, Note_on_c, 0, 45, 29
2, 44259, Note_off_c, 0, 60, 64
2, 44375, Control_c, 0, 64, 127
2, 44474, Note_off_c, 0, 45, 64
2, 44498, Note_on_c, 0, 60, 21
2, 44504, Note_on_c, 0, 48, 42
2, 44512, Note_off_c, 0, 51, 64
2, 44596, Note_off_c, 0, 60, 64
2, 44725, Note_off_c, 0, 48, 64
2, 44808, Note_on_c, 0, 42, 22
2, 44813, Note_on_c, 0, 51, 43
2, 44822, Control_c, 0, 64, 0
2, 45100, Note_on_c, 0, 57, 29
2, 45103, Note_off_c, 0, 66, 64
2, 45104, Control_c, 0, 64, 127
2, 45111, Note_on_c, 0, 50, 22
2, 45121, Note_off_c, 0, 51, 64
2, 45126, Control_c, 0, 64, 0
2, 45142, Control_c, 0, 64, 127
2, 45191, Note_off_c, 0, 42, 64
2, 45357, Note_on_c, 0, 42, 21
2, 45358, Note_on_c, 0, 51, 30
2, 45373, Note_off_c, 0, 50, 64
2, 45411, Note_off_c, 0, 57, 64
2, 45584, Note_off_c, 0, 51, 64
2, 45592, Note_off_c, 0, 42, 64
2, 45592, Note_on_c, 0, 48, 24
2, 45600, Note_on_c, 0, 57, 18
2, 45811, Note_off_c, 0, 48, 64
2, 45826, Note_on_c, 0, 42, 23
2, 45830, Note_on_c, 0, 51, 19
2, 45883, Note_off_c, 0, 57, 64
2, 46057, Note_off_c, 0, 51, 64
2, 46057, Note_on_c, 0, 50, 19
2, 46063, Note_on_c, 0, 57, 20
2, 46087, Control_c, 0, 64, 0
2, 46103, Note_off_c, 0, 42, 64
2, 46296, Note_on_c, 0, 51, 29
2, 46303, Note_on_c, 0, 42, 16
2, 46303, Control_c, 0, 64, 127
2, 46331, Note_off_c, 0, 50, 64
2, 46354, Note_off_c, 0, 57, 64
2, 46528, Note_off_c, 0, 42, 64
2, 46530, Note_on_c, 0, 57, 21
2, 46539, Note_on_c, 0, 48, 22
2, 46541, Note_off_c, 0, 51, 64
2, 46666, Control_c, 0, 64, 0
2, 46758, Note_off_c, 0, 48, 64
2, 46759, Note_on_c, 0, 51, 36
2, 46765, Note_on_c, 0, 42, 23
2, 46887, Note_off_c, 0, 57, 64
2, 47025, Note_off_c, 0, 51, 64
2, 47036, Note_on_c, 0, 57, 24
2, 47036, Note_on_c, 0, 50, 18
2, 47076, Note_off_c, 0, 42, 64
2, 47240, Note_on_c, 0, 42, 30
2, 47278, Note_on_c, 0, 51, 44
2, 47316, Note_off_c, 0, 50, 64
2, 47345, Note_on_c, 0, 69, 80
2, 47383, Note_off_c, 0, 57, 64
2, 47581, Note_off_c, 0, 42, 64
2, 47602, Note_off_c, 0, 51, 64
2, 47604, Note_on_c, 0, 48, 34
2, 47610, Note_on_c, 0, 57, 29
2, 47855, Note_off_c, 0, 48, 64
2, 47862, Note_on_c, 0, 41, 29
2, 47870, Note_on_c, 0, 51, 35
2, 47981, Note_off_c, 0, 57, 64
2, 48130, Note_on_c, 0, 57, 33
2, 48132, Note_on_c, 0, 50, 20
2, 48163, Note_off_c, 0, 51, 64
2, 48293, Note_off_c, 0, 41, 64
2, 48396, Note_on_c, 0, 51, 44
2, 48398, Note_off_c, 0, 50, 64
2, 48408, Note_on_c, 0, 41, 28
2, 48466, Note_off_c, 0, 57, 64
2, 48684, Note_on_c, 0, 47, 26
2, 48686, Note_off_c, 0, 41, 64
2, 48694, Note_on_c, 0, 57, 24
2, 48709, Note_off_c, 0, 51, 64
2, 48974, Note_off_c, 0, 47, 64
2, 48996, Note_on_c, 0, 40, 26
2, 49007, Note_on_c, 0, 48, 22
2, 49056, Note_off_c, 0, 57, 64
2, 49116, Control_c, 0, 64, 127
2, 49296, Note_on_c, 0, 57, 24
2, 49304, Note_on_c, 0, 47, 21
2, 49308, Note_off_c, 0, 40, 64
2, 49319, Note_off_c, 0, 48, 64
2, 49528, Note_on_c, 0, 48, 26
2, 49528, Note_on_c, 0, 40, 22
2, 49536, Note_off_c, 0, 47, 64
2, 49549, Note_off_c, 0, 57, 64
2, 49727, Note_off_c, 0, 40, 64
2, 49769, Note_off_c, 0, 48, 64
2, 49776, Note_on_c, 0, 57, 24
2, 49776, Note_on_c, 0, 45, 24
2, 49975, Note_off_c, 0, 45, 64
2, 50000, Note_on_c, 0, 40, 26
2, 50007, Note_off_c, 0, 57, 64
2, 50008, Note_on_c, 0, 48, 19
2, 50272, Note_on_c, 0, 57, 25
2, 50272, Note_on_c, 0, 47, 26
2, 50312, Note_off_c, 0, 40, 64
2, 50320, Note_off_c, 0, 48, 64
2, 50520, Note_on_c, 0, 48, 27
2, 50520, Note_on_c, 0, 40, 27
2, 50538, Note_off_c, 0, 69, 64
2, 50559, Note_off_c, 0, 47, 64
2, 50604, Note_off_c, 0, 57, 64
2, 50784, Note_on_c, 0, 57, 9
2, 50784, Note_on_c, 0, 45, 35
2, 50792, Note_on_c, 0, 64, 45
2, 50812, Note_off_c, 0, 40, 64
2, 50856, Note_off_c, 0, 48, 64
2, 51099, Note_on_c, 0, 40, 27
2, 51120, Note_on_c, 0, 48, 26
2, 51166, Note_on_c, 0, 65, 46
2, 51199, Note_off_c, 0, 57, 64
2, 51203, Note_off_c, 0, 45, 64
2, 51253, Note_off_c, 0, 64, 64
2, 51274, Control_c, 0, 64, 0
2, 51463, Control_c, 0, 64, 127
2, 51512, Note_on_c, 0, 47, 26
2, 51515, Note_on_c, 0, 57, 19
2, 51524, Note_off_c, 0, 40, 64
2, 51531, Note_off_c, 0, 48, 64
2, 51778, Note_off_c, 0, 57, 64
2, 51780, Note_on_c, 0, 48, 26
2, 51786, Note_on_c, 0, 40, 27
2, 51792, Note_off_c, 0, 47, 64
2, 52028, Note_off_c, 0, 40, 64
2, 52032, Note_on_c, 0, 57, 16
2, 52032, Note_on_c, 0, 45, 26
2, 52044, Note_off_c, 0, 48, 64
2, 52281, Note_off_c, 0, 57, 64
2, 52281, Note_on_c, 0, 40, 25
2, 52287, Note_on_c, 0, 48, 26
2, 52294, Note_off_c, 0, 45, 64
2, 52550, Note_on_c, 0, 57, 17
2, 52560, Note_on_c, 0, 47, 24
2, 52564, Note_off_c, 0, 48, 64
2, 52572, Note_off_c, 0, 40, 64
2, 52854, Note_on_c, 0, 48, 29
2, 52862, Note_on_c, 0, 40, 24
2, 52868, Note_off_c, 0, 47, 64
2, 52870, Note_off_c, 0, 57, 64
2, 53284, Note_on_c, 0, 57, 14
2, 53288, Note_on_c, 0, 45, 26
2, 53321, Note_off_c, 0, 48, 64
2, 53366, Note_off_c, 0, 40, 64
2, 53729, Note_off_c, 0, 57, 64
2, 53737, Note_off_c, 0, 45, 64
2, 53738, Note_off_c, 0, 65, 64
2, 53964, Note_on_c, 0, 65, 45
2, 54088, Control_c, 0, 64, 0
2, 54124, Control_c, 0, 64, 127
2, 55001, Note_on_c, 0, 69, 27
2, 55030, Note_off_c, 0, 65, 64
2, 55083, Note_on_c, 0, 67, 33
2, 55094, Note_off_c, 0, 69, 64
2, 55212, Control_c, 0, 64, 0
2, 55499, Note_on_c, 0, 65, 26
2, 55532, Note_off_c, 0, 67, 64
2, 55547, Control_c, 0, 64, 127
2, 56573, Note_on_c, 0, 60, 21
2, 56607, Note_off_c, 0, 65, 64
2, 56627, Control_c, 0, 64, 0
2, 57027, Note_on_c, 0, 62, 21
2, 57067, Note_off_c, 0, 60, 64
2, 57349, Control_c, 0, 64, 127
2, 57572, Note_off_c, 0, 62, 64
2, 57805, Note_on_c, 0, 62, 20
2, 57986, Note_off_c, 0, 62, 64
2, 58374, Note_on_c, 0, 62, 18
2, 58480, Note_off_c, 0, 62, 64
2, 58561, Note_on_c, 0, 62, 31
2, 58585, Note_on_c, 0, 40, 25
2, 58592, Note_on_c, 0, 48, 21
2, 58679, Control_c, 0, 64, 0
2, 58852, Note_off_c, 0, 48, 64
2, 58852, Note_on_c, 0, 53, 23
2, 58857, Note_on_c, 0, 47, 22
2, 58872, Note_off_c, 0, 40, 64
2, 58886, Control_c, 0, 64, 127
2, 59100, Note_on_c, 0, 48, 22
2, 59103, Note_off_c, 0, 47, 64
2, 59115, Note_on_c, 0, 40, 25
2, 59134, Note_off_c, 0, 53, 64
2, 59344, Note_on_c, 0, 45, 26
2, 59350, Note_off_c, 0, 40, 64
2, 59350, Note_on_c, 0, 53, 19
2, 59364, Note_off_c, 0, 48, 64
2, 59584, Note_off_c, 0, 45, 64
2, 59601, Note_on_c, 0, 40, 21
2, 59606, Note_off_c, 0, 53, 64
2, 59608, Note_on_c, 0, 48, 20
2, 59867, Note_on_c, 0, 53, 18
2, 59871, Note_on_c, 0, 47, 21
2, 59878, Note_off_c, 0, 48, 64
2, 59929, Note_off_c, 0, 40, 64
2, 60151, Note_on_c, 0, 48, 19
2, 60169, Note_off_c, 0, 53, 64
2, 60169, Note_on_c, 0, 40, 15
2, 60181, Note_off_c, 0, 47, 64
2, 60540, Note_on_c, 0, 53, 13
2, 60541, Note_on_c, 0, 45, 17
2, 60686, Note_off_c, 0, 48, 64
2, 60752, Note_off_c, 0, 53, 64
2, 60772, Note_off_c, 0, 40, 64
2, 60831, Note_off_c, 0, 45, 64
2, 60847, Note_off_c, 0, 62, 64
2, 60879, Control_c, 0, 64, 0
2, 62057, Note_on_c, 0, 62, 42
2, 62244, Control_c, 0, 64, 127
2, 62963, Note_on_c, 0, 65, 33
2, 62995, Note_off_c, 0, 62, 64
2, 63047, Note_on_c, 0, 64, 30
2, 63071, Note_off_c, 0, 65, 64
2, 63151, Control_c, 0, 64, 0
2, 63396, Note_on_c, 0, 62, 23
2, 63426, Note_off_c, 0, 64, 64
2, 64494, Note_on_c, 0, 57, 30
2, 64575, Note_off_c, 0, 62, 64
2, 64599, Control_c, 0, 64, 127
2, 65001, Note_on_c, 0, 59, 31
2, 65123, Control_c, 0, 64, 0
2, 65273, Control_c, 0, 64, 127
2, 65823, Note_off_c, 0, 59, 64
2, 65981, Note_on_c, 0, 59, 43
2, 66020, Note_off_c, 0, 57, 64
2, 66550, Note_off_c, 0, 59, 64
2, 66688, Note_on_c, 0, 59, 45
2, 66799, Note_off_c, 0, 59, 64
2, 66950, Note_on_c, 0, 59, 47
2, 66950, Note_on_c, 0, 52, 33
2, 66956, Note_on_c, 0, 56, 28
2, 66956, Note_on_c, 0, 47, 18
2, 66965, Note_on_c, 0, 40, 18
2, 67027, Control_c, 0, 64, 0
2, 67132, Control_c, 0, 64, 127
2, 67520, Note_off_c, 0, 40, 64
2, 67607, Note_off_c, 0, 52, 64
2, 67614, Note_off_c, 0, 59, 64
2, 67640, Note_off_c, 0, 47, 64
2, 67698, Note_off_c, 0, 56, 64
2, 67858, Note_on_c, 0, 35, 30
2, 67866, Note_on_c, 0, 51, 34
2, 67869, Note_on_c, 0, 59, 48
2, 67873, Note_on_c, 0, 47, 24
2, 67874, Note_on_c, 0, 54, 30
2, 67931, Control_c, 0, 64, 0
2, 68057, Control_c, 0, 64, 127
2, 68592, Note_off_c, 0, 51, 64
2, 68617, Note_off_c, 0, 35, 64
2, 68638, Note_off_c, 0, 59, 64
2, 68689, Note_off_c, 0, 47, 64
2, 68702, Note_off_c, 0, 54, 64
2, 68911, Note_on_c, 0, 56, 29
2, 68911, Note_on_c, 0, 47, 21
2, 68918, Note_on_c, 0, 59, 27
2, 68918, Note_on_c, 0, 52, 27
2, 68924, Note_on_c, 0, 40, 22
2, 68942, Control_c, 0, 64, 0
2, 69061, Control_c, 0, 64, 127
2, 69665, Note_off_c, 0, 40, 64
2, 69676, Note_off_c, 0, 47, 64
2, 69699, Note_off_c, 0, 52, 64
2, 69733, Note_off_c, 0, 56, 64
2, 69784, Note_off_c, 0, 59, 64
2, 70347, Note_on_c, 0, 28, 26
2, 70377, Note_on_c, 0, 40, 17
2, 70431, Note_on_c, 0, 50, 31
2, 70503, Note_on_c, 0, 52, 36
2, 70586, Note_on_c, 0, 56, 35
2, 70671, Note_on_c, 0, 59, 39
2, 71445, Note_off_c, 0, 59, 64
2, 71799, Note_on_c, 0, 60, 23
2, 71968, Note_off_c, 0, 28, 64
2, 72095, Note_off_c, 0, 40, 64
2, 72579, Note_on_c, 0, 33, 18
2, 72590, Control_c, 0, 64, 0
2, 72709, Control_c, 0, 64, 127
2, 72736, Note_off_c, 0, 56, 64
2, 72767, Note_off_c, 0, 60, 64
2, 72923, Note_on_c, 0, 40, 15
2, 72947, Note_off_c, 0, 50, 64
2, 72995, Note_off_c, 0, 52, 64
2, 73102, Note_on_c, 0, 48, 16
2, 73274, Note_on_c, 0, 52, 19
2, 73476, Note_on_c, 0, 57, 14
2, 75164, Note_off_c, 0, 40, 64
2, 75165, Note_off_c, 0, 33, 64
2, 75224, Note_off_c, 0, 52, 64
2, 75230, Note_off_c, 0, 57, 64
2, 75250, Note_off_c, 0, 48, 64
2, 76836, Control_c, 0, 64, 127
2, 76851, Note_on_c, 0, 43, 48
2, 76907, Note_on_c, 0, 50, 48
2, 76925, Note_off_c, 0, 43, 64
2, 76955, Note_off_c, 0, 50, 64
2, 76960, Note_on_c, 0, 55, 48
2, 77010, Note_on_c, 0, 57, 48
2, 77026, Note_off_c, 0, 55, 64
2, 77069, Note_off_c, 0, 57, 64
2, 77069, Note_on_c, 0, 59, 48
2, 77120, Note_on_c, 0, 57, 48
2, 77125, Note_off_c, 0, 59, 64
2, 77173, Note_on_c, 0, 55, 48
2, 77182, Note_off_c, 0, 57, 64
2, 77223, Note_off_c, 0, 55, 64
2, 77225, Note_on_c, 0, 64, 48
2, 77281, Note_on_c, 0, 62, 48
2, 77287, Note_off_c, 0, 64, 64
2, 77329, Note_off_c, 0, 62, 64
2, 77329, Note_on_c, 0, 60, 48
2, 77380, Note_off_c, 0, 60, 64
2, 77380, Note_on_c, 0, 59, 48
2, 77437, Note_on_c, 0, 57, 48
2, 77438, Note_off_c, 0, 59, 64
2, 77480, Note_off_c, 0, 57, 64
2, 77480, Note_on_c, 0, 55, 48
2, 77531, Note_on_c, 0, 57, 48
2, 77540, Note_off_c, 0, 55, 64
2, 77570, Note_off_c, 0, 57, 64
2, 77583, Note_on_c, 0, 59, 48
2, 77621, Note_off_c, 0, 59, 64
2, 77626, Note_on_c, 0, 50, 48
2, 77688, Note_on_c, 0, 43, 48
2, 77692, Note_off_c, 0, 50, 64
2, 77740, Note_on_c, 0, 50, 48
2, 77757, Note_off_c, 0, 43, 64
2, 77782, Note_off_c, 0, 50, 64
2, 77786, Note_on_c, 0, 55, 48
2, 77828, Note_on_c, 0, 57, 48
2, 77844, Control_c, 0, 64, 0
2, 77848, Note_off_c, 0, 55, 64
2, 77881, Note_on_c, 0, 59, 48
2, 77891, Control_c, 0, 64, 127
2, 77894, Note_off_c, 0, 57, 64
2, 77927, Note_on_c, 0, 57, 48
2, 77935, Note_off_c, 0, 59, 64
2, 77980, Note_on_c, 0, 55, 48
2, 77984, Note_off_c, 0, 57, 64
2, 78017, Note_on_c, 0, 64, 48
2, 78022, Note_off_c, 0, 55, 64
2, 78071, Note_on_c, 0, 62, 48
2, 78076, Note_off_c, 0, 64, 64
2, 78111, Note_off_c, 0, 62, 64
2, 78113, Note_on_c, 0, 60, 48
2, 78163, Note_on_c, 0, 59, 48
2, 78165, Note_off_c, 0, 60, 64
2, 78217, Note_on_c, 0, 57, 48
2, 78222, Note_off_c, 0, 59, 64
2, 78260, Note_off_c, 0, 57, 64
2, 78263, Note_on_c, 0, 55, 48
2, 78325, Note_off_c, 0, 55, 64
2, 78328, Note_on_c, 0, 57, 48
2, 78360, Note_off_c, 0, 57, 64
2, 78363, Note_on_c, 0, 59, 48
2, 78411, Note_on_c, 0, 50, 48
2, 78425, Note_off_c, 0, 59, 64
2, 78461, Note_on_c, 0, 62, 77
2, 78463, Note_off_c, 0, 50, 64
2, 78464, Note_on_c, 0, 43, 48
2, 78506, Note_on_c, 0, 50, 48
2, 78520, Note_off_c, 0, 43, 64
2, 78553, Note_off_c, 0, 50, 64
2, 78557, Note_on_c, 0, 55, 48
2, 78605, Note_on_c, 0, 57, 48
2, 78620, Note_off_c, 0, 55, 64
2, 78656, Note_on_c, 0, 59, 48
2, 78659, Note_off_c, 0, 57, 64
2, 78704, Note_on_c, 0, 57, 48
2, 78709, Note_off_c, 0, 59, 64
2, 78750, Note_on_c, 0, 55, 48
2, 78751, Note_off_c, 0, 62, 64
2, 78756, Note_off_c, 0, 57, 64
2, 78793, Note_off_c, 0, 55, 64
2, 78793, Note_on_c, 0, 64, 48
2, 78845, Note_on_c, 0, 62, 48
2, 78850, Note_off_c, 0, 64, 64
2, 78850, Note_on_c, 0, 67, 72
2, 78852, Note_on_c, 0, 71, 73
2, 78886, Note_off_c, 0, 62, 64
2, 78886, Note_on_c, 0, 60, 48
2, 78929, Note_off_c, 0, 60, 64
2, 78936, Note_on_c, 0, 59, 48
2, 78983, Note_on_c, 0, 57, 48
2, 79010, Note_off_c, 0, 59, 64
2, 79025, Note_off_c, 0, 57, 64
2, 79032, Note_on_c, 0, 55, 48
2, 79086, Note_on_c, 0, 57, 48
2, 79096, Note_off_c, 0, 55, 64
2, 79133, Note_off_c, 0, 57, 64
2, 79139, Note_on_c, 0, 59, 48
2, 79144, Note_off_c, 0, 71, 64
2, 79182, Note_off_c, 0, 67, 64
2, 79186, Note_on_c, 0, 50, 48
2, 79193, Note_off_c, 0, 59, 64
2, 79196, Note_on_c, 0, 76, 72
2, 79198, Note_on_c, 0, 72, 72
2, 79244, Note_on_c, 0, 74, 50
2, 79247, Note_on_c, 0, 71, 62
2, 79248, Note_on_c, 0, 43, 48
2, 79252, Note_off_c, 0, 50, 64
2, 79257, Note_off_c, 0, 76, 64
2, 79261, Note_off_c, 0, 72, 64
2, 79278, Control_c, 0, 64, 0
2, 79295, Note_on_c, 0, 50, 48
2, 79310, Note_off_c, 0, 43, 64
2, 79324, Control_c, 0, 64, 127
2, 79337, Note_off_c, 0, 50, 64
2, 79339, Note_on_c, 0, 55, 48
2, 79388, Note_on_c, 0, 57, 48
2, 79400, Note_off_c, 0, 55, 64
2, 79442, Note_on_c, 0, 59, 48
2, 79443, Note_off_c, 0, 57, 64
2, 79480, Note_on_c, 0, 57, 48
2, 79490, Note_off_c, 0, 59, 64
2, 79536, Note_on_c, 0, 55, 48
2, 79541, Note_off_c, 0, 57, 64
2, 79573, Note_on_c, 0, 64, 48
2, 79578, Note_off_c, 0, 55, 64
2, 79629, Note_on_c, 0, 62, 48
2, 79634, Note_off_c, 0, 64, 64
2, 79670, Note_on_c, 0, 60, 48
2, 79673, Note_off_c, 0, 62, 64
2, 79719, Note_off_c, 0, 60, 64
2, 79724, Note_on_c, 0, 59, 48
2, 79768, Note_on_c, 0, 57, 48
2, 79795, Note_off_c, 0, 59, 64
2, 79807, Note_on_c, 0, 55, 48
2, 79811, Note_off_c, 0, 57, 64
2, 79866, Note_on_c, 0, 57, 48
2, 79870, Note_off_c, 0, 74, 64
2, 79873, Note_off_c, 0, 55, 64
2, 79887, Note_off_c, 0, 71, 64
2, 79909, Note_off_c, 0, 57, 64
2, 79918, Note_on_c, 0, 59, 48
2, 79961, Note_on_c, 0, 84, 83
2, 79963, Note_on_c, 0, 76, 74
2, 79963, Note_on_c, 0, 50, 48
2, 79970, Note_off_c, 0, 59, 64
2, 80009, Note_off_c, 0, 76, 64
2, 80011, Note_off_c, 0, 50, 64
2, 80011, Note_on_c, 0, 83, 86
2, 80011, Note_on_c, 0, 43, 48
2, 80015, Note_on_c, 0, 74, 87
2, 80027, Note_off_c, 0, 84, 64
2, 80051, Note_on_c, 0, 50, 48
2, 80071, Note_off_c, 0, 43, 64
2, 80098, Note_off_c, 0, 50, 64
2, 80103, Note_on_c, 0, 55, 48
2, 80147, Note_on_c, 0, 57, 48
2, 80160, Note_off_c, 0, 55, 64
2, 80204, Note_on_c, 0, 59, 48
2, 80213, Note_off_c, 0, 57, 64
2, 80249, Note_on_c, 0, 57, 48
2, 80258, Note_off_c, 0, 59, 64
2, 80299, Note_on_c, 0, 55, 48
2, 80306, Note_off_c, 0, 57, 64
2, 80344, Note_off_c, 0, 55, 64
2, 80350, Note_on_c, 0, 64, 48
2, 80395, Note_on_c, 0, 62, 48
2, 80403, Note_off_c, 0, 64, 64
2, 80435, Note_off_c, 0, 62, 64
2, 80438, Note_on_c, 0, 60, 48
2, 80486, Note_off_c, 0, 60, 64
2, 80487, Note_on_c, 0, 59, 48
2, 80529, Note_on_c, 0, 57, 48
2, 80543, Note_off_c, 0, 59, 64
2, 80578, Note_off_c, 0, 57, 64
2, 80581, Note_on_c, 0, 55, 48
2, 80605, Note_off_c, 0, 83, 64
2, 80623, Note_on_c, 0, 57, 48
2, 80632, Note_off_c, 0, 55, 64
2, 80665, Note_off_c, 0, 57, 64
2, 80672, Note_on_c, 0, 59, 48
2, 80714, Note_on_c, 0, 50, 48
2, 80727, Note_off_c, 0, 59, 64
2, 80760, Note_on_c, 0, 43, 48
2, 80766, Note_on_c, 0, 79, 71
2, 80768, Note_on_c, 0, 71, 69
2, 80770, Note_off_c, 0, 50, 64
2, 80789, Note_off_c, 0, 74, 64
2, 80797, Control_c, 0, 64, 0
2, 80803, Note_on_c, 0, 50, 48
2, 80813, Note_off_c, 0, 43, 64
2, 80841, Note_off_c, 0, 50, 64
2, 80841, Control_c, 0, 64, 127
2, 80849, Note_on_c, 0, 55, 48
2, 80896, Note_on_c, 0, 57, 48
2, 80906, Note_off_c, 0, 55, 64
2, 80940, Note_off_c, 0, 57, 64
2, 80940, Note_on_c, 0, 59, 48
2, 80984, Note_on_c, 0, 57, 48
2, 80997, Note_off_c, 0, 59, 64
2, 81029, Note_on_c, 0, 55, 48
2, 81035, Note_off_c, 0, 57, 64
2, 81076, Note_off_c, 0, 55, 64
2, 81077, Note_on_c, 0, 64, 48
2, 81128, Note_on_c, 0, 62, 48
2, 81138, Note_off_c, 0, 64, 64
2, 81177, Note_off_c, 0, 62, 64
2, 81178, Note_on_c, 0, 60, 48
2, 81219, Note_off_c, 0, 60, 64
2, 81224, Note_on_c, 0, 59, 48
2, 81266, Note_on_c, 0, 57, 48
2, 81268, Note_off_c, 0, 59, 64
2, 81314, Note_on_c, 0, 55, 48
2, 81339, Note_off_c, 0, 57, 64
2, 81381, Note_on_c, 0, 57, 48
2, 81395, Note_off_c, 0, 55, 64
2, 81400, Note_off_c, 0, 79, 64
2, 81417, Note_off_c, 0, 57, 64
2, 81422, Note_on_c, 0, 59, 48
2, 81464, Control_c, 0, 64, 0
2, 81470, Note_on_c, 0, 50, 48
2, 81479, Note_off_c, 0, 59, 64
2, 81513, Control_c, 0, 64, 127
2, 81518, Note_off_c, 0, 50, 64
2, 81524, Note_off_c, 0, 71, 64
2, 81524, Note_on_c, 0, 78, 75
2, 81524, Note_on_c, 0, 67, 66
2, 81526, Note_on_c, 0, 73, 75
2, 81528, Note_on_c, 0, 45, 48
2, 81568, Note_on_c, 0, 52, 48
2, 81588, Note_off_c, 0, 45, 64
2, 81610, Note_off_c, 0, 52, 64
2, 81621, Note_on_c, 0, 57, 48
2, 81655, Note_on_c, 0, 59, 48
2, 81663, Note_off_c, 0, 57, 64
2, 81698, Note_on_c, 0, 61, 48
2, 81702, Note_off_c, 0, 59, 64
2, 81735, Note_off_c, 0, 67, 64
2, 81741, Note_on_c, 0, 59, 48
2, 81746, Note_off_c, 0, 61, 64
2, 81787, Note_on_c, 0, 57, 48
2, 81793, Note_off_c, 0, 59, 64
2, 81837, Note_on_c, 0, 66, 48
2, 81851, Note_off_c, 0, 57, 64
2, 81885, Note_off_c, 0, 66, 64
2, 81887, Note_on_c, 0, 64, 48
2, 81932, Note_off_c, 0, 64, 64
2, 81937, Note_on_c, 0, 62, 48
2, 81977, Note_off_c, 0, 62, 64
2, 81977, Note_on_c, 0, 61, 48
2, 82021, Note_off_c, 0, 61, 64
2, 82025, Note_on_c, 0, 59, 48
2, 82064, Note_off_c, 0, 59, 64
2, 82074, Note_on_c, 0, 57, 48
2, 82124, Note_on_c, 0, 59, 48
2, 82127, Note_off_c, 0, 57, 64
2, 82129, Note_off_c, 0, 73, 64
2, 82150, Note_off_c, 0, 78, 64
2, 82160, Note_off_c, 0, 59, 64
2, 82160, Note_on_c, 0, 61, 48
2, 82194, Note_off_c, 0, 61, 64
2, 82197, Note_on_c, 0, 52, 48
2, 82215, Note_on_c, 0, 76, 64
2, 82228, Note_on_c, 0, 66, 51
2, 82241, Note_off_c, 0, 52, 64
2, 82262, Note_on_c, 0, 74, 71
2, 82272, Note_off_c, 0, 76, 64
2, 82273, Note_on_c, 0, 38, 48
2, 82292, Note_on_c, 0, 81, 72
2, 82301, Note_on_c, 0, 45, 48
2, 82317, Note_off_c, 0, 38, 64
2, 82344, Note_off_c, 0, 45, 64
2, 82353, Note_on_c, 0, 50, 48
2, 82392, Control_c, 0, 64, 0
2, 82402, Note_on_c, 0, 52, 48
2, 82407, Note_off_c, 0, 50, 64
2, 82439, Control_c, 0, 64, 127
2, 82453, Note_on_c, 0, 54, 48
2, 82456, Note_off_c, 0, 52, 64
2, 82485, Note_off_c, 0, 74, 64
2, 82491, Note_on_c, 0, 52, 48
2, 82496, Note_off_c, 0, 54, 64
2, 82547, Note_on_c, 0, 50, 48
2, 82556, Note_off_c, 0, 52, 64
2, 82600, Note_on_c, 0, 59, 48
2, 82605, Note_off_c, 0, 50, 64
2, 82611, Control_c, 0, 64, 0
2, 82651, Note_on_c, 0, 57, 48
2, 82661, Control_c, 0, 64, 127
2, 82680, Note_off_c, 0, 59, 64
2, 82691, Note_on_c, 0, 55, 48
2, 82712, Note_off_c, 0, 57, 64
2, 82742, Note_off_c, 0, 55, 64
2, 82742, Note_on_c, 0, 54, 48
2, 82776, Note_on_c, 0, 52, 48
2, 82790, Note_off_c, 0, 54, 64
2, 82825, Note_on_c, 0, 50, 48
2, 82833, Note_off_c, 0, 52, 64
2, 82881, Note_off_c, 0, 50, 64
2, 82886, Note_on_c, 0, 52, 48
2, 82910, Note_off_c, 0, 81, 64
2, 82928, Note_off_c, 0, 52, 64
2, 82935, Note_on_c, 0, 54, 48
2, 82953, Note_off_c, 0, 66, 64
2, 82982, Note_on_c, 0, 47, 48
2, 82982, Control_c, 0, 64, 0
2, 82988, Note_off_c, 0, 54, 64
2, 83010, Note_off_c, 0, 47, 64
2, 83020, Note_on_c, 0, 67, 48
2, 83022, Note_on_c, 0, 78, 49
2, 83022, Note_on_c, 0, 73, 52
2, 83022, Note_on_c, 0, 45, 48
2, 83036, Control_c, 0, 64, 127
2, 83064, Note_on_c, 0, 52, 48
2, 83086, Note_off_c, 0, 45, 64
2, 83102, Note_off_c, 0, 52, 64
2, 83109, Note_on_c, 0, 57, 48
2, 83153, Note_on_c, 0, 59, 48
2, 83158, Note_off_c, 0, 57, 64
2, 83204, Note_on_c, 0, 61, 48
2, 83205, Note_off_c, 0, 59, 64
2, 83229, Note_off_c, 0, 67, 64
2, 83247, Note_on_c, 0, 59, 48
2, 83252, Note_off_c, 0, 61, 64
2, 83291, Note_on_c, 0, 57, 48
2, 83300, Note_off_c, 0, 59, 64
2, 83339, Note_on_c, 0, 66, 48
2, 83356, Note_off_c, 0, 57, 64
2, 83387, Note_off_c, 0, 66, 64
2, 83389, Note_on_c, 0, 64, 48
2, 83420, Control_c, 0, 64, 0
2, 83429, Note_on_c, 0, 62, 48
2, 83441, Note_off_c, 0, 64, 64
2, 83465, Control_c, 0, 64, 127
2, 83477, Note_on_c, 0, 61, 48
2, 83483, Note_off_c, 0, 62, 64
2, 83525, Note_off_c, 0, 61, 64
2, 83534, Note_on_c, 0, 59, 48
2, 83568, Note_off_c, 0, 59, 64
2, 83578, Note_on_c, 0, 57, 48
2, 83621, Note_on_c, 0, 59, 48
2, 83629, Note_off_c, 0, 57, 64
2, 83652, Note_off_c, 0, 78, 64
2, 83658, Note_on_c, 0, 61, 48
2, 83667, Note_off_c, 0, 73, 64
2, 83669, Note_off_c, 0, 59, 64
2, 83686, Note_off_c, 0, 61, 64
2, 83687, Note_on_c, 0, 57, 48
2, 83704, Note_on_c, 0, 76, 41
2, 83706, Note_off_c, 0, 57, 64
2, 83741, Control_c, 0, 64, 0
2, 83749, Note_off_c, 0, 76, 64
2, 83752, Note_on_c, 0, 66, 67
2, 83773, Note_on_c, 0, 38, 48
2, 83780, Note_on_c, 0, 0, 51
2, 83792, Control_c, 0, 64, 127
2, 83815, Note_on_c, 0, 45, 48
2, 83816, Note_on_c, 0, 72, 71
2, 83834, Note_off_c, 0, 38, 64
2, 83853, Note_off_c, 0, 45, 64
2, 83858, Note_on_c, 0, 50, 48
2, 83872, Note_on_c, 0, 81, 67
2, 83901, Note_off_c, 0, 50, 64
2, 83903, Note_on_c, 0, 52, 48
2, 83951, Note_on_c, 0, 54, 48
2, 83955, Note_off_c, 0, 52, 64
2, 83989, Note_on_c, 0, 52, 48
2, 83996, Note_off_c, 0, 54, 64
2, 84043, Note_on_c, 0, 50, 48
2, 84050, Note_off_c, 0, 52, 64
2, 84094, Note_off_c, 0, 50, 64
2, 84098, Note_on_c, 0, 59, 48
2, 84112, Note_off_c, 0, 0, 64
2, 84151, Note_on_c, 0, 57, 48
2, 84156, Note_off_c, 0, 59, 64
2, 84194, Note_on_c, 0, 55, 48
2, 84201, Note_off_c, 0, 57, 64
2, 84238, Note_on_c, 0, 54, 48
2, 84241, Note_off_c, 0, 55, 64
2, 84272, Note_on_c, 0, 52, 48
2, 84280, Note_off_c, 0, 54, 64
2, 84320, Note_off_c, 0, 52, 64
2, 84334, Note_on_c, 0, 50, 48
2, 84378, Note_on_c, 0, 52, 48
2, 84382, Note_off_c, 0, 50, 64
2, 84414, Note_off_c, 0, 52, 64
2, 84420, Note_on_c, 0, 54, 48
2, 84458, Note_off_c, 0, 54, 64
2, 84476, Note_on_c, 0, 45, 48
2, 84528, Note_on_c, 0, 38, 48
2, 84537, Note_off_c, 0, 45, 64
2, 84570, Note_on_c, 0, 45, 48
2, 84595, Note_off_c, 0, 38, 64
2, 84613, Note_off_c, 0, 66, 64
2, 84617, Note_on_c, 0, 50, 48
2, 84621, Note_off_c, 0, 45, 64
2, 84624, Note_off_c, 0, 72, 64
2, 84670, Note_on_c, 0, 52, 48
2, 84680, Note_off_c, 0, 50, 64
2, 84713, Note_on_c, 0, 54, 48
2, 84716, Note_off_c, 0, 52, 64
2, 84729, Control_c, 0, 64, 0
2, 84752, Note_on_c, 0, 52, 48
2, 84759, Note_off_c, 0, 54, 64
2, 84761, Note_off_c, 0, 81, 64
2, 84798, Note_on_c, 0, 50, 48
2, 84808, Note_off_c, 0, 52, 64
2, 84827, Control_c, 0, 64, 127
2, 84854, Note_on_c, 0, 84, 73
2, 84856, Note_off_c, 0, 50, 64
2, 84856, Note_on_c, 0, 81, 73
2, 84859, Note_on_c, 0, 59, 48
2, 84905, Note_on_c, 0, 72, 68
2, 84907, Note_on_c, 0, 57, 48
2, 84909, Note_on_c, 0, 76, 66
2, 84918, Note_off_c, 0, 59, 64
2, 84925, Note_off_c, 0, 81, 64
2, 84950, Note_on_c, 0, 55, 48
2, 84954, Note_off_c, 0, 57, 64
2, 84991, Note_on_c, 0, 54, 48
2, 84996, Note_off_c, 0, 55, 64
2, 85025, Note_on_c, 0, 52, 48
2, 85034, Note_off_c, 0, 54, 64
2, 85078, Note_off_c, 0, 52, 64
2, 85088, Note_on_c, 0, 50, 48
2, 85094, Note_off_c, 0, 84, 64
2, 85109, Note_off_c, 0, 76, 64
2, 85133, Note_on_c, 0, 52, 48
2, 85138, Note_off_c, 0, 50, 64
2, 85138, Note_off_c, 0, 72, 64
2, 85185, Note_on_c, 0, 54, 48
2, 85193, Note_off_c, 0, 52, 64
2, 85228, Note_on_c, 0, 45, 48
2, 85230, Note_off_c, 0, 54, 64
2, 85237, Note_on_c, 0, 74, 72
2, 85237, Note_on_c, 0, 72, 70
2, 85244, Control_c, 0, 64, 0
2, 85267, Note_off_c, 0, 45, 64
2, 85294, Note_on_c, 0, 43, 48
2, 85295, Note_on_c, 0, 62, 60
2, 85308, Control_c, 0, 64, 127
2, 85317, Note_off_c, 0, 72, 64
2, 85342, Note_on_c, 0, 50, 48
2, 85380, Note_off_c, 0, 43, 64
2, 85391, Note_off_c, 0, 50, 64
2, 85397, Note_on_c, 0, 55, 48
2, 85436, Note_on_c, 0, 57, 48
2, 85453, Note_off_c, 0, 55, 64
2, 85489, Note_on_c, 0, 59, 48
2, 85490, Note_off_c, 0, 57, 64
2, 85531, Note_on_c, 0, 57, 48
2, 85540, Note_off_c, 0, 59, 64
2, 85573, Note_on_c, 0, 55, 48
2, 85586, Note_off_c, 0, 57, 64
2, 85590, Note_off_c, 0, 62, 64
2, 85621, Note_on_c, 0, 64, 48
2, 85625, Note_off_c, 0, 55, 64
2, 85677, Note_on_c, 0, 62, 48
2, 85680, Note_on_c, 0, 71, 79
2, 85680, Note_on_c, 0, 67, 74
2, 85683, Note_off_c, 0, 64, 64
2, 85690, Note_off_c, 0, 74, 64
2, 85719, Note_off_c, 0, 62, 64
2, 85719, Note_on_c, 0, 60, 48
2, 85760, Note_on_c, 0, 59, 48
2, 85763, Note_off_c, 0, 60, 64
2, 85803, Control_c, 0, 64, 0
2, 85808, Note_off_c, 0, 59, 64
2, 85814, Note_on_c, 0, 57, 48
2, 85851, Note_on_c, 0, 55, 48
2, 85855, Note_off_c, 0, 57, 64
2, 85856, Control_c, 0, 64, 127
2, 85893, Note_on_c, 0, 57, 48
2, 85904, Note_off_c, 0, 55, 64
2, 85914, Control_c, 0, 64, 0
2, 85931, Note_off_c, 0, 71, 64
2, 85933, Control_c, 0, 64, 127
2, 85937, Note_off_c, 0, 57, 64
2, 85942, Note_on_c, 0, 59, 48
2, 85962, Note_off_c, 0, 67, 64
2, 85976, Note_on_c, 0, 76, 79
2, 85979, Note_on_c, 0, 72, 80
2, 85982, Note_on_c, 0, 50, 48
2, 85986, Note_off_c, 0, 59, 64
2, 85990, Control_c, 0, 64, 0
2, 86027, Note_off_c, 0, 50, 64
2, 86028, Note_on_c, 0, 74, 76
2, 86028, Note_on_c, 0, 71, 83
2, 86031, Note_on_c, 0, 43, 48
2, 86035, Note_off_c, 0, 76, 64
2, 86038, Control_c, 0, 64, 127
2, 86042, Note_off_c, 0, 72, 64
2, 86068, Note_on_c, 0, 50, 48
2, 86088, Note_off_c, 0, 43, 64
2, 86103, Note_off_c, 0, 50, 64
2, 86108, Note_on_c, 0, 55, 48
2, 86150, Note_on_c, 0, 57, 48
2, 86160, Note_off_c, 0, 55, 64
2, 86199, Note_on_c, 0, 59, 48
2, 86203, Note_off_c, 0, 57, 64
2, 86243, Note_on_c, 0, 57, 48
2, 86258, Note_off_c, 0, 59, 64
2, 86287, Note_on_c, 0, 55, 48
2, 86296, Note_off_c, 0, 57, 64
2, 86329, Note_on_c, 0, 64, 48
2, 86330, Note_off_c, 0, 55, 64
2, 86377, Note_on_c, 0, 62, 48
2, 86379, Note_off_c, 0, 64, 64
2, 86418, Note_off_c, 0, 62, 64
2, 86419, Note_on_c, 0, 60, 48
2, 86456, Note_on_c, 0, 59, 48
2, 86461, Note_off_c, 0, 60, 64
2, 86503, Note_off_c, 0, 59, 64
2, 86504, Note_on_c, 0, 57, 48
2, 86546, Note_on_c, 0, 55, 48
2, 86548, Note_off_c, 0, 57, 64
2, 86561, Note_off_c, 0, 74, 64
2, 86563, Note_off_c, 0, 71, 64
2, 86598, Note_off_c, 0, 55, 64
2, 86599, Note_on_c, 0, 57, 48
2, 86626, Note_off_c, 0, 57, 64
2, 86631, Note_on_c, 0, 59, 48
2, 86653, Control_c, 0, 64, 0
2, 86673, Note_on_c, 0, 50, 48
2, 86678, Note_on_c, 0, 84, 73
2, 86678, Note_on_c, 0, 76, 75
2, 86695, Note_off_c, 0, 59, 64
2, 86716, Note_off_c, 0, 76, 64
2, 86730, Note_off_c, 0, 50, 64
2, 86732, Note_on_c, 0, 83, 73
2, 86735, Note_on_c, 0, 43, 48
2, 86737, Note_on_c, 0, 74, 81
2, 86739, Control_c, 0, 64, 127
2, 86750, Note_off_c, 0, 84, 64
2, 86777, Note_on_c, 0, 50, 48
2, 86793, Note_off_c, 0, 43, 64
2, 86807, Note_off_c, 0, 50, 64
2, 86815, Note_on_c, 0, 55, 48
2, 86850, Note_on_c, 0, 57, 48
2, 86867, Note_off_c, 0, 55, 64
2, 86898, Note_off_c, 0, 57, 64
2, 86901, Note_on_c, 0, 59, 48
2, 86936, Note_on_c, 0, 57, 48
2, 86946, Note_off_c, 0, 59, 64
2, 86986, Note_on_c, 0, 55, 48
2, 86988, Note_off_c, 0, 57, 64
2, 87024, Note_on_c, 0, 64, 48
2, 87029, Note_off_c, 0, 55, 64
2, 87068, Note_on_c, 0, 62, 48
2, 87077, Note_off_c, 0, 64, 64
2, 87105, Note_on_c, 0, 60, 48
2, 87110, Note_off_c, 0, 62, 64
2, 87155, Note_off_c, 0, 60, 64
2, 87156, Note_on_c, 0, 59, 48
2, 87199, Note_on_c, 0, 57, 48
2, 87203, Note_off_c, 0, 59, 64
2, 87233, Note_off_c, 0, 57, 64
2, 87234, Note_on_c, 0, 55, 48
2, 87274, Note_on_c, 0, 57, 48
2, 87280, Note_off_c, 0, 55, 64
2, 87305, Note_off_c, 0, 83, 64
2, 87312, Note_off_c, 0, 57, 64
2, 87320, Note_on_c, 0, 59, 48
2, 87364, Note_on_c, 0, 50, 48
2, 87371, Note_off_c, 0, 59, 64
2, 87394, Control_c, 0, 64, 0
2, 87413, Note_off_c, 0, 50, 64
2, 87417, Note_on_c, 0, 43, 48
2, 87421, Note_on_c, 0, 79, 68
2, 87423, Note_on_c, 0, 71, 66
2, 87444, Note_off_c, 0, 74, 64
2, 87444, Control_c, 0, 64, 127
2, 87451, Note_on_c, 0, 50, 48
2, 87468, Note_off_c, 0, 43, 64
2, 87485, Note_off_c, 0, 50, 64
2, 87494, Note_on_c, 0, 55, 48
2, 87535, Note_on_c, 0, 57, 48
2, 87540, Note_off_c, 0, 55, 64
2, 87583, Note_on_c, 0, 59, 48
2, 87587, Note_off_c, 0, 57, 64
2, 87625, Note_on_c, 0, 57, 48
2, 87635, Note_off_c, 0, 59, 64
2, 87667, Note_on_c, 0, 55, 48
2, 87677, Note_off_c, 0, 57, 64
2, 87705, Note_on_c, 0, 64, 48
2, 87709, Note_off_c, 0, 55, 64
2, 87747, Note_on_c, 0, 62, 48
2, 87753, Note_off_c, 0, 64, 64
2, 87782, Note_on_c, 0, 60, 48
2, 87787, Note_off_c, 0, 62, 64
2, 87829, Note_off_c, 0, 60, 64
2, 87832, Note_on_c, 0, 59, 48
2, 87874, Note_off_c, 0, 59, 64
2, 87874, Note_on_c, 0, 57, 48
2, 87908, Note_on_c, 0, 55, 48
2, 87912, Note_off_c, 0, 57, 64
2, 87952, Note_on_c, 0, 57, 48
2, 87959, Note_off_c, 0, 55, 64
2, 87988, Note_off_c, 0, 57, 64
2, 87993, Note_on_c, 0, 59, 48
2, 88014, Note_off_c, 0, 71, 64
2, 88033, Note_on_c, 0, 50, 48
2, 88038, Control_c, 0, 64, 0
2, 88046, Note_off_c, 0, 59, 64
2, 88097, Note_on_c, 0, 77, 52
2, 88103, Note_off_c, 0, 79, 64
2, 88103, Note_on_c, 0, 71, 52
2, 88103, Note_on_c, 0, 43, 48
2, 88106, Control_c, 0, 64, 127
2, 88111, Note_off_c, 0, 50, 64
2, 88150, Note_on_c, 0, 50, 48
2, 88163, Note_off_c, 0, 43, 64
2, 88182, Note_off_c, 0, 50, 64
2, 88189, Note_on_c, 0, 55, 48
2, 88231, Note_on_c, 0, 57, 48
2, 88246, Note_off_c, 0, 55, 64
2, 88277, Note_on_c, 0, 59, 48
2, 88282, Note_off_c, 0, 57, 64
2, 88291, Note_off_c, 0, 77, 64
2, 88314, Note_on_c, 0, 57, 48
2, 88321, Note_off_c, 0, 59, 64
2, 88349, Note_on_c, 0, 55, 48
2, 88362, Note_off_c, 0, 57, 64
2, 88388, Note_on_c, 0, 64, 48
2, 88394, Note_off_c, 0, 55, 64
2, 88437, Note_on_c, 0, 62, 48
2, 88442, Note_on_c, 0, 77, 71
2, 88447, Note_off_c, 0, 64, 64
2, 88471, Note_on_c, 0, 60, 48
2, 88475, Note_off_c, 0, 62, 64
2, 88521, Note_off_c, 0, 60, 64
2, 88524, Note_on_c, 0, 59, 48
2, 88566, Note_off_c, 0, 59, 64
2, 88567, Note_on_c, 0, 57, 48
2, 88602, Note_off_c, 0, 57, 64
2, 88608, Note_on_c, 0, 55, 48
2, 88631, Note_off_c, 0, 77, 64
2, 88646, Note_on_c, 0, 57, 48
2, 88659, Note_off_c, 0, 55, 64
2, 88683, Note_off_c, 0, 57, 64
2, 88688, Note_on_c, 0, 59, 48
2, 88726, Note_on_c, 0, 50, 48
2, 88733, Note_off_c, 0, 59, 64
2, 88737, Note_on_c, 0, 77, 72
2, 88746, Control_c, 0, 64, 0
2, 88763, Note_off_c, 0, 71, 64
2, 88769, Note_off_c, 0, 77, 64
2, 88788, Note_off_c, 0, 50, 64
2, 88789, Note_on_c, 0, 43, 48
2, 88794, Note_on_c, 0, 77, 80
2, 88794, Note_on_c, 0, 71, 71
2, 88801, Control_c, 0, 64, 127
2, 88835, Note_on_c, 0, 50, 48
2, 88848, Note_off_c, 0, 43, 64
2, 88868, Note_off_c, 0, 50, 64
2, 88879, Note_on_c, 0, 55, 48
2, 88925, Note_on_c, 0, 57, 48
2, 88930, Note_off_c, 0, 55, 64
2, 88948, Note_off_c, 0, 77, 64
2, 88964, Note_on_c, 0, 59, 48
2, 88967, Note_off_c, 0, 57, 64
2, 88999, Note_on_c, 0, 57, 48
2, 89008, Note_off_c, 0, 59, 64
2, 89034, Note_on_c, 0, 55, 48
2, 89047, Note_off_c, 0, 57, 64
2, 89065, Note_on_c, 0, 77, 80
2, 89095, Note_on_c, 0, 79, 79
2, 89103, Note_off_c, 0, 77, 64
2, 89108, Note_on_c, 0, 64, 48
2, 89111, Note_off_c, 0, 55, 64
2, 89125, Note_on_c, 0, 77, 88
2, 89142, Note_off_c, 0, 79, 64
2, 89156, Note_on_c, 0, 62, 48
2, 89161, Note_on_c, 0, 76, 93
2, 89171, Note_off_c, 0, 64, 64
2, 89174, Note_off_c, 0, 77, 64
2, 89195, Note_on_c, 0, 60, 48
2, 89204, Note_off_c, 0, 62, 64
2, 89236, Note_off_c, 0, 60, 64
2, 89245, Note_on_c, 0, 59, 48
2, 89257, Note_off_c, 0, 76, 64
2, 89284, Note_on_c, 0, 57, 48
2, 89286, Note_off_c, 0, 59, 64
2, 89322, Note_off_c, 0, 57, 64
2, 89327, Note_on_c, 0, 55, 48
2, 89370, Note_on_c, 0, 57, 48
2, 89374, Note_off_c, 0, 55, 64
2, 89401, Note_on_c, 0, 59, 48
2, 89402, Note_off_c, 0, 57, 64
2, 89429, Note_off_c, 0, 59, 64
2, 89436, Note_on_c, 0, 75, 91
2, 89444, Note_off_c, 0, 71, 64
2, 89460, Note_on_c, 0, 43, 48
2, 89470, Note_on_c, 0, 64, 86
2, 89471, Note_off_c, 0, 75, 64
2, 89502, Note_on_c, 0, 36, 48
2, 89504, Note_on_c, 0, 67, 98
2, 89511, Note_off_c, 0, 43, 64
2, 89512, Control_c, 0, 64, 0
2, 89540, Note_on_c, 0, 72, 74
2, 89541, Note_on_c, 0, 43, 48
2, 89563, Note_off_c, 0, 36, 64
2, 89567, Control_c, 0, 64, 127
2, 89570, Note_on_c, 0, 76, 101
2, 89581, Note_off_c, 0, 43, 64
2, 89584, Note_on_c, 0, 48, 48
2, 89625, Note_on_c, 0, 50, 48
2, 89633, Note_off_c, 0, 48, 64
2, 89671, Note_off_c, 0, 50, 64
2, 89674, Note_on_c, 0, 52, 48
2, 89710, Note_on_c, 0, 50, 48
2, 89718, Note_off_c, 0, 52, 64
2, 89756, Note_on_c, 0, 48, 48
2, 89762, Note_off_c, 0, 50, 64
2, 89813, Note_on_c, 0, 57, 48
2, 89819, Note_off_c, 0, 48, 64
2, 89857, Note_on_c, 0, 55, 48
2, 89868, Note_off_c, 0, 57, 64
2, 89891, Control_c, 0, 64, 0
2, 89894, Note_on_c, 0, 53, 48
2, 89898, Note_off_c, 0, 55, 64
2, 89946, Note_off_c, 0, 53, 64
2, 89947, Control_c, 0, 64, 127
2, 89951, Note_on_c, 0, 52, 48
2, 89987, Note_off_c, 0, 52, 64
2, 89988, Note_on_c, 0, 50, 48
2, 90026, Note_off_c, 0, 50, 64
2, 90029, Note_on_c, 0, 48, 48
2, 90073, Note_on_c, 0, 50, 48
2, 90075, Note_off_c, 0, 48, 64
2, 90107, Note_off_c, 0, 50, 64
2, 90112, Note_on_c, 0, 52, 48
2, 90130, Control_c, 0, 64, 0
2, 90154, Note_on_c, 0, 43, 48
2, 90169, Note_off_c, 0, 52, 64
2, 90192, Control_c, 0, 64, 127
2, 90207, Note_on_c, 0, 36, 48
2, 90209, Note_off_c, 0, 43, 64
2, 90243, Note_on_c, 0, 43, 48
2, 90268, Note_off_c, 0, 36, 64
2, 90287, Note_off_c, 0, 43, 64
2, 90287, Note_on_c, 0, 48, 48
2, 90333, Note_on_c, 0, 50, 48
2, 90344, Note_off_c, 0, 48, 64
2, 90372, Note_on_c, 0, 52, 48
2, 90376, Note_off_c, 0, 50, 64
2, 90409, Note_on_c, 0, 50, 48
2, 90423, Note_off_c, 0, 52, 64
2, 90452, Note_on_c, 0, 48, 48
2, 90463, Note_off_c, 0, 50, 64
2, 90503, Note_on_c, 0, 57, 48
2, 90509, Note_off_c, 0, 48, 64
2, 90546, Note_on_c, 0, 55, 48
2, 90553, Note_off_c, 0, 57, 64
2, 90581, Note_on_c, 0, 53, 48
2, 90588, Note_off_c, 0, 55, 64
2, 90627, Note_off_c, 0, 53, 64
2, 90633, Note_on_c, 0, 52, 48
2, 90674, Note_off_c, 0, 52, 64
2, 90674, Note_on_c, 0, 50, 48
2, 90712, Note_on_c, 0, 48, 48
2, 90717, Note_off_c, 0, 50, 64
2, 90753, Note_on_c, 0, 50, 48
2, 90763, Note_off_c, 0, 48, 64
2, 90779, Note_off_c, 0, 72, 64
2, 90785, Note_off_c, 0, 67, 64
2, 90791, Note_off_c, 0, 50, 64
2, 90794, Note_off_c, 0, 76, 64
2, 90799, Note_on_c, 0, 52, 48
2, 90813, Note_off_c, 0, 64, 64
2, 90821, Control_c, 0, 64, 0
2, 90841, Note_on_c, 0, 43, 48
2, 90851, Note_off_c, 0, 52, 64
2, 90872, Note_on_c, 0, 72, 83
2, 90874, Note_on_c, 0, 67, 68
2, 90874, Note_on_c, 0, 64, 68
2, 90881, Note_on_c, 0, 36, 48
2, 90884, Note_off_c, 0, 43, 64
2, 90886, Control_c, 0, 64, 127
2, 90915, Note_on_c, 0, 43, 48
2, 90937, Note_off_c, 0, 36, 64
2, 90953, Note_off_c, 0, 43, 64
2, 90955, Note_on_c, 0, 48, 48
2, 90997, Note_on_c, 0, 50, 48
2, 91007, Note_off_c, 0, 48, 64
2, 91043, Note_on_c, 0, 52, 48
2, 91047, Note_off_c, 0, 50, 64
2, 91083, Note_on_c, 0, 50, 48
2, 91094, Note_off_c, 0, 52, 64
2, 91129, Note_on_c, 0, 48, 48
2, 91136, Note_off_c, 0, 72, 64
2, 91139, Note_off_c, 0, 50, 64
2, 91169, Note_on_c, 0, 57, 48
2, 91175, Note_off_c, 0, 48, 64
2, 91210, Note_on_c, 0, 55, 48
2, 91221, Note_on_c, 0, 72, 90
2, 91223, Note_off_c, 0, 57, 64
2, 91241, Note_on_c, 0, 53, 48
2, 91251, Note_off_c, 0, 55, 64
2, 91283, Note_off_c, 0, 53, 64
2, 91292, Note_on_c, 0, 52, 48
2, 91326, Note_on_c, 0, 50, 48
2, 91335, Note_off_c, 0, 52, 64
2, 91360, Control_c, 0, 64, 0
2, 91368, Note_off_c, 0, 50, 64
2, 91369, Note_on_c, 0, 48, 48
2, 91410, Note_on_c, 0, 50, 48
2, 91415, Note_off_c, 0, 72, 64
2, 91420, Note_off_c, 0, 48, 64
2, 91421, Control_c, 0, 64, 127
2, 91451, Note_off_c, 0, 50, 64
2, 91462, Note_on_c, 0, 52, 48
2, 91499, Note_on_c, 0, 72, 92
2, 91500, Note_on_c, 0, 43, 55
2, 91507, Note_off_c, 0, 52, 64
2, 91517, Note_off_c, 0, 67, 64
2, 91538, Note_off_c, 0, 64, 64
2, 91541, Note_off_c, 0, 72, 64
2, 91557, Note_off_c, 0, 43, 64
2, 91560, Note_on_c, 0, 72, 78
2, 91560, Note_on_c, 0, 67, 66
2, 91560, Note_on_c, 0, 36, 48
2, 91562, Note_on_c, 0, 64, 64
2, 91592, Note_on_c, 0, 43, 48
2, 91625, Note_off_c, 0, 36, 64
2, 91628, Note_off_c, 0, 43, 64
2, 91631, Note_on_c, 0, 48, 48
2, 91677, Note_on_c, 0, 50, 48
2, 91691, Note_off_c, 0, 48, 64
2, 91724, Note_off_c, 0, 50, 64
2, 91724, Note_on_c, 0, 52, 48
2, 91746, Control_c, 0, 64, 0
2, 91761, Note_on_c, 0, 50, 48
2, 91772, Note_off_c, 0, 52, 64
2, 91801, Note_on_c, 0, 48, 48
2, 91814, Note_off_c, 0, 50, 64
2, 91842, Note_on_c, 0, 57, 48
2, 91845, Note_off_c, 0, 48, 64
2, 91878, Control_c, 0, 64, 127
2, 91885, Note_on_c, 0, 55, 48
2, 91895, Note_off_c, 0, 57, 64
2, 91913, Note_on_c, 0, 53, 48
2, 91924, Note_off_c, 0, 55, 64
2, 91960, Note_off_c, 0, 53, 64
2, 91964, Note_on_c, 0, 52, 48
2, 92001, Note_on_c, 0, 50, 48
2, 92008, Note_off_c, 0, 52, 64
2, 92042, Note_off_c, 0, 50, 64
2, 92045, Note_on_c, 0, 48, 48
2, 92077, Note_on_c, 0, 50, 48
2, 92087, Note_off_c, 0, 48, 64
2, 92112, Note_off_c, 0, 50, 64
2, 92112, Note_on_c, 0, 52, 48
2, 92123, Note_off_c, 0, 72, 64
2, 92140, Note_on_c, 0, 71, 83
2, 92142, Note_on_c, 0, 43, 80
2, 92147, Control_c, 0, 64, 0
2, 92150, Note_off_c, 0, 67, 64
2, 92163, Note_off_c, 0, 64, 64
2, 92164, Note_off_c, 0, 52, 64
2, 92172, Note_off_c, 0, 71, 64
2, 92174, Note_off_c, 0, 43, 64
2, 92184, Note_on_c, 0, 71, 64
2, 92184, Note_on_c, 0, 67, 59
2, 92184, Note_on_c, 0, 64, 56
2, 92186, Note_on_c, 0, 36, 48
2, 92212, Control_c, 0, 64, 127
2, 92243, Note_on_c, 0, 43, 48
2, 92251, Note_off_c, 0, 36, 64
2, 92283, Note_off_c, 0, 43, 64
2, 92289, Note_on_c, 0, 48, 48
2, 92324, Note_on_c, 0, 50, 48
2, 92337, Note_off_c, 0, 48, 64
2, 92371, Note_off_c, 0, 50, 64
2, 92372, Note_on_c, 0, 52, 48
2, 92401, Control_c, 0, 64, 0
2, 92405, Note_on_c, 0, 50, 48
2, 92414, Note_off_c, 0, 52, 64
2, 92448, Note_on_c, 0, 48, 48
2, 92461, Note_off_c, 0, 50, 64
2, 92494, Note_off_c, 0, 48, 64
2, 92498, Note_on_c, 0, 57, 48
2, 92522, Control_c, 0, 64, 127
2, 92532, Note_on_c, 0, 55, 48
2, 92544, Note_off_c, 0, 57, 64
2, 92573, Note_on_c, 0, 54, 48
2, 92579, Note_off_c, 0, 55, 64
2, 92616, Note_on_c, 0, 52, 48
2, 92622, Note_off_c, 0, 54, 64
2, 92664, Note_on_c, 0, 50, 48
2, 92673, Note_off_c, 0, 52, 64
2, 92712, Note_on_c, 0, 48, 48
2, 92722, Note_off_c, 0, 50, 64
2, 92766, Note_off_c, 0, 48, 64
2, 92766, Note_on_c, 0, 50, 48
2, 92810, Note_off_c, 0, 50, 64
2, 92810, Control_c, 0, 64, 0
2, 92812, Note_on_c, 0, 52, 48
2, 92846, Note_on_c, 0, 43, 48
2, 92856, Note_off_c, 0, 52, 64
2, 92864, Control_c, 0, 64, 127
2, 92888, Note_off_c, 0, 71, 64
2, 92890, Note_off_c, 0, 43, 64
2, 92892, Note_on_c, 0, 36, 48
2, 92896, Note_on_c, 0, 69, 71
2, 92919, Note_on_c, 0, 43, 48
2, 92938, Note_off_c, 0, 36, 64
2, 92958, Note_off_c, 0, 43, 64
2, 92958, Note_on_c, 0, 48, 48
2, 92992, Note_off_c, 0, 48, 64
2, 92995, Note_on_c, 0, 50, 48
2, 93033, Note_off_c, 0, 50, 64
2, 93038, Note_on_c, 0, 52, 48
2, 93068, Note_on_c, 0, 50, 48
2, 93080, Note_off_c, 0, 52, 64
2, 93119, Note_on_c, 0, 48, 48
2, 93127, Note_off_c, 0, 50, 64
2, 93168, Note_off_c, 0, 48, 64
2, 93168, Note_on_c, 0, 57, 48
2, 93216, Note_on_c, 0, 55, 48
2, 93219, Note_off_c, 0, 57, 64
2, 93262, Note_on_c, 0, 54, 48
2, 93263, Note_off_c, 0, 55, 64
2, 93306, Note_off_c, 0, 54, 64
2, 93307, Note_on_c, 0, 52, 48
2, 93342, Note_off_c, 0, 52, 64
2, 93342, Note_on_c, 0, 50, 48
2, 93378, Note_on_c, 0, 48, 48
2, 93382, Note_off_c, 0, 50, 64
2, 93425, Note_on_c, 0, 50, 48
2, 93439, Note_off_c, 0, 48, 64
2, 93459, Note_off_c, 0, 67, 64
2, 93463, Note_on_c, 0, 52, 48
2, 93470, Note_off_c, 0, 50, 64
2, 93513, Note_off_c, 0, 64, 64
2, 93513, Control_c, 0, 64, 0
2, 93516, Note_on_c, 0, 71, 79
2, 93516, Note_on_c, 0, 43, 48
2, 93522, Note_off_c, 0, 69, 64
2, 93525, Note_off_c, 0, 52, 64
2, 93540, Note_on_c, 0, 57, 48
2, 93556, Note_on_c, 0, 38, 48
2, 93560, Note_off_c, 0, 43, 64
2, 93580, Note_on_c, 0, 62, 79
2, 93586, Note_off_c, 0, 71, 64
2, 93593, Control_c, 0, 64, 127
2, 93608, Note_on_c, 0, 67, 93
2, 93620, Note_on_c, 0, 45, 48
2, 93629, Note_off_c, 0, 38, 64
2, 93653, Note_on_c, 0, 48, 48
2, 93661, Note_off_c, 0, 45, 64
2, 93674, Note_off_c, 0, 57, 64
2, 93692, Note_on_c, 0, 50, 48
2, 93701, Note_off_c, 0, 48, 64
2, 93736, Note_on_c, 0, 52, 48
2, 93738, Note_off_c, 0, 50, 64
2, 93770, Note_on_c, 0, 50, 48
2, 93778, Note_off_c, 0, 52, 64
2, 93808, Note_on_c, 0, 48, 48
2, 93818, Note_off_c, 0, 50, 64
2, 93850, Note_off_c, 0, 48, 64
2, 93852, Note_on_c, 0, 59, 48
2, 93893, Note_on_c, 0, 57, 48
2, 93903, Note_off_c, 0, 59, 64
2, 93927, Note_on_c, 0, 55, 48
2, 93936, Note_off_c, 0, 57, 64
2, 93959, Note_on_c, 0, 52, 48
2, 93969, Note_off_c, 0, 55, 64
2, 94001, Note_on_c, 0, 50, 48
2, 94003, Note_off_c, 0, 52, 64
2, 94039, Note_on_c, 0, 48, 48
2, 94043, Note_off_c, 0, 50, 64
2, 94073, Note_on_c, 0, 50, 48
2, 94082, Note_off_c, 0, 48, 64
2, 94114, Note_on_c, 0, 52, 48
2, 94115, Note_off_c, 0, 50, 64
2, 94157, Note_on_c, 0, 45, 48
2, 94162, Note_off_c, 0, 52, 64
2, 94163, Control_c, 0, 64, 0
2, 94200, Note_off_c, 0, 62, 64
2, 94212, Note_off_c, 0, 45, 64
2, 94218, Note_on_c, 0, 60, 70
2, 94219, Note_on_c, 0, 66, 74
2, 94219, Note_on_c, 0, 62, 57
2, 94219, Note_on_c, 0, 38, 48
2, 94235, Control_c, 0, 64, 127
2, 94253, Note_on_c, 0, 45, 48
2, 94265, Note_off_c, 0, 67, 64
2, 94275, Note_off_c, 0, 38, 64
2, 94290, Note_off_c, 0, 45, 64
2, 94292, Note_on_c, 0, 50, 48
2, 94329, Note_off_c, 0, 50, 64
2, 94330, Note_on_c, 0, 52, 48
2, 94370, Note_on_c, 0, 54, 48
2, 94374, Note_off_c, 0, 52, 64
2, 94408, Note_on_c, 0, 52, 48
2, 94412, Note_off_c, 0, 54, 64
2, 94452, Note_on_c, 0, 50, 48
2, 94458, Note_off_c, 0, 52, 64
2, 94494, Note_off_c, 0, 50, 64
2, 94497, Note_on_c, 0, 59, 48
2, 94535, Note_on_c, 0, 57, 48
2, 94546, Note_off_c, 0, 59, 64
2, 94579, Note_on_c, 0, 55, 48
2, 94583, Note_off_c, 0, 57, 64
2, 94620, Note_on_c, 0, 54, 48
2, 94623, Note_off_c, 0, 55, 64
2, 94656, Note_on_c, 0, 52, 48
2, 94668, Note_off_c, 0, 54, 64
2, 94692, Note_on_c, 0, 50, 48
2, 94704, Note_off_c, 0, 52, 64
2, 94732, Note_on_c, 0, 52, 48
2, 94743, Note_off_c, 0, 50, 64
2, 94765, Note_off_c, 0, 60, 64
2, 94766, Note_on_c, 0, 54, 48
2, 94773, Note_off_c, 0, 52, 64
2, 94806, Control_c, 0, 64, 0
2, 94810, Note_off_c, 0, 54, 64
2, 94814, Note_on_c, 0, 45, 48
2, 94816, Note_on_c, 0, 67, 89
2, 94824, Note_off_c, 0, 66, 64
2, 94836, Note_on_c, 0, 59, 48
2, 94841, Note_off_c, 0, 62, 64
2, 94852, Note_off_c, 0, 67, 64
2, 94856, Note_on_c, 0, 62, 79
2, 94857, Note_off_c, 0, 45, 64
2, 94867, Note_on_c, 0, 43, 48
2, 94880, Note_on_c, 0, 67, 89
2, 94886, Control_c, 0, 64, 127
2, 94916, Note_on_c, 0, 50, 48
2, 94934, Note_off_c, 0, 43, 64
2, 94937, Note_off_c, 0, 59, 64
2, 94953, Note_off_c, 0, 50, 64
2, 94959, Note_on_c, 0, 55, 48
2, 94976, Note_off_c, 0, 62, 64
2, 95000, Note_on_c, 0, 57, 48
2, 95009, Note_off_c, 0, 55, 64
2, 95042, Note_off_c, 0, 57, 64
2, 95046, Note_on_c, 0, 59, 48
2, 95079, Note_on_c, 0, 57, 48
2, 95089, Note_off_c, 0, 59, 64
2, 95117, Note_on_c, 0, 55, 48
2, 95130, Note_off_c, 0, 57, 64
2, 95152, Note_on_c, 0, 64, 48
2, 95160, Note_off_c, 0, 55, 64
2, 95201, Note_off_c, 0, 64, 64
2, 95202, Note_on_c, 0, 62, 48
2, 95238, Note_on_c, 0, 60, 48
2, 95240, Note_off_c, 0, 62, 64
2, 95275, Note_off_c, 0, 60, 64
2, 95280, Note_on_c, 0, 59, 48
2, 95312, Note_off_c, 0, 59, 64
2, 95318, Note_on_c, 0, 57, 48
2, 95352, Note_off_c, 0, 57, 64
2, 95354, Note_on_c, 0, 55, 48
2, 95387, Note_on_c, 0, 57, 48
2, 95389, Note_off_c, 0, 55, 64
2, 95426, Note_on_c, 0, 59, 48
2, 95429, Note_off_c, 0, 57, 64
2, 95455, Control_c, 0, 64, 0
2, 95468, Note_off_c, 0, 59, 64
2, 95472, Note_on_c, 0, 50, 48
2, 95515, Note_off_c, 0, 50, 64
2, 95517, Control_c, 0, 64, 127
2, 95521, Note_on_c, 0, 43, 48
2, 95551, Note_on_c, 0, 50, 48
2, 95571, Note_off_c, 0, 43, 64
2, 95585, Note_off_c, 0, 50, 64
2, 95586, Note_on_c, 0, 55, 48
2, 95623, Note_off_c, 0, 55, 64
2, 95625, Note_on_c, 0, 57, 48
2, 95667, Note_on_c, 0, 59, 48
2, 95674, Note_off_c, 0, 67, 64
2, 95675, Note_off_c, 0, 57, 64
2, 95704, Note_on_c, 0, 57, 48
2, 95711, Note_off_c, 0, 59, 64
2, 95743, Note_on_c, 0, 55, 48
2, 95752, Note_off_c, 0, 57, 64
2, 95779, Note_on_c, 0, 64, 48
2, 95786, Note_off_c, 0, 55, 64
2, 95822, Note_on_c, 0, 62, 48
2, 95829, Note_off_c, 0, 64, 64
2, 95852, Note_on_c, 0, 60, 48
2, 95855, Note_off_c, 0, 62, 64
2, 95889, Note_off_c, 0, 60, 64
2, 95892, Note_on_c, 0, 59, 48
2, 95926, Note_on_c, 0, 57, 48
2, 95930, Note_off_c, 0, 59, 64
2, 95968, Note_on_c, 0, 55, 48
2, 95969, Note_off_c, 0, 57, 64
2, 96000, Note_on_c, 0, 57, 48
2, 96010, Note_off_c, 0, 55, 64
2, 96024, Note_off_c, 0, 57, 64
2, 96035, Note_on_c, 0, 59, 48
2, 96061, Control_c, 0, 64, 0
2, 96072, Note_on_c, 0, 50, 48
2, 96081, Note_off_c, 0, 59, 64
2, 96114, Note_on_c, 0, 43, 48
2, 96118, Note_off_c, 0, 50, 64
2, 96120, Note_on_c, 0, 59, 48
2, 96140, Control_c, 0, 64, 127
2, 96161, Note_off_c, 0, 43, 64
2, 96162, Note_on_c, 0, 62, 48
2, 96162, Note_on_c, 0, 50, 48
2, 96167, Note_off_c, 0, 59, 64
2, 96198, Note_on_c, 0, 67, 48
2, 96200, Note_on_c, 0, 55, 48
2, 96210, Note_off_c, 0, 50, 64
2, 96215, Note_off_c, 0, 62, 64
2, 96230, Note_on_c, 0, 57, 48
2, 96232, Note_on_c, 0, 69, 48
2, 96243, Note_off_c, 0, 55, 64
2, 96252, Note_off_c, 0, 67, 64
2, 96275, Note_on_c, 0, 59, 48
2, 96276, Note_off_c, 0, 69, 64
2, 96276, Note_on_c, 0, 71, 48
2, 96277, Note_off_c, 0, 57, 64
2, 96308, Note_on_c, 0, 69, 48
2, 96309, Note_on_c, 0, 57, 48
2, 96320, Note_off_c, 0, 59, 64
2, 96326, Note_off_c, 0, 71, 64
2, 96352, Note_on_c, 0, 67, 48
2, 96352, Note_on_c, 0, 55, 48
2, 96357, Note_off_c, 0, 69, 64
2, 96369, Note_off_c, 0, 57, 64
2, 96388, Note_on_c, 0, 76, 48
2, 96388, Note_on_c, 0, 64, 48
2, 96410, Note_off_c, 0, 55, 64
2, 96412, Note_off_c, 0, 67, 64
2, 96434, Note_on_c, 0, 74, 48
2, 96436, Note_on_c, 0, 62, 48
2, 96439, Note_off_c, 0, 76, 64
2, 96444, Note_off_c, 0, 64, 64
2, 96476, Note_on_c, 0, 72, 48
2, 96476, Note_on_c, 0, 60, 48
2, 96485, Note_off_c, 0, 74, 64
2, 96487, Note_off_c, 0, 62, 64
2, 96512, Note_on_c, 0, 71, 48
2, 96512, Note_on_c, 0, 59, 48
2, 96514, Note_off_c, 0, 60, 64
2, 96514, Note_off_c, 0, 72, 64
2, 96539, Control_c, 0, 64, 0
2, 96556, Note_off_c, 0, 71, 64
2, 96558, Note_on_c, 0, 57, 48
2, 96559, Note_on_c, 0, 69, 48
2, 96561, Note_off_c, 0, 59, 64
2, 96593, Note_on_c, 0, 67, 48
2, 96594, Note_on_c, 0, 55, 48
2, 96599, Note_off_c, 0, 69, 64
2, 96600, Note_off_c, 0, 57, 64
2, 96611, Control_c, 0, 64, 127
2, 96636, Note_on_c, 0, 69, 48
2, 96636, Note_on_c, 0, 57, 48
2, 96641, Note_off_c, 0, 55, 64
2, 96645, Note_off_c, 0, 67, 64
2, 96670, Note_off_c, 0, 57, 64
2, 96670, Note_on_c, 0, 71, 48
2, 96672, Note_on_c, 0, 59, 48
2, 96684, Note_off_c, 0, 69, 64
2, 96710, Note_on_c, 0, 62, 48
2, 96712, Note_on_c, 0, 50, 48
2, 96713, Note_off_c, 0, 59, 64
2, 96715, Note_off_c, 0, 71, 64
2, 96725, Control_c, 0, 64, 0
2, 96746, Note_on_c, 0, 59, 48
2, 96746, Note_on_c, 0, 43, 48
2, 96752, Note_off_c, 0, 62, 64
2, 96754, Note_off_c, 0, 50, 64
2, 96772, Control_c, 0, 64, 127
2, 96781, Note_off_c, 0, 59, 64
2, 96784, Note_on_c, 0, 62, 48
2, 96787, Note_on_c, 0, 50, 48
2, 96797, Note_off_c, 0, 43, 64
2, 96820, Note_on_c, 0, 67, 48
2, 96820, Note_on_c, 0, 55, 48
2, 96833, Note_off_c, 0, 62, 64
2, 96835, Note_off_c, 0, 50, 64
2, 96858, Note_on_c, 0, 69, 48
2, 96858, Note_on_c, 0, 57, 48
2, 96872, Note_off_c, 0, 55, 64
2, 96877, Note_off_c, 0, 67, 64
2, 96895, Note_on_c, 0, 71, 48
2, 96896, Note_on_c, 0, 59, 48
2, 96902, Note_off_c, 0, 57, 64
2, 96907, Note_off_c, 0, 69, 64
2, 96933, Note_on_c, 0, 69, 48
2, 96933, Note_on_c, 0, 57, 48
2, 96944, Control_c, 0, 64, 0
2, 96948, Note_off_c, 0, 59, 64
2, 96948, Note_off_c, 0, 71, 64
2, 96970, Note_on_c, 0, 55, 48
2, 96971, Note_on_c, 0, 67, 48
2, 96984, Note_off_c, 0, 57, 64
2, 96984, Note_off_c, 0, 69, 64
2, 97003, Control_c, 0, 64, 127
2, 97012, Note_off_c, 0, 55, 64
2, 97012, Note_on_c, 0, 64, 48
2, 97013, Note_off_c, 0, 67, 64
2, 97013, Note_on_c, 0, 76, 48
2, 97055, Note_off_c, 0, 64, 64
2, 97055, Note_on_c, 0, 74, 48
2, 97056, Note_on_c, 0, 62, 48
2, 97063, Note_off_c, 0, 76, 64
2, 97092, Note_on_c, 0, 60, 48
2, 97093, Note_on_c, 0, 72, 48
2, 97107, Note_off_c, 0, 74, 64
2, 97108, Note_off_c, 0, 62, 64
2, 97129, Note_off_c, 0, 72, 64
2, 97129, Note_on_c, 0, 71, 48
2, 97130, Note_off_c, 0, 60, 64
2, 97130, Note_on_c, 0, 59, 48
2, 97164, Note_on_c, 0, 69, 48
2, 97164, Note_on_c, 0, 57, 48
2, 97175, Note_off_c, 0, 71, 64
2, 97176, Note_off_c, 0, 59, 64
2, 97202, Note_off_c, 0, 57, 64
2, 97202, Note_off_c, 0, 69, 64
2, 97202, Note_on_c, 0, 67, 48
2, 97204, Note_on_c, 0, 55, 48
2, 97236, Note_on_c, 0, 69, 48
2, 97236, Note_on_c, 0, 57, 48
2, 97253, Note_off_c, 0, 67, 64
2, 97255, Note_off_c, 0, 55, 64
2, 97274, Note_on_c, 0, 59, 48
2, 97276, Note_on_c, 0, 71, 48
2, 97282, Note_off_c, 0, 57, 64
2, 97282, Note_off_c, 0, 69, 64
2, 97288, Control_c, 0, 64, 0
2, 97304, Note_on_c, 0, 50, 48
2, 97306, Note_on_c, 0, 62, 48
2, 97318, Note_off_c, 0, 71, 64
2, 97318, Note_off_c, 0, 59, 64
2, 97343, Note_off_c, 0, 50, 64
2, 97343, Control_c, 0, 64, 127
2, 97345, Note_off_c, 0, 62, 64
2, 97347, Note_on_c, 0, 59, 48
2, 97347, Note_on_c, 0, 43, 48
2, 97379, Note_off_c, 0, 59, 64
2, 97388, Note_on_c, 0, 62, 48
2, 97388, Note_on_c, 0, 50, 48
2, 97392, Note_off_c, 0, 43, 64
2, 97424, Note_on_c, 0, 67, 48
2, 97424, Note_on_c, 0, 55, 48
2, 97439, Note_off_c, 0, 50, 64
2, 97439, Note_off_c, 0, 62, 64
2, 97464, Note_on_c, 0, 69, 48
2, 97464, Note_on_c, 0, 57, 48
2, 97477, Note_off_c, 0, 55, 64
2, 97477, Note_off_c, 0, 67, 64
2, 97502, Note_on_c, 0, 67, 48
2, 97505, Note_off_c, 0, 57, 64
2, 97505, Note_off_c, 0, 69, 64
2, 97505, Note_on_c, 0, 55, 48
2, 97542, Note_on_c, 0, 69, 48
2, 97542, Note_on_c, 0, 57, 48
2, 97544, Note_off_c, 0, 55, 64
2, 97557, Note_off_c, 0, 67, 64
2, 97584, Note_on_c, 0, 59, 48
2, 97586, Note_on_c, 0, 71, 48
2, 97588, Note_off_c, 0, 57, 64
2, 97588, Note_off_c, 0, 69, 64
2, 97606, Control_c, 0, 64, 0
2, 97618, Note_on_c, 0, 62, 48
2, 97618, Note_on_c, 0, 50, 48
2, 97623, Note_off_c, 0, 59, 64
2, 97625, Note_off_c, 0, 71, 64
2, 97656, Control_c, 0, 64, 127
2, 97666, Note_off_c, 0, 50, 64
2, 97666, Note_on_c, 0, 59, 48
2, 97668, Note_on_c, 0, 43, 48
2, 97671, Note_off_c, 0, 62, 64
2, 97698, Note_on_c, 0, 50, 48
2, 97700, Note_off_c, 0, 59, 64
2, 97700, Note_on_c, 0, 62, 48
2, 97713, Note_off_c, 0, 43, 64
2, 97733, Note_off_c, 0, 50, 64
2, 97736, Note_off_c, 0, 62, 64
2, 97738, Note_on_c, 0, 67, 48
2, 97738, Note_on_c, 0, 55, 48
2, 97776, Note_on_c, 0, 69, 48
2, 97776, Note_on_c, 0, 57, 48
2, 97780, Note_off_c, 0, 55, 64
2, 97789, Note_off_c, 0, 67, 64
2, 97814, Note_on_c, 0, 67, 48
2, 97816, Note_on_c, 0, 55, 48
2, 97819, Note_off_c, 0, 57, 64
2, 97819, Note_off_c, 0, 69, 64
2, 97852, Note_on_c, 0, 57, 48
2, 97854, Note_on_c, 0, 69, 48
2, 97862, Note_off_c, 0, 67, 64
2, 97864, Note_off_c, 0, 55, 64
2, 97883, Note_on_c, 0, 71, 48
2, 97884, Note_on_c, 0, 59, 48
2, 97905, Note_off_c, 0, 57, 64
2, 97912, Note_off_c, 0, 69, 64
2, 97912, Control_c, 0, 64, 0
2, 97926, Note_on_c, 0, 50, 48
2, 97927, Note_off_c, 0, 71, 64
2, 97928, Note_off_c, 0, 59, 64
2, 97928, Note_on_c, 0, 62, 48
2, 97966, Control_c, 0, 64, 127
2, 97968, Note_on_c, 0, 59, 48
2, 97968, Note_on_c, 0, 43, 48
2, 97970, Note_off_c, 0, 62, 64
2, 97972, Note_off_c, 0, 50, 64
2, 97998, Note_off_c, 0, 59, 64
2, 98004, Note_on_c, 0, 62, 48
2, 98006, Note_on_c, 0, 50, 48
2, 98028, Note_off_c, 0, 43, 64
2, 98036, Note_on_c, 0, 67, 48
2, 98036, Note_on_c, 0, 55, 48
2, 98046, Note_off_c, 0, 50, 64
2, 98053, Note_off_c, 0, 62, 64
2, 98080, Note_on_c, 0, 57, 48
2, 98081, Note_on_c, 0, 69, 48
2, 98084, Note_off_c, 0, 55, 64
2, 98086, Note_off_c, 0, 67, 64
2, 98120, Note_on_c, 0, 67, 48
2, 98120, Note_on_c, 0, 55, 48
2, 98121, Note_off_c, 0, 57, 64
2, 98122, Note_off_c, 0, 69, 64
2, 98152, Note_on_c, 0, 57, 48
2, 98153, Note_on_c, 0, 69, 48
2, 98172, Note_off_c, 0, 55, 64
2, 98180, Note_off_c, 0, 67, 64
2, 98192, Note_on_c, 0, 71, 48
2, 98192, Note_on_c, 0, 59, 48
2, 98195, Note_off_c, 0, 57, 64
2, 98196, Note_off_c, 0, 69, 64
2, 98222, Note_off_c, 0, 59, 64
2, 98223, Note_off_c, 0, 71, 64
2, 98230, Note_on_c, 0, 74, 48
2, 98230, Note_on_c, 0, 62, 48
2, 98268, Note_on_c, 0, 67, 48
2, 98270, Note_on_c, 0, 79, 48
2, 98281, Note_off_c, 0, 62, 64
2, 98281, Note_off_c, 0, 74, 64
2, 98310, Note_on_c, 0, 81, 46
2, 98310, Note_on_c, 0, 69, 46
2, 98327, Note_off_c, 0, 79, 64
2, 98330, Note_off_c, 0, 67, 64
2, 98352, Note_on_c, 0, 83, 45
2, 98352, Note_on_c, 0, 71, 44
2, 98362, Note_off_c, 0, 69, 64
2, 98367, Note_off_c, 0, 81, 64
2, 98390, Note_on_c, 0, 74, 42
2, 98393, Note_on_c, 0, 86, 42
2, 98396, Note_off_c, 0, 71, 64
2, 98413, Note_off_c, 0, 83, 64
2, 98430, Note_on_c, 0, 79, 40
2, 98432, Note_on_c, 0, 91, 40
2, 98434, Note_off_c, 0, 74, 64
2, 98447, Note_off_c, 0, 86, 64
2, 98466, Note_on_c, 0, 81, 38
2, 98469, Note_on_c, 0, 93, 38
2, 98491, Note_off_c, 0, 79, 64
2, 98493, Note_off_c, 0, 91, 64
2, 98504, Note_on_c, 0, 83, 37
2, 98506, Note_on_c, 0, 95, 37
2, 98516, Note_off_c, 0, 81, 64
2, 98532, Note_off_c, 0, 93, 64
2, 98551, Note_off_c, 0, 83, 64
2, 98554, Note_on_c, 0, 86, 35
2, 98556, Note_on_c, 0, 98, 35
2, 98565, Note_off_c, 0, 95, 64
2, 98598, Note_on_c, 0, 95, 33
2, 98598, Note_on_c, 0, 83, 33
2, 98604, Control_c, 0, 64, 0
2, 98613, Note_off_c, 0, 86, 64
2, 98615, Note_off_c, 0, 98, 64
2, 98648, Control_c, 0, 64, 127
2, 98771, Note_off_c, 0, 83, 64
2, 98771, Note_off_c, 0, 95, 64
2, 98948, Control_c, 0, 64, 0
2, 99022, Note_on_c, 0, 43, 80
2, 99047, Note_on_c, 0, 50, 66
2, 99062, Control_c, 0, 64, 127
2, 99080, Note_on_c, 0, 55, 71
2, 99105, Note_on_c, 0, 59, 78
2, 99126, Note_on_c, 0, 62, 73
2, 99149, Note_on_c, 0, 67, 66
2, 99194, Note_on_c, 0, 71, 80
2, 99650, Note_off_c, 0, 50, 64
2, 99670, Note_off_c, 0, 55, 64
2, 99688, Note_off_c, 0, 43, 64
2, 99737, Note_off_c, 0, 67, 64
2, 99741, Note_off_c, 0, 59, 64
2, 99749, Note_off_c, 0, 62, 64
2, 99755, Note_off_c, 0, 71, 64
2, 99822, Note_on_c, 0, 43, 59
2, 99864, Note_on_c, 0, 50, 50
2, 99902, Note_on_c, 0, 55, 52
2, 99933, Note_on_c, 0, 59, 43
2, 99968, Note_on_c, 0, 62, 34
2, 99992, Note_on_c, 0, 67, 45
2, 100030, Note_on_c, 0, 71, 39
2, 101283, Control_c, 0, 64, 0
2, 101300, Note_off_c, 0, 43, 64
2, 101303, Note_off_c, 0, 50, 64
2, 101305, Note_off_c, 0, 67, 64
2, 101306, Note_off_c, 0, 62, 64
2, 101310, Note_off_c, 0, 71, 64
2, 101314, Note_off_c, 0, 55, 64
2, 101315, Note_off_c, 0, 59, 64
2, 101824, Note_on_c, 0, 59, 48
2, 102441, Note_on_c, 0, 71, 40
2, 102649, Note_off_c, 0, 59, 64
2, 102671, Note_off_c, 0, 71, 64
2, 102683, Note_on_c, 0, 55, 23
2, 102684, Note_on_c, 0, 71, 58
2, 102684, Note_on_c, 0, 64, 21
2, 102684, Note_on_c, 0, 59, 27
2, 102708, Control_c, 0, 64, 0
2, 102776, Control_c, 0, 64, 127
2, 102922, Note_off_c, 0, 59, 64
2, 102941, Note_off_c, 0, 55, 64
2, 102949, Note_off_c, 0, 64, 64
2, 103076, Note_on_c, 0, 55, 21
2, 103080, Note_on_c, 0, 64, 20
2, 103080, Note_on_c, 0, 59, 20
2, 103173, Note_off_c, 0, 59, 64
2, 103182, Note_off_c, 0, 55, 64
2, 103191, Note_off_c, 0, 64, 64
2, 103339, Note_on_c, 0, 64, 20
2, 103340, Note_on_c, 0, 59, 22
2, 103343, Note_on_c, 0, 55, 21
2, 103439, Note_off_c, 0, 59, 64
2, 103456, Note_off_c, 0, 55, 64
2, 103458, Note_off_c, 0, 64, 64
2, 103568, Note_on_c, 0, 55, 21
2, 103572, Note_on_c, 0, 59, 21
2, 103573, Note_on_c, 0, 64, 21
2, 103650, Note_off_c, 0, 59, 64
2, 103661, Note_off_c, 0, 55, 64
2, 103685, Note_off_c, 0, 64, 64
2, 103796, Note_on_c, 0, 59, 21
2, 103796, Note_on_c, 0, 55, 20
2, 103800, Note_on_c, 0, 64, 17
2, 103880, Note_off_c, 0, 55, 64
2, 103887, Note_off_c, 0, 59, 64
2, 103904, Note_off_c, 0, 64, 64
2, 104032, Note_on_c, 0, 59, 23
2, 104033, Note_on_c, 0, 64, 25
2, 104036, Note_on_c, 0, 55, 18
2, 104149, Note_off_c, 0, 55, 64
2, 104150, Note_off_c, 0, 59, 64
2, 104174, Note_off_c, 0, 64, 64
2, 104260, Note_on_c, 0, 64, 24
2, 104260, Note_on_c, 0, 59, 23
2, 104260, Note_on_c, 0, 55, 21
2, 104308, Note_on_c, 0, 72, 70
2, 104320, Note_off_c, 0, 71, 64
2, 104355, Note_off_c, 0, 55, 64
2, 104372, Note_off_c, 0, 59, 64
2, 104396, Note_off_c, 0, 64, 64
2, 104540, Note_on_c, 0, 64, 21
2, 104544, Note_on_c, 0, 59, 21
2, 104546, Note_on_c, 0, 55, 21
2, 104692, Note_off_c, 0, 55, 64
2, 104695, Note_off_c, 0, 59, 64
2, 104732, Note_off_c, 0, 64, 64
2, 104872, Note_on_c, 0, 64, 29
2, 104872, Note_on_c, 0, 54, 33
2, 104873, Note_on_c, 0, 57, 21
2, 104917, Note_on_c, 0, 71, 64
2, 104929, Control_c, 0, 64, 0
2, 104949, Note_off_c, 0, 72, 64
2, 104988, Control_c, 0, 64, 127
2, 105092, Note_off_c, 0, 54, 64
2, 105096, Note_off_c, 0, 57, 64
2, 105125, Note_off_c, 0, 64, 64
2, 105196, Note_on_c, 0, 57, 22
2, 105196, Note_on_c, 0, 54, 18
2, 105198, Note_on_c, 0, 64, 28
2, 105274, Note_off_c, 0, 54, 64
2, 105291, Note_off_c, 0, 57, 64
2, 105312, Note_off_c, 0, 64, 64
2, 105388, Note_on_c, 0, 57, 30
2, 105388, Note_on_c, 0, 54, 21
2, 105395, Note_on_c, 0, 64, 21
2, 105469, Note_off_c, 0, 54, 64
2, 105470, Note_off_c, 0, 57, 64
2, 105508, Note_off_c, 0, 64, 64
2, 105600, Note_on_c, 0, 57, 30
2, 105601, Note_on_c, 0, 64, 22
2, 105607, Note_on_c, 0, 54, 21
2, 105680, Note_off_c, 0, 64, 64
2, 105697, Note_off_c, 0, 57, 64
2, 105704, Note_off_c, 0, 54, 64
2, 105796, Note_on_c, 0, 57, 28
2, 105796, Note_on_c, 0, 54, 21
2, 105799, Note_on_c, 0, 63, 26
2, 105888, Note_off_c, 0, 54, 64
2, 105890, Note_off_c, 0, 57, 64
2, 105914, Note_off_c, 0, 63, 64
2, 106016, Note_on_c, 0, 54, 21
2, 106022, Note_on_c, 0, 63, 24
2, 106023, Note_on_c, 0, 57, 29
2, 106101, Note_off_c, 0, 57, 64
2, 106106, Note_off_c, 0, 54, 64
2, 106123, Note_off_c, 0, 63, 64
2, 106224, Note_on_c, 0, 57, 32
2, 106224, Note_on_c, 0, 54, 21
2, 106227, Note_on_c, 0, 63, 21
2, 106280, Note_on_c, 0, 72, 64
2, 106302, Note_off_c, 0, 71, 64
2, 106343, Note_off_c, 0, 57, 64
2, 106347, Note_off_c, 0, 54, 64
2, 106370, Note_off_c, 0, 63, 64
2, 106492, Note_on_c, 0, 57, 17
2, 106493, Note_on_c, 0, 54, 19
2, 106496, Note_on_c, 0, 63, 19
2, 106612, Note_off_c, 0, 57, 64
2, 106636, Note_off_c, 0, 54, 64
2, 106653, Note_off_c, 0, 63, 64
2, 106788, Note_on_c, 0, 63, 20
2, 106788, Note_on_c, 0, 57, 24
2, 106789, Note_on_c, 0, 53, 21
2, 106839, Control_c, 0, 64, 0
2, 106850, Note_on_c, 0, 71, 69
2, 106883, Note_off_c, 0, 72, 64
2, 106911, Control_c, 0, 64, 127
2, 106988, Note_off_c, 0, 57, 64
2, 106999, Note_off_c, 0, 53, 64
2, 107034, Note_off_c, 0, 63, 64
2, 107108, Note_on_c, 0, 53, 21
2, 107115, Note_on_c, 0, 63, 21
2, 107115, Note_on_c, 0, 57, 27
2, 107181, Note_off_c, 0, 53, 64
2, 107202, Note_off_c, 0, 57, 64
2, 107213, Note_off_c, 0, 63, 64
2, 107308, Note_on_c, 0, 63, 23
2, 107308, Note_on_c, 0, 57, 25
2, 107309, Note_on_c, 0, 53, 27
2, 107384, Note_off_c, 0, 57, 64
2, 107406, Note_off_c, 0, 53, 64
2, 107413, Note_off_c, 0, 63, 64
2, 107484, Note_on_c, 0, 53, 21
2, 107485, Note_on_c, 0, 63, 21
2, 107488, Note_on_c, 0, 57, 31
2, 107561, Note_off_c, 0, 53, 64
2, 107567, Note_off_c, 0, 57, 64
2, 107598, Note_off_c, 0, 63, 64
2, 107688, Note_on_c, 0, 62, 23
2, 107688, Note_on_c, 0, 57, 27
2, 107688, Note_on_c, 0, 53, 21
2, 107761, Note_off_c, 0, 53, 64
2, 107781, Note_off_c, 0, 57, 64
2, 107784, Note_off_c, 0, 62, 64
2, 107876, Note_on_c, 0, 53, 21
2, 107878, Note_on_c, 0, 62, 21
2, 107880, Note_on_c, 0, 57, 33
2, 107953, Note_off_c, 0, 53, 64
2, 107963, Note_off_c, 0, 57, 64
2, 107986, Note_off_c, 0, 62, 64
2, 108088, Note_on_c, 0, 53, 28
2, 108093, Note_on_c, 0, 62, 21
2, 108094, Note_on_c, 0, 56, 21
2, 108148, Note_on_c, 0, 72, 69
2, 108178, Note_off_c, 0, 71, 64
2, 108219, Note_off_c, 0, 53, 64
2, 108222, Note_off_c, 0, 56, 64
2, 108240, Note_off_c, 0, 62, 64
2, 108360, Note_on_c, 0, 56, 21
2, 108360, Note_on_c, 0, 53, 20
2, 108361, Note_on_c, 0, 62, 18
2, 108461, Note_off_c, 0, 53, 64
2, 108488, Note_off_c, 0, 56, 64
2, 108510, Note_off_c, 0, 62, 64
2, 108624, Note_on_c, 0, 52, 26
2, 108626, Note_on_c, 0, 62, 18
2, 108628, Note_on_c, 0, 56, 20
2, 108669, Control_c, 0, 64, 0
2, 108673, Note_on_c, 0, 71, 64
2, 108712, Note_off_c, 0, 72, 64
2, 108731, Control_c, 0, 64, 127
2, 108810, Note_off_c, 0, 52, 64
2, 108825, Note_off_c, 0, 62, 64
2, 108832, Note_off_c, 0, 56, 64
2, 108896, Note_on_c, 0, 52, 24
2, 108897, Note_on_c, 0, 56, 27
2, 108902, Note_on_c, 0, 62, 26
2, 108966, Note_off_c, 0, 52, 64
2, 108984, Note_off_c, 0, 56, 64
2, 108990, Note_off_c, 0, 62, 64
2, 109072, Note_on_c, 0, 56, 31
2, 109072, Note_on_c, 0, 52, 27
2, 109075, Note_on_c, 0, 62, 23
2, 109148, Note_off_c, 0, 52, 64
2, 109148, Note_off_c, 0, 56, 64
2, 109172, Note_off_c, 0, 62, 64
2, 109248, Note_on_c, 0, 52, 22
2, 109251, Note_on_c, 0, 62, 33
2, 109252, Note_on_c, 0, 56, 27
2, 109309, Note_off_c, 0, 52, 64
2, 109328, Note_off_c, 0, 62, 64
2, 109331, Note_off_c, 0, 56, 64
2, 109428, Note_on_c, 0, 55, 27
2, 109428, Note_on_c, 0, 52, 22
2, 109429, Note_on_c, 0, 62, 27
2, 109509, Note_off_c, 0, 55, 64
2, 109517, Note_off_c, 0, 62, 64
2, 109520, Note_off_c, 0, 52, 64
2, 109608, Note_on_c, 0, 55, 26
2, 109608, Note_on_c, 0, 52, 23
2, 109611, Note_on_c, 0, 62, 27
2, 109670, Note_off_c, 0, 52, 64
2, 109672, Note_off_c, 0, 55, 64
2, 109686, Note_off_c, 0, 62, 64
2, 109824, Note_on_c, 0, 61, 33
2, 109826, Note_on_c, 0, 52, 27
2, 109828, Note_on_c, 0, 55, 27
2, 109856, Note_on_c, 0, 70, 69
2, 109872, Note_off_c, 0, 71, 64
2, 109923, Note_off_c, 0, 55, 64
2, 109935, Note_off_c, 0, 52, 64
2, 109937, Note_off_c, 0, 61, 64
2, 110062, Note_on_c, 0, 52, 28
2, 110065, Note_on_c, 0, 61, 26
2, 110066, Note_on_c, 0, 55, 28
2, 110191, Note_off_c, 0, 55, 64
2, 110193, Note_off_c, 0, 52, 64
2, 110212, Note_off_c, 0, 61, 64
2, 110336, Note_on_c, 0, 60, 26
2, 110336, Note_on_c, 0, 55, 21
2, 110336, Note_on_c, 0, 52, 25
2, 110401, Note_on_c, 0, 69, 66
2, 110413, Control_c, 0, 64, 0
2, 110424, Note_off_c, 0, 70, 64
2, 110482, Control_c, 0, 64, 127
2, 110547, Note_off_c, 0, 52, 64
2, 110555, Note_off_c, 0, 55, 64
2, 110570, Note_off_c, 0, 60, 64
2, 110640, Note_on_c, 0, 60, 26
2, 110640, Note_on_c, 0, 55, 25
2, 110640, Note_on_c, 0, 52, 27
2, 110701, Note_off_c, 0, 55, 64
2, 110706, Note_off_c, 0, 52, 64
2, 110727, Note_off_c, 0, 60, 64
2, 110808, Note_on_c, 0, 55, 28
2, 110808, Note_on_c, 0, 52, 21
2, 110811, Note_on_c, 0, 60, 27
2, 110863, Note_off_c, 0, 55, 64
2, 110873, Note_off_c, 0, 52, 64
2, 110894, Note_off_c, 0, 60, 64
2, 110999, Note_on_c, 0, 60, 27
2, 111000, Note_on_c, 0, 55, 23
2, 111000, Note_on_c, 0, 52, 21
2, 111056, Note_off_c, 0, 52, 64
2, 111060, Note_off_c, 0, 55, 64
2, 111067, Note_off_c, 0, 60, 64
2, 111172, Note_on_c, 0, 60, 21
2, 111176, Note_on_c, 0, 54, 28
2, 111176, Note_on_c, 0, 52, 27
2, 111251, Note_off_c, 0, 54, 64
2, 111252, Note_off_c, 0, 60, 64
2, 111272, Note_off_c, 0, 52, 64
2, 111336, Note_on_c, 0, 54, 27
2, 111336, Note_on_c, 0, 52, 27
2, 111343, Note_on_c, 0, 60, 23
2, 111411, Note_off_c, 0, 54, 64
2, 111414, Note_off_c, 0, 52, 64
2, 111417, Note_off_c, 0, 60, 64
2, 111508, Note_on_c, 0, 60, 25
2, 111512, Note_on_c, 0, 54, 21
2, 111514, Note_on_c, 0, 52, 21
2, 111567, Note_on_c, 0, 71, 70
2, 111588, Note_off_c, 0, 69, 64
2, 111617, Note_off_c, 0, 54, 64
2, 111620, Note_off_c, 0, 52, 64
2, 111641, Note_off_c, 0, 60, 64
2, 111728, Note_on_c, 0, 54, 23
2, 111728, Note_on_c, 0, 52, 21
2, 111733, Note_on_c, 0, 60, 33
2, 111792, Note_off_c, 0, 52, 64
2, 111809, Note_off_c, 0, 60, 64
2, 111817, Note_off_c, 0, 54, 64
2, 111944, Note_on_c, 0, 54, 21
2, 111944, Note_on_c, 0, 52, 27
2, 111947, Note_on_c, 0, 69, 66
2, 111948, Note_on_c, 0, 60, 21
2, 111975, Note_off_c, 0, 71, 64
2, 112036, Note_off_c, 0, 54, 64
2, 112039, Note_off_c, 0, 60, 64
2, 112044, Note_off_c, 0, 52, 64
2, 112140, Note_on_c, 0, 54, 18
2, 112140, Note_on_c, 0, 52, 27
2, 112142, Note_on_c, 0, 60, 20
2, 112202, Note_off_c, 0, 54, 64
2, 112218, Note_off_c, 0, 52, 64
2, 112219, Note_off_c, 0, 60, 64
2, 112320, Note_on_c, 0, 60, 21
2, 112320, Note_on_c, 0, 54, 22
2, 112320, Note_on_c, 0, 52, 18
2, 112379, Note_off_c, 0, 54, 64
2, 112392, Note_off_c, 0, 60, 64
2, 112393, Note_off_c, 0, 52, 64
2, 112482, Note_on_c, 0, 60, 21
2, 112484, Note_on_c, 0, 52, 26
2, 112486, Note_on_c, 0, 54, 26
2, 112536, Note_off_c, 0, 52, 64
2, 112544, Note_off_c, 0, 54, 64
2, 112569, Note_off_c, 0, 60, 64
2, 112700, Note_on_c, 0, 51, 29
2, 112704, Note_on_c, 0, 60, 20
2, 112704, Note_on_c, 0, 54, 2
2, 112710, Control_c, 0, 64, 0
2, 112772, Control_c, 0, 64, 127
2, 112786, Note_off_c, 0, 54, 64
2, 112816, Note_off_c, 0, 60, 64
2, 112842, Note_off_c, 0, 51, 64
2, 112892, Note_on_c, 0, 51, 21
2, 112895, Note_on_c, 0, 60, 21
2, 112899, Note_on_c, 0, 54, 21
2, 112976, Note_off_c, 0, 54, 64
2, 112985, Note_off_c, 0, 51, 64
2, 112995, Note_off_c, 0, 60, 64
2, 113080, Note_on_c, 0, 60, 18
2, 113083, Note_on_c, 0, 71, 60
2, 113084, Note_on_c, 0, 54, 21
2, 113087, Note_on_c, 0, 51, 26
2, 113156, Note_off_c, 0, 54, 64
2, 113164, Note_off_c, 0, 60, 64
2, 113174, Note_off_c, 0, 51, 64
2, 113193, Note_off_c, 0, 69, 64
2, 113276, Note_on_c, 0, 51, 18
2, 113284, Note_on_c, 0, 60, 17
2, 113284, Note_on_c, 0, 54, 20
2, 113379, Note_off_c, 0, 54, 64
2, 113401, Note_off_c, 0, 51, 64
2, 113406, Note_off_c, 0, 60, 64
2, 113564, Note_on_c, 0, 60, 22
2, 113571, Note_on_c, 0, 54, 21
2, 113571, Note_on_c, 0, 50, 27
2, 113604, Note_on_c, 0, 69, 63
2, 113613, Control_c, 0, 64, 0
2, 113642, Note_off_c, 0, 71, 64
2, 113670, Control_c, 0, 64, 127
2, 113791, Note_off_c, 0, 54, 64
2, 113793, Note_off_c, 0, 50, 64
2, 113793, Note_off_c, 0, 60, 64
2, 113857, Note_on_c, 0, 60, 27
2, 113860, Note_on_c, 0, 54, 27
2, 113860, Note_on_c, 0, 50, 27
2, 113933, Note_off_c, 0, 50, 64
2, 113938, Note_off_c, 0, 54, 64
2, 113943, Note_off_c, 0, 60, 64
2, 114032, Note_on_c, 0, 54, 21
2, 114034, Note_on_c, 0, 60, 20
2, 114034, Note_on_c, 0, 50, 22
2, 114110, Note_off_c, 0, 50, 64
2, 114112, Note_off_c, 0, 60, 64
2, 114112, Note_off_c, 0, 54, 64
2, 114176, Note_on_c, 0, 50, 21
2, 114178, Note_on_c, 0, 60, 24
2, 114178, Note_on_c, 0, 54, 27
2, 114259, Note_off_c, 0, 50, 64
2, 114264, Note_off_c, 0, 54, 64
2, 114271, Note_off_c, 0, 60, 64
2, 114348, Note_on_c, 0, 50, 27
2, 114351, Note_on_c, 0, 60, 26
2, 114351, Note_on_c, 0, 54, 26
2, 114438, Note_off_c, 0, 50, 64
2, 114440, Note_off_c, 0, 54, 64
2, 114444, Note_off_c, 0, 60, 64
2, 114521, Note_on_c, 0, 60, 22
2, 114524, Note_on_c, 0, 54, 23
2, 114531, Note_on_c, 0, 50, 21
2, 114633, Note_off_c, 0, 50, 64
2, 114637, Note_off_c, 0, 54, 64
2, 114639, Note_off_c, 0, 60, 64
2, 114723, Note_on_c, 0, 71, 66
2, 114732, Note_on_c, 0, 60, 27
2, 114737, Note_on_c, 0, 54, 23
2, 114737, Note_on_c, 0, 50, 29
2, 114745, Note_off_c, 0, 69, 64
2, 114822, Note_off_c, 0, 60, 64
2, 114826, Note_off_c, 0, 54, 64
2, 114827, Note_off_c, 0, 50, 64
2, 114934, Note_on_c, 0, 54, 27
2, 114935, Note_on_c, 0, 60, 27
2, 114939, Note_on_c, 0, 50, 29
2, 115015, Note_off_c, 0, 54, 64
2, 115024, Note_off_c, 0, 50, 64
2, 115027, Note_on_c, 0, 69, 71
2, 115040, Note_off_c, 0, 60, 64
2, 115046, Note_off_c, 0, 71, 64
2, 115173, Note_off_c, 0, 69, 64
2, 115236, Note_on_c, 0, 50, 27
2, 115240, Note_on_c, 0, 53, 23
2, 115242, Note_on_c, 0, 60, 25
2, 115264, Control_c, 0, 64, 0
2, 115288, Note_on_c, 0, 69, 69
2, 115344, Control_c, 0, 64, 127
2, 115439, Note_off_c, 0, 50, 64
2, 115446, Note_off_c, 0, 53, 64
2, 115455, Note_off_c, 0, 60, 64
2, 115516, Note_on_c, 0, 60, 28
2, 115516, Note_on_c, 0, 53, 28
2, 115522, Note_on_c, 0, 50, 29
2, 115585, Note_off_c, 0, 50, 64
2, 115596, Note_off_c, 0, 60, 64
2, 115599, Note_off_c, 0, 53, 64
2, 115672, Note_on_c, 0, 53, 21
2, 115676, Note_on_c, 0, 60, 23
2, 115679, Note_on_c, 0, 50, 26
2, 115749, Note_off_c, 0, 50, 64
2, 115752, Note_off_c, 0, 53, 64
2, 115754, Note_off_c, 0, 60, 64
2, 115829, Note_on_c, 0, 60, 23
2, 115833, Note_on_c, 0, 53, 21
2, 115836, Note_on_c, 0, 50, 23
2, 115897, Note_off_c, 0, 50, 64
2, 115911, Note_off_c, 0, 53, 64
2, 115915, Note_off_c, 0, 60, 64
2, 115996, Note_on_c, 0, 59, 32
2, 115996, Note_on_c, 0, 50, 33
2, 115999, Note_on_c, 0, 53, 27
2, 116044, Control_c, 0, 64, 0
2, 116102, Note_off_c, 0, 50, 64
2, 116120, Note_off_c, 0, 53, 64
2, 116122, Control_c, 0, 64, 127
2, 116128, Note_off_c, 0, 59, 64
2, 116176, Note_on_c, 0, 53, 24
2, 116176, Note_on_c, 0, 50, 23
2, 116179, Note_on_c, 0, 59, 28
2, 116253, Note_off_c, 0, 50, 64
2, 116264, Note_off_c, 0, 53, 64
2, 116273, Note_off_c, 0, 59, 64
2, 116374, Note_on_c, 0, 59, 21
2, 116375, Note_on_c, 0, 53, 21
2, 116376, Note_on_c, 0, 50, 25
2, 116425, Note_on_c, 0, 68, 73
2, 116460, Note_off_c, 0, 50, 64
2, 116462, Note_off_c, 0, 69, 64
2, 116470, Note_off_c, 0, 53, 64
2, 116485, Note_off_c, 0, 59, 64
2, 116608, Note_on_c, 0, 59, 21
2, 116612, Note_on_c, 0, 50, 27
2, 116613, Note_on_c, 0, 53, 22
2, 116687, Note_off_c, 0, 53, 64
2, 116691, Note_off_c, 0, 50, 64
2, 116721, Note_off_c, 0, 59, 64
2, 116810, Control_c, 0, 64, 0
2, 116825, Note_on_c, 0, 59, 27
2, 116832, Note_on_c, 0, 48, 21
2, 116835, Note_on_c, 0, 52, 33
2, 116878, Control_c, 0, 64, 127
2, 116954, Note_off_c, 0, 48, 64
2, 116956, Note_off_c, 0, 52, 64
2, 116969, Note_off_c, 0, 59, 64
2, 117044, Note_on_c, 0, 59, 26
2, 117051, Note_on_c, 0, 52, 23
2, 117052, Note_on_c, 0, 48, 18
2, 117131, Note_off_c, 0, 52, 64
2, 117132, Note_off_c, 0, 48, 64
2, 117134, Note_off_c, 0, 59, 64
2, 117304, Note_on_c, 0, 48, 21
2, 117308, Note_on_c, 0, 52, 28
2, 117310, Note_on_c, 0, 57, 23
2, 117313, Note_on_c, 0, 69, 60
2, 117353, Note_off_c, 0, 68, 64
2, 117383, Note_off_c, 0, 52, 64
2, 117399, Note_off_c, 0, 48, 64
2, 117423, Note_off_c, 0, 57, 64
2, 117496, Note_on_c, 0, 52, 27
2, 117496, Note_on_c, 0, 48, 29
2, 117498, Note_on_c, 0, 57, 33
2, 117504, Note_on_c, 0, 71, 69
2, 117527, Note_off_c, 0, 69, 64
2, 117570, Note_off_c, 0, 52, 64
2, 117577, Note_off_c, 0, 48, 64
2, 117596, Note_off_c, 0, 57, 64
2, 117680, Note_on_c, 0, 74, 69
2, 117684, Note_on_c, 0, 57, 33
2, 117688, Note_on_c, 0, 48, 27
2, 117689, Note_on_c, 0, 52, 34
2, 117703, Note_off_c, 0, 71, 64
2, 117784, Note_off_c, 0, 52, 64
2, 117795, Note_off_c, 0, 57, 64
2, 117796, Note_off_c, 0, 48, 64
2, 117891, Note_on_c, 0, 72, 69
2, 117897, Note_on_c, 0, 57, 21
2, 117900, Note_on_c, 0, 52, 26
2, 117900, Note_on_c, 0, 48, 25
2, 117910, Note_off_c, 0, 74, 64
2, 117980, Note_off_c, 0, 48, 64
2, 117985, Note_off_c, 0, 52, 64
2, 117992, Note_off_c, 0, 57, 64
2, 118120, Note_on_c, 0, 52, 24
2, 118122, Note_on_c, 0, 64, 60
2, 118122, Note_on_c, 0, 57, 23
2, 118122, Note_on_c, 0, 48, 26
2, 118150, Note_off_c, 0, 72, 64
2, 118219, Note_off_c, 0, 48, 64
2, 118229, Note_off_c, 0, 52, 64
2, 118231, Note_off_c, 0, 57, 64
2, 118369, Note_on_c, 0, 57, 28
2, 118369, Note_on_c, 0, 48, 29
2, 118372, Note_on_c, 0, 52, 29
2, 118412, Note_on_c, 0, 69, 64
2, 118443, Note_off_c, 0, 64, 64
2, 118539, Note_off_c, 0, 52, 64
2, 118542, Note_off_c, 0, 57, 64
2, 118556, Note_off_c, 0, 48, 64
2, 118701, Note_on_c, 0, 57, 26
2, 118704, Note_on_c, 0, 52, 29
2, 118704, Note_on_c, 0, 47, 2
2, 118757, Control_c, 0, 64, 0
2, 118767, Note_on_c, 0, 66, 69
2, 118799, Note_off_c, 0, 69, 64
2, 118838, Control_c, 0, 64, 127
2, 118869, Note_off_c, 0, 47, 64
2, 118889, Note_off_c, 0, 52, 64
2, 118900, Note_off_c, 0, 57, 64
2, 118979, Note_on_c, 0, 47, 21
2, 118982, Note_on_c, 0, 57, 27
2, 118982, Note_on_c, 0, 52, 23
2, 119082, Note_off_c, 0, 52, 64
2, 119086, Note_off_c, 0, 47, 64
2, 119088, Note_off_c, 0, 57, 64
2, 119162, Note_on_c, 0, 51, 34
2, 119164, Note_on_c, 0, 57, 31
2, 119164, Note_on_c, 0, 47, 20
2, 119231, Note_off_c, 0, 47, 64
2, 119246, Note_off_c, 0, 51, 64
2, 119264, Note_off_c, 0, 57, 64
2, 119328, Note_on_c, 0, 51, 36
2, 119331, Note_on_c, 0, 57, 24
2, 119332, Note_on_c, 0, 47, 27
2, 119420, Note_off_c, 0, 51, 64
2, 119427, Note_off_c, 0, 47, 64
2, 119428, Note_off_c, 0, 57, 64
2, 119450, Control_c, 0, 64, 0
2, 119476, Note_on_c, 0, 52, 33
2, 119476, Note_on_c, 0, 48, 37
2, 119479, Note_on_c, 0, 57, 33
2, 119525, Control_c, 0, 64, 127
2, 119571, Note_off_c, 0, 48, 64
2, 119576, Note_off_c, 0, 52, 64
2, 119589, Note_off_c, 0, 57, 64
2, 119647, Note_on_c, 0, 57, 30
2, 119650, Note_on_c, 0, 52, 34
2, 119652, Note_on_c, 0, 48, 30
2, 119726, Note_off_c, 0, 48, 64
2, 119729, Note_off_c, 0, 52, 64
2, 119739, Note_off_c, 0, 57, 64
2, 119832, Note_on_c, 0, 52, 21
2, 119832, Note_on_c, 0, 48, 21
2, 119835, Note_on_c, 0, 57, 21
2, 119853, Note_on_c, 0, 69, 69
2, 119866, Note_off_c, 0, 66, 64
2, 119921, Note_off_c, 0, 48, 64
2, 119921, Note_off_c, 0, 52, 64
2, 119943, Note_off_c, 0, 57, 64
2, 120036, Note_on_c, 0, 48, 26
2, 120038, Note_on_c, 0, 57, 22
2, 120040, Note_on_c, 0, 52, 23
2, 120125, Note_off_c, 0, 52, 64
2, 120128, Note_off_c, 0, 48, 64
2, 120167, Note_off_c, 0, 57, 64
2, 120284, Note_on_c, 0, 47, 18
2, 120288, Note_on_c, 0, 51, 27
2, 120291, Note_on_c, 0, 57, 21
2, 120328, Note_on_c, 0, 66, 61
2, 120343, Control_c, 0, 64, 0
2, 120373, Note_off_c, 0, 69, 64
2, 120411, Control_c, 0, 64, 127
2, 120454, Note_off_c, 0, 47, 64
2, 120456, Note_off_c, 0, 51, 64
2, 120475, Note_off_c, 0, 57, 64
2, 120532, Note_on_c, 0, 57, 36
2, 120532, Note_on_c, 0, 47, 28
2, 120535, Note_on_c, 0, 51, 36
2, 120603, Note_off_c, 0, 47, 64
2, 120610, Note_off_c, 0, 51, 64
2, 120617, Note_off_c, 0, 57, 64
2, 120699, Note_on_c, 0, 57, 30
2, 120699, Note_on_c, 0, 47, 24
2, 120700, Note_on_c, 0, 51, 34
2, 120781, Note_off_c, 0, 57, 64
2, 120785, Note_off_c, 0, 47, 64
2, 120787, Note_off_c, 0, 51, 64
2, 120864, Note_on_c, 0, 51, 39
2, 120865, Note_on_c, 0, 57, 30
2, 120871, Note_on_c, 0, 47, 27
2, 120971, Note_off_c, 0, 57, 64
2, 120980, Note_off_c, 0, 51, 64
2, 120984, Note_off_c, 0, 47, 64
2, 121072, Control_c, 0, 64, 0
2, 121080, Note_on_c, 0, 57, 34
2, 121080, Note_on_c, 0, 52, 36
2, 121084, Note_on_c, 0, 48, 35
2, 121136, Control_c, 0, 64, 127
2, 121209, Note_off_c, 0, 57, 64
2, 121217, Note_off_c, 0, 48, 64
2, 121226, Note_off_c, 0, 52, 64
2, 121320, Note_on_c, 0, 57, 21
2, 121324, Note_on_c, 0, 52, 17
2, 121327, Note_on_c, 0, 48, 23
2, 121469, Note_off_c, 0, 48, 64
2, 121486, Note_off_c, 0, 57, 64
2, 121487, Note_off_c, 0, 52, 64
2, 121574, Note_on_c, 0, 48, 21
2, 121577, Note_on_c, 0, 57, 22
2, 121577, Note_on_c, 0, 52, 21
2, 121665, Note_on_c, 0, 71, 54
2, 121703, Note_off_c, 0, 66, 64
2, 121729, Note_off_c, 0, 48, 64
2, 121733, Note_off_c, 0, 52, 64
2, 121750, Note_off_c, 0, 57, 64
2, 121771, Note_on_c, 0, 69, 54
2, 121785, Note_off_c, 0, 71, 64
2, 121919, Note_on_c, 0, 52, 27
2, 121919, Note_on_c, 0, 48, 26
2, 121924, Note_on_c, 0, 57, 23
2, 122074, Note_off_c, 0, 48, 64
2, 122082, Note_off_c, 0, 52, 64
2, 122089, Note_off_c, 0, 57, 64
2, 122424, Note_on_c, 0, 57, 23
2, 122425, Note_on_c, 0, 47, 21
2, 122428, Note_on_c, 0, 51, 27
2, 122431, Note_on_c, 0, 67, 53
2, 122440, Note_off_c, 0, 69, 64
2, 122446, Control_c, 0, 64, 0
2, 122582, Control_c, 0, 64, 127
2, 122886, Note_on_c, 0, 66, 45
2, 122914, Note_off_c, 0, 67, 64
2, 122957, Note_off_c, 0, 51, 64
2, 122957, Note_off_c, 0, 57, 64
2, 122960, Note_off_c, 0, 47, 64
2, 123241, Note_on_c, 0, 60, 28
2, 123269, Note_off_c, 0, 66, 64
2, 123484, Note_on_c, 0, 59, 36
2, 123502, Note_off_c, 0, 60, 64
2, 123573, Control_c, 0, 64, 0
2, 123744, Note_on_c, 0, 63, 34
2, 123788, Note_off_c, 0, 59, 64
2, 124032, Note_on_c, 0, 66, 39
2, 124050, Note_off_c, 0, 63, 64
2, 124436, Note_on_c, 0, 74, 32
2, 124464, Note_off_c, 0, 66, 64
2, 124473, Control_c, 0, 64, 127
2, 124754, Note_on_c, 0, 72, 40
2, 124773, Note_off_c, 0, 74, 64
2, 125002, Note_on_c, 0, 71, 38
2, 125038, Note_off_c, 0, 72, 64
2, 125179, Note_off_c, 0, 71, 64
2, 125303, Note_on_c, 0, 71, 46
2, 125304, Note_on_c, 0, 59, 22
2, 125308, Note_on_c, 0, 64, 21
2, 125308, Note_on_c, 0, 55, 25
2, 125328, Control_c, 0, 64, 0
2, 125412, Control_c, 0, 64, 127
2, 125463, Note_off_c, 0, 59, 64
2, 125475, Note_off_c, 0, 64, 64
2, 125478, Note_off_c, 0, 55, 64
2, 125600, Note_on_c, 0, 55, 21
2, 125604, Note_on_c, 0, 59, 25
2, 125606, Note_on_c, 0, 64, 20
2, 125672, Note_off_c, 0, 59, 64
2, 125682, Note_off_c, 0, 55, 64
2, 125689, Note_off_c, 0, 64, 64
2, 125796, Note_on_c, 0, 64, 20
2, 125796, Note_on_c, 0, 59, 23
2, 125797, Note_on_c, 0, 55, 21
2, 125850, Note_off_c, 0, 59, 64
2, 125873, Note_off_c, 0, 64, 64
2, 125878, Note_off_c, 0, 55, 64
2, 125992, Note_on_c, 0, 59, 20
2, 125993, Note_on_c, 0, 64, 19
2, 125993, Note_on_c, 0, 55, 20
2, 126048, Note_off_c, 0, 59, 64
2, 126072, Note_off_c, 0, 55, 64
2, 126083, Note_off_c, 0, 64, 64
2, 126167, Note_on_c, 0, 64, 21
2, 126168, Note_on_c, 0, 59, 21
2, 126168, Note_on_c, 0, 55, 21
2, 126226, Note_off_c, 0, 59, 64
2, 126234, Note_off_c, 0, 55, 64
2, 126252, Note_off_c, 0, 64, 64
2, 126340, Note_on_c, 0, 55, 19
2, 126344, Note_on_c, 0, 64, 19
2, 126344, Note_on_c, 0, 59, 21
2, 126415, Note_off_c, 0, 59, 64
2, 126421, Note_off_c, 0, 55, 64
2, 126449, Note_off_c, 0, 64, 64
2, 126540, Note_on_c, 0, 64, 21
2, 126540, Note_on_c, 0, 59, 27
2, 126540, Note_on_c, 0, 55, 21
2, 126581, Note_on_c, 0, 72, 67
2, 126599, Note_off_c, 0, 71, 64
2, 126611, Note_off_c, 0, 59, 64
2, 126622, Note_off_c, 0, 55, 64
2, 126650, Note_off_c, 0, 64, 64
2, 126768, Note_on_c, 0, 64, 22
2, 126768, Note_on_c, 0, 55, 22
2, 126774, Note_on_c, 0, 59, 24
2, 126835, Note_off_c, 0, 55, 64
2, 126848, Note_off_c, 0, 59, 64
2, 126886, Note_off_c, 0, 64, 64
2, 127036, Note_on_c, 0, 57, 32
2, 127036, Note_on_c, 0, 54, 21
2, 127043, Note_on_c, 0, 64, 27
2, 127082, Note_on_c, 0, 71, 69
2, 127096, Control_c, 0, 64, 0
2, 127120, Note_off_c, 0, 72, 64
2, 127184, Control_c, 0, 64, 127
2, 127225, Note_off_c, 0, 57, 64
2, 127227, Note_off_c, 0, 54, 64
2, 127247, Note_off_c, 0, 64, 64
2, 127294, Note_on_c, 0, 64, 33
2, 127296, Note_on_c, 0, 57, 30
2, 127296, Note_on_c, 0, 54, 18
2, 127359, Note_off_c, 0, 57, 64
2, 127368, Note_off_c, 0, 54, 64
2, 127399, Note_off_c, 0, 64, 64
2, 127476, Note_on_c, 0, 54, 19
2, 127477, Note_on_c, 0, 64, 28
2, 127477, Note_on_c, 0, 57, 27
2, 127539, Note_off_c, 0, 57, 64
2, 127549, Note_off_c, 0, 54, 64
2, 127552, Note_off_c, 0, 64, 64
2, 127632, Note_on_c, 0, 57, 39
2, 127633, Note_on_c, 0, 64, 38
2, 127636, Note_on_c, 0, 54, 23
2, 127733, Note_off_c, 0, 54, 64
2, 127742, Note_off_c, 0, 64, 64
2, 127755, Note_off_c, 0, 57, 64
2, 127872, Note_on_c, 0, 53, 34
2, 127875, Note_on_c, 0, 63, 33
2, 127876, Note_on_c, 0, 57, 42
2, 127925, Control_c, 0, 64, 0
2, 127992, Control_c, 0, 64, 127
2, 128041, Note_off_c, 0, 57, 64
2, 128070, Note_off_c, 0, 53, 64
2, 128089, Note_off_c, 0, 63, 64
2, 128134, Note_on_c, 0, 63, 28
2, 128136, Note_on_c, 0, 57, 32
2, 128136, Note_on_c, 0, 53, 29
2, 128193, Note_off_c, 0, 57, 64
2, 128219, Note_off_c, 0, 53, 64
2, 128240, Note_off_c, 0, 63, 64
2, 128316, Note_on_c, 0, 72, 64
2, 128316, Note_on_c, 0, 57, 24
2, 128316, Note_on_c, 0, 53, 30
2, 128323, Note_on_c, 0, 63, 28
2, 128375, Note_off_c, 0, 71, 64
2, 128389, Note_off_c, 0, 53, 64
2, 128389, Note_off_c, 0, 57, 64
2, 128399, Note_off_c, 0, 63, 64
2, 128492, Note_on_c, 0, 63, 28
2, 128492, Note_on_c, 0, 57, 28
2, 128496, Note_on_c, 0, 53, 21
2, 128553, Note_off_c, 0, 57, 64
2, 128563, Note_off_c, 0, 53, 64
2, 128586, Note_off_c, 0, 63, 64
2, 128686, Note_on_c, 0, 71, 69
2, 128700, Note_on_c, 0, 63, 17
2, 128700, Note_on_c, 0, 56, 21
2, 128700, Note_on_c, 0, 53, 15
2, 128723, Note_off_c, 0, 72, 64
2, 128755, Note_off_c, 0, 53, 64
2, 128755, Note_off_c, 0, 56, 64
2, 128788, Note_off_c, 0, 63, 64
2, 128861, Note_on_c, 0, 63, 18
2, 128864, Note_on_c, 0, 56, 24
2, 128864, Note_on_c, 0, 53, 21
2, 128933, Note_off_c, 0, 56, 64
2, 128954, Note_off_c, 0, 53, 64
2, 128967, Note_off_c, 0, 63, 64
2, 129044, Note_on_c, 0, 62, 24
2, 129048, Note_on_c, 0, 53, 30
2, 129050, Note_on_c, 0, 56, 29
2, 129162, Note_off_c, 0, 56, 64
2, 129186, Note_off_c, 0, 53, 64
2, 129193, Note_off_c, 0, 62, 64
2, 129248, Note_on_c, 0, 56, 26
2, 129248, Note_on_c, 0, 53, 42
2, 129254, Note_on_c, 0, 62, 18
2, 129321, Note_off_c, 0, 53, 64
2, 129321, Note_off_c, 0, 56, 64
2, 129393, Note_off_c, 0, 62, 64
2, 129472, Note_on_c, 0, 62, 28
2, 129476, Note_on_c, 0, 52, 28
2, 129483, Note_on_c, 0, 56, 42
2, 129625, Note_off_c, 0, 52, 64
2, 129625, Note_off_c, 0, 56, 64
2, 129640, Note_off_c, 0, 62, 64
2, 129708, Note_on_c, 0, 62, 27
2, 129708, Note_on_c, 0, 52, 25
2, 129712, Note_on_c, 0, 56, 28
2, 129800, Note_off_c, 0, 56, 64
2, 129812, Note_off_c, 0, 52, 64
2, 129837, Note_off_c, 0, 62, 64
2, 129904, Note_on_c, 0, 52, 31
2, 129905, Note_on_c, 0, 62, 27
2, 129905, Note_on_c, 0, 56, 40
2, 129919, Note_on_c, 0, 72, 69
2, 129944, Note_off_c, 0, 71, 64
2, 130001, Note_off_c, 0, 56, 64
2, 130010, Note_off_c, 0, 52, 64
2, 130027, Note_off_c, 0, 62, 64
2, 130080, Note_on_c, 0, 52, 27
2, 130084, Note_on_c, 0, 62, 30
2, 130085, Note_on_c, 0, 56, 36
2, 130167, Note_off_c, 0, 62, 64
2, 130170, Note_off_c, 0, 52, 64
2, 130179, Note_off_c, 0, 56, 64
2, 130240, Control_c, 0, 64, 0
2, 130253, Note_on_c, 0, 52, 43
2, 130254, Note_on_c, 0, 71, 69
2, 130254, Note_on_c, 0, 62, 42
2, 130254, Note_on_c, 0, 55, 43
2, 130284, Note_off_c, 0, 72, 64
2, 130311, Control_c, 0, 64, 127
2, 130363, Note_off_c, 0, 62, 64
2, 130365, Note_off_c, 0, 55, 64
2, 130381, Note_off_c, 0, 52, 64
2, 130424, Note_on_c, 0, 55, 36
2, 130428, Note_on_c, 0, 62, 34
2, 130428, Note_on_c, 0, 52, 23
2, 130519, Note_off_c, 0, 62, 64
2, 130527, Note_off_c, 0, 55, 64
2, 130545, Note_off_c, 0, 52, 64
2, 130550, Note_on_c, 0, 70, 77
2, 130561, Note_off_c, 0, 71, 64
2, 130662, Note_off_c, 0, 70, 64
2, 130672, Note_on_c, 0, 61, 21
2, 130672, Note_on_c, 0, 52, 22
2, 130676, Note_on_c, 0, 55, 26
2, 130720, Note_on_c, 0, 70, 69
2, 130787, Note_off_c, 0, 55, 64
2, 130795, Note_off_c, 0, 61, 64
2, 130799, Note_off_c, 0, 52, 64
2, 130880, Note_on_c, 0, 61, 37
2, 130880, Note_on_c, 0, 55, 33
2, 130884, Note_on_c, 0, 52, 35
2, 130939, Note_off_c, 0, 70, 64
2, 130945, Note_off_c, 0, 55, 64
2, 130952, Note_off_c, 0, 61, 64
2, 130961, Note_off_c, 0, 52, 64
2, 130965, Note_on_c, 0, 71, 70
2, 131017, Note_on_c, 0, 70, 81
2, 131038, Note_off_c, 0, 71, 64
2, 131075, Note_on_c, 0, 69, 77
2, 131077, Note_off_c, 0, 70, 64
2, 131138, Note_on_c, 0, 70, 67
2, 131166, Note_off_c, 0, 69, 64
2, 131172, Note_on_c, 0, 52, 23
2, 131176, Note_on_c, 0, 49, 35
2, 131182, Note_on_c, 0, 58, 36
2, 131216, Control_c, 0, 64, 0
2, 131253, Note_on_c, 0, 79, 69
2, 131259, Note_off_c, 0, 70, 64
2, 131288, Control_c, 0, 64, 127
2, 131297, Note_off_c, 0, 52, 64
2, 131340, Note_off_c, 0, 49, 64
2, 131342, Note_off_c, 0, 58, 64
2, 131428, Note_on_c, 0, 52, 32
2, 131431, Note_on_c, 0, 49, 41
2, 131432, Note_on_c, 0, 58, 35
2, 131525, Note_off_c, 0, 52, 64
2, 131548, Note_off_c, 0, 49, 64
2, 131553, Note_off_c, 0, 58, 64
2, 131640, Note_on_c, 0, 57, 41
2, 131640, Note_on_c, 0, 52, 42
2, 131640, Control_c, 0, 64, 0
2, 131645, Note_on_c, 0, 48, 42
2, 131651, Note_on_c, 0, 78, 72
2, 131665, Note_off_c, 0, 79, 64
2, 131719, Control_c, 0, 64, 127
2, 131762, Note_off_c, 0, 57, 64
2, 131768, Note_off_c, 0, 52, 64
2, 131781, Note_off_c, 0, 48, 64
2, 131872, Note_on_c, 0, 52, 45
2, 131873, Note_on_c, 0, 57, 42
2, 131879, Note_on_c, 0, 48, 42
2, 131918, Note_off_c, 0, 52, 64
2, 131921, Note_off_c, 0, 57, 64
2, 131937, Note_off_c, 0, 48, 64
2, 131978, Note_on_c, 0, 76, 66
2, 131998, Note_off_c, 0, 78, 64
2, 132052, Note_off_c, 0, 76, 64
2, 132152, Note_on_c, 0, 47, 55
2, 132152, Note_on_c, 0, 35, 56
2, 132160, Note_on_c, 0, 76, 75
2, 132536, Note_on_c, 0, 69, 32
2, 132536, Note_on_c, 0, 66, 42
2, 132536, Note_on_c, 0, 60, 45
2, 132536, Note_on_c, 0, 57, 48
2, 132544, Note_on_c, 0, 75, 73
2, 132598, Note_off_c, 0, 76, 64
2, 132619, Control_c, 0, 64, 0
2, 132648, Control_c, 0, 64, 127
2, 132666, Note_off_c, 0, 60, 64
2, 132668, Note_off_c, 0, 57, 64
2, 132690, Note_off_c, 0, 66, 64
2, 132700, Note_off_c, 0, 69, 64
2, 132722, Note_off_c, 0, 35, 64
2, 132733, Note_off_c, 0, 47, 64
2, 132808, Note_on_c, 0, 60, 48
2, 132816, Note_on_c, 0, 84, 72
2, 132824, Note_on_c, 0, 69, 39
2, 132824, Note_on_c, 0, 66, 46
2, 132824, Note_on_c, 0, 57, 48
2, 132884, Note_off_c, 0, 60, 64
2, 132892, Note_off_c, 0, 66, 64
2, 132895, Note_off_c, 0, 75, 64
2, 132900, Note_off_c, 0, 57, 64
2, 132900, Note_off_c, 0, 69, 64
2, 133055, Note_off_c, 0, 84, 64
2, 133080, Note_on_c, 0, 66, 41
2, 133082, Note_on_c, 0, 69, 33
2, 133082, Note_on_c, 0, 57, 32
2, 133084, Note_on_c, 0, 60, 39
2, 133089, Note_on_c, 0, 75, 72
2, 133141, Note_off_c, 0, 60, 64
2, 133143, Note_off_c, 0, 69, 64
2, 133144, Note_off_c, 0, 66, 64
2, 133148, Note_off_c, 0, 57, 64
2, 133272, Note_off_c, 0, 75, 64
2, 133308, Note_on_c, 0, 66, 49
2, 133308, Note_on_c, 0, 59, 48
2, 133308, Note_on_c, 0, 55, 41
2, 133312, Note_on_c, 0, 75, 71
2, 133398, Note_off_c, 0, 59, 64
2, 133413, Note_off_c, 0, 66, 64
2, 133428, Note_off_c, 0, 55, 64
2, 133500, Note_on_c, 0, 59, 46
2, 133505, Note_on_c, 0, 55, 40
2, 133506, Note_on_c, 0, 64, 48
2, 133512, Note_on_c, 0, 76, 70
2, 133556, Note_off_c, 0, 75, 64
2, 133566, Note_off_c, 0, 59, 64
2, 133574, Note_off_c, 0, 55, 64
2, 133596, Note_off_c, 0, 64, 64
2, 133685, Note_on_c, 0, 64, 30
2, 133688, Note_on_c, 0, 59, 32
2, 133688, Note_on_c, 0, 55, 30
2, 133696, Note_on_c, 0, 79, 70
2, 133716, Note_off_c, 0, 76, 64
2, 133765, Note_off_c, 0, 59, 64
2, 133768, Note_off_c, 0, 55, 64
2, 133790, Note_off_c, 0, 64, 64
2, 133868, Note_on_c, 0, 64, 57
2, 133868, Note_on_c, 0, 55, 40
2, 133871, Note_on_c, 0, 59, 48
2, 133877, Note_on_c, 0, 71, 66
2, 133898, Note_off_c, 0, 79, 64
2, 133940, Note_off_c, 0, 55, 64
2, 133975, Note_off_c, 0, 59, 64
2, 133995, Note_off_c, 0, 64, 64
2, 134060, Note_on_c, 0, 60, 52
2, 134064, Note_on_c, 0, 57, 37
2, 134066, Note_on_c, 0, 64, 40
2, 134072, Note_on_c, 0, 74, 70
2, 134087, Note_off_c, 0, 71, 64
2, 134173, Note_off_c, 0, 60, 64
2, 134174, Note_off_c, 0, 57, 64
2, 134188, Note_off_c, 0, 64, 64
2, 134284, Note_on_c, 0, 57, 40
2, 134288, Note_on_c, 0, 64, 36
2, 134288, Note_on_c, 0, 60, 51
2, 134350, Note_on_c, 0, 72, 72
2, 134358, Note_off_c, 0, 64, 64
2, 134358, Note_off_c, 0, 57, 64
2, 134360, Note_off_c, 0, 60, 64
2, 134374, Note_off_c, 0, 74, 64
2, 134593, Note_on_c, 0, 45, 51
2, 134600, Note_on_c, 0, 76, 66
2, 134608, Control_c, 0, 64, 0
2, 134624, Note_off_c, 0, 72, 64
2, 134677, Control_c, 0, 64, 127
2, 134811, Note_on_c, 0, 64, 63
2, 134881, Note_off_c, 0, 76, 64
2, 134928, Note_on_c, 0, 60, 40
2, 134928, Note_on_c, 0, 52, 48
2, 134932, Note_on_c, 0, 54, 38
2, 134996, Note_on_c, 0, 69, 69
2, 135025, Note_off_c, 0, 64, 64
2, 135047, Note_off_c, 0, 45, 64
2, 135122, Note_off_c, 0, 52, 64
2, 135163, Note_off_c, 0, 60, 64
2, 135170, Note_off_c, 0, 54, 64
2, 135264, Note_on_c, 0, 66, 77
2, 135264, Note_on_c, 0, 59, 24
2, 135264, Note_on_c, 0, 52, 48
2, 135264, Note_on_c, 0, 47, 33
2, 135321, Control_c, 0, 64, 0
2, 135372, Note_off_c, 0, 69, 64
2, 135410, Note_off_c, 0, 47, 64
2, 135425, Note_off_c, 0, 59, 64
2, 135427, Control_c, 0, 64, 127
2, 135433, Note_off_c, 0, 52, 64
2, 135580, Note_on_c, 0, 52, 31
2, 135581, Note_on_c, 0, 59, 33
2, 135581, Note_on_c, 0, 47, 40
2, 135663, Note_off_c, 0, 59, 64
2, 135685, Note_off_c, 0, 47, 64
2, 135686, Note_off_c, 0, 52, 64
2, 135776, Note_on_c, 0, 57, 42
2, 135776, Note_on_c, 0, 52, 40
2, 135780, Note_on_c, 0, 48, 42
2, 135850, Note_off_c, 0, 52, 64
2, 135856, Note_off_c, 0, 57, 64
2, 135858, Note_off_c, 0, 48, 64
2, 135969, Note_off_c, 0, 66, 64
2, 135992, Note_on_c, 0, 57, 30
2, 135992, Note_on_c, 0, 48, 29
2, 135995, Note_on_c, 0, 52, 31
2, 136033, Note_on_c, 0, 69, 64
2, 136129, Note_off_c, 0, 48, 64
2, 136136, Note_off_c, 0, 52, 64
2, 136144, Note_off_c, 0, 57, 64
2, 136381, Note_on_c, 0, 52, 39
2, 136381, Note_on_c, 0, 47, 31
2, 136393, Note_on_c, 0, 59, 27
2, 136425, Control_c, 0, 64, 0
2, 136441, Note_on_c, 0, 66, 64
2, 136475, Note_off_c, 0, 69, 64
2, 136504, Control_c, 0, 64, 127
2, 136552, Note_off_c, 0, 47, 64
2, 136556, Note_off_c, 0, 52, 64
2, 136568, Note_off_c, 0, 59, 64
2, 136655, Note_on_c, 0, 52, 33
2, 136659, Note_on_c, 0, 59, 33
2, 136659, Note_on_c, 0, 47, 41
2, 136719, Note_off_c, 0, 52, 64
2, 136734, Note_off_c, 0, 47, 64
2, 136737, Note_off_c, 0, 59, 64
2, 136817, Note_on_c, 0, 47, 39
2, 136820, Note_on_c, 0, 59, 38
2, 136820, Note_on_c, 0, 52, 44
2, 136886, Note_off_c, 0, 52, 64
2, 136899, Note_off_c, 0, 47, 64
2, 136901, Note_off_c, 0, 59, 64
2, 136982, Note_on_c, 0, 47, 33
2, 136985, Note_on_c, 0, 59, 37
2, 136985, Note_on_c, 0, 52, 46
2, 137060, Note_off_c, 0, 59, 64
2, 137069, Note_off_c, 0, 52, 64
2, 137075, Note_off_c, 0, 47, 64
2, 137108, Control_c, 0, 64, 0
2, 137157, Note_on_c, 0, 48, 37
2, 137160, Note_on_c, 0, 57, 49
2, 137165, Note_on_c, 0, 52, 42
2, 137202, Control_c, 0, 64, 127
2, 137242, Note_off_c, 0, 57, 64
2, 137249, Note_off_c, 0, 52, 64
2, 137249, Note_off_c, 0, 48, 64
2, 137371, Note_on_c, 0, 57, 31
2, 137372, Note_on_c, 0, 52, 29
2, 137379, Note_on_c, 0, 48, 31
2, 137453, Note_off_c, 0, 48, 64
2, 137462, Note_off_c, 0, 52, 64
2, 137474, Note_off_c, 0, 57, 64
2, 137597, Note_on_c, 0, 57, 30
2, 137597, Note_on_c, 0, 48, 39
2, 137602, Note_on_c, 0, 52, 53
2, 137681, Note_on_c, 0, 71, 60
2, 137718, Note_off_c, 0, 48, 64
2, 137720, Note_off_c, 0, 52, 64
2, 137735, Note_off_c, 0, 57, 64
2, 137764, Note_off_c, 0, 66, 64
2, 137766, Note_on_c, 0, 69, 66
2, 137793, Note_off_c, 0, 71, 64
2, 137902, Note_on_c, 0, 57, 33
2, 137906, Note_on_c, 0, 52, 41
2, 137910, Note_on_c, 0, 48, 31
2, 138015, Note_off_c, 0, 48, 64
2, 138051, Note_off_c, 0, 52, 64
2, 138063, Note_off_c, 0, 57, 64
2, 138280, Note_on_c, 0, 59, 31
2, 138284, Note_on_c, 0, 52, 49
2, 138284, Note_on_c, 0, 47, 40
2, 138300, Control_c, 0, 64, 0
2, 138318, Note_on_c, 0, 66, 64
2, 138367, Note_off_c, 0, 69, 64
2, 138384, Control_c, 0, 64, 127
2, 138460, Note_off_c, 0, 47, 64
2, 138466, Note_off_c, 0, 59, 64
2, 138471, Note_off_c, 0, 52, 64
2, 138564, Note_on_c, 0, 59, 34
2, 138564, Note_on_c, 0, 47, 31
2, 138568, Note_on_c, 0, 52, 37
2, 138648, Note_off_c, 0, 47, 64
2, 138653, Note_off_c, 0, 59, 64
2, 138658, Note_off_c, 0, 52, 64
2, 138732, Note_on_c, 0, 52, 48
2, 138732, Note_on_c, 0, 47, 33
2, 138734, Note_on_c, 0, 59, 36
2, 138808, Note_off_c, 0, 52, 64
2, 138813, Note_off_c, 0, 47, 64
2, 138828, Note_off_c, 0, 59, 64
2, 138908, Note_on_c, 0, 47, 31
2, 138912, Note_on_c, 0, 59, 33
2, 138912, Note_on_c, 0, 52, 44
2, 138978, Note_off_c, 0, 47, 64
2, 138984, Note_off_c, 0, 52, 64
2, 138989, Note_off_c, 0, 59, 64
2, 139092, Note_on_c, 0, 47, 30
2, 139093, Note_on_c, 0, 51, 48
2, 139098, Note_on_c, 0, 59, 42
2, 139215, Note_off_c, 0, 47, 64
2, 139217, Note_off_c, 0, 51, 64
2, 139225, Note_off_c, 0, 59, 64
2, 139300, Note_on_c, 0, 51, 46
2, 139304, Note_on_c, 0, 59, 51
2, 139307, Note_on_c, 0, 47, 31
2, 139388, Note_off_c, 0, 47, 64
2, 139389, Note_off_c, 0, 59, 64
2, 139390, Note_off_c, 0, 51, 64
2, 139504, Note_on_c, 0, 57, 62
2, 139508, Note_on_c, 0, 47, 53
2, 139511, Note_on_c, 0, 51, 49
2, 139659, Note_off_c, 0, 47, 64
2, 139663, Note_off_c, 0, 51, 64
2, 139683, Note_off_c, 0, 57, 64
2, 139804, Note_on_c, 0, 57, 44
2, 139807, Note_on_c, 0, 47, 33
2, 139808, Note_on_c, 0, 51, 37
2, 139917, Note_off_c, 0, 47, 64
2, 139917, Note_on_c, 0, 64, 66
2, 139943, Note_off_c, 0, 66, 64
2, 139959, Note_off_c, 0, 51, 64
2, 140078, Note_off_c, 0, 64, 64
2, 140119, Note_off_c, 0, 57, 64
2, 140167, Note_on_c, 0, 55, 48
2, 140170, Note_on_c, 0, 48, 47
2, 140173, Control_c, 0, 64, 0
2, 140190, Note_on_c, 0, 64, 64
2, 140267, Control_c, 0, 64, 127
2, 140364, Note_off_c, 0, 48, 64
2, 140377, Note_off_c, 0, 55, 64
2, 140466, Note_on_c, 0, 55, 32
2, 140471, Note_on_c, 0, 48, 33
2, 140532, Note_off_c, 0, 48, 64
2, 140540, Note_off_c, 0, 55, 64
2, 140636, Note_on_c, 0, 48, 34
2, 140637, Note_on_c, 0, 55, 34
2, 140697, Note_off_c, 0, 48, 64
2, 140705, Note_off_c, 0, 55, 64
2, 140816, Note_on_c, 0, 48, 47
2, 140819, Note_on_c, 0, 55, 28
2, 140891, Note_off_c, 0, 48, 64
2, 140894, Note_off_c, 0, 55, 64
2, 140978, Note_on_c, 0, 58, 36
2, 140984, Note_on_c, 0, 48, 38
2, 141074, Note_off_c, 0, 58, 64
2, 141076, Note_off_c, 0, 48, 64
2, 141155, Note_on_c, 0, 58, 51
2, 141166, Note_on_c, 0, 48, 37
2, 141241, Note_off_c, 0, 48, 64
2, 141243, Note_off_c, 0, 58, 64
2, 141340, Note_on_c, 0, 48, 26
2, 141340, Control_c, 0, 64, 0
2, 141344, Note_on_c, 0, 57, 40
2, 141345, Note_on_c, 0, 66, 59
2, 141348, Note_on_c, 0, 52, 19
2, 141389, Note_off_c, 0, 64, 64
2, 141429, Control_c, 0, 64, 127
2, 141464, Note_off_c, 0, 48, 64
2, 141466, Note_off_c, 0, 52, 64
2, 141487, Note_off_c, 0, 57, 64
2, 141552, Note_on_c, 0, 57, 34
2, 141552, Note_on_c, 0, 52, 19
2, 141555, Note_on_c, 0, 48, 18
2, 141614, Note_off_c, 0, 52, 64
2, 141617, Note_off_c, 0, 48, 64
2, 141643, Note_off_c, 0, 57, 64
2, 141758, Note_on_c, 0, 64, 42
2, 141764, Note_on_c, 0, 52, 28
2, 141764, Note_on_c, 0, 47, 24
2, 141767, Note_on_c, 0, 57, 36
2, 141783, Control_c, 0, 64, 0
2, 141801, Note_off_c, 0, 66, 64
2, 141852, Control_c, 0, 64, 127
2, 141902, Note_off_c, 0, 47, 64
2, 141910, Note_off_c, 0, 57, 64
2, 141919, Note_off_c, 0, 52, 64
2, 141980, Note_on_c, 0, 52, 17
2, 141982, Note_on_c, 0, 57, 34
2, 141987, Note_on_c, 0, 47, 16
2, 142053, Note_off_c, 0, 47, 64
2, 142056, Note_off_c, 0, 57, 64
2, 142061, Note_off_c, 0, 52, 64
2, 142212, Note_on_c, 0, 52, 29
2, 142218, Control_c, 0, 64, 0
2, 142218, Note_on_c, 0, 56, 37
2, 142218, Note_on_c, 0, 47, 26
2, 142251, Control_c, 0, 64, 127
2, 142343, Note_off_c, 0, 52, 64
2, 142346, Note_off_c, 0, 47, 64
2, 142353, Note_off_c, 0, 56, 64
2, 142464, Note_on_c, 0, 52, 14
2, 142465, Note_on_c, 0, 56, 18
2, 142468, Note_on_c, 0, 47, 12
2, 142567, Note_off_c, 0, 47, 64
2, 142581, Note_off_c, 0, 52, 64
2, 142588, Note_off_c, 0, 56, 64
2, 142709, Control_c, 0, 64, 0
2, 142724, Note_on_c, 0, 52, 17
2, 142724, Note_on_c, 0, 47, 16
2, 142727, Note_on_c, 0, 55, 27
2, 142784, Control_c, 0, 64, 127
2, 142896, Note_off_c, 0, 47, 64
2, 142908, Note_off_c, 0, 55, 64
2, 142912, Note_off_c, 0, 52, 64
2, 142996, Note_on_c, 0, 52, 16
2, 142996, Note_on_c, 0, 47, 16
2, 142998, Note_on_c, 0, 55, 21
2, 143096, Note_off_c, 0, 47, 64
2, 143134, Note_off_c, 0, 52, 64
2, 143140, Note_off_c, 0, 55, 64
2, 143292, Note_on_c, 0, 55, 15
2, 143292, Note_on_c, 0, 47, 17
2, 143296, Note_on_c, 0, 52, 13
2, 143301, Note_on_c, 0, 66, 65
2, 143331, Note_off_c, 0, 64, 64
2, 143441, Note_off_c, 0, 47, 64
2, 143455, Note_off_c, 0, 55, 64
2, 143458, Note_off_c, 0, 52, 64
2, 143666, Note_on_c, 0, 55, 12
2, 143668, Note_on_c, 0, 52, 8
2, 143668, Note_on_c, 0, 47, 10
2, 143805, Note_off_c, 0, 52, 64
2, 143851, Note_off_c, 0, 47, 64
2, 143883, Note_off_c, 0, 55, 64
2, 143953, Note_off_c, 0, 66, 64
2, 144224, Note_on_c, 0, 64, 44
2, 144224, Note_on_c, 0, 48, 18
2, 144227, Note_on_c, 0, 55, 23
2, 144228, Note_on_c, 0, 46, 24
2, 144369, Control_c, 0, 64, 0
2, 145642, Note_off_c, 0, 48, 64
2, 145653, Note_off_c, 0, 64, 64
2, 145673, Note_off_c, 0, 55, 64
2, 145731, Note_off_c, 0, 46, 64
2, 146276, Note_on_c, 0, 59, 24
2, 146276, Note_on_c, 0, 35, 38
2, 146280, Note_on_c, 0, 54, 24
2, 146280, Note_on_c, 0, 52, 24
2, 146280, Note_on_c, 0, 47, 31
2, 146281, Note_on_c, 0, 64, 31
2, 146387, Control_c, 0, 64, 127
2, 147181, Note_off_c, 0, 59, 64
2, 147254, Note_off_c, 0, 64, 64
2, 147348, Note_off_c, 0, 52, 64
2, 147365, Note_off_c, 0, 35, 64
2, 147368, Note_off_c, 0, 54, 64
2, 147377, Note_off_c, 0, 47, 64
2, 147690, Control_c, 0, 64, 0
2, 147704, Note_on_c, 0, 59, 28
2, 147704, Note_on_c, 0, 51, 28
2, 147704, Note_on_c, 0, 35, 26
2, 147705, Note_on_c, 0, 63, 32
2, 147705, Note_on_c, 0, 54, 28
2, 147705, Note_on_c, 0, 42, 23
2, 147707, Note_on_c, 0, 47, 20
2, 147818, Control_c, 0, 64, 127
2, 148645, Note_off_c, 0, 59, 64
2, 148839, Note_off_c, 0, 42, 64
2, 148844, Note_off_c, 0, 51, 64
2, 148920, Note_off_c, 0, 63, 64
2, 148966, Note_off_c, 0, 47, 64
2, 148988, Note_off_c, 0, 54, 64
2, 149032, Note_off_c, 0, 35, 64
2, 149948, Note_on_c, 0, 40, 20
2, 149952, Note_on_c, 0, 64, 33
2, 149952, Note_on_c, 0, 59, 31
2, 149952, Note_on_c, 0, 55, 28
2, 149952, Note_on_c, 0, 52, 20
2, 149952, Note_on_c, 0, 28, 24
2, 149980, Control_c, 0, 64, 0
2, 150530, Control_c, 0, 64, 127
2, 152419, Note_off_c, 0, 59, 64
2, 152424, Note_off_c, 0, 55, 64
2, 152431, Note_off_c, 0, 64, 64
2, 152439, Note_off_c, 0, 52, 64
2, 152441, Note_off_c, 0, 40, 64
2, 152460, Note_off_c, 0, 28, 64
2, 152833, Note_on_c, 0, 71, 55
2, 152880, Control_c, 0, 64, 127
2, 152902, Note_on_c, 0, 69, 29
2, 152906, Note_off_c, 0, 71, 64
2, 152963, Note_on_c, 0, 61, 44
2, 152968, Note_on_c, 0, 55, 44
2, 152980, Note_off_c, 0, 69, 64
2, 153020, Note_on_c, 0, 71, 60
2, 153028, Note_off_c, 0, 55, 64
2, 153028, Note_on_c, 0, 45, 50
2, 153045, Note_off_c, 0, 61, 64
2, 153067, Note_off_c, 0, 45, 64
2, 153086, Note_on_c, 0, 76, 60
2, 153090, Note_on_c, 0, 55, 44
2, 153120, Note_off_c, 0, 71, 64
2, 153136, Note_off_c, 0, 55, 64
2, 153145, Note_on_c, 0, 64, 57
2, 153148, Note_on_c, 0, 69, 64
2, 153156, Note_off_c, 0, 76, 64
2, 153193, Control_c, 0, 64, 0
2, 153196, Note_off_c, 0, 64, 64
2, 153210, Note_on_c, 0, 55, 63
2, 153217, Note_on_c, 0, 61, 56
2, 153241, Note_off_c, 0, 69, 64
2, 153243, Control_c, 0, 64, 127
2, 153268, Note_off_c, 0, 55, 64
2, 153275, Note_on_c, 0, 45, 60
2, 153276, Note_on_c, 0, 70, 80
2, 153302, Note_off_c, 0, 61, 64
2, 153316, Note_off_c, 0, 45, 64
2, 153332, Note_on_c, 0, 55, 70
2, 153337, Note_on_c, 0, 76, 68
2, 153367, Note_off_c, 0, 70, 64
2, 153392, Note_on_c, 0, 69, 80
2, 153401, Note_on_c, 0, 64, 49
2, 153403, Note_off_c, 0, 55, 64
2, 153430, Note_off_c, 0, 76, 64
2, 153445, Control_c, 0, 64, 0
2, 153458, Note_off_c, 0, 64, 64
2, 153458, Note_on_c, 0, 55, 70
2, 153463, Note_on_c, 0, 61, 59
2, 153501, Control_c, 0, 64, 127
2, 153522, Note_on_c, 0, 71, 79
2, 153524, Note_off_c, 0, 55, 64
2, 153526, Note_on_c, 0, 45, 60
2, 153531, Note_off_c, 0, 69, 64
2, 153540, Note_off_c, 0, 61, 64
2, 153574, Note_off_c, 0, 45, 64
2, 153580, Note_on_c, 0, 76, 88
2, 153584, Note_on_c, 0, 55, 50
2, 153601, Note_off_c, 0, 71, 64
2, 153644, Note_on_c, 0, 64, 60
2, 153647, Note_on_c, 0, 69, 53
2, 153649, Note_off_c, 0, 55, 64
2, 153653, Note_off_c, 0, 76, 64
2, 153703, Note_off_c, 0, 64, 64
2, 153703, Control_c, 0, 64, 0
2, 153708, Note_on_c, 0, 61, 58
2, 153708, Note_on_c, 0, 55, 73
2, 153720, Note_off_c, 0, 69, 64
2, 153764, Note_on_c, 0, 70, 81
2, 153765, Control_c, 0, 64, 127
2, 153771, Note_off_c, 0, 55, 64
2, 153774, Note_on_c, 0, 45, 56
2, 153808, Note_off_c, 0, 61, 64
2, 153822, Note_off_c, 0, 45, 64
2, 153830, Note_on_c, 0, 76, 52
2, 153832, Note_on_c, 0, 55, 47
2, 153844, Note_off_c, 0, 70, 64
2, 153889, Note_on_c, 0, 64, 47
2, 153893, Note_on_c, 0, 69, 61
2, 153897, Note_off_c, 0, 55, 64
2, 153919, Note_off_c, 0, 76, 64
2, 153950, Note_off_c, 0, 64, 64
2, 153952, Note_on_c, 0, 55, 64
2, 153956, Note_on_c, 0, 61, 55
2, 153973, Note_off_c, 0, 69, 64
2, 154007, Control_c, 0, 64, 0
2, 154016, Note_off_c, 0, 55, 64
2, 154017, Note_on_c, 0, 71, 56
2, 154022, Note_on_c, 0, 45, 54
2, 154048, Note_off_c, 0, 61, 64
2, 154064, Control_c, 0, 64, 127
2, 154066, Note_off_c, 0, 45, 64
2, 154082, Note_on_c, 0, 55, 61
2, 154083, Note_on_c, 0, 76, 50
2, 154090, Note_off_c, 0, 71, 64
2, 154140, Note_off_c, 0, 55, 64
2, 154146, Note_on_c, 0, 64, 32
2, 154150, Note_off_c, 0, 76, 64
2, 154150, Note_on_c, 0, 69, 36
2, 154185, Note_off_c, 0, 64, 64
2, 154191, Note_off_c, 0, 69, 64
2, 154211, Note_on_c, 0, 61, 59
2, 154215, Note_on_c, 0, 55, 33
2, 154270, Note_on_c, 0, 66, 55
2, 154273, Note_on_c, 0, 57, 48
2, 154280, Note_off_c, 0, 61, 64
2, 154281, Note_off_c, 0, 55, 64
2, 154305, Note_off_c, 0, 57, 64
2, 154319, Control_c, 0, 64, 0
2, 154348, Note_on_c, 0, 38, 43
2, 154351, Note_on_c, 0, 62, 48
2, 154353, Note_off_c, 0, 66, 64
2, 154361, Control_c, 0, 64, 127
2, 154408, Note_on_c, 0, 54, 59
2, 154411, Note_on_c, 0, 57, 54
2, 154418, Note_off_c, 0, 62, 64
2, 154421, Note_off_c, 0, 38, 64
2, 154471, Note_off_c, 0, 57, 64
2, 154472, Note_off_c, 0, 54, 64
2, 154472, Note_on_c, 0, 55, 52
2, 154473, Note_on_c, 0, 58, 51
2, 154528, Note_off_c, 0, 58, 64
2, 154533, Note_on_c, 0, 59, 52
2, 154536, Note_on_c, 0, 43, 66
2, 154539, Note_off_c, 0, 55, 64
2, 154593, Note_on_c, 0, 61, 61
2, 154595, Note_on_c, 0, 66, 63
2, 154601, Note_on_c, 0, 45, 73
2, 154604, Note_off_c, 0, 59, 64
2, 154607, Note_off_c, 0, 43, 64
2, 154630, Control_c, 0, 64, 0
2, 154648, Note_off_c, 0, 45, 64
2, 154653, Note_on_c, 0, 64, 68
2, 154654, Note_off_c, 0, 66, 64
2, 154657, Note_on_c, 0, 55, 56
2, 154661, Note_off_c, 0, 61, 64
2, 154690, Note_off_c, 0, 64, 64
2, 154708, Note_off_c, 0, 55, 64
2, 154712, Note_on_c, 0, 54, 59
2, 154715, Note_on_c, 0, 62, 64
2, 154744, Control_c, 0, 64, 127
2, 154769, Note_on_c, 0, 47, 62
2, 154772, Note_on_c, 0, 74, 65
2, 154778, Note_off_c, 0, 54, 64
2, 154779, Note_off_c, 0, 62, 64
2, 154820, Note_off_c, 0, 47, 64
2, 154828, Note_on_c, 0, 62, 48
2, 154833, Note_on_c, 0, 66, 82
2, 154837, Note_off_c, 0, 74, 64
2, 154890, Note_on_c, 0, 69, 68
2, 154894, Note_on_c, 0, 54, 36
2, 154903, Control_c, 0, 64, 0
2, 154912, Note_off_c, 0, 66, 64
2, 154928, Note_off_c, 0, 62, 64
2, 154944, Note_on_c, 0, 52, 64
2, 154948, Note_on_c, 0, 73, 74
2, 154950, Note_on_c, 0, 68, 63
2, 154956, Note_off_c, 0, 69, 64
2, 154965, Note_off_c, 0, 54, 64
2, 154968, Control_c, 0, 64, 127
2, 154991, Note_off_c, 0, 52, 64
2, 154996, Note_off_c, 0, 73, 64
2, 155014, Note_on_c, 0, 71, 60
2, 155016, Note_on_c, 0, 62, 36
2, 155023, Note_off_c, 0, 68, 64
2, 155073, Note_off_c, 0, 62, 64
2, 155075, Note_on_c, 0, 64, 66
2, 155075, Note_on_c, 0, 61, 62
2, 155101, Note_off_c, 0, 71, 64
2, 155120, Control_c, 0, 64, 0
2, 155129, Note_on_c, 0, 57, 46
2, 155133, Note_on_c, 0, 69, 68
2, 155134, Note_off_c, 0, 61, 64
2, 155137, Note_off_c, 0, 64, 64
2, 155189, Note_off_c, 0, 57, 64
2, 155192, Note_on_c, 0, 65, 62
2, 155195, Note_off_c, 0, 69, 64
2, 155196, Note_on_c, 0, 62, 68
2, 155205, Control_c, 0, 64, 127
2, 155249, Note_on_c, 0, 50, 56
2, 155253, Note_on_c, 0, 66, 74
2, 155269, Note_off_c, 0, 62, 64
2, 155279, Note_off_c, 0, 65, 64
2, 155284, Control_c, 0, 64, 0
2, 155310, Note_on_c, 0, 73, 68
2, 155311, Note_off_c, 0, 50, 64
2, 155315, Note_on_c, 0, 52, 63
2, 155317, Note_on_c, 0, 68, 49
2, 155335, Note_off_c, 0, 66, 64
2, 155361, Control_c, 0, 64, 127
2, 155367, Note_off_c, 0, 52, 64
2, 155368, Note_off_c, 0, 68, 64
2, 155371, Note_off_c, 0, 73, 64
2, 155372, Note_on_c, 0, 62, 52
2, 155375, Note_on_c, 0, 71, 64
2, 155434, Note_on_c, 0, 69, 67
2, 155434, Note_on_c, 0, 61, 73
2, 155441, Note_off_c, 0, 62, 64
2, 155443, Note_off_c, 0, 71, 64
2, 155477, Control_c, 0, 64, 0
2, 155485, Note_off_c, 0, 61, 64
2, 155490, Note_on_c, 0, 76, 54
2, 155495, Note_on_c, 0, 60, 69
2, 155497, Note_off_c, 0, 69, 64
2, 155529, Note_off_c, 0, 76, 64
2, 155548, Note_on_c, 0, 64, 62
2, 155553, Note_on_c, 0, 54, 42
2, 155568, Note_off_c, 0, 60, 64
2, 155606, Note_off_c, 0, 64, 64
2, 155609, Note_on_c, 0, 69, 56
2, 155613, Note_on_c, 0, 45, 64
2, 155624, Note_off_c, 0, 54, 64
2, 155672, Note_on_c, 0, 47, 66
2, 155673, Note_off_c, 0, 45, 64
2, 155676, Note_on_c, 0, 63, 78
2, 155677, Note_on_c, 0, 72, 66
2, 155681, Control_c, 0, 64, 127
2, 155688, Note_off_c, 0, 69, 64
2, 155728, Note_off_c, 0, 72, 64
2, 155732, Note_on_c, 0, 71, 69
2, 155732, Note_on_c, 0, 57, 64
2, 155741, Note_on_c, 0, 47, 43
2, 155748, Note_off_c, 0, 47, 64
2, 155751, Note_off_c, 0, 63, 64
2, 155759, Note_off_c, 0, 47, 64
2, 155779, Note_off_c, 0, 57, 64
2, 155779, Note_off_c, 0, 71, 64
2, 155792, Note_on_c, 0, 55, 78
2, 155794, Note_on_c, 0, 59, 80
2, 155856, Note_on_c, 0, 40, 61
2, 155858, Note_on_c, 0, 64, 71
2, 155871, Control_c, 0, 64, 0
2, 155874, Note_off_c, 0, 59, 64
2, 155890, Note_off_c, 0, 55, 64
2, 155913, Note_off_c, 0, 40, 64
2, 155913, Note_on_c, 0, 60, 78
2, 155918, Note_off_c, 0, 64, 64
2, 155920, Note_on_c, 0, 45, 58
2, 155929, Control_c, 0, 64, 127
2, 155966, Note_off_c, 0, 45, 64
2, 155971, Note_on_c, 0, 64, 67
2, 155975, Note_on_c, 0, 57, 54
2, 155996, Note_off_c, 0, 60, 64
2, 156003, Control_c, 0, 64, 0
2, 156024, Note_on_c, 0, 67, 68
2, 156026, Note_on_c, 0, 63, 66
2, 156028, Note_on_c, 0, 47, 64
2, 156033, Note_off_c, 0, 64, 64
2, 156037, Note_off_c, 0, 57, 64
2, 156076, Note_off_c, 0, 67, 64
2, 156082, Note_off_c, 0, 47, 64
2, 156084, Note_on_c, 0, 57, 66
2, 156085, Note_on_c, 0, 66, 64
2, 156089, Control_c, 0, 64, 127
2, 156099, Note_off_c, 0, 63, 64
2, 156143, Note_off_c, 0, 66, 64
2, 156145, Note_off_c, 0, 57, 64
2, 156149, Note_on_c, 0, 64, 67
2, 156152, Note_on_c, 0, 55, 60
2, 156165, Control_c, 0, 64, 0
2, 156204, Note_on_c, 0, 52, 62
2, 156207, Note_on_c, 0, 76, 76
2, 156209, Note_off_c, 0, 55, 64
2, 156213, Note_off_c, 0, 64, 64
2, 156260, Note_on_c, 0, 64, 76
2, 156263, Note_on_c, 0, 67, 64
2, 156276, Control_c, 0, 64, 127
2, 156282, Note_off_c, 0, 76, 64
2, 156288, Note_off_c, 0, 52, 64
2, 156319, Note_on_c, 0, 55, 64
2, 156324, Note_on_c, 0, 71, 65
2, 156338, Note_off_c, 0, 64, 64
2, 156345, Note_off_c, 0, 67, 64
2, 156351, Control_c, 0, 64, 0
2, 156378, Note_on_c, 0, 70, 74
2, 156381, Note_on_c, 0, 74, 76
2, 156381, Note_on_c, 0, 54, 66
2, 156385, Note_off_c, 0, 71, 64
2, 156386, Note_off_c, 0, 55, 64
2, 156404, Control_c, 0, 64, 127
2, 156428, Note_on_c, 0, 64, 52
2, 156430, Note_on_c, 0, 73, 59
2, 156432, Note_off_c, 0, 74, 64
2, 156444, Note_off_c, 0, 70, 64
2, 156449, Note_off_c, 0, 54, 64
2, 156474, Control_c, 0, 64, 0
2, 156492, Note_off_c, 0, 64, 64
2, 156494, Note_off_c, 0, 73, 64
2, 156496, Note_on_c, 0, 62, 62
2, 156497, Note_on_c, 0, 71, 57
2, 156524, Control_c, 0, 64, 127
2, 156553, Note_on_c, 0, 66, 64
2, 156558, Note_on_c, 0, 47, 58
2, 156561, Note_off_c, 0, 71, 64
2, 156585, Control_c, 0, 64, 0
2, 156607, Note_off_c, 0, 62, 64
2, 156608, Note_off_c, 0, 47, 64
2, 156613, Note_off_c, 0, 66, 64
2, 156613, Note_on_c, 0, 67, 68
2, 156616, Note_on_c, 0, 52, 64
2, 156629, Control_c, 0, 64, 127
2, 156669, Note_off_c, 0, 52, 64
2, 156673, Note_on_c, 0, 71, 57
2, 156673, Note_on_c, 0, 64, 57
2, 156692, Note_off_c, 0, 67, 64
2, 156700, Control_c, 0, 64, 0
2, 156727, Note_on_c, 0, 74, 70
2, 156727, Note_on_c, 0, 70, 72
2, 156727, Note_on_c, 0, 54, 72
2, 156734, Note_off_c, 0, 71, 64
2, 156735, Note_off_c, 0, 64, 64
2, 156745, Control_c, 0, 64, 127
2, 156755, Control_c, 0, 64, 0
2, 156767, Control_c, 0, 64, 127
2, 156779, Note_off_c, 0, 54, 64
2, 156780, Note_on_c, 0, 64, 45
2, 156782, Note_on_c, 0, 73, 69
2, 156787, Note_off_c, 0, 74, 64
2, 156800, Note_off_c, 0, 70, 64
2, 156819, Control_c, 0, 64, 0
2, 156835, Note_off_c, 0, 73, 64
2, 156842, Note_off_c, 0, 64, 64
2, 156846, Note_on_c, 0, 71, 68
2, 156849, Note_on_c, 0, 62, 67
2, 156874, Control_c, 0, 64, 127
2, 156898, Note_on_c, 0, 83, 70
2, 156903, Note_on_c, 0, 53, 53
2, 156920, Note_off_c, 0, 62, 64
2, 156950, Note_off_c, 0, 53, 64
2, 156950, Note_off_c, 0, 71, 64
2, 156957, Note_on_c, 0, 80, 73
2, 156960, Note_on_c, 0, 59, 68
2, 156968, Note_off_c, 0, 83, 64
2, 157003, Note_off_c, 0, 59, 64
2, 157012, Note_on_c, 0, 74, 69
2, 157016, Note_on_c, 0, 68, 77
2, 157021, Note_off_c, 0, 80, 64
2, 157068, Note_off_c, 0, 74, 64
2, 157070, Note_on_c, 0, 73, 89
2, 157072, Note_on_c, 0, 61, 44
2, 157077, Note_off_c, 0, 68, 64
2, 157091, Control_c, 0, 64, 0
2, 157114, Note_off_c, 0, 61, 64
2, 157119, Note_off_c, 0, 73, 64
2, 157124, Note_on_c, 0, 71, 76
2, 157126, Note_on_c, 0, 62, 76
2, 157192, Note_on_c, 0, 70, 80
2, 157193, Note_off_c, 0, 71, 64
2, 157193, Note_on_c, 0, 61, 72
2, 157195, Note_off_c, 0, 62, 64
2, 157203, Control_c, 0, 64, 127
2, 157246, Note_on_c, 0, 78, 65
2, 157246, Note_on_c, 0, 54, 59
2, 157250, Note_off_c, 0, 61, 64
2, 157265, Note_off_c, 0, 70, 64
2, 157296, Note_off_c, 0, 54, 64
2, 157299, Note_off_c, 0, 78, 64
2, 157305, Note_on_c, 0, 62, 74
2, 157309, Note_on_c, 0, 71, 75
2, 157357, Note_on_c, 0, 47, 61
2, 157366, Note_off_c, 0, 62, 64
2, 157366, Note_on_c, 0, 80, 66
2, 157371, Note_off_c, 0, 71, 64
2, 157389, Control_c, 0, 64, 0
2, 157409, Note_off_c, 0, 47, 64
2, 157424, Note_on_c, 0, 61, 78
2, 157425, Note_on_c, 0, 65, 84
2, 157427, Note_off_c, 0, 80, 64
2, 157472, Note_off_c, 0, 65, 64
2, 157482, Note_on_c, 0, 49, 37
2, 157485, Note_on_c, 0, 82, 80
2, 157486, Note_off_c, 0, 61, 64
2, 157524, Note_off_c, 0, 49, 64
2, 157536, Note_on_c, 0, 42, 80
2, 157543, Note_on_c, 0, 70, 86
2, 157548, Control_c, 0, 64, 127
2, 157574, Note_off_c, 0, 82, 64
2, 157577, Note_off_c, 0, 42, 64
2, 157600, Note_on_c, 0, 61, 80
2, 157603, Note_on_c, 0, 78, 73
2, 157614, Note_off_c, 0, 70, 64
2, 157648, Control_c, 0, 64, 0
2, 157661, Note_on_c, 0, 62, 74
2, 157662, Note_off_c, 0, 61, 64
2, 157662, Note_on_c, 0, 71, 81
2, 157678, Note_off_c, 0, 78, 64
2, 157714, Note_on_c, 0, 80, 68
2, 157716, Note_on_c, 0, 47, 54
2, 157720, Note_off_c, 0, 71, 64
2, 157722, Note_off_c, 0, 62, 64
2, 157735, Control_c, 0, 64, 127
2, 157772, Note_on_c, 0, 61, 76
2, 157779, Note_off_c, 0, 80, 64
2, 157779, Note_on_c, 0, 65, 81
2, 157782, Note_off_c, 0, 47, 64
2, 157819, Note_off_c, 0, 65, 64
2, 157827, Note_off_c, 0, 61, 64
2, 157833, Note_on_c, 0, 82, 76
2, 157837, Note_on_c, 0, 49, 45
2, 157868, Control_c, 0, 64, 0
2, 157876, Note_off_c, 0, 49, 64
2, 157894, Note_on_c, 0, 42, 67
2, 157897, Note_on_c, 0, 70, 73
2, 157910, Control_c, 0, 64, 127
2, 157917, Note_off_c, 0, 82, 64
2, 157936, Note_off_c, 0, 42, 64
2, 157953, Note_on_c, 0, 61, 72
2, 157957, Note_on_c, 0, 78, 46
2, 157963, Note_off_c, 0, 70, 64
2, 158004, Note_off_c, 0, 78, 64
2, 158005, Note_off_c, 0, 61, 64
2, 158007, Note_on_c, 0, 71, 50
2, 158007, Note_on_c, 0, 62, 57
2, 158044, Control_c, 0, 64, 0
2, 158055, Note_off_c, 0, 62, 64
2, 158063, Note_off_c, 0, 71, 64
2, 158065, Note_on_c, 0, 80, 56
2, 158067, Note_on_c, 0, 47, 53
2, 158115, Note_off_c, 0, 80, 64
2, 158116, Note_on_c, 0, 61, 62
2, 158121, Note_on_c, 0, 65, 67
2, 158134, Note_off_c, 0, 47, 64
2, 158152, Control_c, 0, 64, 127
2, 158159, Note_off_c, 0, 65, 64
2, 158162, Note_off_c, 0, 61, 64
2, 158176, Note_on_c, 0, 49, 27
2, 158178, Note_on_c, 0, 82, 64
2, 158216, Note_off_c, 0, 49, 64
2, 158239, Note_on_c, 0, 42, 56
2, 158241, Note_on_c, 0, 70, 72
2, 158252, Note_off_c, 0, 82, 64
2, 158280, Note_off_c, 0, 42, 64
2, 158301, Note_on_c, 0, 61, 58
2, 158303, Note_on_c, 0, 78, 54
2, 158308, Note_off_c, 0, 70, 64
2, 158318, Control_c, 0, 64, 0
2, 158352, Note_on_c, 0, 62, 50
2, 158356, Note_on_c, 0, 71, 57
2, 158358, Note_off_c, 0, 78, 64
2, 158362, Note_off_c, 0, 61, 64
2, 158367, Control_c, 0, 64, 127
2, 158396, Note_off_c, 0, 62, 64
2, 158412, Note_on_c, 0, 80, 44
2, 158415, Note_on_c, 0, 47, 49
2, 158421, Note_off_c, 0, 71, 64
2, 158465, Note_off_c, 0, 80, 64
2, 158468, Note_on_c, 0, 61, 59
2, 158473, Note_on_c, 0, 65, 53
2, 158481, Note_off_c, 0, 47, 64
2, 158516, Note_off_c, 0, 61, 64
2, 158521, Note_off_c, 0, 65, 64
2, 158528, Note_on_c, 0, 49, 34
2, 158531, Note_on_c, 0, 81, 39
2, 158557, Control_c, 0, 64, 0
2, 158569, Note_off_c, 0, 49, 64
2, 158593, Note_off_c, 0, 81, 64
2, 158596, Note_on_c, 0, 78, 40
2, 158596, Note_on_c, 0, 42, 38
2, 158613, Control_c, 0, 64, 127
2, 158636, Note_off_c, 0, 42, 64
2, 158660, Note_on_c, 0, 66, 30
2, 158663, Note_off_c, 0, 78, 64
2, 158666, Note_on_c, 0, 57, 43
2, 158718, Note_off_c, 0, 66, 64
2, 158724, Note_off_c, 0, 57, 64
2, 158726, Note_on_c, 0, 55, 60
2, 158730, Note_on_c, 0, 61, 52
2, 158739, Control_c, 0, 64, 0
2, 158779, Control_c, 0, 64, 127
2, 158784, Note_on_c, 0, 45, 66
2, 158788, Note_off_c, 0, 61, 64
2, 158788, Note_on_c, 0, 71, 60
2, 158799, Note_off_c, 0, 55, 64
2, 158824, Note_off_c, 0, 45, 64
2, 158842, Note_on_c, 0, 76, 52
2, 158845, Note_on_c, 0, 55, 28
2, 158893, Note_on_c, 0, 69, 64
2, 158901, Note_on_c, 0, 64, 51
2, 158902, Note_off_c, 0, 71, 64
2, 158906, Note_off_c, 0, 55, 64
2, 158906, Note_off_c, 0, 76, 64
2, 158940, Note_off_c, 0, 64, 64
2, 158948, Note_on_c, 0, 55, 61
2, 158955, Control_c, 0, 64, 0
2, 158962, Note_on_c, 0, 61, 54
2, 158995, Control_c, 0, 64, 127
2, 159008, Note_on_c, 0, 45, 65
2, 159012, Note_off_c, 0, 55, 64
2, 159014, Note_on_c, 0, 70, 70
2, 159026, Note_off_c, 0, 61, 64
2, 159034, Note_off_c, 0, 69, 64
2, 159052, Note_off_c, 0, 45, 64
2, 159069, Note_on_c, 0, 55, 66
2, 159081, Note_on_c, 0, 76, 64
2, 159113, Note_off_c, 0, 70, 64
2, 159136, Note_on_c, 0, 69, 70
2, 159139, Note_off_c, 0, 55, 64
2, 159140, Note_on_c, 0, 64, 48
2, 159167, Control_c, 0, 64, 0
2, 159174, Note_off_c, 0, 76, 64
2, 159189, Note_off_c, 0, 64, 64
2, 159193, Note_on_c, 0, 55, 63
2, 159201, Note_on_c, 0, 61, 66
2, 159236, Control_c, 0, 64, 127
2, 159253, Note_off_c, 0, 69, 64
2, 159257, Note_on_c, 0, 45, 64
2, 159259, Note_on_c, 0, 71, 84
2, 159268, Note_off_c, 0, 55, 64
2, 159289, Note_off_c, 0, 61, 64
2, 159302, Note_off_c, 0, 45, 64
2, 159316, Note_on_c, 0, 76, 68
2, 159316, Note_on_c, 0, 55, 72
2, 159374, Note_on_c, 0, 69, 72
2, 159381, Note_on_c, 0, 64, 60
2, 159383, Note_off_c, 0, 55, 64
2, 159385, Note_off_c, 0, 71, 64
2, 159418, Note_off_c, 0, 76, 64
2, 159426, Control_c, 0, 64, 0
2, 159431, Note_off_c, 0, 64, 64
2, 159436, Note_on_c, 0, 55, 55
2, 159439, Note_on_c, 0, 61, 45
2, 159476, Control_c, 0, 64, 127
2, 159488, Note_off_c, 0, 55, 64
2, 159492, Note_on_c, 0, 45, 61
2, 159496, Note_on_c, 0, 70, 75
2, 159500, Note_off_c, 0, 69, 64
2, 159523, Note_off_c, 0, 61, 64
2, 159533, Note_off_c, 0, 45, 64
2, 159550, Note_on_c, 0, 55, 44
2, 159559, Note_on_c, 0, 76, 53
2, 159567, Note_off_c, 0, 70, 64
2, 159618, Note_on_c, 0, 69, 65
2, 159622, Note_off_c, 0, 55, 64
2, 159625, Note_off_c, 0, 76, 64
2, 159628, Note_on_c, 0, 64, 40
2, 159659, Control_c, 0, 64, 0
2, 159674, Note_off_c, 0, 64, 64
2, 159676, Note_on_c, 0, 55, 69
2, 159682, Note_on_c, 0, 61, 42
2, 159700, Note_off_c, 0, 69, 64
2, 159708, Control_c, 0, 64, 127
2, 159734, Note_on_c, 0, 71, 62
2, 159737, Note_off_c, 0, 55, 64
2, 159737, Note_on_c, 0, 45, 56
2, 159766, Note_off_c, 0, 61, 64
2, 159779, Note_off_c, 0, 45, 64
2, 159796, Note_on_c, 0, 76, 60
2, 159796, Note_on_c, 0, 55, 59
2, 159809, Note_off_c, 0, 71, 64
2, 159857, Note_off_c, 0, 76, 64
2, 159859, Note_off_c, 0, 55, 64
2, 159859, Note_on_c, 0, 69, 52
2, 159859, Note_on_c, 0, 64, 38
2, 159893, Note_off_c, 0, 64, 64
2, 159901, Note_off_c, 0, 69, 64
2, 159920, Note_on_c, 0, 61, 30
2, 159922, Note_on_c, 0, 55, 48
2, 159977, Note_on_c, 0, 66, 54
2, 159982, Note_on_c, 0, 57, 55
2, 159986, Note_off_c, 0, 61, 64
2, 159996, Note_off_c, 0, 55, 64
2, 160043, Note_off_c, 0, 66, 64
2, 160045, Note_on_c, 0, 38, 58
2, 160048, Note_off_c, 0, 57, 64
2, 160049, Note_on_c, 0, 62, 52
2, 160105, Note_on_c, 0, 54, 57
2, 160107, Note_off_c, 0, 62, 64
2, 160110, Note_on_c, 0, 57, 52
2, 160112, Note_off_c, 0, 38, 64
2, 160142, Control_c, 0, 64, 0
2, 160157, Note_off_c, 0, 54, 64
2, 160163, Note_off_c, 0, 57, 64
2, 160166, Note_on_c, 0, 55, 32
2, 160170, Note_on_c, 0, 58, 51
2, 160220, Note_off_c, 0, 58, 64
2, 160224, Note_off_c, 0, 55, 64
2, 160229, Note_on_c, 0, 59, 51
2, 160230, Note_on_c, 0, 43, 49
2, 160278, Note_off_c, 0, 43, 64
2, 160278, Note_on_c, 0, 45, 55
2, 160280, Note_on_c, 0, 67, 57
2, 160283, Note_on_c, 0, 61, 56
2, 160309, Note_off_c, 0, 59, 64
2, 160330, Note_off_c, 0, 45, 64
2, 160337, Note_off_c, 0, 67, 64
2, 160344, Note_on_c, 0, 66, 67
2, 160344, Note_on_c, 0, 57, 63
2, 160353, Note_off_c, 0, 61, 64
2, 160383, Note_off_c, 0, 66, 64
2, 160402, Note_on_c, 0, 62, 68
2, 160406, Note_on_c, 0, 54, 46
2, 160413, Note_off_c, 0, 57, 64
2, 160448, Note_on_c, 0, 47, 54
2, 160451, Control_c, 0, 64, 127
2, 160454, Note_on_c, 0, 74, 60
2, 160464, Note_off_c, 0, 62, 64
2, 160480, Note_off_c, 0, 54, 64
2, 160492, Note_off_c, 0, 47, 64
2, 160512, Note_on_c, 0, 62, 63
2, 160515, Note_on_c, 0, 66, 80
2, 160520, Note_off_c, 0, 74, 64
2, 160577, Note_on_c, 0, 69, 68
2, 160581, Note_on_c, 0, 53, 63
2, 160589, Note_off_c, 0, 66, 64
2, 160613, Note_off_c, 0, 62, 64
2, 160617, Control_c, 0, 64, 0
2, 160632, Note_off_c, 0, 53, 64
2, 160636, Note_on_c, 0, 72, 68
2, 160636, Note_on_c, 0, 68, 73
2, 160636, Note_on_c, 0, 52, 68
2, 160646, Note_off_c, 0, 69, 64
2, 160663, Control_c, 0, 64, 127
2, 160684, Note_off_c, 0, 72, 64
2, 160687, Note_off_c, 0, 52, 64
2, 160696, Note_on_c, 0, 71, 66
2, 160702, Note_on_c, 0, 62, 54
2, 160703, Note_off_c, 0, 68, 64
2, 160738, Control_c, 0, 64, 0
2, 160759, Note_on_c, 0, 64, 76
2, 160759, Note_on_c, 0, 60, 68
2, 160769, Note_off_c, 0, 62, 64
2, 160781, Control_c, 0, 64, 127
2, 160789, Note_off_c, 0, 71, 64
2, 160815, Note_on_c, 0, 69, 64
2, 160816, Note_on_c, 0, 57, 68
2, 160818, Note_off_c, 0, 60, 64
2, 160824, Note_off_c, 0, 64, 64
2, 160844, Control_c, 0, 64, 0
2, 160868, Note_on_c, 0, 62, 64
2, 160869, Note_off_c, 0, 57, 64
2, 160874, Note_on_c, 0, 65, 80
2, 160878, Note_off_c, 0, 69, 64
2, 160896, Control_c, 0, 64, 127
2, 160934, Note_on_c, 0, 69, 67
2, 160936, Note_on_c, 0, 50, 65
2, 160943, Control_c, 0, 64, 0
2, 160947, Note_off_c, 0, 62, 64
2, 160974, Note_off_c, 0, 65, 64
2, 160992, Note_on_c, 0, 72, 71
2, 160992, Note_on_c, 0, 68, 70
2, 160992, Note_on_c, 0, 52, 70
2, 161000, Note_off_c, 0, 50, 64
2, 161000, Control_c, 0, 64, 127
2, 161005, Note_off_c, 0, 69, 64
2, 161045, Note_off_c, 0, 52, 64
2, 161048, Note_on_c, 0, 62, 64
2, 161050, Note_off_c, 0, 72, 64
2, 161052, Note_on_c, 0, 71, 63
2, 161058, Control_c, 0, 64, 0
2, 161067, Note_off_c, 0, 68, 64
2, 161106, Note_on_c, 0, 61, 77
2, 161108, Note_on_c, 0, 69, 71
2, 161118, Note_off_c, 0, 71, 64
2, 161120, Note_off_c, 0, 62, 64
2, 161126, Control_c, 0, 64, 127
2, 161159, Note_off_c, 0, 61, 64
2, 161160, Note_on_c, 0, 76, 74
2, 161167, Note_on_c, 0, 60, 62
2, 161177, Note_off_c, 0, 69, 64
2, 161214, Control_c, 0, 64, 0
2, 161222, Note_on_c, 0, 64, 62
2, 161222, Note_on_c, 0, 54, 68
2, 161225, Note_off_c, 0, 76, 64
2, 161249, Note_off_c, 0, 60, 64
2, 161275, Note_on_c, 0, 69, 68
2, 161276, Note_on_c, 0, 45, 69
2, 161282, Note_off_c, 0, 64, 64
2, 161288, Note_off_c, 0, 54, 64
2, 161336, Note_on_c, 0, 72, 67
2, 161336, Note_on_c, 0, 47, 71
2, 161339, Note_on_c, 0, 63, 86
2, 161342, Note_off_c, 0, 45, 64
2, 161342, Note_off_c, 0, 69, 64
2, 161389, Note_off_c, 0, 72, 64
2, 161393, Note_on_c, 0, 71, 73
2, 161396, Note_off_c, 0, 47, 64
2, 161399, Note_on_c, 0, 57, 65
2, 161403, Note_off_c, 0, 63, 64
2, 161440, Note_off_c, 0, 71, 64
2, 161446, Note_off_c, 0, 57, 64
2, 161455, Note_on_c, 0, 55, 76
2, 161456, Note_on_c, 0, 59, 82
2, 161501, Control_c, 0, 64, 127
2, 161514, Note_on_c, 0, 64, 68
2, 161514, Note_on_c, 0, 40, 61
2, 161531, Note_off_c, 0, 59, 64
2, 161564, Note_on_c, 0, 60, 81
2, 161566, Note_off_c, 0, 64, 64
2, 161566, Note_off_c, 0, 55, 64
2, 161570, Note_off_c, 0, 40, 64
2, 161571, Note_on_c, 0, 45, 74
2, 161620, Note_off_c, 0, 45, 64
2, 161623, Note_on_c, 0, 64, 68
2, 161624, Note_on_c, 0, 57, 64
2, 161642, Note_off_c, 0, 60, 64
2, 161676, Note_on_c, 0, 63, 80
2, 161678, Note_on_c, 0, 67, 70
2, 161678, Note_on_c, 0, 47, 76
2, 161686, Note_off_c, 0, 64, 64
2, 161691, Note_off_c, 0, 57, 64
2, 161699, Control_c, 0, 64, 0
2, 161732, Note_on_c, 0, 57, 69
2, 161734, Note_on_c, 0, 66, 66
2, 161739, Note_off_c, 0, 47, 64
2, 161741, Note_off_c, 0, 67, 64
2, 161752, Note_off_c, 0, 63, 64
2, 161791, Note_off_c, 0, 66, 64
2, 161796, Note_on_c, 0, 55, 71
2, 161797, Note_off_c, 0, 57, 64
2, 161799, Note_on_c, 0, 64, 63
2, 161805, Control_c, 0, 64, 127
2, 161851, Note_on_c, 0, 76, 72
2, 161851, Note_on_c, 0, 52, 80
2, 161854, Note_off_c, 0, 55, 64
2, 161865, Note_off_c, 0, 64, 64
2, 161900, Control_c, 0, 64, 0
2, 161908, Note_on_c, 0, 64, 75
2, 161910, Note_on_c, 0, 67, 78
2, 161922, Note_off_c, 0, 52, 64
2, 161933, Note_off_c, 0, 76, 64
2, 161960, Note_on_c, 0, 55, 64
2, 161964, Note_on_c, 0, 71, 70
2, 161972, Control_c, 0, 64, 127
2, 161982, Control_c, 0, 64, 0
2, 161986, Note_off_c, 0, 67, 64
2, 161990, Note_off_c, 0, 64, 64
2, 162018, Note_on_c, 0, 70, 80
2, 162018, Note_on_c, 0, 54, 52
2, 162022, Note_off_c, 0, 55, 64
2, 162022, Note_on_c, 0, 74, 80
2, 162025, Note_off_c, 0, 71, 64
2, 162068, Note_on_c, 0, 73, 64
2, 162073, Note_off_c, 0, 74, 64
2, 162075, Note_on_c, 0, 64, 61
2, 162079, Note_off_c, 0, 70, 64
2, 162082, Note_off_c, 0, 54, 64
2, 162116, Note_off_c, 0, 73, 64
2, 162123, Note_off_c, 0, 64, 64
2, 162130, Note_on_c, 0, 71, 74
2, 162135, Note_on_c, 0, 62, 80
2, 162184, Note_on_c, 0, 66, 80
2, 162188, Note_on_c, 0, 47, 57
2, 162193, Note_off_c, 0, 71, 64
2, 162196, Control_c, 0, 64, 127
2, 162234, Control_c, 0, 64, 0
2, 162238, Note_off_c, 0, 47, 64
2, 162245, Note_on_c, 0, 67, 80
2, 162245, Note_on_c, 0, 52, 76
2, 162248, Note_off_c, 0, 66, 64
2, 162248, Note_off_c, 0, 62, 64
2, 162285, Control_c, 0, 64, 127
2, 162303, Note_off_c, 0, 52, 64
2, 162304, Note_on_c, 0, 71, 63
2, 162307, Note_on_c, 0, 64, 60
2, 162332, Note_off_c, 0, 67, 64
2, 162356, Note_on_c, 0, 74, 80
2, 162357, Note_on_c, 0, 70, 86
2, 162362, Note_on_c, 0, 54, 86
2, 162365, Note_off_c, 0, 71, 64
2, 162369, Note_off_c, 0, 64, 64
2, 162371, Control_c, 0, 64, 0
2, 162408, Note_off_c, 0, 54, 64
2, 162409, Note_on_c, 0, 73, 67
2, 162413, Note_on_c, 0, 64, 74
2, 162418, Note_off_c, 0, 74, 64
2, 162430, Note_off_c, 0, 70, 64
2, 162458, Note_off_c, 0, 73, 64
2, 162471, Note_on_c, 0, 71, 75
2, 162471, Note_on_c, 0, 62, 66
2, 162475, Note_off_c, 0, 64, 64
2, 162500, Control_c, 0, 64, 127
2, 162527, Note_on_c, 0, 83, 69
2, 162527, Note_on_c, 0, 53, 67
2, 162543, Note_off_c, 0, 62, 64
2, 162561, Note_off_c, 0, 71, 64
2, 162575, Note_off_c, 0, 53, 64
2, 162580, Note_on_c, 0, 80, 73
2, 162586, Note_on_c, 0, 59, 73
2, 162590, Note_off_c, 0, 83, 64
2, 162632, Note_off_c, 0, 59, 64
2, 162637, Note_on_c, 0, 68, 78
2, 162640, Note_on_c, 0, 74, 68
2, 162647, Note_off_c, 0, 80, 64
2, 162678, Control_c, 0, 64, 0
2, 162685, Note_off_c, 0, 74, 64
2, 162686, Note_off_c, 0, 68, 64
2, 162688, Control_c, 0, 64, 127
2, 162693, Note_on_c, 0, 73, 81
2, 162698, Note_on_c, 0, 61, 49
2, 162729, Note_off_c, 0, 73, 64
2, 162732, Control_c, 0, 64, 0
2, 162740, Note_off_c, 0, 61, 64
2, 162745, Note_on_c, 0, 62, 69
2, 162749, Note_on_c, 0, 71, 52
2, 162806, Note_on_c, 0, 54, 68
2, 162807, Note_on_c, 0, 69, 82
2, 162811, Note_off_c, 0, 62, 64
2, 162815, Control_c, 0, 64, 127
2, 162821, Note_off_c, 0, 71, 64
2, 162860, Note_on_c, 0, 62, 64
2, 162862, Note_off_c, 0, 54, 64
2, 162863, Note_on_c, 0, 74, 71
2, 162867, Note_off_c, 0, 69, 64
2, 162924, Note_on_c, 0, 58, 82
2, 162928, Note_on_c, 0, 67, 82
2, 162943, Note_off_c, 0, 62, 64
2, 162946, Note_off_c, 0, 74, 64
2, 162973, Note_off_c, 0, 58, 64
2, 162978, Note_off_c, 0, 67, 64
2, 162982, Note_on_c, 0, 76, 75
2, 162983, Note_on_c, 0, 43, 64
2, 163037, Note_on_c, 0, 61, 90
2, 163042, Note_on_c, 0, 57, 75
2, 163044, Note_off_c, 0, 43, 64
2, 163049, Note_off_c, 0, 76, 64
2, 163080, Note_off_c, 0, 61, 64
2, 163085, Note_on_c, 0, 78, 76
2, 163085, Note_on_c, 0, 45, 70
2, 163096, Note_off_c, 0, 57, 64
2, 163106, Control_c, 0, 64, 0
2, 163115, Note_off_c, 0, 45, 64
2, 163145, Note_on_c, 0, 38, 80
2, 163150, Note_on_c, 0, 66, 88
2, 163159, Control_c, 0, 64, 127
2, 163190, Note_off_c, 0, 78, 64
2, 163202, Note_on_c, 0, 57, 74
2, 163203, Note_on_c, 0, 74, 64
2, 163211, Note_off_c, 0, 66, 64
2, 163211, Note_off_c, 0, 38, 64
2, 163226, Note_off_c, 0, 57, 64
2, 163247, Control_c, 0, 64, 0
2, 163256, Note_on_c, 0, 67, 66
2, 163261, Note_on_c, 0, 58, 90
2, 163290, Control_c, 0, 64, 127
2, 163299, Note_off_c, 0, 74, 64
2, 163310, Note_on_c, 0, 76, 64
2, 163312, Note_off_c, 0, 67, 64
2, 163322, Note_on_c, 0, 43, 55
2, 163325, Note_off_c, 0, 58, 64
2, 163353, Note_off_c, 0, 76, 64
2, 163374, Note_off_c, 0, 43, 64
2, 163374, Note_on_c, 0, 57, 71
2, 163375, Note_on_c, 0, 61, 84
2, 163410, Note_off_c, 0, 61, 64
2, 163426, Note_on_c, 0, 45, 63
2, 163428, Note_on_c, 0, 78, 76
2, 163431, Note_off_c, 0, 57, 64
2, 163453, Note_off_c, 0, 45, 64
2, 163475, Control_c, 0, 64, 0
2, 163486, Note_on_c, 0, 38, 75
2, 163489, Note_on_c, 0, 66, 84
2, 163521, Control_c, 0, 64, 127
2, 163524, Note_off_c, 0, 78, 64
2, 163538, Note_on_c, 0, 57, 73
2, 163542, Note_on_c, 0, 74, 64
2, 163549, Note_off_c, 0, 66, 64
2, 163552, Note_off_c, 0, 38, 64
2, 163564, Note_off_c, 0, 57, 64
2, 163600, Note_on_c, 0, 67, 48
2, 163601, Note_off_c, 0, 74, 64
2, 163605, Note_on_c, 0, 58, 80
2, 163648, Note_off_c, 0, 67, 64
2, 163652, Note_on_c, 0, 76, 60
2, 163659, Note_off_c, 0, 58, 64
2, 163661, Note_on_c, 0, 43, 64
2, 163669, Control_c, 0, 64, 0
2, 163687, Note_off_c, 0, 76, 64
2, 163697, Note_off_c, 0, 43, 64
2, 163710, Note_on_c, 0, 61, 75
2, 163711, Note_on_c, 0, 57, 61
2, 163749, Note_off_c, 0, 61, 64
2, 163763, Note_on_c, 0, 45, 62
2, 163765, Note_on_c, 0, 78, 66
2, 163769, Note_off_c, 0, 57, 64
2, 163777, Control_c, 0, 64, 127
2, 163790, Note_off_c, 0, 45, 64
2, 163820, Note_on_c, 0, 38, 71
2, 163822, Note_on_c, 0, 66, 76
2, 163839, Note_off_c, 0, 78, 64
2, 163859, Note_off_c, 0, 66, 64
2, 163873, Control_c, 0, 64, 0
2, 163876, Note_on_c, 0, 57, 75
2, 163878, Note_on_c, 0, 74, 58
2, 163886, Note_off_c, 0, 38, 64
2, 163895, Note_off_c, 0, 57, 64
2, 163934, Note_on_c, 0, 67, 53
2, 163936, Note_on_c, 0, 58, 76
2, 163949, Note_off_c, 0, 74, 64
2, 163983, Control_c, 0, 64, 127
2, 163990, Note_off_c, 0, 67, 64
2, 163991, Note_on_c, 0, 76, 50
2, 163994, Note_on_c, 0, 43, 60
2, 164000, Note_off_c, 0, 58, 64
2, 164037, Note_off_c, 0, 76, 64
2, 164049, Note_on_c, 0, 61, 68
2, 164053, Note_on_c, 0, 57, 38
2, 164059, Note_off_c, 0, 43, 64
2, 164089, Note_off_c, 0, 61, 64
2, 164104, Note_on_c, 0, 78, 52
2, 164106, Note_on_c, 0, 45, 48
2, 164113, Note_off_c, 0, 57, 64
2, 164132, Note_off_c, 0, 45, 64
2, 164157, Control_c, 0, 64, 0
2, 164164, Note_on_c, 0, 66, 57
2, 164170, Note_on_c, 0, 38, 54
2, 164200, Note_off_c, 0, 78, 64
2, 164207, Control_c, 0, 64, 127
2, 164222, Note_on_c, 0, 74, 43
2, 164226, Note_off_c, 0, 66, 64
2, 164231, Note_off_c, 0, 38, 64
2, 164232, Note_on_c, 0, 45, 46
2, 164266, Note_off_c, 0, 74, 64
2, 164275, Note_off_c, 0, 45, 64
2, 164280, Note_on_c, 0, 62, 49
2, 164280, Note_on_c, 0, 57, 36
2, 164327, Note_on_c, 0, 70, 55
2, 164337, Note_off_c, 0, 57, 64
2, 164338, Note_on_c, 0, 45, 52
2, 164386, Note_on_c, 0, 74, 58
2, 164390, Note_on_c, 0, 38, 50
2, 164400, Note_off_c, 0, 45, 64
2, 164420, Note_off_c, 0, 70, 64
2, 164440, Note_off_c, 0, 38, 64
2, 164443, Note_on_c, 0, 69, 58
2, 164443, Note_on_c, 0, 45, 58
2, 164448, Note_off_c, 0, 62, 64
2, 164464, Note_off_c, 0, 74, 64
2, 164488, Control_c, 0, 64, 0
2, 164496, Note_on_c, 0, 57, 43
2, 164497, Note_off_c, 0, 45, 64
2, 164501, Note_on_c, 0, 62, 70
2, 164515, Note_off_c, 0, 69, 64
2, 164548, Note_on_c, 0, 45, 61
2, 164552, Note_on_c, 0, 67, 64
2, 164553, Note_off_c, 0, 57, 64
2, 164562, Control_c, 0, 64, 127
2, 164602, Note_on_c, 0, 74, 68
2, 164613, Note_on_c, 0, 38, 40
2, 164615, Note_off_c, 0, 67, 64
2, 164618, Note_off_c, 0, 45, 64
2, 164658, Note_on_c, 0, 66, 72
2, 164663, Note_on_c, 0, 45, 63
2, 164667, Note_off_c, 0, 38, 64
2, 164674, Note_off_c, 0, 62, 64
2, 164698, Control_c, 0, 64, 0
2, 164711, Note_on_c, 0, 62, 76
2, 164713, Note_on_c, 0, 57, 51
2, 164724, Note_off_c, 0, 45, 64
2, 164730, Note_off_c, 0, 74, 64
2, 164732, Note_off_c, 0, 66, 64
2, 164737, Control_c, 0, 64, 127
2, 164760, Note_on_c, 0, 70, 76
2, 164765, Note_on_c, 0, 45, 68
2, 164772, Note_off_c, 0, 57, 64
2, 164817, Note_on_c, 0, 74, 78
2, 164825, Note_on_c, 0, 38, 70
2, 164839, Note_off_c, 0, 45, 64
2, 164839, Note_off_c, 0, 70, 64
2, 164844, Control_c, 0, 64, 0
2, 164870, Note_on_c, 0, 69, 72
2, 164874, Note_on_c, 0, 45, 70
2, 164880, Note_off_c, 0, 38, 64
2, 164887, Note_off_c, 0, 62, 64
2, 164910, Note_off_c, 0, 74, 64
2, 164924, Note_on_c, 0, 62, 79
2, 164928, Note_on_c, 0, 57, 76
2, 164933, Control_c, 0, 64, 127
2, 164940, Note_off_c, 0, 69, 64
2, 164945, Note_off_c, 0, 45, 64
2, 164977, Note_on_c, 0, 45, 72
2, 164980, Note_on_c, 0, 67, 86
2, 164984, Note_off_c, 0, 57, 64
2, 165033, Note_on_c, 0, 74, 87
2, 165040, Note_off_c, 0, 67, 64
2, 165042, Note_on_c, 0, 38, 80
2, 165052, Note_off_c, 0, 45, 64
2, 165071, Control_c, 0, 64, 0
2, 165082, Note_on_c, 0, 66, 99
2, 165087, Note_on_c, 0, 45, 72
2, 165094, Note_off_c, 0, 62, 64
2, 165100, Note_off_c, 0, 38, 64
2, 165121, Note_off_c, 0, 74, 64
2, 165136, Note_on_c, 0, 62, 96
2, 165139, Note_on_c, 0, 57, 89
2, 165146, Note_off_c, 0, 66, 64
2, 165152, Note_off_c, 0, 45, 64
2, 165184, Note_on_c, 0, 45, 70
2, 165188, Note_off_c, 0, 57, 64
2, 165188, Note_on_c, 0, 70, 95
2, 165242, Note_on_c, 0, 74, 95
2, 165245, Note_on_c, 0, 38, 91
2, 165250, Note_off_c, 0, 70, 64
2, 165256, Note_off_c, 0, 45, 64
2, 165270, Note_off_c, 0, 62, 64
2, 165291, Note_on_c, 0, 69, 89
2, 165295, Note_on_c, 0, 45, 88
2, 165300, Note_off_c, 0, 38, 64
2, 165300, Control_c, 0, 64, 127
2, 165307, Note_off_c, 0, 74, 64
2, 165311, Control_c, 0, 64, 0
2, 165344, Note_on_c, 0, 57, 88
2, 165346, Note_on_c, 0, 62, 98
2, 165355, Note_off_c, 0, 45, 64
2, 165357, Note_off_c, 0, 69, 64
2, 165391, Control_c, 0, 64, 127
2, 165397, Note_off_c, 0, 57, 64
2, 165397, Note_on_c, 0, 74, 94
2, 165398, Note_on_c, 0, 45, 84
2, 165410, Note_off_c, 0, 62, 64
2, 165465, Note_off_c, 0, 74, 64
2, 165475, Note_on_c, 0, 90, 101
2, 165475, Note_on_c, 0, 38, 92
2, 165480, Note_off_c, 0, 45, 64
2, 165554, Control_c, 0, 64, 0
2, 165584, Note_off_c, 0, 38, 64
2, 165585, Note_off_c, 0, 90, 64
2, 165796, Note_on_c, 0, 45, 77
2, 165827, Note_on_c, 0, 52, 66
2, 165840, Note_on_c, 0, 61, 80
2, 165852, Control_c, 0, 64, 127
2, 165856, Note_on_c, 0, 67, 82
2, 165876, Note_on_c, 0, 76, 80
2, 165892, Note_on_c, 0, 81, 96
2, 165938, Note_off_c, 0, 52, 64
2, 165940, Note_off_c, 0, 61, 64
2, 165940, Note_off_c, 0, 45, 64
2, 165964, Note_off_c, 0, 76, 64
2, 165966, Note_off_c, 0, 81, 64
2, 165967, Note_off_c, 0, 67, 64
2, 165974, Control_c, 0, 64, 0
2, 166153, Note_on_c, 0, 38, 92
2, 166155, Control_c, 0, 64, 127
2, 166180, Note_off_c, 0, 38, 64
2, 166252, Note_on_c, 0, 57, 76
2, 166257, Note_on_c, 0, 78, 88
2, 166257, Note_on_c, 0, 66, 81
2, 166260, Note_on_c, 0, 50, 78
2, 166262, Note_on_c, 0, 74, 92
2, 166262, Note_on_c, 0, 62, 81
2, 166380, Note_off_c, 0, 57, 64
2, 166383, Note_off_c, 0, 78, 64
2, 166390, Note_off_c, 0, 66, 64
2, 166392, Note_off_c, 0, 62, 64
2, 166392, Note_off_c, 0, 74, 64
2, 166393, Note_off_c, 0, 50, 64
2, 166431, Control_c, 0, 64, 0
2, 167802, Note_on_c, 0, 66, 28
2, 167802, Note_on_c, 0, 47, 40
2, 167811, Note_on_c, 0, 62, 24
2, 167812, Note_on_c, 0, 71, 26
2, 167812, Control_c, 0, 64, 127
2, 168049, Note_on_c, 0, 50, 48
2, 168080, Note_off_c, 0, 71, 64
2, 168217, Note_on_c, 0, 54, 39
2, 168226, Note_on_c, 0, 71, 28
2, 168239, Note_off_c, 0, 50, 64
2, 168251, Note_off_c, 0, 71, 64
2, 168277, Note_off_c, 0, 47, 64
2, 168354, Note_on_c, 0, 59, 48
2, 168357, Note_off_c, 0, 54, 64
2, 168366, Note_off_c, 0, 62, 64
2, 168431, Note_off_c, 0, 66, 64
2, 168511, Note_on_c, 0, 62, 55
2, 168533, Note_on_c, 0, 71, 37
2, 168536, Note_off_c, 0, 59, 64
2, 168541, Note_on_c, 0, 66, 24
2, 168546, Control_c, 0, 64, 0
2, 168625, Control_c, 0, 64, 127
2, 168703, Note_off_c, 0, 71, 64
2, 168804, Note_on_c, 0, 71, 48
2, 168829, Note_off_c, 0, 71, 64
2, 169014, Note_off_c, 0, 66, 64
2, 169070, Control_c, 0, 64, 0
2, 169075, Note_on_c, 0, 61, 51
2, 169087, Note_on_c, 0, 66, 25
2, 169093, Note_on_c, 0, 71, 35
2, 169120, Note_off_c, 0, 62, 64
2, 169147, Control_c, 0, 64, 127
2, 169260, Note_off_c, 0, 71, 64
2, 169383, Note_on_c, 0, 71, 34
2, 169408, Note_off_c, 0, 71, 64
2, 169493, Note_on_c, 0, 62, 33
2, 169508, Note_off_c, 0, 61, 64
2, 169589, Note_off_c, 0, 66, 64
2, 169678, Note_off_c, 0, 62, 64
2, 169698, Note_on_c, 0, 71, 35
2, 169706, Note_on_c, 0, 66, 26
2, 169706, Note_on_c, 0, 59, 38
2, 169715, Note_on_c, 0, 62, 24
2, 169722, Control_c, 0, 64, 0
2, 169800, Control_c, 0, 64, 127
2, 169911, Note_off_c, 0, 71, 64
2, 170017, Note_on_c, 0, 71, 36
2, 170042, Note_off_c, 0, 71, 64
2, 170257, Note_off_c, 0, 66, 64
2, 170259, Note_off_c, 0, 62, 64
2, 170340, Note_on_c, 0, 71, 28
2, 170343, Note_on_c, 0, 62, 29
2, 170352, Note_on_c, 0, 66, 28
2, 170502, Note_off_c, 0, 71, 64
2, 170638, Note_on_c, 0, 54, 29
2, 170643, Note_on_c, 0, 71, 31
2, 170668, Note_off_c, 0, 71, 64
2, 170670, Note_off_c, 0, 59, 64
2, 170840, Note_off_c, 0, 62, 64
2, 170843, Note_off_c, 0, 66, 64
2, 170907, Note_on_c, 0, 50, 34
2, 170926, Note_off_c, 0, 54, 64
2, 170928, Note_on_c, 0, 71, 24
2, 170929, Note_on_c, 0, 62, 28
2, 170935, Note_on_c, 0, 66, 22
2, 171086, Note_off_c, 0, 71, 64
2, 171182, Note_on_c, 0, 49, 22
2, 171190, Note_off_c, 0, 50, 64
2, 171196, Note_on_c, 0, 71, 28
2, 171221, Note_off_c, 0, 71, 64
2, 171374, Note_off_c, 0, 62, 64
2, 171379, Note_off_c, 0, 66, 64
2, 171470, Control_c, 0, 64, 0
2, 171485, Note_on_c, 0, 71, 34
2, 171489, Note_on_c, 0, 66, 41
2, 171493, Note_off_c, 0, 49, 64
2, 171495, Note_on_c, 0, 47, 44
2, 171501, Note_on_c, 0, 62, 26
2, 171540, Control_c, 0, 64, 127
2, 171689, Note_on_c, 0, 54, 56
2, 171697, Note_off_c, 0, 71, 64
2, 171743, Note_off_c, 0, 66, 64
2, 171745, Note_off_c, 0, 62, 64
2, 171834, Note_off_c, 0, 47, 64
2, 171838, Note_on_c, 0, 59, 50
2, 171841, Note_off_c, 0, 54, 64
2, 171844, Note_on_c, 0, 71, 32
2, 171844, Note_on_c, 0, 66, 33
2, 171869, Note_off_c, 0, 71, 64
2, 171967, Note_off_c, 0, 66, 64
2, 171968, Note_on_c, 0, 62, 51
2, 171979, Note_off_c, 0, 59, 64
2, 172116, Note_on_c, 0, 74, 22
2, 172116, Control_c, 0, 64, 0
2, 172124, Note_on_c, 0, 71, 26
2, 172124, Note_on_c, 0, 66, 65
2, 172136, Note_off_c, 0, 62, 64
2, 172182, Control_c, 0, 64, 127
2, 172272, Note_off_c, 0, 74, 64
2, 172393, Note_on_c, 0, 74, 44
2, 172418, Note_off_c, 0, 74, 64
2, 172553, Note_off_c, 0, 71, 64
2, 172658, Control_c, 0, 64, 0
2, 172665, Note_on_c, 0, 64, 46
2, 172671, Note_on_c, 0, 74, 43
2, 172672, Note_on_c, 0, 71, 44
2, 172712, Note_off_c, 0, 66, 64
2, 172734, Control_c, 0, 64, 127
2, 172800, Note_off_c, 0, 74, 64
2, 172967, Note_on_c, 0, 74, 40
2, 172992, Note_off_c, 0, 74, 64
2, 173096, Note_off_c, 0, 71, 64
2, 173098, Note_on_c, 0, 66, 52
2, 173134, Note_off_c, 0, 64, 64
2, 173261, Note_off_c, 0, 66, 64
2, 173296, Note_on_c, 0, 74, 26
2, 173296, Note_on_c, 0, 71, 3
2, 173301, Note_on_c, 0, 66, 28
2, 173304, Note_on_c, 0, 62, 51
2, 173318, Control_c, 0, 64, 0
2, 173383, Note_off_c, 0, 74, 64
2, 173394, Control_c, 0, 64, 127
2, 173411, Note_off_c, 0, 71, 64
2, 173609, Note_on_c, 0, 74, 24
2, 173634, Note_off_c, 0, 74, 64
2, 173768, Note_off_c, 0, 66, 64
2, 173857, Note_on_c, 0, 66, 31
2, 173868, Note_on_c, 0, 71, 36
2, 173870, Note_on_c, 0, 74, 34
2, 174012, Note_off_c, 0, 62, 64
2, 174026, Note_off_c, 0, 74, 64
2, 174072, Note_off_c, 0, 71, 64
2, 174119, Note_on_c, 0, 59, 48
2, 174133, Note_on_c, 0, 74, 36
2, 174158, Note_off_c, 0, 74, 64
2, 174322, Note_off_c, 0, 66, 64
2, 174374, Note_on_c, 0, 54, 56
2, 174380, Note_on_c, 0, 66, 23
2, 174389, Note_on_c, 0, 71, 27
2, 174390, Note_on_c, 0, 74, 28
2, 174427, Note_off_c, 0, 59, 64
2, 174510, Note_off_c, 0, 74, 64
2, 174631, Note_on_c, 0, 50, 59
2, 174645, Note_off_c, 0, 54, 64
2, 174651, Note_on_c, 0, 74, 32
2, 174676, Note_off_c, 0, 74, 64
2, 174737, Note_off_c, 0, 66, 64
2, 174801, Note_off_c, 0, 71, 64
2, 174919, Note_off_c, 0, 50, 64
2, 174966, Note_on_c, 0, 71, 44
2, 174972, Note_on_c, 0, 43, 55
2, 174975, Note_on_c, 0, 74, 48
2, 174975, Note_on_c, 0, 67, 35
2, 174998, Control_c, 0, 64, 0
2, 175078, Control_c, 0, 64, 127
2, 175147, Note_on_c, 0, 50, 64
2, 175208, Note_off_c, 0, 74, 64
2, 175217, Note_off_c, 0, 71, 64
2, 175298, Note_off_c, 0, 43, 64
2, 175305, Note_on_c, 0, 71, 28
2, 175308, Note_on_c, 0, 59, 49
2, 175312, Note_off_c, 0, 50, 64
2, 175314, Note_on_c, 0, 74, 41
2, 175339, Note_off_c, 0, 74, 64
2, 175433, Note_on_c, 0, 62, 65
2, 175440, Note_off_c, 0, 59, 64
2, 175468, Note_off_c, 0, 67, 64
2, 175502, Note_off_c, 0, 71, 64
2, 175586, Control_c, 0, 64, 0
2, 175600, Note_on_c, 0, 67, 66
2, 175608, Note_on_c, 0, 74, 43
2, 175611, Note_on_c, 0, 71, 36
2, 175618, Note_off_c, 0, 62, 64
2, 175666, Control_c, 0, 64, 127
2, 175757, Note_off_c, 0, 74, 64
2, 175881, Note_on_c, 0, 74, 40
2, 175906, Note_off_c, 0, 74, 64
2, 176029, Note_off_c, 0, 71, 64
2, 176115, Control_c, 0, 64, 0
2, 176122, Note_on_c, 0, 66, 64
2, 176130, Note_on_c, 0, 71, 44
2, 176137, Note_on_c, 0, 74, 37
2, 176182, Note_off_c, 0, 67, 64
2, 176193, Control_c, 0, 64, 127
2, 176258, Note_off_c, 0, 74, 64
2, 176384, Note_on_c, 0, 74, 48
2, 176409, Note_off_c, 0, 74, 64
2, 176475, Note_off_c, 0, 71, 64
2, 176576, Note_off_c, 0, 66, 64
2, 176601, Control_c, 0, 64, 0
2, 176646, Note_on_c, 0, 66, 64
2, 176652, Note_on_c, 0, 68, 43
2, 176660, Note_on_c, 0, 71, 32
2, 176663, Note_on_c, 0, 74, 28
2, 176677, Control_c, 0, 64, 127
2, 176787, Note_off_c, 0, 74, 64
2, 176925, Note_on_c, 0, 74, 32
2, 176950, Note_off_c, 0, 74, 64
2, 177009, Note_off_c, 0, 71, 64
2, 177037, Note_off_c, 0, 68, 64
2, 177175, Control_c, 0, 64, 0
2, 177180, Note_on_c, 0, 65, 33
2, 177184, Note_on_c, 0, 71, 2
2, 177187, Note_on_c, 0, 73, 38
2, 177199, Note_on_c, 0, 68, 26
2, 177229, Note_off_c, 0, 66, 64
2, 177255, Control_c, 0, 64, 127
2, 177342, Note_off_c, 0, 73, 64
2, 177498, Note_on_c, 0, 73, 27
2, 177523, Note_off_c, 0, 73, 64
2, 177540, Note_off_c, 0, 71, 64
2, 177713, Note_off_c, 0, 68, 64
2, 177781, Control_c, 0, 64, 0
2, 177824, Note_on_c, 0, 73, 50
2, 177827, Note_on_c, 0, 70, 42
2, 177833, Note_on_c, 0, 67, 43
2, 177837, Note_off_c, 0, 65, 64
2, 177840, Note_on_c, 0, 64, 26
2, 177852, Control_c, 0, 64, 127
2, 178011, Note_off_c, 0, 70, 64
2, 178111, Note_off_c, 0, 73, 64
2, 178134, Note_on_c, 0, 62, 42
2, 178140, Note_on_c, 0, 74, 46
2, 178144, Note_on_c, 0, 71, 29
2, 178188, Note_off_c, 0, 64, 64
2, 178288, Note_off_c, 0, 71, 64
2, 178317, Note_off_c, 0, 67, 64
2, 178391, Control_c, 0, 64, 0
2, 178405, Note_off_c, 0, 74, 64
2, 178413, Note_on_c, 0, 76, 51
2, 178416, Note_on_c, 0, 70, 49
2, 178423, Note_on_c, 0, 67, 40
2, 178423, Note_on_c, 0, 61, 40
2, 178446, Note_off_c, 0, 62, 64
2, 178473, Control_c, 0, 64, 127
2, 178605, Note_off_c, 0, 67, 64
2, 178618, Note_off_c, 0, 70, 64
2, 178641, Note_on_c, 0, 64, 32
2, 178659, Note_off_c, 0, 61, 64
2, 178676, Note_on_c, 0, 62, 39
2, 178681, Note_on_c, 0, 71, 41
2, 178688, Note_on_c, 0, 67, 42
2, 178703, Note_off_c, 0, 64, 64
2, 178807, Control_c, 0, 64, 0
2, 178863, Note_off_c, 0, 71, 64
2, 178882, Note_off_c, 0, 67, 64
2, 178944, Note_on_c, 0, 61, 38
2, 178950, Note_on_c, 0, 70, 40
2, 178964, Note_on_c, 0, 67, 30
2, 178980, Note_off_c, 0, 62, 64
2, 178997, Control_c, 0, 64, 127
2, 179083, Note_off_c, 0, 76, 64
2, 179088, Note_off_c, 0, 67, 64
2, 179111, Note_off_c, 0, 70, 64
2, 179219, Note_on_c, 0, 78, 41
2, 179232, Note_on_c, 0, 66, 57
2, 179238, Note_on_c, 0, 58, 35
2, 179245, Note_on_c, 0, 73, 36
2, 179249, Control_c, 0, 64, 0
2, 179268, Note_off_c, 0, 61, 64
2, 179317, Control_c, 0, 64, 127
2, 179376, Note_off_c, 0, 78, 64
2, 179425, Note_off_c, 0, 66, 64
2, 179463, Note_off_c, 0, 73, 64
2, 179540, Note_on_c, 0, 71, 44
2, 179542, Note_on_c, 0, 66, 52
2, 179544, Note_on_c, 0, 76, 50
2, 179554, Note_on_c, 0, 59, 18
2, 179570, Note_off_c, 0, 58, 64
2, 179724, Note_on_c, 0, 74, 39
2, 179726, Note_off_c, 0, 76, 64
2, 179742, Note_off_c, 0, 71, 64
2, 179794, Note_off_c, 0, 66, 64
2, 179796, Note_off_c, 0, 74, 64
2, 179864, Note_on_c, 0, 74, 52
2, 179868, Note_on_c, 0, 66, 56
2, 179880, Note_on_c, 0, 50, 43
2, 179896, Note_on_c, 0, 73, 52
2, 179907, Note_off_c, 0, 59, 64
2, 179909, Note_off_c, 0, 74, 64
2, 179926, Control_c, 0, 64, 0
2, 180011, Control_c, 0, 64, 127
2, 180038, Note_on_c, 0, 71, 52
2, 180055, Note_off_c, 0, 73, 64
2, 180084, Note_off_c, 0, 71, 64
2, 180117, Note_off_c, 0, 66, 64
2, 180212, Note_on_c, 0, 61, 45
2, 180218, Note_on_c, 0, 70, 42
2, 180222, Note_on_c, 0, 67, 39
2, 180226, Note_on_c, 0, 52, 22
2, 180232, Note_off_c, 0, 50, 64
2, 180302, Control_c, 0, 64, 0
2, 180376, Control_c, 0, 64, 127
2, 180477, Note_off_c, 0, 67, 64
2, 180486, Note_off_c, 0, 70, 64
2, 180492, Note_off_c, 0, 61, 64
2, 180511, Note_on_c, 0, 71, 44
2, 180512, Note_on_c, 0, 68, 39
2, 180512, Note_on_c, 0, 62, 36
2, 180520, Note_on_c, 0, 53, 25
2, 180531, Note_off_c, 0, 52, 64
2, 180583, Control_c, 0, 64, 0
2, 180652, Control_c, 0, 64, 127
2, 180734, Note_off_c, 0, 71, 64
2, 180766, Note_off_c, 0, 68, 64
2, 180789, Note_off_c, 0, 62, 64
2, 180907, Note_on_c, 0, 71, 33
2, 180907, Note_on_c, 0, 62, 28
2, 180908, Note_on_c, 0, 54, 17
2, 180909, Note_on_c, 0, 74, 33
2, 180928, Note_off_c, 0, 53, 64
2, 180986, Control_c, 0, 64, 0
2, 181073, Control_c, 0, 64, 127
2, 181264, Note_off_c, 0, 74, 64
2, 181267, Note_off_c, 0, 62, 64
2, 181295, Note_off_c, 0, 71, 64
2, 181419, Note_on_c, 0, 61, 15
2, 181425, Note_on_c, 0, 70, 15
2, 181431, Note_on_c, 0, 73, 24
2, 181585, Control_c, 0, 64, 0
2, 181813, Note_on_c, 0, 50, 43
2, 181828, Note_off_c, 0, 54, 64
2, 181836, Note_off_c, 0, 61, 64
2, 181849, Note_off_c, 0, 73, 64
2, 181857, Note_off_c, 0, 70, 64
2, 182145, Note_on_c, 0, 49, 31
2, 182185, Note_off_c, 0, 50, 64
2, 182552, Note_on_c, 0, 71, 21
2, 182552, Note_on_c, 0, 47, 41
2, 182556, Note_on_c, 0, 66, 18
2, 182566, Note_on_c, 0, 62, 17
2, 182580, Control_c, 0, 64, 127
2, 182585, Note_off_c, 0, 49, 64
2, 182779, Note_on_c, 0, 50, 46
2, 182785, Note_off_c, 0, 71, 64
2, 182818, Note_off_c, 0, 66, 64
2, 182924, Note_on_c, 0, 54, 48
2, 182941, Note_on_c, 0, 71, 17
2, 182953, Note_off_c, 0, 50, 64
2, 182955, Note_off_c, 0, 47, 64
2, 182966, Note_off_c, 0, 71, 64
2, 183014, Note_off_c, 0, 62, 64
2, 183037, Note_off_c, 0, 54, 64
2, 183037, Note_on_c, 0, 59, 40
2, 183189, Note_on_c, 0, 62, 38
2, 183195, Note_on_c, 0, 66, 19
2, 183201, Note_on_c, 0, 71, 30
2, 183218, Note_off_c, 0, 59, 64
2, 183229, Control_c, 0, 64, 0
2, 183286, Control_c, 0, 64, 127
2, 183331, Note_off_c, 0, 71, 64
2, 183445, Note_off_c, 0, 66, 64
2, 183497, Note_on_c, 0, 71, 24
2, 183522, Note_off_c, 0, 71, 64
2, 183780, Note_on_c, 0, 66, 24
2, 183781, Note_on_c, 0, 61, 44
2, 183795, Note_on_c, 0, 71, 21
2, 183822, Note_off_c, 0, 62, 64
2, 183907, Note_off_c, 0, 71, 64
2, 184028, Note_off_c, 0, 66, 64
2, 184079, Note_on_c, 0, 71, 23
2, 184104, Note_off_c, 0, 71, 64
2, 184204, Note_on_c, 0, 62, 36
2, 184209, Note_off_c, 0, 61, 64
2, 184384, Control_c, 0, 64, 0
2, 184392, Note_on_c, 0, 59, 38
2, 184395, Note_off_c, 0, 62, 64
2, 184399, Note_on_c, 0, 71, 31
2, 184399, Note_on_c, 0, 66, 25
2, 184407, Note_on_c, 0, 62, 16
2, 184474, Control_c, 0, 64, 127
2, 184547, Note_off_c, 0, 71, 64
2, 184688, Note_on_c, 0, 71, 25
2, 184713, Note_off_c, 0, 71, 64
2, 184744, Note_off_c, 0, 66, 64
2, 184874, Note_off_c, 0, 62, 64
2, 184948, Note_on_c, 0, 71, 26
2, 184953, Note_on_c, 0, 66, 19
2, 184953, Note_on_c, 0, 62, 21
2, 185070, Note_off_c, 0, 71, 64
2, 185215, Note_on_c, 0, 54, 33
2, 185229, Note_on_c, 0, 71, 19
2, 185234, Note_off_c, 0, 59, 64
2, 185254, Note_off_c, 0, 71, 64
2, 185277, Note_off_c, 0, 66, 64
2, 185456, Note_off_c, 0, 54, 64
2, 185472, Note_on_c, 0, 66, 16
2, 185472, Note_on_c, 0, 50, 30
2, 185482, Note_on_c, 0, 71, 26
2, 185607, Note_off_c, 0, 71, 64
2, 185660, Note_off_c, 0, 62, 64
2, 185700, Note_off_c, 0, 66, 64
2, 185753, Note_on_c, 0, 47, 33
2, 185759, Note_on_c, 0, 71, 23
2, 185784, Note_off_c, 0, 71, 64
2, 185859, Note_off_c, 0, 50, 64
2, 186002, Note_off_c, 0, 47, 64
2, 186066, Control_c, 0, 64, 0
2, 186072, Note_on_c, 0, 67, 34
2, 186072, Note_on_c, 0, 43, 43
2, 186081, Note_on_c, 0, 62, 32
2, 186082, Note_on_c, 0, 71, 34
2, 186146, Control_c, 0, 64, 127
2, 186320, Note_on_c, 0, 50, 46
2, 186365, Note_off_c, 0, 67, 64
2, 186386, Note_off_c, 0, 71, 64
2, 186494, Note_on_c, 0, 55, 44
2, 186516, Note_on_c, 0, 71, 41
2, 186521, Note_off_c, 0, 50, 64
2, 186533, Note_off_c, 0, 43, 64
2, 186541, Note_off_c, 0, 71, 64
2, 186553, Note_off_c, 0, 62, 64
2, 186623, Note_on_c, 0, 59, 49
2, 186651, Note_off_c, 0, 55, 64
2, 186758, Note_on_c, 0, 62, 41
2, 186761, Control_c, 0, 64, 0
2, 186768, Note_on_c, 0, 67, 44
2, 186769, Note_on_c, 0, 71, 44
2, 186776, Note_off_c, 0, 59, 64
2, 186826, Control_c, 0, 64, 127
2, 186926, Note_off_c, 0, 71, 64
2, 186960, Note_off_c, 0, 67, 64
2, 187025, Note_on_c, 0, 71, 49
2, 187050, Note_off_c, 0, 71, 64
2, 187287, Note_on_c, 0, 64, 47
2, 187293, Note_on_c, 0, 71, 51
2, 187296, Note_on_c, 0, 67, 38
2, 187311, Note_off_c, 0, 62, 64
2, 187463, Note_off_c, 0, 71, 64
2, 187576, Note_on_c, 0, 65, 41
2, 187587, Note_on_c, 0, 71, 50
2, 187598, Note_off_c, 0, 64, 64
2, 187612, Note_off_c, 0, 71, 64
2, 187788, Note_off_c, 0, 67, 64
2, 187949, Control_c, 0, 64, 0
2, 187961, Note_on_c, 0, 72, 49
2, 187964, Note_on_c, 0, 67, 43
2, 187969, Note_on_c, 0, 64, 39
2, 187981, Note_off_c, 0, 65, 64
2, 188037, Control_c, 0, 64, 127
2, 188135, Note_off_c, 0, 72, 64
2, 188253, Note_on_c, 0, 72, 53
2, 188278, Note_off_c, 0, 72, 64
2, 188399, Note_off_c, 0, 67, 64
2, 188493, Note_off_c, 0, 64, 64
2, 188513, Note_on_c, 0, 72, 55
2, 188519, Note_on_c, 0, 67, 44
2, 188526, Note_on_c, 0, 64, 53
2, 188680, Note_off_c, 0, 72, 64
2, 188745, Control_c, 0, 64, 0
2, 188765, Note_on_c, 0, 60, 66
2, 188769, Note_on_c, 0, 72, 57
2, 188794, Note_off_c, 0, 72, 64
2, 188838, Control_c, 0, 64, 127
2, 188855, Note_off_c, 0, 67, 64
2, 189012, Note_on_c, 0, 67, 74
2, 189022, Note_on_c, 0, 55, 55
2, 189023, Note_on_c, 0, 72, 77
2, 189045, Note_off_c, 0, 60, 64
2, 189179, Note_off_c, 0, 72, 64
2, 189251, Note_off_c, 0, 67, 64
2, 189284, Note_on_c, 0, 72, 77
2, 189300, Note_on_c, 0, 48, 49
2, 189309, Note_off_c, 0, 72, 64
2, 189329, Note_off_c, 0, 55, 64
2, 189403, Note_off_c, 0, 48, 64
2, 189497, Note_off_c, 0, 64, 64
2, 189587, Control_c, 0, 64, 0
2, 189588, Note_on_c, 0, 67, 68
2, 189598, Note_on_c, 0, 36, 66
2, 189599, Note_on_c, 0, 72, 86
2, 189609, Note_on_c, 0, 64, 64
2, 189665, Control_c, 0, 64, 127
2, 189792, Note_off_c, 0, 72, 64
2, 189802, Note_on_c, 0, 43, 65
2, 189878, Note_off_c, 0, 67, 64
2, 189884, Note_off_c, 0, 64, 64
2, 189933, Note_off_c, 0, 36, 64
2, 189935, Note_on_c, 0, 72, 77
2, 189948, Note_on_c, 0, 52, 60
2, 189951, Note_off_c, 0, 43, 64
2, 189960, Note_off_c, 0, 72, 64
2, 190063, Note_off_c, 0, 52, 64
2, 190073, Note_on_c, 0, 55, 55
2, 190212, Note_on_c, 0, 67, 47
2, 190220, Note_on_c, 0, 72, 83
2, 190223, Control_c, 0, 64, 0
2, 190233, Note_on_c, 0, 64, 69
2, 190282, Control_c, 0, 64, 127
2, 190346, Note_off_c, 0, 72, 64
2, 190459, Note_off_c, 0, 67, 64
2, 190459, Note_on_c, 0, 72, 84
2, 190484, Note_off_c, 0, 72, 64
2, 190496, Note_off_c, 0, 64, 64
2, 190512, Note_off_c, 0, 55, 64
2, 190705, Control_c, 0, 64, 0
2, 190722, Note_on_c, 0, 72, 86
2, 190722, Note_on_c, 0, 36, 77
2, 190726, Note_on_c, 0, 67, 76
2, 190731, Note_on_c, 0, 64, 78
2, 190782, Control_c, 0, 64, 127
2, 190878, Note_on_c, 0, 43, 83
2, 190897, Note_off_c, 0, 72, 64
2, 190999, Note_off_c, 0, 67, 64
2, 191023, Note_off_c, 0, 36, 64
2, 191025, Note_on_c, 0, 72, 82
2, 191028, Note_on_c, 0, 52, 83
2, 191033, Note_off_c, 0, 43, 64
2, 191050, Note_off_c, 0, 72, 64
2, 191162, Note_on_c, 0, 55, 91
2, 191177, Note_off_c, 0, 52, 64
2, 191222, Note_off_c, 0, 64, 64
2, 191352, Note_on_c, 0, 67, 55
2, 191357, Note_on_c, 0, 64, 98
2, 191360, Control_c, 0, 64, 0
2, 191366, Note_on_c, 0, 72, 87
2, 191448, Control_c, 0, 64, 127
2, 191503, Note_off_c, 0, 55, 64
2, 191524, Note_off_c, 0, 72, 64
2, 191548, Note_off_c, 0, 67, 64
2, 191661, Note_on_c, 0, 72, 64
2, 191686, Note_off_c, 0, 72, 64
2, 191927, Note_on_c, 0, 67, 42
2, 191928, Note_on_c, 0, 72, 71
2, 192086, Note_off_c, 0, 72, 64
2, 192214, Note_on_c, 0, 72, 76
2, 192239, Note_off_c, 0, 72, 64
2, 192331, Note_off_c, 0, 67, 64
2, 192537, Note_on_c, 0, 67, 45
2, 192546, Note_on_c, 0, 71, 49
2, 192549, Control_c, 0, 64, 0
2, 192640, Control_c, 0, 64, 127
2, 192673, Note_off_c, 0, 64, 64
2, 192756, Note_off_c, 0, 71, 64
2, 192849, Note_on_c, 0, 71, 44
2, 192874, Note_off_c, 0, 71, 64
2, 192997, Note_off_c, 0, 67, 64
2, 193211, Note_on_c, 0, 61, 36
2, 193221, Note_on_c, 0, 70, 28
2, 193225, Note_on_c, 0, 52, 36
2, 193228, Note_on_c, 0, 67, 25
2, 193236, Control_c, 0, 64, 0
2, 193311, Control_c, 0, 64, 127
2, 193429, Note_off_c, 0, 70, 64
2, 193514, Note_on_c, 0, 70, 28
2, 193539, Note_off_c, 0, 70, 64
2, 193603, Note_off_c, 0, 67, 64
2, 193701, Note_off_c, 0, 61, 64
2, 193773, Note_on_c, 0, 70, 26
2, 193777, Note_on_c, 0, 61, 25
2, 193780, Note_on_c, 0, 66, 20
2, 193927, Note_off_c, 0, 70, 64
2, 193997, Control_c, 0, 64, 0
2, 194035, Note_on_c, 0, 54, 45
2, 194040, Note_on_c, 0, 70, 37
2, 194065, Note_off_c, 0, 70, 64
2, 194081, Control_c, 0, 64, 127
2, 194087, Note_off_c, 0, 52, 64
2, 194194, Note_off_c, 0, 66, 64
2, 194254, Note_off_c, 0, 61, 64
2, 194345, Note_on_c, 0, 71, 28
2, 194348, Note_on_c, 0, 52, 54
2, 194352, Note_off_c, 0, 54, 64
2, 194358, Note_on_c, 0, 66, 18
2, 194358, Note_on_c, 0, 62, 19
2, 194364, Control_c, 0, 64, 0
2, 194420, Control_c, 0, 64, 127
2, 194522, Note_on_c, 0, 50, 48
2, 194542, Note_off_c, 0, 71, 64
2, 194558, Note_off_c, 0, 52, 64
2, 194649, Note_on_c, 0, 71, 31
2, 194649, Note_on_c, 0, 49, 57
2, 194674, Note_off_c, 0, 71, 64
2, 194678, Note_off_c, 0, 50, 64
2, 194760, Note_off_c, 0, 62, 64
2, 194762, Note_on_c, 0, 47, 69
2, 194769, Note_off_c, 0, 66, 64
2, 194777, Note_off_c, 0, 49, 64
2, 194872, Control_c, 0, 64, 0
2, 194898, Note_on_c, 0, 71, 39
2, 194898, Note_on_c, 0, 61, 32
2, 194905, Note_on_c, 0, 67, 32
2, 194917, Note_on_c, 0, 52, 53
2, 194926, Note_off_c, 0, 47, 64
2, 194960, Control_c, 0, 64, 127
2, 195040, Note_off_c, 0, 71, 64
2, 195154, Note_on_c, 0, 71, 32
2, 195179, Note_off_c, 0, 71, 64
2, 195281, Note_off_c, 0, 67, 64
2, 195286, Note_off_c, 0, 61, 64
2, 195387, Note_on_c, 0, 70, 35
2, 195389, Note_on_c, 0, 61, 23
2, 195397, Note_on_c, 0, 67, 30
2, 195548, Note_off_c, 0, 70, 64
2, 195653, Note_on_c, 0, 54, 49
2, 195655, Note_on_c, 0, 70, 31
2, 195680, Note_off_c, 0, 70, 64
2, 195694, Note_off_c, 0, 52, 64
2, 195707, Control_c, 0, 64, 0
2, 195716, Note_off_c, 0, 67, 64
2, 195868, Note_off_c, 0, 61, 64
2, 195950, Note_on_c, 0, 71, 35
2, 195956, Note_on_c, 0, 62, 25
2, 195963, Note_off_c, 0, 54, 64
2, 195964, Note_on_c, 0, 67, 21
2, 195964, Note_on_c, 0, 52, 41
2, 195980, Control_c, 0, 64, 127
2, 196146, Note_on_c, 0, 50, 50
2, 196159, Note_off_c, 0, 71, 64
2, 196191, Note_off_c, 0, 52, 64
2, 196215, Note_off_c, 0, 67, 64
2, 196230, Note_off_c, 0, 62, 64
2, 196287, Note_on_c, 0, 49, 60
2, 196295, Note_on_c, 0, 71, 31
2, 196303, Note_off_c, 0, 50, 64
2, 196320, Note_off_c, 0, 71, 64
2, 196410, Note_off_c, 0, 49, 64
2, 196412, Note_on_c, 0, 47, 52
2, 196533, Control_c, 0, 64, 0
2, 196547, Note_on_c, 0, 45, 51
2, 196553, Note_on_c, 0, 71, 31
2, 196557, Note_on_c, 0, 67, 28
2, 196557, Note_on_c, 0, 62, 25
2, 196584, Note_off_c, 0, 47, 64
2, 196601, Control_c, 0, 64, 127
2, 196680, Note_on_c, 0, 43, 59
2, 196689, Note_off_c, 0, 45, 64
2, 196718, Note_off_c, 0, 71, 64
2, 196812, Note_on_c, 0, 38, 57
2, 196817, Note_on_c, 0, 71, 28
2, 196826, Note_off_c, 0, 43, 64
2, 196842, Note_off_c, 0, 71, 64
2, 196942, Note_on_c, 0, 40, 65
2, 196950, Note_off_c, 0, 38, 64
2, 196970, Note_off_c, 0, 62, 64
2, 196976, Note_off_c, 0, 67, 64
2, 197092, Control_c, 0, 64, 0
2, 197122, Note_on_c, 0, 61, 27
2, 197127, Note_on_c, 0, 66, 31
2, 197132, Note_on_c, 0, 71, 36
2, 197133, Note_on_c, 0, 42, 60
2, 197173, Note_off_c, 0, 40, 64
2, 197182, Control_c, 0, 64, 127
2, 197275, Note_off_c, 0, 71, 64
2, 197431, Note_on_c, 0, 71, 25
2, 197456, Note_off_c, 0, 71, 64
2, 197604, Note_off_c, 0, 66, 64
2, 197641, Note_off_c, 0, 61, 64
2, 197739, Note_on_c, 0, 70, 31
2, 197740, Control_c, 0, 64, 0
2, 197746, Note_on_c, 0, 61, 23
2, 197754, Note_on_c, 0, 64, 27
2, 197820, Control_c, 0, 64, 127
2, 197904, Note_off_c, 0, 70, 64
2, 198069, Note_on_c, 0, 70, 27
2, 198094, Note_off_c, 0, 70, 64
2, 198225, Note_off_c, 0, 64, 64
2, 198279, Note_off_c, 0, 61, 64
2, 198338, Control_c, 0, 64, 0
2, 198376, Note_on_c, 0, 43, 57
2, 198378, Note_on_c, 0, 70, 30
2, 198386, Note_on_c, 0, 64, 30
2, 198386, Note_on_c, 0, 61, 21
2, 198394, Note_off_c, 0, 42, 64
2, 198437, Control_c, 0, 64, 127
2, 198558, Note_off_c, 0, 70, 64
2, 198672, Note_on_c, 0, 70, 31
2, 198696, Note_off_c, 0, 64, 64
2, 198697, Note_off_c, 0, 70, 64
2, 198816, Note_off_c, 0, 61, 64
2, 198953, Note_on_c, 0, 59, 21
2, 198960, Note_on_c, 0, 71, 19
2, 198960, Note_on_c, 0, 62, 25
2, 198973, Control_c, 0, 64, 0
2, 199049, Control_c, 0, 64, 127
2, 199111, Note_off_c, 0, 71, 64
2, 199248, Note_on_c, 0, 71, 27
2, 199273, Note_off_c, 0, 71, 64
2, 199358, Note_off_c, 0, 62, 64
2, 199368, Note_off_c, 0, 59, 64
2, 199550, Control_c, 0, 64, 0
2, 199575, Note_on_c, 0, 55, 44
2, 199581, Note_on_c, 0, 71, 28
2, 199596, Note_off_c, 0, 43, 64
2, 199596, Note_on_c, 0, 67, 25
2, 199603, Note_on_c, 0, 62, 17
2, 199631, Control_c, 0, 64, 127
2, 199710, Note_off_c, 0, 71, 64
2, 199888, Note_on_c, 0, 71, 30
2, 199913, Note_off_c, 0, 71, 64
2, 200072, Note_off_c, 0, 67, 64
2, 200147, Note_off_c, 0, 62, 64
2, 200327, Control_c, 0, 64, 0
2, 200332, Note_on_c, 0, 52, 36
2, 200349, Note_on_c, 0, 61, 18
2, 200352, Note_on_c, 0, 71, 29
2, 200360, Note_on_c, 0, 67, 18
2, 200367, Note_off_c, 0, 55, 64
2, 200414, Control_c, 0, 64, 127
2, 200565, Note_off_c, 0, 71, 64
2, 200667, Note_on_c, 0, 71, 26
2, 200692, Note_off_c, 0, 71, 64
2, 200761, Note_off_c, 0, 67, 64
2, 200797, Note_off_c, 0, 61, 64
2, 200924, Note_on_c, 0, 70, 31
2, 200927, Note_on_c, 0, 61, 20
2, 200939, Note_on_c, 0, 67, 18
2, 201073, Note_off_c, 0, 70, 64
2, 201146, Control_c, 0, 64, 0
2, 201198, Note_on_c, 0, 70, 25
2, 201212, Note_on_c, 0, 54, 25
2, 201223, Note_off_c, 0, 70, 64
2, 201237, Note_off_c, 0, 52, 64
2, 201240, Control_c, 0, 64, 127
2, 201247, Note_off_c, 0, 67, 64
2, 201350, Note_off_c, 0, 61, 64
2, 201507, Note_on_c, 0, 71, 27
2, 201512, Note_off_c, 0, 54, 64
2, 201513, Note_on_c, 0, 52, 31
2, 201519, Note_on_c, 0, 66, 20
2, 201523, Note_on_c, 0, 62, 17
2, 201693, Note_on_c, 0, 50, 36
2, 201708, Note_off_c, 0, 71, 64
2, 201728, Note_off_c, 0, 52, 64
2, 201737, Note_off_c, 0, 66, 64
2, 201817, Note_on_c, 0, 49, 36
2, 201825, Note_on_c, 0, 71, 29
2, 201841, Note_off_c, 0, 50, 64
2, 201850, Note_off_c, 0, 71, 64
2, 201933, Note_off_c, 0, 62, 64
2, 201940, Note_on_c, 0, 47, 39
2, 201961, Note_off_c, 0, 49, 64
2, 202031, Control_c, 0, 64, 0
2, 202098, Note_on_c, 0, 71, 34
2, 202101, Note_on_c, 0, 61, 24
2, 202114, Note_on_c, 0, 67, 18
2, 202118, Note_on_c, 0, 52, 28
2, 202129, Note_off_c, 0, 47, 64
2, 202142, Control_c, 0, 64, 127
2, 202228, Note_off_c, 0, 71, 64
2, 202377, Note_on_c, 0, 71, 31
2, 202402, Note_off_c, 0, 71, 64
2, 202536, Note_off_c, 0, 67, 64
2, 202548, Note_off_c, 0, 61, 64
2, 202632, Note_on_c, 0, 67, 20
2, 202637, Note_on_c, 0, 61, 25
2, 202639, Note_on_c, 0, 70, 30
2, 202645, Control_c, 0, 64, 0
2, 202741, Control_c, 0, 64, 127
2, 202793, Note_off_c, 0, 70, 64
2, 202895, Note_on_c, 0, 70, 24
2, 202908, Note_on_c, 0, 54, 39
2, 202920, Note_off_c, 0, 70, 64
2, 202937, Note_off_c, 0, 67, 64
2, 202961, Note_off_c, 0, 52, 64
2, 203052, Note_off_c, 0, 61, 64
2, 203172, Control_c, 0, 64, 0
2, 203208, Note_on_c, 0, 71, 33
2, 203214, Note_off_c, 0, 54, 64
2, 203214, Note_on_c, 0, 52, 33
2, 203219, Note_on_c, 0, 67, 28
2, 203222, Note_on_c, 0, 62, 22
2, 203258, Control_c, 0, 64, 127
2, 203406, Note_on_c, 0, 50, 38
2, 203429, Note_off_c, 0, 71, 64
2, 203436, Note_off_c, 0, 52, 64
2, 203439, Note_off_c, 0, 67, 64
2, 203448, Note_off_c, 0, 62, 64
2, 203545, Note_on_c, 0, 71, 31
2, 203546, Note_on_c, 0, 49, 42
2, 203562, Note_off_c, 0, 50, 64
2, 203663, Note_off_c, 0, 49, 64
2, 203672, Note_on_c, 0, 47, 38
2, 203726, Note_off_c, 0, 71, 64
2, 203757, Control_c, 0, 64, 0
2, 203793, Note_on_c, 0, 45, 33
2, 203814, Note_on_c, 0, 71, 24
2, 203817, Note_on_c, 0, 67, 22
2, 203821, Note_on_c, 0, 62, 20
2, 203832, Note_off_c, 0, 47, 64
2, 203852, Control_c, 0, 64, 127
2, 203932, Note_on_c, 0, 43, 34
2, 203938, Note_off_c, 0, 45, 64
2, 203976, Note_off_c, 0, 71, 64
2, 203991, Note_off_c, 0, 67, 64
2, 203998, Note_off_c, 0, 62, 64
2, 204072, Note_on_c, 0, 38, 36
2, 204080, Note_on_c, 0, 71, 23
2, 204091, Note_off_c, 0, 43, 64
2, 204224, Note_off_c, 0, 38, 64
2, 204228, Note_on_c, 0, 40, 34
2, 204292, Note_off_c, 0, 71, 64
2, 204407, Control_c, 0, 64, 0
2, 204445, Note_on_c, 0, 61, 22
2, 204446, Note_on_c, 0, 42, 37
2, 204452, Note_on_c, 0, 71, 28
2, 204452, Note_on_c, 0, 66, 19
2, 204475, Note_off_c, 0, 40, 64
2, 204507, Control_c, 0, 64, 127
2, 204624, Note_off_c, 0, 71, 64
2, 204773, Note_off_c, 0, 66, 64
2, 204779, Note_off_c, 0, 61, 64
2, 204799, Note_on_c, 0, 71, 18
2, 204986, Note_off_c, 0, 71, 64
2, 205148, Control_c, 0, 64, 0
2, 205178, Note_on_c, 0, 70, 24
2, 205185, Note_on_c, 0, 66, 20
2, 205185, Note_on_c, 0, 61, 18
2, 205245, Control_c, 0, 64, 127
2, 205359, Note_off_c, 0, 70, 64
2, 205516, Note_off_c, 0, 66, 64
2, 205572, Note_off_c, 0, 61, 64
2, 205579, Note_on_c, 0, 70, 18
2, 205889, Note_off_c, 0, 70, 64
2, 205995, Control_c, 0, 64, 0
2, 206024, Note_on_c, 0, 35, 21
2, 206033, Note_on_c, 0, 66, 26
2, 206035, Note_on_c, 0, 62, 26
2, 206040, Note_on_c, 0, 71, 34
2, 206064, Note_off_c, 0, 42, 64
2, 206114, Control_c, 0, 64, 127
2, 206206, Note_off_c, 0, 71, 64
2, 206376, Note_on_c, 0, 71, 29
2, 206401, Note_off_c, 0, 71, 64
2, 206546, Note_off_c, 0, 62, 64
2, 206562, Note_off_c, 0, 66, 64
2, 206661, Note_on_c, 0, 66, 21
2, 206666, Note_on_c, 0, 62, 25
2, 206668, Note_on_c, 0, 71, 27
2, 206835, Note_off_c, 0, 71, 64
2, 206999, Note_on_c, 0, 71, 34
2, 207024, Note_off_c, 0, 71, 64
2, 207213, Note_off_c, 0, 66, 64
2, 207215, Note_off_c, 0, 62, 64
2, 207342, Control_c, 0, 64, 0
2, 207367, Note_on_c, 0, 66, 22
2, 207372, Note_on_c, 0, 62, 23
2, 207376, Note_on_c, 0, 69, 39
2, 207448, Control_c, 0, 64, 127
2, 207608, Note_off_c, 0, 69, 64
2, 207735, Note_on_c, 0, 69, 21
2, 207760, Note_off_c, 0, 69, 64
2, 207809, Note_off_c, 0, 66, 64
2, 207936, Note_off_c, 0, 62, 64
2, 208044, Note_off_c, 0, 35, 64
2, 208070, Note_on_c, 0, 66, 15
2, 208076, Note_on_c, 0, 62, 23
2, 208249, Note_on_c, 0, 47, 36
2, 208354, Note_off_c, 0, 66, 64
2, 208387, Note_on_c, 0, 54, 40
2, 208428, Note_on_c, 0, 66, 9
2, 208453, Note_off_c, 0, 66, 64
2, 208528, Note_off_c, 0, 47, 64
2, 208536, Note_on_c, 0, 59, 42
2, 208544, Note_off_c, 0, 54, 64
2, 208558, Note_off_c, 0, 62, 64
2, 208724, Note_on_c, 0, 62, 40
2, 208732, Control_c, 0, 64, 0
2, 208751, Note_on_c, 0, 66, 23
2, 208752, Note_off_c, 0, 59, 64
2, 208802, Control_c, 0, 64, 127
2, 208959, Note_off_c, 0, 66, 64
2, 209061, Note_on_c, 0, 66, 18
2, 209086, Note_off_c, 0, 66, 64
2, 209360, Control_c, 0, 64, 0
2, 209376, Note_on_c, 0, 61, 40
2, 209390, Note_on_c, 0, 66, 18
2, 209422, Note_off_c, 0, 62, 64
2, 209469, Control_c, 0, 64, 127
2, 209604, Note_off_c, 0, 66, 64
2, 209724, Note_on_c, 0, 66, 19
2, 209749, Note_off_c, 0, 66, 64
2, 209895, Note_on_c, 0, 62, 29
2, 209913, Note_off_c, 0, 61, 64
2, 210108, Control_c, 0, 64, 0
2, 210113, Note_off_c, 0, 62, 64
2, 210135, Note_on_c, 0, 66, 27
2, 210135, Note_on_c, 0, 59, 18
2, 210154, Note_on_c, 0, 62, 21
2, 210206, Control_c, 0, 64, 127
2, 210380, Note_off_c, 0, 66, 64
2, 210470, Note_on_c, 0, 66, 16
2, 210495, Note_off_c, 0, 66, 64
2, 210668, Note_off_c, 0, 62, 64
2, 210737, Note_on_c, 0, 66, 17
2, 210745, Note_on_c, 0, 62, 24
2, 210927, Note_off_c, 0, 66, 64
2, 211010, Note_on_c, 0, 54, 30
2, 211020, Control_c, 0, 64, 0
2, 211025, Note_on_c, 0, 66, 16
2, 211050, Note_off_c, 0, 66, 64
2, 211063, Note_off_c, 0, 59, 64
2, 211108, Control_c, 0, 64, 127
2, 211194, Note_off_c, 0, 62, 64
2, 211287, Note_on_c, 0, 66, 21
2, 211290, Note_on_c, 0, 62, 25
2, 211293, Note_on_c, 0, 50, 25
2, 211299, Note_off_c, 0, 54, 64
2, 211494, Note_off_c, 0, 66, 64
2, 211617, Note_on_c, 0, 49, 19
2, 211637, Note_off_c, 0, 50, 64
2, 211668, Note_on_c, 0, 66, 2
2, 211693, Note_off_c, 0, 66, 64
2, 211866, Note_off_c, 0, 62, 64
2, 211978, Note_on_c, 0, 66, 21
2, 211980, Note_on_c, 0, 47, 17
2, 211981, Note_on_c, 0, 62, 26
2, 212007, Note_off_c, 0, 49, 64
2, 212011, Control_c, 0, 64, 0
2, 212107, Control_c, 0, 64, 127
2, 212221, Note_off_c, 0, 66, 64
2, 212314, Note_on_c, 0, 66, 16
2, 212339, Note_off_c, 0, 66, 64
2, 212667, Note_off_c, 0, 62, 64
2, 212826, Control_c, 0, 64, 0
2, 213309, Note_on_c, 0, 66, 15
2, 213318, Note_on_c, 0, 62, 14
2, 213318, Control_c, 0, 64, 127
2, 213529, Note_off_c, 0, 66, 64
2, 213665, Note_on_c, 0, 66, 14
2, 213690, Note_off_c, 0, 66, 64
2, 213829, Note_off_c, 0, 62, 64
2, 213929, Control_c, 0, 64, 0
2, 214043, Note_on_c, 0, 66, 18
2, 214057, Note_on_c, 0, 62, 8
2, 214083, Control_c, 0, 64, 127
2, 214332, Note_off_c, 0, 66, 64
2, 214511, Note_on_c, 0, 66, 14
2, 214536, Note_off_c, 0, 66, 64
2, 214847, Note_off_c, 0, 62, 64
2, 214889, Control_c, 0, 64, 0
2, 214969, Note_off_c, 0, 47, 64
2, 215957, Control_c, 0, 64, 127
2, 216314, Note_on_c, 0, 64, 31
2, 216510, Control_c, 0, 64, 0
2, 216708, Note_on_c, 0, 73, 46
2, 216712, Control_c, 0, 64, 127
2, 216720, Note_on_c, 0, 40, 39
2, 216819, Note_off_c, 0, 64, 64
2, 216891, Note_off_c, 0, 40, 64
2, 217093, Note_on_c, 0, 74, 48
2, 217135, Note_off_c, 0, 73, 64
2, 217168, Note_on_c, 0, 64, 27
2, 217168, Note_on_c, 0, 62, 23
2, 217176, Note_on_c, 0, 68, 42
2, 217181, Note_on_c, 0, 71, 57
2, 217182, Note_off_c, 0, 74, 64
2, 217185, Note_on_c, 0, 52, 34
2, 217333, Note_off_c, 0, 52, 64
2, 217355, Note_off_c, 0, 62, 64
2, 217378, Note_off_c, 0, 64, 64
2, 217387, Note_off_c, 0, 68, 64
2, 217404, Note_off_c, 0, 71, 64
2, 217563, Note_on_c, 0, 71, 49
2, 217563, Note_on_c, 0, 62, 29
2, 217570, Note_on_c, 0, 68, 39
2, 217570, Note_on_c, 0, 64, 23
2, 217570, Note_on_c, 0, 52, 26
2, 217765, Note_off_c, 0, 62, 64
2, 217771, Note_off_c, 0, 52, 64
2, 217781, Note_off_c, 0, 64, 64
2, 217798, Note_off_c, 0, 68, 64
2, 217802, Note_off_c, 0, 71, 64
2, 218016, Note_on_c, 0, 64, 21
2, 218024, Note_on_c, 0, 71, 48
2, 218024, Note_on_c, 0, 62, 33
2, 218025, Note_on_c, 0, 68, 31
2, 218036, Note_on_c, 0, 52, 21
2, 218236, Note_off_c, 0, 62, 64
2, 218422, Note_off_c, 0, 68, 64
2, 218431, Note_off_c, 0, 71, 64
2, 218806, Note_off_c, 0, 64, 64
2, 218823, Note_on_c, 0, 78, 53
2, 218831, Note_on_c, 0, 74, 62
2, 218842, Note_off_c, 0, 52, 64
2, 219236, Control_c, 0, 64, 0
2, 219268, Note_on_c, 0, 75, 59
2, 219272, Note_on_c, 0, 45, 44
2, 219273, Note_on_c, 0, 72, 61
2, 219281, Note_off_c, 0, 74, 64
2, 219286, Note_off_c, 0, 78, 64
2, 219306, Control_c, 0, 64, 127
2, 219417, Note_off_c, 0, 45, 64
2, 219461, Note_off_c, 0, 75, 64
2, 219654, Note_off_c, 0, 72, 64
2, 219664, Note_on_c, 0, 76, 60
2, 219664, Note_on_c, 0, 73, 40
2, 219736, Note_on_c, 0, 64, 30
2, 219736, Note_on_c, 0, 57, 37
2, 219740, Note_on_c, 0, 81, 54
2, 219795, Note_off_c, 0, 76, 64
2, 219901, Note_off_c, 0, 81, 64
2, 219905, Note_off_c, 0, 57, 64
2, 219910, Note_off_c, 0, 64, 64
2, 220011, Note_off_c, 0, 73, 64
2, 220080, Note_on_c, 0, 81, 54
2, 220080, Note_on_c, 0, 73, 48
2, 220088, Note_on_c, 0, 57, 37
2, 220092, Note_on_c, 0, 64, 37
2, 220315, Note_off_c, 0, 81, 64
2, 220325, Note_off_c, 0, 64, 64
2, 220327, Note_off_c, 0, 73, 64
2, 220329, Note_off_c, 0, 57, 64
2, 220526, Note_on_c, 0, 73, 54
2, 220529, Note_on_c, 0, 64, 35
2, 220529, Note_on_c, 0, 57, 35
2, 220530, Note_on_c, 0, 81, 54
2, 220775, Note_off_c, 0, 81, 64
2, 220846, Note_off_c, 0, 73, 64
2, 221069, Note_off_c, 0, 64, 64
2, 221160, Note_off_c, 0, 57, 64
2, 221288, Note_on_c, 0, 73, 56
2, 221300, Note_on_c, 0, 64, 51
2, 221640, Control_c, 0, 64, 0
2, 221676, Note_off_c, 0, 73, 64
2, 221677, Note_on_c, 0, 61, 54
2, 221683, Note_on_c, 0, 40, 53
2, 221691, Note_off_c, 0, 64, 64
2, 221692, Note_on_c, 0, 70, 37
2, 221708, Control_c, 0, 64, 127
2, 221817, Note_off_c, 0, 40, 64
2, 221844, Note_off_c, 0, 61, 64
2, 221850, Note_off_c, 0, 70, 64
2, 222056, Note_on_c, 0, 71, 46
2, 222064, Note_on_c, 0, 62, 51
2, 222114, Note_on_c, 0, 52, 43
2, 222120, Note_on_c, 0, 66, 51
2, 222123, Note_on_c, 0, 59, 30
2, 222132, Note_on_c, 0, 74, 55
2, 222169, Note_off_c, 0, 71, 64
2, 222295, Note_off_c, 0, 52, 64
2, 222302, Note_off_c, 0, 59, 64
2, 222340, Note_off_c, 0, 74, 64
2, 222346, Note_off_c, 0, 66, 64
2, 222498, Note_on_c, 0, 74, 53
2, 222500, Note_on_c, 0, 66, 38
2, 222509, Note_on_c, 0, 59, 29
2, 222509, Note_on_c, 0, 52, 38
2, 222662, Note_off_c, 0, 52, 64
2, 222682, Note_off_c, 0, 59, 64
2, 222704, Note_off_c, 0, 74, 64
2, 222750, Note_off_c, 0, 66, 64
2, 222984, Note_on_c, 0, 74, 44
2, 222997, Note_on_c, 0, 66, 30
2, 223007, Note_on_c, 0, 52, 25
2, 223014, Note_on_c, 0, 59, 26
2, 223513, Note_off_c, 0, 74, 64
2, 223560, Note_off_c, 0, 66, 64
2, 223617, Note_off_c, 0, 62, 64
2, 223793, Note_on_c, 0, 62, 35
2, 223794, Note_on_c, 0, 68, 42
2, 223814, Note_off_c, 0, 59, 64
2, 223837, Note_off_c, 0, 52, 64
2, 224065, Note_off_c, 0, 68, 64
2, 224073, Note_off_c, 0, 62, 64
2, 224206, Control_c, 0, 64, 0
2, 224240, Note_on_c, 0, 68, 53
2, 224240, Note_on_c, 0, 62, 44
2, 224249, Note_on_c, 0, 33, 46
2, 224281, Control_c, 0, 64, 127
2, 224436, Note_off_c, 0, 33, 64
2, 224444, Note_off_c, 0, 62, 64
2, 224476, Note_off_c, 0, 68, 64
2, 224640, Note_on_c, 0, 69, 27
2, 224640, Note_on_c, 0, 61, 54
2, 224700, Note_on_c, 0, 64, 31
2, 224700, Note_on_c, 0, 57, 49
2, 224700, Note_on_c, 0, 52, 3
2, 224709, Note_off_c, 0, 69, 64
2, 224711, Note_on_c, 0, 73, 57
2, 224834, Note_off_c, 0, 52, 64
2, 224879, Note_off_c, 0, 64, 64
2, 224887, Note_off_c, 0, 57, 64
2, 224921, Note_off_c, 0, 73, 64
2, 225040, Note_off_c, 0, 61, 64
2, 225108, Note_on_c, 0, 61, 44
2, 225119, Note_on_c, 0, 73, 58
2, 225119, Note_on_c, 0, 57, 29
2, 225120, Note_on_c, 0, 64, 29
2, 225128, Note_on_c, 0, 52, 30
2, 225360, Note_off_c, 0, 52, 64
2, 225371, Note_off_c, 0, 57, 64
2, 225374, Note_off_c, 0, 73, 64
2, 225377, Note_off_c, 0, 64, 64
2, 225377, Note_off_c, 0, 61, 64
2, 225664, Note_on_c, 0, 73, 58
2, 225666, Note_on_c, 0, 61, 52
2, 225672, Note_on_c, 0, 64, 27
2, 225672, Note_on_c, 0, 57, 26
2, 225678, Note_on_c, 0, 52, 29
2, 226157, Note_off_c, 0, 64, 64
2, 226179, Note_off_c, 0, 61, 64
2, 226337, Note_off_c, 0, 73, 64
2, 226440, Note_off_c, 0, 57, 64
2, 226471, Note_on_c, 0, 64, 59
2, 226488, Note_off_c, 0, 52, 64
2, 226872, Note_on_c, 0, 73, 60
2, 226872, Note_on_c, 0, 40, 38
2, 226873, Note_on_c, 0, 68, 58
2, 226894, Control_c, 0, 64, 0
2, 226970, Control_c, 0, 64, 127
2, 227097, Note_off_c, 0, 40, 64
2, 227246, Note_off_c, 0, 64, 64
2, 227246, Note_on_c, 0, 74, 49
2, 227258, Note_off_c, 0, 68, 64
2, 227283, Note_off_c, 0, 73, 64
2, 227320, Note_on_c, 0, 68, 59
2, 227320, Note_on_c, 0, 62, 47
2, 227321, Note_on_c, 0, 71, 56
2, 227321, Note_on_c, 0, 64, 37
2, 227322, Note_on_c, 0, 52, 36
2, 227332, Note_off_c, 0, 74, 64
2, 227416, Control_c, 0, 64, 0
2, 227481, Control_c, 0, 64, 127
2, 227575, Note_off_c, 0, 52, 64
2, 227578, Note_off_c, 0, 64, 64
2, 227585, Note_off_c, 0, 71, 64
2, 227587, Note_off_c, 0, 62, 64
2, 227592, Note_off_c, 0, 68, 64
2, 227712, Note_on_c, 0, 71, 55
2, 227712, Note_on_c, 0, 68, 45
2, 227712, Note_on_c, 0, 52, 24
2, 227715, Note_on_c, 0, 62, 38
2, 227725, Note_on_c, 0, 64, 28
2, 227924, Note_off_c, 0, 52, 64
2, 227945, Note_off_c, 0, 62, 64
2, 227948, Note_off_c, 0, 68, 64
2, 227952, Note_off_c, 0, 64, 64
2, 227952, Note_off_c, 0, 71, 64
2, 228176, Note_on_c, 0, 64, 23
2, 228184, Note_on_c, 0, 62, 25
2, 228184, Note_on_c, 0, 52, 24
2, 228189, Note_on_c, 0, 71, 45
2, 228189, Note_on_c, 0, 68, 39
2, 228525, Note_off_c, 0, 62, 64
2, 228631, Note_off_c, 0, 68, 64
2, 228632, Note_off_c, 0, 71, 64
2, 229010, Note_off_c, 0, 64, 64
2, 229032, Note_off_c, 0, 52, 64
2, 229056, Note_on_c, 0, 78, 55
2, 229059, Note_on_c, 0, 74, 56
2, 229382, Control_c, 0, 64, 0
2, 229470, Note_on_c, 0, 45, 47
2, 229475, Note_on_c, 0, 75, 62
2, 229477, Note_on_c, 0, 72, 55
2, 229492, Note_off_c, 0, 78, 64
2, 229504, Note_off_c, 0, 74, 64
2, 229511, Control_c, 0, 64, 127
2, 229624, Note_off_c, 0, 72, 64
2, 229633, Note_off_c, 0, 45, 64
2, 229635, Note_off_c, 0, 75, 64
2, 229824, Note_on_c, 0, 76, 62
2, 229824, Note_on_c, 0, 73, 54
2, 229915, Note_on_c, 0, 85, 66
2, 229924, Note_on_c, 0, 64, 51
2, 229929, Note_on_c, 0, 57, 49
2, 229930, Note_on_c, 0, 81, 65
2, 229930, Note_on_c, 0, 69, 49
2, 229951, Control_c, 0, 64, 0
2, 230006, Control_c, 0, 64, 127
2, 230133, Note_off_c, 0, 81, 64
2, 230164, Note_off_c, 0, 85, 64
2, 230180, Note_off_c, 0, 64, 64
2, 230184, Note_off_c, 0, 57, 64
2, 230191, Note_off_c, 0, 76, 64
2, 230195, Note_off_c, 0, 73, 64
2, 230201, Note_off_c, 0, 69, 64
2, 230352, Note_on_c, 0, 81, 65
2, 230352, Note_on_c, 0, 76, 64
2, 230352, Note_on_c, 0, 73, 56
2, 230354, Note_on_c, 0, 57, 54
2, 230359, Note_on_c, 0, 85, 66
2, 230364, Note_on_c, 0, 69, 46
2, 230366, Note_on_c, 0, 64, 46
2, 230545, Note_off_c, 0, 81, 64
2, 230572, Note_off_c, 0, 57, 64
2, 230584, Note_off_c, 0, 64, 64
2, 230592, Note_off_c, 0, 69, 64
2, 230592, Note_off_c, 0, 76, 64
2, 230602, Note_off_c, 0, 85, 64
2, 230654, Note_off_c, 0, 73, 64
2, 230784, Note_on_c, 0, 54, 36
2, 230844, Note_on_c, 0, 61, 3
2, 230868, Note_on_c, 0, 64, 45
2, 230880, Note_on_c, 0, 66, 34
2, 230904, Note_on_c, 0, 70, 53
2, 230913, Note_on_c, 0, 73, 55
2, 230934, Note_on_c, 0, 76, 45
2, 230944, Note_on_c, 0, 82, 56
2, 230959, Note_on_c, 0, 85, 72
2, 230968, Control_c, 0, 64, 0
2, 231036, Control_c, 0, 64, 127
2, 231699, Note_off_c, 0, 76, 64
2, 231727, Note_off_c, 0, 82, 64
2, 231735, Note_off_c, 0, 85, 64
2, 231777, Note_off_c, 0, 73, 64
2, 231830, Note_off_c, 0, 70, 64
2, 231980, Note_off_c, 0, 61, 64
2, 232040, Note_on_c, 0, 70, 49
2, 232044, Note_off_c, 0, 66, 64
2, 232046, Note_on_c, 0, 73, 59
2, 232056, Note_off_c, 0, 64, 64
2, 232091, Note_off_c, 0, 54, 64
2, 232388, Note_off_c, 0, 73, 64
2, 232402, Note_off_c, 0, 70, 64
2, 232503, Control_c, 0, 64, 0
2, 232520, Note_on_c, 0, 35, 46
2, 232523, Note_on_c, 0, 70, 59
2, 232526, Note_on_c, 0, 73, 58
2, 232569, Control_c, 0, 64, 127
2, 232711, Note_off_c, 0, 35, 64
2, 232741, Note_off_c, 0, 73, 64
2, 232923, Note_on_c, 0, 71, 63
2, 232931, Note_on_c, 0, 74, 60
2, 232939, Note_off_c, 0, 70, 64
2, 232995, Note_on_c, 0, 54, 47
2, 233002, Note_on_c, 0, 78, 56
2, 233010, Note_on_c, 0, 62, 48
2, 233015, Control_c, 0, 64, 0
2, 233061, Note_off_c, 0, 74, 64
2, 233063, Control_c, 0, 64, 127
2, 233293, Note_off_c, 0, 62, 64
2, 233295, Note_off_c, 0, 54, 64
2, 233346, Note_off_c, 0, 78, 64
2, 233388, Note_off_c, 0, 71, 64
2, 233464, Note_on_c, 0, 78, 56
2, 233471, Note_on_c, 0, 69, 60
2, 233471, Note_on_c, 0, 54, 29
2, 233478, Note_on_c, 0, 59, 27
2, 233484, Note_on_c, 0, 62, 29
2, 233773, Note_off_c, 0, 59, 64
2, 233785, Note_off_c, 0, 54, 64
2, 233823, Note_off_c, 0, 62, 64
2, 233916, Note_off_c, 0, 78, 64
2, 233998, Note_off_c, 0, 69, 64
2, 234104, Note_on_c, 0, 78, 46
2, 234111, Note_on_c, 0, 68, 45
2, 234120, Note_on_c, 0, 59, 28
2, 234120, Note_on_c, 0, 52, 35
2, 234126, Note_on_c, 0, 62, 27
2, 234158, Control_c, 0, 64, 0
2, 234294, Control_c, 0, 64, 127
2, 234522, Note_off_c, 0, 78, 64
2, 234590, Note_off_c, 0, 68, 64
2, 234732, Note_off_c, 0, 62, 64
2, 234981, Note_off_c, 0, 59, 64
2, 235008, Note_on_c, 0, 62, 28
2, 235015, Note_on_c, 0, 68, 50
2, 235022, Note_off_c, 0, 52, 64
2, 235519, Note_off_c, 0, 62, 64
2, 235519, Control_c, 0, 64, 0
2, 235548, Note_on_c, 0, 62, 40
2, 235549, Note_on_c, 0, 71, 49
2, 235563, Note_on_c, 0, 33, 26
2, 235572, Note_off_c, 0, 68, 64
2, 235593, Control_c, 0, 64, 127
2, 235896, Note_off_c, 0, 33, 64
2, 235956, Note_on_c, 0, 61, 29
2, 235972, Note_on_c, 0, 69, 39
2, 235978, Note_off_c, 0, 62, 64
2, 235980, Note_off_c, 0, 71, 64
2, 236017, Note_off_c, 0, 61, 64
2, 236033, Note_off_c, 0, 69, 64
2, 236040, Note_on_c, 0, 69, 60
2, 236160, Note_on_c, 0, 81, 48
2, 236160, Note_on_c, 0, 64, 37
2, 236160, Note_on_c, 0, 57, 49
2, 236171, Note_on_c, 0, 73, 48
2, 236635, Note_off_c, 0, 57, 64
2, 236639, Note_off_c, 0, 64, 64
2, 236647, Note_off_c, 0, 81, 64
2, 236660, Note_off_c, 0, 73, 64
2, 236844, Note_on_c, 0, 81, 34
2, 236849, Note_on_c, 0, 64, 29
2, 236854, Note_on_c, 0, 73, 34
2, 236854, Note_on_c, 0, 57, 37
2, 237480, Note_off_c, 0, 81, 64
2, 237487, Note_off_c, 0, 73, 64
2, 237551, Note_off_c, 0, 57, 64
2, 237572, Note_off_c, 0, 64, 64
2, 237888, Note_off_c, 0, 69, 64
2, 238047, Note_on_c, 0, 69, 29
2, 238055, Note_on_c, 0, 73, 28
2, 238055, Note_on_c, 0, 57, 29
2, 238060, Note_on_c, 0, 64, 29
2, 238064, Note_on_c, 0, 81, 22
2, 239446, Note_off_c, 0, 81, 64
2, 239461, Note_off_c, 0, 73, 64
2, 239475, Note_off_c, 0, 64, 64
2, 239483, Note_off_c, 0, 57, 64
2, 239490, Note_off_c, 0, 69, 64
2, 240304, Note_on_c, 0, 61, 39
2, 240304, Note_on_c, 0, 57, 21
2, 240334, Control_c, 0, 64, 127
2, 240376, Note_on_c, 0, 73, 40
2, 240389, Note_on_c, 0, 49, 16
2, 240420, Note_on_c, 0, 68, 33
2, 240439, Note_on_c, 0, 54, 31
2, 240451, Note_off_c, 0, 73, 64
2, 240461, Note_off_c, 0, 68, 64
2, 240462, Note_on_c, 0, 71, 27
2, 240485, Note_on_c, 0, 42, 44
2, 240493, Note_on_c, 0, 69, 32
2, 240500, Note_off_c, 0, 49, 64
2, 240513, Note_off_c, 0, 71, 64
2, 240528, Note_on_c, 0, 66, 37
2, 240543, Note_off_c, 0, 61, 64
2, 240556, Note_on_c, 0, 62, 36
2, 240575, Note_off_c, 0, 69, 64
2, 240580, Note_off_c, 0, 66, 64
2, 240590, Note_off_c, 0, 54, 64
2, 240596, Note_on_c, 0, 74, 43
2, 240615, Note_off_c, 0, 42, 64
2, 240624, Note_off_c, 0, 57, 64
2, 240627, Control_c, 0, 64, 0
2, 240633, Note_off_c, 0, 74, 64
2, 240645, Note_on_c, 0, 57, 48
2, 240646, Note_on_c, 0, 61, 65
2, 240652, Note_off_c, 0, 62, 64
2, 240684, Control_c, 0, 64, 127
2, 240711, Note_on_c, 0, 73, 44
2, 240723, Note_on_c, 0, 49, 24
2, 240756, Note_on_c, 0, 68, 39
2, 240771, Note_on_c, 0, 54, 28
2, 240795, Note_off_c, 0, 49, 64
2, 240797, Note_on_c, 0, 71, 36
2, 240799, Note_off_c, 0, 68, 64
2, 240819, Note_on_c, 0, 45, 36
2, 240832, Note_on_c, 0, 69, 40
2, 240843, Note_off_c, 0, 73, 64
2, 240846, Note_off_c, 0, 71, 64
2, 240871, Note_on_c, 0, 68, 33
2, 240887, Note_off_c, 0, 69, 64
2, 240910, Note_on_c, 0, 66, 63
2, 240918, Note_off_c, 0, 68, 64
2, 240920, Note_off_c, 0, 54, 64
2, 240936, Note_off_c, 0, 61, 64
2, 240949, Note_off_c, 0, 45, 64
2, 240949, Note_on_c, 0, 78, 32
2, 240965, Note_off_c, 0, 57, 64
2, 240982, Note_off_c, 0, 66, 64
2, 240995, Note_off_c, 0, 78, 64
2, 240997, Control_c, 0, 64, 0
2, 241003, Note_on_c, 0, 62, 39
2, 241005, Note_on_c, 0, 66, 64
2, 241045, Note_on_c, 0, 78, 30
2, 241061, Note_on_c, 0, 56, 37
2, 241093, Note_on_c, 0, 70, 44
2, 241108, Note_on_c, 0, 59, 28
2, 241114, Note_off_c, 0, 78, 64
2, 241131, Note_on_c, 0, 73, 40
2, 241140, Note_off_c, 0, 70, 64
2, 241145, Note_off_c, 0, 56, 64
2, 241161, Note_on_c, 0, 50, 26
2, 241170, Note_on_c, 0, 71, 34
2, 241199, Note_on_c, 0, 68, 43
2, 241208, Note_off_c, 0, 73, 64
2, 241230, Note_off_c, 0, 71, 64
2, 241237, Note_on_c, 0, 65, 45
2, 241242, Note_off_c, 0, 66, 64
2, 241267, Note_off_c, 0, 59, 64
2, 241283, Note_off_c, 0, 68, 64
2, 241286, Note_on_c, 0, 77, 36
2, 241294, Note_off_c, 0, 50, 64
2, 241314, Note_off_c, 0, 77, 64
2, 241323, Note_off_c, 0, 62, 64
2, 241339, Note_on_c, 0, 69, 58
2, 241342, Note_on_c, 0, 61, 47
2, 241344, Note_off_c, 0, 65, 64
2, 241388, Note_on_c, 0, 81, 36
2, 241406, Note_on_c, 0, 53, 26
2, 241432, Note_on_c, 0, 72, 46
2, 241436, Note_off_c, 0, 81, 64
2, 241460, Note_on_c, 0, 59, 31
2, 241464, Note_off_c, 0, 53, 64
2, 241475, Note_on_c, 0, 74, 43
2, 241488, Note_off_c, 0, 72, 64
2, 241516, Note_on_c, 0, 73, 48
2, 241516, Note_on_c, 0, 49, 36
2, 241530, Note_off_c, 0, 59, 64
2, 241543, Note_off_c, 0, 74, 64
2, 241557, Note_on_c, 0, 71, 38
2, 241571, Note_off_c, 0, 73, 64
2, 241578, Note_off_c, 0, 69, 64
2, 241599, Note_on_c, 0, 68, 56
2, 241636, Note_on_c, 0, 80, 41
2, 241643, Note_off_c, 0, 71, 64
2, 241649, Note_off_c, 0, 49, 64
2, 241662, Note_off_c, 0, 61, 64
2, 241672, Note_off_c, 0, 80, 64
2, 241704, Note_on_c, 0, 57, 24
2, 241707, Note_on_c, 0, 61, 56
2, 241730, Note_off_c, 0, 68, 64
2, 241762, Note_on_c, 0, 73, 44
2, 241776, Note_on_c, 0, 49, 33
2, 241807, Note_on_c, 0, 68, 32
2, 241842, Note_on_c, 0, 54, 16
2, 241846, Note_on_c, 0, 71, 40
2, 241855, Note_off_c, 0, 73, 64
2, 241858, Note_off_c, 0, 68, 64
2, 241890, Note_on_c, 0, 69, 42
2, 241894, Note_on_c, 0, 42, 45
2, 241896, Note_off_c, 0, 49, 64
2, 241905, Note_off_c, 0, 71, 64
2, 241922, Note_on_c, 0, 66, 45
2, 241946, Note_off_c, 0, 61, 64
2, 241955, Note_on_c, 0, 62, 36
2, 241979, Note_off_c, 0, 69, 64
2, 241988, Note_off_c, 0, 66, 64
2, 241991, Note_on_c, 0, 74, 44
2, 242014, Note_off_c, 0, 54, 64
2, 242024, Note_off_c, 0, 74, 64
2, 242024, Note_off_c, 0, 57, 64
2, 242027, Note_off_c, 0, 42, 64
2, 242037, Note_on_c, 0, 57, 42
2, 242038, Note_on_c, 0, 61, 65
2, 242071, Note_off_c, 0, 62, 64
2, 242099, Note_on_c, 0, 73, 43
2, 242112, Note_on_c, 0, 49, 22
2, 242146, Note_on_c, 0, 68, 41
2, 242167, Note_on_c, 0, 54, 27
2, 242182, Note_on_c, 0, 71, 28
2, 242187, Note_off_c, 0, 68, 64
2, 242218, Note_on_c, 0, 69, 36
2, 242220, Note_off_c, 0, 49, 64
2, 242223, Note_on_c, 0, 45, 40
2, 242227, Note_off_c, 0, 73, 64
2, 242233, Note_off_c, 0, 71, 64
2, 242254, Note_on_c, 0, 68, 46
2, 242265, Note_off_c, 0, 69, 64
2, 242293, Note_on_c, 0, 66, 59
2, 242304, Note_off_c, 0, 68, 64
2, 242308, Note_off_c, 0, 54, 64
2, 242325, Note_on_c, 0, 78, 22
2, 242338, Note_off_c, 0, 61, 64
2, 242355, Note_off_c, 0, 66, 64
2, 242356, Note_off_c, 0, 45, 64
2, 242357, Note_off_c, 0, 57, 64
2, 242379, Note_off_c, 0, 78, 64
2, 242380, Note_on_c, 0, 66, 61
2, 242383, Note_on_c, 0, 62, 48
2, 242424, Note_on_c, 0, 78, 41
2, 242432, Note_on_c, 0, 56, 35
2, 242472, Note_on_c, 0, 70, 42
2, 242473, Note_on_c, 0, 59, 38
2, 242493, Note_off_c, 0, 78, 64
2, 242505, Note_on_c, 0, 73, 41
2, 242515, Note_off_c, 0, 56, 64
2, 242518, Note_off_c, 0, 70, 64
2, 242525, Note_on_c, 0, 50, 30
2, 242546, Note_on_c, 0, 71, 34
2, 242573, Note_on_c, 0, 68, 44
2, 242600, Note_off_c, 0, 73, 64
2, 242610, Note_off_c, 0, 66, 64
2, 242610, Note_on_c, 0, 65, 47
2, 242612, Note_off_c, 0, 71, 64
2, 242636, Note_off_c, 0, 59, 64
2, 242653, Note_on_c, 0, 77, 44
2, 242657, Note_off_c, 0, 68, 64
2, 242658, Note_off_c, 0, 50, 64
2, 242683, Note_off_c, 0, 77, 64
2, 242703, Note_off_c, 0, 62, 64
2, 242706, Note_on_c, 0, 69, 52
2, 242709, Note_on_c, 0, 61, 38
2, 242741, Note_off_c, 0, 65, 64
2, 242749, Note_on_c, 0, 81, 41
2, 242768, Note_on_c, 0, 53, 32
2, 242791, Note_off_c, 0, 81, 64
2, 242791, Note_on_c, 0, 72, 45
2, 242823, Note_on_c, 0, 59, 41
2, 242827, Note_off_c, 0, 53, 64
2, 242829, Note_on_c, 0, 74, 41
2, 242838, Note_off_c, 0, 72, 64
2, 242868, Note_on_c, 0, 73, 50
2, 242881, Note_on_c, 0, 49, 36
2, 242885, Note_off_c, 0, 74, 64
2, 242908, Note_on_c, 0, 71, 40
2, 242925, Note_off_c, 0, 73, 64
2, 242933, Note_off_c, 0, 69, 64
2, 242948, Note_off_c, 0, 59, 64
2, 242958, Note_on_c, 0, 68, 52
2, 242983, Note_off_c, 0, 71, 64
2, 242999, Note_on_c, 0, 80, 41
2, 243014, Note_off_c, 0, 49, 64
2, 243029, Note_off_c, 0, 61, 64
2, 243030, Note_off_c, 0, 80, 64
2, 243050, Note_on_c, 0, 69, 46
2, 243052, Note_on_c, 0, 73, 80
2, 243111, Note_off_c, 0, 68, 64
2, 243114, Note_on_c, 0, 85, 57
2, 243133, Note_on_c, 0, 63, 48
2, 243152, Note_on_c, 0, 80, 52
2, 243179, Note_on_c, 0, 66, 38
2, 243181, Note_off_c, 0, 85, 64
2, 243186, Note_on_c, 0, 83, 41
2, 243192, Note_off_c, 0, 80, 64
2, 243222, Note_on_c, 0, 81, 54
2, 243228, Note_on_c, 0, 57, 52
2, 243237, Note_off_c, 0, 63, 64
2, 243239, Note_off_c, 0, 83, 64
2, 243263, Note_on_c, 0, 78, 54
2, 243297, Note_on_c, 0, 75, 74
2, 243305, Note_off_c, 0, 81, 64
2, 243311, Note_off_c, 0, 78, 64
2, 243332, Note_on_c, 0, 87, 58
2, 243339, Note_off_c, 0, 66, 64
2, 243342, Note_off_c, 0, 73, 64
2, 243361, Note_off_c, 0, 57, 64
2, 243366, Note_off_c, 0, 87, 64
2, 243370, Note_off_c, 0, 69, 64
2, 243388, Note_on_c, 0, 68, 56
2, 243391, Note_on_c, 0, 73, 77
2, 243397, Note_off_c, 0, 75, 64
2, 243424, Note_on_c, 0, 85, 45
2, 243454, Note_on_c, 0, 63, 28
2, 243478, Note_on_c, 0, 77, 41
2, 243501, Note_on_c, 0, 66, 38
2, 243503, Note_off_c, 0, 63, 64
2, 243519, Note_off_c, 0, 77, 64
2, 243519, Note_on_c, 0, 80, 56
2, 243550, Note_off_c, 0, 85, 64
2, 243557, Note_on_c, 0, 78, 43
2, 243560, Note_on_c, 0, 56, 38
2, 243594, Note_on_c, 0, 75, 52
2, 243609, Note_off_c, 0, 80, 64
2, 243630, Note_off_c, 0, 73, 64
2, 243634, Note_on_c, 0, 72, 47
2, 243637, Note_off_c, 0, 66, 64
2, 243662, Note_off_c, 0, 78, 64
2, 243666, Note_off_c, 0, 75, 64
2, 243673, Note_on_c, 0, 84, 56
2, 243693, Note_off_c, 0, 56, 64
2, 243705, Note_off_c, 0, 84, 64
2, 243708, Note_off_c, 0, 68, 64
2, 243720, Note_on_c, 0, 71, 77
2, 243720, Note_on_c, 0, 67, 57
2, 243726, Note_off_c, 0, 72, 64
2, 243773, Note_on_c, 0, 83, 53
2, 243773, Note_on_c, 0, 61, 47
2, 243804, Note_on_c, 0, 78, 55
2, 243827, Note_on_c, 0, 64, 36
2, 243835, Note_off_c, 0, 83, 64
2, 243838, Note_on_c, 0, 81, 48
2, 243843, Note_off_c, 0, 61, 64
2, 243851, Note_off_c, 0, 78, 64
2, 243873, Note_on_c, 0, 79, 52
2, 243883, Note_on_c, 0, 55, 42
2, 243905, Note_on_c, 0, 76, 48
2, 243911, Note_off_c, 0, 81, 64
2, 243915, Note_off_c, 0, 79, 64
2, 243942, Note_on_c, 0, 73, 77
2, 243959, Note_off_c, 0, 71, 64
2, 243960, Note_off_c, 0, 76, 64
2, 243976, Note_on_c, 0, 85, 48
2, 243985, Note_off_c, 0, 64, 64
2, 244016, Note_off_c, 0, 85, 64
2, 244016, Note_off_c, 0, 55, 64
2, 244033, Note_on_c, 0, 66, 60
2, 244038, Note_on_c, 0, 71, 67
2, 244040, Note_off_c, 0, 67, 64
2, 244042, Note_off_c, 0, 73, 64
2, 244086, Note_on_c, 0, 83, 56
2, 244095, Note_on_c, 0, 61, 30
2, 244132, Note_on_c, 0, 75, 34
2, 244133, Note_on_c, 0, 64, 52
2, 244150, Note_off_c, 0, 83, 64
2, 244154, Note_off_c, 0, 61, 64
2, 244164, Note_on_c, 0, 78, 36
2, 244174, Note_off_c, 0, 75, 64
2, 244182, Control_c, 0, 64, 127
2, 244190, Control_c, 0, 64, 0
2, 244195, Note_on_c, 0, 54, 28
2, 244202, Note_on_c, 0, 76, 56
2, 244237, Note_off_c, 0, 64, 64
2, 244241, Note_on_c, 0, 73, 56
2, 244244, Note_off_c, 0, 78, 64
2, 244261, Note_off_c, 0, 76, 64
2, 244275, Note_on_c, 0, 70, 60
2, 244277, Note_off_c, 0, 71, 64
2, 244289, Note_off_c, 0, 73, 64
2, 244306, Note_on_c, 0, 82, 52
2, 244333, Note_off_c, 0, 54, 64
2, 244353, Note_off_c, 0, 66, 64
2, 244355, Note_off_c, 0, 82, 64
2, 244359, Note_on_c, 0, 65, 41
2, 244362, Note_on_c, 0, 69, 63
2, 244385, Note_off_c, 0, 70, 64
2, 244412, Note_on_c, 0, 81, 51
2, 244421, Note_on_c, 0, 60, 45
2, 244449, Note_on_c, 0, 74, 48
2, 244474, Note_on_c, 0, 63, 32
2, 244486, Note_on_c, 0, 77, 46
2, 244490, Note_off_c, 0, 74, 64
2, 244511, Note_off_c, 0, 81, 64
2, 244518, Control_c, 0, 64, 127
2, 244525, Note_on_c, 0, 53, 46
2, 244527, Control_c, 0, 64, 0
2, 244530, Note_on_c, 0, 75, 45
2, 244534, Note_off_c, 0, 60, 64
2, 244553, Note_off_c, 0, 77, 64
2, 244567, Note_on_c, 0, 72, 36
2, 244592, Note_off_c, 0, 75, 64
2, 244606, Note_on_c, 0, 71, 53
2, 244629, Note_off_c, 0, 72, 64
2, 244638, Note_on_c, 0, 83, 43
2, 244652, Note_off_c, 0, 69, 64
2, 244658, Note_off_c, 0, 53, 64
2, 244668, Note_off_c, 0, 83, 64
2, 244679, Note_off_c, 0, 65, 64
2, 244689, Note_on_c, 0, 65, 49
2, 244691, Note_off_c, 0, 63, 64
2, 244696, Note_on_c, 0, 69, 56
2, 244734, Note_off_c, 0, 71, 64
2, 244740, Note_on_c, 0, 81, 37
2, 244754, Note_on_c, 0, 59, 39
2, 244782, Note_on_c, 0, 73, 36
2, 244793, Note_off_c, 0, 81, 64
2, 244802, Note_on_c, 0, 62, 38
2, 244820, Note_on_c, 0, 76, 43
2, 244826, Note_off_c, 0, 59, 64
2, 244827, Note_off_c, 0, 73, 64
2, 244857, Note_on_c, 0, 74, 47
2, 244859, Control_c, 0, 64, 127
2, 244866, Note_on_c, 0, 53, 38
2, 244869, Control_c, 0, 64, 0
2, 244876, Note_off_c, 0, 76, 64
2, 244892, Note_on_c, 0, 71, 38
2, 244908, Note_off_c, 0, 74, 64
2, 244925, Note_off_c, 0, 62, 64
2, 244927, Note_on_c, 0, 68, 54
2, 244935, Note_off_c, 0, 69, 64
2, 244956, Note_on_c, 0, 80, 46
2, 244992, Note_off_c, 0, 71, 64
2, 244999, Note_off_c, 0, 80, 64
2, 244999, Note_off_c, 0, 53, 64
2, 245009, Note_off_c, 0, 65, 64
2, 245014, Note_on_c, 0, 62, 44
2, 245016, Note_on_c, 0, 66, 67
2, 245052, Note_off_c, 0, 68, 64
2, 245062, Note_on_c, 0, 78, 42
2, 245080, Note_on_c, 0, 56, 33
2, 245104, Note_on_c, 0, 70, 43
2, 245125, Note_off_c, 0, 78, 64
2, 245135, Note_on_c, 0, 73, 46
2, 245136, Note_on_c, 0, 59, 34
2, 245146, Note_off_c, 0, 70, 64
2, 245170, Note_on_c, 0, 71, 30
2, 245190, Note_on_c, 0, 50, 37
2, 245204, Note_on_c, 0, 68, 42
2, 245214, Note_off_c, 0, 56, 64
2, 245233, Note_off_c, 0, 73, 64
2, 245236, Note_off_c, 0, 59, 64
2, 245241, Note_on_c, 0, 65, 35
2, 245255, Note_off_c, 0, 66, 64
2, 245280, Note_on_c, 0, 77, 43
2, 245281, Note_off_c, 0, 71, 64
2, 245284, Note_off_c, 0, 68, 64
2, 245305, Note_off_c, 0, 62, 64
2, 245321, Note_off_c, 0, 77, 64
2, 245323, Note_off_c, 0, 50, 64
2, 245336, Note_on_c, 0, 59, 41
2, 245339, Note_on_c, 0, 62, 59
2, 245371, Note_off_c, 0, 65, 64
2, 245389, Note_on_c, 0, 49, 34
2, 245391, Note_on_c, 0, 74, 21
2, 245425, Control_c, 0, 64, 127
2, 245430, Note_on_c, 0, 67, 36
2, 245433, Control_c, 0, 64, 0
2, 245441, Control_c, 0, 64, 127
2, 245448, Note_on_c, 0, 53, 28
2, 245469, Note_on_c, 0, 69, 37
2, 245476, Note_off_c, 0, 67, 64
2, 245497, Note_off_c, 0, 49, 64
2, 245506, Note_on_c, 0, 37, 51
2, 245526, Note_on_c, 0, 68, 30
2, 245533, Note_off_c, 0, 74, 64
2, 245535, Note_off_c, 0, 53, 64
2, 245554, Note_off_c, 0, 69, 64
2, 245576, Note_on_c, 0, 65, 30
2, 245641, Note_off_c, 0, 37, 64
2, 245648, Note_off_c, 0, 65, 64
2, 245648, Note_on_c, 0, 61, 46
2, 245656, Note_off_c, 0, 59, 64
2, 245662, Note_off_c, 0, 62, 64
2, 245701, Control_c, 0, 64, 0
2, 245706, Note_off_c, 0, 68, 64
2, 245724, Note_on_c, 0, 73, 21
2, 245766, Control_c, 0, 64, 127
2, 245768, Note_off_c, 0, 61, 64
2, 245776, Note_off_c, 0, 73, 64
2, 245776, Note_on_c, 0, 61, 50
2, 245784, Note_on_c, 0, 57, 45
2, 245828, Control_c, 0, 64, 0
2, 245890, Note_on_c, 0, 49, 35
2, 245894, Note_on_c, 0, 73, 46
2, 245898, Control_c, 0, 64, 127
2, 245906, Control_c, 0, 64, 0
2, 245914, Control_c, 0, 64, 127
2, 245932, Note_on_c, 0, 68, 43
2, 245932, Note_on_c, 0, 54, 26
2, 245948, Note_off_c, 0, 49, 64
2, 245959, Note_off_c, 0, 73, 64
2, 245966, Note_on_c, 0, 71, 41
2, 245973, Note_off_c, 0, 68, 64
2, 245976, Note_on_c, 0, 42, 36
2, 246003, Note_on_c, 0, 69, 36
2, 246015, Note_off_c, 0, 61, 64
2, 246022, Note_off_c, 0, 71, 64
2, 246024, Note_off_c, 0, 57, 64
2, 246029, Note_on_c, 0, 66, 40
2, 246057, Note_off_c, 0, 54, 64
2, 246060, Note_on_c, 0, 62, 45
2, 246063, Note_off_c, 0, 69, 64
2, 246071, Control_c, 0, 64, 0
2, 246076, Note_off_c, 0, 66, 64
2, 246087, Note_on_c, 0, 74, 41
2, 246109, Note_off_c, 0, 42, 64
2, 246113, Note_off_c, 0, 74, 64
2, 246139, Note_on_c, 0, 57, 45
2, 246143, Note_on_c, 0, 61, 65
2, 246160, Note_off_c, 0, 62, 64
2, 246199, Control_c, 0, 64, 127
2, 246206, Note_on_c, 0, 73, 44
2, 246215, Note_on_c, 0, 49, 26
2, 246253, Note_on_c, 0, 68, 36
2, 246265, Note_on_c, 0, 54, 30
2, 246282, Note_on_c, 0, 71, 35
2, 246283, Note_off_c, 0, 73, 64
2, 246291, Note_off_c, 0, 49, 64
2, 246292, Note_off_c, 0, 68, 64
2, 246320, Note_on_c, 0, 45, 40
2, 246330, Note_on_c, 0, 69, 22
2, 246344, Note_off_c, 0, 71, 64
2, 246368, Note_on_c, 0, 68, 36
2, 246372, Note_off_c, 0, 69, 64
2, 246393, Note_off_c, 0, 54, 64
2, 246407, Note_on_c, 0, 66, 64
2, 246410, Note_off_c, 0, 68, 64
2, 246432, Control_c, 0, 64, 0
2, 246433, Note_off_c, 0, 61, 64
2, 246441, Note_on_c, 0, 78, 47
2, 246453, Note_off_c, 0, 45, 64
2, 246459, Note_off_c, 0, 57, 64
2, 246460, Note_off_c, 0, 66, 64
2, 246486, Note_off_c, 0, 78, 64
2, 246496, Note_on_c, 0, 62, 41
2, 246498, Note_on_c, 0, 66, 65
2, 246518, Control_c, 0, 64, 127
2, 246525, Control_c, 0, 64, 0
2, 246534, Control_c, 0, 64, 127
2, 246539, Note_on_c, 0, 78, 42
2, 246545, Note_on_c, 0, 56, 40
2, 246583, Note_on_c, 0, 70, 35
2, 246600, Note_on_c, 0, 59, 30
2, 246608, Note_off_c, 0, 78, 64
2, 246616, Note_on_c, 0, 73, 41
2, 246626, Note_off_c, 0, 70, 64
2, 246635, Note_off_c, 0, 56, 64
2, 246649, Note_on_c, 0, 50, 34
2, 246655, Note_on_c, 0, 71, 44
2, 246694, Note_on_c, 0, 68, 43
2, 246708, Note_off_c, 0, 73, 64
2, 246729, Note_off_c, 0, 59, 64
2, 246729, Note_on_c, 0, 65, 48
2, 246733, Control_c, 0, 64, 0
2, 246751, Note_off_c, 0, 71, 64
2, 246756, Note_off_c, 0, 68, 64
2, 246771, Note_on_c, 0, 77, 44
2, 246778, Note_off_c, 0, 66, 64
2, 246782, Note_off_c, 0, 50, 64
2, 246798, Note_off_c, 0, 77, 64
2, 246816, Note_off_c, 0, 62, 64
2, 246822, Note_on_c, 0, 69, 59
2, 246826, Note_on_c, 0, 61, 44
2, 246859, Note_off_c, 0, 65, 64
2, 246862, Note_on_c, 0, 81, 40
2, 246884, Note_on_c, 0, 53, 38
2, 246907, Note_off_c, 0, 81, 64
2, 246910, Note_on_c, 0, 72, 49
2, 246944, Note_on_c, 0, 74, 44
2, 246952, Note_on_c, 0, 59, 36
2, 246953, Note_off_c, 0, 53, 64
2, 246957, Note_off_c, 0, 72, 64
2, 246989, Note_on_c, 0, 73, 49
2, 247002, Note_on_c, 0, 49, 41
2, 247006, Note_off_c, 0, 74, 64
2, 247026, Note_off_c, 0, 59, 64
2, 247037, Note_on_c, 0, 71, 44
2, 247047, Note_off_c, 0, 73, 64
2, 247074, Note_on_c, 0, 68, 56
2, 247101, Note_off_c, 0, 71, 64
2, 247112, Note_off_c, 0, 69, 64
2, 247114, Note_on_c, 0, 80, 43
2, 247135, Note_off_c, 0, 49, 64
2, 247138, Note_off_c, 0, 80, 64
2, 247146, Note_off_c, 0, 61, 64
2, 247174, Note_off_c, 0, 68, 64
2, 247179, Note_on_c, 0, 57, 43
2, 247182, Note_on_c, 0, 61, 62
2, 247229, Control_c, 0, 64, 127
2, 247238, Control_c, 0, 64, 0
2, 247242, Note_on_c, 0, 73, 41
2, 247244, Note_on_c, 0, 49, 42
2, 247284, Note_on_c, 0, 68, 42
2, 247294, Note_on_c, 0, 54, 36
2, 247312, Note_off_c, 0, 73, 64
2, 247314, Note_off_c, 0, 49, 64
2, 247322, Note_on_c, 0, 71, 40
2, 247324, Note_off_c, 0, 68, 64
2, 247356, Note_on_c, 0, 69, 41
2, 247359, Note_on_c, 0, 42, 28
2, 247377, Note_off_c, 0, 71, 64
2, 247392, Note_on_c, 0, 66, 32
2, 247408, Note_off_c, 0, 54, 64
2, 247446, Note_on_c, 0, 62, 49
2, 247454, Note_off_c, 0, 69, 64
2, 247460, Note_off_c, 0, 66, 64
2, 247472, Note_off_c, 0, 61, 64
2, 247485, Note_off_c, 0, 57, 64
2, 247485, Note_on_c, 0, 74, 43
2, 247492, Note_off_c, 0, 42, 64
2, 247521, Note_off_c, 0, 74, 64
2, 247540, Note_on_c, 0, 57, 46
2, 247544, Note_on_c, 0, 61, 66
2, 247546, Note_off_c, 0, 62, 64
2, 247598, Note_on_c, 0, 73, 43
2, 247602, Note_on_c, 0, 49, 27
2, 247640, Note_on_c, 0, 68, 44
2, 247655, Note_on_c, 0, 54, 30
2, 247675, Note_on_c, 0, 71, 41
2, 247678, Note_off_c, 0, 68, 64
2, 247687, Control_c, 0, 64, 127
2, 247694, Control_c, 0, 64, 0
2, 247700, Note_off_c, 0, 49, 64
2, 247713, Note_on_c, 0, 69, 35
2, 247720, Note_on_c, 0, 45, 34
2, 247722, Note_off_c, 0, 71, 64
2, 247724, Note_off_c, 0, 73, 64
2, 247725, Control_c, 0, 64, 127
2, 247761, Note_on_c, 0, 68, 33
2, 247762, Note_off_c, 0, 69, 64
2, 247790, Note_off_c, 0, 68, 64
2, 247798, Note_off_c, 0, 54, 64
2, 247802, Note_on_c, 0, 66, 63
2, 247834, Note_off_c, 0, 61, 64
2, 247842, Note_on_c, 0, 81, 36
2, 247853, Note_off_c, 0, 45, 64
2, 247860, Note_off_c, 0, 57, 64
2, 247876, Control_c, 0, 64, 0
2, 247902, Note_off_c, 0, 66, 64
2, 247903, Note_on_c, 0, 69, 58
2, 247904, Note_off_c, 0, 81, 64
2, 247908, Note_on_c, 0, 65, 48
2, 247953, Note_on_c, 0, 81, 40
2, 247963, Note_on_c, 0, 59, 41
2, 247997, Note_on_c, 0, 73, 43
2, 248008, Control_c, 0, 64, 127
2, 248016, Note_on_c, 0, 62, 28
2, 248016, Control_c, 0, 64, 0
2, 248021, Note_off_c, 0, 81, 64
2, 248030, Note_on_c, 0, 76, 39
2, 248036, Note_off_c, 0, 59, 64
2, 248039, Note_off_c, 0, 73, 64
2, 248062, Note_on_c, 0, 53, 34
2, 248068, Note_on_c, 0, 74, 46
2, 248088, Note_off_c, 0, 76, 64
2, 248110, Note_on_c, 0, 71, 42
2, 248154, Note_on_c, 0, 68, 58
2, 248171, Note_off_c, 0, 71, 64
2, 248175, Note_off_c, 0, 74, 64
2, 248189, Note_off_c, 0, 62, 64
2, 248192, Note_on_c, 0, 80, 40
2, 248193, Note_off_c, 0, 69, 64
2, 248195, Note_off_c, 0, 53, 64
2, 248222, Note_off_c, 0, 80, 64
2, 248228, Note_off_c, 0, 65, 64
2, 248248, Note_on_c, 0, 64, 48
2, 248251, Note_on_c, 0, 73, 61
2, 248284, Note_off_c, 0, 68, 64
2, 248299, Note_on_c, 0, 85, 40
2, 248306, Note_on_c, 0, 56, 28
2, 248342, Note_off_c, 0, 85, 64
2, 248342, Note_on_c, 0, 75, 45
2, 248364, Note_on_c, 0, 62, 18
2, 248373, Note_on_c, 0, 78, 45
2, 248379, Note_off_c, 0, 56, 64
2, 248381, Note_off_c, 0, 75, 64
2, 248404, Control_c, 0, 64, 127
2, 248411, Note_on_c, 0, 76, 43
2, 248413, Control_c, 0, 64, 0
2, 248422, Note_on_c, 0, 52, 22
2, 248446, Note_on_c, 0, 74, 42
2, 248490, Note_off_c, 0, 62, 64
2, 248494, Note_on_c, 0, 71, 45
2, 248521, Note_off_c, 0, 76, 64
2, 248522, Note_off_c, 0, 78, 64
2, 248524, Note_off_c, 0, 74, 64
2, 248540, Note_on_c, 0, 83, 41
2, 248541, Note_off_c, 0, 73, 64
2, 248555, Note_off_c, 0, 52, 64
2, 248563, Note_off_c, 0, 83, 64
2, 248568, Note_off_c, 0, 64, 64
2, 248614, Note_off_c, 0, 71, 64
2, 248614, Note_on_c, 0, 72, 48
2, 248615, Note_on_c, 0, 76, 66
2, 248678, Note_on_c, 0, 88, 58
2, 248698, Note_on_c, 0, 66, 30
2, 248725, Note_on_c, 0, 83, 52
2, 248744, Note_off_c, 0, 88, 64
2, 248749, Note_on_c, 0, 69, 54
2, 248756, Note_on_c, 0, 86, 54
2, 248761, Control_c, 0, 64, 127
2, 248764, Note_off_c, 0, 83, 64
2, 248769, Control_c, 0, 64, 0
2, 248785, Note_off_c, 0, 66, 64
2, 248791, Note_on_c, 0, 84, 49
2, 248793, Note_on_c, 0, 60, 57
2, 248806, Note_off_c, 0, 86, 64
2, 248835, Note_on_c, 0, 81, 55
2, 248844, Note_off_c, 0, 84, 64
2, 248871, Note_on_c, 0, 78, 79
2, 248882, Note_off_c, 0, 81, 64
2, 248910, Note_on_c, 0, 90, 60
2, 248915, Note_off_c, 0, 76, 64
2, 248926, Note_off_c, 0, 60, 64
2, 248934, Note_off_c, 0, 72, 64
2, 248935, Note_off_c, 0, 69, 64
2, 248951, Note_off_c, 0, 90, 64
2, 248960, Note_on_c, 0, 76, 74
2, 248968, Note_on_c, 0, 71, 62
2, 248971, Note_off_c, 0, 78, 64
2, 249012, Note_on_c, 0, 88, 52
2, 249019, Note_on_c, 0, 66, 43
2, 249049, Note_on_c, 0, 80, 45
2, 249066, Note_off_c, 0, 88, 64
2, 249070, Note_on_c, 0, 69, 40
2, 249083, Note_on_c, 0, 83, 43
2, 249093, Note_off_c, 0, 80, 64
2, 249093, Note_off_c, 0, 66, 64
2, 249118, Note_on_c, 0, 59, 47
2, 249118, Control_c, 0, 64, 127
2, 249122, Note_on_c, 0, 81, 28
2, 249128, Control_c, 0, 64, 0
2, 249138, Note_off_c, 0, 83, 64
2, 249167, Note_on_c, 0, 78, 44
2, 249171, Note_off_c, 0, 81, 64
2, 249197, Note_on_c, 0, 75, 77
2, 249206, Note_off_c, 0, 78, 64
2, 249226, Note_off_c, 0, 59, 64
2, 249235, Note_off_c, 0, 69, 64
2, 249236, Note_on_c, 0, 87, 54
2, 249250, Note_off_c, 0, 76, 64
2, 249285, Note_off_c, 0, 87, 64
2, 249288, Note_off_c, 0, 71, 64
2, 249289, Note_on_c, 0, 74, 73
2, 249291, Note_on_c, 0, 70, 67
2, 249297, Note_off_c, 0, 75, 64
2, 249337, Note_on_c, 0, 86, 57
2, 249345, Note_on_c, 0, 65, 48
2, 249377, Note_on_c, 0, 79, 55
2, 249400, Note_on_c, 0, 68, 52
2, 249410, Note_on_c, 0, 82, 48
2, 249412, Note_off_c, 0, 65, 64
2, 249420, Note_off_c, 0, 79, 64
2, 249447, Note_on_c, 0, 58, 53
2, 249451, Note_on_c, 0, 80, 65
2, 249483, Note_off_c, 0, 86, 64
2, 249489, Note_off_c, 0, 82, 64
2, 249492, Note_on_c, 0, 77, 52
2, 249530, Note_on_c, 0, 76, 71
2, 249547, Note_off_c, 0, 80, 64
2, 249565, Note_off_c, 0, 77, 64
2, 249571, Note_off_c, 0, 68, 64
2, 249571, Note_on_c, 0, 88, 45
2, 249579, Note_off_c, 0, 74, 64
2, 249580, Note_off_c, 0, 58, 64
2, 249606, Note_off_c, 0, 88, 64
2, 249611, Note_off_c, 0, 70, 64
2, 249624, Note_on_c, 0, 74, 73
2, 249625, Note_on_c, 0, 69, 53
2, 249630, Note_off_c, 0, 76, 64
2, 249670, Note_on_c, 0, 86, 46
2, 249675, Note_on_c, 0, 64, 52
2, 249711, Note_on_c, 0, 78, 56
2, 249732, Note_on_c, 0, 67, 22
2, 249735, Note_off_c, 0, 86, 64
2, 249737, Control_c, 0, 64, 127
2, 249743, Note_off_c, 0, 64, 64
2, 249745, Control_c, 0, 64, 0
2, 249748, Note_on_c, 0, 81, 45
2, 249751, Note_off_c, 0, 78, 64
2, 249783, Note_on_c, 0, 79, 61
2, 249788, Note_on_c, 0, 57, 36
2, 249797, Note_off_c, 0, 81, 64
2, 249814, Note_on_c, 0, 76, 56
2, 249825, Note_off_c, 0, 79, 64
2, 249852, Note_on_c, 0, 73, 74
2, 249867, Note_off_c, 0, 76, 64
2, 249878, Note_off_c, 0, 67, 64
2, 249883, Note_on_c, 0, 85, 54
2, 249914, Note_off_c, 0, 74, 64
2, 249921, Note_off_c, 0, 57, 64
2, 249932, Note_off_c, 0, 85, 64
2, 249939, Note_on_c, 0, 68, 49
2, 249942, Note_on_c, 0, 72, 60
2, 249945, Note_off_c, 0, 69, 64
2, 249952, Note_off_c, 0, 73, 64
2, 249982, Note_on_c, 0, 84, 44
2, 250006, Note_on_c, 0, 63, 38
2, 250018, Note_on_c, 0, 77, 46
2, 250050, Note_on_c, 0, 80, 42
2, 250057, Note_off_c, 0, 77, 64
2, 250064, Control_c, 0, 64, 127
2, 250067, Note_on_c, 0, 66, 38
2, 250072, Control_c, 0, 64, 0
2, 250078, Note_off_c, 0, 63, 64
2, 250095, Note_on_c, 0, 78, 56
2, 250097, Note_off_c, 0, 84, 64
2, 250106, Note_on_c, 0, 56, 40
2, 250124, Note_off_c, 0, 80, 64
2, 250133, Note_on_c, 0, 75, 43
2, 250154, Note_off_c, 0, 78, 64
2, 250175, Note_on_c, 0, 74, 55
2, 250178, Note_off_c, 0, 75, 64
2, 250214, Note_on_c, 0, 86, 45
2, 250225, Note_off_c, 0, 56, 64
2, 250232, Note_off_c, 0, 72, 64
2, 250245, Note_off_c, 0, 86, 64
2, 250255, Note_off_c, 0, 66, 64
2, 250259, Note_off_c, 0, 68, 64
2, 250265, Note_on_c, 0, 72, 64
2, 250267, Note_on_c, 0, 67, 47
2, 250275, Note_off_c, 0, 74, 64
2, 250308, Note_on_c, 0, 84, 28
2, 250326, Note_on_c, 0, 62, 41
2, 250351, Note_on_c, 0, 76, 46
2, 250374, Note_off_c, 0, 84, 64
2, 250384, Note_on_c, 0, 79, 32
2, 250389, Note_on_c, 0, 65, 22
2, 250398, Note_off_c, 0, 76, 64
2, 250404, Note_off_c, 0, 62, 64
2, 250415, Note_on_c, 0, 77, 47
2, 250439, Note_off_c, 0, 79, 64
2, 250447, Note_on_c, 0, 55, 40
2, 250456, Note_on_c, 0, 74, 44
2, 250498, Note_on_c, 0, 71, 56
2, 250506, Note_off_c, 0, 77, 64
2, 250511, Note_off_c, 0, 74, 64
2, 250529, Note_off_c, 0, 65, 64
2, 250535, Note_on_c, 0, 83, 36
2, 250555, Note_off_c, 0, 72, 64
2, 250573, Note_off_c, 0, 83, 64
2, 250578, Note_off_c, 0, 71, 64
2, 250580, Note_off_c, 0, 55, 64
2, 250587, Note_off_c, 0, 67, 64
2, 250588, Note_on_c, 0, 71, 57
2, 250591, Note_on_c, 0, 67, 40
2, 250634, Note_on_c, 0, 83, 40
2, 250661, Note_on_c, 0, 61, 23
2, 250684, Note_on_c, 0, 75, 18
2, 250712, Note_on_c, 0, 78, 40
2, 250719, Control_c, 0, 64, 127
2, 250720, Note_off_c, 0, 75, 64
2, 250726, Note_on_c, 0, 64, 22
2, 250727, Control_c, 0, 64, 0
2, 250747, Note_off_c, 0, 61, 64
2, 250757, Note_off_c, 0, 83, 64
2, 250757, Note_on_c, 0, 76, 42
2, 250783, Note_on_c, 0, 55, 39
2, 250800, Note_on_c, 0, 73, 39
2, 250804, Note_off_c, 0, 78, 64
2, 250838, Note_off_c, 0, 76, 64
2, 250843, Note_on_c, 0, 70, 51
2, 250875, Note_on_c, 0, 82, 45
2, 250878, Note_off_c, 0, 71, 64
2, 250879, Note_off_c, 0, 73, 64
2, 250882, Note_on_c, 0, 61, 1
2, 250911, Note_off_c, 0, 67, 64
2, 250916, Note_off_c, 0, 55, 64
2, 250923, Note_off_c, 0, 70, 64
2, 250927, Note_off_c, 0, 61, 64
2, 250927, Note_off_c, 0, 82, 64
2, 250928, Note_on_c, 0, 66, 45
2, 250938, Note_off_c, 0, 64, 64
2, 250938, Note_on_c, 0, 70, 56
2, 250973, Note_on_c, 0, 82, 40
2, 250990, Note_on_c, 0, 64, 15
2, 251011, Note_on_c, 0, 61, 39
2, 251022, Note_on_c, 0, 75, 35
2, 251029, Note_off_c, 0, 64, 64
2, 251055, Note_on_c, 0, 78, 39
2, 251059, Note_on_c, 0, 64, 36
2, 251066, Note_off_c, 0, 75, 64
2, 251087, Note_on_c, 0, 76, 32
2, 251096, Note_on_c, 0, 54, 32
2, 251111, Note_off_c, 0, 82, 64
2, 251127, Note_on_c, 0, 73, 31
2, 251138, Note_off_c, 0, 70, 64
2, 251149, Note_off_c, 0, 78, 64
2, 251165, Note_on_c, 0, 70, 49
2, 251173, Note_off_c, 0, 76, 64
2, 251184, Note_off_c, 0, 73, 64
2, 251195, Note_off_c, 0, 64, 64
2, 251199, Note_on_c, 0, 82, 41
2, 251209, Note_off_c, 0, 61, 64
2, 251226, Note_off_c, 0, 54, 64
2, 251233, Note_off_c, 0, 70, 64
2, 251248, Note_off_c, 0, 66, 64
2, 251267, Note_off_c, 0, 82, 64
2, 251270, Note_on_c, 0, 70, 78
2, 251274, Note_on_c, 0, 65, 37
2, 251315, Note_on_c, 0, 82, 25
2, 251344, Note_on_c, 0, 58, 38
2, 251374, Note_on_c, 0, 76, 35
2, 251390, Note_off_c, 0, 82, 64
2, 251395, Note_on_c, 0, 62, 36
2, 251400, Note_on_c, 0, 79, 40
2, 251402, Note_off_c, 0, 76, 64
2, 251435, Note_on_c, 0, 77, 41
2, 251440, Note_off_c, 0, 58, 64
2, 251447, Note_on_c, 0, 53, 34
2, 251459, Note_off_c, 0, 79, 64
2, 251466, Note_on_c, 0, 74, 31
2, 251508, Note_off_c, 0, 77, 64
2, 251508, Note_on_c, 0, 69, 39
2, 251529, Note_off_c, 0, 74, 64
2, 251541, Note_on_c, 0, 81, 40
2, 251556, Note_off_c, 0, 65, 64
2, 251560, Note_off_c, 0, 70, 64
2, 251561, Note_off_c, 0, 69, 64
2, 251572, Note_off_c, 0, 62, 64
2, 251581, Note_off_c, 0, 53, 64
2, 251582, Note_off_c, 0, 81, 64
2, 251587, Note_on_c, 0, 65, 52
2, 251589, Note_on_c, 0, 69, 60
2, 251628, Note_on_c, 0, 81, 43
2, 251641, Note_on_c, 0, 59, 40
2, 251673, Note_on_c, 0, 73, 24
2, 251690, Note_on_c, 0, 62, 30
2, 251693, Note_off_c, 0, 81, 64
2, 251704, Note_on_c, 0, 76, 42
2, 251711, Note_off_c, 0, 73, 64
2, 251727, Note_off_c, 0, 59, 64
2, 251733, Control_c, 0, 64, 127
2, 251740, Note_on_c, 0, 53, 35
2, 251741, Note_on_c, 0, 74, 34
2, 251743, Control_c, 0, 64, 0
2, 251777, Note_off_c, 0, 76, 64
2, 251778, Note_on_c, 0, 71, 48
2, 251801, Note_off_c, 0, 74, 64
2, 251813, Note_on_c, 0, 68, 66
2, 251829, Note_off_c, 0, 71, 64
2, 251851, Note_on_c, 0, 80, 47
2, 251858, Note_off_c, 0, 62, 64
2, 251873, Note_off_c, 0, 53, 64
2, 251879, Note_off_c, 0, 69, 64
2, 251883, Note_off_c, 0, 68, 64
2, 251886, Note_off_c, 0, 65, 64
2, 251901, Note_off_c, 0, 80, 64
2, 251904, Note_on_c, 0, 65, 53
2, 251905, Note_on_c, 0, 68, 77
2, 251947, Note_on_c, 0, 80, 56
2, 251956, Note_on_c, 0, 55, 2
2, 251994, Note_on_c, 0, 73, 42
2, 252019, Note_off_c, 0, 55, 64
2, 252030, Note_on_c, 0, 75, 52
2, 252032, Note_on_c, 0, 58, 27
2, 252036, Note_off_c, 0, 73, 64
2, 252061, Note_off_c, 0, 80, 64
2, 252066, Note_on_c, 0, 74, 49
2, 252068, Note_on_c, 0, 53, 49
2, 252092, Note_on_c, 0, 71, 43
2, 252139, Note_on_c, 0, 67, 62
2, 252156, Note_off_c, 0, 74, 64
2, 252167, Note_off_c, 0, 75, 64
2, 252168, Note_off_c, 0, 71, 64
2, 252180, Note_on_c, 0, 79, 49
2, 252192, Note_off_c, 0, 58, 64
2, 252195, Note_off_c, 0, 68, 64
2, 252199, Note_off_c, 0, 67, 64
2, 252221, Note_off_c, 0, 79, 64
2, 252224, Note_off_c, 0, 65, 64
2, 252225, Note_on_c, 0, 63, 58
2, 252231, Note_on_c, 0, 67, 73
2, 252238, Control_c, 0, 64, 127
2, 252244, Note_off_c, 0, 53, 64
2, 252248, Control_c, 0, 64, 0
2, 252273, Note_on_c, 0, 55, 40
2, 252275, Note_on_c, 0, 79, 56
2, 252315, Note_on_c, 0, 74, 46
2, 252317, Note_on_c, 0, 60, 48
2, 252324, Note_off_c, 0, 55, 64
2, 252353, Note_on_c, 0, 77, 56
2, 252363, Note_off_c, 0, 74, 64
2, 252379, Note_on_c, 0, 53, 41
2, 252387, Note_on_c, 0, 75, 55
2, 252401, Note_off_c, 0, 79, 64
2, 252421, Note_off_c, 0, 77, 64
2, 252432, Note_on_c, 0, 74, 48
2, 252449, Note_off_c, 0, 75, 64
2, 252463, Note_off_c, 0, 60, 64
2, 252466, Note_on_c, 0, 72, 68
2, 252471, Note_off_c, 0, 74, 64
2, 252502, Note_on_c, 0, 84, 53
2, 252520, Note_off_c, 0, 72, 64
2, 252521, Note_off_c, 0, 67, 64
2, 252543, Note_off_c, 0, 84, 64
2, 252545, Note_off_c, 0, 63, 64
2, 252546, Note_off_c, 0, 53, 64
2, 252550, Note_on_c, 0, 72, 65
2, 252551, Note_on_c, 0, 67, 63
2, 252590, Note_on_c, 0, 84, 25
2, 252608, Note_on_c, 0, 60, 31
2, 252630, Note_on_c, 0, 78, 28
2, 252654, Note_on_c, 0, 63, 23
2, 252659, Note_on_c, 0, 80, 36
2, 252671, Note_off_c, 0, 78, 64
2, 252696, Note_on_c, 0, 53, 37
2, 252701, Note_on_c, 0, 79, 42
2, 252703, Note_off_c, 0, 84, 64
2, 252717, Note_off_c, 0, 60, 64
2, 252750, Note_on_c, 0, 75, 39
2, 252785, Note_on_c, 0, 71, 50
2, 252786, Note_off_c, 0, 80, 64
2, 252787, Note_off_c, 0, 79, 64
2, 252803, Note_off_c, 0, 67, 64
2, 252804, Note_off_c, 0, 75, 64
2, 252823, Note_on_c, 0, 83, 42
2, 252829, Note_off_c, 0, 53, 64
2, 252840, Note_off_c, 0, 72, 64
2, 252855, Note_off_c, 0, 71, 64
2, 252856, Note_off_c, 0, 83, 64
2, 252862, Note_on_c, 0, 71, 56
2, 252863, Note_off_c, 0, 63, 64
2, 252863, Note_on_c, 0, 67, 40
2, 252897, Note_on_c, 0, 83, 41
2, 252924, Note_on_c, 0, 61, 30
2, 252940, Note_on_c, 0, 75, 27
2, 252967, Note_on_c, 0, 78, 37
2, 252969, Note_on_c, 0, 64, 45
2, 252976, Note_off_c, 0, 75, 64
2, 252978, Control_c, 0, 64, 127
2, 252986, Control_c, 0, 64, 0
2, 253004, Note_on_c, 0, 76, 39
2, 253011, Note_on_c, 0, 53, 29
2, 253016, Note_off_c, 0, 83, 64
2, 253042, Note_on_c, 0, 73, 44
2, 253067, Note_off_c, 0, 78, 64
2, 253080, Note_on_c, 0, 70, 62
2, 253108, Note_off_c, 0, 76, 64
2, 253113, Note_on_c, 0, 82, 53
2, 253115, Note_off_c, 0, 73, 64
2, 253116, Note_off_c, 0, 61, 64
2, 253116, Note_off_c, 0, 67, 64
2, 253119, Note_off_c, 0, 64, 64
2, 253136, Note_off_c, 0, 70, 64
2, 253144, Note_off_c, 0, 53, 64
2, 253152, Note_off_c, 0, 71, 64
2, 253158, Note_off_c, 0, 82, 64
2, 253162, Note_on_c, 0, 67, 53
2, 253164, Note_on_c, 0, 70, 71
2, 253201, Note_on_c, 0, 82, 51
2, 253223, Note_on_c, 0, 57, 40
2, 253244, Note_on_c, 0, 75, 46
2, 253270, Note_on_c, 0, 61, 45
2, 253281, Note_on_c, 0, 77, 52
2, 253285, Note_off_c, 0, 75, 64
2, 253288, Note_off_c, 0, 82, 64
2, 253293, Note_off_c, 0, 57, 64
2, 253316, Note_on_c, 0, 53, 34
2, 253320, Note_on_c, 0, 76, 48
2, 253323, Control_c, 0, 64, 127
2, 253331, Control_c, 0, 64, 0
2, 253354, Note_on_c, 0, 73, 52
2, 253362, Note_off_c, 0, 77, 64
2, 253389, Note_off_c, 0, 76, 64
2, 253390, Note_on_c, 0, 69, 58
2, 253410, Note_off_c, 0, 73, 64
2, 253416, Note_off_c, 0, 53, 64
2, 253423, Note_on_c, 0, 81, 54
2, 253434, Note_off_c, 0, 67, 64
2, 253452, Note_off_c, 0, 61, 64
2, 253454, Note_off_c, 0, 70, 64
2, 253460, Note_off_c, 0, 69, 64
2, 253463, Note_off_c, 0, 81, 64
2, 253469, Note_on_c, 0, 65, 55
2, 253475, Note_on_c, 0, 69, 77
2, 253510, Note_on_c, 0, 81, 50
2, 253520, Note_on_c, 0, 57, 46
2, 253549, Note_on_c, 0, 76, 49
2, 253566, Note_on_c, 0, 62, 49
2, 253583, Note_on_c, 0, 79, 45
2, 253590, Note_off_c, 0, 57, 64
2, 253593, Note_off_c, 0, 81, 64
2, 253601, Note_off_c, 0, 76, 64
2, 253608, Control_c, 0, 64, 127
2, 253616, Control_c, 0, 64, 0
2, 253624, Note_on_c, 0, 53, 50
2, 253626, Note_on_c, 0, 77, 50
2, 253640, Note_off_c, 0, 79, 64
2, 253662, Note_on_c, 0, 76, 59
2, 253673, Note_off_c, 0, 77, 64
2, 253695, Note_on_c, 0, 74, 71
2, 253706, Note_off_c, 0, 76, 64
2, 253714, Note_off_c, 0, 62, 64
2, 253735, Note_on_c, 0, 86, 55
2, 253757, Note_off_c, 0, 53, 64
2, 253758, Note_off_c, 0, 65, 64
2, 253761, Note_off_c, 0, 74, 64
2, 253765, Note_off_c, 0, 69, 64
2, 253781, Note_off_c, 0, 86, 64
2, 253787, Note_on_c, 0, 74, 71
2, 253792, Note_on_c, 0, 65, 70
2, 253835, Note_on_c, 0, 86, 52
2, 253844, Note_on_c, 0, 57, 53
2, 253884, Note_on_c, 0, 76, 57
2, 253888, Note_on_c, 0, 63, 50
2, 253890, Note_off_c, 0, 86, 64
2, 253914, Note_off_c, 0, 57, 64
2, 253919, Note_on_c, 0, 79, 49
2, 253927, Note_off_c, 0, 76, 64
2, 253940, Note_on_c, 0, 53, 38
2, 253956, Note_on_c, 0, 77, 57
2, 253993, Note_on_c, 0, 75, 61
2, 253996, Note_off_c, 0, 63, 64
2, 254001, Note_off_c, 0, 79, 64
2, 254027, Note_on_c, 0, 72, 67
2, 254031, Note_off_c, 0, 77, 64
2, 254034, Note_off_c, 0, 75, 64
2, 254068, Note_on_c, 0, 84, 50
2, 254073, Note_off_c, 0, 53, 64
2, 254077, Note_off_c, 0, 74, 64
2, 254097, Note_off_c, 0, 84, 64
2, 254097, Note_off_c, 0, 72, 64
2, 254108, Note_on_c, 0, 72, 66
2, 254110, Note_on_c, 0, 62, 58
2, 254112, Note_off_c, 0, 65, 64
2, 254157, Note_on_c, 0, 84, 57
2, 254163, Note_on_c, 0, 53, 45
2, 254192, Note_on_c, 0, 76, 58
2, 254204, Note_on_c, 0, 58, 44
2, 254208, Note_off_c, 0, 53, 64
2, 254212, Note_off_c, 0, 84, 64
2, 254228, Note_on_c, 0, 79, 56
2, 254235, Note_off_c, 0, 76, 64
2, 254267, Note_on_c, 0, 46, 65
2, 254272, Note_on_c, 0, 77, 55
2, 254290, Note_off_c, 0, 79, 64
2, 254310, Note_on_c, 0, 74, 58
2, 254319, Note_off_c, 0, 58, 64
2, 254332, Note_off_c, 0, 77, 64
2, 254342, Note_on_c, 0, 70, 86
2, 254352, Note_off_c, 0, 74, 64
2, 254377, Note_on_c, 0, 82, 58
2, 254398, Note_off_c, 0, 62, 64
2, 254398, Note_off_c, 0, 72, 64
2, 254400, Note_off_c, 0, 46, 64
2, 254407, Note_off_c, 0, 70, 64
2, 254411, Note_off_c, 0, 82, 64
2, 254418, Note_on_c, 0, 62, 52
2, 254422, Note_on_c, 0, 70, 74
2, 254458, Note_on_c, 0, 82, 59
2, 254465, Note_on_c, 0, 53, 43
2, 254504, Note_on_c, 0, 73, 55
2, 254505, Note_on_c, 0, 60, 54
2, 254516, Note_off_c, 0, 53, 64
2, 254525, Note_off_c, 0, 82, 64
2, 254536, Note_on_c, 0, 75, 52
2, 254537, Note_off_c, 0, 73, 64
2, 254566, Note_on_c, 0, 74, 60
2, 254570, Note_on_c, 0, 50, 42
2, 254589, Note_off_c, 0, 60, 64
2, 254602, Note_on_c, 0, 72, 52
2, 254637, Note_off_c, 0, 75, 64
2, 254638, Note_on_c, 0, 69, 63
2, 254647, Note_off_c, 0, 74, 64
2, 254651, Note_off_c, 0, 72, 64
2, 254673, Note_on_c, 0, 81, 52
2, 254703, Note_off_c, 0, 50, 64
2, 254708, Note_off_c, 0, 69, 64
2, 254710, Note_off_c, 0, 81, 64
2, 254712, Note_off_c, 0, 70, 64
2, 254721, Note_on_c, 0, 69, 77
2, 254721, Note_on_c, 0, 58, 54
2, 254738, Note_off_c, 0, 62, 64
2, 254756, Note_on_c, 0, 81, 54
2, 254769, Note_on_c, 0, 50, 52
2, 254801, Note_on_c, 0, 73, 34
2, 254804, Note_on_c, 0, 55, 52
2, 254811, Note_off_c, 0, 50, 64
2, 254832, Note_off_c, 0, 81, 64
2, 254838, Note_on_c, 0, 75, 62
2, 254852, Note_off_c, 0, 73, 64
2, 254862, Note_on_c, 0, 43, 53
2, 254870, Note_on_c, 0, 74, 62
2, 254873, Note_off_c, 0, 55, 64
2, 254907, Note_on_c, 0, 70, 55
2, 254926, Note_off_c, 0, 75, 64
2, 254945, Note_on_c, 0, 67, 71
2, 254966, Note_off_c, 0, 74, 64
2, 254984, Note_on_c, 0, 79, 52
2, 254987, Note_off_c, 0, 70, 64
2, 254995, Note_off_c, 0, 43, 64
2, 255011, Note_off_c, 0, 69, 64
2, 255015, Note_off_c, 0, 67, 64
2, 255015, Note_off_c, 0, 58, 64
2, 255019, Note_off_c, 0, 79, 64
2, 255030, Note_on_c, 0, 67, 74
2, 255032, Note_on_c, 0, 58, 60
2, 255067, Note_on_c, 0, 79, 36
2, 255104, Note_on_c, 0, 50, 36
2, 255108, Note_off_c, 0, 79, 64
2, 255112, Note_on_c, 0, 69, 58
2, 255141, Note_on_c, 0, 72, 55
2, 255147, Note_off_c, 0, 69, 64
2, 255150, Note_off_c, 0, 50, 64
2, 255150, Note_on_c, 0, 56, 36
2, 255181, Note_on_c, 0, 70, 67
2, 255182, Note_on_c, 0, 46, 54
2, 255206, Note_off_c, 0, 72, 64
2, 255219, Note_on_c, 0, 68, 54
2, 255247, Note_off_c, 0, 70, 64
2, 255254, Note_on_c, 0, 65, 72
2, 255286, Note_on_c, 0, 77, 59
2, 255291, Note_off_c, 0, 68, 64
2, 255306, Note_off_c, 0, 56, 64
2, 255315, Note_off_c, 0, 46, 64
2, 255320, Note_off_c, 0, 77, 64
2, 255320, Note_off_c, 0, 67, 64
2, 255329, Note_off_c, 0, 58, 64
2, 255334, Note_on_c, 0, 64, 78
2, 255338, Note_on_c, 0, 58, 71
2, 255339, Note_off_c, 0, 65, 64
2, 255382, Note_on_c, 0, 76, 59
2, 255392, Note_on_c, 0, 50, 43
2, 255420, Note_on_c, 0, 69, 51
2, 255435, Note_on_c, 0, 56, 47
2, 255441, Note_off_c, 0, 50, 64
2, 255450, Note_on_c, 0, 72, 54
2, 255458, Note_off_c, 0, 69, 64
2, 255480, Note_on_c, 0, 46, 44
2, 255485, Note_on_c, 0, 70, 67
2, 255520, Note_on_c, 0, 68, 53
2, 255522, Note_off_c, 0, 76, 64
2, 255525, Note_off_c, 0, 72, 64
2, 255531, Note_off_c, 0, 56, 64
2, 255547, Note_off_c, 0, 70, 64
2, 255558, Note_on_c, 0, 65, 74
2, 255567, Note_off_c, 0, 68, 64
2, 255598, Note_on_c, 0, 77, 49
2, 255613, Note_off_c, 0, 46, 64
2, 255624, Note_off_c, 0, 64, 64
2, 255626, Note_off_c, 0, 77, 64
2, 255628, Note_off_c, 0, 65, 64
2, 255639, Note_on_c, 0, 65, 77
2, 255640, Note_on_c, 0, 56, 67
2, 255646, Note_off_c, 0, 58, 64
2, 255668, Note_on_c, 0, 77, 58
2, 255696, Note_on_c, 0, 46, 53
2, 255711, Note_on_c, 0, 69, 52
2, 255733, Note_on_c, 0, 50, 48
2, 255751, Note_off_c, 0, 69, 64
2, 255753, Note_on_c, 0, 71, 42
2, 255756, Note_off_c, 0, 46, 64
2, 255770, Note_on_c, 0, 39, 56
2, 255783, Note_off_c, 0, 50, 64
2, 255788, Note_on_c, 0, 70, 54
2, 255800, Note_off_c, 0, 71, 64
2, 255804, Note_off_c, 0, 77, 64
2, 255823, Note_on_c, 0, 68, 45
2, 255841, Note_off_c, 0, 65, 64
2, 255852, Note_off_c, 0, 70, 64
2, 255857, Note_on_c, 0, 65, 77
2, 255879, Note_off_c, 0, 68, 64
2, 255888, Note_on_c, 0, 77, 57
2, 255903, Note_off_c, 0, 39, 64
2, 255917, Note_off_c, 0, 77, 64
2, 255942, Note_off_c, 0, 65, 64
2, 255942, Note_on_c, 0, 66, 86
2, 255944, Note_on_c, 0, 54, 62
2, 255960, Note_off_c, 0, 56, 64
2, 255982, Note_on_c, 0, 78, 54
2, 255995, Note_on_c, 0, 46, 48
2, 256026, Note_on_c, 0, 74, 52
2, 256038, Note_on_c, 0, 51, 51
2, 256053, Note_off_c, 0, 74, 64
2, 256054, Note_on_c, 0, 77, 54
2, 256070, Note_off_c, 0, 78, 64
2, 256092, Note_on_c, 0, 39, 48
2, 256098, Note_off_c, 0, 51, 64
2, 256103, Note_on_c, 0, 75, 54
2, 256110, Note_off_c, 0, 77, 64
2, 256151, Note_on_c, 0, 70, 26
2, 256152, Note_off_c, 0, 46, 64
2, 256156, Note_off_c, 0, 75, 64
2, 256162, Note_off_c, 0, 66, 64
2, 256176, Note_on_c, 0, 66, 77
2, 256187, Note_off_c, 0, 70, 64
2, 256216, Note_on_c, 0, 78, 54
2, 256218, Note_off_c, 0, 39, 64
2, 256249, Note_off_c, 0, 78, 64
2, 256261, Note_off_c, 0, 66, 64
2, 256264, Note_off_c, 0, 54, 64
2, 256282, Note_on_c, 0, 56, 62
2, 256285, Note_on_c, 0, 66, 79
2, 256317, Note_on_c, 0, 78, 45
2, 256345, Note_on_c, 0, 44, 61
2, 256367, Note_off_c, 0, 78, 64
2, 256374, Note_on_c, 0, 67, 53
2, 256389, Note_on_c, 0, 49, 30
2, 256403, Note_on_c, 0, 70, 57
2, 256410, Note_off_c, 0, 67, 64
2, 256443, Note_on_c, 0, 68, 55
2, 256455, Note_on_c, 0, 40, 38
2, 256475, Note_on_c, 0, 66, 52
2, 256488, Note_off_c, 0, 70, 64
2, 256509, Note_on_c, 0, 64, 74
2, 256518, Note_off_c, 0, 68, 64
2, 256527, Note_off_c, 0, 66, 64
2, 256544, Note_off_c, 0, 44, 64
2, 256547, Note_on_c, 0, 76, 59
2, 256563, Note_off_c, 0, 49, 64
2, 256570, Note_off_c, 0, 56, 64
2, 256573, Note_off_c, 0, 40, 64
2, 256575, Note_off_c, 0, 66, 64
2, 256579, Note_off_c, 0, 76, 64
2, 256579, Note_off_c, 0, 64, 64
2, 256586, Note_on_c, 0, 56, 67
2, 256590, Note_on_c, 0, 64, 73
2, 256602, Note_on_c, 0, 76, 58
2, 256645, Note_on_c, 0, 44, 55
2, 256659, Note_on_c, 0, 67, 58
2, 256676, Note_off_c, 0, 76, 64
2, 256700, Note_on_c, 0, 70, 45
2, 256700, Note_on_c, 0, 49, 53
2, 256712, Note_off_c, 0, 67, 64
2, 256742, Note_on_c, 0, 68, 46
2, 256766, Note_on_c, 0, 40, 20
2, 256767, Note_off_c, 0, 70, 64
2, 256781, Note_off_c, 0, 68, 64
2, 256782, Note_on_c, 0, 64, 3
2, 256796, Note_off_c, 0, 56, 64
2, 256818, Note_on_c, 0, 56, 79
2, 256825, Note_off_c, 0, 64, 64
2, 256852, Note_off_c, 0, 44, 64
2, 256852, Note_on_c, 0, 68, 50
2, 256877, Note_off_c, 0, 49, 64
2, 256880, Note_off_c, 0, 64, 64
2, 256886, Note_off_c, 0, 40, 64
2, 256913, Note_off_c, 0, 56, 64
2, 256920, Note_on_c, 0, 54, 56
2, 256925, Note_on_c, 0, 59, 74
2, 256940, Note_off_c, 0, 68, 64
2, 256952, Note_on_c, 0, 47, 56
2, 256971, Note_on_c, 0, 71, 50
2, 257011, Note_on_c, 0, 65, 57
2, 257020, Note_on_c, 0, 51, 32
2, 257043, Note_on_c, 0, 68, 36
2, 257054, Note_off_c, 0, 65, 64
2, 257076, Note_on_c, 0, 42, 28
2, 257080, Note_on_c, 0, 66, 60
2, 257113, Note_on_c, 0, 63, 52
2, 257122, Note_off_c, 0, 71, 64
2, 257126, Note_off_c, 0, 68, 64
2, 257135, Note_off_c, 0, 59, 64
2, 257144, Note_off_c, 0, 66, 64
2, 257149, Note_on_c, 0, 59, 81
2, 257159, Note_off_c, 0, 47, 64
2, 257164, Note_off_c, 0, 63, 64
2, 257184, Note_on_c, 0, 71, 52
2, 257196, Note_off_c, 0, 42, 64
2, 257197, Note_off_c, 0, 51, 64
2, 257209, Note_off_c, 0, 71, 64
2, 257210, Note_off_c, 0, 54, 64
2, 257219, Note_off_c, 0, 59, 64
2, 257230, Note_on_c, 0, 58, 86
2, 257236, Note_on_c, 0, 54, 44
2, 257264, Note_on_c, 0, 70, 61
2, 257283, Note_on_c, 0, 47, 46
2, 257292, Note_on_c, 0, 54, 50
2, 257296, Note_on_c, 0, 65, 56
2, 257327, Note_on_c, 0, 68, 58
2, 257328, Note_off_c, 0, 54, 64
2, 257328, Note_on_c, 0, 51, 48
2, 257336, Note_off_c, 0, 65, 64
2, 257355, Note_on_c, 0, 66, 64
2, 257359, Note_off_c, 0, 68, 64
2, 257364, Note_on_c, 0, 42, 29
2, 257378, Note_off_c, 0, 70, 64
2, 257396, Note_on_c, 0, 63, 58
2, 257439, Note_on_c, 0, 59, 66
2, 257452, Note_off_c, 0, 63, 64
2, 257460, Note_off_c, 0, 66, 64
2, 257479, Note_on_c, 0, 71, 57
2, 257484, Note_off_c, 0, 42, 64
2, 257490, Note_off_c, 0, 47, 64
2, 257505, Note_off_c, 0, 51, 64
2, 257510, Note_off_c, 0, 58, 64
2, 257523, Note_off_c, 0, 54, 64
2, 257533, Note_off_c, 0, 71, 64
2, 257533, Note_on_c, 0, 54, 58
2, 257535, Note_on_c, 0, 60, 81
2, 257544, Note_off_c, 0, 59, 64
2, 257573, Note_on_c, 0, 72, 52
2, 257574, Note_on_c, 0, 46, 50
2, 257605, Note_on_c, 0, 65, 53
2, 257616, Note_on_c, 0, 52, 43
2, 257644, Note_off_c, 0, 65, 64
2, 257649, Note_on_c, 0, 68, 44
2, 257669, Note_on_c, 0, 66, 50
2, 257677, Note_off_c, 0, 68, 64
2, 257687, Note_on_c, 0, 42, 60
2, 257709, Note_on_c, 0, 64, 55
2, 257712, Note_off_c, 0, 72, 64
2, 257735, Note_off_c, 0, 60, 64
2, 257740, Note_off_c, 0, 66, 64
2, 257749, Note_on_c, 0, 60, 62
2, 257778, Note_off_c, 0, 64, 64
2, 257781, Note_off_c, 0, 46, 64
2, 257781, Note_on_c, 0, 72, 44
2, 257793, Note_off_c, 0, 52, 64
2, 257807, Note_off_c, 0, 42, 64
2, 257810, Note_off_c, 0, 72, 64
2, 257821, Note_off_c, 0, 54, 64
2, 257839, Note_on_c, 0, 61, 86
2, 257839, Note_on_c, 0, 54, 44
2, 257849, Note_off_c, 0, 60, 64
2, 257876, Note_on_c, 0, 73, 31
2, 257890, Note_on_c, 0, 46, 50
2, 257914, Note_on_c, 0, 65, 55
2, 257928, Note_on_c, 0, 52, 59
2, 257948, Note_on_c, 0, 68, 58
2, 257958, Note_off_c, 0, 65, 64
2, 257976, Note_on_c, 0, 66, 57
2, 257982, Note_on_c, 0, 42, 36
2, 258010, Note_on_c, 0, 64, 43
2, 258014, Note_off_c, 0, 68, 64
2, 258025, Note_off_c, 0, 73, 64
2, 258032, Note_off_c, 0, 66, 64
2, 258046, Note_off_c, 0, 46, 64
2, 258051, Note_on_c, 0, 62, 77
2, 258064, Note_off_c, 0, 64, 64
2, 258078, Note_off_c, 0, 61, 64
2, 258089, Note_on_c, 0, 74, 58
2, 258105, Note_off_c, 0, 52, 64
2, 258111, Note_off_c, 0, 42, 64
2, 258121, Note_off_c, 0, 62, 64
2, 258126, Note_off_c, 0, 54, 64
2, 258136, Note_off_c, 0, 74, 64
2, 258136, Note_on_c, 0, 52, 65
2, 258142, Note_on_c, 0, 62, 81
2, 258177, Note_on_c, 0, 74, 54
2, 258190, Note_on_c, 0, 42, 41
2, 258220, Note_on_c, 0, 65, 44
2, 258228, Note_on_c, 0, 46, 57
2, 258250, Note_on_c, 0, 68, 46
2, 258261, Note_off_c, 0, 65, 64
2, 258287, Note_off_c, 0, 74, 64
2, 258288, Note_off_c, 0, 46, 64
2, 258296, Note_on_c, 0, 66, 67
2, 258301, Note_off_c, 0, 42, 64
2, 258315, Note_on_c, 0, 35, 30
2, 258330, Note_off_c, 0, 68, 64
2, 258337, Note_on_c, 0, 64, 48
2, 258353, Note_off_c, 0, 66, 64
2, 258382, Note_off_c, 0, 62, 64
2, 258394, Note_off_c, 0, 64, 64
2, 258401, Note_on_c, 0, 62, 72
2, 258427, Note_off_c, 0, 35, 64
2, 258441, Note_on_c, 0, 74, 54
2, 258456, Note_off_c, 0, 52, 64
2, 258471, Note_off_c, 0, 62, 64
2, 258472, Note_on_c, 0, 63, 90
2, 258481, Note_on_c, 0, 51, 57
2, 258483, Note_off_c, 0, 74, 64
2, 258521, Note_on_c, 0, 75, 58
2, 258534, Note_on_c, 0, 42, 42
2, 258554, Note_on_c, 0, 70, 59
2, 258565, Note_on_c, 0, 47, 55
2, 258584, Note_on_c, 0, 73, 39
2, 258590, Note_off_c, 0, 70, 64
2, 258596, Note_on_c, 0, 71, 37
2, 258629, Note_on_c, 0, 35, 36
2, 258631, Note_off_c, 0, 73, 64
2, 258636, Note_on_c, 0, 47, 62
2, 258638, Note_on_c, 0, 71, 50
2, 258645, Note_off_c, 0, 47, 64
2, 258648, Note_off_c, 0, 75, 64
2, 258649, Note_off_c, 0, 71, 64
2, 258654, Note_on_c, 0, 66, 51
2, 258666, Note_off_c, 0, 63, 64
2, 258688, Note_off_c, 0, 71, 64
2, 258707, Note_on_c, 0, 63, 89
2, 258717, Note_off_c, 0, 66, 64
2, 258727, Note_off_c, 0, 42, 64
2, 258742, Note_off_c, 0, 47, 64
2, 258749, Note_on_c, 0, 75, 62
2, 258759, Note_off_c, 0, 35, 64
2, 258770, Note_off_c, 0, 63, 64
2, 258795, Note_off_c, 0, 51, 64
2, 258807, Note_off_c, 0, 75, 64
2, 258808, Note_on_c, 0, 63, 94
2, 258811, Note_on_c, 0, 56, 57
2, 258856, Note_on_c, 0, 75, 46
2, 258871, Note_on_c, 0, 47, 36
2, 258908, Note_on_c, 0, 68, 41
2, 258913, Note_on_c, 0, 51, 48
2, 258932, Note_on_c, 0, 73, 30
2, 258935, Note_off_c, 0, 47, 64
2, 258943, Note_off_c, 0, 68, 64
2, 258956, Note_off_c, 0, 75, 64
2, 258965, Note_on_c, 0, 71, 39
2, 258985, Note_on_c, 0, 68, 58
2, 258988, Note_on_c, 0, 41, 44
2, 259005, Note_off_c, 0, 73, 64
2, 259009, Note_off_c, 0, 63, 64
2, 259016, Note_off_c, 0, 71, 64
2, 259029, Note_on_c, 0, 63, 82
2, 259038, Note_off_c, 0, 68, 64
2, 259064, Note_on_c, 0, 75, 65
2, 259100, Note_off_c, 0, 51, 64
2, 259102, Note_off_c, 0, 56, 64
2, 259103, Note_off_c, 0, 75, 64
2, 259105, Note_on_c, 0, 62, 79
2, 259109, Note_on_c, 0, 56, 73
2, 259114, Note_off_c, 0, 63, 64
2, 259118, Note_off_c, 0, 41, 64
2, 259150, Note_on_c, 0, 74, 57
2, 259162, Note_on_c, 0, 47, 44
2, 259186, Note_on_c, 0, 68, 62
2, 259214, Note_on_c, 0, 51, 56
2, 259216, Note_on_c, 0, 73, 50
2, 259219, Note_off_c, 0, 74, 64
2, 259229, Note_off_c, 0, 68, 64
2, 259237, Note_off_c, 0, 47, 64
2, 259241, Control_c, 0, 64, 127
2, 259248, Note_on_c, 0, 71, 54
2, 259252, Control_c, 0, 64, 0
2, 259269, Note_on_c, 0, 41, 36
2, 259280, Note_on_c, 0, 68, 58
2, 259282, Note_off_c, 0, 73, 64
2, 259297, Note_off_c, 0, 71, 64
2, 259311, Note_on_c, 0, 63, 88
2, 259321, Note_off_c, 0, 68, 64
2, 259329, Note_off_c, 0, 51, 64
2, 259341, Note_on_c, 0, 75, 62
2, 259370, Note_off_c, 0, 62, 64
2, 259379, Note_off_c, 0, 75, 64
2, 259386, Note_off_c, 0, 63, 64
2, 259387, Note_on_c, 0, 65, 69
2, 259389, Note_off_c, 0, 41, 64
2, 259390, Note_on_c, 0, 62, 70
2, 259399, Note_off_c, 0, 56, 64
2, 259437, Note_on_c, 0, 77, 42
2, 259439, Note_on_c, 0, 53, 58
2, 259459, Note_on_c, 0, 70, 62
2, 259485, Note_on_c, 0, 58, 46
2, 259491, Note_on_c, 0, 75, 64
2, 259499, Note_off_c, 0, 77, 64
2, 259509, Note_off_c, 0, 70, 64
2, 259518, Note_on_c, 0, 74, 60
2, 259525, Note_on_c, 0, 46, 59
2, 259554, Note_on_c, 0, 70, 55
2, 259558, Note_off_c, 0, 75, 64
2, 259567, Note_off_c, 0, 65, 64
2, 259584, Note_off_c, 0, 53, 64
2, 259585, Note_off_c, 0, 74, 64
2, 259588, Note_on_c, 0, 65, 71
2, 259608, Note_off_c, 0, 70, 64
2, 259612, Note_off_c, 0, 58, 64
2, 259620, Note_on_c, 0, 77, 58
2, 259645, Note_off_c, 0, 46, 64
2, 259647, Note_off_c, 0, 62, 64
2, 259649, Note_off_c, 0, 77, 64
2, 259658, Note_off_c, 0, 65, 64
2, 259660, Note_on_c, 0, 66, 77
2, 259663, Note_on_c, 0, 62, 69
2, 259705, Note_on_c, 0, 78, 58
2, 259712, Note_on_c, 0, 53, 39
2, 259740, Note_on_c, 0, 70, 55
2, 259758, Note_on_c, 0, 58, 50
2, 259764, Note_on_c, 0, 75, 50
2, 259769, Note_off_c, 0, 78, 64
2, 259779, Note_off_c, 0, 70, 64
2, 259797, Note_on_c, 0, 74, 54
2, 259804, Note_on_c, 0, 46, 27
2, 259823, Note_on_c, 0, 70, 61
2, 259838, Note_off_c, 0, 75, 64
2, 259838, Note_off_c, 0, 53, 64
2, 259844, Note_off_c, 0, 74, 64
2, 259858, Note_on_c, 0, 65, 61
2, 259860, Note_off_c, 0, 66, 64
2, 259880, Note_off_c, 0, 70, 64
2, 259883, Note_off_c, 0, 58, 64
2, 259885, Note_on_c, 0, 77, 62
2, 259911, Note_off_c, 0, 77, 64
2, 259924, Note_off_c, 0, 46, 64
2, 259928, Note_off_c, 0, 65, 64
2, 259930, Note_off_c, 0, 62, 64
2, 259932, Note_on_c, 0, 63, 89
2, 259935, Note_on_c, 0, 56, 64
2, 259971, Note_on_c, 0, 75, 58
2, 259986, Note_on_c, 0, 47, 43
2, 259998, Note_on_c, 0, 68, 61
2, 260018, Control_c, 0, 64, 127
2, 260025, Control_c, 0, 64, 0
2, 260028, Note_on_c, 0, 73, 62
2, 260035, Note_on_c, 0, 51, 28
2, 260040, Note_off_c, 0, 68, 64
2, 260058, Note_on_c, 0, 71, 52
2, 260070, Note_off_c, 0, 75, 64
2, 260075, Note_on_c, 0, 41, 36
2, 260085, Note_on_c, 0, 68, 61
2, 260090, Note_off_c, 0, 47, 64
2, 260095, Note_off_c, 0, 73, 64
2, 260097, Note_off_c, 0, 51, 64
2, 260102, Note_off_c, 0, 63, 64
2, 260117, Note_on_c, 0, 63, 83
2, 260119, Note_off_c, 0, 71, 64
2, 260128, Note_off_c, 0, 68, 64
2, 260150, Note_on_c, 0, 75, 52
2, 260181, Note_off_c, 0, 75, 64
2, 260184, Note_off_c, 0, 56, 64
2, 260188, Note_on_c, 0, 62, 82
2, 260188, Note_on_c, 0, 56, 69
2, 260192, Note_off_c, 0, 63, 64
2, 260205, Note_off_c, 0, 41, 64
2, 260220, Note_on_c, 0, 74, 67
2, 260233, Note_on_c, 0, 47, 65
2, 260250, Note_on_c, 0, 68, 69
2, 260274, Note_on_c, 0, 73, 47
2, 260276, Note_off_c, 0, 74, 64
2, 260281, Control_c, 0, 64, 127
2, 260286, Note_on_c, 0, 51, 54
2, 260289, Control_c, 0, 64, 0
2, 260295, Note_off_c, 0, 68, 64
2, 260305, Note_on_c, 0, 71, 58
2, 260326, Note_on_c, 0, 41, 30
2, 260336, Note_off_c, 0, 73, 64
2, 260336, Note_on_c, 0, 68, 61
2, 260350, Note_off_c, 0, 71, 64
2, 260353, Note_off_c, 0, 47, 64
2, 260365, Note_on_c, 0, 63, 90
2, 260368, Note_off_c, 0, 51, 64
2, 260378, Note_off_c, 0, 68, 64
2, 260388, Note_off_c, 0, 62, 64
2, 260393, Note_on_c, 0, 75, 54
2, 260426, Note_off_c, 0, 75, 64
2, 260440, Note_off_c, 0, 63, 64
2, 260442, Note_off_c, 0, 56, 64
2, 260447, Note_on_c, 0, 62, 57
2, 260451, Note_on_c, 0, 65, 73
2, 260456, Note_off_c, 0, 41, 64
2, 260503, Note_on_c, 0, 53, 58
2, 260507, Note_on_c, 0, 77, 53
2, 260529, Control_c, 0, 64, 127
2, 260536, Control_c, 0, 64, 0
2, 260541, Note_on_c, 0, 70, 64
2, 260551, Control_c, 0, 64, 127
2, 260553, Note_on_c, 0, 58, 35
2, 260567, Note_on_c, 0, 75, 64
2, 260572, Note_off_c, 0, 77, 64
2, 260580, Note_off_c, 0, 70, 64
2, 260590, Note_on_c, 0, 74, 58
2, 260598, Note_on_c, 0, 46, 61
2, 260604, Note_off_c, 0, 75, 64
2, 260609, Note_off_c, 0, 53, 64
2, 260614, Note_off_c, 0, 58, 64
2, 260624, Note_on_c, 0, 70, 55
2, 260631, Note_off_c, 0, 65, 64
2, 260652, Note_on_c, 0, 65, 61
2, 260660, Note_off_c, 0, 74, 64
2, 260673, Note_off_c, 0, 70, 64
2, 260677, Note_on_c, 0, 77, 54
2, 260701, Note_off_c, 0, 77, 64
2, 260711, Note_off_c, 0, 62, 64
2, 260712, Control_c, 0, 64, 0
2, 260718, Note_off_c, 0, 46, 64
2, 260722, Note_off_c, 0, 65, 64
2, 260728, Note_on_c, 0, 62, 59
2, 260729, Note_on_c, 0, 70, 73
2, 260769, Note_on_c, 0, 82, 46
2, 260781, Note_on_c, 0, 53, 52
2, 260819, Note_on_c, 0, 76, 37
2, 260819, Note_on_c, 0, 58, 46
2, 260837, Note_on_c, 0, 78, 44
2, 260844, Note_off_c, 0, 76, 64
2, 260847, Note_off_c, 0, 82, 64
2, 260860, Note_on_c, 0, 46, 36
2, 260862, Note_off_c, 0, 58, 64
2, 260874, Control_c, 0, 64, 127
2, 260878, Note_on_c, 0, 77, 50
2, 260894, Note_off_c, 0, 78, 64
2, 260895, Note_off_c, 0, 53, 64
2, 260909, Note_off_c, 0, 70, 64
2, 260909, Note_on_c, 0, 74, 46
2, 260919, Note_off_c, 0, 77, 64
2, 260937, Note_on_c, 0, 70, 55
2, 260941, Note_off_c, 0, 74, 64
2, 260966, Note_on_c, 0, 82, 46
2, 260980, Note_off_c, 0, 46, 64
2, 260985, Note_off_c, 0, 70, 64
2, 260985, Note_off_c, 0, 62, 64
2, 260989, Note_off_c, 0, 82, 64
2, 261032, Control_c, 0, 64, 0
2, 261058, Note_on_c, 0, 56, 32
2, 261059, Note_on_c, 0, 63, 35
2, 261089, Control_c, 0, 64, 127
2, 261123, Note_on_c, 0, 75, 33
2, 261127, Note_on_c, 0, 47, 19
2, 261166, Note_on_c, 0, 68, 24
2, 261169, Note_on_c, 0, 51, 35
2, 261177, Note_off_c, 0, 75, 64
2, 261190, Note_off_c, 0, 47, 64
2, 261196, Note_on_c, 0, 73, 34
2, 261200, Note_off_c, 0, 68, 64
2, 261213, Note_on_c, 0, 41, 18
2, 261228, Note_on_c, 0, 71, 20
2, 261241, Note_off_c, 0, 73, 64
2, 261244, Note_off_c, 0, 63, 64
2, 261255, Note_on_c, 0, 68, 36
2, 261269, Note_off_c, 0, 71, 64
2, 261278, Note_on_c, 0, 63, 53
2, 261283, Note_off_c, 0, 68, 64
2, 261305, Note_off_c, 0, 51, 64
2, 261309, Note_on_c, 0, 75, 37
2, 261317, Control_c, 0, 64, 0
2, 261322, Note_off_c, 0, 56, 64
2, 261343, Note_off_c, 0, 75, 64
2, 261343, Note_off_c, 0, 41, 64
2, 261343, Note_on_c, 0, 62, 49
2, 261348, Note_off_c, 0, 63, 64
2, 261348, Note_on_c, 0, 56, 21
2, 261375, Note_on_c, 0, 74, 35
2, 261380, Control_c, 0, 64, 127
2, 261391, Note_on_c, 0, 47, 23
2, 261412, Note_on_c, 0, 68, 30
2, 261431, Note_on_c, 0, 51, 40
2, 261444, Note_off_c, 0, 74, 64
2, 261445, Note_on_c, 0, 73, 33
2, 261450, Note_off_c, 0, 47, 64
2, 261464, Note_off_c, 0, 68, 64
2, 261472, Note_on_c, 0, 71, 36
2, 261475, Note_on_c, 0, 41, 32
2, 261491, Note_off_c, 0, 73, 64
2, 261503, Note_on_c, 0, 68, 38
2, 261515, Note_off_c, 0, 71, 64
2, 261529, Note_on_c, 0, 63, 59
2, 261543, Note_off_c, 0, 68, 64
2, 261543, Note_off_c, 0, 62, 64
2, 261544, Note_off_c, 0, 51, 64
2, 261556, Note_on_c, 0, 75, 38
2, 261582, Control_c, 0, 64, 0
2, 261592, Note_off_c, 0, 75, 64
2, 261601, Note_on_c, 0, 65, 50
2, 261603, Note_on_c, 0, 62, 47
2, 261604, Note_off_c, 0, 63, 64
2, 261605, Note_off_c, 0, 41, 64
2, 261624, Note_off_c, 0, 56, 64
2, 261650, Note_on_c, 0, 77, 34
2, 261656, Note_on_c, 0, 53, 26
2, 261678, Note_on_c, 0, 70, 48
2, 261701, Note_on_c, 0, 58, 27
2, 261706, Note_on_c, 0, 75, 47
2, 261713, Note_off_c, 0, 77, 64
2, 261720, Note_off_c, 0, 70, 64
2, 261731, Note_on_c, 0, 74, 45
2, 261741, Note_off_c, 0, 53, 64
2, 261742, Note_on_c, 0, 46, 34
2, 261750, Note_off_c, 0, 58, 64
2, 261762, Note_off_c, 0, 75, 64
2, 261762, Note_on_c, 0, 70, 42
2, 261771, Note_off_c, 0, 65, 64
2, 261786, Note_off_c, 0, 74, 64
2, 261796, Note_on_c, 0, 65, 52
2, 261806, Note_off_c, 0, 70, 64
2, 261820, Note_on_c, 0, 77, 42
2, 261846, Note_off_c, 0, 77, 64
2, 261853, Note_on_c, 0, 66, 55
2, 261855, Note_off_c, 0, 62, 64
2, 261856, Note_on_c, 0, 62, 46
2, 261862, Note_off_c, 0, 46, 64
2, 261866, Note_off_c, 0, 65, 64
2, 261888, Note_on_c, 0, 78, 47
2, 261893, Note_on_c, 0, 53, 43
2, 261922, Note_on_c, 0, 70, 49
2, 261931, Note_on_c, 0, 58, 41
2, 261952, Note_on_c, 0, 75, 41
2, 261956, Note_off_c, 0, 78, 64
2, 261962, Note_off_c, 0, 70, 64
2, 261973, Note_on_c, 0, 46, 44
2, 261975, Note_off_c, 0, 58, 64
2, 261979, Note_on_c, 0, 74, 41
2, 261985, Note_off_c, 0, 75, 64
2, 261985, Note_off_c, 0, 53, 64
2, 262008, Note_on_c, 0, 70, 47
2, 262029, Note_off_c, 0, 74, 64
2, 262039, Note_on_c, 0, 65, 37
2, 262053, Note_off_c, 0, 70, 64
2, 262063, Note_on_c, 0, 77, 47
2, 262083, Note_off_c, 0, 77, 64
2, 262093, Note_off_c, 0, 46, 64
2, 262105, Note_on_c, 0, 63, 42
2, 262108, Note_off_c, 0, 66, 64
2, 262108, Note_on_c, 0, 56, 28
2, 262110, Note_off_c, 0, 62, 64
2, 262114, Note_off_c, 0, 65, 64
2, 262136, Note_on_c, 0, 75, 30
2, 262146, Note_on_c, 0, 47, 23
2, 262170, Note_on_c, 0, 68, 31
2, 262186, Note_on_c, 0, 51, 31
2, 262198, Note_on_c, 0, 73, 31
2, 262204, Note_off_c, 0, 68, 64
2, 262206, Note_off_c, 0, 47, 64
2, 262222, Note_on_c, 0, 71, 35
2, 262234, Note_on_c, 0, 41, 40
2, 262250, Note_off_c, 0, 75, 64
2, 262253, Note_on_c, 0, 68, 39
2, 262255, Note_off_c, 0, 73, 64
2, 262265, Note_off_c, 0, 63, 64
2, 262283, Note_on_c, 0, 63, 52
2, 262285, Note_off_c, 0, 71, 64
2, 262290, Note_off_c, 0, 68, 64
2, 262313, Note_on_c, 0, 75, 36
2, 262321, Note_off_c, 0, 51, 64
2, 262337, Note_off_c, 0, 41, 64
2, 262348, Note_off_c, 0, 75, 64
2, 262348, Note_off_c, 0, 56, 64
2, 262348, Note_on_c, 0, 62, 50
2, 262354, Note_on_c, 0, 56, 48
2, 262363, Note_off_c, 0, 63, 64
2, 262379, Note_on_c, 0, 74, 32
2, 262399, Note_on_c, 0, 47, 30
2, 262409, Note_on_c, 0, 68, 45
2, 262435, Note_on_c, 0, 73, 37
2, 262439, Note_off_c, 0, 74, 64
2, 262445, Note_on_c, 0, 51, 38
2, 262449, Note_off_c, 0, 68, 64
2, 262462, Note_on_c, 0, 71, 27
2, 262483, Note_off_c, 0, 47, 64
2, 262491, Note_off_c, 0, 73, 64
2, 262494, Note_on_c, 0, 68, 29
2, 262496, Note_on_c, 0, 41, 19
2, 262507, Note_off_c, 0, 71, 64
2, 262524, Note_on_c, 0, 63, 57
2, 262534, Note_off_c, 0, 68, 64
2, 262543, Note_off_c, 0, 51, 64
2, 262548, Note_off_c, 0, 62, 64
2, 262550, Note_on_c, 0, 75, 38
2, 262587, Note_off_c, 0, 75, 64
2, 262594, Note_off_c, 0, 63, 64
2, 262595, Note_on_c, 0, 65, 48
2, 262601, Note_on_c, 0, 62, 29
2, 262626, Note_off_c, 0, 41, 64
2, 262629, Note_on_c, 0, 77, 38
2, 262642, Note_off_c, 0, 56, 64
2, 262647, Note_on_c, 0, 53, 32
2, 262659, Note_on_c, 0, 70, 44
2, 262680, Note_on_c, 0, 58, 38
2, 262685, Note_on_c, 0, 75, 44
2, 262692, Note_off_c, 0, 77, 64
2, 262705, Note_off_c, 0, 70, 64
2, 262706, Note_on_c, 0, 74, 41
2, 262720, Note_off_c, 0, 58, 64
2, 262725, Note_on_c, 0, 46, 39
2, 262740, Note_off_c, 0, 53, 64
2, 262743, Note_on_c, 0, 70, 45
2, 262765, Note_off_c, 0, 75, 64
2, 262773, Note_off_c, 0, 74, 64
2, 262777, Note_on_c, 0, 65, 49
2, 262780, Note_off_c, 0, 65, 64
2, 262788, Note_off_c, 0, 70, 64
2, 262815, Note_on_c, 0, 77, 43
2, 262833, Note_off_c, 0, 65, 64
2, 262833, Note_off_c, 0, 46, 64
2, 262847, Note_off_c, 0, 77, 64
2, 262862, Note_on_c, 0, 65, 52
2, 262862, Note_on_c, 0, 59, 49
2, 262899, Note_on_c, 0, 77, 42
2, 262901, Note_off_c, 0, 62, 64
2, 262909, Note_on_c, 0, 49, 25
2, 262938, Note_on_c, 0, 72, 38
2, 262957, Note_on_c, 0, 53, 41
2, 262975, Note_on_c, 0, 74, 41
2, 262976, Note_off_c, 0, 77, 64
2, 262982, Note_off_c, 0, 72, 64
2, 262990, Note_off_c, 0, 49, 64
2, 263002, Note_on_c, 0, 73, 43
2, 263007, Note_on_c, 0, 44, 40
2, 263019, Note_off_c, 0, 74, 64
2, 263045, Note_on_c, 0, 71, 33
2, 263058, Note_off_c, 0, 73, 64
2, 263062, Note_off_c, 0, 71, 64
2, 263070, Note_on_c, 0, 61, 52
2, 263117, Note_on_c, 0, 73, 62
2, 263149, Note_off_c, 0, 53, 64
2, 263152, Note_off_c, 0, 65, 64
2, 263174, Note_off_c, 0, 59, 64
2, 263186, Note_off_c, 0, 44, 64
2, 263190, Note_off_c, 0, 61, 64
2, 263202, Note_on_c, 0, 57, 30
2, 263208, Note_on_c, 0, 61, 59
2, 263214, Note_off_c, 0, 73, 64
2, 263264, Note_on_c, 0, 73, 33
2, 263283, Note_on_c, 0, 49, 19
2, 263297, Note_on_c, 0, 68, 41
2, 263322, Note_off_c, 0, 73, 64
2, 263325, Note_on_c, 0, 54, 28
2, 263326, Note_on_c, 0, 71, 39
2, 263336, Note_off_c, 0, 68, 64
2, 263357, Note_on_c, 0, 69, 39
2, 263368, Note_on_c, 0, 42, 39
2, 263375, Note_off_c, 0, 71, 64
2, 263375, Note_off_c, 0, 49, 64
2, 263385, Note_on_c, 0, 66, 40
2, 263409, Note_off_c, 0, 69, 64
2, 263412, Note_on_c, 0, 62, 44
2, 263415, Note_off_c, 0, 54, 64
2, 263429, Note_off_c, 0, 66, 64
2, 263436, Note_on_c, 0, 74, 37
2, 263463, Note_off_c, 0, 61, 64
2, 263473, Note_off_c, 0, 74, 64
2, 263480, Note_off_c, 0, 57, 64
2, 263485, Note_on_c, 0, 57, 45
2, 263488, Note_off_c, 0, 42, 64
2, 263488, Note_on_c, 0, 61, 66
2, 263512, Note_off_c, 0, 62, 64
2, 263548, Note_on_c, 0, 73, 45
2, 263553, Note_on_c, 0, 49, 41
2, 263571, Control_c, 0, 64, 127
2, 263579, Note_on_c, 0, 68, 42
2, 263579, Control_c, 0, 64, 0
2, 263600, Note_on_c, 0, 54, 33
2, 263610, Note_on_c, 0, 71, 34
2, 263613, Note_off_c, 0, 68, 64
2, 263622, Note_off_c, 0, 73, 64
2, 263631, Note_on_c, 0, 69, 39
2, 263638, Note_off_c, 0, 71, 64
2, 263641, Note_off_c, 0, 49, 64
2, 263648, Note_on_c, 0, 45, 38
2, 263660, Note_on_c, 0, 68, 28
2, 263669, Note_off_c, 0, 69, 64
2, 263685, Note_on_c, 0, 66, 66
2, 263689, Note_off_c, 0, 68, 64
2, 263689, Note_off_c, 0, 54, 64
2, 263711, Note_on_c, 0, 78, 45
2, 263745, Note_off_c, 0, 66, 64
2, 263746, Note_off_c, 0, 78, 64
2, 263751, Note_on_c, 0, 66, 60
2, 263755, Note_on_c, 0, 62, 48
2, 263768, Note_off_c, 0, 45, 64
2, 263770, Note_off_c, 0, 57, 64
2, 263778, Note_off_c, 0, 61, 64
2, 263798, Note_on_c, 0, 78, 33
2, 263807, Note_on_c, 0, 56, 29
2, 263835, Note_on_c, 0, 70, 45
2, 263845, Note_on_c, 0, 59, 35
2, 263863, Note_off_c, 0, 78, 64
2, 263864, Note_on_c, 0, 73, 42
2, 263872, Note_off_c, 0, 70, 64
2, 263873, Note_off_c, 0, 56, 64
2, 263880, Note_on_c, 0, 50, 37
2, 263894, Note_on_c, 0, 71, 41
2, 263918, Note_on_c, 0, 68, 39
2, 263929, Note_off_c, 0, 73, 64
2, 263931, Note_off_c, 0, 59, 64
2, 263943, Note_on_c, 0, 65, 48
2, 263946, Note_off_c, 0, 71, 64
2, 263951, Note_off_c, 0, 66, 64
2, 263973, Note_off_c, 0, 68, 64
2, 263983, Note_on_c, 0, 77, 43
2, 264000, Note_off_c, 0, 50, 64
2, 264012, Note_off_c, 0, 77, 64
2, 264027, Note_on_c, 0, 61, 47
2, 264034, Note_on_c, 0, 69, 54
2, 264038, Note_off_c, 0, 65, 64
2, 264039, Note_off_c, 0, 62, 64
2, 264068, Note_on_c, 0, 81, 43
2, 264081, Note_on_c, 0, 53, 37
2, 264105, Note_on_c, 0, 72, 41
2, 264108, Note_off_c, 0, 81, 64
2, 264130, Note_on_c, 0, 59, 38
2, 264136, Note_off_c, 0, 53, 64
2, 264140, Note_on_c, 0, 74, 37
2, 264147, Note_off_c, 0, 72, 64
2, 264174, Note_on_c, 0, 73, 42
2, 264182, Note_on_c, 0, 49, 27
2, 264189, Note_off_c, 0, 74, 64
2, 264205, Note_off_c, 0, 59, 64
2, 264214, Note_on_c, 0, 71, 27
2, 264230, Note_off_c, 0, 73, 64
2, 264262, Note_on_c, 0, 68, 48
2, 264303, Note_on_c, 0, 80, 42
2, 264306, Note_off_c, 0, 71, 64
2, 264312, Note_off_c, 0, 49, 64
2, 264324, Note_off_c, 0, 69, 64
2, 264334, Note_off_c, 0, 80, 64
2, 264338, Note_off_c, 0, 61, 64
2, 264362, Note_off_c, 0, 68, 64
2, 264376, Note_on_c, 0, 57, 62
2, 264386, Note_on_c, 0, 61, 57
2, 264441, Note_on_c, 0, 73, 40
2, 264448, Note_on_c, 0, 49, 38
2, 264449, Control_c, 0, 64, 127
2, 264457, Control_c, 0, 64, 0
2, 264473, Control_c, 0, 64, 127
2, 264492, Note_on_c, 0, 68, 37
2, 264509, Note_on_c, 0, 54, 36
2, 264511, Note_off_c, 0, 73, 64
2, 264528, Note_on_c, 0, 71, 39
2, 264535, Note_off_c, 0, 49, 64
2, 264536, Note_off_c, 0, 68, 64
2, 264556, Note_on_c, 0, 69, 40
2, 264560, Note_on_c, 0, 42, 33
2, 264587, Note_off_c, 0, 71, 64
2, 264588, Note_on_c, 0, 66, 39
2, 264617, Note_on_c, 0, 62, 32
2, 264619, Note_off_c, 0, 69, 64
2, 264625, Control_c, 0, 64, 0
2, 264632, Note_off_c, 0, 66, 64
2, 264646, Note_on_c, 0, 74, 35
2, 264647, Note_off_c, 0, 54, 64
2, 264660, Note_off_c, 0, 57, 64
2, 264674, Note_off_c, 0, 74, 64
2, 264676, Note_off_c, 0, 61, 64
2, 264680, Note_off_c, 0, 42, 64
2, 264688, Note_on_c, 0, 61, 70
2, 264688, Note_on_c, 0, 57, 48
2, 264713, Control_c, 0, 64, 127
2, 264717, Note_off_c, 0, 62, 64
2, 264720, Control_c, 0, 64, 0
2, 264727, Note_on_c, 0, 73, 43
2, 264729, Control_c, 0, 64, 127
2, 264751, Note_on_c, 0, 49, 30
2, 264762, Note_on_c, 0, 68, 34
2, 264793, Note_on_c, 0, 54, 33
2, 264796, Note_on_c, 0, 71, 43
2, 264799, Note_off_c, 0, 73, 64
2, 264802, Note_off_c, 0, 68, 64
2, 264829, Note_on_c, 0, 69, 31
2, 264837, Note_off_c, 0, 71, 64
2, 264837, Note_off_c, 0, 49, 64
2, 264845, Note_on_c, 0, 45, 43
2, 264860, Note_off_c, 0, 69, 64
2, 264862, Note_on_c, 0, 68, 23
2, 264889, Note_off_c, 0, 68, 64
2, 264896, Note_on_c, 0, 66, 80
2, 264916, Note_off_c, 0, 54, 64
2, 264933, Note_on_c, 0, 81, 48
2, 264965, Note_off_c, 0, 45, 64
2, 264978, Note_off_c, 0, 61, 64
2, 264990, Control_c, 0, 64, 0
2, 264996, Note_off_c, 0, 81, 64
2, 264996, Note_on_c, 0, 69, 68
2, 264997, Note_on_c, 0, 65, 50
2, 265008, Note_off_c, 0, 57, 64
2, 265016, Note_off_c, 0, 66, 64
2, 265042, Control_c, 0, 64, 127
2, 265046, Note_on_c, 0, 81, 34
2, 265055, Note_on_c, 0, 59, 50
2, 265090, Note_on_c, 0, 73, 47
2, 265100, Note_on_c, 0, 62, 47
2, 265103, Note_off_c, 0, 81, 64
2, 265128, Note_on_c, 0, 76, 49
2, 265135, Note_off_c, 0, 59, 64
2, 265139, Note_off_c, 0, 73, 64
2, 265150, Note_on_c, 0, 53, 40
2, 265156, Note_on_c, 0, 74, 54
2, 265169, Note_off_c, 0, 76, 64
2, 265188, Note_on_c, 0, 71, 49
2, 265207, Note_off_c, 0, 74, 64
2, 265221, Note_on_c, 0, 68, 77
2, 265243, Note_off_c, 0, 71, 64
2, 265253, Note_on_c, 0, 80, 50
2, 265266, Control_c, 0, 64, 0
2, 265270, Note_off_c, 0, 53, 64
2, 265271, Note_off_c, 0, 62, 64
2, 265283, Note_off_c, 0, 80, 64
2, 265286, Note_off_c, 0, 69, 64
2, 265296, Note_on_c, 0, 64, 59
2, 265302, Note_on_c, 0, 73, 75
2, 265317, Note_off_c, 0, 65, 64
2, 265321, Note_off_c, 0, 68, 64
2, 265344, Note_on_c, 0, 85, 46
2, 265357, Note_on_c, 0, 56, 52
2, 265387, Note_off_c, 0, 85, 64
2, 265388, Note_on_c, 0, 75, 60
2, 265403, Note_on_c, 0, 62, 53
2, 265417, Note_on_c, 0, 78, 57
2, 265425, Note_off_c, 0, 75, 64
2, 265438, Control_c, 0, 64, 127
2, 265446, Control_c, 0, 64, 0
2, 265451, Note_on_c, 0, 76, 59
2, 265465, Note_off_c, 0, 56, 64
2, 265465, Note_on_c, 0, 52, 44
2, 265465, Control_c, 0, 64, 127
2, 265484, Note_on_c, 0, 74, 55
2, 265507, Note_off_c, 0, 78, 64
2, 265516, Note_on_c, 0, 71, 60
2, 265518, Note_off_c, 0, 62, 64
2, 265530, Note_off_c, 0, 74, 64
2, 265542, Note_off_c, 0, 76, 64
2, 265558, Note_on_c, 0, 83, 50
2, 265585, Note_off_c, 0, 52, 64
2, 265585, Control_c, 0, 64, 0
2, 265591, Note_off_c, 0, 71, 64
2, 265592, Note_off_c, 0, 83, 64
2, 265592, Note_off_c, 0, 73, 64
2, 265603, Note_on_c, 0, 67, 68
2, 265607, Note_on_c, 0, 71, 75
2, 265616, Note_off_c, 0, 64, 64
2, 265652, Note_on_c, 0, 83, 53
2, 265672, Note_on_c, 0, 61, 45
2, 265681, Control_c, 0, 64, 127
2, 265690, Control_c, 0, 64, 0
2, 265695, Note_on_c, 0, 75, 33
2, 265698, Control_c, 0, 64, 127
2, 265710, Note_on_c, 0, 64, 43
2, 265721, Note_off_c, 0, 83, 64
2, 265727, Note_on_c, 0, 78, 46
2, 265737, Note_off_c, 0, 75, 64
2, 265752, Note_off_c, 0, 61, 64
2, 265755, Note_on_c, 0, 76, 61
2, 265759, Note_on_c, 0, 55, 53
2, 265772, Note_off_c, 0, 78, 64
2, 265790, Note_on_c, 0, 73, 58
2, 265800, Note_off_c, 0, 76, 64
2, 265817, Note_off_c, 0, 64, 64
2, 265819, Note_on_c, 0, 70, 85
2, 265832, Note_off_c, 0, 73, 64
2, 265844, Control_c, 0, 64, 0
2, 265850, Note_on_c, 0, 82, 63
2, 265879, Note_off_c, 0, 55, 64
2, 265884, Note_off_c, 0, 82, 64
2, 265897, Note_off_c, 0, 71, 64
2, 265902, Note_on_c, 0, 66, 76
2, 265907, Note_on_c, 0, 74, 78
2, 265919, Note_off_c, 0, 70, 64
2, 265923, Note_off_c, 0, 67, 64
2, 265959, Note_on_c, 0, 86, 59
2, 265981, Note_on_c, 0, 58, 54
2, 265992, Note_on_c, 0, 77, 48
2, 265996, Note_off_c, 0, 86, 64
2, 266016, Note_on_c, 0, 64, 55
2, 266025, Note_on_c, 0, 79, 58
2, 266033, Note_off_c, 0, 77, 64
2, 266058, Note_on_c, 0, 78, 65
2, 266058, Note_on_c, 0, 53, 39
2, 266061, Note_off_c, 0, 58, 64
2, 266068, Note_off_c, 0, 79, 64
2, 266087, Note_on_c, 0, 76, 54
2, 266100, Note_off_c, 0, 78, 64
2, 266117, Note_on_c, 0, 73, 72
2, 266120, Note_off_c, 0, 64, 64
2, 266129, Note_off_c, 0, 76, 64
2, 266153, Note_on_c, 0, 85, 58
2, 266178, Note_off_c, 0, 53, 64
2, 266192, Note_off_c, 0, 73, 64
2, 266196, Note_off_c, 0, 85, 64
2, 266197, Note_off_c, 0, 74, 64
2, 266199, Note_on_c, 0, 69, 62
2, 266206, Note_on_c, 0, 73, 79
2, 266222, Note_off_c, 0, 66, 64
2, 266241, Note_on_c, 0, 85, 61
2, 266258, Note_on_c, 0, 63, 56
2, 266285, Note_on_c, 0, 77, 46
2, 266300, Note_on_c, 0, 66, 52
2, 266308, Note_on_c, 0, 80, 54
2, 266311, Note_off_c, 0, 77, 64
2, 266334, Note_off_c, 0, 85, 64
2, 266342, Note_on_c, 0, 78, 53
2, 266344, Note_off_c, 0, 63, 64
2, 266352, Note_on_c, 0, 57, 38
2, 266373, Note_on_c, 0, 75, 50
2, 266391, Note_off_c, 0, 80, 64
2, 266403, Note_on_c, 0, 72, 64
2, 266418, Note_off_c, 0, 66, 64
2, 266421, Note_off_c, 0, 78, 64
2, 266439, Note_off_c, 0, 75, 64
2, 266440, Note_on_c, 0, 84, 59
2, 266463, Note_off_c, 0, 84, 64
2, 266472, Note_off_c, 0, 57, 64
2, 266483, Note_off_c, 0, 72, 64
2, 266496, Note_off_c, 0, 73, 64
2, 266509, Note_on_c, 0, 72, 58
2, 266514, Note_on_c, 0, 77, 64
2, 266519, Note_off_c, 0, 69, 64
2, 266563, Note_on_c, 0, 89, 36
2, 266581, Note_on_c, 0, 66, 48
2, 266595, Note_on_c, 0, 80, 57
2, 266598, Note_off_c, 0, 89, 64
2, 266625, Note_on_c, 0, 69, 47
2, 266626, Note_on_c, 0, 83, 52
2, 266640, Note_off_c, 0, 80, 64
2, 266654, Note_on_c, 0, 81, 54
2, 266666, Note_on_c, 0, 60, 32
2, 266671, Note_off_c, 0, 83, 64
2, 266684, Note_off_c, 0, 66, 64
2, 266688, Note_on_c, 0, 80, 64
2, 266692, Note_off_c, 0, 81, 64
2, 266705, Note_off_c, 0, 69, 64
2, 266726, Note_on_c, 0, 78, 73
2, 266729, Note_off_c, 0, 80, 64
2, 266757, Note_on_c, 0, 90, 58
2, 266786, Note_off_c, 0, 60, 64
2, 266801, Note_off_c, 0, 78, 64
2, 266802, Note_off_c, 0, 90, 64
2, 266804, Note_off_c, 0, 77, 64
2, 266816, Note_on_c, 0, 80, 94
2, 266816, Note_on_c, 0, 78, 60
2, 266829, Note_off_c, 0, 72, 64
2, 266851, Note_on_c, 0, 92, 59
2, 266852, Note_on_c, 0, 69, 60
2, 266891, Note_on_c, 0, 86, 54
2, 266917, Note_on_c, 0, 72, 32
2, 266921, Note_on_c, 0, 89, 66
2, 266925, Note_off_c, 0, 86, 64
2, 266930, Note_off_c, 0, 92, 64
2, 266946, Note_on_c, 0, 63, 24
2, 266955, Note_off_c, 0, 69, 64
2, 266956, Note_on_c, 0, 87, 65
2, 266978, Note_off_c, 0, 89, 64
2, 266984, Note_on_c, 0, 84, 59
2, 266991, Note_off_c, 0, 72, 64
2, 267015, Note_on_c, 0, 81, 65
2, 267017, Note_off_c, 0, 87, 64
2, 267029, Note_off_c, 0, 84, 64
2, 267038, Note_on_c, 0, 93, 59
2, 267055, Note_off_c, 0, 80, 64
2, 267056, Note_off_c, 0, 78, 64
2, 267069, Note_off_c, 0, 93, 64
2, 267077, Note_on_c, 0, 78, 78
2, 267084, Note_on_c, 0, 80, 89
2, 267094, Note_off_c, 0, 63, 64
2, 267095, Note_off_c, 0, 81, 64
2, 267115, Note_on_c, 0, 92, 58
2, 267135, Note_on_c, 0, 69, 26
2, 267148, Note_on_c, 0, 86, 69
2, 267184, Note_on_c, 0, 72, 32
2, 267186, Note_on_c, 0, 89, 65
2, 267191, Note_off_c, 0, 86, 64
2, 267222, Note_off_c, 0, 92, 64
2, 267222, Note_on_c, 0, 87, 71
2, 267233, Note_on_c, 0, 63, 50
2, 267238, Note_off_c, 0, 69, 64
2, 267249, Note_off_c, 0, 89, 64
2, 267250, Note_on_c, 0, 84, 64
2, 267284, Note_on_c, 0, 81, 69
2, 267292, Note_off_c, 0, 87, 64
2, 267294, Note_off_c, 0, 84, 64
2, 267295, Note_off_c, 0, 72, 64
2, 267315, Note_on_c, 0, 93, 65
2, 267317, Note_off_c, 0, 78, 64
2, 267323, Note_off_c, 0, 80, 64
2, 267346, Note_off_c, 0, 93, 64
2, 267355, Note_on_c, 0, 78, 69
2, 267361, Note_on_c, 0, 80, 92
2, 267364, Note_off_c, 0, 81, 64
2, 267379, Note_off_c, 0, 63, 64
2, 267385, Note_on_c, 0, 92, 50
2, 267406, Note_on_c, 0, 69, 28
2, 267414, Note_on_c, 0, 85, 83
2, 267433, Note_on_c, 0, 72, 65
2, 267450, Note_on_c, 0, 88, 65
2, 267458, Note_off_c, 0, 85, 64
2, 267478, Note_off_c, 0, 92, 64
2, 267480, Note_on_c, 0, 86, 71
2, 267482, Note_off_c, 0, 69, 64
2, 267490, Note_on_c, 0, 62, 43
2, 267500, Note_off_c, 0, 88, 64
2, 267517, Note_on_c, 0, 84, 70
2, 267538, Note_off_c, 0, 86, 64
2, 267548, Note_on_c, 0, 81, 81
2, 267559, Note_off_c, 0, 84, 64
2, 267576, Note_on_c, 0, 93, 73
2, 267590, Note_off_c, 0, 72, 64
2, 267594, Note_off_c, 0, 78, 64
2, 267600, Note_off_c, 0, 80, 64
2, 267610, Note_off_c, 0, 93, 64
2, 267610, Note_off_c, 0, 62, 64
2, 267618, Note_on_c, 0, 78, 79
2, 267620, Note_on_c, 0, 80, 92
2, 267628, Note_off_c, 0, 81, 64
2, 267649, Note_on_c, 0, 92, 59
2, 267664, Note_on_c, 0, 69, 58
2, 267686, Note_on_c, 0, 85, 77
2, 267697, Note_on_c, 0, 72, 66
2, 267720, Note_on_c, 0, 88, 64
2, 267724, Note_off_c, 0, 69, 64
2, 267725, Note_off_c, 0, 92, 64
2, 267730, Note_off_c, 0, 85, 64
2, 267749, Note_on_c, 0, 86, 57
2, 267752, Note_on_c, 0, 62, 51
2, 267783, Note_on_c, 0, 84, 62
2, 267787, Note_off_c, 0, 88, 64
2, 267812, Note_off_c, 0, 86, 64
2, 267819, Note_on_c, 0, 81, 66
2, 267834, Note_off_c, 0, 72, 64
2, 267835, Note_off_c, 0, 84, 64
2, 267855, Note_off_c, 0, 78, 64
2, 267859, Note_off_c, 0, 80, 64
2, 267870, Note_on_c, 0, 93, 51
2, 267872, Note_off_c, 0, 62, 64
2, 267899, Note_off_c, 0, 81, 64
2, 267912, Note_on_c, 0, 78, 73
2, 267913, Note_on_c, 0, 81, 86
2, 267919, Note_off_c, 0, 93, 64
2, 267974, Note_on_c, 0, 93, 58
2, 267989, Note_on_c, 0, 69, 57
2, 268012, Note_on_c, 0, 89, 63
2, 268026, Note_on_c, 0, 73, 59
2, 268048, Note_on_c, 0, 92, 64
2, 268054, Note_off_c, 0, 89, 64
2, 268067, Note_on_c, 0, 61, 39
2, 268082, Note_off_c, 0, 93, 64
2, 268082, Note_on_c, 0, 90, 74
2, 268089, Note_off_c, 0, 69, 64
2, 268108, Note_on_c, 0, 85, 59
2, 268123, Note_off_c, 0, 81, 64
2, 268130, Note_off_c, 0, 92, 64
2, 268142, Note_off_c, 0, 90, 64
2, 268144, Note_on_c, 0, 81, 69
2, 268151, Note_off_c, 0, 78, 64
2, 268153, Note_off_c, 0, 85, 64
2, 268162, Note_off_c, 0, 73, 64
2, 268168, Note_on_c, 0, 93, 43
2, 268187, Note_off_c, 0, 61, 64
2, 268200, Note_off_c, 0, 93, 64
2, 268206, Note_on_c, 0, 76, 62
2, 268212, Note_on_c, 0, 80, 83
2, 268214, Note_off_c, 0, 81, 64
2, 268248, Note_on_c, 0, 92, 36
2, 268250, Note_on_c, 0, 68, 41
2, 268283, Note_on_c, 0, 73, 58
2, 268284, Note_on_c, 0, 87, 50
2, 268314, Note_on_c, 0, 90, 55
2, 268322, Note_off_c, 0, 87, 64
2, 268327, Note_on_c, 0, 61, 49
2, 268338, Note_off_c, 0, 73, 64
2, 268339, Note_off_c, 0, 92, 64
2, 268342, Note_on_c, 0, 88, 58
2, 268367, Note_off_c, 0, 68, 64
2, 268376, Note_on_c, 0, 85, 64
2, 268380, Note_off_c, 0, 90, 64
2, 268392, Note_off_c, 0, 80, 64
2, 268400, Note_off_c, 0, 88, 64
2, 268407, Note_on_c, 0, 80, 70
2, 268412, Note_off_c, 0, 85, 64
2, 268431, Note_on_c, 0, 92, 58
2, 268447, Note_off_c, 0, 61, 64
2, 268455, Note_off_c, 0, 76, 64
2, 268456, Note_off_c, 0, 92, 64
2, 268477, Note_off_c, 0, 80, 64
2, 268477, Note_on_c, 0, 73, 60
2, 268481, Note_on_c, 0, 76, 58
2, 268531, Note_on_c, 0, 88, 54
2, 268539, Note_on_c, 0, 64, 43
2, 268568, Note_on_c, 0, 83, 60
2, 268568, Note_on_c, 0, 69, 56
2, 268598, Note_on_c, 0, 86, 59
2, 268602, Note_off_c, 0, 83, 64
2, 268620, Note_on_c, 0, 57, 28
2, 268626, Note_on_c, 0, 85, 63
2, 268635, Note_off_c, 0, 88, 64
2, 268637, Note_off_c, 0, 69, 64
2, 268641, Note_off_c, 0, 64, 64
2, 268652, Note_off_c, 0, 86, 64
2, 268655, Note_on_c, 0, 81, 59
2, 268661, Note_off_c, 0, 76, 64
2, 268668, Note_off_c, 0, 85, 64
2, 268687, Note_on_c, 0, 76, 69
2, 268692, Note_off_c, 0, 81, 64
2, 268696, Note_on_c, 0, 88, 69
2, 268698, Note_off_c, 0, 73, 64
2, 268748, Note_off_c, 0, 88, 64
2, 268754, Note_on_c, 0, 69, 58
2, 268757, Note_off_c, 0, 76, 64
2, 268759, Note_on_c, 0, 73, 80
2, 268776, Note_off_c, 0, 57, 64
2, 268796, Note_on_c, 0, 85, 57
2, 268809, Note_on_c, 0, 61, 54
2, 268829, Note_on_c, 0, 80, 58
2, 268842, Note_on_c, 0, 66, 50
2, 268859, Note_off_c, 0, 85, 64
2, 268862, Note_on_c, 0, 83, 45
2, 268866, Note_off_c, 0, 80, 64
2, 268887, Note_on_c, 0, 54, 42
2, 268893, Note_on_c, 0, 81, 51
2, 268901, Note_off_c, 0, 83, 64
2, 268903, Note_off_c, 0, 66, 64
2, 268919, Note_off_c, 0, 73, 64
2, 268924, Note_on_c, 0, 78, 51
2, 268943, Note_off_c, 0, 61, 64
2, 268945, Note_on_c, 0, 73, 68
2, 268947, Note_off_c, 0, 81, 64
2, 268954, Note_off_c, 0, 78, 64
2, 268974, Note_on_c, 0, 85, 65
2, 268993, Note_off_c, 0, 69, 64
2, 268997, Note_off_c, 0, 85, 64
2, 269014, Note_on_c, 0, 64, 59
2, 269017, Note_off_c, 0, 54, 64
2, 269022, Note_on_c, 0, 68, 71
2, 269045, Note_off_c, 0, 73, 64
2, 269050, Note_on_c, 0, 80, 41
2, 269077, Note_on_c, 0, 56, 50
2, 269099, Note_on_c, 0, 75, 52
2, 269112, Note_on_c, 0, 61, 39
2, 269127, Note_on_c, 0, 78, 59
2, 269137, Note_off_c, 0, 75, 64
2, 269155, Note_off_c, 0, 61, 64
2, 269155, Note_on_c, 0, 76, 49
2, 269155, Note_on_c, 0, 49, 42
2, 269173, Note_off_c, 0, 80, 64
2, 269181, Note_off_c, 0, 56, 64
2, 269188, Note_on_c, 0, 73, 58
2, 269193, Note_off_c, 0, 78, 64
2, 269202, Note_off_c, 0, 68, 64
2, 269209, Note_off_c, 0, 76, 64
2, 269214, Note_off_c, 0, 64, 64
2, 269215, Note_on_c, 0, 68, 65
2, 269222, Note_off_c, 0, 73, 64
2, 269242, Note_on_c, 0, 80, 57
2, 269271, Note_off_c, 0, 80, 64
2, 269273, Note_off_c, 0, 49, 64
2, 269282, Note_on_c, 0, 62, 64
2, 269286, Note_on_c, 0, 66, 71
2, 269295, Note_off_c, 0, 68, 64
2, 269325, Note_on_c, 0, 78, 54
2, 269330, Note_on_c, 0, 54, 43
2, 269362, Note_on_c, 0, 73, 59
2, 269372, Note_on_c, 0, 57, 48
2, 269386, Note_off_c, 0, 78, 64
2, 269394, Note_on_c, 0, 76, 49
2, 269398, Note_off_c, 0, 73, 64
2, 269413, Note_on_c, 0, 74, 33
2, 269417, Note_on_c, 0, 50, 35
2, 269437, Note_off_c, 0, 76, 64
2, 269447, Note_on_c, 0, 69, 49
2, 269451, Note_off_c, 0, 62, 64
2, 269456, Note_off_c, 0, 54, 64
2, 269464, Note_off_c, 0, 57, 64
2, 269466, Note_off_c, 0, 66, 64
2, 269487, Note_on_c, 0, 66, 66
2, 269488, Note_off_c, 0, 74, 64
2, 269492, Note_off_c, 0, 69, 64
2, 269514, Note_on_c, 0, 78, 57
2, 269547, Note_off_c, 0, 50, 64
2, 269552, Note_off_c, 0, 78, 64
2, 269556, Note_on_c, 0, 61, 60
2, 269559, Note_on_c, 0, 64, 60
2, 269567, Note_off_c, 0, 66, 64
2, 269592, Note_on_c, 0, 52, 45
2, 269594, Note_on_c, 0, 76, 49
2, 269628, Note_on_c, 0, 71, 53
2, 269640, Note_on_c, 0, 57, 49
2, 269661, Note_on_c, 0, 74, 50
2, 269664, Note_off_c, 0, 71, 64
2, 269691, Note_on_c, 0, 73, 55
2, 269695, Note_on_c, 0, 45, 19
2, 269718, Note_off_c, 0, 52, 64
2, 269718, Note_on_c, 0, 69, 39
2, 269736, Note_off_c, 0, 74, 64
2, 269736, Note_off_c, 0, 57, 64
2, 269736, Note_off_c, 0, 76, 64
2, 269739, Note_off_c, 0, 64, 64
2, 269752, Note_on_c, 0, 64, 47
2, 269756, Note_off_c, 0, 61, 64
2, 269777, Note_off_c, 0, 69, 64
2, 269777, Note_on_c, 0, 76, 46
2, 269792, Note_off_c, 0, 73, 64
2, 269803, Note_off_c, 0, 76, 64
2, 269815, Note_off_c, 0, 45, 64
2, 269817, Note_on_c, 0, 59, 57
2, 269822, Note_on_c, 0, 62, 62
2, 269832, Note_off_c, 0, 64, 64
2, 269846, Control_c, 0, 64, 127
2, 269853, Note_on_c, 0, 74, 42
2, 269868, Note_on_c, 0, 50, 37
2, 269888, Note_on_c, 0, 69, 48
2, 269917, Note_on_c, 0, 73, 45
2, 269928, Note_on_c, 0, 55, 50
2, 269938, Note_off_c, 0, 69, 64
2, 269944, Note_on_c, 0, 71, 46
2, 269948, Note_on_c, 0, 47, 43
2, 269989, Note_on_c, 0, 67, 44
2, 269992, Note_off_c, 0, 74, 64
2, 269994, Note_off_c, 0, 50, 64
2, 270024, Note_off_c, 0, 55, 64
2, 270031, Note_off_c, 0, 67, 64
2, 270042, Note_off_c, 0, 62, 64
2, 270055, Control_c, 0, 64, 0
2, 270056, Note_on_c, 0, 62, 53
2, 270072, Note_off_c, 0, 71, 64
2, 270078, Note_off_c, 0, 47, 64
2, 270104, Note_on_c, 0, 74, 2
2, 270106, Note_off_c, 0, 73, 64
2, 270117, Note_off_c, 0, 59, 64
2, 270126, Note_off_c, 0, 62, 64
2, 270128, Note_on_c, 0, 61, 63
2, 270128, Note_on_c, 0, 57, 80
2, 270129, Note_off_c, 0, 74, 64
2, 270166, Control_c, 0, 64, 127
2, 270186, Note_on_c, 0, 73, 44
2, 270191, Note_on_c, 0, 45, 45
2, 270222, Note_on_c, 0, 49, 49
2, 270228, Note_on_c, 0, 68, 26
2, 270252, Note_on_c, 0, 71, 47
2, 270258, Note_off_c, 0, 68, 64
2, 270270, Control_c, 0, 64, 0
2, 270277, Note_on_c, 0, 37, 38
2, 270280, Note_on_c, 0, 69, 29
2, 270284, Control_c, 0, 64, 127
2, 270294, Note_off_c, 0, 71, 64
2, 270302, Note_off_c, 0, 73, 64
2, 270308, Note_off_c, 0, 61, 64
2, 270314, Note_on_c, 0, 66, 48
2, 270316, Note_off_c, 0, 45, 64
2, 270318, Note_off_c, 0, 49, 64
2, 270327, Note_off_c, 0, 69, 64
2, 270346, Note_off_c, 0, 66, 64
2, 270347, Note_on_c, 0, 61, 59
2, 270365, Control_c, 0, 64, 0
2, 270368, Note_off_c, 0, 57, 64
2, 270379, Note_off_c, 0, 61, 64
2, 270382, Note_on_c, 0, 73, 50
2, 270404, Note_on_c, 0, 57, 82
2, 270407, Note_off_c, 0, 37, 64
2, 270413, Note_on_c, 0, 61, 64
2, 270413, Control_c, 0, 64, 127
2, 270423, Note_off_c, 0, 73, 64
2, 270426, Note_on_c, 0, 45, 24
2, 270444, Note_on_c, 0, 73, 46
2, 270478, Note_on_c, 0, 49, 28
2, 270479, Note_on_c, 0, 68, 42
2, 270502, Note_on_c, 0, 71, 22
2, 270513, Note_off_c, 0, 68, 64
2, 270514, Note_on_c, 0, 37, 41
2, 270526, Note_on_c, 0, 69, 48
2, 270534, Note_off_c, 0, 73, 64
2, 270536, Note_off_c, 0, 71, 64
2, 270551, Note_off_c, 0, 45, 64
2, 270558, Note_on_c, 0, 66, 39
2, 270573, Note_off_c, 0, 61, 64
2, 270574, Note_off_c, 0, 49, 64
2, 270582, Note_off_c, 0, 69, 64
2, 270585, Note_off_c, 0, 66, 64
2, 270585, Note_on_c, 0, 61, 51
2, 270593, Control_c, 0, 64, 0
2, 270613, Note_on_c, 0, 73, 44
2, 270624, Note_off_c, 0, 61, 64
2, 270644, Note_off_c, 0, 37, 64
2, 270645, Note_off_c, 0, 73, 64
2, 270647, Note_on_c, 0, 56, 82
2, 270655, Note_on_c, 0, 61, 61
2, 270664, Note_off_c, 0, 57, 64
2, 270674, Note_on_c, 0, 45, 34
2, 270676, Note_on_c, 0, 73, 45
2, 270689, Control_c, 0, 64, 127
2, 270713, Note_on_c, 0, 68, 44
2, 270742, Note_on_c, 0, 49, 35
2, 270748, Note_on_c, 0, 71, 31
2, 270755, Note_off_c, 0, 68, 64
2, 270776, Note_on_c, 0, 37, 44
2, 270788, Note_on_c, 0, 69, 38
2, 270799, Note_off_c, 0, 45, 64
2, 270800, Note_off_c, 0, 73, 64
2, 270804, Note_off_c, 0, 71, 64
2, 270825, Note_off_c, 0, 61, 64
2, 270827, Note_on_c, 0, 66, 23
2, 270835, Control_c, 0, 64, 0
2, 270838, Note_off_c, 0, 49, 64
2, 270848, Note_on_c, 0, 61, 53
2, 270850, Note_off_c, 0, 69, 64
2, 270856, Note_off_c, 0, 66, 64
2, 270879, Note_on_c, 0, 73, 50
2, 270889, Note_off_c, 0, 61, 64
2, 270906, Note_off_c, 0, 37, 64
2, 270912, Note_off_c, 0, 73, 64
2, 270914, Note_on_c, 0, 54, 65
2, 270915, Note_on_c, 0, 61, 60
2, 270927, Note_off_c, 0, 56, 64
2, 270932, Control_c, 0, 64, 127
2, 270940, Control_c, 0, 64, 0
2, 270946, Note_on_c, 0, 73, 43
2, 270946, Note_on_c, 0, 45, 39
2, 270969, Note_on_c, 0, 68, 38
2, 270978, Note_on_c, 0, 49, 39
2, 270997, Note_on_c, 0, 71, 39
2, 271001, Note_off_c, 0, 68, 64
2, 271027, Note_on_c, 0, 69, 35
2, 271030, Note_on_c, 0, 37, 30
2, 271037, Note_off_c, 0, 73, 64
2, 271060, Note_off_c, 0, 71, 64
2, 271066, Note_on_c, 0, 66, 28
2, 271072, Note_off_c, 0, 45, 64
2, 271074, Note_off_c, 0, 49, 64
2, 271075, Note_off_c, 0, 61, 64
2, 271088, Note_on_c, 0, 61, 48
2, 271093, Note_off_c, 0, 69, 64
2, 271098, Note_off_c, 0, 66, 64
2, 271116, Note_on_c, 0, 73, 45
2, 271130, Note_off_c, 0, 61, 64
2, 271148, Note_off_c, 0, 73, 64
2, 271154, Note_off_c, 0, 54, 64
2, 271160, Note_off_c, 0, 37, 64
2, 271168, Note_on_c, 0, 54, 75
2, 271169, Note_on_c, 0, 61, 56
2, 271186, Control_c, 0, 64, 127
2, 271194, Control_c, 0, 64, 0
2, 271200, Note_on_c, 0, 73, 36
2, 271226, Note_on_c, 0, 44, 17
2, 271238, Note_on_c, 0, 67, 33
2, 271261, Note_off_c, 0, 67, 64
2, 271265, Note_on_c, 0, 69, 37
2, 271265, Note_on_c, 0, 49, 21
2, 271296, Note_on_c, 0, 68, 40
2, 271300, Note_on_c, 0, 37, 36
2, 271310, Note_off_c, 0, 69, 64
2, 271327, Note_off_c, 0, 73, 64
2, 271333, Note_on_c, 0, 66, 31
2, 271339, Note_off_c, 0, 61, 64
2, 271349, Note_off_c, 0, 68, 64
2, 271361, Note_off_c, 0, 66, 64
2, 271361, Note_off_c, 0, 49, 64
2, 271361, Note_on_c, 0, 61, 51
2, 271382, Note_off_c, 0, 44, 64
2, 271387, Note_on_c, 0, 73, 42
2, 271401, Note_off_c, 0, 61, 64
2, 271408, Note_off_c, 0, 54, 64
2, 271420, Note_off_c, 0, 73, 64
2, 271425, Note_on_c, 0, 61, 46
2, 271430, Note_off_c, 0, 37, 64
2, 271432, Note_on_c, 0, 54, 68
2, 271440, Control_c, 0, 64, 127
2, 271448, Control_c, 0, 64, 0
2, 271450, Note_on_c, 0, 73, 40
2, 271474, Note_on_c, 0, 44, 34
2, 271493, Note_on_c, 0, 67, 30
2, 271502, Note_on_c, 0, 49, 22
2, 271518, Note_on_c, 0, 69, 34
2, 271520, Note_off_c, 0, 67, 64
2, 271550, Note_on_c, 0, 68, 32
2, 271556, Note_on_c, 0, 37, 34
2, 271563, Note_off_c, 0, 69, 64
2, 271583, Note_on_c, 0, 66, 31
2, 271585, Note_off_c, 0, 73, 64
2, 271598, Note_off_c, 0, 49, 64
2, 271605, Note_off_c, 0, 61, 64
2, 271607, Note_off_c, 0, 68, 64
2, 271608, Note_on_c, 0, 61, 46
2, 271615, Note_off_c, 0, 66, 64
2, 271615, Note_off_c, 0, 44, 64
2, 271638, Note_on_c, 0, 73, 40
2, 271646, Note_off_c, 0, 61, 64
2, 271672, Note_off_c, 0, 54, 64
2, 271677, Note_off_c, 0, 73, 64
2, 271677, Note_on_c, 0, 61, 48
2, 271680, Note_on_c, 0, 53, 53
2, 271686, Note_off_c, 0, 37, 64
2, 271702, Note_on_c, 0, 73, 34
2, 271720, Note_on_c, 0, 44, 23
2, 271730, Note_on_c, 0, 67, 30
2, 271761, Note_on_c, 0, 49, 33
2, 271769, Note_on_c, 0, 69, 25
2, 271774, Note_off_c, 0, 67, 64
2, 271802, Note_on_c, 0, 68, 38
2, 271809, Note_on_c, 0, 37, 26
2, 271813, Note_off_c, 0, 69, 64
2, 271819, Note_off_c, 0, 73, 64
2, 271829, Note_on_c, 0, 65, 33
2, 271842, Note_off_c, 0, 61, 64
2, 271847, Note_off_c, 0, 68, 64
2, 271857, Note_off_c, 0, 49, 64
2, 271857, Note_on_c, 0, 61, 46
2, 271862, Note_off_c, 0, 65, 64
2, 271868, Note_off_c, 0, 44, 64
2, 271889, Note_on_c, 0, 73, 40
2, 271899, Note_off_c, 0, 61, 64
2, 271900, Note_off_c, 0, 53, 64
2, 271928, Note_on_c, 0, 53, 42
2, 271930, Note_on_c, 0, 61, 44
2, 271939, Note_off_c, 0, 37, 64
2, 271945, Note_off_c, 0, 73, 64
2, 271968, Note_on_c, 0, 73, 37
2, 271976, Note_on_c, 0, 44, 35
2, 272009, Note_on_c, 0, 67, 26
2, 272020, Note_on_c, 0, 49, 20
2, 272034, Note_off_c, 0, 67, 64
2, 272035, Note_on_c, 0, 69, 34
2, 272074, Note_on_c, 0, 37, 30
2, 272076, Note_on_c, 0, 68, 33
2, 272080, Note_off_c, 0, 69, 64
2, 272089, Note_off_c, 0, 73, 64
2, 272101, Note_off_c, 0, 44, 64
2, 272111, Note_on_c, 0, 65, 18
2, 272116, Note_off_c, 0, 49, 64
2, 272140, Note_off_c, 0, 61, 64
2, 272157, Note_on_c, 0, 61, 34
2, 272166, Note_off_c, 0, 65, 64
2, 272166, Note_off_c, 0, 68, 64
2, 272197, Note_on_c, 0, 73, 27
2, 272204, Note_off_c, 0, 37, 64
2, 272208, Note_off_c, 0, 53, 64
2, 272232, Note_off_c, 0, 61, 64
2, 272249, Note_off_c, 0, 73, 64
2, 272274, Note_on_c, 0, 61, 54
2, 272280, Note_on_c, 0, 57, 36
2, 272310, Control_c, 0, 64, 127
2, 272326, Note_on_c, 0, 73, 21
2, 272350, Note_on_c, 0, 49, 37
2, 272362, Note_on_c, 0, 68, 40
2, 272395, Note_on_c, 0, 53, 23
2, 272396, Note_on_c, 0, 71, 28
2, 272399, Note_off_c, 0, 68, 64
2, 272416, Note_off_c, 0, 73, 64
2, 272422, Note_on_c, 0, 42, 24
2, 272423, Note_on_c, 0, 69, 40
2, 272430, Note_off_c, 0, 71, 64
2, 272441, Note_off_c, 0, 49, 64
2, 272453, Note_on_c, 0, 66, 35
2, 272454, Note_off_c, 0, 61, 64
2, 272465, Note_off_c, 0, 53, 64
2, 272474, Note_off_c, 0, 69, 64
2, 272476, Note_on_c, 0, 61, 53
2, 272481, Note_off_c, 0, 66, 64
2, 272507, Note_on_c, 0, 73, 45
2, 272513, Control_c, 0, 64, 0
2, 272519, Note_off_c, 0, 61, 64
2, 272520, Note_off_c, 0, 57, 64
2, 272540, Note_on_c, 0, 57, 42
2, 272542, Note_off_c, 0, 42, 64
2, 272544, Note_off_c, 0, 73, 64
2, 272548, Note_on_c, 0, 61, 61
2, 272565, Control_c, 0, 64, 127
2, 272586, Note_on_c, 0, 73, 42
2, 272597, Note_on_c, 0, 49, 32
2, 272627, Note_on_c, 0, 68, 43
2, 272629, Note_on_c, 0, 53, 27
2, 272646, Note_off_c, 0, 49, 64
2, 272666, Note_on_c, 0, 71, 40
2, 272670, Note_off_c, 0, 53, 64
2, 272672, Note_off_c, 0, 68, 64
2, 272676, Note_on_c, 0, 42, 46
2, 272697, Note_on_c, 0, 69, 35
2, 272711, Note_off_c, 0, 71, 64
2, 272732, Note_on_c, 0, 66, 34
2, 272738, Note_off_c, 0, 73, 64
2, 272738, Note_off_c, 0, 61, 64
2, 272755, Note_off_c, 0, 69, 64
2, 272763, Note_on_c, 0, 61, 59
2, 272770, Note_off_c, 0, 66, 64
2, 272771, Control_c, 0, 64, 0
2, 272780, Note_off_c, 0, 57, 64
2, 272784, Note_off_c, 0, 42, 64
2, 272788, Note_on_c, 0, 73, 53
2, 272793, Note_off_c, 0, 61, 64
2, 272820, Note_on_c, 0, 57, 46
2, 272823, Note_off_c, 0, 73, 64
2, 272824, Note_on_c, 0, 61, 66
2, 272830, Control_c, 0, 64, 127
2, 272856, Note_on_c, 0, 73, 47
2, 272866, Note_on_c, 0, 49, 45
2, 272891, Note_on_c, 0, 68, 47
2, 272905, Note_on_c, 0, 54, 34
2, 272923, Note_on_c, 0, 71, 43
2, 272928, Note_off_c, 0, 68, 64
2, 272942, Note_off_c, 0, 49, 64
2, 272951, Note_off_c, 0, 54, 64
2, 272956, Note_off_c, 0, 73, 64
2, 272957, Note_on_c, 0, 69, 45
2, 272957, Note_on_c, 0, 42, 45
2, 272978, Note_off_c, 0, 71, 64
2, 272989, Note_on_c, 0, 66, 43
2, 273004, Note_off_c, 0, 61, 64
2, 273008, Note_off_c, 0, 69, 64
2, 273013, Note_on_c, 0, 61, 61
2, 273018, Note_off_c, 0, 66, 64
2, 273026, Control_c, 0, 64, 0
2, 273042, Note_off_c, 0, 61, 64
2, 273046, Note_on_c, 0, 73, 46
2, 273060, Note_off_c, 0, 57, 64
2, 273068, Note_off_c, 0, 73, 64
2, 273074, Note_on_c, 0, 61, 69
2, 273077, Note_off_c, 0, 42, 64
2, 273078, Note_on_c, 0, 57, 48
2, 273103, Note_on_c, 0, 73, 44
2, 273116, Control_c, 0, 64, 127
2, 273118, Note_on_c, 0, 49, 26
2, 273135, Note_on_c, 0, 68, 45
2, 273144, Control_c, 0, 64, 0
2, 273148, Note_on_c, 0, 54, 39
2, 273168, Note_off_c, 0, 73, 64
2, 273172, Note_on_c, 0, 71, 35
2, 273178, Note_off_c, 0, 68, 64
2, 273189, Note_on_c, 0, 42, 51
2, 273193, Note_off_c, 0, 54, 64
2, 273198, Note_on_c, 0, 69, 44
2, 273209, Note_off_c, 0, 49, 64
2, 273228, Note_off_c, 0, 71, 64
2, 273234, Note_off_c, 0, 61, 64
2, 273236, Note_on_c, 0, 66, 38
2, 273244, Note_off_c, 0, 42, 64
2, 273261, Note_on_c, 0, 61, 61
2, 273262, Note_off_c, 0, 69, 64
2, 273267, Note_off_c, 0, 66, 64
2, 273290, Note_on_c, 0, 73, 38
2, 273317, Note_off_c, 0, 73, 64
2, 273318, Note_off_c, 0, 57, 64
2, 273322, Note_on_c, 0, 54, 59
2, 273325, Note_on_c, 0, 62, 66
2, 273331, Note_off_c, 0, 61, 64
2, 273355, Note_on_c, 0, 74, 42
2, 273363, Note_on_c, 0, 42, 38
2, 273389, Note_on_c, 0, 70, 59
2, 273397, Note_on_c, 0, 47, 37
2, 273414, Note_on_c, 0, 73, 50
2, 273426, Note_off_c, 0, 70, 64
2, 273440, Note_on_c, 0, 71, 46
2, 273442, Note_on_c, 0, 35, 58
2, 273443, Note_off_c, 0, 74, 64
2, 273457, Note_off_c, 0, 47, 64
2, 273458, Note_off_c, 0, 42, 64
2, 273477, Note_on_c, 0, 66, 48
2, 273495, Note_off_c, 0, 62, 64
2, 273505, Note_off_c, 0, 73, 64
2, 273510, Note_off_c, 0, 66, 64
2, 273510, Note_off_c, 0, 71, 64
2, 273512, Note_on_c, 0, 62, 63
2, 273532, Note_off_c, 0, 62, 64
2, 273536, Note_on_c, 0, 74, 49
2, 273561, Note_off_c, 0, 74, 64
2, 273562, Note_off_c, 0, 54, 64
2, 273564, Note_on_c, 0, 62, 65
2, 273568, Note_on_c, 0, 54, 65
2, 273572, Note_off_c, 0, 35, 64
2, 273589, Note_on_c, 0, 74, 49
2, 273590, Note_on_c, 0, 42, 43
2, 273618, Note_on_c, 0, 47, 49
2, 273622, Note_on_c, 0, 70, 59
2, 273648, Note_on_c, 0, 73, 55
2, 273657, Note_off_c, 0, 70, 64
2, 273668, Note_off_c, 0, 74, 64
2, 273671, Note_on_c, 0, 71, 48
2, 273681, Note_off_c, 0, 47, 64
2, 273685, Note_on_c, 0, 35, 57
2, 273686, Note_off_c, 0, 42, 64
2, 273702, Note_on_c, 0, 66, 40
2, 273714, Note_off_c, 0, 62, 64
2, 273726, Note_off_c, 0, 73, 64
2, 273732, Note_off_c, 0, 71, 64
2, 273732, Note_on_c, 0, 62, 59
2, 273738, Note_off_c, 0, 66, 64
2, 273760, Note_on_c, 0, 74, 52
2, 273764, Note_off_c, 0, 62, 64
2, 273768, Note_off_c, 0, 54, 64
2, 273794, Note_off_c, 0, 74, 64
2, 273800, Note_on_c, 0, 54, 70
2, 273802, Note_on_c, 0, 62, 61
2, 273815, Note_off_c, 0, 35, 64
2, 273816, Note_on_c, 0, 74, 51
2, 273838, Note_on_c, 0, 70, 60
2, 273854, Note_on_c, 0, 73, 30
2, 273858, Note_on_c, 0, 42, 28
2, 273873, Note_off_c, 0, 70, 64
2, 273890, Note_on_c, 0, 71, 50
2, 273895, Note_off_c, 0, 74, 64
2, 273906, Note_on_c, 0, 47, 2
2, 273920, Note_on_c, 0, 35, 49
2, 273930, Note_on_c, 0, 66, 50
2, 273933, Note_off_c, 0, 73, 64
2, 273942, Note_off_c, 0, 62, 64
2, 273951, Note_off_c, 0, 71, 64
2, 273954, Note_off_c, 0, 42, 64
2, 273962, Note_on_c, 0, 62, 62
2, 273966, Note_off_c, 0, 66, 64
2, 273970, Note_off_c, 0, 47, 64
2, 273998, Note_on_c, 0, 74, 54
2, 274025, Note_off_c, 0, 74, 64
2, 274032, Note_off_c, 0, 62, 64
2, 274040, Note_off_c, 0, 54, 64
2, 274050, Note_off_c, 0, 35, 64
2, 274061, Note_on_c, 0, 66, 66
2, 274064, Note_on_c, 0, 54, 55
2, 274091, Note_on_c, 0, 78, 45
2, 274122, Note_on_c, 0, 70, 41
2, 274126, Note_on_c, 0, 42, 32
2, 274143, Note_off_c, 0, 78, 64
2, 274157, Note_on_c, 0, 73, 46
2, 274160, Note_off_c, 0, 70, 64
2, 274170, Note_on_c, 0, 47, 36
2, 274181, Note_on_c, 0, 71, 41
2, 274206, Note_on_c, 0, 66, 41
2, 274214, Note_on_c, 0, 35, 40
2, 274219, Note_off_c, 0, 71, 64
2, 274241, Note_off_c, 0, 66, 64
2, 274241, Note_off_c, 0, 66, 64
2, 274249, Note_off_c, 0, 47, 64
2, 274250, Note_on_c, 0, 62, 49
2, 274253, Note_off_c, 0, 42, 64
2, 274268, Note_off_c, 0, 73, 64
2, 274295, Note_on_c, 0, 74, 40
2, 274323, Note_off_c, 0, 74, 64
2, 274324, Note_off_c, 0, 54, 64
2, 274344, Note_off_c, 0, 35, 64
2, 274344, Note_on_c, 0, 58, 40
2, 274347, Note_on_c, 0, 61, 47
2, 274350, Note_off_c, 0, 62, 64
2, 274379, Note_on_c, 0, 73, 39
2, 274409, Note_on_c, 0, 49, 24
2, 274411, Note_on_c, 0, 68, 37
2, 274441, Note_on_c, 0, 71, 31
2, 274445, Note_off_c, 0, 68, 64
2, 274448, Note_on_c, 0, 54, 28
2, 274465, Note_on_c, 0, 70, 19
2, 274472, Note_off_c, 0, 73, 64
2, 274480, Note_off_c, 0, 71, 64
2, 274494, Note_on_c, 0, 66, 39
2, 274505, Note_off_c, 0, 70, 64
2, 274505, Note_on_c, 0, 42, 18
2, 274525, Note_off_c, 0, 49, 64
2, 274527, Note_off_c, 0, 61, 64
2, 274529, Note_off_c, 0, 66, 64
2, 274531, Note_on_c, 0, 61, 48
2, 274535, Note_off_c, 0, 54, 64
2, 274562, Note_on_c, 0, 73, 40
2, 274564, Note_off_c, 0, 58, 64
2, 274567, Note_off_c, 0, 61, 64
2, 274589, Note_off_c, 0, 73, 64
2, 274589, Note_on_c, 0, 58, 51
2, 274592, Note_on_c, 0, 61, 52
2, 274617, Note_on_c, 0, 73, 37
2, 274635, Note_off_c, 0, 42, 64
2, 274638, Note_on_c, 0, 49, 37
2, 274647, Note_on_c, 0, 68, 32
2, 274681, Note_on_c, 0, 71, 32
2, 274684, Note_off_c, 0, 68, 64
2, 274704, Note_on_c, 0, 54, 19
2, 274705, Note_on_c, 0, 70, 19
2, 274715, Note_off_c, 0, 73, 64
2, 274716, Note_off_c, 0, 71, 64
2, 274726, Note_on_c, 0, 42, 29
2, 274738, Note_on_c, 0, 66, 32
2, 274742, Note_off_c, 0, 61, 64
2, 274749, Note_off_c, 0, 70, 64
2, 274754, Note_off_c, 0, 49, 64
2, 274763, Note_on_c, 0, 61, 46
2, 274766, Note_off_c, 0, 66, 64
2, 274784, Note_on_c, 0, 73, 37
2, 274789, Note_off_c, 0, 58, 64
2, 274791, Note_off_c, 0, 54, 64
2, 274794, Note_off_c, 0, 61, 64
2, 274811, Note_off_c, 0, 73, 64
2, 274818, Note_on_c, 0, 61, 51
2, 274822, Note_on_c, 0, 58, 50
2, 274841, Note_on_c, 0, 73, 35
2, 274856, Note_off_c, 0, 42, 64
2, 274861, Control_c, 0, 64, 127
2, 274878, Note_on_c, 0, 49, 32
2, 274881, Note_on_c, 0, 68, 27
2, 274916, Note_on_c, 0, 71, 24
2, 274919, Note_off_c, 0, 68, 64
2, 274928, Note_on_c, 0, 54, 21
2, 274944, Note_on_c, 0, 70, 30
2, 274955, Note_off_c, 0, 73, 64
2, 274957, Note_off_c, 0, 71, 64
2, 274971, Note_on_c, 0, 66, 30
2, 274976, Note_on_c, 0, 42, 16
2, 274986, Note_off_c, 0, 70, 64
2, 274988, Note_off_c, 0, 61, 64
2, 274993, Note_off_c, 0, 49, 64
2, 274997, Note_on_c, 0, 61, 44
2, 275002, Note_off_c, 0, 66, 64
2, 275015, Note_off_c, 0, 54, 64
2, 275022, Note_off_c, 0, 58, 64
2, 275030, Note_off_c, 0, 61, 64
2, 275033, Note_on_c, 0, 73, 38
2, 275056, Note_on_c, 0, 61, 51
2, 275062, Note_on_c, 0, 58, 46
2, 275064, Note_off_c, 0, 73, 64
2, 275069, Control_c, 0, 64, 0
2, 275089, Note_on_c, 0, 73, 36
2, 275106, Note_off_c, 0, 42, 64
2, 275117, Note_on_c, 0, 49, 21
2, 275127, Note_on_c, 0, 68, 31
2, 275138, Control_c, 0, 64, 127
2, 275152, Note_on_c, 0, 54, 21
2, 275162, Note_off_c, 0, 68, 64
2, 275172, Note_on_c, 0, 71, 26
2, 275182, Note_on_c, 0, 70, 14
2, 275193, Note_off_c, 0, 73, 64
2, 275197, Note_on_c, 0, 42, 39
2, 275201, Note_off_c, 0, 71, 64
2, 275227, Note_on_c, 0, 66, 22
2, 275232, Note_off_c, 0, 49, 64
2, 275236, Note_off_c, 0, 61, 64
2, 275239, Note_off_c, 0, 54, 64
2, 275251, Note_off_c, 0, 70, 64
2, 275252, Note_off_c, 0, 66, 64
2, 275252, Note_on_c, 0, 61, 44
2, 275290, Note_on_c, 0, 73, 37
2, 275302, Note_off_c, 0, 58, 64
2, 275311, Control_c, 0, 64, 0
2, 275323, Note_off_c, 0, 73, 64
2, 275327, Note_off_c, 0, 42, 64
2, 275328, Note_on_c, 0, 54, 30
2, 275332, Note_off_c, 0, 61, 64
2, 275339, Note_on_c, 0, 63, 47
2, 275382, Note_on_c, 0, 75, 29
2, 275392, Control_c, 0, 64, 127
2, 275398, Note_on_c, 0, 42, 30
2, 275426, Note_on_c, 0, 70, 28
2, 275429, Note_on_c, 0, 47, 33
2, 275450, Note_on_c, 0, 73, 30
2, 275460, Note_off_c, 0, 70, 64
2, 275481, Note_on_c, 0, 71, 36
2, 275484, Note_on_c, 0, 35, 37
2, 275489, Note_off_c, 0, 75, 64
2, 275501, Note_off_c, 0, 42, 64
2, 275515, Note_on_c, 0, 66, 32
2, 275519, Note_off_c, 0, 73, 64
2, 275526, Note_off_c, 0, 47, 64
2, 275536, Control_c, 0, 64, 0
2, 275539, Note_off_c, 0, 63, 64
2, 275545, Note_off_c, 0, 71, 64
2, 275550, Note_on_c, 0, 63, 51
2, 275557, Note_off_c, 0, 66, 64
2, 275576, Note_on_c, 0, 75, 41
2, 275578, Note_off_c, 0, 54, 64
2, 275582, Note_off_c, 0, 63, 64
2, 275605, Note_off_c, 0, 75, 64
2, 275606, Note_on_c, 0, 63, 52
2, 275614, Note_off_c, 0, 35, 64
2, 275616, Note_on_c, 0, 54, 44
2, 275634, Note_on_c, 0, 75, 40
2, 275638, Note_on_c, 0, 42, 35
2, 275664, Note_on_c, 0, 70, 36
2, 275687, Note_on_c, 0, 73, 39
2, 275694, Note_on_c, 0, 47, 36
2, 275695, Note_off_c, 0, 75, 64
2, 275703, Note_off_c, 0, 70, 64
2, 275710, Note_on_c, 0, 71, 32
2, 275738, Note_on_c, 0, 35, 42
2, 275744, Note_off_c, 0, 73, 64
2, 275745, Note_on_c, 0, 66, 35
2, 275746, Note_off_c, 0, 63, 64
2, 275762, Note_off_c, 0, 71, 64
2, 275763, Note_off_c, 0, 42, 64
2, 275768, Note_on_c, 0, 63, 51
2, 275787, Note_off_c, 0, 66, 64
2, 275791, Note_off_c, 0, 47, 64
2, 275798, Note_on_c, 0, 75, 41
2, 275800, Note_off_c, 0, 63, 64
2, 275806, Note_off_c, 0, 54, 64
2, 275824, Note_on_c, 0, 54, 50
2, 275829, Note_off_c, 0, 75, 64
2, 275829, Note_on_c, 0, 63, 54
2, 275850, Note_on_c, 0, 42, 36
2, 275855, Note_on_c, 0, 75, 45
2, 275868, Note_off_c, 0, 35, 64
2, 275883, Note_on_c, 0, 70, 29
2, 275902, Note_on_c, 0, 47, 36
2, 275907, Note_on_c, 0, 73, 39
2, 275917, Note_off_c, 0, 70, 64
2, 275932, Note_off_c, 0, 75, 64
2, 275935, Note_on_c, 0, 71, 35
2, 275964, Note_off_c, 0, 73, 64
2, 275967, Note_on_c, 0, 66, 35
2, 275970, Note_on_c, 0, 35, 36
2, 275975, Note_off_c, 0, 42, 64
2, 275979, Note_off_c, 0, 63, 64
2, 275994, Note_off_c, 0, 71, 64
2, 275995, Note_on_c, 0, 63, 48
2, 275998, Note_off_c, 0, 47, 64
2, 276003, Note_off_c, 0, 66, 64
2, 276019, Note_on_c, 0, 75, 45
2, 276049, Note_off_c, 0, 75, 64
2, 276049, Note_off_c, 0, 54, 64
2, 276061, Note_on_c, 0, 66, 53
2, 276064, Note_on_c, 0, 54, 43
2, 276075, Note_off_c, 0, 63, 64
2, 276090, Note_on_c, 0, 78, 39
2, 276100, Note_off_c, 0, 35, 64
2, 276111, Note_on_c, 0, 42, 30
2, 276133, Note_on_c, 0, 70, 40
2, 276148, Note_on_c, 0, 47, 37
2, 276150, Note_off_c, 0, 78, 64
2, 276164, Note_on_c, 0, 73, 39
2, 276175, Note_off_c, 0, 70, 64
2, 276200, Note_on_c, 0, 71, 33
2, 276211, Note_off_c, 0, 66, 64
2, 276218, Note_on_c, 0, 35, 36
2, 276228, Note_off_c, 0, 47, 64
2, 276232, Note_off_c, 0, 73, 64
2, 276233, Note_on_c, 0, 66, 35
2, 276268, Note_on_c, 0, 63, 42
2, 276279, Note_off_c, 0, 71, 64
2, 276280, Note_off_c, 0, 66, 64
2, 276282, Note_off_c, 0, 42, 64
2, 276302, Note_on_c, 0, 75, 39
2, 276304, Note_off_c, 0, 54, 64
2, 276348, Note_off_c, 0, 35, 64
2, 276368, Note_on_c, 0, 61, 34
2, 276368, Note_on_c, 0, 58, 29
2, 276373, Note_off_c, 0, 75, 64
2, 276388, Note_off_c, 0, 63, 64
2, 276404, Control_c, 0, 64, 127
2, 276462, Control_c, 0, 64, 127
2, 276464, Note_on_c, 0, 73, 37
2, 276488, Note_on_c, 0, 49, 40
2, 276529, Note_on_c, 0, 68, 37
2, 276535, Note_off_c, 0, 73, 64
2, 276548, Note_off_c, 0, 49, 64
2, 276570, Note_off_c, 0, 68, 64
2, 276570, Note_on_c, 0, 71, 36
2, 276576, Note_on_c, 0, 54, 18
2, 276587, Note_on_c, 0, 42, 8
2, 276607, Note_off_c, 0, 61, 64
2, 276610, Note_on_c, 0, 70, 25
2, 276614, Note_off_c, 0, 71, 64
2, 276619, Note_off_c, 0, 54, 64
2, 276648, Note_on_c, 0, 66, 38
2, 276652, Note_off_c, 0, 70, 64
2, 276678, Note_on_c, 0, 61, 43
2, 276680, Note_off_c, 0, 42, 64
2, 276684, Note_off_c, 0, 66, 64
2, 276695, Note_off_c, 0, 58, 64
2, 276715, Note_on_c, 0, 73, 42
2, 276730, Note_off_c, 0, 61, 64
2, 276730, Control_c, 0, 64, 0
2, 276745, Note_on_c, 0, 58, 48
2, 276747, Note_on_c, 0, 61, 43
2, 276749, Note_off_c, 0, 73, 64
2, 276773, Control_c, 0, 64, 127
2, 276778, Note_on_c, 0, 73, 37
2, 276784, Note_on_c, 0, 49, 26
2, 276812, Note_on_c, 0, 68, 37
2, 276816, Note_on_c, 0, 54, 25
2, 276833, Note_off_c, 0, 73, 64
2, 276836, Note_off_c, 0, 49, 64
2, 276844, Note_on_c, 0, 71, 30
2, 276850, Note_off_c, 0, 68, 64
2, 276854, Note_off_c, 0, 54, 64
2, 276873, Note_on_c, 0, 42, 39
2, 276876, Note_on_c, 0, 70, 24
2, 276893, Note_off_c, 0, 71, 64
2, 276916, Note_on_c, 0, 66, 30
2, 276921, Note_off_c, 0, 42, 64
2, 276927, Note_off_c, 0, 61, 64
2, 276934, Note_off_c, 0, 70, 64
2, 276940, Note_on_c, 0, 61, 41
2, 276943, Note_off_c, 0, 66, 64
2, 276964, Control_c, 0, 64, 0
2, 276970, Note_off_c, 0, 58, 64
2, 276972, Note_off_c, 0, 61, 64
2, 276996, Note_on_c, 0, 61, 47
2, 276996, Note_on_c, 0, 58, 42
2, 277007, Control_c, 0, 64, 127
2, 277027, Note_on_c, 0, 73, 38
2, 277048, Note_on_c, 0, 49, 15
2, 277065, Note_on_c, 0, 68, 41
2, 277096, Note_on_c, 0, 54, 21
2, 277097, Note_on_c, 0, 71, 37
2, 277100, Note_off_c, 0, 49, 64
2, 277104, Note_off_c, 0, 68, 64
2, 277131, Note_on_c, 0, 42, 25
2, 277132, Note_off_c, 0, 73, 64
2, 277134, Note_off_c, 0, 54, 64
2, 277135, Note_on_c, 0, 70, 27
2, 277158, Note_off_c, 0, 71, 64
2, 277166, Note_off_c, 0, 61, 64
2, 277172, Note_on_c, 0, 66, 30
2, 277187, Note_off_c, 0, 42, 64
2, 277190, Note_off_c, 0, 70, 64
2, 277193, Note_on_c, 0, 61, 41
2, 277198, Note_off_c, 0, 66, 64
2, 277205, Control_c, 0, 64, 0
2, 277221, Note_off_c, 0, 58, 64
2, 277221, Note_on_c, 0, 73, 40
2, 277232, Note_off_c, 0, 61, 64
2, 277254, Note_off_c, 0, 73, 64
2, 277256, Note_on_c, 0, 61, 43
2, 277258, Note_on_c, 0, 58, 39
2, 277262, Control_c, 0, 64, 127
2, 277280, Note_on_c, 0, 49, 19
2, 277290, Note_on_c, 0, 73, 36
2, 277325, Note_on_c, 0, 68, 41
2, 277328, Note_on_c, 0, 54, 33
2, 277332, Note_off_c, 0, 49, 64
2, 277359, Note_on_c, 0, 71, 35
2, 277368, Note_off_c, 0, 68, 64
2, 277386, Note_off_c, 0, 54, 64
2, 277391, Note_on_c, 0, 42, 32
2, 277398, Note_on_c, 0, 70, 29
2, 277405, Note_off_c, 0, 73, 64
2, 277405, Note_off_c, 0, 61, 64
2, 277412, Note_off_c, 0, 71, 64
2, 277434, Note_on_c, 0, 66, 32
2, 277451, Note_off_c, 0, 42, 64
2, 277454, Note_off_c, 0, 70, 64
2, 277456, Note_on_c, 0, 61, 44
2, 277465, Note_off_c, 0, 66, 64
2, 277469, Control_c, 0, 64, 0
2, 277491, Note_on_c, 0, 73, 39
2, 277499, Note_off_c, 0, 61, 64
2, 277519, Note_off_c, 0, 73, 64
2, 277531, Note_on_c, 0, 61, 42
2, 277533, Note_on_c, 0, 57, 38
2, 277538, Note_off_c, 0, 58, 64
2, 277538, Control_c, 0, 64, 127
2, 277572, Note_on_c, 0, 73, 36
2, 277576, Note_on_c, 0, 49, 26
2, 277607, Note_on_c, 0, 68, 35
2, 277608, Note_on_c, 0, 54, 25
2, 277630, Note_off_c, 0, 49, 64
2, 277634, Note_on_c, 0, 71, 35
2, 277643, Note_off_c, 0, 68, 64
2, 277654, Note_off_c, 0, 54, 64
2, 277658, Note_on_c, 0, 42, 29
2, 277662, Note_off_c, 0, 73, 64
2, 277668, Note_on_c, 0, 69, 36
2, 277676, Note_off_c, 0, 61, 64
2, 277689, Note_off_c, 0, 71, 64
2, 277702, Note_on_c, 0, 66, 35
2, 277720, Note_off_c, 0, 69, 64
2, 277731, Note_on_c, 0, 61, 43
2, 277739, Note_off_c, 0, 66, 64
2, 277751, Control_c, 0, 64, 0
2, 277766, Note_on_c, 0, 73, 40
2, 277773, Note_off_c, 0, 57, 64
2, 277776, Note_off_c, 0, 42, 64
2, 277779, Note_off_c, 0, 61, 64
2, 277794, Note_off_c, 0, 73, 64
2, 277799, Note_on_c, 0, 61, 42
2, 277801, Note_on_c, 0, 57, 35
2, 277808, Control_c, 0, 64, 127
2, 277841, Note_on_c, 0, 73, 39
2, 277845, Note_on_c, 0, 49, 35
2, 277881, Note_on_c, 0, 68, 37
2, 277888, Note_on_c, 0, 54, 22
2, 277904, Note_off_c, 0, 73, 64
2, 277908, Note_on_c, 0, 71, 36
2, 277910, Note_off_c, 0, 49, 64
2, 277918, Note_off_c, 0, 68, 64
2, 277935, Note_on_c, 0, 42, 25
2, 277946, Note_off_c, 0, 54, 64
2, 277946, Note_on_c, 0, 69, 35
2, 277950, Note_off_c, 0, 61, 64
2, 277973, Note_off_c, 0, 71, 64
2, 277976, Note_on_c, 0, 66, 29
2, 277994, Note_off_c, 0, 69, 64
2, 278004, Note_on_c, 0, 61, 43
2, 278016, Note_off_c, 0, 66, 64
2, 278030, Control_c, 0, 64, 0
2, 278039, Note_on_c, 0, 73, 36
2, 278041, Note_off_c, 0, 57, 64
2, 278049, Note_off_c, 0, 61, 64
2, 278069, Note_off_c, 0, 73, 64
2, 278070, Note_off_c, 0, 42, 64
2, 278074, Note_on_c, 0, 61, 43
2, 278081, Note_on_c, 0, 57, 36
2, 278113, Control_c, 0, 64, 127
2, 278116, Note_on_c, 0, 73, 35
2, 278127, Note_on_c, 0, 49, 25
2, 278161, Note_on_c, 0, 68, 35
2, 278176, Note_on_c, 0, 54, 19
2, 278186, Note_off_c, 0, 73, 64
2, 278195, Note_on_c, 0, 71, 40
2, 278205, Note_off_c, 0, 68, 64
2, 278218, Note_on_c, 0, 42, 18
2, 278237, Note_off_c, 0, 61, 64
2, 278238, Note_on_c, 0, 69, 36
2, 278256, Note_off_c, 0, 54, 64
2, 278275, Note_off_c, 0, 71, 64
2, 278276, Note_on_c, 0, 66, 29
2, 278292, Control_c, 0, 64, 0
2, 278297, Note_off_c, 0, 69, 64
2, 278302, Note_on_c, 0, 61, 37
2, 278313, Note_off_c, 0, 66, 64
2, 278344, Note_on_c, 0, 73, 37
2, 278347, Note_off_c, 0, 49, 64
2, 278349, Note_off_c, 0, 42, 64
2, 278361, Note_off_c, 0, 57, 64
2, 278363, Note_off_c, 0, 61, 64
2, 278382, Note_off_c, 0, 73, 64
2, 278389, Note_on_c, 0, 57, 37
2, 278392, Note_on_c, 0, 61, 44
2, 278421, Control_c, 0, 64, 127
2, 278435, Note_on_c, 0, 73, 36
2, 278448, Note_on_c, 0, 49, 30
2, 278486, Note_on_c, 0, 68, 35
2, 278512, Note_on_c, 0, 54, 23
2, 278524, Note_on_c, 0, 71, 39
2, 278530, Note_off_c, 0, 73, 64
2, 278531, Note_off_c, 0, 68, 64
2, 278566, Note_on_c, 0, 42, 30
2, 278569, Note_on_c, 0, 69, 36
2, 278588, Note_off_c, 0, 54, 64
2, 278591, Note_off_c, 0, 61, 64
2, 278607, Note_on_c, 0, 66, 22
2, 278615, Note_off_c, 0, 71, 64
2, 278674, Note_on_c, 0, 61, 42
2, 278701, Note_off_c, 0, 42, 64
2, 278743, Note_on_c, 0, 73, 36
2, 278746, Note_off_c, 0, 66, 64
2, 278762, Note_off_c, 0, 69, 64
2, 278829, Note_off_c, 0, 49, 64
2, 278835, Note_off_c, 0, 73, 64
2, 278842, Note_off_c, 0, 61, 64
2, 278868, Note_off_c, 0, 57, 64
2, 278892, Note_on_c, 0, 61, 32
2, 278892, Note_on_c, 0, 57, 24
2, 278893, Note_on_c, 0, 73, 41
2, 278895, Note_on_c, 0, 52, 23
2, 278897, Note_on_c, 0, 64, 36
2, 278897, Note_on_c, 0, 45, 26
2, 278918, Control_c, 0, 64, 0
2, 279202, Control_c, 0, 64, 127
2, 279346, Note_off_c, 0, 73, 64
2, 279419, Note_off_c, 0, 57, 64
2, 279467, Note_off_c, 0, 61, 64
2, 279554, Note_off_c, 0, 64, 64
2, 279555, Note_off_c, 0, 45, 64
2, 279593, Note_off_c, 0, 52, 64
2, 279638, Note_on_c, 0, 47, 23
2, 279641, Note_on_c, 0, 62, 28
2, 279642, Note_on_c, 0, 55, 19
2, 279644, Note_on_c, 0, 71, 25
2, 279645, Note_on_c, 0, 67, 25
2, 279652, Control_c, 0, 64, 0
2, 279699, Control_c, 0, 64, 127
2, 279807, Note_off_c, 0, 67, 64
2, 279849, Note_off_c, 0, 55, 64
2, 279870, Note_off_c, 0, 62, 64
2, 279963, Note_off_c, 0, 71, 64
2, 279974, Note_on_c, 0, 61, 25
2, 279975, Control_c, 0, 64, 0
2, 279978, Note_on_c, 0, 59, 25
2, 279979, Note_on_c, 0, 65, 32
2, 279979, Note_on_c, 0, 56, 19
2, 279983, Note_on_c, 0, 49, 23
2, 279994, Note_off_c, 0, 47, 64
2, 280020, Control_c, 0, 64, 127
2, 280275, Note_off_c, 0, 49, 64
2, 280303, Note_off_c, 0, 56, 64
2, 280338, Note_off_c, 0, 65, 64
2, 280344, Note_on_c, 0, 42, 38
2, 280365, Control_c, 0, 64, 0
2, 280378, Note_off_c, 0, 61, 64
2, 280386, Note_off_c, 0, 59, 64
2, 280387, Note_on_c, 0, 65, 46
2, 280508, Note_on_c, 0, 49, 26
2, 280608, Note_on_c, 0, 57, 21
2, 280718, Note_on_c, 0, 61, 19
2, 280934, Note_on_c, 0, 66, 14
2, 280939, Note_off_c, 0, 65, 64
2, 282799, Note_off_c, 0, 49, 64
2, 282800, Note_off_c, 0, 61, 64
2, 282803, Note_off_c, 0, 42, 64
2, 282803, Note_off_c, 0, 57, 64
2, 282806, Note_off_c, 0, 66, 64
2, 283472, Note_on_c, 0, 59, 68
2, 283472, Control_c, 0, 64, 127
2, 283480, Note_on_c, 0, 56, 63
2, 283485, Note_on_c, 0, 52, 48
2, 283485, Note_on_c, 0, 40, 49
2, 283813, Note_on_c, 0, 47, 37
2, 283822, Note_off_c, 0, 52, 64
2, 283877, Note_off_c, 0, 56, 64
2, 284089, Note_on_c, 0, 56, 54
2, 284099, Note_on_c, 0, 52, 49
2, 284257, Note_off_c, 0, 52, 64
2, 284264, Note_off_c, 0, 56, 64
2, 284342, Note_off_c, 0, 59, 64
2, 284384, Note_on_c, 0, 59, 75
2, 284392, Note_on_c, 0, 51, 54
2, 284393, Note_on_c, 0, 35, 69
2, 284395, Note_on_c, 0, 54, 52
2, 284402, Control_c, 0, 64, 0
2, 284417, Note_off_c, 0, 40, 64
2, 284418, Note_off_c, 0, 47, 64
2, 284486, Control_c, 0, 64, 127
2, 284716, Note_on_c, 0, 47, 58
2, 284739, Note_off_c, 0, 51, 64
2, 284751, Note_off_c, 0, 54, 64
2, 284983, Note_on_c, 0, 54, 37
2, 284991, Note_on_c, 0, 51, 34
2, 285104, Note_off_c, 0, 59, 64
2, 285150, Note_on_c, 0, 59, 77
2, 285164, Note_off_c, 0, 51, 64
2, 285164, Note_off_c, 0, 54, 64
2, 285227, Note_off_c, 0, 59, 64
2, 285294, Control_c, 0, 64, 0
2, 285310, Note_on_c, 0, 56, 62
2, 285315, Note_on_c, 0, 59, 80
2, 285316, Note_on_c, 0, 52, 59
2, 285321, Note_off_c, 0, 35, 64
2, 285321, Note_on_c, 0, 40, 60
2, 285326, Note_off_c, 0, 47, 64
2, 285440, Control_c, 0, 64, 127
2, 285595, Note_on_c, 0, 47, 60
2, 285618, Note_off_c, 0, 52, 64
2, 285632, Note_off_c, 0, 56, 64
2, 285890, Note_on_c, 0, 56, 47
2, 285897, Note_on_c, 0, 52, 51
2, 285937, Note_off_c, 0, 47, 64
2, 286043, Note_off_c, 0, 56, 64
2, 286064, Note_off_c, 0, 52, 64
2, 286165, Control_c, 0, 64, 0
2, 286179, Note_on_c, 0, 61, 82
2, 286185, Note_off_c, 0, 59, 64
2, 286189, Note_on_c, 0, 57, 75
2, 286195, Note_on_c, 0, 52, 64
2, 286199, Note_on_c, 0, 45, 65
2, 286230, Note_off_c, 0, 40, 64
2, 286285, Control_c, 0, 64, 127
2, 286476, Note_off_c, 0, 57, 64
2, 286484, Note_on_c, 0, 49, 72
2, 286499, Note_off_c, 0, 52, 64
2, 286755, Note_on_c, 0, 57, 65
2, 286759, Note_on_c, 0, 52, 68
2, 286881, Note_off_c, 0, 57, 64
2, 286905, Note_off_c, 0, 52, 64
2, 286950, Note_on_c, 0, 44, 72
2, 286961, Note_off_c, 0, 61, 64
2, 286972, Note_off_c, 0, 45, 64
2, 287016, Note_on_c, 0, 61, 86
2, 287016, Note_on_c, 0, 57, 55
2, 287018, Note_on_c, 0, 42, 85
2, 287024, Note_on_c, 0, 54, 53
2, 287026, Control_c, 0, 64, 0
2, 287045, Note_off_c, 0, 44, 64
2, 287058, Note_off_c, 0, 49, 64
2, 287159, Control_c, 0, 64, 127
2, 287286, Note_off_c, 0, 57, 64
2, 287317, Note_off_c, 0, 54, 64
2, 287323, Note_on_c, 0, 49, 49
2, 287600, Note_on_c, 0, 57, 60
2, 287600, Note_on_c, 0, 54, 55
2, 287755, Note_off_c, 0, 57, 64
2, 287760, Note_off_c, 0, 54, 64
2, 287866, Control_c, 0, 64, 0
2, 287878, Note_on_c, 0, 63, 92
2, 287880, Note_on_c, 0, 54, 1
2, 287883, Note_on_c, 0, 57, 72
2, 287884, Note_off_c, 0, 49, 64
2, 287886, Note_off_c, 0, 61, 64
2, 287955, Control_c, 0, 64, 127
2, 288156, Note_on_c, 0, 49, 66
2, 288171, Note_off_c, 0, 54, 64
2, 288174, Note_off_c, 0, 57, 64
2, 288440, Note_on_c, 0, 57, 64
2, 288440, Note_on_c, 0, 54, 64
2, 288549, Note_off_c, 0, 57, 64
2, 288558, Note_off_c, 0, 63, 64
2, 288568, Note_on_c, 0, 63, 92
2, 288595, Note_off_c, 0, 54, 64
2, 288606, Note_off_c, 0, 49, 64
2, 288718, Note_off_c, 0, 63, 64
2, 288729, Control_c, 0, 64, 0
2, 288740, Note_on_c, 0, 35, 62
2, 288744, Note_on_c, 0, 63, 96
2, 288744, Note_on_c, 0, 54, 58
2, 288750, Note_on_c, 0, 59, 93
2, 288791, Note_off_c, 0, 42, 64
2, 288835, Control_c, 0, 64, 127
2, 289015, Note_on_c, 0, 51, 57
2, 289019, Note_off_c, 0, 54, 64
2, 289026, Note_off_c, 0, 59, 64
2, 289288, Note_on_c, 0, 59, 68
2, 289288, Note_on_c, 0, 54, 52
2, 289426, Note_off_c, 0, 54, 64
2, 289426, Note_off_c, 0, 59, 64
2, 289516, Note_off_c, 0, 35, 64
2, 289524, Note_off_c, 0, 63, 64
2, 289540, Note_on_c, 0, 63, 93
2, 289544, Note_on_c, 0, 47, 72
2, 289547, Note_on_c, 0, 59, 72
2, 289547, Note_on_c, 0, 56, 68
2, 289559, Note_off_c, 0, 51, 64
2, 289819, Note_on_c, 0, 51, 72
2, 289827, Note_off_c, 0, 56, 64
2, 289834, Note_off_c, 0, 59, 64
2, 290071, Note_off_c, 0, 47, 64
2, 290088, Note_on_c, 0, 59, 64
2, 290090, Note_on_c, 0, 56, 66
2, 290134, Note_off_c, 0, 51, 64
2, 290278, Note_off_c, 0, 59, 64
2, 290288, Note_on_c, 0, 47, 82
2, 290296, Note_off_c, 0, 56, 64
2, 290354, Note_on_c, 0, 59, 75
2, 290354, Note_on_c, 0, 56, 75
2, 290358, Note_on_c, 0, 64, 92
2, 290364, Note_on_c, 0, 37, 85
2, 290380, Note_off_c, 0, 63, 64
2, 290396, Control_c, 0, 64, 0
2, 290402, Note_off_c, 0, 47, 64
2, 290552, Control_c, 0, 64, 127
2, 290629, Note_on_c, 0, 52, 61
2, 290655, Note_off_c, 0, 56, 64
2, 290657, Note_off_c, 0, 59, 64
2, 290899, Note_on_c, 0, 59, 77
2, 290899, Note_on_c, 0, 56, 72
2, 291032, Note_off_c, 0, 56, 64
2, 291056, Note_off_c, 0, 59, 64
2, 291158, Note_off_c, 0, 64, 64
2, 291176, Note_on_c, 0, 61, 72
2, 291177, Note_off_c, 0, 52, 64
2, 291186, Note_on_c, 0, 54, 72
2, 291186, Note_on_c, 0, 45, 66
2, 291191, Note_on_c, 0, 64, 81
2, 291202, Control_c, 0, 64, 0
2, 291211, Note_off_c, 0, 37, 64
2, 291330, Control_c, 0, 64, 127
2, 291452, Note_on_c, 0, 52, 65
2, 291483, Note_off_c, 0, 61, 64
2, 291489, Note_off_c, 0, 54, 64
2, 291717, Note_on_c, 0, 61, 68
2, 291720, Note_on_c, 0, 54, 65
2, 291786, Note_off_c, 0, 45, 64
2, 291802, Note_off_c, 0, 54, 64
2, 291821, Note_off_c, 0, 61, 64
2, 291871, Note_off_c, 0, 64, 64
2, 291872, Note_on_c, 0, 54, 28
2, 291880, Note_on_c, 0, 64, 82
2, 291961, Note_off_c, 0, 54, 64
2, 291965, Note_off_c, 0, 52, 64
2, 291968, Note_on_c, 0, 45, 75
2, 292010, Note_off_c, 0, 64, 64
2, 292016, Note_on_c, 0, 64, 85
2, 292018, Note_on_c, 0, 35, 85
2, 292028, Note_on_c, 0, 59, 60
2, 292028, Note_on_c, 0, 54, 61
2, 292100, Note_off_c, 0, 45, 64
2, 292275, Note_on_c, 0, 52, 68
2, 292298, Note_off_c, 0, 54, 64
2, 292306, Note_off_c, 0, 59, 64
2, 292467, Note_off_c, 0, 35, 64
2, 292504, Note_on_c, 0, 54, 58
2, 292510, Note_on_c, 0, 59, 68
2, 292624, Note_off_c, 0, 52, 64
2, 292637, Note_on_c, 0, 34, 64
2, 292660, Note_off_c, 0, 59, 64
2, 292664, Note_off_c, 0, 54, 64
2, 292698, Note_on_c, 0, 35, 75
2, 292703, Note_off_c, 0, 34, 64
2, 292760, Note_off_c, 0, 35, 64
2, 292761, Note_on_c, 0, 37, 85
2, 292772, Note_on_c, 0, 54, 64
2, 292776, Note_on_c, 0, 63, 88
2, 292776, Note_on_c, 0, 59, 75
2, 292792, Note_on_c, 0, 35, 71
2, 292798, Note_off_c, 0, 37, 64
2, 292836, Note_off_c, 0, 64, 64
2, 292844, Note_on_c, 0, 37, 85
2, 292852, Note_off_c, 0, 35, 64
2, 292882, Note_on_c, 0, 35, 80
2, 292888, Note_off_c, 0, 37, 64
2, 292932, Note_on_c, 0, 37, 85
2, 292935, Note_off_c, 0, 35, 64
2, 292969, Note_on_c, 0, 35, 85
2, 292973, Note_off_c, 0, 37, 64
2, 292990, Note_on_c, 0, 51, 82
2, 293003, Note_off_c, 0, 59, 64
2, 293017, Note_off_c, 0, 54, 64
2, 293019, Note_on_c, 0, 37, 85
2, 293025, Note_off_c, 0, 35, 64
2, 293062, Note_on_c, 0, 35, 82
2, 293065, Note_off_c, 0, 37, 64
2, 293096, Note_on_c, 0, 37, 85
2, 293108, Note_off_c, 0, 35, 64
2, 293136, Note_off_c, 0, 37, 64
2, 293136, Note_on_c, 0, 35, 85
2, 293176, Note_on_c, 0, 37, 77
2, 293182, Note_off_c, 0, 35, 64
2, 293216, Note_off_c, 0, 37, 64
2, 293232, Note_on_c, 0, 35, 78
2, 293256, Note_on_c, 0, 37, 78
2, 293272, Note_off_c, 0, 35, 64
2, 293296, Note_off_c, 0, 37, 64
2, 293312, Note_on_c, 0, 35, 80
2, 293313, Note_on_c, 0, 54, 35
2, 293320, Note_on_c, 0, 59, 72
2, 293352, Note_off_c, 0, 35, 64
2, 293352, Note_on_c, 0, 37, 85
2, 293353, Note_off_c, 0, 51, 64
2, 293384, Note_on_c, 0, 35, 51
2, 293420, Note_off_c, 0, 37, 64
2, 293453, Note_off_c, 0, 59, 64
2, 293457, Note_off_c, 0, 63, 64
2, 293464, Note_on_c, 0, 63, 100
2, 293464, Note_on_c, 0, 34, 81
2, 293465, Note_off_c, 0, 35, 64
2, 293465, Note_off_c, 0, 54, 64
2, 293550, Note_off_c, 0, 34, 64
2, 293552, Note_on_c, 0, 35, 85
2, 293594, Note_off_c, 0, 63, 64
2, 293600, Note_on_c, 0, 59, 72
2, 293600, Note_on_c, 0, 56, 72
2, 293608, Note_on_c, 0, 63, 93
2, 293608, Note_on_c, 0, 37, 85
2, 293624, Note_off_c, 0, 35, 64
2, 293753, Control_c, 0, 64, 0
2, 293858, Control_c, 0, 64, 127
2, 293895, Note_off_c, 0, 56, 64
2, 293899, Note_off_c, 0, 59, 64
2, 293919, Note_on_c, 0, 52, 69
2, 294190, Note_on_c, 0, 59, 69
2, 294190, Note_on_c, 0, 56, 72
2, 294339, Note_off_c, 0, 56, 64
2, 294358, Note_off_c, 0, 59, 64
2, 294426, Control_c, 0, 64, 0
2, 294428, Note_off_c, 0, 63, 64
2, 294446, Note_on_c, 0, 42, 85
2, 294449, Note_off_c, 0, 37, 64
2, 294452, Note_on_c, 0, 63, 92
2, 294456, Note_on_c, 0, 58, 85
2, 294456, Note_on_c, 0, 54, 85
2, 294470, Note_off_c, 0, 52, 64
2, 294712, Note_on_c, 0, 52, 65
2, 294741, Note_off_c, 0, 54, 64
2, 294741, Note_off_c, 0, 58, 64
2, 294835, Control_c, 0, 64, 127
2, 294968, Note_on_c, 0, 58, 55
2, 294970, Note_on_c, 0, 54, 65
2, 295050, Note_off_c, 0, 42, 64
2, 295128, Note_on_c, 0, 61, 84
2, 295136, Note_off_c, 0, 58, 64
2, 295142, Note_off_c, 0, 63, 64
2, 295171, Note_off_c, 0, 54, 64
2, 295180, Note_off_c, 0, 52, 64
2, 295232, Note_on_c, 0, 42, 85
2, 295254, Control_c, 0, 64, 0
2, 295258, Note_off_c, 0, 61, 64
2, 295270, Note_on_c, 0, 61, 88
2, 295270, Note_on_c, 0, 57, 74
2, 295270, Note_on_c, 0, 39, 81
2, 295277, Note_on_c, 0, 54, 75
2, 295327, Note_off_c, 0, 42, 64
2, 295513, Note_off_c, 0, 54, 64
2, 295513, Note_on_c, 0, 49, 63
2, 295517, Note_off_c, 0, 57, 64
2, 295781, Note_on_c, 0, 54, 36
2, 295784, Note_on_c, 0, 57, 52
2, 295793, Note_off_c, 0, 39, 64
2, 295864, Note_off_c, 0, 57, 64
2, 295891, Note_off_c, 0, 54, 64
2, 295906, Note_on_c, 0, 37, 49
2, 295955, Note_on_c, 0, 39, 51
2, 295970, Note_off_c, 0, 37, 64
2, 295978, Note_off_c, 0, 61, 64
2, 296016, Note_on_c, 0, 61, 101
2, 296020, Note_on_c, 0, 40, 55
2, 296024, Note_on_c, 0, 57, 72
2, 296024, Note_on_c, 0, 54, 71
2, 296029, Note_off_c, 0, 39, 64
2, 296065, Note_on_c, 0, 39, 59
2, 296072, Note_off_c, 0, 49, 64
2, 296080, Note_off_c, 0, 40, 64
2, 296120, Note_off_c, 0, 39, 64
2, 296120, Note_on_c, 0, 40, 60
2, 296157, Note_off_c, 0, 40, 64
2, 296165, Note_on_c, 0, 39, 63
2, 296180, Note_on_c, 0, 40, 66
2, 296202, Note_off_c, 0, 39, 64
2, 296227, Note_off_c, 0, 40, 64
2, 296228, Note_on_c, 0, 39, 69
2, 296256, Note_on_c, 0, 47, 66
2, 296256, Note_on_c, 0, 40, 70
2, 296272, Note_off_c, 0, 39, 64
2, 296288, Note_on_c, 0, 39, 72
2, 296291, Note_off_c, 0, 40, 64
2, 296332, Note_off_c, 0, 39, 64
2, 296336, Note_on_c, 0, 40, 76
2, 296356, Note_off_c, 0, 54, 64
2, 296368, Note_on_c, 0, 39, 78
2, 296369, Note_off_c, 0, 57, 64
2, 296376, Note_off_c, 0, 40, 64
2, 296408, Note_off_c, 0, 39, 64
2, 296408, Note_on_c, 0, 40, 81
2, 296464, Note_on_c, 0, 39, 105
2, 296492, Note_off_c, 0, 40, 64
2, 296520, Note_on_c, 0, 37, 85
2, 296524, Note_off_c, 0, 39, 64
2, 296524, Note_on_c, 0, 57, 67
2, 296524, Note_on_c, 0, 54, 67
2, 296560, Note_off_c, 0, 37, 64
2, 296560, Note_on_c, 0, 39, 85
2, 296571, Note_off_c, 0, 47, 64
2, 296600, Note_off_c, 0, 39, 64
2, 296608, Note_on_c, 0, 40, 87
2, 296612, Note_off_c, 0, 57, 64
2, 296616, Note_off_c, 0, 54, 64
2, 296624, Note_on_c, 0, 59, 73
2, 296646, Note_off_c, 0, 61, 64
2, 296648, Note_off_c, 0, 40, 64
2, 296664, Note_on_c, 0, 42, 89
2, 296704, Note_off_c, 0, 42, 64
2, 296754, Note_off_c, 0, 59, 64
2, 296764, Note_on_c, 0, 52, 58
2, 296764, Note_on_c, 0, 40, 65
2, 296768, Note_on_c, 0, 59, 74
2, 296768, Note_on_c, 0, 56, 54
2, 297062, Control_c, 0, 64, 127
2, 297068, Note_off_c, 0, 52, 64
2, 297085, Note_on_c, 0, 47, 51
2, 297121, Note_off_c, 0, 56, 64
2, 297348, Note_on_c, 0, 56, 54
2, 297352, Note_on_c, 0, 52, 54
2, 297413, Note_off_c, 0, 40, 64
2, 297503, Note_off_c, 0, 47, 64
2, 297520, Note_off_c, 0, 52, 64
2, 297525, Note_off_c, 0, 56, 64
2, 297588, Note_off_c, 0, 59, 64
2, 297603, Control_c, 0, 64, 0
2, 297617, Note_on_c, 0, 54, 60
2, 297618, Note_on_c, 0, 35, 53
2, 297622, Note_on_c, 0, 59, 64
2, 297622, Note_on_c, 0, 51, 55
2, 297700, Control_c, 0, 64, 127
2, 297919, Note_off_c, 0, 51, 64
2, 297920, Note_off_c, 0, 54, 64
2, 297984, Note_on_c, 0, 47, 54
2, 298164, Note_off_c, 0, 47, 64
2, 298221, Note_on_c, 0, 54, 44
2, 298227, Note_on_c, 0, 51, 44
2, 298342, Note_off_c, 0, 59, 64
2, 298375, Note_off_c, 0, 35, 64
2, 298389, Note_on_c, 0, 59, 49
2, 298419, Note_off_c, 0, 51, 64
2, 298425, Note_off_c, 0, 54, 64
2, 298529, Note_off_c, 0, 59, 64
2, 298570, Note_on_c, 0, 59, 55
2, 298576, Note_on_c, 0, 55, 48
2, 298580, Note_on_c, 0, 50, 51
2, 298586, Note_on_c, 0, 31, 32
2, 298598, Control_c, 0, 64, 0
2, 298746, Control_c, 0, 64, 127
2, 298864, Note_on_c, 0, 47, 45
2, 298910, Note_off_c, 0, 50, 64
2, 298910, Note_off_c, 0, 55, 64
2, 299120, Note_on_c, 0, 55, 43
2, 299135, Note_on_c, 0, 50, 36
2, 299298, Note_off_c, 0, 31, 64
2, 299320, Note_off_c, 0, 50, 64
2, 299358, Note_off_c, 0, 55, 64
2, 299371, Control_c, 0, 64, 0
2, 299390, Note_off_c, 0, 59, 64
2, 299400, Note_on_c, 0, 55, 53
2, 299400, Note_on_c, 0, 50, 56
2, 299400, Note_on_c, 0, 43, 56
2, 299402, Note_on_c, 0, 59, 68
2, 299439, Note_off_c, 0, 47, 64
2, 299469, Control_c, 0, 64, 127
2, 299649, Note_off_c, 0, 55, 64
2, 299658, Note_off_c, 0, 50, 64
2, 299663, Note_on_c, 0, 47, 36
2, 299911, Note_on_c, 0, 55, 47
2, 299918, Note_on_c, 0, 50, 44
2, 300062, Note_off_c, 0, 59, 64
2, 300073, Note_on_c, 0, 59, 59
2, 300092, Note_off_c, 0, 50, 64
2, 300104, Note_off_c, 0, 47, 64
2, 300115, Note_off_c, 0, 55, 64
2, 300136, Note_on_c, 0, 41, 54
2, 300163, Note_off_c, 0, 43, 64
2, 300223, Note_off_c, 0, 59, 64
2, 300240, Note_off_c, 0, 41, 64
2, 300240, Note_on_c, 0, 55, 78
2, 300240, Note_on_c, 0, 40, 43
2, 300244, Note_on_c, 0, 60, 64
2, 300342, Control_c, 0, 64, 0
2, 300478, Control_c, 0, 64, 127
2, 300546, Note_off_c, 0, 55, 64
2, 300553, Note_on_c, 0, 48, 53
2, 300801, Note_on_c, 0, 55, 52
2, 300990, Note_off_c, 0, 55, 64
2, 301051, Control_c, 0, 64, 0
2, 301057, Note_off_c, 0, 48, 64
2, 301057, Note_on_c, 0, 58, 68
2, 301064, Note_off_c, 0, 60, 64
2, 301066, Note_on_c, 0, 62, 64
2, 301066, Note_on_c, 0, 38, 64
2, 301067, Note_on_c, 0, 55, 62
2, 301090, Note_off_c, 0, 40, 64
2, 301190, Control_c, 0, 64, 127
2, 301354, Note_on_c, 0, 50, 47
2, 301390, Note_off_c, 0, 58, 64
2, 301405, Note_off_c, 0, 55, 64
2, 301595, Note_on_c, 0, 58, 52
2, 301603, Note_on_c, 0, 55, 45
2, 301754, Note_off_c, 0, 55, 64
2, 301763, Note_off_c, 0, 58, 64
2, 301828, Note_off_c, 0, 50, 64
2, 301848, Note_on_c, 0, 58, 62
2, 301856, Note_on_c, 0, 64, 68
2, 301856, Note_on_c, 0, 36, 56
2, 301861, Note_on_c, 0, 55, 59
2, 301866, Note_off_c, 0, 62, 64
2, 301869, Control_c, 0, 64, 0
2, 301891, Note_off_c, 0, 38, 64
2, 302088, Control_c, 0, 64, 127
2, 302108, Note_on_c, 0, 52, 46
2, 302146, Note_off_c, 0, 55, 64
2, 302166, Note_off_c, 0, 58, 64
2, 302359, Note_on_c, 0, 58, 47
2, 302384, Note_on_c, 0, 55, 32
2, 302444, Note_off_c, 0, 36, 64
2, 302541, Note_off_c, 0, 58, 64
2, 302543, Note_off_c, 0, 55, 64
2, 302601, Control_c, 0, 64, 0
2, 302636, Note_off_c, 0, 64, 64
2, 302645, Note_off_c, 0, 52, 64
2, 302648, Note_on_c, 0, 64, 68
2, 302648, Note_on_c, 0, 60, 64
2, 302648, Note_on_c, 0, 48, 40
2, 302656, Note_on_c, 0, 36, 58
2, 302801, Control_c, 0, 64, 127
2, 302900, Note_on_c, 0, 52, 58
2, 302928, Note_off_c, 0, 60, 64
2, 303153, Note_on_c, 0, 60, 64
2, 303162, Note_on_c, 0, 55, 62
2, 303288, Note_off_c, 0, 64, 64
2, 303303, Note_on_c, 0, 64, 71
2, 303321, Note_off_c, 0, 60, 64
2, 303343, Note_off_c, 0, 55, 64
2, 303363, Note_off_c, 0, 48, 64
2, 303371, Note_off_c, 0, 36, 64
2, 303372, Note_on_c, 0, 34, 64
2, 303375, Note_on_c, 0, 46, 51
2, 303439, Note_off_c, 0, 34, 64
2, 303442, Note_off_c, 0, 46, 64
2, 303460, Note_on_c, 0, 33, 64
2, 303463, Note_off_c, 0, 64, 64
2, 303464, Note_on_c, 0, 61, 69
2, 303464, Note_on_c, 0, 57, 57
2, 303464, Note_on_c, 0, 45, 58
2, 303472, Note_on_c, 0, 64, 75
2, 303479, Control_c, 0, 64, 0
2, 303535, Note_off_c, 0, 52, 64
2, 303732, Note_on_c, 0, 52, 57
2, 303944, Note_off_c, 0, 57, 64
2, 303944, Note_off_c, 0, 61, 64
2, 303966, Note_on_c, 0, 61, 60
2, 303967, Note_on_c, 0, 57, 63
2, 304182, Note_off_c, 0, 64, 64
2, 304192, Note_off_c, 0, 52, 64
2, 304201, Note_off_c, 0, 61, 64
2, 304202, Note_off_c, 0, 57, 64
2, 304210, Note_off_c, 0, 33, 64
2, 304212, Note_on_c, 0, 64, 71
2, 304212, Note_on_c, 0, 61, 80
2, 304212, Note_on_c, 0, 58, 76
2, 304212, Note_on_c, 0, 43, 73
2, 304212, Note_on_c, 0, 31, 1
2, 304214, Note_off_c, 0, 45, 64
2, 304305, Control_c, 0, 64, 127
2, 304463, Note_on_c, 0, 52, 54
2, 304692, Note_off_c, 0, 58, 64
2, 304692, Note_off_c, 0, 61, 64
2, 304696, Note_on_c, 0, 61, 66
2, 304700, Note_on_c, 0, 58, 54
2, 304832, Note_off_c, 0, 64, 64
2, 304840, Note_on_c, 0, 64, 71
2, 304892, Control_c, 0, 64, 0
2, 304902, Note_off_c, 0, 52, 64
2, 304902, Note_off_c, 0, 31, 64
2, 304902, Note_off_c, 0, 43, 64
2, 304916, Note_on_c, 0, 31, 68
2, 304918, Note_on_c, 0, 43, 70
2, 304984, Control_c, 0, 64, 127
2, 304986, Note_off_c, 0, 61, 64
2, 304990, Note_off_c, 0, 64, 64
2, 304990, Note_off_c, 0, 58, 64
2, 304996, Note_off_c, 0, 31, 64
2, 304998, Note_off_c, 0, 43, 64
2, 305001, Note_on_c, 0, 65, 72
2, 305001, Note_on_c, 0, 61, 67
2, 305009, Note_on_c, 0, 58, 75
2, 305009, Note_on_c, 0, 29, 64
2, 305015, Note_on_c, 0, 41, 74
2, 305023, Control_c, 0, 64, 0
2, 305246, Control_c, 0, 64, 127
2, 305316, Note_on_c, 0, 53, 64
2, 305501, Note_off_c, 0, 61, 64
2, 305509, Note_off_c, 0, 58, 64
2, 305528, Note_on_c, 0, 61, 54
2, 305532, Note_on_c, 0, 58, 71
2, 305762, Note_off_c, 0, 53, 64
2, 305793, Note_off_c, 0, 61, 64
2, 305797, Note_off_c, 0, 58, 64
2, 305801, Note_on_c, 0, 61, 66
2, 305804, Note_on_c, 0, 58, 69
2, 305808, Note_on_c, 0, 28, 68
2, 305809, Note_off_c, 0, 29, 64
2, 305811, Note_on_c, 0, 67, 75
2, 305815, Note_off_c, 0, 41, 64
2, 305818, Note_on_c, 0, 40, 58
2, 305821, Note_off_c, 0, 65, 64
2, 305831, Control_c, 0, 64, 0
2, 305969, Control_c, 0, 64, 127
2, 306074, Note_on_c, 0, 55, 63
2, 306296, Note_off_c, 0, 61, 64
2, 306299, Note_off_c, 0, 58, 64
2, 306309, Note_on_c, 0, 58, 64
2, 306311, Note_on_c, 0, 61, 60
2, 306552, Note_off_c, 0, 55, 64
2, 306579, Note_off_c, 0, 28, 64
2, 306579, Control_c, 0, 64, 0
2, 306581, Note_off_c, 0, 67, 64
2, 306588, Note_off_c, 0, 40, 64
2, 306589, Note_on_c, 0, 39, 70
2, 306590, Note_on_c, 0, 68, 71
2, 306596, Note_on_c, 0, 27, 64
2, 306599, Note_off_c, 0, 58, 64
2, 306600, Note_on_c, 0, 60, 65
2, 306600, Note_on_c, 0, 56, 68
2, 306601, Note_off_c, 0, 61, 64
2, 306667, Control_c, 0, 64, 127
2, 306957, Note_on_c, 0, 51, 70
2, 307079, Note_on_c, 0, 63, 76
2, 307110, Note_off_c, 0, 68, 64
2, 307200, Note_off_c, 0, 56, 64
2, 307200, Note_off_c, 0, 60, 64
2, 307216, Note_on_c, 0, 56, 62
2, 307222, Note_on_c, 0, 60, 64
2, 307465, Note_off_c, 0, 51, 64
2, 307469, Note_off_c, 0, 63, 64
2, 307487, Note_off_c, 0, 60, 64
2, 307491, Note_off_c, 0, 56, 64
2, 307491, Note_on_c, 0, 63, 76
2, 307498, Note_on_c, 0, 60, 62
2, 307502, Note_on_c, 0, 55, 69
2, 307506, Control_c, 0, 64, 0
2, 307686, Control_c, 0, 64, 127
2, 307774, Note_on_c, 0, 51, 64
2, 308032, Note_off_c, 0, 55, 64
2, 308040, Note_on_c, 0, 55, 57
2, 308041, Note_on_c, 0, 58, 59
2, 308048, Note_off_c, 0, 60, 64
2, 308160, Note_on_c, 0, 61, 68
2, 308171, Note_off_c, 0, 63, 64
2, 308312, Control_c, 0, 64, 0
2, 308317, Note_off_c, 0, 61, 64
2, 308329, Note_on_c, 0, 60, 76
2, 308329, Note_on_c, 0, 56, 73
2, 308329, Note_on_c, 0, 44, 67
2, 308330, Note_off_c, 0, 55, 64
2, 308331, Note_off_c, 0, 58, 64
2, 308340, Note_off_c, 0, 39, 64
2, 308344, Note_off_c, 0, 51, 64
2, 308347, Note_off_c, 0, 27, 64
2, 308480, Control_c, 0, 64, 127
2, 308618, Note_on_c, 0, 51, 66
2, 308889, Note_off_c, 0, 56, 64
2, 308896, Note_on_c, 0, 56, 59
2, 309058, Note_off_c, 0, 51, 64
2, 309059, Note_off_c, 0, 60, 64
2, 309063, Note_on_c, 0, 59, 68
2, 309213, Note_off_c, 0, 59, 64
2, 309226, Note_off_c, 0, 56, 64
2, 309236, Note_on_c, 0, 59, 51
2, 309236, Note_on_c, 0, 51, 48
2, 309244, Note_on_c, 0, 35, 31
2, 309245, Note_off_c, 0, 44, 64
2, 309248, Note_on_c, 0, 56, 46
2, 309290, Control_c, 0, 64, 0
2, 309447, Control_c, 0, 64, 127
2, 309575, Note_on_c, 0, 47, 33
2, 309796, Note_off_c, 0, 51, 64
2, 309808, Note_off_c, 0, 56, 64
2, 309857, Note_on_c, 0, 51, 35
2, 309858, Note_on_c, 0, 57, 43
2, 310036, Note_off_c, 0, 59, 64
2, 310069, Note_on_c, 0, 59, 52
2, 310094, Note_off_c, 0, 57, 64
2, 310106, Note_off_c, 0, 51, 64
2, 310265, Note_off_c, 0, 47, 64
2, 310294, Note_off_c, 0, 59, 64
2, 310333, Note_on_c, 0, 56, 40
2, 310340, Note_on_c, 0, 59, 45
2, 310340, Note_on_c, 0, 52, 40
2, 310349, Note_on_c, 0, 40, 35
2, 310354, Note_off_c, 0, 35, 64
2, 310361, Control_c, 0, 64, 0
2, 310456, Control_c, 0, 64, 127
2, 310627, Note_on_c, 0, 47, 34
2, 310637, Note_off_c, 0, 52, 64
2, 310672, Note_off_c, 0, 56, 64
2, 310876, Note_on_c, 0, 56, 29
2, 310888, Note_on_c, 0, 52, 26
2, 310961, Note_off_c, 0, 40, 64
2, 311029, Note_off_c, 0, 47, 64
2, 311055, Note_off_c, 0, 52, 64
2, 311064, Note_off_c, 0, 56, 64
2, 311140, Note_off_c, 0, 59, 64
2, 311148, Note_on_c, 0, 47, 46
2, 311152, Note_on_c, 0, 54, 46
2, 311153, Note_on_c, 0, 51, 41
2, 311157, Note_on_c, 0, 59, 39
2, 311196, Control_c, 0, 64, 0
2, 311272, Control_c, 0, 64, 127
2, 311399, Note_off_c, 0, 47, 64
2, 311429, Note_on_c, 0, 47, 56
2, 311437, Note_off_c, 0, 51, 64
2, 311451, Note_off_c, 0, 54, 64
2, 311688, Note_on_c, 0, 54, 27
2, 311689, Note_on_c, 0, 51, 27
2, 311872, Note_off_c, 0, 59, 64
2, 311892, Note_on_c, 0, 59, 44
2, 311895, Note_off_c, 0, 51, 64
2, 311901, Note_off_c, 0, 54, 64
2, 311936, Note_off_c, 0, 59, 64
2, 311961, Note_on_c, 0, 59, 46
2, 311967, Note_on_c, 0, 56, 48
2, 311974, Note_on_c, 0, 52, 42
2, 311974, Note_on_c, 0, 40, 54
2, 311989, Control_c, 0, 64, 0
2, 312086, Note_off_c, 0, 47, 64
2, 312087, Control_c, 0, 64, 127
2, 312216, Note_on_c, 0, 47, 54
2, 312225, Note_off_c, 0, 52, 64
2, 312238, Note_off_c, 0, 56, 64
2, 312473, Note_on_c, 0, 56, 48
2, 312489, Note_on_c, 0, 52, 29
2, 312564, Note_off_c, 0, 47, 64
2, 312594, Note_off_c, 0, 52, 64
2, 312623, Note_off_c, 0, 56, 64
2, 312710, Control_c, 0, 64, 0
2, 312721, Note_off_c, 0, 59, 64
2, 312737, Note_on_c, 0, 60, 52
2, 312740, Note_on_c, 0, 57, 46
2, 312745, Note_on_c, 0, 45, 46
2, 312748, Note_on_c, 0, 52, 45
2, 312761, Note_off_c, 0, 40, 64
2, 312791, Control_c, 0, 64, 127
2, 313011, Note_on_c, 0, 48, 48
2, 313014, Note_off_c, 0, 52, 64
2, 313020, Note_off_c, 0, 57, 64
2, 313278, Note_on_c, 0, 57, 42
2, 313284, Note_on_c, 0, 52, 41
2, 313313, Note_off_c, 0, 45, 64
2, 313365, Note_off_c, 0, 57, 64
2, 313369, Note_off_c, 0, 52, 64
2, 313473, Note_on_c, 0, 45, 64
2, 313507, Note_off_c, 0, 60, 64
2, 313508, Note_on_c, 0, 29, 49
2, 313519, Control_c, 0, 64, 0
2, 313525, Note_off_c, 0, 48, 64
2, 313531, Note_on_c, 0, 41, 65
2, 313535, Note_on_c, 0, 60, 60
2, 313535, Note_on_c, 0, 57, 57
2, 313536, Note_on_c, 0, 53, 55
2, 313552, Note_off_c, 0, 45, 64
2, 313624, Control_c, 0, 64, 127
2, 313796, Note_on_c, 0, 48, 44
2, 313815, Note_off_c, 0, 53, 64
2, 313837, Note_off_c, 0, 57, 64
2, 314048, Note_on_c, 0, 57, 49
2, 314048, Note_on_c, 0, 53, 51
2, 314049, Note_off_c, 0, 48, 64
2, 314179, Note_off_c, 0, 57, 64
2, 314194, Note_off_c, 0, 53, 64
2, 314258, Note_off_c, 0, 29, 64
2, 314280, Control_c, 0, 64, 0
2, 314285, Note_off_c, 0, 60, 64
2, 314300, Note_on_c, 0, 60, 51
2, 314300, Note_on_c, 0, 24, 51
2, 314303, Note_on_c, 0, 36, 56
2, 314306, Note_on_c, 0, 55, 54
2, 314306, Note_on_c, 0, 52, 56
2, 314312, Note_on_c, 0, 48, 57
2, 314317, Note_off_c, 0, 41, 64
2, 314381, Control_c, 0, 64, 127
2, 314510, Note_off_c, 0, 48, 64
2, 314566, Note_off_c, 0, 55, 64
2, 314578, Note_on_c, 0, 48, 60
2, 314609, Note_off_c, 0, 52, 64
2, 314818, Note_on_c, 0, 55, 54
2, 314821, Note_on_c, 0, 52, 55
2, 314984, Note_off_c, 0, 52, 64
2, 314990, Note_off_c, 0, 60, 64
2, 314994, Note_on_c, 0, 60, 59
2, 315003, Note_off_c, 0, 55, 64
2, 315050, Note_off_c, 0, 24, 64
2, 315052, Note_on_c, 0, 29, 53
2, 315054, Note_off_c, 0, 60, 64
2, 315056, Control_c, 0, 64, 0
2, 315073, Note_on_c, 0, 60, 67
2, 315073, Note_on_c, 0, 57, 72
2, 315073, Note_on_c, 0, 41, 59
2, 315075, Note_on_c, 0, 53, 68
2, 315080, Note_off_c, 0, 36, 64
2, 315096, Note_off_c, 0, 48, 64
2, 315191, Control_c, 0, 64, 127
2, 315327, Note_on_c, 0, 48, 58
2, 315340, Note_off_c, 0, 53, 64
2, 315351, Note_off_c, 0, 57, 64
2, 315552, Note_on_c, 0, 57, 47
2, 315566, Note_on_c, 0, 53, 43
2, 315598, Note_off_c, 0, 48, 64
2, 315607, Note_off_c, 0, 53, 64
2, 315615, Note_off_c, 0, 57, 64
2, 315757, Control_c, 0, 64, 0
2, 315794, Note_on_c, 0, 58, 61
2, 315798, Note_on_c, 0, 46, 61
2, 315799, Note_on_c, 0, 62, 65
2, 315802, Note_off_c, 0, 29, 64
2, 315803, Note_off_c, 0, 60, 64
2, 315804, Note_on_c, 0, 53, 60
2, 315804, Note_on_c, 0, 34, 56
2, 315817, Note_off_c, 0, 41, 64
2, 315879, Control_c, 0, 64, 127
2, 316106, Note_on_c, 0, 50, 59
2, 316134, Note_off_c, 0, 53, 64
2, 316142, Note_off_c, 0, 58, 64
2, 316287, Note_off_c, 0, 34, 64
2, 316303, Note_off_c, 0, 46, 64
2, 316326, Note_on_c, 0, 58, 52
2, 316332, Note_on_c, 0, 53, 44
2, 316424, Note_off_c, 0, 53, 64
2, 316447, Note_off_c, 0, 58, 64
2, 316479, Note_off_c, 0, 62, 64
2, 316508, Note_on_c, 0, 62, 56
2, 316508, Note_on_c, 0, 46, 66
2, 316508, Note_on_c, 0, 34, 56
2, 316528, Note_off_c, 0, 50, 64
2, 316563, Note_off_c, 0, 34, 64
2, 316563, Note_off_c, 0, 46, 64
2, 316563, Note_off_c, 0, 62, 64
2, 316573, Note_on_c, 0, 62, 69
2, 316580, Note_on_c, 0, 58, 72
2, 316580, Note_on_c, 0, 43, 77
2, 316580, Note_on_c, 0, 31, 56
2, 316585, Note_on_c, 0, 55, 71
2, 316618, Control_c, 0, 64, 0
2, 316772, Control_c, 0, 64, 127
2, 316863, Note_on_c, 0, 50, 56
2, 316875, Note_off_c, 0, 55, 64
2, 316900, Note_off_c, 0, 58, 64
2, 317120, Note_on_c, 0, 58, 72
2, 317124, Note_on_c, 0, 55, 61
2, 317286, Note_off_c, 0, 55, 64
2, 317301, Note_off_c, 0, 58, 64
2, 317373, Note_off_c, 0, 62, 64
2, 317393, Note_off_c, 0, 50, 64
2, 317396, Note_on_c, 0, 27, 58
2, 317398, Note_on_c, 0, 57, 64
2, 317401, Note_on_c, 0, 62, 74
2, 317407, Note_on_c, 0, 38, 70
2, 317408, Note_on_c, 0, 54, 75
2, 317412, Note_off_c, 0, 31, 64
2, 317412, Note_off_c, 0, 43, 64
2, 317413, Control_c, 0, 64, 0
2, 317528, Control_c, 0, 64, 127
2, 317690, Note_on_c, 0, 50, 71
2, 317720, Note_off_c, 0, 54, 64
2, 317730, Note_off_c, 0, 57, 64
2, 317933, Note_on_c, 0, 57, 70
2, 317936, Note_on_c, 0, 54, 69
2, 317979, Note_off_c, 0, 27, 64
2, 317990, Note_off_c, 0, 38, 64
2, 318101, Note_off_c, 0, 57, 64
2, 318123, Note_off_c, 0, 54, 64
2, 318151, Note_off_c, 0, 62, 64
2, 318174, Note_on_c, 0, 62, 79
2, 318222, Note_off_c, 0, 50, 64
2, 318231, Control_c, 0, 64, 0
2, 318236, Note_on_c, 0, 31, 72
2, 318244, Note_off_c, 0, 62, 64
2, 318247, Note_on_c, 0, 43, 69
2, 318251, Note_on_c, 0, 62, 64
2, 318257, Note_on_c, 0, 59, 73
2, 318257, Note_on_c, 0, 55, 71
2, 318328, Control_c, 0, 64, 127
2, 318554, Note_on_c, 0, 50, 65
2, 318577, Note_off_c, 0, 59, 64
2, 318584, Note_off_c, 0, 55, 64
2, 318812, Note_off_c, 0, 31, 64
2, 318836, Note_on_c, 0, 55, 72
2, 318838, Note_on_c, 0, 59, 76
2, 318879, Note_off_c, 0, 50, 64
2, 319013, Note_off_c, 0, 55, 64
2, 319027, Note_off_c, 0, 59, 64
2, 319121, Note_off_c, 0, 62, 64
2, 319126, Control_c, 0, 64, 0
2, 319134, Note_off_c, 0, 43, 64
2, 319134, Note_on_c, 0, 63, 80
2, 319134, Note_on_c, 0, 54, 82
2, 319140, Note_on_c, 0, 31, 73
2, 319144, Note_on_c, 0, 59, 76
2, 319144, Note_on_c, 0, 47, 94
2, 319244, Note_off_c, 0, 59, 64
2, 319397, Control_c, 0, 64, 127
2, 319435, Note_on_c, 0, 51, 86
2, 319448, Note_off_c, 0, 54, 64
2, 319708, Note_on_c, 0, 59, 64
2, 319712, Note_on_c, 0, 54, 54
2, 319768, Note_off_c, 0, 59, 64
2, 319772, Note_off_c, 0, 54, 64
2, 319807, Note_off_c, 0, 31, 64
2, 319811, Note_off_c, 0, 47, 64
2, 319940, Note_on_c, 0, 64, 74
2, 319940, Note_on_c, 0, 47, 83
2, 319944, Note_off_c, 0, 63, 64
2, 319944, Note_on_c, 0, 36, 79
2, 319992, Note_off_c, 0, 51, 64
2, 320028, Note_on_c, 0, 28, 81
2, 320047, Note_off_c, 0, 47, 64
2, 320054, Note_off_c, 0, 36, 64
2, 320080, Note_off_c, 0, 64, 64
2, 320092, Note_on_c, 0, 40, 79
2, 320094, Note_on_c, 0, 59, 70
2, 320099, Note_on_c, 0, 64, 81
2, 320099, Note_on_c, 0, 56, 74
2, 320417, Note_on_c, 0, 52, 92
2, 320437, Note_off_c, 0, 56, 64
2, 320439, Note_off_c, 0, 59, 64
2, 320699, Note_on_c, 0, 56, 76
2, 320703, Note_on_c, 0, 59, 77
2, 320873, Note_off_c, 0, 28, 64
2, 320888, Note_off_c, 0, 56, 64
2, 320891, Note_off_c, 0, 59, 64
2, 320937, Note_off_c, 0, 40, 64
2, 320969, Note_off_c, 0, 64, 64
2, 320998, Note_on_c, 0, 64, 80
2, 321004, Note_on_c, 0, 59, 80
2, 321004, Note_on_c, 0, 47, 97
2, 321004, Note_on_c, 0, 35, 88
2, 321007, Note_on_c, 0, 56, 79
2, 321035, Note_off_c, 0, 52, 64
2, 321091, Control_c, 0, 64, 0
2, 321187, Control_c, 0, 64, 127
2, 321319, Note_on_c, 0, 52, 88
2, 321331, Note_off_c, 0, 59, 64
2, 321337, Note_off_c, 0, 56, 64
2, 321658, Note_on_c, 0, 59, 83
2, 321658, Note_on_c, 0, 56, 83
2, 322043, Note_off_c, 0, 64, 64
2, 322056, Note_on_c, 0, 64, 87
2, 322076, Note_off_c, 0, 59, 64
2, 322104, Note_off_c, 0, 56, 64
2, 322200, Note_off_c, 0, 52, 64
2, 322236, Note_off_c, 0, 64, 64
2, 322260, Note_on_c, 0, 64, 92
2, 322264, Note_on_c, 0, 59, 88
2, 322264, Note_on_c, 0, 56, 84
2, 322264, Note_on_c, 0, 52, 88
2, 322268, Note_on_c, 0, 28, 96
2, 322271, Note_on_c, 0, 40, 88
2, 322383, Control_c, 0, 64, 0
2, 324576, Note_on_c, 0, 92, 60
2, 324600, Note_off_c, 0, 28, 64
2, 324600, Note_off_c, 0, 35, 64
2, 324600, Note_off_c, 0, 40, 64
2, 324600, Note_off_c, 0, 47, 64
2, 324600, Note_off_c, 0, 52, 64
2, 324600, Note_off_c, 0, 56, 64
2, 324600, Note_off_c, 0, 59, 64
2, 324600, Note_off_c, 0, 64, 64
2, 324621, Note_on_c, 0, 93, 55
2, 324638, Note_off_c, 0, 92, 64
2, 324664, Note_on_c, 0, 92, 55
2, 324683, Note_off_c, 0, 93, 64
2, 324711, Note_on_c, 0, 93, 54
2, 324712, Note_off_c, 0, 92, 64
2, 324752, Note_on_c, 0, 92, 30
2, 324761, Note_off_c, 0, 93, 64
2, 324784, Note_on_c, 0, 49, 42
2, 324794, Note_off_c, 0, 92, 64
2, 324797, Note_on_c, 0, 91, 55
2, 324826, Note_on_c, 0, 56, 52
2, 324858, Control_c, 0, 64, 0
2, 324876, Note_on_c, 0, 92, 46
2, 324878, Note_on_c, 0, 97, 63
2, 324878, Note_on_c, 0, 64, 46
2, 324879, Note_off_c, 0, 91, 64
2, 324902, Control_c, 0, 64, 127
2, 324929, Note_on_c, 0, 93, 54
2, 324933, Note_off_c, 0, 92, 64
2, 324935, Note_off_c, 0, 97, 64
2, 324951, Control_c, 0, 64, 0
2, 324954, Note_off_c, 0, 49, 64
2, 324961, Control_c, 0, 64, 127
2, 324965, Note_off_c, 0, 56, 64
2, 324968, Note_off_c, 0, 64, 64
2, 324976, Note_on_c, 0, 92, 63
2, 324977, Note_off_c, 0, 93, 64
2, 325000, Note_on_c, 0, 88, 47
2, 325014, Note_off_c, 0, 92, 64
2, 325063, Note_off_c, 0, 88, 64
2, 325064, Note_on_c, 0, 87, 72
2, 325108, Note_on_c, 0, 92, 81
2, 325108, Note_on_c, 0, 85, 71
2, 325113, Note_off_c, 0, 87, 64
2, 325156, Note_off_c, 0, 85, 64
2, 325158, Note_off_c, 0, 92, 64
2, 325162, Note_on_c, 0, 87, 70
2, 325192, Note_on_c, 0, 85, 65
2, 325200, Note_off_c, 0, 87, 64
2, 325224, Note_on_c, 0, 81, 56
2, 325226, Control_c, 0, 64, 0
2, 325229, Note_off_c, 0, 85, 64
2, 325254, Note_on_c, 0, 42, 37
2, 325270, Control_c, 0, 64, 127
2, 325277, Note_off_c, 0, 81, 64
2, 325280, Note_on_c, 0, 80, 73
2, 325286, Note_on_c, 0, 49, 41
2, 325319, Control_c, 0, 64, 0
2, 325324, Control_c, 0, 64, 0
2, 325329, Control_c, 0, 64, 127
2, 325344, Note_on_c, 0, 78, 59
2, 325344, Note_on_c, 0, 57, 44
2, 325345, Note_on_c, 0, 85, 57
2, 325348, Note_off_c, 0, 80, 64
2, 325362, Control_c, 0, 64, 127
2, 325404, Note_on_c, 0, 80, 65
2, 325405, Note_off_c, 0, 78, 64
2, 325416, Note_off_c, 0, 85, 64
2, 325424, Note_off_c, 0, 42, 64
2, 325425, Note_off_c, 0, 49, 64
2, 325434, Note_off_c, 0, 57, 64
2, 325444, Note_on_c, 0, 78, 51
2, 325459, Note_off_c, 0, 80, 64
2, 325488, Note_off_c, 0, 78, 64
2, 325488, Note_on_c, 0, 76, 28
2, 325516, Note_on_c, 0, 49, 35
2, 325546, Note_off_c, 0, 76, 64
2, 325556, Note_on_c, 0, 75, 79
2, 325568, Note_on_c, 0, 56, 38
2, 325608, Control_c, 0, 64, 0
2, 325614, Note_off_c, 0, 75, 64
2, 325616, Note_on_c, 0, 80, 87
2, 325617, Note_on_c, 0, 73, 71
2, 325618, Note_on_c, 0, 64, 38
2, 325619, Note_off_c, 0, 49, 64
2, 325640, Note_off_c, 0, 56, 64
2, 325651, Control_c, 0, 64, 127
2, 325656, Note_on_c, 0, 75, 64
2, 325665, Note_off_c, 0, 64, 64
2, 325665, Note_off_c, 0, 73, 64
2, 325691, Control_c, 0, 64, 0
2, 325692, Control_c, 0, 64, 0
2, 325701, Note_off_c, 0, 80, 64
2, 325703, Note_on_c, 0, 73, 72
2, 325704, Note_off_c, 0, 75, 64
2, 325719, Control_c, 0, 64, 127
2, 325730, Control_c, 0, 64, 127
2, 325732, Note_on_c, 0, 69, 64
2, 325743, Note_off_c, 0, 73, 64
2, 325768, Note_on_c, 0, 42, 51
2, 325780, Note_off_c, 0, 69, 64
2, 325780, Note_on_c, 0, 68, 77
2, 325804, Note_on_c, 0, 49, 34
2, 325825, Control_c, 0, 64, 0
2, 325830, Note_off_c, 0, 68, 64
2, 325842, Note_on_c, 0, 66, 63
2, 325843, Note_on_c, 0, 73, 83
2, 325844, Note_on_c, 0, 57, 40
2, 325859, Note_off_c, 0, 42, 64
2, 325864, Control_c, 0, 64, 127
2, 325876, Note_off_c, 0, 49, 64
2, 325890, Note_off_c, 0, 57, 64
2, 325893, Note_off_c, 0, 66, 64
2, 325894, Note_on_c, 0, 68, 75
2, 325906, Note_off_c, 0, 73, 64
2, 325933, Note_on_c, 0, 66, 65
2, 325943, Note_off_c, 0, 68, 64
2, 325968, Note_on_c, 0, 64, 56
2, 325973, Note_off_c, 0, 66, 64
2, 325976, Control_c, 0, 64, 0
2, 325982, Note_on_c, 0, 37, 62
2, 326019, Control_c, 0, 64, 127
2, 326021, Note_off_c, 0, 64, 64
2, 326028, Note_on_c, 0, 63, 81
2, 326032, Note_on_c, 0, 44, 37
2, 326041, Control_c, 0, 64, 0
2, 326059, Control_c, 0, 64, 0
2, 326084, Note_off_c, 0, 63, 64
2, 326087, Control_c, 0, 64, 127
2, 326088, Note_on_c, 0, 68, 87
2, 326088, Note_on_c, 0, 61, 67
2, 326088, Note_on_c, 0, 52, 40
2, 326091, Control_c, 0, 64, 127
2, 326128, Note_on_c, 0, 63, 35
2, 326131, Note_off_c, 0, 61, 64
2, 326152, Note_off_c, 0, 37, 64
2, 326168, Note_off_c, 0, 68, 64
2, 326171, Note_off_c, 0, 44, 64
2, 326174, Note_off_c, 0, 63, 64
2, 326175, Note_on_c, 0, 61, 52
2, 326178, Note_off_c, 0, 52, 64
2, 326193, Control_c, 0, 64, 0
2, 326212, Note_off_c, 0, 61, 64
2, 326215, Note_on_c, 0, 59, 64
2, 326232, Control_c, 0, 64, 127
2, 326264, Note_on_c, 0, 57, 62
2, 326274, Note_off_c, 0, 59, 64
2, 326289, Control_c, 0, 64, 0
2, 326316, Note_on_c, 0, 56, 66
2, 326322, Note_off_c, 0, 57, 64
2, 326337, Control_c, 0, 64, 127
2, 326409, Control_c, 0, 64, 0
2, 326459, Control_c, 0, 64, 127
2, 326506, Control_c, 0, 64, 0
2, 326553, Note_on_c, 0, 44, 46
2, 326556, Note_on_c, 0, 51, 56
2, 326558, Note_on_c, 0, 60, 47
2, 326566, Control_c, 0, 64, 127
2, 326657, Control_c, 0, 64, 0
2, 326698, Note_off_c, 0, 51, 64
2, 326705, Control_c, 0, 64, 127
2, 326743, Note_off_c, 0, 60, 64
2, 326759, Control_c, 0, 64, 0
2, 326768, Note_on_c, 0, 49, 49
2, 326775, Note_on_c, 0, 58, 58
2, 326786, Note_on_c, 0, 32, 31
2, 326795, Control_c, 0, 64, 127
2, 326874, Control_c, 0, 64, 0
2, 326911, Note_off_c, 0, 49, 64
2, 326915, Note_off_c, 0, 32, 64
2, 326934, Control_c, 0, 64, 127
2, 326968, Note_off_c, 0, 44, 64
2, 326991, Control_c, 0, 64, 0
2, 327017, Note_on_c, 0, 60, 55
2, 327020, Note_on_c, 0, 51, 51
2, 327020, Note_on_c, 0, 44, 56
2, 327020, Control_c, 0, 64, 127
2, 327035, Note_off_c, 0, 58, 64
2, 327038, Note_off_c, 0, 56, 64
2, 327080, Note_off_c, 0, 60, 64
2, 327082, Note_off_c, 0, 51, 64
2, 327083, Note_off_c, 0, 44, 64
2, 327127, Control_c, 0, 64, 0
2, 327163, Control_c, 0, 64, 127
2, 327190, Note_on_c, 0, 44, 58
2, 327192, Note_on_c, 0, 52, 50
2, 327193, Note_on_c, 0, 61, 44
2, 327211, Note_off_c, 0, 61, 64
2, 327212, Note_off_c, 0, 52, 64
2, 327213, Note_off_c, 0, 44, 64
2, 327236, Note_on_c, 0, 54, 52
2, 327238, Note_on_c, 0, 44, 49
2, 327240, Note_on_c, 0, 63, 58
2, 327359, Control_c, 0, 64, 0
2, 327388, Control_c, 0, 64, 127
2, 327414, Note_off_c, 0, 54, 64
2, 327418, Note_off_c, 0, 63, 64
2, 327443, Control_c, 0, 64, 0
2, 327469, Note_on_c, 0, 32, 36
2, 327472, Note_on_c, 0, 64, 46
2, 327472, Note_on_c, 0, 56, 39
2, 327491, Control_c, 0, 64, 127
2, 327546, Note_off_c, 0, 56, 64
2, 327553, Note_off_c, 0, 64, 64
2, 327563, Note_off_c, 0, 32, 64
2, 327583, Note_off_c, 0, 44, 64
2, 327646, Note_on_c, 0, 49, 39
2, 327665, Control_c, 0, 64, 0
2, 327676, Control_c, 0, 64, 127
2, 327696, Note_on_c, 0, 56, 54
2, 327716, Control_c, 0, 64, 0
2, 327732, Note_on_c, 0, 64, 29
2, 327734, Note_on_c, 0, 97, 60
2, 327734, Note_on_c, 0, 92, 76
2, 327760, Control_c, 0, 64, 127
2, 327772, Note_on_c, 0, 93, 53
2, 327793, Note_off_c, 0, 92, 64
2, 327793, Note_off_c, 0, 97, 64
2, 327800, Control_c, 0, 64, 0
2, 327809, Note_off_c, 0, 93, 64
2, 327811, Control_c, 0, 64, 0
2, 327820, Note_on_c, 0, 92, 62
2, 327826, Control_c, 0, 64, 127
2, 327845, Note_on_c, 0, 88, 44
2, 327852, Note_off_c, 0, 92, 64
2, 327859, Control_c, 0, 64, 127
2, 327884, Note_on_c, 0, 87, 79
2, 327892, Note_off_c, 0, 88, 64
2, 327915, Note_off_c, 0, 64, 64
2, 327929, Note_off_c, 0, 87, 64
2, 327932, Note_off_c, 0, 49, 64
2, 327935, Note_off_c, 0, 56, 64
2, 327936, Note_on_c, 0, 92, 67
2, 327936, Note_on_c, 0, 85, 58
2, 327972, Note_off_c, 0, 85, 64
2, 327979, Note_on_c, 0, 87, 70
2, 327984, Note_off_c, 0, 92, 64
2, 328000, Note_on_c, 0, 85, 80
2, 328010, Note_off_c, 0, 87, 64
2, 328024, Note_on_c, 0, 81, 65
2, 328030, Note_off_c, 0, 85, 64
2, 328033, Control_c, 0, 64, 0
2, 328044, Control_c, 0, 64, 127
2, 328084, Control_c, 0, 64, 0
2, 328088, Note_on_c, 0, 80, 28
2, 328094, Note_off_c, 0, 81, 64
2, 328110, Note_on_c, 0, 42, 60
2, 328128, Control_c, 0, 64, 127
2, 328138, Note_on_c, 0, 49, 60
2, 328160, Note_on_c, 0, 85, 65
2, 328160, Note_on_c, 0, 78, 60
2, 328160, Note_on_c, 0, 57, 56
2, 328162, Note_off_c, 0, 80, 64
2, 328168, Control_c, 0, 64, 0
2, 328188, Note_on_c, 0, 80, 54
2, 328194, Control_c, 0, 64, 127
2, 328201, Note_off_c, 0, 78, 64
2, 328207, Note_off_c, 0, 85, 64
2, 328223, Note_off_c, 0, 80, 64
2, 328235, Note_on_c, 0, 78, 60
2, 328256, Note_on_c, 0, 76, 29
2, 328265, Note_off_c, 0, 78, 64
2, 328278, Note_off_c, 0, 49, 64
2, 328280, Note_off_c, 0, 57, 64
2, 328299, Note_off_c, 0, 76, 64
2, 328303, Note_on_c, 0, 75, 80
2, 328310, Note_off_c, 0, 42, 64
2, 328320, Note_on_c, 0, 49, 23
2, 328338, Note_on_c, 0, 56, 54
2, 328343, Control_c, 0, 64, 0
2, 328356, Note_on_c, 0, 73, 67
2, 328356, Note_on_c, 0, 64, 47
2, 328357, Note_on_c, 0, 80, 74
2, 328363, Note_off_c, 0, 75, 64
2, 328382, Control_c, 0, 64, 127
2, 328397, Note_off_c, 0, 73, 64
2, 328400, Note_on_c, 0, 75, 62
2, 328407, Note_off_c, 0, 80, 64
2, 328420, Control_c, 0, 64, 0
2, 328428, Note_on_c, 0, 73, 54
2, 328438, Note_off_c, 0, 75, 64
2, 328446, Note_off_c, 0, 64, 64
2, 328447, Control_c, 0, 64, 127
2, 328452, Note_on_c, 0, 69, 37
2, 328463, Note_off_c, 0, 73, 64
2, 328478, Note_off_c, 0, 56, 64
2, 328490, Note_off_c, 0, 49, 64
2, 328498, Note_off_c, 0, 69, 64
2, 328498, Note_on_c, 0, 42, 41
2, 328501, Note_on_c, 0, 68, 73
2, 328518, Note_on_c, 0, 49, 41
2, 328527, Control_c, 0, 64, 0
2, 328548, Note_on_c, 0, 57, 56
2, 328550, Note_on_c, 0, 66, 67
2, 328551, Note_on_c, 0, 73, 75
2, 328560, Note_off_c, 0, 68, 64
2, 328579, Control_c, 0, 64, 127
2, 328591, Note_off_c, 0, 66, 64
2, 328593, Note_on_c, 0, 68, 70
2, 328607, Note_off_c, 0, 73, 64
2, 328621, Control_c, 0, 64, 0
2, 328625, Note_on_c, 0, 66, 59
2, 328634, Note_off_c, 0, 68, 64
2, 328638, Note_off_c, 0, 57, 64
2, 328641, Control_c, 0, 64, 127
2, 328648, Note_off_c, 0, 49, 64
2, 328652, Note_on_c, 0, 64, 57
2, 328660, Note_off_c, 0, 66, 64
2, 328668, Note_off_c, 0, 42, 64
2, 328694, Note_on_c, 0, 37, 54
2, 328700, Note_on_c, 0, 63, 73
2, 328705, Note_off_c, 0, 64, 64
2, 328711, Control_c, 0, 64, 0
2, 328722, Control_c, 0, 64, 0
2, 328726, Note_on_c, 0, 44, 49
2, 328746, Note_on_c, 0, 52, 56
2, 328748, Note_on_c, 0, 61, 71
2, 328750, Note_off_c, 0, 63, 64
2, 328750, Note_on_c, 0, 68, 70
2, 328750, Control_c, 0, 64, 127
2, 328765, Control_c, 0, 64, 127
2, 328785, Note_on_c, 0, 63, 62
2, 328788, Control_c, 0, 64, 0
2, 328792, Note_off_c, 0, 61, 64
2, 328798, Note_off_c, 0, 68, 64
2, 328810, Note_on_c, 0, 61, 58
2, 328815, Control_c, 0, 64, 127
2, 328817, Control_c, 0, 64, 0
2, 328823, Note_off_c, 0, 63, 64
2, 328828, Control_c, 0, 64, 127
2, 328845, Note_off_c, 0, 61, 64
2, 328846, Note_off_c, 0, 52, 64
2, 328846, Note_on_c, 0, 59, 52
2, 328876, Note_off_c, 0, 44, 64
2, 328889, Note_on_c, 0, 58, 67
2, 328894, Note_off_c, 0, 37, 64
2, 328895, Control_c, 0, 64, 0
2, 328903, Note_off_c, 0, 59, 64
2, 328927, Control_c, 0, 64, 0
2, 328937, Note_on_c, 0, 56, 73
2, 328939, Note_off_c, 0, 58, 64
2, 328947, Control_c, 0, 64, 127
2, 328966, Control_c, 0, 64, 127
2, 328989, Control_c, 0, 64, 0
2, 329009, Control_c, 0, 64, 127
2, 329009, Control_c, 0, 64, 0
2, 329021, Control_c, 0, 64, 127
2, 329090, Control_c, 0, 64, 0
2, 329133, Control_c, 0, 64, 127
2, 329182, Note_off_c, 0, 56, 64
2, 329182, Note_on_c, 0, 63, 60
2, 329182, Note_on_c, 0, 59, 59
2, 329184, Note_on_c, 0, 51, 55
2, 329185, Control_c, 0, 64, 0
2, 329186, Note_on_c, 0, 39, 45
2, 329196, Control_c, 0, 64, 127
2, 329295, Control_c, 0, 64, 0
2, 329334, Control_c, 0, 64, 127
2, 329339, Note_off_c, 0, 39, 64
2, 329377, Control_c, 0, 64, 0
2, 329378, Note_on_c, 0, 39, 62
2, 329389, Control_c, 0, 64, 127
2, 329396, Note_on_c, 0, 55, 44
2, 329397, Note_on_c, 0, 58, 60
2, 329401, Note_off_c, 0, 59, 64
2, 329413, Note_on_c, 0, 40, 53
2, 329416, Note_off_c, 0, 39, 64
2, 329435, Note_off_c, 0, 40, 64
2, 329441, Note_on_c, 0, 39, 54
2, 329466, Note_on_c, 0, 40, 51
2, 329479, Note_off_c, 0, 39, 64
2, 329503, Note_on_c, 0, 39, 65
2, 329510, Note_off_c, 0, 55, 64
2, 329511, Note_off_c, 0, 58, 64
2, 329518, Note_off_c, 0, 40, 64
2, 329547, Note_on_c, 0, 38, 59
2, 329566, Note_off_c, 0, 39, 64
2, 329583, Note_on_c, 0, 39, 72
2, 329598, Note_off_c, 0, 38, 64
2, 329616, Note_on_c, 0, 59, 53
2, 329617, Control_c, 0, 64, 0
2, 329618, Note_on_c, 0, 56, 60
2, 329619, Note_on_c, 0, 44, 77
2, 329633, Note_off_c, 0, 39, 64
2, 329658, Control_c, 0, 64, 127
2, 329672, Note_off_c, 0, 59, 64
2, 329674, Note_off_c, 0, 56, 64
2, 329691, Note_off_c, 0, 44, 64
2, 329698, Note_off_c, 0, 63, 64
2, 329700, Note_off_c, 0, 51, 64
2, 329705, Control_c, 0, 64, 0
2, 329715, Control_c, 0, 64, 127
2, 329802, Note_on_c, 0, 51, 54
2, 329804, Note_on_c, 0, 61, 44
2, 329804, Note_on_c, 0, 58, 80
2, 329804, Note_on_c, 0, 44, 81
2, 329822, Note_off_c, 0, 44, 64
2, 329828, Note_off_c, 0, 51, 64
2, 329830, Note_off_c, 0, 58, 64
2, 329830, Note_off_c, 0, 61, 64
2, 329837, Control_c, 0, 64, 0
2, 329848, Note_on_c, 0, 51, 39
2, 329849, Note_on_c, 0, 63, 52
2, 329850, Note_on_c, 0, 59, 43
2, 329850, Note_on_c, 0, 44, 71
2, 329875, Control_c, 0, 64, 127
2, 329918, Control_c, 0, 64, 0
2, 329934, Control_c, 0, 64, 127
2, 329935, Note_off_c, 0, 51, 64
2, 329962, Note_off_c, 0, 59, 64
2, 329967, Note_off_c, 0, 63, 64
2, 329985, Control_c, 0, 64, 0
2, 330026, Control_c, 0, 64, 127
2, 330048, Note_on_c, 0, 68, 60
2, 330048, Note_on_c, 0, 56, 62
2, 330048, Note_on_c, 0, 32, 27
2, 330073, Control_c, 0, 64, 0
2, 330083, Control_c, 0, 64, 127
2, 330103, Note_off_c, 0, 56, 64
2, 330112, Note_off_c, 0, 32, 64
2, 330112, Note_off_c, 0, 44, 64
2, 330120, Note_off_c, 0, 68, 64
2, 330205, Control_c, 0, 64, 0
2, 330243, Control_c, 0, 64, 127
2, 330286, Control_c, 0, 64, 0
2, 330302, Control_c, 0, 64, 127
2, 330305, Note_on_c, 0, 42, 58
2, 330325, Note_on_c, 0, 49, 49
2, 330340, Note_on_c, 0, 90, 87
2, 330341, Note_on_c, 0, 57, 51
2, 330342, Note_on_c, 0, 97, 82
2, 330372, Note_on_c, 0, 92, 70
2, 330390, Note_off_c, 0, 90, 64
2, 330392, Note_off_c, 0, 97, 64
2, 330402, Note_on_c, 0, 90, 58
2, 330403, Note_off_c, 0, 92, 64
2, 330410, Note_off_c, 0, 49, 64
2, 330426, Note_off_c, 0, 90, 64
2, 330428, Note_on_c, 0, 86, 80
2, 330431, Note_off_c, 0, 57, 64
2, 330485, Note_off_c, 0, 42, 64
2, 330488, Note_off_c, 0, 86, 64
2, 330488, Note_on_c, 0, 85, 75
2, 330511, Note_on_c, 0, 47, 64
2, 330532, Note_on_c, 0, 54, 62
2, 330548, Note_on_c, 0, 83, 65
2, 330550, Note_on_c, 0, 90, 85
2, 330550, Note_on_c, 0, 62, 29
2, 330553, Note_off_c, 0, 85, 64
2, 330581, Note_off_c, 0, 83, 64
2, 330584, Note_on_c, 0, 85, 68
2, 330601, Note_off_c, 0, 90, 64
2, 330628, Note_off_c, 0, 85, 64
2, 330628, Note_on_c, 0, 83, 60
2, 330640, Note_off_c, 0, 62, 64
2, 330652, Note_on_c, 0, 81, 51
2, 330656, Note_off_c, 0, 83, 64
2, 330662, Note_off_c, 0, 54, 64
2, 330681, Note_off_c, 0, 47, 64
2, 330691, Note_off_c, 0, 81, 64
2, 330696, Note_on_c, 0, 80, 75
2, 330708, Control_c, 0, 64, 0
2, 330718, Note_on_c, 0, 42, 49
2, 330737, Note_on_c, 0, 49, 40
2, 330744, Note_off_c, 0, 80, 64
2, 330744, Note_on_c, 0, 85, 96
2, 330744, Note_on_c, 0, 78, 70
2, 330744, Note_on_c, 0, 57, 51
2, 330754, Control_c, 0, 64, 127
2, 330764, Note_on_c, 0, 80, 71
2, 330781, Note_off_c, 0, 78, 64
2, 330791, Control_c, 0, 64, 0
2, 330793, Note_off_c, 0, 85, 64
2, 330800, Note_on_c, 0, 78, 65
2, 330801, Note_off_c, 0, 80, 64
2, 330819, Control_c, 0, 64, 127
2, 330824, Note_on_c, 0, 74, 45
2, 330830, Note_off_c, 0, 78, 64
2, 330834, Note_off_c, 0, 57, 64
2, 330857, Note_off_c, 0, 49, 64
2, 330859, Note_off_c, 0, 74, 64
2, 330868, Note_on_c, 0, 73, 72
2, 330878, Note_off_c, 0, 42, 64
2, 330886, Note_on_c, 0, 47, 46
2, 330900, Note_on_c, 0, 54, 48
2, 330905, Control_c, 0, 64, 0
2, 330910, Note_off_c, 0, 73, 64
2, 330914, Note_on_c, 0, 78, 90
2, 330914, Note_on_c, 0, 71, 53
2, 330916, Note_on_c, 0, 62, 53
2, 330936, Note_on_c, 0, 73, 77
2, 330943, Control_c, 0, 64, 127
2, 330948, Note_off_c, 0, 71, 64
2, 330962, Note_off_c, 0, 78, 64
2, 330971, Note_off_c, 0, 73, 64
2, 330973, Note_on_c, 0, 71, 53
2, 330981, Control_c, 0, 64, 0
2, 331000, Note_on_c, 0, 69, 44
2, 331006, Note_off_c, 0, 71, 64
2, 331006, Note_off_c, 0, 62, 64
2, 331008, Control_c, 0, 64, 127
2, 331020, Note_off_c, 0, 54, 64
2, 331036, Note_off_c, 0, 47, 64
2, 331048, Note_off_c, 0, 69, 64
2, 331054, Note_on_c, 0, 42, 44
2, 331056, Note_on_c, 0, 68, 74
2, 331067, Control_c, 0, 64, 0
2, 331076, Note_on_c, 0, 49, 55
2, 331076, Control_c, 0, 64, 0
2, 331096, Note_on_c, 0, 66, 73
2, 331096, Note_on_c, 0, 57, 40
2, 331097, Note_on_c, 0, 73, 90
2, 331101, Note_off_c, 0, 68, 64
2, 331117, Control_c, 0, 64, 127
2, 331122, Control_c, 0, 64, 127
2, 331136, Note_on_c, 0, 68, 74
2, 331138, Note_off_c, 0, 66, 64
2, 331159, Control_c, 0, 64, 0
2, 331159, Control_c, 0, 64, 0
2, 331163, Note_off_c, 0, 73, 64
2, 331169, Note_on_c, 0, 66, 51
2, 331178, Note_off_c, 0, 68, 64
2, 331182, Note_off_c, 0, 49, 64
2, 331186, Note_off_c, 0, 57, 64
2, 331187, Control_c, 0, 64, 127
2, 331187, Control_c, 0, 64, 127
2, 331192, Note_on_c, 0, 62, 31
2, 331204, Note_off_c, 0, 66, 64
2, 331204, Note_off_c, 0, 42, 64
2, 331246, Note_on_c, 0, 61, 75
2, 331252, Note_off_c, 0, 62, 64
2, 331273, Control_c, 0, 64, 0
2, 331303, Note_on_c, 0, 66, 87
2, 331303, Note_on_c, 0, 59, 54
2, 331310, Control_c, 0, 64, 0
2, 331311, Note_off_c, 0, 61, 64
2, 331311, Control_c, 0, 64, 127
2, 331336, Note_off_c, 0, 59, 64
2, 331336, Note_on_c, 0, 61, 74
2, 331342, Control_c, 0, 64, 127
2, 331349, Control_c, 0, 64, 0
2, 331367, Note_off_c, 0, 66, 64
2, 331372, Note_on_c, 0, 59, 55
2, 331376, Control_c, 0, 64, 127
2, 331380, Control_c, 0, 64, 0
2, 331382, Note_off_c, 0, 61, 64
2, 331401, Control_c, 0, 64, 127
2, 331408, Note_on_c, 0, 57, 47
2, 331411, Note_off_c, 0, 59, 64
2, 331435, Control_c, 0, 64, 0
2, 331456, Note_on_c, 0, 56, 80
2, 331458, Note_off_c, 0, 57, 64
2, 331485, Control_c, 0, 64, 127
2, 331509, Note_off_c, 0, 56, 64
2, 331514, Control_c, 0, 64, 0
2, 331519, Note_on_c, 0, 54, 75
2, 331527, Control_c, 0, 64, 0
2, 331553, Control_c, 0, 64, 127
2, 331555, Control_c, 0, 64, 127
2, 331678, Control_c, 0, 64, 0
2, 331710, Control_c, 0, 64, 127
2, 331748, Control_c, 0, 64, 0
2, 331769, Control_c, 0, 64, 127
2, 331816, Note_on_c, 0, 61, 62
2, 331816, Note_on_c, 0, 49, 3
2, 331820, Note_on_c, 0, 57, 80
2, 331824, Note_on_c, 0, 42, 46
2, 331882, Control_c, 0, 64, 0
2, 331921, Control_c, 0, 64, 127
2, 331998, Note_off_c, 0, 61, 64
2, 332013, Note_on_c, 0, 63, 65
2, 332017, Note_on_c, 0, 39, 55
2, 332025, Control_c, 0, 64, 0
2, 332055, Control_c, 0, 64, 127
2, 332060, Note_off_c, 0, 57, 64
2, 332087, Note_off_c, 0, 49, 64
2, 332104, Control_c, 0, 64, 0
2, 332114, Control_c, 0, 64, 127
2, 332132, Note_off_c, 0, 42, 64
2, 332164, Note_off_c, 0, 54, 64
2, 332205, Note_off_c, 0, 63, 64
2, 332212, Note_on_c, 0, 60, 60
2, 332219, Note_on_c, 0, 51, 65
2, 332219, Note_on_c, 0, 44, 60
2, 332222, Control_c, 0, 64, 0
2, 332247, Note_off_c, 0, 39, 64
2, 332262, Control_c, 0, 64, 127
2, 332290, Note_off_c, 0, 60, 64
2, 332291, Note_off_c, 0, 44, 64
2, 332293, Note_off_c, 0, 51, 64
2, 332300, Control_c, 0, 64, 0
2, 332319, Control_c, 0, 64, 127
2, 332380, Note_on_c, 0, 52, 65
2, 332382, Note_on_c, 0, 61, 60
2, 332386, Note_on_c, 0, 44, 80
2, 332393, Control_c, 0, 64, 0
2, 332410, Note_off_c, 0, 44, 64
2, 332412, Note_off_c, 0, 52, 64
2, 332414, Note_off_c, 0, 61, 64
2, 332420, Note_on_c, 0, 63, 70
2, 332423, Control_c, 0, 64, 127
2, 332424, Note_on_c, 0, 60, 53
2, 332424, Note_on_c, 0, 54, 60
2, 332434, Note_on_c, 0, 44, 60
2, 332472, Control_c, 0, 64, 0
2, 332482, Control_c, 0, 64, 127
2, 332562, Note_off_c, 0, 63, 64
2, 332590, Control_c, 0, 64, 0
2, 332596, Note_off_c, 0, 54, 64
2, 332628, Note_off_c, 0, 60, 64
2, 332630, Control_c, 0, 64, 127
2, 332649, Note_on_c, 0, 64, 57
2, 332652, Note_on_c, 0, 56, 55
2, 332654, Note_on_c, 0, 32, 39
2, 332668, Control_c, 0, 64, 0
2, 332687, Control_c, 0, 64, 127
2, 332697, Note_off_c, 0, 64, 64
2, 332700, Note_off_c, 0, 56, 64
2, 332703, Note_off_c, 0, 32, 64
2, 332715, Note_off_c, 0, 44, 64
2, 332859, Note_on_c, 0, 49, 53
2, 332885, Control_c, 0, 64, 0
2, 332893, Note_on_c, 0, 56, 51
2, 332926, Note_on_c, 0, 64, 37
2, 332928, Note_on_c, 0, 97, 77
2, 332928, Note_on_c, 0, 92, 65
2, 332942, Control_c, 0, 64, 127
2, 332965, Note_off_c, 0, 92, 64
2, 332968, Note_on_c, 0, 93, 42
2, 332980, Control_c, 0, 64, 0
2, 332987, Note_off_c, 0, 97, 64
2, 332999, Control_c, 0, 64, 127
2, 333003, Note_off_c, 0, 93, 64
2, 333012, Note_on_c, 0, 92, 51
2, 333032, Note_on_c, 0, 88, 43
2, 333047, Note_off_c, 0, 92, 64
2, 333066, Note_off_c, 0, 88, 64
2, 333075, Note_on_c, 0, 87, 77
2, 333079, Note_off_c, 0, 49, 64
2, 333080, Note_off_c, 0, 64, 64
2, 333099, Note_off_c, 0, 56, 64
2, 333116, Note_off_c, 0, 87, 64
2, 333116, Note_on_c, 0, 92, 57
2, 333116, Note_on_c, 0, 85, 71
2, 333148, Note_on_c, 0, 87, 41
2, 333168, Note_off_c, 0, 85, 64
2, 333176, Note_off_c, 0, 92, 64
2, 333184, Note_on_c, 0, 85, 80
2, 333199, Note_off_c, 0, 87, 64
2, 333208, Note_on_c, 0, 81, 29
2, 333232, Note_off_c, 0, 85, 64
2, 333253, Control_c, 0, 64, 0
2, 333256, Note_on_c, 0, 80, 75
2, 333258, Note_on_c, 0, 42, 56
2, 333268, Note_off_c, 0, 81, 64
2, 333278, Note_on_c, 0, 49, 55
2, 333306, Note_on_c, 0, 57, 62
2, 333308, Note_on_c, 0, 85, 90
2, 333308, Note_on_c, 0, 78, 75
2, 333310, Control_c, 0, 64, 127
2, 333321, Note_off_c, 0, 80, 64
2, 333336, Note_on_c, 0, 80, 58
2, 333341, Note_off_c, 0, 78, 64
2, 333348, Control_c, 0, 64, 0
2, 333367, Control_c, 0, 64, 127
2, 333367, Note_on_c, 0, 78, 60
2, 333368, Note_off_c, 0, 80, 64
2, 333371, Note_off_c, 0, 85, 64
2, 333396, Note_off_c, 0, 57, 64
2, 333403, Note_off_c, 0, 78, 64
2, 333403, Note_on_c, 0, 76, 62
2, 333408, Note_off_c, 0, 49, 64
2, 333428, Note_off_c, 0, 42, 64
2, 333438, Note_off_c, 0, 76, 64
2, 333444, Note_on_c, 0, 75, 71
2, 333468, Note_on_c, 0, 49, 39
2, 333468, Control_c, 0, 64, 0
2, 333480, Note_on_c, 0, 56, 46
2, 333493, Note_off_c, 0, 75, 64
2, 333496, Note_on_c, 0, 80, 98
2, 333496, Note_on_c, 0, 64, 53
2, 333497, Note_on_c, 0, 73, 73
2, 333507, Control_c, 0, 64, 127
2, 333533, Note_off_c, 0, 73, 64
2, 333534, Note_on_c, 0, 75, 67
2, 333542, Note_off_c, 0, 80, 64
2, 333554, Note_on_c, 0, 73, 62
2, 333559, Control_c, 0, 64, 0
2, 333566, Note_off_c, 0, 75, 64
2, 333571, Control_c, 0, 64, 127
2, 333576, Note_on_c, 0, 69, 49
2, 333581, Note_off_c, 0, 64, 64
2, 333589, Note_off_c, 0, 73, 64
2, 333590, Note_off_c, 0, 56, 64
2, 333608, Note_off_c, 0, 49, 64
2, 333627, Note_on_c, 0, 68, 74
2, 333636, Note_off_c, 0, 69, 64
2, 333636, Note_on_c, 0, 42, 40
2, 333641, Control_c, 0, 64, 0
2, 333658, Note_on_c, 0, 49, 46
2, 333672, Note_on_c, 0, 66, 30
2, 333673, Note_on_c, 0, 73, 87
2, 333674, Note_on_c, 0, 57, 45
2, 333681, Note_off_c, 0, 68, 64
2, 333692, Control_c, 0, 64, 127
2, 333716, Note_off_c, 0, 66, 64
2, 333716, Note_on_c, 0, 68, 56
2, 333738, Note_off_c, 0, 73, 64
2, 333756, Note_off_c, 0, 68, 64
2, 333757, Note_on_c, 0, 66, 68
2, 333764, Note_off_c, 0, 57, 64
2, 333784, Note_on_c, 0, 64, 68
2, 333788, Note_off_c, 0, 49, 64
2, 333789, Note_off_c, 0, 66, 64
2, 333806, Note_off_c, 0, 42, 64
2, 333829, Note_on_c, 0, 63, 71
2, 333836, Note_off_c, 0, 64, 64
2, 333836, Control_c, 0, 64, 0
2, 333840, Note_on_c, 0, 37, 50
2, 333866, Note_on_c, 0, 44, 56
2, 333870, Control_c, 0, 64, 0
2, 333875, Control_c, 0, 64, 127
2, 333885, Note_off_c, 0, 63, 64
2, 333886, Note_on_c, 0, 61, 62
2, 333888, Note_on_c, 0, 68, 101
2, 333891, Note_on_c, 0, 52, 43
2, 333908, Control_c, 0, 64, 127
2, 333916, Note_on_c, 0, 63, 72
2, 333927, Control_c, 0, 64, 0
2, 333934, Note_off_c, 0, 61, 64
2, 333939, Control_c, 0, 64, 127
2, 333940, Note_off_c, 0, 68, 64
2, 333954, Control_c, 0, 64, 0
2, 333955, Note_off_c, 0, 63, 64
2, 333963, Note_on_c, 0, 61, 50
2, 333975, Control_c, 0, 64, 127
2, 333976, Note_off_c, 0, 37, 64
2, 333992, Note_off_c, 0, 61, 64
2, 333995, Note_on_c, 0, 59, 24
2, 333996, Note_off_c, 0, 44, 64
2, 334009, Control_c, 0, 64, 0
2, 334028, Note_on_c, 0, 57, 70
2, 334029, Note_off_c, 0, 52, 64
2, 334058, Note_off_c, 0, 59, 64
2, 334060, Control_c, 0, 64, 127
2, 334085, Note_off_c, 0, 57, 64
2, 334091, Note_on_c, 0, 56, 70
2, 334238, Control_c, 0, 64, 0
2, 334276, Control_c, 0, 64, 127
2, 334322, Control_c, 0, 64, 0
2, 334326, Note_on_c, 0, 44, 58
2, 334328, Note_on_c, 0, 60, 60
2, 334328, Note_on_c, 0, 51, 59
2, 334332, Control_c, 0, 64, 0
2, 334343, Control_c, 0, 64, 127
2, 334375, Control_c, 0, 64, 127
2, 334473, Note_off_c, 0, 51, 64
2, 334503, Note_off_c, 0, 44, 64
2, 334538, Note_off_c, 0, 56, 64
2, 334546, Note_on_c, 0, 52, 54
2, 334548, Note_on_c, 0, 61, 54
2, 334548, Note_on_c, 0, 44, 54
2, 334552, Note_on_c, 0, 32, 73
2, 334567, Note_off_c, 0, 60, 64
2, 334638, Note_off_c, 0, 32, 64
2, 334639, Note_off_c, 0, 52, 64
2, 334661, Note_off_c, 0, 61, 64
2, 334700, Control_c, 0, 64, 0
2, 334728, Note_off_c, 0, 44, 64
2, 334743, Control_c, 0, 64, 127
2, 334767, Note_on_c, 0, 44, 64
2, 334768, Note_on_c, 0, 54, 57
2, 334769, Note_on_c, 0, 63, 50
2, 334794, Note_off_c, 0, 44, 64
2, 334810, Note_off_c, 0, 63, 64
2, 334811, Note_off_c, 0, 54, 64
2, 334924, Note_on_c, 0, 64, 59
2, 334924, Note_on_c, 0, 56, 64
2, 334924, Note_on_c, 0, 44, 64
2, 334960, Control_c, 0, 64, 0
2, 334964, Note_on_c, 0, 37, 55
2, 334968, Note_off_c, 0, 64, 64
2, 334968, Note_on_c, 0, 61, 60
2, 334972, Note_off_c, 0, 44, 64
2, 334972, Note_off_c, 0, 56, 64
2, 334972, Note_on_c, 0, 52, 66
2, 335005, Control_c, 0, 64, 127
2, 335101, Note_off_c, 0, 52, 64
2, 335119, Note_off_c, 0, 61, 64
2, 335252, Note_off_c, 0, 37, 64
2, 335256, Note_on_c, 0, 69, 62
2, 335259, Note_on_c, 0, 57, 45
2, 335328, Control_c, 0, 64, 0
2, 335340, Control_c, 0, 64, 0
2, 335373, Control_c, 0, 64, 127
2, 335592, Control_c, 0, 64, 127
2, 335673, Note_off_c, 0, 69, 64
2, 335676, Note_off_c, 0, 57, 64
2, 335708, Control_c, 0, 64, 0
2, 335744, Note_on_c, 0, 60, 32
2, 335744, Note_on_c, 0, 44, 31
2, 335746, Note_on_c, 0, 51, 40
2, 335762, Control_c, 0, 64, 0
2, 335817, Control_c, 0, 64, 127
2, 335865, Control_c, 0, 64, 0
2, 335876, Control_c, 0, 64, 127
2, 335925, Note_off_c, 0, 51, 64
2, 335960, Control_c, 0, 64, 127
2, 335978, Note_on_c, 0, 61, 40
2, 335978, Note_on_c, 0, 32, 29
2, 335980, Note_on_c, 0, 52, 44
2, 335984, Note_off_c, 0, 60, 64
2, 336099, Note_off_c, 0, 52, 64
2, 336113, Note_off_c, 0, 61, 64
2, 336119, Note_off_c, 0, 32, 64
2, 336130, Control_c, 0, 64, 0
2, 336161, Note_off_c, 0, 44, 64
2, 336185, Control_c, 0, 64, 127
2, 336224, Note_on_c, 0, 63, 48
2, 336224, Note_on_c, 0, 60, 35
2, 336224, Note_on_c, 0, 54, 34
2, 336224, Note_on_c, 0, 44, 46
2, 336233, Control_c, 0, 64, 0
2, 336244, Control_c, 0, 64, 127
2, 336266, Note_off_c, 0, 44, 64
2, 336275, Note_off_c, 0, 60, 64
2, 336276, Note_off_c, 0, 63, 64
2, 336278, Note_off_c, 0, 54, 64
2, 336477, Note_on_c, 0, 56, 48
2, 336479, Note_on_c, 0, 64, 48
2, 336479, Note_on_c, 0, 60, 44
2, 336479, Note_on_c, 0, 44, 36
2, 336535, Note_on_c, 0, 37, 42
2, 336541, Note_on_c, 0, 52, 43
2, 336543, Note_off_c, 0, 56, 64
2, 336544, Note_on_c, 0, 61, 42
2, 336545, Note_off_c, 0, 44, 64
2, 336545, Note_off_c, 0, 60, 64
2, 336545, Note_off_c, 0, 64, 64
2, 336560, Control_c, 0, 64, 0
2, 336928, Control_c, 0, 64, 0
2, 336931, Note_off_c, 0, 37, 64
2, 336953, Note_off_c, 0, 52, 64
2, 336967, Note_off_c, 0, 61, 64
2, 337722, Note_on_c, 0, 78, 63
2, 337746, Control_c, 0, 64, 127
2, 338495, Note_on_c, 0, 77, 49
2, 338517, Note_off_c, 0, 78, 64
2, 338517, Control_c, 0, 64, 0
2, 338603, Control_c, 0, 64, 127
2, 338658, Note_on_c, 0, 78, 44
2, 338689, Note_off_c, 0, 77, 64
2, 338781, Note_on_c, 0, 80, 39
2, 338799, Note_off_c, 0, 78, 64
2, 338883, Note_on_c, 0, 78, 44
2, 338919, Note_off_c, 0, 80, 64
2, 338992, Note_on_c, 0, 76, 34
2, 338995, Note_off_c, 0, 78, 64
2, 339107, Note_on_c, 0, 75, 37
2, 339114, Note_off_c, 0, 76, 64
2, 339245, Note_on_c, 0, 58, 52
2, 339256, Note_on_c, 0, 73, 56
2, 339267, Note_off_c, 0, 75, 64
2, 339274, Note_on_c, 0, 64, 28
2, 339284, Control_c, 0, 64, 0
2, 339363, Control_c, 0, 64, 127
2, 339407, Note_on_c, 0, 54, 32
2, 339412, Note_on_c, 0, 66, 39
2, 339419, Note_off_c, 0, 58, 64
2, 339500, Note_off_c, 0, 54, 64
2, 339507, Note_on_c, 0, 70, 64
2, 339522, Note_on_c, 0, 49, 35
2, 339527, Note_off_c, 0, 66, 64
2, 339537, Note_on_c, 0, 68, 57
2, 339585, Note_off_c, 0, 70, 64
2, 339622, Note_on_c, 0, 42, 37
2, 339623, Note_off_c, 0, 68, 64
2, 339623, Note_off_c, 0, 49, 64
2, 339623, Note_on_c, 0, 66, 59
2, 339674, Note_off_c, 0, 66, 64
2, 339710, Note_off_c, 0, 73, 64
2, 339714, Note_on_c, 0, 66, 72
2, 339728, Note_on_c, 0, 49, 29
2, 339730, Note_off_c, 0, 42, 64
2, 339787, Note_off_c, 0, 64, 64
2, 339809, Note_on_c, 0, 75, 66
2, 339812, Note_on_c, 0, 54, 47
2, 339820, Note_off_c, 0, 49, 64
2, 339825, Note_off_c, 0, 66, 64
2, 339854, Note_off_c, 0, 75, 64
2, 339934, Control_c, 0, 64, 0
2, 339940, Note_on_c, 0, 73, 66
2, 339949, Note_off_c, 0, 54, 64
2, 339950, Note_on_c, 0, 58, 51
2, 339955, Note_on_c, 0, 64, 52
2, 340023, Control_c, 0, 64, 127
2, 340070, Note_on_c, 0, 66, 57
2, 340070, Note_on_c, 0, 54, 54
2, 340084, Note_off_c, 0, 58, 64
2, 340159, Note_on_c, 0, 70, 50
2, 340166, Note_off_c, 0, 54, 64
2, 340168, Note_off_c, 0, 66, 64
2, 340175, Note_on_c, 0, 49, 39
2, 340182, Note_on_c, 0, 68, 50
2, 340211, Note_off_c, 0, 73, 64
2, 340221, Note_off_c, 0, 70, 64
2, 340255, Note_on_c, 0, 66, 45
2, 340263, Note_off_c, 0, 68, 64
2, 340269, Note_on_c, 0, 42, 53
2, 340275, Note_off_c, 0, 49, 64
2, 340302, Note_off_c, 0, 66, 64
2, 340348, Note_on_c, 0, 66, 76
2, 340349, Note_off_c, 0, 42, 64
2, 340349, Note_on_c, 0, 49, 56
2, 340369, Note_off_c, 0, 64, 64
2, 340444, Note_on_c, 0, 75, 72
2, 340444, Note_on_c, 0, 54, 72
2, 340448, Note_off_c, 0, 49, 64
2, 340475, Note_off_c, 0, 66, 64
2, 340491, Note_off_c, 0, 75, 64
2, 340557, Note_on_c, 0, 73, 72
2, 340560, Note_off_c, 0, 54, 64
2, 340561, Control_c, 0, 64, 0
2, 340570, Note_on_c, 0, 47, 76
2, 340578, Note_on_c, 0, 64, 62
2, 340637, Control_c, 0, 64, 127
2, 340647, Note_off_c, 0, 64, 64
2, 340653, Note_on_c, 0, 54, 67
2, 340660, Note_on_c, 0, 66, 51
2, 340665, Note_off_c, 0, 47, 64
2, 340708, Note_off_c, 0, 73, 64
2, 340731, Note_off_c, 0, 66, 64
2, 340740, Note_on_c, 0, 63, 73
2, 340748, Note_on_c, 0, 71, 64
2, 340757, Note_on_c, 0, 47, 54
2, 340759, Note_off_c, 0, 54, 64
2, 340800, Note_off_c, 0, 63, 64
2, 340824, Note_off_c, 0, 71, 64
2, 340841, Note_on_c, 0, 66, 59
2, 340850, Note_on_c, 0, 54, 63
2, 340879, Note_off_c, 0, 47, 64
2, 340921, Note_off_c, 0, 66, 64
2, 340939, Note_on_c, 0, 51, 59
2, 340940, Note_on_c, 0, 75, 66
2, 340948, Note_on_c, 0, 71, 47
2, 340953, Note_off_c, 0, 54, 64
2, 340986, Note_off_c, 0, 71, 64
2, 341029, Note_off_c, 0, 75, 64
2, 341036, Note_off_c, 0, 51, 64
2, 341040, Note_on_c, 0, 66, 72
2, 341045, Note_on_c, 0, 59, 63
2, 341140, Control_c, 0, 64, 0
2, 341145, Note_off_c, 0, 66, 64
2, 341151, Note_on_c, 0, 77, 59
2, 341157, Note_on_c, 0, 71, 54
2, 341158, Note_on_c, 0, 63, 50
2, 341165, Control_c, 0, 64, 127
2, 341187, Note_off_c, 0, 59, 64
2, 341194, Note_off_c, 0, 71, 64
2, 341203, Note_off_c, 0, 77, 64
2, 341248, Note_on_c, 0, 78, 61
2, 341262, Note_on_c, 0, 71, 49
2, 341265, Note_on_c, 0, 54, 21
2, 341271, Note_off_c, 0, 63, 64
2, 341300, Note_off_c, 0, 71, 64
2, 341306, Note_off_c, 0, 78, 64
2, 341341, Note_on_c, 0, 59, 43
2, 341348, Note_on_c, 0, 80, 59
2, 341362, Note_on_c, 0, 66, 31
2, 341400, Note_off_c, 0, 66, 64
2, 341430, Note_off_c, 0, 80, 64
2, 341440, Note_on_c, 0, 78, 49
2, 341446, Note_on_c, 0, 51, 45
2, 341450, Note_on_c, 0, 66, 50
2, 341451, Note_off_c, 0, 54, 64
2, 341514, Note_off_c, 0, 78, 64
2, 341544, Note_on_c, 0, 54, 43
2, 341547, Note_off_c, 0, 51, 64
2, 341551, Note_on_c, 0, 76, 50
2, 341575, Note_off_c, 0, 59, 64
2, 341642, Note_on_c, 0, 75, 43
2, 341647, Note_on_c, 0, 47, 41
2, 341652, Note_off_c, 0, 76, 64
2, 341686, Note_off_c, 0, 66, 64
2, 341708, Note_off_c, 0, 47, 64
2, 341720, Note_off_c, 0, 54, 64
2, 341743, Note_off_c, 0, 75, 64
2, 341754, Control_c, 0, 64, 0
2, 341770, Note_on_c, 0, 58, 63
2, 341773, Note_on_c, 0, 73, 62
2, 341778, Note_on_c, 0, 64, 50
2, 341839, Control_c, 0, 64, 127
2, 341908, Note_on_c, 0, 66, 62
2, 341914, Note_on_c, 0, 54, 41
2, 341929, Note_off_c, 0, 58, 64
2, 341996, Note_on_c, 0, 70, 77
2, 342004, Note_off_c, 0, 54, 64
2, 342012, Note_on_c, 0, 49, 62
2, 342034, Note_off_c, 0, 66, 64
2, 342035, Note_on_c, 0, 68, 48
2, 342067, Note_off_c, 0, 70, 64
2, 342104, Note_off_c, 0, 68, 64
2, 342104, Note_off_c, 0, 49, 64
2, 342117, Note_on_c, 0, 42, 32
2, 342119, Note_on_c, 0, 66, 73
2, 342162, Note_off_c, 0, 66, 64
2, 342170, Note_off_c, 0, 64, 64
2, 342201, Note_off_c, 0, 42, 64
2, 342207, Note_on_c, 0, 66, 75
2, 342208, Note_on_c, 0, 49, 48
2, 342216, Note_off_c, 0, 73, 64
2, 342280, Note_off_c, 0, 49, 64
2, 342287, Note_on_c, 0, 54, 41
2, 342291, Note_on_c, 0, 75, 73
2, 342299, Note_off_c, 0, 66, 64
2, 342336, Note_off_c, 0, 75, 64
2, 342383, Note_off_c, 0, 54, 64
2, 342409, Note_on_c, 0, 73, 62
2, 342409, Control_c, 0, 64, 0
2, 342423, Note_on_c, 0, 64, 54
2, 342423, Note_on_c, 0, 58, 46
2, 342505, Control_c, 0, 64, 127
2, 342547, Note_on_c, 0, 66, 39
2, 342551, Note_on_c, 0, 54, 45
2, 342570, Note_off_c, 0, 58, 64
2, 342632, Note_off_c, 0, 66, 64
2, 342634, Note_on_c, 0, 70, 43
2, 342641, Note_off_c, 0, 54, 64
2, 342641, Note_on_c, 0, 49, 56
2, 342650, Note_on_c, 0, 68, 57
2, 342686, Note_off_c, 0, 73, 64
2, 342699, Note_off_c, 0, 70, 64
2, 342728, Note_on_c, 0, 42, 66
2, 342730, Note_on_c, 0, 66, 73
2, 342735, Note_off_c, 0, 68, 64
2, 342739, Note_off_c, 0, 49, 64
2, 342760, Note_off_c, 0, 64, 64
2, 342775, Note_off_c, 0, 66, 64
2, 342815, Note_on_c, 0, 49, 44
2, 342819, Note_on_c, 0, 66, 75
2, 342822, Note_off_c, 0, 42, 64
2, 342896, Note_off_c, 0, 49, 64
2, 342905, Note_on_c, 0, 75, 70
2, 342908, Note_on_c, 0, 54, 72
2, 342927, Note_off_c, 0, 66, 64
2, 342949, Note_off_c, 0, 75, 64
2, 342981, Note_off_c, 0, 54, 64
2, 342981, Control_c, 0, 64, 0
2, 343004, Note_on_c, 0, 47, 77
2, 343006, Note_on_c, 0, 64, 66
2, 343013, Note_on_c, 0, 73, 70
2, 343071, Control_c, 0, 64, 127
2, 343085, Note_off_c, 0, 64, 64
2, 343107, Note_on_c, 0, 54, 67
2, 343111, Note_on_c, 0, 66, 57
2, 343124, Note_off_c, 0, 47, 64
2, 343176, Note_off_c, 0, 66, 64
2, 343178, Note_off_c, 0, 73, 64
2, 343191, Note_on_c, 0, 63, 56
2, 343200, Note_on_c, 0, 51, 56
2, 343203, Note_off_c, 0, 54, 64
2, 343208, Note_on_c, 0, 71, 63
2, 343277, Note_off_c, 0, 71, 64
2, 343291, Note_on_c, 0, 66, 62
2, 343305, Note_off_c, 0, 63, 64
2, 343312, Note_on_c, 0, 54, 32
2, 343328, Note_off_c, 0, 51, 64
2, 343380, Note_off_c, 0, 66, 64
2, 343388, Note_off_c, 0, 54, 64
2, 343388, Note_on_c, 0, 75, 73
2, 343395, Note_on_c, 0, 71, 67
2, 343406, Note_on_c, 0, 59, 46
2, 343442, Note_off_c, 0, 71, 64
2, 343465, Note_off_c, 0, 75, 64
2, 343481, Note_on_c, 0, 66, 84
2, 343549, Note_off_c, 0, 59, 64
2, 343571, Note_off_c, 0, 66, 64
2, 343578, Control_c, 0, 64, 0
2, 343584, Note_on_c, 0, 63, 57
2, 343592, Note_on_c, 0, 78, 72
2, 343600, Note_on_c, 0, 71, 64
2, 343645, Control_c, 0, 64, 127
2, 343660, Note_off_c, 0, 71, 64
2, 343684, Note_on_c, 0, 66, 67
2, 343687, Note_on_c, 0, 54, 54
2, 343699, Note_off_c, 0, 63, 64
2, 343750, Note_off_c, 0, 54, 64
2, 343764, Note_off_c, 0, 78, 64
2, 343773, Note_off_c, 0, 66, 64
2, 343791, Note_on_c, 0, 61, 62
2, 343799, Note_on_c, 0, 70, 66
2, 343800, Note_on_c, 0, 79, 68
2, 343912, Note_on_c, 0, 67, 53
2, 343915, Note_off_c, 0, 61, 64
2, 343924, Note_off_c, 0, 70, 64
2, 343926, Note_on_c, 0, 52, 44
2, 343940, Note_off_c, 0, 79, 64
2, 344040, Note_on_c, 0, 80, 68
2, 344043, Note_off_c, 0, 52, 64
2, 344049, Note_on_c, 0, 71, 62
2, 344050, Control_c, 0, 64, 0
2, 344057, Note_off_c, 0, 67, 64
2, 344057, Note_on_c, 0, 59, 40
2, 344123, Control_c, 0, 64, 127
2, 344133, Note_off_c, 0, 71, 64
2, 344151, Note_off_c, 0, 80, 64
2, 344152, Note_on_c, 0, 68, 67
2, 344168, Note_on_c, 0, 51, 54
2, 344190, Note_off_c, 0, 59, 64
2, 344250, Note_off_c, 0, 68, 64
2, 344318, Note_off_c, 0, 51, 64
2, 344327, Note_on_c, 0, 44, 68
2, 344328, Note_on_c, 0, 83, 79
2, 344331, Note_on_c, 0, 75, 80
2, 344355, Control_c, 0, 64, 0
2, 344444, Control_c, 0, 64, 127
2, 344456, Note_on_c, 0, 71, 66
2, 344456, Note_on_c, 0, 51, 67
2, 344480, Note_off_c, 0, 75, 64
2, 344488, Note_off_c, 0, 44, 64
2, 344533, Note_on_c, 0, 78, 68
2, 344547, Note_on_c, 0, 76, 79
2, 344552, Note_off_c, 0, 51, 64
2, 344557, Note_on_c, 0, 59, 73
2, 344589, Note_off_c, 0, 71, 64
2, 344652, Note_on_c, 0, 75, 75
2, 344656, Note_off_c, 0, 59, 64
2, 344656, Note_on_c, 0, 56, 57
2, 344657, Note_off_c, 0, 78, 64
2, 344657, Note_off_c, 0, 83, 64
2, 344663, Note_off_c, 0, 76, 64
2, 344734, Note_off_c, 0, 56, 64
2, 344749, Note_on_c, 0, 71, 58
2, 344756, Note_on_c, 0, 63, 91
2, 344780, Note_off_c, 0, 75, 64
2, 344835, Note_on_c, 0, 80, 73
2, 344841, Note_on_c, 0, 83, 73
2, 344849, Note_on_c, 0, 59, 68
2, 344859, Note_off_c, 0, 63, 64
2, 344873, Note_off_c, 0, 71, 64
2, 344880, Note_off_c, 0, 83, 64
2, 344881, Note_off_c, 0, 80, 64
2, 344890, Note_off_c, 0, 59, 64
2, 344955, Note_on_c, 0, 82, 81
2, 344959, Note_on_c, 0, 51, 72
2, 344965, Note_on_c, 0, 78, 87
2, 345060, Note_on_c, 0, 75, 73
2, 345068, Note_off_c, 0, 51, 64
2, 345078, Note_on_c, 0, 58, 70
2, 345082, Note_off_c, 0, 78, 64
2, 345101, Note_off_c, 0, 82, 64
2, 345138, Note_off_c, 0, 58, 64
2, 345162, Note_off_c, 0, 75, 64
2, 345167, Note_on_c, 0, 70, 96
2, 345170, Note_on_c, 0, 66, 91
2, 345250, Note_on_c, 0, 73, 73
2, 345262, Note_off_c, 0, 66, 64
2, 345264, Note_off_c, 0, 70, 64
2, 345275, Note_on_c, 0, 71, 79
2, 345281, Note_on_c, 0, 63, 35
2, 345303, Note_off_c, 0, 73, 64
2, 345368, Note_on_c, 0, 54, 73
2, 345372, Note_off_c, 0, 63, 64
2, 345383, Note_on_c, 0, 70, 70
2, 345423, Note_off_c, 0, 71, 64
2, 345469, Note_on_c, 0, 58, 73
2, 345472, Note_on_c, 0, 78, 81
2, 345480, Note_off_c, 0, 54, 64
2, 345483, Note_on_c, 0, 75, 75
2, 345497, Note_off_c, 0, 70, 64
2, 345574, Note_off_c, 0, 78, 64
2, 345582, Note_off_c, 0, 58, 64
2, 345587, Note_off_c, 0, 75, 64
2, 345650, Note_on_c, 0, 71, 74
2, 345654, Control_c, 0, 64, 0
2, 345660, Note_on_c, 0, 68, 67
2, 345660, Note_on_c, 0, 40, 63
2, 345726, Control_c, 0, 64, 127
2, 345781, Note_on_c, 0, 64, 60
2, 345788, Note_off_c, 0, 68, 64
2, 345790, Note_on_c, 0, 59, 59
2, 345797, Note_off_c, 0, 40, 64
2, 345856, Note_off_c, 0, 59, 64
2, 345876, Note_on_c, 0, 68, 72
2, 345898, Note_on_c, 0, 47, 45
2, 345915, Note_off_c, 0, 64, 64
2, 345918, Note_on_c, 0, 66, 55
2, 345945, Note_off_c, 0, 68, 64
2, 345960, Note_off_c, 0, 71, 64
2, 345971, Note_off_c, 0, 47, 64
2, 345979, Note_on_c, 0, 56, 35
2, 345992, Note_off_c, 0, 66, 64
2, 345998, Note_on_c, 0, 64, 65
2, 346072, Note_off_c, 0, 56, 64
2, 346097, Note_on_c, 0, 71, 64
2, 346104, Note_on_c, 0, 68, 63
2, 346106, Note_on_c, 0, 59, 36
2, 346151, Note_off_c, 0, 64, 64
2, 346175, Note_off_c, 0, 59, 64
2, 346185, Note_on_c, 0, 52, 48
2, 346194, Note_on_c, 0, 73, 67
2, 346215, Note_off_c, 0, 68, 64
2, 346224, Note_off_c, 0, 71, 64
2, 346244, Control_c, 0, 64, 0
2, 346277, Note_off_c, 0, 73, 64
2, 346286, Note_off_c, 0, 52, 64
2, 346288, Note_on_c, 0, 71, 55
2, 346288, Note_on_c, 0, 47, 54
2, 346294, Note_on_c, 0, 75, 60
2, 346333, Control_c, 0, 64, 127
2, 346392, Note_on_c, 0, 53, 53
2, 346393, Note_on_c, 0, 63, 57
2, 346417, Note_off_c, 0, 71, 64
2, 346484, Note_off_c, 0, 47, 64
2, 346506, Note_on_c, 0, 66, 54
2, 346512, Note_off_c, 0, 53, 64
2, 346512, Note_on_c, 0, 54, 51
2, 346527, Note_off_c, 0, 63, 64
2, 346611, Note_on_c, 0, 61, 60
2, 346614, Note_off_c, 0, 54, 64
2, 346615, Note_on_c, 0, 63, 51
2, 346626, Note_off_c, 0, 66, 64
2, 346740, Note_on_c, 0, 66, 46
2, 346740, Note_on_c, 0, 59, 48
2, 346761, Note_off_c, 0, 75, 64
2, 346770, Note_off_c, 0, 61, 64
2, 346877, Note_on_c, 0, 68, 47
2, 346889, Note_off_c, 0, 63, 64
2, 346889, Note_on_c, 0, 56, 45
2, 346893, Note_off_c, 0, 59, 64
2, 346904, Note_off_c, 0, 66, 64
2, 347009, Note_off_c, 0, 56, 64
2, 347035, Note_on_c, 0, 73, 67
2, 347038, Control_c, 0, 64, 0
2, 347044, Note_on_c, 0, 64, 59
2, 347052, Note_on_c, 0, 58, 62
2, 347054, Note_off_c, 0, 68, 64
2, 347125, Control_c, 0, 64, 127
2, 347167, Note_on_c, 0, 66, 56
2, 347174, Note_on_c, 0, 54, 48
2, 347184, Note_off_c, 0, 58, 64
2, 347200, Note_on_c, 0, 68, 57
2, 347232, Note_on_c, 0, 70, 56
2, 347260, Note_off_c, 0, 68, 64
2, 347261, Note_off_c, 0, 54, 64
2, 347264, Note_off_c, 0, 66, 64
2, 347270, Note_on_c, 0, 68, 57
2, 347271, Note_on_c, 0, 49, 51
2, 347293, Note_off_c, 0, 70, 64
2, 347313, Note_off_c, 0, 73, 64
2, 347355, Note_off_c, 0, 68, 64
2, 347361, Note_off_c, 0, 49, 64
2, 347361, Note_on_c, 0, 42, 68
2, 347366, Note_on_c, 0, 66, 72
2, 347394, Note_off_c, 0, 64, 64
2, 347412, Note_off_c, 0, 66, 64
2, 347445, Note_on_c, 0, 66, 68
2, 347450, Note_off_c, 0, 42, 64
2, 347454, Note_on_c, 0, 49, 31
2, 347532, Note_off_c, 0, 49, 64
2, 347535, Note_on_c, 0, 54, 46
2, 347542, Note_on_c, 0, 75, 67
2, 347572, Note_off_c, 0, 66, 64
2, 347588, Note_off_c, 0, 75, 64
2, 347625, Note_off_c, 0, 54, 64
2, 347637, Control_c, 0, 64, 0
2, 347650, Note_on_c, 0, 73, 69
2, 347650, Note_on_c, 0, 64, 56
2, 347655, Note_on_c, 0, 58, 73
2, 347711, Control_c, 0, 64, 127
2, 347752, Note_on_c, 0, 66, 72
2, 347753, Note_on_c, 0, 54, 59
2, 347768, Note_off_c, 0, 58, 64
2, 347777, Note_off_c, 0, 73, 64
2, 347792, Note_on_c, 0, 68, 77
2, 347805, Note_off_c, 0, 66, 64
2, 347827, Note_off_c, 0, 64, 64
2, 347832, Note_on_c, 0, 70, 68
2, 347837, Note_off_c, 0, 68, 64
2, 347837, Note_off_c, 0, 54, 64
2, 347864, Note_on_c, 0, 68, 72
2, 347880, Note_off_c, 0, 70, 64
2, 347883, Note_on_c, 0, 49, 24
2, 347941, Note_on_c, 0, 42, 36
2, 347949, Note_off_c, 0, 68, 64
2, 347957, Note_off_c, 0, 49, 64
2, 347968, Note_on_c, 0, 66, 72
2, 348015, Note_off_c, 0, 66, 64
2, 348046, Note_off_c, 0, 42, 64
2, 348068, Note_on_c, 0, 49, 31
2, 348079, Note_on_c, 0, 66, 69
2, 348146, Note_off_c, 0, 49, 64
2, 348172, Note_on_c, 0, 75, 62
2, 348183, Note_on_c, 0, 54, 20
2, 348198, Note_off_c, 0, 66, 64
2, 348229, Note_off_c, 0, 75, 64
2, 348267, Control_c, 0, 64, 0
2, 348283, Note_off_c, 0, 54, 64
2, 348293, Note_on_c, 0, 73, 70
2, 348293, Note_on_c, 0, 64, 62
2, 348305, Note_on_c, 0, 35, 70
2, 348344, Control_c, 0, 64, 127
2, 348390, Note_off_c, 0, 64, 64
2, 348390, Note_on_c, 0, 66, 63
2, 348398, Note_on_c, 0, 42, 60
2, 348411, Note_off_c, 0, 35, 64
2, 348419, Note_off_c, 0, 73, 64
2, 348466, Note_off_c, 0, 66, 64
2, 348481, Note_off_c, 0, 42, 64
2, 348481, Note_on_c, 0, 63, 59
2, 348481, Note_on_c, 0, 47, 62
2, 348487, Note_on_c, 0, 71, 64
2, 348578, Note_on_c, 0, 66, 67
2, 348585, Note_on_c, 0, 54, 62
2, 348595, Note_off_c, 0, 71, 64
2, 348601, Note_off_c, 0, 63, 64
2, 348672, Note_off_c, 0, 54, 64
2, 348677, Note_off_c, 0, 66, 64
2, 348680, Note_on_c, 0, 75, 70
2, 348680, Note_on_c, 0, 51, 45
2, 348686, Note_on_c, 0, 71, 67
2, 348708, Note_off_c, 0, 47, 64
2, 348754, Note_off_c, 0, 71, 64
2, 348777, Note_off_c, 0, 51, 64
2, 348777, Note_off_c, 0, 75, 64
2, 348782, Note_on_c, 0, 59, 62
2, 348785, Note_on_c, 0, 66, 76
2, 348883, Note_off_c, 0, 59, 64
2, 348899, Control_c, 0, 64, 0
2, 348912, Note_on_c, 0, 77, 67
2, 348912, Note_on_c, 0, 62, 56
2, 348920, Note_on_c, 0, 71, 63
2, 348947, Note_off_c, 0, 66, 64
2, 348950, Note_off_c, 0, 77, 64
2, 348957, Note_off_c, 0, 71, 64
2, 348970, Control_c, 0, 64, 127
2, 349012, Note_on_c, 0, 78, 73
2, 349012, Note_on_c, 0, 63, 60
2, 349017, Note_on_c, 0, 71, 61
2, 349026, Note_off_c, 0, 62, 64
2, 349063, Note_off_c, 0, 71, 64
2, 349066, Note_off_c, 0, 78, 64
2, 349115, Note_on_c, 0, 80, 72
2, 349116, Note_on_c, 0, 71, 51
2, 349120, Note_on_c, 0, 66, 56
2, 349120, Note_on_c, 0, 64, 60
2, 349129, Note_off_c, 0, 63, 64
2, 349137, Note_off_c, 0, 71, 64
2, 349205, Note_on_c, 0, 78, 67
2, 349212, Note_on_c, 0, 63, 51
2, 349217, Note_off_c, 0, 80, 64
2, 349232, Note_off_c, 0, 64, 64
2, 349302, Note_on_c, 0, 61, 32
2, 349311, Note_off_c, 0, 63, 64
2, 349313, Note_on_c, 0, 76, 67
2, 349330, Note_off_c, 0, 78, 64
2, 349363, Note_off_c, 0, 76, 64
2, 349402, Note_off_c, 0, 61, 64
2, 349403, Note_on_c, 0, 59, 56
2, 349406, Note_on_c, 0, 75, 72
2, 349435, Note_off_c, 0, 66, 64
2, 349442, Note_off_c, 0, 75, 64
2, 349450, Note_off_c, 0, 59, 64
2, 349524, Control_c, 0, 64, 0
2, 349539, Note_on_c, 0, 73, 63
2, 349545, Note_on_c, 0, 64, 55
2, 349554, Note_on_c, 0, 58, 58
2, 349609, Control_c, 0, 64, 127
2, 349657, Note_on_c, 0, 66, 66
2, 349667, Note_on_c, 0, 54, 45
2, 349690, Note_off_c, 0, 58, 64
2, 349706, Note_off_c, 0, 66, 64
2, 349706, Note_off_c, 0, 64, 64
2, 349719, Note_off_c, 0, 73, 64
2, 349744, Note_on_c, 0, 68, 71
2, 349757, Note_off_c, 0, 54, 64
2, 349774, Note_on_c, 0, 49, 40
2, 349775, Note_on_c, 0, 70, 67
2, 349783, Note_off_c, 0, 68, 64
2, 349803, Note_on_c, 0, 68, 74
2, 349852, Note_off_c, 0, 70, 64
2, 349863, Note_off_c, 0, 49, 64
2, 349869, Note_on_c, 0, 42, 47
2, 349892, Note_on_c, 0, 66, 74
2, 349922, Note_off_c, 0, 68, 64
2, 349940, Note_off_c, 0, 66, 64
2, 349966, Note_off_c, 0, 42, 64
2, 349969, Note_on_c, 0, 49, 53
2, 349977, Note_on_c, 0, 66, 72
2, 350069, Note_on_c, 0, 75, 72
2, 350072, Note_on_c, 0, 54, 33
2, 350085, Note_off_c, 0, 49, 64
2, 350099, Note_off_c, 0, 66, 64
2, 350119, Note_off_c, 0, 75, 64
2, 350161, Control_c, 0, 64, 0
2, 350176, Note_on_c, 0, 73, 73
2, 350182, Note_off_c, 0, 54, 64
2, 350191, Note_on_c, 0, 64, 65
2, 350191, Note_on_c, 0, 58, 68
2, 350228, Control_c, 0, 64, 127
2, 350279, Note_on_c, 0, 66, 67
2, 350286, Note_on_c, 0, 54, 57
2, 350294, Note_off_c, 0, 58, 64
2, 350340, Note_off_c, 0, 73, 64
2, 350348, Note_off_c, 0, 66, 64
2, 350357, Note_off_c, 0, 64, 64
2, 350362, Note_on_c, 0, 68, 72
2, 350371, Note_off_c, 0, 54, 64
2, 350400, Note_on_c, 0, 70, 67
2, 350401, Note_on_c, 0, 49, 42
2, 350406, Note_off_c, 0, 68, 64
2, 350423, Note_on_c, 0, 68, 75
2, 350468, Note_off_c, 0, 70, 64
2, 350514, Note_off_c, 0, 49, 64
2, 350516, Note_on_c, 0, 42, 58
2, 350521, Note_on_c, 0, 66, 83
2, 350536, Note_off_c, 0, 68, 64
2, 350577, Note_off_c, 0, 66, 64
2, 350618, Note_off_c, 0, 42, 64
2, 350620, Note_on_c, 0, 49, 51
2, 350627, Note_on_c, 0, 66, 87
2, 350729, Note_off_c, 0, 49, 64
2, 350743, Note_on_c, 0, 54, 55
2, 350756, Note_on_c, 0, 78, 81
2, 350801, Note_off_c, 0, 66, 64
2, 350824, Note_off_c, 0, 54, 64
2, 350885, Note_off_c, 0, 78, 64
2, 350896, Note_on_c, 0, 63, 54
2, 350956, Note_off_c, 0, 63, 64
2, 350960, Note_on_c, 0, 63, 53
2, 350968, Note_on_c, 0, 54, 59
2, 350968, Note_on_c, 0, 47, 52
2, 350977, Note_on_c, 0, 78, 104
2, 351008, Control_c, 0, 64, 0
2, 351107, Control_c, 0, 64, 127
2, 351624, Note_off_c, 0, 63, 64
2, 351644, Note_on_c, 0, 77, 70
2, 351655, Note_off_c, 0, 78, 64
2, 351685, Note_off_c, 0, 54, 64
2, 351712, Control_c, 0, 64, 0
2, 351749, Note_on_c, 0, 78, 68
2, 351766, Note_off_c, 0, 47, 64
2, 351771, Note_off_c, 0, 77, 64
2, 351853, Note_on_c, 0, 80, 57
2, 351875, Note_off_c, 0, 78, 64
2, 351965, Note_on_c, 0, 78, 73
2, 351988, Note_off_c, 0, 80, 64
2, 352076, Note_on_c, 0, 76, 71
2, 352099, Note_off_c, 0, 78, 64
2, 352187, Note_on_c, 0, 75, 59
2, 352210, Note_off_c, 0, 76, 64
2, 352244, Control_c, 0, 64, 127
2, 352286, Note_off_c, 0, 75, 64
2, 352323, Control_c, 0, 64, 0
2, 352351, Note_on_c, 0, 75, 67
2, 352432, Control_c, 0, 64, 127
2, 352855, Note_on_c, 0, 51, 50
2, 352856, Note_on_c, 0, 74, 70
2, 352861, Note_on_c, 0, 58, 47
2, 352866, Note_on_c, 0, 67, 55
2, 352874, Note_off_c, 0, 75, 64
2, 353011, Note_on_c, 0, 75, 65
2, 353048, Note_off_c, 0, 74, 64
2, 353117, Note_off_c, 0, 67, 64
2, 353123, Note_on_c, 0, 76, 53
2, 353143, Note_off_c, 0, 75, 64
2, 353218, Control_c, 0, 64, 0
2, 353237, Note_off_c, 0, 76, 64
2, 353241, Note_on_c, 0, 75, 59
2, 353245, Note_on_c, 0, 56, 47
2, 353249, Note_on_c, 0, 68, 64
2, 353249, Note_on_c, 0, 59, 41
2, 353255, Note_off_c, 0, 51, 64
2, 353259, Note_off_c, 0, 58, 64
2, 353291, Control_c, 0, 64, 127
2, 353359, Note_on_c, 0, 73, 55
2, 353369, Note_off_c, 0, 75, 64
2, 353495, Note_off_c, 0, 68, 64
2, 353495, Note_on_c, 0, 71, 57
2, 353506, Note_off_c, 0, 73, 64
2, 353627, Control_c, 0, 64, 0
2, 353647, Note_on_c, 0, 75, 49
2, 353652, Note_on_c, 0, 58, 41
2, 353657, Note_off_c, 0, 59, 64
2, 353657, Note_on_c, 0, 54, 36
2, 353661, Note_off_c, 0, 71, 64
2, 353664, Note_on_c, 0, 64, 43
2, 353671, Note_off_c, 0, 56, 64
2, 353708, Control_c, 0, 64, 127
2, 353824, Note_on_c, 0, 73, 56
2, 353910, Note_off_c, 0, 75, 64
2, 354017, Note_on_c, 0, 71, 30
2, 354047, Note_off_c, 0, 58, 64
2, 354056, Note_off_c, 0, 73, 64
2, 354070, Note_off_c, 0, 54, 64
2, 354121, Note_off_c, 0, 64, 64
2, 354152, Note_off_c, 0, 71, 64
2, 354272, Note_on_c, 0, 54, 36
2, 354279, Note_on_c, 0, 63, 32
2, 354284, Note_on_c, 0, 47, 33
2, 354289, Note_on_c, 0, 71, 39
2, 354319, Control_c, 0, 64, 0
2, 354405, Control_c, 0, 64, 127
2, 354738, Note_off_c, 0, 71, 64
2, 354803, Note_off_c, 0, 63, 64
2, 354842, Note_off_c, 0, 54, 64
2, 354856, Note_off_c, 0, 47, 64
2, 355048, Note_on_c, 0, 54, 49
2, 355062, Note_on_c, 0, 47, 29
2, 355065, Note_on_c, 0, 63, 29
2, 355069, Note_on_c, 0, 35, 28
2, 355080, Note_on_c, 0, 66, 35
2, 355414, Note_off_c, 0, 47, 64
2, 355421, Note_off_c, 0, 35, 64
2, 355443, Note_off_c, 0, 54, 64
2, 355517, Note_on_c, 0, 42, 34
2, 355520, Note_on_c, 0, 30, 52
2, 355865, Note_off_c, 0, 30, 64
2, 355869, Note_off_c, 0, 42, 64
2, 356045, Note_off_c, 0, 63, 64
2, 356060, Note_off_c, 0, 66, 64
2, 356232, Note_on_c, 0, 63, 26
2, 356232, Note_on_c, 0, 59, 30
2, 356232, Note_on_c, 0, 35, 54
2, 356234, Note_on_c, 0, 54, 27
2, 356238, Note_on_c, 0, 47, 44
2, 356316, Control_c, 0, 64, 0
2, 356486, Control_c, 0, 64, 127
2, 357324, Control_c, 0, 64, 0
2, 357492, Note_off_c, 0, 35, 64
2, 357503, Note_off_c, 0, 47, 64
2, 357535, Note_off_c, 0, 54, 64
2, 357582, Note_off_c, 0, 59, 64
2, 357592, Note_off_c, 0, 63, 64
2, 357720, Note_on_c, 0, 56, 72
2, 357720, Note_on_c, 0, 44, 72
2, 357722, Note_on_c, 0, 63, 73
2, 357725, Note_on_c, 0, 51, 72
2, 357727, Note_on_c, 0, 59, 60
2, 357743, Note_off_c, 0, 51, 64
2, 357743, Note_off_c, 0, 56, 64
2, 357744, Note_off_c, 0, 44, 64
2, 357804, Note_on_c, 0, 64, 67
2, 357819, Note_off_c, 0, 59, 64
2, 357822, Note_off_c, 0, 63, 64
2, 357828, Note_off_c, 0, 64, 64
2, 357880, Note_on_c, 0, 32, 64
2, 357882, Note_on_c, 0, 64, 73
2, 357884, Note_on_c, 0, 59, 64
2, 357884, Note_on_c, 0, 44, 68
2, 357913, Note_off_c, 0, 32, 64
2, 357917, Note_off_c, 0, 44, 64
2, 357941, Note_off_c, 0, 59, 64
2, 357941, Note_off_c, 0, 64, 64
2, 357957, Note_on_c, 0, 65, 68
2, 357981, Note_off_c, 0, 65, 64
2, 358030, Note_on_c, 0, 39, 70
2, 358033, Note_on_c, 0, 51, 70
2, 358035, Note_on_c, 0, 65, 79
2, 358035, Note_on_c, 0, 63, 75
2, 358035, Note_on_c, 0, 59, 64
2, 358050, Note_off_c, 0, 51, 64
2, 358050, Note_off_c, 0, 39, 64
2, 358056, Note_off_c, 0, 63, 64
2, 358064, Note_off_c, 0, 59, 64
2, 358072, Note_off_c, 0, 65, 64
2, 358103, Note_on_c, 0, 66, 72
2, 358136, Note_off_c, 0, 66, 64
2, 358160, Control_c, 0, 64, 0
2, 358182, Note_on_c, 0, 66, 85
2, 358183, Note_on_c, 0, 63, 72
2, 358184, Note_on_c, 0, 59, 70
2, 358184, Note_on_c, 0, 56, 72
2, 358184, Note_on_c, 0, 44, 72
2, 358190, Note_on_c, 0, 51, 72
2, 358197, Control_c, 0, 64, 127
2, 358204, Note_off_c, 0, 56, 64
2, 358207, Note_off_c, 0, 51, 64
2, 358207, Note_off_c, 0, 44, 64
2, 358235, Note_off_c, 0, 63, 64
2, 358242, Note_off_c, 0, 66, 64
2, 358258, Note_on_c, 0, 67, 70
2, 358274, Note_off_c, 0, 59, 64
2, 358284, Note_off_c, 0, 67, 64
2, 358328, Note_on_c, 0, 44, 75
2, 358331, Note_on_c, 0, 67, 82
2, 358332, Note_on_c, 0, 32, 64
2, 358333, Note_on_c, 0, 63, 64
2, 358333, Note_on_c, 0, 59, 68
2, 358353, Note_off_c, 0, 63, 64
2, 358353, Note_off_c, 0, 44, 64
2, 358355, Note_off_c, 0, 32, 64
2, 358360, Note_off_c, 0, 59, 64
2, 358374, Note_off_c, 0, 67, 64
2, 358408, Note_on_c, 0, 68, 61
2, 358435, Note_off_c, 0, 68, 64
2, 358481, Note_on_c, 0, 68, 88
2, 358481, Note_on_c, 0, 51, 78
2, 358481, Note_on_c, 0, 39, 72
2, 358484, Note_on_c, 0, 63, 76
2, 358484, Note_on_c, 0, 59, 69
2, 358495, Note_off_c, 0, 39, 64
2, 358500, Note_off_c, 0, 51, 64
2, 358503, Note_off_c, 0, 59, 64
2, 358506, Note_off_c, 0, 63, 64
2, 358529, Note_off_c, 0, 68, 64
2, 358552, Note_on_c, 0, 69, 81
2, 358578, Note_off_c, 0, 69, 64
2, 358616, Control_c, 0, 64, 0
2, 358632, Note_on_c, 0, 59, 72
2, 358632, Note_on_c, 0, 51, 72
2, 358635, Note_on_c, 0, 69, 90
2, 358635, Note_on_c, 0, 63, 86
2, 358635, Note_on_c, 0, 56, 72
2, 358648, Control_c, 0, 64, 127
2, 358650, Note_off_c, 0, 59, 64
2, 358659, Note_off_c, 0, 56, 64
2, 358659, Note_off_c, 0, 51, 64
2, 358674, Note_off_c, 0, 69, 64
2, 358680, Note_off_c, 0, 63, 64
2, 358708, Note_on_c, 0, 70, 92
2, 358732, Note_off_c, 0, 70, 64
2, 358776, Note_on_c, 0, 32, 64
2, 358779, Note_on_c, 0, 70, 85
2, 358779, Note_on_c, 0, 44, 79
2, 358783, Note_on_c, 0, 63, 84
2, 358806, Note_off_c, 0, 32, 64
2, 358808, Note_off_c, 0, 44, 64
2, 358828, Note_off_c, 0, 63, 64
2, 358833, Note_off_c, 0, 70, 64
2, 358847, Note_on_c, 0, 71, 78
2, 358875, Note_off_c, 0, 71, 64
2, 358893, Control_c, 0, 64, 0
2, 358919, Note_on_c, 0, 63, 88
2, 358920, Note_on_c, 0, 71, 90
2, 358920, Note_on_c, 0, 68, 76
2, 358920, Note_on_c, 0, 39, 78
2, 358924, Note_on_c, 0, 51, 70
2, 358930, Control_c, 0, 64, 127
2, 358947, Note_off_c, 0, 39, 64
2, 358953, Note_off_c, 0, 51, 64
2, 358984, Note_on_c, 0, 72, 90
2, 358987, Note_off_c, 0, 68, 64
2, 358987, Note_off_c, 0, 71, 64
2, 359002, Note_off_c, 0, 63, 64
2, 359013, Note_off_c, 0, 72, 64
2, 359060, Note_on_c, 0, 51, 72
2, 359061, Note_on_c, 0, 72, 94
2, 359061, Note_on_c, 0, 63, 87
2, 359061, Note_on_c, 0, 59, 72
2, 359064, Note_on_c, 0, 56, 72
2, 359065, Note_on_c, 0, 68, 83
2, 359077, Note_off_c, 0, 59, 64
2, 359081, Note_off_c, 0, 51, 64
2, 359084, Note_off_c, 0, 56, 64
2, 359089, Note_off_c, 0, 68, 64
2, 359094, Note_off_c, 0, 72, 64
2, 359097, Note_off_c, 0, 63, 64
2, 359125, Note_on_c, 0, 73, 94
2, 359153, Note_off_c, 0, 73, 64
2, 359199, Note_on_c, 0, 73, 97
2, 359199, Note_on_c, 0, 63, 82
2, 359200, Note_on_c, 0, 68, 74
2, 359204, Note_on_c, 0, 32, 82
2, 359206, Note_on_c, 0, 44, 93
2, 359219, Note_off_c, 0, 44, 64
2, 359221, Note_off_c, 0, 32, 64
2, 359267, Note_on_c, 0, 74, 84
2, 359269, Note_off_c, 0, 63, 64
2, 359269, Note_off_c, 0, 73, 64
2, 359270, Note_off_c, 0, 68, 64
2, 359291, Note_off_c, 0, 74, 64
2, 359340, Note_on_c, 0, 74, 99
2, 359340, Note_on_c, 0, 68, 84
2, 359340, Note_on_c, 0, 63, 88
2, 359340, Note_on_c, 0, 51, 85
2, 359340, Note_on_c, 0, 39, 84
2, 359358, Note_off_c, 0, 39, 64
2, 359361, Note_off_c, 0, 51, 64
2, 359376, Note_off_c, 0, 74, 64
2, 359392, Note_off_c, 0, 63, 64
2, 359392, Note_off_c, 0, 68, 64
2, 359407, Note_on_c, 0, 75, 98
2, 359434, Note_off_c, 0, 75, 64
2, 359469, Control_c, 0, 64, 0
2, 359476, Note_on_c, 0, 75, 101
2, 359479, Note_on_c, 0, 70, 93
2, 359479, Note_on_c, 0, 63, 93
2, 359481, Note_on_c, 0, 58, 72
2, 359481, Note_on_c, 0, 51, 72
2, 359504, Control_c, 0, 64, 127
2, 359534, Note_off_c, 0, 75, 64
2, 359537, Note_off_c, 0, 70, 64
2, 359546, Note_off_c, 0, 58, 64
2, 359546, Note_on_c, 0, 76, 93
2, 359548, Note_off_c, 0, 51, 64
2, 359572, Note_off_c, 0, 76, 64
2, 359572, Note_off_c, 0, 63, 64
2, 359615, Note_on_c, 0, 51, 81
2, 359615, Note_on_c, 0, 43, 84
2, 359618, Note_on_c, 0, 76, 101
2, 359618, Note_on_c, 0, 70, 75
2, 359642, Note_off_c, 0, 43, 64
2, 359646, Note_off_c, 0, 51, 64
2, 359661, Note_off_c, 0, 76, 64
2, 359671, Note_on_c, 0, 75, 98
2, 359678, Note_off_c, 0, 70, 64
2, 359698, Note_off_c, 0, 75, 64
2, 359740, Note_on_c, 0, 70, 72
2, 359744, Note_on_c, 0, 58, 72
2, 359747, Note_on_c, 0, 75, 99
2, 359747, Note_on_c, 0, 63, 90
2, 359751, Note_on_c, 0, 51, 70
2, 359790, Note_off_c, 0, 58, 64
2, 359794, Note_off_c, 0, 51, 64
2, 359797, Note_off_c, 0, 75, 64
2, 359804, Note_on_c, 0, 73, 84
2, 359806, Note_off_c, 0, 70, 64
2, 359826, Note_off_c, 0, 63, 64
2, 359831, Note_off_c, 0, 73, 64
2, 359860, Control_c, 0, 64, 0
2, 359876, Note_on_c, 0, 44, 72
2, 359877, Note_on_c, 0, 73, 97
2, 359879, Note_on_c, 0, 63, 81
2, 359879, Note_on_c, 0, 51, 72
2, 359882, Note_on_c, 0, 68, 54
2, 359894, Control_c, 0, 64, 127
2, 359928, Note_off_c, 0, 73, 64
2, 359933, Note_off_c, 0, 68, 64
2, 359934, Note_off_c, 0, 51, 64
2, 359943, Note_on_c, 0, 71, 68
2, 359950, Note_off_c, 0, 44, 64
2, 359952, Note_off_c, 0, 63, 64
2, 359965, Note_off_c, 0, 71, 64
2, 360008, Note_on_c, 0, 68, 82
2, 360008, Note_on_c, 0, 63, 86
2, 360008, Note_on_c, 0, 59, 68
2, 360011, Note_on_c, 0, 71, 91
2, 360013, Note_on_c, 0, 51, 68
2, 360058, Note_off_c, 0, 59, 64
2, 360063, Note_off_c, 0, 51, 64
2, 360071, Note_off_c, 0, 68, 64
2, 360073, Note_off_c, 0, 71, 64
2, 360073, Note_on_c, 0, 73, 80
2, 360095, Note_off_c, 0, 63, 64
2, 360100, Note_off_c, 0, 73, 64
2, 360148, Note_on_c, 0, 73, 86
2, 360148, Note_on_c, 0, 68, 80
2, 360148, Note_on_c, 0, 64, 64
2, 360152, Note_on_c, 0, 51, 72
2, 360152, Note_on_c, 0, 44, 72
2, 360184, Note_off_c, 0, 51, 64
2, 360189, Note_off_c, 0, 44, 64
2, 360201, Note_off_c, 0, 73, 64
2, 360202, Note_on_c, 0, 75, 88
2, 360212, Note_off_c, 0, 64, 64
2, 360212, Note_off_c, 0, 68, 64
2, 360231, Note_off_c, 0, 75, 64
2, 360273, Note_on_c, 0, 75, 100
2, 360275, Note_on_c, 0, 68, 80
2, 360275, Note_on_c, 0, 64, 80
2, 360275, Note_on_c, 0, 56, 80
2, 360280, Note_on_c, 0, 49, 68
2, 360299, Note_off_c, 0, 56, 64
2, 360301, Note_off_c, 0, 49, 64
2, 360318, Note_off_c, 0, 64, 64
2, 360330, Note_off_c, 0, 68, 64
2, 360332, Note_off_c, 0, 75, 64
2, 360332, Note_on_c, 0, 73, 77
2, 360356, Note_off_c, 0, 73, 64
2, 360387, Control_c, 0, 64, 0
2, 360403, Note_on_c, 0, 73, 95
2, 360403, Note_on_c, 0, 68, 64
2, 360403, Note_on_c, 0, 64, 64
2, 360403, Note_on_c, 0, 49, 71
2, 360407, Note_on_c, 0, 37, 68
2, 360421, Control_c, 0, 64, 127
2, 360438, Note_off_c, 0, 73, 64
2, 360439, Note_off_c, 0, 37, 64
2, 360447, Note_off_c, 0, 49, 64
2, 360459, Note_off_c, 0, 68, 64
2, 360471, Note_on_c, 0, 71, 78
2, 360482, Note_off_c, 0, 64, 64
2, 360489, Note_off_c, 0, 71, 64
2, 360534, Note_on_c, 0, 56, 65
2, 360536, Note_on_c, 0, 61, 68
2, 360539, Note_on_c, 0, 71, 84
2, 360541, Note_on_c, 0, 64, 63
2, 360543, Note_on_c, 0, 49, 52
2, 360586, Note_off_c, 0, 49, 64
2, 360594, Note_off_c, 0, 56, 64
2, 360601, Note_off_c, 0, 64, 64
2, 360605, Note_on_c, 0, 70, 84
2, 360606, Note_off_c, 0, 71, 64
2, 360619, Note_off_c, 0, 61, 64
2, 360634, Note_off_c, 0, 70, 64
2, 360653, Control_c, 0, 64, 0
2, 360672, Note_on_c, 0, 61, 84
2, 360672, Note_on_c, 0, 51, 64
2, 360675, Note_on_c, 0, 55, 63
2, 360692, Control_c, 0, 64, 127
2, 360708, Note_off_c, 0, 55, 64
2, 360715, Note_off_c, 0, 51, 64
2, 360742, Note_on_c, 0, 71, 76
2, 360766, Note_off_c, 0, 61, 64
2, 360770, Note_off_c, 0, 71, 64
2, 360809, Note_on_c, 0, 71, 75
2, 360812, Note_on_c, 0, 51, 65
2, 360812, Note_on_c, 0, 39, 48
2, 360813, Note_on_c, 0, 61, 76
2, 360847, Note_off_c, 0, 39, 64
2, 360855, Note_off_c, 0, 51, 64
2, 360858, Note_off_c, 0, 71, 64
2, 360868, Note_on_c, 0, 70, 74
2, 360889, Note_off_c, 0, 61, 64
2, 360892, Note_off_c, 0, 70, 64
2, 360934, Note_on_c, 0, 51, 64
2, 360939, Note_on_c, 0, 55, 56
2, 360940, Note_on_c, 0, 61, 75
2, 360942, Note_on_c, 0, 70, 86
2, 360987, Note_off_c, 0, 55, 64
2, 360987, Note_off_c, 0, 51, 64
2, 360991, Note_off_c, 0, 70, 64
2, 361002, Note_on_c, 0, 63, 63
2, 361025, Note_off_c, 0, 61, 64
2, 361026, Note_off_c, 0, 63, 64
2, 361053, Control_c, 0, 64, 0
2, 361072, Note_on_c, 0, 44, 72
2, 361073, Note_on_c, 0, 63, 73
2, 361073, Note_on_c, 0, 59, 68
2, 361073, Note_on_c, 0, 56, 72
2, 361073, Note_on_c, 0, 51, 72
2, 361093, Control_c, 0, 64, 127
2, 361125, Note_off_c, 0, 51, 64
2, 361128, Note_off_c, 0, 56, 64
2, 361136, Note_on_c, 0, 64, 67
2, 361137, Note_off_c, 0, 44, 64
2, 361158, Note_off_c, 0, 63, 64
2, 361162, Note_off_c, 0, 59, 64
2, 361164, Note_off_c, 0, 64, 64
2, 361203, Note_on_c, 0, 59, 60
2, 361205, Note_on_c, 0, 44, 72
2, 361206, Note_on_c, 0, 64, 84
2, 361208, Note_on_c, 0, 32, 58
2, 361229, Note_off_c, 0, 44, 64
2, 361238, Note_off_c, 0, 32, 64
2, 361272, Note_on_c, 0, 65, 69
2, 361275, Note_off_c, 0, 64, 64
2, 361297, Note_off_c, 0, 65, 64
2, 361302, Note_off_c, 0, 59, 64
2, 361340, Note_on_c, 0, 63, 68
2, 361344, Note_on_c, 0, 51, 72
2, 361344, Note_on_c, 0, 39, 68
2, 361346, Note_on_c, 0, 59, 60
2, 361347, Note_on_c, 0, 65, 79
2, 361366, Note_off_c, 0, 51, 64
2, 361371, Note_off_c, 0, 39, 64
2, 361392, Note_off_c, 0, 59, 64
2, 361396, Note_off_c, 0, 65, 64
2, 361408, Note_off_c, 0, 63, 64
2, 361408, Note_on_c, 0, 66, 65
2, 361434, Note_off_c, 0, 66, 64
2, 361464, Control_c, 0, 64, 0
2, 361468, Note_on_c, 0, 63, 60
2, 361472, Note_on_c, 0, 59, 66
2, 361473, Note_on_c, 0, 66, 75
2, 361476, Note_on_c, 0, 56, 72
2, 361476, Note_on_c, 0, 44, 72
2, 361480, Note_on_c, 0, 51, 72
2, 361499, Note_off_c, 0, 56, 64
2, 361502, Note_off_c, 0, 44, 64
2, 361502, Control_c, 0, 64, 127
2, 361504, Note_off_c, 0, 51, 64
2, 361543, Note_on_c, 0, 67, 71
2, 361545, Note_off_c, 0, 66, 64
2, 361547, Note_off_c, 0, 63, 64
2, 361556, Note_off_c, 0, 59, 64
2, 361573, Note_off_c, 0, 67, 64
2, 361607, Note_on_c, 0, 44, 69
2, 361612, Note_on_c, 0, 67, 79
2, 361612, Note_on_c, 0, 59, 64
2, 361612, Note_on_c, 0, 32, 62
2, 361613, Note_on_c, 0, 63, 59
2, 361642, Note_off_c, 0, 32, 64
2, 361649, Note_off_c, 0, 44, 64
2, 361652, Note_off_c, 0, 59, 64
2, 361658, Note_off_c, 0, 67, 64
2, 361661, Note_off_c, 0, 63, 64
2, 361671, Note_on_c, 0, 68, 91
2, 361702, Note_off_c, 0, 68, 64
2, 361736, Note_on_c, 0, 39, 72
2, 361738, Note_on_c, 0, 68, 77
2, 361740, Note_on_c, 0, 51, 74
2, 361742, Note_on_c, 0, 63, 69
2, 361742, Note_on_c, 0, 59, 64
2, 361757, Note_off_c, 0, 39, 64
2, 361759, Note_off_c, 0, 51, 64
2, 361800, Note_off_c, 0, 59, 64
2, 361800, Note_off_c, 0, 63, 64
2, 361802, Note_on_c, 0, 69, 81
2, 361811, Note_off_c, 0, 68, 64
2, 361827, Note_off_c, 0, 69, 64
2, 361854, Control_c, 0, 64, 0
2, 361864, Note_on_c, 0, 64, 65
2, 361866, Note_on_c, 0, 69, 82
2, 361869, Note_on_c, 0, 59, 70
2, 361869, Note_on_c, 0, 55, 72
2, 361869, Note_on_c, 0, 52, 72
2, 361872, Note_on_c, 0, 43, 72
2, 361888, Note_off_c, 0, 55, 64
2, 361891, Control_c, 0, 64, 127
2, 361893, Note_off_c, 0, 52, 64
2, 361895, Note_off_c, 0, 43, 64
2, 361924, Note_off_c, 0, 64, 64
2, 361929, Note_off_c, 0, 59, 64
2, 361929, Note_off_c, 0, 69, 64
2, 361935, Note_on_c, 0, 70, 95
2, 361965, Note_off_c, 0, 70, 64
2, 361998, Note_on_c, 0, 70, 92
2, 362000, Note_on_c, 0, 64, 67
2, 362000, Note_on_c, 0, 59, 67
2, 362004, Note_on_c, 0, 43, 72
2, 362008, Note_on_c, 0, 31, 67
2, 362060, Note_off_c, 0, 59, 64
2, 362060, Note_off_c, 0, 64, 64
2, 362062, Note_off_c, 0, 43, 64
2, 362062, Note_on_c, 0, 71, 77
2, 362066, Note_off_c, 0, 31, 64
2, 362073, Note_off_c, 0, 70, 64
2, 362091, Note_off_c, 0, 71, 64
2, 362128, Note_on_c, 0, 64, 68
2, 362128, Note_on_c, 0, 59, 68
2, 362130, Note_on_c, 0, 71, 85
2, 362130, Note_on_c, 0, 52, 78
2, 362136, Note_on_c, 0, 40, 73
2, 362155, Note_off_c, 0, 52, 64
2, 362159, Note_off_c, 0, 40, 64
2, 362183, Note_on_c, 0, 72, 88
2, 362188, Note_off_c, 0, 59, 64
2, 362188, Note_off_c, 0, 64, 64
2, 362198, Note_off_c, 0, 71, 64
2, 362215, Note_off_c, 0, 72, 64
2, 362254, Note_on_c, 0, 50, 72
2, 362256, Note_on_c, 0, 72, 88
2, 362256, Note_on_c, 0, 59, 72
2, 362259, Note_on_c, 0, 55, 72
2, 362261, Note_on_c, 0, 65, 60
2, 362275, Note_off_c, 0, 59, 64
2, 362277, Note_off_c, 0, 50, 64
2, 362278, Note_off_c, 0, 55, 64
2, 362304, Note_off_c, 0, 72, 64
2, 362309, Note_off_c, 0, 65, 64
2, 362315, Note_on_c, 0, 73, 92
2, 362342, Note_off_c, 0, 73, 64
2, 362376, Note_on_c, 0, 31, 70
2, 362380, Note_on_c, 0, 73, 96
2, 362380, Note_on_c, 0, 65, 60
2, 362380, Note_on_c, 0, 43, 79
2, 362412, Note_off_c, 0, 43, 64
2, 362436, Note_off_c, 0, 31, 64
2, 362436, Note_on_c, 0, 74, 94
2, 362439, Note_off_c, 0, 65, 64
2, 362439, Note_off_c, 0, 73, 64
2, 362467, Note_off_c, 0, 74, 64
2, 362503, Note_on_c, 0, 71, 72
2, 362506, Note_on_c, 0, 65, 82
2, 362512, Note_on_c, 0, 55, 77
2, 362512, Note_on_c, 0, 43, 76
2, 362534, Note_off_c, 0, 43, 64
2, 362535, Note_off_c, 0, 55, 64
2, 362559, Note_off_c, 0, 71, 64
2, 362562, Note_off_c, 0, 65, 64
2, 362562, Note_on_c, 0, 74, 76
2, 362591, Note_off_c, 0, 74, 64
2, 362614, Control_c, 0, 64, 0
2, 362634, Note_on_c, 0, 75, 86
2, 362637, Note_on_c, 0, 42, 69
2, 362639, Note_on_c, 0, 71, 75
2, 362639, Note_on_c, 0, 66, 75
2, 362639, Note_on_c, 0, 54, 64
2, 362649, Control_c, 0, 64, 127
2, 362668, Note_off_c, 0, 42, 64
2, 362672, Note_off_c, 0, 54, 64
2, 362698, Note_on_c, 0, 76, 80
2, 362702, Note_off_c, 0, 75, 64
2, 362709, Note_off_c, 0, 71, 64
2, 362717, Note_off_c, 0, 66, 64
2, 362729, Note_off_c, 0, 76, 64
2, 362752, Note_on_c, 0, 66, 77
2, 362760, Note_on_c, 0, 71, 69
2, 362761, Note_on_c, 0, 76, 86
2, 362762, Note_on_c, 0, 63, 64
2, 362767, Note_on_c, 0, 54, 56
2, 362784, Note_off_c, 0, 63, 64
2, 362788, Note_off_c, 0, 54, 64
2, 362822, Note_off_c, 0, 76, 64
2, 362822, Note_on_c, 0, 75, 78
2, 362828, Note_off_c, 0, 66, 64
2, 362829, Note_off_c, 0, 71, 64
2, 362848, Note_off_c, 0, 75, 64
2, 362880, Note_on_c, 0, 75, 81
2, 362880, Note_on_c, 0, 71, 70
2, 362884, Note_on_c, 0, 66, 68
2, 362887, Note_on_c, 0, 54, 82
2, 362888, Note_on_c, 0, 42, 75
2, 362905, Note_off_c, 0, 42, 64
2, 362909, Note_off_c, 0, 54, 64
2, 362918, Note_off_c, 0, 71, 64
2, 362924, Note_off_c, 0, 66, 64
2, 362929, Note_off_c, 0, 75, 64
2, 362945, Note_on_c, 0, 78, 88
2, 362979, Note_off_c, 0, 78, 64
2, 362996, Control_c, 0, 64, 0
2, 363004, Note_on_c, 0, 64, 68
2, 363007, Note_on_c, 0, 78, 88
2, 363008, Note_on_c, 0, 66, 80
2, 363010, Note_on_c, 0, 70, 76
2, 363010, Note_on_c, 0, 54, 66
2, 363028, Note_off_c, 0, 64, 64
2, 363033, Control_c, 0, 64, 127
2, 363045, Note_off_c, 0, 54, 64
2, 363069, Note_off_c, 0, 78, 64
2, 363072, Note_on_c, 0, 73, 84
2, 363088, Note_off_c, 0, 70, 64
2, 363090, Note_off_c, 0, 66, 64
2, 363095, Note_off_c, 0, 73, 64
2, 363120, Note_on_c, 0, 54, 73
2, 363132, Note_on_c, 0, 70, 78
2, 363134, Note_on_c, 0, 42, 68
2, 363136, Note_on_c, 0, 73, 73
2, 363137, Note_on_c, 0, 66, 82
2, 363146, Note_off_c, 0, 54, 64
2, 363158, Note_off_c, 0, 42, 64
2, 363181, Note_off_c, 0, 73, 64
2, 363193, Note_on_c, 0, 75, 84
2, 363199, Note_off_c, 0, 70, 64
2, 363215, Note_off_c, 0, 66, 64
2, 363223, Note_off_c, 0, 75, 64
2, 363256, Note_on_c, 0, 75, 84
2, 363257, Note_on_c, 0, 70, 76
2, 363257, Note_on_c, 0, 66, 82
2, 363261, Note_on_c, 0, 64, 75
2, 363261, Note_on_c, 0, 54, 64
2, 363280, Note_off_c, 0, 64, 64
2, 363285, Note_off_c, 0, 54, 64
2, 363313, Note_on_c, 0, 76, 88
2, 363314, Note_off_c, 0, 75, 64
2, 363329, Note_off_c, 0, 70, 64
2, 363343, Note_off_c, 0, 66, 64
2, 363351, Note_off_c, 0, 76, 64
2, 363367, Control_c, 0, 64, 0
2, 363383, Note_on_c, 0, 76, 88
2, 363387, Note_on_c, 0, 71, 68
2, 363387, Note_on_c, 0, 54, 68
2, 363388, Note_on_c, 0, 66, 72
2, 363388, Note_on_c, 0, 42, 69
2, 363401, Control_c, 0, 64, 127
2, 363416, Note_off_c, 0, 42, 64
2, 363422, Note_off_c, 0, 54, 64
2, 363441, Note_off_c, 0, 76, 64
2, 363443, Note_on_c, 0, 75, 81
2, 363452, Note_off_c, 0, 71, 64
2, 363467, Note_off_c, 0, 66, 64
2, 363472, Note_off_c, 0, 75, 64
2, 363504, Note_on_c, 0, 71, 73
2, 363506, Note_on_c, 0, 66, 69
2, 363510, Note_on_c, 0, 63, 80
2, 363511, Note_on_c, 0, 75, 84
2, 363516, Note_on_c, 0, 54, 53
2, 363528, Note_off_c, 0, 63, 64
2, 363532, Note_off_c, 0, 54, 64
2, 363549, Note_off_c, 0, 66, 64
2, 363567, Note_on_c, 0, 80, 84
2, 363572, Note_off_c, 0, 75, 64
2, 363575, Note_off_c, 0, 71, 64
2, 363606, Note_off_c, 0, 80, 64
2, 363613, Control_c, 0, 64, 0
2, 363634, Note_on_c, 0, 80, 88
2, 363634, Note_on_c, 0, 66, 68
2, 363634, Note_on_c, 0, 42, 66
2, 363637, Note_on_c, 0, 71, 71
2, 363640, Note_on_c, 0, 54, 62
2, 363649, Control_c, 0, 64, 127
2, 363663, Note_off_c, 0, 42, 64
2, 363681, Note_off_c, 0, 54, 64
2, 363688, Note_off_c, 0, 80, 64
2, 363691, Note_off_c, 0, 71, 64
2, 363691, Note_on_c, 0, 78, 76
2, 363716, Note_off_c, 0, 66, 64
2, 363718, Note_off_c, 0, 78, 64
2, 363756, Note_on_c, 0, 54, 63
2, 363758, Note_on_c, 0, 78, 96
2, 363758, Note_on_c, 0, 70, 79
2, 363758, Note_on_c, 0, 64, 61
2, 363761, Note_on_c, 0, 66, 80
2, 363787, Note_off_c, 0, 54, 64
2, 363793, Note_off_c, 0, 64, 64
2, 363815, Note_off_c, 0, 78, 64
2, 363817, Note_on_c, 0, 73, 67
2, 363820, Note_off_c, 0, 70, 64
2, 363823, Note_off_c, 0, 66, 64
2, 363847, Note_off_c, 0, 73, 64
2, 363869, Control_c, 0, 64, 0
2, 363880, Note_on_c, 0, 54, 63
2, 363881, Note_on_c, 0, 73, 90
2, 363881, Note_on_c, 0, 42, 65
2, 363884, Note_on_c, 0, 70, 77
2, 363886, Note_on_c, 0, 64, 80
2, 363903, Note_off_c, 0, 42, 64
2, 363908, Control_c, 0, 64, 127
2, 363914, Note_off_c, 0, 54, 64
2, 363937, Note_on_c, 0, 75, 76
2, 363948, Note_off_c, 0, 70, 64
2, 363950, Note_off_c, 0, 64, 64
2, 363960, Note_off_c, 0, 73, 64
2, 363972, Note_off_c, 0, 75, 64
2, 364004, Note_on_c, 0, 75, 79
2, 364004, Note_on_c, 0, 61, 64
2, 364007, Note_on_c, 0, 70, 72
2, 364007, Note_on_c, 0, 64, 67
2, 364013, Note_on_c, 0, 54, 31
2, 364046, Note_off_c, 0, 64, 64
2, 364046, Note_off_c, 0, 61, 64
2, 364060, Note_off_c, 0, 54, 64
2, 364063, Note_off_c, 0, 75, 64
2, 364065, Note_on_c, 0, 76, 72
2, 364068, Note_off_c, 0, 70, 64
2, 364093, Note_off_c, 0, 76, 64
2, 364128, Note_on_c, 0, 76, 72
2, 364128, Note_on_c, 0, 64, 74
2, 364128, Note_on_c, 0, 47, 65
2, 364133, Note_on_c, 0, 71, 65
2, 364133, Note_on_c, 0, 54, 63
2, 364169, Note_off_c, 0, 47, 64
2, 364176, Note_off_c, 0, 64, 64
2, 364179, Note_off_c, 0, 76, 64
2, 364181, Note_off_c, 0, 71, 64
2, 364184, Note_on_c, 0, 75, 75
2, 364192, Note_off_c, 0, 54, 64
2, 364213, Note_off_c, 0, 75, 64
2, 364252, Note_on_c, 0, 63, 72
2, 364254, Note_on_c, 0, 54, 64
2, 364254, Note_on_c, 0, 47, 64
2, 364256, Note_on_c, 0, 75, 80
2, 364257, Note_on_c, 0, 59, 64
2, 364297, Note_off_c, 0, 63, 64
2, 364304, Note_off_c, 0, 75, 64
2, 364308, Note_on_c, 0, 71, 83
2, 364330, Note_off_c, 0, 59, 64
2, 364335, Note_off_c, 0, 47, 64
2, 364336, Note_off_c, 0, 54, 64
2, 364345, Note_off_c, 0, 71, 64
2, 364361, Control_c, 0, 64, 0
2, 364372, Note_on_c, 0, 59, 65
2, 364375, Note_on_c, 0, 71, 79
2, 364375, Note_on_c, 0, 64, 72
2, 364375, Note_on_c, 0, 55, 66
2, 364379, Note_on_c, 0, 47, 64
2, 364396, Control_c, 0, 64, 127
2, 364429, Note_on_c, 0, 67, 70
2, 364434, Note_off_c, 0, 71, 64
2, 364444, Note_off_c, 0, 64, 64
2, 364446, Note_off_c, 0, 47, 64
2, 364448, Note_off_c, 0, 59, 64
2, 364449, Note_off_c, 0, 55, 64
2, 364455, Note_off_c, 0, 67, 64
2, 364496, Note_on_c, 0, 67, 71
2, 364497, Note_on_c, 0, 59, 56
2, 364499, Note_on_c, 0, 47, 59
2, 364501, Note_on_c, 0, 54, 64
2, 364502, Note_on_c, 0, 64, 71
2, 364530, Note_off_c, 0, 64, 64
2, 364557, Note_off_c, 0, 47, 64
2, 364559, Note_on_c, 0, 66, 79
2, 364564, Note_off_c, 0, 67, 64
2, 364568, Note_off_c, 0, 54, 64
2, 364569, Note_off_c, 0, 59, 64
2, 364588, Note_off_c, 0, 66, 64
2, 364608, Control_c, 0, 64, 0
2, 364621, Note_on_c, 0, 63, 72
2, 364623, Note_on_c, 0, 59, 52
2, 364624, Note_on_c, 0, 66, 77
2, 364624, Note_on_c, 0, 54, 51
2, 364624, Note_on_c, 0, 47, 58
2, 364643, Control_c, 0, 64, 127
2, 364673, Note_off_c, 0, 47, 64
2, 364675, Note_on_c, 0, 71, 72
2, 364688, Note_off_c, 0, 66, 64
2, 364694, Note_off_c, 0, 54, 64
2, 364697, Note_off_c, 0, 63, 64
2, 364707, Note_off_c, 0, 59, 64
2, 364709, Note_off_c, 0, 71, 64
2, 364739, Note_on_c, 0, 71, 69
2, 364740, Note_on_c, 0, 64, 60
2, 364744, Note_on_c, 0, 59, 53
2, 364744, Note_on_c, 0, 55, 56
2, 364744, Note_on_c, 0, 47, 55
2, 364784, Note_off_c, 0, 47, 64
2, 364799, Note_on_c, 0, 67, 66
2, 364803, Note_off_c, 0, 55, 64
2, 364807, Note_off_c, 0, 64, 64
2, 364807, Note_off_c, 0, 71, 64
2, 364811, Note_off_c, 0, 59, 64
2, 364837, Note_off_c, 0, 67, 64
2, 364842, Control_c, 0, 64, 0
2, 364858, Note_on_c, 0, 66, 70
2, 364860, Note_on_c, 0, 54, 49
2, 364862, Note_on_c, 0, 63, 71
2, 364862, Note_on_c, 0, 59, 52
2, 364862, Note_on_c, 0, 47, 50
2, 364876, Control_c, 0, 64, 127
2, 364917, Note_off_c, 0, 47, 64
2, 364917, Note_on_c, 0, 71, 64
2, 364928, Note_off_c, 0, 66, 64
2, 364932, Note_off_c, 0, 54, 64
2, 364933, Note_off_c, 0, 63, 64
2, 364939, Note_off_c, 0, 59, 64
2, 364950, Note_off_c, 0, 71, 64
2, 364970, Control_c, 0, 64, 0
2, 364972, Note_on_c, 0, 64, 60
2, 364977, Note_on_c, 0, 71, 65
2, 364979, Note_on_c, 0, 59, 53
2, 364979, Note_on_c, 0, 55, 50
2, 364979, Note_on_c, 0, 52, 51
2, 365007, Control_c, 0, 64, 127
2, 365031, Note_on_c, 0, 67, 63
2, 365035, Note_off_c, 0, 64, 64
2, 365039, Note_off_c, 0, 52, 64
2, 365042, Note_off_c, 0, 71, 64
2, 365045, Note_off_c, 0, 55, 64
2, 365057, Note_off_c, 0, 59, 64
2, 365074, Note_off_c, 0, 67, 64
2, 365095, Note_on_c, 0, 59, 48
2, 365095, Note_on_c, 0, 54, 46
2, 365097, Note_on_c, 0, 66, 61
2, 365100, Note_on_c, 0, 62, 59
2, 365101, Note_on_c, 0, 47, 47
2, 365148, Note_off_c, 0, 47, 64
2, 365153, Note_on_c, 0, 71, 62
2, 365166, Note_off_c, 0, 54, 64
2, 365167, Note_off_c, 0, 66, 64
2, 365170, Note_off_c, 0, 62, 64
2, 365170, Note_off_c, 0, 59, 64
2, 365188, Note_off_c, 0, 71, 64
2, 365202, Control_c, 0, 64, 0
2, 365213, Note_on_c, 0, 71, 61
2, 365216, Note_on_c, 0, 59, 48
2, 365216, Note_on_c, 0, 55, 49
2, 365216, Note_on_c, 0, 52, 47
2, 365218, Note_on_c, 0, 64, 61
2, 365246, Control_c, 0, 64, 127
2, 365275, Note_on_c, 0, 67, 63
2, 365280, Note_off_c, 0, 52, 64
2, 365284, Note_off_c, 0, 55, 64
2, 365288, Note_off_c, 0, 71, 64
2, 365298, Note_off_c, 0, 67, 64
2, 365298, Note_off_c, 0, 64, 64
2, 365305, Note_off_c, 0, 59, 64
2, 365337, Note_on_c, 0, 62, 54
2, 365339, Note_on_c, 0, 66, 74
2, 365339, Note_on_c, 0, 59, 44
2, 365339, Note_on_c, 0, 54, 40
2, 365344, Note_on_c, 0, 47, 38
2, 365394, Note_on_c, 0, 71, 66
2, 365403, Note_off_c, 0, 62, 64
2, 365405, Note_off_c, 0, 66, 64
2, 365417, Note_off_c, 0, 54, 64
2, 365427, Note_off_c, 0, 59, 64
2, 365430, Note_off_c, 0, 71, 64
2, 365440, Note_off_c, 0, 47, 64
2, 365459, Note_on_c, 0, 71, 63
2, 365459, Note_on_c, 0, 59, 53
2, 365464, Note_on_c, 0, 64, 60
2, 365464, Note_on_c, 0, 55, 54
2, 365464, Note_on_c, 0, 52, 45
2, 365521, Note_on_c, 0, 67, 65
2, 365524, Note_off_c, 0, 52, 64
2, 365525, Note_off_c, 0, 55, 64
2, 365533, Note_off_c, 0, 59, 64
2, 365533, Note_off_c, 0, 71, 64
2, 365535, Control_c, 0, 64, 0
2, 365538, Note_off_c, 0, 64, 64
2, 365545, Note_off_c, 0, 67, 64
2, 365576, Note_on_c, 0, 67, 101
2, 365580, Note_on_c, 0, 71, 81
2, 365580, Note_on_c, 0, 64, 80
2, 365584, Note_on_c, 0, 54, 80
2, 365587, Note_on_c, 0, 59, 80
2, 365587, Note_on_c, 0, 47, 80
2, 365601, Control_c, 0, 64, 127
2, 365603, Note_off_c, 0, 59, 64
2, 365607, Note_off_c, 0, 54, 64
2, 365612, Note_off_c, 0, 47, 64
2, 365621, Note_off_c, 0, 67, 64
2, 365625, Note_off_c, 0, 64, 64
2, 365640, Note_on_c, 0, 66, 92
2, 365640, Note_on_c, 0, 62, 68
2, 365686, Note_off_c, 0, 62, 64
2, 365686, Note_off_c, 0, 66, 64
2, 365692, Note_on_c, 0, 67, 91
2, 365704, Note_on_c, 0, 35, 64
2, 365714, Note_on_c, 0, 47, 78
2, 365716, Note_on_c, 0, 66, 73
2, 365716, Note_on_c, 0, 62, 64
2, 365732, Note_off_c, 0, 67, 64
2, 365734, Note_off_c, 0, 35, 64
2, 365737, Note_off_c, 0, 47, 64
2, 365772, Note_on_c, 0, 64, 60
2, 365772, Note_on_c, 0, 61, 64
2, 365776, Note_off_c, 0, 62, 64
2, 365776, Note_off_c, 0, 66, 64
2, 365816, Note_off_c, 0, 61, 64
2, 365816, Note_off_c, 0, 64, 64
2, 365824, Note_on_c, 0, 47, 65
2, 365826, Note_on_c, 0, 66, 84
2, 365828, Note_on_c, 0, 62, 80
2, 365829, Note_on_c, 0, 54, 78
2, 365869, Note_off_c, 0, 66, 64
2, 365876, Note_off_c, 0, 62, 64
2, 365881, Note_off_c, 0, 54, 64
2, 365927, Control_c, 0, 64, 0
2, 365942, Note_on_c, 0, 71, 88
2, 365944, Note_on_c, 0, 67, 86
2, 365944, Note_on_c, 0, 54, 80
2, 365947, Note_on_c, 0, 64, 80
2, 365947, Note_on_c, 0, 59, 80
2, 365962, Control_c, 0, 64, 127
2, 365968, Note_off_c, 0, 59, 64
2, 365978, Note_off_c, 0, 54, 64
2, 365989, Note_off_c, 0, 67, 64
2, 365992, Note_off_c, 0, 64, 64
2, 366000, Note_on_c, 0, 62, 64
2, 366001, Note_on_c, 0, 66, 81
2, 366022, Note_off_c, 0, 47, 64
2, 366040, Note_on_c, 0, 67, 96
2, 366041, Note_off_c, 0, 62, 64
2, 366042, Note_off_c, 0, 66, 64
2, 366056, Note_on_c, 0, 62, 86
2, 366062, Note_on_c, 0, 66, 99
2, 366062, Note_on_c, 0, 47, 60
2, 366064, Note_on_c, 0, 35, 64
2, 366080, Note_off_c, 0, 67, 64
2, 366092, Note_off_c, 0, 47, 64
2, 366094, Note_off_c, 0, 35, 64
2, 366094, Note_off_c, 0, 62, 64
2, 366100, Note_off_c, 0, 66, 64
2, 366120, Note_on_c, 0, 64, 71
2, 366123, Note_on_c, 0, 61, 82
2, 366174, Note_off_c, 0, 61, 64
2, 366178, Note_on_c, 0, 54, 62
2, 366180, Note_off_c, 0, 64, 64
2, 366180, Note_on_c, 0, 66, 80
2, 366180, Note_on_c, 0, 59, 56
2, 366181, Note_on_c, 0, 62, 84
2, 366185, Note_on_c, 0, 47, 58
2, 366201, Note_off_c, 0, 59, 64
2, 366207, Note_off_c, 0, 71, 64
2, 366215, Note_off_c, 0, 71, 64
2, 366220, Note_off_c, 0, 54, 64
2, 366225, Note_off_c, 0, 66, 64
2, 366238, Note_off_c, 0, 47, 64
2, 366238, Note_off_c, 0, 62, 64
2, 366287, Control_c, 0, 64, 0
2, 366288, Note_on_c, 0, 59, 69
2, 366296, Note_on_c, 0, 52, 74
2, 366300, Note_on_c, 0, 62, 68
2, 366301, Note_on_c, 0, 68, 84
2, 366303, Note_on_c, 0, 71, 84
2, 366310, Note_off_c, 0, 59, 64
2, 366321, Note_off_c, 0, 52, 64
2, 366324, Control_c, 0, 64, 127
2, 366357, Note_on_c, 0, 64, 61
2, 366359, Note_on_c, 0, 72, 88
2, 366365, Note_off_c, 0, 62, 64
2, 366369, Note_off_c, 0, 71, 64
2, 366373, Note_off_c, 0, 68, 64
2, 366381, Note_off_c, 0, 64, 64
2, 366391, Note_off_c, 0, 72, 64
2, 366422, Note_on_c, 0, 72, 96
2, 366422, Note_on_c, 0, 64, 68
2, 366426, Note_on_c, 0, 68, 96
2, 366427, Note_on_c, 0, 52, 76
2, 366428, Note_on_c, 0, 40, 69
2, 366449, Note_off_c, 0, 40, 64
2, 366455, Note_off_c, 0, 52, 64
2, 366457, Note_off_c, 0, 64, 64
2, 366459, Note_off_c, 0, 68, 64
2, 366476, Note_on_c, 0, 62, 64
2, 366479, Note_on_c, 0, 71, 80
2, 366483, Note_off_c, 0, 72, 64
2, 366513, Note_off_c, 0, 62, 64
2, 366516, Note_off_c, 0, 71, 64
2, 366543, Note_on_c, 0, 71, 81
2, 366544, Note_on_c, 0, 68, 92
2, 366547, Note_on_c, 0, 62, 80
2, 366547, Note_on_c, 0, 59, 71
2, 366547, Note_on_c, 0, 52, 75
2, 366578, Note_off_c, 0, 52, 64
2, 366584, Note_off_c, 0, 68, 64
2, 366587, Note_off_c, 0, 59, 64
2, 366587, Note_off_c, 0, 62, 64
2, 366599, Note_on_c, 0, 72, 89
2, 366601, Note_on_c, 0, 64, 73
2, 366611, Note_off_c, 0, 71, 64
2, 366622, Note_off_c, 0, 72, 64
2, 366623, Note_off_c, 0, 64, 64
2, 366650, Control_c, 0, 64, 0
2, 366671, Note_on_c, 0, 69, 78
2, 366672, Note_on_c, 0, 65, 88
2, 366674, Note_on_c, 0, 62, 92
2, 366674, Note_on_c, 0, 57, 80
2, 366677, Note_on_c, 0, 52, 80
2, 366680, Note_on_c, 0, 45, 80
2, 366693, Control_c, 0, 64, 127
2, 366721, Note_off_c, 0, 57, 64
2, 366723, Note_off_c, 0, 65, 64
2, 366724, Note_off_c, 0, 45, 64
2, 366733, Note_off_c, 0, 52, 64
2, 366733, Note_on_c, 0, 64, 78
2, 366733, Note_on_c, 0, 60, 78
2, 366736, Note_off_c, 0, 62, 64
2, 366760, Note_off_c, 0, 64, 64
2, 366772, Note_on_c, 0, 65, 98
2, 366774, Note_off_c, 0, 60, 64
2, 366797, Note_on_c, 0, 64, 84
2, 366798, Note_on_c, 0, 60, 78
2, 366802, Note_on_c, 0, 45, 69
2, 366808, Note_on_c, 0, 33, 64
2, 366822, Note_off_c, 0, 65, 64
2, 366838, Note_off_c, 0, 33, 64
2, 366842, Note_off_c, 0, 64, 64
2, 366843, Note_off_c, 0, 60, 64
2, 366844, Note_off_c, 0, 45, 64
2, 366852, Note_on_c, 0, 59, 80
2, 366853, Note_on_c, 0, 62, 88
2, 366893, Note_off_c, 0, 59, 64
2, 366894, Note_off_c, 0, 62, 64
2, 366911, Note_on_c, 0, 64, 73
2, 366913, Note_on_c, 0, 52, 73
2, 366915, Note_on_c, 0, 60, 82
2, 366920, Note_on_c, 0, 45, 64
2, 366951, Note_off_c, 0, 52, 64
2, 366988, Note_off_c, 0, 64, 64
2, 366992, Note_off_c, 0, 60, 64
2, 366999, Control_c, 0, 64, 0
2, 367000, Note_off_c, 0, 69, 64
2, 367031, Note_on_c, 0, 69, 76
2, 367032, Note_on_c, 0, 52, 80
2, 367034, Note_on_c, 0, 65, 87
2, 367034, Note_on_c, 0, 62, 92
2, 367037, Note_on_c, 0, 57, 80
2, 367046, Control_c, 0, 64, 127
2, 367062, Note_off_c, 0, 52, 64
2, 367078, Note_off_c, 0, 57, 64
2, 367084, Note_off_c, 0, 65, 64
2, 367087, Note_off_c, 0, 62, 64
2, 367093, Note_on_c, 0, 64, 78
2, 367096, Note_on_c, 0, 60, 74
2, 367105, Note_off_c, 0, 45, 64
2, 367152, Note_off_c, 0, 64, 64
2, 367152, Note_on_c, 0, 65, 109
2, 367155, Note_off_c, 0, 60, 64
2, 367168, Note_on_c, 0, 64, 73
2, 367168, Note_on_c, 0, 60, 73
2, 367176, Note_on_c, 0, 45, 64
2, 367176, Note_on_c, 0, 33, 64
2, 367202, Note_off_c, 0, 65, 64
2, 367206, Note_off_c, 0, 33, 64
2, 367206, Note_off_c, 0, 45, 64
2, 367212, Note_on_c, 0, 62, 73
2, 367215, Note_off_c, 0, 64, 64
2, 367216, Note_off_c, 0, 60, 64
2, 367216, Note_on_c, 0, 59, 64
2, 367256, Note_on_c, 0, 52, 64
2, 367256, Note_on_c, 0, 45, 64
2, 367268, Note_on_c, 0, 64, 73
2, 367268, Note_on_c, 0, 60, 73
2, 367272, Note_off_c, 0, 62, 64
2, 367276, Note_off_c, 0, 59, 64
2, 367286, Note_off_c, 0, 52, 64
2, 367328, Note_off_c, 0, 60, 64
2, 367328, Note_off_c, 0, 64, 64
2, 367381, Control_c, 0, 64, 0
2, 367386, Note_on_c, 0, 65, 88
2, 367386, Note_on_c, 0, 62, 94
2, 367389, Note_on_c, 0, 57, 80
2, 367392, Note_on_c, 0, 52, 80
2, 367418, Control_c, 0, 64, 127
2, 367422, Note_off_c, 0, 52, 64
2, 367427, Note_off_c, 0, 65, 64
2, 367433, Note_off_c, 0, 57, 64
2, 367433, Note_on_c, 0, 64, 76
2, 367434, Note_off_c, 0, 62, 64
2, 367440, Note_on_c, 0, 60, 84
2, 367441, Note_off_c, 0, 45, 64
2, 367462, Note_off_c, 0, 60, 64
2, 367463, Note_off_c, 0, 64, 64
2, 367476, Note_on_c, 0, 65, 97
2, 367499, Note_on_c, 0, 64, 89
2, 367499, Note_on_c, 0, 45, 60
2, 367501, Note_on_c, 0, 60, 88
2, 367504, Note_on_c, 0, 33, 64
2, 367526, Note_off_c, 0, 65, 64
2, 367530, Note_off_c, 0, 60, 64
2, 367534, Note_off_c, 0, 33, 64
2, 367541, Note_off_c, 0, 45, 64
2, 367542, Note_off_c, 0, 64, 64
2, 367552, Note_on_c, 0, 62, 84
2, 367553, Note_on_c, 0, 59, 78
2, 367576, Note_off_c, 0, 59, 64
2, 367588, Note_off_c, 0, 62, 64
2, 367609, Note_on_c, 0, 64, 82
2, 367611, Note_on_c, 0, 52, 75
2, 367613, Note_on_c, 0, 60, 87
2, 367616, Note_on_c, 0, 45, 64
2, 367632, Note_off_c, 0, 60, 64
2, 367635, Note_off_c, 0, 64, 64
2, 367646, Note_off_c, 0, 45, 64
2, 367656, Note_off_c, 0, 52, 64
2, 367661, Note_off_c, 0, 69, 64
2, 367694, Control_c, 0, 64, 0
2, 367732, Note_on_c, 0, 66, 76
2, 367736, Note_on_c, 0, 69, 75
2, 367736, Note_on_c, 0, 60, 78
2, 367736, Note_on_c, 0, 57, 69
2, 367737, Note_on_c, 0, 50, 76
2, 367750, Control_c, 0, 64, 127
2, 367760, Note_off_c, 0, 57, 64
2, 367765, Note_off_c, 0, 50, 64
2, 367780, Note_off_c, 0, 60, 64
2, 367791, Note_on_c, 0, 71, 76
2, 367792, Note_on_c, 0, 62, 74
2, 367799, Note_off_c, 0, 69, 64
2, 367810, Note_off_c, 0, 66, 64
2, 367815, Note_off_c, 0, 62, 64
2, 367825, Note_off_c, 0, 71, 64
2, 367855, Note_on_c, 0, 71, 80
2, 367855, Note_on_c, 0, 62, 81
2, 367855, Note_on_c, 0, 50, 78
2, 367857, Note_on_c, 0, 66, 84
2, 367860, Note_on_c, 0, 38, 82
2, 367878, Note_off_c, 0, 50, 64
2, 367879, Note_off_c, 0, 62, 64
2, 367885, Note_off_c, 0, 66, 64
2, 367902, Note_off_c, 0, 38, 64
2, 367909, Note_off_c, 0, 71, 64
2, 367913, Note_on_c, 0, 69, 71
2, 367913, Note_on_c, 0, 60, 76
2, 367934, Note_off_c, 0, 60, 64
2, 367953, Note_off_c, 0, 69, 64
2, 367973, Note_on_c, 0, 60, 80
2, 367973, Note_on_c, 0, 50, 77
2, 367977, Note_on_c, 0, 66, 76
2, 367978, Note_on_c, 0, 57, 84
2, 367979, Note_on_c, 0, 69, 68
2, 368009, Note_off_c, 0, 50, 64
2, 368012, Note_off_c, 0, 57, 64
2, 368023, Note_off_c, 0, 69, 64
2, 368023, Note_off_c, 0, 60, 64
2, 368026, Note_off_c, 0, 66, 64
2, 368029, Note_on_c, 0, 71, 66
2, 368055, Note_off_c, 0, 71, 64
2, 368086, Control_c, 0, 64, 0
2, 368088, Note_on_c, 0, 43, 72
2, 368091, Note_on_c, 0, 50, 72
2, 368093, Note_on_c, 0, 55, 72
2, 368095, Note_on_c, 0, 67, 78
2, 368095, Note_on_c, 0, 64, 76
2, 368095, Note_on_c, 0, 60, 84
2, 368125, Control_c, 0, 64, 127
2, 368133, Note_off_c, 0, 43, 64
2, 368137, Note_off_c, 0, 55, 64
2, 368138, Note_off_c, 0, 50, 64
2, 368150, Note_off_c, 0, 60, 64
2, 368154, Note_on_c, 0, 59, 84
2, 368155, Note_off_c, 0, 64, 64
2, 368155, Note_on_c, 0, 62, 69
2, 368179, Note_off_c, 0, 59, 64
2, 368180, Note_off_c, 0, 62, 64
2, 368184, Note_on_c, 0, 64, 78
2, 368208, Note_on_c, 0, 31, 64
2, 368210, Note_on_c, 0, 62, 86
2, 368214, Note_on_c, 0, 43, 73
2, 368216, Note_on_c, 0, 59, 92
2, 368226, Note_off_c, 0, 64, 64
2, 368249, Note_off_c, 0, 62, 64
2, 368249, Note_off_c, 0, 31, 64
2, 368255, Note_off_c, 0, 59, 64
2, 368256, Note_off_c, 0, 43, 64
2, 368268, Note_on_c, 0, 60, 93
2, 368268, Note_on_c, 0, 57, 94
2, 368297, Note_off_c, 0, 57, 64
2, 368297, Note_off_c, 0, 60, 64
2, 368299, Control_c, 0, 64, 0
2, 368328, Note_on_c, 0, 62, 80
2, 368328, Note_on_c, 0, 59, 75
2, 368329, Note_on_c, 0, 43, 71
2, 368333, Note_on_c, 0, 55, 69
2, 368341, Control_c, 0, 64, 127
2, 368353, Note_off_c, 0, 59, 64
2, 368358, Note_off_c, 0, 43, 64
2, 368362, Note_off_c, 0, 62, 64
2, 368370, Note_off_c, 0, 55, 64
2, 368430, Note_off_c, 0, 67, 64
2, 368443, Control_c, 0, 64, 0
2, 368452, Note_on_c, 0, 67, 57
2, 368453, Note_on_c, 0, 64, 43
2, 368456, Note_on_c, 0, 55, 41
2, 368459, Note_on_c, 0, 48, 17
2, 368478, Control_c, 0, 64, 127
2, 368505, Note_on_c, 0, 69, 57
2, 368516, Note_off_c, 0, 67, 64
2, 368525, Note_off_c, 0, 48, 64
2, 368526, Note_off_c, 0, 55, 64
2, 368530, Note_off_c, 0, 64, 64
2, 368532, Note_off_c, 0, 69, 64
2, 368564, Note_on_c, 0, 64, 40
2, 368567, Note_on_c, 0, 60, 44
2, 368567, Note_on_c, 0, 48, 45
2, 368569, Note_on_c, 0, 69, 58
2, 368569, Note_on_c, 0, 55, 35
2, 368614, Note_off_c, 0, 48, 64
2, 368616, Note_off_c, 0, 55, 64
2, 368618, Note_off_c, 0, 60, 64
2, 368624, Note_on_c, 0, 71, 55
2, 368632, Note_off_c, 0, 64, 64
2, 368635, Note_off_c, 0, 69, 64
2, 368649, Note_off_c, 0, 71, 64
2, 368684, Note_on_c, 0, 71, 61
2, 368687, Note_on_c, 0, 60, 48
2, 368688, Note_on_c, 0, 64, 37
2, 368688, Note_on_c, 0, 55, 48
2, 368688, Note_on_c, 0, 48, 47
2, 368732, Note_off_c, 0, 48, 64
2, 368738, Note_on_c, 0, 72, 64
2, 368743, Note_off_c, 0, 55, 64
2, 368745, Note_off_c, 0, 60, 64
2, 368749, Note_off_c, 0, 71, 64
2, 368757, Note_off_c, 0, 64, 64
2, 368764, Note_off_c, 0, 72, 64
2, 368779, Control_c, 0, 64, 0
2, 368792, Note_on_c, 0, 64, 49
2, 368796, Note_on_c, 0, 72, 67
2, 368798, Note_on_c, 0, 60, 52
2, 368802, Note_on_c, 0, 55, 50
2, 368802, Note_on_c, 0, 48, 51
2, 368824, Control_c, 0, 64, 127
2, 368846, Note_off_c, 0, 48, 64
2, 368846, Note_off_c, 0, 60, 64
2, 368851, Note_off_c, 0, 55, 64
2, 368851, Note_on_c, 0, 74, 62
2, 368861, Note_off_c, 0, 64, 64
2, 368865, Note_off_c, 0, 72, 64
2, 368874, Note_off_c, 0, 74, 64
2, 368904, Note_on_c, 0, 48, 48
2, 368906, Note_on_c, 0, 54, 55
2, 368907, Note_on_c, 0, 60, 56
2, 368908, Note_on_c, 0, 69, 75
2, 368908, Note_on_c, 0, 64, 58
2, 368912, Note_on_c, 0, 74, 71
2, 368968, Note_on_c, 0, 76, 72
2, 368971, Note_off_c, 0, 74, 64
2, 368974, Note_off_c, 0, 69, 64
2, 368982, Note_off_c, 0, 48, 64
2, 368984, Note_off_c, 0, 64, 64
2, 368989, Note_off_c, 0, 54, 64
2, 368998, Note_off_c, 0, 76, 64
2, 368998, Note_off_c, 0, 60, 64
2, 369006, Control_c, 0, 64, 0
2, 369024, Note_on_c, 0, 64, 63
2, 369027, Note_on_c, 0, 54, 53
2, 369031, Note_on_c, 0, 76, 80
2, 369031, Note_on_c, 0, 69, 72
2, 369031, Note_on_c, 0, 59, 62
2, 369033, Note_on_c, 0, 47, 55
2, 369048, Control_c, 0, 64, 127
2, 369078, Note_off_c, 0, 76, 64
2, 369088, Note_on_c, 0, 75, 76
2, 369092, Note_off_c, 0, 69, 64
2, 369099, Note_off_c, 0, 47, 64
2, 369100, Note_off_c, 0, 64, 64
2, 369102, Note_off_c, 0, 54, 64
2, 369103, Note_off_c, 0, 59, 64
2, 369114, Note_off_c, 0, 75, 64
2, 369148, Note_on_c, 0, 52, 31
2, 369150, Note_on_c, 0, 67, 57
2, 369150, Note_on_c, 0, 64, 45
2, 369150, Note_on_c, 0, 59, 39
2, 369199, Note_on_c, 0, 69, 51
2, 369210, Note_off_c, 0, 67, 64
2, 369217, Note_off_c, 0, 64, 64
2, 369224, Note_off_c, 0, 59, 64
2, 369225, Note_off_c, 0, 69, 64
2, 369228, Note_off_c, 0, 52, 64
2, 369255, Control_c, 0, 64, 0
2, 369265, Note_on_c, 0, 60, 41
2, 369266, Note_on_c, 0, 64, 44
2, 369266, Note_on_c, 0, 55, 36
2, 369270, Note_on_c, 0, 69, 60
2, 369270, Note_on_c, 0, 48, 42
2, 369289, Control_c, 0, 64, 127
2, 369324, Note_on_c, 0, 71, 49
2, 369331, Note_off_c, 0, 69, 64
2, 369340, Note_off_c, 0, 64, 64
2, 369349, Note_off_c, 0, 71, 64
2, 369356, Note_off_c, 0, 48, 64
2, 369356, Note_off_c, 0, 55, 64
2, 369360, Note_off_c, 0, 60, 64
2, 369387, Note_on_c, 0, 71, 53
2, 369387, Note_on_c, 0, 60, 47
2, 369390, Note_on_c, 0, 64, 40
2, 369390, Note_on_c, 0, 55, 42
2, 369393, Note_on_c, 0, 48, 38
2, 369448, Note_on_c, 0, 72, 54
2, 369458, Note_off_c, 0, 71, 64
2, 369468, Note_off_c, 0, 48, 64
2, 369468, Note_off_c, 0, 64, 64
2, 369471, Note_off_c, 0, 55, 64
2, 369474, Note_off_c, 0, 72, 64
2, 369474, Note_off_c, 0, 60, 64
2, 369507, Note_on_c, 0, 72, 64
2, 369508, Note_on_c, 0, 64, 48
2, 369509, Note_on_c, 0, 55, 43
2, 369510, Note_on_c, 0, 60, 48
2, 369515, Note_on_c, 0, 48, 40
2, 369560, Note_off_c, 0, 55, 64
2, 369564, Note_on_c, 0, 74, 54
2, 369567, Note_off_c, 0, 60, 64
2, 369576, Note_off_c, 0, 72, 64
2, 369578, Note_off_c, 0, 64, 64
2, 369580, Note_off_c, 0, 48, 64
2, 369587, Note_off_c, 0, 74, 64
2, 369616, Note_on_c, 0, 69, 51
2, 369618, Note_on_c, 0, 74, 56
2, 369618, Note_on_c, 0, 54, 44
2, 369620, Note_on_c, 0, 64, 48
2, 369620, Note_on_c, 0, 60, 45
2, 369624, Note_on_c, 0, 48, 40
2, 369671, Note_on_c, 0, 76, 63
2, 369676, Note_off_c, 0, 69, 64
2, 369685, Note_off_c, 0, 74, 64
2, 369687, Note_off_c, 0, 64, 64
2, 369696, Note_off_c, 0, 48, 64
2, 369702, Note_off_c, 0, 76, 64
2, 369706, Note_off_c, 0, 60, 64
2, 369738, Note_on_c, 0, 76, 67
2, 369738, Note_on_c, 0, 69, 66
2, 369738, Note_on_c, 0, 59, 52
2, 369738, Note_on_c, 0, 47, 48
2, 369787, Note_on_c, 0, 78, 52
2, 369792, Note_on_c, 0, 75, 60
2, 369799, Note_off_c, 0, 76, 64
2, 369803, Note_off_c, 0, 54, 64
2, 369810, Note_off_c, 0, 69, 64
2, 369829, Note_off_c, 0, 59, 64
2, 369840, Note_off_c, 0, 78, 64
2, 369845, Note_off_c, 0, 75, 64
2, 369845, Control_c, 0, 64, 0
2, 369848, Note_off_c, 0, 47, 64
2, 369852, Note_on_c, 0, 76, 65
2, 369852, Note_on_c, 0, 52, 50
2, 369854, Note_on_c, 0, 59, 54
2, 369855, Note_on_c, 0, 79, 62
2, 369855, Note_on_c, 0, 67, 68
2, 369940, Note_off_c, 0, 67, 64
2, 369944, Note_off_c, 0, 76, 64
2, 369949, Note_off_c, 0, 79, 64
2, 369959, Note_off_c, 0, 59, 64
2, 369974, Note_on_c, 0, 47, 47
2, 369978, Control_c, 0, 64, 127
2, 369983, Note_on_c, 0, 79, 70
2, 369983, Note_on_c, 0, 76, 72
2, 369983, Note_on_c, 0, 69, 75
2, 369983, Note_on_c, 0, 59, 52
2, 369988, Note_off_c, 0, 52, 64
2, 370030, Note_on_c, 0, 78, 60
2, 370034, Note_on_c, 0, 75, 61
2, 370037, Note_off_c, 0, 79, 64
2, 370046, Note_off_c, 0, 69, 64
2, 370048, Note_off_c, 0, 76, 64
2, 370065, Note_off_c, 0, 75, 64
2, 370072, Note_off_c, 0, 78, 64
2, 370078, Note_off_c, 0, 59, 64
2, 370094, Note_on_c, 0, 78, 64
2, 370096, Note_off_c, 0, 47, 64
2, 370096, Note_on_c, 0, 75, 68
2, 370096, Note_on_c, 0, 52, 52
2, 370099, Note_on_c, 0, 67, 68
2, 370099, Note_on_c, 0, 59, 56
2, 370151, Note_off_c, 0, 75, 64
2, 370152, Note_on_c, 0, 79, 62
2, 370152, Note_on_c, 0, 76, 63
2, 370161, Note_off_c, 0, 78, 64
2, 370162, Note_off_c, 0, 67, 64
2, 370176, Note_off_c, 0, 76, 64
2, 370185, Note_off_c, 0, 79, 64
2, 370192, Note_off_c, 0, 59, 64
2, 370196, Control_c, 0, 64, 0
2, 370211, Note_on_c, 0, 79, 69
2, 370211, Note_on_c, 0, 76, 68
2, 370211, Note_on_c, 0, 69, 71
2, 370214, Note_on_c, 0, 59, 56
2, 370214, Note_on_c, 0, 47, 49
2, 370221, Note_off_c, 0, 52, 64
2, 370238, Control_c, 0, 64, 127
2, 370254, Note_off_c, 0, 69, 64
2, 370264, Note_on_c, 0, 78, 62
2, 370265, Note_off_c, 0, 79, 64
2, 370268, Note_on_c, 0, 75, 1
2, 370273, Note_off_c, 0, 76, 64
2, 370292, Note_off_c, 0, 75, 64
2, 370295, Note_off_c, 0, 78, 64
2, 370313, Note_off_c, 0, 59, 64
2, 370320, Note_on_c, 0, 52, 52
2, 370323, Note_off_c, 0, 47, 64
2, 370325, Note_on_c, 0, 59, 53
2, 370326, Note_on_c, 0, 75, 70
2, 370328, Note_on_c, 0, 78, 64
2, 370329, Note_on_c, 0, 67, 68
2, 370366, Note_off_c, 0, 75, 64
2, 370375, Note_off_c, 0, 78, 64
2, 370381, Note_on_c, 0, 79, 69
2, 370384, Note_on_c, 0, 76, 57
2, 370392, Note_off_c, 0, 67, 64
2, 370401, Control_c, 0, 64, 0
2, 370404, Note_off_c, 0, 76, 64
2, 370411, Note_off_c, 0, 79, 64
2, 370411, Note_off_c, 0, 59, 64
2, 370439, Note_on_c, 0, 79, 71
2, 370439, Note_on_c, 0, 76, 68
2, 370439, Note_on_c, 0, 59, 54
2, 370443, Note_on_c, 0, 67, 72
2, 370443, Note_on_c, 0, 47, 55
2, 370447, Note_off_c, 0, 52, 64
2, 370452, Control_c, 0, 64, 127
2, 370466, Note_off_c, 0, 79, 64
2, 370468, Note_off_c, 0, 76, 64
2, 370490, Note_off_c, 0, 67, 64
2, 370496, Note_on_c, 0, 77, 59
2, 370502, Note_on_c, 0, 80, 74
2, 370504, Note_on_c, 0, 68, 72
2, 370510, Note_off_c, 0, 59, 64
2, 370520, Note_off_c, 0, 47, 64
2, 370521, Note_off_c, 0, 77, 64
2, 370523, Note_off_c, 0, 68, 64
2, 370525, Note_off_c, 0, 80, 64
2, 370559, Note_on_c, 0, 47, 68
2, 370560, Note_on_c, 0, 80, 76
2, 370560, Note_on_c, 0, 77, 72
2, 370560, Note_on_c, 0, 68, 75
2, 370560, Note_on_c, 0, 34, 72
2, 370590, Note_off_c, 0, 68, 64
2, 370593, Note_off_c, 0, 80, 64
2, 370596, Note_off_c, 0, 77, 64
2, 370620, Note_on_c, 0, 69, 65
2, 370624, Note_on_c, 0, 81, 60
2, 370628, Note_on_c, 0, 78, 60
2, 370638, Note_off_c, 0, 34, 64
2, 370654, Note_off_c, 0, 78, 64
2, 370655, Note_off_c, 0, 47, 64
2, 370657, Note_off_c, 0, 69, 64
2, 370659, Note_off_c, 0, 81, 64
2, 370680, Note_on_c, 0, 53, 64
2, 370682, Note_on_c, 0, 78, 81
2, 370682, Note_on_c, 0, 69, 71
2, 370682, Note_on_c, 0, 62, 72
2, 370683, Note_on_c, 0, 81, 76
2, 370683, Note_on_c, 0, 59, 65
2, 370709, Note_off_c, 0, 69, 64
2, 370712, Note_off_c, 0, 78, 64
2, 370721, Note_off_c, 0, 81, 64
2, 370732, Note_off_c, 0, 62, 64
2, 370732, Note_on_c, 0, 77, 42
2, 370734, Note_on_c, 0, 68, 80
2, 370735, Note_on_c, 0, 80, 59
2, 370740, Note_off_c, 0, 59, 64
2, 370749, Note_off_c, 0, 53, 64
2, 370755, Note_off_c, 0, 68, 64
2, 370758, Note_off_c, 0, 77, 64
2, 370761, Note_off_c, 0, 80, 64
2, 370790, Note_on_c, 0, 54, 64
2, 370791, Note_on_c, 0, 63, 73
2, 370792, Note_on_c, 0, 77, 74
2, 370792, Note_on_c, 0, 68, 80
2, 370794, Note_on_c, 0, 80, 76
2, 370794, Note_on_c, 0, 59, 71
2, 370801, Control_c, 0, 64, 0
2, 370827, Note_off_c, 0, 77, 64
2, 370828, Note_off_c, 0, 68, 64
2, 370830, Control_c, 0, 64, 127
2, 370837, Note_off_c, 0, 80, 64
2, 370850, Note_on_c, 0, 81, 63
2, 370850, Note_on_c, 0, 78, 67
2, 370852, Note_off_c, 0, 54, 64
2, 370854, Note_on_c, 0, 69, 76
2, 370857, Note_off_c, 0, 59, 64
2, 370859, Note_off_c, 0, 63, 64
2, 370873, Note_off_c, 0, 69, 64
2, 370878, Note_off_c, 0, 78, 64
2, 370880, Note_off_c, 0, 81, 64
2, 370912, Note_on_c, 0, 53, 68
2, 370913, Note_on_c, 0, 81, 82
2, 370913, Note_on_c, 0, 78, 88
2, 370913, Note_on_c, 0, 62, 73
2, 370917, Note_on_c, 0, 69, 83
2, 370917, Note_on_c, 0, 59, 68
2, 370931, Note_off_c, 0, 69, 64
2, 370948, Note_off_c, 0, 78, 64
2, 370953, Note_off_c, 0, 62, 64
2, 370953, Note_off_c, 0, 81, 64
2, 370965, Note_on_c, 0, 68, 86
2, 370969, Note_on_c, 0, 80, 56
2, 370969, Note_on_c, 0, 77, 69
2, 370976, Note_off_c, 0, 59, 64
2, 370980, Note_off_c, 0, 53, 64
2, 370986, Note_off_c, 0, 68, 64
2, 370987, Note_off_c, 0, 77, 64
2, 370991, Note_off_c, 0, 80, 64
2, 371019, Note_on_c, 0, 63, 75
2, 371022, Note_on_c, 0, 54, 68
2, 371024, Note_on_c, 0, 80, 80
2, 371024, Note_on_c, 0, 68, 84
2, 371024, Note_on_c, 0, 59, 71
2, 371027, Note_on_c, 0, 77, 80
2, 371051, Note_off_c, 0, 68, 64
2, 371052, Note_off_c, 0, 77, 64
2, 371062, Note_off_c, 0, 80, 64
2, 371064, Note_off_c, 0, 63, 64
2, 371070, Note_off_c, 0, 54, 64
2, 371071, Note_off_c, 0, 59, 64
2, 371077, Note_on_c, 0, 81, 71
2, 371079, Note_on_c, 0, 69, 69
2, 371080, Note_on_c, 0, 78, 77
2, 371098, Note_off_c, 0, 69, 64
2, 371105, Note_off_c, 0, 78, 64
2, 371107, Note_off_c, 0, 81, 64
2, 371140, Note_on_c, 0, 81, 81
2, 371142, Note_on_c, 0, 78, 93
2, 371142, Note_on_c, 0, 69, 85
2, 371144, Note_on_c, 0, 47, 81
2, 371152, Note_on_c, 0, 35, 64
2, 371161, Note_off_c, 0, 69, 64
2, 371163, Note_off_c, 0, 81, 64
2, 371175, Note_off_c, 0, 78, 64
2, 371196, Note_on_c, 0, 82, 89
2, 371199, Note_on_c, 0, 70, 89
2, 371203, Note_off_c, 0, 47, 64
2, 371215, Note_off_c, 0, 35, 64
2, 371222, Note_off_c, 0, 70, 64
2, 371232, Note_off_c, 0, 82, 64
2, 371259, Control_c, 0, 64, 0
2, 371266, Note_on_c, 0, 82, 86
2, 371266, Note_on_c, 0, 78, 87
2, 371268, Note_on_c, 0, 70, 96
2, 371272, Note_on_c, 0, 34, 75
2, 371274, Note_on_c, 0, 46, 84
2, 371297, Control_c, 0, 64, 127
2, 371337, Note_off_c, 0, 46, 64
2, 371337, Note_off_c, 0, 78, 64
2, 371338, Note_off_c, 0, 34, 64
2, 371339, Note_off_c, 0, 82, 64
2, 371342, Note_off_c, 0, 70, 64
2, 371384, Note_on_c, 0, 82, 86
2, 371388, Note_on_c, 0, 78, 76
2, 371388, Note_on_c, 0, 70, 90
2, 371395, Note_on_c, 0, 63, 77
2, 371400, Note_on_c, 0, 58, 67
2, 371400, Note_on_c, 0, 54, 67
2, 371430, Note_off_c, 0, 78, 64
2, 371437, Note_on_c, 0, 80, 69
2, 371442, Note_on_c, 0, 77, 72
2, 371447, Note_off_c, 0, 63, 64
2, 371460, Note_off_c, 0, 54, 64
2, 371460, Note_off_c, 0, 58, 64
2, 371463, Note_off_c, 0, 77, 64
2, 371463, Note_off_c, 0, 70, 64
2, 371465, Note_off_c, 0, 82, 64
2, 371470, Note_off_c, 0, 80, 64
2, 371492, Note_on_c, 0, 82, 77
2, 371494, Note_on_c, 0, 80, 78
2, 371494, Note_on_c, 0, 66, 78
2, 371494, Note_on_c, 0, 63, 77
2, 371497, Note_on_c, 0, 58, 72
2, 371498, Note_on_c, 0, 77, 79
2, 371498, Note_on_c, 0, 70, 80
2, 371520, Note_off_c, 0, 77, 64
2, 371523, Note_off_c, 0, 70, 64
2, 371527, Note_off_c, 0, 66, 64
2, 371529, Note_off_c, 0, 58, 64
2, 371530, Note_off_c, 0, 63, 64
2, 371530, Note_off_c, 0, 82, 64
2, 371539, Note_off_c, 0, 80, 64
2, 371553, Note_on_c, 0, 70, 68
2, 371555, Note_on_c, 0, 78, 73
2, 371555, Note_on_c, 0, 75, 78
2, 371570, Note_off_c, 0, 70, 64
2, 371574, Note_off_c, 0, 75, 64
2, 371576, Note_off_c, 0, 78, 64
2, 371608, Control_c, 0, 64, 0
2, 371612, Note_on_c, 0, 77, 83
2, 371612, Note_on_c, 0, 70, 86
2, 371616, Note_on_c, 0, 82, 76
2, 371618, Note_on_c, 0, 80, 80
2, 371621, Note_on_c, 0, 58, 83
2, 371621, Note_on_c, 0, 46, 81
2, 371640, Control_c, 0, 64, 127
2, 371648, Note_off_c, 0, 46, 64
2, 371655, Note_off_c, 0, 58, 64
2, 371668, Note_off_c, 0, 82, 64
2, 371670, Note_off_c, 0, 77, 64
2, 371677, Note_off_c, 0, 70, 64
2, 371683, Note_off_c, 0, 80, 64
2, 371747, Note_on_c, 0, 70, 85
2, 371748, Note_on_c, 0, 80, 81
2, 371748, Note_on_c, 0, 77, 85
2, 371752, Note_on_c, 0, 58, 47
2, 371754, Note_on_c, 0, 62, 76
2, 371754, Note_on_c, 0, 53, 56
2, 371777, Note_off_c, 0, 70, 64
2, 371778, Note_off_c, 0, 77, 64
2, 371784, Note_off_c, 0, 53, 64
2, 371786, Note_off_c, 0, 62, 64
2, 371788, Note_off_c, 0, 58, 64
2, 371795, Note_off_c, 0, 80, 64
2, 371808, Note_on_c, 0, 78, 63
2, 371812, Note_on_c, 0, 75, 90
2, 371829, Note_off_c, 0, 75, 64
2, 371830, Note_off_c, 0, 78, 64
2, 371856, Note_on_c, 0, 58, 79
2, 371866, Note_on_c, 0, 82, 79
2, 371868, Note_on_c, 0, 75, 70
2, 371868, Note_on_c, 0, 70, 91
2, 371868, Note_on_c, 0, 68, 82
2, 371868, Note_on_c, 0, 65, 79
2, 371871, Note_on_c, 0, 78, 79
2, 371894, Note_off_c, 0, 58, 64
2, 371900, Note_off_c, 0, 65, 64
2, 371901, Note_off_c, 0, 68, 64
2, 371903, Note_off_c, 0, 75, 64
2, 371905, Note_off_c, 0, 70, 64
2, 371910, Note_off_c, 0, 78, 64
2, 371928, Note_on_c, 0, 77, 83
2, 371932, Note_on_c, 0, 74, 83
2, 371939, Note_off_c, 0, 82, 64
2, 371951, Note_off_c, 0, 74, 64
2, 371951, Note_off_c, 0, 77, 64
2, 371984, Note_on_c, 0, 51, 91
2, 371992, Note_on_c, 0, 75, 82
2, 371992, Note_on_c, 0, 39, 51
2, 371996, Note_on_c, 0, 82, 85
2, 371998, Note_on_c, 0, 78, 84
2, 371998, Note_on_c, 0, 70, 91
2, 372026, Note_off_c, 0, 51, 64
2, 372031, Note_off_c, 0, 39, 64
2, 372053, Note_off_c, 0, 82, 64
2, 372055, Note_off_c, 0, 75, 64
2, 372057, Note_off_c, 0, 78, 64
2, 372064, Note_off_c, 0, 70, 64
2, 372129, Note_on_c, 0, 78, 78
2, 372129, Note_on_c, 0, 58, 80
2, 372131, Note_on_c, 0, 51, 80
2, 372134, Note_on_c, 0, 70, 90
2, 372138, Control_c, 0, 64, 0
2, 372147, Note_off_c, 0, 51, 64
2, 372177, Control_c, 0, 64, 127
2, 372180, Note_off_c, 0, 58, 64
2, 372183, Note_off_c, 0, 70, 64
2, 372196, Note_on_c, 0, 68, 62
2, 372201, Note_on_c, 0, 51, 69
2, 372203, Note_on_c, 0, 77, 68
2, 372208, Note_off_c, 0, 78, 64
2, 372233, Note_off_c, 0, 68, 64
2, 372240, Note_off_c, 0, 77, 64
2, 372272, Note_on_c, 0, 62, 76
2, 372273, Note_on_c, 0, 77, 70
2, 372276, Note_on_c, 0, 68, 95
2, 372337, Note_off_c, 0, 62, 64
2, 372338, Note_on_c, 0, 75, 51
2, 372341, Note_on_c, 0, 67, 73
2, 372342, Note_off_c, 0, 77, 64
2, 372345, Note_off_c, 0, 68, 64
2, 372368, Note_off_c, 0, 67, 64
2, 372373, Note_off_c, 0, 75, 64
2, 372382, Control_c, 0, 64, 0
2, 372408, Note_on_c, 0, 75, 68
2, 372408, Note_on_c, 0, 67, 86
2, 372410, Note_on_c, 0, 63, 77
2, 372419, Control_c, 0, 64, 127
2, 372435, Note_off_c, 0, 63, 64
2, 372450, Note_off_c, 0, 75, 64
2, 372451, Note_off_c, 0, 51, 64
2, 372468, Note_off_c, 0, 67, 64
2, 372542, Note_on_c, 0, 70, 67
2, 372545, Note_on_c, 0, 67, 76
2, 372545, Note_on_c, 0, 51, 65
2, 372545, Note_on_c, 0, 39, 65
2, 372567, Note_off_c, 0, 39, 64
2, 372571, Note_off_c, 0, 51, 64
2, 372610, Note_on_c, 0, 64, 74
2, 372620, Note_off_c, 0, 70, 64
2, 372628, Note_off_c, 0, 67, 64
2, 372643, Note_off_c, 0, 64, 64
2, 372681, Control_c, 0, 64, 0
2, 372684, Note_on_c, 0, 71, 63
2, 372689, Note_on_c, 0, 67, 68
2, 372689, Note_on_c, 0, 64, 72
2, 372689, Note_on_c, 0, 61, 52
2, 372689, Note_on_c, 0, 58, 54
2, 372689, Note_on_c, 0, 51, 62
2, 372718, Control_c, 0, 64, 127
2, 372734, Note_off_c, 0, 61, 64
2, 372741, Note_off_c, 0, 58, 64
2, 372747, Note_off_c, 0, 51, 64
2, 372759, Note_on_c, 0, 63, 61
2, 372761, Note_off_c, 0, 64, 64
2, 372761, Note_off_c, 0, 67, 64
2, 372779, Note_off_c, 0, 71, 64
2, 372782, Note_off_c, 0, 63, 64
2, 372839, Control_c, 0, 64, 0
2, 372841, Note_on_c, 0, 56, 72
2, 372841, Note_on_c, 0, 44, 72
2, 372842, Note_on_c, 0, 63, 86
2, 372849, Note_on_c, 0, 59, 72
2, 372849, Note_on_c, 0, 51, 72
2, 372884, Control_c, 0, 64, 127
2, 372894, Note_off_c, 0, 56, 64
2, 372899, Note_off_c, 0, 51, 64
2, 372901, Note_off_c, 0, 44, 64
2, 372907, Note_on_c, 0, 64, 78
2, 372923, Note_off_c, 0, 63, 64
2, 372934, Note_off_c, 0, 59, 64
2, 372937, Note_off_c, 0, 64, 64
2, 372968, Note_on_c, 0, 32, 62
2, 372975, Note_on_c, 0, 64, 73
2, 372977, Note_on_c, 0, 59, 62
2, 372977, Note_on_c, 0, 44, 75
2, 373010, Note_off_c, 0, 32, 64
2, 373019, Note_off_c, 0, 44, 64
2, 373032, Note_off_c, 0, 64, 64
2, 373041, Note_on_c, 0, 65, 78
2, 373056, Control_c, 0, 64, 0
2, 373065, Note_off_c, 0, 59, 64
2, 373068, Note_off_c, 0, 65, 64
2, 373098, Note_on_c, 0, 39, 75
2, 373100, Note_on_c, 0, 63, 78
2, 373101, Note_on_c, 0, 59, 68
2, 373102, Note_on_c, 0, 65, 81
2, 373102, Note_on_c, 0, 51, 71
2, 373115, Control_c, 0, 64, 127
2, 373125, Note_off_c, 0, 39, 64
2, 373131, Note_off_c, 0, 51, 64
2, 373137, Note_off_c, 0, 59, 64
2, 373149, Note_off_c, 0, 63, 64
2, 373151, Note_off_c, 0, 65, 64
2, 373162, Note_on_c, 0, 66, 76
2, 373187, Note_off_c, 0, 66, 64
2, 373211, Control_c, 0, 64, 0
2, 373224, Note_on_c, 0, 66, 84
2, 373224, Note_on_c, 0, 63, 69
2, 373224, Note_on_c, 0, 59, 71
2, 373224, Note_on_c, 0, 56, 72
2, 373224, Note_on_c, 0, 44, 72
2, 373225, Note_on_c, 0, 51, 72
2, 373241, Control_c, 0, 64, 127
2, 373255, Note_off_c, 0, 56, 64
2, 373260, Note_off_c, 0, 51, 64
2, 373271, Note_off_c, 0, 44, 64
2, 373271, Note_off_c, 0, 59, 64
2, 373286, Note_on_c, 0, 67, 76
2, 373293, Note_off_c, 0, 66, 64
2, 373299, Note_off_c, 0, 63, 64
2, 373313, Note_off_c, 0, 67, 64
2, 373344, Note_on_c, 0, 44, 84
2, 373344, Note_on_c, 0, 32, 65
2, 373348, Note_on_c, 0, 59, 64
2, 373351, Note_on_c, 0, 67, 78
2, 373351, Note_on_c, 0, 63, 74
2, 373380, Note_off_c, 0, 32, 64
2, 373380, Note_off_c, 0, 44, 64
2, 373386, Note_off_c, 0, 63, 64
2, 373392, Note_off_c, 0, 59, 64
2, 373401, Note_off_c, 0, 67, 64
2, 373407, Note_on_c, 0, 68, 93
2, 373432, Note_off_c, 0, 68, 64
2, 373440, Note_on_c, 0, 63, 80
2, 373448, Note_on_c, 0, 39, 80
2, 373452, Note_on_c, 0, 68, 78
2, 373452, Note_on_c, 0, 59, 64
2, 373452, Note_on_c, 0, 51, 68
2, 373456, Control_c, 0, 64, 0
2, 373490, Control_c, 0, 64, 127
2, 373491, Note_off_c, 0, 63, 64
2, 373505, Note_off_c, 0, 68, 64
2, 373510, Note_off_c, 0, 51, 64
2, 373512, Note_off_c, 0, 59, 64
2, 373515, Note_off_c, 0, 39, 64
2, 373524, Note_on_c, 0, 69, 80
2, 373548, Note_off_c, 0, 69, 64
2, 373580, Note_on_c, 0, 69, 88
2, 373582, Note_on_c, 0, 59, 72
2, 373582, Note_on_c, 0, 56, 72
2, 373582, Note_on_c, 0, 51, 72
2, 373584, Note_on_c, 0, 63, 84
2, 373606, Note_off_c, 0, 56, 64
2, 373610, Note_off_c, 0, 51, 64
2, 373618, Note_off_c, 0, 59, 64
2, 373620, Note_off_c, 0, 69, 64
2, 373635, Note_off_c, 0, 63, 64
2, 373640, Note_on_c, 0, 70, 84
2, 373663, Note_off_c, 0, 70, 64
2, 373690, Control_c, 0, 64, 0
2, 373698, Note_on_c, 0, 32, 71
2, 373702, Note_on_c, 0, 70, 92
2, 373703, Note_on_c, 0, 63, 84
2, 373704, Note_on_c, 0, 44, 82
2, 373728, Control_c, 0, 64, 127
2, 373743, Note_off_c, 0, 44, 64
2, 373747, Note_off_c, 0, 70, 64
2, 373753, Note_off_c, 0, 32, 64
2, 373759, Note_on_c, 0, 71, 80
2, 373777, Note_off_c, 0, 63, 64
2, 373785, Note_off_c, 0, 71, 64
2, 373812, Note_on_c, 0, 68, 44
2, 373816, Note_on_c, 0, 71, 84
2, 373818, Note_on_c, 0, 51, 80
2, 373818, Note_on_c, 0, 39, 75
2, 373819, Note_on_c, 0, 63, 80
2, 373839, Note_off_c, 0, 39, 64
2, 373843, Note_off_c, 0, 51, 64
2, 373873, Note_on_c, 0, 72, 78
2, 373874, Note_off_c, 0, 71, 64
2, 373883, Note_off_c, 0, 68, 64
2, 373894, Note_off_c, 0, 63, 64
2, 373904, Note_off_c, 0, 72, 64
2, 373912, Control_c, 0, 64, 0
2, 373932, Note_on_c, 0, 68, 64
2, 373933, Note_on_c, 0, 63, 80
2, 373935, Note_on_c, 0, 72, 84
2, 373936, Note_on_c, 0, 51, 72
2, 373938, Note_on_c, 0, 59, 72
2, 373938, Note_on_c, 0, 56, 72
2, 373952, Control_c, 0, 64, 127
2, 373959, Note_off_c, 0, 59, 64
2, 373964, Note_off_c, 0, 56, 64
2, 373966, Note_off_c, 0, 51, 64
2, 373973, Note_off_c, 0, 72, 64
2, 373976, Note_off_c, 0, 63, 64
2, 373977, Note_off_c, 0, 68, 64
2, 373993, Note_on_c, 0, 73, 94
2, 374024, Note_off_c, 0, 73, 64
2, 374051, Note_on_c, 0, 73, 81
2, 374052, Note_on_c, 0, 68, 33
2, 374054, Note_on_c, 0, 63, 82
2, 374057, Note_on_c, 0, 32, 77
2, 374061, Note_on_c, 0, 44, 33
2, 374071, Note_off_c, 0, 68, 64
2, 374091, Note_off_c, 0, 63, 64
2, 374104, Note_off_c, 0, 32, 64
2, 374106, Note_off_c, 0, 73, 64
2, 374108, Note_off_c, 0, 44, 64
2, 374112, Note_on_c, 0, 74, 82
2, 374143, Note_off_c, 0, 74, 64
2, 374145, Control_c, 0, 64, 0
2, 374174, Note_on_c, 0, 51, 86
2, 374176, Note_on_c, 0, 74, 88
2, 374176, Note_on_c, 0, 68, 67
2, 374176, Note_on_c, 0, 63, 81
2, 374176, Note_on_c, 0, 39, 74
2, 374187, Control_c, 0, 64, 127
2, 374198, Note_off_c, 0, 51, 64
2, 374203, Note_off_c, 0, 39, 64
2, 374217, Note_off_c, 0, 68, 64
2, 374217, Note_off_c, 0, 74, 64
2, 374220, Note_off_c, 0, 63, 64
2, 374232, Note_on_c, 0, 75, 82
2, 374261, Note_off_c, 0, 75, 64
2, 374280, Control_c, 0, 64, 0
2, 374291, Note_on_c, 0, 58, 78
2, 374294, Note_on_c, 0, 75, 101
2, 374294, Note_on_c, 0, 51, 74
2, 374297, Note_on_c, 0, 70, 84
2, 374297, Note_on_c, 0, 63, 80
2, 374315, Control_c, 0, 64, 127
2, 374348, Note_on_c, 0, 76, 82
2, 374350, Note_off_c, 0, 70, 64
2, 374352, Note_off_c, 0, 75, 64
2, 374372, Note_off_c, 0, 63, 64
2, 374378, Note_off_c, 0, 58, 64
2, 374381, Note_off_c, 0, 76, 64
2, 374386, Note_off_c, 0, 51, 64
2, 374410, Note_on_c, 0, 76, 94
2, 374410, Note_on_c, 0, 70, 82
2, 374413, Note_on_c, 0, 51, 78
2, 374413, Note_on_c, 0, 43, 66
2, 374458, Note_off_c, 0, 76, 64
2, 374461, Note_off_c, 0, 43, 64
2, 374465, Note_on_c, 0, 75, 88
2, 374468, Note_off_c, 0, 70, 64
2, 374469, Note_off_c, 0, 51, 64
2, 374493, Note_off_c, 0, 75, 64
2, 374524, Note_on_c, 0, 75, 99
2, 374526, Note_on_c, 0, 51, 65
2, 374528, Note_on_c, 0, 70, 86
2, 374528, Note_on_c, 0, 63, 84
2, 374528, Note_on_c, 0, 58, 68
2, 374572, Note_off_c, 0, 75, 64
2, 374577, Note_on_c, 0, 73, 89
2, 374586, Note_off_c, 0, 70, 64
2, 374594, Note_off_c, 0, 51, 64
2, 374596, Note_off_c, 0, 58, 64
2, 374598, Note_off_c, 0, 63, 64
2, 374605, Note_off_c, 0, 73, 64
2, 374623, Control_c, 0, 64, 0
2, 374640, Note_on_c, 0, 51, 62
2, 374643, Note_on_c, 0, 73, 94
2, 374644, Note_on_c, 0, 44, 70
2, 374645, Note_on_c, 0, 68, 82
2, 374645, Note_on_c, 0, 63, 84
2, 374659, Control_c, 0, 64, 127
2, 374693, Note_off_c, 0, 73, 64
2, 374694, Note_off_c, 0, 68, 64
2, 374701, Note_on_c, 0, 71, 76
2, 374704, Note_off_c, 0, 51, 64
2, 374712, Note_off_c, 0, 63, 64
2, 374718, Note_off_c, 0, 44, 64
2, 374723, Note_off_c, 0, 71, 64
2, 374757, Note_on_c, 0, 71, 84
2, 374758, Note_on_c, 0, 63, 88
2, 374761, Note_on_c, 0, 59, 68
2, 374761, Note_on_c, 0, 51, 67
2, 374762, Note_on_c, 0, 68, 71
2, 374814, Note_on_c, 0, 73, 78
2, 374815, Note_off_c, 0, 68, 64
2, 374815, Note_off_c, 0, 59, 64
2, 374817, Note_off_c, 0, 71, 64
2, 374821, Note_off_c, 0, 51, 64
2, 374831, Note_off_c, 0, 63, 64
2, 374838, Note_off_c, 0, 73, 64
2, 374866, Note_on_c, 0, 73, 92
2, 374866, Control_c, 0, 64, 0
2, 374870, Note_on_c, 0, 63, 80
2, 374874, Note_on_c, 0, 68, 70
2, 374874, Note_on_c, 0, 51, 73
2, 374874, Note_on_c, 0, 44, 68
2, 374896, Control_c, 0, 64, 127
2, 374925, Note_off_c, 0, 73, 64
2, 374925, Note_on_c, 0, 75, 87
2, 374935, Note_off_c, 0, 68, 64
2, 374943, Note_off_c, 0, 63, 64
2, 374954, Note_off_c, 0, 75, 64
2, 374958, Note_off_c, 0, 51, 64
2, 374961, Note_off_c, 0, 44, 64
2, 374968, Control_c, 0, 64, 0
2, 374982, Note_on_c, 0, 75, 96
2, 374982, Note_on_c, 0, 68, 80
2, 374982, Note_on_c, 0, 64, 71
2, 374987, Note_on_c, 0, 56, 71
2, 374988, Note_on_c, 0, 49, 72
2, 374997, Control_c, 0, 64, 127
2, 375010, Note_off_c, 0, 56, 64
2, 375018, Note_off_c, 0, 49, 64
2, 375029, Note_off_c, 0, 75, 64
2, 375036, Note_on_c, 0, 73, 78
2, 375040, Note_off_c, 0, 68, 64
2, 375051, Note_off_c, 0, 64, 64
2, 375063, Note_off_c, 0, 73, 64
2, 375096, Note_on_c, 0, 68, 76
2, 375099, Note_on_c, 0, 73, 90
2, 375099, Note_on_c, 0, 64, 68
2, 375099, Note_on_c, 0, 49, 74
2, 375103, Note_on_c, 0, 37, 76
2, 375125, Note_off_c, 0, 49, 64
2, 375147, Note_off_c, 0, 37, 64
2, 375147, Note_off_c, 0, 68, 64
2, 375151, Note_off_c, 0, 73, 64
2, 375161, Note_on_c, 0, 71, 65
2, 375169, Note_off_c, 0, 64, 64
2, 375177, Note_off_c, 0, 71, 64
2, 375211, Note_on_c, 0, 71, 80
2, 375214, Note_on_c, 0, 64, 66
2, 375215, Note_on_c, 0, 56, 66
2, 375216, Note_on_c, 0, 61, 57
2, 375217, Note_on_c, 0, 49, 64
2, 375261, Note_off_c, 0, 61, 64
2, 375270, Note_on_c, 0, 70, 72
2, 375275, Note_off_c, 0, 71, 64
2, 375276, Note_off_c, 0, 49, 64
2, 375279, Control_c, 0, 64, 0
2, 375282, Note_off_c, 0, 64, 64
2, 375294, Note_off_c, 0, 56, 64
2, 375295, Note_off_c, 0, 70, 64
2, 375325, Note_on_c, 0, 61, 76
2, 375328, Note_on_c, 0, 55, 54
2, 375329, Note_on_c, 0, 51, 58
2, 375332, Control_c, 0, 64, 127
2, 375373, Note_off_c, 0, 55, 64
2, 375374, Note_off_c, 0, 51, 64
2, 375385, Note_on_c, 0, 71, 69
2, 375405, Note_off_c, 0, 61, 64
2, 375414, Note_off_c, 0, 71, 64
2, 375440, Note_on_c, 0, 39, 60
2, 375444, Note_on_c, 0, 61, 62
2, 375445, Note_on_c, 0, 71, 66
2, 375448, Note_on_c, 0, 51, 52
2, 375485, Note_off_c, 0, 39, 64
2, 375487, Note_off_c, 0, 71, 64
2, 375499, Note_on_c, 0, 70, 61
2, 375508, Note_off_c, 0, 51, 64
2, 375518, Note_off_c, 0, 61, 64
2, 375524, Note_off_c, 0, 70, 64
2, 375548, Note_on_c, 0, 70, 63
2, 375552, Note_on_c, 0, 51, 55
2, 375555, Note_on_c, 0, 61, 61
2, 375555, Note_on_c, 0, 55, 48
2, 375579, Note_off_c, 0, 70, 64
2, 375590, Note_off_c, 0, 55, 64
2, 375593, Note_off_c, 0, 51, 64
2, 375611, Note_on_c, 0, 63, 52
2, 375634, Note_off_c, 0, 61, 64
2, 375638, Note_off_c, 0, 63, 64
2, 375644, Control_c, 0, 64, 0
2, 375664, Note_on_c, 0, 44, 72
2, 375669, Note_on_c, 0, 63, 78
2, 375669, Note_on_c, 0, 59, 68
2, 375669, Note_on_c, 0, 51, 72
2, 375672, Note_on_c, 0, 56, 72
2, 375688, Control_c, 0, 64, 127
2, 375725, Note_off_c, 0, 56, 64
2, 375726, Note_on_c, 0, 64, 66
2, 375731, Note_off_c, 0, 51, 64
2, 375742, Note_off_c, 0, 59, 64
2, 375744, Note_off_c, 0, 44, 64
2, 375744, Note_off_c, 0, 63, 64
2, 375748, Note_off_c, 0, 64, 64
2, 375784, Note_on_c, 0, 59, 68
2, 375785, Note_on_c, 0, 44, 120
2, 375786, Note_on_c, 0, 64, 76
2, 375786, Note_on_c, 0, 32, 120
2, 375829, Note_off_c, 0, 44, 64
2, 375830, Note_off_c, 0, 32, 64
2, 375842, Note_on_c, 0, 65, 71
2, 375849, Note_off_c, 0, 64, 64
2, 375860, Note_off_c, 0, 59, 64
2, 375869, Note_off_c, 0, 65, 64
2, 375892, Note_on_c, 0, 63, 64
2, 375896, Note_on_c, 0, 39, 64
2, 375899, Note_on_c, 0, 65, 78
2, 375899, Note_on_c, 0, 59, 62
2, 375901, Note_on_c, 0, 51, 84
2, 375934, Note_off_c, 0, 39, 64
2, 375936, Note_off_c, 0, 51, 64
2, 375940, Note_off_c, 0, 59, 64
2, 375951, Note_on_c, 0, 66, 89
2, 375952, Note_off_c, 0, 63, 64
2, 375959, Note_off_c, 0, 65, 64
2, 375978, Note_off_c, 0, 66, 64
2, 375993, Control_c, 0, 64, 0
2, 376008, Note_on_c, 0, 66, 81
2, 376012, Note_on_c, 0, 63, 56
2, 376013, Note_on_c, 0, 59, 64
2, 376014, Note_on_c, 0, 56, 69
2, 376016, Note_on_c, 0, 51, 71
2, 376016, Note_on_c, 0, 44, 64
2, 376044, Control_c, 0, 64, 127
2, 376059, Note_off_c, 0, 56, 64
2, 376066, Note_off_c, 0, 51, 64
2, 376067, Note_on_c, 0, 67, 76
2, 376073, Note_off_c, 0, 63, 64
2, 376074, Note_off_c, 0, 66, 64
2, 376076, Note_off_c, 0, 44, 64
2, 376085, Note_off_c, 0, 59, 64
2, 376093, Note_off_c, 0, 67, 64
2, 376115, Control_c, 0, 64, 0
2, 376125, Note_on_c, 0, 63, 64
2, 376127, Note_on_c, 0, 67, 78
2, 376127, Note_on_c, 0, 59, 68
2, 376127, Note_on_c, 0, 42, 120
2, 376131, Note_on_c, 0, 30, 120
2, 376148, Control_c, 0, 64, 127
2, 376153, Note_off_c, 0, 63, 64
2, 376159, Note_off_c, 0, 59, 64
2, 376171, Note_off_c, 0, 42, 64
2, 376173, Note_off_c, 0, 67, 64
2, 376176, Note_off_c, 0, 30, 64
2, 376183, Note_on_c, 0, 68, 88
2, 376212, Note_off_c, 0, 68, 64
2, 376240, Note_on_c, 0, 68, 78
2, 376240, Note_on_c, 0, 42, 68
2, 376244, Note_on_c, 0, 59, 61
2, 376244, Note_on_c, 0, 51, 63
2, 376247, Note_on_c, 0, 63, 56
2, 376247, Note_on_c, 0, 54, 60
2, 376276, Note_off_c, 0, 59, 64
2, 376278, Note_off_c, 0, 63, 64
2, 376280, Note_off_c, 0, 51, 64
2, 376281, Note_off_c, 0, 42, 64
2, 376289, Note_off_c, 0, 54, 64
2, 376296, Note_on_c, 0, 69, 74
2, 376308, Note_off_c, 0, 68, 64
2, 376322, Note_off_c, 0, 69, 64
2, 376337, Control_c, 0, 64, 0
2, 376356, Note_on_c, 0, 59, 68
2, 376358, Note_on_c, 0, 69, 84
2, 376358, Note_on_c, 0, 64, 71
2, 376360, Note_on_c, 0, 56, 76
2, 376360, Note_on_c, 0, 52, 80
2, 376372, Control_c, 0, 64, 127
2, 376384, Note_off_c, 0, 52, 64
2, 376385, Note_off_c, 0, 56, 64
2, 376390, Note_off_c, 0, 59, 64
2, 376396, Note_off_c, 0, 64, 64
2, 376409, Note_on_c, 0, 70, 78
2, 376417, Note_off_c, 0, 69, 64
2, 376436, Note_off_c, 0, 70, 64
2, 376460, Note_on_c, 0, 70, 94
2, 376460, Note_on_c, 0, 59, 75
2, 376460, Note_on_c, 0, 40, 127
2, 376464, Note_on_c, 0, 64, 64
2, 376464, Note_on_c, 0, 28, 127
2, 376500, Note_off_c, 0, 40, 64
2, 376505, Note_off_c, 0, 28, 64
2, 376507, Note_off_c, 0, 59, 64
2, 376524, Note_off_c, 0, 64, 64
2, 376525, Note_on_c, 0, 71, 71
2, 376535, Note_off_c, 0, 70, 64
2, 376550, Note_off_c, 0, 71, 64
2, 376580, Note_on_c, 0, 64, 64
2, 376580, Note_on_c, 0, 59, 64
2, 376584, Note_on_c, 0, 56, 80
2, 376585, Note_on_c, 0, 71, 75
2, 376585, Note_on_c, 0, 52, 76
2, 376617, Note_off_c, 0, 56, 64
2, 376624, Note_off_c, 0, 52, 64
2, 376636, Note_on_c, 0, 72, 86
2, 376640, Note_off_c, 0, 71, 64
2, 376640, Note_off_c, 0, 59, 64
2, 376640, Note_off_c, 0, 64, 64
2, 376670, Note_off_c, 0, 72, 64
2, 376696, Note_on_c, 0, 68, 64
2, 376697, Note_on_c, 0, 72, 80
2, 376697, Note_on_c, 0, 56, 78
2, 376699, Note_on_c, 0, 59, 80
2, 376702, Note_on_c, 0, 63, 80
2, 376702, Note_on_c, 0, 51, 73
2, 376724, Note_off_c, 0, 56, 64
2, 376725, Note_off_c, 0, 51, 64
2, 376732, Note_off_c, 0, 59, 64
2, 376742, Note_on_c, 0, 73, 84
2, 376747, Note_off_c, 0, 72, 64
2, 376756, Note_off_c, 0, 68, 64
2, 376765, Note_off_c, 0, 63, 64
2, 376770, Note_off_c, 0, 73, 64
2, 376781, Control_c, 0, 64, 0
2, 376807, Note_on_c, 0, 73, 74
2, 376808, Note_on_c, 0, 68, 64
2, 376811, Note_on_c, 0, 63, 78
2, 376811, Note_on_c, 0, 39, 127
2, 376811, Note_on_c, 0, 27, 127
2, 376827, Control_c, 0, 64, 127
2, 376837, Note_off_c, 0, 27, 64
2, 376840, Note_off_c, 0, 39, 64
2, 376863, Note_off_c, 0, 73, 64
2, 376864, Note_on_c, 0, 74, 81
2, 376868, Note_off_c, 0, 68, 64
2, 376883, Note_off_c, 0, 63, 64
2, 376887, Note_off_c, 0, 74, 64
2, 376912, Note_on_c, 0, 59, 80
2, 376920, Note_on_c, 0, 68, 64
2, 376920, Note_on_c, 0, 56, 76
2, 376920, Note_on_c, 0, 51, 76
2, 376924, Note_on_c, 0, 74, 80
2, 376924, Note_on_c, 0, 63, 64
2, 376955, Note_off_c, 0, 56, 64
2, 376962, Note_off_c, 0, 59, 64
2, 376965, Note_off_c, 0, 51, 64
2, 376968, Note_on_c, 0, 75, 94
2, 376979, Note_off_c, 0, 68, 64
2, 376984, Note_off_c, 0, 63, 64
2, 376990, Note_off_c, 0, 74, 64
2, 376995, Note_off_c, 0, 75, 64
2, 376996, Control_c, 0, 64, 0
2, 377028, Note_on_c, 0, 75, 121
2, 377028, Note_on_c, 0, 56, 88
2, 377028, Note_on_c, 0, 49, 90
2, 377031, Note_on_c, 0, 68, 84
2, 377031, Note_on_c, 0, 64, 88
2, 377031, Note_on_c, 0, 59, 87
2, 377039, Control_c, 0, 64, 127
2, 377053, Note_off_c, 0, 49, 64
2, 377053, Note_off_c, 0, 56, 64
2, 377056, Note_off_c, 0, 59, 64
2, 377056, Note_off_c, 0, 64, 64
2, 377056, Note_off_c, 0, 68, 64
2, 377080, Note_off_c, 0, 75, 64
2, 377080, Note_on_c, 0, 73, 96
2, 377105, Note_off_c, 0, 73, 64
2, 377140, Note_on_c, 0, 73, 84
2, 377184, Note_off_c, 0, 73, 64
2, 377190, Note_on_c, 0, 71, 96
2, 377212, Note_off_c, 0, 71, 64
2, 377249, Note_on_c, 0, 71, 110
2, 377294, Note_off_c, 0, 71, 64
2, 377302, Note_on_c, 0, 70, 121
2, 377320, Note_off_c, 0, 70, 64
2, 377358, Note_on_c, 0, 73, 100
2, 377360, Note_on_c, 0, 63, 103
2, 377360, Note_on_c, 0, 51, 76
2, 377364, Note_on_c, 0, 68, 82
2, 377364, Note_on_c, 0, 59, 92
2, 377364, Note_on_c, 0, 56, 100
2, 377385, Note_off_c, 0, 51, 64
2, 377385, Note_off_c, 0, 63, 64
2, 377389, Note_off_c, 0, 56, 64
2, 377389, Note_off_c, 0, 59, 64
2, 377389, Note_off_c, 0, 68, 64
2, 377412, Note_off_c, 0, 73, 64
2, 377412, Note_on_c, 0, 71, 84
2, 377436, Note_off_c, 0, 71, 64
2, 377472, Note_on_c, 0, 71, 82
2, 377512, Note_off_c, 0, 71, 64
2, 377522, Note_on_c, 0, 70, 92
2, 377541, Note_off_c, 0, 70, 64
2, 377570, Note_on_c, 0, 70, 87
2, 377614, Note_off_c, 0, 70, 64
2, 377627, Note_on_c, 0, 68, 115
2, 377650, Note_off_c, 0, 68, 64
2, 377688, Note_on_c, 0, 49, 96
2, 377689, Note_on_c, 0, 64, 91
2, 377689, Note_on_c, 0, 59, 96
2, 377694, Note_on_c, 0, 75, 111
2, 377694, Note_on_c, 0, 68, 93
2, 377694, Note_on_c, 0, 56, 96
2, 377713, Note_off_c, 0, 49, 64
2, 377714, Note_off_c, 0, 59, 64
2, 377714, Note_off_c, 0, 64, 64
2, 377719, Note_off_c, 0, 56, 64
2, 377719, Note_off_c, 0, 68, 64
2, 377738, Note_on_c, 0, 73, 86
2, 377742, Note_off_c, 0, 75, 64
2, 377766, Note_off_c, 0, 73, 64
2, 377795, Note_on_c, 0, 73, 84
2, 377846, Note_off_c, 0, 73, 64
2, 377850, Note_on_c, 0, 71, 82
2, 377874, Note_off_c, 0, 71, 64
2, 377900, Note_on_c, 0, 71, 101
2, 377934, Note_off_c, 0, 71, 64
2, 377951, Note_on_c, 0, 70, 79
2, 377957, Control_c, 0, 64, 0
2, 377962, Note_off_c, 0, 70, 64
2, 377992, Note_on_c, 0, 59, 81
2, 377996, Note_on_c, 0, 73, 105
2, 377997, Note_on_c, 0, 51, 76
2, 377998, Note_on_c, 0, 56, 76
2, 378000, Note_on_c, 0, 68, 72
2, 378000, Note_on_c, 0, 63, 86
2, 378017, Note_off_c, 0, 59, 64
2, 378022, Note_off_c, 0, 51, 64
2, 378023, Note_off_c, 0, 56, 64
2, 378025, Note_off_c, 0, 63, 64
2, 378025, Note_off_c, 0, 68, 64
2, 378025, Control_c, 0, 64, 127
2, 378042, Note_off_c, 0, 73, 64
2, 378056, Note_on_c, 0, 71, 66
2, 378085, Note_off_c, 0, 71, 64
2, 378109, Note_on_c, 0, 71, 101
2, 378157, Note_off_c, 0, 71, 64
2, 378170, Note_on_c, 0, 70, 46
2, 378194, Note_off_c, 0, 70, 64
2, 378212, Note_on_c, 0, 70, 94
2, 378259, Note_off_c, 0, 70, 64
2, 378264, Note_on_c, 0, 68, 64
2, 378290, Control_c, 0, 64, 0
2, 378294, Note_off_c, 0, 68, 64
2, 378312, Note_on_c, 0, 56, 97
2, 378315, Note_on_c, 0, 71, 84
2, 378317, Note_on_c, 0, 61, 98
2, 378319, Note_on_c, 0, 52, 81
2, 378321, Note_on_c, 0, 68, 87
2, 378329, Control_c, 0, 64, 127
2, 378337, Note_off_c, 0, 56, 64
2, 378342, Note_off_c, 0, 68, 64
2, 378342, Note_off_c, 0, 61, 64
2, 378344, Note_off_c, 0, 52, 64
2, 378372, Note_on_c, 0, 70, 45
2, 378378, Note_off_c, 0, 71, 64
2, 378388, Note_off_c, 0, 70, 64
2, 378421, Note_on_c, 0, 70, 74
2, 378470, Note_off_c, 0, 70, 64
2, 378474, Note_on_c, 0, 71, 72
2, 378497, Note_off_c, 0, 71, 64
2, 378531, Note_on_c, 0, 71, 53
2, 378580, Note_on_c, 0, 70, 70
2, 378581, Note_off_c, 0, 71, 64
2, 378602, Note_off_c, 0, 70, 64
2, 378633, Note_on_c, 0, 70, 56
2, 378682, Note_off_c, 0, 70, 64
2, 378687, Note_on_c, 0, 71, 71
2, 378708, Note_off_c, 0, 71, 64
2, 378740, Note_on_c, 0, 71, 70
2, 378789, Note_on_c, 0, 70, 85
2, 378799, Note_off_c, 0, 71, 64
2, 378819, Note_off_c, 0, 70, 64
2, 378848, Note_on_c, 0, 70, 98
2, 378895, Note_on_c, 0, 71, 89
2, 378907, Note_off_c, 0, 70, 64
2, 378921, Note_off_c, 0, 71, 64
2, 378951, Note_on_c, 0, 71, 96
2, 378962, Control_c, 0, 64, 0
2, 378997, Note_on_c, 0, 70, 91
2, 379008, Control_c, 0, 64, 127
2, 379011, Note_off_c, 0, 71, 64
2, 379023, Note_off_c, 0, 70, 64
2, 379050, Note_on_c, 0, 70, 92
2, 379106, Note_on_c, 0, 71, 63
2, 379117, Note_off_c, 0, 70, 64
2, 379130, Note_off_c, 0, 71, 64
2, 379162, Note_on_c, 0, 71, 61
2, 379214, Note_on_c, 0, 70, 73
2, 379220, Note_off_c, 0, 71, 64
2, 379237, Note_off_c, 0, 70, 64
2, 379268, Note_on_c, 0, 70, 71
2, 379322, Note_off_c, 0, 70, 64
2, 379326, Note_on_c, 0, 71, 52
2, 379346, Note_off_c, 0, 71, 64
2, 379379, Note_on_c, 0, 71, 59
2, 379427, Note_on_c, 0, 70, 38
2, 379432, Note_off_c, 0, 71, 64
2, 379446, Note_off_c, 0, 70, 64
2, 379481, Note_on_c, 0, 70, 45
2, 379526, Note_off_c, 0, 70, 64
2, 379536, Note_on_c, 0, 71, 54
2, 379579, Note_off_c, 0, 71, 64
2, 379585, Control_c, 0, 64, 0
2, 379588, Note_on_c, 0, 70, 76
2, 379592, Note_on_c, 0, 68, 64
2, 379595, Note_on_c, 0, 64, 51
2, 379629, Control_c, 0, 64, 127
2, 379648, Note_on_c, 0, 63, 63
2, 379657, Note_off_c, 0, 64, 64
2, 379700, Note_off_c, 0, 63, 64
2, 379706, Note_on_c, 0, 63, 76
2, 379757, Note_on_c, 0, 61, 56
2, 379768, Note_off_c, 0, 63, 64
2, 379809, Note_off_c, 0, 61, 64
2, 379813, Note_on_c, 0, 61, 75
2, 379864, Note_on_c, 0, 59, 57
2, 379875, Note_off_c, 0, 61, 64
2, 379909, Note_off_c, 0, 59, 64
2, 379918, Note_on_c, 0, 59, 64
2, 379973, Note_on_c, 0, 58, 52
2, 379986, Note_off_c, 0, 59, 64
2, 380018, Note_off_c, 0, 58, 64
2, 380026, Note_on_c, 0, 58, 62
2, 380070, Control_c, 0, 64, 0
2, 380078, Note_off_c, 0, 58, 64
2, 380079, Note_on_c, 0, 56, 43
2, 380109, Control_c, 0, 64, 127
2, 380131, Note_off_c, 0, 56, 64
2, 380134, Note_on_c, 0, 56, 60
2, 380177, Control_c, 0, 64, 0
2, 380189, Note_on_c, 0, 54, 33
2, 380199, Note_off_c, 0, 56, 64
2, 380208, Control_c, 0, 64, 127
2, 380241, Note_off_c, 0, 54, 64
2, 380245, Note_on_c, 0, 54, 60
2, 380303, Note_off_c, 0, 54, 64
2, 380303, Note_on_c, 0, 52, 40
2, 380355, Note_off_c, 0, 52, 64
2, 380360, Note_on_c, 0, 52, 45
2, 380414, Note_on_c, 0, 51, 28
2, 380422, Note_off_c, 0, 52, 64
2, 380479, Note_off_c, 0, 51, 64
2, 380482, Note_on_c, 0, 51, 40
2, 380488, Note_off_c, 0, 68, 64
2, 380540, Note_on_c, 0, 49, 25
2, 380547, Note_off_c, 0, 51, 64
2, 380615, Control_c, 0, 64, 0
2, 380618, Note_on_c, 0, 51, 50
2, 380622, Note_on_c, 0, 61, 42
2, 380624, Note_off_c, 0, 49, 64
2, 380624, Note_on_c, 0, 67, 36
2, 380668, Control_c, 0, 64, 127
2, 380770, Note_off_c, 0, 70, 64
2, 380835, Note_off_c, 0, 67, 64
2, 380943, Note_on_c, 0, 39, 52
2, 380949, Note_on_c, 0, 71, 58
2, 381051, Note_off_c, 0, 61, 64
2, 381122, Note_off_c, 0, 71, 64
2, 381134, Note_on_c, 0, 68, 69
2, 381135, Control_c, 0, 64, 0
2, 381138, Note_off_c, 0, 39, 64
2, 381140, Note_on_c, 0, 59, 57
2, 381144, Note_on_c, 0, 44, 57
2, 381168, Note_off_c, 0, 51, 64
2, 381174, Control_c, 0, 64, 127
2, 381197, Note_off_c, 0, 59, 64
2, 381206, Note_off_c, 0, 68, 64
2, 381230, Note_off_c, 0, 44, 64
2, 381270, Control_c, 0, 64, 0
2, 381273, Note_on_c, 0, 61, 64
2, 381274, Note_on_c, 0, 68, 73
2, 381278, Note_on_c, 0, 64, 60
2, 381278, Note_on_c, 0, 49, 58
2, 381279, Note_on_c, 0, 37, 58
2, 381296, Control_c, 0, 64, 127
2, 381307, Note_off_c, 0, 64, 64
2, 381330, Note_off_c, 0, 49, 64
2, 381332, Note_off_c, 0, 68, 64
2, 381334, Note_on_c, 0, 71, 69
2, 381353, Note_off_c, 0, 61, 64
2, 381356, Note_off_c, 0, 37, 64
2, 381360, Note_off_c, 0, 71, 64
2, 381395, Note_on_c, 0, 39, 66
2, 381399, Note_on_c, 0, 71, 77
2, 381399, Note_on_c, 0, 61, 68
2, 381399, Note_on_c, 0, 51, 59
2, 381402, Note_on_c, 0, 67, 76
2, 381428, Note_off_c, 0, 51, 64
2, 381439, Note_off_c, 0, 67, 64
2, 381440, Note_off_c, 0, 39, 64
2, 381447, Note_off_c, 0, 71, 64
2, 381458, Note_on_c, 0, 70, 89
2, 381469, Note_off_c, 0, 61, 64
2, 381480, Note_off_c, 0, 70, 64
2, 381512, Control_c, 0, 64, 0
2, 381518, Note_on_c, 0, 70, 80
2, 381520, Note_on_c, 0, 59, 68
2, 381520, Note_on_c, 0, 56, 54
2, 381520, Note_on_c, 0, 44, 75
2, 381542, Control_c, 0, 64, 127
2, 381553, Note_off_c, 0, 56, 64
2, 381565, Note_off_c, 0, 44, 64
2, 381568, Note_on_c, 0, 68, 87
2, 381573, Note_off_c, 0, 70, 64
2, 381579, Note_off_c, 0, 59, 64
2, 381594, Note_off_c, 0, 68, 64
2, 381629, Note_on_c, 0, 37, 64
2, 381632, Note_on_c, 0, 68, 78
2, 381634, Note_on_c, 0, 64, 74
2, 381634, Note_on_c, 0, 61, 76
2, 381635, Note_on_c, 0, 49, 58
2, 381640, Control_c, 0, 64, 0
2, 381662, Note_off_c, 0, 64, 64
2, 381667, Control_c, 0, 64, 127
2, 381683, Note_on_c, 0, 71, 76
2, 381686, Note_off_c, 0, 68, 64
2, 381687, Note_off_c, 0, 49, 64
2, 381701, Note_off_c, 0, 61, 64
2, 381701, Note_off_c, 0, 37, 64
2, 381708, Note_off_c, 0, 71, 64
2, 381746, Note_on_c, 0, 61, 56
2, 381750, Note_on_c, 0, 67, 64
2, 381750, Note_on_c, 0, 39, 57
2, 381751, Note_on_c, 0, 71, 78
2, 381754, Note_on_c, 0, 51, 43
2, 381785, Note_off_c, 0, 67, 64
2, 381786, Note_off_c, 0, 71, 64
2, 381790, Note_off_c, 0, 39, 64
2, 381802, Note_on_c, 0, 70, 78
2, 381809, Note_off_c, 0, 51, 64
2, 381819, Note_off_c, 0, 61, 64
2, 381824, Note_off_c, 0, 70, 64
2, 381851, Note_on_c, 0, 52, 57
2, 381863, Note_on_c, 0, 70, 81
2, 381863, Note_on_c, 0, 59, 65
2, 381871, Note_on_c, 0, 40, 63
2, 381909, Note_off_c, 0, 59, 64
2, 381913, Note_on_c, 0, 68, 96
2, 381920, Note_off_c, 0, 70, 64
2, 381936, Note_off_c, 0, 68, 64
2, 381945, Note_off_c, 0, 40, 64
2, 381947, Note_off_c, 0, 52, 64
2, 381961, Control_c, 0, 64, 0
2, 381973, Note_on_c, 0, 63, 71
2, 381976, Note_on_c, 0, 66, 54
2, 381976, Note_on_c, 0, 35, 64
2, 381977, Note_on_c, 0, 47, 71
2, 381999, Control_c, 0, 64, 127
2, 382025, Note_on_c, 0, 75, 84
2, 382027, Note_off_c, 0, 63, 64
2, 382030, Note_off_c, 0, 47, 64
2, 382033, Note_off_c, 0, 66, 64
2, 382036, Note_off_c, 0, 35, 64
2, 382053, Note_off_c, 0, 75, 64
2, 382085, Note_on_c, 0, 75, 89
2, 382087, Note_on_c, 0, 64, 68
2, 382090, Note_on_c, 0, 68, 78
2, 382090, Note_on_c, 0, 49, 72
2, 382096, Note_on_c, 0, 37, 64
2, 382104, Note_off_c, 0, 64, 64
2, 382110, Note_off_c, 0, 68, 64
2, 382136, Note_off_c, 0, 75, 64
2, 382138, Note_on_c, 0, 73, 68
2, 382161, Note_off_c, 0, 73, 64
2, 382182, Note_off_c, 0, 49, 64
2, 382195, Note_off_c, 0, 37, 64
2, 382199, Note_on_c, 0, 73, 80
2, 382199, Note_on_c, 0, 63, 67
2, 382200, Note_on_c, 0, 51, 62
2, 382204, Note_on_c, 0, 68, 68
2, 382208, Note_on_c, 0, 39, 64
2, 382235, Note_off_c, 0, 68, 64
2, 382244, Note_off_c, 0, 73, 64
2, 382248, Note_on_c, 0, 71, 73
2, 382265, Note_off_c, 0, 51, 64
2, 382267, Note_off_c, 0, 63, 64
2, 382275, Control_c, 0, 64, 0
2, 382285, Note_off_c, 0, 39, 64
2, 382315, Note_on_c, 0, 63, 78
2, 382320, Note_off_c, 0, 71, 64
2, 382320, Note_on_c, 0, 51, 77
2, 382321, Control_c, 0, 64, 127
2, 382368, Note_off_c, 0, 51, 64
2, 382377, Note_on_c, 0, 71, 84
2, 382401, Note_off_c, 0, 63, 64
2, 382407, Note_off_c, 0, 71, 64
2, 382435, Note_on_c, 0, 61, 75
2, 382435, Note_on_c, 0, 51, 72
2, 382438, Note_on_c, 0, 71, 75
2, 382440, Note_on_c, 0, 39, 34
2, 382477, Note_off_c, 0, 71, 64
2, 382490, Note_off_c, 0, 51, 64
2, 382491, Note_on_c, 0, 70, 55
2, 382494, Note_off_c, 0, 39, 64
2, 382505, Note_off_c, 0, 70, 64
2, 382510, Note_off_c, 0, 61, 64
2, 382562, Note_on_c, 0, 68, 86
2, 382565, Note_on_c, 0, 59, 64
2, 382565, Note_on_c, 0, 44, 62
2, 382568, Note_on_c, 0, 51, 63
2, 382646, Note_off_c, 0, 59, 64
2, 382647, Note_off_c, 0, 44, 64
2, 382650, Note_off_c, 0, 51, 64
2, 382658, Control_c, 0, 64, 0
2, 382670, Note_off_c, 0, 68, 64
2, 382691, Note_on_c, 0, 61, 82
2, 382692, Note_on_c, 0, 64, 78
2, 382692, Note_on_c, 0, 49, 75
2, 382696, Note_on_c, 0, 68, 86
2, 382698, Note_on_c, 0, 37, 65
2, 382712, Control_c, 0, 64, 127
2, 382737, Note_off_c, 0, 64, 64
2, 382755, Note_on_c, 0, 71, 80
2, 382756, Note_off_c, 0, 68, 64
2, 382772, Note_off_c, 0, 61, 64
2, 382777, Note_off_c, 0, 49, 64
2, 382784, Note_off_c, 0, 71, 64
2, 382804, Note_off_c, 0, 37, 64
2, 382812, Note_on_c, 0, 71, 84
2, 382817, Note_on_c, 0, 39, 62
2, 382819, Note_on_c, 0, 67, 84
2, 382819, Note_on_c, 0, 51, 75
2, 382822, Note_on_c, 0, 61, 73
2, 382838, Note_off_c, 0, 61, 64
2, 382867, Note_off_c, 0, 67, 64
2, 382868, Note_off_c, 0, 39, 64
2, 382872, Note_on_c, 0, 70, 80
2, 382874, Note_off_c, 0, 71, 64
2, 382879, Note_off_c, 0, 51, 64
2, 382898, Note_off_c, 0, 70, 64
2, 382923, Control_c, 0, 64, 0
2, 382929, Note_on_c, 0, 70, 84
2, 382930, Note_on_c, 0, 59, 69
2, 382933, Note_on_c, 0, 56, 74
2, 382935, Note_on_c, 0, 44, 64
2, 382961, Control_c, 0, 64, 127
2, 382967, Note_off_c, 0, 59, 64
2, 382978, Note_off_c, 0, 56, 64
2, 382984, Note_on_c, 0, 68, 86
2, 382987, Note_off_c, 0, 70, 64
2, 382995, Note_off_c, 0, 44, 64
2, 383008, Note_off_c, 0, 68, 64
2, 383043, Note_on_c, 0, 37, 66
2, 383045, Note_on_c, 0, 64, 64
2, 383045, Note_on_c, 0, 49, 71
2, 383048, Note_on_c, 0, 68, 71
2, 383048, Note_on_c, 0, 61, 68
2, 383070, Note_off_c, 0, 64, 64
2, 383093, Note_off_c, 0, 68, 64
2, 383099, Note_off_c, 0, 49, 64
2, 383100, Note_on_c, 0, 71, 84
2, 383106, Note_off_c, 0, 37, 64
2, 383118, Note_off_c, 0, 61, 64
2, 383130, Note_off_c, 0, 71, 64
2, 383132, Control_c, 0, 64, 0
2, 383157, Note_on_c, 0, 71, 81
2, 383160, Note_on_c, 0, 61, 76
2, 383160, Note_on_c, 0, 51, 64
2, 383162, Note_on_c, 0, 67, 78
2, 383162, Note_on_c, 0, 39, 63
2, 383172, Control_c, 0, 64, 127
2, 383198, Note_off_c, 0, 67, 64
2, 383202, Note_off_c, 0, 71, 64
2, 383213, Note_on_c, 0, 70, 82
2, 383226, Note_off_c, 0, 39, 64
2, 383226, Note_off_c, 0, 61, 64
2, 383229, Note_off_c, 0, 51, 64
2, 383234, Note_off_c, 0, 70, 64
2, 383273, Note_on_c, 0, 70, 84
2, 383274, Note_on_c, 0, 59, 64
2, 383277, Note_on_c, 0, 52, 55
2, 383280, Note_on_c, 0, 40, 64
2, 383323, Note_off_c, 0, 70, 64
2, 383326, Note_off_c, 0, 59, 64
2, 383330, Note_off_c, 0, 40, 64
2, 383335, Note_on_c, 0, 68, 71
2, 383346, Note_off_c, 0, 52, 64
2, 383362, Note_off_c, 0, 68, 64
2, 383375, Control_c, 0, 64, 0
2, 383397, Note_on_c, 0, 45, 73
2, 383400, Note_on_c, 0, 64, 71
2, 383400, Note_on_c, 0, 61, 75
2, 383400, Note_on_c, 0, 33, 64
2, 383414, Control_c, 0, 64, 127
2, 383430, Note_off_c, 0, 33, 64
2, 383434, Note_off_c, 0, 45, 64
2, 383456, Note_on_c, 0, 73, 100
2, 383471, Note_off_c, 0, 64, 64
2, 383477, Note_off_c, 0, 73, 64
2, 383495, Note_off_c, 0, 61, 64
2, 383520, Note_on_c, 0, 73, 86
2, 383523, Note_on_c, 0, 62, 64
2, 383524, Note_on_c, 0, 67, 64
2, 383529, Note_on_c, 0, 47, 71
2, 383536, Note_on_c, 0, 35, 64
2, 383566, Note_off_c, 0, 35, 64
2, 383568, Note_off_c, 0, 47, 64
2, 383572, Note_off_c, 0, 73, 64
2, 383577, Note_off_c, 0, 67, 64
2, 383584, Note_on_c, 0, 71, 78
2, 383585, Note_off_c, 0, 62, 64
2, 383605, Note_off_c, 0, 71, 64
2, 383640, Note_on_c, 0, 71, 74
2, 383642, Note_on_c, 0, 61, 73
2, 383642, Note_on_c, 0, 49, 75
2, 383646, Note_on_c, 0, 64, 64
2, 383648, Note_on_c, 0, 37, 64
2, 383678, Note_off_c, 0, 37, 64
2, 383700, Note_off_c, 0, 71, 64
2, 383701, Note_off_c, 0, 64, 64
2, 383704, Note_on_c, 0, 69, 76
2, 383707, Note_off_c, 0, 49, 64
2, 383723, Note_off_c, 0, 61, 64
2, 383751, Control_c, 0, 64, 0
2, 383761, Note_off_c, 0, 69, 64
2, 383765, Note_on_c, 0, 63, 72
2, 383765, Note_on_c, 0, 59, 69
2, 383769, Note_on_c, 0, 51, 62
2, 383769, Note_on_c, 0, 39, 62
2, 383790, Control_c, 0, 64, 127
2, 383832, Note_on_c, 0, 68, 78
2, 383834, Note_off_c, 0, 39, 64
2, 383834, Note_off_c, 0, 51, 64
2, 383842, Note_off_c, 0, 63, 64
2, 383848, Note_off_c, 0, 59, 64
2, 383863, Note_off_c, 0, 68, 64
2, 383917, Note_on_c, 0, 68, 72
2, 383917, Note_on_c, 0, 63, 56
2, 383920, Note_on_c, 0, 58, 57
2, 383920, Note_on_c, 0, 27, 52
2, 383927, Note_on_c, 0, 39, 33
2, 383980, Note_on_c, 0, 67, 81
2, 383983, Note_off_c, 0, 68, 64
2, 384020, Note_off_c, 0, 27, 64
2, 384027, Note_off_c, 0, 39, 64
2, 384041, Note_off_c, 0, 58, 64
2, 384071, Note_off_c, 0, 67, 64
2, 384079, Note_on_c, 0, 68, 80
2, 384081, Control_c, 0, 64, 0
2, 384085, Note_on_c, 0, 59, 68
2, 384085, Note_on_c, 0, 44, 72
2, 384085, Note_on_c, 0, 32, 64
2, 384185, Note_off_c, 0, 32, 64
2, 384185, Note_off_c, 0, 44, 64
2, 384279, Note_off_c, 0, 59, 64
2, 384297, Note_off_c, 0, 63, 64
2, 384344, Note_off_c, 0, 68, 64
2, 384488, Note_on_c, 0, 63, 80
2, 384488, Note_on_c, 0, 51, 64
2, 384488, Note_on_c, 0, 39, 65
2, 384500, Control_c, 0, 64, 127
2, 384616, Note_on_c, 0, 59, 66
2, 384620, Note_on_c, 0, 56, 66
2, 384654, Note_off_c, 0, 56, 64
2, 384654, Note_off_c, 0, 59, 64
2, 384666, Note_on_c, 0, 58, 64
2, 384668, Note_on_c, 0, 55, 57
2, 384686, Note_off_c, 0, 55, 64
2, 384691, Note_off_c, 0, 58, 64
2, 384719, Note_on_c, 0, 58, 77
2, 384719, Note_on_c, 0, 55, 77
2, 384743, Note_off_c, 0, 58, 64
2, 384745, Note_off_c, 0, 55, 64
2, 384764, Note_on_c, 0, 61, 65
2, 384767, Note_on_c, 0, 58, 69
2, 384820, Note_off_c, 0, 58, 64
2, 384825, Control_c, 0, 64, 0
2, 384828, Note_on_c, 0, 59, 75
2, 384835, Note_on_c, 0, 56, 76
2, 384837, Note_off_c, 0, 61, 64
2, 384840, Note_on_c, 0, 44, 61
2, 384843, Note_off_c, 0, 39, 64
2, 384870, Control_c, 0, 64, 127
2, 384929, Note_off_c, 0, 59, 64
2, 384967, Note_off_c, 0, 51, 64
2, 384970, Note_off_c, 0, 56, 64
2, 384989, Note_off_c, 0, 44, 64
2, 385015, Note_off_c, 0, 63, 64
2, 385056, Control_c, 0, 64, 0
2, 385091, Note_on_c, 0, 64, 76
2, 385118, Control_c, 0, 64, 127
2, 385199, Note_off_c, 0, 64, 64
2, 385267, Note_on_c, 0, 63, 60
2, 385273, Note_on_c, 0, 51, 48
2, 385274, Note_on_c, 0, 39, 44
2, 385279, Control_c, 0, 64, 0
2, 385327, Control_c, 0, 64, 127
2, 385401, Note_on_c, 0, 59, 52
2, 385406, Note_on_c, 0, 56, 54
2, 385436, Note_off_c, 0, 59, 64
2, 385453, Note_on_c, 0, 58, 42
2, 385457, Note_on_c, 0, 55, 51
2, 385466, Note_off_c, 0, 56, 64
2, 385479, Note_off_c, 0, 58, 64
2, 385482, Note_off_c, 0, 55, 64
2, 385512, Note_on_c, 0, 58, 59
2, 385512, Note_on_c, 0, 55, 51
2, 385534, Note_off_c, 0, 58, 64
2, 385543, Note_off_c, 0, 55, 64
2, 385559, Note_on_c, 0, 61, 55
2, 385562, Note_on_c, 0, 58, 59
2, 385612, Control_c, 0, 64, 0
2, 385619, Note_off_c, 0, 58, 64
2, 385634, Note_on_c, 0, 56, 58
2, 385634, Note_on_c, 0, 44, 50
2, 385637, Note_on_c, 0, 59, 54
2, 385638, Note_off_c, 0, 61, 64
2, 385640, Note_off_c, 0, 39, 64
2, 385654, Control_c, 0, 64, 127
2, 385692, Note_off_c, 0, 59, 64
2, 385714, Note_off_c, 0, 51, 64
2, 385747, Note_off_c, 0, 63, 64
2, 385762, Note_on_c, 0, 66, 73
2, 385764, Note_off_c, 0, 56, 64
2, 385773, Note_off_c, 0, 44, 64
2, 385793, Control_c, 0, 64, 0
2, 385874, Note_on_c, 0, 64, 69
2, 385878, Note_off_c, 0, 66, 64
2, 386009, Note_off_c, 0, 64, 64
2, 386013, Note_on_c, 0, 63, 50
2, 386013, Note_on_c, 0, 39, 43
2, 386016, Note_on_c, 0, 51, 41
2, 386035, Control_c, 0, 64, 127
2, 386160, Note_on_c, 0, 56, 48
2, 386166, Note_on_c, 0, 59, 45
2, 386201, Note_off_c, 0, 59, 64
2, 386212, Note_off_c, 0, 56, 64
2, 386215, Note_on_c, 0, 58, 47
2, 386219, Note_on_c, 0, 55, 43
2, 386240, Note_off_c, 0, 58, 64
2, 386242, Note_off_c, 0, 55, 64
2, 386268, Note_on_c, 0, 58, 44
2, 386270, Note_on_c, 0, 55, 41
2, 386288, Note_off_c, 0, 58, 64
2, 386296, Note_off_c, 0, 55, 64
2, 386320, Note_on_c, 0, 58, 54
2, 386322, Note_on_c, 0, 61, 41
2, 386359, Note_off_c, 0, 58, 64
2, 386370, Control_c, 0, 64, 0
2, 386379, Note_off_c, 0, 61, 64
2, 386388, Note_on_c, 0, 59, 40
2, 386390, Note_on_c, 0, 56, 52
2, 386394, Note_on_c, 0, 44, 36
2, 386401, Note_off_c, 0, 39, 64
2, 386423, Control_c, 0, 64, 127
2, 386459, Note_off_c, 0, 59, 64
2, 386495, Note_off_c, 0, 51, 64
2, 386523, Note_on_c, 0, 68, 71
2, 386528, Note_off_c, 0, 63, 64
2, 386530, Note_off_c, 0, 44, 64
2, 386534, Note_off_c, 0, 56, 64
2, 386534, Control_c, 0, 64, 0
2, 386642, Note_on_c, 0, 66, 73
2, 386651, Note_off_c, 0, 68, 64
2, 386772, Note_on_c, 0, 64, 76
2, 386776, Note_off_c, 0, 66, 64
2, 386911, Note_on_c, 0, 63, 76
2, 386916, Note_off_c, 0, 64, 64
2, 387072, Note_on_c, 0, 51, 105
2, 387080, Note_on_c, 0, 39, 105
2, 387084, Note_on_c, 0, 27, 105
2, 387144, Note_off_c, 0, 51, 64
2, 387155, Note_off_c, 0, 39, 64
2, 387204, Note_off_c, 0, 27, 64
2, 387224, Note_on_c, 0, 32, 105
2, 387231, Note_on_c, 0, 56, 105
2, 387234, Note_on_c, 0, 44, 105
2, 387235, Note_off_c, 0, 63, 64
2, 387344, Note_off_c, 0, 32, 64
2, 387379, Note_off_c, 0, 44, 64
2, 387379, Note_off_c, 0, 56, 64
2, 389456, Note_on_c, 0, 70, 59
2, 389456, Note_on_c, 0, 66, 34
2, 389460, Note_on_c, 0, 42, 37
2, 389461, Note_on_c, 0, 61, 33
2, 389571, Control_c, 0, 64, 127
2, 389744, Note_on_c, 0, 53, 21
2, 389753, Note_off_c, 0, 42, 64
2, 389957, Note_on_c, 0, 56, 16
2, 390039, Note_off_c, 0, 53, 64
2, 390130, Note_on_c, 0, 54, 21
2, 390164, Note_off_c, 0, 56, 64
2, 390345, Note_on_c, 0, 58, 25
2, 390356, Note_off_c, 0, 54, 64
2, 390599, Note_off_c, 0, 58, 64
2, 390600, Note_on_c, 0, 49, 21
2, 390702, Note_off_c, 0, 66, 64
2, 390705, Note_off_c, 0, 70, 64
2, 390712, Note_off_c, 0, 61, 64
2, 390788, Note_off_c, 0, 49, 64
2, 390792, Note_on_c, 0, 70, 54
2, 390792, Note_on_c, 0, 66, 40
2, 390792, Note_on_c, 0, 61, 31
2, 390796, Note_on_c, 0, 42, 35
2, 390865, Control_c, 0, 64, 127
2, 391001, Note_on_c, 0, 53, 24
2, 391016, Note_off_c, 0, 42, 64
2, 391175, Note_on_c, 0, 56, 28
2, 391221, Note_off_c, 0, 53, 64
2, 391330, Note_on_c, 0, 54, 25
2, 391355, Note_off_c, 0, 56, 64
2, 391525, Note_on_c, 0, 58, 16
2, 391531, Note_off_c, 0, 54, 64
2, 391713, Note_off_c, 0, 58, 64
2, 391716, Note_on_c, 0, 49, 26
2, 391813, Note_off_c, 0, 61, 64
2, 391828, Note_off_c, 0, 66, 64
2, 391848, Note_off_c, 0, 70, 64
2, 392008, Note_on_c, 0, 66, 43
2, 392008, Note_on_c, 0, 61, 26
2, 392012, Note_on_c, 0, 70, 45
2, 392015, Note_on_c, 0, 42, 33
2, 392054, Control_c, 0, 64, 0
2, 392063, Note_off_c, 0, 49, 64
2, 392190, Control_c, 0, 64, 127
2, 392281, Note_on_c, 0, 53, 21
2, 392288, Note_off_c, 0, 42, 64
2, 392456, Note_on_c, 0, 56, 23
2, 392522, Note_off_c, 0, 53, 64
2, 392597, Note_on_c, 0, 54, 16
2, 392615, Note_off_c, 0, 56, 64
2, 392787, Note_off_c, 0, 54, 64
2, 392802, Note_on_c, 0, 58, 18
2, 392907, Note_off_c, 0, 70, 64
2, 392947, Note_off_c, 0, 58, 64
2, 392983, Note_on_c, 0, 49, 21
2, 393100, Note_off_c, 0, 61, 64
2, 393111, Note_off_c, 0, 49, 64
2, 393120, Note_off_c, 0, 66, 64
2, 393208, Note_on_c, 0, 71, 46
2, 393211, Note_on_c, 0, 37, 33
2, 393212, Note_on_c, 0, 65, 33
2, 393233, Control_c, 0, 64, 0
2, 393315, Control_c, 0, 64, 127
2, 393384, Note_off_c, 0, 37, 64
2, 393511, Note_on_c, 0, 55, 23
2, 393710, Note_on_c, 0, 58, 21
2, 393754, Note_off_c, 0, 55, 64
2, 393900, Note_on_c, 0, 56, 18
2, 393931, Note_off_c, 0, 58, 64
2, 394028, Note_off_c, 0, 71, 64
2, 394157, Note_off_c, 0, 65, 64
2, 394176, Note_on_c, 0, 68, 26
2, 394179, Note_on_c, 0, 59, 23
2, 394203, Note_off_c, 0, 56, 64
2, 394436, Note_on_c, 0, 49, 25
2, 394450, Note_off_c, 0, 59, 64
2, 394694, Note_off_c, 0, 68, 64
2, 394784, Note_on_c, 0, 66, 31
2, 394790, Note_on_c, 0, 42, 24
2, 394792, Note_on_c, 0, 61, 30
2, 394795, Note_on_c, 0, 70, 44
2, 394800, Note_off_c, 0, 49, 64
2, 394814, Control_c, 0, 64, 0
2, 394943, Control_c, 0, 64, 127
2, 395016, Note_on_c, 0, 53, 21
2, 395038, Note_off_c, 0, 42, 64
2, 395217, Note_on_c, 0, 56, 21
2, 395291, Note_off_c, 0, 53, 64
2, 395360, Note_on_c, 0, 54, 25
2, 395389, Note_off_c, 0, 56, 64
2, 395526, Note_on_c, 0, 58, 30
2, 395552, Note_off_c, 0, 54, 64
2, 395684, Note_off_c, 0, 58, 64
2, 395684, Note_on_c, 0, 49, 26
2, 395693, Note_off_c, 0, 70, 64
2, 395712, Note_off_c, 0, 66, 64
2, 395732, Note_off_c, 0, 61, 64
2, 395836, Note_on_c, 0, 61, 23
2, 395836, Note_on_c, 0, 42, 26
2, 395840, Note_on_c, 0, 70, 42
2, 395840, Note_on_c, 0, 66, 34
2, 395860, Control_c, 0, 64, 0
2, 395909, Note_off_c, 0, 49, 64
2, 395964, Control_c, 0, 64, 127
2, 395974, Note_off_c, 0, 42, 64
2, 396002, Note_on_c, 0, 53, 25
2, 396137, Note_on_c, 0, 56, 26
2, 396182, Note_off_c, 0, 53, 64
2, 396252, Note_on_c, 0, 54, 27
2, 396262, Note_off_c, 0, 66, 64
2, 396274, Note_off_c, 0, 56, 64
2, 396312, Note_off_c, 0, 70, 64
2, 396397, Note_off_c, 0, 54, 64
2, 396400, Note_on_c, 0, 70, 49
2, 396403, Note_on_c, 0, 66, 36
2, 396403, Note_on_c, 0, 58, 14
2, 396552, Note_on_c, 0, 49, 18
2, 396609, Note_off_c, 0, 66, 64
2, 396640, Note_off_c, 0, 70, 64
2, 396643, Note_off_c, 0, 58, 64
2, 396652, Note_off_c, 0, 61, 64
2, 396719, Control_c, 0, 64, 0
2, 396731, Note_on_c, 0, 61, 34
2, 396732, Note_on_c, 0, 70, 42
2, 396737, Note_on_c, 0, 66, 39
2, 396737, Note_on_c, 0, 42, 23
2, 396764, Note_off_c, 0, 49, 64
2, 396866, Note_on_c, 0, 53, 16
2, 396871, Control_c, 0, 64, 127
2, 396881, Note_off_c, 0, 42, 64
2, 396935, Note_off_c, 0, 66, 64
2, 396944, Note_on_c, 0, 71, 51
2, 396947, Note_on_c, 0, 68, 27
2, 396955, Note_off_c, 0, 70, 64
2, 397007, Note_off_c, 0, 61, 64
2, 397040, Note_on_c, 0, 56, 25
2, 397084, Note_off_c, 0, 53, 64
2, 397095, Note_off_c, 0, 71, 64
2, 397107, Note_on_c, 0, 70, 51
2, 397107, Note_on_c, 0, 66, 48
2, 397129, Note_off_c, 0, 68, 64
2, 397167, Note_on_c, 0, 54, 29
2, 397196, Note_off_c, 0, 56, 64
2, 397257, Note_on_c, 0, 68, 51
2, 397260, Note_on_c, 0, 65, 42
2, 397271, Note_off_c, 0, 70, 64
2, 397280, Note_off_c, 0, 66, 64
2, 397308, Note_off_c, 0, 54, 64
2, 397315, Note_on_c, 0, 58, 14
2, 397418, Note_off_c, 0, 65, 64
2, 397420, Note_on_c, 0, 70, 45
2, 397420, Note_on_c, 0, 66, 48
2, 397440, Note_off_c, 0, 68, 64
2, 397516, Note_on_c, 0, 49, 31
2, 397576, Note_off_c, 0, 58, 64
2, 397634, Note_off_c, 0, 66, 64
2, 397634, Note_off_c, 0, 70, 64
2, 397653, Control_c, 0, 64, 0
2, 397664, Note_on_c, 0, 37, 24
2, 397673, Note_on_c, 0, 65, 38
2, 397676, Note_on_c, 0, 73, 43
2, 397676, Note_on_c, 0, 70, 44
2, 397684, Note_off_c, 0, 49, 64
2, 397742, Control_c, 0, 64, 127
2, 397810, Note_off_c, 0, 37, 64
2, 397931, Note_on_c, 0, 55, 26
2, 398164, Note_on_c, 0, 68, 44
2, 398168, Note_on_c, 0, 58, 23
2, 398171, Note_on_c, 0, 71, 48
2, 398190, Note_off_c, 0, 73, 64
2, 398194, Note_off_c, 0, 70, 64
2, 398204, Note_off_c, 0, 65, 64
2, 398211, Note_off_c, 0, 55, 64
2, 398361, Note_on_c, 0, 56, 25
2, 398410, Note_off_c, 0, 58, 64
2, 398478, Note_off_c, 0, 71, 64
2, 398511, Note_off_c, 0, 68, 64
2, 398550, Note_on_c, 0, 59, 21
2, 398559, Note_off_c, 0, 56, 64
2, 398628, Control_c, 0, 64, 0
2, 398783, Note_on_c, 0, 68, 48
2, 398784, Note_on_c, 0, 61, 34
2, 398788, Note_on_c, 0, 49, 16
2, 398808, Note_off_c, 0, 59, 64
2, 398817, Control_c, 0, 64, 127
2, 399008, Note_off_c, 0, 61, 64
2, 399049, Note_off_c, 0, 68, 64
2, 399088, Note_on_c, 0, 70, 39
2, 399088, Note_on_c, 0, 61, 30
2, 399092, Note_on_c, 0, 66, 39
2, 399092, Note_on_c, 0, 42, 26
2, 399116, Note_off_c, 0, 49, 64
2, 399131, Control_c, 0, 64, 0
2, 399222, Control_c, 0, 64, 127
2, 399316, Note_off_c, 0, 42, 64
2, 399317, Note_on_c, 0, 53, 16
2, 399469, Note_on_c, 0, 56, 27
2, 399511, Note_off_c, 0, 53, 64
2, 399601, Note_on_c, 0, 54, 23
2, 399618, Note_off_c, 0, 56, 64
2, 399745, Note_off_c, 0, 54, 64
2, 399747, Note_on_c, 0, 58, 25
2, 399881, Note_off_c, 0, 70, 64
2, 399887, Note_on_c, 0, 49, 19
2, 399889, Note_off_c, 0, 58, 64
2, 399893, Note_off_c, 0, 66, 64
2, 399922, Note_off_c, 0, 61, 64
2, 400056, Note_on_c, 0, 70, 47
2, 400056, Note_on_c, 0, 61, 35
2, 400059, Note_on_c, 0, 42, 25
2, 400064, Note_on_c, 0, 73, 59
2, 400108, Control_c, 0, 64, 0
2, 400122, Note_off_c, 0, 49, 64
2, 400231, Control_c, 0, 64, 127
2, 400275, Note_on_c, 0, 53, 18
2, 400281, Note_off_c, 0, 42, 64
2, 400426, Note_on_c, 0, 56, 28
2, 400465, Note_off_c, 0, 53, 64
2, 400562, Note_off_c, 0, 56, 64
2, 400562, Note_on_c, 0, 54, 23
2, 400675, Note_off_c, 0, 61, 64
2, 400706, Note_off_c, 0, 54, 64
2, 400712, Note_on_c, 0, 58, 16
2, 400788, Note_off_c, 0, 70, 64
2, 400794, Note_off_c, 0, 73, 64
2, 400864, Note_off_c, 0, 58, 64
2, 400882, Note_on_c, 0, 49, 16
2, 401048, Note_on_c, 0, 66, 60
2, 401054, Note_on_c, 0, 39, 37
2, 401056, Note_on_c, 0, 70, 45
2, 401064, Note_on_c, 0, 78, 55
2, 401075, Note_off_c, 0, 49, 64
2, 401098, Control_c, 0, 64, 0
2, 401183, Control_c, 0, 64, 127
2, 401240, Note_on_c, 0, 57, 25
2, 401249, Note_off_c, 0, 39, 64
2, 401443, Note_off_c, 0, 57, 64
2, 401444, Note_on_c, 0, 60, 23
2, 401609, Note_off_c, 0, 60, 64
2, 401672, Note_on_c, 0, 58, 23
2, 401822, Note_off_c, 0, 58, 64
2, 401857, Note_on_c, 0, 63, 25
2, 401935, Note_off_c, 0, 78, 64
2, 402008, Note_off_c, 0, 63, 64
2, 402030, Note_on_c, 0, 54, 12
2, 402039, Note_off_c, 0, 66, 64
2, 402067, Note_off_c, 0, 70, 64
2, 402263, Note_off_c, 0, 54, 64
2, 402280, Note_on_c, 0, 77, 51
2, 402280, Note_on_c, 0, 68, 44
2, 402286, Note_on_c, 0, 44, 32
2, 402288, Note_on_c, 0, 73, 38
2, 402364, Control_c, 0, 64, 0
2, 402492, Control_c, 0, 64, 127
2, 402538, Note_on_c, 0, 55, 29
2, 402551, Note_off_c, 0, 44, 64
2, 402679, Note_on_c, 0, 58, 30
2, 402693, Note_off_c, 0, 55, 64
2, 402818, Note_on_c, 0, 56, 25
2, 402831, Note_off_c, 0, 58, 64
2, 402960, Note_off_c, 0, 73, 64
2, 402976, Note_on_c, 0, 61, 23
2, 402998, Note_off_c, 0, 56, 64
2, 403106, Note_off_c, 0, 77, 64
2, 403156, Note_off_c, 0, 61, 64
2, 403160, Note_on_c, 0, 53, 25
2, 403163, Note_off_c, 0, 68, 64
2, 403319, Note_off_c, 0, 53, 64
2, 403336, Note_on_c, 0, 44, 24
2, 403368, Note_on_c, 0, 66, 39
2, 403431, Control_c, 0, 64, 0
2, 403440, Note_on_c, 0, 68, 54
2, 403504, Note_on_c, 0, 77, 45
2, 403547, Control_c, 0, 64, 127
2, 403575, Note_on_c, 0, 75, 56
2, 403595, Note_off_c, 0, 77, 64
2, 403620, Note_on_c, 0, 55, 31
2, 403663, Note_off_c, 0, 44, 64
2, 403788, Note_on_c, 0, 58, 21
2, 403824, Note_off_c, 0, 55, 64
2, 403916, Note_on_c, 0, 56, 27
2, 403921, Note_off_c, 0, 58, 64
2, 404084, Note_on_c, 0, 60, 23
2, 404089, Note_off_c, 0, 56, 64
2, 404240, Note_on_c, 0, 51, 21
2, 404286, Note_off_c, 0, 66, 64
2, 404347, Note_off_c, 0, 75, 64
2, 404400, Note_off_c, 0, 68, 64
2, 404413, Note_off_c, 0, 51, 64
2, 404416, Note_off_c, 0, 60, 64
2, 404430, Note_on_c, 0, 73, 35
2, 404432, Note_on_c, 0, 68, 42
2, 404432, Note_on_c, 0, 65, 18
2, 404437, Note_on_c, 0, 49, 22
2, 404458, Control_c, 0, 64, 0
2, 404556, Control_c, 0, 64, 127
2, 404704, Note_on_c, 0, 55, 27
2, 404900, Note_off_c, 0, 55, 64
2, 404944, Note_on_c, 0, 58, 23
2, 405143, Note_off_c, 0, 58, 64
2, 405144, Note_on_c, 0, 56, 30
2, 405310, Note_off_c, 0, 56, 64
2, 405337, Note_on_c, 0, 61, 29
2, 405346, Control_c, 0, 64, 0
2, 405420, Note_off_c, 0, 73, 64
2, 405422, Note_off_c, 0, 68, 64
2, 405457, Note_off_c, 0, 49, 64
2, 405501, Note_off_c, 0, 65, 64
2, 405512, Note_on_c, 0, 53, 27
2, 405541, Note_off_c, 0, 61, 64
2, 405676, Note_on_c, 0, 56, 34
2, 405687, Control_c, 0, 64, 127
2, 405694, Note_off_c, 0, 53, 64
2, 405835, Note_on_c, 0, 54, 26
2, 405849, Note_off_c, 0, 56, 64
2, 405945, Control_c, 0, 64, 0
2, 406011, Note_on_c, 0, 59, 29
2, 406063, Note_off_c, 0, 54, 64
2, 406205, Note_on_c, 0, 51, 27
2, 406260, Note_off_c, 0, 59, 64
2, 406389, Note_on_c, 0, 54, 34
2, 406434, Note_off_c, 0, 51, 64
2, 406561, Note_off_c, 0, 54, 64
2, 406563, Note_on_c, 0, 53, 26
2, 406735, Note_on_c, 0, 58, 24
2, 406756, Note_off_c, 0, 53, 64
2, 406846, Control_c, 0, 64, 127
2, 406917, Note_on_c, 0, 49, 22
2, 406947, Note_off_c, 0, 58, 64
2, 407122, Note_on_c, 0, 58, 19
2, 407159, Note_off_c, 0, 49, 64
2, 407320, Note_on_c, 0, 47, 21
2, 407399, Note_off_c, 0, 58, 64
2, 407432, Control_c, 0, 64, 0
2, 407540, Note_on_c, 0, 58, 13
2, 407561, Note_off_c, 0, 47, 64
2, 407827, Note_on_c, 0, 56, 14
2, 407849, Control_c, 0, 64, 127
2, 407861, Note_off_c, 0, 58, 64
2, 408024, Note_off_c, 0, 56, 64
2, 408092, Note_on_c, 0, 58, 20
2, 408272, Note_on_c, 0, 61, 17
2, 408278, Note_on_c, 0, 42, 24
2, 408280, Note_on_c, 0, 70, 31
2, 408280, Note_on_c, 0, 66, 38
2, 408311, Control_c, 0, 64, 0
2, 408371, Note_off_c, 0, 58, 64
2, 408444, Control_c, 0, 64, 127
2, 408591, Note_off_c, 0, 42, 64
2, 408597, Note_on_c, 0, 53, 18
2, 408763, Note_on_c, 0, 56, 22
2, 408794, Note_off_c, 0, 53, 64
2, 408886, Note_on_c, 0, 54, 21
2, 408904, Note_off_c, 0, 56, 64
2, 409018, Note_on_c, 0, 58, 21
2, 409020, Note_off_c, 0, 54, 64
2, 409155, Note_off_c, 0, 58, 64
2, 409164, Note_on_c, 0, 49, 19
2, 409214, Note_off_c, 0, 61, 64
2, 409222, Note_off_c, 0, 66, 64
2, 409222, Note_off_c, 0, 70, 64
2, 409289, Control_c, 0, 64, 0
2, 409336, Note_on_c, 0, 66, 31
2, 409344, Note_on_c, 0, 61, 31
2, 409346, Note_on_c, 0, 42, 35
2, 409352, Note_on_c, 0, 70, 48
2, 409383, Note_off_c, 0, 49, 64
2, 409488, Control_c, 0, 64, 127
2, 409543, Note_on_c, 0, 53, 28
2, 409557, Note_off_c, 0, 42, 64
2, 409685, Note_on_c, 0, 56, 16
2, 409715, Note_off_c, 0, 53, 64
2, 409807, Note_on_c, 0, 54, 21
2, 409809, Note_off_c, 0, 56, 64
2, 409929, Note_off_c, 0, 54, 64
2, 409935, Note_on_c, 0, 58, 29
2, 410081, Note_on_c, 0, 49, 27
2, 410087, Note_off_c, 0, 58, 64
2, 410278, Note_off_c, 0, 66, 64
2, 410286, Note_off_c, 0, 61, 64
2, 410294, Note_off_c, 0, 70, 64
2, 410298, Note_on_c, 0, 42, 31
2, 410360, Control_c, 0, 64, 0
2, 410370, Note_on_c, 0, 70, 51
2, 410376, Note_on_c, 0, 61, 34
2, 410380, Note_on_c, 0, 66, 45
2, 410388, Note_off_c, 0, 49, 64
2, 410508, Control_c, 0, 64, 127
2, 410571, Note_on_c, 0, 53, 23
2, 410594, Note_off_c, 0, 42, 64
2, 410726, Note_on_c, 0, 56, 29
2, 410760, Note_off_c, 0, 53, 64
2, 410843, Note_on_c, 0, 54, 27
2, 410861, Note_off_c, 0, 56, 64
2, 410981, Note_off_c, 0, 54, 64
2, 410987, Note_on_c, 0, 58, 24
2, 411123, Note_off_c, 0, 58, 64
2, 411137, Note_on_c, 0, 49, 20
2, 411232, Note_off_c, 0, 49, 64
2, 411310, Note_off_c, 0, 70, 64
2, 411313, Note_on_c, 0, 71, 46
2, 411318, Note_off_c, 0, 61, 64
2, 411320, Note_off_c, 0, 66, 64
2, 411321, Note_on_c, 0, 65, 45
2, 411327, Note_on_c, 0, 37, 37
2, 411331, Control_c, 0, 64, 0
2, 411408, Control_c, 0, 64, 127
2, 411449, Note_off_c, 0, 37, 64
2, 411545, Note_on_c, 0, 55, 21
2, 411683, Note_on_c, 0, 58, 32
2, 411728, Note_off_c, 0, 55, 64
2, 411811, Note_on_c, 0, 56, 29
2, 411849, Note_off_c, 0, 58, 64
2, 412000, Note_on_c, 0, 59, 23
2, 412003, Note_off_c, 0, 56, 64
2, 412174, Note_off_c, 0, 71, 64
2, 412197, Note_on_c, 0, 49, 35
2, 412206, Note_off_c, 0, 59, 64
2, 412288, Note_on_c, 0, 68, 45
2, 412303, Note_off_c, 0, 65, 64
2, 412464, Note_on_c, 0, 70, 33
2, 412472, Note_on_c, 0, 66, 43
2, 412477, Note_off_c, 0, 68, 64
2, 412480, Note_on_c, 0, 61, 30
2, 412484, Note_on_c, 0, 42, 18
2, 412497, Note_off_c, 0, 49, 64
2, 412501, Control_c, 0, 64, 0
2, 412645, Control_c, 0, 64, 127
2, 412718, Note_on_c, 0, 53, 23
2, 412732, Note_off_c, 0, 42, 64
2, 412878, Note_on_c, 0, 56, 23
2, 412923, Note_off_c, 0, 53, 64
2, 412998, Note_on_c, 0, 54, 25
2, 413024, Note_off_c, 0, 56, 64
2, 413130, Note_off_c, 0, 54, 64
2, 413144, Note_on_c, 0, 58, 31
2, 413286, Note_on_c, 0, 49, 23
2, 413294, Note_off_c, 0, 58, 64
2, 413337, Note_off_c, 0, 61, 64
2, 413344, Note_off_c, 0, 66, 64
2, 413354, Note_off_c, 0, 70, 64
2, 413487, Control_c, 0, 64, 0
2, 413505, Note_on_c, 0, 42, 18
2, 413508, Note_on_c, 0, 70, 32
2, 413512, Note_on_c, 0, 66, 22
2, 413512, Note_on_c, 0, 61, 40
2, 413536, Note_off_c, 0, 49, 64
2, 413660, Control_c, 0, 64, 127
2, 413700, Note_on_c, 0, 53, 16
2, 413702, Note_off_c, 0, 42, 64
2, 413863, Note_on_c, 0, 56, 16
2, 413889, Note_off_c, 0, 53, 64
2, 413957, Note_off_c, 0, 66, 64
2, 413962, Note_off_c, 0, 70, 64
2, 413967, Note_off_c, 0, 61, 64
2, 413997, Note_on_c, 0, 61, 50
2, 414000, Note_on_c, 0, 70, 28
2, 414006, Note_on_c, 0, 66, 28
2, 414012, Note_on_c, 0, 54, 16
2, 414019, Note_off_c, 0, 56, 64
2, 414094, Note_off_c, 0, 66, 64
2, 414098, Note_off_c, 0, 70, 64
2, 414102, Note_off_c, 0, 61, 64
2, 414156, Note_on_c, 0, 70, 35
2, 414156, Note_on_c, 0, 61, 50
2, 414163, Note_on_c, 0, 66, 35
2, 414217, Note_off_c, 0, 61, 64
2, 414224, Note_off_c, 0, 66, 64
2, 414231, Note_off_c, 0, 70, 64
2, 414260, Note_on_c, 0, 58, 23
2, 414285, Note_off_c, 0, 54, 64
2, 414292, Note_on_c, 0, 70, 42
2, 414294, Note_on_c, 0, 61, 50
2, 414300, Note_on_c, 0, 66, 43
2, 414356, Note_off_c, 0, 61, 64
2, 414363, Note_off_c, 0, 66, 64
2, 414367, Note_off_c, 0, 70, 64
2, 414416, Note_on_c, 0, 61, 50
2, 414422, Note_on_c, 0, 70, 49
2, 414425, Note_on_c, 0, 66, 50
2, 414431, Note_off_c, 0, 58, 64
2, 414459, Note_on_c, 0, 49, 18
2, 414495, Note_off_c, 0, 61, 64
2, 414504, Note_off_c, 0, 66, 64
2, 414504, Note_off_c, 0, 70, 64
2, 414536, Note_on_c, 0, 70, 59
2, 414548, Note_on_c, 0, 66, 59
2, 414560, Note_on_c, 0, 61, 50
2, 414608, Note_off_c, 0, 70, 64
2, 414609, Control_c, 0, 64, 0
2, 414617, Note_off_c, 0, 66, 64
2, 414625, Note_off_c, 0, 61, 64
2, 414656, Note_on_c, 0, 70, 60
2, 414656, Note_on_c, 0, 61, 50
2, 414668, Note_on_c, 0, 66, 63
2, 414668, Note_on_c, 0, 42, 33
2, 414737, Note_off_c, 0, 49, 64
2, 414853, Control_c, 0, 64, 127
2, 414910, Note_off_c, 0, 42, 64
2, 414957, Note_on_c, 0, 53, 33
2, 414961, Note_off_c, 0, 70, 64
2, 414979, Note_off_c, 0, 61, 64
2, 414990, Note_off_c, 0, 66, 64
2, 415104, Note_on_c, 0, 71, 58
2, 415104, Note_on_c, 0, 68, 46
2, 415108, Note_on_c, 0, 56, 28
2, 415172, Note_off_c, 0, 53, 64
2, 415280, Note_on_c, 0, 54, 23
2, 415286, Note_off_c, 0, 71, 64
2, 415287, Note_off_c, 0, 68, 64
2, 415287, Note_on_c, 0, 70, 61
2, 415292, Note_off_c, 0, 56, 64
2, 415292, Note_on_c, 0, 66, 60
2, 415409, Note_off_c, 0, 54, 64
2, 415432, Note_on_c, 0, 65, 37
2, 415432, Note_on_c, 0, 58, 41
2, 415436, Note_on_c, 0, 68, 55
2, 415455, Note_off_c, 0, 70, 64
2, 415463, Note_off_c, 0, 66, 64
2, 415569, Note_off_c, 0, 65, 64
2, 415570, Note_on_c, 0, 70, 61
2, 415579, Note_on_c, 0, 66, 48
2, 415584, Note_on_c, 0, 49, 30
2, 415592, Note_off_c, 0, 68, 64
2, 415592, Note_off_c, 0, 58, 64
2, 415676, Note_off_c, 0, 49, 64
2, 415736, Note_off_c, 0, 70, 64
2, 415773, Control_c, 0, 64, 0
2, 415776, Note_on_c, 0, 70, 41
2, 415784, Note_on_c, 0, 65, 53
2, 415784, Note_on_c, 0, 37, 38
2, 415791, Note_on_c, 0, 73, 54
2, 415807, Note_off_c, 0, 66, 64
2, 415854, Control_c, 0, 64, 127
2, 415909, Note_off_c, 0, 37, 64
2, 416028, Note_off_c, 0, 70, 64
2, 416032, Note_on_c, 0, 55, 30
2, 416117, Note_off_c, 0, 73, 64
2, 416248, Note_on_c, 0, 68, 43
2, 416251, Note_on_c, 0, 71, 37
2, 416251, Note_on_c, 0, 58, 21
2, 416304, Note_off_c, 0, 65, 64
2, 416312, Note_off_c, 0, 55, 64
2, 416439, Note_on_c, 0, 56, 28
2, 416445, Note_off_c, 0, 71, 64
2, 416448, Note_off_c, 0, 58, 64
2, 416488, Note_off_c, 0, 68, 64
2, 416591, Control_c, 0, 64, 0
2, 416636, Note_on_c, 0, 59, 28
2, 416660, Note_off_c, 0, 56, 64
2, 416695, Control_c, 0, 64, 127
2, 416896, Note_on_c, 0, 68, 46
2, 416897, Note_off_c, 0, 59, 64
2, 416900, Note_on_c, 0, 61, 32
2, 416903, Note_on_c, 0, 49, 32
2, 417128, Note_off_c, 0, 49, 64
2, 417128, Note_off_c, 0, 68, 64
2, 417128, Note_on_c, 0, 61, 32
2, 417136, Note_on_c, 0, 42, 23
2, 417137, Note_on_c, 0, 70, 46
2, 417144, Note_on_c, 0, 64, 35
2, 417146, Control_c, 0, 64, 0
2, 417148, Note_off_c, 0, 61, 64
2, 417272, Control_c, 0, 64, 127
2, 417347, Note_on_c, 0, 53, 27
2, 417407, Note_off_c, 0, 42, 64
2, 417495, Note_on_c, 0, 56, 24
2, 417536, Note_off_c, 0, 53, 64
2, 417613, Note_on_c, 0, 54, 37
2, 417632, Note_off_c, 0, 56, 64
2, 417719, Note_off_c, 0, 61, 64
2, 417742, Note_off_c, 0, 54, 64
2, 417751, Note_on_c, 0, 58, 33
2, 417879, Note_off_c, 0, 58, 64
2, 417880, Note_on_c, 0, 49, 40
2, 417893, Note_off_c, 0, 64, 64
2, 417893, Note_off_c, 0, 70, 64
2, 418074, Control_c, 0, 64, 0
2, 418080, Note_on_c, 0, 70, 66
2, 418080, Note_on_c, 0, 64, 55
2, 418085, Note_on_c, 0, 42, 31
2, 418144, Note_off_c, 0, 49, 64
2, 418249, Control_c, 0, 64, 127
2, 418274, Note_off_c, 0, 42, 64
2, 418279, Note_on_c, 0, 53, 28
2, 418407, Note_on_c, 0, 56, 18
2, 418430, Note_off_c, 0, 53, 64
2, 418523, Note_on_c, 0, 54, 28
2, 418532, Note_off_c, 0, 56, 64
2, 418638, Note_off_c, 0, 54, 64
2, 418658, Note_on_c, 0, 58, 28
2, 418739, Note_off_c, 0, 70, 64
2, 418808, Note_on_c, 0, 49, 33
2, 418811, Note_off_c, 0, 58, 64
2, 418881, Note_off_c, 0, 64, 64
2, 418886, Note_on_c, 0, 71, 77
2, 418983, Control_c, 0, 64, 0
2, 419040, Note_on_c, 0, 70, 67
2, 419040, Note_on_c, 0, 64, 35
2, 419044, Note_on_c, 0, 42, 32
2, 419051, Note_on_c, 0, 73, 50
2, 419060, Note_off_c, 0, 71, 64
2, 419060, Note_off_c, 0, 49, 64
2, 419154, Control_c, 0, 64, 127
2, 419188, Note_on_c, 0, 53, 39
2, 419195, Note_off_c, 0, 42, 64
2, 419322, Note_on_c, 0, 56, 18
2, 419348, Note_off_c, 0, 53, 64
2, 419439, Note_on_c, 0, 54, 34
2, 419461, Note_off_c, 0, 56, 64
2, 419560, Note_off_c, 0, 54, 64
2, 419576, Note_on_c, 0, 58, 32
2, 419692, Note_off_c, 0, 70, 64
2, 419704, Note_on_c, 0, 49, 31
2, 419712, Note_off_c, 0, 58, 64
2, 419735, Note_off_c, 0, 73, 64
2, 419748, Note_off_c, 0, 64, 64
2, 419897, Control_c, 0, 64, 0
2, 419909, Note_on_c, 0, 70, 64
2, 419909, Note_on_c, 0, 64, 53
2, 419912, Note_on_c, 0, 75, 69
2, 419914, Note_on_c, 0, 42, 26
2, 419960, Note_off_c, 0, 49, 64
2, 420029, Control_c, 0, 64, 127
2, 420044, Note_off_c, 0, 42, 64
2, 420049, Note_on_c, 0, 53, 32
2, 420177, Note_on_c, 0, 56, 21
2, 420206, Note_off_c, 0, 53, 64
2, 420308, Note_on_c, 0, 54, 23
2, 420321, Note_off_c, 0, 56, 64
2, 420429, Note_off_c, 0, 54, 64
2, 420448, Note_on_c, 0, 58, 33
2, 420605, Note_on_c, 0, 49, 35
2, 420641, Note_off_c, 0, 58, 64
2, 420686, Note_on_c, 0, 73, 65
2, 420687, Note_off_c, 0, 75, 64
2, 420703, Note_off_c, 0, 70, 64
2, 420734, Note_off_c, 0, 64, 64
2, 420761, Note_off_c, 0, 73, 64
2, 420856, Note_on_c, 0, 73, 60
2, 420857, Note_off_c, 0, 49, 64
2, 420857, Note_on_c, 0, 47, 38
2, 420862, Note_on_c, 0, 70, 54
2, 420864, Note_on_c, 0, 63, 33
2, 420914, Control_c, 0, 64, 0
2, 421053, Note_on_c, 0, 54, 35
2, 421200, Note_on_c, 0, 56, 35
2, 421205, Note_off_c, 0, 54, 64
2, 421335, Note_off_c, 0, 56, 64
2, 421353, Note_on_c, 0, 55, 34
2, 421510, Note_on_c, 0, 58, 36
2, 421532, Note_off_c, 0, 55, 64
2, 421602, Control_c, 0, 64, 127
2, 421711, Note_on_c, 0, 49, 26
2, 421792, Note_off_c, 0, 47, 64
2, 421809, Note_off_c, 0, 63, 64
2, 421829, Note_off_c, 0, 73, 64
2, 421832, Control_c, 0, 64, 0
2, 421848, Note_off_c, 0, 70, 64
2, 421851, Note_off_c, 0, 58, 64
2, 421868, Note_off_c, 0, 49, 64
2, 421868, Note_on_c, 0, 49, 26
2, 421896, Note_on_c, 0, 68, 23
2, 421900, Note_on_c, 0, 71, 46
2, 421900, Note_on_c, 0, 63, 48
2, 421907, Note_on_c, 0, 47, 32
2, 421916, Note_off_c, 0, 49, 64
2, 422153, Note_on_c, 0, 55, 22
2, 422211, Control_c, 0, 64, 127
2, 422289, Note_on_c, 0, 58, 23
2, 422305, Note_off_c, 0, 55, 64
2, 422418, Note_on_c, 0, 56, 29
2, 422434, Note_off_c, 0, 58, 64
2, 422555, Note_off_c, 0, 68, 64
2, 422567, Note_on_c, 0, 59, 29
2, 422579, Note_off_c, 0, 56, 64
2, 422600, Note_off_c, 0, 47, 64
2, 422720, Note_off_c, 0, 71, 64
2, 422720, Note_on_c, 0, 51, 22
2, 422750, Note_off_c, 0, 59, 64
2, 422761, Note_off_c, 0, 63, 64
2, 422825, Note_off_c, 0, 51, 64
2, 422919, Note_on_c, 0, 70, 52
2, 422920, Note_on_c, 0, 67, 42
2, 422923, Note_on_c, 0, 61, 33
2, 422927, Note_on_c, 0, 39, 39
2, 422949, Control_c, 0, 64, 0
2, 423054, Control_c, 0, 64, 127
2, 423160, Note_off_c, 0, 39, 64
2, 423216, Note_on_c, 0, 50, 29
2, 423361, Note_on_c, 0, 52, 32
2, 423371, Note_off_c, 0, 50, 64
2, 423488, Note_off_c, 0, 61, 64
2, 423488, Note_off_c, 0, 67, 64
2, 423488, Note_off_c, 0, 70, 64
2, 423498, Note_on_c, 0, 51, 31
2, 423500, Note_off_c, 0, 52, 64
2, 423668, Note_off_c, 0, 51, 64
2, 423672, Note_on_c, 0, 55, 31
2, 423823, Note_on_c, 0, 46, 25
2, 423880, Note_off_c, 0, 55, 64
2, 423993, Note_on_c, 0, 68, 26
2, 424001, Note_on_c, 0, 59, 35
2, 424002, Note_on_c, 0, 71, 45
2, 424007, Note_off_c, 0, 46, 64
2, 424009, Note_on_c, 0, 44, 35
2, 424025, Control_c, 0, 64, 0
2, 424153, Control_c, 0, 64, 127
2, 424165, Note_on_c, 0, 50, 32
2, 424316, Note_on_c, 0, 52, 35
2, 424322, Note_off_c, 0, 50, 64
2, 424439, Note_off_c, 0, 52, 64
2, 424468, Note_on_c, 0, 51, 33
2, 424626, Note_on_c, 0, 56, 27
2, 424630, Note_off_c, 0, 51, 64
2, 424635, Note_off_c, 0, 44, 64
2, 424777, Note_off_c, 0, 59, 64
2, 424816, Note_off_c, 0, 68, 64
2, 424846, Note_off_c, 0, 56, 64
2, 424846, Note_on_c, 0, 44, 21
2, 424937, Note_off_c, 0, 71, 64
2, 424959, Note_on_c, 0, 63, 35
2, 424989, Note_off_c, 0, 44, 64
2, 425092, Note_on_c, 0, 68, 48
2, 425096, Note_on_c, 0, 65, 43
2, 425100, Note_on_c, 0, 59, 30
2, 425100, Note_on_c, 0, 37, 37
2, 425262, Note_off_c, 0, 63, 64
2, 425272, Control_c, 0, 64, 0
2, 425324, Note_on_c, 0, 48, 29
2, 425556, Note_on_c, 0, 51, 26
2, 425594, Note_off_c, 0, 48, 64
2, 425760, Note_on_c, 0, 49, 23
2, 425795, Note_off_c, 0, 51, 64
2, 425939, Note_on_c, 0, 53, 29
2, 425945, Note_off_c, 0, 49, 64
2, 426008, Note_off_c, 0, 37, 64
2, 426165, Note_on_c, 0, 44, 28
2, 426192, Note_off_c, 0, 53, 64
2, 426248, Note_off_c, 0, 59, 64
2, 426248, Note_off_c, 0, 65, 64
2, 426248, Note_off_c, 0, 68, 64
2, 426412, Note_on_c, 0, 59, 40
2, 426420, Note_on_c, 0, 70, 31
2, 426420, Note_on_c, 0, 37, 26
2, 426455, Note_off_c, 0, 44, 64
2, 426591, Control_c, 0, 64, 0
2, 426660, Note_on_c, 0, 48, 25
2, 426740, Control_c, 0, 64, 127
2, 426812, Note_on_c, 0, 51, 20
2, 426836, Note_off_c, 0, 48, 64
2, 426921, Note_off_c, 0, 37, 64
2, 427010, Note_on_c, 0, 49, 30
2, 427044, Note_off_c, 0, 51, 64
2, 427193, Note_on_c, 0, 53, 16
2, 427223, Note_off_c, 0, 59, 64
2, 427249, Note_off_c, 0, 49, 64
2, 427325, Note_off_c, 0, 70, 64
2, 427328, Note_on_c, 0, 44, 32
2, 427383, Note_off_c, 0, 53, 64
2, 427495, Note_off_c, 0, 44, 64
2, 427502, Note_on_c, 0, 58, 39
2, 427505, Note_on_c, 0, 66, 36
2, 427508, Note_on_c, 0, 42, 26
2, 427521, Control_c, 0, 64, 0
2, 427611, Control_c, 0, 64, 127
2, 427668, Note_on_c, 0, 48, 23
2, 427807, Note_off_c, 0, 48, 64
2, 427807, Note_on_c, 0, 51, 16
2, 427937, Note_off_c, 0, 51, 64
2, 427947, Note_off_c, 0, 42, 64
2, 427949, Note_on_c, 0, 49, 27
2, 428085, Note_off_c, 0, 49, 64
2, 428113, Note_on_c, 0, 54, 19
2, 428197, Note_off_c, 0, 58, 64
2, 428233, Note_off_c, 0, 66, 64
2, 428254, Note_off_c, 0, 54, 64
2, 428268, Note_on_c, 0, 42, 16
2, 428405, Control_c, 0, 64, 0
2, 428414, Note_off_c, 0, 42, 64
2, 428433, Note_on_c, 0, 63, 51
2, 428435, Note_on_c, 0, 71, 64
2, 428440, Note_on_c, 0, 35, 40
2, 428493, Control_c, 0, 64, 127
2, 428647, Note_off_c, 0, 35, 64
2, 428684, Note_on_c, 0, 53, 23
2, 428822, Note_off_c, 0, 53, 64
2, 428827, Note_on_c, 0, 56, 28
2, 428958, Note_on_c, 0, 54, 33
2, 428960, Note_off_c, 0, 56, 64
2, 429008, Note_off_c, 0, 71, 64
2, 429008, Note_off_c, 0, 63, 64
2, 429123, Note_on_c, 0, 59, 31
2, 429159, Note_off_c, 0, 54, 64
2, 429297, Note_on_c, 0, 47, 25
2, 429315, Note_off_c, 0, 59, 64
2, 429503, Note_off_c, 0, 47, 64
2, 429548, Note_on_c, 0, 65, 36
2, 429548, Note_on_c, 0, 59, 38
2, 429556, Note_on_c, 0, 68, 34
2, 429556, Note_on_c, 0, 37, 29
2, 429562, Control_c, 0, 64, 0
2, 429656, Control_c, 0, 64, 127
2, 429725, Note_off_c, 0, 37, 64
2, 429727, Note_on_c, 0, 48, 25
2, 429868, Note_on_c, 0, 51, 31
2, 429901, Note_off_c, 0, 48, 64
2, 429991, Note_on_c, 0, 49, 30
2, 430009, Note_off_c, 0, 51, 64
2, 430137, Note_off_c, 0, 49, 64
2, 430145, Note_on_c, 0, 53, 30
2, 430225, Note_off_c, 0, 65, 64
2, 430292, Note_off_c, 0, 68, 64
2, 430295, Note_on_c, 0, 44, 27
2, 430306, Note_off_c, 0, 53, 64
2, 430460, Note_off_c, 0, 44, 64
2, 430499, Note_on_c, 0, 70, 39
2, 430506, Note_on_c, 0, 61, 33
2, 430510, Control_c, 0, 64, 0
2, 430517, Note_on_c, 0, 37, 33
2, 430535, Note_off_c, 0, 59, 64
2, 430604, Control_c, 0, 64, 127
2, 430669, Note_on_c, 0, 48, 23
2, 430681, Note_off_c, 0, 37, 64
2, 430796, Note_on_c, 0, 51, 29
2, 430820, Note_off_c, 0, 48, 64
2, 430922, Note_on_c, 0, 49, 25
2, 430937, Note_off_c, 0, 51, 64
2, 431096, Note_on_c, 0, 59, 40
2, 431098, Note_on_c, 0, 53, 28
2, 431103, Note_off_c, 0, 49, 64
2, 431115, Control_c, 0, 64, 0
2, 431127, Note_off_c, 0, 61, 64
2, 431173, Control_c, 0, 64, 127
2, 431263, Note_on_c, 0, 44, 23
2, 431316, Note_off_c, 0, 70, 64
2, 431453, Note_off_c, 0, 44, 64
2, 431507, Note_on_c, 0, 42, 21
2, 431517, Note_on_c, 0, 58, 32
2, 431521, Note_on_c, 0, 66, 29
2, 431530, Note_off_c, 0, 59, 64
2, 431567, Control_c, 0, 64, 0
2, 431581, Note_off_c, 0, 53, 64
2, 431650, Control_c, 0, 64, 127
2, 431717, Note_on_c, 0, 48, 14
2, 431867, Note_off_c, 0, 48, 64
2, 431871, Note_on_c, 0, 51, 13
2, 432005, Note_off_c, 0, 51, 64
2, 432035, Note_on_c, 0, 49, 14
2, 432132, Note_off_c, 0, 58, 64
2, 432224, Note_on_c, 0, 54, 18
2, 432321, Note_off_c, 0, 49, 64
2, 432368, Note_off_c, 0, 42, 64
2, 432387, Note_on_c, 0, 37, 35
2, 432398, Note_off_c, 0, 54, 64
2, 432442, Note_off_c, 0, 66, 64
2, 432562, Control_c, 0, 64, 0
2, 432622, Note_on_c, 0, 42, 18
2, 432627, Note_off_c, 0, 37, 64
2, 432657, Control_c, 0, 64, 127
2, 432862, Note_off_c, 0, 42, 64
2, 432870, Note_on_c, 0, 48, 14
2, 433043, Note_off_c, 0, 48, 64
2, 433045, Note_on_c, 0, 51, 25
2, 433278, Note_off_c, 0, 51, 64
2, 433278, Note_on_c, 0, 49, 14
2, 433528, Note_on_c, 0, 54, 18
2, 433715, Note_off_c, 0, 49, 64
2, 433760, Note_on_c, 0, 41, 28
2, 433959, Note_off_c, 0, 54, 64
2, 434056, Note_on_c, 0, 39, 45
2, 434062, Note_off_c, 0, 41, 64
2, 434078, Control_c, 0, 64, 127
2, 434080, Note_on_c, 0, 78, 47
2, 434496, Note_on_c, 0, 66, 22
2, 434496, Note_on_c, 0, 58, 34
2, 434500, Note_on_c, 0, 51, 14
2, 434573, Note_off_c, 0, 58, 64
2, 434574, Note_off_c, 0, 66, 64
2, 434613, Note_off_c, 0, 51, 64
2, 434670, Note_on_c, 0, 51, 31
2, 434682, Note_on_c, 0, 66, 18
2, 434690, Note_on_c, 0, 58, 30
2, 434749, Note_off_c, 0, 58, 64
2, 434751, Note_off_c, 0, 66, 64
2, 434761, Note_off_c, 0, 51, 64
2, 434828, Note_on_c, 0, 66, 25
2, 434833, Note_on_c, 0, 58, 45
2, 434840, Note_on_c, 0, 51, 23
2, 434912, Note_off_c, 0, 66, 64
2, 434963, Note_off_c, 0, 39, 64
2, 435035, Note_off_c, 0, 58, 64
2, 435039, Note_off_c, 0, 51, 64
2, 435041, Note_on_c, 0, 63, 45
2, 435053, Note_on_c, 0, 66, 18
2, 435146, Note_off_c, 0, 66, 64
2, 435272, Note_off_c, 0, 63, 64
2, 435278, Note_on_c, 0, 58, 33
2, 435281, Note_on_c, 0, 66, 24
2, 435281, Note_on_c, 0, 51, 27
2, 435367, Note_off_c, 0, 51, 64
2, 435370, Note_off_c, 0, 58, 64
2, 435491, Note_off_c, 0, 66, 64
2, 435536, Note_on_c, 0, 51, 24
2, 435537, Note_on_c, 0, 58, 23
2, 435551, Note_off_c, 0, 78, 64
2, 435584, Note_on_c, 0, 66, 36
2, 435588, Note_on_c, 0, 70, 77
2, 435610, Control_c, 0, 64, 0
2, 435662, Note_off_c, 0, 66, 64
2, 435680, Control_c, 0, 64, 127
2, 435725, Note_off_c, 0, 51, 64
2, 435726, Note_off_c, 0, 58, 64
2, 435856, Note_on_c, 0, 51, 36
2, 435860, Note_on_c, 0, 66, 25
2, 435860, Note_on_c, 0, 61, 40
2, 435934, Note_off_c, 0, 51, 64
2, 435938, Note_off_c, 0, 66, 64
2, 435948, Note_off_c, 0, 61, 64
2, 436042, Note_on_c, 0, 60, 31
2, 436042, Note_on_c, 0, 51, 20
2, 436048, Note_on_c, 0, 66, 25
2, 436118, Note_off_c, 0, 60, 64
2, 436120, Note_off_c, 0, 51, 64
2, 436126, Note_off_c, 0, 66, 64
2, 436198, Note_on_c, 0, 66, 30
2, 436204, Note_on_c, 0, 58, 38
2, 436208, Note_on_c, 0, 51, 36
2, 436268, Note_off_c, 0, 51, 64
2, 436281, Note_off_c, 0, 66, 64
2, 436282, Note_off_c, 0, 58, 64
2, 436400, Control_c, 0, 64, 0
2, 436423, Note_off_c, 0, 70, 64
2, 436423, Note_on_c, 0, 58, 42
2, 436426, Note_on_c, 0, 66, 18
2, 436426, Note_on_c, 0, 44, 39
2, 436433, Note_on_c, 0, 72, 65
2, 436471, Control_c, 0, 64, 127
2, 436504, Note_off_c, 0, 66, 64
2, 436507, Note_off_c, 0, 58, 64
2, 436529, Note_off_c, 0, 44, 64
2, 436618, Note_on_c, 0, 44, 16
2, 436622, Note_on_c, 0, 56, 36
2, 436630, Note_on_c, 0, 66, 27
2, 436698, Note_off_c, 0, 56, 64
2, 436709, Note_off_c, 0, 44, 64
2, 436792, Note_off_c, 0, 72, 64
2, 436928, Control_c, 0, 64, 0
2, 436938, Note_on_c, 0, 37, 33
2, 436944, Note_on_c, 0, 72, 66
2, 436972, Note_off_c, 0, 66, 64
2, 436994, Control_c, 0, 64, 127
2, 437044, Note_off_c, 0, 37, 64
2, 437259, Note_on_c, 0, 56, 34
2, 437263, Note_on_c, 0, 44, 18
2, 437272, Note_on_c, 0, 65, 2
2, 437321, Note_off_c, 0, 65, 64
2, 437351, Note_off_c, 0, 56, 64
2, 437398, Note_off_c, 0, 44, 64
2, 437432, Note_on_c, 0, 56, 45
2, 437434, Note_on_c, 0, 65, 27
2, 437436, Note_on_c, 0, 49, 20
2, 437497, Note_off_c, 0, 65, 64
2, 437510, Note_off_c, 0, 56, 64
2, 437533, Note_off_c, 0, 49, 64
2, 437576, Note_on_c, 0, 56, 2
2, 437576, Note_on_c, 0, 51, 45
2, 437580, Note_on_c, 0, 65, 31
2, 437641, Note_off_c, 0, 65, 64
2, 437654, Note_off_c, 0, 56, 64
2, 437726, Note_off_c, 0, 51, 64
2, 437765, Note_on_c, 0, 65, 36
2, 437768, Note_on_c, 0, 56, 45
2, 437778, Note_off_c, 0, 72, 64
2, 437783, Note_on_c, 0, 49, 13
2, 437846, Note_off_c, 0, 56, 64
2, 437862, Note_on_c, 0, 73, 56
2, 437913, Note_off_c, 0, 65, 64
2, 437918, Note_off_c, 0, 49, 64
2, 437934, Note_on_c, 0, 44, 45
2, 438004, Note_on_c, 0, 77, 58
2, 438021, Note_off_c, 0, 73, 64
2, 438021, Note_on_c, 0, 65, 21
2, 438080, Note_on_c, 0, 75, 64
2, 438100, Note_off_c, 0, 77, 64
2, 438118, Note_off_c, 0, 65, 64
2, 438140, Note_off_c, 0, 44, 64
2, 438164, Control_c, 0, 64, 0
2, 438171, Note_on_c, 0, 73, 72
2, 438178, Note_on_c, 0, 65, 41
2, 438186, Note_on_c, 0, 56, 26
2, 438192, Note_off_c, 0, 75, 64
2, 438199, Note_on_c, 0, 49, 20
2, 438224, Control_c, 0, 64, 127
2, 438285, Note_off_c, 0, 65, 64
2, 438290, Note_off_c, 0, 49, 64
2, 438294, Note_off_c, 0, 56, 64
2, 438367, Note_on_c, 0, 65, 33
2, 438380, Note_on_c, 0, 56, 18
2, 438381, Note_on_c, 0, 51, 30
2, 438450, Note_off_c, 0, 51, 64
2, 438450, Note_off_c, 0, 65, 64
2, 438456, Note_off_c, 0, 56, 64
2, 438548, Note_on_c, 0, 65, 30
2, 438554, Note_on_c, 0, 56, 16
2, 438557, Note_on_c, 0, 49, 45
2, 438643, Note_off_c, 0, 56, 64
2, 438691, Note_off_c, 0, 65, 64
2, 438710, Note_off_c, 0, 49, 64
2, 438744, Note_on_c, 0, 54, 38
2, 438752, Note_on_c, 0, 56, 22
2, 438760, Note_on_c, 0, 65, 36
2, 438843, Note_off_c, 0, 56, 64
2, 438847, Note_off_c, 0, 54, 64
2, 438896, Note_off_c, 0, 65, 64
2, 439000, Note_on_c, 0, 53, 42
2, 439009, Note_on_c, 0, 56, 26
2, 439010, Note_on_c, 0, 65, 21
2, 439099, Note_off_c, 0, 65, 64
2, 439107, Note_off_c, 0, 56, 64
2, 439114, Note_off_c, 0, 53, 64
2, 439244, Note_on_c, 0, 56, 26
2, 439256, Note_on_c, 0, 44, 33
2, 439279, Note_on_c, 0, 65, 18
2, 439304, Note_off_c, 0, 56, 64
2, 439371, Note_off_c, 0, 73, 64
2, 439414, Note_off_c, 0, 44, 64
2, 439545, Note_on_c, 0, 37, 46
2, 439548, Note_off_c, 0, 65, 64
2, 439583, Control_c, 0, 64, 0
2, 439615, Note_on_c, 0, 76, 72
2, 439646, Control_c, 0, 64, 127
2, 439706, Note_off_c, 0, 37, 64
2, 439916, Note_on_c, 0, 56, 35
2, 439924, Note_on_c, 0, 49, 19
2, 439927, Note_on_c, 0, 64, 22
2, 439970, Note_off_c, 0, 49, 64
2, 439972, Note_off_c, 0, 64, 64
2, 439984, Note_off_c, 0, 56, 64
2, 440054, Note_on_c, 0, 56, 45
2, 440063, Note_on_c, 0, 64, 24
2, 440068, Note_on_c, 0, 49, 20
2, 440113, Note_off_c, 0, 49, 64
2, 440115, Note_off_c, 0, 64, 64
2, 440115, Note_off_c, 0, 56, 64
2, 440188, Note_on_c, 0, 64, 30
2, 440191, Note_on_c, 0, 56, 38
2, 440196, Note_on_c, 0, 49, 30
2, 440240, Note_off_c, 0, 64, 64
2, 440259, Note_off_c, 0, 56, 64
2, 440265, Note_off_c, 0, 49, 64
2, 440327, Note_on_c, 0, 61, 54
2, 440332, Note_on_c, 0, 49, 24
2, 440341, Note_on_c, 0, 64, 26
2, 440391, Note_off_c, 0, 49, 64
2, 440400, Note_off_c, 0, 64, 64
2, 440418, Note_off_c, 0, 61, 64
2, 440483, Note_on_c, 0, 64, 28
2, 440490, Note_on_c, 0, 56, 30
2, 440500, Note_on_c, 0, 49, 18
2, 440538, Note_off_c, 0, 49, 64
2, 440538, Note_off_c, 0, 56, 64
2, 440550, Note_off_c, 0, 64, 64
2, 440591, Note_off_c, 0, 76, 64
2, 440681, Note_on_c, 0, 49, 30
2, 440695, Control_c, 0, 64, 0
2, 440699, Note_on_c, 0, 56, 37
2, 440713, Note_on_c, 0, 64, 14
2, 440720, Note_on_c, 0, 68, 69
2, 440752, Note_off_c, 0, 64, 64
2, 440772, Control_c, 0, 64, 127
2, 440870, Note_off_c, 0, 49, 64
2, 440894, Note_off_c, 0, 56, 64
2, 440928, Note_on_c, 0, 64, 36
2, 440944, Note_on_c, 0, 59, 45
2, 440952, Note_on_c, 0, 49, 39
2, 440988, Note_off_c, 0, 64, 64
2, 441013, Note_off_c, 0, 49, 64
2, 441036, Note_off_c, 0, 59, 64
2, 441102, Note_on_c, 0, 49, 38
2, 441108, Note_on_c, 0, 58, 48
2, 441117, Note_on_c, 0, 64, 24
2, 441165, Note_off_c, 0, 64, 64
2, 441165, Note_off_c, 0, 58, 64
2, 441255, Note_on_c, 0, 64, 27
2, 441255, Note_on_c, 0, 56, 23
2, 441300, Note_off_c, 0, 56, 64
2, 441302, Note_off_c, 0, 49, 64
2, 441308, Note_off_c, 0, 64, 64
2, 441438, Control_c, 0, 64, 0
2, 441451, Note_off_c, 0, 68, 64
2, 441452, Note_on_c, 0, 70, 62
2, 441456, Note_on_c, 0, 42, 45
2, 441457, Note_on_c, 0, 56, 45
2, 441462, Note_on_c, 0, 64, 28
2, 441508, Control_c, 0, 64, 127
2, 441553, Note_off_c, 0, 56, 64
2, 441564, Note_off_c, 0, 42, 64
2, 441619, Note_off_c, 0, 64, 64
2, 441703, Note_on_c, 0, 64, 24
2, 441703, Note_on_c, 0, 54, 38
2, 441710, Note_on_c, 0, 42, 36
2, 441786, Note_off_c, 0, 54, 64
2, 441846, Note_off_c, 0, 70, 64
2, 441974, Note_on_c, 0, 70, 64
2, 441981, Note_off_c, 0, 42, 64
2, 441982, Note_on_c, 0, 35, 40
2, 441995, Control_c, 0, 64, 0
2, 442033, Control_c, 0, 64, 127
2, 442045, Note_off_c, 0, 64, 64
2, 442136, Note_off_c, 0, 35, 64
2, 442218, Note_on_c, 0, 63, 26
2, 442218, Note_on_c, 0, 42, 32
2, 442223, Note_on_c, 0, 54, 20
2, 442316, Note_off_c, 0, 63, 64
2, 442328, Note_off_c, 0, 42, 64
2, 442331, Note_off_c, 0, 54, 64
2, 442374, Note_on_c, 0, 47, 46
2, 442383, Note_on_c, 0, 54, 25
2, 442386, Note_on_c, 0, 63, 25
2, 442467, Note_off_c, 0, 63, 64
2, 442471, Note_off_c, 0, 47, 64
2, 442475, Note_off_c, 0, 54, 64
2, 442525, Note_on_c, 0, 63, 33
2, 442529, Note_on_c, 0, 54, 35
2, 442537, Note_on_c, 0, 49, 34
2, 442595, Note_off_c, 0, 54, 64
2, 442598, Note_off_c, 0, 49, 64
2, 442623, Note_off_c, 0, 63, 64
2, 442640, Note_off_c, 0, 70, 64
2, 442679, Note_on_c, 0, 54, 27
2, 442694, Note_on_c, 0, 47, 42
2, 442708, Note_on_c, 0, 63, 33
2, 442773, Note_on_c, 0, 71, 60
2, 442778, Note_off_c, 0, 47, 64
2, 442786, Note_off_c, 0, 63, 64
2, 442796, Note_off_c, 0, 54, 64
2, 442857, Note_on_c, 0, 54, 18
2, 442867, Note_on_c, 0, 42, 39
2, 442874, Note_on_c, 0, 75, 60
2, 442882, Note_on_c, 0, 63, 27
2, 442885, Note_off_c, 0, 71, 64
2, 442950, Note_on_c, 0, 73, 65
2, 442956, Note_off_c, 0, 75, 64
2, 442982, Note_off_c, 0, 54, 64
2, 442986, Note_off_c, 0, 63, 64
2, 443002, Note_off_c, 0, 42, 64
2, 443066, Note_on_c, 0, 54, 28
2, 443072, Note_off_c, 0, 73, 64
2, 443072, Note_on_c, 0, 71, 64
2, 443077, Note_on_c, 0, 63, 31
2, 443078, Note_on_c, 0, 47, 34
2, 443093, Control_c, 0, 64, 0
2, 443140, Control_c, 0, 64, 127
2, 443201, Note_off_c, 0, 63, 64
2, 443216, Note_off_c, 0, 47, 64
2, 443318, Note_on_c, 0, 63, 27
2, 443320, Note_on_c, 0, 49, 38
2, 443402, Note_off_c, 0, 49, 64
2, 443420, Note_off_c, 0, 63, 64
2, 443420, Note_off_c, 0, 54, 64
2, 443487, Note_on_c, 0, 63, 31
2, 443489, Note_on_c, 0, 47, 41
2, 443500, Note_on_c, 0, 54, 18
2, 443558, Note_off_c, 0, 63, 64
2, 443618, Note_off_c, 0, 47, 64
2, 443637, Note_on_c, 0, 63, 33
2, 443647, Note_on_c, 0, 42, 33
2, 443724, Note_off_c, 0, 54, 64
2, 443730, Note_off_c, 0, 63, 64
2, 443775, Note_off_c, 0, 42, 64
2, 443792, Note_off_c, 0, 71, 64
2, 443804, Note_on_c, 0, 54, 21
2, 443813, Note_on_c, 0, 63, 28
2, 443813, Note_on_c, 0, 47, 33
2, 443817, Note_on_c, 0, 70, 59
2, 443904, Note_off_c, 0, 63, 64
2, 443929, Note_off_c, 0, 47, 64
2, 443984, Note_off_c, 0, 54, 64
2, 444016, Note_on_c, 0, 54, 18
2, 444022, Note_on_c, 0, 61, 35
2, 444064, Note_on_c, 0, 49, 13
2, 444121, Note_off_c, 0, 49, 64
2, 444128, Note_off_c, 0, 70, 64
2, 444163, Note_off_c, 0, 54, 64
2, 444177, Note_off_c, 0, 61, 64
2, 444259, Note_on_c, 0, 54, 27
2, 444266, Note_on_c, 0, 51, 30
2, 444296, Note_on_c, 0, 59, 45
2, 444299, Note_on_c, 0, 70, 60
2, 444342, Note_off_c, 0, 59, 64
2, 444468, Note_off_c, 0, 51, 64
2, 444479, Note_off_c, 0, 54, 64
2, 444538, Note_on_c, 0, 54, 35
2, 444541, Note_on_c, 0, 59, 28
2, 444548, Note_on_c, 0, 51, 29
2, 444593, Note_off_c, 0, 59, 64
2, 444614, Note_off_c, 0, 51, 64
2, 444629, Note_off_c, 0, 54, 64
2, 444693, Note_on_c, 0, 68, 65
2, 444699, Note_on_c, 0, 54, 39
2, 444705, Note_on_c, 0, 51, 46
2, 444712, Note_off_c, 0, 70, 64
2, 444712, Note_on_c, 0, 59, 42
2, 444761, Note_off_c, 0, 51, 64
2, 444766, Note_off_c, 0, 59, 64
2, 444773, Note_off_c, 0, 54, 64
2, 444840, Note_on_c, 0, 59, 47
2, 444843, Note_on_c, 0, 54, 34
2, 444843, Note_on_c, 0, 51, 41
2, 444886, Note_off_c, 0, 59, 64
2, 444903, Note_off_c, 0, 54, 64
2, 444915, Note_off_c, 0, 51, 64
2, 444955, Control_c, 0, 64, 0
2, 444987, Note_on_c, 0, 61, 38
2, 444993, Note_on_c, 0, 54, 37
2, 445002, Note_on_c, 0, 49, 33
2, 445022, Control_c, 0, 64, 127
2, 445082, Note_off_c, 0, 49, 64
2, 445089, Note_on_c, 0, 70, 66
2, 445098, Note_off_c, 0, 54, 64
2, 445115, Note_off_c, 0, 68, 64
2, 445128, Note_off_c, 0, 61, 64
2, 445181, Note_on_c, 0, 54, 29
2, 445188, Note_on_c, 0, 49, 27
2, 445218, Note_on_c, 0, 73, 48
2, 445228, Note_off_c, 0, 70, 64
2, 445230, Note_on_c, 0, 61, 42
2, 445295, Note_off_c, 0, 54, 64
2, 445297, Note_on_c, 0, 71, 67
2, 445303, Note_off_c, 0, 73, 64
2, 445304, Note_off_c, 0, 49, 64
2, 445318, Note_off_c, 0, 61, 64
2, 445391, Note_on_c, 0, 63, 41
2, 445394, Note_on_c, 0, 70, 70
2, 445394, Note_on_c, 0, 47, 36
2, 445400, Note_on_c, 0, 54, 38
2, 445403, Note_off_c, 0, 71, 64
2, 445416, Control_c, 0, 64, 0
2, 445461, Control_c, 0, 64, 127
2, 445508, Note_off_c, 0, 47, 64
2, 445514, Note_off_c, 0, 63, 64
2, 445530, Note_off_c, 0, 54, 64
2, 445576, Note_on_c, 0, 54, 33
2, 445582, Note_on_c, 0, 63, 29
2, 445590, Note_on_c, 0, 47, 29
2, 445641, Note_off_c, 0, 47, 64
2, 445656, Note_off_c, 0, 63, 64
2, 445657, Note_off_c, 0, 54, 64
2, 445718, Note_on_c, 0, 63, 34
2, 445719, Note_on_c, 0, 54, 39
2, 445723, Note_on_c, 0, 68, 66
2, 445727, Note_on_c, 0, 47, 38
2, 445771, Note_off_c, 0, 47, 64
2, 445782, Note_off_c, 0, 54, 64
2, 445785, Note_off_c, 0, 63, 64
2, 445787, Note_off_c, 0, 70, 64
2, 445852, Note_on_c, 0, 54, 33
2, 445858, Note_on_c, 0, 63, 36
2, 445864, Note_on_c, 0, 47, 33
2, 445907, Note_off_c, 0, 47, 64
2, 445914, Note_off_c, 0, 63, 64
2, 445916, Note_off_c, 0, 54, 64
2, 445996, Note_on_c, 0, 61, 40
2, 446001, Note_on_c, 0, 54, 33
2, 446010, Note_on_c, 0, 49, 35
2, 446054, Note_off_c, 0, 49, 64
2, 446060, Note_off_c, 0, 54, 64
2, 446075, Note_off_c, 0, 61, 64
2, 446080, Note_on_c, 0, 70, 45
2, 446105, Note_off_c, 0, 68, 64
2, 446129, Note_off_c, 0, 70, 64
2, 446133, Note_on_c, 0, 54, 29
2, 446136, Note_on_c, 0, 63, 38
2, 446142, Note_on_c, 0, 73, 60
2, 446142, Note_on_c, 0, 49, 33
2, 446202, Note_off_c, 0, 49, 64
2, 446217, Note_off_c, 0, 54, 64
2, 446221, Note_off_c, 0, 73, 64
2, 446224, Note_off_c, 0, 63, 64
2, 446232, Note_on_c, 0, 71, 61
2, 446320, Note_on_c, 0, 70, 66
2, 446320, Note_on_c, 0, 54, 18
2, 446322, Note_off_c, 0, 71, 64
2, 446324, Control_c, 0, 64, 0
2, 446328, Note_on_c, 0, 59, 29
2, 446328, Note_on_c, 0, 51, 24
2, 446398, Control_c, 0, 64, 127
2, 446416, Note_off_c, 0, 59, 64
2, 446428, Note_off_c, 0, 51, 64
2, 446441, Note_off_c, 0, 54, 64
2, 446522, Note_on_c, 0, 54, 18
2, 446528, Note_on_c, 0, 51, 24
2, 446534, Note_on_c, 0, 59, 31
2, 446584, Note_off_c, 0, 54, 64
2, 446589, Note_off_c, 0, 51, 64
2, 446621, Note_off_c, 0, 70, 64
2, 446666, Note_on_c, 0, 54, 28
2, 446672, Note_on_c, 0, 68, 58
2, 446675, Note_on_c, 0, 63, 38
2, 446675, Note_on_c, 0, 47, 36
2, 446696, Note_off_c, 0, 59, 64
2, 446732, Note_off_c, 0, 47, 64
2, 446756, Note_off_c, 0, 63, 64
2, 446763, Note_off_c, 0, 54, 64
2, 446816, Note_on_c, 0, 63, 35
2, 446816, Note_on_c, 0, 54, 37
2, 446829, Note_on_c, 0, 47, 36
2, 446869, Note_off_c, 0, 47, 64
2, 446887, Note_off_c, 0, 54, 64
2, 446966, Note_off_c, 0, 63, 64
2, 446976, Note_on_c, 0, 56, 46
2, 446981, Note_on_c, 0, 65, 31
2, 446986, Note_on_c, 0, 47, 33
2, 447033, Note_off_c, 0, 47, 64
2, 447044, Note_off_c, 0, 56, 64
2, 447112, Note_on_c, 0, 54, 49
2, 447113, Note_on_c, 0, 63, 42
2, 447127, Note_on_c, 0, 47, 33
2, 447131, Note_off_c, 0, 65, 64
2, 447164, Note_off_c, 0, 47, 64
2, 447179, Note_off_c, 0, 54, 64
2, 447240, Note_on_c, 0, 47, 36
2, 447248, Note_on_c, 0, 65, 31
2, 447248, Note_on_c, 0, 56, 48
2, 447253, Note_off_c, 0, 63, 64
2, 447300, Note_off_c, 0, 47, 64
2, 447310, Note_off_c, 0, 56, 64
2, 447351, Note_off_c, 0, 65, 64
2, 447389, Note_on_c, 0, 63, 32
2, 447401, Note_on_c, 0, 54, 37
2, 447411, Note_on_c, 0, 47, 34
2, 447458, Note_off_c, 0, 47, 64
2, 447466, Note_off_c, 0, 54, 64
2, 447557, Note_on_c, 0, 56, 36
2, 447564, Note_on_c, 0, 65, 33
2, 447568, Note_on_c, 0, 47, 33
2, 447572, Note_off_c, 0, 63, 64
2, 447594, Note_off_c, 0, 68, 64
2, 447610, Note_off_c, 0, 47, 64
2, 447617, Note_off_c, 0, 56, 64
2, 447731, Note_on_c, 0, 70, 66
2, 447731, Note_on_c, 0, 47, 33
2, 447743, Note_on_c, 0, 54, 17
2, 447747, Note_off_c, 0, 65, 64
2, 447809, Note_off_c, 0, 47, 64
2, 447827, Note_off_c, 0, 54, 64
2, 447911, Note_on_c, 0, 46, 45
2, 447919, Note_on_c, 0, 73, 65
2, 447919, Note_on_c, 0, 54, 38
2, 447927, Note_on_c, 0, 61, 38
2, 447935, Note_off_c, 0, 70, 64
2, 447965, Control_c, 0, 64, 0
2, 448021, Note_off_c, 0, 54, 64
2, 448046, Control_c, 0, 64, 127
2, 448101, Note_off_c, 0, 46, 64
2, 448107, Note_on_c, 0, 54, 39
2, 448108, Note_on_c, 0, 70, 65
2, 448115, Note_off_c, 0, 73, 64
2, 448115, Note_on_c, 0, 49, 39
2, 448197, Note_off_c, 0, 61, 64
2, 448229, Note_off_c, 0, 54, 64
2, 448278, Note_off_c, 0, 49, 64
2, 448300, Control_c, 0, 64, 0
2, 448321, Note_on_c, 0, 58, 39
2, 448324, Note_off_c, 0, 70, 64
2, 448324, Note_on_c, 0, 66, 65
2, 448331, Note_on_c, 0, 54, 30
2, 448331, Note_on_c, 0, 51, 37
2, 448359, Control_c, 0, 64, 127
2, 448434, Note_off_c, 0, 58, 64
2, 448443, Note_off_c, 0, 54, 64
2, 448447, Note_off_c, 0, 51, 64
2, 448512, Note_on_c, 0, 54, 41
2, 448517, Note_on_c, 0, 58, 46
2, 448524, Note_on_c, 0, 51, 31
2, 448586, Note_off_c, 0, 51, 64
2, 448586, Note_off_c, 0, 54, 64
2, 448637, Note_off_c, 0, 58, 64
2, 448694, Note_off_c, 0, 66, 64
2, 448715, Note_on_c, 0, 66, 66
2, 448720, Note_on_c, 0, 51, 2
2, 448722, Note_on_c, 0, 58, 46
2, 448724, Note_on_c, 0, 63, 64
2, 448798, Note_off_c, 0, 51, 64
2, 448805, Note_off_c, 0, 58, 64
2, 448888, Note_on_c, 0, 58, 42
2, 448896, Note_on_c, 0, 51, 24
2, 448942, Note_off_c, 0, 63, 64
2, 448948, Note_off_c, 0, 58, 64
2, 448971, Note_off_c, 0, 51, 64
2, 449055, Note_off_c, 0, 66, 64
2, 449063, Control_c, 0, 64, 0
2, 449078, Note_on_c, 0, 66, 65
2, 449080, Note_on_c, 0, 51, 27
2, 449083, Note_on_c, 0, 56, 28
2, 449086, Note_on_c, 0, 63, 60
2, 449086, Note_on_c, 0, 60, 62
2, 449094, Note_on_c, 0, 44, 36
2, 449136, Control_c, 0, 64, 127
2, 449139, Note_off_c, 0, 51, 64
2, 449168, Note_off_c, 0, 44, 64
2, 449178, Note_off_c, 0, 56, 64
2, 449205, Note_off_c, 0, 60, 64
2, 449280, Note_on_c, 0, 60, 54
2, 449280, Note_on_c, 0, 51, 20
2, 449280, Note_on_c, 0, 44, 38
2, 449282, Note_on_c, 0, 56, 30
2, 449331, Note_off_c, 0, 51, 64
2, 449334, Note_off_c, 0, 63, 64
2, 449367, Note_off_c, 0, 56, 64
2, 449382, Note_off_c, 0, 44, 64
2, 449411, Note_off_c, 0, 60, 64
2, 449508, Note_off_c, 0, 66, 64
2, 449512, Note_on_c, 0, 68, 66
2, 449512, Note_on_c, 0, 66, 58
2, 449512, Note_on_c, 0, 63, 60
2, 449520, Note_on_c, 0, 56, 24
2, 449520, Note_on_c, 0, 49, 2
2, 449524, Control_c, 0, 64, 0
2, 449565, Note_off_c, 0, 49, 64
2, 449587, Control_c, 0, 64, 127
2, 449638, Note_off_c, 0, 56, 64
2, 449728, Note_on_c, 0, 56, 20
2, 449734, Note_on_c, 0, 49, 41
2, 449736, Note_on_c, 0, 59, 23
2, 449785, Note_off_c, 0, 66, 64
2, 449802, Note_off_c, 0, 56, 64
2, 449810, Note_off_c, 0, 59, 64
2, 449810, Note_off_c, 0, 49, 64
2, 449917, Note_on_c, 0, 65, 60
2, 449918, Note_off_c, 0, 63, 64
2, 449920, Note_on_c, 0, 56, 30
2, 449932, Note_on_c, 0, 61, 37
2, 449932, Note_on_c, 0, 59, 40
2, 449941, Note_on_c, 0, 49, 29
2, 449989, Note_off_c, 0, 56, 64
2, 449993, Note_off_c, 0, 59, 64
2, 450000, Note_off_c, 0, 49, 64
2, 450072, Note_on_c, 0, 56, 33
2, 450086, Note_on_c, 0, 59, 36
2, 450086, Note_on_c, 0, 49, 36
2, 450112, Note_off_c, 0, 61, 64
2, 450134, Note_off_c, 0, 59, 64
2, 450145, Note_off_c, 0, 56, 64
2, 450162, Note_off_c, 0, 49, 64
2, 450192, Note_off_c, 0, 68, 64
2, 450217, Note_on_c, 0, 68, 49
2, 450220, Note_off_c, 0, 65, 64
2, 450224, Note_on_c, 0, 63, 59
2, 450227, Note_on_c, 0, 59, 41
2, 450235, Note_on_c, 0, 56, 43
2, 450237, Note_on_c, 0, 49, 42
2, 450296, Note_off_c, 0, 49, 64
2, 450298, Note_off_c, 0, 56, 64
2, 450370, Note_on_c, 0, 56, 41
2, 450385, Note_on_c, 0, 49, 27
2, 450417, Note_off_c, 0, 56, 64
2, 450421, Note_off_c, 0, 49, 64
2, 450476, Note_off_c, 0, 59, 64
2, 450479, Note_off_c, 0, 63, 64
2, 450517, Note_off_c, 0, 68, 64
2, 450549, Note_on_c, 0, 68, 63
2, 450553, Note_on_c, 0, 59, 53
2, 450558, Note_on_c, 0, 56, 21
2, 450566, Note_on_c, 0, 63, 35
2, 450570, Note_on_c, 0, 49, 22
2, 450658, Control_c, 0, 64, 0
2, 450671, Note_off_c, 0, 56, 64
2, 450701, Note_off_c, 0, 49, 64
2, 450720, Control_c, 0, 64, 127
2, 450727, Note_on_c, 0, 42, 41
2, 450734, Note_on_c, 0, 49, 34
2, 450776, Note_off_c, 0, 63, 64
2, 450811, Note_off_c, 0, 59, 64
2, 450856, Note_off_c, 0, 49, 64
2, 450861, Note_off_c, 0, 42, 64
2, 450912, Note_on_c, 0, 70, 67
2, 450912, Note_on_c, 0, 61, 59
2, 450912, Note_on_c, 0, 58, 44
2, 450912, Note_on_c, 0, 42, 32
2, 450920, Note_on_c, 0, 49, 35
2, 450939, Note_off_c, 0, 68, 64
2, 450988, Note_off_c, 0, 49, 64
2, 450993, Note_off_c, 0, 42, 64
2, 451127, Note_on_c, 0, 49, 38
2, 451127, Note_on_c, 0, 42, 31
2, 451228, Note_off_c, 0, 42, 64
2, 451235, Note_off_c, 0, 49, 64
2, 451302, Note_off_c, 0, 58, 64
2, 451302, Note_off_c, 0, 61, 64
2, 451322, Note_off_c, 0, 70, 64
2, 451323, Note_on_c, 0, 68, 56
2, 451329, Note_on_c, 0, 59, 41
2, 451341, Note_on_c, 0, 63, 40
2, 451341, Note_on_c, 0, 49, 36
2, 451349, Note_on_c, 0, 42, 26
2, 451464, Note_off_c, 0, 49, 64
2, 451483, Note_off_c, 0, 42, 64
2, 451592, Note_on_c, 0, 42, 45
2, 451598, Note_on_c, 0, 53, 29
2, 451717, Note_off_c, 0, 42, 64
2, 451723, Note_off_c, 0, 53, 64
2, 451733, Note_off_c, 0, 63, 64
2, 451742, Note_off_c, 0, 59, 64
2, 451923, Note_off_c, 0, 68, 64
2, 451931, Note_on_c, 0, 58, 30
2, 451931, Note_on_c, 0, 54, 26
2, 451932, Note_on_c, 0, 70, 52
2, 451932, Note_on_c, 0, 61, 32
2, 451936, Note_on_c, 0, 42, 45
2, 451945, Control_c, 0, 64, 0
2, 451996, Control_c, 0, 64, 127
2, 452125, Note_off_c, 0, 42, 64
2, 452177, Note_off_c, 0, 54, 64
2, 452230, Note_on_c, 0, 41, 37
2, 452422, Note_on_c, 0, 44, 25
2, 452451, Note_off_c, 0, 41, 64
2, 452588, Note_on_c, 0, 42, 30
2, 452595, Note_off_c, 0, 44, 64
2, 452752, Note_off_c, 0, 42, 64
2, 452767, Note_on_c, 0, 46, 21
2, 452972, Note_on_c, 0, 37, 29
2, 453033, Note_off_c, 0, 46, 64
2, 453039, Note_off_c, 0, 58, 64
2, 453080, Note_off_c, 0, 61, 64
2, 453083, Note_off_c, 0, 70, 64
2, 453268, Control_c, 0, 64, 0
2, 453280, Note_on_c, 0, 70, 72
2, 453280, Note_on_c, 0, 61, 42
2, 453289, Note_on_c, 0, 64, 39
2, 453299, Note_on_c, 0, 30, 29
2, 453336, Control_c, 0, 64, 127
2, 453364, Note_off_c, 0, 37, 64
2, 453637, Note_on_c, 0, 53, 23
2, 453798, Note_off_c, 0, 53, 64
2, 453811, Note_on_c, 0, 56, 29
2, 453889, Note_off_c, 0, 30, 64
2, 453963, Note_on_c, 0, 54, 31
2, 453967, Note_off_c, 0, 56, 64
2, 454099, Note_off_c, 0, 54, 64
2, 454113, Note_on_c, 0, 58, 30
2, 454235, Note_off_c, 0, 64, 64
2, 454244, Note_on_c, 0, 49, 33
2, 454251, Note_off_c, 0, 58, 64
2, 454288, Note_off_c, 0, 61, 64
2, 454288, Note_off_c, 0, 70, 64
2, 454458, Note_on_c, 0, 42, 38
2, 454469, Note_off_c, 0, 49, 64
2, 454479, Control_c, 0, 64, 0
2, 454500, Note_on_c, 0, 70, 60
2, 454508, Note_on_c, 0, 64, 55
2, 454554, Control_c, 0, 64, 127
2, 454664, Note_on_c, 0, 53, 30
2, 454667, Note_off_c, 0, 42, 64
2, 454801, Note_on_c, 0, 56, 41
2, 454843, Note_off_c, 0, 53, 64
2, 454922, Note_on_c, 0, 54, 28
2, 454930, Note_off_c, 0, 56, 64
2, 455031, Note_off_c, 0, 54, 64
2, 455042, Note_on_c, 0, 58, 37
2, 455121, Note_off_c, 0, 70, 64
2, 455173, Note_on_c, 0, 49, 28
2, 455181, Note_off_c, 0, 58, 64
2, 455237, Note_on_c, 0, 71, 63
2, 455255, Note_off_c, 0, 64, 64
2, 455335, Control_c, 0, 64, 0
2, 455358, Note_on_c, 0, 73, 60
2, 455364, Note_on_c, 0, 70, 46
2, 455365, Note_off_c, 0, 71, 64
2, 455371, Note_on_c, 0, 42, 42
2, 455372, Note_on_c, 0, 64, 36
2, 455386, Note_off_c, 0, 49, 64
2, 455417, Control_c, 0, 64, 127
2, 455492, Note_off_c, 0, 42, 64
2, 455494, Note_on_c, 0, 53, 32
2, 455608, Note_on_c, 0, 56, 35
2, 455642, Note_off_c, 0, 53, 64
2, 455733, Note_on_c, 0, 54, 35
2, 455745, Note_off_c, 0, 56, 64
2, 455855, Note_off_c, 0, 54, 64
2, 455864, Note_on_c, 0, 58, 40
2, 455931, Note_off_c, 0, 70, 64
2, 455943, Note_off_c, 0, 73, 64
2, 455986, Note_off_c, 0, 58, 64
2, 455999, Note_off_c, 0, 64, 64
2, 456012, Note_on_c, 0, 49, 16
2, 456159, Note_on_c, 0, 64, 33
2, 456198, Note_off_c, 0, 49, 64
2, 456206, Note_on_c, 0, 42, 24
2, 456210, Note_on_c, 0, 70, 66
2, 456228, Control_c, 0, 64, 0
2, 456256, Note_on_c, 0, 75, 56
2, 456277, Note_on_c, 0, 78, 67
2, 456321, Control_c, 0, 64, 127
2, 456406, Note_off_c, 0, 42, 64
2, 456406, Note_on_c, 0, 53, 33
2, 456534, Note_on_c, 0, 56, 30
2, 456570, Note_off_c, 0, 53, 64
2, 456656, Note_on_c, 0, 54, 37
2, 456679, Note_off_c, 0, 56, 64
2, 456771, Note_off_c, 0, 54, 64
2, 456785, Note_on_c, 0, 58, 44
2, 456932, Note_off_c, 0, 58, 64
2, 456956, Note_on_c, 0, 49, 35
2, 456995, Note_off_c, 0, 75, 64
2, 457027, Note_off_c, 0, 70, 64
2, 457118, Note_on_c, 0, 73, 62
2, 457140, Note_off_c, 0, 78, 64
2, 457170, Note_off_c, 0, 64, 64
2, 457187, Note_off_c, 0, 73, 64
2, 457203, Note_off_c, 0, 49, 64
2, 457276, Note_on_c, 0, 78, 63
2, 457280, Note_on_c, 0, 73, 62
2, 457280, Note_on_c, 0, 47, 40
2, 457290, Note_on_c, 0, 64, 41
2, 457440, Note_on_c, 0, 53, 46
2, 457516, Control_c, 0, 64, 0
2, 457592, Note_on_c, 0, 56, 35
2, 457612, Note_off_c, 0, 53, 64
2, 457613, Control_c, 0, 64, 127
2, 457743, Note_off_c, 0, 56, 64
2, 457758, Note_on_c, 0, 54, 28
2, 457868, Note_off_c, 0, 64, 64
2, 457868, Note_off_c, 0, 47, 64
2, 457868, Note_off_c, 0, 73, 64
2, 457868, Note_off_c, 0, 78, 64
2, 457894, Note_on_c, 0, 58, 33
2, 457915, Note_off_c, 0, 54, 64
2, 458029, Note_on_c, 0, 49, 37
2, 458088, Note_off_c, 0, 58, 64
2, 458195, Note_on_c, 0, 75, 51
2, 458202, Note_off_c, 0, 49, 64
2, 458204, Note_on_c, 0, 71, 54
2, 458204, Note_on_c, 0, 63, 41
2, 458213, Note_on_c, 0, 47, 40
2, 458248, Control_c, 0, 64, 0
2, 458397, Control_c, 0, 64, 127
2, 458408, Note_on_c, 0, 53, 30
2, 458549, Note_on_c, 0, 56, 33
2, 458554, Note_off_c, 0, 53, 64
2, 458708, Note_on_c, 0, 54, 28
2, 458722, Note_off_c, 0, 56, 64
2, 458847, Note_off_c, 0, 47, 64
2, 458868, Note_on_c, 0, 59, 33
2, 458911, Note_off_c, 0, 54, 64
2, 459008, Note_off_c, 0, 63, 64
2, 459012, Note_on_c, 0, 47, 43
2, 459030, Note_off_c, 0, 59, 64
2, 459185, Note_on_c, 0, 61, 52
2, 459188, Note_off_c, 0, 71, 64
2, 459190, Note_on_c, 0, 39, 39
2, 459192, Note_on_c, 0, 70, 62
2, 459192, Note_on_c, 0, 67, 1
2, 459278, Note_off_c, 0, 47, 64
2, 459305, Note_off_c, 0, 39, 64
2, 459371, Note_on_c, 0, 50, 35
2, 459414, Control_c, 0, 64, 0
2, 459495, Control_c, 0, 64, 127
2, 459542, Note_on_c, 0, 52, 28
2, 459552, Note_off_c, 0, 50, 64
2, 459656, Note_off_c, 0, 52, 64
2, 459665, Note_on_c, 0, 51, 37
2, 459728, Note_off_c, 0, 61, 64
2, 459788, Note_off_c, 0, 67, 64
2, 459788, Note_off_c, 0, 70, 64
2, 459815, Note_on_c, 0, 55, 40
2, 459823, Note_off_c, 0, 51, 64
2, 459990, Note_on_c, 0, 46, 42
2, 460020, Note_off_c, 0, 55, 64
2, 460028, Note_off_c, 0, 75, 64
2, 460067, Note_off_c, 0, 46, 64
2, 460217, Note_on_c, 0, 68, 59
2, 460217, Note_on_c, 0, 59, 54
2, 460217, Note_on_c, 0, 44, 40
2, 460226, Note_on_c, 0, 71, 63
2, 460245, Control_c, 0, 64, 0
2, 460332, Control_c, 0, 64, 127
2, 460400, Note_on_c, 0, 50, 35
2, 460542, Note_on_c, 0, 52, 38
2, 460543, Note_off_c, 0, 50, 64
2, 460638, Note_off_c, 0, 52, 64
2, 460677, Note_on_c, 0, 51, 26
2, 460743, Note_off_c, 0, 44, 64
2, 460790, Note_off_c, 0, 51, 64
2, 460816, Note_on_c, 0, 56, 37
2, 460957, Note_off_c, 0, 56, 64
2, 460958, Note_off_c, 0, 68, 64
2, 460966, Note_on_c, 0, 44, 23
2, 461036, Note_off_c, 0, 71, 64
2, 461072, Note_on_c, 0, 63, 56
2, 461084, Note_off_c, 0, 59, 64
2, 461136, Note_off_c, 0, 44, 64
2, 461148, Note_off_c, 0, 63, 64
2, 461178, Note_on_c, 0, 37, 42
2, 461190, Control_c, 0, 64, 0
2, 461246, Note_on_c, 0, 59, 57
2, 461260, Control_c, 0, 64, 127
2, 461329, Note_on_c, 0, 65, 54
2, 461335, Note_off_c, 0, 37, 64
2, 461411, Note_on_c, 0, 68, 70
2, 461502, Note_on_c, 0, 48, 42
2, 461563, Note_on_c, 0, 77, 66
2, 461577, Note_off_c, 0, 59, 64
2, 461717, Note_off_c, 0, 48, 64
2, 461717, Note_on_c, 0, 51, 27
2, 461827, Note_off_c, 0, 51, 64
2, 461850, Note_on_c, 0, 49, 28
2, 461912, Note_off_c, 0, 65, 64
2, 461986, Note_off_c, 0, 49, 64
2, 462002, Note_on_c, 0, 53, 32
2, 462073, Note_off_c, 0, 68, 64
2, 462135, Note_off_c, 0, 77, 64
2, 462168, Note_on_c, 0, 44, 42
2, 462233, Note_off_c, 0, 53, 64
2, 462339, Note_off_c, 0, 44, 64
2, 462377, Note_on_c, 0, 37, 31
2, 462384, Note_on_c, 0, 68, 57
2, 462384, Note_on_c, 0, 65, 58
2, 462384, Note_on_c, 0, 59, 25
2, 462548, Note_off_c, 0, 37, 64
2, 462561, Note_on_c, 0, 48, 34
2, 462707, Note_on_c, 0, 51, 37
2, 462735, Note_off_c, 0, 48, 64
2, 462804, Note_off_c, 0, 65, 64
2, 462819, Note_on_c, 0, 49, 42
2, 462840, Note_off_c, 0, 51, 64
2, 462880, Note_off_c, 0, 68, 64
2, 462960, Note_off_c, 0, 49, 64
2, 462968, Note_on_c, 0, 70, 63
2, 462976, Note_on_c, 0, 53, 40
2, 462979, Note_off_c, 0, 59, 64
2, 462980, Note_on_c, 0, 61, 40
2, 463099, Note_off_c, 0, 61, 64
2, 463115, Note_on_c, 0, 44, 37
2, 463164, Note_off_c, 0, 70, 64
2, 463171, Note_off_c, 0, 53, 64
2, 463227, Control_c, 0, 64, 0
2, 463241, Note_off_c, 0, 44, 64
2, 463269, Note_on_c, 0, 42, 50
2, 463296, Note_on_c, 0, 58, 62
2, 463311, Control_c, 0, 64, 127
2, 463376, Note_on_c, 0, 66, 57
2, 463470, Note_on_c, 0, 48, 39
2, 463527, Note_on_c, 0, 78, 67
2, 463643, Note_off_c, 0, 48, 64
2, 463665, Note_on_c, 0, 51, 33
2, 463818, Note_off_c, 0, 51, 64
2, 463826, Note_on_c, 0, 49, 29
2, 463865, Note_off_c, 0, 58, 64
2, 463891, Note_off_c, 0, 66, 64
2, 464026, Note_off_c, 0, 49, 64
2, 464028, Note_on_c, 0, 54, 29
2, 464037, Note_off_c, 0, 42, 64
2, 464187, Note_off_c, 0, 54, 64
2, 464189, Note_off_c, 0, 78, 64
2, 464232, Note_on_c, 0, 42, 29
2, 464408, Note_off_c, 0, 42, 64
2, 464448, Note_on_c, 0, 63, 55
2, 464450, Note_on_c, 0, 35, 72
2, 464520, Note_on_c, 0, 68, 52
2, 464576, Note_on_c, 0, 71, 52
2, 464648, Note_on_c, 0, 80, 60
2, 464708, Note_off_c, 0, 35, 64
2, 464708, Note_on_c, 0, 63, 55
2, 464708, Note_on_c, 0, 50, 33
2, 464714, Note_off_c, 0, 63, 64
2, 464927, Note_off_c, 0, 50, 64
2, 464952, Note_on_c, 0, 52, 30
2, 465128, Note_off_c, 0, 52, 64
2, 465128, Note_off_c, 0, 63, 64
2, 465128, Note_off_c, 0, 80, 64
2, 465128, Note_off_c, 0, 71, 64
2, 465128, Note_off_c, 0, 68, 64
2, 465161, Note_on_c, 0, 51, 39
2, 465360, Note_on_c, 0, 59, 31
2, 465389, Note_off_c, 0, 51, 64
2, 465568, Note_off_c, 0, 59, 64
2, 465577, Note_on_c, 0, 44, 43
2, 465813, Note_off_c, 0, 44, 64
2, 465829, Note_on_c, 0, 37, 35
2, 465836, Note_on_c, 0, 59, 52
2, 465881, Control_c, 0, 64, 0
2, 465924, Note_on_c, 0, 65, 48
2, 465975, Control_c, 0, 64, 127
2, 465988, Note_on_c, 0, 68, 46
2, 466076, Note_on_c, 0, 77, 60
2, 466164, Note_on_c, 0, 48, 32
2, 466266, Note_off_c, 0, 37, 64
2, 466395, Note_off_c, 0, 48, 64
2, 466404, Note_on_c, 0, 51, 40
2, 466508, Note_on_c, 0, 63, 3
2, 466612, Note_on_c, 0, 49, 34
2, 466640, Note_off_c, 0, 51, 64
2, 466744, Note_off_c, 0, 65, 64
2, 466788, Note_on_c, 0, 53, 37
2, 466798, Note_off_c, 0, 63, 64
2, 466827, Note_off_c, 0, 49, 64
2, 466857, Note_off_c, 0, 68, 64
2, 466948, Note_on_c, 0, 44, 33
2, 467003, Note_off_c, 0, 53, 64
2, 467025, Note_off_c, 0, 59, 64
2, 467168, Note_off_c, 0, 44, 64
2, 467168, Note_on_c, 0, 70, 69
2, 467168, Note_on_c, 0, 37, 47
2, 467210, Control_c, 0, 64, 0
2, 467292, Note_off_c, 0, 37, 64
2, 467301, Control_c, 0, 64, 127
2, 467404, Note_on_c, 0, 48, 40
2, 467553, Note_off_c, 0, 48, 64
2, 467568, Note_on_c, 0, 51, 41
2, 467684, Note_off_c, 0, 51, 64
2, 467717, Note_on_c, 0, 49, 41
2, 467892, Note_on_c, 0, 53, 31
2, 467900, Note_off_c, 0, 49, 64
2, 468008, Note_off_c, 0, 77, 64
2, 468047, Note_off_c, 0, 53, 64
2, 468077, Note_on_c, 0, 37, 41
2, 468181, Note_off_c, 0, 70, 64
2, 468184, Note_off_c, 0, 37, 64
2, 468205, Note_on_c, 0, 78, 63
2, 468248, Note_on_c, 0, 78, 63
2, 468259, Note_on_c, 0, 42, 46
2, 468292, Note_off_c, 0, 78, 64
2, 468293, Control_c, 0, 64, 0
2, 468347, Note_on_c, 0, 58, 60
2, 468371, Control_c, 0, 64, 127
2, 468446, Note_on_c, 0, 66, 64
2, 468548, Note_off_c, 0, 78, 64
2, 468608, Note_on_c, 0, 78, 60
2, 468612, Note_on_c, 0, 48, 23
2, 468750, Note_off_c, 0, 48, 64
2, 468781, Note_on_c, 0, 51, 33
2, 468944, Note_off_c, 0, 51, 64
2, 468952, Note_on_c, 0, 49, 30
2, 469150, Note_off_c, 0, 49, 64
2, 469157, Note_on_c, 0, 54, 27
2, 469176, Note_off_c, 0, 58, 64
2, 469193, Note_off_c, 0, 42, 64
2, 469244, Note_off_c, 0, 66, 64
2, 469258, Note_off_c, 0, 54, 64
2, 469385, Note_on_c, 0, 37, 42
2, 469516, Control_c, 0, 64, 0
2, 469581, Note_off_c, 0, 37, 64
2, 469592, Control_c, 0, 64, 127
2, 469600, Note_on_c, 0, 42, 35
2, 469853, Note_on_c, 0, 48, 42
2, 469868, Note_off_c, 0, 42, 64
2, 470025, Note_on_c, 0, 51, 35
2, 470049, Note_off_c, 0, 48, 64
2, 470226, Note_off_c, 0, 51, 64
2, 470230, Note_on_c, 0, 49, 35
2, 470446, Note_off_c, 0, 49, 64
2, 470452, Note_on_c, 0, 54, 26
2, 470722, Note_on_c, 0, 37, 32
2, 470773, Note_off_c, 0, 54, 64
2, 471057, Control_c, 0, 64, 0
2, 471060, Note_on_c, 0, 30, 36
2, 471071, Note_off_c, 0, 37, 64
2, 471130, Control_c, 0, 64, 127
2, 471214, Note_off_c, 0, 78, 64
2, 471391, Note_on_c, 0, 58, 35
2, 471391, Note_on_c, 0, 51, 25
2, 471397, Note_on_c, 0, 42, 21
2, 471505, Note_off_c, 0, 51, 64
2, 471511, Note_off_c, 0, 42, 64
2, 471517, Note_off_c, 0, 58, 64
2, 471618, Note_on_c, 0, 58, 37
2, 471630, Note_on_c, 0, 42, 30
2, 471634, Note_on_c, 0, 51, 39
2, 471706, Note_off_c, 0, 51, 64
2, 471708, Note_off_c, 0, 42, 64
2, 471724, Note_off_c, 0, 58, 64
2, 471800, Note_on_c, 0, 58, 48
2, 471807, Note_on_c, 0, 51, 42
2, 471807, Note_on_c, 0, 42, 36
2, 471877, Note_off_c, 0, 42, 64
2, 471881, Note_off_c, 0, 51, 64
2, 471936, Note_off_c, 0, 58, 64
2, 471986, Note_on_c, 0, 42, 32
2, 471989, Note_on_c, 0, 51, 40
2, 471992, Note_on_c, 0, 63, 55
2, 472053, Note_off_c, 0, 42, 64
2, 472055, Note_off_c, 0, 51, 64
2, 472180, Note_on_c, 0, 42, 30
2, 472184, Note_on_c, 0, 51, 40
2, 472189, Note_on_c, 0, 58, 46
2, 472205, Note_off_c, 0, 63, 64
2, 472275, Note_off_c, 0, 42, 64
2, 472295, Note_off_c, 0, 51, 64
2, 472356, Note_off_c, 0, 58, 64
2, 472419, Note_on_c, 0, 42, 30
2, 472436, Note_on_c, 0, 51, 39
2, 472502, Note_on_c, 0, 70, 64
2, 472509, Note_on_c, 0, 58, 42
2, 472625, Note_off_c, 0, 42, 64
2, 472651, Note_off_c, 0, 51, 64
2, 472799, Note_off_c, 0, 30, 64
2, 472834, Note_off_c, 0, 58, 64
2, 472864, Note_on_c, 0, 42, 21
2, 472865, Note_on_c, 0, 51, 28
2, 472964, Note_off_c, 0, 51, 64
2, 472965, Note_off_c, 0, 42, 64
2, 473010, Note_on_c, 0, 61, 38
2, 473246, Note_on_c, 0, 51, 37
2, 473266, Note_on_c, 0, 59, 34
2, 473305, Note_off_c, 0, 61, 64
2, 473341, Note_off_c, 0, 51, 64
2, 473368, Note_off_c, 0, 59, 64
2, 473516, Note_on_c, 0, 58, 33
2, 473522, Note_on_c, 0, 42, 21
2, 473526, Note_on_c, 0, 49, 28
2, 473659, Note_off_c, 0, 42, 64
2, 473666, Note_off_c, 0, 49, 64
2, 473726, Note_off_c, 0, 58, 64
2, 473791, Note_off_c, 0, 70, 64
2, 473805, Note_on_c, 0, 42, 24
2, 473813, Note_on_c, 0, 58, 28
2, 473813, Note_on_c, 0, 49, 28
2, 473818, Note_on_c, 0, 69, 52
2, 473938, Note_off_c, 0, 49, 64
2, 473940, Note_off_c, 0, 42, 64
2, 473954, Note_on_c, 0, 70, 64
2, 473960, Note_off_c, 0, 69, 64
2, 474022, Note_off_c, 0, 58, 64
2, 474150, Note_on_c, 0, 42, 20
2, 474161, Note_on_c, 0, 49, 21
2, 474170, Note_on_c, 0, 58, 23
2, 474174, Note_on_c, 0, 73, 41
2, 474196, Note_off_c, 0, 70, 64
2, 474371, Note_off_c, 0, 73, 64
2, 474386, Note_on_c, 0, 71, 30
2, 474425, Note_off_c, 0, 42, 64
2, 474468, Note_off_c, 0, 49, 64
2, 474476, Note_off_c, 0, 58, 64
2, 474780, Note_off_c, 0, 71, 64
2, 474788, Note_on_c, 0, 42, 18
2, 474793, Note_on_c, 0, 58, 25
2, 474796, Note_on_c, 0, 70, 48
2, 474800, Note_on_c, 0, 49, 16
2, 474893, Control_c, 0, 64, 0
2, 475165, Control_c, 0, 64, 127
2, 475535, Note_off_c, 0, 49, 64
2, 475546, Note_off_c, 0, 42, 64
2, 475606, Note_off_c, 0, 58, 64
2, 475613, Note_off_c, 0, 70, 64
2, 477345, Control_c, 0, 64, 127
2, 477359, Note_on_c, 0, 51, 40
2, 477364, Note_on_c, 0, 39, 31
2, 477433, Note_on_c, 0, 46, 28
2, 477446, Note_on_c, 0, 58, 41
2, 477507, Note_on_c, 0, 42, 38
2, 477511, Note_off_c, 0, 46, 64
2, 477511, Note_on_c, 0, 54, 41
2, 477517, Note_off_c, 0, 58, 64
2, 477576, Note_on_c, 0, 47, 35
2, 477579, Note_off_c, 0, 51, 64
2, 477580, Note_off_c, 0, 42, 64
2, 477584, Note_off_c, 0, 39, 64
2, 477586, Note_on_c, 0, 59, 43
2, 477597, Note_off_c, 0, 54, 64
2, 477652, Note_on_c, 0, 39, 48
2, 477660, Note_on_c, 0, 51, 55
2, 477665, Note_off_c, 0, 59, 64
2, 477667, Note_off_c, 0, 47, 64
2, 477724, Note_on_c, 0, 59, 44
2, 477727, Note_off_c, 0, 39, 64
2, 477727, Note_on_c, 0, 47, 51
2, 477735, Note_off_c, 0, 51, 64
2, 477776, Control_c, 0, 64, 0
2, 477803, Note_off_c, 0, 59, 64
2, 477805, Note_on_c, 0, 38, 40
2, 477808, Note_off_c, 0, 47, 64
2, 477810, Note_on_c, 0, 50, 54
2, 477842, Control_c, 0, 64, 127
2, 477871, Note_on_c, 0, 47, 49
2, 477877, Note_on_c, 0, 59, 48
2, 477940, Note_on_c, 0, 41, 38
2, 477946, Note_on_c, 0, 53, 38
2, 477957, Note_off_c, 0, 47, 64
2, 477960, Note_off_c, 0, 59, 64
2, 478019, Note_on_c, 0, 46, 48
2, 478021, Note_on_c, 0, 58, 48
2, 478025, Note_off_c, 0, 38, 64
2, 478030, Note_off_c, 0, 50, 64
2, 478039, Note_off_c, 0, 53, 64
2, 478042, Note_off_c, 0, 41, 64
2, 478084, Note_on_c, 0, 38, 51
2, 478093, Note_on_c, 0, 50, 51
2, 478096, Note_off_c, 0, 46, 64
2, 478115, Note_off_c, 0, 58, 64
2, 478163, Note_on_c, 0, 58, 48
2, 478169, Note_off_c, 0, 38, 64
2, 478169, Note_on_c, 0, 46, 48
2, 478173, Note_off_c, 0, 50, 64
2, 478203, Control_c, 0, 64, 0
2, 478248, Note_off_c, 0, 58, 64
2, 478248, Note_on_c, 0, 51, 56
2, 478250, Note_off_c, 0, 46, 64
2, 478251, Note_on_c, 0, 39, 55
2, 478285, Control_c, 0, 64, 127
2, 478312, Note_on_c, 0, 46, 44
2, 478317, Note_on_c, 0, 58, 40
2, 478382, Note_on_c, 0, 42, 38
2, 478388, Note_on_c, 0, 54, 38
2, 478392, Note_off_c, 0, 46, 64
2, 478411, Note_off_c, 0, 58, 64
2, 478457, Note_on_c, 0, 47, 44
2, 478463, Note_on_c, 0, 59, 38
2, 478466, Note_off_c, 0, 42, 64
2, 478468, Note_off_c, 0, 51, 64
2, 478471, Note_off_c, 0, 39, 64
2, 478477, Note_off_c, 0, 54, 64
2, 478528, Note_on_c, 0, 39, 45
2, 478536, Note_on_c, 0, 51, 48
2, 478548, Note_off_c, 0, 47, 64
2, 478555, Note_off_c, 0, 59, 64
2, 478608, Note_on_c, 0, 47, 41
2, 478610, Note_on_c, 0, 59, 45
2, 478616, Note_off_c, 0, 39, 64
2, 478623, Note_off_c, 0, 51, 64
2, 478642, Control_c, 0, 64, 0
2, 478678, Note_off_c, 0, 59, 64
2, 478684, Note_on_c, 0, 50, 51
2, 478688, Note_on_c, 0, 38, 44
2, 478693, Note_off_c, 0, 47, 64
2, 478731, Control_c, 0, 64, 127
2, 478756, Note_on_c, 0, 47, 45
2, 478758, Note_on_c, 0, 59, 45
2, 478825, Note_on_c, 0, 41, 35
2, 478831, Note_on_c, 0, 53, 29
2, 478846, Note_off_c, 0, 47, 64
2, 478849, Note_off_c, 0, 59, 64
2, 478894, Note_on_c, 0, 46, 37
2, 478899, Note_on_c, 0, 58, 48
2, 478904, Note_off_c, 0, 50, 64
2, 478908, Note_off_c, 0, 38, 64
2, 478913, Note_off_c, 0, 53, 64
2, 478913, Note_off_c, 0, 41, 64
2, 478964, Note_on_c, 0, 38, 42
2, 478970, Note_off_c, 0, 46, 64
2, 478970, Note_on_c, 0, 50, 51
2, 478979, Note_off_c, 0, 58, 64
2, 479042, Note_on_c, 0, 58, 44
2, 479045, Note_off_c, 0, 50, 64
2, 479048, Note_off_c, 0, 38, 64
2, 479049, Note_on_c, 0, 46, 49
2, 479082, Control_c, 0, 64, 0
2, 479109, Note_off_c, 0, 58, 64
2, 479119, Note_off_c, 0, 46, 64
2, 479123, Note_on_c, 0, 51, 54
2, 479125, Note_on_c, 0, 39, 50
2, 479155, Control_c, 0, 64, 127
2, 479190, Note_on_c, 0, 46, 44
2, 479196, Note_on_c, 0, 58, 40
2, 479259, Note_on_c, 0, 42, 38
2, 479260, Note_on_c, 0, 54, 38
2, 479265, Note_off_c, 0, 46, 64
2, 479275, Note_off_c, 0, 58, 64
2, 479326, Note_on_c, 0, 59, 43
2, 479330, Note_off_c, 0, 42, 64
2, 479332, Note_on_c, 0, 47, 37
2, 479343, Note_off_c, 0, 51, 64
2, 479344, Note_off_c, 0, 54, 64
2, 479345, Note_off_c, 0, 39, 64
2, 479389, Note_off_c, 0, 47, 64
2, 479391, Note_on_c, 0, 39, 52
2, 479400, Note_off_c, 0, 59, 64
2, 479400, Note_on_c, 0, 51, 52
2, 479441, Note_off_c, 0, 39, 64
2, 479446, Note_on_c, 0, 47, 39
2, 479462, Note_on_c, 0, 60, 45
2, 479468, Note_off_c, 0, 51, 64
2, 479520, Control_c, 0, 64, 0
2, 479528, Note_on_c, 0, 41, 32
2, 479533, Note_on_c, 0, 53, 40
2, 479535, Note_off_c, 0, 60, 64
2, 479545, Note_off_c, 0, 47, 64
2, 479594, Control_c, 0, 64, 127
2, 479603, Note_on_c, 0, 48, 34
2, 479605, Note_on_c, 0, 60, 47
2, 479664, Note_on_c, 0, 56, 57
2, 479667, Note_on_c, 0, 44, 33
2, 479677, Note_off_c, 0, 60, 64
2, 479688, Note_off_c, 0, 48, 64
2, 479737, Note_on_c, 0, 63, 57
2, 479742, Note_on_c, 0, 51, 56
2, 479746, Note_off_c, 0, 56, 64
2, 479748, Note_off_c, 0, 41, 64
2, 479753, Note_off_c, 0, 53, 64
2, 479760, Note_off_c, 0, 44, 64
2, 479805, Note_on_c, 0, 57, 44
2, 479818, Note_on_c, 0, 45, 42
2, 479822, Note_off_c, 0, 63, 64
2, 479825, Note_off_c, 0, 51, 64
2, 479880, Note_on_c, 0, 61, 40
2, 479885, Note_off_c, 0, 45, 64
2, 479887, Note_on_c, 0, 49, 34
2, 479891, Note_off_c, 0, 57, 64
2, 479911, Control_c, 0, 64, 0
2, 479936, Note_on_c, 0, 42, 44
2, 479948, Note_off_c, 0, 49, 64
2, 479949, Note_on_c, 0, 54, 50
2, 479958, Note_off_c, 0, 61, 64
2, 479992, Control_c, 0, 64, 127
2, 480017, Note_on_c, 0, 49, 36
2, 480021, Note_on_c, 0, 61, 40
2, 480085, Note_off_c, 0, 49, 64
2, 480090, Note_on_c, 0, 45, 38
2, 480091, Note_on_c, 0, 57, 37
2, 480102, Note_off_c, 0, 61, 64
2, 480155, Note_on_c, 0, 63, 41
2, 480156, Note_off_c, 0, 42, 64
2, 480156, Note_on_c, 0, 51, 48
2, 480162, Note_off_c, 0, 45, 64
2, 480169, Note_off_c, 0, 54, 64
2, 480173, Note_off_c, 0, 57, 64
2, 480222, Note_on_c, 0, 54, 54
2, 480228, Note_on_c, 0, 42, 49
2, 480234, Note_off_c, 0, 51, 64
2, 480241, Note_off_c, 0, 63, 64
2, 480292, Note_off_c, 0, 54, 64
2, 480294, Note_on_c, 0, 64, 48
2, 480294, Note_on_c, 0, 52, 50
2, 480298, Note_off_c, 0, 42, 64
2, 480357, Note_off_c, 0, 52, 64
2, 480362, Control_c, 0, 64, 0
2, 480367, Note_off_c, 0, 64, 64
2, 480373, Note_on_c, 0, 57, 51
2, 480376, Note_on_c, 0, 45, 28
2, 480425, Control_c, 0, 64, 127
2, 480433, Note_on_c, 0, 52, 48
2, 480439, Note_on_c, 0, 64, 49
2, 480498, Note_on_c, 0, 48, 44
2, 480502, Note_on_c, 0, 60, 33
2, 480511, Note_off_c, 0, 64, 64
2, 480514, Note_off_c, 0, 52, 64
2, 480573, Note_off_c, 0, 48, 64
2, 480577, Note_off_c, 0, 60, 64
2, 480581, Note_on_c, 0, 66, 64
2, 480584, Note_on_c, 0, 54, 63
2, 480593, Note_off_c, 0, 57, 64
2, 480596, Note_off_c, 0, 45, 64
2, 480652, Note_on_c, 0, 61, 46
2, 480657, Note_on_c, 0, 49, 46
2, 480663, Note_off_c, 0, 54, 64
2, 480673, Note_off_c, 0, 66, 64
2, 480715, Note_off_c, 0, 49, 64
2, 480718, Note_on_c, 0, 65, 44
2, 480721, Note_on_c, 0, 53, 37
2, 480723, Note_off_c, 0, 61, 64
2, 480762, Control_c, 0, 64, 0
2, 480796, Note_off_c, 0, 53, 64
2, 480797, Note_on_c, 0, 58, 47
2, 480802, Note_on_c, 0, 46, 50
2, 480806, Note_off_c, 0, 65, 64
2, 480828, Control_c, 0, 64, 127
2, 480864, Note_on_c, 0, 53, 43
2, 480866, Note_on_c, 0, 65, 40
2, 480931, Note_off_c, 0, 53, 64
2, 480933, Note_on_c, 0, 61, 46
2, 480937, Note_on_c, 0, 49, 36
2, 480947, Note_off_c, 0, 65, 64
2, 480996, Note_off_c, 0, 49, 64
2, 481003, Note_on_c, 0, 66, 49
2, 481006, Note_on_c, 0, 54, 52
2, 481017, Note_off_c, 0, 58, 64
2, 481018, Note_off_c, 0, 61, 64
2, 481022, Note_off_c, 0, 46, 64
2, 481070, Note_on_c, 0, 46, 57
2, 481074, Note_on_c, 0, 58, 61
2, 481085, Note_off_c, 0, 54, 64
2, 481086, Note_off_c, 0, 66, 64
2, 481137, Note_on_c, 0, 54, 56
2, 481141, Note_on_c, 0, 66, 51
2, 481144, Note_off_c, 0, 46, 64
2, 481163, Note_off_c, 0, 58, 64
2, 481171, Control_c, 0, 64, 0
2, 481215, Note_on_c, 0, 45, 56
2, 481218, Note_on_c, 0, 57, 71
2, 481219, Note_off_c, 0, 66, 64
2, 481221, Note_off_c, 0, 54, 64
2, 481239, Control_c, 0, 64, 127
2, 481289, Note_on_c, 0, 66, 70
2, 481289, Note_on_c, 0, 54, 71
2, 481352, Note_off_c, 0, 54, 64
2, 481356, Note_on_c, 0, 60, 62
2, 481358, Note_on_c, 0, 48, 55
2, 481365, Note_off_c, 0, 66, 64
2, 481424, Note_on_c, 0, 65, 53
2, 481432, Note_off_c, 0, 60, 64
2, 481432, Note_on_c, 0, 53, 44
2, 481435, Note_off_c, 0, 45, 64
2, 481437, Note_off_c, 0, 48, 64
2, 481438, Note_off_c, 0, 57, 64
2, 481488, Note_off_c, 0, 65, 64
2, 481489, Note_on_c, 0, 57, 61
2, 481498, Note_on_c, 0, 45, 52
2, 481504, Note_off_c, 0, 53, 64
2, 481562, Note_on_c, 0, 65, 52
2, 481567, Note_off_c, 0, 45, 64
2, 481567, Note_off_c, 0, 57, 64
2, 481570, Note_on_c, 0, 53, 56
2, 481578, Control_c, 0, 64, 0
2, 481618, Note_off_c, 0, 65, 64
2, 481634, Note_on_c, 0, 58, 60
2, 481638, Note_on_c, 0, 46, 56
2, 481649, Control_c, 0, 64, 127
2, 481657, Note_off_c, 0, 53, 64
2, 481700, Note_on_c, 0, 65, 54
2, 481711, Note_on_c, 0, 53, 50
2, 481765, Note_on_c, 0, 61, 42
2, 481770, Note_off_c, 0, 53, 64
2, 481773, Note_on_c, 0, 49, 48
2, 481779, Note_off_c, 0, 65, 64
2, 481833, Note_on_c, 0, 66, 60
2, 481834, Note_on_c, 0, 54, 66
2, 481836, Note_off_c, 0, 49, 64
2, 481846, Note_off_c, 0, 61, 64
2, 481854, Note_off_c, 0, 58, 64
2, 481858, Note_off_c, 0, 46, 64
2, 481898, Note_on_c, 0, 45, 64
2, 481902, Note_off_c, 0, 54, 64
2, 481904, Note_on_c, 0, 57, 73
2, 481923, Note_off_c, 0, 66, 64
2, 481967, Note_on_c, 0, 66, 62
2, 481976, Note_on_c, 0, 54, 64
2, 481993, Control_c, 0, 64, 0
2, 482018, Note_off_c, 0, 45, 64
2, 482024, Note_off_c, 0, 57, 64
2, 482038, Note_off_c, 0, 66, 64
2, 482040, Note_on_c, 0, 56, 84
2, 482045, Note_off_c, 0, 54, 64
2, 482047, Note_on_c, 0, 44, 76
2, 482062, Control_c, 0, 64, 127
2, 482109, Note_on_c, 0, 66, 45
2, 482110, Note_on_c, 0, 54, 68
2, 482179, Note_on_c, 0, 62, 55
2, 482182, Note_off_c, 0, 54, 64
2, 482185, Note_on_c, 0, 50, 55
2, 482193, Note_off_c, 0, 66, 64
2, 482254, Note_off_c, 0, 62, 64
2, 482256, Note_on_c, 0, 65, 55
2, 482258, Note_on_c, 0, 53, 52
2, 482260, Note_off_c, 0, 56, 64
2, 482263, Note_off_c, 0, 50, 64
2, 482267, Note_off_c, 0, 44, 64
2, 482324, Note_on_c, 0, 59, 54
2, 482326, Note_off_c, 0, 65, 64
2, 482326, Note_on_c, 0, 47, 54
2, 482331, Note_off_c, 0, 53, 64
2, 482390, Note_on_c, 0, 65, 52
2, 482395, Note_on_c, 0, 53, 52
2, 482400, Note_off_c, 0, 47, 64
2, 482400, Note_off_c, 0, 59, 64
2, 482427, Control_c, 0, 64, 0
2, 482463, Note_on_c, 0, 56, 65
2, 482465, Note_off_c, 0, 65, 64
2, 482465, Note_on_c, 0, 44, 59
2, 482472, Note_off_c, 0, 53, 64
2, 482488, Control_c, 0, 64, 127
2, 482523, Note_on_c, 0, 64, 49
2, 482534, Note_on_c, 0, 52, 56
2, 482602, Note_on_c, 0, 59, 53
2, 482602, Note_on_c, 0, 47, 46
2, 482612, Note_off_c, 0, 64, 64
2, 482629, Note_off_c, 0, 52, 64
2, 482667, Note_on_c, 0, 50, 55
2, 482669, Note_on_c, 0, 62, 55
2, 482679, Note_off_c, 0, 47, 64
2, 482683, Note_off_c, 0, 56, 64
2, 482684, Note_off_c, 0, 59, 64
2, 482685, Note_off_c, 0, 44, 64
2, 482722, Note_off_c, 0, 50, 64
2, 482733, Note_on_c, 0, 44, 55
2, 482734, Note_on_c, 0, 56, 59
2, 482737, Note_off_c, 0, 62, 64
2, 482801, Note_on_c, 0, 62, 34
2, 482803, Note_on_c, 0, 50, 44
2, 482807, Note_off_c, 0, 44, 64
2, 482813, Note_off_c, 0, 56, 64
2, 482819, Control_c, 0, 64, 0
2, 482873, Note_on_c, 0, 43, 51
2, 482880, Note_off_c, 0, 50, 64
2, 482883, Note_on_c, 0, 55, 50
2, 482884, Note_off_c, 0, 62, 64
2, 482896, Control_c, 0, 64, 127
2, 482943, Note_on_c, 0, 50, 45
2, 482947, Note_on_c, 0, 62, 45
2, 483003, Note_on_c, 0, 58, 47
2, 483011, Note_off_c, 0, 62, 64
2, 483011, Note_on_c, 0, 46, 32
2, 483019, Note_off_c, 0, 50, 64
2, 483077, Note_on_c, 0, 65, 50
2, 483083, Note_on_c, 0, 53, 50
2, 483093, Note_off_c, 0, 43, 64
2, 483094, Note_off_c, 0, 46, 64
2, 483095, Note_off_c, 0, 58, 64
2, 483103, Note_off_c, 0, 55, 64
2, 483141, Note_on_c, 0, 55, 58
2, 483141, Note_on_c, 0, 43, 49
2, 483157, Note_off_c, 0, 53, 64
2, 483205, Note_off_c, 0, 65, 64
2, 483209, Note_on_c, 0, 51, 50
2, 483210, Note_on_c, 0, 63, 56
2, 483216, Note_off_c, 0, 43, 64
2, 483216, Note_off_c, 0, 55, 64
2, 483249, Control_c, 0, 64, 0
2, 483264, Note_off_c, 0, 51, 64
2, 483272, Note_off_c, 0, 63, 64
2, 483280, Note_on_c, 0, 41, 68
2, 483282, Note_on_c, 0, 53, 67
2, 483311, Control_c, 0, 64, 127
2, 483346, Note_on_c, 0, 61, 60
2, 483348, Note_on_c, 0, 49, 70
2, 483409, Note_on_c, 0, 55, 59
2, 483415, Note_on_c, 0, 43, 62
2, 483420, Note_off_c, 0, 49, 64
2, 483420, Note_off_c, 0, 61, 64
2, 483476, Note_on_c, 0, 59, 58
2, 483479, Note_on_c, 0, 47, 64
2, 483484, Note_off_c, 0, 43, 64
2, 483500, Note_off_c, 0, 55, 64
2, 483500, Note_off_c, 0, 41, 64
2, 483502, Note_off_c, 0, 53, 64
2, 483540, Note_on_c, 0, 53, 63
2, 483540, Note_on_c, 0, 41, 64
2, 483546, Note_off_c, 0, 47, 64
2, 483558, Note_off_c, 0, 59, 64
2, 483606, Note_on_c, 0, 59, 58
2, 483610, Note_on_c, 0, 47, 53
2, 483624, Note_off_c, 0, 53, 64
2, 483626, Note_off_c, 0, 41, 64
2, 483641, Control_c, 0, 64, 0
2, 483666, Note_off_c, 0, 47, 64
2, 483675, Note_on_c, 0, 40, 54
2, 483677, Note_off_c, 0, 59, 64
2, 483682, Note_on_c, 0, 52, 61
2, 483708, Control_c, 0, 64, 127
2, 483755, Note_on_c, 0, 59, 32
2, 483762, Note_on_c, 0, 47, 48
2, 483813, Note_on_c, 0, 55, 52
2, 483819, Note_off_c, 0, 59, 64
2, 483829, Note_on_c, 0, 43, 45
2, 483844, Note_off_c, 0, 47, 64
2, 483883, Note_on_c, 0, 61, 57
2, 483893, Note_on_c, 0, 49, 60
2, 483894, Note_off_c, 0, 55, 64
2, 483895, Note_off_c, 0, 40, 64
2, 483900, Note_off_c, 0, 43, 64
2, 483902, Note_off_c, 0, 52, 64
2, 483951, Note_on_c, 0, 52, 62
2, 483952, Note_on_c, 0, 40, 52
2, 483958, Note_off_c, 0, 49, 64
2, 483961, Note_off_c, 0, 61, 64
2, 484014, Note_on_c, 0, 60, 60
2, 484016, Note_off_c, 0, 40, 64
2, 484017, Note_on_c, 0, 48, 63
2, 484025, Note_off_c, 0, 52, 64
2, 484052, Control_c, 0, 64, 0
2, 484069, Note_off_c, 0, 60, 64
2, 484084, Note_on_c, 0, 54, 80
2, 484090, Note_on_c, 0, 42, 57
2, 484094, Note_off_c, 0, 48, 64
2, 484118, Control_c, 0, 64, 127
2, 484146, Note_on_c, 0, 62, 65
2, 484157, Note_on_c, 0, 50, 67
2, 484211, Note_on_c, 0, 45, 63
2, 484215, Note_on_c, 0, 57, 63
2, 484220, Note_off_c, 0, 62, 64
2, 484231, Note_off_c, 0, 50, 64
2, 484285, Note_on_c, 0, 60, 62
2, 484285, Note_on_c, 0, 48, 57
2, 484295, Note_off_c, 0, 57, 64
2, 484296, Note_off_c, 0, 45, 64
2, 484304, Note_off_c, 0, 54, 64
2, 484310, Note_off_c, 0, 42, 64
2, 484347, Note_off_c, 0, 60, 64
2, 484349, Note_on_c, 0, 54, 74
2, 484349, Note_on_c, 0, 42, 64
2, 484354, Note_off_c, 0, 48, 64
2, 484408, Note_on_c, 0, 48, 52
2, 484411, Note_on_c, 0, 60, 57
2, 484417, Note_off_c, 0, 42, 64
2, 484419, Control_c, 0, 64, 0
2, 484427, Note_off_c, 0, 54, 64
2, 484464, Note_off_c, 0, 60, 64
2, 484480, Note_on_c, 0, 41, 52
2, 484482, Note_off_c, 0, 48, 64
2, 484488, Note_on_c, 0, 53, 40
2, 484503, Control_c, 0, 64, 127
2, 484549, Note_on_c, 0, 48, 40
2, 484552, Note_on_c, 0, 60, 53
2, 484610, Note_on_c, 0, 56, 52
2, 484610, Note_on_c, 0, 44, 39
2, 484622, Note_off_c, 0, 48, 64
2, 484626, Note_off_c, 0, 60, 64
2, 484678, Note_on_c, 0, 63, 49
2, 484682, Note_on_c, 0, 51, 58
2, 484697, Note_off_c, 0, 44, 64
2, 484698, Note_off_c, 0, 56, 64
2, 484700, Note_off_c, 0, 41, 64
2, 484708, Note_off_c, 0, 53, 64
2, 484740, Note_off_c, 0, 51, 64
2, 484744, Note_on_c, 0, 53, 60
2, 484750, Note_on_c, 0, 41, 45
2, 484788, Note_off_c, 0, 63, 64
2, 484809, Note_on_c, 0, 61, 53
2, 484814, Note_off_c, 0, 41, 64
2, 484820, Note_on_c, 0, 49, 56
2, 484822, Note_off_c, 0, 53, 64
2, 484872, Note_off_c, 0, 49, 64
2, 484878, Note_off_c, 0, 61, 64
2, 484883, Control_c, 0, 64, 0
2, 484888, Note_on_c, 0, 51, 73
2, 484891, Note_on_c, 0, 39, 72
2, 484947, Control_c, 0, 64, 127
2, 484952, Note_on_c, 0, 59, 64
2, 484952, Note_on_c, 0, 47, 49
2, 485017, Note_on_c, 0, 53, 60
2, 485026, Note_on_c, 0, 41, 58
2, 485037, Note_off_c, 0, 59, 64
2, 485038, Note_off_c, 0, 47, 64
2, 485085, Note_on_c, 0, 57, 59
2, 485085, Note_on_c, 0, 45, 51
2, 485090, Note_off_c, 0, 41, 64
2, 485095, Note_off_c, 0, 53, 64
2, 485108, Note_off_c, 0, 51, 64
2, 485111, Note_off_c, 0, 39, 64
2, 485135, Note_off_c, 0, 45, 64
2, 485147, Note_off_c, 0, 57, 64
2, 485147, Note_on_c, 0, 51, 69
2, 485150, Note_on_c, 0, 39, 61
2, 485210, Note_on_c, 0, 45, 48
2, 485211, Note_on_c, 0, 57, 56
2, 485220, Note_off_c, 0, 39, 64
2, 485224, Note_off_c, 0, 51, 64
2, 485239, Control_c, 0, 64, 0
2, 485280, Note_off_c, 0, 45, 64
2, 485281, Note_off_c, 0, 57, 64
2, 485282, Note_on_c, 0, 38, 54
2, 485285, Note_on_c, 0, 50, 53
2, 485313, Control_c, 0, 64, 127
2, 485347, Note_on_c, 0, 45, 55
2, 485348, Note_on_c, 0, 57, 55
2, 485412, Note_on_c, 0, 53, 49
2, 485412, Note_on_c, 0, 41, 56
2, 485427, Note_off_c, 0, 57, 64
2, 485428, Note_off_c, 0, 45, 64
2, 485481, Note_on_c, 0, 58, 74
2, 485483, Note_on_c, 0, 46, 69
2, 485487, Note_off_c, 0, 53, 64
2, 485498, Note_off_c, 0, 41, 64
2, 485502, Note_off_c, 0, 38, 64
2, 485505, Note_off_c, 0, 50, 64
2, 485541, Note_on_c, 0, 54, 84
2, 485547, Note_on_c, 0, 42, 72
2, 485552, Note_off_c, 0, 58, 64
2, 485555, Note_off_c, 0, 46, 64
2, 485604, Note_off_c, 0, 42, 64
2, 485605, Note_on_c, 0, 46, 85
2, 485609, Note_on_c, 0, 58, 77
2, 485619, Note_off_c, 0, 54, 64
2, 485636, Control_c, 0, 64, 0
2, 485677, Note_on_c, 0, 51, 92
2, 485683, Note_off_c, 0, 58, 64
2, 485683, Note_on_c, 0, 39, 87
2, 485685, Note_off_c, 0, 46, 64
2, 485710, Control_c, 0, 64, 127
2, 485742, Note_on_c, 0, 58, 56
2, 485747, Note_on_c, 0, 46, 60
2, 485804, Note_on_c, 0, 42, 64
2, 485805, Note_off_c, 0, 46, 64
2, 485808, Note_on_c, 0, 54, 57
2, 485827, Note_off_c, 0, 58, 64
2, 485868, Note_on_c, 0, 47, 67
2, 485872, Note_on_c, 0, 59, 60
2, 485874, Note_off_c, 0, 42, 64
2, 485886, Note_off_c, 0, 54, 64
2, 485897, Note_off_c, 0, 51, 64
2, 485903, Note_off_c, 0, 39, 64
2, 485936, Note_on_c, 0, 39, 81
2, 485938, Note_off_c, 0, 59, 64
2, 485938, Note_on_c, 0, 51, 80
2, 485946, Note_off_c, 0, 47, 64
2, 485994, Note_on_c, 0, 59, 58
2, 485999, Note_on_c, 0, 47, 71
2, 486002, Note_off_c, 0, 39, 64
2, 486016, Note_off_c, 0, 51, 64
2, 486026, Control_c, 0, 64, 0
2, 486053, Note_off_c, 0, 59, 64
2, 486058, Note_on_c, 0, 50, 103
2, 486065, Note_off_c, 0, 47, 64
2, 486068, Note_on_c, 0, 38, 87
2, 486092, Control_c, 0, 64, 127
2, 486123, Note_on_c, 0, 59, 60
2, 486132, Note_on_c, 0, 47, 83
2, 486186, Note_on_c, 0, 53, 57
2, 486188, Note_on_c, 0, 41, 62
2, 486203, Note_off_c, 0, 47, 64
2, 486209, Note_off_c, 0, 59, 64
2, 486250, Note_on_c, 0, 58, 63
2, 486255, Note_on_c, 0, 46, 68
2, 486267, Note_off_c, 0, 41, 64
2, 486270, Note_off_c, 0, 53, 64
2, 486278, Note_off_c, 0, 50, 64
2, 486288, Note_off_c, 0, 38, 64
2, 486313, Note_on_c, 0, 50, 65
2, 486315, Note_on_c, 0, 38, 65
2, 486321, Note_off_c, 0, 58, 64
2, 486323, Note_off_c, 0, 46, 64
2, 486374, Note_on_c, 0, 58, 59
2, 486379, Note_on_c, 0, 46, 59
2, 486383, Note_off_c, 0, 50, 64
2, 486383, Control_c, 0, 64, 0
2, 486391, Note_off_c, 0, 38, 64
2, 486439, Note_off_c, 0, 58, 64
2, 486441, Note_on_c, 0, 39, 56
2, 486445, Note_off_c, 0, 46, 64
2, 486445, Note_on_c, 0, 51, 58
2, 486450, Control_c, 0, 64, 127
2, 486499, Note_on_c, 0, 58, 40
2, 486502, Note_on_c, 0, 46, 46
2, 486563, Note_on_c, 0, 54, 68
2, 486567, Note_on_c, 0, 42, 74
2, 486576, Note_off_c, 0, 58, 64
2, 486585, Note_off_c, 0, 46, 64
2, 486619, Note_on_c, 0, 59, 65
2, 486626, Note_off_c, 0, 42, 64
2, 486628, Note_off_c, 0, 54, 64
2, 486630, Note_on_c, 0, 47, 82
2, 486661, Note_off_c, 0, 39, 64
2, 486665, Note_off_c, 0, 51, 64
2, 486688, Note_on_c, 0, 43, 98
2, 486688, Control_c, 0, 64, 0
2, 486691, Note_on_c, 0, 55, 86
2, 486698, Note_off_c, 0, 47, 64
2, 486698, Note_off_c, 0, 59, 64
2, 486763, Note_on_c, 0, 59, 72
2, 486763, Note_on_c, 0, 47, 79
2, 486820, Note_on_c, 0, 38, 78
2, 486823, Note_on_c, 0, 50, 86
2, 486830, Note_off_c, 0, 59, 64
2, 486836, Control_c, 0, 64, 127
2, 486843, Note_off_c, 0, 47, 64
2, 486886, Note_on_c, 0, 59, 56
2, 486889, Note_on_c, 0, 47, 73
2, 486908, Note_off_c, 0, 43, 64
2, 486911, Note_off_c, 0, 55, 64
2, 486948, Note_on_c, 0, 54, 64
2, 486953, Note_on_c, 0, 42, 60
2, 486963, Note_off_c, 0, 59, 64
2, 486967, Note_off_c, 0, 47, 64
2, 487012, Note_on_c, 0, 46, 64
2, 487017, Note_on_c, 0, 58, 61
2, 487021, Note_off_c, 0, 54, 64
2, 487024, Note_off_c, 0, 42, 64
2, 487040, Note_off_c, 0, 38, 64
2, 487043, Note_off_c, 0, 50, 64
2, 487075, Note_on_c, 0, 53, 51
2, 487078, Note_off_c, 0, 46, 64
2, 487078, Note_on_c, 0, 41, 51
2, 487081, Note_off_c, 0, 58, 64
2, 487136, Control_c, 0, 64, 0
2, 487139, Note_on_c, 0, 58, 50
2, 487141, Note_on_c, 0, 46, 56
2, 487148, Note_off_c, 0, 41, 64
2, 487152, Note_off_c, 0, 53, 64
2, 487196, Note_off_c, 0, 58, 64
2, 487202, Note_on_c, 0, 51, 66
2, 487206, Note_off_c, 0, 46, 64
2, 487208, Note_on_c, 0, 39, 63
2, 487224, Control_c, 0, 64, 127
2, 487266, Note_on_c, 0, 46, 56
2, 487268, Note_on_c, 0, 58, 31
2, 487323, Note_on_c, 0, 42, 50
2, 487330, Note_off_c, 0, 46, 64
2, 487331, Note_on_c, 0, 54, 41
2, 487340, Note_off_c, 0, 58, 64
2, 487395, Note_on_c, 0, 47, 50
2, 487399, Note_off_c, 0, 42, 64
2, 487399, Note_on_c, 0, 59, 45
2, 487410, Note_off_c, 0, 54, 64
2, 487422, Note_off_c, 0, 51, 64
2, 487428, Note_off_c, 0, 39, 64
2, 487456, Note_on_c, 0, 51, 56
2, 487460, Note_off_c, 0, 59, 64
2, 487462, Note_on_c, 0, 39, 58
2, 487466, Note_off_c, 0, 47, 64
2, 487515, Note_on_c, 0, 59, 45
2, 487519, Note_off_c, 0, 39, 64
2, 487520, Note_on_c, 0, 47, 46
2, 487525, Note_off_c, 0, 51, 64
2, 487553, Note_off_c, 0, 59, 64
2, 487563, Control_c, 0, 64, 0
2, 487568, Note_on_c, 0, 41, 51
2, 487582, Note_on_c, 0, 53, 51
2, 487590, Note_off_c, 0, 47, 64
2, 487615, Control_c, 0, 64, 127
2, 487647, Note_on_c, 0, 61, 39
2, 487652, Note_on_c, 0, 49, 49
2, 487710, Note_on_c, 0, 57, 44
2, 487715, Note_off_c, 0, 61, 64
2, 487720, Note_on_c, 0, 45, 46
2, 487722, Note_off_c, 0, 49, 64
2, 487768, Note_on_c, 0, 61, 55
2, 487774, Note_on_c, 0, 49, 48
2, 487783, Note_off_c, 0, 45, 64
2, 487784, Note_off_c, 0, 57, 64
2, 487788, Note_off_c, 0, 41, 64
2, 487802, Note_off_c, 0, 53, 64
2, 487824, Note_off_c, 0, 49, 64
2, 487824, Note_on_c, 0, 41, 54
2, 487829, Note_off_c, 0, 61, 64
2, 487833, Note_on_c, 0, 53, 56
2, 487890, Note_off_c, 0, 41, 64
2, 487891, Note_on_c, 0, 61, 52
2, 487893, Note_off_c, 0, 53, 64
2, 487900, Note_on_c, 0, 49, 48
2, 487900, Control_c, 0, 64, 0
2, 487948, Note_off_c, 0, 61, 64
2, 487959, Note_off_c, 0, 49, 64
2, 487960, Note_on_c, 0, 54, 64
2, 487964, Note_on_c, 0, 42, 59
2, 487970, Control_c, 0, 64, 127
2, 488022, Note_on_c, 0, 49, 58
2, 488025, Note_on_c, 0, 61, 56
2, 488088, Note_on_c, 0, 57, 54
2, 488091, Note_on_c, 0, 45, 54
2, 488093, Note_off_c, 0, 49, 64
2, 488097, Note_off_c, 0, 61, 64
2, 488152, Note_on_c, 0, 62, 55
2, 488155, Note_on_c, 0, 50, 60
2, 488161, Note_off_c, 0, 45, 64
2, 488164, Note_off_c, 0, 57, 64
2, 488180, Note_off_c, 0, 54, 64
2, 488184, Note_off_c, 0, 42, 64
2, 488214, Note_on_c, 0, 42, 64
2, 488219, Note_off_c, 0, 62, 64
2, 488220, Note_on_c, 0, 54, 73
2, 488225, Note_off_c, 0, 50, 64
2, 488275, Note_on_c, 0, 62, 50
2, 488277, Note_on_c, 0, 50, 62
2, 488287, Note_off_c, 0, 54, 64
2, 488291, Control_c, 0, 64, 0
2, 488306, Note_off_c, 0, 42, 64
2, 488324, Note_off_c, 0, 62, 64
2, 488335, Note_on_c, 0, 58, 64
2, 488335, Note_on_c, 0, 46, 64
2, 488341, Note_off_c, 0, 50, 64
2, 488345, Control_c, 0, 64, 127
2, 488395, Note_on_c, 0, 63, 60
2, 488400, Note_on_c, 0, 51, 72
2, 488459, Note_on_c, 0, 54, 79
2, 488462, Note_on_c, 0, 42, 68
2, 488467, Note_off_c, 0, 51, 64
2, 488478, Note_off_c, 0, 63, 64
2, 488511, Note_off_c, 0, 42, 64
2, 488520, Note_on_c, 0, 64, 61
2, 488523, Note_on_c, 0, 52, 65
2, 488532, Note_off_c, 0, 54, 64
2, 488555, Note_off_c, 0, 46, 64
2, 488555, Note_off_c, 0, 58, 64
2, 488577, Note_off_c, 0, 64, 64
2, 488579, Note_off_c, 0, 52, 64
2, 488579, Note_on_c, 0, 43, 68
2, 488582, Note_on_c, 0, 55, 68
2, 488631, Note_off_c, 0, 43, 64
2, 488638, Note_on_c, 0, 53, 65
2, 488641, Note_on_c, 0, 65, 63
2, 488646, Note_off_c, 0, 55, 64
2, 488685, Note_off_c, 0, 53, 64
2, 488690, Note_off_c, 0, 65, 64
2, 488705, Note_on_c, 0, 56, 86
2, 488709, Note_on_c, 0, 44, 45
2, 488743, Note_off_c, 0, 56, 64
2, 488745, Note_off_c, 0, 44, 64
2, 488764, Note_on_c, 0, 59, 53
2, 488770, Note_on_c, 0, 47, 51
2, 488800, Note_off_c, 0, 59, 64
2, 488806, Note_off_c, 0, 47, 64
2, 488827, Note_on_c, 0, 54, 80
2, 488830, Note_on_c, 0, 42, 60
2, 488863, Note_off_c, 0, 54, 64
2, 488866, Note_off_c, 0, 42, 64
2, 488884, Note_on_c, 0, 59, 51
2, 488892, Note_on_c, 0, 47, 55
2, 488920, Note_off_c, 0, 59, 64
2, 488928, Note_off_c, 0, 47, 64
2, 488950, Note_on_c, 0, 41, 65
2, 488953, Note_on_c, 0, 53, 63
2, 488986, Note_off_c, 0, 41, 64
2, 488989, Note_off_c, 0, 53, 64
2, 489007, Note_on_c, 0, 59, 50
2, 489010, Note_on_c, 0, 47, 52
2, 489043, Note_off_c, 0, 59, 64
2, 489046, Note_off_c, 0, 47, 64
2, 489066, Note_on_c, 0, 51, 72
2, 489068, Note_on_c, 0, 39, 57
2, 489102, Note_off_c, 0, 51, 64
2, 489109, Note_off_c, 0, 39, 64
2, 489119, Note_on_c, 0, 56, 55
2, 489120, Note_on_c, 0, 44, 55
2, 489155, Note_off_c, 0, 56, 64
2, 489156, Note_off_c, 0, 44, 64
2, 489180, Note_on_c, 0, 38, 60
2, 489182, Note_on_c, 0, 50, 62
2, 489216, Note_off_c, 0, 38, 64
2, 489218, Note_off_c, 0, 50, 64
2, 489240, Note_on_c, 0, 43, 64
2, 489243, Note_on_c, 0, 54, 56
2, 489276, Note_off_c, 0, 43, 64
2, 489279, Note_off_c, 0, 54, 64
2, 489300, Note_on_c, 0, 40, 26
2, 489304, Note_on_c, 0, 51, 69
2, 489336, Note_off_c, 0, 40, 64
2, 489340, Note_off_c, 0, 51, 64
2, 489360, Note_on_c, 0, 42, 63
2, 489362, Note_on_c, 0, 54, 56
2, 489396, Note_off_c, 0, 42, 64
2, 489398, Note_off_c, 0, 54, 64
2, 489436, Note_on_c, 0, 44, 84
2, 489440, Note_on_c, 0, 32, 83
2, 489484, Note_on_c, 0, 42, 67
2, 489491, Note_on_c, 0, 54, 56
2, 489496, Control_c, 0, 64, 0
2, 489510, Note_off_c, 0, 44, 64
2, 489514, Note_off_c, 0, 32, 64
2, 489545, Note_on_c, 0, 51, 48
2, 489553, Note_off_c, 0, 54, 64
2, 489553, Note_off_c, 0, 42, 64
2, 489558, Note_on_c, 0, 39, 32
2, 489563, Control_c, 0, 64, 127
2, 489590, Note_off_c, 0, 39, 64
2, 489596, Note_off_c, 0, 51, 64
2, 489597, Note_on_c, 0, 54, 50
2, 489608, Note_on_c, 0, 42, 52
2, 489644, Control_c, 0, 64, 0
2, 489663, Note_off_c, 0, 42, 64
2, 489665, Note_off_c, 0, 54, 64
2, 489670, Note_on_c, 0, 44, 80
2, 489674, Note_on_c, 0, 32, 74
2, 489723, Note_on_c, 0, 54, 49
2, 489728, Note_off_c, 0, 32, 64
2, 489730, Note_off_c, 0, 44, 64
2, 489730, Note_on_c, 0, 42, 54
2, 489786, Note_off_c, 0, 54, 64
2, 489793, Note_off_c, 0, 42, 64
2, 489793, Note_on_c, 0, 46, 80
2, 489797, Note_on_c, 0, 34, 73
2, 489800, Control_c, 0, 64, 127
2, 489850, Note_on_c, 0, 42, 53
2, 489854, Note_on_c, 0, 54, 52
2, 489876, Note_off_c, 0, 46, 64
2, 489880, Note_off_c, 0, 34, 64
2, 489913, Note_off_c, 0, 54, 64
2, 489914, Note_off_c, 0, 42, 64
2, 489918, Note_on_c, 0, 51, 26
2, 489923, Note_on_c, 0, 39, 22
2, 489962, Note_off_c, 0, 51, 64
2, 489964, Note_off_c, 0, 39, 64
2, 489972, Note_on_c, 0, 54, 43
2, 489977, Note_on_c, 0, 42, 48
2, 490039, Note_on_c, 0, 46, 74
2, 490041, Note_off_c, 0, 42, 64
2, 490041, Note_off_c, 0, 54, 64
2, 490044, Note_on_c, 0, 34, 64
2, 490100, Note_off_c, 0, 34, 64
2, 490100, Note_on_c, 0, 54, 48
2, 490103, Note_on_c, 0, 42, 45
2, 490109, Note_off_c, 0, 46, 64
2, 490130, Note_off_c, 0, 54, 64
2, 490141, Note_off_c, 0, 42, 64
2, 490153, Control_c, 0, 64, 0
2, 490186, Note_on_c, 0, 39, 41
2, 490189, Note_on_c, 0, 51, 55
2, 490212, Control_c, 0, 64, 127
2, 490248, Note_on_c, 0, 58, 32
2, 490248, Note_on_c, 0, 46, 64
2, 490263, Note_off_c, 0, 39, 64
2, 490269, Note_off_c, 0, 51, 64
2, 490304, Note_off_c, 0, 46, 64
2, 490304, Note_off_c, 0, 58, 64
2, 490317, Note_on_c, 0, 51, 48
2, 490320, Note_on_c, 0, 39, 46
2, 490331, Control_c, 0, 64, 0
2, 490374, Note_on_c, 0, 59, 39
2, 490380, Note_on_c, 0, 47, 43
2, 490380, Control_c, 0, 64, 127
2, 490390, Note_off_c, 0, 51, 64
2, 490391, Note_off_c, 0, 39, 64
2, 490438, Note_off_c, 0, 47, 64
2, 490441, Note_on_c, 0, 51, 46
2, 490444, Note_off_c, 0, 59, 64
2, 490444, Note_on_c, 0, 39, 48
2, 490453, Control_c, 0, 64, 0
2, 490502, Note_on_c, 0, 61, 44
2, 490504, Note_on_c, 0, 49, 40
2, 490509, Control_c, 0, 64, 127
2, 490513, Note_off_c, 0, 39, 64
2, 490518, Note_off_c, 0, 51, 64
2, 490550, Note_off_c, 0, 49, 64
2, 490560, Note_on_c, 0, 39, 43
2, 490566, Note_on_c, 0, 51, 50
2, 490570, Control_c, 0, 64, 0
2, 490577, Note_off_c, 0, 61, 64
2, 490613, Control_c, 0, 64, 127
2, 490622, Note_on_c, 0, 46, 40
2, 490629, Note_on_c, 0, 58, 38
2, 490634, Note_off_c, 0, 39, 64
2, 490640, Note_off_c, 0, 51, 64
2, 490667, Control_c, 0, 64, 0
2, 490682, Note_off_c, 0, 58, 64
2, 490687, Note_on_c, 0, 39, 51
2, 490689, Note_off_c, 0, 46, 64
2, 490689, Note_on_c, 0, 51, 48
2, 490720, Control_c, 0, 64, 127
2, 490749, Note_on_c, 0, 47, 40
2, 490753, Note_on_c, 0, 59, 36
2, 490760, Note_off_c, 0, 51, 64
2, 490765, Note_off_c, 0, 39, 64
2, 490782, Control_c, 0, 64, 0
2, 490813, Note_off_c, 0, 59, 64
2, 490813, Note_on_c, 0, 51, 48
2, 490818, Note_off_c, 0, 47, 64
2, 490819, Note_on_c, 0, 39, 50
2, 490841, Control_c, 0, 64, 127
2, 490876, Note_on_c, 0, 61, 39
2, 490882, Note_on_c, 0, 49, 40
2, 490890, Note_off_c, 0, 51, 64
2, 490892, Note_off_c, 0, 39, 64
2, 490894, Control_c, 0, 64, 0
2, 490939, Note_off_c, 0, 49, 64
2, 490941, Note_on_c, 0, 39, 45
2, 490945, Note_on_c, 0, 51, 45
2, 490947, Note_off_c, 0, 61, 64
2, 490953, Control_c, 0, 64, 127
2, 491000, Control_c, 0, 64, 0
2, 491008, Note_on_c, 0, 61, 35
2, 491008, Note_on_c, 0, 49, 38
2, 491014, Note_off_c, 0, 39, 64
2, 491024, Note_off_c, 0, 51, 64
2, 491054, Control_c, 0, 64, 127
2, 491065, Note_on_c, 0, 51, 41
2, 491070, Note_on_c, 0, 39, 41
2, 491074, Note_off_c, 0, 49, 64
2, 491088, Note_off_c, 0, 61, 64
2, 491122, Control_c, 0, 64, 0
2, 491131, Note_on_c, 0, 59, 33
2, 491133, Note_on_c, 0, 47, 40
2, 491141, Note_off_c, 0, 51, 64
2, 491147, Note_off_c, 0, 39, 64
2, 491182, Control_c, 0, 64, 127
2, 491190, Note_on_c, 0, 39, 41
2, 491196, Note_on_c, 0, 51, 40
2, 491200, Note_off_c, 0, 59, 64
2, 491205, Note_off_c, 0, 47, 64
2, 491242, Control_c, 0, 64, 0
2, 491249, Note_on_c, 0, 46, 24
2, 491254, Note_off_c, 0, 39, 64
2, 491257, Note_on_c, 0, 58, 29
2, 491269, Note_off_c, 0, 51, 64
2, 491301, Control_c, 0, 64, 127
2, 491312, Note_off_c, 0, 58, 64
2, 491312, Note_on_c, 0, 39, 28
2, 491318, Note_off_c, 0, 46, 64
2, 491319, Note_on_c, 0, 51, 25
2, 491379, Control_c, 0, 64, 0
2, 491385, Note_on_c, 0, 56, 20
2, 491387, Note_on_c, 0, 44, 20
2, 491392, Note_off_c, 0, 39, 64
2, 491396, Note_off_c, 0, 51, 64
2, 491438, Note_off_c, 0, 44, 64
2, 491439, Control_c, 0, 64, 127
2, 491440, Note_on_c, 0, 51, 24
2, 491443, Note_on_c, 0, 39, 21
2, 491449, Note_off_c, 0, 56, 64
2, 491523, Note_on_c, 0, 46, 23
2, 491528, Note_on_c, 0, 58, 20
2, 491529, Note_off_c, 0, 39, 64
2, 491530, Note_off_c, 0, 51, 64
2, 491612, Note_on_c, 0, 51, 26
2, 491616, Note_off_c, 0, 58, 64
2, 491623, Note_on_c, 0, 39, 25
2, 491625, Note_off_c, 0, 46, 64
2, 491708, Note_on_c, 0, 58, 13
2, 491708, Note_on_c, 0, 46, 24
2, 491728, Note_off_c, 0, 51, 64
2, 491739, Note_off_c, 0, 39, 64
2, 491798, Note_on_c, 0, 27, 32
2, 491802, Note_on_c, 0, 51, 33
2, 491805, Note_off_c, 0, 46, 64
2, 491805, Note_off_c, 0, 58, 64
2, 491852, Control_c, 0, 64, 0
2, 492411, Note_off_c, 0, 27, 64
2, 492442, Note_off_c, 0, 51, 64
2, 494544, Note_on_c, 0, 49, 30
2, 494565, Note_on_c, 0, 77, 49
2, 494580, Control_c, 0, 64, 127
2, 494682, Note_off_c, 0, 49, 64
2, 494876, Note_on_c, 0, 56, 19
2, 494979, Note_on_c, 0, 73, 28
2, 494985, Note_off_c, 0, 77, 64
2, 495107, Note_on_c, 0, 61, 31
2, 495108, Note_on_c, 0, 65, 19
2, 495109, Note_on_c, 0, 68, 38
2, 495129, Note_off_c, 0, 73, 64
2, 495227, Note_off_c, 0, 56, 64
2, 495416, Note_on_c, 0, 56, 18
2, 495486, Note_off_c, 0, 56, 64
2, 495638, Note_on_c, 0, 56, 24
2, 495695, Note_off_c, 0, 56, 64
2, 495706, Note_off_c, 0, 61, 64
2, 495817, Note_on_c, 0, 56, 22
2, 495863, Note_off_c, 0, 65, 64
2, 495960, Note_on_c, 0, 65, 19
2, 495967, Note_on_c, 0, 70, 54
2, 495971, Note_on_c, 0, 61, 28
2, 495985, Note_off_c, 0, 56, 64
2, 495985, Note_off_c, 0, 68, 64
2, 496147, Note_off_c, 0, 65, 64
2, 496150, Note_on_c, 0, 56, 28
2, 496163, Note_off_c, 0, 61, 64
2, 496363, Note_on_c, 0, 72, 56
2, 496370, Note_on_c, 0, 66, 26
2, 496370, Note_on_c, 0, 63, 35
2, 496370, Control_c, 0, 64, 0
2, 496384, Note_off_c, 0, 70, 64
2, 496400, Note_off_c, 0, 56, 64
2, 496444, Control_c, 0, 64, 127
2, 496581, Note_on_c, 0, 56, 24
2, 496634, Note_off_c, 0, 56, 64
2, 496739, Note_on_c, 0, 56, 36
2, 496793, Note_off_c, 0, 56, 64
2, 496899, Note_on_c, 0, 56, 38
2, 497089, Note_off_c, 0, 56, 64
2, 497089, Note_on_c, 0, 58, 38
2, 497125, Note_off_c, 0, 63, 64
2, 497273, Note_off_c, 0, 58, 64
2, 497302, Note_on_c, 0, 56, 27
2, 497344, Note_off_c, 0, 66, 64
2, 497483, Note_on_c, 0, 73, 57
2, 497485, Note_on_c, 0, 61, 29
2, 497490, Note_on_c, 0, 65, 36
2, 497496, Note_off_c, 0, 72, 64
2, 497498, Note_off_c, 0, 56, 64
2, 497504, Control_c, 0, 64, 0
2, 497611, Control_c, 0, 64, 127
2, 497672, Note_on_c, 0, 56, 21
2, 497701, Note_off_c, 0, 61, 64
2, 497716, Note_off_c, 0, 65, 64
2, 497844, Note_off_c, 0, 56, 64
2, 497844, Note_on_c, 0, 75, 56
2, 497855, Note_off_c, 0, 73, 64
2, 497858, Note_on_c, 0, 60, 38
2, 497862, Note_on_c, 0, 66, 40
2, 497873, Control_c, 0, 64, 0
2, 497938, Control_c, 0, 64, 127
2, 498051, Note_on_c, 0, 56, 30
2, 498084, Note_off_c, 0, 60, 64
2, 498145, Note_on_c, 0, 68, 61
2, 498161, Note_on_c, 0, 77, 44
2, 498163, Note_off_c, 0, 75, 64
2, 498277, Note_on_c, 0, 78, 55
2, 498280, Note_on_c, 0, 70, 57
2, 498288, Note_off_c, 0, 68, 64
2, 498294, Note_off_c, 0, 77, 64
2, 498406, Note_off_c, 0, 56, 64
2, 498479, Note_off_c, 0, 66, 64
2, 498525, Note_on_c, 0, 56, 36
2, 498580, Note_off_c, 0, 56, 64
2, 498714, Note_on_c, 0, 56, 19
2, 498775, Note_off_c, 0, 56, 64
2, 498872, Note_on_c, 0, 56, 27
2, 498936, Note_off_c, 0, 78, 64
2, 499028, Note_off_c, 0, 56, 64
2, 499038, Note_off_c, 0, 70, 64
2, 499039, Note_on_c, 0, 77, 44
2, 499047, Note_on_c, 0, 68, 32
2, 499055, Note_on_c, 0, 61, 19
2, 499103, Control_c, 0, 64, 0
2, 499210, Control_c, 0, 64, 127
2, 499215, Note_on_c, 0, 56, 24
2, 499227, Note_off_c, 0, 61, 64
2, 499250, Note_off_c, 0, 68, 64
2, 499288, Note_off_c, 0, 77, 64
2, 499358, Note_off_c, 0, 56, 64
2, 499368, Note_on_c, 0, 68, 42
2, 499368, Note_on_c, 0, 60, 38
2, 499374, Note_on_c, 0, 77, 54
2, 499538, Note_off_c, 0, 60, 64
2, 499538, Note_off_c, 0, 68, 64
2, 499540, Note_on_c, 0, 56, 25
2, 499682, Note_off_c, 0, 56, 64
2, 499696, Note_on_c, 0, 66, 49
2, 499843, Note_on_c, 0, 75, 56
2, 499859, Note_on_c, 0, 56, 30
2, 499880, Note_off_c, 0, 77, 64
2, 499882, Note_off_c, 0, 66, 64
2, 500016, Note_on_c, 0, 65, 37
2, 500024, Note_on_c, 0, 73, 56
2, 500027, Note_off_c, 0, 56, 64
2, 500028, Note_on_c, 0, 61, 2
2, 500032, Control_c, 0, 64, 0
2, 500046, Note_off_c, 0, 75, 64
2, 500149, Control_c, 0, 64, 127
2, 500186, Note_off_c, 0, 61, 64
2, 500219, Note_on_c, 0, 56, 22
2, 500236, Note_off_c, 0, 65, 64
2, 500301, Note_on_c, 0, 75, 52
2, 500330, Note_off_c, 0, 73, 64
2, 500369, Note_off_c, 0, 75, 64
2, 500469, Note_off_c, 0, 56, 64
2, 500484, Note_on_c, 0, 66, 25
2, 500494, Note_on_c, 0, 75, 57
2, 500494, Note_on_c, 0, 60, 35
2, 500622, Note_on_c, 0, 77, 44
2, 500623, Note_off_c, 0, 75, 64
2, 500719, Note_on_c, 0, 75, 28
2, 500725, Note_off_c, 0, 60, 64
2, 500734, Note_off_c, 0, 77, 64
2, 500740, Note_on_c, 0, 56, 18
2, 500770, Note_off_c, 0, 66, 64
2, 500802, Note_off_c, 0, 75, 64
2, 500803, Note_on_c, 0, 74, 52
2, 500808, Note_off_c, 0, 56, 64
2, 500878, Note_on_c, 0, 75, 33
2, 500900, Note_off_c, 0, 74, 64
2, 500952, Note_on_c, 0, 77, 56
2, 500955, Note_off_c, 0, 75, 64
2, 501015, Note_on_c, 0, 78, 44
2, 501036, Note_off_c, 0, 77, 64
2, 501077, Control_c, 0, 64, 0
2, 501105, Note_on_c, 0, 77, 58
2, 501110, Note_off_c, 0, 78, 64
2, 501113, Note_on_c, 0, 49, 32
2, 501163, Control_c, 0, 64, 127
2, 501216, Note_off_c, 0, 49, 64
2, 501370, Note_on_c, 0, 56, 23
2, 501454, Note_on_c, 0, 73, 53
2, 501463, Note_off_c, 0, 77, 64
2, 501559, Note_on_c, 0, 61, 33
2, 501565, Note_on_c, 0, 68, 45
2, 501573, Note_on_c, 0, 65, 31
2, 501574, Note_off_c, 0, 56, 64
2, 501581, Note_off_c, 0, 73, 64
2, 501748, Note_on_c, 0, 56, 25
2, 501803, Note_off_c, 0, 61, 64
2, 501809, Note_off_c, 0, 56, 64
2, 501891, Note_on_c, 0, 56, 25
2, 501949, Note_off_c, 0, 56, 64
2, 502042, Note_on_c, 0, 56, 35
2, 502109, Note_off_c, 0, 65, 64
2, 502162, Note_off_c, 0, 56, 64
2, 502176, Note_on_c, 0, 56, 43
2, 502193, Note_on_c, 0, 70, 56
2, 502226, Note_off_c, 0, 68, 64
2, 502338, Note_off_c, 0, 56, 64
2, 502356, Note_on_c, 0, 56, 33
2, 502512, Control_c, 0, 64, 0
2, 502537, Note_on_c, 0, 66, 24
2, 502541, Note_on_c, 0, 72, 56
2, 502545, Note_on_c, 0, 63, 24
2, 502558, Note_off_c, 0, 70, 64
2, 502572, Note_off_c, 0, 56, 64
2, 502609, Control_c, 0, 64, 127
2, 502723, Note_on_c, 0, 56, 23
2, 502789, Note_off_c, 0, 56, 64
2, 502873, Note_on_c, 0, 56, 36
2, 502920, Note_off_c, 0, 56, 64
2, 503020, Note_on_c, 0, 56, 30
2, 503193, Note_off_c, 0, 56, 64
2, 503201, Note_on_c, 0, 58, 30
2, 503406, Note_off_c, 0, 58, 64
2, 503429, Note_on_c, 0, 56, 25
2, 503464, Note_off_c, 0, 63, 64
2, 503492, Note_off_c, 0, 66, 64
2, 503615, Note_on_c, 0, 73, 58
2, 503617, Note_on_c, 0, 61, 28
2, 503623, Note_on_c, 0, 65, 26
2, 503630, Note_off_c, 0, 56, 64
2, 503633, Control_c, 0, 64, 0
2, 503640, Note_off_c, 0, 72, 64
2, 503712, Control_c, 0, 64, 127
2, 503795, Note_on_c, 0, 56, 28
2, 503812, Note_off_c, 0, 65, 64
2, 503822, Note_off_c, 0, 61, 64
2, 503944, Note_on_c, 0, 75, 60
2, 503955, Note_off_c, 0, 73, 64
2, 503965, Note_on_c, 0, 60, 23
2, 503970, Note_off_c, 0, 56, 64
2, 503970, Note_on_c, 0, 66, 33
2, 504022, Control_c, 0, 64, 0
2, 504100, Control_c, 0, 64, 127
2, 504136, Note_on_c, 0, 56, 24
2, 504166, Note_off_c, 0, 60, 64
2, 504219, Note_on_c, 0, 68, 60
2, 504229, Note_on_c, 0, 77, 53
2, 504241, Note_off_c, 0, 75, 64
2, 504319, Note_off_c, 0, 68, 64
2, 504325, Note_on_c, 0, 78, 44
2, 504336, Note_on_c, 0, 70, 30
2, 504342, Note_off_c, 0, 77, 64
2, 504405, Note_off_c, 0, 66, 64
2, 504426, Note_off_c, 0, 56, 64
2, 504562, Note_on_c, 0, 56, 26
2, 504596, Note_off_c, 0, 56, 64
2, 504718, Note_on_c, 0, 56, 25
2, 504756, Note_off_c, 0, 56, 64
2, 504859, Note_on_c, 0, 56, 33
2, 504892, Note_off_c, 0, 78, 64
2, 504918, Note_off_c, 0, 70, 64
2, 504932, Note_off_c, 0, 56, 64
2, 505030, Note_on_c, 0, 68, 40
2, 505036, Note_on_c, 0, 77, 53
2, 505052, Note_on_c, 0, 61, 19
2, 505175, Note_off_c, 0, 61, 64
2, 505204, Note_on_c, 0, 56, 21
2, 505241, Note_off_c, 0, 77, 64
2, 505278, Note_off_c, 0, 68, 64
2, 505367, Note_off_c, 0, 56, 64
2, 505392, Note_on_c, 0, 68, 48
2, 505392, Note_on_c, 0, 60, 20
2, 505403, Note_on_c, 0, 77, 52
2, 505494, Control_c, 0, 64, 0
2, 505550, Note_off_c, 0, 60, 64
2, 505586, Note_off_c, 0, 68, 64
2, 505605, Note_on_c, 0, 56, 15
2, 505609, Control_c, 0, 64, 127
2, 505749, Note_off_c, 0, 56, 64
2, 505766, Note_on_c, 0, 66, 39
2, 505946, Note_on_c, 0, 75, 40
2, 505956, Note_on_c, 0, 56, 18
2, 505976, Note_off_c, 0, 77, 64
2, 505990, Note_off_c, 0, 66, 64
2, 506148, Note_on_c, 0, 73, 45
2, 506154, Note_off_c, 0, 56, 64
2, 506154, Control_c, 0, 64, 0
2, 506160, Note_on_c, 0, 65, 24
2, 506169, Note_on_c, 0, 61, 19
2, 506173, Note_off_c, 0, 75, 64
2, 506261, Control_c, 0, 64, 127
2, 506356, Note_on_c, 0, 56, 21
2, 506378, Note_off_c, 0, 65, 64
2, 506384, Note_off_c, 0, 61, 64
2, 506559, Note_on_c, 0, 72, 56
2, 506564, Note_off_c, 0, 56, 64
2, 506573, Note_on_c, 0, 65, 26
2, 506573, Note_on_c, 0, 61, 31
2, 506589, Note_off_c, 0, 73, 64
2, 506758, Note_on_c, 0, 73, 48
2, 506772, Note_on_c, 0, 56, 22
2, 506778, Note_off_c, 0, 72, 64
2, 506803, Note_off_c, 0, 61, 64
2, 506809, Note_off_c, 0, 65, 64
2, 506830, Note_off_c, 0, 56, 64
2, 507014, Note_on_c, 0, 75, 50
2, 507014, Control_c, 0, 64, 0
2, 507027, Note_on_c, 0, 44, 52
2, 507028, Note_off_c, 0, 73, 64
2, 507088, Control_c, 0, 64, 127
2, 507146, Note_off_c, 0, 44, 64
2, 507314, Note_off_c, 0, 75, 64
2, 507330, Note_on_c, 0, 56, 19
2, 507504, Note_off_c, 0, 56, 64
2, 507517, Note_on_c, 0, 75, 52
2, 507517, Note_on_c, 0, 63, 26
2, 507540, Note_on_c, 0, 60, 23
2, 507700, Note_off_c, 0, 60, 64
2, 507714, Note_on_c, 0, 56, 36
2, 507747, Note_off_c, 0, 63, 64
2, 507897, Note_off_c, 0, 56, 64
2, 507899, Note_on_c, 0, 59, 46
2, 507904, Note_on_c, 0, 63, 35
2, 508101, Note_off_c, 0, 59, 64
2, 508108, Note_on_c, 0, 56, 31
2, 508132, Note_off_c, 0, 63, 64
2, 508177, Note_off_c, 0, 56, 64
2, 508232, Note_on_c, 0, 49, 40
2, 508298, Note_on_c, 0, 59, 43
2, 508301, Note_off_c, 0, 49, 64
2, 508331, Note_on_c, 0, 77, 52
2, 508343, Note_on_c, 0, 65, 25
2, 508356, Note_off_c, 0, 75, 64
2, 508403, Note_off_c, 0, 59, 64
2, 508538, Note_on_c, 0, 61, 47
2, 508575, Note_off_c, 0, 65, 64
2, 508637, Note_off_c, 0, 77, 64
2, 508742, Note_off_c, 0, 61, 64
2, 508775, Control_c, 0, 64, 0
2, 508776, Note_on_c, 0, 54, 24
2, 508789, Note_on_c, 0, 78, 59
2, 508790, Note_on_c, 0, 58, 24
2, 508873, Control_c, 0, 64, 127
2, 508958, Note_off_c, 0, 78, 64
2, 508971, Note_on_c, 0, 77, 49
2, 508986, Note_on_c, 0, 61, 28
2, 508995, Note_off_c, 0, 58, 64
2, 509127, Note_off_c, 0, 77, 64
2, 509132, Note_on_c, 0, 75, 51
2, 509139, Note_on_c, 0, 66, 35
2, 509144, Note_on_c, 0, 58, 41
2, 509146, Note_off_c, 0, 61, 64
2, 509290, Note_off_c, 0, 66, 64
2, 509290, Note_on_c, 0, 73, 57
2, 509292, Note_on_c, 0, 61, 31
2, 509298, Note_off_c, 0, 58, 64
2, 509298, Note_off_c, 0, 75, 64
2, 509406, Note_off_c, 0, 54, 64
2, 509452, Note_off_c, 0, 61, 64
2, 509470, Note_on_c, 0, 49, 39
2, 509478, Note_on_c, 0, 77, 51
2, 509486, Note_off_c, 0, 73, 64
2, 509620, Note_on_c, 0, 56, 29
2, 509775, Note_on_c, 0, 61, 32
2, 509780, Note_on_c, 0, 65, 27
2, 509795, Note_off_c, 0, 56, 64
2, 509937, Note_off_c, 0, 61, 64
2, 509939, Note_on_c, 0, 56, 39
2, 509960, Note_off_c, 0, 65, 64
2, 510063, Note_off_c, 0, 56, 64
2, 510096, Note_off_c, 0, 49, 64
2, 510101, Control_c, 0, 64, 0
2, 510112, Note_on_c, 0, 51, 38
2, 510120, Note_on_c, 0, 75, 52
2, 510131, Note_off_c, 0, 77, 64
2, 510187, Control_c, 0, 64, 127
2, 510331, Note_on_c, 0, 56, 24
2, 510340, Note_on_c, 0, 71, 44
2, 510376, Note_off_c, 0, 75, 64
2, 510487, Note_off_c, 0, 56, 64
2, 510488, Note_on_c, 0, 63, 22
2, 510488, Note_on_c, 0, 59, 24
2, 510492, Note_off_c, 0, 71, 64
2, 510492, Note_on_c, 0, 70, 44
2, 510598, Note_off_c, 0, 59, 64
2, 510620, Note_off_c, 0, 70, 64
2, 510624, Note_on_c, 0, 56, 30
2, 510627, Note_on_c, 0, 68, 48
2, 510735, Note_off_c, 0, 56, 64
2, 510742, Note_off_c, 0, 51, 64
2, 510783, Note_off_c, 0, 63, 64
2, 510796, Control_c, 0, 64, 0
2, 510802, Note_on_c, 0, 70, 49
2, 510811, Note_off_c, 0, 68, 64
2, 510815, Note_on_c, 0, 51, 36
2, 510882, Control_c, 0, 64, 127
2, 511027, Note_off_c, 0, 70, 64
2, 511044, Note_on_c, 0, 71, 35
2, 511054, Note_on_c, 0, 55, 40
2, 511102, Note_on_c, 0, 70, 44
2, 511119, Note_off_c, 0, 71, 64
2, 511157, Note_on_c, 0, 68, 48
2, 511164, Note_off_c, 0, 70, 64
2, 511211, Note_off_c, 0, 55, 64
2, 511218, Note_on_c, 0, 61, 39
2, 511225, Note_on_c, 0, 70, 48
2, 511235, Note_on_c, 0, 63, 20
2, 511248, Note_off_c, 0, 68, 64
2, 511414, Note_off_c, 0, 63, 64
2, 511423, Note_on_c, 0, 55, 48
2, 511436, Note_off_c, 0, 61, 64
2, 511445, Note_off_c, 0, 51, 64
2, 511468, Note_off_c, 0, 55, 64
2, 511506, Note_on_c, 0, 71, 50
2, 511511, Note_off_c, 0, 70, 64
2, 511640, Control_c, 0, 64, 0
2, 511651, Note_on_c, 0, 68, 52
2, 511656, Note_on_c, 0, 44, 63
2, 511664, Note_off_c, 0, 71, 64
2, 511724, Control_c, 0, 64, 127
2, 511920, Note_on_c, 0, 56, 43
2, 512080, Note_off_c, 0, 56, 64
2, 512093, Note_on_c, 0, 63, 36
2, 512097, Note_on_c, 0, 59, 40
2, 512104, Note_on_c, 0, 75, 49
2, 512155, Note_off_c, 0, 68, 64
2, 512231, Note_off_c, 0, 63, 64
2, 512259, Note_off_c, 0, 59, 64
2, 512263, Note_on_c, 0, 56, 31
2, 512384, Note_off_c, 0, 56, 64
2, 512390, Note_on_c, 0, 61, 33
2, 512391, Note_on_c, 0, 73, 58
2, 512396, Note_off_c, 0, 75, 64
2, 512398, Note_on_c, 0, 58, 32
2, 512513, Note_off_c, 0, 61, 64
2, 512520, Note_off_c, 0, 58, 64
2, 512537, Note_on_c, 0, 56, 39
2, 512684, Note_on_c, 0, 64, 40
2, 512685, Note_on_c, 0, 76, 58
2, 512689, Note_off_c, 0, 56, 64
2, 512689, Note_on_c, 0, 61, 44
2, 512694, Note_off_c, 0, 73, 64
2, 512698, Note_off_c, 0, 44, 64
2, 512830, Note_off_c, 0, 61, 64
2, 512856, Note_off_c, 0, 64, 64
2, 512858, Note_on_c, 0, 56, 23
2, 512924, Note_off_c, 0, 56, 64
2, 513020, Control_c, 0, 64, 0
2, 513040, Note_off_c, 0, 76, 64
2, 513047, Note_on_c, 0, 75, 64
2, 513049, Note_on_c, 0, 44, 52
2, 513104, Control_c, 0, 64, 127
2, 513279, Note_on_c, 0, 56, 22
2, 513342, Note_off_c, 0, 75, 64
2, 513508, Note_off_c, 0, 56, 64
2, 513524, Note_on_c, 0, 63, 19
2, 513533, Note_on_c, 0, 59, 27
2, 513539, Note_on_c, 0, 75, 56
2, 513740, Note_on_c, 0, 56, 21
2, 513744, Note_off_c, 0, 59, 64
2, 513769, Note_off_c, 0, 56, 64
2, 513876, Note_on_c, 0, 56, 33
2, 513910, Note_off_c, 0, 63, 64
2, 513925, Note_off_c, 0, 56, 64
2, 514010, Note_on_c, 0, 56, 33
2, 514154, Note_off_c, 0, 56, 64
2, 514154, Note_on_c, 0, 59, 34
2, 514159, Note_on_c, 0, 77, 51
2, 514167, Note_on_c, 0, 65, 18
2, 514181, Note_off_c, 0, 75, 64
2, 514209, Note_off_c, 0, 44, 64
2, 514305, Note_off_c, 0, 59, 64
2, 514313, Note_on_c, 0, 56, 33
2, 514346, Note_off_c, 0, 65, 64
2, 514364, Note_off_c, 0, 56, 64
2, 514496, Control_c, 0, 64, 0
2, 514507, Note_on_c, 0, 78, 51
2, 514511, Note_on_c, 0, 51, 25
2, 514526, Note_off_c, 0, 77, 64
2, 514593, Control_c, 0, 64, 127
2, 514665, Note_on_c, 0, 54, 25
2, 514668, Note_off_c, 0, 51, 64
2, 514673, Note_on_c, 0, 77, 49
2, 514689, Note_off_c, 0, 78, 64
2, 514789, Note_off_c, 0, 54, 64
2, 514812, Note_on_c, 0, 75, 52
2, 514818, Note_off_c, 0, 77, 64
2, 514820, Note_on_c, 0, 66, 23
2, 514831, Note_on_c, 0, 58, 18
2, 514931, Note_off_c, 0, 58, 64
2, 514940, Note_off_c, 0, 66, 64
2, 514960, Note_on_c, 0, 54, 30
2, 514962, Note_on_c, 0, 73, 56
2, 514984, Note_off_c, 0, 75, 64
2, 515120, Note_off_c, 0, 54, 64
2, 515144, Note_on_c, 0, 77, 49
2, 515144, Note_on_c, 0, 46, 42
2, 515157, Note_off_c, 0, 73, 64
2, 515316, Note_on_c, 0, 53, 34
2, 515493, Note_on_c, 0, 58, 31
2, 515497, Note_off_c, 0, 53, 64
2, 515500, Note_on_c, 0, 61, 27
2, 515507, Note_on_c, 0, 65, 19
2, 515649, Note_off_c, 0, 58, 64
2, 515653, Note_off_c, 0, 61, 64
2, 515659, Note_off_c, 0, 65, 64
2, 515665, Note_on_c, 0, 53, 29
2, 515671, Note_off_c, 0, 46, 64
2, 515704, Note_off_c, 0, 53, 64
2, 515784, Note_off_c, 0, 77, 64
2, 515856, Note_on_c, 0, 41, 59
2, 515994, Note_on_c, 0, 53, 27
2, 516020, Note_on_c, 0, 73, 53
2, 516179, Note_on_c, 0, 58, 33
2, 516183, Note_off_c, 0, 53, 64
2, 516189, Note_on_c, 0, 61, 19
2, 516196, Note_on_c, 0, 72, 55
2, 516202, Note_on_c, 0, 65, 18
2, 516207, Note_off_c, 0, 73, 64
2, 516327, Note_on_c, 0, 53, 28
2, 516331, Note_off_c, 0, 58, 64
2, 516339, Note_off_c, 0, 61, 64
2, 516341, Note_off_c, 0, 65, 64
2, 516342, Note_on_c, 0, 70, 43
2, 516349, Note_off_c, 0, 72, 64
2, 516372, Note_off_c, 0, 53, 64
2, 516413, Note_off_c, 0, 41, 64
2, 516524, Note_on_c, 0, 72, 56
2, 516528, Note_on_c, 0, 41, 45
2, 516535, Note_off_c, 0, 70, 64
2, 516731, Note_on_c, 0, 53, 30
2, 516752, Note_off_c, 0, 72, 64
2, 516786, Note_on_c, 0, 73, 48
2, 516832, Note_on_c, 0, 72, 47
2, 516847, Note_off_c, 0, 73, 64
2, 516869, Note_on_c, 0, 70, 60
2, 516885, Note_off_c, 0, 72, 64
2, 516899, Note_on_c, 0, 57, 32
2, 516901, Note_on_c, 0, 63, 24
2, 516910, Note_on_c, 0, 65, 42
2, 516929, Note_on_c, 0, 72, 54
2, 516936, Note_off_c, 0, 53, 64
2, 516937, Note_off_c, 0, 70, 64
2, 516974, Control_c, 0, 64, 0
2, 517048, Note_off_c, 0, 41, 64
2, 517104, Control_c, 0, 64, 127
2, 517114, Note_off_c, 0, 65, 64
2, 517117, Note_off_c, 0, 57, 64
2, 517131, Note_on_c, 0, 53, 23
2, 517135, Note_off_c, 0, 63, 64
2, 517152, Note_off_c, 0, 53, 64
2, 517249, Note_on_c, 0, 73, 34
2, 517259, Note_off_c, 0, 72, 64
2, 517422, Note_on_c, 0, 70, 44
2, 517432, Note_on_c, 0, 46, 52
2, 517440, Note_off_c, 0, 73, 64
2, 517735, Note_on_c, 0, 53, 19
2, 517911, Note_on_c, 0, 77, 46
2, 517914, Note_on_c, 0, 61, 28
2, 517921, Note_on_c, 0, 65, 24
2, 517928, Note_off_c, 0, 53, 64
2, 517928, Note_off_c, 0, 70, 64
2, 518072, Note_on_c, 0, 53, 23
2, 518080, Note_off_c, 0, 65, 64
2, 518080, Note_off_c, 0, 61, 64
2, 518173, Control_c, 0, 64, 0
2, 518193, Note_on_c, 0, 75, 49
2, 518204, Note_on_c, 0, 60, 30
2, 518208, Note_on_c, 0, 63, 21
2, 518211, Note_off_c, 0, 53, 64
2, 518216, Note_off_c, 0, 77, 64
2, 518264, Control_c, 0, 64, 127
2, 518325, Note_off_c, 0, 60, 64
2, 518335, Note_on_c, 0, 53, 33
2, 518359, Note_off_c, 0, 63, 64
2, 518449, Note_on_c, 0, 78, 47
2, 518456, Note_on_c, 0, 63, 1
2, 518458, Note_on_c, 0, 66, 36
2, 518464, Note_off_c, 0, 53, 64
2, 518481, Note_off_c, 0, 75, 64
2, 518552, Note_off_c, 0, 63, 64
2, 518554, Note_off_c, 0, 66, 64
2, 518586, Note_on_c, 0, 53, 36
2, 518628, Note_off_c, 0, 78, 64
2, 518716, Note_on_c, 0, 77, 36
2, 518729, Note_on_c, 0, 61, 24
2, 518738, Note_on_c, 0, 65, 24
2, 518741, Note_off_c, 0, 53, 64
2, 518852, Note_on_c, 0, 53, 33
2, 518858, Note_on_c, 0, 73, 54
2, 518865, Note_off_c, 0, 65, 64
2, 518868, Note_off_c, 0, 61, 64
2, 518868, Note_off_c, 0, 77, 64
2, 519011, Note_on_c, 0, 72, 54
2, 519015, Note_off_c, 0, 73, 64
2, 519015, Note_off_c, 0, 53, 64
2, 519015, Note_on_c, 0, 58, 24
2, 519017, Note_on_c, 0, 65, 27
2, 519017, Note_on_c, 0, 61, 26
2, 519152, Note_on_c, 0, 70, 50
2, 519154, Note_off_c, 0, 58, 64
2, 519162, Note_on_c, 0, 53, 33
2, 519168, Note_off_c, 0, 72, 64
2, 519176, Note_off_c, 0, 65, 64
2, 519197, Note_off_c, 0, 61, 64
2, 519327, Note_off_c, 0, 53, 64
2, 519331, Note_on_c, 0, 72, 54
2, 519331, Note_on_c, 0, 63, 27
2, 519350, Note_off_c, 0, 70, 64
2, 519358, Control_c, 0, 64, 0
2, 519391, Note_on_c, 0, 57, 1
2, 519435, Note_off_c, 0, 46, 64
2, 519447, Control_c, 0, 64, 127
2, 519503, Note_off_c, 0, 57, 64
2, 519516, Note_on_c, 0, 53, 34
2, 519543, Note_off_c, 0, 63, 64
2, 519546, Note_off_c, 0, 72, 64
2, 519590, Note_on_c, 0, 73, 56
2, 519639, Note_on_c, 0, 72, 54
2, 519651, Note_off_c, 0, 73, 64
2, 519699, Note_on_c, 0, 70, 47
2, 519703, Note_off_c, 0, 72, 64
2, 519755, Note_on_c, 0, 63, 25
2, 519765, Note_on_c, 0, 72, 56
2, 519765, Note_on_c, 0, 65, 23
2, 519770, Note_off_c, 0, 70, 64
2, 519774, Note_off_c, 0, 53, 64
2, 520030, Note_on_c, 0, 53, 31
2, 520033, Note_off_c, 0, 63, 64
2, 520061, Note_off_c, 0, 65, 64
2, 520080, Note_off_c, 0, 53, 64
2, 520176, Note_on_c, 0, 73, 47
2, 520186, Note_off_c, 0, 72, 64
2, 520284, Control_c, 0, 64, 0
2, 520312, Note_on_c, 0, 70, 39
2, 520324, Note_on_c, 0, 46, 45
2, 520327, Note_off_c, 0, 73, 64
2, 520373, Control_c, 0, 64, 127
2, 520583, Note_on_c, 0, 53, 26
2, 520750, Note_on_c, 0, 75, 51
2, 520758, Note_on_c, 0, 63, 19
2, 520759, Note_on_c, 0, 60, 24
2, 520772, Note_off_c, 0, 53, 64
2, 520775, Note_off_c, 0, 70, 64
2, 520903, Note_off_c, 0, 60, 64
2, 520912, Note_off_c, 0, 63, 64
2, 520916, Note_on_c, 0, 53, 32
2, 521036, Note_on_c, 0, 77, 51
2, 521040, Note_on_c, 0, 61, 33
2, 521046, Note_on_c, 0, 65, 26
2, 521049, Note_off_c, 0, 75, 64
2, 521057, Note_off_c, 0, 53, 64
2, 521172, Note_off_c, 0, 65, 64
2, 521174, Note_off_c, 0, 61, 64
2, 521177, Note_on_c, 0, 53, 38
2, 521336, Note_on_c, 0, 75, 60
2, 521343, Note_on_c, 0, 63, 32
2, 521347, Note_on_c, 0, 60, 34
2, 521354, Note_off_c, 0, 77, 64
2, 521376, Note_off_c, 0, 53, 64
2, 521484, Note_on_c, 0, 53, 39
2, 521507, Note_off_c, 0, 60, 64
2, 521507, Note_off_c, 0, 63, 64
2, 521676, Control_c, 0, 64, 0
2, 521688, Note_on_c, 0, 77, 52
2, 521691, Note_on_c, 0, 61, 33
2, 521692, Note_on_c, 0, 65, 33
2, 521702, Note_off_c, 0, 75, 64
2, 521724, Note_off_c, 0, 53, 64
2, 521757, Control_c, 0, 64, 127
2, 521920, Note_on_c, 0, 53, 29
2, 521982, Note_off_c, 0, 53, 64
2, 522081, Note_on_c, 0, 53, 33
2, 522118, Note_off_c, 0, 53, 64
2, 522142, Note_off_c, 0, 61, 64
2, 522216, Note_on_c, 0, 53, 34
2, 522277, Note_off_c, 0, 65, 64
2, 522321, Note_off_c, 0, 46, 64
2, 522393, Note_on_c, 0, 65, 18
2, 522404, Note_on_c, 0, 61, 30
2, 522405, Note_off_c, 0, 53, 64
2, 522640, Note_on_c, 0, 54, 23
2, 522689, Note_off_c, 0, 61, 64
2, 522716, Note_off_c, 0, 65, 64
2, 522904, Note_on_c, 0, 75, 42
2, 522907, Note_on_c, 0, 63, 22
2, 522912, Note_on_c, 0, 60, 21
2, 522916, Note_off_c, 0, 77, 64
2, 522937, Note_off_c, 0, 54, 64
2, 522946, Control_c, 0, 64, 0
2, 523075, Control_c, 0, 64, 127
2, 523247, Note_on_c, 0, 56, 12
2, 523278, Note_off_c, 0, 60, 64
2, 523361, Note_off_c, 0, 63, 64
2, 523632, Control_c, 0, 64, 0
2, 523639, Note_on_c, 0, 77, 44
2, 523646, Note_on_c, 0, 49, 43
2, 523647, Note_off_c, 0, 56, 64
2, 523653, Note_off_c, 0, 75, 64
2, 523716, Control_c, 0, 64, 127
2, 523948, Note_on_c, 0, 56, 26
2, 524068, Note_on_c, 0, 73, 52
2, 524080, Note_off_c, 0, 77, 64
2, 524202, Note_on_c, 0, 68, 40
2, 524214, Note_off_c, 0, 73, 64
2, 524214, Note_on_c, 0, 61, 24
2, 524220, Note_on_c, 0, 65, 24
2, 524233, Note_off_c, 0, 49, 64
2, 524251, Note_off_c, 0, 56, 64
2, 524412, Note_on_c, 0, 56, 18
2, 524454, Note_off_c, 0, 61, 64
2, 524487, Note_off_c, 0, 56, 64
2, 524565, Note_on_c, 0, 56, 18
2, 524615, Note_off_c, 0, 56, 64
2, 524701, Note_on_c, 0, 56, 24
2, 524768, Note_off_c, 0, 65, 64
2, 524841, Note_on_c, 0, 61, 39
2, 524844, Note_off_c, 0, 56, 64
2, 524848, Note_on_c, 0, 65, 24
2, 524851, Note_on_c, 0, 70, 48
2, 524874, Note_off_c, 0, 68, 64
2, 525001, Note_off_c, 0, 61, 64
2, 525010, Note_on_c, 0, 56, 19
2, 525040, Note_off_c, 0, 65, 64
2, 525199, Note_on_c, 0, 63, 31
2, 525204, Note_on_c, 0, 66, 32
2, 525207, Note_on_c, 0, 72, 52
2, 525221, Control_c, 0, 64, 0
2, 525228, Note_off_c, 0, 56, 64
2, 525229, Note_off_c, 0, 70, 64
2, 525322, Control_c, 0, 64, 127
2, 525411, Note_on_c, 0, 56, 24
2, 525464, Note_off_c, 0, 56, 64
2, 525552, Note_on_c, 0, 56, 32
2, 525606, Note_off_c, 0, 56, 64
2, 525688, Note_on_c, 0, 56, 34
2, 525854, Note_off_c, 0, 56, 64
2, 525857, Note_on_c, 0, 58, 30
2, 526001, Note_off_c, 0, 58, 64
2, 526050, Note_on_c, 0, 56, 28
2, 526080, Note_off_c, 0, 63, 64
2, 526097, Note_off_c, 0, 66, 64
2, 526207, Note_on_c, 0, 73, 52
2, 526213, Note_off_c, 0, 56, 64
2, 526222, Note_on_c, 0, 65, 31
2, 526225, Control_c, 0, 64, 0
2, 526236, Note_off_c, 0, 72, 64
2, 526254, Note_on_c, 0, 61, 2
2, 526318, Control_c, 0, 64, 127
2, 526387, Note_on_c, 0, 56, 25
2, 526408, Note_off_c, 0, 61, 64
2, 526415, Note_off_c, 0, 65, 64
2, 526545, Note_off_c, 0, 56, 64
2, 526557, Note_on_c, 0, 75, 45
2, 526567, Note_off_c, 0, 73, 64
2, 526569, Note_on_c, 0, 66, 50
2, 526574, Note_on_c, 0, 60, 38
2, 526636, Control_c, 0, 64, 0
2, 526763, Control_c, 0, 64, 127
2, 526780, Note_on_c, 0, 56, 24
2, 526785, Note_off_c, 0, 60, 64
2, 526870, Note_off_c, 0, 66, 64
2, 526879, Note_on_c, 0, 68, 59
2, 526885, Note_on_c, 0, 77, 44
2, 526891, Note_off_c, 0, 75, 64
2, 526996, Note_off_c, 0, 68, 64
2, 527001, Note_on_c, 0, 78, 48
2, 527007, Note_on_c, 0, 70, 28
2, 527027, Note_off_c, 0, 77, 64
2, 527081, Note_off_c, 0, 56, 64
2, 527194, Note_on_c, 0, 56, 36
2, 527239, Note_off_c, 0, 56, 64
2, 527326, Note_on_c, 0, 56, 35
2, 527367, Note_off_c, 0, 56, 64
2, 527457, Note_on_c, 0, 56, 33
2, 527469, Note_off_c, 0, 78, 64
2, 527595, Note_off_c, 0, 56, 64
2, 527603, Note_on_c, 0, 61, 38
2, 527606, Note_off_c, 0, 70, 64
2, 527607, Note_on_c, 0, 77, 52
2, 527607, Note_on_c, 0, 68, 46
2, 527619, Control_c, 0, 64, 0
2, 527695, Control_c, 0, 64, 127
2, 527771, Note_on_c, 0, 56, 24
2, 527779, Note_off_c, 0, 68, 64
2, 527790, Note_off_c, 0, 77, 64
2, 527798, Note_off_c, 0, 61, 64
2, 527881, Note_off_c, 0, 56, 64
2, 527897, Note_on_c, 0, 77, 48
2, 527916, Note_on_c, 0, 68, 39
2, 527917, Note_on_c, 0, 60, 45
2, 528049, Note_off_c, 0, 60, 64
2, 528054, Note_on_c, 0, 56, 34
2, 528072, Note_off_c, 0, 68, 64
2, 528176, Note_on_c, 0, 66, 54
2, 528180, Note_off_c, 0, 56, 64
2, 528306, Note_on_c, 0, 75, 54
2, 528316, Note_on_c, 0, 56, 26
2, 528334, Note_off_c, 0, 77, 64
2, 528336, Note_off_c, 0, 66, 64
2, 528451, Control_c, 0, 64, 0
2, 528472, Note_off_c, 0, 56, 64
2, 528474, Note_on_c, 0, 73, 54
2, 528481, Note_on_c, 0, 65, 43
2, 528488, Note_on_c, 0, 61, 22
2, 528491, Note_off_c, 0, 75, 64
2, 528554, Control_c, 0, 64, 127
2, 528699, Note_on_c, 0, 56, 27
2, 528716, Note_off_c, 0, 61, 64
2, 528731, Note_off_c, 0, 65, 64
2, 528746, Note_off_c, 0, 73, 64
2, 528896, Note_off_c, 0, 56, 64
2, 528910, Note_on_c, 0, 66, 33
2, 528929, Note_on_c, 0, 60, 24
2, 528980, Note_on_c, 0, 74, 52
2, 529054, Note_off_c, 0, 74, 64
2, 529056, Note_on_c, 0, 75, 43
2, 529118, Note_off_c, 0, 75, 64
2, 529123, Note_off_c, 0, 60, 64
2, 529130, Note_on_c, 0, 76, 41
2, 529166, Note_off_c, 0, 66, 64
2, 529190, Note_on_c, 0, 56, 15
2, 529222, Note_on_c, 0, 77, 54
2, 529225, Note_off_c, 0, 56, 64
2, 529225, Note_off_c, 0, 76, 64
2, 529327, Note_on_c, 0, 80, 50
2, 529333, Note_off_c, 0, 77, 64
2, 529394, Note_on_c, 0, 79, 54
2, 529417, Note_off_c, 0, 80, 64
2, 529459, Note_on_c, 0, 78, 57
2, 529478, Note_off_c, 0, 79, 64
2, 529489, Control_c, 0, 64, 0
2, 529533, Note_on_c, 0, 77, 61
2, 529547, Note_on_c, 0, 49, 44
2, 529557, Note_off_c, 0, 78, 64
2, 529578, Control_c, 0, 64, 127
2, 529782, Note_on_c, 0, 56, 24
2, 529873, Note_on_c, 0, 73, 55
2, 529883, Note_off_c, 0, 77, 64
2, 529976, Note_on_c, 0, 65, 32
2, 529981, Note_on_c, 0, 61, 29
2, 529989, Note_on_c, 0, 68, 60
2, 529994, Note_off_c, 0, 73, 64
2, 530017, Note_off_c, 0, 56, 64
2, 530093, Note_off_c, 0, 49, 64
2, 530291, Note_on_c, 0, 56, 33
2, 530343, Note_off_c, 0, 61, 64
2, 530348, Note_off_c, 0, 56, 64
2, 530449, Note_on_c, 0, 56, 24
2, 530507, Note_off_c, 0, 56, 64
2, 530584, Note_on_c, 0, 56, 27
2, 530741, Note_off_c, 0, 56, 64
2, 530776, Note_on_c, 0, 70, 51
2, 530776, Note_on_c, 0, 56, 36
2, 530836, Note_off_c, 0, 56, 64
2, 530925, Note_on_c, 0, 56, 24
2, 531035, Note_off_c, 0, 65, 64
2, 531048, Note_off_c, 0, 68, 64
2, 531121, Note_on_c, 0, 66, 36
2, 531129, Note_on_c, 0, 63, 29
2, 531171, Note_off_c, 0, 56, 64
2, 531178, Note_on_c, 0, 72, 56
2, 531190, Note_off_c, 0, 70, 64
2, 531227, Control_c, 0, 64, 0
2, 531319, Control_c, 0, 64, 127
2, 531377, Note_on_c, 0, 56, 15
2, 531413, Note_off_c, 0, 56, 64
2, 531430, Note_off_c, 0, 63, 64
2, 531522, Note_on_c, 0, 56, 18
2, 531564, Note_off_c, 0, 56, 64
2, 531640, Note_on_c, 0, 56, 25
2, 531764, Note_off_c, 0, 56, 64
2, 531796, Note_on_c, 0, 58, 17
2, 531900, Note_off_c, 0, 58, 64
2, 531940, Note_on_c, 0, 56, 24
2, 531985, Note_off_c, 0, 66, 64
2, 532079, Note_on_c, 0, 73, 54
2, 532081, Note_on_c, 0, 61, 33
2, 532088, Note_off_c, 0, 56, 64
2, 532090, Note_on_c, 0, 65, 24
2, 532096, Note_off_c, 0, 72, 64
2, 532102, Control_c, 0, 64, 0
2, 532208, Control_c, 0, 64, 127
2, 532268, Note_on_c, 0, 56, 18
2, 532278, Note_off_c, 0, 61, 64
2, 532297, Note_off_c, 0, 65, 64
2, 532413, Note_on_c, 0, 75, 54
2, 532416, Note_off_c, 0, 56, 64
2, 532416, Note_off_c, 0, 73, 64
2, 532424, Note_on_c, 0, 66, 33
2, 532428, Note_on_c, 0, 60, 20
2, 532429, Control_c, 0, 64, 0
2, 532519, Control_c, 0, 64, 127
2, 532619, Note_on_c, 0, 56, 17
2, 532641, Note_off_c, 0, 60, 64
2, 532714, Note_on_c, 0, 68, 47
2, 532723, Note_on_c, 0, 77, 44
2, 532732, Note_off_c, 0, 75, 64
2, 532830, Note_off_c, 0, 68, 64
2, 532833, Note_on_c, 0, 78, 42
2, 532845, Note_on_c, 0, 70, 40
2, 532856, Note_off_c, 0, 77, 64
2, 532935, Note_off_c, 0, 56, 64
2, 532937, Note_off_c, 0, 66, 64
2, 533020, Note_on_c, 0, 56, 19
2, 533082, Note_off_c, 0, 56, 64
2, 533165, Note_on_c, 0, 56, 15
2, 533222, Note_off_c, 0, 56, 64
2, 533307, Note_on_c, 0, 56, 15
2, 533372, Note_off_c, 0, 78, 64
2, 533465, Note_on_c, 0, 72, 50
2, 533468, Note_on_c, 0, 63, 34
2, 533474, Note_off_c, 0, 56, 64
2, 533491, Note_off_c, 0, 70, 64
2, 533645, Note_on_c, 0, 56, 12
2, 533720, Note_off_c, 0, 72, 64
2, 533831, Note_on_c, 0, 66, 43
2, 533834, Note_on_c, 0, 75, 36
2, 533863, Note_off_c, 0, 63, 64
2, 533909, Note_off_c, 0, 56, 64
2, 534093, Note_on_c, 0, 56, 11
2, 534170, Note_off_c, 0, 56, 64
2, 534259, Note_on_c, 0, 56, 17
2, 534260, Note_off_c, 0, 75, 64
2, 534278, Note_off_c, 0, 66, 64
2, 534336, Note_off_c, 0, 56, 64
2, 534451, Note_on_c, 0, 56, 26
2, 534528, Note_off_c, 0, 56, 64
2, 534622, Note_on_c, 0, 56, 22
2, 534699, Note_off_c, 0, 56, 64
2, 534811, Note_on_c, 0, 56, 20
2, 534888, Note_off_c, 0, 56, 64
2, 535004, Note_on_c, 0, 56, 26
2, 535081, Note_off_c, 0, 56, 64
2, 535205, Note_on_c, 0, 56, 26
2, 535282, Note_off_c, 0, 56, 64
2, 535389, Control_c, 0, 64, 0
2, 535402, Note_on_c, 0, 37, 44
2, 535410, Note_on_c, 0, 44, 43
2, 535423, Note_on_c, 0, 56, 28
2, 535464, Control_c, 0, 64, 127
2, 535500, Note_off_c, 0, 56, 64
2, 535606, Note_on_c, 0, 56, 29
2, 535668, Note_off_c, 0, 44, 64
2, 535679, Note_off_c, 0, 37, 64
2, 535695, Note_off_c, 0, 56, 64
2, 535778, Note_on_c, 0, 39, 48
2, 535781, Note_on_c, 0, 44, 50
2, 535788, Note_on_c, 0, 56, 22
2, 535854, Note_off_c, 0, 56, 64
2, 535961, Note_on_c, 0, 56, 23
2, 536015, Note_off_c, 0, 39, 64
2, 536031, Note_off_c, 0, 44, 64
2, 536035, Note_off_c, 0, 56, 64
2, 536141, Control_c, 0, 64, 0
2, 536149, Note_on_c, 0, 49, 50
2, 536149, Note_on_c, 0, 40, 54
2, 536164, Note_on_c, 0, 56, 28
2, 536229, Control_c, 0, 64, 127
2, 536248, Note_off_c, 0, 56, 64
2, 536339, Note_on_c, 0, 56, 26
2, 536399, Note_off_c, 0, 56, 64
2, 536424, Note_off_c, 0, 49, 64
2, 536514, Note_on_c, 0, 39, 51
2, 536520, Note_on_c, 0, 48, 37
2, 536522, Note_on_c, 0, 56, 32
2, 536529, Note_off_c, 0, 40, 64
2, 536597, Note_off_c, 0, 56, 64
2, 536695, Note_on_c, 0, 56, 28
2, 536705, Note_off_c, 0, 39, 64
2, 536739, Note_off_c, 0, 48, 64
2, 536761, Note_off_c, 0, 56, 64
2, 536815, Control_c, 0, 64, 0
2, 536864, Note_on_c, 0, 39, 52
2, 536871, Note_on_c, 0, 44, 51
2, 536875, Note_on_c, 0, 56, 33
2, 536898, Control_c, 0, 64, 127
2, 536967, Note_off_c, 0, 56, 64
2, 537058, Note_on_c, 0, 56, 34
2, 537125, Note_off_c, 0, 56, 64
2, 537160, Note_off_c, 0, 44, 64
2, 537172, Note_off_c, 0, 39, 64
2, 537232, Note_on_c, 0, 40, 48
2, 537235, Note_on_c, 0, 56, 26
2, 537240, Note_on_c, 0, 44, 52
2, 537310, Note_off_c, 0, 56, 64
2, 537414, Note_on_c, 0, 56, 24
2, 537474, Note_off_c, 0, 56, 64
2, 537542, Note_off_c, 0, 40, 64
2, 537559, Control_c, 0, 64, 0
2, 537588, Note_on_c, 0, 42, 55
2, 537590, Note_on_c, 0, 51, 55
2, 537600, Note_on_c, 0, 56, 35
2, 537603, Note_off_c, 0, 44, 64
2, 537638, Control_c, 0, 64, 127
2, 537673, Note_off_c, 0, 56, 64
2, 537770, Note_on_c, 0, 56, 29
2, 537835, Note_off_c, 0, 56, 64
2, 537855, Note_off_c, 0, 51, 64
2, 537954, Note_on_c, 0, 56, 37
2, 537955, Note_on_c, 0, 49, 49
2, 537955, Note_on_c, 0, 40, 50
2, 537967, Note_off_c, 0, 42, 64
2, 538028, Note_off_c, 0, 56, 64
2, 538132, Note_on_c, 0, 56, 44
2, 538177, Note_off_c, 0, 40, 64
2, 538191, Note_off_c, 0, 56, 64
2, 538202, Note_off_c, 0, 49, 64
2, 538298, Control_c, 0, 64, 0
2, 538321, Note_on_c, 0, 56, 38
2, 538321, Note_on_c, 0, 49, 48
2, 538322, Note_on_c, 0, 40, 51
2, 538387, Control_c, 0, 64, 127
2, 538391, Note_off_c, 0, 56, 64
2, 538487, Note_off_c, 0, 40, 64
2, 538501, Note_on_c, 0, 56, 46
2, 538546, Note_off_c, 0, 49, 64
2, 538555, Note_off_c, 0, 56, 64
2, 538675, Note_on_c, 0, 44, 56
2, 538677, Note_on_c, 0, 51, 57
2, 538685, Note_on_c, 0, 56, 43
2, 538693, Control_c, 0, 64, 0
2, 538745, Note_off_c, 0, 56, 64
2, 538830, Control_c, 0, 64, 127
2, 538855, Note_on_c, 0, 56, 41
2, 538917, Note_off_c, 0, 56, 64
2, 539023, Note_on_c, 0, 49, 53
2, 539032, Note_on_c, 0, 52, 46
2, 539040, Note_on_c, 0, 56, 48
2, 539046, Note_off_c, 0, 51, 64
2, 539061, Note_off_c, 0, 44, 64
2, 539098, Note_off_c, 0, 56, 64
2, 539130, Control_c, 0, 64, 0
2, 539208, Control_c, 0, 64, 127
2, 539220, Note_on_c, 0, 56, 49
2, 539273, Note_off_c, 0, 56, 64
2, 539393, Note_on_c, 0, 56, 44
2, 539399, Note_on_c, 0, 51, 44
2, 539408, Note_on_c, 0, 44, 46
2, 539435, Note_off_c, 0, 49, 64
2, 539438, Note_off_c, 0, 52, 64
2, 539454, Note_off_c, 0, 56, 64
2, 539568, Note_on_c, 0, 56, 40
2, 539639, Note_off_c, 0, 56, 64
2, 539654, Control_c, 0, 64, 0
2, 539734, Note_off_c, 0, 51, 64
2, 539743, Note_off_c, 0, 44, 64
2, 539746, Note_on_c, 0, 51, 39
2, 539752, Note_on_c, 0, 56, 36
2, 539753, Note_on_c, 0, 44, 35
2, 539761, Control_c, 0, 64, 127
2, 539826, Note_off_c, 0, 56, 64
2, 539936, Note_on_c, 0, 56, 32
2, 539995, Note_off_c, 0, 56, 64
2, 540107, Note_on_c, 0, 56, 23
2, 540168, Note_off_c, 0, 56, 64
2, 540274, Note_on_c, 0, 56, 27
2, 540347, Note_off_c, 0, 56, 64
2, 540447, Note_on_c, 0, 56, 26
2, 540510, Note_off_c, 0, 56, 64
2, 540621, Note_on_c, 0, 56, 21
2, 540677, Note_off_c, 0, 56, 64
2, 540779, Note_on_c, 0, 56, 20
2, 540842, Note_off_c, 0, 56, 64
2, 540953, Note_on_c, 0, 56, 20
2, 541007, Note_off_c, 0, 56, 64
2, 541129, Note_on_c, 0, 56, 23
2, 541184, Note_off_c, 0, 56, 64
2, 541302, Note_on_c, 0, 56, 23
2, 541361, Note_off_c, 0, 56, 64
2, 541483, Note_on_c, 0, 56, 23
2, 541483, Note_on_c, 0, 49, 48
2, 541488, Note_off_c, 0, 51, 64
2, 541492, Note_on_c, 0, 52, 40
2, 541504, Note_off_c, 0, 44, 64
2, 541558, Note_off_c, 0, 56, 64
2, 541663, Note_on_c, 0, 56, 25
2, 541727, Note_off_c, 0, 56, 64
2, 541826, Note_on_c, 0, 44, 29
2, 541833, Note_on_c, 0, 51, 46
2, 541839, Note_on_c, 0, 56, 28
2, 541854, Note_off_c, 0, 49, 64
2, 541874, Note_off_c, 0, 52, 64
2, 541912, Note_off_c, 0, 56, 64
2, 541926, Note_off_c, 0, 51, 64
2, 541931, Note_off_c, 0, 44, 64
2, 542011, Note_on_c, 0, 56, 21
2, 542080, Note_off_c, 0, 56, 64
2, 542166, Note_on_c, 0, 40, 48
2, 542171, Note_on_c, 0, 49, 32
2, 542184, Note_on_c, 0, 56, 26
2, 542237, Note_off_c, 0, 56, 64
2, 542340, Note_on_c, 0, 56, 28
2, 542403, Note_off_c, 0, 49, 64
2, 542406, Note_off_c, 0, 56, 64
2, 542505, Note_on_c, 0, 51, 41
2, 542506, Control_c, 0, 64, 0
2, 542516, Note_on_c, 0, 44, 44
2, 542524, Note_off_c, 0, 40, 64
2, 542524, Note_on_c, 0, 56, 32
2, 542587, Note_off_c, 0, 56, 64
2, 542646, Control_c, 0, 64, 127
2, 542678, Note_on_c, 0, 56, 21
2, 542745, Note_off_c, 0, 56, 64
2, 542851, Note_off_c, 0, 51, 64
2, 542858, Note_off_c, 0, 44, 64
2, 542859, Note_on_c, 0, 56, 24
2, 542864, Note_on_c, 0, 49, 44
2, 542864, Note_on_c, 0, 40, 37
2, 542928, Note_off_c, 0, 56, 64
2, 542979, Note_off_c, 0, 49, 64
2, 543017, Note_off_c, 0, 40, 64
2, 543032, Note_on_c, 0, 56, 26
2, 543096, Note_off_c, 0, 56, 64
2, 543192, Note_on_c, 0, 39, 44
2, 543194, Note_on_c, 0, 48, 48
2, 543206, Note_on_c, 0, 56, 32
2, 543260, Note_off_c, 0, 56, 64
2, 543357, Note_on_c, 0, 56, 26
2, 543418, Note_off_c, 0, 56, 64
2, 543434, Note_off_c, 0, 48, 64
2, 543526, Note_on_c, 0, 49, 32
2, 543526, Note_on_c, 0, 37, 42
2, 543534, Note_on_c, 0, 56, 32
2, 543554, Note_off_c, 0, 39, 64
2, 543596, Note_off_c, 0, 56, 64
2, 543704, Note_on_c, 0, 56, 27
2, 543760, Note_off_c, 0, 56, 64
2, 543832, Note_off_c, 0, 49, 64
2, 543850, Control_c, 0, 64, 0
2, 543864, Note_on_c, 0, 39, 41
2, 543873, Note_on_c, 0, 48, 41
2, 543874, Note_on_c, 0, 56, 28
2, 543882, Note_off_c, 0, 37, 64
2, 543936, Control_c, 0, 64, 127
2, 543947, Note_off_c, 0, 56, 64
2, 544039, Note_on_c, 0, 56, 20
2, 544076, Note_off_c, 0, 48, 64
2, 544097, Note_off_c, 0, 56, 64
2, 544198, Note_on_c, 0, 40, 50
2, 544199, Note_off_c, 0, 39, 64
2, 544202, Note_on_c, 0, 49, 45
2, 544213, Note_on_c, 0, 56, 28
2, 544266, Note_off_c, 0, 56, 64
2, 544364, Note_on_c, 0, 56, 29
2, 544418, Note_off_c, 0, 56, 64
2, 544420, Note_off_c, 0, 49, 64
2, 544533, Note_on_c, 0, 51, 56
2, 544533, Note_on_c, 0, 39, 54
2, 544540, Note_off_c, 0, 40, 64
2, 544552, Note_on_c, 0, 56, 32
2, 544594, Note_off_c, 0, 56, 64
2, 544703, Note_on_c, 0, 56, 31
2, 544751, Note_off_c, 0, 56, 64
2, 544787, Note_off_c, 0, 39, 64
2, 544831, Note_off_c, 0, 51, 64
2, 544865, Note_on_c, 0, 37, 52
2, 544866, Note_on_c, 0, 52, 53
2, 544889, Note_on_c, 0, 56, 28
2, 544929, Note_off_c, 0, 56, 64
2, 545038, Note_on_c, 0, 56, 23
2, 545084, Note_off_c, 0, 52, 64
2, 545093, Note_off_c, 0, 56, 64
2, 545175, Control_c, 0, 64, 0
2, 545222, Note_off_c, 0, 37, 64
2, 545222, Note_on_c, 0, 51, 39
2, 545226, Note_on_c, 0, 56, 29
2, 545230, Note_on_c, 0, 44, 36
2, 545263, Control_c, 0, 64, 127
2, 545297, Note_off_c, 0, 56, 64
2, 545384, Note_on_c, 0, 68, 48
2, 545394, Note_on_c, 0, 56, 32
2, 545439, Note_off_c, 0, 56, 64
2, 545444, Note_off_c, 0, 68, 64
2, 545551, Note_on_c, 0, 56, 34
2, 545560, Note_on_c, 0, 68, 26
2, 545617, Note_off_c, 0, 68, 64
2, 545626, Note_off_c, 0, 56, 64
2, 545718, Note_on_c, 0, 56, 40
2, 545725, Note_on_c, 0, 68, 33
2, 545780, Note_off_c, 0, 56, 64
2, 545782, Note_off_c, 0, 68, 64
2, 545816, Note_off_c, 0, 51, 64
2, 545820, Note_off_c, 0, 44, 64
2, 545892, Note_on_c, 0, 68, 28
2, 545898, Note_on_c, 0, 56, 24
2, 545944, Note_off_c, 0, 56, 64
2, 545952, Note_off_c, 0, 68, 64
2, 546046, Note_on_c, 0, 68, 37
2, 546057, Note_on_c, 0, 56, 28
2, 546113, Note_off_c, 0, 56, 64
2, 546121, Note_off_c, 0, 68, 64
2, 546220, Note_on_c, 0, 68, 35
2, 546227, Note_on_c, 0, 56, 26
2, 546276, Note_off_c, 0, 56, 64
2, 546280, Note_off_c, 0, 68, 64
2, 546390, Note_on_c, 0, 68, 24
2, 546390, Note_on_c, 0, 56, 32
2, 546456, Note_off_c, 0, 56, 64
2, 546460, Note_off_c, 0, 68, 64
2, 546519, Control_c, 0, 64, 0
2, 546553, Note_on_c, 0, 37, 35
2, 546559, Note_on_c, 0, 68, 36
2, 546566, Note_on_c, 0, 44, 32
2, 546567, Note_on_c, 0, 56, 28
2, 546610, Control_c, 0, 64, 127
2, 546651, Note_off_c, 0, 56, 64
2, 546667, Note_off_c, 0, 68, 64
2, 546739, Note_on_c, 0, 68, 33
2, 546739, Note_on_c, 0, 56, 29
2, 546802, Note_off_c, 0, 44, 64
2, 546807, Note_off_c, 0, 56, 64
2, 546816, Note_off_c, 0, 37, 64
2, 546821, Note_off_c, 0, 68, 64
2, 546888, Note_on_c, 0, 39, 44
2, 546893, Note_on_c, 0, 44, 48
2, 546901, Note_on_c, 0, 68, 26
2, 546907, Note_on_c, 0, 56, 31
2, 546974, Note_off_c, 0, 56, 64
2, 546974, Note_off_c, 0, 68, 64
2, 547063, Note_on_c, 0, 56, 38
2, 547067, Note_on_c, 0, 68, 32
2, 547125, Note_off_c, 0, 56, 64
2, 547127, Note_off_c, 0, 68, 64
2, 547189, Note_off_c, 0, 39, 64
2, 547223, Note_off_c, 0, 44, 64
2, 547224, Note_on_c, 0, 61, 47
2, 547224, Note_on_c, 0, 56, 32
2, 547230, Note_on_c, 0, 49, 52
2, 547230, Note_on_c, 0, 40, 49
2, 547232, Note_on_c, 0, 68, 31
2, 547250, Control_c, 0, 64, 0
2, 547290, Note_off_c, 0, 56, 64
2, 547302, Note_off_c, 0, 68, 64
2, 547380, Control_c, 0, 64, 127
2, 547413, Note_on_c, 0, 68, 33
2, 547418, Note_on_c, 0, 56, 33
2, 547474, Note_off_c, 0, 56, 64
2, 547494, Note_off_c, 0, 68, 64
2, 547510, Note_off_c, 0, 49, 64
2, 547524, Note_off_c, 0, 61, 64
2, 547560, Note_on_c, 0, 60, 48
2, 547560, Note_on_c, 0, 56, 35
2, 547568, Note_on_c, 0, 68, 37
2, 547570, Note_on_c, 0, 48, 40
2, 547577, Note_on_c, 0, 39, 50
2, 547588, Control_c, 0, 64, 0
2, 547595, Note_off_c, 0, 40, 64
2, 547653, Note_off_c, 0, 56, 64
2, 547666, Control_c, 0, 64, 127
2, 547671, Note_off_c, 0, 68, 64
2, 547736, Note_on_c, 0, 56, 34
2, 547744, Note_on_c, 0, 68, 34
2, 547797, Note_off_c, 0, 39, 64
2, 547807, Note_off_c, 0, 56, 64
2, 547814, Note_off_c, 0, 68, 64
2, 547846, Note_off_c, 0, 48, 64
2, 547860, Note_off_c, 0, 60, 64
2, 547913, Note_on_c, 0, 39, 55
2, 547919, Note_on_c, 0, 68, 36
2, 547920, Note_on_c, 0, 56, 39
2, 547923, Note_on_c, 0, 44, 52
2, 547981, Note_off_c, 0, 56, 64
2, 547990, Note_off_c, 0, 68, 64
2, 548077, Note_on_c, 0, 68, 37
2, 548081, Note_on_c, 0, 56, 39
2, 548120, Note_off_c, 0, 44, 64
2, 548131, Note_off_c, 0, 39, 64
2, 548139, Note_off_c, 0, 56, 64
2, 548153, Note_off_c, 0, 68, 64
2, 548232, Note_on_c, 0, 44, 50
2, 548238, Note_on_c, 0, 68, 36
2, 548239, Note_on_c, 0, 40, 54
2, 548245, Note_on_c, 0, 56, 38
2, 548308, Note_off_c, 0, 56, 64
2, 548327, Note_off_c, 0, 68, 64
2, 548397, Note_on_c, 0, 68, 43
2, 548400, Note_on_c, 0, 56, 38
2, 548458, Note_off_c, 0, 40, 64
2, 548459, Note_off_c, 0, 56, 64
2, 548478, Note_off_c, 0, 68, 64
2, 548507, Note_off_c, 0, 44, 64
2, 548549, Control_c, 0, 64, 0
2, 548570, Note_on_c, 0, 42, 52
2, 548573, Note_on_c, 0, 56, 43
2, 548574, Note_on_c, 0, 68, 52
2, 548574, Note_on_c, 0, 51, 53
2, 548581, Note_on_c, 0, 63, 56
2, 548629, Control_c, 0, 64, 127
2, 548662, Note_off_c, 0, 56, 64
2, 548694, Note_off_c, 0, 68, 64
2, 548744, Note_on_c, 0, 68, 50
2, 548754, Note_on_c, 0, 56, 36
2, 548776, Note_off_c, 0, 51, 64
2, 548842, Note_off_c, 0, 68, 64
2, 548845, Note_off_c, 0, 56, 64
2, 548899, Note_on_c, 0, 49, 46
2, 548903, Note_on_c, 0, 40, 54
2, 548906, Note_on_c, 0, 68, 48
2, 548911, Note_on_c, 0, 61, 55
2, 548914, Note_off_c, 0, 63, 64
2, 548924, Note_off_c, 0, 42, 64
2, 549001, Note_off_c, 0, 68, 64
2, 549062, Note_on_c, 0, 68, 39
2, 549065, Note_on_c, 0, 56, 47
2, 549129, Note_off_c, 0, 56, 64
2, 549144, Note_off_c, 0, 68, 64
2, 549150, Note_off_c, 0, 40, 64
2, 549154, Note_off_c, 0, 49, 64
2, 549228, Note_on_c, 0, 68, 45
2, 549235, Note_on_c, 0, 56, 44
2, 549250, Note_on_c, 0, 40, 74
2, 549252, Note_on_c, 0, 49, 61
2, 549298, Note_off_c, 0, 56, 64
2, 549319, Note_off_c, 0, 68, 64
2, 549375, Note_on_c, 0, 68, 40
2, 549379, Note_on_c, 0, 56, 48
2, 549402, Note_off_c, 0, 61, 64
2, 549447, Note_off_c, 0, 56, 64
2, 549465, Note_off_c, 0, 68, 64
2, 549514, Control_c, 0, 64, 0
2, 549545, Note_on_c, 0, 51, 60
2, 549546, Note_on_c, 0, 68, 52
2, 549546, Note_on_c, 0, 56, 50
2, 549546, Note_on_c, 0, 44, 63
2, 549550, Note_off_c, 0, 40, 64
2, 549552, Note_off_c, 0, 49, 64
2, 549553, Note_on_c, 0, 63, 61
2, 549593, Control_c, 0, 64, 127
2, 549628, Note_off_c, 0, 56, 64
2, 549651, Note_off_c, 0, 68, 64
2, 549711, Note_on_c, 0, 56, 36
2, 549713, Note_on_c, 0, 68, 38
2, 549733, Note_off_c, 0, 63, 64
2, 549788, Note_off_c, 0, 68, 64
2, 549804, Note_off_c, 0, 56, 64
2, 549871, Note_on_c, 0, 56, 52
2, 549871, Note_on_c, 0, 49, 62
2, 549875, Note_on_c, 0, 68, 52
2, 549875, Note_on_c, 0, 52, 60
2, 549881, Note_on_c, 0, 64, 61
2, 549887, Note_off_c, 0, 51, 64
2, 549901, Note_off_c, 0, 44, 64
2, 549940, Note_off_c, 0, 68, 64
2, 549976, Note_off_c, 0, 56, 64
2, 550044, Note_on_c, 0, 56, 40
2, 550046, Note_on_c, 0, 68, 52
2, 550074, Note_off_c, 0, 64, 64
2, 550128, Note_off_c, 0, 56, 64
2, 550162, Control_c, 0, 64, 0
2, 550168, Note_off_c, 0, 68, 64
2, 550188, Note_on_c, 0, 44, 69
2, 550198, Note_on_c, 0, 63, 63
2, 550198, Note_on_c, 0, 51, 60
2, 550204, Note_on_c, 0, 56, 56
2, 550208, Note_on_c, 0, 68, 48
2, 550236, Note_off_c, 0, 52, 64
2, 550241, Note_off_c, 0, 68, 64
2, 550248, Control_c, 0, 64, 127
2, 550252, Note_off_c, 0, 49, 64
2, 550296, Note_off_c, 0, 56, 64
2, 550348, Note_off_c, 0, 51, 64
2, 550368, Note_off_c, 0, 44, 64
2, 550370, Note_on_c, 0, 56, 55
2, 550377, Note_on_c, 0, 68, 38
2, 550406, Note_off_c, 0, 63, 64
2, 550425, Note_off_c, 0, 56, 64
2, 550449, Note_off_c, 0, 68, 64
2, 550455, Note_on_c, 0, 32, 82
2, 550566, Note_on_c, 0, 68, 57
2, 550568, Note_on_c, 0, 63, 32
2, 550568, Note_on_c, 0, 44, 86
2, 550573, Note_on_c, 0, 56, 58
2, 550576, Note_on_c, 0, 51, 82
2, 550653, Note_off_c, 0, 56, 64
2, 550733, Note_on_c, 0, 56, 57
2, 550787, Note_off_c, 0, 63, 64
2, 550804, Note_off_c, 0, 56, 64
2, 550818, Note_off_c, 0, 68, 64
2, 550904, Note_on_c, 0, 68, 52
2, 550904, Note_on_c, 0, 56, 56
2, 550967, Note_off_c, 0, 56, 64
2, 550986, Note_off_c, 0, 68, 64
2, 551059, Note_on_c, 0, 68, 55
2, 551062, Note_on_c, 0, 56, 52
2, 551133, Note_off_c, 0, 56, 64
2, 551139, Note_off_c, 0, 68, 64
2, 551219, Note_off_c, 0, 32, 64
2, 551224, Note_on_c, 0, 56, 60
2, 551225, Note_on_c, 0, 68, 58
2, 551301, Note_off_c, 0, 56, 64
2, 551303, Note_off_c, 0, 68, 64
2, 551391, Note_on_c, 0, 56, 55
2, 551394, Note_on_c, 0, 68, 56
2, 551462, Note_off_c, 0, 56, 64
2, 551468, Note_off_c, 0, 68, 64
2, 551528, Note_off_c, 0, 51, 64
2, 551551, Note_on_c, 0, 56, 57
2, 551554, Note_on_c, 0, 68, 49
2, 551576, Note_off_c, 0, 44, 64
2, 551611, Note_off_c, 0, 56, 64
2, 551624, Note_off_c, 0, 68, 64
2, 551708, Note_on_c, 0, 56, 57
2, 551709, Note_on_c, 0, 68, 48
2, 551747, Note_off_c, 0, 56, 64
2, 551749, Note_off_c, 0, 68, 64
2, 551883, Control_c, 0, 64, 0
2, 551888, Note_on_c, 0, 28, 64
2, 551891, Note_on_c, 0, 71, 74
2, 551891, Note_on_c, 0, 68, 75
2, 551891, Note_on_c, 0, 40, 74
2, 551901, Note_on_c, 0, 64, 75
2, 551901, Note_on_c, 0, 59, 71
2, 551968, Note_off_c, 0, 71, 64
2, 551983, Control_c, 0, 64, 127
2, 551995, Note_off_c, 0, 59, 64
2, 552072, Note_on_c, 0, 71, 64
2, 552072, Note_on_c, 0, 59, 66
2, 552124, Note_off_c, 0, 59, 64
2, 552132, Note_off_c, 0, 71, 64
2, 552147, Note_off_c, 0, 68, 64
2, 552157, Note_off_c, 0, 64, 64
2, 552237, Note_on_c, 0, 59, 60
2, 552246, Note_on_c, 0, 71, 54
2, 552283, Note_off_c, 0, 59, 64
2, 552323, Note_off_c, 0, 71, 64
2, 552397, Note_on_c, 0, 59, 46
2, 552416, Note_on_c, 0, 71, 48
2, 552424, Note_off_c, 0, 28, 64
2, 552427, Note_off_c, 0, 40, 64
2, 552468, Note_off_c, 0, 59, 64
2, 552493, Note_off_c, 0, 71, 64
2, 552564, Note_on_c, 0, 47, 68
2, 552564, Note_on_c, 0, 35, 69
2, 552569, Note_on_c, 0, 71, 75
2, 552574, Note_on_c, 0, 59, 76
2, 552575, Note_on_c, 0, 68, 71
2, 552586, Note_on_c, 0, 63, 74
2, 552635, Note_off_c, 0, 59, 64
2, 552646, Note_off_c, 0, 71, 64
2, 552744, Note_on_c, 0, 71, 64
2, 552746, Note_on_c, 0, 59, 75
2, 552783, Note_off_c, 0, 63, 64
2, 552797, Note_off_c, 0, 59, 64
2, 552821, Note_off_c, 0, 71, 64
2, 552828, Note_off_c, 0, 68, 64
2, 552896, Note_on_c, 0, 71, 64
2, 552900, Note_on_c, 0, 59, 76
2, 552949, Note_off_c, 0, 59, 64
2, 552973, Note_off_c, 0, 71, 64
2, 553040, Note_on_c, 0, 71, 64
2, 553055, Note_on_c, 0, 59, 66
2, 553117, Note_off_c, 0, 71, 64
2, 553123, Note_off_c, 0, 59, 64
2, 553145, Note_off_c, 0, 35, 64
2, 553145, Note_off_c, 0, 47, 64
2, 553155, Control_c, 0, 64, 0
2, 553192, Note_on_c, 0, 28, 81
2, 553205, Note_on_c, 0, 40, 70
2, 553213, Note_on_c, 0, 71, 73
2, 553213, Note_on_c, 0, 68, 68
2, 553214, Note_on_c, 0, 59, 74
2, 553219, Note_on_c, 0, 64, 68
2, 553269, Control_c, 0, 64, 127
2, 553281, Note_off_c, 0, 59, 64
2, 553290, Note_off_c, 0, 71, 64
2, 553384, Note_on_c, 0, 71, 64
2, 553391, Note_on_c, 0, 59, 69
2, 553433, Note_off_c, 0, 68, 64
2, 553439, Note_off_c, 0, 64, 64
2, 553444, Note_off_c, 0, 71, 64
2, 553446, Note_off_c, 0, 59, 64
2, 553536, Note_on_c, 0, 71, 64
2, 553540, Note_on_c, 0, 59, 76
2, 553593, Note_off_c, 0, 59, 64
2, 553596, Note_off_c, 0, 71, 64
2, 553680, Note_on_c, 0, 71, 64
2, 553681, Note_on_c, 0, 59, 65
2, 553735, Note_off_c, 0, 59, 64
2, 553740, Note_off_c, 0, 71, 64
2, 553792, Control_c, 0, 64, 0
2, 553841, Note_on_c, 0, 35, 68
2, 553848, Note_off_c, 0, 28, 64
2, 553849, Note_on_c, 0, 71, 76
2, 553850, Note_on_c, 0, 68, 76
2, 553850, Note_on_c, 0, 63, 76
2, 553850, Note_on_c, 0, 59, 75
2, 553861, Note_off_c, 0, 40, 64
2, 553861, Note_on_c, 0, 47, 77
2, 553909, Control_c, 0, 64, 127
2, 553919, Note_off_c, 0, 59, 64
2, 553926, Note_off_c, 0, 71, 64
2, 554008, Note_on_c, 0, 71, 64
2, 554009, Note_on_c, 0, 59, 69
2, 554032, Note_off_c, 0, 63, 64
2, 554067, Note_off_c, 0, 59, 64
2, 554068, Note_off_c, 0, 71, 64
2, 554071, Note_off_c, 0, 68, 64
2, 554152, Note_on_c, 0, 71, 64
2, 554159, Note_on_c, 0, 59, 69
2, 554212, Note_off_c, 0, 71, 64
2, 554219, Note_off_c, 0, 59, 64
2, 554296, Note_on_c, 0, 46, 75
2, 554296, Note_on_c, 0, 34, 64
2, 554303, Note_on_c, 0, 59, 71
2, 554305, Note_off_c, 0, 35, 64
2, 554309, Note_on_c, 0, 71, 75
2, 554325, Note_off_c, 0, 47, 64
2, 554367, Note_off_c, 0, 59, 64
2, 554392, Note_off_c, 0, 71, 64
2, 554412, Note_off_c, 0, 34, 64
2, 554412, Note_off_c, 0, 46, 64
2, 554449, Control_c, 0, 64, 0
2, 554456, Note_on_c, 0, 32, 64
2, 554471, Note_on_c, 0, 44, 80
2, 554484, Note_on_c, 0, 71, 75
2, 554484, Note_on_c, 0, 68, 75
2, 554484, Note_on_c, 0, 63, 75
2, 554484, Note_on_c, 0, 59, 69
2, 554530, Note_off_c, 0, 59, 64
2, 554561, Note_off_c, 0, 71, 64
2, 554636, Note_on_c, 0, 59, 68
2, 554667, Control_c, 0, 64, 127
2, 554693, Note_off_c, 0, 59, 64
2, 554725, Note_off_c, 0, 63, 64
2, 554725, Note_off_c, 0, 68, 64
2, 554787, Note_on_c, 0, 59, 75
2, 554793, Note_on_c, 0, 71, 52
2, 554851, Note_off_c, 0, 59, 64
2, 554864, Note_off_c, 0, 71, 64
2, 554933, Note_on_c, 0, 59, 72
2, 554936, Note_on_c, 0, 71, 64
2, 554996, Note_off_c, 0, 71, 64
2, 554999, Note_off_c, 0, 59, 64
2, 555025, Control_c, 0, 64, 0
2, 555096, Note_on_c, 0, 39, 66
2, 555099, Note_on_c, 0, 59, 73
2, 555107, Note_on_c, 0, 67, 73
2, 555107, Note_on_c, 0, 51, 71
2, 555111, Note_on_c, 0, 71, 76
2, 555111, Note_on_c, 0, 63, 74
2, 555113, Note_off_c, 0, 32, 64
2, 555128, Note_off_c, 0, 44, 64
2, 555154, Control_c, 0, 64, 127
2, 555164, Note_off_c, 0, 59, 64
2, 555214, Note_off_c, 0, 71, 64
2, 555275, Note_on_c, 0, 71, 63
2, 555276, Note_on_c, 0, 59, 68
2, 555339, Note_off_c, 0, 59, 64
2, 555341, Note_off_c, 0, 71, 64
2, 555424, Note_on_c, 0, 59, 62
2, 555444, Note_on_c, 0, 71, 52
2, 555489, Note_off_c, 0, 59, 64
2, 555491, Note_off_c, 0, 67, 64
2, 555492, Note_off_c, 0, 71, 64
2, 555504, Note_off_c, 0, 63, 64
2, 555580, Note_on_c, 0, 59, 60
2, 555584, Note_on_c, 0, 71, 52
2, 555646, Note_off_c, 0, 59, 64
2, 555662, Note_off_c, 0, 51, 64
2, 555667, Note_off_c, 0, 71, 64
2, 555719, Control_c, 0, 64, 0
2, 555758, Note_off_c, 0, 39, 64
2, 555784, Note_on_c, 0, 63, 61
2, 555785, Note_on_c, 0, 44, 66
2, 555788, Note_on_c, 0, 59, 64
2, 555792, Note_on_c, 0, 68, 56
2, 555797, Note_on_c, 0, 71, 62
2, 555800, Note_on_c, 0, 32, 64
2, 555845, Control_c, 0, 64, 127
2, 555862, Note_off_c, 0, 59, 64
2, 555868, Note_off_c, 0, 71, 64
2, 555889, Note_off_c, 0, 68, 64
2, 555899, Note_off_c, 0, 63, 64
2, 555978, Note_on_c, 0, 56, 49
2, 556044, Note_off_c, 0, 56, 64
2, 556155, Note_on_c, 0, 56, 33
2, 556212, Note_off_c, 0, 56, 64
2, 556232, Note_off_c, 0, 44, 64
2, 556247, Note_off_c, 0, 32, 64
2, 556324, Note_on_c, 0, 56, 24
2, 556389, Note_off_c, 0, 56, 64
2, 556502, Note_on_c, 0, 56, 27
2, 556564, Note_off_c, 0, 56, 64
2, 556662, Note_on_c, 0, 56, 23
2, 556717, Note_off_c, 0, 56, 64
2, 556830, Note_on_c, 0, 56, 25
2, 556889, Note_off_c, 0, 56, 64
2, 556992, Note_on_c, 0, 56, 21
2, 557064, Note_off_c, 0, 56, 64
2, 557150, Control_c, 0, 64, 0
2, 557184, Note_on_c, 0, 44, 44
2, 557184, Note_on_c, 0, 37, 44
2, 557198, Note_on_c, 0, 56, 23
2, 557238, Control_c, 0, 64, 127
2, 557257, Note_off_c, 0, 56, 64
2, 557352, Note_on_c, 0, 56, 28
2, 557402, Note_off_c, 0, 44, 64
2, 557425, Note_off_c, 0, 56, 64
2, 557459, Note_off_c, 0, 37, 64
2, 557510, Note_on_c, 0, 44, 44
2, 557517, Note_on_c, 0, 39, 44
2, 557528, Note_on_c, 0, 56, 28
2, 557586, Note_off_c, 0, 56, 64
2, 557686, Note_on_c, 0, 56, 29
2, 557723, Note_off_c, 0, 44, 64
2, 557741, Note_off_c, 0, 56, 64
2, 557768, Note_off_c, 0, 39, 64
2, 557838, Control_c, 0, 64, 0
2, 557851, Note_on_c, 0, 49, 44
2, 557851, Note_on_c, 0, 40, 44
2, 557871, Note_on_c, 0, 56, 35
2, 557922, Control_c, 0, 64, 127
2, 557936, Note_off_c, 0, 56, 64
2, 558020, Note_on_c, 0, 56, 29
2, 558084, Note_off_c, 0, 56, 64
2, 558095, Note_off_c, 0, 49, 64
2, 558170, Note_on_c, 0, 48, 43
2, 558177, Note_off_c, 0, 40, 64
2, 558177, Note_on_c, 0, 39, 44
2, 558192, Note_on_c, 0, 56, 35
2, 558247, Note_off_c, 0, 56, 64
2, 558349, Note_on_c, 0, 56, 36
2, 558369, Note_off_c, 0, 39, 64
2, 558416, Note_off_c, 0, 48, 64
2, 558418, Note_off_c, 0, 56, 64
2, 558443, Control_c, 0, 64, 0
2, 558507, Note_on_c, 0, 39, 44
2, 558510, Note_on_c, 0, 44, 44
2, 558519, Note_on_c, 0, 56, 40
2, 558540, Control_c, 0, 64, 127
2, 558579, Note_off_c, 0, 56, 64
2, 558667, Note_on_c, 0, 56, 36
2, 558739, Note_off_c, 0, 56, 64
2, 558744, Note_off_c, 0, 44, 64
2, 558787, Note_off_c, 0, 39, 64
2, 558841, Note_on_c, 0, 44, 48
2, 558844, Note_on_c, 0, 40, 44
2, 558850, Note_on_c, 0, 56, 40
2, 558912, Note_off_c, 0, 56, 64
2, 559001, Note_on_c, 0, 56, 36
2, 559069, Note_off_c, 0, 56, 64
2, 559123, Control_c, 0, 64, 0
2, 559144, Note_off_c, 0, 40, 64
2, 559154, Note_on_c, 0, 42, 44
2, 559161, Note_off_c, 0, 44, 64
2, 559161, Note_on_c, 0, 51, 52
2, 559175, Note_on_c, 0, 56, 44
2, 559213, Control_c, 0, 64, 127
2, 559234, Note_off_c, 0, 56, 64
2, 559332, Note_on_c, 0, 56, 31
2, 559395, Note_off_c, 0, 51, 64
2, 559399, Note_off_c, 0, 56, 64
2, 559478, Note_on_c, 0, 40, 43
2, 559485, Note_off_c, 0, 42, 64
2, 559487, Note_on_c, 0, 49, 51
2, 559499, Note_on_c, 0, 56, 44
2, 559541, Control_c, 0, 64, 0
2, 559569, Note_off_c, 0, 56, 64
2, 559640, Control_c, 0, 64, 127
2, 559658, Note_on_c, 0, 56, 36
2, 559722, Note_off_c, 0, 56, 64
2, 559733, Note_off_c, 0, 40, 64
2, 559764, Note_off_c, 0, 49, 64
2, 559804, Control_c, 0, 64, 0
2, 559819, Note_on_c, 0, 49, 44
2, 559826, Note_on_c, 0, 56, 43
2, 559826, Note_on_c, 0, 40, 44
2, 559895, Note_off_c, 0, 56, 64
2, 559903, Control_c, 0, 64, 127
2, 559969, Note_off_c, 0, 40, 64
2, 559980, Note_on_c, 0, 56, 35
2, 560038, Note_off_c, 0, 56, 64
2, 560099, Note_off_c, 0, 49, 64
2, 560133, Note_on_c, 0, 44, 45
2, 560135, Note_on_c, 0, 51, 48
2, 560158, Note_on_c, 0, 56, 30
2, 560202, Note_off_c, 0, 56, 64
2, 560235, Control_c, 0, 64, 0
2, 560295, Note_on_c, 0, 56, 38
2, 560317, Control_c, 0, 64, 127
2, 560372, Note_off_c, 0, 56, 64
2, 560444, Note_on_c, 0, 49, 48
2, 560445, Note_on_c, 0, 52, 47
2, 560452, Note_off_c, 0, 51, 64
2, 560452, Note_off_c, 0, 44, 64
2, 560463, Note_on_c, 0, 56, 42
2, 560514, Note_off_c, 0, 56, 64
2, 560612, Note_on_c, 0, 56, 44
2, 560686, Note_off_c, 0, 56, 64
2, 560704, Control_c, 0, 64, 0
2, 560764, Note_on_c, 0, 44, 40
2, 560766, Note_on_c, 0, 51, 31
2, 560780, Note_on_c, 0, 56, 38
2, 560802, Control_c, 0, 64, 127
2, 560815, Note_off_c, 0, 52, 64
2, 560817, Note_off_c, 0, 49, 64
2, 560855, Note_off_c, 0, 56, 64
2, 560943, Note_on_c, 0, 56, 39
2, 560998, Note_off_c, 0, 51, 64
2, 561008, Note_off_c, 0, 44, 64
2, 561013, Note_off_c, 0, 56, 64
2, 561112, Note_on_c, 0, 56, 35
2, 561112, Note_on_c, 0, 51, 40
2, 561123, Note_on_c, 0, 44, 34
2, 561133, Control_c, 0, 64, 0
2, 561203, Note_off_c, 0, 56, 64
2, 561220, Control_c, 0, 64, 127
2, 561265, Note_on_c, 0, 56, 28
2, 561334, Note_off_c, 0, 56, 64
2, 561436, Note_on_c, 0, 56, 23
2, 561485, Note_off_c, 0, 56, 64
2, 561587, Note_on_c, 0, 56, 28
2, 561640, Note_off_c, 0, 56, 64
2, 561753, Note_on_c, 0, 56, 21
2, 561806, Note_off_c, 0, 56, 64
2, 561908, Note_on_c, 0, 56, 21
2, 561967, Note_off_c, 0, 56, 64
2, 562070, Note_on_c, 0, 56, 19
2, 562131, Note_off_c, 0, 56, 64
2, 562236, Note_on_c, 0, 56, 20
2, 562292, Note_off_c, 0, 56, 64
2, 562392, Note_on_c, 0, 56, 17
2, 562455, Note_off_c, 0, 56, 64
2, 562541, Note_on_c, 0, 56, 21
2, 562602, Note_off_c, 0, 56, 64
2, 562660, Control_c, 0, 64, 0
2, 562686, Note_on_c, 0, 49, 37
2, 562693, Note_on_c, 0, 52, 32
2, 562704, Note_on_c, 0, 56, 25
2, 562707, Note_off_c, 0, 51, 64
2, 562716, Note_off_c, 0, 44, 64
2, 562766, Note_off_c, 0, 56, 64
2, 562804, Control_c, 0, 64, 127
2, 562854, Note_on_c, 0, 56, 24
2, 562926, Note_off_c, 0, 56, 64
2, 563008, Note_on_c, 0, 44, 38
2, 563015, Note_on_c, 0, 51, 40
2, 563019, Note_on_c, 0, 56, 28
2, 563028, Note_off_c, 0, 49, 64
2, 563050, Note_off_c, 0, 52, 64
2, 563087, Note_off_c, 0, 56, 64
2, 563087, Note_off_c, 0, 51, 64
2, 563094, Note_off_c, 0, 44, 64
2, 563178, Note_on_c, 0, 56, 24
2, 563254, Note_off_c, 0, 56, 64
2, 563328, Note_on_c, 0, 49, 39
2, 563328, Note_on_c, 0, 40, 39
2, 563341, Note_on_c, 0, 56, 32
2, 563397, Note_off_c, 0, 56, 64
2, 563456, Control_c, 0, 64, 0
2, 563487, Note_on_c, 0, 56, 26
2, 563560, Note_off_c, 0, 56, 64
2, 563638, Note_on_c, 0, 51, 49
2, 563644, Note_on_c, 0, 56, 33
2, 563648, Note_on_c, 0, 44, 36
2, 563648, Control_c, 0, 64, 127
2, 563662, Note_off_c, 0, 40, 64
2, 563662, Note_off_c, 0, 49, 64
2, 563711, Note_off_c, 0, 56, 64
2, 563760, Control_c, 0, 64, 0
2, 563789, Note_on_c, 0, 56, 32
2, 563843, Control_c, 0, 64, 127
2, 563859, Note_off_c, 0, 56, 64
2, 563932, Note_off_c, 0, 51, 64
2, 563935, Note_off_c, 0, 44, 64
2, 563940, Note_on_c, 0, 40, 39
2, 563941, Note_on_c, 0, 49, 43
2, 563956, Note_on_c, 0, 56, 33
2, 564017, Note_off_c, 0, 56, 64
2, 564053, Note_off_c, 0, 49, 64
2, 564074, Note_off_c, 0, 40, 64
2, 564101, Note_on_c, 0, 56, 24
2, 564168, Note_off_c, 0, 56, 64
2, 564215, Control_c, 0, 64, 0
2, 564260, Note_on_c, 0, 48, 40
2, 564260, Note_on_c, 0, 39, 40
2, 564264, Note_on_c, 0, 56, 33
2, 564321, Control_c, 0, 64, 127
2, 564335, Note_off_c, 0, 56, 64
2, 564340, Control_c, 0, 64, 0
2, 564365, Control_c, 0, 64, 127
2, 564419, Note_on_c, 0, 56, 29
2, 564482, Note_off_c, 0, 56, 64
2, 564565, Note_on_c, 0, 49, 32
2, 564569, Note_on_c, 0, 37, 38
2, 564572, Note_on_c, 0, 56, 35
2, 564576, Note_off_c, 0, 39, 64
2, 564576, Note_off_c, 0, 48, 64
2, 564630, Note_off_c, 0, 56, 64
2, 564732, Note_on_c, 0, 56, 39
2, 564785, Note_off_c, 0, 56, 64
2, 564809, Note_off_c, 0, 49, 64
2, 564826, Control_c, 0, 64, 0
2, 564871, Note_on_c, 0, 39, 40
2, 564877, Note_on_c, 0, 48, 44
2, 564888, Note_on_c, 0, 56, 35
2, 564899, Note_off_c, 0, 37, 64
2, 564941, Note_off_c, 0, 56, 64
2, 564985, Control_c, 0, 64, 127
2, 565040, Note_on_c, 0, 56, 36
2, 565073, Note_off_c, 0, 48, 64
2, 565097, Note_off_c, 0, 56, 64
2, 565181, Note_off_c, 0, 39, 64
2, 565183, Note_on_c, 0, 40, 43
2, 565188, Note_on_c, 0, 49, 49
2, 565206, Note_on_c, 0, 56, 38
2, 565257, Note_off_c, 0, 56, 64
2, 565354, Note_on_c, 0, 56, 40
2, 565392, Note_off_c, 0, 49, 64
2, 565416, Note_off_c, 0, 56, 64
2, 565440, Control_c, 0, 64, 0
2, 565478, Note_off_c, 0, 40, 64
2, 565498, Note_on_c, 0, 39, 41
2, 565501, Note_on_c, 0, 51, 49
2, 565516, Note_on_c, 0, 56, 39
2, 565559, Control_c, 0, 64, 127
2, 565576, Control_c, 0, 64, 0
2, 565583, Note_off_c, 0, 56, 64
2, 565604, Control_c, 0, 64, 127
2, 565664, Note_on_c, 0, 56, 38
2, 565733, Note_off_c, 0, 56, 64
2, 565733, Note_off_c, 0, 39, 64
2, 565779, Note_off_c, 0, 51, 64
2, 565809, Note_on_c, 0, 37, 44
2, 565811, Note_on_c, 0, 56, 40
2, 565817, Note_on_c, 0, 52, 39
2, 565879, Note_off_c, 0, 56, 64
2, 565969, Note_on_c, 0, 56, 41
2, 566029, Note_off_c, 0, 52, 64
2, 566036, Note_off_c, 0, 56, 64
2, 566050, Control_c, 0, 64, 0
2, 566112, Note_on_c, 0, 51, 52
2, 566119, Note_on_c, 0, 44, 44
2, 566125, Note_on_c, 0, 56, 32
2, 566131, Note_off_c, 0, 37, 64
2, 566149, Control_c, 0, 64, 127
2, 566180, Note_off_c, 0, 56, 64
2, 566276, Note_on_c, 0, 56, 29
2, 566279, Note_on_c, 0, 68, 30
2, 566328, Note_off_c, 0, 56, 64
2, 566338, Note_off_c, 0, 68, 64
2, 566424, Note_on_c, 0, 56, 28
2, 566428, Note_on_c, 0, 68, 31
2, 566460, Note_off_c, 0, 51, 64
2, 566467, Note_off_c, 0, 44, 64
2, 566479, Note_off_c, 0, 56, 64
2, 566487, Note_off_c, 0, 68, 64
2, 566573, Note_on_c, 0, 56, 25
2, 566581, Note_on_c, 0, 68, 20
2, 566631, Note_off_c, 0, 56, 64
2, 566633, Note_off_c, 0, 68, 64
2, 566738, Note_on_c, 0, 56, 24
2, 566748, Note_on_c, 0, 68, 24
2, 566799, Note_off_c, 0, 68, 64
2, 566800, Note_off_c, 0, 56, 64
2, 566882, Note_on_c, 0, 56, 28
2, 566886, Note_on_c, 0, 68, 35
2, 566940, Note_off_c, 0, 56, 64
2, 566948, Note_off_c, 0, 68, 64
2, 567035, Note_on_c, 0, 56, 32
2, 567039, Note_on_c, 0, 68, 38
2, 567088, Note_off_c, 0, 56, 64
2, 567101, Note_off_c, 0, 68, 64
2, 567183, Note_on_c, 0, 68, 32
2, 567187, Note_on_c, 0, 56, 28
2, 567237, Note_off_c, 0, 56, 64
2, 567246, Note_off_c, 0, 68, 64
2, 567321, Control_c, 0, 64, 0
2, 567332, Note_on_c, 0, 37, 52
2, 567339, Note_on_c, 0, 44, 43
2, 567354, Note_on_c, 0, 56, 26
2, 567357, Note_on_c, 0, 68, 31
2, 567415, Note_off_c, 0, 56, 64
2, 567425, Note_off_c, 0, 68, 64
2, 567425, Control_c, 0, 64, 127
2, 567443, Control_c, 0, 64, 0
2, 567459, Control_c, 0, 64, 127
2, 567495, Note_on_c, 0, 56, 36
2, 567499, Note_on_c, 0, 68, 35
2, 567564, Note_off_c, 0, 68, 64
2, 567570, Note_off_c, 0, 56, 64
2, 567601, Note_off_c, 0, 37, 64
2, 567618, Note_off_c, 0, 44, 64
2, 567644, Note_on_c, 0, 39, 46
2, 567653, Note_on_c, 0, 56, 34
2, 567654, Note_on_c, 0, 68, 34
2, 567658, Note_on_c, 0, 44, 57
2, 567716, Note_off_c, 0, 56, 64
2, 567725, Note_off_c, 0, 68, 64
2, 567798, Note_on_c, 0, 56, 38
2, 567807, Note_on_c, 0, 68, 30
2, 567812, Note_off_c, 0, 44, 64
2, 567837, Note_off_c, 0, 39, 64
2, 567858, Note_off_c, 0, 68, 64
2, 567858, Note_off_c, 0, 56, 64
2, 567943, Control_c, 0, 64, 0
2, 567975, Note_on_c, 0, 49, 49
2, 567975, Note_on_c, 0, 40, 47
2, 567982, Note_on_c, 0, 68, 48
2, 567986, Note_on_c, 0, 61, 47
2, 567987, Note_on_c, 0, 56, 36
2, 568058, Control_c, 0, 64, 127
2, 568064, Note_off_c, 0, 56, 64
2, 568069, Note_off_c, 0, 68, 64
2, 568128, Note_on_c, 0, 56, 38
2, 568129, Note_on_c, 0, 68, 46
2, 568204, Note_off_c, 0, 68, 64
2, 568228, Note_off_c, 0, 49, 64
2, 568249, Note_off_c, 0, 56, 64
2, 568305, Note_on_c, 0, 68, 47
2, 568305, Note_on_c, 0, 48, 46
2, 568308, Note_on_c, 0, 39, 51
2, 568314, Note_on_c, 0, 60, 48
2, 568322, Note_off_c, 0, 61, 64
2, 568329, Note_off_c, 0, 40, 64
2, 568344, Control_c, 0, 64, 0
2, 568400, Note_off_c, 0, 68, 64
2, 568433, Control_c, 0, 64, 127
2, 568448, Note_on_c, 0, 68, 45
2, 568450, Note_on_c, 0, 56, 40
2, 568541, Note_off_c, 0, 39, 64
2, 568544, Note_off_c, 0, 68, 64
2, 568548, Note_off_c, 0, 56, 64
2, 568567, Note_off_c, 0, 48, 64
2, 568617, Note_off_c, 0, 60, 64
2, 568620, Note_on_c, 0, 68, 40
2, 568623, Note_on_c, 0, 56, 40
2, 568631, Note_on_c, 0, 44, 61
2, 568631, Note_on_c, 0, 39, 62
2, 568697, Note_off_c, 0, 56, 64
2, 568736, Note_off_c, 0, 68, 64
2, 568765, Note_on_c, 0, 68, 21
2, 568771, Note_on_c, 0, 56, 39
2, 568786, Note_off_c, 0, 44, 64
2, 568826, Note_off_c, 0, 39, 64
2, 568840, Note_off_c, 0, 56, 64
2, 568855, Note_off_c, 0, 68, 64
2, 568904, Note_on_c, 0, 44, 59
2, 568910, Note_on_c, 0, 68, 42
2, 568910, Note_on_c, 0, 40, 62
2, 568914, Note_on_c, 0, 56, 38
2, 568983, Note_off_c, 0, 56, 64
2, 568992, Note_off_c, 0, 68, 64
2, 569061, Note_on_c, 0, 56, 41
2, 569067, Note_on_c, 0, 68, 44
2, 569122, Note_off_c, 0, 56, 64
2, 569124, Note_off_c, 0, 68, 64
2, 569190, Control_c, 0, 64, 0
2, 569200, Note_off_c, 0, 40, 64
2, 569212, Note_on_c, 0, 42, 60
2, 569217, Note_on_c, 0, 51, 55
2, 569222, Note_on_c, 0, 68, 50
2, 569222, Note_on_c, 0, 56, 47
2, 569228, Note_on_c, 0, 63, 58
2, 569234, Note_off_c, 0, 44, 64
2, 569273, Note_off_c, 0, 56, 64
2, 569288, Note_off_c, 0, 68, 64
2, 569298, Control_c, 0, 64, 127
2, 569394, Note_on_c, 0, 68, 35
2, 569396, Note_on_c, 0, 56, 44
2, 569463, Note_off_c, 0, 51, 64
2, 569476, Note_off_c, 0, 68, 64
2, 569484, Note_off_c, 0, 56, 64
2, 569509, Control_c, 0, 64, 0
2, 569536, Note_on_c, 0, 49, 59
2, 569540, Note_on_c, 0, 68, 51
2, 569541, Note_on_c, 0, 40, 53
2, 569545, Note_on_c, 0, 61, 60
2, 569556, Note_off_c, 0, 42, 64
2, 569556, Note_off_c, 0, 63, 64
2, 569620, Control_c, 0, 64, 127
2, 569637, Note_off_c, 0, 68, 64
2, 569695, Note_on_c, 0, 68, 41
2, 569701, Note_on_c, 0, 56, 37
2, 569763, Note_off_c, 0, 56, 64
2, 569782, Note_off_c, 0, 68, 64
2, 569809, Note_off_c, 0, 40, 64
2, 569817, Note_off_c, 0, 49, 64
2, 569862, Note_on_c, 0, 68, 44
2, 569862, Note_on_c, 0, 49, 70
2, 569864, Note_on_c, 0, 40, 69
2, 569867, Note_on_c, 0, 56, 46
2, 569928, Note_off_c, 0, 68, 64
2, 569931, Note_off_c, 0, 56, 64
2, 570001, Note_on_c, 0, 68, 25
2, 570006, Note_on_c, 0, 56, 44
2, 570074, Note_off_c, 0, 56, 64
2, 570075, Note_off_c, 0, 61, 64
2, 570082, Note_off_c, 0, 68, 64
2, 570102, Note_off_c, 0, 49, 64
2, 570104, Note_off_c, 0, 40, 64
2, 570133, Control_c, 0, 64, 0
2, 570150, Note_on_c, 0, 44, 60
2, 570153, Note_on_c, 0, 51, 64
2, 570158, Note_on_c, 0, 56, 51
2, 570159, Note_on_c, 0, 68, 56
2, 570165, Note_on_c, 0, 63, 62
2, 570212, Control_c, 0, 64, 127
2, 570225, Note_off_c, 0, 68, 64
2, 570233, Note_off_c, 0, 56, 64
2, 570301, Note_on_c, 0, 68, 44
2, 570314, Note_on_c, 0, 56, 44
2, 570360, Note_off_c, 0, 63, 64
2, 570375, Note_off_c, 0, 56, 64
2, 570393, Control_c, 0, 64, 0
2, 570404, Note_off_c, 0, 68, 64
2, 570440, Note_on_c, 0, 64, 61
2, 570454, Note_on_c, 0, 52, 64
2, 570454, Note_on_c, 0, 49, 64
2, 570459, Note_off_c, 0, 51, 64
2, 570466, Note_off_c, 0, 44, 64
2, 570466, Note_on_c, 0, 68, 57
2, 570466, Note_on_c, 0, 56, 48
2, 570508, Control_c, 0, 64, 127
2, 570528, Note_off_c, 0, 68, 64
2, 570557, Note_off_c, 0, 56, 64
2, 570612, Note_on_c, 0, 68, 50
2, 570618, Note_on_c, 0, 56, 51
2, 570694, Note_off_c, 0, 56, 64
2, 570716, Note_off_c, 0, 68, 64
2, 570742, Note_on_c, 0, 51, 69
2, 570746, Note_on_c, 0, 56, 54
2, 570751, Note_on_c, 0, 68, 60
2, 570752, Note_on_c, 0, 44, 64
2, 570756, Note_on_c, 0, 63, 62
2, 570760, Note_off_c, 0, 64, 64
2, 570764, Note_off_c, 0, 49, 64
2, 570777, Note_off_c, 0, 52, 64
2, 570814, Note_off_c, 0, 56, 64
2, 570822, Note_off_c, 0, 68, 64
2, 570907, Note_on_c, 0, 68, 45
2, 570911, Note_on_c, 0, 56, 52
2, 570917, Note_off_c, 0, 51, 64
2, 570931, Note_off_c, 0, 63, 64
2, 570934, Note_off_c, 0, 44, 64
2, 570973, Note_off_c, 0, 56, 64
2, 570978, Note_off_c, 0, 68, 64
2, 571004, Note_on_c, 0, 32, 88
2, 571067, Control_c, 0, 64, 0
2, 571107, Note_on_c, 0, 68, 60
2, 571107, Note_on_c, 0, 44, 82
2, 571113, Note_on_c, 0, 56, 60
2, 571117, Note_on_c, 0, 51, 89
2, 571121, Note_on_c, 0, 63, 60
2, 571184, Note_off_c, 0, 68, 64
2, 571193, Control_c, 0, 64, 127
2, 571204, Note_off_c, 0, 56, 64
2, 571260, Note_on_c, 0, 68, 48
2, 571271, Note_on_c, 0, 56, 59
2, 571298, Note_off_c, 0, 63, 64
2, 571320, Note_off_c, 0, 68, 64
2, 571343, Note_off_c, 0, 56, 64
2, 571420, Note_on_c, 0, 56, 53
2, 571423, Note_on_c, 0, 68, 54
2, 571491, Note_off_c, 0, 56, 64
2, 571513, Note_off_c, 0, 68, 64
2, 571574, Note_on_c, 0, 68, 63
2, 571575, Note_on_c, 0, 56, 63
2, 571645, Note_off_c, 0, 56, 64
2, 571655, Note_off_c, 0, 68, 64
2, 571730, Note_on_c, 0, 68, 66
2, 571733, Note_on_c, 0, 56, 68
2, 571772, Note_off_c, 0, 32, 64
2, 571799, Note_off_c, 0, 56, 64
2, 571805, Note_off_c, 0, 68, 64
2, 571882, Note_on_c, 0, 56, 69
2, 571884, Note_on_c, 0, 68, 69
2, 571945, Note_off_c, 0, 56, 64
2, 571958, Note_off_c, 0, 68, 64
2, 571996, Note_off_c, 0, 51, 64
2, 572010, Note_off_c, 0, 44, 64
2, 572048, Note_on_c, 0, 56, 72
2, 572051, Note_on_c, 0, 68, 62
2, 572109, Note_off_c, 0, 56, 64
2, 572111, Note_off_c, 0, 68, 64
2, 572184, Note_on_c, 0, 68, 51
2, 572186, Note_on_c, 0, 56, 66
2, 572230, Note_off_c, 0, 56, 64
2, 572232, Note_off_c, 0, 68, 64
2, 572332, Control_c, 0, 64, 0
2, 572351, Note_on_c, 0, 28, 4
2, 572352, Note_on_c, 0, 71, 93
2, 572352, Note_on_c, 0, 64, 91
2, 572358, Note_on_c, 0, 68, 88
2, 572358, Note_on_c, 0, 59, 90
2, 572363, Note_on_c, 0, 40, 98
2, 572427, Control_c, 0, 64, 127
2, 572437, Note_off_c, 0, 71, 64
2, 572455, Note_off_c, 0, 59, 64
2, 572532, Note_on_c, 0, 71, 81
2, 572534, Note_on_c, 0, 59, 75
2, 572582, Note_off_c, 0, 59, 64
2, 572593, Note_off_c, 0, 71, 64
2, 572683, Note_on_c, 0, 59, 70
2, 572699, Note_on_c, 0, 71, 51
2, 572737, Note_off_c, 0, 59, 64
2, 572761, Note_off_c, 0, 64, 64
2, 572763, Note_off_c, 0, 28, 64
2, 572767, Note_off_c, 0, 68, 64
2, 572775, Note_off_c, 0, 40, 64
2, 572776, Note_off_c, 0, 71, 64
2, 572828, Note_on_c, 0, 59, 80
2, 572832, Note_on_c, 0, 71, 76
2, 572889, Note_off_c, 0, 59, 64
2, 572892, Note_off_c, 0, 71, 64
2, 572988, Note_on_c, 0, 35, 81
2, 572996, Note_on_c, 0, 71, 93
2, 572996, Note_on_c, 0, 59, 87
2, 572996, Note_on_c, 0, 47, 90
2, 572997, Note_on_c, 0, 68, 88
2, 572997, Note_on_c, 0, 63, 91
2, 573061, Note_off_c, 0, 59, 64
2, 573072, Control_c, 0, 64, 0
2, 573073, Note_off_c, 0, 71, 64
2, 573168, Note_on_c, 0, 59, 96
2, 573176, Note_on_c, 0, 71, 76
2, 573183, Control_c, 0, 64, 127
2, 573221, Note_off_c, 0, 59, 64
2, 573236, Note_off_c, 0, 71, 64
2, 573312, Note_on_c, 0, 71, 76
2, 573312, Note_on_c, 0, 59, 87
2, 573368, Note_off_c, 0, 59, 64
2, 573372, Note_off_c, 0, 71, 64
2, 573456, Note_on_c, 0, 71, 76
2, 573457, Note_on_c, 0, 59, 87
2, 573513, Note_off_c, 0, 63, 64
2, 573513, Note_off_c, 0, 68, 64
2, 573516, Note_off_c, 0, 71, 64
2, 573518, Note_off_c, 0, 59, 64
2, 573541, Control_c, 0, 64, 0
2, 573564, Note_off_c, 0, 47, 64
2, 573591, Note_off_c, 0, 35, 64
2, 573608, Note_on_c, 0, 28, 64
2, 573609, Note_on_c, 0, 40, 93
2, 573620, Note_on_c, 0, 64, 91
2, 573624, Note_on_c, 0, 71, 91
2, 573624, Note_on_c, 0, 68, 87
2, 573624, Note_on_c, 0, 59, 93
2, 573666, Control_c, 0, 64, 127
2, 573689, Note_off_c, 0, 59, 64
2, 573701, Note_off_c, 0, 71, 64
2, 573784, Note_on_c, 0, 71, 76
2, 573785, Note_on_c, 0, 59, 73
2, 573835, Note_off_c, 0, 59, 64
2, 573844, Note_off_c, 0, 71, 64
2, 573940, Note_on_c, 0, 59, 70
2, 573944, Note_on_c, 0, 71, 76
2, 573994, Note_off_c, 0, 59, 64
2, 573999, Note_off_c, 0, 64, 64
2, 574003, Note_off_c, 0, 68, 64
2, 574004, Note_off_c, 0, 71, 64
2, 574074, Note_on_c, 0, 59, 87
2, 574080, Note_on_c, 0, 71, 76
2, 574130, Note_off_c, 0, 59, 64
2, 574140, Note_off_c, 0, 71, 64
2, 574167, Control_c, 0, 64, 0
2, 574216, Note_on_c, 0, 35, 70
2, 574218, Note_on_c, 0, 71, 92
2, 574224, Note_on_c, 0, 68, 98
2, 574224, Note_on_c, 0, 63, 105
2, 574224, Note_on_c, 0, 59, 96
2, 574224, Note_on_c, 0, 47, 72
2, 574234, Note_off_c, 0, 28, 64
2, 574235, Note_off_c, 0, 40, 64
2, 574241, Control_c, 0, 64, 127
2, 574265, Note_off_c, 0, 59, 64
2, 574295, Note_off_c, 0, 71, 64
2, 574374, Note_on_c, 0, 59, 96
2, 574376, Note_on_c, 0, 71, 76
2, 574419, Note_off_c, 0, 59, 64
2, 574436, Note_off_c, 0, 71, 64
2, 574520, Note_on_c, 0, 71, 76
2, 574520, Note_on_c, 0, 59, 96
2, 574581, Note_off_c, 0, 63, 64
2, 574581, Note_off_c, 0, 68, 64
2, 574597, Note_off_c, 0, 59, 64
2, 574597, Note_off_c, 0, 71, 64
2, 574598, Control_c, 0, 64, 0
2, 574603, Note_off_c, 0, 35, 64
2, 574611, Note_off_c, 0, 47, 64
2, 574631, Control_c, 0, 64, 127
2, 574640, Note_on_c, 0, 71, 76
2, 574648, Note_on_c, 0, 46, 96
2, 574656, Note_on_c, 0, 59, 96
2, 574656, Note_on_c, 0, 34, 74
2, 574714, Control_c, 0, 64, 0
2, 574717, Note_off_c, 0, 71, 64
2, 574733, Note_off_c, 0, 59, 64
2, 574768, Note_off_c, 0, 46, 64
2, 574776, Note_off_c, 0, 34, 64
2, 574792, Note_on_c, 0, 44, 72
2, 574792, Note_on_c, 0, 32, 82
2, 574805, Control_c, 0, 64, 127
2, 574808, Note_on_c, 0, 71, 96
2, 574808, Note_on_c, 0, 68, 93
2, 574808, Note_on_c, 0, 63, 96
2, 574808, Note_on_c, 0, 59, 91
2, 574885, Note_off_c, 0, 71, 64
2, 574907, Note_off_c, 0, 59, 64
2, 574944, Note_on_c, 0, 71, 76
2, 574944, Note_on_c, 0, 59, 88
2, 575004, Note_off_c, 0, 71, 64
2, 575021, Note_off_c, 0, 59, 64
2, 575097, Note_on_c, 0, 59, 92
2, 575104, Note_on_c, 0, 71, 76
2, 575138, Note_off_c, 0, 59, 64
2, 575164, Note_off_c, 0, 71, 64
2, 575224, Note_on_c, 0, 71, 76
2, 575226, Note_on_c, 0, 59, 78
2, 575241, Note_off_c, 0, 68, 64
2, 575246, Note_off_c, 0, 63, 64
2, 575284, Note_off_c, 0, 71, 64
2, 575287, Note_off_c, 0, 59, 64
2, 575310, Control_c, 0, 64, 0
2, 575391, Note_off_c, 0, 32, 64
2, 575391, Note_off_c, 0, 44, 64
2, 575400, Note_on_c, 0, 71, 93
2, 575401, Note_on_c, 0, 67, 90
2, 575401, Note_on_c, 0, 63, 90
2, 575401, Note_on_c, 0, 59, 88
2, 575403, Note_on_c, 0, 39, 96
2, 575412, Note_on_c, 0, 51, 103
2, 575426, Control_c, 0, 64, 127
2, 575452, Note_off_c, 0, 59, 64
2, 575477, Note_off_c, 0, 71, 64
2, 575566, Note_on_c, 0, 59, 79
2, 575568, Note_on_c, 0, 71, 81
2, 575615, Note_off_c, 0, 59, 64
2, 575645, Note_off_c, 0, 71, 64
2, 575726, Note_on_c, 0, 59, 81
2, 575728, Note_on_c, 0, 71, 76
2, 575778, Note_off_c, 0, 59, 64
2, 575788, Note_off_c, 0, 71, 64
2, 575844, Note_off_c, 0, 67, 64
2, 575846, Note_off_c, 0, 63, 64
2, 575872, Note_on_c, 0, 71, 76
2, 575878, Note_on_c, 0, 59, 84
2, 575928, Note_off_c, 0, 59, 64
2, 575932, Note_off_c, 0, 71, 64
2, 575998, Control_c, 0, 64, 0
2, 576036, Note_off_c, 0, 51, 64
2, 576052, Note_on_c, 0, 71, 91
2, 576052, Note_on_c, 0, 68, 87
2, 576052, Note_on_c, 0, 63, 91
2, 576059, Note_on_c, 0, 44, 96
2, 576060, Note_on_c, 0, 59, 93
2, 576065, Note_off_c, 0, 39, 64
2, 576082, Control_c, 0, 64, 127
2, 576175, Note_off_c, 0, 68, 64
2, 576180, Note_off_c, 0, 44, 64
2, 576226, Note_on_c, 0, 68, 74
2, 576271, Note_off_c, 0, 71, 64
2, 576279, Note_off_c, 0, 59, 64
2, 576293, Note_off_c, 0, 63, 64
2, 576352, Note_off_c, 0, 68, 64
2, 576386, Note_on_c, 0, 68, 70
2, 576495, Note_off_c, 0, 68, 64
2, 576542, Note_on_c, 0, 68, 75
2, 576642, Note_off_c, 0, 68, 64
2, 576712, Note_on_c, 0, 68, 66
2, 576801, Note_off_c, 0, 68, 64
2, 576874, Note_on_c, 0, 68, 70
2, 576950, Note_off_c, 0, 68, 64
2, 577032, Note_on_c, 0, 68, 70
2, 577108, Note_off_c, 0, 68, 64
2, 577178, Note_on_c, 0, 68, 69
2, 577252, Note_off_c, 0, 68, 64
2, 577339, Control_c, 0, 64, 0
2, 577368, Note_on_c, 0, 68, 54
2, 577373, Note_on_c, 0, 44, 54
2, 577377, Note_on_c, 0, 54, 48
2, 577377, Note_on_c, 0, 42, 45
2, 577382, Note_on_c, 0, 72, 60
2, 577386, Note_on_c, 0, 60, 46
2, 577423, Control_c, 0, 64, 127
2, 577495, Note_off_c, 0, 68, 64
2, 577563, Note_on_c, 0, 68, 36
2, 577622, Note_off_c, 0, 68, 64
2, 577713, Note_on_c, 0, 68, 62
2, 577785, Note_off_c, 0, 68, 64
2, 577860, Note_on_c, 0, 68, 68
2, 577925, Note_off_c, 0, 68, 64
2, 577995, Control_c, 0, 64, 0
2, 578007, Note_off_c, 0, 42, 64
2, 578007, Note_off_c, 0, 54, 64
2, 578012, Note_off_c, 0, 72, 64
2, 578016, Note_off_c, 0, 60, 64
2, 578033, Note_on_c, 0, 73, 74
2, 578033, Note_on_c, 0, 68, 71
2, 578037, Note_on_c, 0, 61, 62
2, 578042, Note_on_c, 0, 40, 40
2, 578047, Note_on_c, 0, 52, 44
2, 578074, Control_c, 0, 64, 127
2, 578133, Note_off_c, 0, 68, 64
2, 578202, Note_on_c, 0, 68, 71
2, 578259, Note_off_c, 0, 68, 64
2, 578342, Note_off_c, 0, 40, 64
2, 578347, Note_off_c, 0, 52, 64
2, 578360, Note_on_c, 0, 49, 65
2, 578364, Note_on_c, 0, 68, 73
2, 578364, Note_on_c, 0, 37, 64
2, 578379, Note_off_c, 0, 44, 64
2, 578439, Note_off_c, 0, 68, 64
2, 578516, Note_on_c, 0, 68, 69
2, 578579, Note_off_c, 0, 68, 64
2, 578697, Control_c, 0, 64, 0
2, 578713, Note_off_c, 0, 73, 64
2, 578717, Note_off_c, 0, 61, 64
2, 578731, Note_on_c, 0, 44, 69
2, 578736, Note_on_c, 0, 68, 74
2, 578740, Note_on_c, 0, 75, 71
2, 578740, Note_on_c, 0, 73, 72
2, 578740, Note_on_c, 0, 63, 56
2, 578750, Note_off_c, 0, 49, 64
2, 578754, Note_off_c, 0, 37, 64
2, 578802, Control_c, 0, 64, 127
2, 578859, Note_off_c, 0, 68, 64
2, 578933, Note_on_c, 0, 68, 59
2, 578977, Note_off_c, 0, 68, 64
2, 579092, Note_on_c, 0, 68, 80
2, 579120, Note_off_c, 0, 68, 64
2, 579244, Note_on_c, 0, 68, 81
2, 579281, Note_off_c, 0, 68, 64
2, 579399, Note_on_c, 0, 68, 86
2, 579441, Note_off_c, 0, 68, 64
2, 579509, Note_off_c, 0, 44, 64
2, 579559, Note_off_c, 0, 73, 64
2, 579561, Note_on_c, 0, 68, 80
2, 579590, Note_off_c, 0, 75, 64
2, 579604, Note_off_c, 0, 63, 64
2, 579619, Note_off_c, 0, 68, 64
2, 579743, Control_c, 0, 64, 0
2, 579752, Note_on_c, 0, 72, 73
2, 579752, Note_on_c, 0, 56, 63
2, 579752, Note_on_c, 0, 44, 46
2, 579757, Note_on_c, 0, 75, 72
2, 579758, Note_on_c, 0, 68, 71
2, 579758, Note_on_c, 0, 63, 62
2, 579786, Control_c, 0, 64, 127
2, 579828, Note_off_c, 0, 68, 64
2, 579939, Note_on_c, 0, 68, 78
2, 580014, Note_off_c, 0, 68, 64
2, 580027, Note_off_c, 0, 44, 64
2, 580027, Note_off_c, 0, 56, 64
2, 580027, Note_off_c, 0, 72, 64
2, 580032, Note_off_c, 0, 75, 64
2, 580033, Note_off_c, 0, 63, 64
2, 580066, Control_c, 0, 64, 0
2, 580112, Note_on_c, 0, 56, 65
2, 580121, Note_on_c, 0, 76, 69
2, 580121, Note_on_c, 0, 75, 84
2, 580121, Note_on_c, 0, 68, 66
2, 580123, Note_on_c, 0, 64, 65
2, 580123, Note_on_c, 0, 49, 62
2, 580159, Control_c, 0, 64, 127
2, 580211, Note_off_c, 0, 68, 64
2, 580270, Note_on_c, 0, 68, 65
2, 580318, Note_off_c, 0, 75, 64
2, 580325, Note_off_c, 0, 76, 64
2, 580327, Note_off_c, 0, 64, 64
2, 580340, Note_off_c, 0, 68, 64
2, 580423, Note_on_c, 0, 73, 61
2, 580424, Note_on_c, 0, 68, 60
2, 580431, Note_on_c, 0, 76, 72
2, 580431, Note_on_c, 0, 64, 65
2, 580501, Note_off_c, 0, 68, 64
2, 580572, Note_off_c, 0, 73, 64
2, 580580, Note_off_c, 0, 64, 64
2, 580584, Note_on_c, 0, 68, 71
2, 580585, Note_off_c, 0, 76, 64
2, 580651, Note_off_c, 0, 68, 64
2, 580690, Control_c, 0, 64, 0
2, 580709, Note_off_c, 0, 56, 64
2, 580736, Note_on_c, 0, 68, 33
2, 580739, Note_off_c, 0, 49, 64
2, 580744, Note_on_c, 0, 44, 66
2, 580746, Note_on_c, 0, 75, 67
2, 580746, Note_on_c, 0, 73, 76
2, 580750, Note_on_c, 0, 63, 76
2, 580750, Note_on_c, 0, 56, 60
2, 580780, Control_c, 0, 64, 127
2, 580813, Note_off_c, 0, 68, 64
2, 580901, Note_on_c, 0, 68, 69
2, 580940, Note_off_c, 0, 73, 64
2, 580941, Note_off_c, 0, 75, 64
2, 580953, Note_off_c, 0, 63, 64
2, 580961, Note_off_c, 0, 68, 64
2, 581048, Note_on_c, 0, 72, 71
2, 581051, Note_on_c, 0, 75, 73
2, 581054, Note_on_c, 0, 63, 71
2, 581060, Note_on_c, 0, 68, 74
2, 581118, Note_off_c, 0, 68, 64
2, 581196, Note_off_c, 0, 72, 64
2, 581200, Note_on_c, 0, 68, 64
2, 581202, Note_off_c, 0, 63, 64
2, 581212, Note_off_c, 0, 75, 64
2, 581257, Note_off_c, 0, 44, 64
2, 581263, Note_off_c, 0, 56, 64
2, 581277, Note_off_c, 0, 68, 64
2, 581370, Control_c, 0, 64, 0
2, 581385, Note_on_c, 0, 61, 63
2, 581390, Note_on_c, 0, 73, 73
2, 581392, Note_on_c, 0, 68, 75
2, 581397, Note_on_c, 0, 45, 60
2, 581400, Note_on_c, 0, 57, 61
2, 581451, Control_c, 0, 64, 127
2, 581495, Note_off_c, 0, 68, 64
2, 581552, Note_on_c, 0, 68, 63
2, 581617, Note_off_c, 0, 68, 64
2, 581724, Note_on_c, 0, 66, 70
2, 581801, Note_off_c, 0, 66, 64
2, 581883, Note_on_c, 0, 66, 40
2, 581922, Note_off_c, 0, 45, 64
2, 581933, Note_off_c, 0, 57, 64
2, 581979, Note_off_c, 0, 66, 64
2, 582040, Note_on_c, 0, 68, 49
2, 582040, Note_on_c, 0, 56, 47
2, 582040, Note_on_c, 0, 44, 28
2, 582103, Note_off_c, 0, 68, 64
2, 582192, Note_on_c, 0, 68, 62
2, 582245, Note_off_c, 0, 73, 64
2, 582280, Note_off_c, 0, 44, 64
2, 582280, Note_off_c, 0, 56, 64
2, 582286, Note_off_c, 0, 68, 64
2, 582367, Note_on_c, 0, 42, 52
2, 582370, Note_on_c, 0, 54, 44
2, 582375, Note_on_c, 0, 69, 66
2, 582452, Note_off_c, 0, 69, 64
2, 582532, Note_on_c, 0, 69, 68
2, 582565, Note_off_c, 0, 61, 64
2, 582609, Note_off_c, 0, 69, 64
2, 582720, Note_on_c, 0, 44, 58
2, 582724, Note_on_c, 0, 68, 57
2, 582724, Note_on_c, 0, 63, 62
2, 582724, Note_on_c, 0, 60, 50
2, 582728, Note_on_c, 0, 56, 44
2, 582733, Note_off_c, 0, 42, 64
2, 582736, Note_off_c, 0, 54, 64
2, 582763, Control_c, 0, 64, 0
2, 582848, Note_off_c, 0, 56, 64
2, 582861, Control_c, 0, 64, 127
2, 582918, Note_on_c, 0, 56, 60
2, 582978, Note_off_c, 0, 56, 64
2, 583078, Note_on_c, 0, 56, 62
2, 583130, Note_off_c, 0, 56, 64
2, 583224, Note_on_c, 0, 56, 56
2, 583255, Note_off_c, 0, 60, 64
2, 583255, Note_off_c, 0, 63, 64
2, 583255, Note_off_c, 0, 68, 64
2, 583271, Note_off_c, 0, 44, 64
2, 583284, Note_off_c, 0, 56, 64
2, 583367, Control_c, 0, 64, 0
2, 583379, Note_on_c, 0, 56, 44
2, 583385, Note_on_c, 0, 49, 48
2, 583385, Note_on_c, 0, 37, 45
2, 583392, Note_on_c, 0, 68, 50
2, 583392, Note_on_c, 0, 64, 47
2, 583392, Note_on_c, 0, 61, 58
2, 583451, Control_c, 0, 64, 127
2, 583480, Note_off_c, 0, 56, 64
2, 583549, Note_on_c, 0, 56, 41
2, 583629, Note_off_c, 0, 56, 64
2, 583702, Note_off_c, 0, 61, 64
2, 583702, Note_off_c, 0, 64, 64
2, 583719, Note_on_c, 0, 56, 44
2, 583722, Note_on_c, 0, 61, 56
2, 583722, Note_on_c, 0, 58, 65
2, 583797, Note_off_c, 0, 56, 64
2, 583880, Note_on_c, 0, 56, 54
2, 583947, Note_off_c, 0, 56, 64
2, 583961, Note_off_c, 0, 68, 64
2, 583981, Control_c, 0, 64, 0
2, 584000, Note_off_c, 0, 49, 64
2, 584032, Note_off_c, 0, 58, 64
2, 584032, Note_off_c, 0, 61, 64
2, 584040, Note_on_c, 0, 68, 48
2, 584040, Note_on_c, 0, 60, 64
2, 584043, Note_on_c, 0, 63, 63
2, 584048, Note_on_c, 0, 56, 48
2, 584048, Note_on_c, 0, 44, 52
2, 584048, Note_on_c, 0, 32, 48
2, 584068, Note_off_c, 0, 37, 64
2, 584084, Control_c, 0, 64, 127
2, 584139, Note_off_c, 0, 56, 64
2, 584196, Note_on_c, 0, 56, 64
2, 584265, Note_off_c, 0, 56, 64
2, 584265, Note_off_c, 0, 68, 64
2, 584281, Note_off_c, 0, 32, 64
2, 584281, Note_off_c, 0, 44, 64
2, 584350, Note_off_c, 0, 60, 64
2, 584353, Note_off_c, 0, 63, 64
2, 584363, Note_on_c, 0, 56, 50
2, 584365, Note_on_c, 0, 68, 52
2, 584366, Note_on_c, 0, 61, 66
2, 584371, Note_on_c, 0, 44, 46
2, 584376, Note_on_c, 0, 64, 66
2, 584376, Note_on_c, 0, 37, 48
2, 584376, Control_c, 0, 64, 0
2, 584461, Note_off_c, 0, 56, 64
2, 584538, Note_on_c, 0, 56, 56
2, 584608, Note_off_c, 0, 56, 64
2, 584676, Note_off_c, 0, 61, 64
2, 584686, Note_off_c, 0, 64, 64
2, 584688, Note_on_c, 0, 61, 44
2, 584689, Note_on_c, 0, 58, 60
2, 584689, Note_on_c, 0, 56, 48
2, 584767, Note_off_c, 0, 56, 64
2, 584832, Note_on_c, 0, 56, 49
2, 584913, Note_off_c, 0, 56, 64
2, 584954, Note_off_c, 0, 68, 64
2, 584978, Note_off_c, 0, 61, 64
2, 584987, Note_on_c, 0, 56, 39
2, 584988, Note_on_c, 0, 64, 64
2, 584988, Note_on_c, 0, 61, 65
2, 584991, Note_on_c, 0, 68, 29
2, 584994, Note_off_c, 0, 58, 64
2, 585059, Note_off_c, 0, 56, 64
2, 585142, Note_on_c, 0, 56, 48
2, 585220, Note_off_c, 0, 37, 64
2, 585224, Note_off_c, 0, 56, 64
2, 585233, Note_off_c, 0, 44, 64
2, 585239, Note_off_c, 0, 68, 64
2, 585278, Note_off_c, 0, 61, 64
2, 585278, Note_off_c, 0, 64, 64
2, 585293, Note_on_c, 0, 68, 24
2, 585293, Note_on_c, 0, 61, 64
2, 585298, Note_on_c, 0, 44, 34
2, 585303, Note_on_c, 0, 64, 65
2, 585303, Note_on_c, 0, 56, 25
2, 585311, Note_on_c, 0, 37, 30
2, 585346, Note_off_c, 0, 56, 64
2, 585452, Note_on_c, 0, 56, 49
2, 585539, Note_off_c, 0, 56, 64
2, 585603, Note_off_c, 0, 61, 64
2, 585613, Note_off_c, 0, 64, 64
2, 585620, Note_on_c, 0, 56, 52
2, 585625, Note_on_c, 0, 63, 70
2, 585628, Note_off_c, 0, 44, 64
2, 585629, Note_on_c, 0, 60, 71
2, 585641, Note_off_c, 0, 37, 64
2, 585644, Note_on_c, 0, 32, 48
2, 585648, Note_on_c, 0, 44, 60
2, 585715, Note_off_c, 0, 56, 64
2, 585785, Note_on_c, 0, 56, 59
2, 585910, Note_off_c, 0, 56, 64
2, 585935, Note_off_c, 0, 63, 64
2, 585936, Note_on_c, 0, 63, 66
2, 585936, Note_on_c, 0, 56, 46
2, 585939, Note_off_c, 0, 60, 64
2, 585945, Note_on_c, 0, 66, 50
2, 586001, Note_off_c, 0, 56, 64
2, 586101, Note_on_c, 0, 56, 49
2, 586151, Note_off_c, 0, 68, 64
2, 586160, Control_c, 0, 64, 127
2, 586202, Control_c, 0, 64, 0
2, 586214, Note_off_c, 0, 56, 64
2, 586231, Note_off_c, 0, 32, 64
2, 586235, Note_off_c, 0, 44, 64
2, 586246, Note_off_c, 0, 63, 64
2, 586248, Note_on_c, 0, 61, 65
2, 586255, Note_off_c, 0, 66, 64
2, 586256, Note_on_c, 0, 64, 62
2, 586261, Note_on_c, 0, 68, 46
2, 586268, Note_on_c, 0, 56, 46
2, 586277, Note_on_c, 0, 44, 48
2, 586277, Note_on_c, 0, 37, 40
2, 586361, Note_off_c, 0, 56, 64
2, 586443, Note_on_c, 0, 56, 54
2, 586543, Note_off_c, 0, 68, 64
2, 586568, Note_off_c, 0, 56, 64
2, 586608, Note_off_c, 0, 61, 64
2, 586612, Note_off_c, 0, 37, 64
2, 586612, Note_off_c, 0, 44, 64
2, 586616, Note_off_c, 0, 64, 64
2, 586627, Note_on_c, 0, 44, 49
2, 586631, Note_on_c, 0, 32, 48
2, 586635, Note_on_c, 0, 56, 51
2, 586636, Note_on_c, 0, 68, 51
2, 586636, Note_on_c, 0, 63, 62
2, 586646, Note_on_c, 0, 60, 68
2, 586703, Control_c, 0, 64, 127
2, 586740, Note_off_c, 0, 56, 64
2, 586823, Note_on_c, 0, 56, 60
2, 586899, Note_off_c, 0, 56, 64
2, 586946, Note_off_c, 0, 63, 64
2, 586956, Note_off_c, 0, 60, 64
2, 586980, Note_on_c, 0, 56, 64
2, 587046, Note_off_c, 0, 56, 64
2, 587130, Note_on_c, 0, 56, 60
2, 587188, Note_off_c, 0, 56, 64
2, 587290, Note_on_c, 0, 56, 51
2, 587352, Note_off_c, 0, 56, 64
2, 587442, Note_on_c, 0, 56, 52
2, 587501, Note_off_c, 0, 56, 64
2, 587593, Note_on_c, 0, 56, 48
2, 587641, Note_off_c, 0, 56, 64
2, 587691, Note_off_c, 0, 44, 64
2, 587695, Note_off_c, 0, 32, 64
2, 587728, Note_on_c, 0, 56, 52
2, 587781, Note_off_c, 0, 68, 64
2, 587783, Note_off_c, 0, 56, 64
2, 587857, Note_on_c, 0, 42, 59
2, 587858, Note_on_c, 0, 54, 66
2, 587864, Note_on_c, 0, 63, 65
2, 587864, Note_on_c, 0, 44, 75
2, 587866, Note_on_c, 0, 72, 86
2, 587866, Note_on_c, 0, 68, 69
2, 587866, Note_on_c, 0, 60, 63
2, 587872, Control_c, 0, 64, 0
2, 587940, Note_off_c, 0, 44, 64
2, 587944, Control_c, 0, 64, 127
2, 587988, Note_off_c, 0, 68, 64
2, 588032, Note_on_c, 0, 44, 71
2, 588036, Note_on_c, 0, 68, 71
2, 588098, Note_off_c, 0, 44, 64
2, 588111, Note_off_c, 0, 68, 64
2, 588188, Note_on_c, 0, 44, 73
2, 588199, Note_on_c, 0, 68, 36
2, 588256, Note_off_c, 0, 44, 64
2, 588259, Note_off_c, 0, 68, 64
2, 588338, Note_on_c, 0, 68, 47
2, 588342, Note_on_c, 0, 44, 93
2, 588403, Note_off_c, 0, 68, 64
2, 588419, Note_off_c, 0, 44, 64
2, 588478, Control_c, 0, 64, 0
2, 588487, Note_off_c, 0, 42, 64
2, 588488, Note_off_c, 0, 54, 64
2, 588494, Note_off_c, 0, 63, 64
2, 588496, Note_off_c, 0, 60, 64
2, 588496, Note_off_c, 0, 72, 64
2, 588512, Note_on_c, 0, 52, 77
2, 588517, Note_on_c, 0, 68, 71
2, 588517, Note_on_c, 0, 61, 65
2, 588517, Note_on_c, 0, 40, 77
2, 588519, Note_on_c, 0, 73, 76
2, 588562, Control_c, 0, 64, 127
2, 588606, Note_off_c, 0, 68, 64
2, 588686, Note_on_c, 0, 68, 70
2, 588751, Note_off_c, 0, 68, 64
2, 588802, Note_off_c, 0, 52, 64
2, 588807, Note_off_c, 0, 40, 64
2, 588846, Note_on_c, 0, 49, 74
2, 588846, Note_on_c, 0, 37, 78
2, 588847, Note_on_c, 0, 68, 67
2, 588917, Note_off_c, 0, 68, 64
2, 589002, Note_on_c, 0, 68, 68
2, 589061, Note_off_c, 0, 68, 64
2, 589136, Note_off_c, 0, 37, 64
2, 589136, Note_off_c, 0, 49, 64
2, 589167, Note_off_c, 0, 61, 64
2, 589169, Note_off_c, 0, 73, 64
2, 589192, Note_on_c, 0, 73, 75
2, 589192, Note_on_c, 0, 44, 48
2, 589193, Note_on_c, 0, 75, 74
2, 589202, Note_on_c, 0, 63, 81
2, 589203, Note_on_c, 0, 32, 91
2, 589210, Note_on_c, 0, 68, 73
2, 589273, Note_off_c, 0, 68, 64
2, 589371, Note_on_c, 0, 68, 82
2, 589422, Note_off_c, 0, 68, 64
2, 589514, Note_on_c, 0, 68, 88
2, 589561, Note_off_c, 0, 68, 64
2, 589676, Note_on_c, 0, 68, 92
2, 589686, Note_off_c, 0, 73, 64
2, 589726, Note_off_c, 0, 68, 64
2, 589824, Note_on_c, 0, 68, 84
2, 589874, Note_off_c, 0, 68, 64
2, 589976, Note_on_c, 0, 68, 45
2, 589999, Note_off_c, 0, 63, 64
2, 590016, Note_off_c, 0, 75, 64
2, 590032, Note_off_c, 0, 68, 64
2, 590152, Note_on_c, 0, 72, 77
2, 590152, Note_on_c, 0, 68, 64
2, 590152, Note_on_c, 0, 63, 75
2, 590160, Note_on_c, 0, 75, 75
2, 590212, Note_off_c, 0, 68, 64
2, 590221, Note_off_c, 0, 63, 64
2, 590312, Note_on_c, 0, 63, 68
2, 590323, Note_on_c, 0, 68, 44
2, 590338, Note_off_c, 0, 32, 64
2, 590360, Note_off_c, 0, 68, 64
2, 590381, Note_off_c, 0, 72, 64
2, 590389, Note_off_c, 0, 75, 64
2, 590400, Note_off_c, 0, 63, 64
2, 590402, Note_off_c, 0, 44, 64
2, 590463, Control_c, 0, 64, 0
2, 590477, Note_on_c, 0, 44, 72
2, 590477, Note_on_c, 0, 37, 69
2, 590478, Note_on_c, 0, 76, 75
2, 590478, Note_on_c, 0, 75, 74
2, 590486, Note_on_c, 0, 64, 74
2, 590487, Note_on_c, 0, 68, 73
2, 590557, Control_c, 0, 64, 127
2, 590564, Note_off_c, 0, 68, 64
2, 590643, Note_on_c, 0, 68, 71
2, 590683, Note_off_c, 0, 64, 64
2, 590695, Note_off_c, 0, 75, 64
2, 590695, Note_off_c, 0, 76, 64
2, 590720, Note_off_c, 0, 68, 64
2, 590797, Note_off_c, 0, 37, 64
2, 590798, Note_on_c, 0, 76, 73
2, 590804, Note_on_c, 0, 73, 76
2, 590804, Note_on_c, 0, 68, 73
2, 590804, Note_on_c, 0, 64, 73
2, 590824, Note_off_c, 0, 44, 64
2, 590856, Note_off_c, 0, 68, 64
2, 590952, Note_on_c, 0, 68, 68
2, 590968, Note_off_c, 0, 76, 64
2, 590974, Note_off_c, 0, 64, 64
2, 590974, Note_off_c, 0, 73, 64
2, 591014, Note_off_c, 0, 68, 64
2, 591112, Note_on_c, 0, 75, 72
2, 591118, Note_on_c, 0, 73, 76
2, 591123, Note_on_c, 0, 63, 75
2, 591123, Note_on_c, 0, 56, 67
2, 591124, Note_on_c, 0, 68, 69
2, 591131, Note_on_c, 0, 44, 64
2, 591187, Note_off_c, 0, 68, 64
2, 591279, Note_on_c, 0, 68, 67
2, 591317, Note_off_c, 0, 63, 64
2, 591320, Note_off_c, 0, 75, 64
2, 591326, Note_off_c, 0, 68, 64
2, 591326, Note_off_c, 0, 73, 64
2, 591432, Note_on_c, 0, 75, 71
2, 591432, Note_on_c, 0, 72, 73
2, 591432, Note_on_c, 0, 68, 72
2, 591432, Note_on_c, 0, 63, 68
2, 591504, Note_off_c, 0, 68, 64
2, 591522, Note_off_c, 0, 44, 64
2, 591526, Note_off_c, 0, 56, 64
2, 591575, Note_off_c, 0, 72, 64
2, 591598, Note_off_c, 0, 63, 64
2, 591598, Note_off_c, 0, 75, 64
2, 591616, Note_on_c, 0, 68, 57
2, 591693, Note_off_c, 0, 68, 64
2, 591777, Control_c, 0, 64, 0
2, 591814, Note_on_c, 0, 73, 76
2, 591816, Note_on_c, 0, 71, 88
2, 591817, Note_on_c, 0, 41, 84
2, 591818, Note_on_c, 0, 68, 88
2, 591818, Note_on_c, 0, 61, 88
2, 591826, Note_on_c, 0, 53, 81
2, 591869, Control_c, 0, 64, 127
2, 591905, Note_off_c, 0, 61, 64
2, 592011, Note_on_c, 0, 61, 59
2, 592057, Note_off_c, 0, 61, 64
2, 592178, Note_on_c, 0, 61, 66
2, 592226, Note_off_c, 0, 68, 64
2, 592231, Note_off_c, 0, 61, 64
2, 592339, Note_on_c, 0, 61, 58
2, 592386, Note_off_c, 0, 71, 64
2, 592413, Note_off_c, 0, 41, 64
2, 592415, Note_off_c, 0, 53, 64
2, 592420, Note_off_c, 0, 61, 64
2, 592422, Note_off_c, 0, 73, 64
2, 592518, Control_c, 0, 64, 0
2, 592526, Note_on_c, 0, 42, 64
2, 592528, Note_on_c, 0, 61, 68
2, 592536, Note_on_c, 0, 73, 71
2, 592536, Note_on_c, 0, 68, 75
2, 592536, Note_on_c, 0, 54, 80
2, 592542, Note_on_c, 0, 71, 69
2, 592602, Control_c, 0, 64, 127
2, 592620, Note_off_c, 0, 61, 64
2, 592701, Note_on_c, 0, 61, 75
2, 592776, Note_off_c, 0, 68, 64
2, 592776, Note_off_c, 0, 73, 64
2, 592782, Note_off_c, 0, 71, 64
2, 592783, Note_off_c, 0, 61, 64
2, 592848, Note_on_c, 0, 66, 75
2, 592856, Note_on_c, 0, 69, 69
2, 592858, Note_on_c, 0, 61, 72
2, 592860, Note_on_c, 0, 73, 69
2, 592918, Note_off_c, 0, 61, 64
2, 592920, Note_off_c, 0, 54, 64
2, 592951, Note_off_c, 0, 42, 64
2, 593010, Note_off_c, 0, 66, 64
2, 593018, Note_off_c, 0, 69, 64
2, 593026, Note_off_c, 0, 73, 64
2, 593034, Note_on_c, 0, 61, 77
2, 593092, Note_off_c, 0, 61, 64
2, 593208, Control_c, 0, 64, 0
2, 593229, Note_on_c, 0, 68, 71
2, 593229, Note_on_c, 0, 56, 80
2, 593233, Note_on_c, 0, 66, 80
2, 593233, Note_on_c, 0, 63, 85
2, 593240, Note_on_c, 0, 36, 72
2, 593244, Note_on_c, 0, 48, 73
2, 593292, Control_c, 0, 64, 127
2, 593305, Note_off_c, 0, 56, 64
2, 593405, Note_on_c, 0, 56, 78
2, 593469, Note_off_c, 0, 56, 64
2, 593564, Note_on_c, 0, 56, 80
2, 593623, Note_off_c, 0, 56, 64
2, 593631, Note_off_c, 0, 63, 64
2, 593640, Note_off_c, 0, 66, 64
2, 593728, Note_on_c, 0, 56, 74
2, 593760, Note_off_c, 0, 36, 64
2, 593766, Note_off_c, 0, 48, 64
2, 593795, Note_off_c, 0, 56, 64
2, 593798, Note_off_c, 0, 68, 64
2, 593841, Control_c, 0, 64, 0
2, 593890, Note_on_c, 0, 37, 64
2, 593895, Note_on_c, 0, 68, 64
2, 593895, Note_on_c, 0, 56, 63
2, 593900, Note_on_c, 0, 49, 64
2, 593901, Note_on_c, 0, 66, 57
2, 593901, Note_on_c, 0, 61, 68
2, 593931, Control_c, 0, 64, 127
2, 593993, Note_off_c, 0, 56, 64
2, 594070, Note_on_c, 0, 56, 61
2, 594078, Note_off_c, 0, 61, 64
2, 594098, Note_off_c, 0, 68, 64
2, 594115, Note_off_c, 0, 66, 64
2, 594143, Note_off_c, 0, 56, 64
2, 594236, Note_on_c, 0, 70, 61
2, 594236, Note_on_c, 0, 56, 54
2, 594241, Note_on_c, 0, 61, 61
2, 594245, Note_on_c, 0, 64, 59
2, 594325, Note_off_c, 0, 56, 64
2, 594363, Note_off_c, 0, 61, 64
2, 594380, Note_off_c, 0, 64, 64
2, 594408, Note_on_c, 0, 56, 66
2, 594441, Note_off_c, 0, 49, 64
2, 594491, Note_off_c, 0, 56, 64
2, 594543, Note_off_c, 0, 70, 64
2, 594563, Control_c, 0, 64, 0
2, 594576, Note_off_c, 0, 37, 64
2, 594587, Note_on_c, 0, 44, 65
2, 594592, Note_on_c, 0, 70, 64
2, 594592, Note_on_c, 0, 56, 64
2, 594592, Note_on_c, 0, 32, 56
2, 594599, Note_on_c, 0, 61, 64
2, 594601, Note_on_c, 0, 64, 64
2, 594660, Control_c, 0, 64, 127
2, 594670, Note_off_c, 0, 56, 64
2, 594771, Note_on_c, 0, 56, 69
2, 594824, Note_off_c, 0, 56, 64
2, 594827, Note_off_c, 0, 61, 64
2, 594914, Note_on_c, 0, 56, 67
2, 594925, Note_on_c, 0, 61, 30
2, 594979, Note_off_c, 0, 56, 64
2, 595006, Note_off_c, 0, 61, 64
2, 595073, Note_off_c, 0, 64, 64
2, 595078, Note_off_c, 0, 70, 64
2, 595084, Note_on_c, 0, 56, 61
2, 595164, Note_off_c, 0, 56, 64
2, 595232, Note_on_c, 0, 60, 59
2, 595240, Note_on_c, 0, 63, 50
2, 595240, Note_on_c, 0, 56, 53
2, 595247, Note_on_c, 0, 68, 55
2, 595318, Note_off_c, 0, 56, 64
2, 595414, Note_on_c, 0, 56, 58
2, 595448, Note_off_c, 0, 60, 64
2, 595456, Note_off_c, 0, 63, 64
2, 595463, Note_off_c, 0, 68, 64
2, 595489, Note_off_c, 0, 56, 64
2, 595499, Note_off_c, 0, 44, 64
2, 595504, Note_off_c, 0, 32, 64
2, 595581, Note_on_c, 0, 44, 48
2, 595582, Note_on_c, 0, 56, 53
2, 595584, Note_on_c, 0, 64, 53
2, 595586, Note_on_c, 0, 70, 56
2, 595587, Note_on_c, 0, 61, 55
2, 595592, Note_on_c, 0, 37, 50
2, 595665, Note_off_c, 0, 56, 64
2, 595757, Note_on_c, 0, 56, 58
2, 595855, Note_off_c, 0, 56, 64
2, 595872, Note_off_c, 0, 44, 64
2, 595883, Note_off_c, 0, 37, 64
2, 595892, Note_off_c, 0, 64, 64
2, 595894, Note_off_c, 0, 70, 64
2, 595895, Note_off_c, 0, 61, 64
2, 595908, Control_c, 0, 64, 0
2, 595951, Note_on_c, 0, 56, 54
2, 595952, Note_on_c, 0, 64, 50
2, 595954, Note_on_c, 0, 61, 52
2, 595962, Note_on_c, 0, 70, 50
2, 595962, Note_on_c, 0, 44, 58
2, 595968, Note_on_c, 0, 32, 46
2, 596035, Note_off_c, 0, 56, 64
2, 596139, Note_on_c, 0, 56, 56
2, 596203, Note_off_c, 0, 56, 64
2, 596203, Control_c, 0, 64, 127
2, 596301, Note_on_c, 0, 56, 52
2, 596363, Note_off_c, 0, 56, 64
2, 596473, Note_off_c, 0, 64, 64
2, 596476, Note_off_c, 0, 70, 64
2, 596480, Note_on_c, 0, 56, 42
2, 596497, Note_off_c, 0, 61, 64
2, 596572, Note_off_c, 0, 56, 64
2, 596648, Note_on_c, 0, 60, 50
2, 596657, Note_on_c, 0, 68, 45
2, 596657, Note_on_c, 0, 56, 42
2, 596659, Note_on_c, 0, 63, 45
2, 596723, Note_off_c, 0, 56, 64
2, 596839, Note_on_c, 0, 56, 48
2, 596903, Note_off_c, 0, 60, 64
2, 596912, Note_off_c, 0, 68, 64
2, 596914, Note_off_c, 0, 63, 64
2, 596942, Note_off_c, 0, 56, 64
2, 596976, Note_off_c, 0, 44, 64
2, 596982, Note_off_c, 0, 32, 64
2, 596998, Control_c, 0, 64, 0
2, 597027, Note_on_c, 0, 44, 42
2, 597031, Note_on_c, 0, 70, 45
2, 597031, Note_on_c, 0, 56, 41
2, 597032, Note_on_c, 0, 64, 45
2, 597037, Note_on_c, 0, 61, 43
2, 597037, Note_on_c, 0, 32, 40
2, 597102, Control_c, 0, 64, 127
2, 597123, Note_off_c, 0, 56, 64
2, 597227, Note_on_c, 0, 56, 46
2, 597320, Note_off_c, 0, 44, 64
2, 597373, Note_off_c, 0, 56, 64
2, 597388, Note_off_c, 0, 70, 64
2, 597389, Note_off_c, 0, 64, 64
2, 597394, Note_off_c, 0, 61, 64
2, 597428, Control_c, 0, 64, 0
2, 597435, Note_on_c, 0, 56, 44
2, 597435, Note_on_c, 0, 44, 39
2, 597436, Note_on_c, 0, 70, 41
2, 597445, Note_on_c, 0, 64, 42
2, 597445, Note_on_c, 0, 61, 39
2, 597519, Note_off_c, 0, 56, 64
2, 597623, Note_on_c, 0, 56, 43
2, 597779, Note_off_c, 0, 32, 64
2, 597783, Note_off_c, 0, 44, 64
2, 597797, Note_off_c, 0, 56, 64
2, 597832, Note_on_c, 0, 60, 36
2, 597838, Note_on_c, 0, 68, 36
2, 597838, Note_on_c, 0, 56, 40
2, 597845, Note_off_c, 0, 61, 64
2, 597845, Note_off_c, 0, 64, 64
2, 597846, Note_off_c, 0, 70, 64
2, 597847, Note_on_c, 0, 63, 39
2, 597928, Control_c, 0, 64, 127
2, 597967, Note_off_c, 0, 56, 64
2, 598053, Note_on_c, 0, 56, 43
2, 598130, Note_off_c, 0, 56, 64
2, 598249, Note_on_c, 0, 56, 45
2, 598349, Note_off_c, 0, 56, 64
2, 598443, Control_c, 0, 64, 0
2, 598461, Note_on_c, 0, 56, 36
2, 598461, Note_on_c, 0, 53, 34
2, 598526, Control_c, 0, 64, 127
2, 598559, Note_off_c, 0, 60, 64
2, 598565, Note_off_c, 0, 68, 64
2, 598574, Note_off_c, 0, 63, 64
2, 598577, Note_off_c, 0, 56, 64
2, 598658, Control_c, 0, 64, 0
2, 598706, Note_on_c, 0, 56, 40
2, 598712, Note_on_c, 0, 54, 47
2, 598731, Note_off_c, 0, 53, 64
2, 598744, Control_c, 0, 64, 127
2, 598813, Note_off_c, 0, 56, 64
2, 598988, Note_on_c, 0, 51, 44
2, 598996, Note_on_c, 0, 56, 35
2, 599007, Note_off_c, 0, 54, 64
2, 599073, Note_off_c, 0, 56, 64
2, 599365, Note_off_c, 0, 51, 64
2, 599373, Note_on_c, 0, 49, 43
2, 599373, Control_c, 0, 64, 0
2, 599380, Note_on_c, 0, 77, 58
2, 599445, Control_c, 0, 64, 127
2, 599755, Note_on_c, 0, 56, 26
2, 599904, Note_on_c, 0, 73, 53
2, 600017, Note_off_c, 0, 49, 64
2, 600059, Note_on_c, 0, 61, 41
2, 600066, Note_on_c, 0, 68, 44
2, 600069, Note_off_c, 0, 73, 64
2, 600077, Note_on_c, 0, 65, 24
2, 600086, Note_off_c, 0, 56, 64
2, 600096, Note_off_c, 0, 77, 64
2, 600286, Note_on_c, 0, 56, 24
2, 600343, Note_off_c, 0, 61, 64
2, 600363, Note_off_c, 0, 56, 64
2, 600460, Note_on_c, 0, 56, 29
2, 600529, Note_off_c, 0, 56, 64
2, 600611, Note_on_c, 0, 56, 41
2, 600622, Note_off_c, 0, 65, 64
2, 600764, Note_on_c, 0, 70, 59
2, 600768, Note_off_c, 0, 68, 64
2, 600771, Note_on_c, 0, 61, 38
2, 600775, Note_off_c, 0, 56, 64
2, 600775, Note_on_c, 0, 65, 28
2, 600936, Note_on_c, 0, 56, 26
2, 600960, Note_off_c, 0, 65, 64
2, 600960, Note_off_c, 0, 61, 64
2, 601120, Note_on_c, 0, 63, 45
2, 601126, Note_on_c, 0, 66, 40
2, 601128, Note_on_c, 0, 72, 45
2, 601135, Control_c, 0, 64, 0
2, 601140, Note_off_c, 0, 70, 64
2, 601149, Note_off_c, 0, 56, 64
2, 601228, Control_c, 0, 64, 127
2, 601359, Note_on_c, 0, 56, 33
2, 601416, Note_off_c, 0, 56, 64
2, 601518, Note_on_c, 0, 56, 51
2, 601545, Note_off_c, 0, 63, 64
2, 601570, Note_off_c, 0, 56, 64
2, 601666, Note_on_c, 0, 56, 50
2, 601749, Note_off_c, 0, 66, 64
2, 601828, Note_on_c, 0, 58, 51
2, 601836, Note_off_c, 0, 56, 64
2, 601863, Control_c, 0, 64, 0
2, 601971, Control_c, 0, 64, 127
2, 602017, Note_on_c, 0, 56, 40
2, 602035, Note_off_c, 0, 58, 64
2, 602176, Note_on_c, 0, 65, 20
2, 602181, Note_off_c, 0, 56, 64
2, 602186, Note_on_c, 0, 73, 55
2, 602189, Note_on_c, 0, 61, 31
2, 602196, Note_off_c, 0, 72, 64
2, 602197, Control_c, 0, 64, 0
2, 602313, Control_c, 0, 64, 127
2, 602354, Note_on_c, 0, 56, 36
2, 602374, Note_off_c, 0, 61, 64
2, 602384, Note_off_c, 0, 65, 64
2, 602529, Control_c, 0, 64, 0
2, 602538, Note_on_c, 0, 75, 55
2, 602546, Note_on_c, 0, 66, 40
2, 602549, Note_off_c, 0, 56, 64
2, 602549, Note_on_c, 0, 60, 43
2, 602555, Note_off_c, 0, 73, 64
2, 602611, Control_c, 0, 64, 127
2, 602753, Note_on_c, 0, 56, 44
2, 602767, Note_off_c, 0, 60, 64
2, 602838, Note_on_c, 0, 68, 55
2, 602844, Note_on_c, 0, 77, 56
2, 602850, Note_off_c, 0, 75, 64
2, 602866, Note_off_c, 0, 66, 64
2, 602948, Control_c, 0, 64, 0
2, 602954, Note_off_c, 0, 68, 64
2, 602960, Note_on_c, 0, 78, 51
2, 602965, Note_on_c, 0, 70, 29
2, 602969, Note_off_c, 0, 77, 64
2, 603023, Control_c, 0, 64, 127
2, 603100, Note_off_c, 0, 56, 64
2, 603176, Note_on_c, 0, 56, 48
2, 603230, Note_off_c, 0, 56, 64
2, 603305, Note_on_c, 0, 56, 48
2, 603362, Note_off_c, 0, 56, 64
2, 603448, Note_on_c, 0, 56, 42
2, 603482, Note_off_c, 0, 78, 64
2, 603588, Note_off_c, 0, 56, 64
2, 603594, Note_off_c, 0, 70, 64
2, 603598, Note_on_c, 0, 77, 58
2, 603598, Note_on_c, 0, 61, 46
2, 603607, Note_on_c, 0, 68, 40
2, 603683, Control_c, 0, 64, 0
2, 603760, Note_on_c, 0, 56, 38
2, 603773, Note_off_c, 0, 61, 64
2, 603773, Control_c, 0, 64, 127
2, 603788, Note_off_c, 0, 68, 64
2, 603801, Note_off_c, 0, 77, 64
2, 603898, Note_off_c, 0, 56, 64
2, 603905, Note_on_c, 0, 77, 48
2, 603912, Note_on_c, 0, 68, 32
2, 603920, Note_on_c, 0, 60, 36
2, 604016, Control_c, 0, 64, 0
2, 604077, Note_on_c, 0, 56, 46
2, 604090, Note_off_c, 0, 68, 64
2, 604104, Control_c, 0, 64, 127
2, 604213, Note_on_c, 0, 66, 33
2, 604220, Note_off_c, 0, 56, 64
2, 604349, Note_on_c, 0, 75, 52
2, 604373, Note_on_c, 0, 56, 34
2, 604378, Note_off_c, 0, 77, 64
2, 604386, Note_off_c, 0, 66, 64
2, 604447, Note_off_c, 0, 75, 64
2, 604538, Note_off_c, 0, 56, 64
2, 604552, Note_on_c, 0, 73, 54
2, 604560, Note_on_c, 0, 61, 2
2, 604568, Note_on_c, 0, 65, 28
2, 604572, Note_off_c, 0, 60, 64
2, 604589, Control_c, 0, 64, 0
2, 604751, Note_on_c, 0, 56, 24
2, 604823, Note_off_c, 0, 61, 64
2, 604831, Note_off_c, 0, 65, 64
2, 604870, Note_on_c, 0, 74, 52
2, 604880, Note_off_c, 0, 73, 64
2, 605005, Note_off_c, 0, 56, 64
2, 605016, Note_on_c, 0, 60, 48
2, 605019, Note_on_c, 0, 66, 38
2, 605062, Note_on_c, 0, 75, 47
2, 605067, Control_c, 0, 64, 127
2, 605095, Note_off_c, 0, 74, 64
2, 605119, Note_on_c, 0, 77, 57
2, 605129, Note_off_c, 0, 75, 64
2, 605158, Note_on_c, 0, 75, 54
2, 605180, Note_off_c, 0, 77, 64
2, 605205, Note_on_c, 0, 74, 49
2, 605212, Note_off_c, 0, 75, 64
2, 605256, Note_on_c, 0, 75, 46
2, 605266, Note_off_c, 0, 74, 64
2, 605273, Note_off_c, 0, 60, 64
2, 605276, Note_off_c, 0, 66, 64
2, 605318, Note_off_c, 0, 75, 64
2, 605320, Note_on_c, 0, 56, 26
2, 605324, Note_on_c, 0, 76, 48
2, 605380, Note_on_c, 0, 77, 41
2, 605403, Note_off_c, 0, 76, 64
2, 605438, Note_on_c, 0, 80, 35
2, 605445, Note_off_c, 0, 77, 64
2, 605457, Note_off_c, 0, 56, 64
2, 605490, Note_off_c, 0, 80, 64
2, 605498, Note_on_c, 0, 79, 34
2, 605530, Control_c, 0, 64, 0
2, 605544, Note_on_c, 0, 78, 29
2, 605559, Note_off_c, 0, 79, 64
2, 605596, Note_on_c, 0, 49, 35
2, 605610, Note_on_c, 0, 77, 39
2, 605627, Control_c, 0, 64, 127
2, 605633, Note_off_c, 0, 78, 64
2, 605841, Note_on_c, 0, 56, 36
2, 605885, Note_off_c, 0, 77, 64
2, 605925, Note_on_c, 0, 73, 52
2, 606040, Note_on_c, 0, 65, 46
2, 606041, Note_off_c, 0, 73, 64
2, 606047, Note_on_c, 0, 61, 43
2, 606048, Note_on_c, 0, 68, 48
2, 606064, Note_off_c, 0, 56, 64
2, 606161, Note_off_c, 0, 49, 64
2, 606234, Note_on_c, 0, 56, 44
2, 606300, Note_off_c, 0, 61, 64
2, 606308, Note_off_c, 0, 56, 64
2, 606389, Note_on_c, 0, 56, 47
2, 606466, Note_off_c, 0, 56, 64
2, 606575, Note_on_c, 0, 56, 36
2, 606621, Note_off_c, 0, 65, 64
2, 606722, Note_off_c, 0, 56, 64
2, 606776, Note_on_c, 0, 70, 52
2, 606779, Note_on_c, 0, 56, 40
2, 606800, Note_off_c, 0, 68, 64
2, 606977, Note_off_c, 0, 56, 64
2, 607005, Note_on_c, 0, 56, 36
2, 607264, Note_on_c, 0, 63, 24
2, 607275, Note_on_c, 0, 66, 31
2, 607279, Note_on_c, 0, 72, 54
2, 607289, Note_off_c, 0, 70, 64
2, 607327, Note_off_c, 0, 56, 64
2, 607426, Control_c, 0, 64, 0
2, 607543, Control_c, 0, 64, 127
2, 607554, Note_on_c, 0, 56, 24
2, 607624, Note_off_c, 0, 56, 64
2, 607804, Note_on_c, 0, 56, 22
2, 607863, Note_off_c, 0, 56, 64
2, 608018, Note_on_c, 0, 56, 24
2, 608239, Note_off_c, 0, 56, 64
2, 608287, Note_on_c, 0, 58, 22
2, 608640, Note_on_c, 0, 56, 20
2, 608646, Note_off_c, 0, 58, 64
2, 609144, Note_off_c, 0, 56, 64
2, 609144, Note_off_c, 0, 63, 64
2, 609144, Note_off_c, 0, 66, 64
2, 609144, Note_off_c, 0, 72, 64
2, 609147, Note_on_c, 0, 82, 56
2, 609298, Control_c, 0, 64, 0
2, 610382, Note_on_c, 0, 80, 40
2, 610417, Note_off_c, 0, 82, 64
2, 610442, Control_c, 0, 64, 127
2, 610791, Control_c, 0, 64, 0
2, 610798, Note_on_c, 0, 78, 36
2, 610821, Note_off_c, 0, 80, 64
2, 611263, Note_on_c, 0, 72, 34
2, 611306, Note_off_c, 0, 78, 64
2, 611315, Control_c, 0, 64, 127
2, 611614, Control_c, 0, 64, 0
2, 611673, Note_on_c, 0, 77, 39
2, 611697, Note_off_c, 0, 72, 64
2, 612106, Note_on_c, 0, 75, 33
2, 612129, Note_off_c, 0, 77, 64
2, 612569, Note_on_c, 0, 73, 31
2, 612596, Note_off_c, 0, 75, 64
2, 613144, Note_on_c, 0, 70, 15
2, 613180, Note_off_c, 0, 73, 64
2, 613209, Control_c, 0, 64, 127
2, 613577, Note_off_c, 0, 70, 64
2, 613680, Note_on_c, 0, 44, 18
2, 613685, Note_on_c, 0, 58, 30
2, 613686, Note_on_c, 0, 63, 27
2, 613692, Note_on_c, 0, 66, 25
2, 613741, Control_c, 0, 64, 0
2, 613941, Note_on_c, 0, 56, 26
2, 613944, Control_c, 0, 64, 127
2, 614009, Note_off_c, 0, 56, 64
2, 614101, Note_on_c, 0, 56, 24
2, 614171, Note_off_c, 0, 56, 64
2, 614269, Note_on_c, 0, 56, 20
2, 614315, Note_off_c, 0, 58, 64
2, 614365, Note_off_c, 0, 56, 64
2, 614436, Note_on_c, 0, 60, 28
2, 614451, Note_on_c, 0, 56, 20
2, 614524, Note_off_c, 0, 56, 64
2, 614602, Note_on_c, 0, 56, 28
2, 614682, Note_off_c, 0, 56, 64
2, 614776, Note_on_c, 0, 56, 24
2, 614852, Note_off_c, 0, 56, 64
2, 614940, Note_on_c, 0, 56, 27
2, 614997, Note_off_c, 0, 66, 64
2, 615030, Note_off_c, 0, 56, 64
2, 615049, Note_off_c, 0, 63, 64
2, 615122, Note_off_c, 0, 44, 64
2, 615138, Control_c, 0, 64, 0
2, 615148, Note_on_c, 0, 56, 23
2, 615153, Note_off_c, 0, 60, 64
2, 615156, Note_on_c, 0, 61, 27
2, 615156, Note_on_c, 0, 49, 22
2, 615163, Note_on_c, 0, 65, 25
2, 615236, Control_c, 0, 64, 127
2, 615254, Control_c, 0, 64, 0
2, 615274, Control_c, 0, 64, 127
2, 615311, Note_off_c, 0, 56, 64
2, 615373, Note_on_c, 0, 56, 19
2, 615447, Note_off_c, 0, 56, 64
2, 615529, Note_on_c, 0, 56, 20
2, 615590, Note_off_c, 0, 56, 64
2, 615681, Note_on_c, 0, 56, 19
2, 615760, Note_off_c, 0, 56, 64
2, 615855, Note_on_c, 0, 56, 23
2, 615924, Note_off_c, 0, 61, 64
2, 615947, Note_off_c, 0, 56, 64
2, 616016, Note_on_c, 0, 61, 33
2, 616024, Note_on_c, 0, 56, 20
2, 616105, Note_off_c, 0, 56, 64
2, 616212, Note_on_c, 0, 63, 36
2, 616219, Note_on_c, 0, 56, 33
2, 616238, Note_off_c, 0, 65, 64
2, 616288, Note_off_c, 0, 61, 64
2, 616305, Note_off_c, 0, 56, 64
2, 616471, Note_on_c, 0, 56, 27
2, 616516, Note_off_c, 0, 49, 64
2, 616576, Note_on_c, 0, 61, 36
2, 616612, Note_off_c, 0, 63, 64
2, 616636, Note_off_c, 0, 56, 64
2, 616661, Note_off_c, 0, 61, 64
2, 616793, Note_on_c, 0, 63, 36
2, 616796, Note_on_c, 0, 56, 26
2, 616800, Note_on_c, 0, 61, 33
2, 616801, Note_on_c, 0, 44, 29
2, 616806, Note_on_c, 0, 66, 35
2, 616816, Control_c, 0, 64, 0
2, 616892, Control_c, 0, 64, 127
2, 616967, Note_off_c, 0, 56, 64
2, 617053, Note_on_c, 0, 56, 25
2, 617144, Note_off_c, 0, 56, 64
2, 617213, Note_on_c, 0, 60, 37
2, 617225, Note_on_c, 0, 56, 19
2, 617266, Note_off_c, 0, 61, 64
2, 617303, Note_off_c, 0, 56, 64
2, 617308, Note_off_c, 0, 63, 64
2, 617368, Note_off_c, 0, 66, 64
2, 617379, Note_on_c, 0, 56, 27
2, 617489, Note_off_c, 0, 56, 64
2, 617556, Note_on_c, 0, 70, 46
2, 617566, Note_on_c, 0, 56, 28
2, 617626, Note_off_c, 0, 60, 64
2, 617643, Note_off_c, 0, 56, 64
2, 617718, Note_on_c, 0, 56, 26
2, 617798, Note_off_c, 0, 56, 64
2, 617922, Note_on_c, 0, 56, 27
2, 617928, Note_on_c, 0, 60, 34
2, 618033, Note_off_c, 0, 56, 64
2, 618050, Note_off_c, 0, 70, 64
2, 618147, Note_on_c, 0, 56, 26
2, 618216, Note_off_c, 0, 44, 64
2, 618299, Note_off_c, 0, 60, 64
2, 618314, Note_off_c, 0, 56, 64
2, 618505, Note_on_c, 0, 56, 31
2, 618505, Note_on_c, 0, 44, 34
2, 618513, Note_on_c, 0, 66, 39
2, 618513, Note_on_c, 0, 60, 37
2, 618518, Note_on_c, 0, 63, 37
2, 618532, Control_c, 0, 64, 0
2, 618618, Control_c, 0, 64, 127
2, 618680, Note_off_c, 0, 56, 64
2, 618755, Note_on_c, 0, 56, 35
2, 618858, Note_off_c, 0, 56, 64
2, 618941, Note_on_c, 0, 56, 34
2, 619013, Note_off_c, 0, 56, 64
2, 619124, Note_on_c, 0, 56, 28
2, 619206, Note_off_c, 0, 56, 64
2, 619321, Note_on_c, 0, 56, 25
2, 619411, Note_off_c, 0, 56, 64
2, 619525, Note_on_c, 0, 56, 24
2, 619614, Note_off_c, 0, 56, 64
2, 619747, Note_on_c, 0, 56, 24
2, 619832, Note_off_c, 0, 56, 64
2, 619979, Note_on_c, 0, 56, 27
2, 620025, Note_off_c, 0, 66, 64
2, 620061, Note_off_c, 0, 63, 64
2, 620092, Note_off_c, 0, 56, 64
2, 620154, Note_off_c, 0, 44, 64
2, 620161, Note_off_c, 0, 60, 64
2, 620209, Control_c, 0, 64, 0
2, 620222, Note_on_c, 0, 56, 24
2, 620229, Note_on_c, 0, 49, 27
2, 620230, Note_on_c, 0, 65, 22
2, 620230, Note_on_c, 0, 61, 20
2, 620295, Control_c, 0, 64, 127
2, 620390, Note_off_c, 0, 56, 64
2, 620477, Note_on_c, 0, 56, 19
2, 620569, Note_off_c, 0, 56, 64
2, 620714, Note_on_c, 0, 56, 24
2, 620811, Note_off_c, 0, 56, 64
2, 620962, Note_on_c, 0, 56, 25
2, 621018, Note_off_c, 0, 49, 64
2, 621050, Note_off_c, 0, 56, 64
2, 621221, Note_on_c, 0, 56, 24
2, 621228, Note_on_c, 0, 44, 34
2, 621312, Note_off_c, 0, 56, 64
2, 621470, Note_on_c, 0, 56, 17
2, 621579, Note_off_c, 0, 56, 64
2, 621759, Note_on_c, 0, 56, 18
2, 621883, Note_off_c, 0, 56, 64
2, 622099, Note_on_c, 0, 56, 23
2, 622350, Note_off_c, 0, 65, 64
2, 622378, Note_off_c, 0, 61, 64
2, 622385, Note_off_c, 0, 56, 64
2, 622724, Note_on_c, 0, 37, 24
2, 622725, Note_on_c, 0, 65, 24
2, 622730, Note_on_c, 0, 61, 18
2, 622730, Note_on_c, 0, 56, 18
2, 622753, Note_off_c, 0, 44, 64
2, 622892, Control_c, 0, 64, 0
2, 623533, Control_c, 0, 64, 127
2, 624176, Note_off_c, 0, 37, 64
2, 624187, Note_off_c, 0, 61, 64
2, 624192, Note_off_c, 0, 65, 64
2, 624195, Note_off_c, 0, 56, 64
2, 625172, Note_on_c, 0, 63, 87
2, 625219, Note_on_c, 0, 69, 80
2, 625252, Note_on_c, 0, 78, 87
2, 625252, Note_on_c, 0, 53, 45
2, 625252, Note_on_c, 0, 41, 77
2, 625269, Control_c, 0, 64, 127
2, 625325, Control_c, 0, 64, 127
2, 625382, Note_off_c, 0, 69, 64
2, 625387, Note_off_c, 0, 41, 64
2, 625389, Note_off_c, 0, 53, 64
2, 625417, Note_off_c, 0, 63, 64
2, 625419, Note_off_c, 0, 78, 64
2, 625567, Note_on_c, 0, 77, 91
2, 625569, Note_on_c, 0, 63, 87
2, 625577, Note_on_c, 0, 69, 87
2, 625577, Note_on_c, 0, 60, 68
2, 625582, Note_on_c, 0, 53, 86
2, 625584, Note_on_c, 0, 48, 77
2, 625654, Note_off_c, 0, 63, 64
2, 625664, Note_off_c, 0, 69, 64
2, 625667, Note_off_c, 0, 48, 64
2, 625667, Note_off_c, 0, 77, 64
2, 625674, Note_off_c, 0, 53, 64
2, 625684, Note_off_c, 0, 60, 64
2, 625757, Note_on_c, 0, 76, 93
2, 625757, Note_on_c, 0, 63, 87
2, 625762, Note_on_c, 0, 69, 87
2, 625767, Note_on_c, 0, 53, 75
2, 625769, Note_on_c, 0, 60, 80
2, 625772, Note_on_c, 0, 48, 73
2, 625817, Note_off_c, 0, 60, 64
2, 625819, Note_off_c, 0, 63, 64
2, 625827, Note_off_c, 0, 53, 64
2, 625827, Note_off_c, 0, 69, 64
2, 625829, Note_off_c, 0, 48, 64
2, 625834, Note_off_c, 0, 76, 64
2, 625914, Note_on_c, 0, 75, 91
2, 625914, Note_on_c, 0, 63, 87
2, 625919, Note_on_c, 0, 69, 87
2, 625924, Note_on_c, 0, 48, 58
2, 625927, Note_on_c, 0, 53, 73
2, 625932, Note_on_c, 0, 60, 69
2, 625999, Note_off_c, 0, 69, 64
2, 626007, Note_off_c, 0, 63, 64
2, 626009, Note_off_c, 0, 53, 64
2, 626014, Note_off_c, 0, 60, 64
2, 626017, Note_off_c, 0, 48, 64
2, 626024, Note_off_c, 0, 75, 64
2, 626082, Note_on_c, 0, 63, 82
2, 626084, Note_on_c, 0, 73, 90
2, 626084, Note_on_c, 0, 69, 87
2, 626092, Note_on_c, 0, 53, 71
2, 626092, Note_on_c, 0, 48, 61
2, 626097, Note_on_c, 0, 60, 73
2, 626174, Note_off_c, 0, 63, 64
2, 626179, Note_off_c, 0, 69, 64
2, 626192, Note_off_c, 0, 73, 64
2, 626214, Note_off_c, 0, 53, 64
2, 626219, Note_off_c, 0, 60, 64
2, 626219, Note_off_c, 0, 48, 64
2, 626329, Note_on_c, 0, 69, 91
2, 626329, Note_on_c, 0, 63, 95
2, 626334, Note_on_c, 0, 72, 95
2, 626337, Note_on_c, 0, 53, 56
2, 626342, Note_on_c, 0, 60, 61
2, 626342, Note_on_c, 0, 48, 50
2, 626732, Note_off_c, 0, 69, 64
2, 626734, Note_off_c, 0, 63, 64
2, 626739, Note_off_c, 0, 72, 64
2, 626752, Note_off_c, 0, 53, 64
2, 626757, Note_off_c, 0, 48, 64
2, 626757, Note_off_c, 0, 60, 64
2, 627347, Control_c, 0, 64, 0
2, 627347, Control_c, 0, 64, 0
2, 627403, Control_c, 0, 64, 0
2, 627403, Control_c, 0, 64, 0
2, 627484, Note_on_c, 0, 46, 85
2, 627487, Note_on_c, 0, 77, 56
2, 627539, Note_on_c, 0, 72, 57
2, 627577, Note_off_c, 0, 77, 64
2, 627589, Note_on_c, 0, 75, 58
2, 627592, Note_on_c, 0, 61, 55
2, 627592, Note_on_c, 0, 53, 52
2, 627594, Note_off_c, 0, 72, 64
2, 627624, Control_c, 0, 64, 127
2, 627624, Control_c, 0, 64, 127
2, 627629, Note_off_c, 0, 46, 64
2, 627632, Note_off_c, 0, 53, 64
2, 627632, Note_off_c, 0, 61, 64
2, 627632, Note_on_c, 0, 73, 60
2, 627642, Note_off_c, 0, 75, 64
2, 627642, Control_c, 0, 64, 0
2, 627642, Control_c, 0, 64, 0
2, 627672, Note_on_c, 0, 65, 78
2, 627674, Note_off_c, 0, 73, 64
2, 627680, Control_c, 0, 64, 127
2, 627680, Control_c, 0, 64, 127
2, 627698, Control_c, 0, 64, 0
2, 627698, Control_c, 0, 64, 0
2, 627714, Note_on_c, 0, 69, 64
2, 627727, Note_off_c, 0, 65, 64
2, 627757, Note_on_c, 0, 41, 68
2, 627759, Note_on_c, 0, 70, 65
2, 627772, Note_off_c, 0, 69, 64
2, 627787, Note_off_c, 0, 41, 64
2, 627797, Note_off_c, 0, 70, 64
2, 627802, Note_on_c, 0, 72, 66
2, 627807, Control_c, 0, 64, 127
2, 627807, Control_c, 0, 64, 127
2, 627839, Note_on_c, 0, 73, 68
2, 627847, Note_on_c, 0, 46, 91
2, 627854, Note_off_c, 0, 72, 64
2, 627863, Control_c, 0, 64, 127
2, 627863, Control_c, 0, 64, 127
2, 627884, Note_on_c, 0, 75, 69
2, 627899, Note_off_c, 0, 73, 64
2, 627912, Control_c, 0, 64, 0
2, 627914, Control_c, 0, 64, 0
2, 627922, Note_off_c, 0, 75, 64
2, 627929, Note_on_c, 0, 77, 72
2, 627932, Note_on_c, 0, 61, 61
2, 627932, Note_on_c, 0, 53, 50
2, 627968, Control_c, 0, 64, 0
2, 627970, Control_c, 0, 64, 0
2, 627972, Note_off_c, 0, 53, 64
2, 627972, Note_off_c, 0, 61, 64
2, 627974, Note_on_c, 0, 79, 73
2, 627989, Note_off_c, 0, 77, 64
2, 627992, Note_off_c, 0, 46, 64
2, 628014, Note_on_c, 0, 81, 75
2, 628039, Note_off_c, 0, 79, 64
2, 628059, Note_on_c, 0, 82, 76
2, 628082, Note_off_c, 0, 81, 64
2, 628089, Note_on_c, 0, 41, 66
2, 628094, Note_off_c, 0, 82, 64
2, 628104, Note_on_c, 0, 84, 78
2, 628117, Note_off_c, 0, 41, 64
2, 628142, Note_on_c, 0, 85, 80
2, 628157, Note_off_c, 0, 84, 64
2, 628182, Note_on_c, 0, 46, 91
2, 628184, Note_on_c, 0, 87, 81
2, 628197, Control_c, 0, 64, 127
2, 628197, Control_c, 0, 64, 127
2, 628207, Note_off_c, 0, 85, 64
2, 628217, Note_on_c, 0, 89, 84
2, 628232, Note_off_c, 0, 87, 64
2, 628253, Control_c, 0, 64, 127
2, 628253, Control_c, 0, 64, 127
2, 628257, Note_off_c, 0, 89, 64
2, 628267, Note_on_c, 0, 91, 86
2, 628274, Note_on_c, 0, 61, 59
2, 628279, Note_on_c, 0, 53, 55
2, 628312, Note_on_c, 0, 93, 88
2, 628314, Note_off_c, 0, 61, 64
2, 628314, Note_off_c, 0, 91, 64
2, 628319, Note_off_c, 0, 53, 64
2, 628327, Note_off_c, 0, 46, 64
2, 628354, Note_on_c, 0, 94, 89
2, 628367, Note_off_c, 0, 93, 64
2, 628392, Note_off_c, 0, 94, 64
2, 628397, Note_on_c, 0, 96, 91
2, 628407, Control_c, 0, 64, 0
2, 628407, Control_c, 0, 64, 0
2, 628437, Note_on_c, 0, 97, 92
2, 628439, Note_on_c, 0, 41, 65
2, 628454, Note_off_c, 0, 96, 64
2, 628463, Control_c, 0, 64, 0
2, 628463, Control_c, 0, 64, 0
2, 628467, Note_off_c, 0, 41, 64
2, 628482, Note_on_c, 0, 99, 94
2, 628499, Note_off_c, 0, 97, 64
2, 628522, Note_on_c, 0, 100, 97
2, 628522, Note_on_c, 0, 46, 97
2, 628537, Control_c, 0, 64, 127
2, 628537, Control_c, 0, 64, 127
2, 628547, Note_off_c, 0, 99, 64
2, 628557, Note_on_c, 0, 101, 97
2, 628569, Note_off_c, 0, 100, 64
2, 628593, Control_c, 0, 64, 127
2, 628593, Control_c, 0, 64, 127
2, 628597, Note_on_c, 0, 61, 62
2, 628602, Note_on_c, 0, 99, 100
2, 628607, Note_off_c, 0, 101, 64
2, 628607, Note_on_c, 0, 53, 49
2, 628622, Note_off_c, 0, 61, 64
2, 628624, Note_off_c, 0, 53, 64
2, 628639, Note_on_c, 0, 97, 99
2, 628644, Note_off_c, 0, 99, 64
2, 628667, Note_off_c, 0, 46, 64
2, 628674, Note_on_c, 0, 96, 98
2, 628677, Note_off_c, 0, 97, 64
2, 628709, Note_off_c, 0, 96, 64
2, 628712, Control_c, 0, 64, 0
2, 628712, Control_c, 0, 64, 0
2, 628717, Note_on_c, 0, 94, 76
2, 628754, Note_off_c, 0, 94, 64
2, 628759, Note_on_c, 0, 93, 74
2, 628764, Note_on_c, 0, 41, 67
2, 628768, Control_c, 0, 64, 0
2, 628768, Control_c, 0, 64, 0
2, 628792, Note_off_c, 0, 41, 64
2, 628799, Note_on_c, 0, 94, 72
2, 628802, Note_off_c, 0, 93, 64
2, 628837, Note_on_c, 0, 92, 72
2, 628837, Note_on_c, 0, 46, 98
2, 628842, Note_off_c, 0, 94, 64
2, 628847, Control_c, 0, 64, 127
2, 628847, Control_c, 0, 64, 127
2, 628882, Note_on_c, 0, 90, 71
2, 628889, Note_off_c, 0, 92, 64
2, 628903, Control_c, 0, 64, 127
2, 628903, Control_c, 0, 64, 127
2, 628917, Note_off_c, 0, 90, 64
2, 628917, Note_on_c, 0, 89, 69
2, 628917, Note_on_c, 0, 61, 63
2, 628924, Note_on_c, 0, 53, 54
2, 628937, Note_off_c, 0, 61, 64
2, 628942, Note_off_c, 0, 53, 64
2, 628959, Note_on_c, 0, 88, 68
2, 628967, Note_off_c, 0, 89, 64
2, 628982, Note_off_c, 0, 46, 64
2, 629002, Note_off_c, 0, 88, 64
2, 629007, Note_on_c, 0, 89, 67
2, 629022, Control_c, 0, 64, 0
2, 629022, Control_c, 0, 64, 0
2, 629044, Note_on_c, 0, 87, 65
2, 629057, Note_off_c, 0, 89, 64
2, 629078, Control_c, 0, 64, 0
2, 629078, Control_c, 0, 64, 0
2, 629079, Note_on_c, 0, 85, 64
2, 629079, Note_on_c, 0, 41, 66
2, 629099, Note_off_c, 0, 87, 64
2, 629107, Note_off_c, 0, 41, 64
2, 629122, Note_off_c, 0, 85, 64
2, 629122, Note_on_c, 0, 84, 63
2, 629162, Note_on_c, 0, 46, 101
2, 629167, Note_on_c, 0, 82, 61
2, 629172, Control_c, 0, 64, 127
2, 629179, Control_c, 0, 64, 127
2, 629197, Note_off_c, 0, 84, 64
2, 629207, Note_on_c, 0, 81, 60
2, 629209, Note_off_c, 0, 82, 64
2, 629228, Control_c, 0, 64, 127
2, 629235, Control_c, 0, 64, 127
2, 629247, Note_on_c, 0, 82, 60
2, 629247, Note_on_c, 0, 61, 65
2, 629249, Note_on_c, 0, 53, 57
2, 629252, Note_off_c, 0, 81, 64
2, 629274, Note_off_c, 0, 53, 64
2, 629279, Note_off_c, 0, 61, 64
2, 629289, Note_on_c, 0, 80, 58
2, 629304, Note_off_c, 0, 82, 64
2, 629307, Note_off_c, 0, 46, 64
2, 629319, Control_c, 0, 64, 0
2, 629319, Control_c, 0, 64, 0
2, 629334, Note_on_c, 0, 78, 56
2, 629349, Note_off_c, 0, 80, 64
2, 629375, Control_c, 0, 64, 0
2, 629375, Control_c, 0, 64, 0
2, 629377, Note_off_c, 0, 78, 64
2, 629377, Note_on_c, 0, 77, 56
2, 629402, Note_on_c, 0, 41, 72
2, 629417, Note_off_c, 0, 77, 64
2, 629417, Note_on_c, 0, 75, 54
2, 629432, Note_off_c, 0, 41, 64
2, 629452, Note_on_c, 0, 73, 53
2, 629467, Note_off_c, 0, 75, 64
2, 629494, Note_on_c, 0, 46, 101
2, 629499, Note_off_c, 0, 73, 64
2, 629502, Note_on_c, 0, 72, 52
2, 629507, Control_c, 0, 64, 127
2, 629507, Control_c, 0, 64, 127
2, 629537, Note_on_c, 0, 73, 52
2, 629552, Note_off_c, 0, 72, 64
2, 629563, Control_c, 0, 64, 127
2, 629563, Control_c, 0, 64, 127
2, 629577, Note_on_c, 0, 51, 55
2, 629579, Note_on_c, 0, 63, 66
2, 629582, Note_on_c, 0, 54, 37
2, 629587, Note_on_c, 0, 75, 52
2, 629597, Note_off_c, 0, 73, 64
2, 629622, Note_off_c, 0, 75, 64
2, 629622, Note_off_c, 0, 54, 64
2, 629627, Note_off_c, 0, 63, 64
2, 629627, Note_off_c, 0, 51, 64
2, 629632, Note_on_c, 0, 77, 53
2, 629639, Note_off_c, 0, 46, 64
2, 629639, Control_c, 0, 64, 0
2, 629639, Control_c, 0, 64, 0
2, 629672, Note_on_c, 0, 78, 54
2, 629692, Note_off_c, 0, 77, 64
2, 629695, Control_c, 0, 64, 0
2, 629695, Control_c, 0, 64, 0
2, 629717, Note_on_c, 0, 80, 55
2, 629729, Note_off_c, 0, 78, 64
2, 629749, Note_on_c, 0, 34, 68
2, 629757, Note_on_c, 0, 82, 55
2, 629774, Note_off_c, 0, 34, 64
2, 629777, Note_off_c, 0, 80, 64
2, 629807, Note_on_c, 0, 84, 56
2, 629809, Note_off_c, 0, 82, 64
2, 629837, Note_on_c, 0, 46, 96
2, 629844, Note_on_c, 0, 82, 56
2, 629854, Control_c, 0, 64, 127
2, 629854, Control_c, 0, 64, 127
2, 629859, Note_off_c, 0, 84, 64
2, 629877, Note_on_c, 0, 80, 57
2, 629899, Note_off_c, 0, 82, 64
2, 629910, Control_c, 0, 64, 127
2, 629910, Control_c, 0, 64, 127
2, 629914, Note_on_c, 0, 78, 58
2, 629919, Note_on_c, 0, 51, 42
2, 629927, Note_on_c, 0, 63, 61
2, 629927, Note_on_c, 0, 54, 29
2, 629934, Note_off_c, 0, 80, 64
2, 629954, Note_on_c, 0, 77, 59
2, 629959, Note_off_c, 0, 51, 64
2, 629959, Note_off_c, 0, 78, 64
2, 629964, Note_off_c, 0, 63, 64
2, 629967, Note_off_c, 0, 54, 64
2, 629982, Note_off_c, 0, 46, 64
2, 629984, Control_c, 0, 64, 0
2, 629984, Control_c, 0, 64, 0
2, 630002, Note_off_c, 0, 77, 64
2, 630007, Note_on_c, 0, 75, 60
2, 630040, Control_c, 0, 64, 0
2, 630040, Control_c, 0, 64, 0
2, 630044, Note_on_c, 0, 73, 60
2, 630049, Note_off_c, 0, 75, 64
2, 630062, Note_on_c, 0, 34, 65
2, 630087, Note_on_c, 0, 72, 61
2, 630092, Note_off_c, 0, 73, 64
2, 630097, Note_off_c, 0, 34, 64
2, 630122, Note_on_c, 0, 75, 61
2, 630159, Note_off_c, 0, 72, 64
2, 630159, Note_on_c, 0, 46, 91
2, 630164, Note_on_c, 0, 78, 62
2, 630172, Note_off_c, 0, 75, 64
2, 630182, Control_c, 0, 64, 127
2, 630184, Control_c, 0, 64, 127
2, 630212, Note_on_c, 0, 74, 63
2, 630227, Note_off_c, 0, 78, 64
2, 630238, Control_c, 0, 64, 127
2, 630239, Note_on_c, 0, 54, 27
2, 630240, Control_c, 0, 64, 127
2, 630242, Note_on_c, 0, 51, 50
2, 630247, Note_on_c, 0, 63, 65
2, 630257, Note_off_c, 0, 74, 64
2, 630259, Note_on_c, 0, 77, 64
2, 630279, Note_off_c, 0, 54, 64
2, 630282, Note_off_c, 0, 51, 64
2, 630287, Note_off_c, 0, 63, 64
2, 630292, Note_on_c, 0, 75, 64
2, 630299, Note_off_c, 0, 77, 64
2, 630304, Note_off_c, 0, 46, 64
2, 630312, Control_c, 0, 64, 0
2, 630312, Control_c, 0, 64, 0
2, 630337, Note_on_c, 0, 72, 65
2, 630339, Note_off_c, 0, 75, 64
2, 630368, Control_c, 0, 64, 0
2, 630368, Control_c, 0, 64, 0
2, 630374, Note_on_c, 0, 66, 42
2, 630399, Note_off_c, 0, 72, 64
2, 630419, Note_off_c, 0, 66, 64
2, 630419, Note_on_c, 0, 71, 66
2, 630429, Note_on_c, 0, 34, 66
2, 630459, Note_on_c, 0, 72, 68
2, 630464, Note_off_c, 0, 34, 64
2, 630497, Note_on_c, 0, 73, 68
2, 630499, Note_off_c, 0, 71, 64
2, 630507, Note_on_c, 0, 46, 92
2, 630519, Note_off_c, 0, 72, 64
2, 630537, Note_off_c, 0, 73, 64
2, 630539, Note_on_c, 0, 72, 68
2, 630547, Control_c, 0, 64, 127
2, 630547, Control_c, 0, 64, 127
2, 630577, Note_on_c, 0, 73, 69
2, 630582, Note_on_c, 0, 54, 22
2, 630584, Note_on_c, 0, 51, 37
2, 630587, Note_off_c, 0, 72, 64
2, 630594, Note_on_c, 0, 63, 55
2, 630603, Control_c, 0, 64, 127
2, 630603, Control_c, 0, 64, 127
2, 630617, Note_on_c, 0, 74, 69
2, 630622, Note_off_c, 0, 54, 64
2, 630622, Note_off_c, 0, 73, 64
2, 630624, Note_off_c, 0, 51, 64
2, 630629, Control_c, 0, 64, 0
2, 630629, Control_c, 0, 64, 0
2, 630634, Note_off_c, 0, 63, 64
2, 630652, Note_off_c, 0, 46, 64
2, 630657, Note_on_c, 0, 77, 71
2, 630677, Note_off_c, 0, 74, 64
2, 630685, Control_c, 0, 64, 0
2, 630685, Control_c, 0, 64, 0
2, 630692, Note_on_c, 0, 75, 71
2, 630709, Note_off_c, 0, 77, 64
2, 630729, Note_off_c, 0, 75, 64
2, 630742, Note_on_c, 0, 76, 72
2, 630742, Note_on_c, 0, 34, 74
2, 630774, Note_off_c, 0, 34, 64
2, 630779, Note_on_c, 0, 77, 72
2, 630792, Note_off_c, 0, 76, 64
2, 630819, Note_on_c, 0, 46, 88
2, 630822, Note_on_c, 0, 80, 73
2, 630827, Note_off_c, 0, 77, 64
2, 630857, Note_on_c, 0, 78, 74
2, 630872, Note_off_c, 0, 80, 64
2, 630897, Note_on_c, 0, 81, 74
2, 630904, Note_off_c, 0, 78, 64
2, 630904, Note_on_c, 0, 51, 44
2, 630909, Note_on_c, 0, 63, 62
2, 630909, Note_on_c, 0, 54, 37
2, 630934, Note_on_c, 0, 82, 75
2, 630939, Note_off_c, 0, 54, 64
2, 630944, Note_off_c, 0, 51, 64
2, 630957, Note_off_c, 0, 63, 64
2, 630957, Note_off_c, 0, 81, 64
2, 630964, Note_off_c, 0, 46, 64
2, 630982, Note_on_c, 0, 85, 76
2, 630994, Note_off_c, 0, 82, 64
2, 631014, Note_off_c, 0, 85, 64
2, 631029, Note_on_c, 0, 84, 76
2, 631059, Note_on_c, 0, 34, 68
2, 631064, Note_on_c, 0, 85, 77
2, 631067, Control_c, 0, 64, 127
2, 631069, Control_c, 0, 64, 127
2, 631074, Note_off_c, 0, 84, 64
2, 631092, Note_off_c, 0, 34, 64
2, 631104, Control_c, 0, 64, 0
2, 631104, Control_c, 0, 64, 0
2, 631109, Note_on_c, 0, 86, 78
2, 631114, Note_off_c, 0, 85, 64
2, 631123, Control_c, 0, 64, 127
2, 631125, Control_c, 0, 64, 127
2, 631137, Note_on_c, 0, 46, 98
2, 631142, Note_on_c, 0, 89, 79
2, 631160, Control_c, 0, 64, 0
2, 631160, Control_c, 0, 64, 0
2, 631162, Note_off_c, 0, 86, 64
2, 631179, Note_on_c, 0, 87, 79
2, 631194, Note_off_c, 0, 89, 64
2, 631217, Note_off_c, 0, 87, 64
2, 631217, Note_on_c, 0, 51, 49
2, 631222, Note_on_c, 0, 88, 80
2, 631222, Note_on_c, 0, 54, 37
2, 631227, Note_on_c, 0, 63, 63
2, 631257, Note_off_c, 0, 63, 64
2, 631257, Note_off_c, 0, 54, 64
2, 631257, Note_off_c, 0, 51, 64
2, 631262, Note_on_c, 0, 89, 80
2, 631277, Note_off_c, 0, 88, 64
2, 631282, Note_off_c, 0, 46, 64
2, 631304, Note_on_c, 0, 93, 81
2, 631312, Note_off_c, 0, 89, 64
2, 631342, Note_off_c, 0, 93, 64
2, 631342, Note_on_c, 0, 94, 81
2, 631374, Note_on_c, 0, 46, 60
2, 631382, Note_on_c, 0, 92, 83
2, 631397, Note_off_c, 0, 94, 64
2, 631414, Note_off_c, 0, 46, 64
2, 631422, Note_off_c, 0, 92, 64
2, 631422, Note_on_c, 0, 91, 83
2, 631447, Note_off_c, 0, 91, 64
2, 631464, Note_on_c, 0, 45, 85
2, 631472, Note_on_c, 0, 90, 88
2, 631474, Control_c, 0, 64, 127
2, 631474, Control_c, 0, 64, 127
2, 631507, Note_off_c, 0, 90, 64
2, 631512, Note_on_c, 0, 101, 88
2, 631530, Control_c, 0, 64, 127
2, 631530, Control_c, 0, 64, 127
2, 631534, Note_on_c, 0, 63, 38
2, 631542, Note_on_c, 0, 54, 3
2, 631552, Note_off_c, 0, 101, 64
2, 631552, Note_on_c, 0, 99, 101
2, 631582, Note_off_c, 0, 54, 64
2, 631587, Note_off_c, 0, 99, 64
2, 631594, Note_on_c, 0, 87, 84
2, 631599, Note_off_c, 0, 63, 64
2, 631609, Note_off_c, 0, 45, 64
2, 631629, Note_off_c, 0, 87, 64
2, 631634, Note_on_c, 0, 97, 100
2, 631662, Note_on_c, 0, 96, 83
2, 631664, Note_off_c, 0, 97, 64
2, 631702, Note_off_c, 0, 96, 64
2, 631704, Note_on_c, 0, 33, 57
2, 631707, Note_on_c, 0, 84, 81
2, 631727, Control_c, 0, 64, 0
2, 631727, Control_c, 0, 64, 0
2, 631742, Note_off_c, 0, 33, 64
2, 631749, Note_on_c, 0, 94, 80
2, 631752, Note_off_c, 0, 84, 64
2, 631782, Note_on_c, 0, 93, 96
2, 631783, Control_c, 0, 64, 0
2, 631783, Control_c, 0, 64, 0
2, 631787, Note_on_c, 0, 45, 91
2, 631792, Note_off_c, 0, 94, 64
2, 631822, Note_off_c, 0, 93, 64
2, 631827, Note_on_c, 0, 81, 79
2, 631864, Note_on_c, 0, 63, 52
2, 631864, Note_on_c, 0, 54, 31
2, 631869, Note_off_c, 0, 81, 64
2, 631872, Note_on_c, 0, 92, 92
2, 631897, Note_off_c, 0, 54, 64
2, 631907, Note_on_c, 0, 90, 76
2, 631912, Note_off_c, 0, 92, 64
2, 631917, Note_off_c, 0, 63, 64
2, 631932, Note_off_c, 0, 45, 64
2, 631947, Note_off_c, 0, 90, 64
2, 631959, Note_on_c, 0, 78, 75
2, 631992, Note_off_c, 0, 78, 64
2, 631994, Note_on_c, 0, 89, 74
2, 632027, Note_on_c, 0, 87, 88
2, 632032, Note_off_c, 0, 89, 64
2, 632037, Note_on_c, 0, 45, 52
2, 632049, Control_c, 0, 64, 127
2, 632049, Control_c, 0, 64, 127
2, 632059, Note_on_c, 0, 78, 72
2, 632064, Note_off_c, 0, 87, 64
2, 632072, Note_off_c, 0, 45, 64
2, 632087, Note_off_c, 0, 78, 64
2, 632105, Control_c, 0, 64, 127
2, 632105, Control_c, 0, 64, 127
2, 632107, Note_on_c, 0, 77, 71
2, 632119, Note_on_c, 0, 46, 95
2, 632167, Note_on_c, 0, 87, 69
2, 632174, Note_off_c, 0, 77, 64
2, 632179, Control_c, 0, 64, 0
2, 632179, Control_c, 0, 64, 0
2, 632199, Note_on_c, 0, 61, 66
2, 632202, Note_off_c, 0, 87, 64
2, 632202, Note_on_c, 0, 53, 55
2, 632207, Note_on_c, 0, 85, 68
2, 632235, Control_c, 0, 64, 0
2, 632235, Control_c, 0, 64, 0
2, 632239, Note_off_c, 0, 61, 64
2, 632242, Note_off_c, 0, 53, 64
2, 632247, Note_off_c, 0, 85, 64
2, 632252, Note_on_c, 0, 77, 67
2, 632264, Note_off_c, 0, 46, 64
2, 632292, Note_on_c, 0, 85, 66
2, 632297, Note_off_c, 0, 77, 64
2, 632327, Note_on_c, 0, 84, 64
2, 632342, Note_off_c, 0, 85, 64
2, 632342, Note_on_c, 0, 46, 53
2, 632364, Note_off_c, 0, 84, 64
2, 632367, Note_on_c, 0, 75, 64
2, 632372, Note_off_c, 0, 46, 64
2, 632397, Note_off_c, 0, 75, 64
2, 632407, Note_on_c, 0, 84, 62
2, 632437, Note_on_c, 0, 49, 82
2, 632442, Note_on_c, 0, 73, 61
2, 632447, Note_off_c, 0, 84, 64
2, 632482, Note_off_c, 0, 73, 64
2, 632482, Note_on_c, 0, 82, 60
2, 632522, Note_on_c, 0, 80, 59
2, 632527, Note_on_c, 0, 53, 52
2, 632532, Note_off_c, 0, 82, 64
2, 632532, Note_on_c, 0, 65, 50
2, 632534, Note_on_c, 0, 58, 38
2, 632534, Control_c, 0, 64, 127
2, 632534, Control_c, 0, 64, 127
2, 632559, Note_off_c, 0, 80, 64
2, 632562, Note_on_c, 0, 72, 58
2, 632567, Note_off_c, 0, 53, 64
2, 632572, Note_off_c, 0, 65, 64
2, 632574, Note_off_c, 0, 58, 64
2, 632582, Note_off_c, 0, 49, 64
2, 632590, Control_c, 0, 64, 127
2, 632590, Control_c, 0, 64, 127
2, 632597, Note_on_c, 0, 80, 56
2, 632607, Note_off_c, 0, 72, 64
2, 632637, Control_c, 0, 64, 0
2, 632639, Control_c, 0, 64, 0
2, 632649, Note_off_c, 0, 80, 64
2, 632649, Note_on_c, 0, 78, 56
2, 632674, Note_on_c, 0, 49, 52
2, 632677, Note_off_c, 0, 78, 64
2, 632679, Note_on_c, 0, 70, 55
2, 632693, Control_c, 0, 64, 0
2, 632695, Control_c, 0, 64, 0
2, 632712, Note_off_c, 0, 49, 64
2, 632719, Note_on_c, 0, 78, 53
2, 632727, Note_off_c, 0, 70, 64
2, 632754, Note_off_c, 0, 78, 64
2, 632767, Note_on_c, 0, 69, 66
2, 632772, Note_on_c, 0, 51, 67
2, 632814, Note_on_c, 0, 70, 66
2, 632839, Note_on_c, 0, 66, 43
2, 632839, Note_on_c, 0, 57, 51
2, 632842, Control_c, 0, 64, 127
2, 632842, Control_c, 0, 64, 127
2, 632847, Note_off_c, 0, 69, 64
2, 632854, Note_on_c, 0, 72, 66
2, 632874, Note_off_c, 0, 70, 64
2, 632879, Note_off_c, 0, 57, 64
2, 632879, Note_off_c, 0, 66, 64
2, 632889, Note_on_c, 0, 73, 66
2, 632898, Control_c, 0, 64, 127
2, 632898, Control_c, 0, 64, 127
2, 632917, Note_off_c, 0, 51, 64
2, 632927, Note_off_c, 0, 72, 64
2, 632937, Note_on_c, 0, 75, 66
2, 632949, Note_off_c, 0, 73, 64
2, 632962, Control_c, 0, 64, 0
2, 632962, Control_c, 0, 64, 0
2, 632972, Note_on_c, 0, 76, 66
2, 632982, Note_off_c, 0, 75, 64
2, 632992, Note_on_c, 0, 51, 65
2, 633007, Note_on_c, 0, 77, 66
2, 633018, Control_c, 0, 64, 0
2, 633018, Control_c, 0, 64, 0
2, 633022, Note_off_c, 0, 76, 64
2, 633042, Note_off_c, 0, 51, 64
2, 633042, Note_on_c, 0, 78, 66
2, 633057, Note_off_c, 0, 77, 64
2, 633087, Note_off_c, 0, 78, 64
2, 633092, Note_on_c, 0, 76, 66
2, 633102, Note_on_c, 0, 49, 88
2, 633122, Control_c, 0, 64, 127
2, 633122, Control_c, 0, 64, 127
2, 633129, Note_off_c, 0, 76, 64
2, 633132, Note_on_c, 0, 77, 66
2, 633167, Note_off_c, 0, 77, 64
2, 633174, Note_on_c, 0, 53, 69
2, 633177, Note_on_c, 0, 74, 66
2, 633178, Control_c, 0, 64, 127
2, 633178, Control_c, 0, 64, 127
2, 633179, Note_on_c, 0, 65, 70
2, 633179, Note_on_c, 0, 58, 73
2, 633184, Control_c, 0, 64, 0
2, 633184, Control_c, 0, 64, 0
2, 633204, Note_off_c, 0, 74, 64
2, 633209, Note_off_c, 0, 58, 64
2, 633209, Note_on_c, 0, 75, 66
2, 633214, Note_off_c, 0, 65, 64
2, 633214, Note_off_c, 0, 53, 64
2, 633240, Control_c, 0, 64, 0
2, 633240, Control_c, 0, 64, 0
2, 633247, Note_off_c, 0, 49, 64
2, 633249, Note_off_c, 0, 75, 64
2, 633254, Note_on_c, 0, 72, 66
2, 633287, Note_on_c, 0, 73, 66
2, 633294, Note_off_c, 0, 72, 64
2, 633317, Note_on_c, 0, 72, 66
2, 633327, Note_on_c, 0, 49, 79
2, 633342, Note_off_c, 0, 73, 64
2, 633359, Note_off_c, 0, 49, 64
2, 633362, Note_on_c, 0, 70, 66
2, 633374, Note_off_c, 0, 72, 64
2, 633402, Note_off_c, 0, 70, 64
2, 633404, Note_on_c, 0, 69, 66
2, 633409, Note_on_c, 0, 51, 84
2, 633427, Control_c, 0, 64, 127
2, 633427, Control_c, 0, 64, 127
2, 633442, Control_c, 0, 64, 0
2, 633442, Control_c, 0, 64, 0
2, 633447, Note_on_c, 0, 70, 66
2, 633457, Control_c, 0, 64, 127
2, 633457, Control_c, 0, 64, 127
2, 633483, Control_c, 0, 64, 127
2, 633483, Control_c, 0, 64, 127
2, 633484, Note_off_c, 0, 69, 64
2, 633487, Note_on_c, 0, 72, 66
2, 633487, Note_on_c, 0, 66, 88
2, 633492, Note_on_c, 0, 57, 69
2, 633498, Control_c, 0, 64, 0
2, 633498, Control_c, 0, 64, 0
2, 633502, Note_off_c, 0, 70, 64
2, 633513, Control_c, 0, 64, 127
2, 633513, Control_c, 0, 64, 127
2, 633527, Note_off_c, 0, 66, 64
2, 633527, Note_on_c, 0, 73, 66
2, 633532, Note_off_c, 0, 57, 64
2, 633554, Note_off_c, 0, 51, 64
2, 633562, Control_c, 0, 64, 0
2, 633562, Control_c, 0, 64, 0
2, 633567, Note_off_c, 0, 72, 64
2, 633574, Note_on_c, 0, 75, 66
2, 633589, Note_off_c, 0, 73, 64
2, 633617, Note_on_c, 0, 76, 66
2, 633618, Control_c, 0, 64, 0
2, 633618, Control_c, 0, 64, 0
2, 633622, Note_off_c, 0, 75, 64
2, 633632, Note_on_c, 0, 51, 86
2, 633657, Note_on_c, 0, 77, 66
2, 633667, Note_off_c, 0, 76, 64
2, 633672, Note_off_c, 0, 51, 64
2, 633687, Note_on_c, 0, 78, 66
2, 633702, Note_off_c, 0, 77, 64
2, 633724, Note_off_c, 0, 78, 64
2, 633732, Note_on_c, 0, 76, 66
2, 633739, Note_on_c, 0, 49, 97
2, 633764, Control_c, 0, 64, 127
2, 633764, Control_c, 0, 64, 127
2, 633767, Note_off_c, 0, 76, 64
2, 633769, Note_on_c, 0, 77, 66
2, 633807, Note_off_c, 0, 77, 64
2, 633814, Note_on_c, 0, 74, 66
2, 633814, Note_on_c, 0, 53, 78
2, 633819, Note_on_c, 0, 65, 77
2, 633820, Control_c, 0, 64, 127
2, 633820, Control_c, 0, 64, 127
2, 633824, Note_on_c, 0, 58, 80
2, 633844, Note_off_c, 0, 53, 64
2, 633844, Note_off_c, 0, 74, 64
2, 633852, Note_off_c, 0, 58, 64
2, 633852, Note_off_c, 0, 65, 64
2, 633852, Note_on_c, 0, 75, 66
2, 633852, Control_c, 0, 64, 0
2, 633852, Control_c, 0, 64, 0
2, 633882, Note_off_c, 0, 75, 64
2, 633884, Note_off_c, 0, 49, 64
2, 633894, Note_on_c, 0, 72, 66
2, 633908, Control_c, 0, 64, 0
2, 633908, Control_c, 0, 64, 0
2, 633924, Note_on_c, 0, 73, 66
2, 633937, Note_off_c, 0, 72, 64
2, 633954, Note_on_c, 0, 72, 66
2, 633962, Note_on_c, 0, 49, 69
2, 633969, Note_off_c, 0, 73, 64
2, 633989, Note_off_c, 0, 49, 64
2, 633999, Note_on_c, 0, 70, 66
2, 634009, Note_off_c, 0, 72, 64
2, 634037, Note_off_c, 0, 70, 64
2, 634044, Note_on_c, 0, 71, 66
2, 634049, Note_on_c, 0, 53, 75
2, 634077, Control_c, 0, 64, 127
2, 634077, Control_c, 0, 64, 127
2, 634089, Note_on_c, 0, 72, 66
2, 634107, Note_off_c, 0, 71, 64
2, 634127, Note_on_c, 0, 74, 66
2, 634133, Control_c, 0, 64, 127
2, 634133, Control_c, 0, 64, 127
2, 634134, Note_on_c, 0, 59, 68
2, 634137, Note_on_c, 0, 68, 87
2, 634157, Note_off_c, 0, 72, 64
2, 634164, Note_on_c, 0, 75, 66
2, 634174, Note_off_c, 0, 59, 64
2, 634177, Note_off_c, 0, 68, 64
2, 634192, Note_off_c, 0, 74, 64
2, 634194, Note_off_c, 0, 53, 64
2, 634202, Note_off_c, 0, 75, 64
2, 634209, Note_on_c, 0, 76, 66
2, 634232, Control_c, 0, 64, 0
2, 634234, Control_c, 0, 64, 0
2, 634252, Note_on_c, 0, 77, 66
2, 634277, Note_off_c, 0, 76, 64
2, 634277, Note_on_c, 0, 53, 79
2, 634279, Note_on_c, 0, 79, 66
2, 634288, Control_c, 0, 64, 0
2, 634290, Control_c, 0, 64, 0
2, 634292, Note_off_c, 0, 77, 64
2, 634312, Note_off_c, 0, 53, 64
2, 634312, Note_on_c, 0, 80, 66
2, 634334, Note_off_c, 0, 79, 64
2, 634352, Note_on_c, 0, 78, 66
2, 634367, Note_off_c, 0, 80, 64
2, 634367, Note_on_c, 0, 51, 86
2, 634387, Note_on_c, 0, 79, 66
2, 634394, Control_c, 0, 64, 127
2, 634394, Control_c, 0, 64, 127
2, 634404, Note_off_c, 0, 78, 64
2, 634424, Note_off_c, 0, 79, 64
2, 634439, Note_on_c, 0, 76, 66
2, 634439, Note_on_c, 0, 60, 80
2, 634444, Note_on_c, 0, 67, 81
2, 634447, Note_on_c, 0, 55, 73
2, 634450, Control_c, 0, 64, 127
2, 634450, Control_c, 0, 64, 127
2, 634469, Note_off_c, 0, 76, 64
2, 634472, Note_on_c, 0, 77, 66
2, 634484, Control_c, 0, 64, 0
2, 634492, Control_c, 0, 64, 0
2, 634504, Note_off_c, 0, 55, 64
2, 634509, Note_off_c, 0, 67, 64
2, 634509, Note_off_c, 0, 60, 64
2, 634512, Note_off_c, 0, 77, 64
2, 634512, Note_off_c, 0, 51, 64
2, 634519, Note_on_c, 0, 74, 66
2, 634540, Control_c, 0, 64, 0
2, 634548, Control_c, 0, 64, 0
2, 634557, Note_on_c, 0, 75, 66
2, 634569, Note_off_c, 0, 74, 64
2, 634594, Note_on_c, 0, 74, 66
2, 634597, Note_on_c, 0, 51, 78
2, 634602, Note_off_c, 0, 75, 64
2, 634634, Note_off_c, 0, 51, 64
2, 634634, Note_on_c, 0, 72, 66
2, 634649, Note_off_c, 0, 74, 64
2, 634679, Note_off_c, 0, 72, 64
2, 634682, Note_on_c, 0, 71, 66
2, 634682, Note_on_c, 0, 53, 88
2, 634707, Control_c, 0, 64, 127
2, 634707, Control_c, 0, 64, 127
2, 634722, Note_on_c, 0, 72, 66
2, 634742, Note_off_c, 0, 71, 64
2, 634759, Note_on_c, 0, 68, 101
2, 634762, Note_on_c, 0, 74, 66
2, 634763, Control_c, 0, 64, 127
2, 634763, Control_c, 0, 64, 127
2, 634764, Note_on_c, 0, 59, 71
2, 634787, Note_off_c, 0, 72, 64
2, 634797, Note_on_c, 0, 75, 66
2, 634799, Note_off_c, 0, 68, 64
2, 634804, Note_off_c, 0, 59, 64
2, 634824, Control_c, 0, 64, 0
2, 634824, Control_c, 0, 64, 0
2, 634827, Note_off_c, 0, 74, 64
2, 634827, Note_off_c, 0, 53, 64
2, 634837, Note_off_c, 0, 75, 64
2, 634842, Note_on_c, 0, 76, 66
2, 634880, Control_c, 0, 64, 0
2, 634880, Control_c, 0, 64, 0
2, 634882, Note_on_c, 0, 77, 66
2, 634902, Note_off_c, 0, 76, 64
2, 634917, Note_on_c, 0, 53, 86
2, 634919, Note_on_c, 0, 79, 66
2, 634932, Note_off_c, 0, 77, 64
2, 634949, Note_off_c, 0, 53, 64
2, 634952, Note_on_c, 0, 80, 66
2, 634977, Note_off_c, 0, 79, 64
2, 634994, Note_on_c, 0, 78, 66
2, 634994, Note_on_c, 0, 51, 95
2, 635002, Note_off_c, 0, 80, 64
2, 635014, Control_c, 0, 64, 127
2, 635014, Control_c, 0, 64, 127
2, 635032, Note_off_c, 0, 78, 64
2, 635037, Note_on_c, 0, 79, 66
2, 635070, Control_c, 0, 64, 127
2, 635070, Control_c, 0, 64, 127
2, 635074, Note_off_c, 0, 79, 64
2, 635074, Note_on_c, 0, 67, 64
2, 635079, Note_on_c, 0, 60, 67
2, 635084, Note_on_c, 0, 76, 66
2, 635087, Note_on_c, 0, 55, 77
2, 635109, Note_off_c, 0, 76, 64
2, 635112, Note_on_c, 0, 77, 66
2, 635114, Note_off_c, 0, 67, 64
2, 635117, Note_off_c, 0, 55, 64
2, 635119, Note_off_c, 0, 60, 64
2, 635124, Control_c, 0, 64, 0
2, 635124, Control_c, 0, 64, 0
2, 635139, Note_off_c, 0, 51, 64
2, 635147, Note_off_c, 0, 77, 64
2, 635157, Note_on_c, 0, 74, 66
2, 635180, Control_c, 0, 64, 0
2, 635180, Control_c, 0, 64, 0
2, 635192, Note_on_c, 0, 75, 66
2, 635199, Note_off_c, 0, 74, 64
2, 635222, Note_on_c, 0, 74, 66
2, 635222, Note_on_c, 0, 51, 77
2, 635237, Note_off_c, 0, 75, 64
2, 635254, Note_off_c, 0, 51, 64
2, 635262, Note_off_c, 0, 74, 64
2, 635267, Note_on_c, 0, 72, 66
2, 635302, Note_on_c, 0, 53, 94
2, 635304, Note_on_c, 0, 73, 67
2, 635317, Note_off_c, 0, 72, 64
2, 635327, Control_c, 0, 64, 127
2, 635327, Control_c, 0, 64, 127
2, 635347, Note_on_c, 0, 75, 71
2, 635362, Note_off_c, 0, 73, 64
2, 635382, Note_on_c, 0, 61, 80
2, 635382, Note_on_c, 0, 56, 63
2, 635383, Control_c, 0, 64, 127
2, 635383, Control_c, 0, 64, 127
2, 635384, Note_off_c, 0, 75, 64
2, 635389, Note_on_c, 0, 68, 66
2, 635392, Note_on_c, 0, 77, 77
2, 635422, Note_off_c, 0, 56, 64
2, 635422, Note_off_c, 0, 61, 64
2, 635427, Note_on_c, 0, 78, 80
2, 635429, Note_off_c, 0, 68, 64
2, 635442, Control_c, 0, 64, 0
2, 635442, Control_c, 0, 64, 0
2, 635447, Note_off_c, 0, 77, 64
2, 635447, Note_off_c, 0, 53, 64
2, 635464, Note_on_c, 0, 80, 84
2, 635492, Note_off_c, 0, 78, 64
2, 635498, Control_c, 0, 64, 0
2, 635498, Control_c, 0, 64, 0
2, 635502, Note_on_c, 0, 82, 88
2, 635517, Note_off_c, 0, 80, 64
2, 635524, Note_on_c, 0, 53, 87
2, 635527, Note_off_c, 0, 82, 64
2, 635537, Note_on_c, 0, 83, 92
2, 635564, Note_off_c, 0, 53, 64
2, 635577, Note_on_c, 0, 84, 97
2, 635582, Note_off_c, 0, 83, 64
2, 635612, Note_on_c, 0, 54, 92
2, 635614, Note_on_c, 0, 85, 100
2, 635624, Note_off_c, 0, 84, 64
2, 635639, Control_c, 0, 64, 127
2, 635639, Control_c, 0, 64, 127
2, 635659, Note_off_c, 0, 85, 64
2, 635659, Note_on_c, 0, 86, 105
2, 635694, Note_on_c, 0, 69, 109
2, 635695, Control_c, 0, 64, 127
2, 635695, Control_c, 0, 64, 127
2, 635697, Note_on_c, 0, 57, 73
2, 635702, Note_off_c, 0, 86, 64
2, 635702, Note_on_c, 0, 89, 110
2, 635702, Note_on_c, 0, 60, 70
2, 635732, Note_on_c, 0, 87, 100
2, 635734, Note_off_c, 0, 89, 64
2, 635734, Note_off_c, 0, 69, 64
2, 635742, Note_off_c, 0, 60, 64
2, 635742, Note_off_c, 0, 57, 64
2, 635742, Control_c, 0, 64, 0
2, 635742, Control_c, 0, 64, 0
2, 635757, Note_off_c, 0, 54, 64
2, 635762, Note_on_c, 0, 84, 94
2, 635772, Note_off_c, 0, 87, 64
2, 635798, Control_c, 0, 64, 0
2, 635798, Control_c, 0, 64, 0
2, 635802, Note_off_c, 0, 84, 64
2, 635802, Note_on_c, 0, 81, 87
2, 635824, Note_off_c, 0, 81, 64
2, 635834, Note_on_c, 0, 54, 93
2, 635842, Note_on_c, 0, 78, 79
2, 635872, Note_off_c, 0, 78, 64
2, 635872, Note_off_c, 0, 54, 64
2, 635882, Note_on_c, 0, 75, 71
2, 635917, Note_on_c, 0, 73, 66
2, 635919, Note_on_c, 0, 53, 97
2, 635927, Note_off_c, 0, 75, 64
2, 635942, Control_c, 0, 64, 127
2, 635942, Control_c, 0, 64, 127
2, 635957, Note_on_c, 0, 75, 70
2, 635972, Note_off_c, 0, 73, 64
2, 635992, Note_off_c, 0, 75, 64
2, 635992, Note_on_c, 0, 61, 81
2, 635992, Note_on_c, 0, 56, 82
2, 635997, Note_on_c, 0, 68, 66
2, 635998, Control_c, 0, 64, 127
2, 635998, Control_c, 0, 64, 127
2, 636002, Note_on_c, 0, 77, 75
2, 636032, Note_off_c, 0, 56, 64
2, 636032, Note_off_c, 0, 61, 64
2, 636034, Note_on_c, 0, 78, 79
2, 636037, Note_off_c, 0, 68, 64
2, 636057, Note_off_c, 0, 77, 64
2, 636064, Note_off_c, 0, 53, 64
2, 636064, Control_c, 0, 64, 0
2, 636064, Control_c, 0, 64, 0
2, 636069, Note_on_c, 0, 80, 83
2, 636107, Note_off_c, 0, 78, 64
2, 636109, Note_on_c, 0, 82, 87
2, 636120, Control_c, 0, 64, 0
2, 636120, Control_c, 0, 64, 0
2, 636127, Note_off_c, 0, 80, 64
2, 636129, Note_on_c, 0, 53, 85
2, 636142, Note_off_c, 0, 82, 64
2, 636154, Note_on_c, 0, 83, 92
2, 636162, Note_off_c, 0, 53, 64
2, 636192, Note_on_c, 0, 84, 96
2, 636222, Note_on_c, 0, 52, 62
2, 636234, Note_on_c, 0, 85, 100
2, 636239, Note_off_c, 0, 83, 64
2, 636242, Note_off_c, 0, 84, 64
2, 636242, Control_c, 0, 64, 127
2, 636244, Control_c, 0, 64, 127
2, 636272, Note_on_c, 0, 84, 104
2, 636274, Note_off_c, 0, 85, 64
2, 636298, Control_c, 0, 64, 127
2, 636300, Control_c, 0, 64, 127
2, 636302, Note_on_c, 0, 61, 71
2, 636312, Note_on_c, 0, 58, 76
2, 636314, Note_on_c, 0, 87, 109
2, 636314, Note_on_c, 0, 67, 66
2, 636317, Note_off_c, 0, 84, 64
2, 636342, Note_off_c, 0, 61, 64
2, 636347, Note_on_c, 0, 85, 103
2, 636352, Note_off_c, 0, 58, 64
2, 636354, Note_off_c, 0, 67, 64
2, 636359, Note_off_c, 0, 87, 64
2, 636369, Control_c, 0, 64, 0
2, 636369, Control_c, 0, 64, 0
2, 636374, Note_off_c, 0, 52, 64
2, 636379, Note_on_c, 0, 82, 95
2, 636387, Note_off_c, 0, 85, 64
2, 636409, Note_off_c, 0, 82, 64
2, 636409, Note_on_c, 0, 79, 89
2, 636425, Control_c, 0, 64, 0
2, 636425, Control_c, 0, 64, 0
2, 636432, Note_off_c, 0, 79, 64
2, 636449, Note_on_c, 0, 76, 79
2, 636459, Note_on_c, 0, 52, 90
2, 636487, Note_on_c, 0, 73, 71
2, 636494, Note_off_c, 0, 52, 64
2, 636499, Note_off_c, 0, 76, 64
2, 636527, Note_off_c, 0, 73, 64
2, 636527, Note_on_c, 0, 51, 106
2, 636532, Note_on_c, 0, 72, 67
2, 636547, Control_c, 0, 64, 127
2, 636547, Control_c, 0, 64, 127
2, 636567, Note_on_c, 0, 73, 71
2, 636592, Note_off_c, 0, 72, 64
2, 636602, Note_on_c, 0, 74, 75
2, 636603, Control_c, 0, 64, 127
2, 636603, Control_c, 0, 64, 127
2, 636607, Note_on_c, 0, 57, 86
2, 636612, Note_on_c, 0, 66, 66
2, 636632, Note_off_c, 0, 73, 64
2, 636642, Note_on_c, 0, 75, 79
2, 636647, Note_off_c, 0, 57, 64
2, 636652, Note_off_c, 0, 66, 64
2, 636652, Note_off_c, 0, 74, 64
2, 636657, Control_c, 0, 64, 0
2, 636657, Control_c, 0, 64, 0
2, 636669, Note_off_c, 0, 75, 64
2, 636672, Note_off_c, 0, 51, 64
2, 636672, Note_on_c, 0, 76, 83
2, 636709, Note_on_c, 0, 77, 87
2, 636713, Control_c, 0, 64, 0
2, 636713, Control_c, 0, 64, 0
2, 636722, Note_off_c, 0, 76, 64
2, 636752, Note_on_c, 0, 51, 98
2, 636754, Note_on_c, 0, 78, 92
2, 636764, Note_off_c, 0, 77, 64
2, 636784, Note_off_c, 0, 78, 64
2, 636784, Note_off_c, 0, 51, 64
2, 636792, Note_on_c, 0, 79, 97
2, 636822, Note_off_c, 0, 79, 64
2, 636829, Note_on_c, 0, 80, 100
2, 636832, Note_on_c, 0, 49, 113
2, 636859, Note_on_c, 0, 81, 104
2, 636869, Note_off_c, 0, 80, 64
2, 636902, Note_on_c, 0, 84, 108
2, 636917, Note_on_c, 0, 65, 66
2, 636917, Note_on_c, 0, 58, 82
2, 636917, Note_on_c, 0, 53, 80
2, 636919, Note_off_c, 0, 81, 64
2, 636932, Control_c, 0, 64, 127
2, 636932, Control_c, 0, 64, 127
2, 636942, Note_on_c, 0, 82, 104
2, 636954, Note_off_c, 0, 84, 64
2, 636969, Note_off_c, 0, 65, 64
2, 636974, Note_on_c, 0, 78, 100
2, 636977, Note_off_c, 0, 58, 64
2, 636977, Note_off_c, 0, 49, 64
2, 636987, Note_off_c, 0, 53, 64
2, 636988, Control_c, 0, 64, 127
2, 636988, Control_c, 0, 64, 127
2, 636994, Note_off_c, 0, 82, 64
2, 637009, Note_on_c, 0, 77, 95
2, 637012, Note_off_c, 0, 78, 64
2, 637042, Note_off_c, 0, 77, 64
2, 637054, Note_on_c, 0, 75, 88
2, 637087, Note_on_c, 0, 73, 83
2, 637102, Note_off_c, 0, 75, 64
2, 637102, Control_c, 0, 64, 0
2, 637102, Control_c, 0, 64, 0
2, 637127, Note_on_c, 0, 72, 79
2, 637127, Note_on_c, 0, 41, 96
2, 637132, Note_off_c, 0, 73, 64
2, 637149, Control_c, 0, 64, 127
2, 637149, Control_c, 0, 64, 127
2, 637158, Control_c, 0, 64, 0
2, 637158, Control_c, 0, 64, 0
2, 637167, Note_on_c, 0, 70, 79
2, 637177, Note_off_c, 0, 72, 64
2, 637197, Note_off_c, 0, 41, 64
2, 637204, Note_on_c, 0, 69, 80
2, 637205, Control_c, 0, 64, 127
2, 637205, Control_c, 0, 64, 127
2, 637217, Note_off_c, 0, 70, 64
2, 637247, Note_off_c, 0, 69, 64
2, 637247, Note_on_c, 0, 72, 81
2, 637252, Control_c, 0, 64, 0
2, 637252, Control_c, 0, 64, 0
2, 637264, Note_on_c, 0, 48, 81
2, 637274, Note_on_c, 0, 51, 92
2, 637282, Note_on_c, 0, 57, 96
2, 637292, Note_on_c, 0, 66, 82
2, 637292, Note_on_c, 0, 63, 127
2, 637304, Note_off_c, 0, 72, 64
2, 637308, Control_c, 0, 64, 0
2, 637308, Control_c, 0, 64, 0
2, 637327, Note_on_c, 0, 65, 83
2, 637329, Control_c, 0, 64, 127
2, 637329, Control_c, 0, 64, 127
2, 637367, Note_off_c, 0, 66, 64
2, 637367, Note_on_c, 0, 64, 84
2, 637369, Note_off_c, 0, 65, 64
2, 637382, Note_off_c, 0, 51, 64
2, 637382, Note_off_c, 0, 48, 64
2, 637385, Control_c, 0, 64, 127
2, 637385, Control_c, 0, 64, 127
2, 637392, Note_off_c, 0, 57, 64
2, 637404, Note_on_c, 0, 65, 85
2, 637422, Note_off_c, 0, 63, 64
2, 637429, Note_off_c, 0, 64, 64
2, 637442, Note_on_c, 0, 66, 85
2, 637454, Note_off_c, 0, 65, 64
2, 637479, Note_on_c, 0, 65, 86
2, 637492, Note_off_c, 0, 66, 64
2, 637514, Note_on_c, 0, 70, 87
2, 637542, Note_off_c, 0, 65, 64
2, 637544, Note_on_c, 0, 69, 87
2, 637554, Control_c, 0, 64, 0
2, 637557, Control_c, 0, 64, 0
2, 637584, Note_off_c, 0, 70, 64
2, 637592, Note_on_c, 0, 73, 89
2, 637597, Note_off_c, 0, 69, 64
2, 637610, Control_c, 0, 64, 0
2, 637613, Control_c, 0, 64, 0
2, 637632, Note_on_c, 0, 72, 89
2, 637639, Note_off_c, 0, 73, 64
2, 637672, Note_on_c, 0, 80, 90
2, 637712, Note_on_c, 0, 78, 91
2, 637727, Note_off_c, 0, 80, 64
2, 637737, Note_off_c, 0, 72, 64
2, 637754, Note_on_c, 0, 77, 92
2, 637757, Note_on_c, 0, 46, 118
2, 637759, Note_on_c, 0, 34, 57
2, 637784, Note_off_c, 0, 78, 64
2, 637802, Note_on_c, 0, 72, 93
2, 637817, Note_off_c, 0, 77, 64
2, 637834, Note_on_c, 0, 75, 93
2, 637834, Note_on_c, 0, 53, 90
2, 637837, Note_on_c, 0, 61, 118
2, 637837, Note_on_c, 0, 49, 80
2, 637847, Note_off_c, 0, 72, 64
2, 637852, Control_c, 0, 64, 127
2, 637854, Control_c, 0, 64, 127
2, 637872, Control_c, 0, 64, 0
2, 637872, Control_c, 0, 64, 0
2, 637874, Note_on_c, 0, 73, 95
2, 637879, Note_off_c, 0, 53, 64
2, 637882, Note_off_c, 0, 61, 64
2, 637887, Note_off_c, 0, 49, 64
2, 637889, Note_off_c, 0, 75, 64
2, 637902, Note_off_c, 0, 46, 64
2, 637904, Note_off_c, 0, 34, 64
2, 637908, Control_c, 0, 64, 127
2, 637910, Control_c, 0, 64, 127
2, 637917, Note_on_c, 0, 65, 66
2, 637919, Note_off_c, 0, 73, 64
2, 637928, Control_c, 0, 64, 0
2, 637928, Control_c, 0, 64, 0
2, 637954, Note_on_c, 0, 69, 96
2, 637972, Note_off_c, 0, 65, 64
2, 637992, Note_on_c, 0, 70, 97
2, 637992, Note_on_c, 0, 41, 100
2, 637992, Note_on_c, 0, 29, 80
2, 638012, Note_off_c, 0, 69, 64
2, 638017, Note_off_c, 0, 41, 64
2, 638022, Note_off_c, 0, 29, 64
2, 638032, Note_off_c, 0, 70, 64
2, 638039, Note_on_c, 0, 72, 98
2, 638077, Note_on_c, 0, 73, 99
2, 638079, Note_on_c, 0, 46, 118
2, 638079, Note_on_c, 0, 34, 80
2, 638094, Note_off_c, 0, 72, 64
2, 638114, Note_on_c, 0, 75, 99
2, 638129, Note_off_c, 0, 73, 64
2, 638149, Note_off_c, 0, 75, 64
2, 638159, Note_on_c, 0, 61, 123
2, 638159, Note_on_c, 0, 53, 94
2, 638159, Note_on_c, 0, 49, 80
2, 638162, Note_on_c, 0, 77, 100
2, 638187, Note_off_c, 0, 46, 64
2, 638194, Note_on_c, 0, 79, 100
2, 638199, Note_off_c, 0, 34, 64
2, 638204, Note_off_c, 0, 49, 64
2, 638204, Note_off_c, 0, 53, 64
2, 638204, Note_off_c, 0, 61, 64
2, 638214, Note_off_c, 0, 77, 64
2, 638227, Note_on_c, 0, 81, 101
2, 638262, Note_on_c, 0, 82, 102
2, 638264, Note_off_c, 0, 79, 64
2, 638279, Note_off_c, 0, 81, 64
2, 638302, Note_on_c, 0, 41, 115
2, 638302, Note_on_c, 0, 29, 80
2, 638307, Note_on_c, 0, 84, 103
2, 638322, Note_off_c, 0, 82, 64
2, 638332, Note_off_c, 0, 29, 64
2, 638332, Note_off_c, 0, 41, 64
2, 638344, Note_on_c, 0, 85, 104
2, 638352, Note_off_c, 0, 84, 64
2, 638372, Note_on_c, 0, 87, 104
2, 638372, Note_on_c, 0, 34, 80
2, 638377, Note_on_c, 0, 46, 123
2, 638392, Note_off_c, 0, 85, 64
2, 638412, Note_on_c, 0, 89, 105
2, 638432, Note_off_c, 0, 87, 64
2, 638459, Note_on_c, 0, 61, 118
2, 638459, Note_on_c, 0, 53, 93
2, 638459, Note_on_c, 0, 49, 80
2, 638462, Note_on_c, 0, 91, 106
2, 638474, Note_off_c, 0, 89, 64
2, 638492, Note_off_c, 0, 46, 64
2, 638492, Note_off_c, 0, 34, 64
2, 638499, Note_on_c, 0, 93, 106
2, 638504, Note_off_c, 0, 49, 64
2, 638504, Note_off_c, 0, 53, 64
2, 638504, Note_off_c, 0, 61, 64
2, 638522, Note_off_c, 0, 91, 64
2, 638539, Note_on_c, 0, 94, 107
2, 638557, Note_off_c, 0, 93, 64
2, 638582, Note_on_c, 0, 96, 127
2, 638602, Note_off_c, 0, 94, 64
2, 638607, Note_on_c, 0, 29, 80
2, 638612, Note_on_c, 0, 41, 101
2, 638614, Note_on_c, 0, 97, 127
2, 638637, Note_off_c, 0, 29, 64
2, 638642, Note_off_c, 0, 41, 64
2, 638654, Note_on_c, 0, 99, 110
2, 638657, Note_off_c, 0, 96, 64
2, 638677, Note_off_c, 0, 97, 64
2, 638679, Note_on_c, 0, 46, 127
2, 638679, Note_on_c, 0, 34, 92
2, 638694, Note_on_c, 0, 100, 110
2, 638704, Note_off_c, 0, 99, 64
2, 638719, Note_on_c, 0, 101, 111
2, 638747, Note_off_c, 0, 100, 64
2, 638757, Note_on_c, 0, 99, 105
2, 638757, Note_on_c, 0, 61, 115
2, 638759, Note_on_c, 0, 53, 93
2, 638759, Note_on_c, 0, 49, 80
2, 638787, Note_off_c, 0, 101, 64
2, 638787, Control_c, 0, 64, 127
2, 638787, Control_c, 0, 64, 127
2, 638789, Note_off_c, 0, 99, 64
2, 638797, Note_off_c, 0, 61, 64
2, 638797, Note_on_c, 0, 97, 104
2, 638799, Note_off_c, 0, 34, 64
2, 638804, Note_off_c, 0, 49, 64
2, 638804, Note_off_c, 0, 53, 64
2, 638807, Note_off_c, 0, 46, 64
2, 638807, Control_c, 0, 64, 0
2, 638807, Control_c, 0, 64, 0
2, 638822, Note_off_c, 0, 97, 64
2, 638832, Note_on_c, 0, 96, 103
2, 638843, Control_c, 0, 64, 127
2, 638843, Control_c, 0, 64, 127
2, 638857, Note_off_c, 0, 96, 64
2, 638862, Note_on_c, 0, 94, 102
2, 638863, Control_c, 0, 64, 0
2, 638863, Control_c, 0, 64, 0
2, 638894, Note_on_c, 0, 41, 100
2, 638899, Note_on_c, 0, 29, 80
2, 638902, Note_off_c, 0, 94, 64
2, 638902, Note_on_c, 0, 93, 102
2, 638929, Note_off_c, 0, 29, 64
2, 638929, Note_off_c, 0, 41, 64
2, 638937, Note_on_c, 0, 94, 100
2, 638962, Note_off_c, 0, 93, 64
2, 638974, Note_on_c, 0, 34, 80
2, 638977, Note_on_c, 0, 92, 100
2, 638979, Note_on_c, 0, 46, 118
2, 639002, Note_off_c, 0, 94, 64
2, 639017, Note_on_c, 0, 90, 99
2, 639034, Note_off_c, 0, 92, 64
2, 639054, Note_on_c, 0, 53, 92
2, 639054, Note_on_c, 0, 49, 80
2, 639057, Note_on_c, 0, 89, 98
2, 639059, Note_on_c, 0, 61, 110
2, 639062, Note_off_c, 0, 90, 64
2, 639094, Note_on_c, 0, 88, 97
2, 639099, Note_off_c, 0, 89, 64
2, 639099, Note_off_c, 0, 49, 64
2, 639099, Note_off_c, 0, 53, 64
2, 639104, Note_off_c, 0, 61, 64
2, 639119, Note_off_c, 0, 34, 64
2, 639124, Note_off_c, 0, 46, 64
2, 639132, Note_on_c, 0, 89, 96
2, 639142, Note_off_c, 0, 88, 64
2, 639174, Note_on_c, 0, 87, 95
2, 639194, Note_off_c, 0, 89, 64
2, 639207, Note_on_c, 0, 85, 95
2, 639207, Note_on_c, 0, 41, 88
2, 639207, Note_on_c, 0, 29, 80
2, 639227, Note_off_c, 0, 87, 64
2, 639232, Note_off_c, 0, 41, 64
2, 639237, Note_off_c, 0, 29, 64
2, 639247, Note_off_c, 0, 85, 64
2, 639249, Note_on_c, 0, 84, 93
2, 639274, Note_on_c, 0, 34, 80
2, 639279, Note_on_c, 0, 46, 120
2, 639282, Note_on_c, 0, 82, 93
2, 639299, Note_off_c, 0, 84, 64
2, 639324, Note_on_c, 0, 81, 92
2, 639327, Note_off_c, 0, 82, 64
2, 639352, Note_on_c, 0, 61, 113
2, 639352, Note_on_c, 0, 53, 89
2, 639352, Note_on_c, 0, 49, 80
2, 639359, Note_on_c, 0, 82, 91
2, 639364, Note_off_c, 0, 81, 64
2, 639397, Note_off_c, 0, 49, 64
2, 639397, Note_on_c, 0, 80, 90
2, 639402, Note_off_c, 0, 53, 64
2, 639407, Note_off_c, 0, 61, 64
2, 639419, Note_off_c, 0, 34, 64
2, 639424, Note_off_c, 0, 82, 64
2, 639424, Note_off_c, 0, 46, 64
2, 639432, Note_on_c, 0, 78, 89
2, 639452, Note_off_c, 0, 80, 64
2, 639467, Note_on_c, 0, 77, 88
2, 639472, Note_off_c, 0, 78, 64
2, 639502, Note_on_c, 0, 41, 113
2, 639502, Note_on_c, 0, 29, 80
2, 639507, Note_off_c, 0, 77, 64
2, 639507, Note_on_c, 0, 75, 87
2, 639532, Note_off_c, 0, 29, 64
2, 639532, Note_off_c, 0, 41, 64
2, 639547, Note_on_c, 0, 73, 86
2, 639564, Note_off_c, 0, 75, 64
2, 639587, Note_on_c, 0, 46, 120
2, 639589, Note_on_c, 0, 72, 85
2, 639592, Note_off_c, 0, 73, 64
2, 639592, Note_on_c, 0, 34, 80
2, 639624, Note_on_c, 0, 73, 85
2, 639637, Note_off_c, 0, 72, 64
2, 639662, Note_on_c, 0, 63, 101
2, 639662, Note_on_c, 0, 54, 73
2, 639662, Note_on_c, 0, 51, 79
2, 639664, Note_on_c, 0, 75, 86
2, 639672, Note_off_c, 0, 73, 64
2, 639699, Note_on_c, 0, 77, 87
2, 639707, Note_off_c, 0, 51, 64
2, 639707, Note_off_c, 0, 54, 64
2, 639707, Note_off_c, 0, 63, 64
2, 639727, Note_off_c, 0, 75, 64
2, 639732, Note_off_c, 0, 46, 64
2, 639734, Note_on_c, 0, 78, 87
2, 639737, Note_off_c, 0, 34, 64
2, 639764, Note_off_c, 0, 77, 64
2, 639779, Note_on_c, 0, 80, 88
2, 639792, Note_off_c, 0, 78, 64
2, 639802, Note_on_c, 0, 41, 106
2, 639802, Note_on_c, 0, 29, 113
2, 639809, Note_on_c, 0, 82, 89
2, 639837, Note_off_c, 0, 80, 64
2, 639847, Note_off_c, 0, 29, 64
2, 639847, Note_off_c, 0, 41, 64
2, 639849, Note_on_c, 0, 84, 89
2, 639862, Note_off_c, 0, 82, 64
2, 639879, Note_on_c, 0, 34, 80
2, 639882, Note_on_c, 0, 46, 125
2, 639887, Note_on_c, 0, 82, 89
2, 639904, Note_off_c, 0, 84, 64
2, 639927, Note_on_c, 0, 80, 90
2, 639952, Note_off_c, 0, 82, 64
2, 639952, Note_on_c, 0, 78, 91
2, 639952, Note_on_c, 0, 63, 92
2, 639954, Note_on_c, 0, 54, 50
2, 639954, Note_on_c, 0, 51, 76
2, 639977, Note_off_c, 0, 80, 64
2, 639987, Note_on_c, 0, 77, 91
2, 639997, Note_off_c, 0, 63, 64
2, 639999, Note_off_c, 0, 51, 64
2, 639999, Note_off_c, 0, 54, 64
2, 639999, Note_off_c, 0, 78, 64
2, 640024, Note_off_c, 0, 34, 64
2, 640027, Note_off_c, 0, 46, 64
2, 640037, Note_off_c, 0, 77, 64
2, 640037, Note_on_c, 0, 75, 92
2, 640077, Note_on_c, 0, 73, 92
2, 640087, Note_off_c, 0, 75, 64
2, 640112, Note_on_c, 0, 72, 93
2, 640112, Note_on_c, 0, 41, 93
2, 640114, Note_on_c, 0, 29, 80
2, 640117, Note_off_c, 0, 73, 64
2, 640142, Note_off_c, 0, 41, 64
2, 640142, Note_on_c, 0, 75, 93
2, 640144, Note_off_c, 0, 29, 64
2, 640174, Note_off_c, 0, 72, 64
2, 640174, Note_on_c, 0, 45, 118
2, 640179, Note_on_c, 0, 78, 94
2, 640179, Note_on_c, 0, 33, 110
2, 640189, Note_off_c, 0, 75, 64
2, 640209, Control_c, 0, 64, 127
2, 640212, Control_c, 0, 64, 127
2, 640224, Note_on_c, 0, 74, 95
2, 640224, Control_c, 0, 64, 0
2, 640224, Control_c, 0, 64, 0
2, 640239, Control_c, 0, 64, 127
2, 640239, Control_c, 0, 64, 127
2, 640247, Note_off_c, 0, 78, 64
2, 640265, Control_c, 0, 64, 127
2, 640267, Note_on_c, 0, 51, 86
2, 640268, Control_c, 0, 64, 127
2, 640272, Note_off_c, 0, 74, 64
2, 640272, Note_on_c, 0, 77, 95
2, 640272, Note_on_c, 0, 63, 50
2, 640272, Note_on_c, 0, 54, 64
2, 640280, Control_c, 0, 64, 0
2, 640280, Control_c, 0, 64, 0
2, 640295, Control_c, 0, 64, 127
2, 640295, Control_c, 0, 64, 127
2, 640297, Note_on_c, 0, 75, 95
2, 640307, Note_off_c, 0, 77, 64
2, 640312, Note_off_c, 0, 51, 64
2, 640317, Note_off_c, 0, 54, 64
2, 640317, Note_off_c, 0, 63, 64
2, 640319, Note_off_c, 0, 45, 64
2, 640324, Note_off_c, 0, 33, 64
2, 640327, Note_on_c, 0, 72, 96
2, 640337, Note_off_c, 0, 75, 64
2, 640362, Note_off_c, 0, 72, 64
2, 640369, Note_on_c, 0, 66, 66
2, 640412, Note_off_c, 0, 66, 64
2, 640414, Note_on_c, 0, 39, 105
2, 640414, Note_on_c, 0, 27, 92
2, 640417, Note_on_c, 0, 71, 97
2, 640439, Note_off_c, 0, 39, 64
2, 640439, Control_c, 0, 64, 0
2, 640439, Control_c, 0, 64, 0
2, 640444, Note_off_c, 0, 27, 64
2, 640467, Note_on_c, 0, 72, 98
2, 640482, Note_on_c, 0, 33, 116
2, 640484, Note_on_c, 0, 73, 98
2, 640487, Note_on_c, 0, 45, 127
2, 640492, Note_off_c, 0, 71, 64
2, 640495, Control_c, 0, 64, 0
2, 640495, Control_c, 0, 64, 0
2, 640507, Note_off_c, 0, 72, 64
2, 640514, Control_c, 0, 64, 127
2, 640514, Control_c, 0, 64, 127
2, 640524, Note_off_c, 0, 73, 64
2, 640527, Note_on_c, 0, 72, 99
2, 640529, Control_c, 0, 64, 0
2, 640529, Control_c, 0, 64, 0
2, 640562, Note_on_c, 0, 63, 106
2, 640562, Note_on_c, 0, 54, 83
2, 640567, Note_on_c, 0, 74, 99
2, 640567, Note_on_c, 0, 51, 93
2, 640570, Control_c, 0, 64, 127
2, 640570, Control_c, 0, 64, 127
2, 640572, Note_off_c, 0, 72, 64
2, 640585, Control_c, 0, 64, 0
2, 640585, Control_c, 0, 64, 0
2, 640602, Note_off_c, 0, 74, 64
2, 640602, Note_off_c, 0, 54, 64
2, 640602, Note_on_c, 0, 75, 100
2, 640604, Note_off_c, 0, 51, 64
2, 640607, Note_off_c, 0, 63, 64
2, 640627, Note_off_c, 0, 33, 64
2, 640632, Note_off_c, 0, 45, 64
2, 640632, Note_on_c, 0, 76, 100
2, 640659, Note_off_c, 0, 75, 64
2, 640667, Note_on_c, 0, 75, 100
2, 640692, Note_off_c, 0, 76, 64
2, 640707, Note_off_c, 0, 75, 64
2, 640712, Note_on_c, 0, 76, 101
2, 640712, Note_on_c, 0, 39, 127
2, 640712, Note_on_c, 0, 27, 96
2, 640737, Note_off_c, 0, 39, 64
2, 640742, Note_off_c, 0, 27, 64
2, 640752, Note_on_c, 0, 77, 102
2, 640762, Note_off_c, 0, 76, 64
2, 640782, Note_on_c, 0, 33, 123
2, 640787, Note_on_c, 0, 45, 127
2, 640789, Note_on_c, 0, 80, 102
2, 640792, Note_off_c, 0, 77, 64
2, 640822, Note_on_c, 0, 78, 103
2, 640852, Note_off_c, 0, 80, 64
2, 640859, Note_on_c, 0, 51, 90
2, 640862, Note_on_c, 0, 83, 104
2, 640862, Note_on_c, 0, 63, 48
2, 640867, Note_on_c, 0, 54, 88
2, 640877, Note_off_c, 0, 78, 64
2, 640894, Note_on_c, 0, 84, 104
2, 640904, Note_off_c, 0, 51, 64
2, 640907, Note_off_c, 0, 63, 64
2, 640912, Note_off_c, 0, 54, 64
2, 640924, Note_off_c, 0, 83, 64
2, 640927, Note_off_c, 0, 33, 64
2, 640932, Note_off_c, 0, 45, 64
2, 640937, Note_on_c, 0, 85, 104
2, 640952, Note_off_c, 0, 84, 64
2, 640979, Note_on_c, 0, 84, 105
2, 640999, Note_off_c, 0, 85, 64
2, 641012, Note_on_c, 0, 86, 106
2, 641014, Note_on_c, 0, 39, 127
2, 641014, Note_on_c, 0, 27, 101
2, 641022, Note_off_c, 0, 84, 64
2, 641039, Note_off_c, 0, 39, 64
2, 641044, Note_off_c, 0, 27, 64
2, 641054, Note_off_c, 0, 86, 64
2, 641057, Note_on_c, 0, 87, 106
2, 641079, Note_on_c, 0, 45, 127
2, 641079, Note_on_c, 0, 33, 127
2, 641084, Note_on_c, 0, 88, 107
2, 641102, Note_off_c, 0, 87, 64
2, 641114, Note_on_c, 0, 87, 107
2, 641137, Note_off_c, 0, 88, 64
2, 641147, Note_off_c, 0, 87, 64
2, 641154, Note_on_c, 0, 63, 46
2, 641159, Note_on_c, 0, 88, 108
2, 641159, Note_on_c, 0, 54, 85
2, 641159, Note_on_c, 0, 51, 104
2, 641192, Note_on_c, 0, 89, 108
2, 641199, Note_off_c, 0, 63, 64
2, 641204, Note_off_c, 0, 51, 64
2, 641204, Note_off_c, 0, 54, 64
2, 641207, Note_off_c, 0, 88, 64
2, 641224, Note_off_c, 0, 33, 64
2, 641224, Note_off_c, 0, 45, 64
2, 641237, Note_on_c, 0, 92, 109
2, 641242, Note_off_c, 0, 89, 64
2, 641272, Note_on_c, 0, 94, 110
2, 641287, Note_off_c, 0, 92, 64
2, 641292, Note_on_c, 0, 39, 94
2, 641292, Note_on_c, 0, 27, 106
2, 641297, Note_on_c, 0, 92, 110
2, 641312, Note_off_c, 0, 94, 64
2, 641329, Note_off_c, 0, 27, 64
2, 641329, Note_off_c, 0, 39, 64
2, 641332, Note_off_c, 0, 92, 64
2, 641339, Note_on_c, 0, 91, 110
2, 641389, Note_off_c, 0, 91, 64
2, 641392, Note_on_c, 0, 90, 100
2, 641394, Note_on_c, 0, 44, 127
2, 641394, Note_on_c, 0, 32, 100
2, 641422, Note_on_c, 0, 101, 127
2, 641442, Note_off_c, 0, 90, 64
2, 641452, Note_on_c, 0, 66, 66
2, 641452, Note_on_c, 0, 51, 54
2, 641454, Note_on_c, 0, 99, 127
2, 641454, Note_on_c, 0, 60, 86
2, 641467, Note_off_c, 0, 101, 64
2, 641482, Note_on_c, 0, 90, 108
2, 641497, Note_off_c, 0, 51, 64
2, 641497, Note_off_c, 0, 66, 64
2, 641499, Note_off_c, 0, 60, 64
2, 641499, Note_off_c, 0, 99, 64
2, 641514, Note_on_c, 0, 99, 127
2, 641532, Note_off_c, 0, 90, 64
2, 641539, Note_off_c, 0, 32, 64
2, 641539, Note_off_c, 0, 44, 64
2, 641539, Note_on_c, 0, 97, 127
2, 641547, Note_off_c, 0, 99, 64
2, 641572, Note_on_c, 0, 39, 102
2, 641572, Note_on_c, 0, 27, 95
2, 641574, Note_on_c, 0, 89, 103
2, 641582, Note_off_c, 0, 97, 64
2, 641599, Note_on_c, 0, 97, 127
2, 641617, Note_off_c, 0, 27, 64
2, 641617, Note_off_c, 0, 39, 64
2, 641619, Note_off_c, 0, 89, 64
2, 641627, Note_on_c, 0, 32, 100
2, 641632, Note_on_c, 0, 96, 123
2, 641634, Note_on_c, 0, 44, 127
2, 641642, Note_off_c, 0, 97, 64
2, 641667, Note_on_c, 0, 87, 99
2, 641674, Note_off_c, 0, 96, 64
2, 641694, Note_on_c, 0, 96, 127
2, 641694, Note_on_c, 0, 51, 89
2, 641699, Note_on_c, 0, 66, 66
2, 641699, Note_on_c, 0, 60, 86
2, 641722, Note_off_c, 0, 87, 64
2, 641722, Note_on_c, 0, 94, 96
2, 641739, Note_off_c, 0, 51, 64
2, 641739, Note_off_c, 0, 96, 64
2, 641744, Note_off_c, 0, 60, 64
2, 641744, Note_off_c, 0, 66, 64
2, 641754, Note_on_c, 0, 85, 95
2, 641759, Note_off_c, 0, 94, 64
2, 641772, Note_off_c, 0, 32, 64
2, 641779, Note_off_c, 0, 44, 64
2, 641782, Note_on_c, 0, 94, 93
2, 641792, Note_off_c, 0, 85, 64
2, 641814, Note_on_c, 0, 92, 92
2, 641814, Note_on_c, 0, 32, 95
2, 641827, Note_off_c, 0, 94, 64
2, 641842, Note_on_c, 0, 84, 91
2, 641849, Note_off_c, 0, 92, 64
2, 641862, Note_off_c, 0, 32, 64
2, 641867, Note_on_c, 0, 92, 89
2, 641872, Note_on_c, 0, 44, 127
2, 641899, Note_on_c, 0, 90, 87
2, 641904, Note_off_c, 0, 84, 64
2, 641909, Note_off_c, 0, 92, 64
2, 641932, Note_on_c, 0, 82, 86
2, 641932, Note_on_c, 0, 65, 66
2, 641932, Note_on_c, 0, 61, 103
2, 641934, Note_on_c, 0, 53, 90
2, 641937, Note_off_c, 0, 90, 64
2, 641962, Note_on_c, 0, 90, 85
2, 641972, Note_off_c, 0, 61, 64
2, 641974, Note_off_c, 0, 53, 64
2, 641974, Note_off_c, 0, 65, 64
2, 641987, Note_off_c, 0, 44, 64
2, 641992, Note_off_c, 0, 82, 64
2, 641992, Note_on_c, 0, 89, 83
2, 642004, Note_off_c, 0, 90, 64
2, 642019, Note_on_c, 0, 80, 81
2, 642029, Note_off_c, 0, 89, 64
2, 642052, Note_on_c, 0, 32, 110
2, 642054, Note_off_c, 0, 80, 64
2, 642054, Note_on_c, 0, 89, 80
2, 642079, Note_on_c, 0, 87, 79
2, 642092, Note_off_c, 0, 89, 64
2, 642097, Note_off_c, 0, 32, 64
2, 642112, Note_on_c, 0, 44, 127
2, 642114, Note_on_c, 0, 78, 77
2, 642122, Note_off_c, 0, 87, 64
2, 642139, Note_on_c, 0, 87, 76
2, 642162, Note_off_c, 0, 78, 64
2, 642172, Note_on_c, 0, 61, 103
2, 642172, Note_on_c, 0, 53, 89
2, 642174, Note_on_c, 0, 85, 74
2, 642179, Note_off_c, 0, 87, 64
2, 642199, Note_on_c, 0, 77, 73
2, 642217, Note_off_c, 0, 53, 64
2, 642217, Note_off_c, 0, 61, 64
2, 642232, Note_on_c, 0, 82, 71
2, 642237, Note_off_c, 0, 85, 64
2, 642257, Note_off_c, 0, 44, 64
2, 642262, Note_off_c, 0, 77, 64
2, 642262, Note_on_c, 0, 80, 69
2, 642284, Note_off_c, 0, 82, 64
2, 642292, Note_on_c, 0, 32, 80
2, 642294, Note_on_c, 0, 77, 68
2, 642317, Note_off_c, 0, 80, 64
2, 642319, Note_on_c, 0, 73, 67
2, 642337, Note_off_c, 0, 32, 64
2, 642342, Note_off_c, 0, 77, 64
2, 642352, Note_off_c, 0, 73, 64
2, 642352, Note_on_c, 0, 72, 66
2, 642367, Note_on_c, 0, 44, 126
2, 642392, Control_c, 0, 64, 127
2, 642392, Control_c, 0, 64, 127
2, 642394, Note_on_c, 0, 73, 69
2, 642404, Note_off_c, 0, 72, 64
2, 642434, Note_on_c, 0, 54, 80
2, 642439, Note_on_c, 0, 75, 77
2, 642439, Note_on_c, 0, 60, 80
2, 642439, Note_on_c, 0, 51, 74
2, 642448, Control_c, 0, 64, 127
2, 642448, Control_c, 0, 64, 127
2, 642454, Note_off_c, 0, 73, 64
2, 642472, Note_off_c, 0, 75, 64
2, 642479, Note_off_c, 0, 54, 64
2, 642479, Note_on_c, 0, 76, 83
2, 642484, Note_off_c, 0, 51, 64
2, 642484, Note_off_c, 0, 60, 64
2, 642502, Control_c, 0, 64, 0
2, 642504, Control_c, 0, 64, 0
2, 642512, Note_off_c, 0, 44, 64
2, 642532, Note_on_c, 0, 77, 92
2, 642542, Note_off_c, 0, 76, 64
2, 642558, Control_c, 0, 64, 0
2, 642560, Control_c, 0, 64, 0
2, 642572, Note_on_c, 0, 78, 98
2, 642594, Note_off_c, 0, 77, 64
2, 642599, Note_on_c, 0, 80, 102
2, 642602, Note_on_c, 0, 32, 80
2, 642627, Note_off_c, 0, 78, 64
2, 642634, Note_on_c, 0, 81, 108
2, 642644, Note_off_c, 0, 80, 64
2, 642649, Note_off_c, 0, 32, 64
2, 642662, Note_on_c, 0, 44, 127
2, 642667, Note_on_c, 0, 79, 104
2, 642677, Note_off_c, 0, 81, 64
2, 642702, Note_on_c, 0, 80, 100
2, 642722, Note_off_c, 0, 79, 64
2, 642732, Note_on_c, 0, 61, 103
2, 642734, Note_on_c, 0, 52, 89
2, 642737, Note_on_c, 0, 75, 95
2, 642759, Note_off_c, 0, 75, 64
2, 642764, Note_off_c, 0, 80, 64
2, 642777, Note_off_c, 0, 61, 64
2, 642777, Note_on_c, 0, 76, 90
2, 642779, Note_off_c, 0, 52, 64
2, 642807, Note_off_c, 0, 44, 64
2, 642817, Note_on_c, 0, 68, 85
2, 642819, Note_off_c, 0, 76, 64
2, 642852, Note_on_c, 0, 76, 80
2, 642857, Note_off_c, 0, 68, 64
2, 642882, Note_on_c, 0, 75, 76
2, 642889, Note_on_c, 0, 32, 105
2, 642902, Note_off_c, 0, 76, 64
2, 642919, Note_on_c, 0, 73, 71
2, 642937, Note_off_c, 0, 32, 64
2, 642937, Note_off_c, 0, 75, 64
2, 642959, Note_on_c, 0, 44, 127
2, 642962, Note_on_c, 0, 72, 66
2, 642964, Note_off_c, 0, 73, 64
2, 642997, Note_on_c, 0, 73, 71
2, 643012, Note_off_c, 0, 72, 64
2, 643027, Note_on_c, 0, 60, 80
2, 643032, Note_on_c, 0, 54, 83
2, 643032, Note_on_c, 0, 51, 55
2, 643034, Note_on_c, 0, 75, 77
2, 643049, Note_off_c, 0, 73, 64
2, 643062, Note_on_c, 0, 75, 83
2, 643064, Note_off_c, 0, 75, 64
2, 643072, Note_off_c, 0, 60, 64
2, 643072, Note_on_c, 0, 76, 84
2, 643077, Note_off_c, 0, 51, 64
2, 643077, Note_off_c, 0, 54, 64
2, 643104, Note_off_c, 0, 44, 64
2, 643114, Note_on_c, 0, 77, 91
2, 643122, Note_off_c, 0, 75, 64
2, 643134, Note_off_c, 0, 76, 64
2, 643154, Note_on_c, 0, 78, 98
2, 643179, Note_on_c, 0, 80, 102
2, 643182, Note_off_c, 0, 77, 64
2, 643182, Note_on_c, 0, 44, 108
2, 643199, Note_off_c, 0, 78, 64
2, 643207, Note_on_c, 0, 81, 106
2, 643209, Note_off_c, 0, 80, 64
2, 643229, Note_off_c, 0, 44, 64
2, 643239, Note_on_c, 0, 49, 127
2, 643247, Note_on_c, 0, 79, 104
2, 643259, Note_off_c, 0, 81, 64
2, 643277, Note_on_c, 0, 80, 100
2, 643307, Note_off_c, 0, 79, 64
2, 643314, Note_on_c, 0, 61, 105
2, 643314, Note_on_c, 0, 52, 90
2, 643322, Note_off_c, 0, 80, 64
2, 643322, Note_on_c, 0, 75, 94
2, 643357, Note_on_c, 0, 76, 89
2, 643359, Note_off_c, 0, 52, 64
2, 643359, Note_off_c, 0, 61, 64
2, 643372, Note_off_c, 0, 75, 64
2, 643384, Note_off_c, 0, 49, 64
2, 643397, Note_on_c, 0, 68, 83
2, 643402, Note_off_c, 0, 76, 64
2, 643432, Note_on_c, 0, 76, 79
2, 643437, Note_off_c, 0, 68, 64
2, 643457, Note_on_c, 0, 43, 96
2, 643459, Note_on_c, 0, 73, 75
2, 643482, Note_off_c, 0, 76, 64
2, 643497, Note_off_c, 0, 43, 64
2, 643499, Note_on_c, 0, 71, 69
2, 643502, Note_off_c, 0, 73, 64
2, 643537, Note_on_c, 0, 70, 66
2, 643539, Note_on_c, 0, 42, 127
2, 643549, Note_off_c, 0, 71, 64
2, 643567, Control_c, 0, 64, 127
2, 643567, Control_c, 0, 64, 127
2, 643574, Note_off_c, 0, 70, 64
2, 643577, Note_on_c, 0, 71, 71
2, 643607, Note_on_c, 0, 64, 66
2, 643607, Note_on_c, 0, 58, 86
2, 643607, Note_on_c, 0, 54, 5
2, 643614, Note_on_c, 0, 73, 77
2, 643623, Control_c, 0, 64, 127
2, 643623, Control_c, 0, 64, 127
2, 643639, Note_on_c, 0, 74, 82
2, 643649, Note_off_c, 0, 71, 64
2, 643652, Note_off_c, 0, 54, 64
2, 643652, Note_off_c, 0, 58, 64
2, 643652, Note_off_c, 0, 64, 64
2, 643662, Note_off_c, 0, 73, 64
2, 643672, Note_on_c, 0, 75, 87
2, 643684, Note_off_c, 0, 42, 64
2, 643689, Note_off_c, 0, 74, 64
2, 643699, Control_c, 0, 64, 0
2, 643699, Control_c, 0, 64, 0
2, 643704, Note_off_c, 0, 75, 64
2, 643712, Note_on_c, 0, 76, 94
2, 643747, Note_on_c, 0, 30, 106
2, 643749, Note_on_c, 0, 78, 100
2, 643755, Control_c, 0, 64, 0
2, 643755, Control_c, 0, 64, 0
2, 643772, Note_off_c, 0, 76, 64
2, 643774, Note_off_c, 0, 30, 64
2, 643789, Note_on_c, 0, 79, 106
2, 643794, Note_off_c, 0, 78, 64
2, 643827, Note_off_c, 0, 79, 64
2, 643827, Note_on_c, 0, 42, 127
2, 643832, Note_on_c, 0, 77, 104
2, 643867, Note_on_c, 0, 78, 100
2, 643889, Note_off_c, 0, 77, 64
2, 643899, Note_on_c, 0, 62, 93
2, 643899, Note_on_c, 0, 59, 94
2, 643902, Note_on_c, 0, 54, 80
2, 643904, Note_on_c, 0, 75, 94
2, 643909, Note_off_c, 0, 78, 64
2, 643932, Note_off_c, 0, 75, 64
2, 643942, Note_on_c, 0, 76, 89
2, 643944, Note_off_c, 0, 59, 64
2, 643944, Note_off_c, 0, 62, 64
2, 643947, Note_off_c, 0, 54, 64
2, 643972, Note_off_c, 0, 42, 64
2, 643972, Note_on_c, 0, 73, 85
2, 643982, Note_off_c, 0, 76, 64
2, 644007, Note_off_c, 0, 73, 64
2, 644007, Note_on_c, 0, 74, 80
2, 644049, Note_on_c, 0, 71, 74
2, 644049, Note_on_c, 0, 41, 92
2, 644057, Note_off_c, 0, 74, 64
2, 644082, Note_off_c, 0, 71, 64
2, 644087, Note_off_c, 0, 41, 64
2, 644087, Note_on_c, 0, 69, 69
2, 644122, Note_on_c, 0, 68, 66
2, 644122, Note_on_c, 0, 40, 127
2, 644132, Note_off_c, 0, 69, 64
2, 644152, Note_on_c, 0, 69, 69
2, 644154, Note_off_c, 0, 68, 64
2, 644187, Note_on_c, 0, 71, 75
2, 644187, Note_on_c, 0, 62, 77
2, 644187, Note_on_c, 0, 53, 80
2, 644192, Note_on_c, 0, 56, 64
2, 644214, Note_off_c, 0, 69, 64
2, 644224, Note_on_c, 0, 72, 82
2, 644232, Note_off_c, 0, 53, 64
2, 644232, Note_off_c, 0, 62, 64
2, 644237, Note_off_c, 0, 56, 64
2, 644254, Note_off_c, 0, 71, 64
2, 644254, Note_on_c, 0, 73, 87
2, 644267, Note_off_c, 0, 40, 64
2, 644277, Note_off_c, 0, 72, 64
2, 644284, Note_off_c, 0, 73, 64
2, 644287, Note_on_c, 0, 74, 93
2, 644322, Note_on_c, 0, 28, 98
2, 644327, Note_on_c, 0, 76, 100
2, 644344, Note_off_c, 0, 74, 64
2, 644364, Note_on_c, 0, 77, 106
2, 644369, Note_off_c, 0, 28, 64
2, 644384, Note_off_c, 0, 76, 64
2, 644399, Note_on_c, 0, 75, 103
2, 644399, Note_on_c, 0, 40, 127
2, 644404, Note_off_c, 0, 77, 64
2, 644429, Note_off_c, 0, 75, 64
2, 644447, Note_on_c, 0, 76, 97
2, 644467, Note_on_c, 0, 57, 80
2, 644469, Note_on_c, 0, 60, 92
2, 644472, Note_on_c, 0, 73, 93
2, 644472, Note_on_c, 0, 52, 94
2, 644497, Note_off_c, 0, 73, 64
2, 644507, Note_off_c, 0, 76, 64
2, 644512, Note_off_c, 0, 57, 64
2, 644514, Note_off_c, 0, 60, 64
2, 644517, Note_off_c, 0, 52, 64
2, 644517, Note_on_c, 0, 74, 87
2, 644544, Note_off_c, 0, 40, 64
2, 644547, Note_on_c, 0, 71, 83
2, 644554, Note_off_c, 0, 74, 64
2, 644587, Note_off_c, 0, 71, 64
2, 644587, Note_on_c, 0, 72, 78
2, 644614, Note_on_c, 0, 40, 80
2, 644614, Note_on_c, 0, 28, 87
2, 644617, Note_on_c, 0, 71, 73
2, 644632, Note_off_c, 0, 72, 64
2, 644652, Note_off_c, 0, 71, 64
2, 644652, Note_on_c, 0, 69, 69
2, 644654, Note_off_c, 0, 28, 64
2, 644654, Note_off_c, 0, 40, 64
2, 644677, Note_on_c, 0, 41, 117
2, 644677, Note_on_c, 0, 29, 107
2, 644687, Note_on_c, 0, 68, 66
2, 644692, Control_c, 0, 64, 127
2, 644692, Control_c, 0, 64, 127
2, 644702, Note_off_c, 0, 69, 64
2, 644722, Note_off_c, 0, 68, 64
2, 644727, Note_on_c, 0, 69, 66
2, 644748, Control_c, 0, 64, 127
2, 644748, Control_c, 0, 64, 127
2, 644767, Note_off_c, 0, 29, 64
2, 644767, Note_off_c, 0, 41, 64
2, 644767, Note_on_c, 0, 0, 95
2, 644769, Note_on_c, 0, 73, 68
2, 644772, Note_on_c, 0, 48, 77
2, 644794, Note_off_c, 0, 0, 64
2, 644794, Note_on_c, 0, 53, 82
2, 644797, Note_off_c, 0, 69, 64
2, 644804, Control_c, 0, 64, 0
2, 644804, Control_c, 0, 64, 0
2, 644814, Note_on_c, 0, 72, 69
2, 644824, Note_on_c, 0, 63, 90
2, 644832, Note_on_c, 0, 70, 70
2, 644847, Note_off_c, 0, 72, 64
2, 644847, Note_off_c, 0, 73, 64
2, 644854, Control_c, 0, 64, 127
2, 644857, Control_c, 0, 64, 127
2, 644860, Control_c, 0, 64, 0
2, 644860, Control_c, 0, 64, 0
2, 644869, Note_off_c, 0, 70, 64
2, 644874, Note_on_c, 0, 69, 71
2, 644907, Note_on_c, 0, 78, 73
2, 644910, Control_c, 0, 64, 127
2, 644913, Control_c, 0, 64, 127
2, 644927, Control_c, 0, 64, 0
2, 644927, Control_c, 0, 64, 0
2, 644932, Note_off_c, 0, 48, 64
2, 644934, Note_on_c, 0, 77, 73
2, 644939, Note_off_c, 0, 69, 64
2, 644939, Note_on_c, 0, 46, 85
2, 644949, Note_off_c, 0, 53, 64
2, 644959, Note_on_c, 0, 53, 88
2, 644962, Note_off_c, 0, 78, 64
2, 644964, Note_off_c, 0, 63, 64
2, 644979, Note_on_c, 0, 61, 92
2, 644982, Note_on_c, 0, 75, 75
2, 644983, Control_c, 0, 64, 0
2, 644983, Control_c, 0, 64, 0
2, 644989, Note_off_c, 0, 77, 64
2, 644992, Control_c, 0, 64, 127
2, 644992, Control_c, 0, 64, 127
2, 645017, Note_off_c, 0, 75, 64
2, 645019, Note_on_c, 0, 73, 77
2, 645048, Control_c, 0, 64, 127
2, 645048, Control_c, 0, 64, 127
2, 645049, Note_on_c, 0, 84, 77
2, 645062, Note_off_c, 0, 73, 64
2, 645067, Control_c, 0, 64, 0
2, 645067, Control_c, 0, 64, 0
2, 645087, Note_on_c, 0, 82, 79
2, 645094, Note_off_c, 0, 46, 64
2, 645097, Note_off_c, 0, 84, 64
2, 645099, Note_on_c, 0, 51, 85
2, 645107, Note_off_c, 0, 53, 64
2, 645112, Note_off_c, 0, 61, 64
2, 645112, Note_on_c, 0, 58, 90
2, 645119, Note_on_c, 0, 66, 96
2, 645122, Note_on_c, 0, 80, 80
2, 645123, Control_c, 0, 64, 0
2, 645123, Control_c, 0, 64, 0
2, 645127, Control_c, 0, 64, 127
2, 645127, Control_c, 0, 64, 127
2, 645137, Note_off_c, 0, 82, 64
2, 645157, Note_on_c, 0, 78, 81
2, 645172, Note_off_c, 0, 80, 64
2, 645183, Control_c, 0, 64, 127
2, 645183, Control_c, 0, 64, 127
2, 645192, Note_on_c, 0, 77, 83
2, 645199, Note_off_c, 0, 78, 64
2, 645204, Control_c, 0, 64, 0
2, 645204, Control_c, 0, 64, 0
2, 645224, Note_on_c, 0, 44, 88
2, 645232, Note_on_c, 0, 75, 84
2, 645234, Note_off_c, 0, 77, 64
2, 645247, Note_off_c, 0, 51, 64
2, 645247, Note_on_c, 0, 54, 92
2, 645252, Note_off_c, 0, 58, 64
2, 645257, Note_off_c, 0, 66, 64
2, 645257, Note_on_c, 0, 73, 85
2, 645259, Note_on_c, 0, 60, 94
2, 645260, Control_c, 0, 64, 0
2, 645260, Control_c, 0, 64, 0
2, 645272, Control_c, 0, 64, 127
2, 645272, Control_c, 0, 64, 127
2, 645277, Note_off_c, 0, 75, 64
2, 645299, Note_off_c, 0, 73, 64
2, 645299, Note_on_c, 0, 72, 86
2, 645328, Control_c, 0, 64, 127
2, 645328, Control_c, 0, 64, 127
2, 645332, Note_on_c, 0, 82, 87
2, 645334, Control_c, 0, 64, 0
2, 645337, Control_c, 0, 64, 0
2, 645347, Note_off_c, 0, 72, 64
2, 645352, Note_on_c, 0, 49, 79
2, 645372, Note_on_c, 0, 80, 89
2, 645374, Note_off_c, 0, 44, 64
2, 645377, Note_on_c, 0, 58, 88
2, 645384, Note_off_c, 0, 60, 64
2, 645390, Control_c, 0, 64, 0
2, 645392, Note_off_c, 0, 82, 64
2, 645392, Note_off_c, 0, 54, 64
2, 645393, Control_c, 0, 64, 0
2, 645399, Note_on_c, 0, 78, 90
2, 645402, Note_on_c, 0, 65, 93
2, 645409, Control_c, 0, 64, 127
2, 645409, Control_c, 0, 64, 127
2, 645427, Note_off_c, 0, 80, 64
2, 645437, Note_on_c, 0, 77, 91
2, 645444, Note_off_c, 0, 78, 64
2, 645465, Control_c, 0, 64, 127
2, 645465, Control_c, 0, 64, 127
2, 645472, Note_on_c, 0, 42, 85
2, 645477, Note_on_c, 0, 75, 93
2, 645484, Control_c, 0, 64, 0
2, 645487, Control_c, 0, 64, 0
2, 645499, Note_off_c, 0, 77, 64
2, 645502, Note_off_c, 0, 49, 64
2, 645504, Note_on_c, 0, 73, 93
2, 645514, Note_off_c, 0, 58, 64
2, 645519, Note_off_c, 0, 75, 64
2, 645519, Note_on_c, 0, 49, 93
2, 645539, Note_on_c, 0, 72, 95
2, 645540, Control_c, 0, 64, 0
2, 645542, Note_off_c, 0, 65, 64
2, 645543, Control_c, 0, 64, 0
2, 645544, Note_on_c, 0, 58, 96
2, 645547, Note_off_c, 0, 73, 64
2, 645554, Control_c, 0, 64, 127
2, 645554, Control_c, 0, 64, 127
2, 645579, Note_on_c, 0, 70, 96
2, 645594, Note_off_c, 0, 72, 64
2, 645610, Control_c, 0, 64, 127
2, 645610, Control_c, 0, 64, 127
2, 645619, Note_off_c, 0, 70, 64
2, 645619, Control_c, 0, 64, 0
2, 645619, Control_c, 0, 64, 0
2, 645622, Note_off_c, 0, 42, 64
2, 645627, Note_on_c, 0, 80, 98
2, 645634, Note_on_c, 0, 48, 63
2, 645654, Note_off_c, 0, 49, 64
2, 645662, Note_on_c, 0, 78, 99
2, 645664, Note_on_c, 0, 54, 64
2, 645667, Note_off_c, 0, 58, 64
2, 645672, Note_off_c, 0, 80, 64
2, 645675, Control_c, 0, 64, 0
2, 645675, Control_c, 0, 64, 0
2, 645694, Note_on_c, 0, 63, 86
2, 645697, Note_on_c, 0, 77, 100
2, 645702, Control_c, 0, 64, 127
2, 645702, Control_c, 0, 64, 127
2, 645712, Note_off_c, 0, 78, 64
2, 645722, Control_c, 0, 64, 0
2, 645722, Control_c, 0, 64, 0
2, 645732, Note_on_c, 0, 75, 101
2, 645742, Note_off_c, 0, 77, 64
2, 645758, Control_c, 0, 64, 127
2, 645758, Control_c, 0, 64, 127
2, 645762, Note_on_c, 0, 73, 102
2, 645772, Note_off_c, 0, 75, 64
2, 645778, Control_c, 0, 64, 0
2, 645778, Control_c, 0, 64, 0
2, 645789, Note_off_c, 0, 48, 64
2, 645807, Note_on_c, 0, 72, 104
2, 645812, Note_off_c, 0, 73, 64
2, 645814, Note_off_c, 0, 54, 64
2, 645834, Note_off_c, 0, 63, 64
2, 645834, Note_on_c, 0, 61, 107
2, 645837, Note_on_c, 0, 53, 63
2, 645839, Note_on_c, 0, 70, 99
2, 645839, Note_on_c, 0, 58, 100
2, 645839, Note_on_c, 0, 49, 68
2, 645839, Control_c, 0, 64, 127
2, 645839, Control_c, 0, 64, 127
2, 645847, Note_off_c, 0, 72, 64
2, 645869, Note_on_c, 0, 69, 97
2, 645895, Control_c, 0, 64, 127
2, 645895, Control_c, 0, 64, 127
2, 645902, Note_off_c, 0, 70, 64
2, 645909, Control_c, 0, 64, 0
2, 645909, Control_c, 0, 64, 0
2, 645914, Note_on_c, 0, 68, 95
2, 645927, Note_off_c, 0, 69, 64
2, 645937, Note_off_c, 0, 53, 64
2, 645937, Note_off_c, 0, 61, 64
2, 645939, Note_off_c, 0, 49, 64
2, 645939, Note_off_c, 0, 58, 64
2, 645947, Note_off_c, 0, 68, 64
2, 645965, Control_c, 0, 64, 0
2, 645965, Control_c, 0, 64, 0
2, 645972, Note_on_c, 0, 68, 93
2, 645972, Note_on_c, 0, 58, 93
2, 645972, Note_on_c, 0, 54, 67
2, 645972, Note_on_c, 0, 51, 68
2, 645977, Note_on_c, 0, 60, 90
2, 645979, Control_c, 0, 64, 127
2, 645979, Control_c, 0, 64, 127
2, 646012, Note_on_c, 0, 67, 92
2, 646035, Control_c, 0, 64, 127
2, 646035, Control_c, 0, 64, 127
2, 646042, Control_c, 0, 64, 0
2, 646044, Control_c, 0, 64, 0
2, 646049, Note_on_c, 0, 66, 90
2, 646057, Note_off_c, 0, 68, 64
2, 646064, Note_off_c, 0, 67, 64
2, 646089, Note_on_c, 0, 65, 89
2, 646092, Note_off_c, 0, 66, 64
2, 646098, Control_c, 0, 64, 0
2, 646099, Note_off_c, 0, 51, 64
2, 646099, Note_off_c, 0, 54, 64
2, 646099, Note_off_c, 0, 58, 64
2, 646100, Control_c, 0, 64, 0
2, 646104, Note_off_c, 0, 60, 64
2, 646124, Note_on_c, 0, 67, 87
2, 646137, Note_off_c, 0, 65, 64
2, 646159, Note_on_c, 0, 66, 86
2, 646172, Note_off_c, 0, 67, 64
2, 646204, Note_off_c, 0, 66, 64
2, 646207, Note_on_c, 0, 65, 84
2, 646234, Note_on_c, 0, 64, 83
2, 646239, Note_off_c, 0, 65, 64
2, 646272, Note_on_c, 0, 66, 81
2, 646277, Note_on_c, 0, 54, 66
2, 646287, Note_off_c, 0, 64, 64
2, 646309, Note_on_c, 0, 65, 80
2, 646309, Note_on_c, 0, 53, 64
2, 646317, Note_off_c, 0, 54, 64
2, 646322, Note_off_c, 0, 66, 64
2, 646347, Note_on_c, 0, 52, 64
2, 646354, Note_on_c, 0, 64, 78
2, 646357, Note_off_c, 0, 65, 64
2, 646367, Note_off_c, 0, 53, 64
2, 646379, Note_on_c, 0, 51, 63
2, 646382, Note_off_c, 0, 64, 64
2, 646382, Note_on_c, 0, 63, 77
2, 646392, Note_off_c, 0, 52, 64
2, 646407, Note_off_c, 0, 63, 64
2, 646407, Note_off_c, 0, 51, 64
2, 646417, Note_on_c, 0, 65, 76
2, 646417, Note_on_c, 0, 53, 62
2, 646452, Note_on_c, 0, 64, 75
2, 646452, Note_on_c, 0, 52, 61
2, 646457, Note_off_c, 0, 53, 64
2, 646467, Note_off_c, 0, 65, 64
2, 646494, Note_on_c, 0, 63, 73
2, 646494, Note_on_c, 0, 51, 60
2, 646497, Note_off_c, 0, 52, 64
2, 646502, Note_off_c, 0, 64, 64
2, 646537, Note_on_c, 0, 62, 71
2, 646539, Note_on_c, 0, 50, 59
2, 646542, Note_off_c, 0, 51, 64
2, 646542, Note_off_c, 0, 63, 64
2, 646564, Note_on_c, 0, 52, 58
2, 646567, Note_off_c, 0, 50, 64
2, 646567, Note_on_c, 0, 64, 70
2, 646584, Note_off_c, 0, 62, 64
2, 646599, Note_on_c, 0, 51, 57
2, 646602, Note_on_c, 0, 63, 69
2, 646614, Note_off_c, 0, 52, 64
2, 646617, Note_off_c, 0, 64, 64
2, 646647, Note_on_c, 0, 50, 56
2, 646649, Note_on_c, 0, 62, 67
2, 646652, Note_off_c, 0, 63, 64
2, 646659, Note_off_c, 0, 51, 64
2, 646679, Note_on_c, 0, 61, 66
2, 646684, Note_on_c, 0, 49, 55
2, 646694, Note_off_c, 0, 50, 64
2, 646697, Note_off_c, 0, 62, 64
2, 646719, Note_on_c, 0, 51, 54
2, 646722, Note_off_c, 0, 61, 64
2, 646722, Note_on_c, 0, 63, 64
2, 646727, Note_off_c, 0, 49, 64
2, 646752, Note_on_c, 0, 50, 53
2, 646754, Note_on_c, 0, 62, 63
2, 646764, Note_off_c, 0, 51, 64
2, 646772, Note_off_c, 0, 63, 64
2, 646787, Note_on_c, 0, 49, 52
2, 646792, Note_on_c, 0, 61, 62
2, 646797, Note_off_c, 0, 50, 64
2, 646802, Note_off_c, 0, 62, 64
2, 646819, Note_on_c, 0, 48, 52
2, 646827, Note_on_c, 0, 60, 60
2, 646832, Note_off_c, 0, 61, 64
2, 646832, Note_off_c, 0, 49, 64
2, 646867, Note_off_c, 0, 48, 64
2, 646872, Note_on_c, 0, 63, 58
2, 646874, Note_off_c, 0, 60, 64
2, 646874, Note_on_c, 0, 51, 50
2, 646897, Note_on_c, 0, 61, 57
2, 646899, Note_on_c, 0, 49, 50
2, 646914, Note_off_c, 0, 63, 64
2, 646922, Note_off_c, 0, 51, 64
2, 646937, Note_on_c, 0, 48, 48
2, 646942, Note_off_c, 0, 61, 64
2, 646942, Note_on_c, 0, 60, 56
2, 646947, Note_off_c, 0, 49, 64
2, 646979, Note_off_c, 0, 48, 64
2, 646979, Note_on_c, 0, 46, 48
2, 646982, Note_on_c, 0, 58, 54
2, 646999, Note_off_c, 0, 60, 64
2, 647017, Note_off_c, 0, 46, 64
2, 647022, Note_off_c, 0, 58, 64
2, 647022, Note_on_c, 0, 57, 55
2, 647027, Note_on_c, 0, 39, 80
2, 647037, Control_c, 0, 64, 127
2, 647039, Control_c, 0, 64, 127
2, 647052, Control_c, 0, 64, 0
2, 647052, Control_c, 0, 64, 0
2, 647057, Note_on_c, 0, 58, 60
2, 647087, Note_on_c, 0, 60, 63
2, 647087, Note_on_c, 0, 45, 68
2, 647093, Control_c, 0, 64, 127
2, 647094, Note_off_c, 0, 57, 64
2, 647094, Note_on_c, 0, 54, 80
2, 647095, Control_c, 0, 64, 127
2, 647108, Control_c, 0, 64, 0
2, 647108, Control_c, 0, 64, 0
2, 647109, Note_off_c, 0, 58, 64
2, 647122, Note_on_c, 0, 61, 67
2, 647132, Note_off_c, 0, 45, 64
2, 647139, Note_off_c, 0, 54, 64
2, 647172, Note_off_c, 0, 39, 64
2, 647172, Note_off_c, 0, 60, 64
2, 647174, Note_on_c, 0, 63, 72
2, 647192, Note_off_c, 0, 61, 64
2, 647207, Note_off_c, 0, 63, 64
2, 647214, Note_on_c, 0, 64, 77
2, 647244, Note_on_c, 0, 39, 50
2, 647254, Note_on_c, 0, 65, 81
2, 647269, Note_off_c, 0, 64, 64
2, 647279, Note_off_c, 0, 39, 64
2, 647279, Note_on_c, 0, 66, 84
2, 647304, Note_off_c, 0, 65, 64
2, 647324, Note_off_c, 0, 66, 64
2, 647327, Note_on_c, 0, 64, 84
2, 647334, Note_on_c, 0, 37, 80
2, 647362, Note_on_c, 0, 65, 80
2, 647367, Note_off_c, 0, 64, 64
2, 647404, Note_off_c, 0, 65, 64
2, 647407, Note_on_c, 0, 53, 61
2, 647407, Note_on_c, 0, 46, 68
2, 647409, Note_on_c, 0, 62, 75
2, 647437, Note_off_c, 0, 62, 64
2, 647437, Note_on_c, 0, 63, 72
2, 647442, Note_off_c, 0, 46, 64
2, 647444, Note_off_c, 0, 53, 64
2, 647469, Note_off_c, 0, 63, 64
2, 647479, Note_off_c, 0, 37, 64
2, 647482, Note_on_c, 0, 60, 66
2, 647512, Note_on_c, 0, 61, 63
2, 647517, Note_off_c, 0, 60, 64
2, 647547, Note_on_c, 0, 60, 59
2, 647547, Note_on_c, 0, 37, 56
2, 647562, Note_off_c, 0, 61, 64
2, 647589, Note_on_c, 0, 58, 54
2, 647594, Note_off_c, 0, 37, 64
2, 647604, Note_off_c, 0, 60, 64
2, 647617, Note_on_c, 0, 39, 80
2, 647627, Note_on_c, 0, 57, 55
2, 647629, Note_off_c, 0, 58, 64
2, 647662, Note_on_c, 0, 58, 60
2, 647694, Note_on_c, 0, 45, 68
2, 647699, Note_on_c, 0, 60, 64
2, 647699, Note_on_c, 0, 54, 76
2, 647704, Note_off_c, 0, 57, 64
2, 647722, Note_off_c, 0, 58, 64
2, 647737, Note_on_c, 0, 61, 69
2, 647739, Note_off_c, 0, 45, 64
2, 647744, Note_off_c, 0, 54, 64
2, 647762, Note_off_c, 0, 39, 64
2, 647769, Note_off_c, 0, 60, 64
2, 647774, Note_on_c, 0, 63, 73
2, 647792, Note_off_c, 0, 61, 64
2, 647807, Note_off_c, 0, 63, 64
2, 647814, Note_on_c, 0, 64, 78
2, 647849, Note_on_c, 0, 65, 82
2, 647852, Note_on_c, 0, 39, 63
2, 647869, Note_off_c, 0, 64, 64
2, 647879, Note_on_c, 0, 66, 86
2, 647889, Note_off_c, 0, 39, 64
2, 647907, Note_off_c, 0, 65, 64
2, 647922, Note_off_c, 0, 66, 64
2, 647922, Note_on_c, 0, 64, 84
2, 647927, Note_on_c, 0, 37, 80
2, 647954, Note_on_c, 0, 65, 80
2, 647957, Note_off_c, 0, 64, 64
2, 647994, Note_off_c, 0, 65, 64
2, 647994, Note_on_c, 0, 46, 67
2, 647999, Note_on_c, 0, 62, 74
2, 647999, Note_on_c, 0, 53, 80
2, 648022, Note_off_c, 0, 46, 64
2, 648024, Note_on_c, 0, 63, 71
2, 648027, Note_off_c, 0, 53, 64
2, 648027, Note_off_c, 0, 62, 64
2, 648052, Note_off_c, 0, 63, 64
2, 648067, Note_on_c, 0, 60, 66
2, 648072, Note_off_c, 0, 37, 64
2, 648102, Note_off_c, 0, 60, 64
2, 648102, Note_on_c, 0, 61, 62
2, 648122, Note_on_c, 0, 60, 60
2, 648122, Note_on_c, 0, 37, 57
2, 648149, Note_off_c, 0, 61, 64
2, 648152, Note_off_c, 0, 37, 64
2, 648162, Note_on_c, 0, 58, 55
2, 648174, Note_off_c, 0, 60, 64
2, 648197, Note_off_c, 0, 58, 64
2, 648207, Note_on_c, 0, 60, 52
2, 648209, Control_c, 0, 64, 127
2, 648209, Control_c, 0, 64, 127
2, 648212, Note_on_c, 0, 39, 80
2, 648252, Note_on_c, 0, 61, 55
2, 648254, Note_off_c, 0, 60, 64
2, 648265, Control_c, 0, 64, 127
2, 648265, Control_c, 0, 64, 127
2, 648282, Note_on_c, 0, 63, 56
2, 648282, Note_on_c, 0, 54, 68
2, 648287, Note_off_c, 0, 61, 64
2, 648287, Note_on_c, 0, 46, 63
2, 648307, Note_off_c, 0, 63, 64
2, 648312, Note_on_c, 0, 65, 56
2, 648319, Note_off_c, 0, 46, 64
2, 648327, Note_off_c, 0, 54, 64
2, 648349, Note_on_c, 0, 66, 58
2, 648357, Note_off_c, 0, 39, 64
2, 648367, Note_off_c, 0, 65, 64
2, 648377, Control_c, 0, 64, 0
2, 648379, Control_c, 0, 64, 0
2, 648389, Note_on_c, 0, 72, 60
2, 648392, Note_off_c, 0, 66, 64
2, 648419, Note_on_c, 0, 39, 72
2, 648422, Note_on_c, 0, 70, 61
2, 648427, Note_off_c, 0, 72, 64
2, 648433, Control_c, 0, 64, 0
2, 648435, Control_c, 0, 64, 0
2, 648447, Note_off_c, 0, 39, 64
2, 648454, Note_off_c, 0, 70, 64
2, 648457, Note_on_c, 0, 60, 63
2, 648492, Note_on_c, 0, 58, 64
2, 648492, Note_on_c, 0, 41, 80
2, 648499, Note_off_c, 0, 60, 64
2, 648524, Note_off_c, 0, 58, 64
2, 648532, Note_on_c, 0, 60, 66
2, 648572, Note_on_c, 0, 46, 51
2, 648574, Note_off_c, 0, 60, 64
2, 648574, Note_on_c, 0, 53, 53
2, 648574, Note_on_c, 0, 49, 67
2, 648577, Note_on_c, 0, 61, 68
2, 648597, Note_on_c, 0, 63, 69
2, 648604, Note_off_c, 0, 46, 64
2, 648607, Note_off_c, 0, 53, 64
2, 648617, Note_off_c, 0, 61, 64
2, 648617, Note_off_c, 0, 49, 64
2, 648622, Note_on_c, 0, 65, 71
2, 648637, Note_off_c, 0, 41, 64
2, 648644, Note_off_c, 0, 63, 64
2, 648662, Note_on_c, 0, 72, 72
2, 648677, Note_off_c, 0, 65, 64
2, 648687, Note_on_c, 0, 29, 33
2, 648692, Note_on_c, 0, 70, 74
2, 648707, Note_off_c, 0, 29, 64
2, 648707, Note_off_c, 0, 72, 64
2, 648732, Note_on_c, 0, 66, 76
2, 648752, Note_off_c, 0, 70, 64
2, 648767, Note_on_c, 0, 64, 77
2, 648772, Note_off_c, 0, 66, 64
2, 648772, Note_on_c, 0, 41, 80
2, 648802, Note_on_c, 0, 65, 79
2, 648822, Note_off_c, 0, 64, 64
2, 648847, Note_on_c, 0, 66, 80
2, 648847, Note_on_c, 0, 57, 101
2, 648847, Note_on_c, 0, 51, 68
2, 648857, Note_off_c, 0, 65, 64
2, 648879, Note_on_c, 0, 65, 81
2, 648892, Note_off_c, 0, 51, 64
2, 648892, Note_off_c, 0, 57, 64
2, 648892, Note_off_c, 0, 66, 64
2, 648914, Note_on_c, 0, 70, 83
2, 648917, Note_off_c, 0, 41, 64
2, 648924, Note_off_c, 0, 65, 64
2, 648947, Note_off_c, 0, 70, 64
2, 648952, Note_on_c, 0, 69, 84
2, 648992, Note_off_c, 0, 69, 64
2, 648992, Note_on_c, 0, 78, 108
2, 648992, Note_on_c, 0, 41, 82
2, 649024, Note_on_c, 0, 77, 88
2, 649029, Note_off_c, 0, 78, 64
2, 649042, Note_off_c, 0, 41, 64
2, 649059, Note_on_c, 0, 75, 83
2, 649059, Note_on_c, 0, 46, 101
2, 649079, Note_off_c, 0, 77, 64
2, 649104, Note_on_c, 0, 73, 80
2, 649124, Note_off_c, 0, 75, 64
2, 649134, Note_on_c, 0, 70, 79
2, 649134, Note_on_c, 0, 61, 54
2, 649134, Note_on_c, 0, 53, 70
2, 649149, Note_off_c, 0, 73, 64
2, 649159, Note_off_c, 0, 61, 64
2, 649164, Note_off_c, 0, 53, 64
2, 649167, Note_off_c, 0, 70, 64
2, 649167, Note_on_c, 0, 65, 77
2, 649187, Note_off_c, 0, 65, 64
2, 649199, Note_on_c, 0, 63, 76
2, 649204, Note_off_c, 0, 46, 64
2, 649237, Note_on_c, 0, 61, 63
2, 649252, Note_off_c, 0, 63, 64
2, 649267, Note_on_c, 0, 58, 60
2, 649267, Note_on_c, 0, 37, 90
2, 649282, Note_off_c, 0, 61, 64
2, 649309, Note_off_c, 0, 58, 64
2, 649312, Note_off_c, 0, 37, 64
2, 649312, Note_on_c, 0, 53, 76
2, 649347, Note_off_c, 0, 53, 64
2, 649352, Note_on_c, 0, 57, 52
2, 649352, Note_on_c, 0, 39, 80
2, 649392, Note_on_c, 0, 58, 58
2, 649407, Note_off_c, 0, 57, 64
2, 649424, Note_off_c, 0, 58, 64
2, 649432, Note_on_c, 0, 60, 63
2, 649432, Note_on_c, 0, 54, 85
2, 649432, Note_on_c, 0, 45, 68
2, 649467, Note_on_c, 0, 61, 68
2, 649474, Note_off_c, 0, 45, 64
2, 649477, Note_off_c, 0, 54, 64
2, 649484, Note_off_c, 0, 60, 64
2, 649497, Note_off_c, 0, 39, 64
2, 649504, Note_on_c, 0, 63, 72
2, 649514, Note_off_c, 0, 61, 64
2, 649539, Note_off_c, 0, 63, 64
2, 649547, Note_on_c, 0, 64, 78
2, 649562, Note_on_c, 0, 39, 82
2, 649574, Note_on_c, 0, 65, 81
2, 649597, Note_off_c, 0, 39, 64
2, 649612, Note_on_c, 0, 66, 86
2, 649619, Note_off_c, 0, 64, 64
2, 649629, Note_off_c, 0, 65, 64
2, 649647, Note_on_c, 0, 37, 80
2, 649652, Note_off_c, 0, 66, 64
2, 649654, Note_on_c, 0, 64, 82
2, 649684, Note_off_c, 0, 64, 64
2, 649689, Note_on_c, 0, 65, 79
2, 649727, Note_on_c, 0, 53, 64
2, 649729, Note_off_c, 0, 65, 64
2, 649732, Note_on_c, 0, 62, 74
2, 649732, Note_on_c, 0, 46, 67
2, 649757, Note_off_c, 0, 53, 64
2, 649759, Note_off_c, 0, 46, 64
2, 649762, Note_off_c, 0, 62, 64
2, 649767, Note_on_c, 0, 63, 69
2, 649792, Note_off_c, 0, 37, 64
2, 649794, Note_off_c, 0, 63, 64
2, 649802, Note_on_c, 0, 60, 66
2, 649834, Note_off_c, 0, 60, 64
2, 649837, Note_on_c, 0, 61, 61
2, 649852, Note_on_c, 0, 37, 72
2, 649869, Note_on_c, 0, 60, 58
2, 649882, Note_off_c, 0, 61, 64
2, 649887, Note_off_c, 0, 37, 64
2, 649907, Note_on_c, 0, 58, 53
2, 649919, Note_off_c, 0, 60, 64
2, 649932, Note_on_c, 0, 39, 80
2, 649939, Note_on_c, 0, 57, 53
2, 649942, Note_off_c, 0, 58, 64
2, 649977, Note_on_c, 0, 58, 58
2, 650007, Note_on_c, 0, 60, 62
2, 650007, Note_on_c, 0, 54, 84
2, 650007, Note_on_c, 0, 45, 67
2, 650012, Note_off_c, 0, 57, 64
2, 650022, Control_c, 0, 64, 127
2, 650022, Control_c, 0, 64, 127
2, 650032, Note_off_c, 0, 58, 64
2, 650037, Note_on_c, 0, 61, 66
2, 650052, Note_off_c, 0, 45, 64
2, 650052, Note_off_c, 0, 54, 64
2, 650077, Note_off_c, 0, 39, 64
2, 650078, Control_c, 0, 64, 127
2, 650078, Control_c, 0, 64, 127
2, 650079, Note_off_c, 0, 60, 64
2, 650082, Note_on_c, 0, 63, 72
2, 650099, Note_off_c, 0, 61, 64
2, 650109, Note_off_c, 0, 63, 64
2, 650119, Note_on_c, 0, 64, 77
2, 650119, Control_c, 0, 64, 0
2, 650119, Control_c, 0, 64, 0
2, 650152, Note_on_c, 0, 39, 76
2, 650157, Note_on_c, 0, 65, 81
2, 650175, Control_c, 0, 64, 0
2, 650175, Control_c, 0, 64, 0
2, 650177, Note_off_c, 0, 64, 64
2, 650184, Note_on_c, 0, 66, 84
2, 650189, Note_off_c, 0, 39, 64
2, 650207, Note_off_c, 0, 65, 64
2, 650222, Note_off_c, 0, 66, 64
2, 650229, Note_on_c, 0, 64, 83
2, 650229, Note_on_c, 0, 37, 80
2, 650259, Note_off_c, 0, 64, 64
2, 650262, Note_on_c, 0, 65, 79
2, 650297, Note_off_c, 0, 65, 64
2, 650307, Note_on_c, 0, 62, 73
2, 650307, Note_on_c, 0, 53, 85
2, 650312, Note_on_c, 0, 46, 68
2, 650332, Note_off_c, 0, 62, 64
2, 650344, Note_on_c, 0, 63, 68
2, 650352, Note_off_c, 0, 53, 64
2, 650357, Note_off_c, 0, 46, 64
2, 650367, Note_off_c, 0, 63, 64
2, 650374, Note_off_c, 0, 37, 64
2, 650377, Note_on_c, 0, 60, 64
2, 650414, Note_off_c, 0, 60, 64
2, 650414, Note_on_c, 0, 61, 60
2, 650422, Note_on_c, 0, 37, 51
2, 650442, Note_on_c, 0, 60, 56
2, 650452, Note_off_c, 0, 37, 64
2, 650457, Note_off_c, 0, 61, 64
2, 650479, Note_on_c, 0, 58, 33
2, 650492, Note_off_c, 0, 60, 64
2, 650512, Note_on_c, 0, 39, 48
2, 650514, Note_on_c, 0, 42, 53
2, 650517, Note_off_c, 0, 58, 64
2, 650519, Note_on_c, 0, 47, 64
2, 650522, Note_on_c, 0, 59, 85
2, 650524, Note_on_c, 0, 54, 77
2, 650547, Control_c, 0, 64, 127
2, 650547, Control_c, 0, 64, 127
2, 650557, Note_on_c, 0, 61, 95
2, 650577, Note_off_c, 0, 59, 64
2, 650592, Note_on_c, 0, 63, 82
2, 650602, Note_off_c, 0, 61, 64
2, 650603, Control_c, 0, 64, 127
2, 650603, Control_c, 0, 64, 127
2, 650632, Note_on_c, 0, 64, 82
2, 650652, Note_off_c, 0, 63, 64
2, 650667, Note_on_c, 0, 66, 78
2, 650692, Note_off_c, 0, 39, 64
2, 650694, Note_off_c, 0, 42, 64
2, 650697, Note_on_c, 0, 68, 78
2, 650699, Note_off_c, 0, 64, 64
2, 650699, Note_off_c, 0, 47, 64
2, 650704, Note_off_c, 0, 54, 64
2, 650727, Note_off_c, 0, 66, 64
2, 650734, Note_on_c, 0, 70, 52
2, 650752, Note_off_c, 0, 68, 64
2, 650769, Note_on_c, 0, 71, 63
2, 650787, Note_on_c, 0, 51, 85
2, 650794, Note_off_c, 0, 70, 64
2, 650794, Note_on_c, 0, 54, 75
2, 650802, Note_on_c, 0, 59, 107
2, 650807, Note_on_c, 0, 63, 107
2, 650809, Note_on_c, 0, 73, 108
2, 650824, Note_off_c, 0, 54, 64
2, 650827, Note_off_c, 0, 51, 64
2, 650829, Note_off_c, 0, 71, 64
2, 650832, Note_off_c, 0, 59, 64
2, 650842, Note_off_c, 0, 63, 64
2, 650849, Note_on_c, 0, 75, 108
2, 650862, Note_off_c, 0, 73, 64
2, 650864, Control_c, 0, 64, 0
2, 650864, Control_c, 0, 64, 0
2, 650889, Note_on_c, 0, 76, 111
2, 650909, Note_off_c, 0, 75, 64
2, 650920, Control_c, 0, 64, 0
2, 650920, Control_c, 0, 64, 0
2, 650924, Note_on_c, 0, 78, 106
2, 650932, Note_on_c, 0, 49, 79
2, 650947, Note_off_c, 0, 76, 64
2, 650947, Note_on_c, 0, 54, 75
2, 650952, Note_on_c, 0, 58, 102
2, 650959, Note_on_c, 0, 64, 107
2, 650962, Note_on_c, 0, 80, 113
2, 650969, Control_c, 0, 64, 127
2, 650972, Control_c, 0, 64, 127
2, 650974, Note_off_c, 0, 49, 64
2, 650977, Note_off_c, 0, 54, 64
2, 650979, Note_off_c, 0, 58, 64
2, 650982, Note_off_c, 0, 78, 64
2, 650987, Note_off_c, 0, 64, 64
2, 651002, Note_on_c, 0, 82, 106
2, 651017, Note_off_c, 0, 80, 64
2, 651025, Control_c, 0, 64, 127
2, 651028, Control_c, 0, 64, 127
2, 651034, Note_on_c, 0, 83, 127
2, 651054, Note_on_c, 0, 47, 78
2, 651062, Note_off_c, 0, 82, 64
2, 651069, Control_c, 0, 64, 0
2, 651069, Control_c, 0, 64, 0
2, 651077, Note_on_c, 0, 85, 118
2, 651082, Note_on_c, 0, 54, 88
2, 651097, Note_off_c, 0, 83, 64
2, 651102, Note_on_c, 0, 63, 127
2, 651104, Note_on_c, 0, 88, 115
2, 651112, Note_off_c, 0, 85, 64
2, 651125, Control_c, 0, 64, 0
2, 651125, Control_c, 0, 64, 0
2, 651132, Control_c, 0, 64, 127
2, 651139, Control_c, 0, 64, 127
2, 651147, Note_on_c, 0, 87, 106
2, 651157, Note_off_c, 0, 88, 64
2, 651182, Note_on_c, 0, 83, 94
2, 651188, Control_c, 0, 64, 127
2, 651195, Control_c, 0, 64, 127
2, 651207, Note_off_c, 0, 87, 64
2, 651217, Note_on_c, 0, 80, 95
2, 651244, Note_off_c, 0, 83, 64
2, 651252, Note_on_c, 0, 78, 91
2, 651269, Note_off_c, 0, 80, 64
2, 651289, Note_on_c, 0, 75, 89
2, 651302, Note_off_c, 0, 63, 64
2, 651304, Note_off_c, 0, 78, 64
2, 651312, Note_off_c, 0, 54, 64
2, 651324, Note_on_c, 0, 71, 86
2, 651347, Note_off_c, 0, 47, 64
2, 651352, Note_off_c, 0, 75, 64
2, 651369, Note_on_c, 0, 68, 46
2, 651387, Note_off_c, 0, 71, 64
2, 651394, Note_on_c, 0, 66, 63
2, 651429, Note_off_c, 0, 68, 64
2, 651429, Note_on_c, 0, 63, 75
2, 651457, Note_off_c, 0, 66, 64
2, 651462, Note_on_c, 0, 59, 67
2, 651492, Note_off_c, 0, 63, 64
2, 651497, Note_on_c, 0, 56, 69
2, 651522, Note_off_c, 0, 59, 64
2, 651524, Note_on_c, 0, 54, 43
2, 651542, Note_off_c, 0, 56, 64
2, 651557, Note_on_c, 0, 51, 62
2, 651587, Note_off_c, 0, 54, 64
2, 651597, Note_on_c, 0, 47, 51
2, 651619, Note_off_c, 0, 51, 64
2, 651637, Note_on_c, 0, 44, 46
2, 651657, Note_off_c, 0, 47, 64
2, 651659, Note_on_c, 0, 40, 55
2, 651659, Note_on_c, 0, 28, 118
2, 651692, Control_c, 0, 64, 0
2, 651692, Control_c, 0, 64, 0
2, 651697, Note_off_c, 0, 44, 64
2, 651702, Note_on_c, 0, 41, 70
2, 651704, Note_on_c, 0, 29, 70
2, 651707, Note_off_c, 0, 28, 64
2, 651707, Note_off_c, 0, 40, 64
2, 651742, Note_on_c, 0, 46, 57
2, 651744, Note_off_c, 0, 41, 64
2, 651744, Note_on_c, 0, 34, 57
2, 651747, Note_off_c, 0, 29, 64
2, 651748, Control_c, 0, 64, 0
2, 651748, Control_c, 0, 64, 0
2, 651784, Note_on_c, 0, 45, 58
2, 651787, Note_on_c, 0, 33, 58
2, 651792, Note_off_c, 0, 34, 64
2, 651792, Note_off_c, 0, 46, 64
2, 651832, Note_off_c, 0, 33, 64
2, 651832, Note_off_c, 0, 45, 64
2, 651832, Note_on_c, 0, 42, 59
2, 651832, Note_on_c, 0, 30, 59
2, 651847, Control_c, 0, 64, 127
2, 651847, Control_c, 0, 64, 127
2, 651879, Note_off_c, 0, 30, 64
2, 651879, Note_off_c, 0, 42, 64
2, 651879, Note_on_c, 0, 41, 60
2, 651879, Note_on_c, 0, 29, 60
2, 651903, Control_c, 0, 64, 127
2, 651903, Control_c, 0, 64, 127
2, 651909, Control_c, 0, 64, 0
2, 651912, Note_on_c, 0, 49, 61
2, 651912, Note_on_c, 0, 37, 61
2, 651912, Control_c, 0, 64, 0
2, 651927, Note_off_c, 0, 29, 64
2, 651927, Note_off_c, 0, 41, 64
2, 651949, Note_on_c, 0, 48, 62
2, 651952, Note_on_c, 0, 36, 62
2, 651962, Note_off_c, 0, 37, 64
2, 651962, Note_off_c, 0, 49, 64
2, 651965, Control_c, 0, 64, 0
2, 651968, Control_c, 0, 64, 0
2, 651979, Note_on_c, 0, 46, 62
2, 651979, Note_on_c, 0, 34, 62
2, 651997, Note_off_c, 0, 48, 64
2, 652002, Note_off_c, 0, 36, 64
2, 652009, Note_on_c, 0, 45, 62
2, 652009, Note_on_c, 0, 33, 62
2, 652027, Note_off_c, 0, 34, 64
2, 652027, Note_off_c, 0, 46, 64
2, 652037, Note_on_c, 0, 54, 62
2, 652037, Note_on_c, 0, 42, 62
2, 652057, Note_off_c, 0, 33, 64
2, 652057, Note_off_c, 0, 45, 64
2, 652069, Note_on_c, 0, 41, 63
2, 652072, Note_on_c, 0, 53, 63
2, 652084, Note_off_c, 0, 42, 64
2, 652084, Note_off_c, 0, 54, 64
2, 652099, Note_on_c, 0, 49, 64
2, 652099, Note_on_c, 0, 37, 64
2, 652117, Note_off_c, 0, 53, 64
2, 652117, Note_off_c, 0, 41, 64
2, 652127, Note_on_c, 0, 48, 64
2, 652129, Note_on_c, 0, 36, 64
2, 652134, Control_c, 0, 64, 127
2, 652134, Control_c, 0, 64, 127
2, 652139, Note_off_c, 0, 37, 64
2, 652147, Note_off_c, 0, 49, 64
2, 652162, Note_on_c, 0, 58, 65
2, 652164, Note_on_c, 0, 46, 65
2, 652174, Note_off_c, 0, 48, 64
2, 652177, Note_off_c, 0, 36, 64
2, 652190, Control_c, 0, 64, 127
2, 652190, Control_c, 0, 64, 127
2, 652199, Note_on_c, 0, 57, 66
2, 652199, Note_on_c, 0, 45, 66
2, 652207, Control_c, 0, 64, 0
2, 652207, Control_c, 0, 64, 0
2, 652212, Note_off_c, 0, 46, 64
2, 652212, Note_off_c, 0, 58, 64
2, 652232, Note_on_c, 0, 54, 66
2, 652232, Note_on_c, 0, 42, 67
2, 652247, Note_off_c, 0, 45, 64
2, 652247, Note_off_c, 0, 57, 64
2, 652257, Note_on_c, 0, 41, 67
2, 652259, Note_on_c, 0, 53, 67
2, 652263, Control_c, 0, 64, 0
2, 652263, Control_c, 0, 64, 0
2, 652279, Note_off_c, 0, 54, 64
2, 652287, Note_on_c, 0, 61, 68
2, 652287, Note_on_c, 0, 49, 68
2, 652289, Note_off_c, 0, 42, 64
2, 652304, Note_off_c, 0, 41, 64
2, 652307, Note_off_c, 0, 53, 64
2, 652309, Note_on_c, 0, 60, 68
2, 652309, Note_on_c, 0, 48, 68
2, 652334, Note_off_c, 0, 49, 64
2, 652334, Note_off_c, 0, 61, 64
2, 652334, Control_c, 0, 64, 127
2, 652334, Control_c, 0, 64, 127
2, 652339, Note_on_c, 0, 58, 69
2, 652339, Note_on_c, 0, 46, 69
2, 652357, Note_off_c, 0, 48, 64
2, 652357, Note_off_c, 0, 60, 64
2, 652362, Note_on_c, 0, 57, 69
2, 652362, Note_on_c, 0, 45, 69
2, 652382, Note_on_c, 0, 66, 70
2, 652382, Note_on_c, 0, 54, 70
2, 652384, Note_off_c, 0, 58, 64
2, 652387, Note_off_c, 0, 46, 64
2, 652390, Control_c, 0, 64, 127
2, 652390, Control_c, 0, 64, 127
2, 652394, Control_c, 0, 64, 0
2, 652394, Control_c, 0, 64, 0
2, 652402, Note_on_c, 0, 65, 70
2, 652402, Note_on_c, 0, 53, 70
2, 652409, Note_off_c, 0, 45, 64
2, 652409, Note_off_c, 0, 57, 64
2, 652432, Note_off_c, 0, 66, 64
2, 652434, Note_off_c, 0, 54, 64
2, 652434, Note_on_c, 0, 61, 71
2, 652434, Note_on_c, 0, 49, 71
2, 652450, Control_c, 0, 64, 0
2, 652450, Control_c, 0, 64, 0
2, 652452, Note_off_c, 0, 53, 64
2, 652452, Note_off_c, 0, 65, 64
2, 652462, Note_on_c, 0, 60, 71
2, 652464, Note_on_c, 0, 48, 71
2, 652474, Note_off_c, 0, 49, 64
2, 652484, Note_off_c, 0, 61, 64
2, 652487, Control_c, 0, 64, 127
2, 652487, Control_c, 0, 64, 127
2, 652492, Note_on_c, 0, 70, 72
2, 652492, Note_on_c, 0, 58, 61
2, 652494, Note_off_c, 0, 60, 64
2, 652502, Note_off_c, 0, 48, 64
2, 652519, Note_on_c, 0, 69, 73
2, 652519, Note_on_c, 0, 57, 73
2, 652532, Note_off_c, 0, 58, 64
2, 652532, Note_off_c, 0, 70, 64
2, 652543, Control_c, 0, 64, 127
2, 652543, Control_c, 0, 64, 127
2, 652547, Control_c, 0, 64, 127
2, 652547, Control_c, 0, 64, 127
2, 652557, Note_on_c, 0, 66, 73
2, 652557, Note_on_c, 0, 54, 73
2, 652567, Note_off_c, 0, 57, 64
2, 652567, Note_off_c, 0, 69, 64
2, 652592, Note_on_c, 0, 65, 74
2, 652592, Note_on_c, 0, 53, 74
2, 652603, Control_c, 0, 64, 127
2, 652603, Control_c, 0, 64, 127
2, 652604, Note_off_c, 0, 54, 64
2, 652604, Note_off_c, 0, 66, 64
2, 652617, Note_on_c, 0, 73, 75
2, 652617, Note_on_c, 0, 61, 75
2, 652617, Control_c, 0, 64, 0
2, 652617, Control_c, 0, 64, 0
2, 652639, Note_off_c, 0, 53, 64
2, 652642, Note_off_c, 0, 65, 64
2, 652652, Note_on_c, 0, 72, 75
2, 652652, Note_on_c, 0, 60, 75
2, 652662, Note_off_c, 0, 73, 64
2, 652664, Note_off_c, 0, 61, 64
2, 652673, Control_c, 0, 64, 0
2, 652673, Control_c, 0, 64, 0
2, 652682, Note_on_c, 0, 70, 76
2, 652682, Note_on_c, 0, 58, 76
2, 652682, Control_c, 0, 64, 127
2, 652682, Control_c, 0, 64, 127
2, 652702, Note_off_c, 0, 60, 64
2, 652702, Note_off_c, 0, 72, 64
2, 652704, Note_on_c, 0, 69, 77
2, 652704, Note_on_c, 0, 57, 77
2, 652732, Note_off_c, 0, 58, 64
2, 652732, Note_off_c, 0, 70, 64
2, 652732, Note_on_c, 0, 78, 77
2, 652732, Note_on_c, 0, 66, 77
2, 652738, Control_c, 0, 64, 127
2, 652738, Control_c, 0, 64, 127
2, 652744, Note_off_c, 0, 57, 64
2, 652747, Control_c, 0, 64, 0
2, 652747, Control_c, 0, 64, 0
2, 652752, Note_off_c, 0, 69, 64
2, 652754, Note_on_c, 0, 77, 78
2, 652754, Note_on_c, 0, 65, 78
2, 652779, Note_off_c, 0, 66, 64
2, 652779, Note_off_c, 0, 78, 64
2, 652792, Note_on_c, 0, 73, 78
2, 652792, Note_on_c, 0, 61, 78
2, 652802, Note_off_c, 0, 77, 64
2, 652802, Control_c, 0, 64, 127
2, 652802, Control_c, 0, 64, 127
2, 652803, Control_c, 0, 64, 0
2, 652803, Control_c, 0, 64, 0
2, 652807, Note_off_c, 0, 65, 64
2, 652819, Note_on_c, 0, 72, 78
2, 652819, Note_on_c, 0, 60, 78
2, 652837, Note_off_c, 0, 61, 64
2, 652837, Note_off_c, 0, 73, 64
2, 652837, Control_c, 0, 64, 0
2, 652837, Control_c, 0, 64, 0
2, 652852, Note_on_c, 0, 70, 79
2, 652854, Note_off_c, 0, 60, 64
2, 652854, Note_on_c, 0, 82, 79
2, 652857, Control_c, 0, 64, 127
2, 652858, Control_c, 0, 64, 127
2, 652858, Control_c, 0, 64, 127
2, 652859, Note_off_c, 0, 72, 64
2, 652859, Control_c, 0, 64, 127
2, 652879, Note_on_c, 0, 81, 79
2, 652879, Note_on_c, 0, 69, 79
2, 652893, Control_c, 0, 64, 0
2, 652893, Control_c, 0, 64, 0
2, 652902, Note_off_c, 0, 70, 64
2, 652907, Note_off_c, 0, 82, 64
2, 652912, Note_on_c, 0, 78, 80
2, 652912, Note_on_c, 0, 66, 80
2, 652913, Control_c, 0, 64, 127
2, 652915, Control_c, 0, 64, 127
2, 652927, Note_off_c, 0, 69, 64
2, 652937, Note_off_c, 0, 81, 64
2, 652939, Note_on_c, 0, 77, 80
2, 652939, Note_on_c, 0, 65, 80
2, 652944, Control_c, 0, 64, 0
2, 652944, Control_c, 0, 64, 0
2, 652967, Note_off_c, 0, 66, 64
2, 652967, Note_off_c, 0, 78, 64
2, 652972, Note_on_c, 0, 73, 81
2, 652977, Note_on_c, 0, 85, 81
2, 652987, Note_off_c, 0, 65, 64
2, 652994, Note_off_c, 0, 77, 64
2, 653000, Control_c, 0, 64, 0
2, 653000, Control_c, 0, 64, 0
2, 653007, Note_on_c, 0, 84, 82
2, 653007, Note_on_c, 0, 72, 82
2, 653009, Control_c, 0, 64, 127
2, 653009, Control_c, 0, 64, 127
2, 653022, Note_off_c, 0, 73, 64
2, 653032, Note_off_c, 0, 85, 64
2, 653034, Note_on_c, 0, 82, 82
2, 653034, Note_on_c, 0, 70, 82
2, 653054, Note_off_c, 0, 72, 64
2, 653057, Control_c, 0, 64, 0
2, 653057, Control_c, 0, 64, 0
2, 653059, Note_off_c, 0, 84, 64
2, 653062, Note_on_c, 0, 81, 83
2, 653062, Note_on_c, 0, 69, 83
2, 653065, Control_c, 0, 64, 127
2, 653065, Control_c, 0, 64, 127
2, 653074, Note_off_c, 0, 82, 64
2, 653082, Note_off_c, 0, 70, 64
2, 653094, Note_on_c, 0, 90, 84
2, 653094, Note_on_c, 0, 78, 84
2, 653109, Note_off_c, 0, 69, 64
2, 653109, Note_off_c, 0, 81, 64
2, 653113, Control_c, 0, 64, 0
2, 653113, Control_c, 0, 64, 0
2, 653122, Note_on_c, 0, 89, 84
2, 653124, Note_on_c, 0, 77, 84
2, 653144, Note_off_c, 0, 90, 64
2, 653147, Control_c, 0, 64, 127
2, 653147, Note_on_c, 0, 85, 85
2, 653147, Note_on_c, 0, 73, 85
2, 653147, Control_c, 0, 64, 127
2, 653172, Note_off_c, 0, 89, 64
2, 653172, Note_off_c, 0, 78, 64
2, 653174, Note_off_c, 0, 77, 64
2, 653184, Note_on_c, 0, 84, 86
2, 653184, Note_on_c, 0, 72, 86
2, 653197, Note_off_c, 0, 73, 64
2, 653203, Control_c, 0, 64, 127
2, 653203, Control_c, 0, 64, 127
2, 653207, Note_off_c, 0, 85, 64
2, 653214, Note_on_c, 0, 94, 86
2, 653214, Note_on_c, 0, 82, 86
2, 653232, Note_off_c, 0, 72, 64
2, 653232, Note_off_c, 0, 84, 64
2, 653244, Note_on_c, 0, 93, 87
2, 653244, Note_on_c, 0, 81, 87
2, 653262, Note_off_c, 0, 82, 64
2, 653262, Note_off_c, 0, 94, 64
2, 653272, Note_on_c, 0, 90, 87
2, 653272, Note_on_c, 0, 78, 87
2, 653292, Note_off_c, 0, 81, 64
2, 653292, Note_off_c, 0, 93, 64
2, 653294, Note_on_c, 0, 77, 88
2, 653297, Note_on_c, 0, 89, 88
2, 653317, Note_off_c, 0, 78, 64
2, 653317, Note_off_c, 0, 90, 64
2, 653327, Note_on_c, 0, 97, 89
2, 653327, Note_on_c, 0, 85, 89
2, 653342, Note_off_c, 0, 77, 64
2, 653344, Note_off_c, 0, 89, 64
2, 653362, Note_on_c, 0, 96, 89
2, 653362, Note_on_c, 0, 84, 89
2, 653372, Note_off_c, 0, 97, 64
2, 653377, Note_off_c, 0, 85, 64
2, 653392, Note_on_c, 0, 101, 90
2, 653392, Note_on_c, 0, 89, 90
2, 653409, Note_off_c, 0, 84, 64
2, 653412, Note_off_c, 0, 96, 64
2, 653457, Note_off_c, 0, 89, 64
2, 653457, Note_off_c, 0, 101, 64
2, 653579, Note_on_c, 0, 77, 101
2, 653579, Note_on_c, 0, 69, 100
2, 653579, Note_on_c, 0, 63, 110
2, 653579, Note_on_c, 0, 53, 100
2, 653579, Note_on_c, 0, 41, 96
2, 653627, Control_c, 0, 64, 127
2, 653627, Control_c, 0, 64, 127
2, 653679, Note_off_c, 0, 41, 64
2, 653679, Note_off_c, 0, 53, 64
2, 653679, Note_off_c, 0, 63, 64
2, 653679, Note_off_c, 0, 69, 64
2, 653682, Note_off_c, 0, 77, 64
2, 653683, Control_c, 0, 64, 127
2, 653683, Control_c, 0, 64, 127
2, 653717, Control_c, 0, 64, 0
2, 653719, Control_c, 0, 64, 0
2, 653747, Note_on_c, 0, 46, 120
2, 653747, Note_on_c, 0, 34, 80
2, 653767, Control_c, 0, 64, 127
2, 653767, Control_c, 0, 64, 127
2, 653773, Control_c, 0, 64, 0
2, 653775, Control_c, 0, 64, 0
2, 653823, Control_c, 0, 64, 127
2, 653823, Control_c, 0, 64, 127
2, 653894, Note_on_c, 0, 82, 98
2, 653894, Note_on_c, 0, 70, 118
2, 653894, Note_on_c, 0, 61, 118
2, 653897, Note_on_c, 0, 53, 101
2, 654082, Control_c, 0, 64, 0
2, 654082, Control_c, 0, 64, 0
2, 654138, Control_c, 0, 64, 0
2, 654138, Control_c, 0, 64, 0
2, 654219, Note_off_c, 0, 61, 64
2, 654219, Note_off_c, 0, 70, 64
2, 654222, Note_off_c, 0, 53, 64
2, 654224, Note_off_c, 0, 82, 64
2, 654277, Note_off_c, 0, 34, 64
2, 654307, Note_off_c, 0, 46, 64
2, 656136, Control_c, 0, 64, 127
2, 656561, Note_on_c, 0, 63, 21
2, 656561, Note_on_c, 0, 60, 25
2, 656564, Note_on_c, 0, 56, 40
2, 656572, Note_on_c, 0, 51, 17
2, 656711, Note_off_c, 0, 60, 64
2, 656711, Note_off_c, 0, 63, 64
2, 656714, Note_off_c, 0, 56, 64
2, 656722, Note_off_c, 0, 51, 64
2, 656725, Note_on_c, 0, 63, 28
2, 656725, Note_on_c, 0, 60, 29
2, 656730, Note_on_c, 0, 51, 28
2, 656735, Note_on_c, 0, 56, 26
2, 656855, Note_off_c, 0, 60, 64
2, 656855, Note_off_c, 0, 63, 64
2, 656860, Note_off_c, 0, 51, 64
2, 656865, Note_off_c, 0, 56, 64
2, 656868, Note_on_c, 0, 60, 32
2, 656874, Note_on_c, 0, 63, 35
2, 656877, Note_on_c, 0, 51, 33
2, 656884, Note_on_c, 0, 56, 32
2, 656994, Note_off_c, 0, 63, 64
2, 656997, Note_off_c, 0, 51, 64
2, 656998, Note_off_c, 0, 60, 64
2, 657014, Note_off_c, 0, 56, 64
2, 657025, Note_on_c, 0, 60, 45
2, 657028, Note_on_c, 0, 63, 33
2, 657033, Note_on_c, 0, 51, 34
2, 657039, Note_on_c, 0, 56, 34
2, 657155, Note_off_c, 0, 60, 64
2, 657158, Note_off_c, 0, 63, 64
2, 657163, Note_off_c, 0, 51, 64
2, 657169, Note_off_c, 0, 56, 64
2, 657172, Note_on_c, 0, 60, 49
2, 657178, Note_on_c, 0, 63, 43
2, 657178, Note_on_c, 0, 51, 43
2, 657185, Note_on_c, 0, 56, 43
2, 657302, Note_off_c, 0, 60, 64
2, 657308, Note_off_c, 0, 51, 64
2, 657308, Note_off_c, 0, 63, 64
2, 657315, Note_off_c, 0, 56, 64
2, 657321, Note_on_c, 0, 60, 54
2, 657324, Note_on_c, 0, 63, 46
2, 657330, Note_on_c, 0, 56, 53
2, 657330, Note_on_c, 0, 51, 49
2, 657474, Note_off_c, 0, 63, 64
2, 657476, Note_off_c, 0, 60, 64
2, 657480, Note_off_c, 0, 51, 64
2, 657480, Note_off_c, 0, 56, 64
2, 657480, Note_on_c, 0, 63, 49
2, 657488, Note_on_c, 0, 60, 72
2, 657488, Note_on_c, 0, 51, 56
2, 657489, Note_on_c, 0, 56, 58
2, 657620, Note_off_c, 0, 63, 64
2, 657628, Note_off_c, 0, 51, 64
2, 657628, Note_off_c, 0, 60, 64
2, 657629, Note_off_c, 0, 56, 64
2, 657639, Note_on_c, 0, 63, 32
2, 657639, Note_on_c, 0, 60, 50
2, 657644, Note_on_c, 0, 51, 35
2, 657652, Note_on_c, 0, 56, 35
2, 657774, Note_off_c, 0, 51, 64
2, 657774, Note_off_c, 0, 60, 64
2, 657774, Note_off_c, 0, 63, 64
2, 657782, Note_off_c, 0, 56, 64
2, 657788, Note_on_c, 0, 60, 41
2, 657791, Note_on_c, 0, 63, 28
2, 657791, Note_on_c, 0, 51, 33
2, 657799, Note_on_c, 0, 56, 29
2, 657928, Note_off_c, 0, 60, 64
2, 657931, Note_off_c, 0, 51, 64
2, 657931, Note_off_c, 0, 63, 64
2, 657939, Note_off_c, 0, 56, 64
2, 657940, Note_on_c, 0, 60, 32
2, 657948, Note_on_c, 0, 63, 27
2, 657948, Note_on_c, 0, 51, 29
2, 657956, Note_on_c, 0, 56, 30
2, 658098, Note_off_c, 0, 63, 64
2, 658108, Note_off_c, 0, 51, 64
2, 658110, Note_off_c, 0, 60, 64
2, 658115, Note_on_c, 0, 63, 28
2, 658116, Note_off_c, 0, 56, 64
2, 658116, Note_on_c, 0, 56, 19
2, 658118, Note_on_c, 0, 60, 30
2, 658123, Note_on_c, 0, 51, 23
2, 658251, Note_off_c, 0, 56, 64
2, 658258, Note_off_c, 0, 51, 64
2, 658265, Note_off_c, 0, 63, 64
2, 658268, Note_off_c, 0, 60, 64
2, 658268, Note_on_c, 0, 63, 28
2, 658268, Note_on_c, 0, 56, 28
2, 658268, Note_on_c, 0, 51, 22
2, 658275, Note_on_c, 0, 60, 23
2, 658428, Note_off_c, 0, 51, 64
2, 658428, Note_off_c, 0, 56, 64
2, 658428, Note_off_c, 0, 63, 64
2, 658435, Note_off_c, 0, 60, 64
2, 658464, Note_on_c, 0, 61, 33
2, 658470, Note_on_c, 0, 39, 51
2, 658479, Control_c, 0, 64, 0
2, 658526, Control_c, 0, 64, 127
2, 658595, Note_off_c, 0, 61, 64
2, 658685, Note_on_c, 0, 51, 14
2, 658690, Note_on_c, 0, 67, 56
2, 658692, Note_on_c, 0, 58, 27
2, 658696, Note_on_c, 0, 61, 14
2, 658747, Note_off_c, 0, 51, 64
2, 658765, Note_off_c, 0, 61, 64
2, 658773, Note_off_c, 0, 58, 64
2, 658789, Note_off_c, 0, 39, 64
2, 658836, Note_on_c, 0, 61, 36
2, 658843, Note_on_c, 0, 72, 60
2, 658843, Note_on_c, 0, 63, 37
2, 658843, Note_on_c, 0, 51, 31
2, 658849, Note_on_c, 0, 58, 36
2, 658861, Note_off_c, 0, 67, 64
2, 658896, Note_off_c, 0, 61, 64
2, 658910, Note_off_c, 0, 58, 64
2, 658910, Note_off_c, 0, 51, 64
2, 658915, Note_off_c, 0, 63, 64
2, 659004, Note_on_c, 0, 63, 1
2, 659004, Note_on_c, 0, 58, 36
2, 659009, Note_on_c, 0, 51, 26
2, 659012, Note_on_c, 0, 61, 36
2, 659023, Note_off_c, 0, 72, 64
2, 659029, Note_on_c, 0, 73, 62
2, 659061, Note_off_c, 0, 63, 64
2, 659064, Note_off_c, 0, 58, 64
2, 659072, Note_off_c, 0, 61, 64
2, 659099, Note_off_c, 0, 51, 64
2, 659180, Note_on_c, 0, 61, 34
2, 659180, Note_on_c, 0, 58, 36
2, 659185, Note_off_c, 0, 73, 64
2, 659185, Note_on_c, 0, 65, 47
2, 659188, Note_on_c, 0, 63, 36
2, 659192, Note_on_c, 0, 51, 28
2, 659240, Note_off_c, 0, 58, 64
2, 659248, Note_off_c, 0, 63, 64
2, 659252, Note_off_c, 0, 61, 64
2, 659258, Note_off_c, 0, 51, 64
2, 659302, Note_off_c, 0, 65, 64
2, 659324, Note_on_c, 0, 63, 36
2, 659324, Note_on_c, 0, 61, 36
2, 659327, Note_on_c, 0, 58, 35
2, 659327, Note_on_c, 0, 51, 18
2, 659328, Note_on_c, 0, 67, 61
2, 659358, Note_off_c, 0, 58, 64
2, 659366, Note_off_c, 0, 51, 64
2, 659384, Note_off_c, 0, 61, 64
2, 659384, Note_off_c, 0, 63, 64
2, 659505, Control_c, 0, 64, 0
2, 659509, Note_on_c, 0, 70, 60
2, 659518, Note_on_c, 0, 44, 54
2, 659519, Note_off_c, 0, 67, 64
2, 659560, Control_c, 0, 64, 127
2, 659708, Note_on_c, 0, 63, 28
2, 659712, Note_on_c, 0, 56, 18
2, 659715, Note_on_c, 0, 60, 19
2, 659720, Note_on_c, 0, 66, 34
2, 659772, Note_off_c, 0, 66, 64
2, 659774, Note_off_c, 0, 60, 64
2, 659778, Note_off_c, 0, 63, 64
2, 659801, Note_off_c, 0, 56, 64
2, 659836, Note_on_c, 0, 60, 28
2, 659838, Note_off_c, 0, 44, 64
2, 659844, Note_on_c, 0, 56, 20
2, 659847, Note_on_c, 0, 66, 25
2, 659851, Note_on_c, 0, 63, 34
2, 659894, Note_off_c, 0, 56, 64
2, 659908, Note_off_c, 0, 60, 64
2, 659919, Note_off_c, 0, 66, 64
2, 659924, Note_off_c, 0, 63, 64
2, 659932, Note_off_c, 0, 70, 64
2, 659986, Note_on_c, 0, 68, 57
2, 659988, Note_on_c, 0, 60, 20
2, 659991, Note_on_c, 0, 63, 36
2, 659992, Note_on_c, 0, 66, 31
2, 660001, Note_on_c, 0, 56, 28
2, 660047, Note_off_c, 0, 60, 64
2, 660053, Note_off_c, 0, 66, 64
2, 660061, Note_off_c, 0, 63, 64
2, 660073, Note_off_c, 0, 56, 64
2, 660120, Note_on_c, 0, 66, 28
2, 660128, Note_on_c, 0, 63, 29
2, 660131, Note_on_c, 0, 60, 30
2, 660145, Note_on_c, 0, 56, 18
2, 660188, Note_off_c, 0, 60, 64
2, 660192, Note_off_c, 0, 66, 64
2, 660198, Note_off_c, 0, 63, 64
2, 660217, Note_off_c, 0, 56, 64
2, 660260, Note_on_c, 0, 56, 19
2, 660263, Note_on_c, 0, 63, 33
2, 660267, Note_on_c, 0, 66, 34
2, 660267, Note_on_c, 0, 60, 29
2, 660332, Note_off_c, 0, 56, 64
2, 660335, Note_off_c, 0, 63, 64
2, 660339, Note_off_c, 0, 60, 64
2, 660339, Note_off_c, 0, 66, 64
2, 660426, Control_c, 0, 64, 0
2, 660438, Note_on_c, 0, 49, 56
2, 660483, Control_c, 0, 64, 127
2, 660598, Note_off_c, 0, 68, 64
2, 660644, Note_on_c, 0, 68, 31
2, 660646, Note_on_c, 0, 73, 56
2, 660646, Note_on_c, 0, 65, 28
2, 660646, Note_on_c, 0, 56, 26
2, 660653, Note_on_c, 0, 61, 25
2, 660710, Note_off_c, 0, 56, 64
2, 660713, Note_off_c, 0, 61, 64
2, 660717, Note_off_c, 0, 65, 64
2, 660743, Note_off_c, 0, 68, 64
2, 660747, Note_off_c, 0, 49, 64
2, 660783, Note_off_c, 0, 73, 64
2, 660801, Note_on_c, 0, 61, 34
2, 660807, Note_on_c, 0, 56, 34
2, 660812, Note_on_c, 0, 65, 31
2, 660813, Note_on_c, 0, 79, 66
2, 660813, Note_on_c, 0, 68, 39
2, 660868, Note_off_c, 0, 61, 64
2, 660876, Note_off_c, 0, 65, 64
2, 660876, Note_off_c, 0, 56, 64
2, 660885, Note_off_c, 0, 68, 64
2, 660967, Note_on_c, 0, 61, 31
2, 660970, Note_on_c, 0, 56, 31
2, 660976, Note_on_c, 0, 82, 60
2, 660976, Note_on_c, 0, 65, 25
2, 660981, Note_on_c, 0, 68, 26
2, 660984, Note_on_c, 0, 73, 51
2, 660999, Note_off_c, 0, 79, 64
2, 661033, Note_off_c, 0, 73, 64
2, 661035, Note_off_c, 0, 56, 64
2, 661041, Note_off_c, 0, 65, 64
2, 661043, Note_off_c, 0, 61, 64
2, 661044, Note_off_c, 0, 68, 64
2, 661057, Note_off_c, 0, 82, 64
2, 661110, Note_on_c, 0, 65, 34
2, 661113, Note_on_c, 0, 61, 36
2, 661116, Note_on_c, 0, 73, 54
2, 661118, Note_on_c, 0, 80, 66
2, 661118, Note_on_c, 0, 56, 31
2, 661122, Note_on_c, 0, 68, 36
2, 661171, Note_off_c, 0, 68, 64
2, 661172, Note_off_c, 0, 65, 64
2, 661174, Note_off_c, 0, 61, 64
2, 661176, Note_off_c, 0, 73, 64
2, 661179, Note_off_c, 0, 56, 64
2, 661232, Note_off_c, 0, 80, 64
2, 661236, Note_on_c, 0, 73, 54
2, 661236, Note_on_c, 0, 68, 39
2, 661247, Note_on_c, 0, 65, 34
2, 661247, Note_on_c, 0, 56, 28
2, 661251, Note_on_c, 0, 77, 59
2, 661256, Note_on_c, 0, 61, 34
2, 661296, Note_off_c, 0, 68, 64
2, 661296, Note_off_c, 0, 73, 64
2, 661306, Note_off_c, 0, 56, 64
2, 661314, Note_off_c, 0, 61, 64
2, 661319, Note_off_c, 0, 65, 64
2, 661380, Note_off_c, 0, 77, 64
2, 661391, Control_c, 0, 64, 0
2, 661405, Note_on_c, 0, 51, 57
2, 661408, Note_on_c, 0, 75, 64
2, 661453, Control_c, 0, 64, 127
2, 661548, Note_on_c, 0, 70, 34
2, 661548, Note_on_c, 0, 67, 15
2, 661548, Note_on_c, 0, 63, 31
2, 661548, Note_on_c, 0, 61, 18
2, 661548, Note_on_c, 0, 58, 34
2, 661609, Note_off_c, 0, 67, 64
2, 661618, Note_off_c, 0, 58, 64
2, 661620, Note_off_c, 0, 61, 64
2, 661620, Note_off_c, 0, 63, 64
2, 661620, Note_off_c, 0, 70, 64
2, 661692, Note_on_c, 0, 67, 23
2, 661692, Note_on_c, 0, 63, 30
2, 661692, Note_on_c, 0, 61, 33
2, 661692, Note_on_c, 0, 58, 26
2, 661704, Note_on_c, 0, 70, 36
2, 661717, Note_off_c, 0, 75, 64
2, 661749, Note_off_c, 0, 51, 64
2, 661764, Note_off_c, 0, 58, 64
2, 661764, Note_off_c, 0, 61, 64
2, 661764, Note_off_c, 0, 63, 64
2, 661764, Note_off_c, 0, 67, 64
2, 661776, Note_off_c, 0, 70, 64
2, 661856, Note_on_c, 0, 49, 47
2, 661860, Note_on_c, 0, 77, 63
2, 661876, Control_c, 0, 64, 0
2, 661927, Control_c, 0, 64, 127
2, 662012, Note_on_c, 0, 68, 43
2, 662012, Note_on_c, 0, 61, 36
2, 662018, Note_on_c, 0, 65, 32
2, 662018, Note_on_c, 0, 56, 34
2, 662022, Note_on_c, 0, 73, 37
2, 662070, Note_off_c, 0, 65, 64
2, 662072, Note_off_c, 0, 61, 64
2, 662077, Note_off_c, 0, 73, 64
2, 662083, Note_off_c, 0, 56, 64
2, 662083, Note_off_c, 0, 68, 64
2, 662156, Note_on_c, 0, 73, 37
2, 662156, Note_on_c, 0, 65, 28
2, 662162, Note_on_c, 0, 68, 35
2, 662164, Note_on_c, 0, 61, 28
2, 662165, Note_off_c, 0, 49, 64
2, 662170, Note_on_c, 0, 56, 34
2, 662224, Note_off_c, 0, 65, 64
2, 662228, Note_off_c, 0, 56, 64
2, 662234, Note_off_c, 0, 68, 64
2, 662236, Note_off_c, 0, 61, 64
2, 662237, Note_off_c, 0, 73, 64
2, 662314, Control_c, 0, 64, 0
2, 662330, Note_on_c, 0, 51, 27
2, 662383, Control_c, 0, 64, 127
2, 662476, Note_on_c, 0, 70, 54
2, 662476, Note_on_c, 0, 67, 34
2, 662476, Note_on_c, 0, 61, 28
2, 662483, Note_on_c, 0, 58, 36
2, 662509, Note_off_c, 0, 77, 64
2, 662549, Note_off_c, 0, 61, 64
2, 662555, Note_off_c, 0, 58, 64
2, 662559, Note_off_c, 0, 67, 64
2, 662665, Note_off_c, 0, 70, 64
2, 662676, Note_on_c, 0, 75, 62
2, 662676, Note_on_c, 0, 67, 28
2, 662676, Note_on_c, 0, 63, 23
2, 662676, Note_on_c, 0, 61, 19
2, 662676, Note_on_c, 0, 58, 34
2, 662684, Note_on_c, 0, 70, 36
2, 662744, Note_off_c, 0, 70, 64
2, 662748, Note_off_c, 0, 58, 64
2, 662748, Note_off_c, 0, 61, 64
2, 662748, Note_off_c, 0, 63, 64
2, 662748, Note_off_c, 0, 67, 64
2, 662827, Note_off_c, 0, 51, 64
2, 662852, Note_on_c, 0, 70, 36
2, 662852, Note_on_c, 0, 63, 28
2, 662852, Note_on_c, 0, 61, 28
2, 662858, Note_on_c, 0, 79, 58
2, 662859, Note_on_c, 0, 67, 34
2, 662859, Note_on_c, 0, 58, 30
2, 662872, Note_off_c, 0, 75, 64
2, 662912, Note_off_c, 0, 70, 64
2, 662924, Note_off_c, 0, 61, 64
2, 662924, Note_off_c, 0, 63, 64
2, 662931, Note_off_c, 0, 67, 64
2, 662933, Note_off_c, 0, 58, 64
2, 662980, Note_on_c, 0, 67, 28
2, 662988, Note_on_c, 0, 70, 36
2, 662988, Note_on_c, 0, 63, 31
2, 662988, Note_on_c, 0, 61, 34
2, 662994, Note_on_c, 0, 77, 62
2, 663000, Note_on_c, 0, 58, 23
2, 663006, Note_off_c, 0, 79, 64
2, 663048, Note_off_c, 0, 63, 64
2, 663048, Note_off_c, 0, 70, 64
2, 663052, Note_off_c, 0, 67, 64
2, 663060, Note_off_c, 0, 61, 64
2, 663064, Note_off_c, 0, 58, 64
2, 663136, Note_on_c, 0, 67, 31
2, 663137, Note_on_c, 0, 63, 34
2, 663137, Note_on_c, 0, 61, 35
2, 663140, Note_on_c, 0, 70, 43
2, 663142, Note_on_c, 0, 73, 61
2, 663144, Note_on_c, 0, 58, 36
2, 663152, Note_off_c, 0, 77, 64
2, 663204, Note_off_c, 0, 58, 64
2, 663208, Note_off_c, 0, 67, 64
2, 663209, Note_off_c, 0, 61, 64
2, 663209, Note_off_c, 0, 63, 64
2, 663212, Note_off_c, 0, 70, 64
2, 663267, Note_off_c, 0, 73, 64
2, 663307, Note_on_c, 0, 53, 44
2, 663314, Note_on_c, 0, 72, 59
2, 663323, Control_c, 0, 64, 0
2, 663390, Control_c, 0, 64, 127
2, 663468, Note_on_c, 0, 69, 36
2, 663468, Note_on_c, 0, 65, 28
2, 663468, Note_on_c, 0, 63, 17
2, 663473, Note_on_c, 0, 60, 24
2, 663528, Note_off_c, 0, 69, 64
2, 663531, Note_off_c, 0, 63, 64
2, 663538, Note_off_c, 0, 65, 64
2, 663545, Note_off_c, 0, 60, 64
2, 663596, Note_on_c, 0, 69, 37
2, 663600, Note_on_c, 0, 63, 28
2, 663606, Note_on_c, 0, 60, 36
2, 663610, Note_on_c, 0, 65, 31
2, 663630, Note_off_c, 0, 53, 64
2, 663668, Note_off_c, 0, 69, 64
2, 663672, Note_off_c, 0, 63, 64
2, 663678, Note_off_c, 0, 60, 64
2, 663680, Note_off_c, 0, 72, 64
2, 663682, Note_off_c, 0, 65, 64
2, 663765, Note_on_c, 0, 46, 58
2, 663769, Control_c, 0, 64, 0
2, 663775, Note_on_c, 0, 73, 63
2, 663825, Control_c, 0, 64, 127
2, 663932, Note_on_c, 0, 68, 22
2, 663932, Note_on_c, 0, 65, 22
2, 663933, Note_on_c, 0, 61, 37
2, 663936, Note_on_c, 0, 58, 17
2, 663936, Note_on_c, 0, 53, 34
2, 663988, Note_off_c, 0, 61, 64
2, 663992, Note_off_c, 0, 53, 64
2, 664000, Note_off_c, 0, 58, 64
2, 664004, Note_off_c, 0, 68, 64
2, 664008, Note_off_c, 0, 65, 64
2, 664076, Note_off_c, 0, 46, 64
2, 664076, Note_on_c, 0, 65, 14
2, 664076, Note_on_c, 0, 53, 36
2, 664081, Note_on_c, 0, 68, 26
2, 664084, Note_on_c, 0, 61, 24
2, 664085, Note_on_c, 0, 58, 23
2, 664136, Note_off_c, 0, 53, 64
2, 664148, Note_off_c, 0, 65, 64
2, 664153, Note_off_c, 0, 68, 64
2, 664156, Note_off_c, 0, 61, 64
2, 664157, Note_off_c, 0, 58, 64
2, 664205, Control_c, 0, 64, 0
2, 664228, Note_on_c, 0, 51, 51
2, 664278, Control_c, 0, 64, 127
2, 664345, Note_off_c, 0, 73, 64
2, 664396, Note_on_c, 0, 61, 34
2, 664396, Note_on_c, 0, 58, 36
2, 664398, Note_on_c, 0, 68, 51
2, 664404, Note_on_c, 0, 65, 37
2, 664457, Note_off_c, 0, 61, 64
2, 664468, Note_off_c, 0, 58, 64
2, 664476, Note_off_c, 0, 65, 64
2, 664514, Note_off_c, 0, 68, 64
2, 664532, Note_on_c, 0, 58, 36
2, 664540, Note_on_c, 0, 67, 38
2, 664540, Note_on_c, 0, 63, 43
2, 664544, Note_on_c, 0, 61, 44
2, 664547, Note_on_c, 0, 70, 56
2, 664580, Note_off_c, 0, 51, 64
2, 664592, Note_off_c, 0, 58, 64
2, 664612, Note_off_c, 0, 63, 64
2, 664612, Note_off_c, 0, 67, 64
2, 664616, Note_off_c, 0, 61, 64
2, 664696, Control_c, 0, 64, 0
2, 664711, Note_on_c, 0, 73, 58
2, 664717, Note_on_c, 0, 44, 64
2, 664755, Note_off_c, 0, 70, 64
2, 664760, Control_c, 0, 64, 127
2, 664839, Note_off_c, 0, 73, 64
2, 664871, Note_on_c, 0, 51, 37
2, 664874, Note_on_c, 0, 72, 60
2, 664876, Note_on_c, 0, 68, 37
2, 664876, Note_on_c, 0, 60, 36
2, 664876, Note_on_c, 0, 56, 36
2, 664883, Note_on_c, 0, 63, 43
2, 664936, Note_off_c, 0, 56, 64
2, 664936, Note_off_c, 0, 60, 64
2, 664937, Note_off_c, 0, 51, 64
2, 664948, Note_off_c, 0, 68, 64
2, 664962, Note_off_c, 0, 63, 64
2, 665012, Note_off_c, 0, 44, 64
2, 665060, Note_on_c, 0, 51, 36
2, 665065, Note_on_c, 0, 68, 47
2, 665068, Note_on_c, 0, 63, 19
2, 665068, Note_on_c, 0, 56, 36
2, 665070, Note_on_c, 0, 65, 34
2, 665070, Note_on_c, 0, 60, 32
2, 665080, Note_off_c, 0, 72, 64
2, 665128, Note_off_c, 0, 56, 64
2, 665132, Note_off_c, 0, 51, 64
2, 665140, Note_off_c, 0, 63, 64
2, 665142, Note_off_c, 0, 60, 64
2, 665142, Note_off_c, 0, 65, 64
2, 665244, Note_off_c, 0, 68, 64
2, 665274, Control_c, 0, 64, 0
2, 665281, Note_on_c, 0, 70, 57
2, 665291, Note_on_c, 0, 39, 57
2, 665339, Control_c, 0, 64, 127
2, 665498, Note_on_c, 0, 67, 27
2, 665500, Note_on_c, 0, 58, 26
2, 665511, Note_on_c, 0, 51, 33
2, 665513, Note_on_c, 0, 63, 30
2, 665562, Note_off_c, 0, 58, 64
2, 665566, Note_off_c, 0, 63, 64
2, 665566, Note_off_c, 0, 51, 64
2, 665569, Note_off_c, 0, 67, 64
2, 665625, Note_off_c, 0, 39, 64
2, 665640, Note_on_c, 0, 63, 25
2, 665651, Note_on_c, 0, 58, 31
2, 665651, Note_on_c, 0, 51, 27
2, 665652, Note_on_c, 0, 67, 27
2, 665700, Note_off_c, 0, 67, 64
2, 665703, Note_off_c, 0, 58, 64
2, 665703, Note_off_c, 0, 63, 64
2, 665707, Note_off_c, 0, 51, 64
2, 665792, Note_on_c, 0, 58, 24
2, 665797, Note_on_c, 0, 51, 25
2, 665802, Note_on_c, 0, 63, 19
2, 665807, Note_on_c, 0, 67, 19
2, 665845, Note_off_c, 0, 58, 64
2, 665851, Note_off_c, 0, 63, 64
2, 665855, Note_off_c, 0, 67, 64
2, 665855, Note_off_c, 0, 51, 64
2, 665938, Note_on_c, 0, 67, 33
2, 665938, Note_on_c, 0, 63, 22
2, 665939, Note_on_c, 0, 58, 27
2, 665939, Note_on_c, 0, 51, 27
2, 665988, Note_off_c, 0, 67, 64
2, 665998, Note_off_c, 0, 51, 64
2, 665998, Note_off_c, 0, 58, 64
2, 665998, Note_off_c, 0, 63, 64
2, 666084, Note_on_c, 0, 58, 27
2, 666084, Note_on_c, 0, 51, 38
2, 666088, Note_on_c, 0, 67, 33
2, 666092, Note_on_c, 0, 63, 36
2, 666152, Note_off_c, 0, 63, 64
2, 666156, Note_off_c, 0, 51, 64
2, 666156, Note_off_c, 0, 58, 64
2, 666160, Note_off_c, 0, 67, 64
2, 666294, Control_c, 0, 64, 0
2, 666300, Note_on_c, 0, 39, 93
2, 666346, Control_c, 0, 64, 127
2, 666354, Note_off_c, 0, 70, 64
2, 666540, Note_on_c, 0, 63, 45
2, 666540, Note_on_c, 0, 61, 48
2, 666540, Note_on_c, 0, 51, 23
2, 666542, Note_on_c, 0, 70, 75
2, 666548, Note_on_c, 0, 67, 47
2, 666548, Note_on_c, 0, 58, 43
2, 666600, Note_off_c, 0, 63, 64
2, 666612, Note_off_c, 0, 51, 64
2, 666612, Note_off_c, 0, 61, 64
2, 666620, Note_off_c, 0, 58, 64
2, 666620, Note_off_c, 0, 67, 64
2, 666642, Note_off_c, 0, 70, 64
2, 666692, Note_on_c, 0, 61, 54
2, 666696, Note_on_c, 0, 72, 79
2, 666700, Note_on_c, 0, 67, 45
2, 666700, Note_on_c, 0, 63, 45
2, 666700, Note_on_c, 0, 51, 44
2, 666701, Note_on_c, 0, 58, 44
2, 666740, Note_off_c, 0, 39, 64
2, 666746, Note_off_c, 0, 51, 64
2, 666758, Note_off_c, 0, 58, 64
2, 666760, Note_off_c, 0, 63, 64
2, 666760, Note_off_c, 0, 67, 64
2, 666783, Note_off_c, 0, 61, 64
2, 666836, Note_off_c, 0, 72, 64
2, 666836, Note_on_c, 0, 67, 45
2, 666836, Note_on_c, 0, 63, 51
2, 666836, Note_on_c, 0, 61, 46
2, 666836, Note_on_c, 0, 58, 45
2, 666842, Note_on_c, 0, 51, 47
2, 666846, Note_on_c, 0, 73, 81
2, 666890, Note_off_c, 0, 63, 64
2, 666896, Note_off_c, 0, 58, 64
2, 666896, Note_off_c, 0, 61, 64
2, 666896, Note_off_c, 0, 67, 64
2, 666909, Note_off_c, 0, 51, 64
2, 666964, Note_off_c, 0, 73, 64
2, 666996, Note_on_c, 0, 65, 75
2, 666996, Note_on_c, 0, 63, 45
2, 666996, Note_on_c, 0, 61, 51
2, 666996, Note_on_c, 0, 58, 45
2, 666996, Note_on_c, 0, 51, 39
2, 667056, Note_off_c, 0, 63, 64
2, 667068, Note_off_c, 0, 51, 64
2, 667068, Note_off_c, 0, 58, 64
2, 667068, Note_off_c, 0, 61, 64
2, 667138, Note_on_c, 0, 51, 45
2, 667140, Note_on_c, 0, 63, 45
2, 667147, Note_on_c, 0, 61, 53
2, 667147, Note_on_c, 0, 58, 44
2, 667151, Note_on_c, 0, 67, 81
2, 667170, Note_off_c, 0, 65, 64
2, 667200, Note_off_c, 0, 63, 64
2, 667210, Note_off_c, 0, 51, 64
2, 667219, Note_off_c, 0, 58, 64
2, 667219, Note_off_c, 0, 61, 64
2, 667311, Control_c, 0, 64, 0
2, 667330, Note_on_c, 0, 70, 81
2, 667330, Note_on_c, 0, 44, 73
2, 667332, Note_off_c, 0, 67, 64
2, 667373, Control_c, 0, 64, 127
2, 667508, Note_on_c, 0, 66, 40
2, 667508, Note_on_c, 0, 60, 27
2, 667508, Note_on_c, 0, 56, 43
2, 667512, Note_on_c, 0, 51, 21
2, 667520, Note_on_c, 0, 63, 27
2, 667568, Note_off_c, 0, 56, 64
2, 667580, Note_off_c, 0, 60, 64
2, 667580, Note_off_c, 0, 66, 64
2, 667584, Note_off_c, 0, 51, 64
2, 667592, Note_off_c, 0, 63, 64
2, 667632, Note_on_c, 0, 66, 42
2, 667636, Note_on_c, 0, 60, 31
2, 667643, Note_on_c, 0, 63, 40
2, 667649, Note_on_c, 0, 51, 34
2, 667656, Note_on_c, 0, 56, 40
2, 667704, Note_off_c, 0, 66, 64
2, 667708, Note_off_c, 0, 60, 64
2, 667709, Note_off_c, 0, 63, 64
2, 667714, Note_off_c, 0, 70, 64
2, 667721, Note_off_c, 0, 51, 64
2, 667728, Note_off_c, 0, 56, 64
2, 667749, Note_off_c, 0, 44, 64
2, 667772, Note_on_c, 0, 60, 43
2, 667776, Note_on_c, 0, 63, 42
2, 667780, Note_on_c, 0, 68, 75
2, 667780, Note_on_c, 0, 66, 43
2, 667782, Note_on_c, 0, 51, 40
2, 667791, Note_on_c, 0, 56, 35
2, 667832, Note_off_c, 0, 60, 64
2, 667837, Note_off_c, 0, 63, 64
2, 667840, Note_off_c, 0, 66, 64
2, 667841, Note_off_c, 0, 51, 64
2, 667863, Note_off_c, 0, 56, 64
2, 667905, Note_on_c, 0, 63, 40
2, 667908, Note_on_c, 0, 60, 40
2, 667908, Note_on_c, 0, 56, 22
2, 667908, Note_on_c, 0, 51, 33
2, 667910, Note_on_c, 0, 66, 34
2, 667964, Note_off_c, 0, 66, 64
2, 667970, Note_off_c, 0, 63, 64
2, 667980, Note_off_c, 0, 51, 64
2, 667980, Note_off_c, 0, 56, 64
2, 667980, Note_off_c, 0, 60, 64
2, 668055, Note_on_c, 0, 66, 31
2, 668055, Note_on_c, 0, 60, 36
2, 668060, Note_on_c, 0, 51, 43
2, 668068, Note_on_c, 0, 63, 43
2, 668068, Note_on_c, 0, 56, 43
2, 668120, Note_off_c, 0, 51, 64
2, 668127, Note_off_c, 0, 60, 64
2, 668127, Note_off_c, 0, 66, 64
2, 668128, Note_off_c, 0, 56, 64
2, 668128, Note_off_c, 0, 63, 64
2, 668224, Control_c, 0, 64, 0
2, 668238, Note_on_c, 0, 37, 85
2, 668291, Control_c, 0, 64, 127
2, 668383, Note_off_c, 0, 68, 64
2, 668454, Note_on_c, 0, 73, 79
2, 668458, Note_on_c, 0, 68, 36
2, 668458, Note_on_c, 0, 61, 48
2, 668460, Note_on_c, 0, 56, 45
2, 668460, Note_on_c, 0, 53, 28
2, 668463, Note_on_c, 0, 65, 38
2, 668515, Note_off_c, 0, 53, 64
2, 668519, Note_off_c, 0, 65, 64
2, 668519, Note_off_c, 0, 61, 64
2, 668520, Note_off_c, 0, 56, 64
2, 668543, Note_off_c, 0, 68, 64
2, 668600, Note_off_c, 0, 73, 64
2, 668609, Note_on_c, 0, 65, 39
2, 668612, Note_on_c, 0, 73, 54
2, 668613, Note_on_c, 0, 79, 81
2, 668617, Note_on_c, 0, 61, 47
2, 668617, Note_on_c, 0, 53, 37
2, 668618, Note_on_c, 0, 68, 49
2, 668618, Note_on_c, 0, 56, 37
2, 668650, Note_off_c, 0, 37, 64
2, 668660, Note_off_c, 0, 53, 64
2, 668667, Note_off_c, 0, 61, 64
2, 668669, Note_off_c, 0, 56, 64
2, 668672, Note_off_c, 0, 73, 64
2, 668682, Note_off_c, 0, 65, 64
2, 668684, Note_off_c, 0, 68, 64
2, 668765, Note_on_c, 0, 68, 45
2, 668766, Note_on_c, 0, 82, 83
2, 668771, Note_on_c, 0, 65, 41
2, 668776, Note_on_c, 0, 73, 53
2, 668776, Note_on_c, 0, 53, 43
2, 668777, Note_on_c, 0, 61, 45
2, 668777, Note_on_c, 0, 56, 37
2, 668788, Note_off_c, 0, 79, 64
2, 668818, Note_off_c, 0, 53, 64
2, 668818, Note_off_c, 0, 68, 64
2, 668821, Note_off_c, 0, 56, 64
2, 668825, Note_off_c, 0, 61, 64
2, 668832, Note_off_c, 0, 65, 64
2, 668848, Note_off_c, 0, 73, 64
2, 668848, Note_off_c, 0, 82, 64
2, 668902, Note_on_c, 0, 80, 85
2, 668908, Note_on_c, 0, 73, 54
2, 668908, Note_on_c, 0, 65, 39
2, 668911, Note_on_c, 0, 61, 43
2, 668912, Note_on_c, 0, 53, 37
2, 668917, Note_on_c, 0, 56, 26
2, 668918, Note_on_c, 0, 68, 45
2, 668968, Note_off_c, 0, 73, 64
2, 668972, Note_off_c, 0, 65, 64
2, 668983, Note_off_c, 0, 61, 64
2, 668984, Note_off_c, 0, 53, 64
2, 668989, Note_off_c, 0, 56, 64
2, 668990, Note_off_c, 0, 68, 64
2, 669024, Note_off_c, 0, 80, 64
2, 669028, Note_on_c, 0, 73, 54
2, 669028, Note_on_c, 0, 53, 45
2, 669029, Note_on_c, 0, 56, 37
2, 669030, Note_on_c, 0, 68, 57
2, 669034, Note_on_c, 0, 65, 39
2, 669036, Note_on_c, 0, 61, 43
2, 669041, Note_on_c, 0, 77, 74
2, 669085, Note_off_c, 0, 68, 64
2, 669088, Note_off_c, 0, 53, 64
2, 669088, Note_off_c, 0, 73, 64
2, 669101, Note_off_c, 0, 56, 64
2, 669106, Note_off_c, 0, 65, 64
2, 669108, Note_off_c, 0, 61, 64
2, 669176, Control_c, 0, 64, 0
2, 669193, Note_off_c, 0, 77, 64
2, 669194, Note_on_c, 0, 75, 81
2, 669197, Note_on_c, 0, 51, 73
2, 669236, Control_c, 0, 64, 127
2, 669348, Note_on_c, 0, 70, 45
2, 669348, Note_on_c, 0, 58, 44
2, 669356, Note_on_c, 0, 63, 38
2, 669356, Note_on_c, 0, 61, 36
2, 669361, Note_on_c, 0, 67, 30
2, 669412, Note_off_c, 0, 63, 64
2, 669415, Note_off_c, 0, 58, 64
2, 669417, Note_off_c, 0, 61, 64
2, 669420, Note_off_c, 0, 70, 64
2, 669430, Note_off_c, 0, 67, 64
2, 669490, Note_on_c, 0, 63, 38
2, 669492, Note_on_c, 0, 70, 45
2, 669492, Note_on_c, 0, 67, 36
2, 669499, Note_on_c, 0, 61, 48
2, 669500, Note_on_c, 0, 58, 43
2, 669512, Note_off_c, 0, 75, 64
2, 669542, Note_off_c, 0, 51, 64
2, 669562, Note_off_c, 0, 63, 64
2, 669564, Note_off_c, 0, 67, 64
2, 669564, Note_off_c, 0, 70, 64
2, 669571, Note_off_c, 0, 61, 64
2, 669572, Note_off_c, 0, 58, 64
2, 669643, Control_c, 0, 64, 0
2, 669650, Note_on_c, 0, 49, 68
2, 669657, Note_on_c, 0, 77, 82
2, 669711, Control_c, 0, 64, 127
2, 669804, Note_on_c, 0, 73, 44
2, 669810, Note_on_c, 0, 65, 44
2, 669810, Note_on_c, 0, 56, 22
2, 669812, Note_on_c, 0, 61, 45
2, 669816, Note_on_c, 0, 68, 45
2, 669871, Note_off_c, 0, 56, 64
2, 669872, Note_off_c, 0, 61, 64
2, 669876, Note_off_c, 0, 73, 64
2, 669880, Note_off_c, 0, 68, 64
2, 669882, Note_off_c, 0, 65, 64
2, 669949, Note_off_c, 0, 49, 64
2, 669953, Note_on_c, 0, 73, 39
2, 669953, Note_on_c, 0, 65, 41
2, 669953, Note_on_c, 0, 56, 42
2, 669956, Note_on_c, 0, 68, 47
2, 669956, Note_on_c, 0, 61, 29
2, 670025, Note_off_c, 0, 56, 64
2, 670028, Note_off_c, 0, 61, 64
2, 670028, Note_off_c, 0, 65, 64
2, 670028, Note_off_c, 0, 68, 64
2, 670052, Note_off_c, 0, 73, 64
2, 670080, Control_c, 0, 64, 0
2, 670102, Note_on_c, 0, 51, 75
2, 670136, Control_c, 0, 64, 127
2, 670244, Note_on_c, 0, 70, 73
2, 670244, Note_on_c, 0, 61, 44
2, 670244, Note_on_c, 0, 58, 37
2, 670246, Note_on_c, 0, 63, 43
2, 670248, Note_on_c, 0, 67, 33
2, 670261, Note_off_c, 0, 77, 64
2, 670307, Note_off_c, 0, 63, 64
2, 670310, Note_off_c, 0, 61, 64
2, 670316, Note_off_c, 0, 58, 64
2, 670320, Note_off_c, 0, 67, 64
2, 670364, Note_off_c, 0, 70, 64
2, 670402, Note_on_c, 0, 75, 81
2, 670404, Note_on_c, 0, 67, 47
2, 670404, Note_on_c, 0, 61, 23
2, 670408, Note_on_c, 0, 58, 47
2, 670409, Note_on_c, 0, 63, 45
2, 670442, Note_off_c, 0, 51, 64
2, 670457, Note_off_c, 0, 58, 64
2, 670463, Note_off_c, 0, 67, 64
2, 670470, Note_off_c, 0, 63, 64
2, 670476, Note_off_c, 0, 61, 64
2, 670550, Note_on_c, 0, 79, 79
2, 670558, Note_on_c, 0, 58, 32
2, 670561, Note_on_c, 0, 63, 44
2, 670562, Note_on_c, 0, 61, 38
2, 670568, Note_off_c, 0, 75, 64
2, 670568, Note_on_c, 0, 67, 37
2, 670610, Note_off_c, 0, 61, 64
2, 670618, Note_off_c, 0, 63, 64
2, 670620, Note_off_c, 0, 58, 64
2, 670640, Note_off_c, 0, 67, 64
2, 670686, Note_on_c, 0, 77, 78
2, 670686, Note_on_c, 0, 58, 33
2, 670690, Note_off_c, 0, 79, 64
2, 670690, Note_on_c, 0, 61, 43
2, 670699, Note_on_c, 0, 67, 30
2, 670699, Note_on_c, 0, 63, 31
2, 670762, Note_off_c, 0, 61, 64
2, 670771, Note_off_c, 0, 63, 64
2, 670771, Note_off_c, 0, 58, 64
2, 670779, Note_off_c, 0, 67, 64
2, 670820, Note_off_c, 0, 77, 64
2, 670828, Note_on_c, 0, 67, 45
2, 670828, Note_on_c, 0, 63, 52
2, 670828, Note_on_c, 0, 61, 37
2, 670832, Note_on_c, 0, 73, 76
2, 670836, Note_on_c, 0, 58, 34
2, 670888, Note_off_c, 0, 67, 64
2, 670900, Note_off_c, 0, 61, 64
2, 670900, Note_off_c, 0, 63, 64
2, 670908, Note_off_c, 0, 58, 64
2, 670915, Note_off_c, 0, 73, 64
2, 671004, Note_on_c, 0, 72, 83
2, 671009, Note_on_c, 0, 41, 75
2, 671015, Control_c, 0, 64, 0
2, 671064, Control_c, 0, 64, 127
2, 671156, Note_on_c, 0, 65, 43
2, 671156, Note_on_c, 0, 53, 45
2, 671164, Note_on_c, 0, 63, 47
2, 671164, Note_on_c, 0, 60, 39
2, 671171, Note_on_c, 0, 69, 45
2, 671217, Note_off_c, 0, 53, 64
2, 671220, Note_off_c, 0, 63, 64
2, 671224, Note_off_c, 0, 65, 64
2, 671229, Note_off_c, 0, 60, 64
2, 671243, Note_off_c, 0, 69, 64
2, 671300, Note_on_c, 0, 53, 45
2, 671303, Note_on_c, 0, 65, 44
2, 671308, Note_on_c, 0, 69, 45
2, 671308, Note_on_c, 0, 60, 45
2, 671311, Note_off_c, 0, 41, 64
2, 671312, Note_on_c, 0, 63, 36
2, 671368, Note_off_c, 0, 69, 64
2, 671372, Note_off_c, 0, 53, 64
2, 671375, Note_off_c, 0, 65, 64
2, 671380, Note_off_c, 0, 60, 64
2, 671384, Note_off_c, 0, 63, 64
2, 671443, Note_off_c, 0, 72, 64
2, 671451, Control_c, 0, 64, 0
2, 671474, Note_on_c, 0, 73, 80
2, 671481, Note_on_c, 0, 46, 75
2, 671508, Control_c, 0, 64, 127
2, 671628, Note_on_c, 0, 58, 34
2, 671635, Note_on_c, 0, 61, 47
2, 671635, Note_on_c, 0, 53, 43
2, 671636, Note_on_c, 0, 68, 23
2, 671636, Note_on_c, 0, 65, 28
2, 671700, Note_off_c, 0, 58, 64
2, 671707, Note_off_c, 0, 53, 64
2, 671707, Note_off_c, 0, 61, 64
2, 671708, Note_off_c, 0, 68, 64
2, 671710, Note_off_c, 0, 65, 64
2, 671771, Note_off_c, 0, 46, 64
2, 671780, Note_on_c, 0, 53, 45
2, 671783, Note_on_c, 0, 65, 39
2, 671788, Note_on_c, 0, 61, 37
2, 671792, Note_on_c, 0, 68, 41
2, 671792, Note_on_c, 0, 58, 44
2, 671840, Note_off_c, 0, 53, 64
2, 671855, Note_off_c, 0, 65, 64
2, 671860, Note_off_c, 0, 61, 64
2, 671862, Note_off_c, 0, 58, 64
2, 671864, Note_off_c, 0, 68, 64
2, 671926, Control_c, 0, 64, 0
2, 671957, Note_on_c, 0, 51, 76
2, 671989, Control_c, 0, 64, 127
2, 672108, Note_off_c, 0, 73, 64
2, 672132, Note_on_c, 0, 65, 32
2, 672132, Note_on_c, 0, 61, 73
2, 672132, Note_on_c, 0, 58, 45
2, 672132, Note_on_c, 0, 53, 45
2, 672192, Note_off_c, 0, 53, 64
2, 672192, Note_off_c, 0, 58, 64
2, 672228, Note_off_c, 0, 65, 64
2, 672236, Note_off_c, 0, 61, 64
2, 672269, Note_on_c, 0, 65, 30
2, 672276, Note_on_c, 0, 68, 75
2, 672276, Note_on_c, 0, 61, 48
2, 672278, Note_on_c, 0, 58, 51
2, 672284, Note_on_c, 0, 53, 45
2, 672303, Note_off_c, 0, 51, 64
2, 672341, Note_off_c, 0, 65, 64
2, 672344, Note_off_c, 0, 53, 64
2, 672350, Note_off_c, 0, 58, 64
2, 672351, Note_off_c, 0, 61, 64
2, 672416, Note_off_c, 0, 68, 64
2, 672448, Control_c, 0, 64, 0
2, 672458, Note_on_c, 0, 72, 85
2, 672458, Note_on_c, 0, 39, 76
2, 672509, Control_c, 0, 64, 127
2, 672653, Note_off_c, 0, 72, 64
2, 672660, Note_on_c, 0, 70, 78
2, 672668, Note_on_c, 0, 61, 45
2, 672676, Note_on_c, 0, 67, 45
2, 672676, Note_on_c, 0, 58, 45
2, 672676, Note_on_c, 0, 51, 45
2, 672728, Note_off_c, 0, 61, 64
2, 672736, Note_off_c, 0, 51, 64
2, 672736, Note_off_c, 0, 58, 64
2, 672736, Note_off_c, 0, 67, 64
2, 672764, Note_off_c, 0, 39, 64
2, 672828, Note_on_c, 0, 61, 43
2, 672832, Note_on_c, 0, 51, 43
2, 672835, Note_on_c, 0, 67, 46
2, 672836, Note_on_c, 0, 58, 36
2, 672866, Note_off_c, 0, 70, 64
2, 672894, Note_off_c, 0, 58, 64
2, 672900, Note_off_c, 0, 61, 64
2, 672907, Note_off_c, 0, 67, 64
2, 672915, Note_off_c, 0, 51, 64
2, 672962, Note_on_c, 0, 68, 75
2, 673062, Note_off_c, 0, 68, 64
2, 673091, Control_c, 0, 64, 0
2, 673101, Note_on_c, 0, 44, 68
2, 673106, Note_on_c, 0, 68, 79
2, 673166, Control_c, 0, 64, 127
2, 673340, Note_on_c, 0, 63, 39
2, 673340, Note_on_c, 0, 60, 31
2, 673348, Note_on_c, 0, 51, 23
2, 673356, Note_on_c, 0, 56, 45
2, 673403, Note_off_c, 0, 63, 64
2, 673412, Note_off_c, 0, 60, 64
2, 673416, Note_off_c, 0, 56, 64
2, 673420, Note_off_c, 0, 51, 64
2, 673492, Note_on_c, 0, 56, 26
2, 673499, Note_on_c, 0, 63, 33
2, 673501, Note_on_c, 0, 51, 25
2, 673507, Note_on_c, 0, 60, 30
2, 673548, Note_off_c, 0, 51, 64
2, 673564, Note_off_c, 0, 56, 64
2, 673571, Note_off_c, 0, 63, 64
2, 673578, Note_off_c, 0, 44, 64
2, 673579, Note_off_c, 0, 60, 64
2, 673637, Note_on_c, 0, 60, 43
2, 673642, Note_on_c, 0, 63, 34
2, 673647, Note_on_c, 0, 51, 28
2, 673648, Note_on_c, 0, 56, 34
2, 673690, Note_off_c, 0, 60, 64
2, 673695, Note_off_c, 0, 51, 64
2, 673698, Note_off_c, 0, 56, 64
2, 673698, Note_off_c, 0, 63, 64
2, 673778, Note_on_c, 0, 63, 39
2, 673780, Note_on_c, 0, 60, 40
2, 673783, Note_on_c, 0, 56, 36
2, 673790, Note_on_c, 0, 51, 25
2, 673833, Note_off_c, 0, 51, 64
2, 673833, Note_off_c, 0, 60, 64
2, 673836, Note_off_c, 0, 63, 64
2, 673839, Note_off_c, 0, 56, 64
2, 673925, Note_on_c, 0, 60, 31
2, 673929, Note_on_c, 0, 51, 22
2, 673932, Note_on_c, 0, 63, 45
2, 673932, Note_on_c, 0, 56, 29
2, 673953, Note_off_c, 0, 68, 64
2, 673992, Note_off_c, 0, 63, 64
2, 673997, Note_off_c, 0, 60, 64
2, 674001, Note_off_c, 0, 51, 64
2, 674004, Note_off_c, 0, 56, 64
2, 674154, Control_c, 0, 64, 0
2, 674169, Note_on_c, 0, 40, 39
2, 674174, Note_on_c, 0, 68, 60
2, 674218, Control_c, 0, 64, 127
2, 674468, Note_on_c, 0, 64, 39
2, 674468, Note_on_c, 0, 62, 46
2, 674468, Note_on_c, 0, 56, 28
2, 674471, Note_on_c, 0, 59, 35
2, 674475, Note_on_c, 0, 52, 43
2, 674528, Note_off_c, 0, 62, 64
2, 674538, Note_off_c, 0, 64, 64
2, 674540, Note_off_c, 0, 56, 64
2, 674544, Note_off_c, 0, 59, 64
2, 674547, Note_off_c, 0, 52, 64
2, 674610, Note_on_c, 0, 56, 34
2, 674612, Note_off_c, 0, 40, 64
2, 674612, Note_on_c, 0, 62, 31
2, 674615, Note_on_c, 0, 59, 27
2, 674619, Note_on_c, 0, 64, 26
2, 674620, Note_on_c, 0, 52, 31
2, 674680, Note_off_c, 0, 52, 64
2, 674682, Note_off_c, 0, 56, 64
2, 674684, Note_off_c, 0, 62, 64
2, 674687, Note_off_c, 0, 64, 64
2, 674687, Note_off_c, 0, 59, 64
2, 674698, Note_off_c, 0, 68, 64
2, 674748, Note_on_c, 0, 59, 24
2, 674751, Note_on_c, 0, 68, 70
2, 674756, Note_on_c, 0, 64, 20
2, 674756, Note_on_c, 0, 62, 46
2, 674758, Note_on_c, 0, 52, 33
2, 674761, Note_on_c, 0, 56, 20
2, 674810, Note_off_c, 0, 64, 64
2, 674816, Note_off_c, 0, 62, 64
2, 674820, Note_off_c, 0, 59, 64
2, 674833, Note_off_c, 0, 56, 64
2, 674833, Note_off_c, 0, 52, 64
2, 674892, Note_off_c, 0, 68, 64
2, 674912, Note_on_c, 0, 66, 57
2, 674916, Note_on_c, 0, 64, 24
2, 674916, Note_on_c, 0, 62, 29
2, 674916, Note_on_c, 0, 59, 29
2, 674917, Note_on_c, 0, 56, 50
2, 674923, Note_on_c, 0, 52, 47
2, 674968, Note_off_c, 0, 56, 64
2, 674988, Note_off_c, 0, 59, 64
2, 674988, Note_off_c, 0, 62, 64
2, 674988, Note_off_c, 0, 64, 64
2, 675003, Note_off_c, 0, 52, 64
2, 675055, Note_off_c, 0, 66, 64
2, 675071, Note_on_c, 0, 52, 38
2, 675073, Note_on_c, 0, 56, 42
2, 675077, Note_on_c, 0, 62, 36
2, 675084, Note_on_c, 0, 64, 52
2, 675084, Note_on_c, 0, 59, 38
2, 675143, Note_off_c, 0, 52, 64
2, 675144, Note_off_c, 0, 59, 64
2, 675145, Note_off_c, 0, 56, 64
2, 675149, Note_off_c, 0, 62, 64
2, 675263, Note_off_c, 0, 64, 64
2, 675280, Control_c, 0, 64, 0
2, 675292, Note_on_c, 0, 45, 60
2, 675295, Note_on_c, 0, 73, 75
2, 675346, Control_c, 0, 64, 127
2, 675516, Note_on_c, 0, 69, 26
2, 675524, Note_on_c, 0, 64, 37
2, 675524, Note_on_c, 0, 61, 35
2, 675524, Note_on_c, 0, 57, 35
2, 675527, Note_on_c, 0, 52, 36
2, 675588, Note_off_c, 0, 69, 64
2, 675596, Note_off_c, 0, 57, 64
2, 675596, Note_off_c, 0, 61, 64
2, 675603, Note_off_c, 0, 64, 64
2, 675606, Note_off_c, 0, 52, 64
2, 675672, Control_c, 0, 64, 0
2, 675684, Note_on_c, 0, 69, 40
2, 675686, Note_on_c, 0, 61, 39
2, 675686, Note_on_c, 0, 57, 41
2, 675691, Note_on_c, 0, 65, 43
2, 675695, Note_on_c, 0, 53, 43
2, 675720, Note_off_c, 0, 45, 64
2, 675722, Control_c, 0, 64, 127
2, 675744, Note_off_c, 0, 69, 64
2, 675759, Note_off_c, 0, 61, 64
2, 675762, Note_off_c, 0, 65, 64
2, 675769, Note_off_c, 0, 53, 64
2, 675772, Note_off_c, 0, 57, 64
2, 675829, Note_on_c, 0, 61, 49
2, 675836, Note_on_c, 0, 69, 42
2, 675836, Note_on_c, 0, 57, 46
2, 675840, Note_on_c, 0, 65, 52
2, 675840, Note_on_c, 0, 53, 40
2, 675896, Note_off_c, 0, 69, 64
2, 675898, Note_off_c, 0, 61, 64
2, 675912, Note_off_c, 0, 53, 64
2, 675912, Note_off_c, 0, 65, 64
2, 675912, Note_off_c, 0, 57, 64
2, 675974, Note_on_c, 0, 57, 45
2, 675978, Note_on_c, 0, 61, 58
2, 675980, Note_on_c, 0, 69, 45
2, 675982, Note_on_c, 0, 66, 69
2, 675983, Note_on_c, 0, 54, 52
2, 676036, Note_off_c, 0, 54, 64
2, 676040, Note_off_c, 0, 69, 64
2, 676043, Note_off_c, 0, 57, 64
2, 676059, Note_off_c, 0, 66, 64
2, 676064, Note_off_c, 0, 61, 64
2, 676164, Note_on_c, 0, 61, 56
2, 676164, Note_on_c, 0, 57, 49
2, 676164, Note_on_c, 0, 55, 52
2, 676167, Note_on_c, 0, 69, 51
2, 676172, Note_on_c, 0, 67, 53
2, 676233, Note_off_c, 0, 73, 64
2, 676236, Note_off_c, 0, 57, 64
2, 676236, Note_off_c, 0, 61, 64
2, 676239, Note_off_c, 0, 69, 64
2, 676239, Note_off_c, 0, 55, 64
2, 676244, Note_off_c, 0, 67, 64
2, 676359, Control_c, 0, 64, 0
2, 676370, Note_on_c, 0, 44, 81
2, 676374, Note_on_c, 0, 73, 85
2, 676430, Control_c, 0, 64, 127
2, 676580, Note_on_c, 0, 60, 30
2, 676588, Note_on_c, 0, 66, 47
2, 676588, Note_on_c, 0, 56, 20
2, 676596, Note_on_c, 0, 68, 50
2, 676660, Note_off_c, 0, 56, 64
2, 676661, Note_off_c, 0, 66, 64
2, 676661, Note_off_c, 0, 60, 64
2, 676668, Note_off_c, 0, 68, 64
2, 676672, Note_off_c, 0, 73, 64
2, 676700, Note_on_c, 0, 66, 57
2, 676708, Note_on_c, 0, 72, 79
2, 676708, Note_on_c, 0, 68, 54
2, 676708, Note_on_c, 0, 63, 41
2, 676708, Note_on_c, 0, 60, 53
2, 676708, Note_on_c, 0, 56, 51
2, 676764, Note_off_c, 0, 66, 64
2, 676768, Note_off_c, 0, 68, 64
2, 676780, Note_off_c, 0, 56, 64
2, 676780, Note_off_c, 0, 60, 64
2, 676780, Note_off_c, 0, 63, 64
2, 676806, Note_off_c, 0, 44, 64
2, 676826, Note_off_c, 0, 72, 64
2, 676828, Note_on_c, 0, 63, 53
2, 676835, Note_on_c, 0, 66, 51
2, 676836, Note_on_c, 0, 68, 55
2, 676836, Note_on_c, 0, 60, 58
2, 676842, Note_on_c, 0, 72, 79
2, 676842, Note_on_c, 0, 56, 55
2, 676895, Note_off_c, 0, 56, 64
2, 676896, Note_off_c, 0, 68, 64
2, 676896, Note_off_c, 0, 66, 64
2, 676900, Note_off_c, 0, 63, 64
2, 676908, Note_off_c, 0, 60, 64
2, 676956, Note_on_c, 0, 63, 58
2, 676963, Note_on_c, 0, 69, 80
2, 676966, Note_on_c, 0, 66, 51
2, 676971, Note_on_c, 0, 60, 59
2, 676975, Note_on_c, 0, 56, 55
2, 676986, Note_off_c, 0, 72, 64
2, 677028, Note_off_c, 0, 63, 64
2, 677032, Note_off_c, 0, 60, 64
2, 677039, Note_off_c, 0, 66, 64
2, 677047, Note_off_c, 0, 56, 64
2, 677070, Note_off_c, 0, 69, 64
2, 677086, Note_on_c, 0, 68, 84
2, 677092, Note_on_c, 0, 66, 55
2, 677092, Note_on_c, 0, 60, 55
2, 677092, Note_on_c, 0, 56, 53
2, 677096, Note_on_c, 0, 63, 55
2, 677164, Note_off_c, 0, 56, 64
2, 677164, Note_off_c, 0, 60, 64
2, 677164, Note_off_c, 0, 66, 64
2, 677168, Note_off_c, 0, 63, 64
2, 677208, Control_c, 0, 64, 0
2, 677242, Note_on_c, 0, 49, 81
2, 677246, Note_on_c, 0, 76, 85
2, 677252, Note_off_c, 0, 68, 64
2, 677274, Control_c, 0, 64, 127
2, 677396, Note_on_c, 0, 73, 41
2, 677396, Note_on_c, 0, 67, 40
2, 677396, Note_on_c, 0, 61, 32
2, 677396, Note_on_c, 0, 55, 22
2, 677402, Note_on_c, 0, 64, 27
2, 677468, Note_off_c, 0, 55, 64
2, 677468, Note_off_c, 0, 67, 64
2, 677468, Note_off_c, 0, 73, 64
2, 677474, Note_off_c, 0, 64, 64
2, 677483, Note_off_c, 0, 61, 64
2, 677525, Control_c, 0, 64, 0
2, 677540, Note_on_c, 0, 73, 40
2, 677548, Note_on_c, 0, 56, 52
2, 677549, Note_on_c, 0, 68, 59
2, 677550, Note_on_c, 0, 61, 38
2, 677554, Note_on_c, 0, 64, 56
2, 677577, Control_c, 0, 64, 127
2, 677612, Note_off_c, 0, 73, 64
2, 677617, Note_off_c, 0, 56, 64
2, 677620, Note_off_c, 0, 68, 64
2, 677622, Note_off_c, 0, 61, 64
2, 677626, Note_off_c, 0, 64, 64
2, 677654, Note_off_c, 0, 49, 64
2, 677660, Note_on_c, 0, 73, 49
2, 677660, Note_on_c, 0, 64, 57
2, 677668, Note_on_c, 0, 61, 50
2, 677668, Note_on_c, 0, 56, 56
2, 677674, Note_on_c, 0, 68, 65
2, 677720, Note_off_c, 0, 73, 64
2, 677729, Note_off_c, 0, 61, 64
2, 677732, Note_off_c, 0, 64, 64
2, 677738, Note_off_c, 0, 56, 64
2, 677746, Note_off_c, 0, 68, 64
2, 677804, Note_on_c, 0, 73, 52
2, 677804, Note_on_c, 0, 64, 54
2, 677804, Note_on_c, 0, 61, 52
2, 677804, Note_on_c, 0, 57, 57
2, 677811, Note_on_c, 0, 69, 65
2, 677864, Note_off_c, 0, 61, 64
2, 677864, Note_off_c, 0, 73, 64
2, 677875, Note_off_c, 0, 64, 64
2, 677876, Note_off_c, 0, 57, 64
2, 677887, Note_off_c, 0, 69, 64
2, 677942, Note_off_c, 0, 76, 64
2, 677991, Note_on_c, 0, 64, 63
2, 677991, Note_on_c, 0, 58, 60
2, 677992, Note_on_c, 0, 72, 64
2, 677996, Note_on_c, 0, 70, 73
2, 677996, Note_on_c, 0, 60, 56
2, 678052, Note_off_c, 0, 58, 64
2, 678056, Note_off_c, 0, 60, 64
2, 678056, Note_off_c, 0, 70, 64
2, 678063, Note_off_c, 0, 64, 64
2, 678064, Note_off_c, 0, 72, 64
2, 678191, Control_c, 0, 64, 0
2, 678205, Note_on_c, 0, 47, 66
2, 678207, Note_on_c, 0, 76, 72
2, 678244, Control_c, 0, 64, 127
2, 678416, Note_on_c, 0, 59, 46
2, 678420, Note_on_c, 0, 69, 60
2, 678420, Note_on_c, 0, 66, 60
2, 678422, Note_on_c, 0, 64, 66
2, 678424, Note_on_c, 0, 71, 65
2, 678480, Note_off_c, 0, 66, 64
2, 678480, Note_off_c, 0, 69, 64
2, 678488, Note_off_c, 0, 59, 64
2, 678494, Note_off_c, 0, 64, 64
2, 678496, Note_off_c, 0, 71, 64
2, 678546, Note_off_c, 0, 76, 64
2, 678580, Note_on_c, 0, 75, 70
2, 678580, Note_on_c, 0, 71, 57
2, 678580, Note_on_c, 0, 69, 60
2, 678580, Note_on_c, 0, 66, 41
2, 678580, Note_on_c, 0, 63, 60
2, 678585, Note_on_c, 0, 59, 50
2, 678620, Note_off_c, 0, 47, 64
2, 678640, Note_off_c, 0, 69, 64
2, 678641, Note_off_c, 0, 63, 64
2, 678652, Note_off_c, 0, 66, 64
2, 678652, Note_off_c, 0, 71, 64
2, 678657, Note_off_c, 0, 75, 64
2, 678660, Note_off_c, 0, 59, 64
2, 678723, Note_on_c, 0, 75, 64
2, 678724, Note_on_c, 0, 71, 61
2, 678724, Note_on_c, 0, 69, 38
2, 678728, Note_on_c, 0, 59, 49
2, 678729, Note_on_c, 0, 66, 61
2, 678729, Note_on_c, 0, 63, 58
2, 678784, Note_off_c, 0, 71, 64
2, 678794, Note_off_c, 0, 63, 64
2, 678794, Note_off_c, 0, 66, 64
2, 678796, Note_off_c, 0, 69, 64
2, 678801, Note_off_c, 0, 59, 64
2, 678852, Note_on_c, 0, 69, 63
2, 678860, Note_on_c, 0, 71, 62
2, 678860, Note_on_c, 0, 66, 62
2, 678862, Note_on_c, 0, 61, 68
2, 678863, Note_on_c, 0, 73, 80
2, 678867, Note_on_c, 0, 59, 60
2, 678878, Note_off_c, 0, 75, 64
2, 678920, Note_off_c, 0, 66, 64
2, 678920, Note_off_c, 0, 71, 64
2, 678927, Note_off_c, 0, 69, 64
2, 678931, Note_off_c, 0, 59, 64
2, 678947, Note_off_c, 0, 61, 64
2, 679004, Note_on_c, 0, 66, 64
2, 679012, Note_on_c, 0, 71, 72
2, 679012, Note_on_c, 0, 69, 58
2, 679014, Note_on_c, 0, 63, 68
2, 679018, Note_on_c, 0, 59, 60
2, 679026, Note_off_c, 0, 73, 64
2, 679076, Note_off_c, 0, 66, 64
2, 679084, Note_off_c, 0, 69, 64
2, 679086, Note_off_c, 0, 63, 64
2, 679090, Note_off_c, 0, 59, 64
2, 679113, Note_off_c, 0, 71, 64
2, 679211, Control_c, 0, 64, 0
2, 679227, Note_on_c, 0, 80, 81
2, 679230, Note_on_c, 0, 52, 78
2, 679271, Control_c, 0, 64, 127
2, 679406, Note_on_c, 0, 74, 57
2, 679406, Note_on_c, 0, 68, 66
2, 679410, Note_on_c, 0, 71, 43
2, 679417, Note_on_c, 0, 64, 47
2, 679417, Note_on_c, 0, 59, 47
2, 679478, Note_off_c, 0, 68, 64
2, 679478, Note_off_c, 0, 74, 64
2, 679482, Note_off_c, 0, 71, 64
2, 679484, Note_off_c, 0, 80, 64
2, 679489, Note_off_c, 0, 59, 64
2, 679489, Note_off_c, 0, 64, 64
2, 679526, Note_off_c, 0, 52, 64
2, 679556, Note_on_c, 0, 80, 82
2, 679556, Note_on_c, 0, 70, 54
2, 679557, Note_on_c, 0, 74, 51
2, 679562, Note_on_c, 0, 68, 63
2, 679562, Note_on_c, 0, 58, 63
2, 679564, Note_on_c, 0, 64, 58
2, 679616, Note_off_c, 0, 70, 64
2, 679629, Note_off_c, 0, 74, 64
2, 679634, Note_off_c, 0, 58, 64
2, 679636, Note_off_c, 0, 64, 64
2, 679643, Note_off_c, 0, 68, 64
2, 679672, Note_off_c, 0, 80, 64
2, 679680, Control_c, 0, 64, 0
2, 679710, Note_on_c, 0, 51, 53
2, 679718, Note_on_c, 0, 80, 86
2, 679747, Control_c, 0, 64, 127
2, 679833, Note_off_c, 0, 80, 64
2, 679844, Note_on_c, 0, 70, 60
2, 679848, Note_on_c, 0, 79, 75
2, 679852, Note_on_c, 0, 67, 53
2, 679852, Note_on_c, 0, 63, 26
2, 679855, Note_on_c, 0, 58, 35
2, 679916, Note_off_c, 0, 70, 64
2, 679924, Note_off_c, 0, 63, 64
2, 679924, Note_off_c, 0, 67, 64
2, 679927, Note_off_c, 0, 58, 64
2, 679978, Note_on_c, 0, 75, 80
2, 679980, Note_on_c, 0, 67, 63
2, 679980, Note_on_c, 0, 58, 51
2, 679988, Note_on_c, 0, 70, 54
2, 679988, Note_on_c, 0, 63, 54
2, 679995, Note_off_c, 0, 79, 64
2, 680011, Note_off_c, 0, 51, 64
2, 680048, Note_off_c, 0, 63, 64
2, 680048, Note_off_c, 0, 70, 64
2, 680052, Note_off_c, 0, 58, 64
2, 680052, Note_off_c, 0, 67, 64
2, 680112, Control_c, 0, 64, 0
2, 680135, Note_on_c, 0, 50, 65
2, 680140, Note_off_c, 0, 75, 64
2, 680140, Note_on_c, 0, 78, 78
2, 680177, Control_c, 0, 64, 127
2, 680276, Note_on_c, 0, 72, 57
2, 680284, Note_on_c, 0, 69, 43
2, 680284, Note_on_c, 0, 66, 56
2, 680284, Note_on_c, 0, 62, 53
2, 680286, Note_on_c, 0, 57, 51
2, 680348, Note_off_c, 0, 72, 64
2, 680356, Note_off_c, 0, 62, 64
2, 680356, Note_off_c, 0, 66, 64
2, 680356, Note_off_c, 0, 69, 64
2, 680358, Note_off_c, 0, 57, 64
2, 680365, Note_off_c, 0, 78, 64
2, 680428, Note_on_c, 0, 72, 54
2, 680428, Note_on_c, 0, 68, 54
2, 680428, Note_on_c, 0, 66, 54
2, 680428, Note_on_c, 0, 62, 54
2, 680429, Note_off_c, 0, 50, 64
2, 680431, Note_on_c, 0, 56, 39
2, 680436, Note_on_c, 0, 78, 72
2, 680488, Note_off_c, 0, 62, 64
2, 680488, Note_off_c, 0, 66, 64
2, 680488, Note_off_c, 0, 68, 64
2, 680488, Note_off_c, 0, 72, 64
2, 680490, Note_off_c, 0, 56, 64
2, 680546, Note_off_c, 0, 78, 64
2, 680558, Control_c, 0, 64, 0
2, 680586, Note_on_c, 0, 49, 71
2, 680594, Note_on_c, 0, 78, 77
2, 680631, Control_c, 0, 64, 127
2, 680694, Note_off_c, 0, 78, 64
2, 680724, Note_on_c, 0, 73, 28
2, 680724, Note_on_c, 0, 68, 63
2, 680724, Note_on_c, 0, 65, 47
2, 680724, Note_on_c, 0, 61, 54
2, 680724, Note_on_c, 0, 56, 59
2, 680725, Note_on_c, 0, 77, 75
2, 680774, Note_off_c, 0, 68, 64
2, 680784, Note_off_c, 0, 61, 64
2, 680796, Note_off_c, 0, 65, 64
2, 680796, Note_off_c, 0, 73, 64
2, 680801, Note_off_c, 0, 56, 64
2, 680861, Note_on_c, 0, 73, 80
2, 680861, Note_on_c, 0, 56, 62
2, 680868, Note_on_c, 0, 68, 58
2, 680868, Note_on_c, 0, 61, 54
2, 680873, Note_on_c, 0, 65, 62
2, 680878, Note_off_c, 0, 77, 64
2, 680886, Note_off_c, 0, 49, 64
2, 680928, Note_off_c, 0, 61, 64
2, 680933, Note_off_c, 0, 56, 64
2, 680940, Note_off_c, 0, 68, 64
2, 680946, Note_off_c, 0, 65, 64
2, 681007, Control_c, 0, 64, 0
2, 681027, Note_on_c, 0, 76, 76
2, 681036, Note_on_c, 0, 48, 71
2, 681048, Note_off_c, 0, 73, 64
2, 681063, Control_c, 0, 64, 127
2, 681172, Note_on_c, 0, 55, 51
2, 681179, Note_on_c, 0, 75, 76
2, 681180, Note_on_c, 0, 70, 54
2, 681180, Note_on_c, 0, 67, 62
2, 681180, Note_on_c, 0, 60, 54
2, 681185, Note_off_c, 0, 76, 64
2, 681185, Note_on_c, 0, 63, 68
2, 681244, Note_off_c, 0, 67, 64
2, 681244, Note_off_c, 0, 55, 64
2, 681251, Note_off_c, 0, 63, 64
2, 681252, Note_off_c, 0, 60, 64
2, 681252, Note_off_c, 0, 70, 64
2, 681316, Note_off_c, 0, 75, 64
2, 681319, Note_off_c, 0, 48, 64
2, 681324, Note_on_c, 0, 76, 74
2, 681324, Note_on_c, 0, 70, 54
2, 681324, Note_on_c, 0, 66, 54
2, 681324, Note_on_c, 0, 61, 54
2, 681328, Note_on_c, 0, 64, 54
2, 681331, Note_on_c, 0, 54, 71
2, 681396, Note_off_c, 0, 61, 64
2, 681396, Note_off_c, 0, 66, 64
2, 681396, Note_off_c, 0, 70, 64
2, 681400, Note_off_c, 0, 64, 64
2, 681403, Note_off_c, 0, 54, 64
2, 681486, Note_off_c, 0, 76, 64
2, 681502, Control_c, 0, 64, 0
2, 681524, Note_on_c, 0, 47, 71
2, 681528, Note_on_c, 0, 80, 79
2, 681563, Control_c, 0, 64, 127
2, 681692, Note_on_c, 0, 68, 63
2, 681700, Note_on_c, 0, 76, 54
2, 681700, Note_on_c, 0, 64, 53
2, 681701, Note_on_c, 0, 71, 53
2, 681707, Note_on_c, 0, 59, 54
2, 681760, Note_off_c, 0, 76, 64
2, 681770, Note_off_c, 0, 64, 64
2, 681773, Note_off_c, 0, 71, 64
2, 681780, Note_off_c, 0, 59, 64
2, 681784, Note_off_c, 0, 68, 64
2, 681804, Note_off_c, 0, 80, 64
2, 681816, Note_off_c, 0, 47, 64
2, 681892, Note_on_c, 0, 59, 62
2, 681900, Note_on_c, 0, 71, 54
2, 681900, Note_on_c, 0, 69, 54
2, 681900, Note_on_c, 0, 66, 54
2, 681900, Note_on_c, 0, 63, 61
2, 681906, Note_on_c, 0, 78, 82
2, 681960, Note_off_c, 0, 66, 64
2, 681960, Note_off_c, 0, 71, 64
2, 681964, Note_off_c, 0, 59, 64
2, 681972, Note_off_c, 0, 63, 64
2, 681972, Note_off_c, 0, 69, 64
2, 682019, Note_off_c, 0, 78, 64
2, 682129, Note_on_c, 0, 40, 76
2, 682134, Note_on_c, 0, 76, 80
2, 682140, Control_c, 0, 64, 0
2, 682197, Control_c, 0, 64, 127
2, 682364, Note_on_c, 0, 68, 61
2, 682364, Note_on_c, 0, 59, 44
2, 682364, Note_on_c, 0, 56, 37
2, 682367, Note_on_c, 0, 71, 52
2, 682378, Note_on_c, 0, 64, 34
2, 682436, Note_off_c, 0, 56, 64
2, 682436, Note_off_c, 0, 59, 64
2, 682436, Note_off_c, 0, 68, 64
2, 682439, Note_off_c, 0, 71, 64
2, 682450, Note_off_c, 0, 64, 64
2, 682500, Note_on_c, 0, 59, 45
2, 682500, Note_on_c, 0, 56, 54
2, 682503, Note_on_c, 0, 64, 54
2, 682504, Note_on_c, 0, 68, 56
2, 682512, Note_on_c, 0, 71, 44
2, 682550, Note_off_c, 0, 64, 64
2, 682553, Note_off_c, 0, 56, 64
2, 682560, Note_off_c, 0, 68, 64
2, 682572, Note_off_c, 0, 59, 64
2, 682584, Note_off_c, 0, 71, 64
2, 682635, Note_on_c, 0, 64, 47
2, 682636, Note_on_c, 0, 59, 46
2, 682636, Note_on_c, 0, 56, 36
2, 682638, Note_on_c, 0, 71, 51
2, 682638, Note_on_c, 0, 68, 51
2, 682681, Note_off_c, 0, 71, 64
2, 682681, Note_off_c, 0, 64, 64
2, 682690, Note_off_c, 0, 68, 64
2, 682708, Note_off_c, 0, 56, 64
2, 682708, Note_off_c, 0, 59, 64
2, 682714, Note_off_c, 0, 40, 64
2, 682758, Note_on_c, 0, 68, 51
2, 682761, Note_on_c, 0, 64, 39
2, 682764, Note_on_c, 0, 59, 39
2, 682764, Note_on_c, 0, 56, 34
2, 682765, Note_on_c, 0, 71, 47
2, 682811, Note_off_c, 0, 71, 64
2, 682817, Note_off_c, 0, 68, 64
2, 682833, Note_off_c, 0, 64, 64
2, 682836, Note_off_c, 0, 56, 64
2, 682836, Note_off_c, 0, 59, 64
2, 682893, Note_on_c, 0, 64, 37
2, 682897, Note_on_c, 0, 71, 47
2, 682900, Note_on_c, 0, 68, 39
2, 682900, Note_on_c, 0, 56, 44
2, 682901, Note_on_c, 0, 59, 44
2, 682965, Note_off_c, 0, 64, 64
2, 682969, Note_off_c, 0, 71, 64
2, 682972, Note_off_c, 0, 56, 64
2, 682972, Note_off_c, 0, 68, 64
2, 682973, Note_off_c, 0, 59, 64
2, 683031, Control_c, 0, 64, 0
2, 683046, Note_on_c, 0, 52, 63
2, 683085, Control_c, 0, 64, 127
2, 683091, Note_off_c, 0, 76, 64
2, 683197, Note_on_c, 0, 57, 22
2, 683204, Note_on_c, 0, 76, 51
2, 683204, Note_on_c, 0, 69, 43
2, 683204, Note_on_c, 0, 64, 50
2, 683204, Note_on_c, 0, 60, 43
2, 683210, Note_on_c, 0, 72, 49
2, 683264, Note_off_c, 0, 60, 64
2, 683264, Note_off_c, 0, 69, 64
2, 683266, Note_off_c, 0, 72, 64
2, 683266, Note_off_c, 0, 76, 64
2, 683271, Note_off_c, 0, 57, 64
2, 683276, Note_off_c, 0, 64, 64
2, 683340, Note_on_c, 0, 75, 60
2, 683340, Note_on_c, 0, 72, 42
2, 683340, Note_on_c, 0, 60, 42
2, 683342, Note_on_c, 0, 63, 56
2, 683347, Note_on_c, 0, 69, 42
2, 683351, Note_on_c, 0, 57, 43
2, 683392, Note_off_c, 0, 57, 64
2, 683404, Note_off_c, 0, 69, 64
2, 683407, Note_off_c, 0, 75, 64
2, 683412, Note_off_c, 0, 60, 64
2, 683412, Note_off_c, 0, 72, 64
2, 683414, Note_off_c, 0, 63, 64
2, 683501, Note_on_c, 0, 78, 60
2, 683508, Note_on_c, 0, 69, 29
2, 683508, Note_on_c, 0, 60, 28
2, 683515, Note_on_c, 0, 72, 45
2, 683515, Note_on_c, 0, 66, 36
2, 683515, Note_on_c, 0, 57, 37
2, 683560, Note_off_c, 0, 60, 64
2, 683568, Note_off_c, 0, 57, 64
2, 683575, Note_off_c, 0, 69, 64
2, 683577, Note_off_c, 0, 72, 64
2, 683587, Note_off_c, 0, 52, 64
2, 683618, Note_off_c, 0, 78, 64
2, 683632, Note_off_c, 0, 66, 64
2, 683651, Note_on_c, 0, 76, 59
2, 683652, Note_on_c, 0, 60, 34
2, 683652, Note_on_c, 0, 57, 40
2, 683664, Note_on_c, 0, 69, 41
2, 683664, Note_on_c, 0, 64, 42
2, 683698, Note_off_c, 0, 60, 64
2, 683701, Note_off_c, 0, 57, 64
2, 683719, Note_off_c, 0, 69, 64
2, 683789, Note_off_c, 0, 64, 64
2, 683796, Note_on_c, 0, 69, 19
2, 683796, Note_on_c, 0, 64, 40
2, 683796, Note_on_c, 0, 60, 43
2, 683796, Note_on_c, 0, 57, 41
2, 683800, Note_on_c, 0, 72, 58
2, 683817, Note_off_c, 0, 76, 64
2, 683856, Note_off_c, 0, 60, 64
2, 683868, Note_off_c, 0, 57, 64
2, 683868, Note_off_c, 0, 64, 64
2, 683868, Note_off_c, 0, 69, 64
2, 683994, Control_c, 0, 64, 0
2, 684000, Note_on_c, 0, 76, 60
2, 684001, Note_on_c, 0, 40, 71
2, 684014, Note_off_c, 0, 72, 64
2, 684047, Control_c, 0, 64, 127
2, 684204, Note_on_c, 0, 68, 39
2, 684204, Note_on_c, 0, 59, 43
2, 684204, Note_on_c, 0, 56, 28
2, 684209, Note_on_c, 0, 64, 40
2, 684211, Note_on_c, 0, 71, 40
2, 684244, Note_off_c, 0, 56, 64
2, 684248, Note_off_c, 0, 64, 64
2, 684258, Note_off_c, 0, 71, 64
2, 684264, Note_off_c, 0, 59, 64
2, 684264, Note_off_c, 0, 68, 64
2, 684340, Note_on_c, 0, 64, 27
2, 684341, Note_on_c, 0, 71, 39
2, 684341, Note_on_c, 0, 68, 41
2, 684348, Note_on_c, 0, 56, 36
2, 684352, Note_on_c, 0, 59, 39
2, 684386, Note_off_c, 0, 64, 64
2, 684391, Note_off_c, 0, 59, 64
2, 684391, Note_off_c, 0, 71, 64
2, 684399, Note_off_c, 0, 56, 64
2, 684401, Note_off_c, 0, 68, 64
2, 684468, Note_on_c, 0, 68, 37
2, 684468, Note_on_c, 0, 64, 28
2, 684468, Note_on_c, 0, 59, 38
2, 684468, Note_on_c, 0, 56, 27
2, 684475, Note_on_c, 0, 71, 34
2, 684504, Note_off_c, 0, 59, 64
2, 684510, Note_off_c, 0, 56, 64
2, 684512, Note_off_c, 0, 71, 64
2, 684512, Note_off_c, 0, 64, 64
2, 684521, Note_off_c, 0, 68, 64
2, 684542, Note_off_c, 0, 40, 64
2, 684588, Note_on_c, 0, 71, 27
2, 684588, Note_on_c, 0, 59, 35
2, 684596, Note_on_c, 0, 68, 35
2, 684596, Note_on_c, 0, 64, 33
2, 684599, Note_on_c, 0, 56, 28
2, 684656, Note_off_c, 0, 68, 64
2, 684660, Note_off_c, 0, 59, 64
2, 684660, Note_off_c, 0, 71, 64
2, 684668, Note_off_c, 0, 64, 64
2, 684671, Note_off_c, 0, 56, 64
2, 684708, Note_on_c, 0, 59, 43
2, 684710, Note_on_c, 0, 68, 36
2, 684716, Note_on_c, 0, 71, 29
2, 684717, Note_on_c, 0, 64, 28
2, 684720, Note_on_c, 0, 56, 30
2, 684768, Note_off_c, 0, 59, 64
2, 684782, Note_off_c, 0, 68, 64
2, 684788, Note_off_c, 0, 71, 64
2, 684789, Note_off_c, 0, 64, 64
2, 684792, Note_off_c, 0, 56, 64
2, 684849, Control_c, 0, 64, 0
2, 684866, Note_on_c, 0, 52, 54
2, 684899, Note_off_c, 0, 76, 64
2, 684906, Control_c, 0, 64, 127
2, 685020, Note_on_c, 0, 69, 54
2, 685021, Note_on_c, 0, 76, 43
2, 685021, Note_on_c, 0, 72, 22
2, 685021, Note_on_c, 0, 57, 37
2, 685032, Note_on_c, 0, 64, 18
2, 685032, Note_on_c, 0, 60, 32
2, 685064, Note_off_c, 0, 64, 64
2, 685075, Note_off_c, 0, 76, 64
2, 685075, Note_off_c, 0, 69, 64
2, 685076, Note_off_c, 0, 72, 64
2, 685082, Note_off_c, 0, 57, 64
2, 685087, Note_off_c, 0, 60, 64
2, 685149, Note_on_c, 0, 75, 47
2, 685157, Note_on_c, 0, 63, 36
2, 685162, Note_on_c, 0, 72, 33
2, 685162, Note_on_c, 0, 69, 24
2, 685168, Note_on_c, 0, 57, 23
2, 685172, Note_on_c, 0, 60, 27
2, 685198, Note_off_c, 0, 72, 64
2, 685202, Note_off_c, 0, 63, 64
2, 685207, Note_off_c, 0, 60, 64
2, 685210, Note_off_c, 0, 69, 64
2, 685214, Note_off_c, 0, 57, 64
2, 685221, Note_off_c, 0, 75, 64
2, 685307, Note_on_c, 0, 66, 21
2, 685308, Note_on_c, 0, 78, 47
2, 685315, Note_on_c, 0, 60, 18
2, 685319, Note_on_c, 0, 72, 36
2, 685319, Note_on_c, 0, 69, 22
2, 685320, Note_on_c, 0, 57, 27
2, 685378, Note_off_c, 0, 60, 64
2, 685381, Note_off_c, 0, 57, 64
2, 685385, Note_off_c, 0, 69, 64
2, 685386, Note_off_c, 0, 72, 64
2, 685390, Note_off_c, 0, 78, 64
2, 685397, Note_off_c, 0, 66, 64
2, 685412, Note_off_c, 0, 52, 64
2, 685474, Note_on_c, 0, 76, 43
2, 685486, Note_on_c, 0, 64, 28
2, 685489, Note_on_c, 0, 69, 29
2, 685490, Note_on_c, 0, 60, 29
2, 685495, Note_on_c, 0, 57, 32
2, 685526, Note_off_c, 0, 64, 64
2, 685554, Note_off_c, 0, 57, 64
2, 685557, Note_off_c, 0, 69, 64
2, 685558, Note_off_c, 0, 60, 64
2, 685660, Note_on_c, 0, 72, 44
2, 685660, Note_on_c, 0, 60, 24
2, 685665, Note_on_c, 0, 64, 27
2, 685668, Note_on_c, 0, 69, 32
2, 685669, Note_off_c, 0, 76, 64
2, 685672, Note_on_c, 0, 57, 18
2, 685698, Note_off_c, 0, 69, 64
2, 685698, Note_off_c, 0, 60, 64
2, 685702, Note_off_c, 0, 64, 64
2, 685705, Note_off_c, 0, 57, 64
2, 685883, Control_c, 0, 64, 0
2, 685893, Note_on_c, 0, 76, 44
2, 685894, Note_on_c, 0, 40, 60
2, 685909, Note_off_c, 0, 72, 64
2, 685950, Control_c, 0, 64, 127
2, 686144, Note_on_c, 0, 64, 30
2, 686148, Note_on_c, 0, 71, 34
2, 686154, Note_on_c, 0, 68, 28
2, 686154, Note_on_c, 0, 56, 34
2, 686170, Note_on_c, 0, 59, 20
2, 686204, Note_off_c, 0, 64, 64
2, 686208, Note_off_c, 0, 59, 64
2, 686208, Note_off_c, 0, 71, 64
2, 686215, Note_off_c, 0, 56, 64
2, 686235, Note_off_c, 0, 68, 64
2, 686280, Note_on_c, 0, 71, 20
2, 686285, Note_on_c, 0, 68, 39
2, 686290, Note_on_c, 0, 64, 34
2, 686292, Note_on_c, 0, 56, 27
2, 686298, Note_on_c, 0, 59, 34
2, 686328, Note_off_c, 0, 64, 64
2, 686336, Note_off_c, 0, 71, 64
2, 686342, Note_off_c, 0, 56, 64
2, 686345, Note_off_c, 0, 59, 64
2, 686345, Note_off_c, 0, 68, 64
2, 686346, Note_off_c, 0, 76, 64
2, 686418, Note_on_c, 0, 71, 37
2, 686421, Note_on_c, 0, 64, 28
2, 686427, Note_on_c, 0, 68, 34
2, 686430, Note_on_c, 0, 59, 37
2, 686436, Note_on_c, 0, 56, 26
2, 686474, Note_off_c, 0, 64, 64
2, 686474, Note_off_c, 0, 71, 64
2, 686481, Note_off_c, 0, 59, 64
2, 686485, Note_off_c, 0, 56, 64
2, 686485, Note_off_c, 0, 68, 64
2, 686562, Note_on_c, 0, 64, 28
2, 686569, Note_on_c, 0, 71, 29
2, 686569, Note_on_c, 0, 68, 23
2, 686573, Note_on_c, 0, 59, 28
2, 686573, Note_on_c, 0, 56, 23
2, 686613, Note_off_c, 0, 64, 64
2, 686615, Note_off_c, 0, 71, 64
2, 686617, Note_off_c, 0, 59, 64
2, 686623, Note_off_c, 0, 68, 64
2, 686632, Note_off_c, 0, 56, 64
2, 686700, Note_on_c, 0, 64, 27
2, 686701, Note_on_c, 0, 71, 30
2, 686709, Note_on_c, 0, 68, 27
2, 686713, Note_on_c, 0, 56, 23
2, 686716, Note_on_c, 0, 59, 29
2, 686752, Note_off_c, 0, 71, 64
2, 686760, Note_off_c, 0, 64, 64
2, 686769, Note_off_c, 0, 59, 64
2, 686772, Note_off_c, 0, 68, 64
2, 686781, Note_off_c, 0, 56, 64
2, 686845, Note_on_c, 0, 64, 23
2, 686850, Note_on_c, 0, 71, 23
2, 686850, Note_on_c, 0, 68, 31
2, 686856, Note_on_c, 0, 56, 28
2, 686859, Note_on_c, 0, 59, 25
2, 686897, Note_off_c, 0, 71, 64
2, 686901, Note_off_c, 0, 64, 64
2, 686903, Note_off_c, 0, 59, 64
2, 686913, Note_off_c, 0, 68, 64
2, 686918, Note_off_c, 0, 56, 64
2, 686978, Note_on_c, 0, 68, 37
2, 686986, Note_on_c, 0, 56, 34
2, 686987, Note_on_c, 0, 71, 25
2, 686991, Note_on_c, 0, 64, 23
2, 686995, Note_on_c, 0, 59, 34
2, 687035, Note_off_c, 0, 59, 64
2, 687041, Note_off_c, 0, 71, 64
2, 687041, Note_off_c, 0, 68, 64
2, 687048, Poly_aftertouch_c, 0, 0, 56
2, 687058, Note_off_c, 0, 56, 64
2, 687063, Note_off_c, 0, 64, 64
2, 687100, Note_on_c, 0, 59, 39
2, 687100, Note_on_c, 0, 56, 40
2, 687108, Note_on_c, 0, 71, 40
2, 687108, Note_on_c, 0, 68, 45
2, 687108, Note_on_c, 0, 64, 32
2, 687153, Note_off_c, 0, 59, 64
2, 687172, Note_off_c, 0, 64, 64
2, 687186, Note_off_c, 0, 68, 64
2, 687193, Note_off_c, 0, 71, 64
2, 687194, Note_off_c, 0, 56, 64
2, 687273, Note_on_c, 0, 75, 46
2, 687277, Note_on_c, 0, 63, 35
2, 687283, Note_on_c, 0, 68, 34
2, 687288, Note_on_c, 0, 71, 33
2, 687288, Note_on_c, 0, 59, 31
2, 687293, Note_on_c, 0, 56, 30
2, 687364, Note_off_c, 0, 59, 64
2, 687367, Note_off_c, 0, 71, 64
2, 687370, Note_off_c, 0, 68, 64
2, 687375, Note_off_c, 0, 56, 64
2, 687377, Note_off_c, 0, 63, 64
2, 687415, Note_off_c, 0, 40, 64
2, 687436, Note_on_c, 0, 63, 23
2, 687442, Note_on_c, 0, 71, 39
2, 687442, Note_on_c, 0, 68, 24
2, 687450, Note_on_c, 0, 56, 28
2, 687453, Note_on_c, 0, 59, 30
2, 687510, Note_off_c, 0, 59, 64
2, 687512, Note_off_c, 0, 71, 64
2, 687519, Note_off_c, 0, 56, 64
2, 687527, Note_off_c, 0, 68, 64
2, 687527, Note_off_c, 0, 75, 64
2, 687529, Note_off_c, 0, 63, 64
2, 687570, Note_on_c, 0, 75, 61
2, 687570, Note_on_c, 0, 68, 40
2, 687574, Note_on_c, 0, 63, 43
2, 687579, Note_on_c, 0, 71, 46
2, 687582, Note_on_c, 0, 56, 38
2, 687587, Note_on_c, 0, 59, 43
2, 687628, Note_off_c, 0, 56, 64
2, 687632, Note_off_c, 0, 71, 64
2, 687641, Note_off_c, 0, 75, 64
2, 687642, Note_off_c, 0, 59, 64
2, 687646, Note_off_c, 0, 63, 64
2, 687648, Note_off_c, 0, 68, 64
2, 687701, Note_on_c, 0, 75, 66
2, 687701, Control_c, 0, 64, 0
2, 687715, Note_on_c, 0, 71, 45
2, 687715, Note_on_c, 0, 68, 49
2, 687715, Note_on_c, 0, 63, 52
2, 687720, Note_on_c, 0, 56, 47
2, 687725, Note_on_c, 0, 59, 43
2, 687775, Control_c, 0, 64, 127
2, 687780, Note_off_c, 0, 71, 64
2, 687786, Note_off_c, 0, 56, 64
2, 687786, Note_off_c, 0, 63, 64
2, 687797, Note_off_c, 0, 59, 64
2, 687799, Note_off_c, 0, 68, 64
2, 687838, Note_on_c, 0, 63, 41
2, 687840, Note_on_c, 0, 71, 34
2, 687845, Note_on_c, 0, 68, 39
2, 687851, Note_on_c, 0, 56, 37
2, 687853, Note_on_c, 0, 59, 39
2, 687899, Note_off_c, 0, 71, 64
2, 687903, Note_off_c, 0, 63, 64
2, 687905, Note_off_c, 0, 56, 64
2, 687912, Note_off_c, 0, 59, 64
2, 687913, Note_off_c, 0, 68, 64
2, 687959, Note_on_c, 0, 68, 37
2, 687966, Note_on_c, 0, 63, 44
2, 687972, Note_on_c, 0, 71, 43
2, 687975, Note_on_c, 0, 59, 38
2, 687975, Note_on_c, 0, 56, 37
2, 688018, Note_off_c, 0, 71, 64
2, 688020, Note_off_c, 0, 56, 64
2, 688028, Note_off_c, 0, 63, 64
2, 688032, Note_off_c, 0, 59, 64
2, 688037, Note_off_c, 0, 68, 64
2, 688085, Note_on_c, 0, 68, 41
2, 688085, Note_on_c, 0, 63, 47
2, 688090, Note_on_c, 0, 71, 45
2, 688095, Note_on_c, 0, 59, 47
2, 688095, Note_on_c, 0, 56, 46
2, 688141, Note_off_c, 0, 71, 64
2, 688143, Note_off_c, 0, 56, 64
2, 688152, Note_off_c, 0, 63, 64
2, 688153, Note_off_c, 0, 59, 64
2, 688161, Note_off_c, 0, 68, 64
2, 688208, Note_on_c, 0, 63, 47
2, 688214, Note_on_c, 0, 71, 48
2, 688214, Note_on_c, 0, 68, 45
2, 688222, Note_on_c, 0, 59, 42
2, 688260, Note_off_c, 0, 59, 64
2, 688262, Note_off_c, 0, 71, 64
2, 688275, Note_off_c, 0, 63, 64
2, 688284, Note_off_c, 0, 68, 64
2, 688327, Note_on_c, 0, 63, 45
2, 688330, Note_on_c, 0, 68, 48
2, 688337, Note_on_c, 0, 71, 51
2, 688340, Note_on_c, 0, 59, 35
2, 688372, Note_off_c, 0, 75, 64
2, 688394, Note_off_c, 0, 71, 64
2, 688398, Note_off_c, 0, 63, 64
2, 688399, Note_off_c, 0, 59, 64
2, 688410, Note_off_c, 0, 68, 64
2, 688468, Note_on_c, 0, 59, 49
2, 688476, Note_on_c, 0, 56, 56
2, 688480, Note_on_c, 0, 68, 57
2, 688480, Note_on_c, 0, 62, 53
2, 688484, Note_on_c, 0, 74, 72
2, 688489, Note_on_c, 0, 71, 53
2, 688528, Note_off_c, 0, 59, 64
2, 688537, Note_off_c, 0, 56, 64
2, 688561, Note_off_c, 0, 71, 64
2, 688561, Note_off_c, 0, 68, 64
2, 688578, Note_off_c, 0, 62, 64
2, 688625, Note_on_c, 0, 53, 65
2, 688628, Note_on_c, 0, 71, 51
2, 688632, Note_on_c, 0, 62, 60
2, 688638, Note_on_c, 0, 68, 61
2, 688639, Note_on_c, 0, 41, 70
2, 688676, Note_off_c, 0, 53, 64
2, 688682, Note_off_c, 0, 41, 64
2, 688688, Note_off_c, 0, 71, 64
2, 688725, Note_off_c, 0, 68, 64
2, 688735, Note_off_c, 0, 62, 64
2, 688785, Note_on_c, 0, 50, 67
2, 688788, Note_on_c, 0, 71, 52
2, 688789, Note_on_c, 0, 62, 63
2, 688789, Note_on_c, 0, 38, 71
2, 688793, Note_on_c, 0, 68, 64
2, 688827, Note_off_c, 0, 50, 64
2, 688831, Note_off_c, 0, 38, 64
2, 688848, Note_off_c, 0, 71, 64
2, 688850, Note_off_c, 0, 68, 64
2, 688859, Note_off_c, 0, 62, 64
2, 688916, Note_on_c, 0, 71, 53
2, 688917, Note_on_c, 0, 47, 80
2, 688919, Note_on_c, 0, 35, 80
2, 688923, Note_on_c, 0, 68, 68
2, 688923, Note_on_c, 0, 62, 67
2, 688949, Note_off_c, 0, 47, 64
2, 688956, Note_off_c, 0, 35, 64
2, 688976, Note_off_c, 0, 71, 64
2, 688979, Note_off_c, 0, 68, 64
2, 688985, Note_off_c, 0, 62, 64
2, 689044, Note_on_c, 0, 71, 54
2, 689045, Note_on_c, 0, 32, 83
2, 689046, Note_on_c, 0, 44, 91
2, 689050, Note_on_c, 0, 68, 70
2, 689050, Note_on_c, 0, 62, 68
2, 689072, Note_off_c, 0, 32, 64
2, 689077, Note_off_c, 0, 44, 64
2, 689103, Note_off_c, 0, 68, 64
2, 689104, Note_off_c, 0, 71, 64
2, 689109, Note_off_c, 0, 62, 64
2, 689164, Note_on_c, 0, 41, 84
2, 689165, Note_on_c, 0, 29, 82
2, 689175, Note_on_c, 0, 62, 71
2, 689180, Note_on_c, 0, 71, 56
2, 689180, Note_on_c, 0, 68, 72
2, 689202, Note_off_c, 0, 29, 64
2, 689202, Note_off_c, 0, 41, 64
2, 689240, Note_off_c, 0, 71, 64
2, 689246, Note_off_c, 0, 68, 64
2, 689259, Note_off_c, 0, 62, 64
2, 689315, Control_c, 0, 64, 0
2, 689330, Note_off_c, 0, 74, 64
2, 689357, Note_on_c, 0, 27, 85
2, 689364, Note_on_c, 0, 39, 102
2, 689367, Note_on_c, 0, 67, 79
2, 689367, Note_on_c, 0, 61, 85
2, 689404, Control_c, 0, 64, 127
2, 689418, Note_off_c, 0, 67, 64
2, 689439, Note_off_c, 0, 61, 64
2, 689572, Note_on_c, 0, 51, 30
2, 689577, Note_on_c, 0, 61, 45
2, 689577, Note_on_c, 0, 58, 37
2, 689580, Note_on_c, 0, 63, 45
2, 689585, Note_on_c, 0, 67, 74
2, 689637, Note_off_c, 0, 61, 64
2, 689639, Note_off_c, 0, 51, 64
2, 689640, Note_off_c, 0, 63, 64
2, 689643, Note_off_c, 0, 58, 64
2, 689700, Note_on_c, 0, 51, 49
2, 689705, Note_on_c, 0, 61, 56
2, 689706, Note_on_c, 0, 72, 80
2, 689708, Note_on_c, 0, 63, 45
2, 689709, Note_on_c, 0, 58, 52
2, 689714, Note_off_c, 0, 67, 64
2, 689757, Note_off_c, 0, 51, 64
2, 689760, Note_off_c, 0, 58, 64
2, 689768, Note_off_c, 0, 63, 64
2, 689781, Note_off_c, 0, 61, 64
2, 689796, Note_off_c, 0, 72, 64
2, 689804, Note_off_c, 0, 27, 64
2, 689819, Note_off_c, 0, 39, 64
2, 689852, Note_on_c, 0, 63, 55
2, 689852, Note_on_c, 0, 61, 53
2, 689852, Note_on_c, 0, 58, 48
2, 689858, Note_on_c, 0, 51, 49
2, 689859, Note_on_c, 0, 73, 79
2, 689884, Note_off_c, 0, 61, 64
2, 689888, Note_off_c, 0, 63, 64
2, 689889, Note_off_c, 0, 58, 64
2, 689925, Note_off_c, 0, 51, 64
2, 689995, Note_on_c, 0, 51, 50
2, 690000, Note_on_c, 0, 63, 52
2, 690000, Note_on_c, 0, 61, 51
2, 690003, Note_on_c, 0, 65, 79
2, 690004, Note_on_c, 0, 58, 45
2, 690017, Note_off_c, 0, 73, 64
2, 690060, Note_off_c, 0, 63, 64
2, 690061, Note_off_c, 0, 51, 64
2, 690064, Note_off_c, 0, 58, 64
2, 690072, Note_off_c, 0, 61, 64
2, 690124, Note_on_c, 0, 63, 45
2, 690129, Note_off_c, 0, 65, 64
2, 690129, Note_on_c, 0, 51, 44
2, 690136, Note_on_c, 0, 61, 48
2, 690137, Note_on_c, 0, 58, 52
2, 690145, Note_on_c, 0, 67, 75
2, 690181, Note_off_c, 0, 51, 64
2, 690184, Note_off_c, 0, 63, 64
2, 690189, Note_off_c, 0, 61, 64
2, 690209, Note_off_c, 0, 58, 64
2, 690290, Control_c, 0, 64, 0
2, 690310, Note_off_c, 0, 67, 64
2, 690323, Note_on_c, 0, 70, 87
2, 690324, Note_on_c, 0, 32, 63
2, 690326, Note_on_c, 0, 44, 81
2, 690373, Control_c, 0, 64, 127
2, 690476, Note_on_c, 0, 51, 44
2, 690477, Note_on_c, 0, 60, 50
2, 690484, Note_on_c, 0, 66, 45
2, 690484, Note_on_c, 0, 56, 29
2, 690486, Note_on_c, 0, 63, 43
2, 690524, Note_off_c, 0, 60, 64
2, 690528, Note_off_c, 0, 66, 64
2, 690535, Note_off_c, 0, 63, 64
2, 690537, Note_off_c, 0, 51, 64
2, 690556, Note_off_c, 0, 56, 64
2, 690599, Note_on_c, 0, 63, 44
2, 690601, Note_on_c, 0, 51, 36
2, 690606, Note_on_c, 0, 66, 45
2, 690609, Note_on_c, 0, 60, 39
2, 690615, Note_on_c, 0, 56, 44
2, 690644, Note_off_c, 0, 60, 64
2, 690658, Note_off_c, 0, 56, 64
2, 690660, Note_off_c, 0, 66, 64
2, 690660, Note_off_c, 0, 63, 64
2, 690665, Note_off_c, 0, 51, 64
2, 690727, Note_on_c, 0, 66, 50
2, 690731, Note_off_c, 0, 70, 64
2, 690731, Note_on_c, 0, 68, 79
2, 690737, Note_on_c, 0, 63, 52
2, 690737, Note_on_c, 0, 60, 49
2, 690737, Note_on_c, 0, 51, 48
2, 690744, Note_off_c, 0, 32, 64
2, 690744, Note_on_c, 0, 56, 48
2, 690749, Note_off_c, 0, 44, 64
2, 690779, Note_off_c, 0, 60, 64
2, 690780, Note_off_c, 0, 66, 64
2, 690792, Note_off_c, 0, 56, 64
2, 690794, Note_off_c, 0, 51, 64
2, 690800, Note_off_c, 0, 63, 64
2, 690862, Note_on_c, 0, 63, 55
2, 690866, Note_on_c, 0, 66, 43
2, 690866, Note_on_c, 0, 51, 43
2, 690867, Note_on_c, 0, 56, 48
2, 690872, Note_on_c, 0, 60, 46
2, 690913, Note_off_c, 0, 60, 64
2, 690916, Note_off_c, 0, 56, 64
2, 690918, Note_off_c, 0, 66, 64
2, 690924, Note_off_c, 0, 51, 64
2, 690924, Note_off_c, 0, 63, 64
2, 690988, Note_on_c, 0, 66, 30
2, 690988, Note_on_c, 0, 60, 37
2, 690990, Note_on_c, 0, 51, 42
2, 690993, Note_on_c, 0, 56, 51
2, 691004, Note_on_c, 0, 63, 42
2, 691060, Note_off_c, 0, 66, 64
2, 691062, Note_off_c, 0, 51, 64
2, 691065, Note_off_c, 0, 56, 64
2, 691071, Note_off_c, 0, 60, 64
2, 691076, Note_off_c, 0, 63, 64
2, 691141, Control_c, 0, 64, 0
2, 691173, Note_on_c, 0, 25, 88
2, 691178, Note_on_c, 0, 37, 94
2, 691188, Note_on_c, 0, 65, 68
2, 691208, Control_c, 0, 64, 127
2, 691233, Note_off_c, 0, 65, 64
2, 691233, Note_off_c, 0, 68, 64
2, 691380, Note_on_c, 0, 68, 52
2, 691384, Note_on_c, 0, 73, 89
2, 691388, Note_on_c, 0, 61, 52
2, 691389, Note_on_c, 0, 53, 54
2, 691393, Note_on_c, 0, 65, 44
2, 691398, Note_on_c, 0, 56, 39
2, 691431, Note_off_c, 0, 68, 64
2, 691435, Note_off_c, 0, 53, 64
2, 691438, Note_off_c, 0, 56, 64
2, 691443, Note_off_c, 0, 73, 64
2, 691445, Note_off_c, 0, 61, 64
2, 691447, Note_off_c, 0, 65, 64
2, 691511, Note_on_c, 0, 68, 62
2, 691515, Note_on_c, 0, 79, 92
2, 691515, Note_on_c, 0, 56, 62
2, 691516, Note_on_c, 0, 65, 68
2, 691516, Note_on_c, 0, 61, 68
2, 691524, Note_on_c, 0, 53, 56
2, 691551, Note_off_c, 0, 53, 64
2, 691557, Note_off_c, 0, 61, 64
2, 691557, Note_off_c, 0, 68, 64
2, 691559, Note_off_c, 0, 65, 64
2, 691562, Note_off_c, 0, 56, 64
2, 691595, Note_off_c, 0, 25, 64
2, 691603, Note_off_c, 0, 79, 64
2, 691609, Note_off_c, 0, 37, 64
2, 691632, Note_on_c, 0, 56, 53
2, 691632, Note_on_c, 0, 53, 53
2, 691638, Note_on_c, 0, 82, 96
2, 691638, Note_on_c, 0, 65, 62
2, 691638, Note_on_c, 0, 61, 62
2, 691640, Note_on_c, 0, 68, 64
2, 691646, Note_on_c, 0, 73, 68
2, 691675, Note_off_c, 0, 61, 64
2, 691679, Note_off_c, 0, 53, 64
2, 691681, Note_off_c, 0, 73, 64
2, 691682, Note_off_c, 0, 65, 64
2, 691682, Note_off_c, 0, 56, 64
2, 691687, Note_off_c, 0, 68, 64
2, 691702, Note_off_c, 0, 82, 64
2, 691763, Note_on_c, 0, 61, 56
2, 691765, Note_on_c, 0, 80, 101
2, 691771, Note_on_c, 0, 65, 54
2, 691771, Note_on_c, 0, 56, 43
2, 691772, Note_on_c, 0, 68, 57
2, 691778, Note_on_c, 0, 53, 52
2, 691815, Note_off_c, 0, 68, 64
2, 691823, Note_off_c, 0, 61, 64
2, 691825, Note_off_c, 0, 53, 64
2, 691825, Note_off_c, 0, 56, 64
2, 691839, Note_off_c, 0, 65, 64
2, 691868, Note_off_c, 0, 80, 64
2, 691893, Note_on_c, 0, 65, 52
2, 691894, Note_on_c, 0, 61, 62
2, 691894, Note_on_c, 0, 56, 53
2, 691900, Note_on_c, 0, 68, 58
2, 691905, Note_on_c, 0, 77, 85
2, 691909, Note_off_c, 0, 65, 64
2, 691923, Note_off_c, 0, 77, 64
2, 691927, Note_off_c, 0, 61, 64
2, 691929, Note_off_c, 0, 56, 64
2, 691934, Note_off_c, 0, 68, 64
2, 692056, Control_c, 0, 64, 0
2, 692084, Note_on_c, 0, 75, 90
2, 692089, Note_on_c, 0, 39, 92
2, 692097, Note_on_c, 0, 27, 100
2, 692126, Control_c, 0, 64, 127
2, 692256, Note_on_c, 0, 67, 64
2, 692256, Note_on_c, 0, 63, 57
2, 692256, Note_on_c, 0, 55, 52
2, 692263, Note_on_c, 0, 70, 42
2, 692270, Note_on_c, 0, 58, 38
2, 692292, Note_off_c, 0, 67, 64
2, 692301, Note_off_c, 0, 70, 64
2, 692307, Note_off_c, 0, 58, 64
2, 692309, Note_off_c, 0, 55, 64
2, 692315, Note_off_c, 0, 63, 64
2, 692373, Note_off_c, 0, 27, 64
2, 692379, Note_off_c, 0, 39, 64
2, 692383, Note_on_c, 0, 63, 57
2, 692386, Note_on_c, 0, 67, 51
2, 692396, Note_on_c, 0, 70, 54
2, 692397, Note_on_c, 0, 55, 42
2, 692400, Note_on_c, 0, 58, 57
2, 692419, Note_off_c, 0, 75, 64
2, 692424, Note_off_c, 0, 67, 64
2, 692431, Note_off_c, 0, 55, 64
2, 692435, Note_off_c, 0, 63, 64
2, 692436, Note_off_c, 0, 58, 64
2, 692468, Note_off_c, 0, 70, 64
2, 692538, Control_c, 0, 64, 0
2, 692564, Note_on_c, 0, 77, 97
2, 692568, Note_on_c, 0, 37, 92
2, 692568, Note_on_c, 0, 25, 78
2, 692611, Control_c, 0, 64, 127
2, 692731, Note_on_c, 0, 65, 47
2, 692736, Note_on_c, 0, 56, 62
2, 692737, Note_on_c, 0, 68, 54
2, 692737, Note_on_c, 0, 53, 68
2, 692741, Note_on_c, 0, 61, 63
2, 692746, Note_on_c, 0, 73, 44
2, 692750, Note_off_c, 0, 56, 64
2, 692763, Note_off_c, 0, 68, 64
2, 692776, Note_off_c, 0, 73, 64
2, 692778, Note_off_c, 0, 65, 64
2, 692781, Note_off_c, 0, 53, 64
2, 692798, Note_off_c, 0, 61, 64
2, 692848, Note_off_c, 0, 25, 64
2, 692857, Note_off_c, 0, 37, 64
2, 692878, Note_on_c, 0, 65, 62
2, 692878, Note_on_c, 0, 61, 60
2, 692884, Note_on_c, 0, 73, 44
2, 692884, Note_on_c, 0, 68, 46
2, 692885, Note_on_c, 0, 56, 44
2, 692891, Note_on_c, 0, 53, 51
2, 692906, Note_off_c, 0, 65, 64
2, 692917, Note_off_c, 0, 61, 64
2, 692922, Note_off_c, 0, 53, 64
2, 692926, Note_off_c, 0, 56, 64
2, 692956, Note_off_c, 0, 68, 64
2, 692956, Note_off_c, 0, 73, 64
2, 693033, Control_c, 0, 64, 0
2, 693086, Note_on_c, 0, 39, 98
2, 693086, Note_on_c, 0, 27, 81
2, 693099, Note_off_c, 0, 77, 64
2, 693110, Control_c, 0, 64, 127
2, 693276, Note_on_c, 0, 67, 54
2, 693284, Note_on_c, 0, 70, 73
2, 693284, Note_on_c, 0, 55, 58
2, 693292, Note_on_c, 0, 63, 51
2, 693301, Note_on_c, 0, 58, 29
2, 693335, Note_off_c, 0, 58, 64
2, 693335, Note_off_c, 0, 70, 64
2, 693336, Note_off_c, 0, 67, 64
2, 693337, Note_off_c, 0, 55, 64
2, 693343, Note_off_c, 0, 63, 64
2, 693418, Note_on_c, 0, 75, 84
2, 693420, Note_on_c, 0, 70, 58
2, 693420, Note_on_c, 0, 67, 54
2, 693421, Note_on_c, 0, 63, 69
2, 693427, Note_on_c, 0, 58, 65
2, 693427, Note_on_c, 0, 55, 59
2, 693466, Note_off_c, 0, 55, 64
2, 693471, Note_off_c, 0, 70, 64
2, 693478, Note_off_c, 0, 58, 64
2, 693480, Note_off_c, 0, 63, 64
2, 693480, Note_off_c, 0, 67, 64
2, 693492, Note_off_c, 0, 75, 64
2, 693514, Note_off_c, 0, 27, 64
2, 693530, Note_off_c, 0, 39, 64
2, 693558, Note_on_c, 0, 79, 87
2, 693564, Note_on_c, 0, 63, 62
2, 693564, Note_on_c, 0, 58, 47
2, 693571, Note_on_c, 0, 55, 51
2, 693575, Note_on_c, 0, 70, 68
2, 693580, Note_on_c, 0, 67, 50
2, 693623, Note_off_c, 0, 58, 64
2, 693623, Note_off_c, 0, 63, 64
2, 693625, Note_off_c, 0, 55, 64
2, 693628, Note_off_c, 0, 67, 64
2, 693647, Note_off_c, 0, 70, 64
2, 693693, Note_on_c, 0, 77, 96
2, 693699, Note_off_c, 0, 79, 64
2, 693699, Note_on_c, 0, 67, 43
2, 693699, Note_on_c, 0, 63, 54
2, 693700, Note_on_c, 0, 58, 51
2, 693703, Note_on_c, 0, 55, 49
2, 693736, Note_off_c, 0, 55, 64
2, 693744, Note_off_c, 0, 63, 64
2, 693751, Note_off_c, 0, 67, 64
2, 693757, Note_off_c, 0, 58, 64
2, 693782, Note_off_c, 0, 77, 64
2, 693812, Note_on_c, 0, 73, 84
2, 693816, Note_on_c, 0, 67, 54
2, 693819, Note_on_c, 0, 70, 57
2, 693819, Note_on_c, 0, 63, 57
2, 693823, Note_on_c, 0, 55, 42
2, 693829, Note_on_c, 0, 58, 41
2, 693876, Note_off_c, 0, 67, 64
2, 693891, Note_off_c, 0, 63, 64
2, 693891, Note_off_c, 0, 70, 64
2, 693895, Note_off_c, 0, 55, 64
2, 693901, Note_off_c, 0, 58, 64
2, 693941, Note_off_c, 0, 73, 64
2, 693973, Control_c, 0, 64, 0
2, 693993, Note_on_c, 0, 72, 97
2, 693996, Note_on_c, 0, 29, 80
2, 694001, Note_on_c, 0, 41, 86
2, 694041, Control_c, 0, 64, 127
2, 694156, Note_on_c, 0, 69, 53
2, 694156, Note_on_c, 0, 63, 51
2, 694156, Note_on_c, 0, 53, 54
2, 694163, Note_on_c, 0, 60, 52
2, 694167, Note_on_c, 0, 65, 57
2, 694209, Note_off_c, 0, 53, 64
2, 694214, Note_off_c, 0, 65, 64
2, 694214, Note_off_c, 0, 60, 64
2, 694228, Note_off_c, 0, 63, 64
2, 694228, Note_off_c, 0, 69, 64
2, 694287, Note_on_c, 0, 60, 57
2, 694290, Note_off_c, 0, 29, 64
2, 694292, Note_on_c, 0, 65, 45
2, 694293, Note_on_c, 0, 69, 56
2, 694293, Note_on_c, 0, 53, 58
2, 694299, Note_on_c, 0, 63, 54
2, 694300, Note_off_c, 0, 41, 64
2, 694305, Note_off_c, 0, 72, 64
2, 694359, Note_off_c, 0, 60, 64
2, 694364, Note_off_c, 0, 65, 64
2, 694365, Note_off_c, 0, 53, 64
2, 694365, Note_off_c, 0, 69, 64
2, 694371, Note_off_c, 0, 63, 64
2, 694427, Control_c, 0, 64, 0
2, 694458, Note_on_c, 0, 73, 97
2, 694462, Note_on_c, 0, 46, 88
2, 694463, Note_on_c, 0, 34, 82
2, 694487, Control_c, 0, 64, 127
2, 694644, Note_on_c, 0, 53, 50
2, 694646, Note_on_c, 0, 58, 52
2, 694652, Note_on_c, 0, 65, 51
2, 694652, Note_on_c, 0, 61, 64
2, 694654, Note_on_c, 0, 68, 39
2, 694704, Note_off_c, 0, 58, 64
2, 694711, Note_off_c, 0, 53, 64
2, 694724, Note_off_c, 0, 61, 64
2, 694724, Note_off_c, 0, 65, 64
2, 694726, Note_off_c, 0, 68, 64
2, 694741, Note_off_c, 0, 34, 64
2, 694754, Note_off_c, 0, 46, 64
2, 694787, Note_on_c, 0, 58, 62
2, 694788, Note_on_c, 0, 68, 54
2, 694788, Note_on_c, 0, 65, 54
2, 694788, Note_on_c, 0, 61, 54
2, 694790, Note_on_c, 0, 53, 54
2, 694848, Note_off_c, 0, 61, 64
2, 694848, Note_off_c, 0, 65, 64
2, 694848, Note_off_c, 0, 68, 64
2, 694859, Note_off_c, 0, 58, 64
2, 694862, Note_off_c, 0, 53, 64
2, 694908, Control_c, 0, 64, 0
2, 694958, Note_on_c, 0, 51, 86
2, 694962, Note_on_c, 0, 39, 82
2, 694980, Control_c, 0, 64, 127
2, 695124, Note_on_c, 0, 61, 57
2, 695124, Note_on_c, 0, 53, 64
2, 695128, Note_on_c, 0, 58, 68
2, 695129, Note_on_c, 0, 68, 86
2, 695132, Note_on_c, 0, 65, 54
2, 695151, Note_off_c, 0, 73, 64
2, 695168, Note_off_c, 0, 53, 64
2, 695174, Note_off_c, 0, 58, 64
2, 695189, Note_off_c, 0, 61, 64
2, 695192, Note_off_c, 0, 65, 64
2, 695211, Note_off_c, 0, 68, 64
2, 695262, Note_off_c, 0, 39, 64
2, 695276, Note_off_c, 0, 51, 64
2, 695280, Note_on_c, 0, 61, 57
2, 695280, Note_on_c, 0, 51, 68
2, 695281, Note_on_c, 0, 70, 95
2, 695284, Note_on_c, 0, 67, 57
2, 695284, Note_on_c, 0, 63, 54
2, 695288, Note_on_c, 0, 58, 62
2, 695344, Note_off_c, 0, 63, 64
2, 695352, Note_off_c, 0, 51, 64
2, 695352, Note_off_c, 0, 61, 64
2, 695356, Note_off_c, 0, 67, 64
2, 695360, Note_off_c, 0, 58, 64
2, 695396, Note_off_c, 0, 70, 64
2, 695426, Control_c, 0, 64, 0
2, 695454, Note_on_c, 0, 73, 98
2, 695460, Note_on_c, 0, 68, 62
2, 695462, Note_on_c, 0, 44, 96
2, 695467, Note_on_c, 0, 61, 76
2, 695495, Control_c, 0, 64, 127
2, 695544, Note_off_c, 0, 68, 64
2, 695547, Note_off_c, 0, 61, 64
2, 695589, Note_off_c, 0, 73, 64
2, 695644, Note_on_c, 0, 68, 56
2, 695650, Note_on_c, 0, 51, 41
2, 695652, Note_on_c, 0, 72, 98
2, 695652, Note_on_c, 0, 60, 54
2, 695652, Note_on_c, 0, 56, 27
2, 695659, Note_on_c, 0, 63, 64
2, 695712, Note_off_c, 0, 60, 64
2, 695716, Note_off_c, 0, 68, 64
2, 695724, Note_off_c, 0, 56, 64
2, 695731, Note_off_c, 0, 51, 64
2, 695736, Note_off_c, 0, 63, 64
2, 695769, Note_off_c, 0, 44, 64
2, 695820, Note_on_c, 0, 56, 34
2, 695823, Note_on_c, 0, 68, 88
2, 695826, Note_on_c, 0, 51, 54
2, 695827, Note_on_c, 0, 63, 60
2, 695828, Note_on_c, 0, 65, 41
2, 695834, Note_on_c, 0, 60, 51
2, 695841, Note_off_c, 0, 72, 64
2, 695891, Note_off_c, 0, 51, 64
2, 695892, Note_off_c, 0, 56, 64
2, 695899, Note_off_c, 0, 63, 64
2, 695900, Note_off_c, 0, 65, 64
2, 695906, Note_off_c, 0, 60, 64
2, 695970, Note_off_c, 0, 68, 64
2, 696051, Control_c, 0, 64, 0
2, 696057, Note_on_c, 0, 70, 98
2, 696065, Note_on_c, 0, 51, 100
2, 696068, Note_on_c, 0, 39, 92
2, 696128, Control_c, 0, 64, 127
2, 696212, Note_off_c, 0, 51, 64
2, 696356, Note_on_c, 0, 51, 57
2, 696364, Note_on_c, 0, 58, 34
2, 696369, Note_on_c, 0, 67, 28
2, 696369, Note_on_c, 0, 63, 47
2, 696414, Note_off_c, 0, 67, 64
2, 696417, Note_off_c, 0, 51, 64
2, 696420, Note_off_c, 0, 63, 64
2, 696439, Note_off_c, 0, 58, 64
2, 696492, Note_on_c, 0, 67, 30
2, 696506, Note_on_c, 0, 63, 51
2, 696506, Note_on_c, 0, 58, 46
2, 696512, Note_on_c, 0, 51, 58
2, 696538, Note_off_c, 0, 67, 64
2, 696564, Note_off_c, 0, 63, 64
2, 696566, Note_off_c, 0, 51, 64
2, 696576, Note_off_c, 0, 58, 64
2, 696633, Note_on_c, 0, 58, 45
2, 696636, Note_on_c, 0, 63, 54
2, 696637, Note_on_c, 0, 67, 53
2, 696642, Note_on_c, 0, 51, 56
2, 696685, Note_off_c, 0, 67, 64
2, 696693, Note_off_c, 0, 63, 64
2, 696696, Note_off_c, 0, 58, 64
2, 696700, Note_off_c, 0, 51, 64
2, 696756, Note_on_c, 0, 63, 47
2, 696756, Note_on_c, 0, 58, 44
2, 696756, Note_on_c, 0, 51, 52
2, 696763, Note_on_c, 0, 67, 51
2, 696800, Note_off_c, 0, 67, 64
2, 696811, Note_off_c, 0, 63, 64
2, 696815, Note_off_c, 0, 58, 64
2, 696821, Note_off_c, 0, 51, 64
2, 696876, Note_on_c, 0, 67, 48
2, 696877, Note_on_c, 0, 63, 42
2, 696880, Note_on_c, 0, 58, 45
2, 696880, Note_on_c, 0, 51, 51
2, 696915, Note_off_c, 0, 39, 64
2, 696929, Note_off_c, 0, 70, 64
2, 696943, Note_off_c, 0, 58, 64
2, 696948, Note_off_c, 0, 67, 64
2, 696949, Note_off_c, 0, 63, 64
2, 696952, Note_off_c, 0, 51, 64
2, 697121, Note_on_c, 0, 39, 40
2, 697126, Note_on_c, 0, 51, 44
2, 697146, Control_c, 0, 64, 0
2, 697157, Note_on_c, 0, 71, 78
2, 697218, Control_c, 0, 64, 127
2, 697274, Note_off_c, 0, 51, 64
2, 697375, Note_on_c, 0, 66, 36
2, 697381, Note_on_c, 0, 59, 35
2, 697381, Note_on_c, 0, 51, 45
2, 697407, Note_on_c, 0, 63, 35
2, 697436, Note_off_c, 0, 66, 64
2, 697442, Note_off_c, 0, 59, 64
2, 697449, Note_off_c, 0, 63, 64
2, 697457, Note_off_c, 0, 51, 64
2, 697496, Note_off_c, 0, 39, 64
2, 697505, Note_on_c, 0, 66, 51
2, 697512, Note_on_c, 0, 59, 46
2, 697512, Note_on_c, 0, 51, 41
2, 697521, Note_on_c, 0, 63, 39
2, 697533, Note_off_c, 0, 71, 64
2, 697564, Note_off_c, 0, 63, 64
2, 697566, Note_off_c, 0, 59, 64
2, 697572, Note_off_c, 0, 51, 64
2, 697601, Note_off_c, 0, 66, 64
2, 697625, Note_on_c, 0, 71, 76
2, 697661, Note_on_c, 0, 73, 79
2, 697666, Note_off_c, 0, 71, 64
2, 697691, Note_on_c, 0, 51, 51
2, 697693, Note_on_c, 0, 71, 79
2, 697694, Note_on_c, 0, 63, 59
2, 697700, Note_on_c, 0, 57, 51
2, 697701, Note_on_c, 0, 59, 50
2, 697719, Note_off_c, 0, 73, 64
2, 697723, Note_off_c, 0, 59, 64
2, 697732, Note_off_c, 0, 51, 64
2, 697737, Note_off_c, 0, 57, 64
2, 697754, Note_off_c, 0, 63, 64
2, 697829, Note_on_c, 0, 70, 79
2, 697844, Note_off_c, 0, 71, 64
2, 697844, Note_on_c, 0, 63, 51
2, 697851, Note_on_c, 0, 57, 41
2, 697858, Note_on_c, 0, 59, 32
2, 697873, Note_off_c, 0, 59, 64
2, 697884, Note_off_c, 0, 57, 64
2, 697897, Note_off_c, 0, 63, 64
2, 697936, Note_off_c, 0, 70, 64
2, 697955, Note_on_c, 0, 63, 51
2, 697957, Note_on_c, 0, 71, 79
2, 697961, Note_on_c, 0, 51, 53
2, 697986, Note_off_c, 0, 63, 64
2, 698002, Note_off_c, 0, 51, 64
2, 698126, Control_c, 0, 64, 0
2, 698145, Note_on_c, 0, 73, 79
2, 698150, Note_on_c, 0, 40, 47
2, 698154, Note_on_c, 0, 52, 49
2, 698161, Note_off_c, 0, 71, 64
2, 698195, Control_c, 0, 64, 127
2, 698235, Note_off_c, 0, 52, 64
2, 698327, Note_off_c, 0, 73, 64
2, 698361, Note_on_c, 0, 56, 39
2, 698365, Note_on_c, 0, 68, 49
2, 698371, Note_on_c, 0, 59, 39
2, 698374, Note_on_c, 0, 52, 23
2, 698377, Note_on_c, 0, 64, 34
2, 698411, Note_off_c, 0, 59, 64
2, 698412, Note_off_c, 0, 52, 64
2, 698425, Note_off_c, 0, 68, 64
2, 698427, Note_off_c, 0, 56, 64
2, 698428, Note_off_c, 0, 64, 64
2, 698478, Note_on_c, 0, 68, 45
2, 698484, Note_on_c, 0, 59, 46
2, 698485, Note_on_c, 0, 56, 45
2, 698488, Note_on_c, 0, 64, 39
2, 698493, Note_on_c, 0, 52, 39
2, 698538, Note_off_c, 0, 52, 64
2, 698540, Note_off_c, 0, 59, 64
2, 698545, Note_off_c, 0, 64, 64
2, 698545, Note_off_c, 0, 56, 64
2, 698548, Note_off_c, 0, 68, 64
2, 698574, Note_off_c, 0, 40, 64
2, 698608, Note_on_c, 0, 71, 81
2, 698614, Note_on_c, 0, 64, 36
2, 698617, Note_on_c, 0, 68, 45
2, 698617, Note_on_c, 0, 56, 45
2, 698623, Note_on_c, 0, 52, 38
2, 698661, Note_off_c, 0, 52, 64
2, 698661, Note_off_c, 0, 68, 64
2, 698669, Note_off_c, 0, 64, 64
2, 698675, Note_off_c, 0, 56, 64
2, 698742, Note_on_c, 0, 68, 50
2, 698747, Note_on_c, 0, 63, 59
2, 698752, Note_on_c, 0, 52, 45
2, 698755, Note_on_c, 0, 56, 51
2, 698795, Note_off_c, 0, 63, 64
2, 698797, Note_off_c, 0, 52, 64
2, 698797, Note_off_c, 0, 56, 64
2, 698803, Note_off_c, 0, 68, 64
2, 698882, Note_on_c, 0, 61, 39
2, 698882, Note_on_c, 0, 52, 42
2, 698887, Note_on_c, 0, 68, 48
2, 698893, Note_on_c, 0, 56, 45
2, 698912, Note_off_c, 0, 56, 64
2, 698916, Note_off_c, 0, 52, 64
2, 698954, Note_off_c, 0, 61, 64
2, 699040, Control_c, 0, 64, 0
2, 699060, Note_on_c, 0, 47, 54
2, 699060, Note_on_c, 0, 35, 47
2, 699097, Note_off_c, 0, 68, 64
2, 699105, Control_c, 0, 64, 127
2, 699137, Note_off_c, 0, 71, 64
2, 699265, Note_on_c, 0, 59, 47
2, 699267, Note_on_c, 0, 71, 79
2, 699268, Note_on_c, 0, 66, 47
2, 699272, Note_on_c, 0, 69, 51
2, 699275, Note_on_c, 0, 63, 47
2, 699322, Note_off_c, 0, 59, 64
2, 699328, Note_off_c, 0, 66, 64
2, 699332, Note_off_c, 0, 69, 64
2, 699347, Note_off_c, 0, 63, 64
2, 699362, Note_off_c, 0, 71, 64
2, 699388, Note_on_c, 0, 63, 54
2, 699392, Note_on_c, 0, 59, 46
2, 699396, Note_on_c, 0, 73, 68
2, 699396, Note_on_c, 0, 71, 47
2, 699396, Note_on_c, 0, 69, 53
2, 699396, Note_on_c, 0, 66, 47
2, 699442, Note_off_c, 0, 69, 64
2, 699448, Note_off_c, 0, 59, 64
2, 699456, Note_off_c, 0, 66, 64
2, 699456, Note_off_c, 0, 71, 64
2, 699464, Note_off_c, 0, 63, 64
2, 699480, Note_off_c, 0, 35, 64
2, 699498, Note_off_c, 0, 47, 64
2, 699516, Note_on_c, 0, 71, 47
2, 699523, Note_on_c, 0, 75, 75
2, 699523, Note_on_c, 0, 63, 39
2, 699524, Note_on_c, 0, 66, 47
2, 699527, Note_on_c, 0, 69, 45
2, 699531, Note_on_c, 0, 59, 45
2, 699566, Note_off_c, 0, 73, 64
2, 699575, Note_off_c, 0, 69, 64
2, 699576, Note_off_c, 0, 71, 64
2, 699584, Note_off_c, 0, 66, 64
2, 699587, Note_off_c, 0, 63, 64
2, 699588, Note_off_c, 0, 59, 64
2, 699593, Note_off_c, 0, 75, 64
2, 699652, Note_on_c, 0, 69, 57
2, 699652, Note_on_c, 0, 61, 51
2, 699660, Note_on_c, 0, 76, 80
2, 699660, Note_on_c, 0, 71, 56
2, 699660, Note_on_c, 0, 66, 56
2, 699660, Note_on_c, 0, 59, 51
2, 699704, Note_off_c, 0, 59, 64
2, 699709, Note_off_c, 0, 66, 64
2, 699718, Note_off_c, 0, 69, 64
2, 699724, Note_off_c, 0, 61, 64
2, 699732, Note_off_c, 0, 71, 64
2, 699742, Note_off_c, 0, 76, 64
2, 699788, Note_on_c, 0, 71, 51
2, 699788, Note_on_c, 0, 69, 47
2, 699788, Note_on_c, 0, 66, 47
2, 699788, Note_on_c, 0, 59, 37
2, 699789, Note_on_c, 0, 78, 79
2, 699789, Note_on_c, 0, 63, 51
2, 699822, Note_off_c, 0, 71, 64
2, 699826, Note_off_c, 0, 63, 64
2, 699833, Note_off_c, 0, 59, 64
2, 699848, Note_off_c, 0, 66, 64
2, 699848, Note_off_c, 0, 69, 64
2, 699869, Note_off_c, 0, 78, 64
2, 699933, Control_c, 0, 64, 0
2, 699971, Note_on_c, 0, 80, 79
2, 699976, Note_on_c, 0, 40, 66
2, 699979, Note_on_c, 0, 52, 63
2, 700008, Control_c, 0, 64, 127
2, 700108, Note_on_c, 0, 76, 57
2, 700116, Note_on_c, 0, 68, 56
2, 700117, Note_on_c, 0, 64, 63
2, 700123, Note_on_c, 0, 71, 53
2, 700123, Note_on_c, 0, 59, 62
2, 700159, Note_off_c, 0, 68, 64
2, 700161, Note_off_c, 0, 59, 64
2, 700161, Note_off_c, 0, 71, 64
2, 700167, Note_off_c, 0, 64, 64
2, 700180, Note_off_c, 0, 76, 64
2, 700228, Note_on_c, 0, 76, 54
2, 700228, Note_on_c, 0, 68, 58
2, 700235, Note_on_c, 0, 64, 52
2, 700238, Note_on_c, 0, 71, 57
2, 700242, Note_on_c, 0, 59, 51
2, 700282, Note_off_c, 0, 68, 64
2, 700286, Note_off_c, 0, 71, 64
2, 700288, Note_off_c, 0, 76, 64
2, 700293, Note_off_c, 0, 59, 64
2, 700300, Note_off_c, 0, 64, 64
2, 700356, Note_on_c, 0, 71, 54
2, 700356, Note_on_c, 0, 68, 63
2, 700356, Note_on_c, 0, 64, 61
2, 700360, Note_on_c, 0, 59, 60
2, 700364, Note_on_c, 0, 76, 54
2, 700378, Note_off_c, 0, 40, 64
2, 700389, Note_off_c, 0, 52, 64
2, 700394, Note_off_c, 0, 64, 64
2, 700400, Note_off_c, 0, 59, 64
2, 700406, Note_off_c, 0, 68, 64
2, 700416, Note_off_c, 0, 71, 64
2, 700424, Note_off_c, 0, 76, 64
2, 700492, Note_on_c, 0, 76, 54
2, 700492, Note_on_c, 0, 51, 79
2, 700492, Note_on_c, 0, 39, 71
2, 700500, Note_on_c, 0, 68, 63
2, 700504, Note_on_c, 0, 71, 37
2, 700519, Note_off_c, 0, 39, 64
2, 700523, Note_off_c, 0, 51, 64
2, 700552, Note_off_c, 0, 76, 64
2, 700559, Note_off_c, 0, 68, 64
2, 700576, Note_off_c, 0, 71, 64
2, 700612, Note_on_c, 0, 76, 54
2, 700622, Note_on_c, 0, 38, 57
2, 700623, Note_on_c, 0, 50, 68
2, 700628, Note_on_c, 0, 71, 28
2, 700630, Note_on_c, 0, 68, 37
2, 700663, Note_off_c, 0, 50, 64
2, 700665, Note_off_c, 0, 38, 64
2, 700672, Note_off_c, 0, 76, 64
2, 700700, Note_off_c, 0, 71, 64
2, 700702, Note_off_c, 0, 68, 64
2, 700745, Control_c, 0, 64, 0
2, 700804, Note_on_c, 0, 49, 68
2, 700808, Note_on_c, 0, 37, 68
2, 700820, Control_c, 0, 64, 127
2, 700931, Note_off_c, 0, 80, 64
2, 700948, Note_on_c, 0, 61, 68
2, 700948, Note_on_c, 0, 59, 34
2, 700948, Note_on_c, 0, 53, 34
2, 700960, Note_on_c, 0, 65, 58
2, 701020, Note_off_c, 0, 53, 64
2, 701020, Note_off_c, 0, 59, 64
2, 701023, Note_off_c, 0, 65, 64
2, 701083, Note_off_c, 0, 61, 64
2, 701100, Note_on_c, 0, 65, 54
2, 701102, Note_on_c, 0, 73, 79
2, 701105, Note_on_c, 0, 53, 61
2, 701108, Note_on_c, 0, 61, 56
2, 701111, Note_on_c, 0, 59, 54
2, 701172, Note_off_c, 0, 65, 64
2, 701177, Note_off_c, 0, 53, 64
2, 701180, Note_off_c, 0, 61, 64
2, 701183, Note_off_c, 0, 59, 64
2, 701216, Note_off_c, 0, 73, 64
2, 701216, Note_off_c, 0, 37, 64
2, 701222, Note_on_c, 0, 73, 79
2, 701228, Note_off_c, 0, 49, 64
2, 701258, Note_off_c, 0, 73, 64
2, 701262, Note_on_c, 0, 75, 79
2, 701278, Control_c, 0, 64, 0
2, 701292, Note_on_c, 0, 73, 85
2, 701292, Note_on_c, 0, 61, 60
2, 701292, Note_on_c, 0, 53, 33
2, 701296, Note_on_c, 0, 65, 52
2, 701296, Note_on_c, 0, 59, 52
2, 701314, Control_c, 0, 64, 127
2, 701324, Note_off_c, 0, 75, 64
2, 701360, Note_off_c, 0, 59, 64
2, 701364, Note_off_c, 0, 53, 64
2, 701368, Note_off_c, 0, 65, 64
2, 701375, Note_off_c, 0, 61, 64
2, 701431, Note_off_c, 0, 73, 64
2, 701435, Note_on_c, 0, 72, 78
2, 701437, Note_on_c, 0, 61, 57
2, 701445, Note_on_c, 0, 65, 52
2, 701446, Note_on_c, 0, 59, 54
2, 701451, Note_on_c, 0, 53, 54
2, 701476, Note_off_c, 0, 61, 64
2, 701489, Note_off_c, 0, 53, 64
2, 701491, Note_off_c, 0, 65, 64
2, 701495, Note_off_c, 0, 59, 64
2, 701553, Note_on_c, 0, 73, 81
2, 701553, Note_on_c, 0, 65, 52
2, 701558, Note_on_c, 0, 59, 56
2, 701562, Note_on_c, 0, 61, 63
2, 701562, Note_on_c, 0, 53, 56
2, 701580, Note_off_c, 0, 72, 64
2, 701625, Note_off_c, 0, 65, 64
2, 701630, Note_off_c, 0, 59, 64
2, 701634, Note_off_c, 0, 53, 64
2, 701634, Note_off_c, 0, 61, 64
2, 701695, Control_c, 0, 64, 0
2, 701727, Note_on_c, 0, 75, 81
2, 701738, Note_on_c, 0, 54, 65
2, 701738, Note_on_c, 0, 42, 57
2, 701745, Note_off_c, 0, 73, 64
2, 701772, Control_c, 0, 64, 127
2, 701807, Note_off_c, 0, 54, 64
2, 701878, Note_on_c, 0, 61, 62
2, 701889, Note_on_c, 0, 54, 64
2, 701894, Note_on_c, 0, 70, 34
2, 701898, Note_on_c, 0, 58, 62
2, 701920, Note_off_c, 0, 61, 64
2, 701931, Note_off_c, 0, 58, 64
2, 701935, Note_off_c, 0, 70, 64
2, 701939, Note_off_c, 0, 54, 64
2, 701987, Note_off_c, 0, 75, 64
2, 701996, Note_on_c, 0, 61, 49
2, 701998, Note_on_c, 0, 58, 61
2, 702003, Note_on_c, 0, 66, 51
2, 702006, Note_on_c, 0, 70, 49
2, 702006, Note_on_c, 0, 54, 46
2, 702044, Note_off_c, 0, 66, 64
2, 702048, Note_off_c, 0, 61, 64
2, 702052, Note_off_c, 0, 70, 64
2, 702056, Note_off_c, 0, 58, 64
2, 702062, Note_off_c, 0, 54, 64
2, 702109, Note_on_c, 0, 73, 91
2, 702116, Note_on_c, 0, 58, 62
2, 702116, Note_on_c, 0, 54, 57
2, 702120, Note_on_c, 0, 61, 57
2, 702147, Note_off_c, 0, 54, 64
2, 702148, Note_off_c, 0, 42, 64
2, 702149, Note_off_c, 0, 58, 64
2, 702153, Note_off_c, 0, 61, 64
2, 702237, Note_on_c, 0, 61, 64
2, 702237, Note_on_c, 0, 41, 64
2, 702241, Note_on_c, 0, 70, 56
2, 702241, Note_on_c, 0, 53, 66
2, 702247, Note_on_c, 0, 66, 54
2, 702268, Note_off_c, 0, 41, 64
2, 702270, Note_off_c, 0, 53, 64
2, 702275, Note_off_c, 0, 66, 64
2, 702276, Note_off_c, 0, 61, 64
2, 702283, Note_off_c, 0, 70, 64
2, 702351, Note_on_c, 0, 51, 76
2, 702357, Note_on_c, 0, 39, 69
2, 702362, Note_on_c, 0, 70, 52
2, 702367, Note_on_c, 0, 66, 52
2, 702385, Note_off_c, 0, 39, 64
2, 702392, Note_off_c, 0, 51, 64
2, 702434, Note_off_c, 0, 70, 64
2, 702439, Note_off_c, 0, 66, 64
2, 702451, Control_c, 0, 64, 0
2, 702518, Note_on_c, 0, 49, 66
2, 702518, Note_on_c, 0, 37, 66
2, 702527, Note_off_c, 0, 73, 64
2, 702529, Control_c, 0, 64, 127
2, 702657, Note_on_c, 0, 56, 81
2, 702676, Note_on_c, 0, 73, 87
2, 702680, Note_on_c, 0, 65, 64
2, 702686, Note_on_c, 0, 71, 51
2, 702721, Note_off_c, 0, 56, 64
2, 702725, Note_off_c, 0, 65, 64
2, 702729, Note_off_c, 0, 71, 64
2, 702759, Note_off_c, 0, 73, 64
2, 702783, Note_on_c, 0, 73, 42
2, 702783, Note_on_c, 0, 56, 34
2, 702787, Note_on_c, 0, 75, 72
2, 702796, Note_on_c, 0, 65, 56
2, 702798, Note_on_c, 0, 61, 54
2, 702805, Note_on_c, 0, 71, 54
2, 702843, Note_off_c, 0, 61, 64
2, 702845, Note_off_c, 0, 65, 64
2, 702850, Note_off_c, 0, 56, 64
2, 702852, Note_off_c, 0, 71, 64
2, 702857, Note_off_c, 0, 73, 64
2, 702889, Note_off_c, 0, 75, 64
2, 702902, Note_on_c, 0, 56, 54
2, 702905, Note_on_c, 0, 65, 57
2, 702905, Note_on_c, 0, 61, 54
2, 702906, Note_on_c, 0, 77, 81
2, 702914, Note_on_c, 0, 71, 51
2, 702924, Note_off_c, 0, 37, 64
2, 702931, Note_off_c, 0, 49, 64
2, 702940, Note_off_c, 0, 61, 64
2, 702940, Note_off_c, 0, 56, 64
2, 702944, Note_off_c, 0, 71, 64
2, 702947, Note_off_c, 0, 65, 64
2, 702955, Note_off_c, 0, 77, 64
2, 703017, Note_on_c, 0, 78, 90
2, 703023, Note_on_c, 0, 71, 60
2, 703023, Note_on_c, 0, 65, 58
2, 703027, Note_on_c, 0, 51, 76
2, 703032, Note_on_c, 0, 39, 68
2, 703060, Note_off_c, 0, 39, 64
2, 703063, Note_off_c, 0, 51, 64
2, 703063, Note_off_c, 0, 65, 64
2, 703077, Note_off_c, 0, 78, 64
2, 703085, Note_off_c, 0, 71, 64
2, 703146, Note_on_c, 0, 80, 85
2, 703146, Note_on_c, 0, 71, 57
2, 703153, Note_on_c, 0, 41, 57
2, 703156, Note_on_c, 0, 53, 68
2, 703175, Note_off_c, 0, 71, 64
2, 703189, Note_off_c, 0, 41, 64
2, 703191, Note_off_c, 0, 53, 64
2, 703209, Note_off_c, 0, 80, 64
2, 703290, Control_c, 0, 64, 0
2, 703331, Note_on_c, 0, 82, 85
2, 703340, Note_on_c, 0, 42, 61
2, 703342, Note_on_c, 0, 54, 69
2, 703375, Control_c, 0, 64, 127
2, 703418, Note_off_c, 0, 54, 64
2, 703514, Note_on_c, 0, 70, 58
2, 703515, Note_on_c, 0, 54, 62
2, 703519, Note_on_c, 0, 73, 59
2, 703525, Note_on_c, 0, 78, 35
2, 703525, Note_on_c, 0, 61, 34
2, 703545, Note_on_c, 0, 58, 22
2, 703555, Note_off_c, 0, 73, 64
2, 703557, Note_off_c, 0, 61, 64
2, 703561, Note_off_c, 0, 70, 64
2, 703563, Note_off_c, 0, 78, 64
2, 703571, Note_off_c, 0, 54, 64
2, 703575, Note_off_c, 0, 58, 64
2, 703622, Note_on_c, 0, 70, 57
2, 703629, Note_on_c, 0, 73, 62
2, 703633, Note_on_c, 0, 54, 63
2, 703638, Note_on_c, 0, 58, 46
2, 703641, Note_on_c, 0, 78, 51
2, 703641, Note_on_c, 0, 61, 51
2, 703675, Note_off_c, 0, 78, 64
2, 703682, Note_off_c, 0, 73, 64
2, 703689, Note_off_c, 0, 70, 64
2, 703692, Note_off_c, 0, 61, 64
2, 703692, Note_off_c, 0, 54, 64
2, 703694, Note_off_c, 0, 58, 64
2, 703730, Note_off_c, 0, 42, 64
2, 703744, Note_on_c, 0, 66, 61
2, 703748, Note_on_c, 0, 42, 80
2, 703750, Note_on_c, 0, 54, 61
2, 703754, Note_on_c, 0, 78, 62
2, 703754, Note_on_c, 0, 73, 68
2, 703754, Note_on_c, 0, 70, 71
2, 703761, Note_on_c, 0, 61, 60
2, 703780, Note_off_c, 0, 66, 64
2, 703785, Note_off_c, 0, 61, 64
2, 703787, Note_off_c, 0, 42, 64
2, 703789, Note_off_c, 0, 54, 64
2, 703810, Note_off_c, 0, 70, 64
2, 703812, Note_off_c, 0, 73, 64
2, 703813, Note_off_c, 0, 78, 64
2, 703878, Note_on_c, 0, 53, 71
2, 703881, Note_on_c, 0, 73, 57
2, 703881, Note_on_c, 0, 70, 63
2, 703886, Note_on_c, 0, 41, 62
2, 703890, Note_on_c, 0, 78, 54
2, 703912, Note_off_c, 0, 53, 64
2, 703916, Note_off_c, 0, 41, 64
2, 703931, Note_off_c, 0, 73, 64
2, 703933, Note_off_c, 0, 78, 64
2, 703933, Note_off_c, 0, 70, 64
2, 703994, Note_on_c, 0, 70, 51
2, 704000, Note_on_c, 0, 73, 57
2, 704001, Note_on_c, 0, 52, 64
2, 704001, Note_on_c, 0, 40, 64
2, 704008, Note_on_c, 0, 78, 58
2, 704038, Note_off_c, 0, 40, 64
2, 704040, Note_off_c, 0, 52, 64
2, 704042, Note_off_c, 0, 73, 64
2, 704052, Note_off_c, 0, 82, 64
2, 704077, Note_off_c, 0, 70, 64
2, 704090, Note_off_c, 0, 78, 64
2, 704117, Control_c, 0, 64, 0
2, 704171, Note_on_c, 0, 83, 81
2, 704180, Note_on_c, 0, 51, 93
2, 704184, Note_on_c, 0, 39, 83
2, 704204, Control_c, 0, 64, 127
2, 704335, Note_on_c, 0, 78, 68
2, 704335, Note_on_c, 0, 59, 68
2, 704341, Note_on_c, 0, 66, 76
2, 704344, Note_on_c, 0, 69, 69
2, 704379, Note_off_c, 0, 59, 64
2, 704382, Note_off_c, 0, 66, 64
2, 704386, Note_off_c, 0, 69, 64
2, 704393, Note_off_c, 0, 78, 64
2, 704453, Note_on_c, 0, 66, 76
2, 704456, Note_on_c, 0, 78, 62
2, 704457, Note_off_c, 0, 83, 64
2, 704462, Note_on_c, 0, 69, 68
2, 704462, Note_on_c, 0, 59, 69
2, 704468, Note_off_c, 0, 39, 64
2, 704470, Note_off_c, 0, 51, 64
2, 704499, Note_off_c, 0, 78, 64
2, 704508, Note_off_c, 0, 66, 64
2, 704514, Note_off_c, 0, 59, 64
2, 704519, Control_c, 0, 64, 0
2, 704525, Note_off_c, 0, 69, 64
2, 704575, Note_on_c, 0, 80, 83
2, 704579, Note_on_c, 0, 52, 79
2, 704598, Control_c, 0, 64, 127
2, 704689, Note_on_c, 0, 68, 62
2, 704689, Note_on_c, 0, 64, 64
2, 704693, Note_on_c, 0, 59, 58
2, 704707, Note_on_c, 0, 76, 44
2, 704742, Note_off_c, 0, 59, 64
2, 704742, Note_off_c, 0, 64, 64
2, 704761, Note_off_c, 0, 68, 64
2, 704779, Note_off_c, 0, 76, 64
2, 704803, Note_on_c, 0, 59, 59
2, 704806, Note_on_c, 0, 64, 56
2, 704812, Note_on_c, 0, 68, 58
2, 704816, Note_on_c, 0, 76, 52
2, 704831, Note_off_c, 0, 80, 64
2, 704875, Note_off_c, 0, 59, 64
2, 704878, Note_off_c, 0, 64, 64
2, 704882, Note_off_c, 0, 52, 64
2, 704884, Note_off_c, 0, 68, 64
2, 704888, Note_off_c, 0, 76, 64
2, 704922, Control_c, 0, 64, 0
2, 704956, Note_on_c, 0, 82, 92
2, 704971, Note_on_c, 0, 50, 103
2, 704999, Control_c, 0, 64, 127
2, 705100, Note_on_c, 0, 70, 78
2, 705100, Note_on_c, 0, 68, 67
2, 705104, Note_on_c, 0, 58, 75
2, 705107, Note_on_c, 0, 77, 56
2, 705108, Note_on_c, 0, 65, 76
2, 705172, Note_off_c, 0, 68, 64
2, 705172, Note_off_c, 0, 70, 64
2, 705176, Note_off_c, 0, 58, 64
2, 705179, Note_off_c, 0, 77, 64
2, 705180, Note_off_c, 0, 65, 64
2, 705217, Note_on_c, 0, 65, 54
2, 705220, Note_on_c, 0, 70, 65
2, 705220, Note_on_c, 0, 68, 71
2, 705225, Note_off_c, 0, 82, 64
2, 705225, Note_on_c, 0, 58, 76
2, 705228, Note_on_c, 0, 77, 67
2, 705250, Note_off_c, 0, 50, 64
2, 705289, Note_off_c, 0, 65, 64
2, 705292, Note_off_c, 0, 68, 64
2, 705292, Note_off_c, 0, 70, 64
2, 705297, Note_off_c, 0, 58, 64
2, 705300, Note_off_c, 0, 77, 64
2, 705301, Control_c, 0, 64, 0
2, 705361, Note_on_c, 0, 79, 79
2, 705365, Note_on_c, 0, 51, 97
2, 705388, Control_c, 0, 64, 127
2, 705492, Note_on_c, 0, 70, 69
2, 705492, Note_on_c, 0, 67, 45
2, 705492, Note_on_c, 0, 63, 78
2, 705492, Note_on_c, 0, 58, 76
2, 705497, Note_on_c, 0, 75, 56
2, 705547, Note_off_c, 0, 67, 64
2, 705557, Note_off_c, 0, 75, 64
2, 705564, Note_off_c, 0, 58, 64
2, 705564, Note_off_c, 0, 63, 64
2, 705564, Note_off_c, 0, 70, 64
2, 705612, Note_on_c, 0, 67, 46
2, 705620, Note_on_c, 0, 70, 65
2, 705620, Note_on_c, 0, 63, 58
2, 705620, Note_on_c, 0, 58, 51
2, 705625, Note_on_c, 0, 75, 57
2, 705648, Note_off_c, 0, 51, 64
2, 705657, Note_off_c, 0, 79, 64
2, 705684, Note_off_c, 0, 67, 64
2, 705692, Note_off_c, 0, 58, 64
2, 705692, Note_off_c, 0, 63, 64
2, 705692, Note_off_c, 0, 70, 64
2, 705697, Note_off_c, 0, 75, 64
2, 705734, Control_c, 0, 64, 0
2, 705793, Note_on_c, 0, 81, 87
2, 705794, Note_on_c, 0, 49, 106
2, 705830, Control_c, 0, 64, 127
2, 705940, Note_on_c, 0, 69, 61
2, 705940, Note_on_c, 0, 57, 88
2, 705948, Note_on_c, 0, 67, 62
2, 705948, Note_on_c, 0, 64, 66
2, 705951, Note_on_c, 0, 76, 62
2, 706008, Note_off_c, 0, 67, 64
2, 706008, Note_off_c, 0, 76, 64
2, 706012, Note_off_c, 0, 57, 64
2, 706012, Note_off_c, 0, 69, 64
2, 706020, Note_off_c, 0, 64, 64
2, 706076, Note_on_c, 0, 69, 68
2, 706076, Note_on_c, 0, 67, 52
2, 706076, Note_on_c, 0, 57, 76
2, 706081, Note_on_c, 0, 64, 76
2, 706084, Note_off_c, 0, 49, 64
2, 706084, Note_on_c, 0, 76, 66
2, 706103, Note_off_c, 0, 81, 64
2, 706137, Note_off_c, 0, 76, 64
2, 706148, Note_off_c, 0, 57, 64
2, 706148, Note_off_c, 0, 67, 64
2, 706148, Note_off_c, 0, 69, 64
2, 706153, Note_off_c, 0, 64, 64
2, 706236, Control_c, 0, 64, 0
2, 706270, Note_on_c, 0, 78, 96
2, 706284, Note_on_c, 0, 50, 94
2, 706324, Control_c, 0, 64, 127
2, 706444, Note_on_c, 0, 62, 49
2, 706452, Note_on_c, 0, 74, 53
2, 706452, Note_on_c, 0, 69, 48
2, 706452, Note_on_c, 0, 66, 49
2, 706452, Note_on_c, 0, 57, 19
2, 706516, Note_off_c, 0, 62, 64
2, 706522, Note_off_c, 0, 66, 64
2, 706524, Note_off_c, 0, 57, 64
2, 706524, Note_off_c, 0, 69, 64
2, 706548, Note_off_c, 0, 74, 64
2, 706577, Note_off_c, 0, 50, 64
2, 706595, Note_on_c, 0, 66, 48
2, 706601, Note_on_c, 0, 69, 52
2, 706604, Note_on_c, 0, 73, 36
2, 706605, Note_on_c, 0, 62, 53
2, 706610, Note_on_c, 0, 57, 43
2, 706614, Note_on_c, 0, 62, 44
2, 706649, Note_off_c, 0, 62, 64
2, 706656, Note_off_c, 0, 66, 64
2, 706664, Note_off_c, 0, 62, 64
2, 706673, Note_off_c, 0, 69, 64
2, 706682, Note_off_c, 0, 57, 64
2, 706700, Note_off_c, 0, 73, 64
2, 706723, Note_on_c, 0, 72, 60
2, 706726, Note_on_c, 0, 66, 37
2, 706732, Note_on_c, 0, 69, 59
2, 706739, Note_on_c, 0, 62, 32
2, 706739, Note_on_c, 0, 57, 59
2, 706745, Note_on_c, 0, 62, 36
2, 706776, Note_off_c, 0, 62, 64
2, 706785, Note_off_c, 0, 66, 64
2, 706792, Note_off_c, 0, 69, 64
2, 706811, Note_off_c, 0, 62, 64
2, 706811, Note_off_c, 0, 57, 64
2, 706831, Note_off_c, 0, 72, 64
2, 706866, Note_on_c, 0, 72, 67
2, 706866, Note_on_c, 0, 66, 61
2, 706868, Note_on_c, 0, 38, 62
2, 706870, Note_on_c, 0, 50, 79
2, 706875, Note_on_c, 0, 69, 59
2, 706922, Note_off_c, 0, 66, 64
2, 706940, Note_off_c, 0, 38, 64
2, 706942, Note_off_c, 0, 50, 64
2, 706947, Note_off_c, 0, 69, 64
2, 706971, Note_off_c, 0, 72, 64
2, 706991, Note_on_c, 0, 66, 65
2, 706996, Note_on_c, 0, 73, 78
2, 707004, Note_on_c, 0, 69, 65
2, 707004, Note_on_c, 0, 49, 92
2, 707010, Note_on_c, 0, 37, 90
2, 707054, Note_off_c, 0, 66, 64
2, 707076, Note_off_c, 0, 49, 64
2, 707076, Note_off_c, 0, 69, 64
2, 707082, Note_off_c, 0, 37, 64
2, 707113, Note_off_c, 0, 73, 64
2, 707139, Note_on_c, 0, 66, 84
2, 707140, Note_on_c, 0, 36, 72
2, 707142, Note_off_c, 0, 78, 64
2, 707147, Note_on_c, 0, 74, 78
2, 707147, Note_on_c, 0, 48, 88
2, 707148, Note_on_c, 0, 69, 78
2, 707212, Note_off_c, 0, 36, 64
2, 707219, Note_off_c, 0, 48, 64
2, 707220, Note_off_c, 0, 69, 64
2, 707221, Note_off_c, 0, 66, 64
2, 707263, Note_off_c, 0, 74, 64
2, 707281, Note_on_c, 0, 66, 87
2, 707285, Note_on_c, 0, 69, 84
2, 707290, Note_on_c, 0, 74, 83
2, 707291, Note_on_c, 0, 48, 96
2, 707294, Note_on_c, 0, 36, 82
2, 707350, Note_off_c, 0, 69, 64
2, 707354, Note_off_c, 0, 66, 64
2, 707363, Note_off_c, 0, 48, 64
2, 707366, Note_off_c, 0, 36, 64
2, 707415, Note_off_c, 0, 74, 64
2, 707436, Note_on_c, 0, 35, 81
2, 707442, Note_on_c, 0, 66, 94
2, 707445, Note_on_c, 0, 47, 91
2, 707450, Note_on_c, 0, 75, 94
2, 707450, Note_on_c, 0, 69, 87
2, 707508, Note_off_c, 0, 35, 64
2, 707517, Note_off_c, 0, 47, 64
2, 707522, Note_off_c, 0, 69, 64
2, 707556, Note_off_c, 0, 66, 64
2, 707569, Note_off_c, 0, 75, 64
2, 707640, Control_c, 0, 64, 0
2, 707652, Note_on_c, 0, 46, 105
2, 707652, Note_on_c, 0, 34, 115
2, 707661, Note_on_c, 0, 79, 105
2, 707716, Control_c, 0, 64, 127
2, 707882, Note_on_c, 0, 75, 81
2, 707887, Note_on_c, 0, 58, 70
2, 707890, Note_on_c, 0, 67, 75
2, 707897, Note_on_c, 0, 63, 36
2, 707928, Note_off_c, 0, 67, 64
2, 707932, Note_off_c, 0, 63, 64
2, 707936, Note_off_c, 0, 75, 64
2, 707948, Note_off_c, 0, 58, 64
2, 708002, Note_on_c, 0, 75, 85
2, 708005, Note_on_c, 0, 67, 68
2, 708009, Note_on_c, 0, 63, 87
2, 708012, Note_on_c, 0, 58, 73
2, 708068, Note_off_c, 0, 63, 64
2, 708070, Note_off_c, 0, 67, 64
2, 708073, Note_off_c, 0, 58, 64
2, 708076, Note_off_c, 0, 75, 64
2, 708121, Note_off_c, 0, 79, 64
2, 708131, Note_on_c, 0, 73, 89
2, 708135, Note_on_c, 0, 58, 79
2, 708140, Note_on_c, 0, 64, 83
2, 708144, Note_on_c, 0, 67, 80
2, 708192, Note_off_c, 0, 64, 64
2, 708201, Note_off_c, 0, 58, 64
2, 708214, Note_off_c, 0, 67, 64
2, 708221, Note_off_c, 0, 73, 64
2, 708264, Note_on_c, 0, 73, 68
2, 708269, Note_on_c, 0, 80, 110
2, 708277, Note_on_c, 0, 58, 68
2, 708282, Note_on_c, 0, 67, 79
2, 708285, Note_on_c, 0, 64, 72
2, 708313, Note_off_c, 0, 73, 64
2, 708331, Note_off_c, 0, 67, 64
2, 708334, Note_off_c, 0, 64, 64
2, 708345, Note_off_c, 0, 58, 64
2, 708412, Note_on_c, 0, 64, 72
2, 708419, Note_on_c, 0, 58, 60
2, 708420, Note_on_c, 0, 76, 96
2, 708426, Note_off_c, 0, 80, 64
2, 708426, Note_on_c, 0, 67, 80
2, 708427, Note_on_c, 0, 73, 81
2, 708450, Note_off_c, 0, 64, 64
2, 708456, Note_off_c, 0, 58, 64
2, 708470, Note_off_c, 0, 67, 64
2, 708476, Note_off_c, 0, 73, 64
2, 708530, Note_off_c, 0, 76, 64
2, 708575, Control_c, 0, 64, 0
2, 708580, Note_off_c, 0, 34, 64
2, 708580, Note_off_c, 0, 46, 64
2, 708595, Note_on_c, 0, 79, 98
2, 708606, Note_on_c, 0, 46, 102
2, 708648, Control_c, 0, 64, 127
2, 708732, Note_on_c, 0, 77, 84
2, 708759, Note_off_c, 0, 79, 64
2, 708768, Note_on_c, 0, 79, 86
2, 708792, Note_on_c, 0, 68, 98
2, 708804, Note_on_c, 0, 74, 80
2, 708804, Note_on_c, 0, 65, 84
2, 708806, Note_on_c, 0, 58, 89
2, 708820, Note_off_c, 0, 79, 64
2, 708850, Note_off_c, 0, 68, 64
2, 708853, Note_off_c, 0, 74, 64
2, 708854, Note_off_c, 0, 65, 64
2, 708863, Note_off_c, 0, 58, 64
2, 708952, Note_off_c, 0, 77, 64
2, 708963, Note_on_c, 0, 68, 90
2, 708963, Note_on_c, 0, 65, 86
2, 708963, Note_on_c, 0, 58, 94
2, 708968, Note_on_c, 0, 76, 86
2, 708968, Note_on_c, 0, 74, 86
2, 709002, Note_off_c, 0, 68, 64
2, 709013, Note_off_c, 0, 74, 64
2, 709021, Note_off_c, 0, 58, 64
2, 709024, Note_off_c, 0, 65, 64
2, 709040, Note_off_c, 0, 76, 64
2, 709085, Note_on_c, 0, 77, 88
2, 709091, Note_on_c, 0, 68, 82
2, 709094, Note_on_c, 0, 58, 89
2, 709099, Note_on_c, 0, 74, 80
2, 709099, Note_on_c, 0, 65, 87
2, 709130, Note_off_c, 0, 74, 64
2, 709147, Note_off_c, 0, 68, 64
2, 709153, Note_off_c, 0, 58, 64
2, 709159, Note_off_c, 0, 65, 64
2, 709203, Note_off_c, 0, 77, 64
2, 709223, Note_on_c, 0, 79, 94
2, 709227, Note_on_c, 0, 68, 87
2, 709230, Note_on_c, 0, 74, 90
2, 709235, Note_on_c, 0, 58, 89
2, 709238, Note_on_c, 0, 65, 87
2, 709260, Note_off_c, 0, 74, 64
2, 709267, Note_off_c, 0, 79, 64
2, 709271, Note_off_c, 0, 68, 64
2, 709282, Note_off_c, 0, 58, 64
2, 709287, Note_off_c, 0, 65, 64
2, 709380, Note_on_c, 0, 62, 86
2, 709392, Note_on_c, 0, 74, 95
2, 709392, Note_on_c, 0, 68, 102
2, 709392, Note_on_c, 0, 65, 89
2, 709392, Note_on_c, 0, 58, 89
2, 709467, Note_off_c, 0, 62, 64
2, 709479, Note_off_c, 0, 58, 64
2, 709479, Note_off_c, 0, 65, 64
2, 709479, Note_off_c, 0, 68, 64
2, 709500, Note_off_c, 0, 46, 64
2, 709528, Note_off_c, 0, 74, 64
2, 709608, Note_on_c, 0, 75, 101
2, 709608, Note_on_c, 0, 51, 92
2, 709608, Note_on_c, 0, 39, 86
2, 709741, Control_c, 0, 64, 0
2, 709801, Control_c, 0, 64, 127
2, 709880, Note_on_c, 0, 70, 42
2, 709880, Note_on_c, 0, 58, 68
2, 709880, Note_on_c, 0, 55, 63
2, 709884, Note_on_c, 0, 67, 33
2, 709884, Note_on_c, 0, 63, 66
2, 709927, Note_off_c, 0, 58, 64
2, 709932, Note_off_c, 0, 70, 64
2, 709933, Note_off_c, 0, 63, 64
2, 709933, Note_off_c, 0, 55, 64
2, 709936, Note_off_c, 0, 67, 64
2, 710048, Note_on_c, 0, 58, 53
2, 710048, Note_on_c, 0, 55, 68
2, 710052, Note_on_c, 0, 70, 56
2, 710052, Note_on_c, 0, 67, 66
2, 710052, Note_on_c, 0, 63, 62
2, 710064, Note_off_c, 0, 39, 64
2, 710087, Note_off_c, 0, 51, 64
2, 710099, Note_off_c, 0, 58, 64
2, 710100, Note_off_c, 0, 55, 64
2, 710104, Note_off_c, 0, 63, 64
2, 710104, Note_off_c, 0, 67, 64
2, 710104, Note_off_c, 0, 70, 64
2, 710208, Note_on_c, 0, 55, 71
2, 710212, Note_on_c, 0, 70, 84
2, 710212, Note_on_c, 0, 67, 68
2, 710212, Note_on_c, 0, 63, 77
2, 710212, Note_on_c, 0, 58, 61
2, 710257, Note_off_c, 0, 58, 64
2, 710257, Note_off_c, 0, 55, 64
2, 710259, Note_off_c, 0, 70, 64
2, 710264, Note_off_c, 0, 67, 64
2, 710266, Note_off_c, 0, 63, 64
2, 710339, Note_on_c, 0, 63, 78
2, 710345, Note_on_c, 0, 58, 61
2, 710348, Note_on_c, 0, 67, 71
2, 710349, Note_on_c, 0, 70, 81
2, 710349, Note_on_c, 0, 55, 62
2, 710386, Note_off_c, 0, 70, 64
2, 710393, Note_off_c, 0, 58, 64
2, 710393, Note_off_c, 0, 63, 64
2, 710395, Note_off_c, 0, 67, 64
2, 710400, Note_off_c, 0, 55, 64
2, 710465, Note_on_c, 0, 63, 73
2, 710470, Note_on_c, 0, 55, 65
2, 710471, Note_on_c, 0, 67, 65
2, 710476, Note_on_c, 0, 70, 79
2, 710484, Note_on_c, 0, 58, 59
2, 710512, Note_off_c, 0, 58, 64
2, 710521, Note_off_c, 0, 67, 64
2, 710523, Note_off_c, 0, 55, 64
2, 710543, Note_off_c, 0, 63, 64
2, 710556, Note_off_c, 0, 75, 64
2, 710591, Control_c, 0, 64, 0
2, 710624, Note_on_c, 0, 51, 73
2, 710642, Note_off_c, 0, 70, 64
2, 710664, Control_c, 0, 64, 127
2, 710759, Note_on_c, 0, 56, 58
2, 710760, Note_on_c, 0, 75, 83
2, 710760, Note_on_c, 0, 63, 68
2, 710769, Note_on_c, 0, 71, 76
2, 710800, Note_on_c, 0, 59, 37
2, 710811, Note_off_c, 0, 71, 64
2, 710815, Note_off_c, 0, 56, 64
2, 710818, Note_off_c, 0, 59, 64
2, 710818, Note_off_c, 0, 63, 64
2, 710830, Note_off_c, 0, 75, 64
2, 710882, Note_on_c, 0, 74, 83
2, 710883, Note_on_c, 0, 56, 83
2, 710887, Note_on_c, 0, 62, 79
2, 710892, Note_on_c, 0, 71, 76
2, 710892, Note_on_c, 0, 59, 75
2, 710928, Note_off_c, 0, 62, 64
2, 710940, Note_off_c, 0, 74, 64
2, 710944, Note_off_c, 0, 59, 64
2, 710946, Note_off_c, 0, 71, 64
2, 710947, Note_off_c, 0, 56, 64
2, 711035, Note_on_c, 0, 71, 62
2, 711041, Note_on_c, 0, 68, 80
2, 711041, Note_on_c, 0, 56, 74
2, 711045, Note_on_c, 0, 77, 81
2, 711046, Note_off_c, 0, 51, 64
2, 711046, Note_on_c, 0, 59, 72
2, 711051, Note_on_c, 0, 65, 64
2, 711102, Note_off_c, 0, 56, 64
2, 711108, Note_off_c, 0, 59, 64
2, 711114, Note_off_c, 0, 68, 64
2, 711119, Note_off_c, 0, 65, 64
2, 711125, Note_off_c, 0, 71, 64
2, 711192, Note_off_c, 0, 77, 64
2, 711202, Note_on_c, 0, 75, 79
2, 711203, Note_on_c, 0, 68, 73
2, 711203, Note_on_c, 0, 56, 72
2, 711211, Note_on_c, 0, 63, 73
2, 711211, Note_on_c, 0, 59, 66
2, 711260, Note_off_c, 0, 59, 64
2, 711262, Note_off_c, 0, 63, 64
2, 711262, Note_off_c, 0, 56, 64
2, 711269, Note_off_c, 0, 68, 64
2, 711338, Note_on_c, 0, 63, 64
2, 711338, Note_on_c, 0, 56, 61
2, 711344, Note_on_c, 0, 59, 59
2, 711345, Note_off_c, 0, 75, 64
2, 711345, Note_on_c, 0, 71, 73
2, 711377, Note_off_c, 0, 59, 64
2, 711390, Note_off_c, 0, 56, 64
2, 711505, Control_c, 0, 64, 0
2, 711530, Note_on_c, 0, 39, 72
2, 711536, Note_on_c, 0, 75, 77
2, 711536, Note_on_c, 0, 51, 62
2, 711544, Note_off_c, 0, 71, 64
2, 711549, Note_off_c, 0, 63, 64
2, 711587, Control_c, 0, 64, 127
2, 711668, Note_on_c, 0, 70, 32
2, 711668, Note_on_c, 0, 67, 59
2, 711668, Note_on_c, 0, 58, 35
2, 711672, Note_on_c, 0, 63, 46
2, 711672, Note_on_c, 0, 55, 35
2, 711718, Note_off_c, 0, 63, 64
2, 711720, Note_off_c, 0, 58, 64
2, 711720, Note_off_c, 0, 67, 64
2, 711720, Note_off_c, 0, 70, 64
2, 711724, Note_off_c, 0, 55, 64
2, 711816, Note_on_c, 0, 70, 53
2, 711816, Note_on_c, 0, 67, 60
2, 711816, Note_on_c, 0, 58, 56
2, 711820, Note_on_c, 0, 63, 52
2, 711820, Note_on_c, 0, 55, 57
2, 711868, Note_off_c, 0, 58, 64
2, 711868, Note_off_c, 0, 67, 64
2, 711868, Note_off_c, 0, 70, 64
2, 711872, Note_off_c, 0, 55, 64
2, 711872, Note_off_c, 0, 63, 64
2, 711940, Note_on_c, 0, 58, 51
2, 711941, Note_off_c, 0, 39, 64
2, 711944, Note_on_c, 0, 70, 48
2, 711944, Note_on_c, 0, 67, 54
2, 711944, Note_on_c, 0, 63, 60
2, 711944, Note_on_c, 0, 55, 55
2, 711961, Note_off_c, 0, 51, 64
2, 711992, Note_off_c, 0, 58, 64
2, 711996, Note_off_c, 0, 55, 64
2, 711996, Note_off_c, 0, 67, 64
2, 711996, Note_off_c, 0, 70, 64
2, 711997, Note_off_c, 0, 63, 64
2, 712052, Note_on_c, 0, 70, 61
2, 712052, Note_on_c, 0, 67, 54
2, 712052, Note_on_c, 0, 63, 61
2, 712052, Note_on_c, 0, 58, 54
2, 712052, Note_on_c, 0, 55, 50
2, 712101, Note_off_c, 0, 67, 64
2, 712104, Note_off_c, 0, 55, 64
2, 712104, Note_off_c, 0, 70, 64
2, 712106, Note_off_c, 0, 58, 64
2, 712106, Note_off_c, 0, 63, 64
2, 712188, Note_on_c, 0, 70, 58
2, 712188, Note_on_c, 0, 67, 57
2, 712188, Note_on_c, 0, 63, 52
2, 712188, Note_on_c, 0, 58, 60
2, 712188, Note_on_c, 0, 55, 80
2, 712290, Control_c, 0, 64, 0
2, 712301, Note_off_c, 0, 63, 64
2, 712314, Note_off_c, 0, 55, 64
2, 712314, Note_off_c, 0, 58, 64
2, 712314, Note_off_c, 0, 67, 64
2, 712314, Note_off_c, 0, 70, 64
2, 712337, Note_on_c, 0, 51, 55
2, 712364, Control_c, 0, 64, 127
2, 712383, Note_off_c, 0, 75, 64
2, 712452, Note_on_c, 0, 75, 60
2, 712458, Note_on_c, 0, 63, 55
2, 712458, Note_on_c, 0, 56, 69
2, 712467, Note_on_c, 0, 71, 52
2, 712510, Note_off_c, 0, 56, 64
2, 712516, Note_off_c, 0, 71, 64
2, 712516, Note_off_c, 0, 63, 64
2, 712527, Note_off_c, 0, 75, 64
2, 712591, Note_on_c, 0, 71, 56
2, 712592, Note_on_c, 0, 68, 52
2, 712594, Note_on_c, 0, 74, 66
2, 712599, Note_on_c, 0, 62, 57
2, 712600, Note_on_c, 0, 59, 56
2, 712600, Note_on_c, 0, 56, 57
2, 712622, Note_off_c, 0, 68, 64
2, 712632, Note_off_c, 0, 62, 64
2, 712648, Note_off_c, 0, 59, 64
2, 712652, Note_off_c, 0, 56, 64
2, 712655, Note_off_c, 0, 71, 64
2, 712660, Note_off_c, 0, 74, 64
2, 712747, Note_off_c, 0, 51, 64
2, 712774, Note_on_c, 0, 56, 36
2, 712777, Note_on_c, 0, 59, 34
2, 712778, Note_on_c, 0, 71, 50
2, 712783, Note_on_c, 0, 68, 42
2, 712788, Note_on_c, 0, 65, 45
2, 712789, Note_on_c, 0, 77, 57
2, 712841, Note_off_c, 0, 65, 64
2, 712850, Note_off_c, 0, 59, 64
2, 712851, Note_off_c, 0, 56, 64
2, 712853, Note_off_c, 0, 71, 64
2, 712857, Note_off_c, 0, 68, 64
2, 712955, Note_on_c, 0, 75, 60
2, 712957, Note_on_c, 0, 56, 42
2, 712958, Note_on_c, 0, 68, 53
2, 712964, Note_on_c, 0, 59, 41
2, 712967, Note_on_c, 0, 63, 52
2, 712968, Note_off_c, 0, 77, 64
2, 713020, Note_off_c, 0, 56, 64
2, 713024, Note_off_c, 0, 63, 64
2, 713026, Note_off_c, 0, 59, 64
2, 713031, Note_off_c, 0, 68, 64
2, 713161, Note_on_c, 0, 68, 46
2, 713161, Note_on_c, 0, 63, 41
2, 713165, Note_on_c, 0, 71, 52
2, 713165, Note_on_c, 0, 59, 40
2, 713171, Note_on_c, 0, 56, 41
2, 713177, Note_off_c, 0, 75, 64
2, 713205, Note_off_c, 0, 68, 64
2, 713220, Note_off_c, 0, 59, 64
2, 713232, Note_off_c, 0, 56, 64
2, 713431, Note_on_c, 0, 39, 50
2, 713434, Note_on_c, 0, 75, 55
2, 713436, Control_c, 0, 64, 0
2, 713448, Note_off_c, 0, 71, 64
2, 713455, Note_off_c, 0, 63, 64
2, 713500, Control_c, 0, 64, 127
2, 713700, Note_on_c, 0, 70, 36
2, 713707, Note_on_c, 0, 58, 36
2, 713712, Note_on_c, 0, 67, 36
2, 713712, Note_on_c, 0, 63, 36
2, 713722, Note_on_c, 0, 55, 36
2, 713749, Note_off_c, 0, 55, 64
2, 713759, Note_off_c, 0, 63, 64
2, 713760, Note_off_c, 0, 70, 64
2, 713764, Note_off_c, 0, 58, 64
2, 713772, Note_off_c, 0, 67, 64
2, 713841, Note_on_c, 0, 63, 38
2, 713847, Note_on_c, 0, 58, 38
2, 713850, Note_on_c, 0, 67, 39
2, 713850, Note_on_c, 0, 55, 39
2, 713862, Note_on_c, 0, 70, 39
2, 713879, Note_off_c, 0, 70, 64
2, 713887, Note_off_c, 0, 58, 64
2, 713889, Note_off_c, 0, 63, 64
2, 713893, Note_off_c, 0, 55, 64
2, 713893, Note_off_c, 0, 67, 64
2, 713970, Note_on_c, 0, 63, 40
2, 713970, Note_on_c, 0, 58, 40
2, 713974, Note_on_c, 0, 55, 40
2, 713980, Note_on_c, 0, 67, 40
2, 713986, Note_on_c, 0, 70, 40
2, 714010, Note_off_c, 0, 70, 64
2, 714015, Note_off_c, 0, 63, 64
2, 714018, Note_off_c, 0, 67, 64
2, 714018, Note_off_c, 0, 58, 64
2, 714023, Note_off_c, 0, 55, 64
2, 714090, Note_off_c, 0, 75, 64
2, 714092, Note_on_c, 0, 63, 42
2, 714096, Note_on_c, 0, 58, 42
2, 714099, Note_on_c, 0, 55, 42
2, 714104, Note_on_c, 0, 67, 42
2, 714107, Note_on_c, 0, 70, 42
2, 714135, Note_off_c, 0, 55, 64
2, 714138, Note_off_c, 0, 67, 64
2, 714143, Note_off_c, 0, 70, 64
2, 714143, Note_off_c, 0, 58, 64
2, 714143, Note_off_c, 0, 63, 64
2, 714204, Note_on_c, 0, 55, 42
2, 714214, Note_on_c, 0, 58, 44
2, 714218, Note_on_c, 0, 63, 45
2, 714221, Note_on_c, 0, 70, 45
2, 714234, Note_on_c, 0, 67, 45
2, 714257, Note_off_c, 0, 63, 64
2, 714264, Note_off_c, 0, 67, 64
2, 714264, Note_off_c, 0, 55, 64
2, 714266, Note_off_c, 0, 70, 64
2, 714271, Note_off_c, 0, 58, 64
2, 714336, Note_on_c, 0, 55, 44
2, 714339, Note_on_c, 0, 63, 44
2, 714342, Note_on_c, 0, 70, 44
2, 714348, Note_on_c, 0, 58, 45
2, 714358, Note_on_c, 0, 67, 45
2, 714392, Note_off_c, 0, 70, 64
2, 714396, Note_off_c, 0, 63, 64
2, 714396, Note_off_c, 0, 55, 64
2, 714400, Note_off_c, 0, 58, 64
2, 714402, Note_off_c, 0, 67, 64
2, 714456, Note_on_c, 0, 70, 47
2, 714461, Note_on_c, 0, 63, 48
2, 714468, Note_on_c, 0, 58, 48
2, 714476, Note_on_c, 0, 67, 48
2, 714483, Note_on_c, 0, 55, 48
2, 714516, Note_off_c, 0, 70, 64
2, 714517, Note_off_c, 0, 55, 64
2, 714523, Note_off_c, 0, 67, 64
2, 714523, Note_off_c, 0, 58, 64
2, 714528, Note_off_c, 0, 63, 64
2, 714584, Note_on_c, 0, 70, 49
2, 714584, Note_on_c, 0, 63, 49
2, 714591, Note_on_c, 0, 58, 49
2, 714594, Note_on_c, 0, 55, 49
2, 714607, Note_on_c, 0, 67, 50
2, 714627, Note_off_c, 0, 70, 64
2, 714635, Note_off_c, 0, 67, 64
2, 714640, Note_off_c, 0, 55, 64
2, 714642, Note_off_c, 0, 63, 64
2, 714649, Note_off_c, 0, 58, 64
2, 714705, Note_on_c, 0, 63, 52
2, 714710, Note_on_c, 0, 70, 51
2, 714713, Note_on_c, 0, 58, 51
2, 714720, Note_on_c, 0, 67, 51
2, 714720, Note_on_c, 0, 55, 51
2, 714756, Note_off_c, 0, 55, 64
2, 714763, Note_off_c, 0, 70, 64
2, 714765, Note_off_c, 0, 67, 64
2, 714766, Note_off_c, 0, 58, 64
2, 714770, Note_off_c, 0, 63, 64
2, 714827, Note_on_c, 0, 58, 50
2, 714833, Note_on_c, 0, 67, 50
2, 714840, Note_on_c, 0, 70, 50
2, 714840, Note_on_c, 0, 63, 50
2, 714854, Note_on_c, 0, 55, 50
2, 714877, Note_off_c, 0, 55, 64
2, 714883, Note_off_c, 0, 70, 64
2, 714885, Note_off_c, 0, 63, 64
2, 714891, Note_off_c, 0, 67, 64
2, 714892, Note_off_c, 0, 58, 64
2, 714952, Note_on_c, 0, 58, 55
2, 714960, Note_on_c, 0, 70, 55
2, 714960, Note_on_c, 0, 67, 55
2, 714960, Note_on_c, 0, 63, 55
2, 714967, Note_on_c, 0, 55, 55
2, 715007, Note_off_c, 0, 55, 64
2, 715009, Note_off_c, 0, 63, 64
2, 715014, Note_off_c, 0, 67, 64
2, 715019, Note_off_c, 0, 58, 64
2, 715020, Note_off_c, 0, 70, 64
2, 715080, Note_on_c, 0, 70, 53
2, 715080, Note_on_c, 0, 63, 53
2, 715080, Note_on_c, 0, 58, 53
2, 715085, Note_on_c, 0, 67, 53
2, 715089, Note_on_c, 0, 55, 52
2, 715136, Note_off_c, 0, 63, 64
2, 715140, Note_off_c, 0, 70, 64
2, 715141, Note_off_c, 0, 58, 64
2, 715143, Note_off_c, 0, 67, 64
2, 715147, Note_off_c, 0, 55, 64
2, 715212, Note_on_c, 0, 70, 46
2, 715225, Note_on_c, 0, 63, 46
2, 715225, Note_on_c, 0, 55, 46
2, 715228, Note_on_c, 0, 58, 46
2, 715235, Note_on_c, 0, 67, 46
2, 715271, Note_off_c, 0, 63, 64
2, 715272, Note_off_c, 0, 67, 64
2, 715272, Note_off_c, 0, 70, 64
2, 715277, Note_off_c, 0, 58, 64
2, 715279, Note_off_c, 0, 55, 64
2, 715354, Note_on_c, 0, 55, 40
2, 715356, Note_on_c, 0, 70, 40
2, 715356, Note_on_c, 0, 58, 40
2, 715361, Note_on_c, 0, 67, 40
2, 715368, Note_on_c, 0, 63, 40
2, 715392, Note_off_c, 0, 63, 64
2, 715416, Note_off_c, 0, 70, 64
2, 715416, Note_off_c, 0, 55, 64
2, 715420, Note_off_c, 0, 67, 64
2, 715420, Note_off_c, 0, 58, 64
2, 715476, Note_on_c, 0, 70, 35
2, 715476, Note_on_c, 0, 67, 35
2, 715476, Note_on_c, 0, 58, 35
2, 715488, Note_on_c, 0, 55, 35
2, 715493, Note_on_c, 0, 63, 35
2, 715531, Note_off_c, 0, 63, 64
2, 715535, Note_off_c, 0, 55, 64
2, 715536, Note_off_c, 0, 67, 64
2, 715536, Note_off_c, 0, 70, 64
2, 715543, Note_off_c, 0, 58, 64
2, 715604, Note_on_c, 0, 58, 40
2, 715608, Note_on_c, 0, 70, 39
2, 715611, Note_on_c, 0, 63, 39
2, 715618, Note_on_c, 0, 55, 39
2, 715620, Note_on_c, 0, 67, 38
2, 715650, Note_off_c, 0, 63, 64
2, 715660, Note_off_c, 0, 55, 64
2, 715664, Note_off_c, 0, 67, 64
2, 715666, Note_off_c, 0, 58, 64
2, 715668, Note_off_c, 0, 70, 64
2, 715732, Note_on_c, 0, 63, 35
2, 715738, Note_on_c, 0, 70, 35
2, 715740, Note_on_c, 0, 58, 35
2, 715754, Note_on_c, 0, 67, 32
2, 715757, Note_on_c, 0, 55, 32
2, 715784, Note_off_c, 0, 70, 64
2, 715787, Note_off_c, 0, 55, 64
2, 715787, Note_off_c, 0, 67, 64
2, 715791, Note_off_c, 0, 63, 64
2, 715793, Note_off_c, 0, 58, 64
2, 715871, Note_on_c, 0, 58, 29
2, 715872, Note_on_c, 0, 67, 29
2, 715877, Note_on_c, 0, 70, 29
2, 715877, Note_on_c, 0, 63, 29
2, 715884, Note_on_c, 0, 55, 29
2, 715920, Note_off_c, 0, 70, 64
2, 715927, Note_off_c, 0, 63, 64
2, 715932, Note_off_c, 0, 67, 64
2, 715934, Note_off_c, 0, 55, 64
2, 715935, Note_off_c, 0, 58, 64
2, 715992, Note_on_c, 0, 67, 26
2, 716012, Note_on_c, 0, 63, 25
2, 716015, Note_on_c, 0, 70, 25
2, 716015, Note_on_c, 0, 58, 25
2, 716025, Note_on_c, 0, 55, 25
2, 716052, Note_off_c, 0, 67, 64
2, 716060, Note_off_c, 0, 70, 64
2, 716072, Note_off_c, 0, 63, 64
2, 716073, Note_off_c, 0, 55, 64
2, 716073, Note_off_c, 0, 58, 64
2, 716143, Note_on_c, 0, 63, 23
2, 716149, Note_on_c, 0, 58, 22
2, 716156, Note_on_c, 0, 70, 22
2, 716159, Note_on_c, 0, 55, 22
2, 716170, Note_on_c, 0, 67, 22
2, 716193, Note_off_c, 0, 70, 64
2, 716204, Note_off_c, 0, 63, 64
2, 716208, Note_off_c, 0, 67, 64
2, 716211, Note_off_c, 0, 58, 64
2, 716215, Note_off_c, 0, 55, 64
2, 716287, Note_on_c, 0, 63, 19
2, 716292, Note_on_c, 0, 70, 19
2, 716295, Note_on_c, 0, 58, 19
2, 716300, Note_on_c, 0, 55, 19
2, 716307, Note_on_c, 0, 67, 19
2, 716344, Note_off_c, 0, 63, 64
2, 716352, Note_off_c, 0, 67, 64
2, 716352, Note_off_c, 0, 70, 64
2, 716354, Note_off_c, 0, 58, 64
2, 716360, Note_off_c, 0, 55, 64
2, 716418, Note_off_c, 0, 39, 64
2, 716429, Note_on_c, 0, 63, 15
2, 716436, Note_on_c, 0, 70, 15
2, 716441, Note_on_c, 0, 58, 15
2, 716446, Note_on_c, 0, 67, 15
2, 716446, Note_on_c, 0, 55, 15
2, 716492, Note_off_c, 0, 67, 64
2, 716496, Note_off_c, 0, 55, 64
2, 716496, Note_off_c, 0, 70, 64
2, 716496, Note_off_c, 0, 63, 64
2, 716498, Note_off_c, 0, 58, 64
2, 716592, Note_on_c, 0, 70, 15
2, 716592, Note_on_c, 0, 67, 15
2, 716592, Note_on_c, 0, 58, 15
2, 716592, Note_on_c, 0, 55, 15
2, 716601, Note_on_c, 0, 63, 15
2, 716652, Note_off_c, 0, 55, 64
2, 716652, Note_off_c, 0, 58, 64
2, 716652, Note_off_c, 0, 67, 64
2, 716652, Note_off_c, 0, 70, 64
2, 716673, Note_off_c, 0, 63, 64
2, 716807, Control_c, 0, 64, 0
2, 716817, Note_on_c, 0, 32, 90
2, 716880, Control_c, 0, 64, 127
2, 717036, Note_on_c, 0, 51, 37
2, 717038, Note_on_c, 0, 63, 35
2, 717040, Note_on_c, 0, 44, 37
2, 717054, Note_on_c, 0, 70, 29
2, 717086, Note_off_c, 0, 44, 64
2, 717095, Note_off_c, 0, 63, 64
2, 717096, Note_off_c, 0, 51, 64
2, 717156, Note_off_c, 0, 70, 64
2, 717164, Note_on_c, 0, 72, 55
2, 717170, Note_on_c, 0, 63, 37
2, 717171, Note_on_c, 0, 44, 38
2, 717177, Note_on_c, 0, 51, 35
2, 717209, Note_off_c, 0, 44, 64
2, 717222, Note_off_c, 0, 51, 64
2, 717252, Note_off_c, 0, 63, 64
2, 717252, Note_off_c, 0, 72, 64
2, 717292, Note_on_c, 0, 63, 37
2, 717292, Note_on_c, 0, 58, 37
2, 717292, Note_on_c, 0, 44, 37
2, 717297, Note_on_c, 0, 73, 58
2, 717297, Note_on_c, 0, 51, 37
2, 717352, Note_off_c, 0, 44, 64
2, 717352, Note_off_c, 0, 58, 64
2, 717352, Note_off_c, 0, 63, 64
2, 717361, Note_off_c, 0, 51, 64
2, 717420, Note_on_c, 0, 51, 37
2, 717426, Note_on_c, 0, 61, 31
2, 717428, Note_on_c, 0, 58, 30
2, 717433, Note_on_c, 0, 65, 50
2, 717480, Note_off_c, 0, 51, 64
2, 717480, Note_off_c, 0, 73, 64
2, 717498, Note_off_c, 0, 61, 64
2, 717500, Note_off_c, 0, 58, 64
2, 717541, Note_off_c, 0, 65, 64
2, 717548, Note_on_c, 0, 58, 26
2, 717554, Note_on_c, 0, 51, 21
2, 717557, Note_on_c, 0, 61, 28
2, 717562, Note_on_c, 0, 67, 56
2, 717600, Note_off_c, 0, 51, 64
2, 717620, Note_off_c, 0, 58, 64
2, 717629, Note_off_c, 0, 61, 64
2, 717679, Control_c, 0, 64, 0
2, 717690, Note_off_c, 0, 67, 64
2, 717692, Note_on_c, 0, 70, 56
2, 717699, Note_on_c, 0, 51, 30
2, 717700, Note_on_c, 0, 56, 37
2, 717706, Note_on_c, 0, 63, 31
2, 717706, Note_on_c, 0, 60, 28
2, 717744, Control_c, 0, 64, 127
2, 717757, Note_off_c, 0, 60, 64
2, 717759, Note_off_c, 0, 63, 64
2, 717760, Note_off_c, 0, 56, 64
2, 717785, Note_off_c, 0, 51, 64
2, 717832, Note_on_c, 0, 51, 25
2, 717838, Note_on_c, 0, 56, 20
2, 717844, Note_on_c, 0, 63, 24
2, 717844, Note_on_c, 0, 60, 27
2, 717883, Note_off_c, 0, 60, 64
2, 717888, Note_off_c, 0, 63, 64
2, 717888, Note_off_c, 0, 32, 64
2, 717895, Note_off_c, 0, 51, 64
2, 717897, Note_off_c, 0, 56, 64
2, 717948, Note_on_c, 0, 56, 26
2, 717956, Note_on_c, 0, 63, 28
2, 717956, Note_on_c, 0, 51, 24
2, 717962, Note_on_c, 0, 60, 28
2, 718010, Note_off_c, 0, 60, 64
2, 718017, Note_off_c, 0, 63, 64
2, 718019, Note_off_c, 0, 51, 64
2, 718027, Note_off_c, 0, 56, 64
2, 718077, Note_off_c, 0, 70, 64
2, 718077, Note_on_c, 0, 56, 25
2, 718080, Note_on_c, 0, 63, 33
2, 718085, Note_on_c, 0, 68, 55
2, 718088, Note_on_c, 0, 60, 30
2, 718092, Note_on_c, 0, 51, 19
2, 718133, Note_off_c, 0, 51, 64
2, 718138, Note_off_c, 0, 60, 64
2, 718140, Note_off_c, 0, 63, 64
2, 718152, Note_off_c, 0, 56, 64
2, 718204, Note_on_c, 0, 60, 37
2, 718204, Note_on_c, 0, 51, 37
2, 718205, Note_on_c, 0, 63, 35
2, 718211, Note_on_c, 0, 56, 21
2, 718260, Note_off_c, 0, 56, 64
2, 718263, Note_off_c, 0, 63, 64
2, 718264, Note_off_c, 0, 51, 64
2, 718264, Note_off_c, 0, 60, 64
2, 718324, Note_on_c, 0, 60, 19
2, 718326, Note_on_c, 0, 63, 24
2, 718332, Note_on_c, 0, 56, 18
2, 718332, Note_on_c, 0, 51, 19
2, 718398, Note_off_c, 0, 63, 64
2, 718404, Note_off_c, 0, 51, 64
2, 718404, Note_off_c, 0, 56, 64
2, 718438, Note_off_c, 0, 60, 64
2, 718476, Control_c, 0, 64, 0
2, 718501, Note_on_c, 0, 32, 90
2, 718540, Control_c, 0, 64, 127
2, 718582, Note_off_c, 0, 68, 64
2, 718704, Note_on_c, 0, 61, 37
2, 718711, Note_on_c, 0, 73, 47
2, 718713, Note_on_c, 0, 68, 27
2, 718718, Note_on_c, 0, 53, 35
2, 718721, Note_on_c, 0, 65, 37
2, 718722, Note_on_c, 0, 56, 37
2, 718765, Note_off_c, 0, 53, 64
2, 718765, Note_off_c, 0, 61, 64
2, 718768, Note_off_c, 0, 56, 64
2, 718780, Note_off_c, 0, 65, 64
2, 718780, Note_off_c, 0, 68, 64
2, 718801, Note_off_c, 0, 73, 64
2, 718844, Note_on_c, 0, 53, 33
2, 718852, Note_on_c, 0, 73, 37
2, 718852, Note_on_c, 0, 68, 35
2, 718852, Note_on_c, 0, 61, 27
2, 718852, Note_on_c, 0, 56, 26
2, 718857, Note_on_c, 0, 79, 60
2, 718857, Note_on_c, 0, 65, 37
2, 718891, Note_off_c, 0, 61, 64
2, 718893, Note_off_c, 0, 56, 64
2, 718894, Note_off_c, 0, 68, 64
2, 718909, Note_off_c, 0, 65, 64
2, 718912, Note_off_c, 0, 73, 64
2, 718916, Note_off_c, 0, 53, 64
2, 718996, Note_on_c, 0, 73, 37
2, 718999, Note_on_c, 0, 82, 59
2, 719006, Note_on_c, 0, 56, 20
2, 719009, Note_on_c, 0, 65, 24
2, 719010, Note_on_c, 0, 68, 24
2, 719010, Note_on_c, 0, 53, 23
2, 719016, Note_on_c, 0, 61, 29
2, 719045, Note_off_c, 0, 68, 64
2, 719053, Note_off_c, 0, 61, 64
2, 719053, Note_off_c, 0, 53, 64
2, 719054, Note_off_c, 0, 56, 64
2, 719056, Note_off_c, 0, 73, 64
2, 719060, Note_off_c, 0, 65, 64
2, 719066, Note_off_c, 0, 79, 64
2, 719074, Note_off_c, 0, 82, 64
2, 719132, Note_on_c, 0, 65, 31
2, 719136, Note_on_c, 0, 56, 27
2, 719139, Note_on_c, 0, 80, 60
2, 719140, Note_on_c, 0, 73, 37
2, 719140, Note_on_c, 0, 61, 34
2, 719146, Note_on_c, 0, 68, 33
2, 719146, Note_on_c, 0, 53, 19
2, 719177, Note_off_c, 0, 53, 64
2, 719181, Note_off_c, 0, 61, 64
2, 719183, Note_off_c, 0, 68, 64
2, 719183, Note_off_c, 0, 56, 64
2, 719189, Note_off_c, 0, 65, 64
2, 719200, Note_off_c, 0, 73, 64
2, 719230, Note_off_c, 0, 80, 64
2, 719252, Note_on_c, 0, 73, 37
2, 719252, Note_on_c, 0, 53, 24
2, 719255, Note_on_c, 0, 65, 35
2, 719255, Note_on_c, 0, 56, 30
2, 719259, Note_on_c, 0, 68, 35
2, 719259, Note_on_c, 0, 61, 35
2, 719265, Note_on_c, 0, 77, 53
2, 719294, Note_off_c, 0, 61, 64
2, 719294, Note_off_c, 0, 56, 64
2, 719297, Note_off_c, 0, 68, 64
2, 719302, Note_off_c, 0, 65, 64
2, 719312, Note_off_c, 0, 73, 64
2, 719324, Note_off_c, 0, 53, 64
2, 719379, Control_c, 0, 64, 0
2, 719384, Note_off_c, 0, 77, 64
2, 719392, Note_on_c, 0, 75, 60
2, 719404, Note_on_c, 0, 67, 24
2, 719404, Note_on_c, 0, 61, 37
2, 719404, Note_on_c, 0, 58, 36
2, 719408, Note_on_c, 0, 63, 37
2, 719410, Note_on_c, 0, 70, 25
2, 719412, Note_on_c, 0, 55, 24
2, 719426, Control_c, 0, 64, 127
2, 719454, Note_off_c, 0, 70, 64
2, 719463, Note_off_c, 0, 63, 64
2, 719464, Note_off_c, 0, 61, 64
2, 719482, Note_off_c, 0, 58, 64
2, 719483, Note_off_c, 0, 67, 64
2, 719485, Note_off_c, 0, 55, 64
2, 719513, Note_off_c, 0, 32, 64
2, 719540, Note_on_c, 0, 70, 28
2, 719540, Note_on_c, 0, 63, 33
2, 719540, Note_on_c, 0, 61, 37
2, 719544, Note_on_c, 0, 67, 27
2, 719547, Note_on_c, 0, 58, 27
2, 719552, Note_on_c, 0, 55, 26
2, 719584, Note_off_c, 0, 70, 64
2, 719587, Note_off_c, 0, 63, 64
2, 719589, Note_off_c, 0, 55, 64
2, 719595, Note_off_c, 0, 58, 64
2, 719596, Note_off_c, 0, 67, 64
2, 719600, Note_off_c, 0, 61, 64
2, 719660, Note_on_c, 0, 61, 37
2, 719660, Note_on_c, 0, 58, 23
2, 719662, Note_on_c, 0, 55, 30
2, 719666, Note_on_c, 0, 70, 24
2, 719668, Note_on_c, 0, 67, 22
2, 719669, Note_on_c, 0, 63, 23
2, 719696, Note_off_c, 0, 75, 64
2, 719699, Note_off_c, 0, 58, 64
2, 719705, Note_off_c, 0, 63, 64
2, 719713, Note_off_c, 0, 70, 64
2, 719717, Note_off_c, 0, 55, 64
2, 719720, Note_off_c, 0, 61, 64
2, 719722, Note_off_c, 0, 67, 64
2, 719794, Note_on_c, 0, 56, 30
2, 719796, Note_on_c, 0, 73, 40
2, 719796, Note_on_c, 0, 68, 37
2, 719796, Note_on_c, 0, 65, 39
2, 719797, Note_on_c, 0, 61, 32
2, 719802, Note_on_c, 0, 77, 59
2, 719844, Note_off_c, 0, 65, 64
2, 719845, Note_off_c, 0, 73, 64
2, 719856, Note_off_c, 0, 68, 64
2, 719857, Note_off_c, 0, 61, 64
2, 719861, Note_off_c, 0, 56, 64
2, 719940, Note_on_c, 0, 73, 37
2, 719941, Note_on_c, 0, 56, 34
2, 719947, Note_on_c, 0, 68, 30
2, 719948, Note_on_c, 0, 65, 33
2, 719953, Note_on_c, 0, 61, 23
2, 719988, Note_off_c, 0, 68, 64
2, 719990, Note_off_c, 0, 61, 64
2, 719994, Note_off_c, 0, 65, 64
2, 720000, Note_off_c, 0, 73, 64
2, 720005, Note_off_c, 0, 56, 64
2, 720068, Note_on_c, 0, 68, 31
2, 720074, Note_on_c, 0, 65, 30
2, 720076, Note_on_c, 0, 73, 20
2, 720076, Note_on_c, 0, 61, 37
2, 720081, Note_on_c, 0, 56, 37
2, 720140, Note_off_c, 0, 68, 64
2, 720146, Note_off_c, 0, 65, 64
2, 720148, Note_off_c, 0, 61, 64
2, 720148, Note_off_c, 0, 73, 64
2, 720153, Note_off_c, 0, 56, 64
2, 720240, Note_on_c, 0, 32, 90
2, 720244, Control_c, 0, 64, 0
2, 720300, Control_c, 0, 64, 127
2, 720415, Note_off_c, 0, 77, 64
2, 720428, Note_on_c, 0, 67, 18
2, 720430, Note_on_c, 0, 70, 47
2, 720436, Note_on_c, 0, 63, 40
2, 720436, Note_on_c, 0, 58, 37
2, 720436, Note_on_c, 0, 55, 37
2, 720489, Note_off_c, 0, 55, 64
2, 720493, Note_off_c, 0, 63, 64
2, 720496, Note_off_c, 0, 58, 64
2, 720504, Note_off_c, 0, 67, 64
2, 720525, Note_off_c, 0, 70, 64
2, 720548, Note_on_c, 0, 70, 37
2, 720556, Note_on_c, 0, 67, 37
2, 720557, Note_on_c, 0, 63, 44
2, 720561, Note_on_c, 0, 75, 56
2, 720561, Note_on_c, 0, 58, 32
2, 720561, Note_on_c, 0, 55, 37
2, 720616, Note_off_c, 0, 67, 64
2, 720618, Note_off_c, 0, 58, 64
2, 720618, Note_off_c, 0, 63, 64
2, 720619, Note_off_c, 0, 55, 64
2, 720620, Note_off_c, 0, 70, 64
2, 720708, Note_on_c, 0, 70, 37
2, 720710, Note_on_c, 0, 79, 64
2, 720716, Note_on_c, 0, 67, 30
2, 720716, Note_on_c, 0, 58, 30
2, 720717, Note_off_c, 0, 75, 64
2, 720722, Note_on_c, 0, 55, 32
2, 720724, Note_on_c, 0, 63, 37
2, 720759, Note_off_c, 0, 58, 64
2, 720762, Note_off_c, 0, 67, 64
2, 720766, Note_off_c, 0, 63, 64
2, 720768, Note_off_c, 0, 70, 64
2, 720772, Note_off_c, 0, 55, 64
2, 720840, Note_off_c, 0, 79, 64
2, 720841, Note_on_c, 0, 77, 65
2, 720848, Note_on_c, 0, 70, 40
2, 720848, Note_on_c, 0, 55, 31
2, 720854, Note_on_c, 0, 67, 31
2, 720854, Note_on_c, 0, 63, 30
2, 720854, Note_on_c, 0, 58, 33
2, 720888, Note_off_c, 0, 63, 64
2, 720890, Note_off_c, 0, 70, 64
2, 720891, Note_off_c, 0, 58, 64
2, 720893, Note_off_c, 0, 55, 64
2, 720898, Note_off_c, 0, 67, 64
2, 720958, Note_off_c, 0, 77, 64
2, 720958, Note_on_c, 0, 73, 60
2, 720962, Note_on_c, 0, 63, 37
2, 720962, Note_on_c, 0, 58, 34
2, 720964, Note_on_c, 0, 55, 37
2, 720968, Note_on_c, 0, 70, 26
2, 720972, Note_on_c, 0, 67, 28
2, 721024, Note_off_c, 0, 55, 64
2, 721034, Note_off_c, 0, 58, 64
2, 721034, Note_off_c, 0, 63, 64
2, 721040, Note_off_c, 0, 70, 64
2, 721044, Note_off_c, 0, 67, 64
2, 721077, Note_off_c, 0, 73, 64
2, 721098, Control_c, 0, 64, 0
2, 721116, Note_on_c, 0, 66, 47
2, 721119, Note_on_c, 0, 72, 60
2, 721124, Note_on_c, 0, 68, 37
2, 721124, Note_on_c, 0, 63, 37
2, 721124, Note_on_c, 0, 60, 37
2, 721128, Note_on_c, 0, 56, 41
2, 721150, Control_c, 0, 64, 127
2, 721180, Note_off_c, 0, 66, 64
2, 721184, Note_off_c, 0, 63, 64
2, 721184, Note_off_c, 0, 68, 64
2, 721192, Note_off_c, 0, 56, 64
2, 721194, Note_off_c, 0, 60, 64
2, 721253, Note_off_c, 0, 32, 64
2, 721268, Note_on_c, 0, 66, 36
2, 721271, Note_on_c, 0, 63, 37
2, 721271, Note_on_c, 0, 60, 34
2, 721272, Note_on_c, 0, 68, 37
2, 721280, Note_on_c, 0, 56, 30
2, 721300, Note_off_c, 0, 68, 64
2, 721308, Note_off_c, 0, 56, 64
2, 721314, Note_off_c, 0, 63, 64
2, 721321, Note_off_c, 0, 66, 64
2, 721323, Note_off_c, 0, 60, 64
2, 721387, Note_on_c, 0, 66, 35
2, 721391, Note_on_c, 0, 68, 41
2, 721391, Note_on_c, 0, 60, 32
2, 721396, Note_on_c, 0, 63, 34
2, 721399, Note_on_c, 0, 56, 27
2, 721437, Note_off_c, 0, 56, 64
2, 721440, Note_off_c, 0, 63, 64
2, 721442, Note_off_c, 0, 68, 64
2, 721445, Note_off_c, 0, 60, 64
2, 721456, Note_off_c, 0, 66, 64
2, 721475, Control_c, 0, 64, 0
2, 721504, Note_on_c, 0, 61, 44
2, 721511, Note_on_c, 0, 68, 38
2, 721514, Note_on_c, 0, 73, 62
2, 721514, Note_on_c, 0, 65, 38
2, 721514, Note_on_c, 0, 56, 37
2, 721516, Note_on_c, 0, 53, 37
2, 721529, Note_off_c, 0, 72, 64
2, 721540, Control_c, 0, 64, 127
2, 721571, Note_off_c, 0, 56, 64
2, 721576, Note_off_c, 0, 53, 64
2, 721580, Note_off_c, 0, 68, 64
2, 721584, Note_off_c, 0, 61, 64
2, 721586, Note_off_c, 0, 65, 64
2, 721631, Note_on_c, 0, 65, 23
2, 721636, Note_on_c, 0, 68, 34
2, 721636, Note_on_c, 0, 56, 23
2, 721636, Note_on_c, 0, 53, 37
2, 721641, Note_on_c, 0, 61, 36
2, 721679, Note_off_c, 0, 68, 64
2, 721681, Note_off_c, 0, 56, 64
2, 721696, Note_off_c, 0, 53, 64
2, 721700, Note_off_c, 0, 61, 64
2, 721706, Note_off_c, 0, 65, 64
2, 721756, Note_on_c, 0, 53, 37
2, 721764, Note_on_c, 0, 65, 37
2, 721764, Note_on_c, 0, 61, 36
2, 721764, Note_on_c, 0, 56, 37
2, 721768, Note_on_c, 0, 68, 37
2, 721813, Note_off_c, 0, 61, 64
2, 721816, Note_off_c, 0, 53, 64
2, 721824, Note_off_c, 0, 56, 64
2, 721824, Note_off_c, 0, 65, 64
2, 721840, Note_off_c, 0, 68, 64
2, 721930, Control_c, 0, 64, 0
2, 721943, Note_on_c, 0, 32, 90
2, 721998, Control_c, 0, 64, 127
2, 722053, Note_off_c, 0, 73, 64
2, 722092, Note_on_c, 0, 63, 23
2, 722092, Note_on_c, 0, 61, 56
2, 722100, Note_on_c, 0, 56, 34
2, 722100, Note_on_c, 0, 51, 39
2, 722137, Note_off_c, 0, 51, 64
2, 722146, Note_off_c, 0, 56, 64
2, 722151, Note_off_c, 0, 63, 64
2, 722193, Note_off_c, 0, 61, 64
2, 722228, Note_on_c, 0, 51, 28
2, 722232, Note_on_c, 0, 61, 39
2, 722236, Note_on_c, 0, 70, 58
2, 722236, Note_on_c, 0, 63, 37
2, 722236, Note_on_c, 0, 56, 34
2, 722277, Note_off_c, 0, 56, 64
2, 722289, Note_off_c, 0, 51, 64
2, 722296, Note_off_c, 0, 63, 64
2, 722307, Note_off_c, 0, 61, 64
2, 722346, Note_off_c, 0, 70, 64
2, 722372, Note_on_c, 0, 73, 56
2, 722372, Note_on_c, 0, 63, 27
2, 722376, Note_on_c, 0, 68, 21
2, 722380, Note_on_c, 0, 61, 23
2, 722380, Note_on_c, 0, 56, 26
2, 722384, Note_on_c, 0, 51, 26
2, 722431, Note_off_c, 0, 63, 64
2, 722432, Note_off_c, 0, 68, 64
2, 722434, Note_off_c, 0, 51, 64
2, 722440, Note_off_c, 0, 61, 64
2, 722442, Note_off_c, 0, 56, 64
2, 722508, Note_on_c, 0, 61, 37
2, 722509, Note_off_c, 0, 73, 64
2, 722512, Note_on_c, 0, 63, 30
2, 722512, Note_on_c, 0, 56, 27
2, 722517, Note_on_c, 0, 51, 27
2, 722520, Note_on_c, 0, 72, 54
2, 722520, Note_on_c, 0, 68, 37
2, 722564, Note_off_c, 0, 56, 64
2, 722565, Note_off_c, 0, 51, 64
2, 722568, Note_off_c, 0, 61, 64
2, 722569, Note_off_c, 0, 63, 64
2, 722580, Note_off_c, 0, 68, 64
2, 722649, Note_on_c, 0, 68, 49
2, 722652, Note_on_c, 0, 65, 37
2, 722652, Note_on_c, 0, 56, 24
2, 722654, Note_on_c, 0, 60, 35
2, 722659, Note_on_c, 0, 63, 31
2, 722659, Note_on_c, 0, 51, 36
2, 722674, Note_off_c, 0, 72, 64
2, 722704, Note_off_c, 0, 51, 64
2, 722712, Note_off_c, 0, 65, 64
2, 722715, Note_off_c, 0, 60, 64
2, 722724, Note_off_c, 0, 56, 64
2, 722731, Note_off_c, 0, 63, 64
2, 722780, Note_off_c, 0, 68, 64
2, 722805, Control_c, 0, 64, 0
2, 722827, Note_on_c, 0, 70, 60
2, 722834, Note_on_c, 0, 63, 39
2, 722836, Note_on_c, 0, 67, 37
2, 722836, Note_on_c, 0, 58, 37
2, 722840, Note_on_c, 0, 51, 37
2, 722872, Control_c, 0, 64, 127
2, 722896, Note_off_c, 0, 58, 64
2, 722896, Note_off_c, 0, 67, 64
2, 722928, Note_off_c, 0, 51, 64
2, 722928, Note_off_c, 0, 63, 64
2, 722954, Note_off_c, 0, 32, 64
2, 722981, Note_on_c, 0, 67, 32
2, 722988, Note_on_c, 0, 63, 26
2, 722988, Note_on_c, 0, 58, 33
2, 722988, Note_on_c, 0, 51, 37
2, 723022, Note_off_c, 0, 67, 64
2, 723026, Note_off_c, 0, 63, 64
2, 723031, Note_off_c, 0, 58, 64
2, 723038, Note_off_c, 0, 51, 64
2, 723105, Note_on_c, 0, 58, 34
2, 723106, Note_on_c, 0, 51, 35
2, 723109, Note_on_c, 0, 63, 30
2, 723114, Note_on_c, 0, 67, 27
2, 723147, Note_off_c, 0, 67, 64
2, 723158, Note_off_c, 0, 58, 64
2, 723160, Note_off_c, 0, 63, 64
2, 723163, Note_off_c, 0, 51, 64
2, 723234, Note_on_c, 0, 63, 28
2, 723235, Note_on_c, 0, 51, 33
2, 723239, Note_on_c, 0, 58, 34
2, 723244, Note_on_c, 0, 67, 24
2, 723273, Note_off_c, 0, 67, 64
2, 723284, Note_off_c, 0, 63, 64
2, 723288, Note_off_c, 0, 58, 64
2, 723289, Note_off_c, 0, 51, 64
2, 723363, Note_on_c, 0, 51, 38
2, 723366, Note_on_c, 0, 63, 30
2, 723371, Note_on_c, 0, 58, 34
2, 723373, Note_on_c, 0, 67, 32
2, 723408, Note_off_c, 0, 67, 64
2, 723415, Note_off_c, 0, 58, 64
2, 723416, Note_off_c, 0, 63, 64
2, 723419, Note_off_c, 0, 51, 64
2, 723492, Note_on_c, 0, 58, 30
2, 723498, Note_on_c, 0, 51, 30
2, 723500, Note_on_c, 0, 67, 37
2, 723500, Note_on_c, 0, 63, 37
2, 723540, Note_off_c, 0, 51, 64
2, 723545, Note_off_c, 0, 58, 64
2, 723560, Note_off_c, 0, 63, 64
2, 723560, Note_off_c, 0, 67, 64
2, 723673, Control_c, 0, 64, 0
2, 723689, Note_on_c, 0, 32, 90
2, 723735, Control_c, 0, 64, 127
2, 723741, Note_off_c, 0, 70, 64
2, 723876, Note_on_c, 0, 70, 58
2, 723876, Note_on_c, 0, 67, 35
2, 723876, Note_on_c, 0, 51, 20
2, 723884, Note_on_c, 0, 63, 35
2, 723884, Note_on_c, 0, 61, 22
2, 723934, Note_off_c, 0, 51, 64
2, 723936, Note_off_c, 0, 67, 64
2, 723956, Note_off_c, 0, 61, 64
2, 723956, Note_off_c, 0, 63, 64
2, 724014, Note_on_c, 0, 72, 64
2, 724020, Note_on_c, 0, 63, 35
2, 724020, Note_on_c, 0, 61, 33
2, 724020, Note_on_c, 0, 51, 34
2, 724028, Note_on_c, 0, 67, 35
2, 724035, Note_off_c, 0, 70, 64
2, 724079, Note_off_c, 0, 51, 64
2, 724088, Note_off_c, 0, 67, 64
2, 724092, Note_off_c, 0, 61, 64
2, 724094, Note_off_c, 0, 63, 64
2, 724126, Note_off_c, 0, 72, 64
2, 724134, Note_on_c, 0, 51, 36
2, 724140, Note_on_c, 0, 73, 65
2, 724140, Note_on_c, 0, 67, 35
2, 724140, Note_on_c, 0, 63, 29
2, 724142, Note_on_c, 0, 61, 38
2, 724187, Note_off_c, 0, 51, 64
2, 724200, Note_off_c, 0, 67, 64
2, 724212, Note_off_c, 0, 63, 64
2, 724214, Note_off_c, 0, 61, 64
2, 724258, Note_on_c, 0, 51, 34
2, 724260, Note_on_c, 0, 63, 35
2, 724263, Note_on_c, 0, 61, 30
2, 724267, Note_off_c, 0, 73, 64
2, 724272, Note_on_c, 0, 65, 58
2, 724317, Note_off_c, 0, 51, 64
2, 724322, Note_off_c, 0, 61, 64
2, 724332, Note_off_c, 0, 63, 64
2, 724364, Note_on_c, 0, 63, 35
2, 724364, Note_on_c, 0, 61, 17
2, 724367, Note_off_c, 0, 65, 64
2, 724377, Note_on_c, 0, 51, 24
2, 724380, Note_on_c, 0, 67, 63
2, 724429, Note_off_c, 0, 51, 64
2, 724436, Note_off_c, 0, 61, 64
2, 724436, Note_off_c, 0, 63, 64
2, 724453, Control_c, 0, 64, 0
2, 724499, Note_off_c, 0, 67, 64
2, 724499, Note_on_c, 0, 70, 63
2, 724513, Note_on_c, 0, 51, 33
2, 724514, Note_on_c, 0, 63, 35
2, 724516, Note_on_c, 0, 61, 34
2, 724516, Note_on_c, 0, 56, 31
2, 724518, Note_on_c, 0, 66, 38
2, 724529, Control_c, 0, 64, 127
2, 724573, Note_off_c, 0, 51, 64
2, 724579, Note_off_c, 0, 56, 64
2, 724586, Note_off_c, 0, 63, 64
2, 724588, Note_off_c, 0, 61, 64
2, 724590, Note_off_c, 0, 66, 64
2, 724612, Note_on_c, 0, 61, 35
2, 724621, Note_on_c, 0, 51, 23
2, 724625, Note_on_c, 0, 66, 17
2, 724628, Note_on_c, 0, 63, 35
2, 724634, Note_on_c, 0, 56, 27
2, 724672, Note_off_c, 0, 61, 64
2, 724685, Note_off_c, 0, 56, 64
2, 724687, Note_off_c, 0, 51, 64
2, 724690, Note_off_c, 0, 63, 64
2, 724693, Note_off_c, 0, 66, 64
2, 724707, Note_off_c, 0, 32, 64
2, 724746, Note_on_c, 0, 61, 31
2, 724749, Note_on_c, 0, 51, 29
2, 724750, Note_on_c, 0, 66, 22
2, 724750, Note_on_c, 0, 63, 34
2, 724756, Note_on_c, 0, 56, 30
2, 724808, Note_off_c, 0, 66, 64
2, 724808, Note_off_c, 0, 51, 64
2, 724812, Note_off_c, 0, 56, 64
2, 724812, Note_off_c, 0, 63, 64
2, 724812, Note_off_c, 0, 61, 64
2, 724869, Note_on_c, 0, 68, 60
2, 724872, Note_on_c, 0, 66, 34
2, 724877, Note_on_c, 0, 63, 32
2, 724877, Note_on_c, 0, 60, 38
2, 724883, Note_on_c, 0, 51, 28
2, 724884, Note_off_c, 0, 70, 64
2, 724887, Note_on_c, 0, 56, 33
2, 724935, Note_off_c, 0, 60, 64
2, 724937, Note_off_c, 0, 63, 64
2, 724937, Note_off_c, 0, 66, 64
2, 724940, Note_off_c, 0, 56, 64
2, 724944, Note_off_c, 0, 51, 64
2, 725019, Note_on_c, 0, 51, 18
2, 725020, Note_on_c, 0, 63, 19
2, 725024, Note_on_c, 0, 60, 22
2, 725029, Note_on_c, 0, 66, 15
2, 725034, Note_on_c, 0, 56, 15
2, 725091, Note_off_c, 0, 51, 64
2, 725092, Note_off_c, 0, 63, 64
2, 725096, Note_off_c, 0, 60, 64
2, 725101, Note_off_c, 0, 66, 64
2, 725106, Note_off_c, 0, 56, 64
2, 725117, Note_on_c, 0, 51, 18
2, 725124, Note_on_c, 0, 60, 17
2, 725124, Note_on_c, 0, 56, 35
2, 725126, Note_on_c, 0, 63, 17
2, 725133, Note_on_c, 0, 66, 21
2, 725181, Note_off_c, 0, 51, 64
2, 725184, Note_off_c, 0, 56, 64
2, 725196, Note_off_c, 0, 66, 64
2, 725196, Note_off_c, 0, 60, 64
2, 725198, Note_off_c, 0, 63, 64
2, 725266, Control_c, 0, 64, 0
2, 725298, Note_on_c, 0, 32, 90
2, 725331, Control_c, 0, 64, 127
2, 725371, Note_off_c, 0, 68, 64
2, 725508, Note_on_c, 0, 61, 25
2, 725508, Note_on_c, 0, 56, 30
2, 725513, Note_on_c, 0, 68, 36
2, 725516, Note_on_c, 0, 73, 62
2, 725521, Note_on_c, 0, 65, 35
2, 725521, Note_on_c, 0, 53, 38
2, 725554, Note_off_c, 0, 56, 64
2, 725563, Note_off_c, 0, 53, 64
2, 725571, Note_off_c, 0, 65, 64
2, 725572, Note_off_c, 0, 61, 64
2, 725588, Note_off_c, 0, 68, 64
2, 725618, Note_off_c, 0, 73, 64
2, 725649, Note_on_c, 0, 79, 61
2, 725652, Note_on_c, 0, 73, 30
2, 725652, Note_on_c, 0, 68, 32
2, 725652, Note_on_c, 0, 56, 29
2, 725657, Note_on_c, 0, 65, 33
2, 725657, Note_on_c, 0, 61, 33
2, 725663, Note_on_c, 0, 53, 30
2, 725700, Note_off_c, 0, 61, 64
2, 725701, Note_off_c, 0, 73, 64
2, 725702, Note_off_c, 0, 53, 64
2, 725707, Note_off_c, 0, 65, 64
2, 725709, Note_off_c, 0, 56, 64
2, 725711, Note_off_c, 0, 68, 64
2, 725784, Note_on_c, 0, 82, 61
2, 725790, Note_on_c, 0, 68, 36
2, 725794, Note_on_c, 0, 56, 22
2, 725799, Note_on_c, 0, 73, 40
2, 725802, Note_on_c, 0, 53, 22
2, 725803, Note_on_c, 0, 65, 25
2, 725803, Note_on_c, 0, 61, 33
2, 725814, Note_off_c, 0, 79, 64
2, 725825, Note_off_c, 0, 68, 64
2, 725828, Note_off_c, 0, 73, 64
2, 725837, Note_off_c, 0, 61, 64
2, 725839, Note_off_c, 0, 53, 64
2, 725845, Note_off_c, 0, 65, 64
2, 725845, Note_off_c, 0, 56, 64
2, 725877, Note_off_c, 0, 82, 64
2, 725919, Note_on_c, 0, 80, 72
2, 725923, Note_on_c, 0, 56, 27
2, 725924, Note_on_c, 0, 73, 35
2, 725924, Note_on_c, 0, 65, 28
2, 725924, Note_on_c, 0, 61, 29
2, 725930, Note_on_c, 0, 53, 27
2, 725932, Note_on_c, 0, 68, 36
2, 725965, Note_off_c, 0, 68, 64
2, 725966, Note_off_c, 0, 61, 64
2, 725971, Note_off_c, 0, 53, 64
2, 725974, Note_off_c, 0, 65, 64
2, 725974, Note_off_c, 0, 56, 64
2, 725984, Note_off_c, 0, 73, 64
2, 726032, Note_off_c, 0, 80, 64
2, 726036, Note_on_c, 0, 61, 33
2, 726041, Note_on_c, 0, 68, 40
2, 726045, Note_on_c, 0, 77, 58
2, 726045, Note_on_c, 0, 56, 25
2, 726045, Note_on_c, 0, 53, 24
2, 726051, Note_on_c, 0, 65, 25
2, 726066, Note_off_c, 0, 53, 64
2, 726078, Note_off_c, 0, 68, 64
2, 726079, Note_off_c, 0, 56, 64
2, 726079, Note_off_c, 0, 61, 64
2, 726086, Note_off_c, 0, 65, 64
2, 726165, Control_c, 0, 64, 0
2, 726172, Note_on_c, 0, 70, 35
2, 726174, Note_off_c, 0, 77, 64
2, 726176, Note_on_c, 0, 75, 65
2, 726179, Note_on_c, 0, 63, 40
2, 726182, Note_on_c, 0, 67, 31
2, 726187, Note_on_c, 0, 58, 33
2, 726187, Note_on_c, 0, 55, 35
2, 726202, Control_c, 0, 64, 127
2, 726232, Note_off_c, 0, 70, 64
2, 726247, Note_off_c, 0, 55, 64
2, 726251, Note_off_c, 0, 63, 64
2, 726253, Note_off_c, 0, 58, 64
2, 726253, Note_off_c, 0, 67, 64
2, 726306, Note_on_c, 0, 63, 28
2, 726308, Note_on_c, 0, 70, 24
2, 726308, Note_on_c, 0, 67, 22
2, 726308, Note_on_c, 0, 55, 28
2, 726312, Note_off_c, 0, 32, 64
2, 726313, Note_on_c, 0, 58, 30
2, 726351, Note_off_c, 0, 63, 64
2, 726353, Note_off_c, 0, 67, 64
2, 726359, Note_off_c, 0, 55, 64
2, 726369, Note_off_c, 0, 58, 64
2, 726380, Note_off_c, 0, 70, 64
2, 726433, Note_on_c, 0, 55, 29
2, 726436, Note_on_c, 0, 70, 18
2, 726436, Note_on_c, 0, 63, 22
2, 726439, Note_on_c, 0, 67, 22
2, 726439, Note_on_c, 0, 58, 20
2, 726457, Note_off_c, 0, 75, 64
2, 726497, Note_off_c, 0, 55, 64
2, 726508, Note_off_c, 0, 63, 64
2, 726508, Note_off_c, 0, 70, 64
2, 726511, Note_off_c, 0, 58, 64
2, 726511, Note_off_c, 0, 67, 64
2, 726540, Note_on_c, 0, 68, 35
2, 726548, Note_on_c, 0, 73, 35
2, 726548, Note_on_c, 0, 65, 31
2, 726548, Note_on_c, 0, 61, 34
2, 726550, Note_on_c, 0, 56, 30
2, 726556, Note_on_c, 0, 77, 61
2, 726600, Note_off_c, 0, 68, 64
2, 726608, Note_off_c, 0, 61, 64
2, 726608, Note_off_c, 0, 73, 64
2, 726615, Note_off_c, 0, 56, 64
2, 726620, Note_off_c, 0, 65, 64
2, 726692, Note_on_c, 0, 73, 35
2, 726692, Note_on_c, 0, 68, 35
2, 726692, Note_on_c, 0, 65, 35
2, 726692, Note_on_c, 0, 61, 31
2, 726698, Note_on_c, 0, 56, 24
2, 726742, Note_off_c, 0, 61, 64
2, 726752, Note_off_c, 0, 65, 64
2, 726752, Note_off_c, 0, 68, 64
2, 726752, Note_off_c, 0, 73, 64
2, 726759, Note_off_c, 0, 56, 64
2, 726820, Note_on_c, 0, 56, 32
2, 726821, Note_on_c, 0, 65, 31
2, 726824, Note_on_c, 0, 68, 33
2, 726828, Note_on_c, 0, 61, 35
2, 726831, Note_on_c, 0, 73, 22
2, 726867, Note_off_c, 0, 65, 64
2, 726873, Note_off_c, 0, 73, 64
2, 726875, Note_off_c, 0, 68, 64
2, 726888, Note_off_c, 0, 61, 64
2, 726892, Note_off_c, 0, 56, 64
2, 726977, Control_c, 0, 64, 0
2, 726996, Note_on_c, 0, 32, 90
2, 727043, Control_c, 0, 64, 127
2, 727169, Note_on_c, 0, 63, 33
2, 727169, Note_on_c, 0, 55, 33
2, 727170, Note_on_c, 0, 70, 48
2, 727172, Note_on_c, 0, 67, 30
2, 727172, Note_on_c, 0, 58, 35
2, 727178, Note_off_c, 0, 77, 64
2, 727230, Note_off_c, 0, 55, 64
2, 727232, Note_off_c, 0, 58, 64
2, 727236, Note_off_c, 0, 63, 64
2, 727244, Note_off_c, 0, 67, 64
2, 727262, Note_off_c, 0, 70, 64
2, 727298, Note_on_c, 0, 75, 60
2, 727298, Note_on_c, 0, 70, 36
2, 727304, Note_on_c, 0, 63, 38
2, 727308, Note_on_c, 0, 67, 35
2, 727308, Note_on_c, 0, 58, 32
2, 727308, Note_on_c, 0, 55, 33
2, 727355, Note_off_c, 0, 55, 64
2, 727357, Note_off_c, 0, 58, 64
2, 727359, Note_off_c, 0, 63, 64
2, 727359, Note_off_c, 0, 70, 64
2, 727368, Note_off_c, 0, 67, 64
2, 727422, Note_off_c, 0, 75, 64
2, 727428, Note_on_c, 0, 79, 65
2, 727436, Note_on_c, 0, 58, 30
2, 727440, Note_on_c, 0, 70, 39
2, 727447, Note_on_c, 0, 63, 35
2, 727447, Note_on_c, 0, 55, 28
2, 727448, Note_on_c, 0, 67, 32
2, 727469, Note_off_c, 0, 58, 64
2, 727479, Note_off_c, 0, 70, 64
2, 727486, Note_off_c, 0, 55, 64
2, 727488, Note_off_c, 0, 63, 64
2, 727492, Note_off_c, 0, 67, 64
2, 727540, Note_on_c, 0, 70, 35
2, 727550, Note_on_c, 0, 77, 67
2, 727554, Note_on_c, 0, 67, 34
2, 727555, Note_on_c, 0, 63, 35
2, 727561, Note_on_c, 0, 58, 33
2, 727561, Note_on_c, 0, 55, 33
2, 727565, Note_off_c, 0, 79, 64
2, 727599, Note_off_c, 0, 63, 64
2, 727600, Note_off_c, 0, 58, 64
2, 727600, Note_off_c, 0, 70, 64
2, 727602, Note_off_c, 0, 55, 64
2, 727607, Note_off_c, 0, 67, 64
2, 727668, Note_on_c, 0, 73, 62
2, 727668, Note_on_c, 0, 67, 25
2, 727669, Note_on_c, 0, 70, 32
2, 727669, Note_on_c, 0, 58, 32
2, 727676, Note_on_c, 0, 63, 36
2, 727676, Note_on_c, 0, 55, 28
2, 727682, Note_off_c, 0, 77, 64
2, 727740, Note_off_c, 0, 67, 64
2, 727741, Note_off_c, 0, 58, 64
2, 727741, Note_off_c, 0, 70, 64
2, 727748, Note_off_c, 0, 55, 64
2, 727748, Note_off_c, 0, 63, 64
2, 727772, Note_off_c, 0, 73, 64
2, 727817, Control_c, 0, 64, 0
2, 727822, Note_on_c, 0, 72, 66
2, 727832, Note_on_c, 0, 60, 40
2, 727832, Note_on_c, 0, 56, 40
2, 727836, Note_on_c, 0, 68, 35
2, 727836, Note_on_c, 0, 63, 35
2, 727842, Note_on_c, 0, 66, 44
2, 727869, Control_c, 0, 64, 127
2, 727894, Note_off_c, 0, 56, 64
2, 727896, Note_off_c, 0, 63, 64
2, 727896, Note_off_c, 0, 68, 64
2, 727897, Note_off_c, 0, 66, 64
2, 727900, Note_off_c, 0, 60, 64
2, 727956, Note_on_c, 0, 60, 33
2, 727956, Note_on_c, 0, 56, 24
2, 727957, Note_on_c, 0, 68, 32
2, 727961, Note_on_c, 0, 66, 25
2, 727964, Note_on_c, 0, 63, 38
2, 728001, Note_off_c, 0, 32, 64
2, 728023, Note_off_c, 0, 66, 64
2, 728028, Note_off_c, 0, 56, 64
2, 728028, Note_off_c, 0, 60, 64
2, 728029, Note_off_c, 0, 68, 64
2, 728036, Note_off_c, 0, 63, 64
2, 728084, Note_on_c, 0, 60, 20
2, 728085, Note_on_c, 0, 68, 35
2, 728092, Note_on_c, 0, 66, 35
2, 728092, Note_on_c, 0, 63, 30
2, 728092, Note_on_c, 0, 56, 35
2, 728138, Note_off_c, 0, 63, 64
2, 728150, Note_off_c, 0, 68, 64
2, 728152, Note_off_c, 0, 56, 64
2, 728152, Note_off_c, 0, 66, 64
2, 728156, Note_off_c, 0, 60, 64
2, 728242, Note_off_c, 0, 72, 64
2, 728244, Note_on_c, 0, 56, 22
2, 728248, Note_on_c, 0, 73, 61
2, 728252, Note_on_c, 0, 65, 37
2, 728257, Note_on_c, 0, 68, 41
2, 728257, Note_on_c, 0, 53, 34
2, 728266, Note_on_c, 0, 61, 44
2, 728317, Note_off_c, 0, 56, 64
2, 728320, Note_off_c, 0, 53, 64
2, 728336, Note_off_c, 0, 65, 64
2, 728338, Note_off_c, 0, 61, 64
2, 728341, Note_off_c, 0, 68, 64
2, 728401, Note_on_c, 0, 56, 23
2, 728408, Note_on_c, 0, 61, 24
2, 728412, Note_on_c, 0, 68, 28
2, 728416, Note_on_c, 0, 53, 23
2, 728419, Note_on_c, 0, 65, 20
2, 728455, Note_off_c, 0, 61, 64
2, 728457, Note_off_c, 0, 68, 64
2, 728464, Note_off_c, 0, 65, 64
2, 728471, Note_off_c, 0, 53, 64
2, 728476, Note_off_c, 0, 56, 64
2, 728540, Note_on_c, 0, 61, 33
2, 728546, Note_on_c, 0, 68, 28
2, 728548, Note_on_c, 0, 53, 21
2, 728552, Note_on_c, 0, 65, 21
2, 728552, Note_on_c, 0, 56, 29
2, 728608, Note_off_c, 0, 61, 64
2, 728618, Note_off_c, 0, 68, 64
2, 728620, Note_off_c, 0, 53, 64
2, 728624, Note_off_c, 0, 56, 64
2, 728624, Note_off_c, 0, 65, 64
2, 728710, Control_c, 0, 64, 0
2, 728724, Note_on_c, 0, 32, 90
2, 728773, Control_c, 0, 64, 127
2, 728880, Note_on_c, 0, 52, 40
2, 728884, Note_on_c, 0, 61, 58
2, 728887, Note_on_c, 0, 56, 30
2, 728893, Note_on_c, 0, 64, 37
2, 728933, Note_off_c, 0, 52, 64
2, 728938, Note_off_c, 0, 64, 64
2, 728945, Note_off_c, 0, 56, 64
2, 729013, Note_off_c, 0, 61, 64
2, 729023, Note_on_c, 0, 56, 41
2, 729024, Note_on_c, 0, 68, 56
2, 729029, Note_off_c, 0, 73, 64
2, 729034, Note_on_c, 0, 64, 28
2, 729037, Note_on_c, 0, 61, 22
2, 729038, Note_on_c, 0, 52, 23
2, 729100, Note_off_c, 0, 64, 64
2, 729105, Note_off_c, 0, 52, 64
2, 729105, Note_off_c, 0, 56, 64
2, 729110, Note_off_c, 0, 61, 64
2, 729197, Note_on_c, 0, 72, 62
2, 729203, Note_on_c, 0, 61, 38
2, 729209, Note_on_c, 0, 56, 25
2, 729212, Note_off_c, 0, 68, 64
2, 729218, Note_on_c, 0, 64, 23
2, 729221, Note_on_c, 0, 52, 23
2, 729273, Note_off_c, 0, 52, 64
2, 729273, Note_off_c, 0, 64, 64
2, 729279, Note_off_c, 0, 61, 64
2, 729280, Note_off_c, 0, 56, 64
2, 729346, Note_on_c, 0, 70, 65
2, 729353, Note_off_c, 0, 72, 64
2, 729354, Note_on_c, 0, 56, 30
2, 729362, Note_on_c, 0, 61, 27
2, 729362, Note_on_c, 0, 52, 22
2, 729370, Note_on_c, 0, 64, 17
2, 729416, Note_off_c, 0, 52, 64
2, 729420, Note_off_c, 0, 56, 64
2, 729434, Note_off_c, 0, 61, 64
2, 729442, Note_off_c, 0, 64, 64
2, 729475, Note_off_c, 0, 70, 64
2, 729476, Note_on_c, 0, 56, 33
2, 729482, Note_on_c, 0, 52, 28
2, 729488, Note_on_c, 0, 68, 56
2, 729492, Note_on_c, 0, 64, 27
2, 729499, Note_on_c, 0, 61, 22
2, 729534, Note_off_c, 0, 52, 64
2, 729542, Note_off_c, 0, 56, 64
2, 729564, Note_off_c, 0, 64, 64
2, 729640, Note_off_c, 0, 61, 64
2, 729685, Control_c, 0, 64, 0
2, 729695, Note_off_c, 0, 68, 64
2, 729695, Note_on_c, 0, 72, 65
2, 729702, Note_on_c, 0, 60, 34
2, 729702, Note_on_c, 0, 56, 33
2, 729706, Note_on_c, 0, 51, 30
2, 729707, Note_on_c, 0, 63, 39
2, 729745, Note_off_c, 0, 32, 64
2, 729748, Control_c, 0, 64, 127
2, 729774, Note_off_c, 0, 60, 64
2, 729784, Note_off_c, 0, 63, 64
2, 729786, Note_off_c, 0, 56, 64
2, 729789, Note_off_c, 0, 51, 64
2, 729853, Note_on_c, 0, 60, 29
2, 729856, Note_on_c, 0, 51, 27
2, 729861, Note_on_c, 0, 63, 30
2, 729868, Note_on_c, 0, 56, 25
2, 729906, Note_off_c, 0, 60, 64
2, 729916, Note_off_c, 0, 56, 64
2, 729916, Note_off_c, 0, 63, 64
2, 729923, Note_off_c, 0, 51, 64
2, 729989, Note_on_c, 0, 51, 29
2, 729991, Note_on_c, 0, 60, 32
2, 729994, Note_on_c, 0, 63, 33
2, 730002, Note_on_c, 0, 56, 24
2, 730036, Note_off_c, 0, 60, 64
2, 730044, Note_off_c, 0, 56, 64
2, 730044, Note_off_c, 0, 63, 64
2, 730044, Note_off_c, 0, 51, 64
2, 730114, Note_on_c, 0, 63, 32
2, 730124, Note_on_c, 0, 56, 15
2, 730125, Note_on_c, 0, 51, 22
2, 730128, Note_on_c, 0, 60, 23
2, 730178, Note_off_c, 0, 63, 64
2, 730196, Note_off_c, 0, 56, 64
2, 730197, Note_off_c, 0, 51, 64
2, 730200, Note_off_c, 0, 60, 64
2, 730248, Note_on_c, 0, 63, 28
2, 730252, Note_on_c, 0, 56, 35
2, 730254, Note_on_c, 0, 60, 28
2, 730254, Note_on_c, 0, 51, 25
2, 730306, Note_off_c, 0, 60, 64
2, 730308, Note_off_c, 0, 51, 64
2, 730312, Note_off_c, 0, 56, 64
2, 730314, Note_off_c, 0, 63, 64
2, 730386, Note_on_c, 0, 60, 20
2, 730388, Note_on_c, 0, 63, 35
2, 730388, Note_on_c, 0, 56, 35
2, 730388, Note_on_c, 0, 51, 35
2, 730448, Note_off_c, 0, 51, 64
2, 730448, Note_off_c, 0, 56, 64
2, 730448, Note_off_c, 0, 63, 64
2, 730466, Note_off_c, 0, 60, 64
2, 730552, Control_c, 0, 64, 0
2, 730572, Note_on_c, 0, 61, 39
2, 730582, Note_on_c, 0, 32, 90
2, 730618, Control_c, 0, 64, 127
2, 730633, Note_off_c, 0, 61, 64
2, 730790, Note_on_c, 0, 56, 32
2, 730797, Note_on_c, 0, 61, 62
2, 730800, Note_on_c, 0, 52, 28
2, 730807, Note_on_c, 0, 64, 23
2, 730858, Note_off_c, 0, 61, 64
2, 730860, Note_off_c, 0, 64, 64
2, 730860, Note_off_c, 0, 52, 64
2, 730864, Note_off_c, 0, 56, 64
2, 730944, Note_on_c, 0, 64, 31
2, 730944, Note_on_c, 0, 56, 34
2, 730952, Note_on_c, 0, 68, 53
2, 730952, Note_on_c, 0, 61, 28
2, 730952, Note_on_c, 0, 52, 36
2, 730961, Note_off_c, 0, 72, 64
2, 730994, Note_off_c, 0, 61, 64
2, 731006, Note_off_c, 0, 52, 64
2, 731011, Note_off_c, 0, 64, 64
2, 731013, Note_off_c, 0, 56, 64
2, 731108, Note_on_c, 0, 64, 25
2, 731115, Note_on_c, 0, 56, 23
2, 731116, Note_on_c, 0, 61, 23
2, 731116, Note_on_c, 0, 52, 17
2, 731123, Note_on_c, 0, 72, 60
2, 731132, Note_off_c, 0, 68, 64
2, 731154, Note_off_c, 0, 64, 64
2, 731174, Note_off_c, 0, 61, 64
2, 731178, Note_off_c, 0, 56, 64
2, 731188, Note_off_c, 0, 52, 64
2, 731244, Note_on_c, 0, 56, 27
2, 731246, Note_on_c, 0, 70, 60
2, 731254, Note_on_c, 0, 64, 23
2, 731254, Note_on_c, 0, 52, 22
2, 731255, Note_on_c, 0, 61, 28
2, 731261, Note_off_c, 0, 72, 64
2, 731308, Note_off_c, 0, 61, 64
2, 731316, Note_off_c, 0, 56, 64
2, 731326, Note_off_c, 0, 52, 64
2, 731326, Note_off_c, 0, 64, 64
2, 731364, Note_on_c, 0, 68, 56
2, 731364, Note_on_c, 0, 61, 27
2, 731366, Note_on_c, 0, 52, 28
2, 731369, Note_on_c, 0, 64, 28
2, 731369, Note_on_c, 0, 56, 35
2, 731374, Note_off_c, 0, 70, 64
2, 731426, Note_off_c, 0, 56, 64
2, 731436, Note_off_c, 0, 61, 64
2, 731438, Note_off_c, 0, 52, 64
2, 731441, Note_off_c, 0, 64, 64
2, 731495, Control_c, 0, 64, 0
2, 731501, Note_on_c, 0, 72, 60
2, 731504, Note_off_c, 0, 68, 64
2, 731506, Note_on_c, 0, 51, 39
2, 731511, Note_on_c, 0, 60, 26
2, 731517, Note_on_c, 0, 56, 38
2, 731538, Note_on_c, 0, 63, 18
2, 731550, Control_c, 0, 64, 127
2, 731564, Note_off_c, 0, 60, 64
2, 731566, Note_off_c, 0, 56, 64
2, 731573, Note_off_c, 0, 51, 64
2, 731587, Note_off_c, 0, 32, 64
2, 731610, Note_off_c, 0, 63, 64
2, 731628, Note_on_c, 0, 56, 28
2, 731631, Note_on_c, 0, 63, 38
2, 731634, Note_on_c, 0, 51, 34
2, 731640, Note_on_c, 0, 60, 35
2, 731683, Note_off_c, 0, 60, 64
2, 731685, Note_off_c, 0, 63, 64
2, 731689, Note_off_c, 0, 51, 64
2, 731700, Note_off_c, 0, 56, 64
2, 731740, Note_on_c, 0, 63, 28
2, 731748, Note_on_c, 0, 56, 35
2, 731754, Note_on_c, 0, 60, 34
2, 731754, Note_on_c, 0, 51, 30
2, 731794, Note_off_c, 0, 63, 64
2, 731805, Note_off_c, 0, 51, 64
2, 731808, Note_off_c, 0, 56, 64
2, 731826, Note_off_c, 0, 60, 64
2, 731876, Note_on_c, 0, 56, 26
2, 731884, Note_on_c, 0, 52, 28
2, 731887, Note_on_c, 0, 64, 36
2, 731891, Note_on_c, 0, 61, 44
2, 731948, Note_off_c, 0, 52, 64
2, 731958, Note_off_c, 0, 56, 64
2, 731963, Note_off_c, 0, 61, 64
2, 731964, Note_off_c, 0, 64, 64
2, 732008, Note_off_c, 0, 72, 64
2, 732012, Note_on_c, 0, 61, 35
2, 732016, Note_on_c, 0, 70, 60
2, 732020, Note_on_c, 0, 52, 31
2, 732024, Note_on_c, 0, 56, 34
2, 732025, Note_on_c, 0, 64, 34
2, 732072, Note_off_c, 0, 61, 64
2, 732077, Note_off_c, 0, 64, 64
2, 732077, Note_off_c, 0, 56, 64
2, 732092, Note_off_c, 0, 52, 64
2, 732143, Note_off_c, 0, 70, 64
2, 732146, Note_on_c, 0, 61, 42
2, 732149, Note_on_c, 0, 52, 24
2, 732154, Note_on_c, 0, 68, 62
2, 732154, Note_on_c, 0, 64, 29
2, 732160, Note_on_c, 0, 56, 35
2, 732219, Note_off_c, 0, 56, 64
2, 732221, Note_off_c, 0, 52, 64
2, 732226, Note_off_c, 0, 64, 64
2, 732235, Note_off_c, 0, 61, 64
2, 732280, Control_c, 0, 64, 0
2, 732318, Note_on_c, 0, 51, 30
2, 732323, Note_on_c, 0, 72, 60
2, 732327, Note_on_c, 0, 60, 35
2, 732332, Note_on_c, 0, 63, 40
2, 732335, Note_off_c, 0, 68, 64
2, 732337, Note_on_c, 0, 56, 23
2, 732344, Control_c, 0, 64, 127
2, 732378, Note_off_c, 0, 60, 64
2, 732387, Note_off_c, 0, 51, 64
2, 732393, Note_off_c, 0, 56, 64
2, 732395, Note_off_c, 0, 63, 64
2, 732492, Note_on_c, 0, 60, 33
2, 732496, Note_on_c, 0, 63, 29
2, 732496, Note_on_c, 0, 51, 29
2, 732502, Note_on_c, 0, 56, 28
2, 732545, Note_off_c, 0, 60, 64
2, 732547, Note_off_c, 0, 63, 64
2, 732550, Note_off_c, 0, 56, 64
2, 732555, Note_off_c, 0, 51, 64
2, 732628, Note_on_c, 0, 60, 33
2, 732629, Note_on_c, 0, 63, 34
2, 732633, Note_on_c, 0, 51, 30
2, 732638, Note_on_c, 0, 56, 28
2, 732674, Note_off_c, 0, 60, 64
2, 732681, Note_off_c, 0, 56, 64
2, 732683, Note_off_c, 0, 63, 64
2, 732689, Note_off_c, 0, 51, 64
2, 732772, Note_on_c, 0, 56, 28
2, 732773, Note_on_c, 0, 63, 28
2, 732773, Note_on_c, 0, 51, 24
2, 732777, Note_on_c, 0, 60, 30
2, 732815, Note_off_c, 0, 56, 64
2, 732828, Note_off_c, 0, 51, 64
2, 732832, Note_off_c, 0, 63, 64
2, 732849, Note_off_c, 0, 60, 64
2, 732907, Note_on_c, 0, 70, 56
2, 732918, Note_off_c, 0, 72, 64
2, 732923, Note_on_c, 0, 63, 26
2, 732924, Note_on_c, 0, 60, 35
2, 732925, Note_on_c, 0, 51, 18
2, 732928, Note_on_c, 0, 56, 28
2, 732970, Note_off_c, 0, 56, 64
2, 732975, Note_off_c, 0, 51, 64
2, 732980, Note_off_c, 0, 63, 64
2, 732984, Note_off_c, 0, 60, 64
2, 733082, Note_on_c, 0, 63, 19
2, 733084, Note_on_c, 0, 60, 35
2, 733084, Note_on_c, 0, 56, 17
2, 733085, Note_on_c, 0, 68, 54
2, 733090, Note_on_c, 0, 51, 22
2, 733125, Note_off_c, 0, 70, 64
2, 733135, Note_off_c, 0, 63, 64
2, 733144, Note_off_c, 0, 51, 64
2, 733144, Note_off_c, 0, 60, 64
2, 733156, Note_off_c, 0, 56, 64
2, 733281, Note_off_c, 0, 68, 64
2, 733309, Control_c, 0, 64, 0
2, 733326, Note_on_c, 0, 32, 90
2, 733339, Note_on_c, 0, 68, 40
2, 733384, Control_c, 0, 64, 127
2, 733548, Note_on_c, 0, 56, 40
2, 733554, Note_on_c, 0, 60, 23
2, 733560, Note_on_c, 0, 63, 35
2, 733562, Note_on_c, 0, 51, 27
2, 733597, Note_off_c, 0, 51, 64
2, 733600, Note_off_c, 0, 63, 64
2, 733607, Note_off_c, 0, 60, 64
2, 733608, Note_off_c, 0, 56, 64
2, 733686, Note_on_c, 0, 63, 30
2, 733688, Note_on_c, 0, 60, 27
2, 733692, Note_on_c, 0, 51, 40
2, 733696, Note_on_c, 0, 56, 15
2, 733726, Note_off_c, 0, 56, 64
2, 733737, Note_off_c, 0, 63, 64
2, 733738, Note_off_c, 0, 60, 64
2, 733752, Note_off_c, 0, 51, 64
2, 733809, Note_on_c, 0, 63, 25
2, 733817, Note_on_c, 0, 60, 24
2, 733818, Note_on_c, 0, 56, 24
2, 733822, Note_on_c, 0, 51, 17
2, 733838, Note_off_c, 0, 68, 64
2, 733860, Note_off_c, 0, 63, 64
2, 733865, Note_off_c, 0, 60, 64
2, 733869, Note_off_c, 0, 56, 64
2, 733870, Note_off_c, 0, 51, 64
2, 733951, Note_on_c, 0, 58, 33
2, 733956, Note_on_c, 0, 51, 22
2, 733960, Note_on_c, 0, 61, 23
2, 733969, Note_on_c, 0, 56, 22
2, 734006, Note_off_c, 0, 56, 64
2, 734018, Note_off_c, 0, 51, 64
2, 734032, Note_off_c, 0, 61, 64
2, 734074, Note_off_c, 0, 58, 64
2, 734085, Note_on_c, 0, 65, 36
2, 734097, Note_on_c, 0, 61, 17
2, 734097, Note_on_c, 0, 51, 17
2, 734098, Note_on_c, 0, 56, 23
2, 734134, Note_off_c, 0, 56, 64
2, 734137, Note_off_c, 0, 51, 64
2, 734141, Note_off_c, 0, 61, 64
2, 734209, Note_on_c, 0, 68, 60
2, 734216, Note_on_c, 0, 63, 28
2, 734216, Note_on_c, 0, 60, 28
2, 734226, Note_on_c, 0, 56, 20
2, 734226, Note_on_c, 0, 51, 13
2, 734232, Note_off_c, 0, 65, 64
2, 734263, Note_off_c, 0, 51, 64
2, 734265, Note_off_c, 0, 60, 64
2, 734270, Note_off_c, 0, 56, 64
2, 734272, Note_off_c, 0, 63, 64
2, 734336, Note_off_c, 0, 32, 64
2, 734338, Note_on_c, 0, 60, 28
2, 734344, Note_on_c, 0, 63, 27
2, 734352, Note_on_c, 0, 56, 20
2, 734357, Note_on_c, 0, 51, 13
2, 734387, Note_off_c, 0, 51, 64
2, 734391, Note_off_c, 0, 60, 64
2, 734393, Note_off_c, 0, 56, 64
2, 734400, Note_off_c, 0, 63, 64
2, 734460, Note_on_c, 0, 63, 28
2, 734467, Note_on_c, 0, 60, 24
2, 734473, Note_on_c, 0, 56, 23
2, 734476, Note_on_c, 0, 51, 14
2, 734500, Note_off_c, 0, 51, 64
2, 734510, Note_off_c, 0, 56, 64
2, 734513, Note_off_c, 0, 60, 64
2, 734513, Note_off_c, 0, 63, 64
2, 734580, Note_on_c, 0, 63, 26
2, 734588, Note_on_c, 0, 60, 26
2, 734591, Note_on_c, 0, 51, 18
2, 734595, Note_on_c, 0, 56, 23
2, 734625, Note_off_c, 0, 51, 64
2, 734635, Note_off_c, 0, 60, 64
2, 734640, Note_off_c, 0, 63, 64
2, 734642, Note_off_c, 0, 56, 64
2, 734665, Control_c, 0, 64, 0
2, 734703, Note_on_c, 0, 58, 40
2, 734709, Note_on_c, 0, 61, 28
2, 734717, Note_on_c, 0, 51, 22
2, 734723, Note_on_c, 0, 56, 21
2, 734734, Control_c, 0, 64, 127
2, 734762, Note_off_c, 0, 56, 64
2, 734764, Note_off_c, 0, 51, 64
2, 734776, Note_off_c, 0, 61, 64
2, 734829, Note_on_c, 0, 61, 24
2, 734836, Note_on_c, 0, 65, 37
2, 734839, Note_off_c, 0, 58, 64
2, 734844, Note_on_c, 0, 56, 22
2, 734847, Note_on_c, 0, 51, 17
2, 734851, Note_off_c, 0, 68, 64
2, 734883, Note_off_c, 0, 51, 64
2, 734886, Note_off_c, 0, 61, 64
2, 734890, Note_off_c, 0, 56, 64
2, 734965, Note_on_c, 0, 68, 53
2, 734969, Note_on_c, 0, 60, 32
2, 734970, Control_c, 0, 64, 0
2, 734977, Note_on_c, 0, 63, 28
2, 734984, Note_off_c, 0, 65, 64
2, 734984, Note_on_c, 0, 56, 28
2, 734990, Note_on_c, 0, 51, 15
2, 734996, Control_c, 0, 64, 127
2, 735030, Note_off_c, 0, 51, 64
2, 735036, Note_off_c, 0, 56, 64
2, 735041, Note_off_c, 0, 63, 64
2, 735106, Note_on_c, 0, 63, 22
2, 735110, Note_on_c, 0, 56, 27
2, 735113, Note_on_c, 0, 51, 19
2, 735125, Note_off_c, 0, 60, 64
2, 735147, Note_off_c, 0, 51, 64
2, 735155, Note_off_c, 0, 63, 64
2, 735165, Note_off_c, 0, 56, 64
2, 735207, Control_c, 0, 64, 0
2, 735217, Note_on_c, 0, 58, 37
2, 735237, Note_on_c, 0, 63, 22
2, 735240, Note_on_c, 0, 51, 11
2, 735250, Note_on_c, 0, 55, 13
2, 735259, Control_c, 0, 64, 127
2, 735283, Note_off_c, 0, 51, 64
2, 735284, Note_off_c, 0, 55, 64
2, 735292, Note_off_c, 0, 58, 64
2, 735294, Note_off_c, 0, 63, 64
2, 735300, Note_off_c, 0, 68, 64
2, 735353, Note_on_c, 0, 63, 31
2, 735356, Note_on_c, 0, 68, 47
2, 735362, Note_on_c, 0, 60, 34
2, 735362, Note_on_c, 0, 51, 20
2, 735369, Note_on_c, 0, 56, 22
2, 735408, Note_off_c, 0, 51, 64
2, 735413, Note_off_c, 0, 56, 64
2, 735427, Note_off_c, 0, 63, 64
2, 735494, Note_on_c, 0, 63, 22
2, 735498, Note_on_c, 0, 56, 26
2, 735504, Note_on_c, 0, 51, 15
2, 735526, Note_off_c, 0, 60, 64
2, 735540, Note_off_c, 0, 51, 64
2, 735542, Note_off_c, 0, 56, 64
2, 735544, Note_off_c, 0, 63, 64
2, 735616, Note_on_c, 0, 58, 31
2, 735625, Note_on_c, 0, 55, 24
2, 735633, Note_on_c, 0, 63, 17
2, 735636, Note_on_c, 0, 51, 14
2, 735676, Note_off_c, 0, 51, 64
2, 735678, Note_off_c, 0, 55, 64
2, 735686, Note_off_c, 0, 63, 64
2, 735689, Note_off_c, 0, 58, 64
2, 735689, Note_off_c, 0, 68, 64
2, 735753, Note_on_c, 0, 63, 28
2, 735756, Note_on_c, 0, 68, 53
2, 735761, Note_on_c, 0, 51, 27
2, 735767, Note_on_c, 0, 60, 26
2, 735771, Note_on_c, 0, 56, 25
2, 735802, Control_c, 0, 64, 0
2, 735829, Note_off_c, 0, 56, 64
2, 735835, Note_off_c, 0, 51, 64
2, 735863, Note_off_c, 0, 63, 64
2, 735866, Control_c, 0, 64, 127
2, 735906, Note_on_c, 0, 63, 27
2, 735906, Note_on_c, 0, 51, 26
2, 735917, Note_on_c, 0, 56, 23
2, 735948, Note_off_c, 0, 60, 64
2, 735963, Note_off_c, 0, 63, 64
2, 735966, Note_off_c, 0, 51, 64
2, 735967, Note_off_c, 0, 56, 64
2, 736048, Note_on_c, 0, 58, 37
2, 736055, Note_on_c, 0, 55, 18
2, 736056, Note_on_c, 0, 63, 23
2, 736056, Note_on_c, 0, 51, 28
2, 736061, Control_c, 0, 64, 0
2, 736116, Note_off_c, 0, 51, 64
2, 736116, Note_off_c, 0, 63, 64
2, 736129, Control_c, 0, 64, 127
2, 736144, Note_off_c, 0, 55, 64
2, 736146, Note_off_c, 0, 68, 64
2, 736152, Note_off_c, 0, 58, 64
2, 736202, Note_on_c, 0, 63, 28
2, 736206, Note_on_c, 0, 51, 28
2, 736209, Note_on_c, 0, 68, 55
2, 736215, Note_on_c, 0, 60, 36
2, 736223, Note_on_c, 0, 56, 22
2, 736274, Note_off_c, 0, 56, 64
2, 736292, Note_off_c, 0, 63, 64
2, 736306, Note_off_c, 0, 51, 64
2, 736373, Note_on_c, 0, 51, 22
2, 736374, Note_on_c, 0, 63, 26
2, 736384, Note_on_c, 0, 56, 23
2, 736428, Note_off_c, 0, 51, 64
2, 736435, Note_off_c, 0, 60, 64
2, 736444, Note_off_c, 0, 56, 64
2, 736451, Note_off_c, 0, 63, 64
2, 736517, Control_c, 0, 64, 0
2, 736555, Note_on_c, 0, 58, 36
2, 736556, Note_on_c, 0, 63, 26
2, 736564, Note_on_c, 0, 55, 24
2, 736564, Note_on_c, 0, 51, 16
2, 736578, Control_c, 0, 64, 127
2, 736638, Note_off_c, 0, 63, 64
2, 736640, Note_off_c, 0, 55, 64
2, 736671, Note_off_c, 0, 51, 64
2, 736698, Note_off_c, 0, 58, 64
2, 736812, Control_c, 0, 64, 0
2, 736819, Note_on_c, 0, 32, 90
2, 736874, Control_c, 0, 64, 127
2, 736984, Note_off_c, 0, 68, 64
2, 737076, Note_on_c, 0, 63, 34
2, 737076, Note_on_c, 0, 60, 21
2, 737076, Note_on_c, 0, 56, 14
2, 737076, Note_on_c, 0, 51, 34
2, 737186, Note_off_c, 0, 51, 64
2, 737186, Note_off_c, 0, 56, 64
2, 737186, Note_off_c, 0, 60, 64
2, 737186, Note_off_c, 0, 63, 64
2, 737204, Note_on_c, 0, 63, 36
2, 737212, Note_on_c, 0, 60, 26
2, 737212, Note_on_c, 0, 51, 24
2, 737215, Note_on_c, 0, 56, 29
2, 737314, Note_off_c, 0, 63, 64
2, 737322, Note_off_c, 0, 51, 64
2, 737322, Note_off_c, 0, 60, 64
2, 737325, Note_off_c, 0, 56, 64
2, 737348, Note_on_c, 0, 63, 39
2, 737348, Note_on_c, 0, 60, 29
2, 737348, Note_on_c, 0, 56, 32
2, 737350, Note_on_c, 0, 51, 18
2, 737458, Note_off_c, 0, 56, 64
2, 737458, Note_off_c, 0, 60, 64
2, 737460, Note_off_c, 0, 51, 64
2, 737463, Note_off_c, 0, 63, 64
2, 737470, Note_on_c, 0, 60, 37
2, 737474, Note_on_c, 0, 56, 33
2, 737474, Note_on_c, 0, 51, 24
2, 737475, Note_on_c, 0, 63, 22
2, 737585, Note_off_c, 0, 60, 64
2, 737589, Note_off_c, 0, 51, 64
2, 737589, Note_off_c, 0, 56, 64
2, 737590, Note_off_c, 0, 63, 64
2, 737604, Note_on_c, 0, 63, 30
2, 737607, Note_on_c, 0, 56, 33
2, 737612, Note_on_c, 0, 60, 42
2, 737612, Note_on_c, 0, 51, 25
2, 737719, Note_off_c, 0, 63, 64
2, 737722, Note_off_c, 0, 56, 64
2, 737727, Note_off_c, 0, 51, 64
2, 737727, Note_off_c, 0, 60, 64
2, 737736, Note_on_c, 0, 63, 38
2, 737743, Note_on_c, 0, 60, 42
2, 737746, Note_on_c, 0, 51, 25
2, 737747, Note_on_c, 0, 56, 33
2, 737851, Note_off_c, 0, 63, 64
2, 737858, Note_off_c, 0, 60, 64
2, 737861, Note_off_c, 0, 51, 64
2, 737862, Note_off_c, 0, 56, 64
2, 737886, Note_off_c, 0, 32, 64
2, 737890, Note_on_c, 0, 63, 27
2, 737890, Note_on_c, 0, 51, 24
2, 737891, Note_on_c, 0, 60, 38
2, 737896, Note_on_c, 0, 56, 30
2, 738030, Note_off_c, 0, 51, 64
2, 738030, Note_off_c, 0, 63, 64
2, 738031, Note_off_c, 0, 60, 64
2, 738036, Note_off_c, 0, 56, 64
2, 738048, Note_on_c, 0, 63, 23
2, 738054, Note_on_c, 0, 60, 32
2, 738060, Note_on_c, 0, 56, 27
2, 738064, Note_on_c, 0, 51, 22
2, 738208, Note_off_c, 0, 63, 64
2, 738214, Note_off_c, 0, 60, 64
2, 738220, Note_off_c, 0, 56, 64
2, 738224, Note_off_c, 0, 51, 64
2, 738241, Note_on_c, 0, 60, 25
2, 738247, Note_on_c, 0, 63, 34
2, 738249, Note_on_c, 0, 56, 28
2, 738249, Note_on_c, 0, 51, 25
2, 738407, Note_off_c, 0, 63, 64
2, 738438, Note_on_c, 0, 63, 22
2, 738476, Note_off_c, 0, 60, 64
2, 738484, Note_off_c, 0, 51, 64
2, 738484, Note_off_c, 0, 56, 64
2, 738491, Note_on_c, 0, 61, 34
2, 738503, Note_on_c, 0, 56, 23
2, 738508, Note_on_c, 0, 51, 20
2, 738618, Note_off_c, 0, 63, 64
2, 738801, Note_off_c, 0, 61, 64
2, 738813, Note_off_c, 0, 56, 64
2, 738815, Note_on_c, 0, 60, 24
2, 738818, Note_off_c, 0, 51, 64
2, 738822, Note_on_c, 0, 63, 14
2, 738826, Note_on_c, 0, 56, 18
2, 738826, Note_on_c, 0, 51, 18
2, 739410, Note_off_c, 0, 60, 64
2, 739416, Note_off_c, 0, 51, 64
2, 739417, Note_off_c, 0, 63, 64
2, 739421, Note_off_c, 0, 56, 64
2, 739428, Note_on_c, 0, 63, 10
2, 739428, Note_on_c, 0, 60, 19
2, 739428, Note_on_c, 0, 51, 11
2, 739438, Note_on_c, 0, 56, 14
2, 739543, Control_c, 0, 64, 0
2, 739702, Control_c, 0, 64, 127
2, 740214, Note_off_c, 0, 51, 64
2, 740227, Note_off_c, 0, 60, 64
2, 740227, Note_off_c, 0, 63, 64
2, 740259, Note_off_c, 0, 56, 64
2, 741623, Note_on_c, 0, 60, 50
2, 741675, Note_on_c, 0, 61, 48
2, 741686, Note_off_c, 0, 60, 64
2, 741729, Note_on_c, 0, 57, 52
2, 741740, Note_off_c, 0, 61, 64
2, 741781, Note_on_c, 0, 58, 53
2, 741788, Note_off_c, 0, 57, 64
2, 741834, Note_on_c, 0, 55, 53
2, 741838, Note_off_c, 0, 58, 64
2, 741887, Note_on_c, 0, 58, 53
2, 741916, Note_off_c, 0, 55, 64
2, 741939, Note_on_c, 0, 67, 48
2, 741955, Note_off_c, 0, 58, 64
2, 741985, Note_on_c, 0, 65, 48
2, 741989, Note_off_c, 0, 67, 64
2, 742016, Note_off_c, 0, 65, 64
2, 742043, Note_on_c, 0, 65, 52
2, 742166, Note_on_c, 0, 36, 35
2, 742171, Note_on_c, 0, 49, 38
2, 742172, Note_on_c, 0, 58, 37
2, 742174, Note_on_c, 0, 55, 33
2, 742186, Note_off_c, 0, 36, 64
2, 742187, Note_off_c, 0, 49, 64
2, 742190, Note_off_c, 0, 55, 64
2, 742192, Note_off_c, 0, 58, 64
2, 742299, Note_on_c, 0, 36, 38
2, 742302, Note_on_c, 0, 49, 36
2, 742303, Note_on_c, 0, 58, 38
2, 742306, Note_on_c, 0, 55, 32
2, 742462, Note_off_c, 0, 65, 64
2, 742470, Note_on_c, 0, 64, 50
2, 742476, Note_off_c, 0, 58, 64
2, 742486, Note_off_c, 0, 49, 64
2, 742491, Note_off_c, 0, 55, 64
2, 742491, Note_off_c, 0, 36, 64
2, 742605, Note_on_c, 0, 60, 56
2, 742616, Note_off_c, 0, 64, 64
2, 742666, Note_on_c, 0, 61, 58
2, 742677, Note_off_c, 0, 60, 64
2, 742722, Note_on_c, 0, 57, 59
2, 742738, Note_off_c, 0, 61, 64
2, 742780, Note_on_c, 0, 58, 51
2, 742787, Note_off_c, 0, 57, 64
2, 742843, Note_on_c, 0, 55, 62
2, 742850, Note_off_c, 0, 58, 64
2, 742900, Note_on_c, 0, 58, 57
2, 742919, Note_off_c, 0, 55, 64
2, 742957, Note_on_c, 0, 67, 49
2, 742976, Note_off_c, 0, 58, 64
2, 743014, Note_on_c, 0, 65, 54
2, 743017, Note_off_c, 0, 67, 64
2, 743058, Note_off_c, 0, 65, 64
2, 743086, Note_on_c, 0, 65, 56
2, 743218, Note_on_c, 0, 36, 37
2, 743223, Note_on_c, 0, 58, 37
2, 743223, Note_on_c, 0, 55, 32
2, 743223, Note_on_c, 0, 49, 32
2, 743238, Note_off_c, 0, 36, 64
2, 743240, Note_off_c, 0, 58, 64
2, 743242, Note_off_c, 0, 49, 64
2, 743245, Note_off_c, 0, 55, 64
2, 743368, Note_on_c, 0, 58, 45
2, 743370, Note_on_c, 0, 55, 37
2, 743370, Note_on_c, 0, 36, 38
2, 743373, Note_on_c, 0, 49, 41
2, 743555, Note_off_c, 0, 65, 64
2, 743567, Note_on_c, 0, 64, 46
2, 743570, Note_off_c, 0, 58, 64
2, 743577, Note_off_c, 0, 49, 64
2, 743577, Note_off_c, 0, 36, 64
2, 743587, Note_off_c, 0, 55, 64
2, 743721, Note_on_c, 0, 60, 52
2, 743735, Note_off_c, 0, 64, 64
2, 743786, Note_on_c, 0, 61, 33
2, 743799, Note_off_c, 0, 60, 64
2, 743849, Note_on_c, 0, 57, 32
2, 743864, Note_off_c, 0, 61, 64
2, 743909, Note_on_c, 0, 58, 43
2, 743910, Note_off_c, 0, 57, 64
2, 743964, Note_on_c, 0, 55, 50
2, 743968, Note_off_c, 0, 58, 64
2, 744024, Note_on_c, 0, 58, 40
2, 744045, Note_off_c, 0, 55, 64
2, 744080, Note_on_c, 0, 67, 42
2, 744081, Note_off_c, 0, 58, 64
2, 744138, Note_on_c, 0, 65, 47
2, 744140, Note_off_c, 0, 67, 64
2, 744193, Note_on_c, 0, 63, 44
2, 744197, Note_off_c, 0, 65, 64
2, 744246, Note_on_c, 0, 64, 44
2, 744247, Note_off_c, 0, 63, 64
2, 744300, Note_on_c, 0, 58, 51
2, 744303, Note_on_c, 0, 70, 51
2, 744336, Note_off_c, 0, 64, 64
2, 744355, Note_on_c, 0, 56, 45
2, 744357, Note_on_c, 0, 68, 35
2, 744364, Note_off_c, 0, 70, 64
2, 744386, Note_off_c, 0, 58, 64
2, 744399, Note_off_c, 0, 56, 64
2, 744404, Note_on_c, 0, 54, 45
2, 744406, Note_on_c, 0, 66, 47
2, 744414, Note_off_c, 0, 68, 64
2, 744455, Note_on_c, 0, 67, 50
2, 744458, Note_off_c, 0, 54, 64
2, 744460, Note_off_c, 0, 66, 64
2, 744461, Note_on_c, 0, 55, 41
2, 744505, Note_off_c, 0, 55, 64
2, 744507, Note_on_c, 0, 61, 57
2, 744512, Note_on_c, 0, 73, 50
2, 744530, Note_off_c, 0, 67, 64
2, 744560, Note_on_c, 0, 72, 52
2, 744564, Note_on_c, 0, 60, 49
2, 744576, Note_off_c, 0, 61, 64
2, 744582, Note_off_c, 0, 73, 64
2, 744607, Note_on_c, 0, 69, 50
2, 744613, Note_on_c, 0, 57, 46
2, 744621, Note_off_c, 0, 60, 64
2, 744621, Note_off_c, 0, 72, 64
2, 744649, Control_c, 0, 64, 127
2, 744659, Note_on_c, 0, 58, 48
2, 744662, Note_off_c, 0, 57, 64
2, 744663, Note_on_c, 0, 70, 52
2, 744670, Note_off_c, 0, 69, 64
2, 744675, Note_off_c, 0, 58, 64
2, 744677, Note_off_c, 0, 70, 64
2, 744725, Note_on_c, 0, 73, 62
2, 744727, Note_on_c, 0, 85, 52
2, 744762, Control_c, 0, 64, 0
2, 744784, Note_off_c, 0, 73, 64
2, 744784, Note_on_c, 0, 79, 45
2, 744784, Note_on_c, 0, 67, 32
2, 744787, Note_off_c, 0, 85, 64
2, 744837, Note_on_c, 0, 84, 56
2, 744840, Note_on_c, 0, 72, 52
2, 744849, Note_off_c, 0, 67, 64
2, 744850, Note_off_c, 0, 79, 64
2, 744887, Note_on_c, 0, 70, 43
2, 744890, Note_on_c, 0, 82, 52
2, 744894, Note_off_c, 0, 72, 64
2, 744900, Note_off_c, 0, 84, 64
2, 744939, Note_on_c, 0, 80, 51
2, 744941, Note_off_c, 0, 70, 64
2, 744944, Note_off_c, 0, 82, 64
2, 744944, Note_on_c, 0, 68, 50
2, 744987, Note_on_c, 0, 79, 45
2, 744993, Note_on_c, 0, 67, 34
2, 745002, Note_off_c, 0, 80, 64
2, 745007, Note_off_c, 0, 68, 64
2, 745029, Note_on_c, 0, 77, 48
2, 745031, Note_on_c, 0, 65, 39
2, 745034, Note_off_c, 0, 79, 64
2, 745040, Note_off_c, 0, 67, 64
2, 745081, Note_on_c, 0, 76, 46
2, 745082, Note_on_c, 0, 64, 52
2, 745084, Note_off_c, 0, 77, 64
2, 745086, Note_off_c, 0, 65, 64
2, 745127, Note_off_c, 0, 64, 64
2, 745135, Note_off_c, 0, 76, 64
2, 745135, Note_on_c, 0, 67, 50
2, 745139, Note_on_c, 0, 79, 47
2, 745181, Note_on_c, 0, 58, 39
2, 745182, Note_on_c, 0, 70, 61
2, 745193, Note_off_c, 0, 79, 64
2, 745195, Note_off_c, 0, 67, 64
2, 745235, Note_on_c, 0, 71, 56
2, 745240, Note_on_c, 0, 59, 45
2, 745253, Note_off_c, 0, 58, 64
2, 745254, Note_off_c, 0, 70, 64
2, 745283, Note_on_c, 0, 60, 48
2, 745287, Note_on_c, 0, 72, 57
2, 745295, Note_off_c, 0, 59, 64
2, 745299, Note_off_c, 0, 71, 64
2, 745321, Note_on_c, 0, 73, 64
2, 745325, Note_off_c, 0, 60, 64
2, 745328, Note_on_c, 0, 61, 61
2, 745338, Note_off_c, 0, 72, 64
2, 745360, Note_on_c, 0, 55, 52
2, 745363, Note_on_c, 0, 67, 62
2, 745366, Note_off_c, 0, 61, 64
2, 745368, Note_off_c, 0, 73, 64
2, 745402, Note_on_c, 0, 72, 59
2, 745402, Note_on_c, 0, 60, 59
2, 745425, Note_off_c, 0, 55, 64
2, 745428, Note_off_c, 0, 67, 64
2, 745443, Note_on_c, 0, 58, 40
2, 745446, Note_on_c, 0, 70, 57
2, 745452, Note_off_c, 0, 60, 64
2, 745454, Note_off_c, 0, 72, 64
2, 745492, Note_on_c, 0, 57, 47
2, 745495, Note_off_c, 0, 58, 64
2, 745498, Note_on_c, 0, 69, 47
2, 745505, Note_off_c, 0, 70, 64
2, 745547, Note_on_c, 0, 65, 62
2, 745548, Note_off_c, 0, 69, 64
2, 745569, Note_off_c, 0, 57, 64
2, 745594, Note_on_c, 0, 66, 69
2, 745598, Note_off_c, 0, 65, 64
2, 745652, Note_off_c, 0, 66, 64
2, 745654, Note_on_c, 0, 62, 69
2, 745703, Note_on_c, 0, 63, 66
2, 745716, Note_off_c, 0, 62, 64
2, 745762, Note_on_c, 0, 72, 62
2, 745769, Note_off_c, 0, 63, 64
2, 745805, Note_on_c, 0, 70, 72
2, 745810, Note_off_c, 0, 72, 64
2, 745842, Note_off_c, 0, 70, 64
2, 745868, Note_on_c, 0, 70, 72
2, 745989, Note_on_c, 0, 54, 60
2, 745991, Note_on_c, 0, 63, 62
2, 745991, Note_on_c, 0, 60, 67
2, 745994, Note_on_c, 0, 41, 56
2, 746010, Note_off_c, 0, 60, 64
2, 746013, Note_off_c, 0, 41, 64
2, 746013, Note_off_c, 0, 63, 64
2, 746013, Note_off_c, 0, 54, 64
2, 746118, Note_on_c, 0, 60, 48
2, 746120, Note_on_c, 0, 54, 59
2, 746122, Note_on_c, 0, 63, 42
2, 746123, Note_on_c, 0, 41, 54
2, 746154, Control_c, 0, 64, 127
2, 746192, Note_off_c, 0, 70, 64
2, 746301, Note_on_c, 0, 69, 32
2, 746318, Note_off_c, 0, 63, 64
2, 746322, Control_c, 0, 64, 0
2, 746413, Note_off_c, 0, 54, 64
2, 746414, Note_off_c, 0, 41, 64
2, 746429, Note_off_c, 0, 60, 64
2, 746432, Note_on_c, 0, 65, 57
2, 746450, Note_off_c, 0, 69, 64
2, 746490, Note_on_c, 0, 66, 57
2, 746503, Note_off_c, 0, 65, 64
2, 746547, Note_on_c, 0, 62, 56
2, 746550, Note_off_c, 0, 66, 64
2, 746595, Note_on_c, 0, 63, 56
2, 746605, Note_off_c, 0, 62, 64
2, 746652, Note_on_c, 0, 60, 72
2, 746657, Note_off_c, 0, 63, 64
2, 746698, Note_on_c, 0, 63, 63
2, 746755, Note_on_c, 0, 72, 59
2, 746757, Note_off_c, 0, 60, 64
2, 746766, Note_off_c, 0, 63, 64
2, 746803, Note_on_c, 0, 70, 72
2, 746810, Note_off_c, 0, 72, 64
2, 746844, Note_off_c, 0, 70, 64
2, 746871, Note_on_c, 0, 70, 75
2, 747003, Note_on_c, 0, 41, 56
2, 747004, Note_on_c, 0, 54, 57
2, 747005, Note_on_c, 0, 60, 57
2, 747008, Note_on_c, 0, 63, 59
2, 747028, Note_off_c, 0, 63, 64
2, 747028, Note_off_c, 0, 60, 64
2, 747028, Note_off_c, 0, 54, 64
2, 747028, Note_off_c, 0, 41, 64
2, 747162, Note_on_c, 0, 60, 39
2, 747162, Note_on_c, 0, 41, 47
2, 747166, Note_on_c, 0, 54, 41
2, 747168, Note_on_c, 0, 63, 39
2, 747193, Control_c, 0, 64, 127
2, 747279, Note_off_c, 0, 70, 64
2, 747384, Note_on_c, 0, 69, 47
2, 747412, Note_off_c, 0, 63, 64
2, 747434, Control_c, 0, 64, 0
2, 747470, Note_off_c, 0, 41, 64
2, 747472, Note_off_c, 0, 54, 64
2, 747507, Note_on_c, 0, 65, 57
2, 747510, Note_off_c, 0, 60, 64
2, 747512, Note_off_c, 0, 69, 64
2, 747563, Note_on_c, 0, 66, 56
2, 747575, Note_off_c, 0, 65, 64
2, 747617, Note_on_c, 0, 62, 56
2, 747623, Note_off_c, 0, 66, 64
2, 747665, Note_on_c, 0, 63, 56
2, 747670, Note_off_c, 0, 62, 64
2, 747714, Note_on_c, 0, 60, 63
2, 747721, Note_off_c, 0, 63, 64
2, 747759, Note_on_c, 0, 63, 49
2, 747772, Note_off_c, 0, 60, 64
2, 747813, Note_on_c, 0, 72, 57
2, 747814, Note_on_c, 0, 60, 57
2, 747817, Note_off_c, 0, 63, 64
2, 747858, Note_off_c, 0, 72, 64
2, 747859, Note_on_c, 0, 58, 53
2, 747860, Note_on_c, 0, 70, 56
2, 747875, Note_off_c, 0, 60, 64
2, 747904, Note_on_c, 0, 56, 60
2, 747911, Note_on_c, 0, 68, 61
2, 747918, Note_off_c, 0, 58, 64
2, 747926, Note_off_c, 0, 70, 64
2, 747953, Note_off_c, 0, 56, 64
2, 747954, Note_on_c, 0, 57, 54
2, 747956, Note_off_c, 0, 68, 64
2, 747958, Note_on_c, 0, 69, 57
2, 747996, Note_off_c, 0, 57, 64
2, 748009, Note_on_c, 0, 66, 72
2, 748016, Note_off_c, 0, 69, 64
2, 748058, Note_on_c, 0, 65, 68
2, 748065, Note_off_c, 0, 66, 64
2, 748067, Note_on_c, 0, 77, 28
2, 748107, Note_on_c, 0, 74, 62
2, 748110, Note_on_c, 0, 62, 60
2, 748111, Note_off_c, 0, 77, 64
2, 748113, Note_off_c, 0, 65, 64
2, 748152, Note_off_c, 0, 62, 64
2, 748152, Note_off_c, 0, 74, 64
2, 748162, Note_on_c, 0, 75, 58
2, 748210, Note_off_c, 0, 75, 64
2, 748217, Note_on_c, 0, 85, 67
2, 748265, Note_off_c, 0, 85, 64
2, 748266, Note_on_c, 0, 72, 62
2, 748269, Note_on_c, 0, 84, 67
2, 748308, Note_on_c, 0, 70, 48
2, 748319, Note_off_c, 0, 72, 64
2, 748319, Note_on_c, 0, 82, 66
2, 748326, Note_off_c, 0, 84, 64
2, 748352, Note_off_c, 0, 70, 64
2, 748357, Note_on_c, 0, 69, 39
2, 748364, Note_on_c, 0, 81, 50
2, 748369, Note_off_c, 0, 82, 64
2, 748394, Note_off_c, 0, 69, 64
2, 748417, Note_on_c, 0, 87, 73
2, 748417, Note_on_c, 0, 75, 57
2, 748422, Note_off_c, 0, 81, 64
2, 748467, Note_off_c, 0, 75, 64
2, 748467, Note_off_c, 0, 87, 64
2, 748470, Note_on_c, 0, 76, 61
2, 748475, Note_on_c, 0, 64, 29
2, 748511, Note_on_c, 0, 77, 62
2, 748517, Note_on_c, 0, 65, 66
2, 748521, Note_off_c, 0, 64, 64
2, 748526, Note_off_c, 0, 76, 64
2, 748557, Note_on_c, 0, 78, 56
2, 748561, Note_off_c, 0, 65, 64
2, 748566, Note_on_c, 0, 66, 34
2, 748573, Note_off_c, 0, 77, 64
2, 748584, Note_on_c, 0, 72, 68
2, 748584, Note_on_c, 0, 60, 62
2, 748617, Note_off_c, 0, 78, 64
2, 748624, Note_on_c, 0, 73, 58
2, 748626, Note_off_c, 0, 66, 64
2, 748632, Note_on_c, 0, 61, 56
2, 748642, Note_on_c, 0, 77, 54
2, 748646, Note_on_c, 0, 65, 72
2, 748652, Note_off_c, 0, 60, 64
2, 748654, Note_off_c, 0, 72, 64
2, 748674, Note_off_c, 0, 73, 64
2, 748682, Note_off_c, 0, 61, 64
2, 748687, Note_on_c, 0, 75, 73
2, 748687, Note_on_c, 0, 63, 45
2, 748693, Note_off_c, 0, 65, 64
2, 748698, Note_off_c, 0, 77, 64
2, 748721, Note_on_c, 0, 61, 35
2, 748722, Note_on_c, 0, 73, 57
2, 748728, Note_off_c, 0, 63, 64
2, 748734, Note_off_c, 0, 75, 64
2, 748755, Note_off_c, 0, 61, 64
2, 748755, Note_on_c, 0, 72, 72
2, 748758, Note_off_c, 0, 73, 64
2, 748758, Note_on_c, 0, 60, 57
2, 748788, Note_on_c, 0, 58, 28
2, 748792, Note_on_c, 0, 70, 79
2, 748803, Note_off_c, 0, 72, 64
2, 748810, Note_off_c, 0, 60, 64
2, 748828, Note_on_c, 0, 69, 68
2, 748831, Note_on_c, 0, 57, 55
2, 748835, Note_off_c, 0, 70, 64
2, 748844, Note_off_c, 0, 58, 64
2, 748867, Note_off_c, 0, 57, 64
2, 748871, Note_on_c, 0, 72, 70
2, 748875, Note_off_c, 0, 69, 64
2, 748876, Note_on_c, 0, 60, 72
2, 748914, Note_on_c, 0, 64, 67
2, 748916, Note_on_c, 0, 52, 38
2, 748939, Note_off_c, 0, 60, 64
2, 748943, Note_off_c, 0, 64, 64
2, 748951, Note_on_c, 0, 65, 52
2, 748955, Note_on_c, 0, 53, 64
2, 748963, Note_off_c, 0, 52, 64
2, 748977, Note_off_c, 0, 72, 64
2, 748990, Note_on_c, 0, 66, 66
2, 748998, Note_on_c, 0, 54, 58
2, 749000, Note_off_c, 0, 53, 64
2, 749004, Note_off_c, 0, 65, 64
2, 749028, Note_off_c, 0, 54, 64
2, 749029, Note_off_c, 0, 66, 64
2, 749032, Note_on_c, 0, 60, 73
2, 749034, Note_on_c, 0, 48, 66
2, 749069, Note_on_c, 0, 65, 63
2, 749075, Note_on_c, 0, 53, 73
2, 749084, Note_off_c, 0, 48, 64
2, 749103, Note_off_c, 0, 60, 64
2, 749104, Note_on_c, 0, 51, 62
2, 749106, Note_on_c, 0, 63, 57
2, 749118, Note_off_c, 0, 65, 64
2, 749125, Note_off_c, 0, 53, 64
2, 749133, Note_on_c, 0, 61, 64
2, 749143, Note_on_c, 0, 49, 62
2, 749144, Note_off_c, 0, 63, 64
2, 749148, Note_off_c, 0, 51, 64
2, 749159, Note_on_c, 0, 48, 39
2, 749173, Note_on_c, 0, 60, 70
2, 749177, Note_off_c, 0, 61, 64
2, 749197, Note_off_c, 0, 48, 64
2, 749200, Note_on_c, 0, 46, 60
2, 749200, Control_c, 0, 64, 127
2, 749206, Note_off_c, 0, 49, 64
2, 749215, Note_on_c, 0, 58, 69
2, 749227, Note_off_c, 0, 60, 64
2, 749245, Note_off_c, 0, 46, 64
2, 749260, Note_off_c, 0, 58, 64
2, 749280, Control_c, 0, 64, 0
2, 749320, Note_on_c, 0, 34, 62
2, 749322, Note_on_c, 0, 65, 72
2, 749323, Note_on_c, 0, 61, 70
2, 749326, Note_on_c, 0, 58, 79
2, 749328, Note_on_c, 0, 55, 72
2, 749329, Note_on_c, 0, 53, 73
2, 749329, Note_on_c, 0, 46, 90
2, 749434, Control_c, 0, 64, 127
2, 749467, Note_off_c, 0, 53, 64
2, 749469, Note_off_c, 0, 55, 64
2, 749478, Note_off_c, 0, 58, 64
2, 749484, Note_off_c, 0, 61, 64
2, 749494, Note_off_c, 0, 65, 64
2, 749499, Note_off_c, 0, 34, 64
2, 749508, Note_off_c, 0, 46, 64
2, 749790, Note_on_c, 0, 61, 72
2, 749791, Note_on_c, 0, 73, 72
2, 749833, Control_c, 0, 64, 0
2, 749852, Note_on_c, 0, 67, 70
2, 749854, Note_off_c, 0, 73, 64
2, 749855, Note_on_c, 0, 55, 48
2, 749870, Note_off_c, 0, 61, 64
2, 749899, Note_on_c, 0, 56, 62
2, 749904, Note_on_c, 0, 68, 60
2, 749905, Note_off_c, 0, 55, 64
2, 749922, Note_off_c, 0, 67, 64
2, 749951, Note_on_c, 0, 69, 59
2, 749954, Note_on_c, 0, 57, 59
2, 749958, Note_off_c, 0, 68, 64
2, 749977, Note_off_c, 0, 56, 64
2, 749995, Note_off_c, 0, 57, 64
2, 749995, Note_on_c, 0, 72, 67
2, 749999, Note_off_c, 0, 69, 64
2, 749999, Note_on_c, 0, 60, 70
2, 750039, Note_on_c, 0, 70, 62
2, 750041, Note_on_c, 0, 58, 45
2, 750044, Note_off_c, 0, 60, 64
2, 750045, Note_off_c, 0, 72, 64
2, 750084, Note_on_c, 0, 68, 67
2, 750086, Note_on_c, 0, 56, 57
2, 750090, Note_off_c, 0, 58, 64
2, 750106, Note_off_c, 0, 70, 64
2, 750122, Note_off_c, 0, 56, 64
2, 750125, Note_on_c, 0, 55, 57
2, 750128, Note_on_c, 0, 67, 62
2, 750147, Note_off_c, 0, 68, 64
2, 750174, Note_on_c, 0, 65, 61
2, 750176, Note_off_c, 0, 67, 64
2, 750176, Note_on_c, 0, 53, 62
2, 750183, Note_off_c, 0, 55, 64
2, 750214, Note_on_c, 0, 64, 67
2, 750218, Note_on_c, 0, 52, 63
2, 750226, Control_c, 0, 64, 127
2, 750229, Note_off_c, 0, 53, 64
2, 750232, Note_off_c, 0, 65, 64
2, 750282, Note_off_c, 0, 52, 64
2, 750287, Note_off_c, 0, 64, 64
2, 750369, Control_c, 0, 64, 0
2, 750408, Note_on_c, 0, 34, 57
2, 750415, Note_on_c, 0, 64, 72
2, 750415, Note_on_c, 0, 46, 70
2, 750418, Note_on_c, 0, 61, 68
2, 750418, Note_on_c, 0, 58, 72
2, 750418, Note_on_c, 0, 55, 68
2, 750456, Control_c, 0, 64, 127
2, 750505, Note_off_c, 0, 55, 64
2, 750510, Note_off_c, 0, 58, 64
2, 750523, Note_off_c, 0, 61, 64
2, 750527, Note_off_c, 0, 64, 64
2, 750533, Note_off_c, 0, 34, 64
2, 750540, Note_off_c, 0, 46, 64
2, 750769, Note_on_c, 0, 80, 72
2, 750771, Note_on_c, 0, 68, 72
2, 750777, Control_c, 0, 64, 0
2, 750876, Note_on_c, 0, 70, 72
2, 750880, Note_on_c, 0, 58, 51
2, 750887, Note_off_c, 0, 80, 64
2, 750897, Note_off_c, 0, 68, 64
2, 750906, Control_c, 0, 64, 127
2, 750942, Note_on_c, 0, 80, 67
2, 750948, Note_on_c, 0, 68, 43
2, 750952, Note_off_c, 0, 58, 64
2, 750966, Note_off_c, 0, 70, 64
2, 750998, Note_off_c, 0, 68, 64
2, 750998, Note_on_c, 0, 79, 62
2, 750998, Note_on_c, 0, 67, 67
2, 751001, Note_off_c, 0, 80, 64
2, 751040, Note_on_c, 0, 64, 56
2, 751044, Note_on_c, 0, 76, 67
2, 751046, Note_off_c, 0, 79, 64
2, 751065, Note_off_c, 0, 67, 64
2, 751072, Note_on_c, 0, 61, 58
2, 751081, Note_on_c, 0, 73, 57
2, 751095, Note_off_c, 0, 76, 64
2, 751098, Note_off_c, 0, 64, 64
2, 751122, Note_on_c, 0, 70, 81
2, 751125, Note_off_c, 0, 73, 64
2, 751126, Note_off_c, 0, 61, 64
2, 751143, Note_off_c, 0, 70, 64
2, 751163, Note_on_c, 0, 55, 66
2, 751167, Note_on_c, 0, 67, 73
2, 751198, Control_c, 0, 64, 0
2, 751206, Note_off_c, 0, 55, 64
2, 751207, Note_on_c, 0, 64, 70
2, 751209, Note_on_c, 0, 52, 66
2, 751219, Note_off_c, 0, 67, 64
2, 751253, Note_on_c, 0, 53, 69
2, 751255, Note_on_c, 0, 65, 66
2, 751259, Control_c, 0, 64, 127
2, 751266, Note_off_c, 0, 52, 64
2, 751266, Note_off_c, 0, 64, 64
2, 751300, Note_off_c, 0, 65, 64
2, 751302, Note_off_c, 0, 53, 64
2, 751398, Control_c, 0, 64, 0
2, 751408, Note_on_c, 0, 65, 72
2, 751408, Note_on_c, 0, 32, 57
2, 751410, Note_on_c, 0, 60, 72
2, 751410, Note_on_c, 0, 53, 68
2, 751413, Note_on_c, 0, 44, 72
2, 751441, Control_c, 0, 64, 127
2, 751447, Note_off_c, 0, 53, 64
2, 751465, Note_off_c, 0, 60, 64
2, 751473, Note_off_c, 0, 65, 64
2, 751484, Note_off_c, 0, 32, 64
2, 751489, Note_off_c, 0, 44, 64
2, 751677, Note_on_c, 0, 84, 72
2, 751677, Control_c, 0, 64, 0
2, 751680, Note_on_c, 0, 72, 67
2, 751742, Note_on_c, 0, 77, 63
2, 751750, Note_on_c, 0, 65, 56
2, 751793, Note_on_c, 0, 78, 62
2, 751795, Note_off_c, 0, 77, 64
2, 751797, Note_on_c, 0, 66, 62
2, 751801, Note_off_c, 0, 65, 64
2, 751809, Note_off_c, 0, 84, 64
2, 751812, Note_off_c, 0, 72, 64
2, 751836, Note_on_c, 0, 79, 51
2, 751842, Note_off_c, 0, 78, 64
2, 751845, Note_on_c, 0, 67, 56
2, 751852, Note_off_c, 0, 66, 64
2, 751883, Note_off_c, 0, 67, 64
2, 751886, Note_off_c, 0, 79, 64
2, 751889, Note_on_c, 0, 82, 67
2, 751889, Note_on_c, 0, 70, 73
2, 751931, Note_on_c, 0, 68, 62
2, 751932, Note_on_c, 0, 80, 67
2, 751942, Note_off_c, 0, 82, 64
2, 751943, Note_off_c, 0, 70, 64
2, 751974, Note_off_c, 0, 68, 64
2, 751974, Note_on_c, 0, 65, 51
2, 751977, Note_on_c, 0, 77, 61
2, 751987, Note_off_c, 0, 80, 64
2, 752012, Note_on_c, 0, 73, 63
2, 752013, Note_off_c, 0, 65, 64
2, 752015, Note_on_c, 0, 61, 44
2, 752025, Note_off_c, 0, 77, 64
2, 752041, Note_off_c, 0, 61, 64
2, 752043, Note_off_c, 0, 73, 64
2, 752052, Note_on_c, 0, 72, 70
2, 752055, Note_on_c, 0, 60, 72
2, 752075, Note_off_c, 0, 60, 64
2, 752077, Note_off_c, 0, 72, 64
2, 752091, Note_on_c, 0, 60, 72
2, 752093, Note_on_c, 0, 72, 68
2, 752135, Note_on_c, 0, 59, 66
2, 752136, Note_on_c, 0, 71, 58
2, 752140, Control_c, 0, 64, 127
2, 752143, Note_off_c, 0, 60, 64
2, 752148, Note_off_c, 0, 72, 64
2, 752224, Note_off_c, 0, 59, 64
2, 752226, Note_off_c, 0, 71, 64
2, 752392, Note_on_c, 0, 29, 67
2, 752400, Note_on_c, 0, 68, 73
2, 752403, Note_on_c, 0, 59, 72
2, 752403, Note_on_c, 0, 56, 73
2, 752403, Note_on_c, 0, 41, 68
2, 752406, Note_on_c, 0, 62, 67
2, 752416, Control_c, 0, 64, 0
2, 752483, Control_c, 0, 64, 127
2, 752514, Note_off_c, 0, 56, 64
2, 752520, Note_off_c, 0, 59, 64
2, 752521, Note_off_c, 0, 62, 64
2, 752533, Note_off_c, 0, 68, 64
2, 752551, Note_off_c, 0, 41, 64
2, 752569, Note_off_c, 0, 29, 64
2, 752774, Note_on_c, 0, 80, 63
2, 752778, Note_on_c, 0, 92, 72
2, 752782, Control_c, 0, 64, 0
2, 752857, Note_on_c, 0, 86, 66
2, 752865, Note_on_c, 0, 74, 54
2, 752875, Note_off_c, 0, 80, 64
2, 752885, Control_c, 0, 64, 127
2, 752907, Note_on_c, 0, 87, 66
2, 752912, Note_on_c, 0, 75, 62
2, 752913, Note_off_c, 0, 86, 64
2, 752921, Note_off_c, 0, 74, 64
2, 752921, Note_off_c, 0, 92, 64
2, 752951, Note_on_c, 0, 88, 57
2, 752959, Note_on_c, 0, 76, 45
2, 752968, Note_off_c, 0, 87, 64
2, 752973, Note_off_c, 0, 75, 64
2, 752983, Control_c, 0, 64, 0
2, 752998, Note_off_c, 0, 88, 64
2, 752999, Note_on_c, 0, 91, 70
2, 753001, Note_on_c, 0, 79, 72
2, 753006, Note_off_c, 0, 76, 64
2, 753037, Note_on_c, 0, 77, 62
2, 753042, Note_on_c, 0, 89, 66
2, 753054, Note_off_c, 0, 91, 64
2, 753066, Note_off_c, 0, 79, 64
2, 753082, Note_on_c, 0, 74, 55
2, 753088, Note_on_c, 0, 86, 56
2, 753095, Note_off_c, 0, 77, 64
2, 753099, Note_off_c, 0, 89, 64
2, 753118, Note_on_c, 0, 71, 62
2, 753120, Note_on_c, 0, 83, 62
2, 753122, Note_off_c, 0, 86, 64
2, 753123, Note_off_c, 0, 74, 64
2, 753134, Control_c, 0, 64, 127
2, 753144, Note_off_c, 0, 71, 64
2, 753146, Note_off_c, 0, 83, 64
2, 753152, Note_on_c, 0, 79, 67
2, 753152, Note_on_c, 0, 67, 67
2, 753200, Note_on_c, 0, 80, 68
2, 753206, Note_on_c, 0, 68, 69
2, 753209, Note_off_c, 0, 67, 64
2, 753209, Note_off_c, 0, 79, 64
2, 753231, Note_on_c, 0, 77, 66
2, 753239, Note_on_c, 0, 65, 64
2, 753248, Note_off_c, 0, 80, 64
2, 753254, Note_off_c, 0, 68, 64
2, 753256, Note_on_c, 0, 62, 54
2, 753261, Note_on_c, 0, 74, 50
2, 753277, Note_off_c, 0, 77, 64
2, 753283, Note_off_c, 0, 65, 64
2, 753290, Note_off_c, 0, 62, 64
2, 753295, Note_off_c, 0, 74, 64
2, 753296, Note_on_c, 0, 71, 72
2, 753300, Note_on_c, 0, 59, 67
2, 753319, Note_off_c, 0, 71, 64
2, 753323, Note_off_c, 0, 59, 64
2, 753328, Note_on_c, 0, 55, 73
2, 753330, Note_on_c, 0, 67, 79
2, 753374, Note_off_c, 0, 55, 64
2, 753376, Note_on_c, 0, 68, 72
2, 753386, Note_on_c, 0, 56, 79
2, 753390, Note_off_c, 0, 67, 64
2, 753411, Note_on_c, 0, 65, 59
2, 753416, Note_on_c, 0, 53, 62
2, 753426, Note_off_c, 0, 68, 64
2, 753427, Note_off_c, 0, 56, 64
2, 753450, Note_on_c, 0, 62, 70
2, 753461, Note_on_c, 0, 50, 58
2, 753464, Note_off_c, 0, 65, 64
2, 753469, Note_off_c, 0, 53, 64
2, 753496, Note_on_c, 0, 59, 69
2, 753497, Note_off_c, 0, 62, 64
2, 753500, Note_on_c, 0, 47, 67
2, 753504, Note_off_c, 0, 50, 64
2, 753505, Control_c, 0, 64, 0
2, 753541, Note_on_c, 0, 48, 68
2, 753548, Note_on_c, 0, 60, 73
2, 753556, Note_off_c, 0, 47, 64
2, 753560, Note_off_c, 0, 59, 64
2, 753588, Control_c, 0, 64, 127
2, 753595, Note_on_c, 0, 65, 45
2, 753603, Note_on_c, 0, 53, 67
2, 753610, Note_off_c, 0, 48, 64
2, 753617, Note_off_c, 0, 60, 64
2, 753648, Note_on_c, 0, 51, 60
2, 753650, Note_on_c, 0, 63, 73
2, 753655, Note_on_c, 0, 0, 59
2, 753657, Note_off_c, 0, 53, 64
2, 753667, Note_off_c, 0, 65, 64
2, 753670, Note_off_c, 0, 0, 64
2, 753674, Note_off_c, 0, 51, 64
2, 753676, Note_off_c, 0, 63, 64
2, 753727, Note_on_c, 0, 68, 72
2, 753728, Note_on_c, 0, 44, 61
2, 753731, Note_on_c, 0, 63, 68
2, 753731, Note_on_c, 0, 60, 67
2, 753731, Note_on_c, 0, 39, 62
2, 753734, Note_on_c, 0, 72, 67
2, 753736, Note_on_c, 0, 51, 81
2, 753747, Control_c, 0, 64, 0
2, 753818, Control_c, 0, 64, 127
2, 753841, Note_off_c, 0, 60, 64
2, 753852, Note_off_c, 0, 63, 64
2, 753859, Note_off_c, 0, 68, 64
2, 753861, Note_off_c, 0, 39, 64
2, 753863, Note_off_c, 0, 72, 64
2, 753867, Note_off_c, 0, 44, 64
2, 753875, Note_off_c, 0, 51, 64
2, 754027, Control_c, 0, 64, 0
2, 754033, Note_on_c, 0, 86, 70
2, 754035, Note_on_c, 0, 62, 62
2, 754035, Note_on_c, 0, 50, 63
2, 754038, Note_on_c, 0, 74, 63
2, 754061, Control_c, 0, 64, 127
2, 754124, Note_off_c, 0, 86, 64
2, 754124, Note_on_c, 0, 85, 68
2, 754126, Note_off_c, 0, 50, 64
2, 754126, Note_off_c, 0, 62, 64
2, 754126, Note_on_c, 0, 49, 57
2, 754128, Note_on_c, 0, 61, 45
2, 754129, Note_off_c, 0, 74, 64
2, 754131, Note_on_c, 0, 73, 72
2, 754165, Note_off_c, 0, 49, 64
2, 754169, Note_off_c, 0, 61, 64
2, 754175, Note_off_c, 0, 73, 64
2, 754176, Note_off_c, 0, 85, 64
2, 754204, Note_on_c, 0, 84, 68
2, 754204, Note_on_c, 0, 72, 64
2, 754206, Note_on_c, 0, 60, 62
2, 754206, Note_on_c, 0, 48, 54
2, 754242, Note_off_c, 0, 48, 64
2, 754244, Note_off_c, 0, 60, 64
2, 754249, Note_off_c, 0, 72, 64
2, 754252, Note_off_c, 0, 84, 64
2, 754257, Control_c, 0, 64, 0
2, 754283, Note_on_c, 0, 72, 68
2, 754285, Note_on_c, 0, 84, 64
2, 754285, Note_on_c, 0, 60, 68
2, 754287, Note_on_c, 0, 48, 61
2, 754307, Control_c, 0, 64, 127
2, 754313, Note_off_c, 0, 60, 64
2, 754318, Note_off_c, 0, 72, 64
2, 754320, Note_off_c, 0, 48, 64
2, 754322, Note_off_c, 0, 84, 64
2, 754359, Note_on_c, 0, 84, 63
2, 754359, Note_on_c, 0, 72, 64
2, 754362, Note_on_c, 0, 60, 63
2, 754362, Note_on_c, 0, 48, 58
2, 754384, Note_off_c, 0, 72, 64
2, 754385, Note_off_c, 0, 60, 64
2, 754387, Note_off_c, 0, 48, 64
2, 754387, Note_off_c, 0, 84, 64
2, 754419, Note_on_c, 0, 72, 62
2, 754421, Note_on_c, 0, 60, 62
2, 754423, Note_on_c, 0, 84, 67
2, 754423, Note_on_c, 0, 48, 54
2, 754445, Note_off_c, 0, 72, 64
2, 754446, Note_off_c, 0, 84, 64
2, 754448, Note_off_c, 0, 60, 64
2, 754452, Note_off_c, 0, 48, 64
2, 754544, Note_on_c, 0, 59, 73
2, 754548, Note_on_c, 0, 47, 62
2, 754584, Control_c, 0, 64, 0
2, 754587, Note_on_c, 0, 48, 62
2, 754594, Note_on_c, 0, 60, 67
2, 754608, Note_off_c, 0, 47, 64
2, 754608, Note_off_c, 0, 59, 64
2, 754643, Control_c, 0, 64, 127
2, 754646, Note_on_c, 0, 65, 66
2, 754650, Note_on_c, 0, 53, 73
2, 754653, Note_off_c, 0, 48, 64
2, 754665, Note_off_c, 0, 60, 64
2, 754691, Note_on_c, 0, 64, 62
2, 754695, Note_on_c, 0, 52, 67
2, 754699, Note_off_c, 0, 65, 64
2, 754708, Note_off_c, 0, 53, 64
2, 754717, Note_off_c, 0, 64, 64
2, 754718, Note_off_c, 0, 52, 64
2, 754787, Note_on_c, 0, 72, 70
2, 754787, Note_on_c, 0, 68, 68
2, 754791, Note_on_c, 0, 64, 70
2, 754791, Note_on_c, 0, 60, 70
2, 754791, Note_on_c, 0, 52, 72
2, 754791, Note_on_c, 0, 48, 68
2, 754791, Note_on_c, 0, 40, 62
2, 754798, Control_c, 0, 64, 0
2, 754842, Control_c, 0, 64, 127
2, 754872, Note_off_c, 0, 60, 64
2, 754879, Note_off_c, 0, 64, 64
2, 754885, Note_off_c, 0, 68, 64
2, 754889, Note_off_c, 0, 40, 64
2, 754891, Note_off_c, 0, 72, 64
2, 754892, Note_off_c, 0, 48, 64
2, 754903, Note_off_c, 0, 52, 64
2, 755042, Control_c, 0, 64, 0
2, 755052, Note_on_c, 0, 86, 68
2, 755054, Note_on_c, 0, 74, 57
2, 755054, Note_on_c, 0, 62, 62
2, 755054, Note_on_c, 0, 50, 53
2, 755076, Control_c, 0, 64, 127
2, 755129, Note_off_c, 0, 86, 64
2, 755131, Note_off_c, 0, 50, 64
2, 755131, Note_off_c, 0, 62, 64
2, 755131, Note_off_c, 0, 74, 64
2, 755133, Note_on_c, 0, 85, 62
2, 755136, Note_on_c, 0, 73, 73
2, 755140, Note_on_c, 0, 49, 64
2, 755142, Note_on_c, 0, 61, 66
2, 755168, Note_off_c, 0, 49, 64
2, 755176, Note_off_c, 0, 61, 64
2, 755183, Note_off_c, 0, 73, 64
2, 755184, Note_off_c, 0, 85, 64
2, 755209, Note_on_c, 0, 84, 69
2, 755209, Note_on_c, 0, 72, 63
2, 755211, Note_on_c, 0, 60, 63
2, 755213, Note_on_c, 0, 48, 47
2, 755218, Control_c, 0, 64, 0
2, 755256, Control_c, 0, 64, 127
2, 755262, Note_off_c, 0, 48, 64
2, 755264, Note_off_c, 0, 60, 64
2, 755266, Note_off_c, 0, 84, 64
2, 755270, Note_off_c, 0, 72, 64
2, 755286, Note_on_c, 0, 60, 59
2, 755290, Note_on_c, 0, 84, 67
2, 755290, Note_on_c, 0, 72, 59
2, 755290, Note_on_c, 0, 48, 58
2, 755316, Note_off_c, 0, 48, 64
2, 755316, Note_off_c, 0, 72, 64
2, 755316, Note_off_c, 0, 60, 64
2, 755318, Note_off_c, 0, 84, 64
2, 755346, Note_on_c, 0, 84, 67
2, 755346, Note_on_c, 0, 72, 68
2, 755350, Note_on_c, 0, 60, 52
2, 755350, Note_on_c, 0, 48, 59
2, 755369, Note_off_c, 0, 72, 64
2, 755371, Note_off_c, 0, 48, 64
2, 755373, Note_off_c, 0, 60, 64
2, 755373, Note_off_c, 0, 84, 64
2, 755406, Note_on_c, 0, 72, 67
2, 755410, Note_on_c, 0, 84, 67
2, 755410, Note_on_c, 0, 60, 68
2, 755412, Note_on_c, 0, 48, 59
2, 755432, Note_off_c, 0, 72, 64
2, 755434, Note_off_c, 0, 48, 64
2, 755434, Note_off_c, 0, 84, 64
2, 755437, Note_off_c, 0, 60, 64
2, 755467, Note_on_c, 0, 72, 72
2, 755468, Note_on_c, 0, 84, 66
2, 755468, Note_on_c, 0, 60, 67
2, 755472, Note_on_c, 0, 48, 57
2, 755478, Note_off_c, 0, 84, 64
2, 755485, Note_off_c, 0, 60, 64
2, 755485, Note_off_c, 0, 72, 64
2, 755486, Note_off_c, 0, 48, 64
2, 755515, Control_c, 0, 64, 0
2, 755531, Note_on_c, 0, 47, 62
2, 755532, Note_on_c, 0, 59, 72
2, 755572, Note_on_c, 0, 48, 48
2, 755577, Control_c, 0, 64, 127
2, 755583, Note_on_c, 0, 60, 72
2, 755584, Note_off_c, 0, 47, 64
2, 755592, Note_off_c, 0, 59, 64
2, 755636, Note_on_c, 0, 67, 60
2, 755640, Note_on_c, 0, 55, 67
2, 755652, Note_off_c, 0, 48, 64
2, 755667, Note_off_c, 0, 60, 64
2, 755682, Note_on_c, 0, 65, 67
2, 755687, Note_on_c, 0, 53, 62
2, 755691, Note_off_c, 0, 55, 64
2, 755693, Note_off_c, 0, 67, 64
2, 755706, Note_off_c, 0, 65, 64
2, 755709, Note_off_c, 0, 53, 64
2, 755768, Note_on_c, 0, 68, 69
2, 755768, Note_on_c, 0, 56, 69
2, 755771, Note_on_c, 0, 72, 70
2, 755771, Note_on_c, 0, 65, 70
2, 755771, Note_on_c, 0, 60, 70
2, 755774, Note_on_c, 0, 41, 56
2, 755775, Note_on_c, 0, 48, 63
2, 755785, Control_c, 0, 64, 0
2, 755842, Control_c, 0, 64, 127
2, 755916, Note_off_c, 0, 72, 64
2, 755921, Note_off_c, 0, 65, 64
2, 755923, Note_off_c, 0, 48, 64
2, 755924, Note_off_c, 0, 68, 64
2, 755925, Note_off_c, 0, 41, 64
2, 755943, Note_off_c, 0, 60, 64
2, 755962, Note_off_c, 0, 56, 64
2, 756026, Note_on_c, 0, 59, 64
2, 756027, Note_on_c, 0, 47, 66
2, 756038, Control_c, 0, 64, 0
2, 756077, Note_on_c, 0, 60, 67
2, 756077, Note_on_c, 0, 48, 63
2, 756083, Note_off_c, 0, 47, 64
2, 756090, Note_off_c, 0, 59, 64
2, 756101, Control_c, 0, 64, 127
2, 756136, Note_on_c, 0, 58, 63
2, 756140, Note_off_c, 0, 48, 64
2, 756140, Note_on_c, 0, 70, 56
2, 756151, Note_off_c, 0, 60, 64
2, 756188, Note_on_c, 0, 68, 67
2, 756193, Note_on_c, 0, 56, 56
2, 756195, Note_off_c, 0, 58, 64
2, 756200, Note_off_c, 0, 70, 64
2, 756204, Note_off_c, 0, 56, 64
2, 756211, Note_off_c, 0, 68, 64
2, 756273, Note_on_c, 0, 68, 68
2, 756276, Note_on_c, 0, 63, 72
2, 756276, Note_on_c, 0, 60, 72
2, 756276, Control_c, 0, 64, 0
2, 756281, Note_on_c, 0, 72, 72
2, 756281, Note_on_c, 0, 42, 63
2, 756282, Note_on_c, 0, 54, 85
2, 756282, Note_on_c, 0, 44, 67
2, 756477, Note_off_c, 0, 72, 64
2, 756477, Note_off_c, 0, 63, 64
2, 756477, Note_off_c, 0, 68, 64
2, 756480, Note_off_c, 0, 44, 64
2, 756480, Note_off_c, 0, 42, 64
2, 756487, Note_off_c, 0, 60, 64
2, 756492, Note_off_c, 0, 54, 64
2, 756560, Control_c, 0, 64, 127
2, 756564, Note_on_c, 0, 72, 70
2, 756564, Note_on_c, 0, 68, 68
2, 756564, Note_on_c, 0, 63, 68
2, 756569, Note_on_c, 0, 60, 68
2, 756569, Note_on_c, 0, 42, 68
2, 756570, Note_on_c, 0, 54, 67
2, 756574, Note_on_c, 0, 44, 66
2, 756576, Note_off_c, 0, 60, 64
2, 756580, Note_off_c, 0, 63, 64
2, 756583, Note_off_c, 0, 68, 64
2, 756585, Note_off_c, 0, 42, 64
2, 756586, Note_off_c, 0, 72, 64
2, 756587, Note_off_c, 0, 44, 64
2, 756590, Note_off_c, 0, 54, 64
2, 756688, Note_on_c, 0, 84, 72
2, 756688, Note_on_c, 0, 48, 57
2, 756691, Note_on_c, 0, 60, 67
2, 756693, Note_on_c, 0, 72, 62
2, 756703, Note_off_c, 0, 48, 64
2, 756703, Note_off_c, 0, 84, 64
2, 756704, Note_off_c, 0, 72, 64
2, 756704, Note_off_c, 0, 60, 64
2, 756812, Control_c, 0, 64, 0
2, 756829, Note_on_c, 0, 76, 70
2, 756830, Note_on_c, 0, 73, 68
2, 756832, Note_on_c, 0, 46, 57
2, 756833, Note_on_c, 0, 70, 68
2, 756833, Note_on_c, 0, 64, 67
2, 756833, Note_on_c, 0, 43, 67
2, 756837, Note_on_c, 0, 55, 70
2, 756847, Note_off_c, 0, 64, 64
2, 756854, Note_off_c, 0, 46, 64
2, 756855, Note_off_c, 0, 43, 64
2, 756855, Note_off_c, 0, 70, 64
2, 756856, Control_c, 0, 64, 127
2, 756859, Note_off_c, 0, 73, 64
2, 756863, Note_off_c, 0, 76, 64
2, 756864, Note_off_c, 0, 55, 64
2, 756980, Note_on_c, 0, 85, 72
2, 756980, Note_on_c, 0, 61, 70
2, 756980, Note_on_c, 0, 49, 57
2, 756984, Note_on_c, 0, 73, 84
2, 756995, Note_off_c, 0, 49, 64
2, 756995, Note_off_c, 0, 61, 64
2, 756997, Note_off_c, 0, 73, 64
2, 756997, Note_off_c, 0, 85, 64
2, 757107, Control_c, 0, 64, 0
2, 757122, Note_on_c, 0, 77, 73
2, 757123, Note_on_c, 0, 73, 72
2, 757124, Note_on_c, 0, 65, 68
2, 757128, Note_on_c, 0, 68, 57
2, 757128, Note_on_c, 0, 49, 57
2, 757129, Note_on_c, 0, 56, 73
2, 757130, Note_on_c, 0, 44, 72
2, 757138, Note_off_c, 0, 65, 64
2, 757143, Note_off_c, 0, 68, 64
2, 757143, Control_c, 0, 64, 127
2, 757146, Note_off_c, 0, 73, 64
2, 757151, Note_off_c, 0, 77, 64
2, 757152, Note_off_c, 0, 49, 64
2, 757153, Note_off_c, 0, 56, 64
2, 757154, Note_off_c, 0, 44, 64
2, 757248, Note_on_c, 0, 56, 57
2, 757255, Note_on_c, 0, 92, 73
2, 757257, Note_on_c, 0, 80, 72
2, 757259, Note_on_c, 0, 68, 68
2, 757263, Note_off_c, 0, 56, 64
2, 757272, Note_off_c, 0, 92, 64
2, 757273, Note_off_c, 0, 80, 64
2, 757278, Note_off_c, 0, 68, 64
2, 757372, Control_c, 0, 64, 0
2, 757387, Note_on_c, 0, 79, 68
2, 757387, Note_on_c, 0, 67, 68
2, 757390, Note_on_c, 0, 77, 70
2, 757390, Note_on_c, 0, 73, 67
2, 757390, Note_on_c, 0, 58, 84
2, 757390, Note_on_c, 0, 46, 68
2, 757394, Note_on_c, 0, 49, 66
2, 757404, Note_off_c, 0, 67, 64
2, 757411, Control_c, 0, 64, 127
2, 757422, Note_off_c, 0, 73, 64
2, 757427, Note_off_c, 0, 46, 64
2, 757428, Note_off_c, 0, 49, 64
2, 757430, Note_off_c, 0, 77, 64
2, 757434, Note_off_c, 0, 79, 64
2, 757438, Note_off_c, 0, 58, 64
2, 757527, Note_on_c, 0, 91, 73
2, 757528, Note_on_c, 0, 55, 57
2, 757529, Note_on_c, 0, 79, 67
2, 757532, Note_on_c, 0, 67, 72
2, 757543, Note_off_c, 0, 55, 64
2, 757543, Note_off_c, 0, 91, 64
2, 757547, Note_off_c, 0, 79, 64
2, 757548, Note_off_c, 0, 67, 64
2, 757673, Control_c, 0, 64, 0
2, 757686, Note_on_c, 0, 71, 75
2, 757688, Note_on_c, 0, 59, 87
2, 757688, Note_on_c, 0, 47, 87
2, 757689, Note_on_c, 0, 35, 94
2, 757714, Control_c, 0, 64, 127
2, 757751, Note_off_c, 0, 71, 64
2, 757753, Note_off_c, 0, 47, 64
2, 757753, Note_off_c, 0, 59, 64
2, 757754, Note_off_c, 0, 35, 64
2, 757942, Note_on_c, 0, 59, 59
2, 757964, Control_c, 0, 64, 0
2, 757977, Note_on_c, 0, 65, 56
2, 757978, Note_on_c, 0, 61, 53
2, 757986, Note_on_c, 0, 101, 79
2, 757992, Note_on_c, 0, 73, 84
2, 758061, Control_c, 0, 64, 127
2, 758254, Note_off_c, 0, 61, 64
2, 758255, Note_on_c, 0, 99, 66
2, 758262, Note_off_c, 0, 101, 64
2, 758303, Note_on_c, 0, 97, 75
2, 758314, Note_off_c, 0, 59, 64
2, 758322, Note_off_c, 0, 99, 64
2, 758324, Note_off_c, 0, 73, 64
2, 758329, Note_off_c, 0, 65, 64
2, 758335, Note_on_c, 0, 92, 68
2, 758351, Note_off_c, 0, 97, 64
2, 758371, Note_on_c, 0, 89, 62
2, 758378, Note_off_c, 0, 92, 64
2, 758401, Note_on_c, 0, 87, 60
2, 758416, Note_off_c, 0, 89, 64
2, 758431, Note_on_c, 0, 85, 48
2, 758442, Note_off_c, 0, 87, 64
2, 758450, Note_on_c, 0, 80, 66
2, 758461, Note_off_c, 0, 85, 64
2, 758473, Note_off_c, 0, 80, 64
2, 758477, Note_on_c, 0, 77, 67
2, 758487, Note_off_c, 0, 77, 64
2, 758503, Note_on_c, 0, 75, 46
2, 758527, Note_on_c, 0, 73, 44
2, 758530, Note_off_c, 0, 75, 64
2, 758556, Note_on_c, 0, 68, 68
2, 758564, Note_off_c, 0, 73, 64
2, 758580, Note_off_c, 0, 68, 64
2, 758582, Note_on_c, 0, 65, 72
2, 758597, Note_off_c, 0, 65, 64
2, 758609, Note_on_c, 0, 63, 72
2, 758626, Note_on_c, 0, 61, 76
2, 758636, Note_off_c, 0, 63, 64
2, 758650, Note_on_c, 0, 56, 77
2, 758657, Note_off_c, 0, 61, 64
2, 758671, Note_off_c, 0, 56, 64
2, 758673, Note_on_c, 0, 53, 72
2, 758686, Note_off_c, 0, 53, 64
2, 758688, Note_on_c, 0, 51, 64
2, 758703, Note_off_c, 0, 51, 64
2, 758720, Note_on_c, 0, 49, 57
2, 758735, Note_off_c, 0, 49, 64
2, 758744, Note_on_c, 0, 44, 57
2, 758745, Note_on_c, 0, 41, 78
2, 758759, Note_off_c, 0, 44, 64
2, 758822, Note_on_c, 0, 31, 67
2, 758822, Note_on_c, 0, 29, 67
2, 758832, Note_off_c, 0, 31, 64
2, 758833, Note_on_c, 0, 43, 79
2, 758852, Note_off_c, 0, 29, 64
2, 758856, Note_off_c, 0, 41, 64
2, 758881, Note_off_c, 0, 43, 64
2, 758881, Note_on_c, 0, 41, 70
2, 758886, Note_on_c, 0, 29, 50
2, 758908, Note_on_c, 0, 43, 71
2, 758910, Note_off_c, 0, 29, 64
2, 758912, Note_off_c, 0, 41, 64
2, 758915, Note_on_c, 0, 31, 62
2, 758934, Note_off_c, 0, 43, 64
2, 758935, Note_on_c, 0, 41, 46
2, 758937, Note_off_c, 0, 31, 64
2, 758953, Note_on_c, 0, 31, 63
2, 758956, Note_on_c, 0, 43, 59
2, 758960, Note_off_c, 0, 41, 64
2, 758968, Note_off_c, 0, 31, 64
2, 758972, Note_on_c, 0, 29, 76
2, 758982, Note_off_c, 0, 43, 64
2, 758982, Note_on_c, 0, 41, 56
2, 758984, Note_off_c, 0, 29, 64
2, 758985, Note_on_c, 0, 31, 76
2, 759000, Note_off_c, 0, 31, 64
2, 759006, Note_on_c, 0, 29, 76
2, 759008, Note_off_c, 0, 41, 64
2, 759008, Note_on_c, 0, 43, 69
2, 759018, Note_off_c, 0, 29, 64
2, 759030, Note_off_c, 0, 43, 64
2, 759032, Note_on_c, 0, 41, 77
2, 759037, Note_on_c, 0, 29, 77
2, 759043, Note_on_c, 0, 31, 71
2, 759048, Note_off_c, 0, 29, 64
2, 759055, Note_off_c, 0, 41, 64
2, 759059, Note_on_c, 0, 43, 56
2, 759067, Note_on_c, 0, 29, 70
2, 759070, Note_off_c, 0, 31, 64
2, 759081, Note_on_c, 0, 31, 71
2, 759082, Note_on_c, 0, 41, 64
2, 759097, Note_off_c, 0, 43, 64
2, 759120, Note_off_c, 0, 31, 64
2, 759124, Control_c, 0, 64, 0
2, 759127, Note_on_c, 0, 40, 72
2, 759132, Note_on_c, 0, 28, 81
2, 759134, Note_off_c, 0, 41, 64
2, 759135, Note_off_c, 0, 29, 64
2, 759172, Note_on_c, 0, 41, 74
2, 759176, Note_on_c, 0, 29, 87
2, 759178, Note_off_c, 0, 40, 64
2, 759181, Note_off_c, 0, 28, 64
2, 759200, Control_c, 0, 64, 127
2, 759225, Note_on_c, 0, 37, 35
2, 759227, Note_off_c, 0, 41, 64
2, 759230, Note_on_c, 0, 49, 69
2, 759231, Note_off_c, 0, 29, 64
2, 759235, Note_off_c, 0, 37, 64
2, 759240, Note_off_c, 0, 49, 64
2, 759283, Note_on_c, 0, 48, 85
2, 759283, Note_on_c, 0, 36, 79
2, 759293, Note_off_c, 0, 36, 64
2, 759293, Note_off_c, 0, 48, 64
2, 759330, Note_on_c, 0, 31, 70
2, 759331, Note_on_c, 0, 43, 85
2, 759340, Note_off_c, 0, 31, 64
2, 759341, Note_off_c, 0, 43, 64
2, 759373, Note_on_c, 0, 47, 86
2, 759373, Note_on_c, 0, 35, 89
2, 759383, Note_off_c, 0, 35, 64
2, 759383, Note_off_c, 0, 47, 64
2, 759406, Note_on_c, 0, 30, 90
2, 759409, Note_on_c, 0, 42, 90
2, 759416, Note_off_c, 0, 30, 64
2, 759419, Note_off_c, 0, 42, 64
2, 759435, Note_on_c, 0, 34, 85
2, 759440, Note_on_c, 0, 46, 87
2, 759445, Note_off_c, 0, 34, 64
2, 759450, Note_off_c, 0, 46, 64
2, 759475, Note_on_c, 0, 41, 91
2, 759480, Note_on_c, 0, 33, 79
2, 759485, Note_off_c, 0, 41, 64
2, 759490, Note_off_c, 0, 33, 64
2, 759502, Note_on_c, 0, 29, 79
2, 759503, Note_on_c, 0, 45, 97
2, 759512, Note_off_c, 0, 29, 64
2, 759513, Note_off_c, 0, 45, 64
2, 759532, Note_on_c, 0, 41, 91
2, 759537, Note_on_c, 0, 32, 83
2, 759542, Note_off_c, 0, 41, 64
2, 759547, Note_off_c, 0, 32, 64
2, 759554, Note_on_c, 0, 44, 97
2, 759564, Note_off_c, 0, 44, 64
2, 759580, Note_on_c, 0, 36, 108
2, 759580, Note_on_c, 0, 24, 120
2, 759596, Control_c, 0, 64, 0
2, 759691, Control_c, 0, 64, 127
2, 759745, Note_off_c, 0, 36, 64
2, 759746, Note_off_c, 0, 24, 64
2, 759756, Control_c, 0, 64, 0
2, 760242, Note_on_c, 0, 60, 97
2, 760242, Note_on_c, 0, 55, 97
2, 760245, Note_on_c, 0, 48, 97
2, 760245, Note_on_c, 0, 36, 97
2, 760248, Note_on_c, 0, 43, 97
2, 760431, Control_c, 0, 64, 127
2, 760752, Note_off_c, 0, 43, 64
2, 760772, Note_off_c, 0, 36, 64
2, 760787, Note_off_c, 0, 55, 64
2, 760799, Note_off_c, 0, 48, 64
2, 760844, Note_off_c, 0, 60, 64
2, 760927, Control_c, 0, 64, 0
2, 760976, Note_on_c, 0, 53, 97
2, 760980, Note_on_c, 0, 56, 97
2, 760984, Note_on_c, 0, 60, 97
2, 760984, Note_on_c, 0, 48, 97
2, 760984, Note_on_c, 0, 41, 97
2, 760984, Note_on_c, 0, 29, 97
2, 762254, Control_c, 0, 64, 127
2, 762387, Note_off_c, 0, 29, 64
2, 762397, Note_off_c, 0, 53, 64
2, 762406, Note_off_c, 0, 60, 64
2, 762410, Note_off_c, 0, 41, 64
2, 762410, Note_off_c, 0, 48, 64
2, 762411, Note_off_c, 0, 56, 64
2, 762470, Control_c, 0, 64, 0
2, 763337, Control_c, 0, 64, 127
2, 763338, Control_c, 0, 64, 127
2, 763391, Control_c, 0, 64, 0
2, 763391, Control_c, 0, 64, 0
2, 763431, Control_c, 0, 64, 127
2, 763431, Control_c, 0, 64, 127
2, 763624, Note_on_c, 0, 70, 55
2, 763794, Note_off_c, 0, 70, 64
2, 763832, Note_on_c, 0, 70, 66
2, 763835, Note_on_c, 0, 39, 28
2, 763928, Note_on_c, 0, 58, 56
2, 763934, Note_on_c, 0, 55, 45
2, 763960, Note_off_c, 0, 70, 64
2, 763980, Note_off_c, 0, 58, 64
2, 763987, Note_on_c, 0, 46, 57
2, 763989, Note_on_c, 0, 67, 46
2, 763995, Note_off_c, 0, 39, 64
2, 764001, Note_off_c, 0, 55, 64
2, 764049, Note_on_c, 0, 39, 35
2, 764056, Note_off_c, 0, 67, 64
2, 764056, Note_on_c, 0, 75, 65
2, 764058, Note_off_c, 0, 46, 64
2, 764121, Note_on_c, 0, 63, 56
2, 764126, Note_on_c, 0, 55, 35
2, 764151, Note_off_c, 0, 75, 64
2, 764180, Note_on_c, 0, 46, 57
2, 764183, Note_on_c, 0, 70, 64
2, 764186, Note_off_c, 0, 63, 64
2, 764199, Note_off_c, 0, 55, 64
2, 764209, Note_off_c, 0, 39, 64
2, 764239, Note_on_c, 0, 79, 67
2, 764242, Note_off_c, 0, 70, 64
2, 764245, Note_on_c, 0, 39, 66
2, 764251, Note_off_c, 0, 46, 64
2, 764296, Note_on_c, 0, 67, 35
2, 764296, Note_on_c, 0, 58, 67
2, 764310, Note_off_c, 0, 79, 64
2, 764350, Note_off_c, 0, 58, 64
2, 764351, Note_on_c, 0, 75, 73
2, 764353, Note_on_c, 0, 46, 57
2, 764359, Note_off_c, 0, 67, 64
2, 764390, Note_off_c, 0, 39, 64
2, 764404, Note_on_c, 0, 39, 46
2, 764407, Note_off_c, 0, 46, 64
2, 764408, Note_on_c, 0, 82, 79
2, 764410, Note_off_c, 0, 75, 64
2, 764461, Note_on_c, 0, 70, 67
2, 764465, Note_on_c, 0, 63, 27
2, 764472, Note_off_c, 0, 82, 64
2, 764504, Note_off_c, 0, 63, 64
2, 764509, Note_on_c, 0, 55, 68
2, 764512, Note_off_c, 0, 70, 64
2, 764514, Note_on_c, 0, 79, 73
2, 764545, Note_off_c, 0, 55, 64
2, 764563, Note_on_c, 0, 87, 73
2, 764564, Note_off_c, 0, 39, 64
2, 764566, Note_on_c, 0, 46, 68
2, 764570, Note_off_c, 0, 79, 64
2, 764619, Note_on_c, 0, 75, 71
2, 764622, Note_on_c, 0, 67, 67
2, 764636, Note_off_c, 0, 87, 64
2, 764670, Note_on_c, 0, 58, 71
2, 764673, Note_on_c, 0, 82, 75
2, 764683, Note_off_c, 0, 67, 64
2, 764693, Note_off_c, 0, 75, 64
2, 764716, Control_c, 0, 64, 0
2, 764720, Control_c, 0, 64, 0
2, 764724, Note_on_c, 0, 51, 64
2, 764726, Note_off_c, 0, 46, 64
2, 764726, Note_on_c, 0, 91, 78
2, 764733, Note_off_c, 0, 82, 64
2, 764735, Note_off_c, 0, 58, 64
2, 764739, Control_c, 0, 64, 127
2, 764739, Control_c, 0, 64, 127
2, 764779, Note_on_c, 0, 70, 78
2, 764783, Note_on_c, 0, 75, 66
2, 764799, Note_off_c, 0, 91, 64
2, 764832, Note_off_c, 0, 70, 64
2, 764835, Note_on_c, 0, 82, 78
2, 764835, Note_on_c, 0, 58, 52
2, 764861, Note_off_c, 0, 75, 64
2, 764869, Note_off_c, 0, 51, 64
2, 764879, Control_c, 0, 64, 0
2, 764879, Control_c, 0, 64, 0
2, 764884, Note_off_c, 0, 58, 64
2, 764887, Note_on_c, 0, 51, 56
2, 764889, Note_on_c, 0, 89, 68
2, 764892, Note_off_c, 0, 82, 64
2, 764894, Control_c, 0, 64, 127
2, 764895, Control_c, 0, 64, 127
2, 764939, Note_on_c, 0, 74, 66
2, 764942, Note_on_c, 0, 71, 46
2, 764962, Note_off_c, 0, 89, 64
2, 764982, Note_off_c, 0, 71, 64
2, 764994, Note_on_c, 0, 59, 50
2, 764996, Note_on_c, 0, 80, 70
2, 765013, Note_off_c, 0, 74, 64
2, 765032, Note_off_c, 0, 51, 64
2, 765034, Control_c, 0, 64, 0
2, 765034, Control_c, 0, 64, 0
2, 765040, Note_off_c, 0, 59, 64
2, 765047, Note_on_c, 0, 51, 50
2, 765049, Note_on_c, 0, 87, 68
2, 765053, Note_off_c, 0, 80, 64
2, 765056, Control_c, 0, 64, 127
2, 765057, Control_c, 0, 64, 127
2, 765102, Note_on_c, 0, 72, 50
2, 765104, Note_on_c, 0, 75, 66
2, 765122, Note_off_c, 0, 87, 64
2, 765148, Note_on_c, 0, 60, 66
2, 765150, Note_off_c, 0, 72, 64
2, 765152, Note_on_c, 0, 80, 68
2, 765167, Note_off_c, 0, 75, 64
2, 765192, Note_off_c, 0, 51, 64
2, 765192, Control_c, 0, 64, 0
2, 765192, Control_c, 0, 64, 0
2, 765199, Note_off_c, 0, 60, 64
2, 765204, Note_on_c, 0, 84, 72
2, 765208, Note_on_c, 0, 51, 78
2, 765211, Note_off_c, 0, 80, 64
2, 765216, Control_c, 0, 64, 127
2, 765216, Control_c, 0, 64, 127
2, 765257, Note_on_c, 0, 72, 63
2, 765258, Note_on_c, 0, 68, 79
2, 765306, Note_off_c, 0, 84, 64
2, 765307, Note_on_c, 0, 80, 73
2, 765311, Note_off_c, 0, 68, 64
2, 765311, Note_on_c, 0, 62, 51
2, 765336, Note_off_c, 0, 72, 64
2, 765353, Note_off_c, 0, 51, 64
2, 765358, Note_off_c, 0, 62, 64
2, 765362, Control_c, 0, 64, 0
2, 765363, Control_c, 0, 64, 0
2, 765371, Note_off_c, 0, 80, 64
2, 765371, Note_on_c, 0, 84, 73
2, 765373, Note_on_c, 0, 51, 60
2, 765395, Control_c, 0, 64, 127
2, 765395, Control_c, 0, 64, 127
2, 765429, Note_on_c, 0, 72, 57
2, 765436, Note_on_c, 0, 67, 43
2, 765471, Note_off_c, 0, 84, 64
2, 765473, Note_on_c, 0, 63, 47
2, 765477, Note_on_c, 0, 79, 60
2, 765483, Note_off_c, 0, 72, 64
2, 765487, Note_off_c, 0, 67, 64
2, 765518, Note_off_c, 0, 51, 64
2, 765528, Note_on_c, 0, 82, 68
2, 765530, Note_on_c, 0, 58, 38
2, 765532, Note_off_c, 0, 63, 64
2, 765535, Note_off_c, 0, 79, 64
2, 765584, Note_on_c, 0, 70, 56
2, 765584, Note_on_c, 0, 67, 50
2, 765626, Note_off_c, 0, 82, 64
2, 765629, Note_on_c, 0, 63, 68
2, 765632, Note_off_c, 0, 67, 64
2, 765632, Note_on_c, 0, 75, 73
2, 765648, Note_off_c, 0, 70, 64
2, 765677, Note_off_c, 0, 63, 64
2, 765690, Note_off_c, 0, 58, 64
2, 765691, Note_off_c, 0, 75, 64
2, 765696, Note_on_c, 0, 79, 68
2, 765698, Note_on_c, 0, 51, 55
2, 765708, Control_c, 0, 64, 0
2, 765708, Control_c, 0, 64, 0
2, 765734, Control_c, 0, 64, 127
2, 765734, Control_c, 0, 64, 127
2, 765751, Note_on_c, 0, 67, 56
2, 765754, Note_on_c, 0, 63, 35
2, 765778, Note_off_c, 0, 79, 64
2, 765794, Note_off_c, 0, 63, 64
2, 765811, Note_on_c, 0, 70, 60
2, 765813, Note_on_c, 0, 55, 45
2, 765825, Note_off_c, 0, 67, 64
2, 765858, Note_off_c, 0, 51, 64
2, 765861, Note_off_c, 0, 55, 64
2, 765882, Control_c, 0, 64, 0
2, 765882, Control_c, 0, 64, 0
2, 765885, Note_off_c, 0, 70, 64
2, 765891, Note_on_c, 0, 75, 68
2, 765893, Note_on_c, 0, 41, 38
2, 765904, Control_c, 0, 64, 127
2, 765905, Control_c, 0, 64, 127
2, 765953, Note_on_c, 0, 63, 46
2, 765956, Note_on_c, 0, 60, 35
2, 766002, Note_off_c, 0, 75, 64
2, 766007, Note_on_c, 0, 69, 35
2, 766007, Note_on_c, 0, 53, 35
2, 766053, Note_off_c, 0, 60, 64
2, 766053, Note_off_c, 0, 41, 64
2, 766055, Note_off_c, 0, 63, 64
2, 766060, Note_off_c, 0, 69, 64
2, 766060, Note_on_c, 0, 74, 71
2, 766065, Note_off_c, 0, 53, 64
2, 766068, Note_on_c, 0, 48, 43
2, 766111, Note_on_c, 0, 62, 57
2, 766118, Note_on_c, 0, 60, 54
2, 766148, Note_off_c, 0, 74, 64
2, 766160, Note_off_c, 0, 60, 64
2, 766161, Note_on_c, 0, 53, 64
2, 766163, Note_on_c, 0, 69, 66
2, 766164, Note_off_c, 0, 62, 64
2, 766202, Note_off_c, 0, 69, 64
2, 766209, Note_off_c, 0, 53, 64
2, 766216, Note_on_c, 0, 41, 70
2, 766217, Note_on_c, 0, 75, 73
2, 766228, Note_off_c, 0, 48, 64
2, 766270, Note_on_c, 0, 63, 54
2, 766271, Note_on_c, 0, 60, 45
2, 766318, Note_off_c, 0, 63, 64
2, 766322, Note_on_c, 0, 69, 68
2, 766326, Note_off_c, 0, 75, 64
2, 766327, Note_off_c, 0, 60, 64
2, 766327, Note_on_c, 0, 53, 56
2, 766361, Note_off_c, 0, 69, 64
2, 766370, Note_off_c, 0, 53, 64
2, 766376, Note_off_c, 0, 41, 64
2, 766377, Control_c, 0, 64, 0
2, 766378, Control_c, 0, 64, 0
2, 766386, Note_on_c, 0, 46, 50
2, 766391, Note_on_c, 0, 79, 79
2, 766402, Control_c, 0, 64, 127
2, 766402, Control_c, 0, 64, 127
2, 766447, Note_on_c, 0, 67, 55
2, 766449, Note_on_c, 0, 63, 38
2, 766491, Note_off_c, 0, 79, 64
2, 766495, Note_on_c, 0, 70, 70
2, 766498, Note_on_c, 0, 53, 39
2, 766499, Note_off_c, 0, 63, 64
2, 766511, Note_off_c, 0, 67, 64
2, 766546, Note_off_c, 0, 46, 64
2, 766551, Note_on_c, 0, 77, 73
2, 766552, Note_on_c, 0, 50, 55
2, 766555, Note_off_c, 0, 53, 64
2, 766557, Note_off_c, 0, 70, 64
2, 766610, Note_on_c, 0, 62, 35
2, 766614, Note_on_c, 0, 65, 49
2, 766617, Note_off_c, 0, 77, 64
2, 766648, Note_off_c, 0, 62, 64
2, 766653, Note_on_c, 0, 70, 68
2, 766656, Note_on_c, 0, 53, 38
2, 766664, Note_off_c, 0, 65, 64
2, 766695, Note_off_c, 0, 53, 64
2, 766698, Control_c, 0, 64, 0
2, 766698, Control_c, 0, 64, 0
2, 766708, Note_on_c, 0, 74, 66
2, 766708, Note_on_c, 0, 46, 50
2, 766712, Note_off_c, 0, 70, 64
2, 766712, Note_off_c, 0, 50, 64
2, 766732, Control_c, 0, 64, 127
2, 766732, Control_c, 0, 64, 127
2, 766758, Note_on_c, 0, 62, 38
2, 766766, Note_on_c, 0, 58, 39
2, 766803, Note_off_c, 0, 74, 64
2, 766810, Note_off_c, 0, 58, 64
2, 766814, Note_on_c, 0, 65, 59
2, 766817, Note_on_c, 0, 53, 53
2, 766828, Note_off_c, 0, 62, 64
2, 766853, Note_off_c, 0, 65, 64
2, 766865, Note_off_c, 0, 53, 64
2, 766868, Note_off_c, 0, 46, 64
2, 766870, Control_c, 0, 64, 0
2, 766870, Control_c, 0, 64, 0
2, 766878, Note_on_c, 0, 41, 74
2, 766883, Note_on_c, 0, 75, 74
2, 766894, Control_c, 0, 64, 127
2, 766895, Control_c, 0, 64, 127
2, 766951, Note_on_c, 0, 63, 56
2, 766954, Note_on_c, 0, 60, 43
2, 766999, Note_off_c, 0, 75, 64
2, 767000, Note_on_c, 0, 53, 54
2, 767004, Note_on_c, 0, 69, 58
2, 767027, Note_off_c, 0, 60, 64
2, 767036, Control_c, 0, 64, 0
2, 767036, Control_c, 0, 64, 0
2, 767038, Note_off_c, 0, 41, 64
2, 767048, Control_c, 0, 64, 127
2, 767048, Control_c, 0, 64, 127
2, 767050, Note_off_c, 0, 63, 64
2, 767053, Note_on_c, 0, 74, 73
2, 767056, Note_off_c, 0, 69, 64
2, 767056, Note_on_c, 0, 48, 59
2, 767065, Note_off_c, 0, 53, 64
2, 767109, Note_on_c, 0, 62, 66
2, 767109, Note_on_c, 0, 59, 62
2, 767161, Note_off_c, 0, 59, 64
2, 767162, Note_on_c, 0, 69, 68
2, 767162, Note_on_c, 0, 53, 64
2, 767165, Note_off_c, 0, 74, 64
2, 767166, Note_off_c, 0, 62, 64
2, 767210, Note_off_c, 0, 53, 64
2, 767214, Note_off_c, 0, 69, 64
2, 767216, Note_off_c, 0, 48, 64
2, 767221, Note_on_c, 0, 75, 73
2, 767225, Note_on_c, 0, 41, 70
2, 767278, Note_on_c, 0, 63, 60
2, 767280, Note_on_c, 0, 60, 72
2, 767325, Note_off_c, 0, 63, 64
2, 767331, Note_on_c, 0, 69, 74
2, 767335, Note_on_c, 0, 53, 48
2, 767337, Note_off_c, 0, 60, 64
2, 767337, Note_off_c, 0, 75, 64
2, 767374, Control_c, 0, 64, 0
2, 767374, Control_c, 0, 64, 0
2, 767383, Note_off_c, 0, 69, 64
2, 767385, Note_off_c, 0, 41, 64
2, 767387, Note_off_c, 0, 53, 64
2, 767387, Note_on_c, 0, 46, 52
2, 767392, Note_on_c, 0, 79, 78
2, 767403, Control_c, 0, 64, 127
2, 767403, Control_c, 0, 64, 127
2, 767448, Note_on_c, 0, 67, 48
2, 767448, Note_on_c, 0, 63, 56
2, 767495, Note_off_c, 0, 79, 64
2, 767498, Note_on_c, 0, 72, 69
2, 767506, Note_on_c, 0, 56, 34
2, 767508, Note_off_c, 0, 63, 64
2, 767510, Note_off_c, 0, 67, 64
2, 767547, Note_off_c, 0, 46, 64
2, 767558, Note_off_c, 0, 56, 64
2, 767558, Note_on_c, 0, 77, 68
2, 767559, Note_off_c, 0, 72, 64
2, 767561, Note_on_c, 0, 53, 35
2, 767615, Note_on_c, 0, 65, 46
2, 767618, Note_on_c, 0, 62, 45
2, 767651, Note_off_c, 0, 62, 64
2, 767668, Note_off_c, 0, 65, 64
2, 767668, Note_on_c, 0, 68, 64
2, 767670, Note_off_c, 0, 77, 64
2, 767674, Note_on_c, 0, 56, 35
2, 767721, Note_off_c, 0, 53, 64
2, 767726, Note_off_c, 0, 56, 64
2, 767731, Note_on_c, 0, 46, 46
2, 767732, Note_on_c, 0, 72, 56
2, 767734, Note_off_c, 0, 68, 64
2, 767737, Control_c, 0, 64, 0
2, 767737, Control_c, 0, 64, 0
2, 767760, Control_c, 0, 64, 127
2, 767760, Control_c, 0, 64, 127
2, 767805, Note_on_c, 0, 60, 29
2, 767805, Note_on_c, 0, 56, 29
2, 767836, Note_off_c, 0, 72, 64
2, 767871, Note_off_c, 0, 56, 64
2, 767872, Note_on_c, 0, 65, 44
2, 767875, Note_off_c, 0, 60, 64
2, 767878, Note_on_c, 0, 50, 45
2, 767891, Note_off_c, 0, 46, 64
2, 767930, Note_off_c, 0, 50, 64
2, 767953, Control_c, 0, 64, 0
2, 767953, Control_c, 0, 64, 0
2, 767958, Note_on_c, 0, 70, 57
2, 767958, Note_on_c, 0, 39, 57
2, 767961, Note_off_c, 0, 65, 64
2, 767978, Control_c, 0, 64, 127
2, 767979, Control_c, 0, 64, 127
2, 768025, Note_on_c, 0, 58, 54
2, 768042, Note_on_c, 0, 55, 34
2, 768043, Note_off_c, 0, 70, 64
2, 768086, Note_off_c, 0, 58, 64
2, 768088, Note_on_c, 0, 46, 46
2, 768089, Note_off_c, 0, 55, 64
2, 768096, Note_on_c, 0, 67, 4
2, 768118, Note_off_c, 0, 39, 64
2, 768131, Note_off_c, 0, 46, 64
2, 768138, Note_on_c, 0, 39, 49
2, 768139, Note_on_c, 0, 75, 73
2, 768148, Note_off_c, 0, 67, 64
2, 768197, Note_on_c, 0, 63, 59
2, 768199, Note_on_c, 0, 55, 54
2, 768200, Note_off_c, 0, 75, 64
2, 768244, Note_off_c, 0, 55, 64
2, 768247, Note_on_c, 0, 70, 55
2, 768250, Note_off_c, 0, 63, 64
2, 768250, Note_on_c, 0, 46, 45
2, 768283, Note_off_c, 0, 39, 64
2, 768301, Note_on_c, 0, 39, 56
2, 768304, Note_off_c, 0, 46, 64
2, 768304, Note_on_c, 0, 79, 75
2, 768307, Note_off_c, 0, 70, 64
2, 768356, Note_on_c, 0, 58, 54
2, 768358, Note_on_c, 0, 67, 62
2, 768386, Note_off_c, 0, 79, 64
2, 768389, Note_off_c, 0, 58, 64
2, 768403, Note_on_c, 0, 46, 56
2, 768407, Note_off_c, 0, 67, 64
2, 768409, Note_on_c, 0, 75, 34
2, 768443, Note_off_c, 0, 46, 64
2, 768446, Note_off_c, 0, 39, 64
2, 768453, Note_on_c, 0, 39, 53
2, 768455, Note_on_c, 0, 82, 70
2, 768461, Note_off_c, 0, 75, 64
2, 768511, Note_on_c, 0, 70, 73
2, 768511, Note_on_c, 0, 63, 42
2, 768541, Note_off_c, 0, 82, 64
2, 768557, Note_off_c, 0, 63, 64
2, 768559, Note_on_c, 0, 55, 68
2, 768564, Note_on_c, 0, 79, 60
2, 768565, Note_off_c, 0, 70, 64
2, 768590, Note_off_c, 0, 55, 64
2, 768609, Note_off_c, 0, 79, 64
2, 768611, Note_on_c, 0, 46, 69
2, 768613, Note_off_c, 0, 39, 64
2, 768615, Note_on_c, 0, 87, 86
2, 768671, Note_on_c, 0, 75, 72
2, 768671, Note_on_c, 0, 67, 54
2, 768718, Note_on_c, 0, 58, 64
2, 768719, Note_on_c, 0, 82, 75
2, 768723, Note_off_c, 0, 67, 64
2, 768724, Note_off_c, 0, 75, 64
2, 768727, Note_off_c, 0, 87, 64
2, 768762, Note_off_c, 0, 58, 64
2, 768766, Note_on_c, 0, 91, 75
2, 768767, Note_on_c, 0, 51, 56
2, 768771, Note_off_c, 0, 46, 64
2, 768773, Note_off_c, 0, 82, 64
2, 768820, Note_on_c, 0, 70, 68
2, 768822, Note_on_c, 0, 75, 85
2, 768869, Note_off_c, 0, 70, 64
2, 768872, Note_on_c, 0, 82, 78
2, 768872, Note_on_c, 0, 58, 35
2, 768878, Note_off_c, 0, 91, 64
2, 768889, Note_off_c, 0, 75, 64
2, 768902, Control_c, 0, 64, 0
2, 768902, Control_c, 0, 64, 0
2, 768922, Note_on_c, 0, 89, 76
2, 768926, Note_on_c, 0, 51, 67
2, 768927, Note_off_c, 0, 51, 64
2, 768930, Note_off_c, 0, 82, 64
2, 768931, Control_c, 0, 64, 127
2, 768931, Control_c, 0, 64, 127
2, 768935, Note_off_c, 0, 58, 64
2, 768942, Note_off_c, 0, 51, 64
2, 768978, Note_on_c, 0, 74, 50
2, 768985, Note_on_c, 0, 71, 46
2, 769025, Note_on_c, 0, 80, 78
2, 769028, Note_off_c, 0, 71, 64
2, 769028, Note_on_c, 0, 59, 60
2, 769034, Note_off_c, 0, 89, 64
2, 769037, Note_off_c, 0, 74, 64
2, 769068, Control_c, 0, 64, 0
2, 769068, Control_c, 0, 64, 0
2, 769079, Note_on_c, 0, 87, 74
2, 769081, Note_off_c, 0, 59, 64
2, 769084, Note_on_c, 0, 51, 76
2, 769085, Note_off_c, 0, 80, 64
2, 769090, Control_c, 0, 64, 127
2, 769090, Control_c, 0, 64, 127
2, 769143, Note_off_c, 0, 87, 64
2, 769143, Note_on_c, 0, 75, 60
2, 769143, Note_on_c, 0, 72, 48
2, 769143, Note_on_c, 0, 71, 48
2, 769184, Note_on_c, 0, 60, 48
2, 769188, Note_on_c, 0, 80, 71
2, 769195, Note_off_c, 0, 71, 64
2, 769195, Note_off_c, 0, 72, 64
2, 769197, Note_off_c, 0, 75, 64
2, 769226, Note_off_c, 0, 60, 64
2, 769229, Note_off_c, 0, 51, 64
2, 769240, Note_on_c, 0, 84, 76
2, 769241, Note_on_c, 0, 51, 56
2, 769243, Note_off_c, 0, 80, 64
2, 769246, Control_c, 0, 64, 0
2, 769247, Control_c, 0, 64, 0
2, 769271, Control_c, 0, 64, 127
2, 769271, Control_c, 0, 64, 127
2, 769294, Note_on_c, 0, 68, 67
2, 769297, Note_on_c, 0, 72, 53
2, 769339, Note_off_c, 0, 84, 64
2, 769348, Note_off_c, 0, 68, 64
2, 769348, Note_on_c, 0, 80, 66
2, 769377, Note_off_c, 0, 72, 64
2, 769386, Note_off_c, 0, 51, 64
2, 769395, Note_off_c, 0, 80, 64
2, 769397, Control_c, 0, 64, 0
2, 769397, Control_c, 0, 64, 0
2, 769400, Note_on_c, 0, 84, 62
2, 769403, Note_on_c, 0, 51, 54
2, 769422, Control_c, 0, 64, 127
2, 769422, Control_c, 0, 64, 127
2, 769454, Note_on_c, 0, 72, 35
2, 769458, Note_on_c, 0, 67, 45
2, 769461, Note_off_c, 0, 84, 64
2, 769506, Note_off_c, 0, 72, 64
2, 769506, Note_on_c, 0, 79, 66
2, 769509, Note_on_c, 0, 63, 44
2, 769520, Note_off_c, 0, 67, 64
2, 769548, Note_off_c, 0, 51, 64
2, 769564, Note_on_c, 0, 82, 54
2, 769566, Note_off_c, 0, 63, 64
2, 769566, Note_on_c, 0, 58, 38
2, 769568, Note_off_c, 0, 79, 64
2, 769616, Note_on_c, 0, 70, 31
2, 769617, Note_on_c, 0, 67, 38
2, 769653, Note_off_c, 0, 82, 64
2, 769666, Note_on_c, 0, 75, 62
2, 769668, Note_on_c, 0, 63, 62
2, 769669, Note_off_c, 0, 67, 64
2, 769672, Note_off_c, 0, 70, 64
2, 769711, Note_off_c, 0, 75, 64
2, 769720, Note_off_c, 0, 63, 64
2, 769726, Note_off_c, 0, 58, 64
2, 769744, Note_on_c, 0, 79, 68
2, 769747, Note_on_c, 0, 48, 43
2, 769754, Control_c, 0, 64, 0
2, 769754, Control_c, 0, 64, 0
2, 769774, Control_c, 0, 64, 127
2, 769774, Control_c, 0, 64, 127
2, 769804, Note_on_c, 0, 67, 41
2, 769804, Note_on_c, 0, 63, 4
2, 769854, Note_off_c, 0, 79, 64
2, 769858, Note_on_c, 0, 75, 35
2, 769861, Note_off_c, 0, 63, 64
2, 769863, Note_off_c, 0, 67, 64
2, 769892, Note_off_c, 0, 48, 64
2, 769901, Control_c, 0, 64, 0
2, 769901, Control_c, 0, 64, 0
2, 769912, Note_on_c, 0, 47, 59
2, 769914, Note_on_c, 0, 78, 66
2, 769920, Note_off_c, 0, 75, 64
2, 769927, Control_c, 0, 64, 127
2, 769927, Control_c, 0, 64, 127
2, 769973, Note_on_c, 0, 66, 48
2, 769974, Note_on_c, 0, 63, 65
2, 770024, Note_on_c, 0, 57, 61
2, 770026, Note_off_c, 0, 63, 64
2, 770030, Note_on_c, 0, 75, 50
2, 770034, Note_off_c, 0, 78, 64
2, 770057, Note_off_c, 0, 47, 64
2, 770063, Control_c, 0, 64, 0
2, 770063, Control_c, 0, 64, 0
2, 770075, Note_off_c, 0, 66, 64
2, 770079, Note_off_c, 0, 57, 64
2, 770079, Note_on_c, 0, 77, 75
2, 770081, Note_on_c, 0, 51, 52
2, 770088, Note_off_c, 0, 75, 64
2, 770090, Control_c, 0, 64, 127
2, 770090, Control_c, 0, 64, 127
2, 770127, Note_on_c, 0, 65, 50
2, 770128, Note_on_c, 0, 63, 45
2, 770168, Note_off_c, 0, 63, 64
2, 770173, Note_off_c, 0, 77, 64
2, 770176, Note_on_c, 0, 75, 66
2, 770179, Note_on_c, 0, 57, 63
2, 770192, Note_off_c, 0, 65, 64
2, 770215, Control_c, 0, 64, 0
2, 770215, Control_c, 0, 64, 0
2, 770221, Note_off_c, 0, 57, 64
2, 770224, Note_on_c, 0, 47, 71
2, 770226, Note_off_c, 0, 51, 64
2, 770226, Note_on_c, 0, 78, 68
2, 770234, Note_off_c, 0, 75, 64
2, 770239, Control_c, 0, 64, 127
2, 770239, Control_c, 0, 64, 127
2, 770275, Note_on_c, 0, 66, 48
2, 770277, Note_on_c, 0, 63, 83
2, 770324, Note_off_c, 0, 63, 64
2, 770326, Note_on_c, 0, 75, 73
2, 770329, Note_on_c, 0, 57, 54
2, 770332, Note_off_c, 0, 66, 64
2, 770332, Note_off_c, 0, 78, 64
2, 770369, Note_off_c, 0, 47, 64
2, 770370, Control_c, 0, 64, 0
2, 770370, Control_c, 0, 64, 0
2, 770378, Note_on_c, 0, 79, 78
2, 770380, Note_on_c, 0, 46, 64
2, 770381, Note_off_c, 0, 57, 64
2, 770386, Note_off_c, 0, 75, 64
2, 770397, Control_c, 0, 64, 127
2, 770397, Control_c, 0, 64, 127
2, 770436, Note_on_c, 0, 67, 39
2, 770438, Note_on_c, 0, 62, 56
2, 770452, Note_off_c, 0, 79, 64
2, 770482, Note_on_c, 0, 55, 57
2, 770484, Note_on_c, 0, 74, 67
2, 770498, Note_off_c, 0, 67, 64
2, 770499, Note_off_c, 0, 62, 64
2, 770522, Control_c, 0, 64, 0
2, 770522, Control_c, 0, 64, 0
2, 770525, Note_off_c, 0, 46, 64
2, 770534, Note_off_c, 0, 55, 64
2, 770536, Note_on_c, 0, 81, 73
2, 770536, Note_on_c, 0, 45, 58
2, 770544, Note_off_c, 0, 74, 64
2, 770551, Control_c, 0, 64, 127
2, 770551, Control_c, 0, 64, 127
2, 770589, Note_on_c, 0, 69, 45
2, 770591, Note_on_c, 0, 62, 37
2, 770615, Note_off_c, 0, 81, 64
2, 770626, Note_off_c, 0, 62, 64
2, 770637, Note_on_c, 0, 54, 59
2, 770643, Note_on_c, 0, 74, 66
2, 770647, Note_off_c, 0, 69, 64
2, 770665, Control_c, 0, 64, 0
2, 770665, Control_c, 0, 64, 0
2, 770681, Note_off_c, 0, 45, 64
2, 770689, Note_off_c, 0, 54, 64
2, 770695, Note_on_c, 0, 82, 70
2, 770695, Note_on_c, 0, 43, 55
2, 770698, Control_c, 0, 64, 127
2, 770699, Control_c, 0, 64, 127
2, 770702, Note_off_c, 0, 74, 64
2, 770755, Note_on_c, 0, 62, 56
2, 770757, Note_on_c, 0, 70, 68
2, 770812, Note_on_c, 0, 55, 62
2, 770814, Note_off_c, 0, 62, 64
2, 770818, Note_off_c, 0, 70, 64
2, 770829, Note_off_c, 0, 82, 64
2, 770840, Note_off_c, 0, 43, 64
2, 770864, Note_off_c, 0, 55, 64
2, 770887, Control_c, 0, 64, 0
2, 770888, Control_c, 0, 64, 0
2, 770891, Note_on_c, 0, 41, 73
2, 770894, Note_on_c, 0, 84, 79
2, 770905, Control_c, 0, 64, 127
2, 770905, Control_c, 0, 64, 127
2, 770970, Note_off_c, 0, 84, 64
2, 770973, Note_on_c, 0, 70, 66
2, 770974, Note_on_c, 0, 72, 64
2, 771014, Note_off_c, 0, 70, 64
2, 771030, Note_on_c, 0, 77, 66
2, 771031, Note_on_c, 0, 63, 41
2, 771042, Note_off_c, 0, 72, 64
2, 771051, Note_off_c, 0, 41, 64
2, 771067, Control_c, 0, 64, 0
2, 771068, Control_c, 0, 64, 0
2, 771083, Note_on_c, 0, 86, 72
2, 771087, Note_on_c, 0, 53, 66
2, 771092, Control_c, 0, 64, 127
2, 771093, Control_c, 0, 64, 127
2, 771095, Note_off_c, 0, 63, 64
2, 771095, Note_off_c, 0, 77, 64
2, 771140, Note_off_c, 0, 86, 64
2, 771140, Note_on_c, 0, 67, 58
2, 771143, Note_on_c, 0, 74, 49
2, 771191, Note_on_c, 0, 63, 56
2, 771194, Note_on_c, 0, 77, 63
2, 771196, Note_off_c, 0, 74, 64
2, 771198, Note_off_c, 0, 67, 64
2, 771245, Note_off_c, 0, 77, 64
2, 771247, Note_off_c, 0, 53, 64
2, 771247, Control_c, 0, 64, 0
2, 771247, Control_c, 0, 64, 0
2, 771249, Note_on_c, 0, 81, 58
2, 771254, Note_on_c, 0, 60, 67
2, 771259, Note_off_c, 0, 63, 64
2, 771273, Control_c, 0, 64, 127
2, 771273, Control_c, 0, 64, 127
2, 771308, Note_on_c, 0, 69, 45
2, 771312, Note_on_c, 0, 65, 43
2, 771359, Note_on_c, 0, 63, 67
2, 771361, Note_on_c, 0, 77, 59
2, 771367, Note_off_c, 0, 65, 64
2, 771370, Note_off_c, 0, 81, 64
2, 771376, Note_off_c, 0, 69, 64
2, 771411, Note_off_c, 0, 63, 64
2, 771413, Note_off_c, 0, 77, 64
2, 771414, Note_off_c, 0, 60, 64
2, 771444, Control_c, 0, 64, 0
2, 771444, Control_c, 0, 64, 0
2, 771447, Note_on_c, 0, 84, 73
2, 771447, Note_on_c, 0, 46, 57
2, 771469, Control_c, 0, 64, 127
2, 771469, Control_c, 0, 64, 127
2, 771511, Note_on_c, 0, 63, 45
2, 771512, Note_on_c, 0, 72, 52
2, 771523, Note_off_c, 0, 84, 64
2, 771560, Note_off_c, 0, 63, 64
2, 771568, Note_off_c, 0, 72, 64
2, 771570, Note_on_c, 0, 77, 57
2, 771583, Note_on_c, 0, 53, 29
2, 771592, Note_off_c, 0, 46, 64
2, 771623, Control_c, 0, 64, 0
2, 771623, Control_c, 0, 64, 0
2, 771629, Note_off_c, 0, 53, 64
2, 771629, Note_on_c, 0, 82, 61
2, 771636, Control_c, 0, 64, 127
2, 771636, Control_c, 0, 64, 127
2, 771639, Note_off_c, 0, 77, 64
2, 771641, Note_on_c, 0, 46, 26
2, 771676, Note_on_c, 0, 70, 28
2, 771679, Note_on_c, 0, 62, 32
2, 771736, Note_off_c, 0, 62, 64
2, 771739, Note_on_c, 0, 53, 32
2, 771741, Note_off_c, 0, 82, 64
2, 771741, Note_on_c, 0, 77, 59
2, 771758, Note_off_c, 0, 70, 64
2, 771786, Note_off_c, 0, 46, 64
2, 771793, Note_off_c, 0, 77, 64
2, 771813, Note_off_c, 0, 53, 64
2, 771814, Note_on_c, 0, 46, 49
2, 771819, Note_on_c, 0, 77, 51
2, 771888, Note_on_c, 0, 61, 52
2, 771890, Note_on_c, 0, 65, 31
2, 771943, Note_off_c, 0, 61, 64
2, 771955, Note_on_c, 0, 70, 67
2, 771959, Note_off_c, 0, 46, 64
2, 771960, Note_on_c, 0, 53, 46
2, 771974, Note_off_c, 0, 77, 64
2, 772005, Note_off_c, 0, 65, 64
2, 772025, Control_c, 0, 64, 0
2, 772027, Note_on_c, 0, 44, 66
2, 772030, Note_on_c, 0, 77, 69
2, 772036, Note_off_c, 0, 53, 64
2, 772040, Note_off_c, 0, 70, 64
2, 772055, Control_c, 0, 64, 127
2, 772055, Control_c, 0, 64, 127
2, 772100, Note_on_c, 0, 65, 54
2, 772105, Note_on_c, 0, 59, 34
2, 772142, Note_off_c, 0, 77, 64
2, 772145, Note_on_c, 0, 53, 43
2, 772146, Note_on_c, 0, 71, 46
2, 772158, Note_off_c, 0, 65, 64
2, 772160, Note_off_c, 0, 59, 64
2, 772172, Note_off_c, 0, 44, 64
2, 772200, Note_on_c, 0, 49, 58
2, 772202, Note_on_c, 0, 75, 70
2, 772204, Control_c, 0, 64, 0
2, 772204, Control_c, 0, 64, 0
2, 772207, Note_off_c, 0, 71, 64
2, 772214, Note_off_c, 0, 53, 64
2, 772216, Control_c, 0, 64, 127
2, 772217, Control_c, 0, 64, 127
2, 772255, Note_on_c, 0, 59, 50
2, 772258, Note_on_c, 0, 63, 51
2, 772281, Note_off_c, 0, 75, 64
2, 772309, Note_on_c, 0, 70, 67
2, 772315, Note_on_c, 0, 53, 35
2, 772317, Note_off_c, 0, 59, 64
2, 772328, Note_off_c, 0, 63, 64
2, 772345, Note_off_c, 0, 49, 64
2, 772367, Note_off_c, 0, 53, 64
2, 772368, Note_on_c, 0, 77, 73
2, 772369, Note_off_c, 0, 70, 64
2, 772376, Note_on_c, 0, 37, 37
2, 772430, Note_on_c, 0, 61, 68
2, 772431, Note_on_c, 0, 59, 44
2, 772478, Note_off_c, 0, 59, 64
2, 772480, Note_off_c, 0, 77, 64
2, 772482, Note_on_c, 0, 53, 58
2, 772485, Note_on_c, 0, 68, 66
2, 772491, Note_off_c, 0, 61, 64
2, 772521, Note_off_c, 0, 37, 64
2, 772534, Note_off_c, 0, 53, 64
2, 772537, Note_off_c, 0, 68, 64
2, 772540, Control_c, 0, 64, 0
2, 772541, Control_c, 0, 64, 0
2, 772553, Note_on_c, 0, 80, 73
2, 772553, Note_on_c, 0, 42, 67
2, 772569, Control_c, 0, 64, 127
2, 772570, Control_c, 0, 64, 127
2, 772621, Note_on_c, 0, 58, 59
2, 772631, Note_on_c, 0, 63, 27
2, 772665, Note_off_c, 0, 80, 64
2, 772672, Note_on_c, 0, 70, 42
2, 772672, Note_on_c, 0, 54, 35
2, 772680, Note_off_c, 0, 58, 64
2, 772683, Note_off_c, 0, 63, 64
2, 772698, Note_off_c, 0, 42, 64
2, 772722, Note_on_c, 0, 78, 68
2, 772725, Note_off_c, 0, 54, 64
2, 772726, Note_off_c, 0, 70, 64
2, 772729, Note_on_c, 0, 49, 41
2, 772774, Note_on_c, 0, 61, 68
2, 772774, Note_on_c, 0, 58, 33
2, 772822, Note_on_c, 0, 70, 73
2, 772825, Note_on_c, 0, 54, 46
2, 772834, Note_off_c, 0, 78, 64
2, 772845, Note_off_c, 0, 58, 64
2, 772851, Note_off_c, 0, 61, 64
2, 772871, Control_c, 0, 64, 0
2, 772871, Control_c, 0, 64, 0
2, 772874, Note_off_c, 0, 49, 64
2, 772877, Note_off_c, 0, 54, 64
2, 772878, Note_on_c, 0, 73, 75
2, 772880, Note_on_c, 0, 42, 62
2, 772882, Note_off_c, 0, 70, 64
2, 772900, Control_c, 0, 64, 127
2, 772900, Control_c, 0, 64, 127
2, 772929, Note_on_c, 0, 58, 39
2, 772931, Note_on_c, 0, 61, 62
2, 772958, Note_off_c, 0, 73, 64
2, 772965, Note_off_c, 0, 58, 64
2, 772978, Note_on_c, 0, 70, 73
2, 772981, Note_off_c, 0, 61, 64
2, 773025, Note_off_c, 0, 42, 64
2, 773027, Control_c, 0, 64, 0
2, 773027, Control_c, 0, 64, 0
2, 773034, Note_on_c, 0, 77, 60
2, 773034, Note_on_c, 0, 37, 4
2, 773036, Note_off_c, 0, 70, 64
2, 773041, Control_c, 0, 64, 127
2, 773042, Control_c, 0, 64, 127
2, 773089, Note_on_c, 0, 61, 74
2, 773092, Note_on_c, 0, 59, 50
2, 773137, Note_on_c, 0, 53, 68
2, 773140, Note_on_c, 0, 71, 60
2, 773142, Note_off_c, 0, 59, 64
2, 773146, Note_off_c, 0, 77, 64
2, 773153, Note_off_c, 0, 61, 64
2, 773178, Control_c, 0, 64, 0
2, 773179, Note_off_c, 0, 37, 64
2, 773179, Control_c, 0, 64, 0
2, 773190, Note_off_c, 0, 71, 64
2, 773192, Note_on_c, 0, 75, 68
2, 773193, Note_on_c, 0, 44, 64
2, 773199, Note_off_c, 0, 53, 64
2, 773211, Control_c, 0, 64, 127
2, 773211, Control_c, 0, 64, 127
2, 773245, Note_on_c, 0, 61, 78
2, 773248, Note_on_c, 0, 59, 52
2, 773296, Note_off_c, 0, 59, 64
2, 773296, Note_on_c, 0, 53, 62
2, 773299, Note_on_c, 0, 70, 51
2, 773301, Note_off_c, 0, 75, 64
2, 773304, Note_off_c, 0, 61, 64
2, 773338, Note_off_c, 0, 44, 64
2, 773348, Note_off_c, 0, 53, 64
2, 773352, Note_on_c, 0, 77, 75
2, 773353, Note_off_c, 0, 70, 64
2, 773358, Note_on_c, 0, 37, 42
2, 773411, Note_on_c, 0, 61, 68
2, 773415, Note_on_c, 0, 59, 56
2, 773455, Note_off_c, 0, 59, 64
2, 773463, Note_on_c, 0, 53, 58
2, 773464, Note_off_c, 0, 77, 64
2, 773466, Note_off_c, 0, 61, 64
2, 773467, Note_on_c, 0, 68, 49
2, 773503, Note_off_c, 0, 37, 64
2, 773515, Note_off_c, 0, 53, 64
2, 773519, Note_off_c, 0, 68, 64
2, 773520, Control_c, 0, 64, 0
2, 773521, Control_c, 0, 64, 0
2, 773531, Note_on_c, 0, 80, 73
2, 773534, Note_on_c, 0, 42, 50
2, 773545, Control_c, 0, 64, 127
2, 773545, Control_c, 0, 64, 127
2, 773605, Note_on_c, 0, 58, 52
2, 773608, Note_on_c, 0, 61, 66
2, 773643, Note_off_c, 0, 80, 64
2, 773652, Note_off_c, 0, 61, 64
2, 773659, Note_on_c, 0, 70, 48
2, 773660, Note_on_c, 0, 54, 39
2, 773663, Note_off_c, 0, 58, 64
2, 773679, Note_off_c, 0, 42, 64
2, 773708, Note_on_c, 0, 78, 65
2, 773711, Note_off_c, 0, 54, 64
2, 773711, Note_off_c, 0, 70, 64
2, 773713, Note_on_c, 0, 49, 59
2, 773759, Note_on_c, 0, 58, 68
2, 773762, Note_on_c, 0, 61, 75
2, 773809, Note_off_c, 0, 61, 64
2, 773810, Note_on_c, 0, 70, 62
2, 773813, Note_on_c, 0, 54, 56
2, 773820, Note_off_c, 0, 58, 64
2, 773820, Note_off_c, 0, 78, 64
2, 773858, Note_off_c, 0, 49, 64
2, 773864, Note_on_c, 0, 42, 78
2, 773865, Note_off_c, 0, 54, 64
2, 773866, Note_on_c, 0, 77, 68
2, 773869, Note_off_c, 0, 70, 64
2, 773869, Control_c, 0, 64, 0
2, 773869, Control_c, 0, 64, 0
2, 773888, Control_c, 0, 64, 127
2, 773888, Control_c, 0, 64, 127
2, 773915, Note_on_c, 0, 58, 54
2, 773919, Note_on_c, 0, 61, 73
2, 773967, Note_on_c, 0, 70, 63
2, 773968, Note_on_c, 0, 49, 38
2, 773971, Note_off_c, 0, 58, 64
2, 773978, Note_off_c, 0, 77, 64
2, 773980, Note_off_c, 0, 61, 64
2, 774009, Note_off_c, 0, 42, 64
2, 774013, Control_c, 0, 64, 0
2, 774013, Control_c, 0, 64, 0
2, 774019, Note_off_c, 0, 70, 64
2, 774022, Note_on_c, 0, 76, 64
2, 774023, Note_off_c, 0, 49, 64
2, 774023, Note_on_c, 0, 42, 66
2, 774042, Control_c, 0, 64, 127
2, 774042, Control_c, 0, 64, 127
2, 774078, Note_on_c, 0, 61, 56
2, 774079, Note_on_c, 0, 58, 39
2, 774126, Note_on_c, 0, 70, 73
2, 774127, Note_off_c, 0, 61, 64
2, 774129, Note_off_c, 0, 76, 64
2, 774135, Note_on_c, 0, 49, 33
2, 774138, Note_off_c, 0, 58, 64
2, 774168, Note_off_c, 0, 42, 64
2, 774178, Note_off_c, 0, 70, 64
2, 774180, Note_off_c, 0, 49, 64
2, 774195, Note_on_c, 0, 42, 67
2, 774197, Note_on_c, 0, 82, 82
2, 774249, Note_on_c, 0, 61, 62
2, 774260, Note_on_c, 0, 64, 34
2, 774294, Note_off_c, 0, 61, 64
2, 774297, Note_on_c, 0, 73, 73
2, 774304, Note_on_c, 0, 54, 55
2, 774309, Note_off_c, 0, 82, 64
2, 774312, Note_off_c, 0, 64, 64
2, 774340, Note_off_c, 0, 42, 64
2, 774349, Note_off_c, 0, 73, 64
2, 774356, Note_off_c, 0, 54, 64
2, 774360, Note_on_c, 0, 42, 73
2, 774363, Note_on_c, 0, 85, 93
2, 774418, Note_on_c, 0, 70, 79
2, 774420, Note_on_c, 0, 64, 62
2, 774458, Note_off_c, 0, 64, 64
2, 774468, Note_on_c, 0, 58, 60
2, 774475, Note_off_c, 0, 85, 64
2, 774475, Note_on_c, 0, 76, 56
2, 774483, Note_off_c, 0, 70, 64
2, 774505, Note_off_c, 0, 42, 64
2, 774520, Note_off_c, 0, 58, 64
2, 774527, Note_off_c, 0, 76, 64
2, 774532, Control_c, 0, 64, 0
2, 774533, Control_c, 0, 64, 0
2, 774539, Note_on_c, 0, 41, 67
2, 774542, Note_on_c, 0, 86, 82
2, 774558, Control_c, 0, 64, 127
2, 774559, Control_c, 0, 64, 127
2, 774603, Note_on_c, 0, 70, 73
2, 774607, Note_on_c, 0, 65, 56
2, 774654, Note_off_c, 0, 86, 64
2, 774666, Note_off_c, 0, 70, 64
2, 774666, Note_on_c, 0, 77, 35
2, 774699, Note_off_c, 0, 41, 64
2, 774716, Note_on_c, 0, 87, 79
2, 774718, Note_off_c, 0, 77, 64
2, 774720, Note_on_c, 0, 53, 41
2, 774739, Note_off_c, 0, 65, 64
2, 774774, Note_on_c, 0, 71, 54
2, 774776, Note_on_c, 0, 65, 64
2, 774822, Note_on_c, 0, 63, 52
2, 774824, Note_on_c, 0, 77, 61
2, 774828, Note_off_c, 0, 65, 64
2, 774828, Note_off_c, 0, 87, 64
2, 774837, Note_off_c, 0, 71, 64
2, 774865, Note_off_c, 0, 53, 64
2, 774874, Note_off_c, 0, 63, 64
2, 774875, Note_off_c, 0, 77, 64
2, 774876, Note_on_c, 0, 53, 63
2, 774877, Note_on_c, 0, 83, 75
2, 774929, Note_on_c, 0, 65, 61
2, 774934, Note_on_c, 0, 69, 67
2, 774969, Note_off_c, 0, 83, 64
2, 774974, Note_on_c, 0, 77, 68
2, 774977, Note_on_c, 0, 59, 66
2, 774986, Note_off_c, 0, 69, 64
2, 774998, Note_off_c, 0, 65, 64
2, 775021, Note_off_c, 0, 53, 64
2, 775021, Control_c, 0, 64, 0
2, 775021, Control_c, 0, 64, 0
2, 775031, Note_off_c, 0, 59, 64
2, 775035, Note_on_c, 0, 84, 79
2, 775037, Note_on_c, 0, 53, 55
2, 775040, Note_off_c, 0, 77, 64
2, 775053, Control_c, 0, 64, 127
2, 775053, Control_c, 0, 64, 127
2, 775088, Note_on_c, 0, 65, 35
2, 775089, Note_on_c, 0, 69, 54
2, 775138, Note_on_c, 0, 77, 71
2, 775139, Note_on_c, 0, 60, 64
2, 775145, Note_off_c, 0, 69, 64
2, 775147, Note_off_c, 0, 84, 64
2, 775182, Note_off_c, 0, 53, 64
2, 775194, Note_on_c, 0, 86, 75
2, 775196, Note_on_c, 0, 53, 68
2, 775201, Note_off_c, 0, 65, 64
2, 775202, Note_off_c, 0, 60, 64
2, 775211, Note_off_c, 0, 77, 64
2, 775246, Note_on_c, 0, 65, 55
2, 775250, Note_on_c, 0, 69, 64
2, 775301, Note_on_c, 0, 63, 68
2, 775302, Note_on_c, 0, 77, 66
2, 775305, Note_off_c, 0, 65, 64
2, 775306, Note_off_c, 0, 86, 64
2, 775314, Note_off_c, 0, 69, 64
2, 775341, Note_off_c, 0, 53, 64
2, 775351, Control_c, 0, 64, 0
2, 775352, Control_c, 0, 64, 0
2, 775353, Note_off_c, 0, 63, 64
2, 775358, Note_on_c, 0, 81, 79
2, 775358, Note_on_c, 0, 53, 71
2, 775361, Note_off_c, 0, 77, 64
2, 775384, Control_c, 0, 64, 127
2, 775385, Control_c, 0, 64, 127
2, 775411, Note_on_c, 0, 63, 57
2, 775412, Note_on_c, 0, 65, 46
2, 775466, Note_on_c, 0, 72, 78
2, 775469, Note_on_c, 0, 57, 73
2, 775470, Note_off_c, 0, 81, 64
2, 775474, Note_off_c, 0, 63, 64
2, 775481, Note_off_c, 0, 65, 64
2, 775503, Note_off_c, 0, 53, 64
2, 775518, Note_off_c, 0, 72, 64
2, 775521, Note_off_c, 0, 57, 64
2, 775544, Control_c, 0, 64, 0
2, 775544, Control_c, 0, 64, 0
2, 775551, Note_on_c, 0, 84, 81
2, 775552, Note_on_c, 0, 46, 74
2, 775562, Control_c, 0, 64, 127
2, 775562, Control_c, 0, 64, 127
2, 775615, Note_on_c, 0, 63, 58
2, 775618, Note_on_c, 0, 65, 55
2, 775663, Note_off_c, 0, 84, 64
2, 775665, Note_off_c, 0, 63, 64
2, 775667, Note_off_c, 0, 65, 64
2, 775669, Note_on_c, 0, 53, 37
2, 775670, Note_on_c, 0, 75, 33
2, 775697, Note_off_c, 0, 46, 64
2, 775716, Note_off_c, 0, 75, 64
2, 775718, Note_on_c, 0, 46, 45
2, 775719, Note_off_c, 0, 53, 64
2, 775720, Note_on_c, 0, 82, 72
2, 775774, Note_on_c, 0, 65, 56
2, 775786, Note_on_c, 0, 62, 31
2, 775829, Note_off_c, 0, 62, 64
2, 775829, Note_on_c, 0, 74, 66
2, 775832, Note_off_c, 0, 82, 64
2, 775835, Note_on_c, 0, 53, 45
2, 775863, Note_off_c, 0, 46, 64
2, 775866, Note_off_c, 0, 53, 64
2, 775886, Note_off_c, 0, 74, 64
2, 775887, Note_on_c, 0, 46, 65
2, 775888, Note_on_c, 0, 77, 73
2, 775894, Control_c, 0, 64, 0
2, 775894, Control_c, 0, 64, 0
2, 775899, Note_off_c, 0, 65, 64
2, 775917, Control_c, 0, 64, 127
2, 775917, Control_c, 0, 64, 127
2, 775942, Note_on_c, 0, 61, 45
2, 775943, Note_on_c, 0, 65, 62
2, 775987, Note_off_c, 0, 61, 64
2, 775994, Note_on_c, 0, 70, 67
2, 775999, Note_on_c, 0, 53, 46
2, 776019, Note_off_c, 0, 77, 64
2, 776032, Note_off_c, 0, 46, 64
2, 776045, Note_off_c, 0, 65, 64
2, 776057, Note_on_c, 0, 44, 68
2, 776057, Control_c, 0, 64, 0
2, 776057, Control_c, 0, 64, 0
2, 776060, Note_on_c, 0, 77, 72
2, 776062, Note_off_c, 0, 53, 64
2, 776064, Note_off_c, 0, 70, 64
2, 776090, Control_c, 0, 64, 127
2, 776090, Control_c, 0, 64, 127
2, 776120, Note_on_c, 0, 65, 38
2, 776121, Note_on_c, 0, 59, 36
2, 776161, Note_off_c, 0, 77, 64
2, 776166, Note_on_c, 0, 71, 56
2, 776169, Note_on_c, 0, 53, 35
2, 776175, Note_off_c, 0, 65, 64
2, 776185, Note_off_c, 0, 59, 64
2, 776202, Note_off_c, 0, 44, 64
2, 776214, Note_on_c, 0, 49, 68
2, 776220, Note_on_c, 0, 75, 69
2, 776223, Note_off_c, 0, 71, 64
2, 776225, Note_off_c, 0, 53, 64
2, 776225, Control_c, 0, 64, 0
2, 776225, Control_c, 0, 64, 0
2, 776266, Note_on_c, 0, 59, 49
2, 776268, Control_c, 0, 64, 127
2, 776268, Control_c, 0, 64, 127
2, 776270, Note_on_c, 0, 63, 73
2, 776319, Note_off_c, 0, 75, 64
2, 776320, Note_on_c, 0, 70, 69
2, 776322, Note_on_c, 0, 53, 66
2, 776327, Note_off_c, 0, 59, 64
2, 776340, Note_off_c, 0, 63, 64
2, 776359, Note_off_c, 0, 49, 64
2, 776373, Note_on_c, 0, 37, 79
2, 776374, Note_off_c, 0, 53, 64
2, 776374, Note_on_c, 0, 77, 75
2, 776379, Note_off_c, 0, 70, 64
2, 776428, Note_on_c, 0, 61, 75
2, 776428, Note_on_c, 0, 59, 39
2, 776475, Note_on_c, 0, 53, 54
2, 776478, Note_on_c, 0, 68, 55
2, 776480, Note_off_c, 0, 59, 64
2, 776484, Note_off_c, 0, 61, 64
2, 776486, Note_off_c, 0, 77, 64
2, 776518, Note_off_c, 0, 37, 64
2, 776526, Control_c, 0, 64, 0
2, 776526, Control_c, 0, 64, 0
2, 776527, Note_off_c, 0, 53, 64
2, 776530, Note_off_c, 0, 68, 64
2, 776536, Note_on_c, 0, 80, 81
2, 776536, Note_on_c, 0, 42, 33
2, 776554, Control_c, 0, 64, 127
2, 776554, Control_c, 0, 64, 127
2, 776594, Note_on_c, 0, 61, 81
2, 776597, Note_on_c, 0, 58, 30
2, 776637, Note_on_c, 0, 54, 47
2, 776641, Note_on_c, 0, 70, 62
2, 776644, Note_off_c, 0, 61, 64
2, 776647, Note_off_c, 0, 58, 64
2, 776648, Note_off_c, 0, 80, 64
2, 776681, Note_off_c, 0, 42, 64
2, 776695, Note_on_c, 0, 78, 75
2, 776695, Note_on_c, 0, 49, 70
2, 776699, Note_off_c, 0, 54, 64
2, 776700, Note_off_c, 0, 70, 64
2, 776745, Note_on_c, 0, 58, 66
2, 776748, Note_on_c, 0, 61, 73
2, 776795, Note_on_c, 0, 70, 68
2, 776795, Note_on_c, 0, 54, 66
2, 776807, Note_off_c, 0, 78, 64
2, 776808, Note_off_c, 0, 61, 64
2, 776813, Note_off_c, 0, 58, 64
2, 776840, Note_off_c, 0, 49, 64
2, 776847, Note_off_c, 0, 54, 64
2, 776850, Note_on_c, 0, 73, 74
2, 776850, Note_on_c, 0, 42, 78
2, 776853, Note_off_c, 0, 70, 64
2, 776855, Control_c, 0, 64, 0
2, 776855, Control_c, 0, 64, 0
2, 776881, Control_c, 0, 64, 127
2, 776881, Control_c, 0, 64, 127
2, 776898, Note_on_c, 0, 61, 76
2, 776902, Note_on_c, 0, 58, 45
2, 776945, Note_off_c, 0, 58, 64
2, 776952, Note_on_c, 0, 70, 62
2, 776955, Note_on_c, 0, 49, 67
2, 776957, Note_off_c, 0, 73, 64
2, 776963, Note_off_c, 0, 61, 64
2, 776995, Note_off_c, 0, 42, 64
2, 777007, Note_off_c, 0, 49, 64
2, 777009, Control_c, 0, 64, 0
2, 777009, Control_c, 0, 64, 0
2, 777027, Note_on_c, 0, 37, 102
2, 777029, Note_on_c, 0, 77, 78
2, 777032, Note_off_c, 0, 70, 64
2, 777039, Control_c, 0, 64, 127
2, 777039, Control_c, 0, 64, 127
2, 777096, Note_on_c, 0, 61, 73
2, 777107, Note_on_c, 0, 59, 45
2, 777141, Note_off_c, 0, 77, 64
2, 777144, Note_on_c, 0, 53, 67
2, 777146, Note_on_c, 0, 71, 63
2, 777151, Note_off_c, 0, 61, 64
2, 777159, Note_off_c, 0, 59, 64
2, 777172, Note_off_c, 0, 37, 64
2, 777190, Note_on_c, 0, 75, 73
2, 777193, Note_on_c, 0, 44, 74
2, 777195, Note_off_c, 0, 71, 64
2, 777199, Note_off_c, 0, 53, 64
2, 777239, Note_on_c, 0, 59, 68
2, 777241, Note_on_c, 0, 61, 74
2, 777282, Note_off_c, 0, 75, 64
2, 777291, Note_on_c, 0, 53, 66
2, 777292, Note_on_c, 0, 70, 79
2, 777300, Note_off_c, 0, 59, 64
2, 777302, Note_off_c, 0, 61, 64
2, 777338, Note_off_c, 0, 44, 64
2, 777343, Note_off_c, 0, 53, 64
2, 777344, Note_on_c, 0, 37, 87
2, 777348, Note_on_c, 0, 77, 68
2, 777352, Note_off_c, 0, 70, 64
2, 777397, Note_on_c, 0, 61, 73
2, 777400, Note_on_c, 0, 59, 59
2, 777448, Note_off_c, 0, 59, 64
2, 777448, Note_on_c, 0, 68, 70
2, 777449, Note_on_c, 0, 53, 59
2, 777452, Note_off_c, 0, 61, 64
2, 777460, Note_off_c, 0, 77, 64
2, 777489, Note_off_c, 0, 37, 64
2, 777500, Note_off_c, 0, 68, 64
2, 777501, Note_off_c, 0, 53, 64
2, 777501, Control_c, 0, 64, 0
2, 777502, Control_c, 0, 64, 0
2, 777513, Note_on_c, 0, 80, 74
2, 777515, Note_on_c, 0, 42, 89
2, 777526, Control_c, 0, 64, 127
2, 777526, Control_c, 0, 64, 127
2, 777577, Note_on_c, 0, 58, 51
2, 777578, Note_on_c, 0, 61, 42
2, 777625, Note_off_c, 0, 80, 64
2, 777627, Note_on_c, 0, 70, 66
2, 777629, Note_off_c, 0, 61, 64
2, 777647, Note_on_c, 0, 54, 37
2, 777654, Note_off_c, 0, 58, 64
2, 777660, Note_off_c, 0, 42, 64
2, 777664, Note_off_c, 0, 70, 64
2, 777681, Note_on_c, 0, 78, 80
2, 777688, Note_on_c, 0, 49, 4
2, 777699, Note_off_c, 0, 54, 64
2, 777737, Note_on_c, 0, 61, 74
2, 777744, Note_on_c, 0, 58, 61
2, 777780, Note_off_c, 0, 61, 64
2, 777786, Note_on_c, 0, 70, 70
2, 777788, Note_on_c, 0, 54, 63
2, 777789, Note_off_c, 0, 58, 64
2, 777793, Note_off_c, 0, 78, 64
2, 777828, Note_off_c, 0, 54, 64
2, 777833, Note_off_c, 0, 49, 64
2, 777837, Note_on_c, 0, 42, 73
2, 777838, Note_off_c, 0, 70, 64
2, 777838, Note_on_c, 0, 77, 75
2, 777882, Note_on_c, 0, 58, 42
2, 777888, Note_on_c, 0, 61, 80
2, 777927, Note_off_c, 0, 58, 64
2, 777928, Note_on_c, 0, 49, 45
2, 777931, Note_on_c, 0, 70, 65
2, 777935, Note_off_c, 0, 61, 64
2, 777950, Note_off_c, 0, 77, 64
2, 777962, Control_c, 0, 64, 0
2, 777962, Control_c, 0, 64, 0
2, 777974, Note_off_c, 0, 49, 64
2, 777976, Note_on_c, 0, 43, 60
2, 777978, Note_on_c, 0, 76, 73
2, 777979, Note_off_c, 0, 70, 64
2, 777982, Note_off_c, 0, 42, 64
2, 777987, Control_c, 0, 64, 127
2, 777988, Control_c, 0, 64, 127
2, 778024, Note_on_c, 0, 58, 80
2, 778028, Note_on_c, 0, 61, 74
2, 778064, Note_on_c, 0, 52, 80
2, 778066, Note_off_c, 0, 61, 64
2, 778078, Note_on_c, 0, 70, 75
2, 778084, Note_off_c, 0, 58, 64
2, 778092, Note_off_c, 0, 76, 64
2, 778118, Control_c, 0, 64, 0
2, 778118, Control_c, 0, 64, 0
2, 778121, Note_off_c, 0, 43, 64
2, 778124, Note_off_c, 0, 52, 64
2, 778129, Note_on_c, 0, 46, 73
2, 778130, Note_off_c, 0, 70, 64
2, 778131, Note_on_c, 0, 79, 70
2, 778138, Control_c, 0, 64, 127
2, 778138, Control_c, 0, 64, 127
2, 778166, Note_on_c, 0, 61, 78
2, 778168, Note_on_c, 0, 64, 45
2, 778211, Note_off_c, 0, 61, 64
2, 778212, Note_off_c, 0, 64, 64
2, 778219, Note_on_c, 0, 52, 66
2, 778221, Note_on_c, 0, 73, 63
2, 778243, Note_off_c, 0, 79, 64
2, 778251, Control_c, 0, 64, 0
2, 778251, Control_c, 0, 64, 0
2, 778253, Note_off_c, 0, 73, 64
2, 778265, Note_on_c, 0, 78, 81
2, 778266, Note_off_c, 0, 52, 64
2, 778268, Note_on_c, 0, 45, 59
2, 778274, Note_off_c, 0, 46, 64
2, 778279, Control_c, 0, 64, 127
2, 778279, Control_c, 0, 64, 127
2, 778316, Note_on_c, 0, 63, 68
2, 778316, Note_on_c, 0, 60, 54
2, 778353, Note_off_c, 0, 63, 64
2, 778355, Note_off_c, 0, 78, 64
2, 778359, Note_on_c, 0, 72, 70
2, 778359, Note_on_c, 0, 54, 61
2, 778379, Control_c, 0, 64, 0
2, 778379, Control_c, 0, 64, 0
2, 778392, Note_off_c, 0, 60, 64
2, 778407, Note_on_c, 0, 81, 73
2, 778410, Note_on_c, 0, 48, 61
2, 778412, Note_off_c, 0, 54, 64
2, 778413, Note_off_c, 0, 72, 64
2, 778413, Note_off_c, 0, 45, 64
2, 778413, Control_c, 0, 64, 127
2, 778418, Control_c, 0, 64, 127
2, 778459, Note_on_c, 0, 66, 81
2, 778459, Note_on_c, 0, 63, 44
2, 778498, Note_off_c, 0, 63, 64
2, 778501, Note_on_c, 0, 54, 68
2, 778503, Note_on_c, 0, 75, 73
2, 778519, Note_off_c, 0, 81, 64
2, 778546, Note_off_c, 0, 75, 64
2, 778546, Control_c, 0, 64, 0
2, 778546, Control_c, 0, 64, 0
2, 778549, Note_on_c, 0, 47, 70
2, 778552, Note_on_c, 0, 80, 79
2, 778555, Note_off_c, 0, 48, 64
2, 778560, Note_off_c, 0, 54, 64
2, 778563, Note_off_c, 0, 66, 64
2, 778577, Control_c, 0, 64, 127
2, 778577, Control_c, 0, 64, 127
2, 778599, Note_on_c, 0, 65, 64
2, 778602, Note_on_c, 0, 62, 60
2, 778637, Note_off_c, 0, 65, 64
2, 778645, Note_on_c, 0, 53, 70
2, 778648, Note_on_c, 0, 74, 68
2, 778662, Note_off_c, 0, 62, 64
2, 778664, Note_off_c, 0, 80, 64
2, 778693, Note_off_c, 0, 53, 64
2, 778694, Note_off_c, 0, 47, 64
2, 778699, Control_c, 0, 64, 0
2, 778699, Control_c, 0, 64, 0
2, 778700, Note_off_c, 0, 74, 64
2, 778704, Note_on_c, 0, 83, 80
2, 778707, Note_on_c, 0, 50, 60
2, 778727, Control_c, 0, 64, 127
2, 778727, Control_c, 0, 64, 127
2, 778750, Note_on_c, 0, 68, 78
2, 778752, Note_on_c, 0, 65, 60
2, 778796, Note_off_c, 0, 65, 64
2, 778796, Note_off_c, 0, 83, 64
2, 778798, Note_on_c, 0, 56, 68
2, 778801, Note_on_c, 0, 77, 73
2, 778835, Note_off_c, 0, 77, 64
2, 778839, Control_c, 0, 64, 0
2, 778839, Control_c, 0, 64, 0
2, 778846, Note_on_c, 0, 82, 78
2, 778849, Note_off_c, 0, 56, 64
2, 778849, Note_on_c, 0, 49, 60
2, 778852, Note_off_c, 0, 50, 64
2, 778859, Note_off_c, 0, 68, 64
2, 778870, Control_c, 0, 64, 127
2, 778870, Control_c, 0, 64, 127
2, 778896, Note_on_c, 0, 64, 64
2, 778897, Note_on_c, 0, 67, 55
2, 778940, Note_on_c, 0, 76, 65
2, 778942, Note_off_c, 0, 67, 64
2, 778943, Note_on_c, 0, 55, 54
2, 778953, Note_off_c, 0, 64, 64
2, 778958, Note_off_c, 0, 82, 64
2, 778992, Note_off_c, 0, 76, 64
2, 778994, Note_off_c, 0, 49, 64
2, 778994, Note_on_c, 0, 85, 83
2, 778994, Note_on_c, 0, 52, 65
2, 778995, Note_off_c, 0, 55, 64
2, 778999, Control_c, 0, 64, 0
2, 778999, Control_c, 0, 64, 0
2, 779009, Control_c, 0, 64, 127
2, 779009, Control_c, 0, 64, 127
2, 779040, Note_on_c, 0, 70, 73
2, 779042, Note_on_c, 0, 67, 54
2, 779085, Note_off_c, 0, 67, 64
2, 779087, Note_on_c, 0, 58, 68
2, 779106, Note_off_c, 0, 85, 64
2, 779108, Note_off_c, 0, 70, 64
2, 779137, Control_c, 0, 64, 0
2, 779137, Control_c, 0, 64, 0
2, 779139, Note_off_c, 0, 58, 64
2, 779139, Note_off_c, 0, 52, 64
2, 779139, Note_on_c, 0, 84, 78
2, 779139, Note_on_c, 0, 51, 74
2, 779150, Control_c, 0, 64, 127
2, 779150, Control_c, 0, 64, 127
2, 779184, Note_on_c, 0, 66, 66
2, 779185, Note_on_c, 0, 69, 38
2, 779226, Note_off_c, 0, 69, 64
2, 779227, Note_on_c, 0, 78, 73
2, 779229, Note_on_c, 0, 57, 67
2, 779235, Note_off_c, 0, 66, 64
2, 779251, Note_off_c, 0, 84, 64
2, 779275, Control_c, 0, 64, 0
2, 779276, Control_c, 0, 64, 0
2, 779279, Note_off_c, 0, 78, 64
2, 779281, Note_off_c, 0, 57, 64
2, 779284, Note_off_c, 0, 51, 64
2, 779286, Note_on_c, 0, 87, 85
2, 779287, Note_on_c, 0, 54, 70
2, 779301, Control_c, 0, 64, 127
2, 779301, Control_c, 0, 64, 127
2, 779331, Note_on_c, 0, 72, 60
2, 779337, Note_on_c, 0, 69, 64
2, 779377, Note_on_c, 0, 60, 67
2, 779378, Note_on_c, 0, 81, 73
2, 779380, Note_off_c, 0, 69, 64
2, 779390, Note_off_c, 0, 72, 64
2, 779398, Note_off_c, 0, 87, 64
2, 779419, Note_off_c, 0, 81, 64
2, 779428, Control_c, 0, 64, 0
2, 779428, Control_c, 0, 64, 0
2, 779429, Note_off_c, 0, 60, 64
2, 779432, Note_off_c, 0, 54, 64
2, 779434, Note_on_c, 0, 86, 82
2, 779434, Note_on_c, 0, 53, 32
2, 779463, Control_c, 0, 64, 127
2, 779463, Control_c, 0, 64, 127
2, 779484, Note_on_c, 0, 71, 52
2, 779484, Note_on_c, 0, 68, 79
2, 779517, Note_off_c, 0, 68, 64
2, 779530, Note_off_c, 0, 71, 64
2, 779532, Note_on_c, 0, 59, 67
2, 779535, Note_on_c, 0, 80, 59
2, 779546, Note_off_c, 0, 86, 64
2, 779579, Note_off_c, 0, 53, 64
2, 779587, Note_off_c, 0, 80, 64
2, 779607, Note_off_c, 0, 59, 64
2, 779610, Note_on_c, 0, 58, 56
2, 779612, Note_on_c, 0, 89, 68
2, 779652, Control_c, 0, 64, 0
2, 779652, Control_c, 0, 64, 0
2, 779722, Note_off_c, 0, 58, 64
2, 779724, Note_off_c, 0, 89, 64
2, 779765, Note_on_c, 0, 39, 60
2, 779780, Control_c, 0, 64, 127
2, 779780, Control_c, 0, 64, 127
2, 779786, Note_on_c, 0, 70, 78
2, 779867, Note_on_c, 0, 58, 58
2, 779877, Note_on_c, 0, 55, 46
2, 779904, Note_off_c, 0, 58, 64
2, 779921, Note_off_c, 0, 70, 64
2, 779925, Note_off_c, 0, 39, 64
2, 779925, Note_on_c, 0, 67, 52
2, 779925, Note_on_c, 0, 46, 48
2, 779936, Note_off_c, 0, 55, 64
2, 779970, Note_off_c, 0, 46, 64
2, 779986, Note_on_c, 0, 75, 73
2, 779987, Note_off_c, 0, 67, 64
2, 779989, Note_on_c, 0, 39, 52
2, 780044, Note_on_c, 0, 63, 63
2, 780047, Note_on_c, 0, 55, 58
2, 780059, Note_off_c, 0, 75, 64
2, 780091, Note_on_c, 0, 70, 73
2, 780094, Note_off_c, 0, 55, 64
2, 780095, Note_on_c, 0, 46, 44
2, 780097, Note_off_c, 0, 63, 64
2, 780134, Note_off_c, 0, 39, 64
2, 780140, Note_off_c, 0, 46, 64
2, 780141, Note_on_c, 0, 39, 68
2, 780142, Note_on_c, 0, 79, 78
2, 780145, Note_off_c, 0, 70, 64
2, 780190, Note_on_c, 0, 58, 83
2, 780193, Note_on_c, 0, 67, 52
2, 780219, Note_off_c, 0, 79, 64
2, 780225, Note_off_c, 0, 58, 64
2, 780239, Note_on_c, 0, 46, 72
2, 780242, Note_on_c, 0, 75, 54
2, 780245, Note_off_c, 0, 67, 64
2, 780276, Note_off_c, 0, 39, 64
2, 780281, Note_on_c, 0, 39, 68
2, 780284, Note_off_c, 0, 46, 64
2, 780284, Note_on_c, 0, 82, 62
2, 780294, Note_off_c, 0, 75, 64
2, 780327, Note_on_c, 0, 70, 73
2, 780328, Note_on_c, 0, 63, 89
2, 780374, Note_off_c, 0, 63, 64
2, 780375, Note_on_c, 0, 55, 69
2, 780378, Note_off_c, 0, 70, 64
2, 780379, Note_on_c, 0, 79, 65
2, 780396, Note_off_c, 0, 82, 64
2, 780413, Note_off_c, 0, 79, 64
2, 780423, Note_on_c, 0, 46, 73
2, 780424, Note_on_c, 0, 87, 89
2, 780427, Note_off_c, 0, 55, 64
2, 780441, Note_off_c, 0, 39, 64
2, 780471, Note_on_c, 0, 67, 81
2, 780473, Note_on_c, 0, 75, 75
2, 780517, Note_on_c, 0, 82, 75
2, 780521, Note_off_c, 0, 67, 64
2, 780521, Note_on_c, 0, 58, 68
2, 780523, Note_off_c, 0, 75, 64
2, 780536, Note_off_c, 0, 87, 64
2, 780560, Note_off_c, 0, 58, 64
2, 780574, Control_c, 0, 64, 0
2, 780575, Control_c, 0, 64, 0
2, 780577, Note_on_c, 0, 51, 47
2, 780578, Note_on_c, 0, 91, 83
2, 780582, Note_off_c, 0, 82, 64
2, 780583, Note_off_c, 0, 46, 64
2, 780600, Control_c, 0, 64, 127
2, 780600, Control_c, 0, 64, 127
2, 780639, Note_on_c, 0, 70, 34
2, 780642, Note_on_c, 0, 75, 83
2, 780683, Note_off_c, 0, 70, 64
2, 780690, Note_off_c, 0, 91, 64
2, 780693, Note_on_c, 0, 82, 76
2, 780693, Note_on_c, 0, 58, 48
2, 780709, Note_off_c, 0, 75, 64
2, 780722, Note_off_c, 0, 51, 64
2, 780738, Note_off_c, 0, 58, 64
2, 780739, Control_c, 0, 64, 0
2, 780739, Control_c, 0, 64, 0
2, 780745, Note_on_c, 0, 51, 55
2, 780747, Note_on_c, 0, 89, 83
2, 780752, Note_off_c, 0, 82, 64
2, 780756, Control_c, 0, 64, 127
2, 780756, Control_c, 0, 64, 127
2, 780800, Note_on_c, 0, 74, 59
2, 780801, Note_on_c, 0, 71, 57
2, 780834, Note_off_c, 0, 71, 64
2, 780845, Note_on_c, 0, 59, 62
2, 780847, Note_on_c, 0, 80, 76
2, 780854, Note_off_c, 0, 74, 64
2, 780859, Note_off_c, 0, 89, 64
2, 780880, Note_off_c, 0, 51, 64
2, 780881, Note_off_c, 0, 59, 64
2, 780894, Note_on_c, 0, 51, 54
2, 780896, Note_on_c, 0, 87, 79
2, 780899, Note_off_c, 0, 80, 64
2, 780946, Note_on_c, 0, 75, 74
2, 780946, Note_on_c, 0, 72, 56
2, 780973, Control_c, 0, 64, 0
2, 780973, Control_c, 0, 64, 0
2, 780988, Note_on_c, 0, 60, 63
2, 780990, Note_on_c, 0, 80, 78
2, 780994, Control_c, 0, 64, 127
2, 780994, Control_c, 0, 64, 127
2, 780998, Note_off_c, 0, 72, 64
2, 781001, Note_off_c, 0, 75, 64
2, 781008, Note_off_c, 0, 87, 64
2, 781027, Note_off_c, 0, 60, 64
2, 781029, Note_off_c, 0, 51, 64
2, 781031, Control_c, 0, 64, 0
2, 781031, Control_c, 0, 64, 0
2, 781036, Note_on_c, 0, 51, 70
2, 781037, Note_on_c, 0, 84, 80
2, 781042, Note_off_c, 0, 80, 64
2, 781053, Control_c, 0, 64, 127
2, 781053, Control_c, 0, 64, 127
2, 781085, Note_on_c, 0, 72, 61
2, 781087, Note_on_c, 0, 68, 62
2, 781110, Note_off_c, 0, 84, 64
2, 781132, Note_off_c, 0, 68, 64
2, 781135, Note_on_c, 0, 80, 68
2, 781137, Note_on_c, 0, 62, 50
2, 781156, Note_off_c, 0, 72, 64
2, 781180, Control_c, 0, 64, 0
2, 781180, Control_c, 0, 64, 0
2, 781181, Note_off_c, 0, 51, 64
2, 781186, Note_on_c, 0, 84, 71
2, 781189, Note_off_c, 0, 62, 64
2, 781189, Note_off_c, 0, 80, 64
2, 781190, Note_on_c, 0, 51, 70
2, 781209, Control_c, 0, 64, 127
2, 781209, Control_c, 0, 64, 127
2, 781234, Note_on_c, 0, 72, 34
2, 781240, Note_on_c, 0, 67, 52
2, 781250, Note_off_c, 0, 84, 64
2, 781283, Note_off_c, 0, 72, 64
2, 781286, Note_on_c, 0, 79, 62
2, 781288, Note_on_c, 0, 63, 38
2, 781294, Note_off_c, 0, 67, 64
2, 781331, Note_on_c, 0, 58, 56
2, 781335, Note_off_c, 0, 51, 64
2, 781335, Note_on_c, 0, 82, 67
2, 781337, Note_off_c, 0, 63, 64
2, 781337, Note_off_c, 0, 79, 64
2, 781376, Note_on_c, 0, 70, 63
2, 781379, Note_on_c, 0, 67, 41
2, 781416, Note_off_c, 0, 82, 64
2, 781422, Note_on_c, 0, 75, 73
2, 781424, Note_on_c, 0, 63, 66
2, 781429, Note_off_c, 0, 67, 64
2, 781429, Note_off_c, 0, 70, 64
2, 781469, Control_c, 0, 64, 0
2, 781469, Control_c, 0, 64, 0
2, 781474, Note_off_c, 0, 75, 64
2, 781476, Note_off_c, 0, 63, 64
2, 781476, Note_off_c, 0, 58, 64
2, 781476, Note_on_c, 0, 51, 64
2, 781480, Note_on_c, 0, 79, 73
2, 781495, Control_c, 0, 64, 127
2, 781495, Control_c, 0, 64, 127
2, 781524, Note_on_c, 0, 67, 41
2, 781526, Note_on_c, 0, 63, 48
2, 781563, Note_off_c, 0, 79, 64
2, 781572, Note_off_c, 0, 63, 64
2, 781575, Note_on_c, 0, 70, 67
2, 781579, Note_on_c, 0, 55, 38
2, 781589, Note_off_c, 0, 67, 64
2, 781621, Note_off_c, 0, 51, 64
2, 781631, Note_off_c, 0, 55, 64
2, 781632, Control_c, 0, 64, 0
2, 781632, Control_c, 0, 64, 0
2, 781634, Note_off_c, 0, 70, 64
2, 781639, Note_on_c, 0, 41, 56
2, 781640, Note_on_c, 0, 75, 85
2, 781657, Control_c, 0, 64, 127
2, 781658, Control_c, 0, 64, 127
2, 781693, Note_on_c, 0, 63, 51
2, 781697, Note_on_c, 0, 60, 52
2, 781733, Note_off_c, 0, 75, 64
2, 781743, Note_on_c, 0, 69, 45
2, 781743, Note_on_c, 0, 53, 43
2, 781779, Note_off_c, 0, 63, 64
2, 781784, Note_off_c, 0, 41, 64
2, 781787, Note_on_c, 0, 74, 79
2, 781788, Note_off_c, 0, 69, 64
2, 781791, Note_on_c, 0, 48, 67
2, 781793, Note_off_c, 0, 60, 64
2, 781794, Note_off_c, 0, 53, 64
2, 781839, Note_on_c, 0, 62, 55
2, 781839, Note_on_c, 0, 60, 57
2, 781855, Note_off_c, 0, 74, 64
2, 781881, Note_on_c, 0, 53, 59
2, 781884, Note_off_c, 0, 60, 64
2, 781884, Note_off_c, 0, 62, 64
2, 781887, Note_on_c, 0, 69, 60
2, 781916, Control_c, 0, 64, 0
2, 781916, Control_c, 0, 64, 0
2, 781922, Note_off_c, 0, 69, 64
2, 781930, Note_on_c, 0, 75, 79
2, 781932, Note_on_c, 0, 41, 67
2, 781933, Note_off_c, 0, 53, 64
2, 781936, Note_off_c, 0, 48, 64
2, 781941, Control_c, 0, 64, 127
2, 781941, Control_c, 0, 64, 127
2, 781984, Note_on_c, 0, 63, 49
2, 781986, Note_on_c, 0, 60, 44
2, 782023, Note_on_c, 0, 69, 72
2, 782024, Note_off_c, 0, 63, 64
2, 782025, Note_off_c, 0, 75, 64
2, 782026, Note_on_c, 0, 53, 69
2, 782030, Note_off_c, 0, 60, 64
2, 782069, Note_off_c, 0, 53, 64
2, 782075, Note_off_c, 0, 69, 64
2, 782075, Control_c, 0, 64, 0
2, 782075, Control_c, 0, 64, 0
2, 782077, Note_off_c, 0, 41, 64
2, 782082, Note_on_c, 0, 46, 59
2, 782088, Note_on_c, 0, 79, 81
2, 782100, Control_c, 0, 64, 127
2, 782100, Control_c, 0, 64, 127
2, 782140, Note_on_c, 0, 67, 57
2, 782143, Note_on_c, 0, 63, 45
2, 782191, Note_off_c, 0, 79, 64
2, 782191, Note_on_c, 0, 53, 55
2, 782192, Note_off_c, 0, 63, 64
2, 782194, Note_on_c, 0, 70, 68
2, 782204, Note_off_c, 0, 67, 64
2, 782227, Note_off_c, 0, 46, 64
2, 782244, Note_on_c, 0, 77, 79
2, 782245, Control_c, 0, 64, 0
2, 782245, Control_c, 0, 64, 0
2, 782248, Note_on_c, 0, 50, 66
2, 782252, Note_off_c, 0, 53, 64
2, 782253, Note_off_c, 0, 70, 64
2, 782275, Control_c, 0, 64, 127
2, 782275, Control_c, 0, 64, 127
2, 782298, Note_on_c, 0, 65, 38
2, 782299, Note_on_c, 0, 62, 43
2, 782318, Note_off_c, 0, 77, 64
2, 782341, Note_on_c, 0, 70, 68
2, 782343, Note_on_c, 0, 53, 58
2, 782346, Note_off_c, 0, 62, 64
2, 782350, Note_off_c, 0, 65, 64
2, 782393, Note_off_c, 0, 50, 64
2, 782394, Note_off_c, 0, 70, 64
2, 782395, Note_off_c, 0, 53, 64
2, 782395, Note_on_c, 0, 74, 72
2, 782398, Note_on_c, 0, 46, 63
2, 782401, Control_c, 0, 64, 0
2, 782401, Control_c, 0, 64, 0
2, 782428, Control_c, 0, 64, 127
2, 782429, Control_c, 0, 64, 127
2, 782437, Note_on_c, 0, 62, 48
2, 782444, Note_on_c, 0, 58, 43
2, 782480, Note_off_c, 0, 74, 64
2, 782485, Note_off_c, 0, 58, 64
2, 782491, Note_on_c, 0, 65, 56
2, 782505, Note_off_c, 0, 62, 64
2, 782543, Note_off_c, 0, 65, 64
2, 782543, Note_off_c, 0, 46, 64
2, 782556, Note_on_c, 0, 41, 79
2, 782557, Note_on_c, 0, 75, 79
2, 782562, Control_c, 0, 64, 0
2, 782562, Control_c, 0, 64, 0
2, 782580, Control_c, 0, 64, 127
2, 782580, Control_c, 0, 64, 127
2, 782620, Note_on_c, 0, 63, 67
2, 782629, Note_on_c, 0, 60, 34
2, 782666, Note_on_c, 0, 53, 54
2, 782667, Note_on_c, 0, 69, 66
2, 782670, Note_off_c, 0, 75, 64
2, 782678, Note_off_c, 0, 63, 64
2, 782701, Note_off_c, 0, 41, 64
2, 782717, Note_on_c, 0, 74, 73
2, 782719, Note_on_c, 0, 48, 68
2, 782724, Note_off_c, 0, 69, 64
2, 782726, Note_off_c, 0, 53, 64
2, 782731, Note_off_c, 0, 60, 64
2, 782733, Control_c, 0, 64, 0
2, 782733, Control_c, 0, 64, 0
2, 782766, Note_on_c, 0, 59, 78
2, 782767, Note_on_c, 0, 62, 65
2, 782773, Control_c, 0, 64, 127
2, 782773, Control_c, 0, 64, 127
2, 782797, Note_off_c, 0, 74, 64
2, 782814, Note_on_c, 0, 69, 71
2, 782816, Note_on_c, 0, 53, 72
2, 782817, Note_off_c, 0, 62, 64
2, 782824, Note_off_c, 0, 59, 64
2, 782864, Note_off_c, 0, 48, 64
2, 782864, Note_on_c, 0, 75, 78
2, 782866, Note_off_c, 0, 69, 64
2, 782866, Note_on_c, 0, 41, 66
2, 782868, Note_off_c, 0, 53, 64
2, 782913, Note_on_c, 0, 60, 64
2, 782914, Note_on_c, 0, 63, 73
2, 782954, Note_off_c, 0, 63, 64
2, 782957, Note_off_c, 0, 60, 64
2, 782961, Note_on_c, 0, 69, 75
2, 782963, Note_on_c, 0, 53, 66
2, 782966, Note_off_c, 0, 75, 64
2, 783009, Note_off_c, 0, 53, 64
2, 783011, Note_off_c, 0, 41, 64
2, 783011, Control_c, 0, 64, 0
2, 783012, Control_c, 0, 64, 0
2, 783013, Note_off_c, 0, 69, 64
2, 783018, Note_on_c, 0, 46, 67
2, 783021, Note_on_c, 0, 79, 79
2, 783033, Control_c, 0, 64, 127
2, 783034, Control_c, 0, 64, 127
2, 783072, Note_on_c, 0, 67, 54
2, 783075, Note_on_c, 0, 63, 68
2, 783112, Note_off_c, 0, 79, 64
2, 783120, Note_on_c, 0, 72, 73
2, 783125, Note_off_c, 0, 63, 64
2, 783125, Note_on_c, 0, 56, 53
2, 783132, Note_off_c, 0, 67, 64
2, 783163, Note_off_c, 0, 46, 64
2, 783169, Note_on_c, 0, 77, 73
2, 783172, Note_on_c, 0, 53, 66
2, 783178, Note_off_c, 0, 56, 64
2, 783180, Note_off_c, 0, 72, 64
2, 783217, Note_on_c, 0, 65, 56
2, 783221, Note_on_c, 0, 62, 64
2, 783250, Note_off_c, 0, 62, 64
2, 783265, Note_off_c, 0, 65, 64
2, 783266, Note_on_c, 0, 68, 68
2, 783271, Note_on_c, 0, 56, 54
2, 783281, Note_off_c, 0, 77, 64
2, 783302, Note_off_c, 0, 56, 64
2, 783317, Note_off_c, 0, 53, 64
2, 783321, Note_on_c, 0, 46, 60
2, 783322, Note_on_c, 0, 72, 68
2, 783324, Note_off_c, 0, 68, 64
2, 783331, Control_c, 0, 64, 0
2, 783331, Control_c, 0, 64, 0
2, 783357, Control_c, 0, 64, 127
2, 783358, Control_c, 0, 64, 127
2, 783379, Note_on_c, 0, 60, 48
2, 783381, Note_on_c, 0, 56, 38
2, 783421, Note_off_c, 0, 72, 64
2, 783434, Note_on_c, 0, 65, 61
2, 783439, Note_off_c, 0, 60, 64
2, 783441, Note_off_c, 0, 56, 64
2, 783441, Note_on_c, 0, 50, 33
2, 783466, Note_off_c, 0, 46, 64
2, 783493, Note_off_c, 0, 50, 64
2, 783514, Note_on_c, 0, 70, 72
2, 783516, Note_on_c, 0, 39, 59
2, 783518, Note_off_c, 0, 65, 64
2, 783532, Control_c, 0, 64, 0
2, 783532, Control_c, 0, 64, 0
2, 783561, Control_c, 0, 64, 127
2, 783562, Control_c, 0, 64, 127
2, 783586, Note_on_c, 0, 58, 68
2, 783592, Note_on_c, 0, 55, 46
2, 783618, Note_off_c, 0, 70, 64
2, 783640, Note_on_c, 0, 46, 60
2, 783647, Note_off_c, 0, 58, 64
2, 783647, Note_on_c, 0, 67, 46
2, 783651, Note_off_c, 0, 55, 64
2, 783661, Note_off_c, 0, 39, 64
2, 783694, Note_on_c, 0, 75, 75
2, 783699, Note_off_c, 0, 46, 64
2, 783699, Note_on_c, 0, 39, 63
2, 783700, Note_off_c, 0, 67, 64
2, 783742, Note_on_c, 0, 63, 66
2, 783745, Note_on_c, 0, 55, 57
2, 783755, Note_off_c, 0, 75, 64
2, 783785, Note_off_c, 0, 63, 64
2, 783787, Note_on_c, 0, 70, 75
2, 783791, Note_on_c, 0, 46, 67
2, 783795, Note_off_c, 0, 55, 64
2, 783824, Note_off_c, 0, 39, 64
2, 783828, Note_off_c, 0, 46, 64
2, 783838, Note_on_c, 0, 79, 79
2, 783839, Note_off_c, 0, 70, 64
2, 783839, Note_on_c, 0, 39, 75
2, 783890, Note_on_c, 0, 67, 68
2, 783890, Note_on_c, 0, 58, 66
2, 783926, Note_off_c, 0, 58, 64
2, 783929, Note_off_c, 0, 79, 64
2, 783938, Note_on_c, 0, 75, 54
2, 783941, Note_on_c, 0, 46, 70
2, 783943, Note_off_c, 0, 67, 64
2, 783975, Note_off_c, 0, 46, 64
2, 783984, Note_off_c, 0, 39, 64
2, 783990, Note_off_c, 0, 75, 64
2, 783992, Note_on_c, 0, 39, 72
2, 783995, Note_on_c, 0, 82, 85
2, 784045, Note_on_c, 0, 70, 70
2, 784046, Note_on_c, 0, 63, 45
2, 784071, Note_off_c, 0, 82, 64
2, 784092, Note_on_c, 0, 55, 69
2, 784093, Note_off_c, 0, 63, 64
2, 784094, Note_off_c, 0, 70, 64
2, 784094, Note_on_c, 0, 79, 73
2, 784125, Note_off_c, 0, 55, 64
2, 784145, Note_on_c, 0, 46, 69
2, 784148, Note_on_c, 0, 87, 90
2, 784150, Note_off_c, 0, 79, 64
2, 784152, Note_off_c, 0, 39, 64
2, 784198, Note_on_c, 0, 75, 79
2, 784198, Note_on_c, 0, 67, 56
2, 784218, Note_off_c, 0, 87, 64
2, 784244, Note_on_c, 0, 82, 75
2, 784245, Note_on_c, 0, 58, 64
2, 784247, Note_off_c, 0, 67, 64
2, 784250, Note_off_c, 0, 75, 64
2, 784281, Control_c, 0, 64, 0
2, 784281, Control_c, 0, 64, 0
2, 784292, Note_on_c, 0, 91, 85
2, 784294, Note_on_c, 0, 51, 73
2, 784297, Note_off_c, 0, 82, 64
2, 784302, Note_off_c, 0, 58, 64
2, 784305, Note_off_c, 0, 46, 64
2, 784309, Control_c, 0, 64, 127
2, 784309, Control_c, 0, 64, 127
2, 784341, Note_on_c, 0, 75, 85
2, 784345, Note_on_c, 0, 70, 50
2, 784372, Note_off_c, 0, 70, 64
2, 784391, Note_on_c, 0, 58, 68
2, 784395, Note_on_c, 0, 82, 73
2, 784404, Note_off_c, 0, 91, 64
2, 784422, Note_off_c, 0, 82, 64
2, 784439, Note_off_c, 0, 51, 64
2, 784443, Note_off_c, 0, 58, 64
2, 784450, Control_c, 0, 64, 0
2, 784450, Control_c, 0, 64, 0
2, 784452, Note_off_c, 0, 75, 64
2, 784452, Note_on_c, 0, 90, 82
2, 784457, Note_on_c, 0, 45, 37
2, 784475, Control_c, 0, 64, 127
2, 784475, Control_c, 0, 64, 127
2, 784502, Note_on_c, 0, 75, 68
2, 784508, Note_on_c, 0, 60, 68
2, 784545, Note_off_c, 0, 75, 64
2, 784547, Note_on_c, 0, 54, 61
2, 784552, Note_on_c, 0, 81, 67
2, 784564, Note_off_c, 0, 90, 64
2, 784570, Note_off_c, 0, 60, 64
2, 784588, Control_c, 0, 64, 0
2, 784588, Control_c, 0, 64, 0
2, 784599, Note_on_c, 0, 47, 62
2, 784601, Note_on_c, 0, 89, 78
2, 784602, Note_off_c, 0, 45, 64
2, 784607, Note_off_c, 0, 54, 64
2, 784609, Note_off_c, 0, 81, 64
2, 784616, Control_c, 0, 64, 127
2, 784616, Control_c, 0, 64, 127
2, 784647, Note_on_c, 0, 62, 49
2, 784651, Note_on_c, 0, 74, 46
2, 784693, Note_on_c, 0, 80, 67
2, 784695, Note_on_c, 0, 56, 39
2, 784709, Note_off_c, 0, 74, 64
2, 784713, Note_off_c, 0, 89, 64
2, 784740, Note_off_c, 0, 56, 64
2, 784742, Note_on_c, 0, 88, 73
2, 784742, Note_on_c, 0, 49, 73
2, 784744, Note_off_c, 0, 47, 64
2, 784746, Note_off_c, 0, 62, 64
2, 784749, Note_off_c, 0, 80, 64
2, 784785, Note_on_c, 0, 64, 45
2, 784791, Note_on_c, 0, 73, 79
2, 784831, Note_on_c, 0, 58, 55
2, 784834, Note_on_c, 0, 79, 57
2, 784849, Note_off_c, 0, 73, 64
2, 784854, Note_off_c, 0, 88, 64
2, 784871, Control_c, 0, 64, 0
2, 784871, Control_c, 0, 64, 0
2, 784877, Note_off_c, 0, 58, 64
2, 784880, Note_on_c, 0, 87, 85
2, 784882, Note_off_c, 0, 64, 64
2, 784882, Note_on_c, 0, 51, 73
2, 784884, Note_off_c, 0, 79, 64
2, 784887, Note_off_c, 0, 49, 64
2, 784901, Control_c, 0, 64, 127
2, 784901, Control_c, 0, 64, 127
2, 784924, Note_on_c, 0, 66, 75
2, 784927, Note_on_c, 0, 72, 67
2, 784970, Note_on_c, 0, 78, 68
2, 784973, Note_on_c, 0, 60, 52
2, 784989, Note_off_c, 0, 66, 64
2, 784992, Note_off_c, 0, 87, 64
2, 784996, Control_c, 0, 64, 0
2, 784996, Control_c, 0, 64, 0
2, 785007, Note_off_c, 0, 72, 64
2, 785011, Note_on_c, 0, 53, 66
2, 785013, Note_on_c, 0, 86, 79
2, 785015, Note_off_c, 0, 60, 64
2, 785018, Note_off_c, 0, 78, 64
2, 785024, Control_c, 0, 64, 127
2, 785024, Control_c, 0, 64, 127
2, 785027, Note_off_c, 0, 51, 64
2, 785056, Note_on_c, 0, 68, 75
2, 785059, Note_on_c, 0, 71, 66
2, 785100, Note_on_c, 0, 77, 70
2, 785105, Note_on_c, 0, 62, 49
2, 785106, Note_off_c, 0, 68, 64
2, 785109, Note_off_c, 0, 71, 64
2, 785125, Note_off_c, 0, 86, 64
2, 785140, Control_c, 0, 64, 0
2, 785140, Control_c, 0, 64, 0
2, 785148, Note_off_c, 0, 62, 64
2, 785152, Note_on_c, 0, 85, 81
2, 785152, Note_on_c, 0, 55, 71
2, 785155, Note_off_c, 0, 77, 64
2, 785156, Note_off_c, 0, 53, 64
2, 785162, Control_c, 0, 64, 127
2, 785163, Control_c, 0, 64, 127
2, 785198, Note_on_c, 0, 70, 75
2, 785201, Note_on_c, 0, 73, 74
2, 785239, Note_off_c, 0, 85, 64
2, 785242, Note_on_c, 0, 79, 75
2, 785243, Note_off_c, 0, 70, 64
2, 785245, Note_on_c, 0, 64, 39
2, 785248, Note_off_c, 0, 73, 64
2, 785293, Control_c, 0, 64, 0
2, 785293, Control_c, 0, 64, 0
2, 785297, Note_off_c, 0, 55, 64
2, 785298, Note_off_c, 0, 64, 64
2, 785303, Note_off_c, 0, 79, 64
2, 785303, Note_on_c, 0, 84, 82
2, 785305, Note_on_c, 0, 56, 72
2, 785327, Control_c, 0, 64, 127
2, 785327, Control_c, 0, 64, 127
2, 785359, Note_on_c, 0, 72, 35
2, 785359, Note_on_c, 0, 68, 73
2, 785373, Note_off_c, 0, 84, 64
2, 785401, Note_on_c, 0, 77, 45
2, 785408, Note_on_c, 0, 65, 34
2, 785416, Note_off_c, 0, 68, 64
2, 785424, Note_off_c, 0, 72, 64
2, 785440, Note_off_c, 0, 56, 64
2, 785444, Note_off_c, 0, 65, 64
2, 785444, Note_on_c, 0, 86, 81
2, 785447, Note_on_c, 0, 60, 71
2, 785452, Note_off_c, 0, 77, 64
2, 785492, Note_on_c, 0, 74, 60
2, 785493, Note_on_c, 0, 68, 62
2, 785532, Note_on_c, 0, 77, 60
2, 785538, Note_on_c, 0, 65, 49
2, 785546, Note_off_c, 0, 74, 64
2, 785547, Note_off_c, 0, 68, 64
2, 785556, Note_off_c, 0, 86, 64
2, 785567, Note_off_c, 0, 65, 64
2, 785577, Note_on_c, 0, 56, 68
2, 785580, Note_on_c, 0, 87, 90
2, 785582, Note_off_c, 0, 60, 64
2, 785586, Note_off_c, 0, 77, 64
2, 785619, Note_on_c, 0, 68, 50
2, 785620, Note_on_c, 0, 72, 44
2, 785659, Note_off_c, 0, 68, 64
2, 785662, Note_off_c, 0, 72, 64
2, 785662, Note_on_c, 0, 77, 69
2, 785692, Note_off_c, 0, 87, 64
2, 785712, Note_off_c, 0, 56, 64
2, 785714, Note_off_c, 0, 77, 64
2, 785722, Note_on_c, 0, 53, 69
2, 785727, Note_on_c, 0, 89, 85
2, 785781, Note_on_c, 0, 77, 70
2, 785783, Note_on_c, 0, 75, 79
2, 785823, Note_off_c, 0, 89, 64
2, 785830, Note_on_c, 0, 84, 74
2, 785830, Note_on_c, 0, 68, 63
2, 785834, Note_off_c, 0, 75, 64
2, 785843, Note_off_c, 0, 77, 64
2, 785857, Note_off_c, 0, 53, 64
2, 785863, Note_off_c, 0, 68, 64
2, 785872, Note_on_c, 0, 91, 90
2, 785872, Note_on_c, 0, 63, 89
2, 785875, Note_off_c, 0, 84, 64
2, 785912, Note_on_c, 0, 79, 68
2, 785914, Note_on_c, 0, 75, 62
2, 785948, Note_off_c, 0, 75, 64
2, 785961, Note_on_c, 0, 68, 54
2, 785963, Note_on_c, 0, 84, 71
2, 785975, Note_off_c, 0, 79, 64
2, 785984, Note_off_c, 0, 91, 64
2, 786000, Note_on_c, 0, 56, 73
2, 786004, Note_on_c, 0, 89, 82
2, 786009, Note_off_c, 0, 84, 64
2, 786013, Note_off_c, 0, 68, 64
2, 786017, Note_off_c, 0, 63, 64
2, 786051, Note_on_c, 0, 77, 66
2, 786051, Note_on_c, 0, 75, 83
2, 786085, Note_off_c, 0, 75, 64
2, 786091, Note_off_c, 0, 89, 64
2, 786092, Note_on_c, 0, 84, 75
2, 786095, Note_on_c, 0, 68, 73
2, 786104, Note_off_c, 0, 77, 64
2, 786144, Note_off_c, 0, 84, 64
2, 786145, Note_off_c, 0, 56, 64
2, 786147, Note_off_c, 0, 68, 64
2, 786150, Control_c, 0, 64, 0
2, 786150, Control_c, 0, 64, 0
2, 786156, Note_on_c, 0, 44, 79
2, 786161, Note_on_c, 0, 84, 83
2, 786180, Control_c, 0, 64, 127
2, 786180, Control_c, 0, 64, 127
2, 786206, Note_on_c, 0, 68, 89
2, 786209, Note_on_c, 0, 72, 63
2, 786254, Note_on_c, 0, 65, 69
2, 786255, Note_on_c, 0, 77, 69
2, 786258, Note_off_c, 0, 68, 64
2, 786273, Note_off_c, 0, 72, 64
2, 786273, Note_off_c, 0, 84, 64
2, 786294, Note_off_c, 0, 65, 64
2, 786311, Note_on_c, 0, 86, 79
2, 786311, Note_on_c, 0, 56, 78
2, 786316, Note_off_c, 0, 44, 64
2, 786326, Note_off_c, 0, 77, 64
2, 786339, Note_on_c, 0, 60, 62
2, 786363, Note_off_c, 0, 56, 64
2, 786364, Note_on_c, 0, 74, 73
2, 786369, Note_on_c, 0, 68, 87
2, 786401, Note_off_c, 0, 68, 64
2, 786414, Note_on_c, 0, 65, 59
2, 786418, Note_on_c, 0, 77, 69
2, 786423, Note_off_c, 0, 74, 64
2, 786423, Note_off_c, 0, 86, 64
2, 786460, Note_off_c, 0, 65, 64
2, 786465, Note_on_c, 0, 84, 83
2, 786468, Note_on_c, 0, 53, 66
2, 786473, Note_off_c, 0, 77, 64
2, 786484, Note_off_c, 0, 60, 64
2, 786512, Note_on_c, 0, 68, 68
2, 786518, Note_on_c, 0, 72, 55
2, 786542, Note_off_c, 0, 68, 64
2, 786550, Note_off_c, 0, 72, 64
2, 786556, Note_on_c, 0, 77, 54
2, 786558, Note_on_c, 0, 63, 54
2, 786577, Note_off_c, 0, 84, 64
2, 786586, Note_off_c, 0, 77, 64
2, 786600, Note_on_c, 0, 46, 78
2, 786605, Note_on_c, 0, 77, 83
2, 786610, Note_off_c, 0, 63, 64
2, 786613, Note_off_c, 0, 53, 64
2, 786616, Control_c, 0, 64, 127
2, 786616, Control_c, 0, 64, 127
2, 786660, Note_on_c, 0, 65, 78
2, 786663, Note_on_c, 0, 63, 86
2, 786716, Note_off_c, 0, 63, 64
2, 786719, Note_on_c, 0, 72, 79
2, 786719, Note_on_c, 0, 56, 46
2, 786725, Note_off_c, 0, 77, 64
2, 786730, Note_off_c, 0, 65, 64
2, 786745, Note_off_c, 0, 46, 64
2, 786767, Control_c, 0, 64, 0
2, 786768, Control_c, 0, 64, 0
2, 786774, Note_on_c, 0, 79, 78
2, 786779, Note_off_c, 0, 56, 64
2, 786779, Note_on_c, 0, 53, 62
2, 786782, Note_off_c, 0, 72, 64
2, 786798, Control_c, 0, 64, 127
2, 786798, Control_c, 0, 64, 127
2, 786832, Note_on_c, 0, 65, 63
2, 786835, Note_on_c, 0, 62, 57
2, 786886, Note_off_c, 0, 62, 64
2, 786886, Note_off_c, 0, 79, 64
2, 786889, Note_on_c, 0, 72, 73
2, 786892, Note_on_c, 0, 56, 64
2, 786901, Note_off_c, 0, 65, 64
2, 786924, Note_off_c, 0, 53, 64
2, 786941, Note_off_c, 0, 72, 64
2, 786942, Note_off_c, 0, 56, 64
2, 786956, Note_on_c, 0, 74, 67
2, 786956, Note_on_c, 0, 46, 67
2, 786963, Control_c, 0, 64, 0
2, 786963, Control_c, 0, 64, 0
2, 786993, Control_c, 0, 64, 127
2, 786993, Control_c, 0, 64, 127
2, 787026, Note_on_c, 0, 62, 52
2, 787028, Note_on_c, 0, 58, 49
2, 787099, Note_on_c, 0, 70, 54
2, 787101, Note_off_c, 0, 46, 64
2, 787101, Note_on_c, 0, 56, 35
2, 787103, Note_off_c, 0, 58, 64
2, 787111, Note_off_c, 0, 74, 64
2, 787112, Note_off_c, 0, 62, 64
2, 787153, Note_off_c, 0, 56, 64
2, 787185, Note_off_c, 0, 70, 64
2, 787189, Control_c, 0, 64, 0
2, 787189, Control_c, 0, 64, 0
2, 787193, Note_on_c, 0, 75, 66
2, 787196, Note_on_c, 0, 39, 39
2, 787221, Control_c, 0, 64, 127
2, 787221, Control_c, 0, 64, 127
2, 787270, Note_on_c, 0, 63, 54
2, 787285, Note_on_c, 0, 55, 35
2, 787324, Note_off_c, 0, 75, 64
2, 787328, Note_off_c, 0, 55, 64
2, 787328, Note_on_c, 0, 70, 52
2, 787330, Note_off_c, 0, 63, 64
2, 787330, Note_on_c, 0, 46, 35
2, 787356, Note_off_c, 0, 39, 64
2, 787380, Note_off_c, 0, 70, 64
2, 787386, Note_off_c, 0, 46, 64
2, 787395, Note_on_c, 0, 82, 68
2, 787395, Note_on_c, 0, 39, 34
2, 787444, Note_on_c, 0, 58, 52
2, 787448, Note_on_c, 0, 67, 45
2, 787479, Note_off_c, 0, 58, 64
2, 787497, Note_on_c, 0, 75, 49
2, 787501, Note_on_c, 0, 46, 35
2, 787507, Note_off_c, 0, 67, 64
2, 787507, Note_off_c, 0, 82, 64
2, 787540, Note_off_c, 0, 39, 64
2, 787546, Note_off_c, 0, 46, 64
2, 787549, Note_on_c, 0, 39, 51
2, 787555, Note_on_c, 0, 83, 54
2, 787561, Note_off_c, 0, 75, 64
2, 787607, Note_on_c, 0, 58, 65
2, 787608, Note_on_c, 0, 67, 53
2, 787647, Note_off_c, 0, 58, 64
2, 787655, Note_on_c, 0, 75, 52
2, 787657, Note_on_c, 0, 46, 35
2, 787661, Note_off_c, 0, 67, 64
2, 787667, Note_off_c, 0, 83, 64
2, 787694, Note_off_c, 0, 39, 64
2, 787704, Note_off_c, 0, 46, 64
2, 787706, Note_on_c, 0, 82, 70
2, 787709, Note_on_c, 0, 39, 59
2, 787715, Note_off_c, 0, 75, 64
2, 787753, Note_on_c, 0, 68, 53
2, 787761, Note_on_c, 0, 56, 29
2, 787800, Note_off_c, 0, 56, 64
2, 787812, Note_on_c, 0, 74, 28
2, 787818, Note_off_c, 0, 82, 64
2, 787843, Note_off_c, 0, 74, 64
2, 787844, Note_off_c, 0, 39, 64
2, 787851, Note_on_c, 0, 39, 45
2, 787852, Note_on_c, 0, 81, 67
2, 787863, Note_off_c, 0, 68, 64
2, 787904, Note_on_c, 0, 58, 73
2, 787908, Note_on_c, 0, 68, 63
2, 787942, Note_off_c, 0, 58, 64
2, 787956, Note_on_c, 0, 74, 56
2, 787956, Note_on_c, 0, 46, 36
2, 787964, Note_off_c, 0, 81, 64
2, 787975, Note_off_c, 0, 68, 64
2, 787986, Note_off_c, 0, 39, 64
2, 788002, Note_on_c, 0, 39, 65
2, 788004, Note_on_c, 0, 80, 68
2, 788005, Note_off_c, 0, 46, 64
2, 788007, Note_off_c, 0, 74, 64
2, 788055, Note_on_c, 0, 68, 68
2, 788057, Note_on_c, 0, 58, 85
2, 788102, Note_off_c, 0, 80, 64
2, 788104, Note_on_c, 0, 74, 65
2, 788109, Note_on_c, 0, 46, 35
2, 788110, Note_off_c, 0, 58, 64
2, 788147, Note_off_c, 0, 39, 64
2, 788158, Control_c, 0, 64, 0
2, 788158, Control_c, 0, 64, 0
2, 788161, Note_off_c, 0, 46, 64
2, 788164, Note_off_c, 0, 74, 64
2, 788168, Note_on_c, 0, 79, 66
2, 788169, Note_on_c, 0, 39, 62
2, 788180, Note_off_c, 0, 68, 64
2, 788185, Control_c, 0, 64, 127
2, 788185, Control_c, 0, 64, 127
2, 788224, Note_on_c, 0, 58, 79
2, 788228, Note_on_c, 0, 67, 42
2, 788237, Note_off_c, 0, 79, 64
2, 788268, Note_off_c, 0, 58, 64
2, 788276, Note_on_c, 0, 75, 54
2, 788290, Note_off_c, 0, 67, 64
2, 788291, Note_on_c, 0, 46, 4
2, 788314, Note_off_c, 0, 39, 64
2, 788324, Note_off_c, 0, 46, 64
2, 788330, Note_on_c, 0, 82, 68
2, 788333, Note_on_c, 0, 39, 50
2, 788336, Note_off_c, 0, 75, 64
2, 788381, Note_on_c, 0, 58, 78
2, 788389, Note_on_c, 0, 67, 35
2, 788432, Note_on_c, 0, 75, 65
2, 788435, Note_on_c, 0, 46, 46
2, 788437, Note_off_c, 0, 58, 64
2, 788439, Note_off_c, 0, 67, 64
2, 788442, Note_off_c, 0, 82, 64
2, 788478, Note_off_c, 0, 39, 64
2, 788489, Note_off_c, 0, 46, 64
2, 788490, Note_on_c, 0, 39, 59
2, 788492, Note_on_c, 0, 84, 70
2, 788495, Note_off_c, 0, 75, 64
2, 788543, Note_on_c, 0, 67, 42
2, 788545, Note_on_c, 0, 58, 66
2, 788583, Note_off_c, 0, 58, 64
2, 788594, Note_on_c, 0, 75, 63
2, 788594, Note_on_c, 0, 46, 34
2, 788604, Note_off_c, 0, 84, 64
2, 788605, Note_off_c, 0, 67, 64
2, 788635, Note_off_c, 0, 39, 64
2, 788642, Note_off_c, 0, 46, 64
2, 788652, Note_on_c, 0, 82, 73
2, 788658, Note_on_c, 0, 39, 39
2, 788660, Note_off_c, 0, 75, 64
2, 788701, Note_on_c, 0, 68, 45
2, 788705, Note_on_c, 0, 56, 68
2, 788750, Note_off_c, 0, 82, 64
2, 788752, Note_off_c, 0, 56, 64
2, 788755, Note_on_c, 0, 46, 44
2, 788758, Note_on_c, 0, 74, 50
2, 788803, Note_off_c, 0, 46, 64
2, 788803, Note_off_c, 0, 39, 64
2, 788809, Note_on_c, 0, 39, 45
2, 788811, Note_off_c, 0, 68, 64
2, 788811, Note_on_c, 0, 81, 73
2, 788817, Note_off_c, 0, 74, 64
2, 788863, Note_on_c, 0, 58, 68
2, 788867, Note_on_c, 0, 68, 79
2, 788880, Note_off_c, 0, 81, 64
2, 788917, Note_on_c, 0, 74, 66
2, 788921, Note_on_c, 0, 46, 34
2, 788928, Note_off_c, 0, 58, 64
2, 788953, Note_off_c, 0, 46, 64
2, 788954, Note_off_c, 0, 39, 64
2, 788962, Note_off_c, 0, 68, 64
2, 788972, Note_on_c, 0, 80, 73
2, 788975, Note_on_c, 0, 39, 57
2, 788980, Note_off_c, 0, 74, 64
2, 789023, Note_on_c, 0, 58, 70
2, 789029, Note_on_c, 0, 68, 53
2, 789079, Note_on_c, 0, 46, 48
2, 789084, Note_on_c, 0, 74, 52
2, 789087, Note_off_c, 0, 58, 64
2, 789088, Note_off_c, 0, 80, 64
2, 789120, Note_off_c, 0, 39, 64
2, 789133, Control_c, 0, 64, 0
2, 789133, Control_c, 0, 64, 0
2, 789143, Note_off_c, 0, 46, 64
2, 789147, Note_on_c, 0, 79, 75
2, 789148, Note_on_c, 0, 39, 50
2, 789153, Note_off_c, 0, 74, 64
2, 789161, Note_off_c, 0, 68, 64
2, 789163, Control_c, 0, 64, 127
2, 789164, Control_c, 0, 64, 127
2, 789206, Note_on_c, 0, 58, 50
2, 789207, Note_on_c, 0, 67, 57
2, 789259, Note_off_c, 0, 79, 64
2, 789261, Note_off_c, 0, 67, 64
2, 789261, Note_on_c, 0, 75, 66
2, 789269, Note_on_c, 0, 46, 28
2, 789270, Note_off_c, 0, 58, 64
2, 789293, Note_off_c, 0, 39, 64
2, 789297, Note_off_c, 0, 46, 64
2, 789309, Note_on_c, 0, 82, 47
2, 789310, Note_off_c, 0, 75, 64
2, 789312, Note_on_c, 0, 39, 56
2, 789355, Note_on_c, 0, 58, 85
2, 789363, Note_on_c, 0, 70, 45
2, 789409, Note_on_c, 0, 46, 63
2, 789412, Note_off_c, 0, 70, 64
2, 789413, Note_on_c, 0, 79, 61
2, 789421, Note_off_c, 0, 82, 64
2, 789457, Note_off_c, 0, 39, 64
2, 789464, Note_off_c, 0, 58, 64
2, 789468, Note_off_c, 0, 46, 64
2, 789468, Note_on_c, 0, 87, 79
2, 789469, Note_off_c, 0, 79, 64
2, 789471, Note_on_c, 0, 43, 63
2, 789516, Note_on_c, 0, 58, 45
2, 789520, Note_on_c, 0, 75, 57
2, 789552, Note_off_c, 0, 87, 64
2, 789569, Note_off_c, 0, 58, 64
2, 789570, Note_on_c, 0, 82, 68
2, 789573, Note_on_c, 0, 51, 50
2, 789577, Note_off_c, 0, 75, 64
2, 789604, Control_c, 0, 64, 0
2, 789605, Control_c, 0, 64, 0
2, 789616, Note_off_c, 0, 43, 64
2, 789621, Note_off_c, 0, 82, 64
2, 789624, Note_on_c, 0, 43, 60
2, 789630, Note_off_c, 0, 51, 64
2, 789630, Note_on_c, 0, 91, 79
2, 789634, Control_c, 0, 64, 127
2, 789635, Control_c, 0, 64, 127
2, 789682, Note_on_c, 0, 65, 43
2, 789690, Note_on_c, 0, 74, 51
2, 789732, Note_off_c, 0, 65, 64
2, 789742, Note_off_c, 0, 91, 64
2, 789745, Note_on_c, 0, 83, 54
2, 789745, Note_on_c, 0, 59, 45
2, 789759, Note_off_c, 0, 74, 64
2, 789769, Note_off_c, 0, 43, 64
2, 789796, Note_on_c, 0, 89, 73
2, 789798, Note_on_c, 0, 50, 57
2, 789800, Note_off_c, 0, 59, 64
2, 789806, Note_off_c, 0, 83, 64
2, 789848, Note_on_c, 0, 74, 58
2, 789851, Note_on_c, 0, 65, 35
2, 789891, Note_off_c, 0, 65, 64
2, 789895, Note_on_c, 0, 59, 68
2, 789896, Note_on_c, 0, 79, 66
2, 789902, Note_off_c, 0, 74, 64
2, 789908, Note_off_c, 0, 89, 64
2, 789943, Note_off_c, 0, 50, 64
2, 789947, Note_off_c, 0, 59, 64
2, 789948, Note_off_c, 0, 79, 64
2, 789950, Note_on_c, 0, 87, 79
2, 789953, Note_on_c, 0, 48, 73
2, 789998, Note_on_c, 0, 63, 64
2, 789999, Note_on_c, 0, 72, 68
2, 790038, Note_off_c, 0, 63, 64
2, 790044, Note_on_c, 0, 55, 67
2, 790049, Note_on_c, 0, 79, 73
2, 790062, Note_off_c, 0, 87, 64
2, 790063, Note_off_c, 0, 72, 64
2, 790095, Control_c, 0, 64, 0
2, 790096, Note_off_c, 0, 55, 64
2, 790096, Control_c, 0, 64, 0
2, 790098, Note_off_c, 0, 48, 64
2, 790104, Note_off_c, 0, 79, 64
2, 790104, Note_on_c, 0, 87, 79
2, 790104, Note_on_c, 0, 45, 66
2, 790121, Control_c, 0, 64, 127
2, 790121, Control_c, 0, 64, 127
2, 790160, Note_on_c, 0, 72, 56
2, 790160, Note_on_c, 0, 63, 56
2, 790208, Note_on_c, 0, 54, 50
2, 790210, Note_on_c, 0, 78, 72
2, 790216, Note_off_c, 0, 87, 64
2, 790220, Note_off_c, 0, 63, 64
2, 790227, Note_off_c, 0, 72, 64
2, 790249, Note_off_c, 0, 45, 64
2, 790260, Note_on_c, 0, 86, 73
2, 790262, Note_off_c, 0, 78, 64
2, 790264, Note_off_c, 0, 54, 64
2, 790264, Note_on_c, 0, 51, 62
2, 790313, Note_on_c, 0, 71, 49
2, 790314, Note_on_c, 0, 63, 52
2, 790355, Note_off_c, 0, 63, 64
2, 790362, Note_on_c, 0, 78, 67
2, 790364, Note_on_c, 0, 54, 59
2, 790372, Note_off_c, 0, 86, 64
2, 790388, Note_off_c, 0, 71, 64
2, 790407, Control_c, 0, 64, 0
2, 790407, Control_c, 0, 64, 0
2, 790409, Note_off_c, 0, 51, 64
2, 790415, Note_on_c, 0, 84, 75
2, 790419, Note_on_c, 0, 45, 63
2, 790424, Note_off_c, 0, 78, 64
2, 790432, Note_off_c, 0, 54, 64
2, 790433, Control_c, 0, 64, 127
2, 790433, Control_c, 0, 64, 127
2, 790468, Note_on_c, 0, 72, 64
2, 790471, Note_on_c, 0, 63, 85
2, 790503, Note_off_c, 0, 63, 64
2, 790506, Note_off_c, 0, 84, 64
2, 790520, Note_on_c, 0, 78, 68
2, 790523, Note_on_c, 0, 54, 56
2, 790536, Note_off_c, 0, 72, 64
2, 790564, Note_off_c, 0, 45, 64
2, 790565, Control_c, 0, 64, 0
2, 790565, Control_c, 0, 64, 0
2, 790577, Note_on_c, 0, 84, 73
2, 790582, Note_off_c, 0, 78, 64
2, 790584, Note_on_c, 0, 46, 62
2, 790587, Note_off_c, 0, 54, 64
2, 790594, Control_c, 0, 64, 127
2, 790594, Control_c, 0, 64, 127
2, 790636, Note_on_c, 0, 62, 43
2, 790637, Note_on_c, 0, 68, 82
2, 790685, Note_on_c, 0, 56, 48
2, 790689, Note_off_c, 0, 84, 64
2, 790692, Note_on_c, 0, 77, 70
2, 790705, Note_off_c, 0, 62, 64
2, 790729, Note_off_c, 0, 46, 64
2, 790734, Control_c, 0, 64, 0
2, 790734, Control_c, 0, 64, 0
2, 790742, Note_on_c, 0, 82, 78
2, 790746, Note_off_c, 0, 77, 64
2, 790747, Note_on_c, 0, 53, 61
2, 790750, Note_off_c, 0, 56, 64
2, 790753, Note_off_c, 0, 68, 64
2, 790757, Control_c, 0, 64, 127
2, 790757, Control_c, 0, 64, 127
2, 790797, Note_on_c, 0, 67, 68
2, 790800, Note_on_c, 0, 62, 35
2, 790843, Note_on_c, 0, 72, 70
2, 790845, Note_on_c, 0, 56, 61
2, 790854, Note_off_c, 0, 82, 64
2, 790855, Note_off_c, 0, 62, 64
2, 790860, Note_off_c, 0, 67, 64
2, 790892, Note_off_c, 0, 53, 64
2, 790894, Note_on_c, 0, 80, 73
2, 790898, Control_c, 0, 64, 0
2, 790898, Control_c, 0, 64, 0
2, 790903, Note_on_c, 0, 46, 56
2, 790908, Note_off_c, 0, 72, 64
2, 790909, Note_off_c, 0, 56, 64
2, 790923, Control_c, 0, 64, 127
2, 790924, Control_c, 0, 64, 127
2, 790953, Note_on_c, 0, 65, 45
2, 790959, Note_on_c, 0, 58, 33
2, 791006, Note_off_c, 0, 80, 64
2, 791008, Note_off_c, 0, 58, 64
2, 791008, Note_on_c, 0, 74, 67
2, 791011, Note_on_c, 0, 56, 46
2, 791048, Note_off_c, 0, 46, 64
2, 791056, Note_off_c, 0, 74, 64
2, 791063, Note_off_c, 0, 56, 64
2, 791067, Note_off_c, 0, 65, 64
2, 791086, Control_c, 0, 64, 0
2, 791086, Control_c, 0, 64, 0
2, 791092, Note_on_c, 0, 79, 58
2, 791093, Note_on_c, 0, 39, 55
2, 791112, Control_c, 0, 64, 127
2, 791112, Control_c, 0, 64, 127
2, 791160, Note_on_c, 0, 55, 57
2, 791162, Note_on_c, 0, 63, 52
2, 791203, Note_off_c, 0, 79, 64
2, 791215, Note_off_c, 0, 55, 64
2, 791216, Note_on_c, 0, 75, 62
2, 791223, Note_on_c, 0, 46, 35
2, 791229, Note_off_c, 0, 63, 64
2, 791253, Note_off_c, 0, 39, 64
2, 791258, Note_off_c, 0, 46, 64
2, 791266, Note_off_c, 0, 75, 64
2, 791269, Note_on_c, 0, 39, 48
2, 791271, Note_on_c, 0, 82, 73
2, 791325, Note_on_c, 0, 58, 64
2, 791328, Note_on_c, 0, 67, 48
2, 791372, Note_on_c, 0, 75, 68
2, 791376, Note_off_c, 0, 58, 64
2, 791383, Note_off_c, 0, 82, 64
2, 791393, Note_on_c, 0, 46, 4
2, 791414, Note_off_c, 0, 39, 64
2, 791414, Note_off_c, 0, 67, 64
2, 791416, Note_off_c, 0, 46, 64
2, 791427, Note_on_c, 0, 39, 67
2, 791428, Note_on_c, 0, 83, 73
2, 791438, Note_off_c, 0, 75, 64
2, 791481, Note_on_c, 0, 67, 38
2, 791484, Note_on_c, 0, 58, 82
2, 791540, Note_off_c, 0, 83, 64
2, 791540, Note_on_c, 0, 75, 74
2, 791542, Note_on_c, 0, 46, 37
2, 791547, Note_off_c, 0, 58, 64
2, 791587, Note_off_c, 0, 39, 64
2, 791601, Note_off_c, 0, 46, 64
2, 791603, Control_c, 0, 64, 0
2, 791603, Control_c, 0, 64, 0
2, 791606, Note_off_c, 0, 67, 64
2, 791608, Note_on_c, 0, 82, 76
2, 791612, Note_on_c, 0, 39, 60
2, 791615, Note_off_c, 0, 75, 64
2, 791629, Control_c, 0, 64, 127
2, 791629, Control_c, 0, 64, 127
2, 791673, Note_on_c, 0, 68, 57
2, 791681, Note_on_c, 0, 56, 27
2, 791688, Note_off_c, 0, 82, 64
2, 791732, Note_off_c, 0, 56, 64
2, 791732, Note_on_c, 0, 74, 52
2, 791772, Note_off_c, 0, 39, 64
2, 791777, Note_on_c, 0, 81, 75
2, 791777, Note_on_c, 0, 39, 57
2, 791779, Note_off_c, 0, 74, 64
2, 791787, Note_off_c, 0, 68, 64
2, 791830, Note_on_c, 0, 58, 74
2, 791831, Note_off_c, 0, 81, 64
2, 791831, Note_on_c, 0, 68, 81
2, 791871, Note_off_c, 0, 58, 64
2, 791881, Note_on_c, 0, 74, 69
2, 791886, Note_on_c, 0, 46, 35
2, 791902, Note_off_c, 0, 68, 64
2, 791922, Note_off_c, 0, 39, 64
2, 791930, Note_off_c, 0, 46, 64
2, 791930, Note_on_c, 0, 80, 78
2, 791933, Note_on_c, 0, 39, 68
2, 791938, Note_off_c, 0, 74, 64
2, 791984, Note_on_c, 0, 58, 73
2, 791986, Note_on_c, 0, 68, 73
2, 792027, Note_off_c, 0, 58, 64
2, 792034, Note_on_c, 0, 74, 73
2, 792038, Note_on_c, 0, 46, 35
2, 792040, Note_off_c, 0, 80, 64
2, 792093, Note_off_c, 0, 39, 64
2, 792095, Control_c, 0, 64, 0
2, 792095, Control_c, 0, 64, 0
2, 792102, Note_on_c, 0, 39, 46
2, 792106, Note_on_c, 0, 79, 72
2, 792108, Note_off_c, 0, 46, 64
2, 792108, Note_off_c, 0, 74, 64
2, 792125, Control_c, 0, 64, 127
2, 792125, Control_c, 0, 64, 127
2, 792137, Note_off_c, 0, 68, 64
2, 792166, Note_on_c, 0, 58, 69
2, 792172, Note_on_c, 0, 67, 42
2, 792210, Note_off_c, 0, 58, 64
2, 792218, Note_off_c, 0, 79, 64
2, 792222, Note_on_c, 0, 75, 45
2, 792222, Note_on_c, 0, 46, 34
2, 792239, Note_off_c, 0, 67, 64
2, 792262, Note_off_c, 0, 39, 64
2, 792263, Note_off_c, 0, 46, 64
2, 792273, Note_on_c, 0, 39, 44
2, 792276, Note_on_c, 0, 82, 72
2, 792282, Note_off_c, 0, 75, 64
2, 792321, Note_on_c, 0, 58, 78
2, 792328, Note_on_c, 0, 67, 58
2, 792361, Note_off_c, 0, 58, 64
2, 792370, Note_on_c, 0, 75, 70
2, 792374, Note_on_c, 0, 46, 45
2, 792379, Note_off_c, 0, 67, 64
2, 792388, Note_off_c, 0, 82, 64
2, 792408, Note_off_c, 0, 39, 64
2, 792416, Note_off_c, 0, 46, 64
2, 792418, Note_on_c, 0, 39, 59
2, 792422, Note_on_c, 0, 84, 61
2, 792432, Note_off_c, 0, 75, 64
2, 792473, Note_on_c, 0, 58, 59
2, 792477, Note_on_c, 0, 67, 52
2, 792513, Note_off_c, 0, 58, 64
2, 792519, Note_on_c, 0, 75, 59
2, 792526, Note_on_c, 0, 46, 33
2, 792531, Note_off_c, 0, 67, 64
2, 792534, Note_off_c, 0, 84, 64
2, 792563, Note_off_c, 0, 39, 64
2, 792564, Note_off_c, 0, 46, 64
2, 792580, Note_on_c, 0, 82, 59
2, 792583, Note_on_c, 0, 39, 45
2, 792587, Note_off_c, 0, 75, 64
2, 792631, Note_on_c, 0, 68, 55
2, 792636, Note_on_c, 0, 56, 39
2, 792672, Note_off_c, 0, 82, 64
2, 792685, Note_off_c, 0, 56, 64
2, 792685, Note_on_c, 0, 46, 37
2, 792687, Note_on_c, 0, 74, 46
2, 792728, Note_off_c, 0, 39, 64
2, 792733, Note_on_c, 0, 81, 78
2, 792738, Note_on_c, 0, 39, 59
2, 792739, Note_off_c, 0, 46, 64
2, 792739, Note_off_c, 0, 68, 64
2, 792742, Control_c, 0, 64, 0
2, 792742, Control_c, 0, 64, 0
2, 792747, Note_off_c, 0, 74, 64
2, 792763, Control_c, 0, 64, 127
2, 792763, Control_c, 0, 64, 127
2, 792792, Note_on_c, 0, 58, 68
2, 792794, Note_on_c, 0, 68, 70
2, 792836, Note_off_c, 0, 58, 64
2, 792840, Note_off_c, 0, 81, 64
2, 792841, Note_on_c, 0, 46, 43
2, 792842, Note_on_c, 0, 74, 59
2, 792863, Note_off_c, 0, 68, 64
2, 792883, Note_off_c, 0, 39, 64
2, 792899, Note_off_c, 0, 46, 64
2, 792899, Note_on_c, 0, 39, 56
2, 792902, Note_on_c, 0, 80, 79
2, 792903, Note_off_c, 0, 74, 64
2, 792956, Note_on_c, 0, 68, 80
2, 792958, Note_on_c, 0, 58, 29
2, 792999, Note_off_c, 0, 58, 64
2, 793004, Note_on_c, 0, 46, 37
2, 793007, Note_on_c, 0, 74, 64
2, 793014, Note_off_c, 0, 80, 64
2, 793044, Note_off_c, 0, 68, 64
2, 793044, Note_off_c, 0, 39, 64
2, 793063, Control_c, 0, 64, 0
2, 793063, Control_c, 0, 64, 0
2, 793068, Note_off_c, 0, 46, 64
2, 793071, Note_on_c, 0, 39, 43
2, 793072, Note_off_c, 0, 74, 64
2, 793075, Note_on_c, 0, 79, 73
2, 793085, Control_c, 0, 64, 127
2, 793085, Control_c, 0, 64, 127
2, 793130, Note_on_c, 0, 58, 54
2, 793134, Note_on_c, 0, 67, 67
2, 793175, Note_off_c, 0, 67, 64
2, 793183, Note_on_c, 0, 46, 43
2, 793186, Note_on_c, 0, 75, 60
2, 793187, Note_off_c, 0, 79, 64
2, 793208, Note_off_c, 0, 58, 64
2, 793231, Note_off_c, 0, 39, 64
2, 793235, Note_off_c, 0, 46, 64
2, 793238, Note_off_c, 0, 75, 64
2, 793239, Note_on_c, 0, 82, 75
2, 793247, Note_on_c, 0, 39, 79
2, 793290, Note_on_c, 0, 58, 74
2, 793292, Note_on_c, 0, 70, 65
2, 793336, Note_on_c, 0, 46, 45
2, 793343, Note_on_c, 0, 79, 69
2, 793345, Note_off_c, 0, 70, 64
2, 793347, Note_off_c, 0, 58, 64
2, 793351, Note_off_c, 0, 82, 64
2, 793390, Note_off_c, 0, 46, 64
2, 793391, Control_c, 0, 64, 0
2, 793391, Control_c, 0, 64, 0
2, 793396, Note_on_c, 0, 87, 83
2, 793399, Note_on_c, 0, 43, 66
2, 793402, Note_off_c, 0, 79, 64
2, 793407, Note_off_c, 0, 39, 64
2, 793416, Control_c, 0, 64, 127
2, 793416, Control_c, 0, 64, 127
2, 793446, Note_on_c, 0, 58, 43
2, 793450, Note_on_c, 0, 75, 70
2, 793481, Note_off_c, 0, 58, 64
2, 793495, Note_off_c, 0, 87, 64
2, 793503, Note_on_c, 0, 82, 63
2, 793507, Note_off_c, 0, 75, 64
2, 793507, Note_on_c, 0, 51, 51
2, 793544, Note_off_c, 0, 43, 64
2, 793555, Note_off_c, 0, 82, 64
2, 793559, Note_off_c, 0, 51, 64
2, 793578, Note_on_c, 0, 31, 96
2, 793579, Note_on_c, 0, 91, 85
2, 793657, Note_on_c, 0, 60, 35
2, 793660, Note_on_c, 0, 74, 70
2, 793706, Note_on_c, 0, 53, 67
2, 793709, Note_off_c, 0, 60, 64
2, 793709, Note_on_c, 0, 83, 73
2, 793716, Note_off_c, 0, 74, 64
2, 793739, Note_off_c, 0, 91, 64
2, 793758, Note_off_c, 0, 53, 64
2, 793767, Note_on_c, 0, 89, 82
2, 793774, Note_on_c, 0, 43, 54
2, 793776, Note_off_c, 0, 83, 64
2, 793778, Note_off_c, 0, 31, 64
2, 793818, Note_on_c, 0, 74, 73
2, 793822, Note_on_c, 0, 59, 62
2, 793863, Note_on_c, 0, 53, 38
2, 793865, Note_off_c, 0, 59, 64
2, 793866, Note_on_c, 0, 83, 70
2, 793887, Note_off_c, 0, 89, 64
2, 793890, Control_c, 0, 64, 0
2, 793890, Control_c, 0, 64, 0
2, 793895, Note_off_c, 0, 74, 64
2, 793904, Note_off_c, 0, 53, 64
2, 793909, Note_off_c, 0, 43, 64
2, 793914, Note_on_c, 0, 44, 72
2, 793917, Note_on_c, 0, 88, 83
2, 793927, Note_off_c, 0, 83, 64
2, 793933, Control_c, 0, 64, 127
2, 793933, Control_c, 0, 64, 127
2, 793967, Note_on_c, 0, 59, 59
2, 793969, Note_on_c, 0, 74, 59
2, 793997, Note_off_c, 0, 88, 64
2, 794020, Note_on_c, 0, 83, 67
2, 794021, Note_on_c, 0, 52, 59
2, 794028, Note_off_c, 0, 59, 64
2, 794034, Note_off_c, 0, 74, 64
2, 794049, Note_off_c, 0, 44, 64
2, 794072, Control_c, 0, 64, 0
2, 794072, Control_c, 0, 64, 0
2, 794075, Note_off_c, 0, 52, 64
2, 794075, Note_on_c, 0, 88, 79
2, 794076, Note_on_c, 0, 45, 67
2, 794079, Note_off_c, 0, 83, 64
2, 794100, Control_c, 0, 64, 127
2, 794101, Control_c, 0, 64, 127
2, 794123, Note_on_c, 0, 73, 73
2, 794126, Note_on_c, 0, 61, 59
2, 794170, Note_off_c, 0, 88, 64
2, 794170, Note_on_c, 0, 52, 56
2, 794173, Note_off_c, 0, 61, 64
2, 794173, Note_on_c, 0, 81, 68
2, 794212, Note_off_c, 0, 81, 64
2, 794220, Note_off_c, 0, 52, 64
2, 794220, Control_c, 0, 64, 0
2, 794220, Control_c, 0, 64, 0
2, 794221, Note_off_c, 0, 45, 64
2, 794229, Note_on_c, 0, 87, 78
2, 794232, Note_on_c, 0, 45, 64
2, 794243, Note_off_c, 0, 73, 64
2, 794245, Control_c, 0, 64, 127
2, 794245, Control_c, 0, 64, 127
2, 794290, Note_on_c, 0, 60, 39
2, 794294, Note_on_c, 0, 72, 73
2, 794341, Note_off_c, 0, 87, 64
2, 794346, Note_on_c, 0, 81, 67
2, 794349, Note_on_c, 0, 53, 38
2, 794352, Note_off_c, 0, 60, 64
2, 794377, Note_off_c, 0, 45, 64
2, 794380, Note_off_c, 0, 81, 64
2, 794390, Control_c, 0, 64, 0
2, 794390, Control_c, 0, 64, 0
2, 794398, Note_off_c, 0, 53, 64
2, 794398, Note_off_c, 0, 72, 64
2, 794406, Note_on_c, 0, 84, 83
2, 794407, Note_on_c, 0, 45, 68
2, 794417, Control_c, 0, 64, 127
2, 794417, Control_c, 0, 64, 127
2, 794463, Note_on_c, 0, 63, 68
2, 794467, Note_on_c, 0, 69, 54
2, 794502, Note_off_c, 0, 63, 64
2, 794518, Note_off_c, 0, 84, 64
2, 794520, Note_on_c, 0, 75, 73
2, 794520, Note_on_c, 0, 54, 59
2, 794550, Note_off_c, 0, 69, 64
2, 794552, Note_off_c, 0, 45, 64
2, 794568, Control_c, 0, 64, 0
2, 794568, Control_c, 0, 64, 0
2, 794579, Note_on_c, 0, 84, 73
2, 794583, Note_on_c, 0, 46, 73
2, 794588, Note_off_c, 0, 75, 64
2, 794592, Note_off_c, 0, 54, 64
2, 794595, Control_c, 0, 64, 127
2, 794595, Control_c, 0, 64, 127
2, 794636, Note_on_c, 0, 63, 54
2, 794639, Note_on_c, 0, 69, 48
2, 794686, Note_on_c, 0, 75, 71
2, 794691, Note_off_c, 0, 84, 64
2, 794691, Note_on_c, 0, 54, 34
2, 794697, Note_off_c, 0, 69, 64
2, 794701, Note_off_c, 0, 63, 64
2, 794728, Note_off_c, 0, 46, 64
2, 794733, Control_c, 0, 64, 0
2, 794733, Control_c, 0, 64, 0
2, 794736, Note_off_c, 0, 54, 64
2, 794740, Note_off_c, 0, 75, 64
2, 794741, Note_on_c, 0, 82, 78
2, 794746, Note_on_c, 0, 46, 63
2, 794761, Control_c, 0, 64, 127
2, 794761, Control_c, 0, 64, 127
2, 794809, Note_on_c, 0, 70, 58
2, 794814, Note_on_c, 0, 63, 68
2, 794881, Note_off_c, 0, 63, 64
2, 794882, Note_off_c, 0, 82, 64
2, 794882, Note_on_c, 0, 75, 62
2, 794887, Note_on_c, 0, 55, 44
2, 794891, Note_off_c, 0, 46, 64
2, 794894, Note_off_c, 0, 70, 64
2, 794936, Note_off_c, 0, 75, 64
2, 794939, Note_off_c, 0, 55, 64
2, 794953, Note_on_c, 0, 74, 83
2, 794955, Control_c, 0, 64, 0
2, 794955, Control_c, 0, 64, 0
2, 794957, Note_on_c, 0, 34, 82
2, 794975, Control_c, 0, 64, 127
2, 794976, Control_c, 0, 64, 127
2, 795029, Note_on_c, 0, 62, 56
2, 795050, Note_on_c, 0, 56, 54
2, 795102, Note_off_c, 0, 34, 64
2, 795140, Note_on_c, 0, 70, 68
2, 795143, Note_on_c, 0, 46, 45
2, 795148, Note_off_c, 0, 56, 64
2, 795149, Note_off_c, 0, 74, 64
2, 795199, Note_off_c, 0, 62, 64
2, 795237, Note_off_c, 0, 46, 64
2, 795238, Note_on_c, 0, 39, 39
2, 795241, Control_c, 0, 64, 0
2, 795241, Control_c, 0, 64, 0
2, 795244, Note_on_c, 0, 75, 68
2, 795250, Note_off_c, 0, 70, 64
2, 795268, Control_c, 0, 64, 127
2, 795268, Control_c, 0, 64, 127
2, 795336, Note_on_c, 0, 63, 67
2, 795345, Note_on_c, 0, 55, 52
2, 795372, Note_off_c, 0, 75, 64
2, 795398, Note_off_c, 0, 39, 64
2, 795408, Note_on_c, 0, 46, 62
2, 795410, Note_on_c, 0, 70, 58
2, 795413, Note_off_c, 0, 55, 64
2, 795418, Note_off_c, 0, 63, 64
2, 795461, Note_off_c, 0, 70, 64
2, 795478, Note_off_c, 0, 46, 64
2, 795484, Note_on_c, 0, 82, 77
2, 795488, Note_on_c, 0, 39, 61
2, 795546, Note_on_c, 0, 63, 74
2, 795548, Note_on_c, 0, 58, 69
2, 795584, Note_off_c, 0, 58, 64
2, 795593, Note_on_c, 0, 70, 61
2, 795595, Note_on_c, 0, 46, 54
2, 795602, Note_off_c, 0, 63, 64
2, 795623, Note_off_c, 0, 39, 64
2, 795640, Note_off_c, 0, 46, 64
2, 795643, Note_on_c, 0, 39, 57
2, 795645, Note_on_c, 0, 75, 72
2, 795647, Note_off_c, 0, 70, 64
2, 795684, Note_off_c, 0, 82, 64
2, 795688, Note_on_c, 0, 63, 68
2, 795694, Note_on_c, 0, 58, 74
2, 795699, Note_off_c, 0, 75, 64
2, 795722, Note_off_c, 0, 63, 64
2, 795734, Note_on_c, 0, 70, 64
2, 795734, Note_on_c, 0, 46, 61
2, 795746, Note_off_c, 0, 58, 64
2, 795776, Note_off_c, 0, 46, 64
2, 795778, Note_off_c, 0, 39, 64
2, 795781, Note_on_c, 0, 81, 72
2, 795785, Note_on_c, 0, 39, 56
2, 795786, Note_off_c, 0, 70, 64
2, 795826, Note_on_c, 0, 58, 70
2, 795833, Note_on_c, 0, 63, 75
2, 795858, Note_off_c, 0, 58, 64
2, 795872, Note_on_c, 0, 70, 64
2, 795873, Note_on_c, 0, 46, 63
2, 795880, Note_off_c, 0, 63, 64
2, 795900, Note_off_c, 0, 39, 64
2, 795915, Note_on_c, 0, 75, 51
2, 795919, Note_on_c, 0, 39, 71
2, 795924, Note_off_c, 0, 46, 64
2, 795924, Note_off_c, 0, 70, 64
2, 795957, Note_on_c, 0, 63, 59
2, 795961, Note_on_c, 0, 58, 67
2, 795963, Note_off_c, 0, 75, 64
2, 795981, Note_off_c, 0, 81, 64
2, 795994, Note_off_c, 0, 58, 64
2, 795998, Note_on_c, 0, 70, 56
2, 796002, Note_on_c, 0, 46, 51
2, 796004, Note_off_c, 0, 63, 64
2, 796034, Note_off_c, 0, 39, 64
2, 796042, Note_on_c, 0, 80, 68
2, 796045, Note_on_c, 0, 39, 66
2, 796046, Note_off_c, 0, 70, 64
2, 796048, Note_off_c, 0, 46, 64
2, 796090, Note_on_c, 0, 63, 62
2, 796091, Note_on_c, 0, 58, 68
2, 796127, Note_on_c, 0, 70, 56
2, 796129, Note_off_c, 0, 58, 64
2, 796131, Note_on_c, 0, 46, 43
2, 796139, Note_off_c, 0, 63, 64
2, 796160, Note_off_c, 0, 39, 64
2, 796176, Note_on_c, 0, 39, 48
2, 796178, Note_on_c, 0, 75, 61
2, 796180, Note_off_c, 0, 46, 64
2, 796180, Note_off_c, 0, 70, 64
2, 796220, Note_on_c, 0, 63, 52
2, 796223, Note_on_c, 0, 58, 65
2, 796230, Note_off_c, 0, 75, 64
2, 796242, Note_off_c, 0, 80, 64
2, 796254, Note_off_c, 0, 58, 64
2, 796258, Note_on_c, 0, 70, 47
2, 796258, Note_on_c, 0, 46, 44
2, 796263, Note_off_c, 0, 63, 64
2, 796291, Note_off_c, 0, 39, 64
2, 796301, Note_on_c, 0, 79, 62
2, 796304, Note_off_c, 0, 46, 64
2, 796306, Note_off_c, 0, 70, 64
2, 796306, Note_on_c, 0, 39, 57
2, 796349, Note_on_c, 0, 63, 35
2, 796351, Note_on_c, 0, 58, 61
2, 796383, Note_off_c, 0, 58, 64
2, 796389, Note_on_c, 0, 46, 34
2, 796392, Note_on_c, 0, 70, 24
2, 796405, Note_off_c, 0, 63, 64
2, 796421, Note_off_c, 0, 39, 64
2, 796434, Note_off_c, 0, 70, 64
2, 796436, Note_on_c, 0, 75, 49
2, 796439, Note_on_c, 0, 39, 49
2, 796440, Note_off_c, 0, 46, 64
2, 796481, Note_on_c, 0, 63, 43
2, 796486, Note_on_c, 0, 58, 57
2, 796501, Note_off_c, 0, 79, 64
2, 796502, Note_off_c, 0, 75, 64
2, 796516, Note_off_c, 0, 58, 64
2, 796523, Note_on_c, 0, 70, 45
2, 796525, Note_on_c, 0, 46, 26
2, 796536, Note_off_c, 0, 63, 64
2, 796554, Note_off_c, 0, 39, 64
2, 796566, Note_off_c, 0, 70, 64
2, 796569, Note_off_c, 0, 46, 64
2, 796571, Note_on_c, 0, 78, 54
2, 796575, Note_on_c, 0, 39, 40
2, 796619, Note_on_c, 0, 63, 33
2, 796625, Note_on_c, 0, 58, 51
2, 796659, Note_off_c, 0, 58, 64
2, 796659, Note_on_c, 0, 70, 32
2, 796661, Note_on_c, 0, 46, 32
2, 796679, Note_off_c, 0, 63, 64
2, 796690, Note_off_c, 0, 39, 64
2, 796706, Note_off_c, 0, 70, 64
2, 796708, Note_on_c, 0, 75, 39
2, 796708, Note_on_c, 0, 39, 46
2, 796710, Note_off_c, 0, 46, 64
2, 796752, Note_on_c, 0, 63, 39
2, 796757, Note_on_c, 0, 58, 51
2, 796771, Note_off_c, 0, 78, 64
2, 796772, Note_off_c, 0, 75, 64
2, 796782, Note_off_c, 0, 58, 64
2, 796794, Note_off_c, 0, 63, 64
2, 796799, Note_on_c, 0, 70, 26
2, 796801, Note_on_c, 0, 46, 20
2, 796823, Note_off_c, 0, 39, 64
2, 796845, Note_off_c, 0, 46, 64
2, 796853, Note_on_c, 0, 79, 47
2, 796855, Note_on_c, 0, 39, 31
2, 796857, Note_off_c, 0, 70, 64
2, 796910, Note_on_c, 0, 58, 46
2, 796916, Note_on_c, 0, 63, 23
2, 796948, Note_off_c, 0, 58, 64
2, 796967, Note_on_c, 0, 46, 25
2, 796970, Note_on_c, 0, 70, 23
2, 796998, Note_off_c, 0, 63, 64
2, 797013, Note_off_c, 0, 79, 64
2, 797015, Note_off_c, 0, 39, 64
2, 797040, Note_on_c, 0, 39, 28
2, 797041, Note_off_c, 0, 70, 64
2, 797041, Note_on_c, 0, 75, 37
2, 797044, Note_off_c, 0, 46, 64
2, 797049, Control_c, 0, 64, 0
2, 797049, Control_c, 0, 64, 0
2, 797075, Control_c, 0, 64, 127
2, 797075, Control_c, 0, 64, 127
2, 797142, Note_off_c, 0, 39, 64
2, 797143, Note_off_c, 0, 75, 64
2, 797642, Note_on_c, 0, 94, 86
2, 797642, Note_on_c, 0, 79, 82
2, 797642, Note_on_c, 0, 75, 82
2, 797642, Note_on_c, 0, 70, 80
2, 797642, Note_on_c, 0, 67, 81
2, 797643, Note_on_c, 0, 99, 100
2, 797644, Note_on_c, 0, 87, 79
2, 797647, Control_c, 0, 64, 127
2, 797647, Control_c, 0, 64, 127
2, 797656, Note_off_c, 0, 67, 64
2, 797656, Note_off_c, 0, 70, 64
2, 797656, Note_off_c, 0, 75, 64
2, 797656, Note_off_c, 0, 79, 64
2, 797656, Note_off_c, 0, 94, 64
2, 797657, Note_off_c, 0, 99, 64
2, 797658, Note_off_c, 0, 87, 64
2, 798424, Note_on_c, 0, 67, 93
2, 798428, Note_on_c, 0, 63, 93
2, 798428, Note_on_c, 0, 58, 89
2, 798428, Note_on_c, 0, 51, 85
2, 798430, Note_on_c, 0, 55, 89
2, 798432, Note_on_c, 0, 39, 90
2, 798434, Note_on_c, 0, 46, 87
2, 799384, Note_off_c, 0, 67, 64
2, 799388, Note_off_c, 0, 51, 64
2, 799388, Note_off_c, 0, 58, 64
2, 799388, Note_off_c, 0, 63, 64
2, 799390, Note_off_c, 0, 55, 64
2, 799392, Note_off_c, 0, 39, 64
2, 799394, Note_off_c, 0, 46, 64
2, 799977, Note_on_c, 0, 36, 101
2, 799980, Note_on_c, 0, 55, 90
2, 799981, Note_on_c, 0, 67, 100
2, 799982, Note_on_c, 0, 63, 98
2, 799982, Note_on_c, 0, 60, 100
2, 799983, Note_on_c, 0, 48, 103
2, 801025, Note_off_c, 0, 55, 64
2, 801122, Note_off_c, 0, 36, 64
2, 801126, Note_off_c, 0, 67, 64
2, 801127, Note_off_c, 0, 60, 64
2, 801127, Note_off_c, 0, 63, 64
2, 801128, Note_off_c, 0, 48, 64
2, 801144, Note_on_c, 0, 68, 101
2, 801144, Note_on_c, 0, 56, 85
2, 801154, Note_on_c, 0, 63, 98
2, 801154, Note_on_c, 0, 41, 100
2, 801155, Note_on_c, 0, 60, 103
2, 801155, Note_on_c, 0, 29, 96
2, 802335, Note_off_c, 0, 56, 64
2, 802345, Note_off_c, 0, 68, 64
2, 802355, Note_off_c, 0, 41, 64
2, 802355, Note_off_c, 0, 63, 64
2, 802356, Note_off_c, 0, 29, 64
2, 802356, Note_off_c, 0, 60, 64
2, 802363, Note_on_c, 0, 67, 96
2, 802363, Note_on_c, 0, 63, 96
2, 802364, Note_on_c, 0, 59, 100
2, 802371, Note_on_c, 0, 55, 100
2, 802371, Note_on_c, 0, 31, 98
2, 802378, Note_on_c, 0, 43, 100
2, 803308, Note_off_c, 0, 63, 64
2, 803353, Note_on_c, 0, 62, 75
2, 803359, Note_on_c, 0, 65, 81
2, 803598, Note_off_c, 0, 62, 64
2, 803604, Note_off_c, 0, 65, 64
2, 803623, Note_off_c, 0, 67, 64
2, 803624, Note_off_c, 0, 59, 64
2, 803626, Note_off_c, 0, 31, 64
2, 803626, Note_off_c, 0, 55, 64
2, 803632, Note_on_c, 0, 63, 83
2, 803633, Note_off_c, 0, 43, 64
2, 803633, Note_on_c, 0, 55, 83
2, 803634, Note_on_c, 0, 60, 83
2, 803634, Note_on_c, 0, 51, 82
2, 803642, Note_on_c, 0, 43, 79
2, 803642, Note_on_c, 0, 36, 79
2, 803649, Note_on_c, 0, 48, 81
2, 803830, Control_c, 0, 64, 0
2, 803968, Control_c, 0, 64, 127
2, 804659, Note_off_c, 0, 63, 64
2, 804660, Note_off_c, 0, 55, 64
2, 804661, Note_off_c, 0, 51, 64
2, 804661, Note_off_c, 0, 60, 64
2, 804669, Note_off_c, 0, 36, 64
2, 804669, Note_off_c, 0, 43, 64
2, 804676, Note_off_c, 0, 48, 64
2, 804902, Note_on_c, 0, 63, 96
2, 804907, Note_on_c, 0, 56, 100
2, 804907, Note_on_c, 0, 32, 96
2, 804908, Note_on_c, 0, 51, 96
2, 804908, Note_on_c, 0, 44, 98
2, 804915, Note_on_c, 0, 60, 100
2, 804944, Control_c, 0, 64, 0
2, 805052, Control_c, 0, 64, 127
2, 806182, Note_off_c, 0, 63, 64
2, 806187, Note_off_c, 0, 32, 64
2, 806187, Note_off_c, 0, 56, 64
2, 806188, Note_off_c, 0, 44, 64
2, 806188, Note_off_c, 0, 51, 64
2, 806192, Note_on_c, 0, 65, 95
2, 806192, Note_on_c, 0, 56, 96
2, 806193, Note_on_c, 0, 61, 94
2, 806195, Note_off_c, 0, 60, 64
2, 806201, Note_on_c, 0, 53, 94
2, 806201, Note_on_c, 0, 37, 98
2, 806201, Note_on_c, 0, 25, 96
2, 806226, Control_c, 0, 64, 0
2, 806334, Control_c, 0, 64, 127
2, 807462, Note_off_c, 0, 56, 64
2, 807462, Note_off_c, 0, 65, 64
2, 807463, Note_off_c, 0, 61, 64
2, 807471, Note_off_c, 0, 25, 64
2, 807471, Note_off_c, 0, 37, 64
2, 807471, Note_off_c, 0, 53, 64
2, 807472, Note_on_c, 0, 63, 93
2, 807474, Note_on_c, 0, 49, 97
2, 807478, Note_on_c, 0, 51, 93
2, 807484, Note_on_c, 0, 60, 94
2, 807484, Note_on_c, 0, 55, 96
2, 807484, Note_on_c, 0, 39, 97
2, 807486, Note_on_c, 0, 27, 92
2, 807528, Control_c, 0, 64, 0
2, 807632, Control_c, 0, 64, 127
2, 808360, Note_on_c, 0, 58, 86
2, 808367, Note_on_c, 0, 61, 87
2, 808750, Note_off_c, 0, 58, 64
2, 808752, Note_off_c, 0, 63, 64
2, 808753, Note_off_c, 0, 51, 64
2, 808754, Note_off_c, 0, 49, 64
2, 808757, Note_off_c, 0, 61, 64
2, 808762, Note_on_c, 0, 56, 94
2, 808763, Note_on_c, 0, 51, 97
2, 808763, Note_on_c, 0, 48, 94
2, 808763, Note_on_c, 0, 32, 93
2, 808764, Note_off_c, 0, 39, 64
2, 808764, Note_off_c, 0, 55, 64
2, 808764, Note_off_c, 0, 60, 64
2, 808765, Note_on_c, 0, 44, 96
2, 808766, Note_off_c, 0, 27, 64
2, 808776, Note_on_c, 0, 60, 98
2, 808833, Control_c, 0, 64, 0
2, 808935, Control_c, 0, 64, 127
2, 809917, Note_off_c, 0, 56, 64
2, 809918, Note_off_c, 0, 32, 64
2, 809918, Note_off_c, 0, 48, 64
2, 809918, Note_off_c, 0, 51, 64
2, 809920, Note_off_c, 0, 44, 64
2, 809931, Note_off_c, 0, 60, 64
2, 810467, Note_on_c, 0, 62, 89
2, 810468, Note_on_c, 0, 53, 96
2, 810468, Note_on_c, 0, 50, 86
2, 810468, Note_on_c, 0, 43, 95
2, 810468, Note_on_c, 0, 31, 93
2, 810478, Note_on_c, 0, 59, 94
2, 810494, Control_c, 0, 64, 0
2, 810591, Control_c, 0, 64, 127
2, 811592, Note_off_c, 0, 62, 64
2, 811593, Note_off_c, 0, 31, 64
2, 811593, Note_off_c, 0, 43, 64
2, 811593, Note_off_c, 0, 50, 64
2, 811593, Note_off_c, 0, 53, 64
2, 811599, Note_on_c, 0, 60, 92
2, 811599, Note_on_c, 0, 52, 88
2, 811599, Note_on_c, 0, 24, 81
2, 811600, Note_on_c, 0, 64, 89
2, 811600, Note_on_c, 0, 58, 96
2, 811600, Note_on_c, 0, 55, 94
2, 811603, Note_off_c, 0, 59, 64
2, 811613, Note_on_c, 0, 36, 79
2, 811624, Control_c, 0, 64, 0
2, 811711, Control_c, 0, 64, 127
2, 812809, Note_off_c, 0, 24, 64
2, 812809, Note_off_c, 0, 52, 64
2, 812809, Note_off_c, 0, 60, 64
2, 812810, Note_off_c, 0, 55, 64
2, 812810, Note_off_c, 0, 58, 64
2, 812810, Note_off_c, 0, 64, 64
2, 812811, Note_on_c, 0, 29, 92
2, 812815, Note_on_c, 0, 67, 96
2, 812815, Note_on_c, 0, 56, 86
2, 812821, Note_on_c, 0, 60, 97
2, 812821, Note_on_c, 0, 41, 86
2, 812823, Note_off_c, 0, 36, 64
2, 812841, Control_c, 0, 64, 0
2, 812945, Control_c, 0, 64, 127
2, 813825, Note_off_c, 0, 67, 64
2, 813826, Note_on_c, 0, 65, 92
2, 814181, Note_off_c, 0, 29, 64
2, 814185, Note_off_c, 0, 56, 64
2, 814191, Note_off_c, 0, 65, 64
2, 814191, Note_off_c, 0, 41, 64
2, 814191, Note_off_c, 0, 60, 64
2, 814204, Note_on_c, 0, 63, 95
2, 814208, Note_on_c, 0, 60, 96
2, 814208, Note_on_c, 0, 36, 80
2, 814215, Note_on_c, 0, 55, 89
2, 814216, Note_on_c, 0, 48, 92
2, 814248, Control_c, 0, 64, 0
2, 814342, Control_c, 0, 64, 127
2, 815145, Note_off_c, 0, 63, 64
2, 815149, Note_off_c, 0, 36, 64
2, 815149, Note_off_c, 0, 60, 64
2, 815156, Note_off_c, 0, 55, 64
2, 815157, Note_off_c, 0, 48, 64
2, 815363, Note_on_c, 0, 54, 101
2, 815369, Note_on_c, 0, 62, 102
2, 815369, Note_on_c, 0, 60, 103
2, 815369, Note_on_c, 0, 38, 93
2, 815375, Note_on_c, 0, 50, 92
2, 815375, Note_on_c, 0, 45, 92
2, 815387, Control_c, 0, 64, 0
2, 815524, Control_c, 0, 64, 127
2, 816510, Note_off_c, 0, 54, 64
2, 816516, Note_off_c, 0, 38, 64
2, 816516, Note_off_c, 0, 60, 64
2, 816516, Note_off_c, 0, 62, 64
2, 816522, Note_off_c, 0, 45, 64
2, 816522, Note_off_c, 0, 50, 64
2, 816528, Note_on_c, 0, 67, 96
2, 816535, Note_on_c, 0, 62, 98
2, 816535, Note_on_c, 0, 59, 98
2, 816536, Note_on_c, 0, 55, 94
2, 816543, Note_on_c, 0, 43, 92
2, 816543, Note_on_c, 0, 31, 94
2, 816555, Control_c, 0, 64, 0
2, 816648, Control_c, 0, 64, 127
2, 817723, Note_off_c, 0, 67, 64
2, 817730, Note_off_c, 0, 59, 64
2, 817730, Note_off_c, 0, 62, 64
2, 817731, Note_off_c, 0, 55, 64
2, 817738, Note_off_c, 0, 31, 64
2, 817738, Note_off_c, 0, 43, 64
2, 817743, Note_on_c, 0, 26, 94
2, 817747, Note_on_c, 0, 71, 97
2, 817747, Note_on_c, 0, 62, 98
2, 817753, Note_on_c, 0, 66, 94
2, 817753, Note_on_c, 0, 60, 96
2, 817761, Note_on_c, 0, 38, 97
2, 817769, Control_c, 0, 64, 0
2, 817856, Control_c, 0, 64, 127
2, 818896, Note_on_c, 0, 69, 93
2, 818902, Note_off_c, 0, 71, 64
2, 819348, Note_off_c, 0, 26, 64
2, 819352, Note_off_c, 0, 62, 64
2, 819358, Note_off_c, 0, 60, 64
2, 819360, Note_on_c, 0, 31, 80
2, 819362, Note_on_c, 0, 43, 97
2, 819363, Note_off_c, 0, 66, 64
2, 819365, Note_on_c, 0, 62, 95
2, 819366, Note_off_c, 0, 38, 64
2, 819370, Note_on_c, 0, 59, 95
2, 819371, Note_off_c, 0, 69, 64
2, 819371, Note_on_c, 0, 67, 101
2, 819371, Note_on_c, 0, 55, 110
2, 819408, Control_c, 0, 64, 0
2, 819538, Control_c, 0, 64, 127
2, 820233, Note_off_c, 0, 62, 64
2, 820240, Note_off_c, 0, 59, 64
2, 820254, Note_off_c, 0, 55, 64
2, 820286, Note_off_c, 0, 67, 64
2, 820290, Note_off_c, 0, 31, 64
2, 820290, Note_off_c, 0, 43, 64
2, 820912, Note_on_c, 0, 36, 60
2, 820915, Note_on_c, 0, 75, 80
2, 820926, Note_on_c, 0, 67, 70
2, 820926, Note_on_c, 0, 63, 66
2, 820926, Note_on_c, 0, 48, 64
2, 820935, Control_c, 0, 64, 0
2, 821056, Control_c, 0, 64, 127
2, 821685, Note_off_c, 0, 67, 64
2, 821691, Note_off_c, 0, 36, 64
2, 821694, Note_off_c, 0, 75, 64
2, 821698, Note_off_c, 0, 63, 64
2, 821705, Note_off_c, 0, 48, 64
2, 822120, Note_on_c, 0, 63, 51
2, 822124, Note_on_c, 0, 75, 65
2, 822128, Note_on_c, 0, 68, 65
2, 822130, Note_on_c, 0, 48, 65
2, 822133, Note_on_c, 0, 60, 57
2, 822155, Control_c, 0, 64, 0
2, 822243, Control_c, 0, 64, 127
2, 822974, Note_off_c, 0, 63, 64
2, 822978, Note_off_c, 0, 75, 64
2, 822982, Note_off_c, 0, 68, 64
2, 822984, Note_off_c, 0, 48, 64
2, 822987, Note_off_c, 0, 60, 64
2, 823309, Note_on_c, 0, 68, 80
2, 823312, Note_on_c, 0, 47, 59
2, 823318, Note_on_c, 0, 62, 53
2, 823318, Note_on_c, 0, 59, 55
2, 823322, Note_on_c, 0, 74, 77
2, 823372, Control_c, 0, 64, 0
2, 823468, Control_c, 0, 64, 127
2, 824179, Note_off_c, 0, 68, 64
2, 824190, Note_on_c, 0, 66, 59
2, 824416, Note_off_c, 0, 66, 64
2, 824425, Note_off_c, 0, 47, 64
2, 824431, Note_off_c, 0, 59, 64
2, 824431, Note_off_c, 0, 62, 64
2, 824435, Note_off_c, 0, 74, 64
2, 824534, Note_on_c, 0, 46, 56
2, 824543, Note_on_c, 0, 74, 78
2, 824543, Note_on_c, 0, 58, 43
2, 824547, Note_on_c, 0, 67, 69
2, 824547, Note_on_c, 0, 62, 55
2, 824603, Control_c, 0, 64, 0
2, 824700, Control_c, 0, 64, 127
2, 825387, Note_off_c, 0, 46, 64
2, 825396, Note_off_c, 0, 58, 64
2, 825396, Note_off_c, 0, 74, 64
2, 825400, Note_off_c, 0, 62, 64
2, 825400, Note_off_c, 0, 67, 64
2, 825837, Note_on_c, 0, 67, 58
2, 825837, Note_on_c, 0, 45, 69
2, 825838, Note_on_c, 0, 72, 65
2, 825840, Note_on_c, 0, 60, 62
2, 825845, Note_on_c, 0, 57, 62
2, 825888, Control_c, 0, 64, 0
2, 825979, Control_c, 0, 64, 127
2, 826564, Note_off_c, 0, 45, 64
2, 826564, Note_off_c, 0, 67, 64
2, 826565, Note_off_c, 0, 72, 64
2, 826567, Note_off_c, 0, 60, 64
2, 826572, Note_off_c, 0, 57, 64
2, 827100, Note_on_c, 0, 44, 68
2, 827104, Note_on_c, 0, 56, 53
2, 827108, Note_on_c, 0, 66, 68
2, 827117, Note_on_c, 0, 74, 57
2, 827117, Note_on_c, 0, 62, 42
2, 827117, Note_on_c, 0, 60, 45
2, 827172, Control_c, 0, 64, 0
2, 827289, Control_c, 0, 64, 127
2, 827982, Note_off_c, 0, 44, 64
2, 827986, Note_off_c, 0, 56, 64
2, 827990, Note_off_c, 0, 66, 64
2, 827999, Note_off_c, 0, 60, 64
2, 827999, Note_off_c, 0, 62, 64
2, 827999, Note_off_c, 0, 74, 64
2, 828429, Note_on_c, 0, 43, 70
2, 828432, Note_on_c, 0, 62, 66
2, 828439, Note_on_c, 0, 67, 80
2, 828440, Note_on_c, 0, 71, 78
2, 828443, Note_on_c, 0, 55, 54
2, 828461, Control_c, 0, 64, 0
2, 828546, Control_c, 0, 64, 127
2, 829332, Note_off_c, 0, 62, 64
2, 829340, Note_off_c, 0, 71, 64
2, 829347, Note_on_c, 0, 60, 55
2, 829351, Note_on_c, 0, 69, 64
2, 829446, Note_off_c, 0, 43, 64
2, 829448, Note_off_c, 0, 67, 64
2, 829452, Note_off_c, 0, 55, 64
2, 829687, Note_off_c, 0, 60, 64
2, 829691, Note_off_c, 0, 69, 64
2, 829709, Note_on_c, 0, 67, 70
2, 829714, Note_on_c, 0, 62, 66
2, 829718, Note_on_c, 0, 59, 62
2, 829724, Note_on_c, 0, 53, 45
2, 829724, Note_on_c, 0, 41, 47
2, 829770, Control_c, 0, 64, 0
2, 829925, Control_c, 0, 64, 127
2, 830601, Note_off_c, 0, 67, 64
2, 830607, Note_off_c, 0, 62, 64
2, 830610, Note_off_c, 0, 59, 64
2, 830616, Note_off_c, 0, 41, 64
2, 830616, Note_off_c, 0, 53, 64
2, 831192, Note_on_c, 0, 39, 59
2, 831200, Note_on_c, 0, 67, 58
2, 831206, Note_on_c, 0, 60, 42
2, 831206, Note_on_c, 0, 51, 54
2, 831207, Note_on_c, 0, 72, 62
2, 831266, Control_c, 0, 64, 0
2, 831382, Control_c, 0, 64, 127
2, 831892, Note_off_c, 0, 39, 64
2, 831901, Note_off_c, 0, 60, 64
2, 831906, Note_off_c, 0, 51, 64
2, 831907, Note_off_c, 0, 72, 64
2, 831908, Note_off_c, 0, 67, 64
2, 832536, Note_on_c, 0, 56, 54
2, 832536, Note_on_c, 0, 53, 45
2, 832538, Note_on_c, 0, 60, 54
2, 832544, Note_on_c, 0, 68, 59
2, 832544, Note_on_c, 0, 41, 51
2, 832592, Control_c, 0, 64, 0
2, 832712, Control_c, 0, 64, 127
2, 833698, Note_off_c, 0, 53, 64
2, 833698, Note_off_c, 0, 56, 64
2, 833700, Note_off_c, 0, 60, 64
2, 833706, Note_off_c, 0, 41, 64
2, 833706, Note_off_c, 0, 68, 64
2, 834183, Note_on_c, 0, 67, 78
2, 834183, Note_on_c, 0, 62, 81
2, 834187, Note_on_c, 0, 47, 62
2, 834192, Note_on_c, 0, 35, 66
2, 834195, Note_on_c, 0, 55, 47
2, 834241, Control_c, 0, 64, 0
2, 834344, Control_c, 0, 64, 127
2, 835250, Note_off_c, 0, 67, 64
2, 835267, Note_on_c, 0, 65, 53
2, 835401, Note_off_c, 0, 62, 64
2, 835410, Note_off_c, 0, 35, 64
2, 835413, Note_off_c, 0, 55, 64
2, 835426, Note_off_c, 0, 47, 64
2, 835591, Note_off_c, 0, 65, 64
2, 835624, Note_on_c, 0, 63, 56
2, 835624, Note_on_c, 0, 60, 55
2, 835624, Note_on_c, 0, 55, 35
2, 835624, Note_on_c, 0, 48, 45
2, 835624, Note_on_c, 0, 36, 45
2, 835669, Control_c, 0, 64, 0
2, 835827, Control_c, 0, 64, 127
2, 836586, Note_off_c, 0, 36, 64
2, 836586, Note_off_c, 0, 48, 64
2, 836586, Note_off_c, 0, 55, 64
2, 836586, Note_off_c, 0, 60, 64
2, 836586, Note_off_c, 0, 63, 64
2, 837074, Note_on_c, 0, 51, 60
2, 837080, Note_on_c, 0, 63, 67
2, 837082, Note_on_c, 0, 56, 55
2, 837085, Note_on_c, 0, 60, 65
2, 837085, Note_on_c, 0, 32, 45
2, 837086, Note_on_c, 0, 44, 49
2, 837122, Control_c, 0, 64, 0
2, 837230, Control_c, 0, 64, 127
2, 838010, Note_off_c, 0, 51, 64
2, 838016, Note_off_c, 0, 63, 64
2, 838018, Note_off_c, 0, 56, 64
2, 838021, Note_off_c, 0, 32, 64
2, 838021, Note_off_c, 0, 60, 64
2, 838022, Note_off_c, 0, 44, 64
2, 838536, Note_on_c, 0, 53, 45
2, 838540, Note_on_c, 0, 61, 66
2, 838541, Note_on_c, 0, 56, 57
2, 838544, Note_on_c, 0, 25, 66
2, 838550, Note_on_c, 0, 65, 53
2, 838556, Note_on_c, 0, 37, 44
2, 838593, Control_c, 0, 64, 0
2, 838690, Control_c, 0, 64, 127
2, 839411, Note_off_c, 0, 25, 64
2, 839511, Note_off_c, 0, 53, 64
2, 839515, Note_off_c, 0, 61, 64
2, 839516, Note_off_c, 0, 56, 64
2, 839525, Note_off_c, 0, 65, 64
2, 839531, Note_off_c, 0, 37, 64
2, 840048, Note_on_c, 0, 31, 45
2, 840049, Note_on_c, 0, 63, 45
2, 840049, Note_on_c, 0, 59, 56
2, 840055, Note_on_c, 0, 43, 39
2, 840060, Note_on_c, 0, 55, 35
2, 840061, Note_on_c, 0, 53, 33
2, 840147, Control_c, 0, 64, 0
2, 840256, Control_c, 0, 64, 127
2, 841234, Note_on_c, 0, 62, 38
2, 841236, Note_off_c, 0, 63, 64
2, 841358, Note_off_c, 0, 31, 64
2, 841359, Note_off_c, 0, 59, 64
2, 841362, Note_off_c, 0, 43, 64
2, 841370, Note_off_c, 0, 55, 64
2, 841371, Note_off_c, 0, 53, 64
2, 841591, Note_off_c, 0, 62, 64
2, 841686, Note_on_c, 0, 24, 41
2, 841688, Note_on_c, 0, 60, 42
2, 841688, Note_on_c, 0, 55, 40
2, 841688, Note_on_c, 0, 51, 42
2, 841695, Note_on_c, 0, 36, 40
2, 841807, Control_c, 0, 64, 0
2, 841943, Control_c, 0, 64, 127
2, 842503, Note_off_c, 0, 51, 64
2, 842503, Note_off_c, 0, 55, 64
2, 842503, Note_off_c, 0, 60, 64
2, 842510, Note_off_c, 0, 36, 64
2, 842541, Note_off_c, 0, 24, 64
2, 843056, Note_on_c, 0, 67, 43
2, 843057, Note_on_c, 0, 75, 36
2, 843063, Note_on_c, 0, 63, 33
2, 843081, Note_on_c, 0, 48, 28
2, 843081, Note_on_c, 0, 36, 25
2, 843148, Control_c, 0, 64, 0
2, 843243, Control_c, 0, 64, 127
2, 843889, Note_off_c, 0, 67, 64
2, 843890, Note_off_c, 0, 75, 64
2, 843896, Note_off_c, 0, 63, 64
2, 843914, Note_off_c, 0, 36, 64
2, 843914, Note_off_c, 0, 48, 64
2, 844201, Note_on_c, 0, 48, 36
2, 844208, Note_on_c, 0, 68, 33
2, 844208, Note_on_c, 0, 63, 36
2, 844216, Note_on_c, 0, 75, 40
2, 844216, Note_on_c, 0, 60, 29
2, 844244, Control_c, 0, 64, 0
2, 844309, Control_c, 0, 64, 127
2, 845046, Note_off_c, 0, 48, 64
2, 845053, Note_off_c, 0, 63, 64
2, 845053, Note_off_c, 0, 68, 64
2, 845061, Note_off_c, 0, 60, 64
2, 845061, Note_off_c, 0, 75, 64
2, 845386, Note_on_c, 0, 68, 49
2, 845395, Note_on_c, 0, 74, 35
2, 845403, Note_on_c, 0, 62, 27
2, 845403, Note_on_c, 0, 59, 33
2, 845414, Note_on_c, 0, 47, 31
2, 845491, Control_c, 0, 64, 0
2, 845595, Control_c, 0, 64, 127
2, 846256, Note_off_c, 0, 68, 64
2, 846264, Note_on_c, 0, 66, 40
2, 846412, Note_off_c, 0, 74, 64
2, 846420, Note_off_c, 0, 59, 64
2, 846420, Note_off_c, 0, 62, 64
2, 846431, Note_off_c, 0, 47, 64
2, 846463, Note_off_c, 0, 66, 64
2, 846588, Note_on_c, 0, 46, 40
2, 846591, Note_on_c, 0, 58, 33
2, 846597, Note_on_c, 0, 74, 46
2, 846597, Note_on_c, 0, 67, 39
2, 846603, Note_on_c, 0, 62, 32
2, 846669, Control_c, 0, 64, 0
2, 846764, Control_c, 0, 64, 127
2, 847492, Note_off_c, 0, 46, 64
2, 847495, Note_off_c, 0, 58, 64
2, 847501, Note_off_c, 0, 67, 64
2, 847501, Note_off_c, 0, 74, 64
2, 847509, Note_off_c, 0, 62, 64
2, 847888, Note_on_c, 0, 60, 32
2, 847890, Note_on_c, 0, 72, 36
2, 847890, Note_on_c, 0, 45, 36
2, 847896, Note_on_c, 0, 57, 40
2, 847897, Note_on_c, 0, 67, 33
2, 847957, Control_c, 0, 64, 0
2, 848056, Control_c, 0, 64, 127
2, 848689, Note_off_c, 0, 72, 64
2, 848700, Note_off_c, 0, 60, 64
2, 848701, Note_off_c, 0, 67, 64
2, 848702, Note_off_c, 0, 45, 64
2, 848708, Note_off_c, 0, 57, 64
2, 849090, Note_on_c, 0, 66, 49
2, 849097, Note_on_c, 0, 44, 39
2, 849099, Note_on_c, 0, 74, 51
2, 849104, Note_on_c, 0, 56, 32
2, 849108, Note_on_c, 0, 60, 31
2, 849112, Note_on_c, 0, 62, 31
2, 849177, Control_c, 0, 64, 0
2, 849265, Control_c, 0, 64, 127
2, 849976, Note_off_c, 0, 66, 64
2, 849983, Note_off_c, 0, 44, 64
2, 849985, Note_off_c, 0, 74, 64
2, 849990, Note_off_c, 0, 56, 64
2, 849994, Note_off_c, 0, 60, 64
2, 849998, Note_off_c, 0, 62, 64
2, 850389, Note_on_c, 0, 55, 32
2, 850394, Note_on_c, 0, 67, 32
2, 850394, Note_on_c, 0, 62, 33
2, 850395, Note_on_c, 0, 71, 33
2, 850395, Note_on_c, 0, 43, 33
2, 850470, Control_c, 0, 64, 0
2, 850546, Control_c, 0, 64, 127
2, 851304, Note_off_c, 0, 62, 64
2, 851305, Note_off_c, 0, 71, 64
2, 851322, Note_on_c, 0, 69, 36
2, 851328, Note_on_c, 0, 60, 31
2, 851404, Note_off_c, 0, 55, 64
2, 851409, Note_off_c, 0, 67, 64
2, 851410, Note_off_c, 0, 43, 64
2, 851654, Note_off_c, 0, 69, 64
2, 851660, Note_off_c, 0, 60, 64
2, 851679, Note_on_c, 0, 67, 44
2, 851686, Note_on_c, 0, 62, 37
2, 851692, Note_on_c, 0, 53, 28
2, 851695, Note_on_c, 0, 59, 46
2, 851701, Note_on_c, 0, 41, 31
2, 851772, Control_c, 0, 64, 0
2, 851868, Control_c, 0, 64, 127
2, 852562, Note_off_c, 0, 67, 64
2, 852569, Note_off_c, 0, 62, 64
2, 852575, Note_off_c, 0, 53, 64
2, 852578, Note_off_c, 0, 59, 64
2, 852584, Note_off_c, 0, 41, 64
2, 853236, Note_on_c, 0, 67, 36
2, 853241, Note_on_c, 0, 60, 30
2, 853244, Note_on_c, 0, 72, 40
2, 853249, Note_on_c, 0, 39, 33
2, 853252, Note_on_c, 0, 51, 33
2, 853315, Control_c, 0, 64, 0
2, 853411, Control_c, 0, 64, 127
2, 854255, Note_off_c, 0, 67, 64
2, 854260, Note_off_c, 0, 60, 64
2, 854263, Note_off_c, 0, 72, 64
2, 854268, Note_off_c, 0, 39, 64
2, 854271, Note_off_c, 0, 51, 64
2, 854560, Note_on_c, 0, 56, 26
2, 854564, Note_on_c, 0, 68, 51
2, 854568, Note_on_c, 0, 53, 28
2, 854568, Note_on_c, 0, 41, 28
2, 854573, Note_on_c, 0, 60, 40
2, 854642, Control_c, 0, 64, 0
2, 854739, Control_c, 0, 64, 127
2, 855380, Note_off_c, 0, 56, 64
2, 855384, Note_off_c, 0, 68, 64
2, 855388, Note_off_c, 0, 41, 64
2, 855388, Note_off_c, 0, 53, 64
2, 855393, Note_off_c, 0, 60, 64
2, 856060, Note_on_c, 0, 35, 28
2, 856062, Note_on_c, 0, 62, 39
2, 856064, Note_on_c, 0, 55, 35
2, 856066, Note_on_c, 0, 47, 33
2, 856067, Note_on_c, 0, 67, 36
2, 856142, Control_c, 0, 64, 0
2, 856248, Control_c, 0, 64, 127
2, 857056, Note_on_c, 0, 65, 29
2, 857057, Note_off_c, 0, 67, 64
2, 857156, Note_off_c, 0, 35, 64
2, 857158, Note_off_c, 0, 62, 64
2, 857160, Note_off_c, 0, 55, 64
2, 857162, Note_off_c, 0, 47, 64
2, 857383, Note_off_c, 0, 65, 64
2, 857400, Note_on_c, 0, 63, 36
2, 857400, Note_on_c, 0, 60, 28
2, 857400, Note_on_c, 0, 55, 25
2, 857400, Note_on_c, 0, 48, 32
2, 857404, Note_on_c, 0, 36, 28
2, 857503, Control_c, 0, 64, 0
2, 857622, Control_c, 0, 64, 127
2, 858349, Note_off_c, 0, 55, 64
2, 858353, Note_off_c, 0, 48, 64
2, 858361, Note_off_c, 0, 60, 64
2, 858361, Note_off_c, 0, 63, 64
2, 858365, Note_off_c, 0, 36, 64
2, 858872, Note_on_c, 0, 60, 32
2, 858872, Note_on_c, 0, 44, 37
2, 858875, Note_on_c, 0, 51, 33
2, 858876, Note_on_c, 0, 32, 33
2, 858877, Note_on_c, 0, 63, 32
2, 858877, Note_on_c, 0, 56, 33
2, 858969, Control_c, 0, 64, 0
2, 859074, Control_c, 0, 64, 127
2, 859975, Note_off_c, 0, 44, 64
2, 859975, Note_off_c, 0, 60, 64
2, 859978, Note_off_c, 0, 51, 64
2, 859979, Note_off_c, 0, 32, 64
2, 859980, Note_off_c, 0, 56, 64
2, 859980, Note_off_c, 0, 63, 64
2, 860496, Note_on_c, 0, 61, 52
2, 860496, Note_on_c, 0, 53, 32
2, 860496, Note_on_c, 0, 37, 33
2, 860496, Note_on_c, 0, 25, 40
2, 860500, Note_on_c, 0, 56, 45
2, 860502, Note_on_c, 0, 65, 46
2, 860583, Control_c, 0, 64, 0
2, 860687, Control_c, 0, 64, 127
2, 861820, Note_off_c, 0, 25, 64
2, 861820, Note_off_c, 0, 37, 64
2, 861820, Note_off_c, 0, 53, 64
2, 861820, Note_off_c, 0, 61, 64
2, 861824, Note_off_c, 0, 56, 64
2, 861826, Note_off_c, 0, 65, 64
2, 862296, Note_on_c, 0, 63, 36
2, 862296, Note_on_c, 0, 59, 44
2, 862296, Note_on_c, 0, 55, 31
2, 862296, Note_on_c, 0, 53, 28
2, 862303, Note_on_c, 0, 43, 33
2, 862303, Note_on_c, 0, 31, 33
2, 862389, Control_c, 0, 64, 0
2, 862499, Control_c, 0, 64, 127
2, 863646, Note_off_c, 0, 63, 64
2, 863669, Note_on_c, 0, 62, 30
2, 863880, Note_off_c, 0, 53, 64
2, 863880, Note_off_c, 0, 55, 64
2, 863880, Note_off_c, 0, 59, 64
2, 863887, Note_off_c, 0, 31, 64
2, 863887, Note_off_c, 0, 43, 64
2, 864164, Note_off_c, 0, 62, 64
2, 864180, Note_on_c, 0, 36, 16
2, 864184, Note_on_c, 0, 60, 36
2, 864184, Note_on_c, 0, 55, 16
2, 864184, Note_on_c, 0, 51, 22
2, 864184, Note_on_c, 0, 24, 13
2, 864319, Control_c, 0, 64, 0
2, 864891, Control_c, 0, 64, 127
2, 865335, Note_off_c, 0, 51, 64
2, 865339, Note_off_c, 0, 36, 64
2, 865343, Note_off_c, 0, 24, 64
2, 865343, Note_off_c, 0, 55, 64
2, 865343, Note_off_c, 0, 60, 64
2, 866596, Note_on_c, 0, 60, 40
2, 866596, Note_on_c, 0, 48, 43
2, 866600, Note_on_c, 0, 72, 52
2, 866600, Note_on_c, 0, 67, 58
2, 866600, Note_on_c, 0, 63, 44
2, 866600, Note_on_c, 0, 55, 39
2, 866702, Control_c, 0, 64, 0
2, 867122, Control_c, 0, 64, 127
2, 870378, Note_off_c, 0, 55, 64
2, 870384, Note_off_c, 0, 48, 64
2, 870387, Note_off_c, 0, 60, 64
2, 870403, Note_off_c, 0, 67, 64
2, 870408, Note_off_c, 0, 63, 64
2, 870416, Note_off_c, 0, 72, 64
2, 871112, Note_on_c, 0, 46, 21
2, 871157, Note_on_c, 0, 77, 56
2, 871165, Control_c, 0, 64, 127
2, 871402, Note_on_c, 0, 53, 18
2, 871536, Note_on_c, 0, 52, 32
2, 871540, Note_on_c, 0, 55, 22
2, 871559, Note_off_c, 0, 53, 64
2, 871648, Note_on_c, 0, 57, 38
2, 871650, Note_on_c, 0, 51, 43
2, 871656, Note_off_c, 0, 52, 64
2, 871660, Note_off_c, 0, 55, 64
2, 871752, Note_off_c, 0, 46, 64
2, 871768, Note_on_c, 0, 50, 24
2, 871770, Note_on_c, 0, 58, 44
2, 871778, Note_off_c, 0, 57, 64
2, 871780, Note_off_c, 0, 51, 64
2, 871898, Note_off_c, 0, 50, 64
2, 871899, Note_on_c, 0, 60, 34
2, 871899, Note_on_c, 0, 48, 38
2, 871900, Note_off_c, 0, 58, 64
2, 872096, Note_off_c, 0, 77, 64
2, 872098, Note_on_c, 0, 46, 43
2, 872098, Control_c, 0, 64, 0
2, 872099, Note_off_c, 0, 48, 64
2, 872099, Note_off_c, 0, 60, 64
2, 872111, Note_on_c, 0, 74, 51
2, 872172, Control_c, 0, 64, 127
2, 872288, Note_on_c, 0, 62, 23
2, 872288, Note_on_c, 0, 53, 28
2, 872408, Note_off_c, 0, 53, 64
2, 872408, Note_off_c, 0, 62, 64
2, 872408, Note_on_c, 0, 55, 32
2, 872408, Note_on_c, 0, 52, 25
2, 872504, Note_on_c, 0, 57, 28
2, 872504, Note_on_c, 0, 51, 46
2, 872508, Note_off_c, 0, 52, 64
2, 872508, Note_off_c, 0, 55, 64
2, 872640, Note_off_c, 0, 74, 64
2, 872640, Note_on_c, 0, 58, 44
2, 872640, Note_on_c, 0, 50, 36
2, 872644, Note_off_c, 0, 51, 64
2, 872644, Note_off_c, 0, 57, 64
2, 872673, Note_off_c, 0, 46, 64
2, 872717, Control_c, 0, 64, 0
2, 872740, Note_on_c, 0, 77, 60
2, 872799, Control_c, 0, 64, 127
2, 872808, Note_on_c, 0, 75, 59
2, 872821, Note_off_c, 0, 77, 64
2, 872859, Note_on_c, 0, 46, 48
2, 872872, Note_off_c, 0, 50, 64
2, 872872, Note_off_c, 0, 58, 64
2, 872956, Note_off_c, 0, 75, 64
2, 873063, Control_c, 0, 64, 0
2, 873085, Note_on_c, 0, 39, 42
2, 873092, Note_on_c, 0, 74, 56
2, 873135, Control_c, 0, 64, 127
2, 873173, Note_off_c, 0, 46, 64
2, 873292, Note_on_c, 0, 55, 44
2, 873400, Note_on_c, 0, 57, 29
2, 873400, Note_on_c, 0, 54, 45
2, 873412, Note_off_c, 0, 55, 64
2, 873513, Note_on_c, 0, 53, 48
2, 873518, Note_on_c, 0, 59, 50
2, 873520, Note_off_c, 0, 54, 64
2, 873520, Note_off_c, 0, 57, 64
2, 873608, Note_on_c, 0, 60, 38
2, 873608, Note_on_c, 0, 51, 47
2, 873613, Note_off_c, 0, 53, 64
2, 873618, Note_off_c, 0, 59, 64
2, 873641, Note_off_c, 0, 39, 64
2, 873675, Note_off_c, 0, 74, 64
2, 873728, Note_on_c, 0, 62, 35
2, 873731, Note_on_c, 0, 50, 56
2, 873738, Note_off_c, 0, 51, 64
2, 873738, Note_off_c, 0, 60, 64
2, 873867, Control_c, 0, 64, 0
2, 873884, Note_on_c, 0, 67, 57
2, 873888, Note_on_c, 0, 48, 47
2, 873898, Note_off_c, 0, 62, 64
2, 873901, Note_off_c, 0, 50, 64
2, 873943, Control_c, 0, 64, 127
2, 874040, Note_on_c, 0, 63, 33
2, 874040, Note_on_c, 0, 55, 33
2, 874087, Note_off_c, 0, 48, 64
2, 874168, Note_on_c, 0, 57, 27
2, 874168, Note_on_c, 0, 54, 36
2, 874180, Note_off_c, 0, 55, 64
2, 874180, Note_off_c, 0, 63, 64
2, 874260, Note_on_c, 0, 53, 46
2, 874264, Note_on_c, 0, 59, 46
2, 874268, Note_off_c, 0, 54, 64
2, 874268, Note_off_c, 0, 57, 64
2, 874408, Note_on_c, 0, 63, 48
2, 874408, Note_on_c, 0, 60, 42
2, 874408, Note_on_c, 0, 51, 44
2, 874410, Note_off_c, 0, 53, 64
2, 874414, Note_off_c, 0, 59, 64
2, 874455, Note_off_c, 0, 67, 64
2, 874460, Control_c, 0, 64, 0
2, 874561, Note_on_c, 0, 48, 42
2, 874561, Control_c, 0, 64, 127
2, 874571, Note_off_c, 0, 51, 64
2, 874571, Note_off_c, 0, 60, 64
2, 874751, Note_off_c, 0, 63, 64
2, 874764, Control_c, 0, 64, 0
2, 874777, Note_on_c, 0, 69, 55
2, 874777, Note_on_c, 0, 41, 51
2, 874786, Note_off_c, 0, 48, 64
2, 874827, Control_c, 0, 64, 127
2, 874987, Note_on_c, 0, 66, 19
2, 874987, Note_on_c, 0, 58, 35
2, 875112, Note_on_c, 0, 57, 36
2, 875114, Note_on_c, 0, 75, 58
2, 875114, Note_on_c, 0, 65, 39
2, 875127, Note_off_c, 0, 58, 64
2, 875127, Note_off_c, 0, 66, 64
2, 875151, Note_off_c, 0, 69, 64
2, 875224, Note_on_c, 0, 60, 40
2, 875224, Note_on_c, 0, 56, 38
2, 875232, Note_off_c, 0, 57, 64
2, 875234, Note_off_c, 0, 65, 64
2, 875307, Note_off_c, 0, 41, 64
2, 875314, Note_off_c, 0, 75, 64
2, 875341, Note_on_c, 0, 75, 58
2, 875344, Note_off_c, 0, 56, 64
2, 875344, Note_off_c, 0, 60, 64
2, 875344, Note_on_c, 0, 55, 37
2, 875348, Note_on_c, 0, 63, 52
2, 875464, Note_on_c, 0, 54, 44
2, 875465, Note_on_c, 0, 58, 51
2, 875474, Note_off_c, 0, 55, 64
2, 875478, Note_off_c, 0, 63, 64
2, 875641, Note_off_c, 0, 75, 64
2, 875646, Control_c, 0, 64, 0
2, 875660, Note_on_c, 0, 41, 26
2, 875672, Note_on_c, 0, 75, 56
2, 875689, Note_off_c, 0, 54, 64
2, 875690, Note_off_c, 0, 58, 64
2, 875722, Control_c, 0, 64, 127
2, 875860, Note_on_c, 0, 63, 32
2, 875862, Note_on_c, 0, 54, 33
2, 875897, Note_off_c, 0, 75, 64
2, 875928, Note_on_c, 0, 75, 51
2, 875998, Note_on_c, 0, 77, 59
2, 876001, Note_off_c, 0, 75, 64
2, 876032, Note_on_c, 0, 75, 64
2, 876052, Note_off_c, 0, 77, 64
2, 876056, Note_on_c, 0, 62, 30
2, 876058, Note_on_c, 0, 53, 31
2, 876060, Note_off_c, 0, 63, 64
2, 876062, Note_off_c, 0, 54, 64
2, 876078, Note_on_c, 0, 74, 56
2, 876083, Note_off_c, 0, 75, 64
2, 876164, Control_c, 0, 64, 0
2, 876202, Note_off_c, 0, 41, 64
2, 876208, Note_on_c, 0, 55, 38
2, 876210, Note_on_c, 0, 52, 26
2, 876226, Note_off_c, 0, 62, 64
2, 876228, Note_off_c, 0, 53, 64
2, 876232, Control_c, 0, 64, 127
2, 876325, Note_on_c, 0, 75, 55
2, 876333, Note_on_c, 0, 57, 45
2, 876333, Note_on_c, 0, 51, 49
2, 876338, Note_off_c, 0, 55, 64
2, 876340, Note_off_c, 0, 52, 64
2, 876355, Note_off_c, 0, 74, 64
2, 876452, Note_on_c, 0, 53, 35
2, 876458, Note_off_c, 0, 51, 64
2, 876458, Note_off_c, 0, 57, 64
2, 876545, Control_c, 0, 64, 0
2, 876584, Note_on_c, 0, 79, 56
2, 876597, Note_on_c, 0, 46, 58
2, 876605, Note_off_c, 0, 75, 64
2, 876612, Note_off_c, 0, 53, 64
2, 876636, Control_c, 0, 64, 127
2, 876725, Note_on_c, 0, 53, 33
2, 876845, Note_off_c, 0, 53, 64
2, 876848, Note_on_c, 0, 55, 25
2, 876848, Note_on_c, 0, 52, 34
2, 876972, Note_on_c, 0, 57, 32
2, 876973, Note_on_c, 0, 51, 28
2, 876978, Note_off_c, 0, 52, 64
2, 876978, Note_off_c, 0, 55, 64
2, 876998, Note_off_c, 0, 46, 64
2, 877104, Note_on_c, 0, 50, 41
2, 877107, Note_on_c, 0, 58, 48
2, 877112, Note_off_c, 0, 57, 64
2, 877113, Note_off_c, 0, 51, 64
2, 877240, Note_on_c, 0, 60, 48
2, 877240, Note_on_c, 0, 48, 46
2, 877254, Note_off_c, 0, 50, 64
2, 877257, Note_off_c, 0, 58, 64
2, 877298, Note_off_c, 0, 79, 64
2, 877299, Note_on_c, 0, 77, 60
2, 877358, Note_on_c, 0, 74, 58
2, 877373, Control_c, 0, 64, 0
2, 877381, Note_off_c, 0, 77, 64
2, 877388, Note_on_c, 0, 46, 52
2, 877400, Note_off_c, 0, 48, 64
2, 877400, Note_off_c, 0, 60, 64
2, 877443, Control_c, 0, 64, 127
2, 877489, Note_off_c, 0, 74, 64
2, 877532, Note_on_c, 0, 62, 41
2, 877533, Note_on_c, 0, 53, 32
2, 877662, Note_off_c, 0, 62, 64
2, 877663, Note_off_c, 0, 53, 64
2, 877664, Note_on_c, 0, 55, 29
2, 877666, Note_on_c, 0, 52, 32
2, 877784, Note_off_c, 0, 55, 64
2, 877784, Note_on_c, 0, 57, 22
2, 877784, Note_on_c, 0, 51, 40
2, 877786, Note_off_c, 0, 52, 64
2, 877945, Note_on_c, 0, 58, 54
2, 877950, Note_on_c, 0, 50, 28
2, 877954, Note_off_c, 0, 51, 64
2, 877954, Note_off_c, 0, 57, 64
2, 877961, Note_off_c, 0, 46, 64
2, 878112, Note_on_c, 0, 60, 48
2, 878116, Note_on_c, 0, 48, 33
2, 878125, Note_off_c, 0, 58, 64
2, 878130, Note_off_c, 0, 50, 64
2, 878370, Control_c, 0, 64, 0
2, 878388, Note_on_c, 0, 43, 60
2, 878395, Note_on_c, 0, 82, 70
2, 878402, Note_off_c, 0, 60, 64
2, 878406, Note_off_c, 0, 48, 64
2, 878434, Control_c, 0, 64, 127
2, 878647, Note_on_c, 0, 62, 32
2, 878776, Note_on_c, 0, 64, 30
2, 878776, Note_on_c, 0, 61, 38
2, 878787, Note_off_c, 0, 62, 64
2, 878888, Note_on_c, 0, 66, 58
2, 878895, Note_on_c, 0, 60, 45
2, 878896, Note_off_c, 0, 61, 64
2, 878896, Note_off_c, 0, 64, 64
2, 878924, Note_off_c, 0, 43, 64
2, 879000, Note_on_c, 0, 67, 29
2, 879001, Note_on_c, 0, 58, 42
2, 879008, Note_off_c, 0, 66, 64
2, 879015, Note_off_c, 0, 60, 64
2, 879053, Note_off_c, 0, 82, 64
2, 879104, Note_on_c, 0, 69, 32
2, 879118, Note_on_c, 0, 57, 53
2, 879120, Note_off_c, 0, 67, 64
2, 879121, Note_off_c, 0, 58, 64
2, 879284, Control_c, 0, 64, 0
2, 879299, Note_on_c, 0, 46, 56
2, 879305, Note_on_c, 0, 70, 59
2, 879324, Note_off_c, 0, 69, 64
2, 879338, Note_off_c, 0, 57, 64
2, 879349, Control_c, 0, 64, 127
2, 879457, Note_on_c, 0, 58, 22
2, 879584, Note_on_c, 0, 57, 44
2, 879587, Note_off_c, 0, 58, 64
2, 879587, Note_on_c, 0, 60, 35
2, 879712, Note_on_c, 0, 62, 36
2, 879712, Note_on_c, 0, 56, 41
2, 879724, Note_off_c, 0, 57, 64
2, 879727, Note_off_c, 0, 60, 64
2, 879843, Note_off_c, 0, 46, 64
2, 879844, Note_on_c, 0, 63, 55
2, 879844, Note_on_c, 0, 55, 40
2, 879852, Note_off_c, 0, 56, 64
2, 879852, Note_off_c, 0, 62, 64
2, 879992, Note_on_c, 0, 65, 47
2, 879992, Note_on_c, 0, 53, 38
2, 880014, Note_off_c, 0, 55, 64
2, 880014, Note_off_c, 0, 63, 64
2, 880020, Note_off_c, 0, 70, 64
2, 880074, Note_on_c, 0, 70, 64
2, 880122, Note_off_c, 0, 53, 64
2, 880122, Note_off_c, 0, 65, 64
2, 880226, Control_c, 0, 64, 0
2, 880241, Note_on_c, 0, 79, 61
2, 880248, Note_on_c, 0, 39, 46
2, 880251, Note_off_c, 0, 70, 64
2, 880301, Control_c, 0, 64, 127
2, 880427, Note_on_c, 0, 55, 40
2, 880552, Note_on_c, 0, 54, 29
2, 880553, Note_on_c, 0, 57, 24
2, 880557, Note_off_c, 0, 55, 64
2, 880656, Note_on_c, 0, 59, 45
2, 880656, Note_on_c, 0, 53, 51
2, 880672, Note_off_c, 0, 54, 64
2, 880673, Note_off_c, 0, 57, 64
2, 880756, Note_off_c, 0, 79, 64
2, 880760, Note_on_c, 0, 60, 48
2, 880760, Note_on_c, 0, 51, 49
2, 880776, Note_off_c, 0, 53, 64
2, 880776, Note_off_c, 0, 59, 64
2, 880784, Note_off_c, 0, 39, 64
2, 880893, Note_on_c, 0, 62, 44
2, 880896, Note_on_c, 0, 50, 49
2, 880900, Note_off_c, 0, 51, 64
2, 880900, Note_off_c, 0, 60, 64
2, 880988, Control_c, 0, 64, 0
2, 881029, Note_on_c, 0, 48, 55
2, 881033, Note_on_c, 0, 67, 59
2, 881043, Note_off_c, 0, 62, 64
2, 881046, Note_off_c, 0, 50, 64
2, 881065, Control_c, 0, 64, 127
2, 881155, Note_off_c, 0, 67, 64
2, 881160, Note_on_c, 0, 63, 45
2, 881164, Note_on_c, 0, 55, 20
2, 881200, Note_on_c, 0, 67, 39
2, 881232, Note_on_c, 0, 69, 52
2, 881248, Note_off_c, 0, 67, 64
2, 881264, Note_on_c, 0, 67, 40
2, 881277, Note_off_c, 0, 69, 64
2, 881302, Note_off_c, 0, 67, 64
2, 881304, Note_on_c, 0, 66, 47
2, 881317, Control_c, 0, 64, 0
2, 881344, Note_on_c, 0, 67, 51
2, 881352, Note_on_c, 0, 57, 29
2, 881352, Note_on_c, 0, 54, 40
2, 881356, Note_off_c, 0, 66, 64
2, 881360, Note_off_c, 0, 63, 64
2, 881364, Note_off_c, 0, 55, 64
2, 881376, Control_c, 0, 64, 127
2, 881400, Note_on_c, 0, 75, 64
2, 881414, Note_off_c, 0, 67, 64
2, 881480, Note_on_c, 0, 59, 38
2, 881480, Note_on_c, 0, 53, 33
2, 881483, Note_off_c, 0, 54, 64
2, 881483, Note_off_c, 0, 57, 64
2, 881583, Note_off_c, 0, 48, 64
2, 881628, Note_on_c, 0, 60, 45
2, 881632, Note_on_c, 0, 51, 40
2, 881650, Note_off_c, 0, 53, 64
2, 881650, Note_off_c, 0, 59, 64
2, 881664, Note_on_c, 0, 72, 59
2, 881693, Note_off_c, 0, 75, 64
2, 881728, Control_c, 0, 64, 0
2, 881809, Control_c, 0, 64, 127
2, 881860, Note_on_c, 0, 63, 44
2, 881863, Note_off_c, 0, 60, 64
2, 881866, Note_on_c, 0, 48, 44
2, 881867, Note_off_c, 0, 51, 64
2, 882041, Control_c, 0, 64, 0
2, 882052, Note_off_c, 0, 72, 64
2, 882060, Note_off_c, 0, 63, 64
2, 882066, Note_off_c, 0, 48, 64
2, 882066, Note_on_c, 0, 41, 51
2, 882068, Note_on_c, 0, 69, 55
2, 882105, Control_c, 0, 64, 127
2, 882268, Note_off_c, 0, 69, 64
2, 882344, Note_on_c, 0, 65, 45
2, 882346, Note_on_c, 0, 86, 56
2, 882348, Note_on_c, 0, 77, 53
2, 882348, Note_on_c, 0, 74, 28
2, 882492, Note_on_c, 0, 67, 48
2, 882492, Note_on_c, 0, 64, 43
2, 882496, Note_on_c, 0, 79, 44
2, 882496, Note_on_c, 0, 76, 43
2, 882504, Note_off_c, 0, 65, 64
2, 882506, Note_off_c, 0, 86, 64
2, 882508, Note_off_c, 0, 74, 64
2, 882508, Note_off_c, 0, 77, 64
2, 882604, Note_on_c, 0, 63, 43
2, 882608, Note_on_c, 0, 75, 59
2, 882608, Note_on_c, 0, 69, 31
2, 882610, Note_on_c, 0, 81, 45
2, 882612, Note_off_c, 0, 64, 64
2, 882612, Note_off_c, 0, 67, 64
2, 882616, Note_off_c, 0, 76, 64
2, 882616, Note_off_c, 0, 79, 64
2, 882620, Note_off_c, 0, 41, 64
2, 882728, Note_off_c, 0, 69, 64
2, 882728, Note_off_c, 0, 75, 64
2, 882728, Note_on_c, 0, 74, 39
2, 882728, Note_on_c, 0, 70, 57
2, 882730, Note_off_c, 0, 81, 64
2, 882731, Note_on_c, 0, 82, 49
2, 882731, Note_on_c, 0, 62, 49
2, 882734, Note_off_c, 0, 63, 64
2, 882832, Note_on_c, 0, 65, 38
2, 882832, Note_on_c, 0, 61, 32
2, 882836, Note_on_c, 0, 73, 57
2, 882839, Note_on_c, 0, 77, 48
2, 882848, Note_off_c, 0, 74, 64
2, 882851, Note_off_c, 0, 62, 64
2, 882851, Note_off_c, 0, 82, 64
2, 882858, Note_off_c, 0, 70, 64
2, 882942, Control_c, 0, 64, 0
2, 882952, Note_on_c, 0, 60, 43
2, 882956, Note_on_c, 0, 80, 46
2, 882956, Note_on_c, 0, 72, 51
2, 882956, Note_on_c, 0, 68, 54
2, 882962, Note_off_c, 0, 61, 64
2, 882962, Note_off_c, 0, 65, 64
2, 882966, Note_off_c, 0, 73, 64
2, 882969, Note_off_c, 0, 77, 64
2, 883012, Control_c, 0, 64, 127
2, 883068, Note_on_c, 0, 70, 41
2, 883068, Note_on_c, 0, 66, 43
2, 883068, Note_on_c, 0, 58, 35
2, 883071, Note_on_c, 0, 78, 45
2, 883072, Note_off_c, 0, 60, 64
2, 883076, Note_off_c, 0, 68, 64
2, 883076, Note_off_c, 0, 72, 64
2, 883076, Note_off_c, 0, 80, 64
2, 883196, Note_on_c, 0, 57, 39
2, 883200, Note_on_c, 0, 60, 44
2, 883201, Note_on_c, 0, 72, 41
2, 883201, Note_on_c, 0, 69, 40
2, 883208, Note_off_c, 0, 58, 64
2, 883208, Note_off_c, 0, 66, 64
2, 883208, Note_off_c, 0, 70, 64
2, 883211, Note_off_c, 0, 78, 64
2, 883326, Note_off_c, 0, 57, 64
2, 883328, Note_on_c, 0, 62, 18
2, 883328, Note_on_c, 0, 56, 40
2, 883329, Note_on_c, 0, 74, 40
2, 883330, Note_off_c, 0, 60, 64
2, 883331, Note_off_c, 0, 69, 64
2, 883331, Note_off_c, 0, 72, 64
2, 883332, Note_on_c, 0, 68, 46
2, 883452, Note_on_c, 0, 75, 38
2, 883452, Note_on_c, 0, 63, 40
2, 883458, Note_off_c, 0, 56, 64
2, 883458, Note_off_c, 0, 62, 64
2, 883458, Note_on_c, 0, 67, 33
2, 883458, Note_on_c, 0, 55, 28
2, 883459, Note_off_c, 0, 74, 64
2, 883462, Note_off_c, 0, 68, 64
2, 883608, Note_on_c, 0, 58, 32
2, 883612, Note_on_c, 0, 70, 32
2, 883612, Note_on_c, 0, 66, 29
2, 883612, Note_on_c, 0, 54, 22
2, 883619, Note_off_c, 0, 63, 64
2, 883619, Note_off_c, 0, 75, 64
2, 883625, Note_off_c, 0, 55, 64
2, 883625, Note_off_c, 0, 67, 64
2, 883738, Control_c, 0, 64, 0
2, 883777, Note_on_c, 0, 46, 50
2, 883810, Note_off_c, 0, 58, 64
2, 883814, Note_off_c, 0, 54, 64
2, 883814, Note_off_c, 0, 66, 64
2, 883814, Note_off_c, 0, 70, 64
2, 883814, Control_c, 0, 64, 127
2, 883920, Note_on_c, 0, 53, 36
2, 883924, Note_on_c, 0, 62, 43
2, 883926, Note_on_c, 0, 74, 41
2, 883926, Note_on_c, 0, 65, 42
2, 884038, Note_on_c, 0, 64, 41
2, 884040, Note_on_c, 0, 55, 21
2, 884040, Note_on_c, 0, 52, 37
2, 884041, Note_on_c, 0, 67, 41
2, 884050, Note_off_c, 0, 53, 64
2, 884054, Note_off_c, 0, 62, 64
2, 884056, Note_off_c, 0, 65, 64
2, 884056, Note_off_c, 0, 74, 64
2, 884168, Note_off_c, 0, 64, 64
2, 884168, Note_on_c, 0, 63, 43
2, 884170, Note_off_c, 0, 52, 64
2, 884170, Note_off_c, 0, 55, 64
2, 884170, Note_on_c, 0, 69, 33
2, 884171, Note_off_c, 0, 67, 64
2, 884172, Note_on_c, 0, 57, 12
2, 884172, Note_on_c, 0, 51, 40
2, 884281, Note_on_c, 0, 70, 35
2, 884284, Note_on_c, 0, 62, 29
2, 884288, Note_off_c, 0, 63, 64
2, 884288, Note_on_c, 0, 58, 35
2, 884290, Note_off_c, 0, 69, 64
2, 884291, Note_on_c, 0, 50, 27
2, 884292, Note_off_c, 0, 51, 64
2, 884292, Note_off_c, 0, 57, 64
2, 884315, Note_off_c, 0, 46, 64
2, 884385, Control_c, 0, 64, 0
2, 884412, Note_on_c, 0, 53, 25
2, 884413, Note_on_c, 0, 65, 20
2, 884461, Note_off_c, 0, 70, 64
2, 884464, Note_off_c, 0, 62, 64
2, 884468, Note_off_c, 0, 58, 64
2, 884471, Note_off_c, 0, 50, 64
2, 884539, Note_on_c, 0, 46, 51
2, 884562, Note_off_c, 0, 53, 64
2, 884563, Note_off_c, 0, 65, 64
2, 884563, Control_c, 0, 64, 127
2, 884664, Note_on_c, 0, 53, 37
2, 884669, Note_on_c, 0, 62, 32
2, 884804, Note_off_c, 0, 53, 64
2, 884804, Note_on_c, 0, 55, 32
2, 884804, Note_on_c, 0, 52, 34
2, 884809, Note_off_c, 0, 62, 64
2, 884942, Note_on_c, 0, 57, 37
2, 884944, Note_off_c, 0, 52, 64
2, 884944, Note_on_c, 0, 51, 37
2, 884947, Note_off_c, 0, 55, 64
2, 884976, Note_off_c, 0, 46, 64
2, 885096, Note_on_c, 0, 58, 35
2, 885105, Note_on_c, 0, 50, 28
2, 885120, Note_off_c, 0, 57, 64
2, 885122, Note_off_c, 0, 51, 64
2, 885253, Note_off_c, 0, 58, 64
2, 885255, Note_on_c, 0, 46, 22
2, 885262, Note_off_c, 0, 50, 64
2, 885448, Control_c, 0, 64, 0
2, 885476, Note_on_c, 0, 73, 70
2, 885476, Note_on_c, 0, 70, 70
2, 885477, Note_on_c, 0, 82, 70
2, 885480, Note_off_c, 0, 46, 64
2, 885480, Note_on_c, 0, 30, 60
2, 885528, Control_c, 0, 64, 127
2, 885751, Note_on_c, 0, 58, 38
2, 885752, Note_on_c, 0, 49, 37
2, 885880, Note_on_c, 0, 61, 49
2, 885883, Note_on_c, 0, 54, 40
2, 885896, Note_off_c, 0, 58, 64
2, 885897, Note_off_c, 0, 49, 64
2, 886013, Note_off_c, 0, 30, 64
2, 886025, Note_off_c, 0, 61, 64
2, 886028, Note_off_c, 0, 54, 64
2, 886028, Note_on_c, 0, 63, 49
2, 886028, Note_on_c, 0, 58, 35
2, 886140, Note_on_c, 0, 54, 23
2, 886143, Note_on_c, 0, 61, 51
2, 886173, Note_off_c, 0, 58, 64
2, 886173, Note_off_c, 0, 63, 64
2, 886248, Note_on_c, 0, 58, 38
2, 886248, Note_on_c, 0, 49, 42
2, 886285, Note_off_c, 0, 54, 64
2, 886288, Note_off_c, 0, 61, 64
2, 886366, Note_off_c, 0, 70, 64
2, 886376, Note_off_c, 0, 73, 64
2, 886376, Note_on_c, 0, 78, 67
2, 886376, Note_on_c, 0, 70, 63
2, 886376, Note_on_c, 0, 61, 48
2, 886377, Note_off_c, 0, 82, 64
2, 886380, Note_on_c, 0, 66, 60
2, 886381, Control_c, 0, 64, 0
2, 886383, Note_off_c, 0, 58, 64
2, 886384, Note_on_c, 0, 54, 35
2, 886386, Note_off_c, 0, 49, 64
2, 886429, Control_c, 0, 64, 127
2, 886521, Note_off_c, 0, 61, 64
2, 886524, Note_on_c, 0, 58, 32
2, 886527, Note_on_c, 0, 63, 48
2, 886529, Note_off_c, 0, 54, 64
2, 886656, Note_on_c, 0, 61, 44
2, 886667, Note_on_c, 0, 54, 26
2, 886669, Note_off_c, 0, 58, 64
2, 886672, Note_off_c, 0, 63, 64
2, 886752, Note_on_c, 0, 58, 40
2, 886758, Note_on_c, 0, 49, 43
2, 886801, Note_off_c, 0, 61, 64
2, 886812, Note_off_c, 0, 54, 64
2, 886906, Note_off_c, 0, 70, 64
2, 886906, Note_off_c, 0, 78, 64
2, 886908, Note_on_c, 0, 83, 68
2, 886908, Note_on_c, 0, 75, 64
2, 886910, Note_off_c, 0, 66, 64
2, 886910, Note_on_c, 0, 71, 60
2, 886919, Note_on_c, 0, 61, 41
2, 886919, Note_on_c, 0, 54, 28
2, 886927, Note_off_c, 0, 58, 64
2, 886933, Note_off_c, 0, 49, 64
2, 887072, Note_on_c, 0, 63, 48
2, 887074, Note_off_c, 0, 54, 64
2, 887074, Note_off_c, 0, 61, 64
2, 887078, Note_on_c, 0, 58, 26
2, 887228, Note_off_c, 0, 75, 64
2, 887228, Note_off_c, 0, 83, 64
2, 887230, Note_off_c, 0, 71, 64
2, 887232, Note_on_c, 0, 82, 60
2, 887232, Note_on_c, 0, 73, 65
2, 887232, Note_on_c, 0, 70, 61
2, 887235, Note_off_c, 0, 63, 64
2, 887238, Note_on_c, 0, 61, 44
2, 887241, Note_off_c, 0, 58, 64
2, 887242, Note_on_c, 0, 54, 28
2, 887286, Control_c, 0, 64, 0
2, 887363, Control_c, 0, 64, 127
2, 887392, Note_on_c, 0, 49, 32
2, 887393, Note_off_c, 0, 54, 64
2, 887397, Note_off_c, 0, 61, 64
2, 887399, Note_on_c, 0, 58, 34
2, 887513, Note_on_c, 0, 54, 30
2, 887514, Note_on_c, 0, 61, 47
2, 887537, Note_off_c, 0, 49, 64
2, 887544, Note_off_c, 0, 58, 64
2, 887632, Note_on_c, 0, 63, 48
2, 887636, Note_on_c, 0, 58, 32
2, 887658, Note_off_c, 0, 54, 64
2, 887659, Note_off_c, 0, 61, 64
2, 887745, Note_on_c, 0, 61, 48
2, 887751, Note_on_c, 0, 54, 33
2, 887777, Note_off_c, 0, 63, 64
2, 887781, Note_off_c, 0, 58, 64
2, 887865, Note_on_c, 0, 58, 29
2, 887872, Note_on_c, 0, 49, 35
2, 887890, Note_off_c, 0, 61, 64
2, 887896, Note_off_c, 0, 54, 64
2, 887967, Note_off_c, 0, 70, 64
2, 887972, Note_on_c, 0, 78, 65
2, 887976, Note_on_c, 0, 70, 60
2, 887976, Note_on_c, 0, 66, 56
2, 887977, Note_off_c, 0, 73, 64
2, 887977, Note_off_c, 0, 82, 64
2, 887979, Note_on_c, 0, 54, 32
2, 887981, Note_on_c, 0, 61, 48
2, 888010, Note_off_c, 0, 58, 64
2, 888017, Note_off_c, 0, 49, 64
2, 888085, Note_on_c, 0, 63, 48
2, 888089, Note_on_c, 0, 58, 36
2, 888124, Note_off_c, 0, 54, 64
2, 888126, Note_off_c, 0, 61, 64
2, 888196, Note_on_c, 0, 61, 48
2, 888199, Note_on_c, 0, 54, 32
2, 888230, Note_off_c, 0, 63, 64
2, 888234, Note_off_c, 0, 58, 64
2, 888308, Note_on_c, 0, 58, 39
2, 888308, Note_on_c, 0, 49, 44
2, 888341, Note_off_c, 0, 61, 64
2, 888344, Note_off_c, 0, 54, 64
2, 888424, Note_on_c, 0, 61, 49
2, 888427, Note_on_c, 0, 54, 39
2, 888453, Note_off_c, 0, 49, 64
2, 888453, Note_off_c, 0, 58, 64
2, 888552, Note_on_c, 0, 58, 28
2, 888555, Note_on_c, 0, 63, 43
2, 888569, Note_off_c, 0, 61, 64
2, 888572, Note_off_c, 0, 54, 64
2, 888618, Control_c, 0, 64, 0
2, 888672, Note_off_c, 0, 78, 64
2, 888672, Note_on_c, 0, 85, 67
2, 888672, Note_on_c, 0, 82, 60
2, 888672, Note_on_c, 0, 73, 70
2, 888676, Note_off_c, 0, 66, 64
2, 888676, Note_off_c, 0, 70, 64
2, 888676, Note_on_c, 0, 61, 49
2, 888676, Note_on_c, 0, 54, 34
2, 888684, Control_c, 0, 64, 127
2, 888697, Note_off_c, 0, 58, 64
2, 888700, Note_off_c, 0, 63, 64
2, 888784, Note_on_c, 0, 49, 48
2, 888786, Note_on_c, 0, 58, 31
2, 888821, Note_off_c, 0, 54, 64
2, 888821, Note_off_c, 0, 61, 64
2, 888884, Note_on_c, 0, 61, 48
2, 888889, Note_on_c, 0, 54, 39
2, 888929, Note_off_c, 0, 49, 64
2, 888931, Note_off_c, 0, 58, 64
2, 889013, Note_on_c, 0, 58, 28
2, 889016, Note_on_c, 0, 63, 48
2, 889029, Note_off_c, 0, 61, 64
2, 889034, Note_off_c, 0, 54, 64
2, 889112, Note_off_c, 0, 73, 64
2, 889112, Note_off_c, 0, 82, 64
2, 889112, Note_off_c, 0, 85, 64
2, 889136, Note_on_c, 0, 82, 67
2, 889136, Note_on_c, 0, 78, 64
2, 889136, Note_on_c, 0, 54, 40
2, 889140, Note_on_c, 0, 70, 64
2, 889142, Note_on_c, 0, 61, 44
2, 889158, Note_off_c, 0, 58, 64
2, 889161, Note_off_c, 0, 63, 64
2, 889244, Note_on_c, 0, 49, 48
2, 889251, Note_on_c, 0, 58, 28
2, 889281, Note_off_c, 0, 54, 64
2, 889287, Note_off_c, 0, 61, 64
2, 889386, Note_off_c, 0, 78, 64
2, 889386, Note_off_c, 0, 82, 64
2, 889390, Note_off_c, 0, 70, 64
2, 889396, Note_off_c, 0, 58, 64
2, 889396, Note_on_c, 0, 78, 64
2, 889400, Note_on_c, 0, 90, 64
2, 889400, Note_on_c, 0, 82, 68
2, 889400, Note_on_c, 0, 61, 51
2, 889400, Note_on_c, 0, 54, 40
2, 889404, Note_off_c, 0, 49, 64
2, 889536, Note_on_c, 0, 63, 47
2, 889536, Note_on_c, 0, 58, 40
2, 889545, Note_off_c, 0, 54, 64
2, 889545, Note_off_c, 0, 61, 64
2, 889660, Note_on_c, 0, 61, 41
2, 889660, Note_on_c, 0, 54, 35
2, 889681, Note_off_c, 0, 58, 64
2, 889681, Note_off_c, 0, 63, 64
2, 889792, Note_on_c, 0, 49, 38
2, 889794, Note_on_c, 0, 58, 42
2, 889805, Note_off_c, 0, 54, 64
2, 889805, Note_off_c, 0, 61, 64
2, 889916, Note_off_c, 0, 78, 64
2, 889920, Note_off_c, 0, 82, 64
2, 889920, Note_off_c, 0, 90, 64
2, 889932, Note_on_c, 0, 85, 67
2, 889932, Note_on_c, 0, 73, 64
2, 889933, Note_on_c, 0, 82, 65
2, 889936, Note_on_c, 0, 61, 51
2, 889936, Note_on_c, 0, 54, 39
2, 889947, Note_off_c, 0, 49, 64
2, 889949, Note_off_c, 0, 58, 64
2, 890080, Note_on_c, 0, 63, 47
2, 890081, Note_off_c, 0, 54, 64
2, 890081, Note_off_c, 0, 61, 64
2, 890081, Note_on_c, 0, 58, 40
2, 890160, Note_on_c, 0, 83, 61
2, 890161, Note_on_c, 0, 80, 57
2, 890161, Note_on_c, 0, 71, 57
2, 890172, Note_off_c, 0, 73, 64
2, 890172, Note_off_c, 0, 85, 64
2, 890173, Note_off_c, 0, 82, 64
2, 890195, Note_off_c, 0, 71, 64
2, 890200, Note_off_c, 0, 80, 64
2, 890202, Note_off_c, 0, 83, 64
2, 890210, Control_c, 0, 64, 0
2, 890232, Note_off_c, 0, 58, 64
2, 890235, Note_off_c, 0, 63, 64
2, 890237, Note_on_c, 0, 83, 65
2, 890237, Note_on_c, 0, 54, 38
2, 890240, Note_on_c, 0, 80, 67
2, 890240, Note_on_c, 0, 71, 60
2, 890242, Note_on_c, 0, 61, 51
2, 890272, Control_c, 0, 64, 127
2, 890360, Note_on_c, 0, 58, 39
2, 890362, Note_on_c, 0, 49, 37
2, 890382, Note_off_c, 0, 54, 64
2, 890387, Note_off_c, 0, 61, 64
2, 890465, Note_off_c, 0, 83, 64
2, 890466, Note_off_c, 0, 80, 64
2, 890468, Note_off_c, 0, 71, 64
2, 890484, Note_on_c, 0, 82, 45
2, 890484, Note_on_c, 0, 70, 51
2, 890488, Note_on_c, 0, 78, 48
2, 890488, Note_on_c, 0, 61, 45
2, 890491, Note_on_c, 0, 54, 32
2, 890505, Note_off_c, 0, 58, 64
2, 890507, Note_off_c, 0, 49, 64
2, 890608, Note_on_c, 0, 63, 40
2, 890608, Note_on_c, 0, 58, 33
2, 890633, Note_off_c, 0, 61, 64
2, 890636, Note_off_c, 0, 54, 64
2, 890720, Note_on_c, 0, 54, 26
2, 890726, Note_on_c, 0, 61, 43
2, 890753, Note_off_c, 0, 58, 64
2, 890753, Note_off_c, 0, 63, 64
2, 890844, Note_on_c, 0, 49, 38
2, 890847, Note_on_c, 0, 58, 36
2, 890865, Note_off_c, 0, 54, 64
2, 890871, Note_off_c, 0, 61, 64
2, 890944, Note_on_c, 0, 61, 41
2, 890947, Note_on_c, 0, 54, 32
2, 890989, Note_off_c, 0, 49, 64
2, 890992, Note_off_c, 0, 58, 64
2, 891060, Note_on_c, 0, 58, 16
2, 891064, Note_on_c, 0, 63, 35
2, 891089, Note_off_c, 0, 61, 64
2, 891092, Note_off_c, 0, 54, 64
2, 891193, Note_on_c, 0, 61, 39
2, 891196, Note_on_c, 0, 54, 27
2, 891205, Note_off_c, 0, 58, 64
2, 891209, Note_off_c, 0, 63, 64
2, 891316, Note_on_c, 0, 49, 28
2, 891323, Note_on_c, 0, 58, 28
2, 891338, Note_off_c, 0, 61, 64
2, 891341, Note_off_c, 0, 54, 64
2, 891451, Note_on_c, 0, 54, 20
2, 891453, Note_on_c, 0, 61, 38
2, 891461, Note_off_c, 0, 49, 64
2, 891468, Note_off_c, 0, 58, 64
2, 891584, Note_on_c, 0, 58, 28
2, 891589, Note_off_c, 0, 54, 64
2, 891592, Note_off_c, 0, 82, 64
2, 891596, Note_on_c, 0, 63, 34
2, 891598, Note_off_c, 0, 61, 64
2, 891600, Note_off_c, 0, 78, 64
2, 891630, Note_off_c, 0, 70, 64
2, 891728, Note_on_c, 0, 70, 35
2, 891729, Note_off_c, 0, 58, 64
2, 891736, Note_on_c, 0, 82, 48
2, 891736, Note_on_c, 0, 73, 38
2, 891736, Note_on_c, 0, 54, 19
2, 891740, Note_on_c, 0, 64, 19
2, 891741, Note_off_c, 0, 63, 64
2, 891777, Control_c, 0, 64, 127
2, 891868, Note_on_c, 0, 61, 19
2, 891869, Note_on_c, 0, 58, 19
2, 891881, Note_off_c, 0, 54, 64
2, 891890, Note_off_c, 0, 64, 64
2, 891996, Note_on_c, 0, 54, 19
2, 891999, Note_on_c, 0, 66, 19
2, 892014, Note_off_c, 0, 58, 64
2, 892018, Note_off_c, 0, 61, 64
2, 892124, Note_on_c, 0, 63, 19
2, 892124, Note_on_c, 0, 58, 19
2, 892141, Note_off_c, 0, 54, 64
2, 892144, Note_off_c, 0, 66, 64
2, 892248, Note_on_c, 0, 64, 20
2, 892255, Note_on_c, 0, 54, 20
2, 892269, Note_off_c, 0, 58, 64
2, 892269, Note_off_c, 0, 63, 64
2, 892392, Note_on_c, 0, 58, 20
2, 892393, Note_off_c, 0, 64, 64
2, 892393, Note_on_c, 0, 61, 20
2, 892398, Note_off_c, 0, 54, 64
2, 892498, Note_off_c, 0, 70, 64
2, 892520, Note_on_c, 0, 78, 47
2, 892520, Note_on_c, 0, 70, 38
2, 892520, Note_on_c, 0, 66, 14
2, 892526, Note_off_c, 0, 73, 64
2, 892526, Note_off_c, 0, 82, 64
2, 892533, Note_on_c, 0, 54, 20
2, 892537, Note_off_c, 0, 58, 64
2, 892538, Note_off_c, 0, 61, 64
2, 892652, Note_on_c, 0, 63, 20
2, 892652, Note_on_c, 0, 58, 20
2, 892678, Note_off_c, 0, 54, 64
2, 892772, Note_on_c, 0, 54, 21
2, 892774, Note_on_c, 0, 64, 21
2, 892797, Note_off_c, 0, 58, 64
2, 892797, Note_off_c, 0, 63, 64
2, 892912, Note_on_c, 0, 61, 21
2, 892916, Note_on_c, 0, 58, 21
2, 892917, Note_off_c, 0, 54, 64
2, 892919, Note_off_c, 0, 64, 64
2, 893040, Note_off_c, 0, 66, 64
2, 893040, Note_off_c, 0, 70, 64
2, 893040, Note_off_c, 0, 78, 64
2, 893043, Note_on_c, 0, 75, 36
2, 893044, Note_on_c, 0, 83, 47
2, 893044, Note_on_c, 0, 71, 34
2, 893049, Note_on_c, 0, 66, 21
2, 893057, Note_off_c, 0, 61, 64
2, 893061, Note_off_c, 0, 58, 64
2, 893061, Note_on_c, 0, 54, 21
2, 893192, Note_on_c, 0, 63, 21
2, 893192, Note_on_c, 0, 58, 21
2, 893194, Note_off_c, 0, 66, 64
2, 893206, Note_off_c, 0, 54, 64
2, 893320, Note_on_c, 0, 64, 22
2, 893323, Note_off_c, 0, 75, 64
2, 893324, Note_off_c, 0, 71, 64
2, 893324, Note_off_c, 0, 83, 64
2, 893328, Note_on_c, 0, 82, 47
2, 893328, Note_on_c, 0, 73, 35
2, 893328, Note_on_c, 0, 70, 28
2, 893328, Note_on_c, 0, 54, 22
2, 893337, Note_off_c, 0, 58, 64
2, 893337, Note_off_c, 0, 63, 64
2, 893404, Control_c, 0, 64, 0
2, 893465, Note_off_c, 0, 64, 64
2, 893471, Note_off_c, 0, 54, 64
2, 893472, Control_c, 0, 64, 127
2, 893488, Note_on_c, 0, 61, 22
2, 893488, Note_on_c, 0, 58, 22
2, 893632, Note_on_c, 0, 66, 22
2, 893640, Note_on_c, 0, 54, 22
2, 893643, Note_off_c, 0, 58, 64
2, 893643, Note_off_c, 0, 61, 64
2, 893768, Note_on_c, 0, 63, 23
2, 893768, Note_on_c, 0, 58, 23
2, 893777, Note_off_c, 0, 66, 64
2, 893785, Note_off_c, 0, 54, 64
2, 893912, Note_on_c, 0, 54, 23
2, 893921, Note_on_c, 0, 64, 23
2, 893923, Note_off_c, 0, 58, 64
2, 893923, Note_off_c, 0, 63, 64
2, 894054, Note_on_c, 0, 61, 23
2, 894056, Note_on_c, 0, 58, 23
2, 894057, Note_off_c, 0, 54, 64
2, 894066, Note_off_c, 0, 64, 64
2, 894168, Note_off_c, 0, 70, 64
2, 894168, Note_off_c, 0, 73, 64
2, 894168, Note_off_c, 0, 82, 64
2, 894168, Note_on_c, 0, 66, 23
2, 894168, Note_on_c, 0, 54, 23
2, 894174, Note_off_c, 0, 61, 64
2, 894176, Note_off_c, 0, 58, 64
2, 894176, Note_on_c, 0, 78, 47
2, 894176, Note_on_c, 0, 70, 34
2, 894296, Note_on_c, 0, 63, 24
2, 894296, Note_on_c, 0, 58, 24
2, 894313, Note_off_c, 0, 54, 64
2, 894313, Note_off_c, 0, 66, 64
2, 894421, Note_on_c, 0, 64, 24
2, 894424, Note_on_c, 0, 54, 24
2, 894441, Note_off_c, 0, 58, 64
2, 894441, Note_off_c, 0, 63, 64
2, 894544, Note_on_c, 0, 58, 24
2, 894545, Note_on_c, 0, 61, 24
2, 894566, Note_off_c, 0, 64, 64
2, 894569, Note_off_c, 0, 54, 64
2, 894666, Note_on_c, 0, 66, 24
2, 894668, Note_on_c, 0, 54, 24
2, 894689, Note_off_c, 0, 58, 64
2, 894690, Note_off_c, 0, 61, 64
2, 894794, Note_on_c, 0, 63, 24
2, 894797, Note_off_c, 0, 66, 64
2, 894798, Note_on_c, 0, 58, 24
2, 894813, Note_off_c, 0, 54, 64
2, 894916, Note_off_c, 0, 70, 64
2, 894916, Note_off_c, 0, 78, 64
2, 894928, Note_on_c, 0, 85, 43
2, 894928, Note_on_c, 0, 82, 41
2, 894928, Note_on_c, 0, 73, 41
2, 894928, Note_on_c, 0, 64, 24
2, 894928, Note_on_c, 0, 54, 24
2, 894939, Note_off_c, 0, 63, 64
2, 894943, Note_off_c, 0, 58, 64
2, 895068, Note_on_c, 0, 61, 25
2, 895071, Note_on_c, 0, 58, 25
2, 895088, Note_off_c, 0, 64, 64
2, 895106, Note_off_c, 0, 54, 64
2, 895192, Note_on_c, 0, 66, 25
2, 895192, Note_on_c, 0, 54, 25
2, 895213, Note_off_c, 0, 61, 64
2, 895216, Note_off_c, 0, 58, 64
2, 895328, Note_on_c, 0, 63, 25
2, 895328, Note_on_c, 0, 58, 25
2, 895347, Note_off_c, 0, 54, 64
2, 895347, Note_off_c, 0, 66, 64
2, 895458, Note_off_c, 0, 58, 64
2, 895458, Note_off_c, 0, 63, 64
2, 895464, Note_on_c, 0, 64, 25
2, 895464, Note_on_c, 0, 54, 25
2, 895468, Note_off_c, 0, 82, 64
2, 895472, Note_on_c, 0, 82, 51
2, 895472, Note_on_c, 0, 78, 39
2, 895472, Note_on_c, 0, 70, 36
2, 895478, Note_off_c, 0, 73, 64
2, 895488, Note_off_c, 0, 85, 64
2, 895608, Note_on_c, 0, 61, 26
2, 895608, Note_on_c, 0, 58, 26
2, 895609, Note_off_c, 0, 54, 64
2, 895609, Note_off_c, 0, 64, 64
2, 895722, Note_off_c, 0, 70, 64
2, 895722, Note_off_c, 0, 78, 64
2, 895722, Note_off_c, 0, 82, 64
2, 895744, Note_on_c, 0, 82, 40
2, 895744, Note_on_c, 0, 78, 36
2, 895744, Note_on_c, 0, 66, 26
2, 895744, Note_on_c, 0, 54, 26
2, 895752, Note_on_c, 0, 90, 45
2, 895773, Note_off_c, 0, 58, 64
2, 895783, Note_off_c, 0, 61, 64
2, 895896, Note_on_c, 0, 63, 28
2, 895896, Note_on_c, 0, 58, 28
2, 895899, Note_off_c, 0, 54, 64
2, 895899, Note_off_c, 0, 66, 64
2, 896016, Note_on_c, 0, 64, 29
2, 896024, Note_on_c, 0, 54, 29
2, 896026, Note_off_c, 0, 58, 64
2, 896026, Note_off_c, 0, 63, 64
2, 896160, Note_on_c, 0, 61, 30
2, 896160, Note_on_c, 0, 58, 30
2, 896181, Note_off_c, 0, 64, 64
2, 896189, Note_off_c, 0, 54, 64
2, 896274, Note_off_c, 0, 78, 64
2, 896274, Note_off_c, 0, 82, 64
2, 896280, Note_on_c, 0, 85, 52
2, 896288, Note_on_c, 0, 82, 34
2, 896288, Note_on_c, 0, 73, 35
2, 896288, Note_on_c, 0, 66, 32
2, 896292, Note_off_c, 0, 90, 64
2, 896296, Note_on_c, 0, 54, 32
2, 896315, Note_off_c, 0, 58, 64
2, 896315, Note_off_c, 0, 61, 64
2, 896440, Note_on_c, 0, 63, 34
2, 896440, Note_on_c, 0, 58, 34
2, 896443, Note_off_c, 0, 66, 64
2, 896451, Note_off_c, 0, 54, 64
2, 896520, Note_off_c, 0, 85, 64
2, 896528, Note_off_c, 0, 73, 64
2, 896528, Note_off_c, 0, 82, 64
2, 896536, Note_on_c, 0, 85, 35
2, 896536, Note_on_c, 0, 82, 39
2, 896544, Note_on_c, 0, 73, 35
2, 896574, Note_off_c, 0, 82, 64
2, 896574, Note_off_c, 0, 85, 64
2, 896576, Note_on_c, 0, 83, 33
2, 896576, Note_on_c, 0, 80, 42
2, 896576, Note_on_c, 0, 64, 36
2, 896576, Note_on_c, 0, 54, 36
2, 896582, Note_off_c, 0, 73, 64
2, 896584, Note_on_c, 0, 71, 34
2, 896590, Note_off_c, 0, 58, 64
2, 896590, Note_off_c, 0, 63, 64
2, 896736, Note_off_c, 0, 54, 64
2, 896736, Note_off_c, 0, 64, 64
2, 896744, Note_on_c, 0, 61, 37
2, 896744, Note_on_c, 0, 58, 37
2, 896762, Note_off_c, 0, 83, 64
2, 896789, Note_off_c, 0, 80, 64
2, 896797, Note_off_c, 0, 71, 64
2, 896856, Note_on_c, 0, 82, 38
2, 896856, Note_on_c, 0, 78, 31
2, 896864, Note_on_c, 0, 70, 35
2, 896864, Note_on_c, 0, 66, 39
2, 896872, Note_on_c, 0, 54, 39
2, 896889, Note_off_c, 0, 58, 64
2, 896889, Note_off_c, 0, 61, 64
2, 896984, Note_on_c, 0, 63, 40
2, 896992, Note_on_c, 0, 58, 40
2, 897009, Note_off_c, 0, 66, 64
2, 897017, Note_off_c, 0, 54, 64
2, 897136, Note_on_c, 0, 64, 44
2, 897136, Note_on_c, 0, 54, 44
2, 897139, Note_off_c, 0, 63, 64
2, 897147, Note_off_c, 0, 58, 64
2, 897280, Note_on_c, 0, 61, 44
2, 897280, Note_on_c, 0, 58, 44
2, 897281, Note_off_c, 0, 54, 64
2, 897281, Note_off_c, 0, 64, 64
2, 897445, Note_off_c, 0, 58, 64
2, 897445, Note_off_c, 0, 61, 64
2, 897447, Note_on_c, 0, 66, 46
2, 897448, Note_on_c, 0, 54, 46
2, 897588, Note_on_c, 0, 58, 47
2, 897591, Note_on_c, 0, 63, 48
2, 897596, Note_off_c, 0, 66, 64
2, 897597, Note_off_c, 0, 54, 64
2, 897736, Note_off_c, 0, 58, 64
2, 897736, Note_on_c, 0, 54, 51
2, 897739, Note_off_c, 0, 63, 64
2, 897739, Note_on_c, 0, 64, 51
2, 897924, Note_on_c, 0, 61, 53
2, 897928, Note_on_c, 0, 58, 53
2, 897933, Note_off_c, 0, 54, 64
2, 897936, Note_off_c, 0, 64, 64
2, 898075, Note_off_c, 0, 61, 64
2, 898079, Note_off_c, 0, 58, 64
2, 898082, Note_on_c, 0, 64, 56
2, 898088, Note_on_c, 0, 54, 56
2, 898115, Note_off_c, 0, 78, 64
2, 898117, Note_off_c, 0, 82, 64
2, 898168, Note_off_c, 0, 70, 64
2, 898272, Note_on_c, 0, 60, 58
2, 898277, Note_on_c, 0, 58, 58
2, 898299, Note_off_c, 0, 54, 64
2, 898302, Note_off_c, 0, 64, 64
2, 898423, Note_off_c, 0, 60, 64
2, 898428, Note_off_c, 0, 58, 64
2, 898514, Control_c, 0, 64, 0
2, 898533, Note_on_c, 0, 77, 62
2, 898536, Note_on_c, 0, 29, 52
2, 898592, Control_c, 0, 64, 127
2, 898767, Note_on_c, 0, 53, 31
2, 898768, Note_on_c, 0, 65, 33
2, 898888, Note_off_c, 0, 53, 64
2, 898889, Note_off_c, 0, 65, 64
2, 898892, Note_on_c, 0, 67, 38
2, 898892, Note_on_c, 0, 64, 23
2, 898892, Note_on_c, 0, 55, 36
2, 898892, Note_on_c, 0, 52, 36
2, 898952, Note_off_c, 0, 55, 64
2, 898954, Note_off_c, 0, 52, 64
2, 898954, Note_off_c, 0, 64, 64
2, 898954, Note_off_c, 0, 67, 64
2, 899004, Note_on_c, 0, 63, 46
2, 899006, Note_on_c, 0, 69, 37
2, 899006, Note_on_c, 0, 51, 42
2, 899008, Note_on_c, 0, 57, 28
2, 899050, Note_off_c, 0, 63, 64
2, 899054, Note_off_c, 0, 57, 64
2, 899061, Note_off_c, 0, 69, 64
2, 899063, Note_off_c, 0, 51, 64
2, 899083, Note_off_c, 0, 29, 64
2, 899112, Note_on_c, 0, 70, 41
2, 899112, Note_on_c, 0, 62, 46
2, 899112, Note_on_c, 0, 50, 36
2, 899116, Note_on_c, 0, 58, 38
2, 899120, Note_off_c, 0, 77, 64
2, 899170, Note_off_c, 0, 50, 64
2, 899172, Note_off_c, 0, 62, 64
2, 899172, Note_off_c, 0, 70, 64
2, 899176, Note_off_c, 0, 58, 64
2, 899228, Note_on_c, 0, 60, 41
2, 899231, Note_on_c, 0, 48, 37
2, 899239, Note_on_c, 0, 72, 44
2, 899302, Note_off_c, 0, 60, 64
2, 899305, Note_off_c, 0, 48, 64
2, 899313, Note_off_c, 0, 72, 64
2, 899404, Control_c, 0, 64, 0
2, 899427, Note_on_c, 0, 74, 48
2, 899428, Note_on_c, 0, 41, 52
2, 899466, Control_c, 0, 64, 127
2, 899584, Note_on_c, 0, 65, 48
2, 899591, Note_on_c, 0, 53, 45
2, 899704, Note_on_c, 0, 67, 41
2, 899707, Note_on_c, 0, 64, 32
2, 899708, Note_on_c, 0, 52, 28
2, 899710, Note_off_c, 0, 65, 64
2, 899710, Note_on_c, 0, 55, 28
2, 899717, Note_off_c, 0, 53, 64
2, 899769, Note_off_c, 0, 67, 64
2, 899772, Note_off_c, 0, 64, 64
2, 899773, Note_off_c, 0, 52, 64
2, 899775, Note_off_c, 0, 55, 64
2, 899804, Note_on_c, 0, 69, 28
2, 899807, Note_on_c, 0, 51, 22
2, 899808, Note_on_c, 0, 63, 55
2, 899808, Note_on_c, 0, 57, 41
2, 899856, Note_off_c, 0, 69, 64
2, 899859, Note_off_c, 0, 51, 64
2, 899860, Note_off_c, 0, 57, 64
2, 899860, Note_off_c, 0, 63, 64
2, 899916, Note_on_c, 0, 62, 55
2, 899917, Note_on_c, 0, 70, 48
2, 899920, Note_on_c, 0, 50, 28
2, 900036, Note_on_c, 0, 53, 43
2, 900037, Note_off_c, 0, 74, 64
2, 900038, Note_off_c, 0, 41, 64
2, 900039, Note_on_c, 0, 74, 52
2, 900066, Note_off_c, 0, 62, 64
2, 900067, Note_off_c, 0, 70, 64
2, 900070, Note_off_c, 0, 50, 64
2, 900183, Control_c, 0, 64, 0
2, 900200, Note_on_c, 0, 79, 60
2, 900200, Note_on_c, 0, 41, 59
2, 900202, Note_off_c, 0, 53, 64
2, 900205, Note_off_c, 0, 74, 64
2, 900227, Control_c, 0, 64, 127
2, 900343, Note_on_c, 0, 67, 44
2, 900344, Note_on_c, 0, 55, 44
2, 900417, Note_off_c, 0, 67, 64
2, 900418, Note_off_c, 0, 55, 64
2, 900452, Note_on_c, 0, 57, 55
2, 900455, Note_on_c, 0, 69, 51
2, 900456, Note_on_c, 0, 66, 52
2, 900456, Note_on_c, 0, 54, 44
2, 900515, Note_off_c, 0, 57, 64
2, 900517, Note_off_c, 0, 54, 64
2, 900518, Note_off_c, 0, 69, 64
2, 900519, Note_off_c, 0, 66, 64
2, 900552, Note_on_c, 0, 71, 51
2, 900552, Note_on_c, 0, 53, 52
2, 900556, Note_on_c, 0, 65, 51
2, 900626, Note_off_c, 0, 53, 64
2, 900626, Note_off_c, 0, 71, 64
2, 900630, Note_off_c, 0, 65, 64
2, 900652, Note_on_c, 0, 51, 60
2, 900662, Note_on_c, 0, 72, 48
2, 900666, Note_on_c, 0, 63, 58
2, 900711, Note_off_c, 0, 51, 64
2, 900721, Note_off_c, 0, 72, 64
2, 900724, Note_off_c, 0, 41, 64
2, 900725, Note_off_c, 0, 63, 64
2, 900741, Note_off_c, 0, 79, 64
2, 900768, Note_on_c, 0, 74, 58
2, 900768, Note_on_c, 0, 50, 57
2, 900772, Note_on_c, 0, 62, 48
2, 900828, Note_off_c, 0, 50, 64
2, 900828, Note_off_c, 0, 74, 64
2, 900832, Note_off_c, 0, 62, 64
2, 900904, Control_c, 0, 64, 0
2, 900940, Note_on_c, 0, 75, 53
2, 900940, Note_on_c, 0, 41, 60
2, 900968, Control_c, 0, 64, 127
2, 901066, Note_on_c, 0, 55, 33
2, 901069, Note_on_c, 0, 67, 50
2, 901172, Note_on_c, 0, 69, 57
2, 901172, Note_on_c, 0, 66, 60
2, 901172, Note_on_c, 0, 57, 22
2, 901172, Note_on_c, 0, 54, 44
2, 901176, Note_off_c, 0, 55, 64
2, 901179, Note_off_c, 0, 67, 64
2, 901222, Note_off_c, 0, 69, 64
2, 901226, Note_off_c, 0, 54, 64
2, 901226, Note_off_c, 0, 57, 64
2, 901226, Note_off_c, 0, 66, 64
2, 901272, Note_on_c, 0, 71, 52
2, 901272, Note_on_c, 0, 65, 60
2, 901279, Note_on_c, 0, 53, 59
2, 901280, Note_on_c, 0, 59, 51
2, 901340, Note_off_c, 0, 59, 64
2, 901348, Note_off_c, 0, 65, 64
2, 901348, Note_off_c, 0, 71, 64
2, 901355, Note_off_c, 0, 53, 64
2, 901376, Note_on_c, 0, 63, 52
2, 901376, Note_on_c, 0, 60, 40
2, 901377, Note_on_c, 0, 51, 64
2, 901380, Note_on_c, 0, 72, 57
2, 901415, Note_off_c, 0, 75, 64
2, 901483, Note_on_c, 0, 55, 60
2, 901486, Note_on_c, 0, 75, 74
2, 901493, Note_off_c, 0, 41, 64
2, 901526, Note_off_c, 0, 60, 64
2, 901526, Note_off_c, 0, 63, 64
2, 901527, Note_off_c, 0, 51, 64
2, 901530, Note_off_c, 0, 72, 64
2, 901557, Note_off_c, 0, 55, 64
2, 901560, Note_off_c, 0, 75, 64
2, 901642, Control_c, 0, 64, 0
2, 901671, Note_on_c, 0, 41, 60
2, 901675, Note_on_c, 0, 81, 74
2, 901704, Control_c, 0, 64, 127
2, 901840, Note_on_c, 0, 57, 24
2, 901841, Note_on_c, 0, 69, 54
2, 901907, Note_off_c, 0, 57, 64
2, 901908, Note_off_c, 0, 69, 64
2, 901940, Note_on_c, 0, 68, 60
2, 901944, Note_on_c, 0, 71, 64
2, 901944, Note_on_c, 0, 59, 56
2, 901944, Note_on_c, 0, 56, 66
2, 902000, Note_off_c, 0, 68, 64
2, 902004, Note_off_c, 0, 59, 64
2, 902004, Note_off_c, 0, 71, 64
2, 902006, Note_off_c, 0, 56, 64
2, 902028, Note_on_c, 0, 67, 67
2, 902030, Note_on_c, 0, 73, 60
2, 902032, Note_on_c, 0, 61, 68
2, 902032, Note_on_c, 0, 55, 56
2, 902074, Note_off_c, 0, 67, 64
2, 902080, Note_off_c, 0, 61, 64
2, 902082, Note_off_c, 0, 73, 64
2, 902084, Note_off_c, 0, 55, 64
2, 902128, Note_on_c, 0, 74, 63
2, 902130, Note_on_c, 0, 53, 56
2, 902132, Note_on_c, 0, 65, 71
2, 902132, Note_on_c, 0, 62, 63
2, 902208, Note_off_c, 0, 53, 64
2, 902210, Note_off_c, 0, 62, 64
2, 902225, Note_off_c, 0, 41, 64
2, 902229, Note_off_c, 0, 81, 64
2, 902232, Note_on_c, 0, 77, 73
2, 902236, Note_on_c, 0, 57, 57
2, 902268, Note_off_c, 0, 74, 64
2, 902272, Note_off_c, 0, 65, 64
2, 902292, Note_off_c, 0, 77, 64
2, 902296, Note_off_c, 0, 57, 64
2, 902346, Control_c, 0, 64, 0
2, 902378, Note_on_c, 0, 82, 82
2, 902384, Note_on_c, 0, 41, 60
2, 902400, Control_c, 0, 64, 127
2, 902506, Note_on_c, 0, 70, 67
2, 902508, Note_on_c, 0, 58, 59
2, 902565, Note_off_c, 0, 70, 64
2, 902568, Note_off_c, 0, 58, 64
2, 902600, Note_on_c, 0, 69, 72
2, 902604, Note_on_c, 0, 72, 67
2, 902604, Note_on_c, 0, 60, 67
2, 902607, Note_on_c, 0, 57, 67
2, 902655, Note_off_c, 0, 72, 64
2, 902655, Note_off_c, 0, 69, 64
2, 902657, Note_off_c, 0, 60, 64
2, 902662, Note_off_c, 0, 57, 64
2, 902688, Note_on_c, 0, 74, 65
2, 902688, Note_on_c, 0, 68, 80
2, 902688, Note_on_c, 0, 62, 73
2, 902688, Note_on_c, 0, 56, 64
2, 902752, Note_off_c, 0, 56, 64
2, 902752, Note_off_c, 0, 62, 64
2, 902752, Note_off_c, 0, 68, 64
2, 902752, Note_off_c, 0, 74, 64
2, 902808, Note_on_c, 0, 67, 80
2, 902808, Note_on_c, 0, 63, 80
2, 902808, Note_on_c, 0, 55, 52
2, 902809, Note_on_c, 0, 75, 79
2, 902898, Note_off_c, 0, 55, 64
2, 902898, Note_off_c, 0, 63, 64
2, 902898, Note_off_c, 0, 67, 64
2, 902899, Note_off_c, 0, 75, 64
2, 902928, Note_on_c, 0, 78, 71
2, 902932, Note_off_c, 0, 82, 64
2, 902935, Note_on_c, 0, 66, 80
2, 902936, Note_on_c, 0, 54, 61
2, 902938, Note_off_c, 0, 41, 64
2, 903002, Note_off_c, 0, 78, 64
2, 903009, Note_off_c, 0, 66, 64
2, 903010, Note_off_c, 0, 54, 64
2, 903051, Control_c, 0, 64, 0
2, 903088, Note_on_c, 0, 41, 100
2, 903096, Note_on_c, 0, 29, 82
2, 903113, Control_c, 0, 64, 127
2, 903269, Note_on_c, 0, 65, 46
2, 903272, Note_on_c, 0, 77, 46
2, 903382, Note_off_c, 0, 65, 64
2, 903384, Note_on_c, 0, 82, 46
2, 903384, Note_on_c, 0, 78, 46
2, 903385, Note_on_c, 0, 87, 47
2, 903388, Note_on_c, 0, 75, 42
2, 903388, Note_on_c, 0, 70, 43
2, 903390, Note_on_c, 0, 66, 39
2, 903406, Note_off_c, 0, 77, 64
2, 903448, Note_off_c, 0, 70, 64
2, 903449, Note_off_c, 0, 82, 64
2, 903465, Note_off_c, 0, 78, 64
2, 903479, Note_off_c, 0, 66, 64
2, 903483, Note_off_c, 0, 75, 64
2, 903486, Note_off_c, 0, 87, 64
2, 903494, Note_on_c, 0, 77, 56
2, 903503, Note_on_c, 0, 65, 46
2, 903590, Note_on_c, 0, 87, 60
2, 903594, Note_off_c, 0, 65, 64
2, 903596, Note_on_c, 0, 75, 60
2, 903596, Note_on_c, 0, 70, 29
2, 903597, Note_on_c, 0, 82, 64
2, 903597, Note_on_c, 0, 66, 59
2, 903598, Note_on_c, 0, 78, 64
2, 903610, Note_off_c, 0, 77, 64
2, 903662, Note_off_c, 0, 70, 64
2, 903666, Note_off_c, 0, 75, 64
2, 903678, Note_off_c, 0, 87, 64
2, 903681, Note_off_c, 0, 82, 64
2, 903684, Note_off_c, 0, 66, 64
2, 903695, Note_on_c, 0, 77, 64
2, 903700, Note_on_c, 0, 65, 57
2, 903716, Note_off_c, 0, 78, 64
2, 903800, Note_off_c, 0, 77, 64
2, 903808, Note_on_c, 0, 87, 72
2, 903808, Note_on_c, 0, 78, 73
2, 903808, Note_on_c, 0, 75, 56
2, 903808, Note_on_c, 0, 70, 56
2, 903808, Note_on_c, 0, 66, 51
2, 903812, Note_on_c, 0, 82, 73
2, 903821, Note_off_c, 0, 65, 64
2, 903883, Note_off_c, 0, 70, 64
2, 903898, Note_off_c, 0, 66, 64
2, 903902, Note_off_c, 0, 87, 64
2, 903904, Note_off_c, 0, 75, 64
2, 903909, Note_on_c, 0, 65, 67
2, 903918, Note_on_c, 0, 77, 71
2, 903927, Note_off_c, 0, 78, 64
2, 903930, Note_off_c, 0, 82, 64
2, 904019, Note_off_c, 0, 77, 64
2, 904024, Note_on_c, 0, 75, 70
2, 904027, Note_on_c, 0, 87, 80
2, 904028, Note_on_c, 0, 70, 58
2, 904032, Note_on_c, 0, 82, 80
2, 904032, Note_on_c, 0, 66, 65
2, 904033, Note_on_c, 0, 78, 80
2, 904039, Note_off_c, 0, 65, 64
2, 904120, Note_off_c, 0, 70, 64
2, 904139, Note_off_c, 0, 66, 64
2, 904141, Note_off_c, 0, 75, 64
2, 904147, Note_on_c, 0, 65, 59
2, 904149, Note_on_c, 0, 77, 71
2, 904171, Note_off_c, 0, 78, 64
2, 904177, Note_off_c, 0, 82, 64
2, 904183, Note_off_c, 0, 87, 64
2, 904198, Note_off_c, 0, 41, 64
2, 904206, Note_off_c, 0, 29, 64
2, 904266, Note_off_c, 0, 77, 64
2, 904267, Note_off_c, 0, 65, 64
2, 904272, Note_on_c, 0, 66, 64
2, 904275, Note_on_c, 0, 87, 80
2, 904276, Note_on_c, 0, 78, 80
2, 904276, Note_on_c, 0, 75, 73
2, 904279, Note_on_c, 0, 82, 80
2, 904283, Note_on_c, 0, 70, 59
2, 904397, Note_off_c, 0, 66, 64
2, 904412, Note_off_c, 0, 70, 64
2, 904416, Note_on_c, 0, 65, 66
2, 904422, Note_on_c, 0, 77, 75
2, 904432, Note_off_c, 0, 78, 64
2, 904433, Note_off_c, 0, 87, 64
2, 904437, Note_off_c, 0, 75, 64
2, 904442, Note_off_c, 0, 82, 64
2, 904516, Control_c, 0, 64, 0
2, 904548, Note_off_c, 0, 65, 64
2, 904554, Note_off_c, 0, 77, 64
2, 904576, Note_on_c, 0, 87, 80
2, 904576, Note_on_c, 0, 81, 80
2, 904579, Note_on_c, 0, 78, 79
2, 904584, Note_on_c, 0, 69, 76
2, 904587, Note_on_c, 0, 75, 76
2, 904587, Note_on_c, 0, 66, 64
2, 904601, Control_c, 0, 64, 127
2, 904729, Note_on_c, 0, 74, 64
2, 904733, Note_on_c, 0, 86, 76
2, 904733, Note_on_c, 0, 77, 71
2, 904738, Note_on_c, 0, 65, 62
2, 904746, Note_off_c, 0, 81, 64
2, 904746, Note_off_c, 0, 87, 64
2, 904749, Note_off_c, 0, 78, 64
2, 904754, Note_off_c, 0, 69, 64
2, 904757, Note_off_c, 0, 66, 64
2, 904757, Note_off_c, 0, 75, 64
2, 904852, Note_on_c, 0, 67, 50
2, 904857, Note_on_c, 0, 64, 45
2, 904858, Note_on_c, 0, 79, 78
2, 904858, Note_on_c, 0, 76, 67
2, 904869, Note_off_c, 0, 74, 64
2, 904873, Note_off_c, 0, 77, 64
2, 904873, Note_off_c, 0, 86, 64
2, 904878, Note_off_c, 0, 65, 64
2, 904952, Note_off_c, 0, 67, 64
2, 904957, Note_off_c, 0, 64, 64
2, 904958, Note_off_c, 0, 76, 64
2, 904958, Note_off_c, 0, 79, 64
2, 904959, Note_on_c, 0, 81, 70
2, 904960, Note_on_c, 0, 75, 78
2, 904960, Note_on_c, 0, 69, 64
2, 904964, Note_on_c, 0, 63, 67
2, 905056, Note_on_c, 0, 70, 78
2, 905056, Note_on_c, 0, 62, 64
2, 905060, Note_on_c, 0, 74, 68
2, 905062, Note_on_c, 0, 82, 69
2, 905069, Note_off_c, 0, 81, 64
2, 905070, Note_off_c, 0, 69, 64
2, 905070, Note_off_c, 0, 75, 64
2, 905074, Note_off_c, 0, 63, 64
2, 905152, Note_on_c, 0, 77, 63
2, 905152, Note_on_c, 0, 73, 80
2, 905152, Note_on_c, 0, 65, 60
2, 905152, Note_on_c, 0, 61, 38
2, 905157, Note_off_c, 0, 62, 64
2, 905157, Note_off_c, 0, 70, 64
2, 905161, Note_off_c, 0, 74, 64
2, 905163, Note_off_c, 0, 82, 64
2, 905256, Note_on_c, 0, 80, 69
2, 905256, Note_on_c, 0, 72, 70
2, 905256, Note_on_c, 0, 68, 68
2, 905256, Note_on_c, 0, 60, 64
2, 905272, Note_off_c, 0, 61, 64
2, 905272, Note_off_c, 0, 65, 64
2, 905272, Note_off_c, 0, 73, 64
2, 905272, Note_off_c, 0, 77, 64
2, 905356, Note_on_c, 0, 58, 62
2, 905359, Note_on_c, 0, 78, 60
2, 905360, Note_on_c, 0, 66, 54
2, 905366, Note_off_c, 0, 60, 64
2, 905366, Note_off_c, 0, 68, 64
2, 905366, Note_off_c, 0, 72, 64
2, 905366, Note_off_c, 0, 80, 64
2, 905367, Note_on_c, 0, 70, 80
2, 905458, Note_on_c, 0, 69, 57
2, 905460, Note_on_c, 0, 60, 44
2, 905460, Note_on_c, 0, 57, 54
2, 905463, Note_on_c, 0, 72, 70
2, 905476, Note_off_c, 0, 58, 64
2, 905479, Note_off_c, 0, 78, 64
2, 905480, Note_off_c, 0, 66, 64
2, 905487, Note_off_c, 0, 70, 64
2, 905560, Note_on_c, 0, 62, 62
2, 905561, Note_on_c, 0, 68, 68
2, 905567, Note_on_c, 0, 74, 53
2, 905568, Note_off_c, 0, 69, 64
2, 905568, Note_on_c, 0, 56, 69
2, 905570, Note_off_c, 0, 57, 64
2, 905570, Note_off_c, 0, 60, 64
2, 905573, Note_off_c, 0, 72, 64
2, 905648, Note_on_c, 0, 55, 60
2, 905650, Note_on_c, 0, 75, 66
2, 905656, Note_on_c, 0, 67, 67
2, 905656, Note_on_c, 0, 63, 52
2, 905660, Note_off_c, 0, 62, 64
2, 905661, Note_off_c, 0, 68, 64
2, 905667, Note_off_c, 0, 74, 64
2, 905668, Note_off_c, 0, 56, 64
2, 905732, Note_on_c, 0, 58, 60
2, 905732, Note_on_c, 0, 54, 51
2, 905740, Note_on_c, 0, 66, 64
2, 905743, Note_on_c, 0, 70, 51
2, 905758, Note_off_c, 0, 55, 64
2, 905760, Note_off_c, 0, 75, 64
2, 905766, Note_off_c, 0, 63, 64
2, 905766, Note_off_c, 0, 67, 64
2, 905852, Note_off_c, 0, 54, 64
2, 905852, Note_off_c, 0, 58, 64
2, 905856, Note_on_c, 0, 73, 60
2, 905856, Note_on_c, 0, 53, 54
2, 905860, Note_off_c, 0, 66, 64
2, 905860, Note_on_c, 0, 65, 58
2, 905860, Note_on_c, 0, 61, 59
2, 905863, Note_off_c, 0, 70, 64
2, 905960, Note_on_c, 0, 60, 48
2, 905968, Note_on_c, 0, 64, 52
2, 905968, Note_on_c, 0, 52, 50
2, 905971, Note_on_c, 0, 72, 48
2, 905986, Note_off_c, 0, 53, 64
2, 905986, Note_off_c, 0, 73, 64
2, 905990, Note_off_c, 0, 61, 64
2, 905990, Note_off_c, 0, 65, 64
2, 906064, Note_on_c, 0, 55, 40
2, 906064, Note_on_c, 0, 51, 48
2, 906068, Note_on_c, 0, 63, 46
2, 906070, Note_on_c, 0, 67, 55
2, 906080, Note_off_c, 0, 60, 64
2, 906088, Note_off_c, 0, 52, 64
2, 906088, Note_off_c, 0, 64, 64
2, 906091, Note_off_c, 0, 72, 64
2, 906156, Note_on_c, 0, 68, 58
2, 906156, Note_on_c, 0, 62, 58
2, 906160, Note_on_c, 0, 56, 51
2, 906160, Note_on_c, 0, 52, 44
2, 906164, Note_off_c, 0, 51, 64
2, 906164, Note_off_c, 0, 55, 64
2, 906168, Note_off_c, 0, 63, 64
2, 906170, Note_off_c, 0, 67, 64
2, 906266, Note_off_c, 0, 62, 64
2, 906266, Note_off_c, 0, 68, 64
2, 906268, Note_on_c, 0, 57, 48
2, 906270, Note_off_c, 0, 52, 64
2, 906270, Note_off_c, 0, 56, 64
2, 906270, Note_on_c, 0, 69, 48
2, 906270, Note_on_c, 0, 61, 64
2, 906274, Note_on_c, 0, 49, 45
2, 906368, Note_on_c, 0, 60, 38
2, 906371, Note_on_c, 0, 63, 51
2, 906376, Note_on_c, 0, 51, 43
2, 906376, Note_on_c, 0, 48, 37
2, 906388, Note_off_c, 0, 57, 64
2, 906390, Note_off_c, 0, 61, 64
2, 906390, Note_off_c, 0, 69, 64
2, 906394, Note_off_c, 0, 49, 64
2, 906478, Note_off_c, 0, 60, 64
2, 906480, Note_on_c, 0, 66, 56
2, 906481, Note_off_c, 0, 63, 64
2, 906484, Note_on_c, 0, 46, 57
2, 906486, Note_off_c, 0, 48, 64
2, 906486, Note_off_c, 0, 51, 64
2, 906486, Note_on_c, 0, 54, 52
2, 906487, Note_on_c, 0, 58, 59
2, 906590, Note_on_c, 0, 65, 45
2, 906592, Note_on_c, 0, 57, 47
2, 906596, Note_on_c, 0, 53, 44
2, 906599, Note_on_c, 0, 45, 49
2, 906600, Note_off_c, 0, 66, 64
2, 906604, Note_off_c, 0, 46, 64
2, 906606, Note_off_c, 0, 54, 64
2, 906607, Note_off_c, 0, 58, 64
2, 906692, Note_on_c, 0, 56, 54
2, 906692, Note_on_c, 0, 44, 44
2, 906695, Note_on_c, 0, 48, 47
2, 906698, Note_on_c, 0, 60, 41
2, 906710, Note_off_c, 0, 65, 64
2, 906712, Note_off_c, 0, 57, 64
2, 906716, Note_off_c, 0, 53, 64
2, 906719, Note_off_c, 0, 45, 64
2, 906725, Control_c, 0, 64, 0
2, 906764, Control_c, 0, 64, 127
2, 906804, Note_on_c, 0, 43, 40
2, 906807, Note_off_c, 0, 44, 64
2, 906807, Note_off_c, 0, 56, 64
2, 906809, Note_on_c, 0, 55, 48
2, 906809, Note_on_c, 0, 50, 40
2, 906810, Note_off_c, 0, 48, 64
2, 906812, Note_on_c, 0, 62, 35
2, 906813, Note_off_c, 0, 60, 64
2, 906924, Note_off_c, 0, 43, 64
2, 906924, Note_on_c, 0, 54, 44
2, 906925, Note_on_c, 0, 51, 48
2, 906928, Note_on_c, 0, 63, 57
2, 906929, Note_off_c, 0, 50, 64
2, 906929, Note_off_c, 0, 55, 64
2, 906930, Note_on_c, 0, 42, 48
2, 906932, Note_off_c, 0, 62, 64
2, 907056, Note_on_c, 0, 53, 47
2, 907056, Note_on_c, 0, 41, 40
2, 907059, Note_on_c, 0, 57, 36
2, 907149, Note_off_c, 0, 54, 64
2, 907150, Note_off_c, 0, 51, 64
2, 907153, Note_off_c, 0, 63, 64
2, 907155, Note_off_c, 0, 42, 64
2, 907272, Note_on_c, 0, 62, 38
2, 907272, Note_on_c, 0, 58, 38
2, 907276, Note_off_c, 0, 41, 64
2, 907276, Note_off_c, 0, 53, 64
2, 907278, Control_c, 0, 64, 0
2, 907279, Note_off_c, 0, 57, 64
2, 907285, Note_on_c, 0, 53, 33
2, 907285, Note_on_c, 0, 34, 41
2, 907352, Control_c, 0, 64, 127
2, 907406, Note_off_c, 0, 53, 64
2, 907417, Note_off_c, 0, 58, 64
2, 907441, Note_off_c, 0, 62, 64
2, 907466, Note_off_c, 0, 34, 64
2, 907502, Note_on_c, 0, 52, 49
2, 907642, Note_off_c, 0, 52, 64
2, 907656, Note_on_c, 0, 53, 56
2, 907796, Note_off_c, 0, 53, 64
2, 907816, Note_on_c, 0, 58, 57
2, 907945, Note_off_c, 0, 58, 64
2, 907988, Note_on_c, 0, 57, 42
2, 908117, Note_on_c, 0, 55, 49
2, 908124, Note_off_c, 0, 57, 64
2, 908253, Control_c, 0, 64, 0
2, 908313, Note_on_c, 0, 41, 54
2, 908335, Note_off_c, 0, 55, 64
2, 908375, Control_c, 0, 64, 127
2, 908510, Note_off_c, 0, 41, 64
2, 908624, Note_on_c, 0, 75, 50
2, 908624, Note_on_c, 0, 66, 50
2, 908624, Note_on_c, 0, 63, 50
2, 908624, Note_on_c, 0, 54, 50
2, 908804, Note_on_c, 0, 69, 48
2, 908805, Note_on_c, 0, 65, 47
2, 908808, Note_on_c, 0, 57, 47
2, 908809, Note_on_c, 0, 53, 47
2, 908814, Note_off_c, 0, 54, 64
2, 908814, Note_off_c, 0, 63, 64
2, 908814, Note_off_c, 0, 66, 64
2, 908814, Note_off_c, 0, 75, 64
2, 908920, Note_on_c, 0, 58, 45
2, 908924, Note_on_c, 0, 52, 45
2, 908925, Note_on_c, 0, 70, 45
2, 908928, Note_on_c, 0, 64, 45
2, 908944, Note_off_c, 0, 69, 64
2, 908945, Note_off_c, 0, 65, 64
2, 908948, Note_off_c, 0, 57, 64
2, 908949, Note_off_c, 0, 53, 64
2, 909030, Note_off_c, 0, 58, 64
2, 909032, Note_on_c, 0, 63, 44
2, 909032, Note_on_c, 0, 60, 44
2, 909034, Note_off_c, 0, 52, 64
2, 909035, Note_off_c, 0, 70, 64
2, 909038, Note_off_c, 0, 64, 64
2, 909040, Note_on_c, 0, 72, 51
2, 909040, Note_on_c, 0, 51, 43
2, 909184, Note_on_c, 0, 66, 41
2, 909188, Note_on_c, 0, 54, 41
2, 909252, Note_off_c, 0, 60, 64
2, 909252, Note_off_c, 0, 63, 64
2, 909258, Note_off_c, 0, 66, 64
2, 909260, Note_off_c, 0, 51, 64
2, 909260, Note_off_c, 0, 72, 64
2, 909262, Note_off_c, 0, 54, 64
2, 909330, Control_c, 0, 64, 0
2, 909343, Note_on_c, 0, 70, 38
2, 909344, Note_on_c, 0, 65, 38
2, 909345, Note_on_c, 0, 74, 38
2, 909346, Note_on_c, 0, 62, 38
2, 909370, Note_on_c, 0, 46, 57
2, 909397, Control_c, 0, 64, 127
2, 909530, Note_off_c, 0, 46, 64
2, 909611, Note_on_c, 0, 52, 37
2, 909670, Note_off_c, 0, 70, 64
2, 909671, Note_off_c, 0, 65, 64
2, 909672, Note_off_c, 0, 74, 64
2, 909673, Note_off_c, 0, 62, 64
2, 909731, Note_off_c, 0, 52, 64
2, 909738, Note_on_c, 0, 53, 49
2, 909845, Note_on_c, 0, 58, 40
2, 909851, Note_off_c, 0, 53, 64
2, 909951, Note_off_c, 0, 58, 64
2, 909977, Note_on_c, 0, 57, 49
2, 910128, Note_on_c, 0, 55, 37
2, 910136, Note_off_c, 0, 57, 64
2, 910185, Control_c, 0, 64, 0
2, 910264, Note_on_c, 0, 41, 55
2, 910269, Control_c, 0, 64, 127
2, 910270, Note_off_c, 0, 55, 64
2, 910440, Note_off_c, 0, 41, 64
2, 910444, Note_on_c, 0, 63, 44
2, 910448, Note_on_c, 0, 75, 44
2, 910448, Note_on_c, 0, 66, 44
2, 910452, Note_on_c, 0, 54, 44
2, 910584, Note_off_c, 0, 63, 64
2, 910588, Note_off_c, 0, 66, 64
2, 910588, Note_off_c, 0, 75, 64
2, 910592, Note_off_c, 0, 54, 64
2, 910592, Note_on_c, 0, 65, 42
2, 910592, Note_on_c, 0, 57, 42
2, 910594, Note_on_c, 0, 69, 42
2, 910594, Note_on_c, 0, 53, 42
2, 910721, Note_on_c, 0, 70, 41
2, 910722, Note_off_c, 0, 57, 64
2, 910722, Note_off_c, 0, 65, 64
2, 910724, Note_off_c, 0, 69, 64
2, 910727, Note_off_c, 0, 53, 64
2, 910728, Note_on_c, 0, 58, 41
2, 910730, Note_on_c, 0, 64, 41
2, 910736, Note_on_c, 0, 52, 41
2, 910880, Note_on_c, 0, 72, 48
2, 910880, Note_on_c, 0, 60, 40
2, 910880, Note_on_c, 0, 51, 40
2, 910881, Note_off_c, 0, 70, 64
2, 910881, Note_on_c, 0, 63, 40
2, 910888, Note_off_c, 0, 58, 64
2, 910890, Note_off_c, 0, 64, 64
2, 910896, Note_off_c, 0, 52, 64
2, 911048, Note_on_c, 0, 66, 38
2, 911048, Note_on_c, 0, 54, 38
2, 911096, Note_off_c, 0, 51, 64
2, 911096, Note_off_c, 0, 60, 64
2, 911096, Note_off_c, 0, 72, 64
2, 911097, Note_off_c, 0, 63, 64
2, 911159, Note_off_c, 0, 54, 64
2, 911159, Note_off_c, 0, 66, 64
2, 911262, Note_on_c, 0, 70, 36
2, 911264, Note_on_c, 0, 34, 60
2, 911265, Note_on_c, 0, 74, 36
2, 911265, Note_on_c, 0, 65, 36
2, 911265, Note_on_c, 0, 62, 36
2, 911428, Note_on_c, 0, 40, 48
2, 911444, Note_off_c, 0, 34, 64
2, 911456, Control_c, 0, 64, 0
2, 911545, Control_c, 0, 64, 127
2, 911566, Note_on_c, 0, 41, 56
2, 911592, Note_off_c, 0, 40, 64
2, 911706, Note_on_c, 0, 46, 51
2, 911713, Note_off_c, 0, 41, 64
2, 911804, Note_off_c, 0, 46, 64
2, 911860, Note_on_c, 0, 45, 57
2, 911864, Note_off_c, 0, 74, 64
2, 911876, Note_off_c, 0, 70, 64
2, 911893, Note_off_c, 0, 65, 64
2, 911907, Note_off_c, 0, 62, 64
2, 912050, Note_on_c, 0, 43, 47
2, 912080, Note_off_c, 0, 45, 64
2, 912181, Note_off_c, 0, 43, 64
2, 912257, Note_on_c, 0, 58, 51
2, 912262, Note_on_c, 0, 62, 50
2, 912266, Note_on_c, 0, 67, 56
2, 912266, Note_on_c, 0, 55, 44
2, 912266, Note_on_c, 0, 31, 50
2, 912288, Control_c, 0, 64, 0
2, 912386, Control_c, 0, 64, 127
2, 912572, Note_off_c, 0, 58, 64
2, 912760, Note_on_c, 0, 60, 45
2, 912775, Note_off_c, 0, 67, 64
2, 912776, Note_off_c, 0, 62, 64
2, 912945, Note_on_c, 0, 63, 54
2, 912949, Note_on_c, 0, 33, 50
2, 912990, Note_off_c, 0, 60, 64
2, 913035, Note_off_c, 0, 31, 64
2, 913080, Note_off_c, 0, 55, 64
2, 913142, Note_off_c, 0, 63, 64
2, 913148, Note_on_c, 0, 62, 51
2, 913198, Note_off_c, 0, 33, 64
2, 913213, Note_off_c, 0, 62, 64
2, 913310, Control_c, 0, 64, 0
2, 913316, Note_on_c, 0, 34, 52
2, 913325, Note_on_c, 0, 58, 48
2, 913326, Note_on_c, 0, 65, 52
2, 913326, Note_on_c, 0, 62, 48
2, 913333, Note_on_c, 0, 53, 32
2, 913400, Control_c, 0, 64, 127
2, 913479, Note_on_c, 0, 40, 42
2, 913498, Note_off_c, 0, 34, 64
2, 913616, Note_on_c, 0, 41, 44
2, 913633, Note_off_c, 0, 40, 64
2, 913737, Note_off_c, 0, 41, 64
2, 913740, Note_on_c, 0, 46, 43
2, 913858, Note_on_c, 0, 45, 47
2, 913862, Note_off_c, 0, 46, 64
2, 913891, Note_off_c, 0, 53, 64
2, 913913, Note_off_c, 0, 62, 64
2, 913925, Note_off_c, 0, 65, 64
2, 913932, Note_off_c, 0, 58, 64
2, 913975, Note_on_c, 0, 43, 48
2, 913985, Note_off_c, 0, 45, 64
2, 914055, Note_off_c, 0, 43, 64
2, 914175, Note_on_c, 0, 31, 37
2, 914179, Note_on_c, 0, 67, 40
2, 914179, Note_on_c, 0, 62, 35
2, 914179, Note_on_c, 0, 58, 32
2, 914186, Note_on_c, 0, 55, 29
2, 914193, Control_c, 0, 64, 0
2, 914302, Control_c, 0, 64, 127
2, 914440, Note_off_c, 0, 58, 64
2, 914599, Note_off_c, 0, 67, 64
2, 914610, Note_on_c, 0, 60, 34
2, 914648, Note_off_c, 0, 62, 64
2, 914752, Note_on_c, 0, 33, 37
2, 914761, Note_on_c, 0, 63, 22
2, 914784, Note_off_c, 0, 60, 64
2, 914813, Note_off_c, 0, 31, 64
2, 914881, Note_on_c, 0, 62, 41
2, 914889, Note_off_c, 0, 55, 64
2, 914896, Note_off_c, 0, 63, 64
2, 914940, Note_off_c, 0, 62, 64
2, 915057, Control_c, 0, 64, 0
2, 915070, Note_on_c, 0, 62, 32
2, 915070, Note_on_c, 0, 58, 35
2, 915071, Note_on_c, 0, 53, 31
2, 915079, Note_off_c, 0, 33, 64
2, 915079, Note_on_c, 0, 34, 40
2, 915080, Note_on_c, 0, 65, 39
2, 915143, Control_c, 0, 64, 127
2, 915241, Note_off_c, 0, 34, 64
2, 915289, Note_on_c, 0, 40, 46
2, 915416, Control_c, 0, 64, 0
2, 915432, Note_on_c, 0, 41, 50
2, 915455, Note_off_c, 0, 40, 64
2, 915524, Control_c, 0, 64, 127
2, 915552, Note_on_c, 0, 46, 37
2, 915575, Note_off_c, 0, 41, 64
2, 915680, Note_off_c, 0, 46, 64
2, 915681, Note_on_c, 0, 45, 35
2, 915793, Note_on_c, 0, 43, 50
2, 915808, Note_off_c, 0, 45, 64
2, 915904, Note_off_c, 0, 43, 64
2, 915976, Note_on_c, 0, 34, 44
2, 916075, Control_c, 0, 64, 0
2, 916113, Note_on_c, 0, 40, 44
2, 916129, Note_off_c, 0, 34, 64
2, 916155, Control_c, 0, 64, 127
2, 916167, Note_off_c, 0, 53, 64
2, 916205, Note_off_c, 0, 58, 64
2, 916210, Note_off_c, 0, 62, 64
2, 916242, Note_off_c, 0, 40, 64
2, 916242, Note_on_c, 0, 41, 51
2, 916396, Note_on_c, 0, 48, 39
2, 916418, Note_off_c, 0, 41, 64
2, 916539, Note_off_c, 0, 48, 64
2, 916544, Note_on_c, 0, 45, 40
2, 916658, Note_on_c, 0, 46, 54
2, 916670, Note_off_c, 0, 45, 64
2, 916688, Note_off_c, 0, 65, 64
2, 916771, Note_off_c, 0, 46, 64
2, 916772, Note_on_c, 0, 51, 39
2, 916877, Note_off_c, 0, 51, 64
2, 916880, Note_on_c, 0, 49, 54
2, 916928, Control_c, 0, 64, 0
2, 916985, Note_on_c, 0, 50, 56
2, 917004, Note_off_c, 0, 49, 64
2, 917011, Control_c, 0, 64, 127
2, 917097, Note_off_c, 0, 50, 64
2, 917102, Note_on_c, 0, 55, 55
2, 917209, Note_on_c, 0, 52, 56
2, 917223, Note_off_c, 0, 55, 64
2, 917300, Control_c, 0, 64, 0
2, 917314, Note_on_c, 0, 53, 64
2, 917339, Note_off_c, 0, 52, 64
2, 917476, Note_on_c, 0, 62, 56
2, 917498, Control_c, 0, 64, 127
2, 917513, Control_c, 0, 64, 0
2, 917520, Note_off_c, 0, 53, 64
2, 917544, Control_c, 0, 64, 127
2, 917703, Control_c, 0, 64, 0
2, 917825, Note_off_c, 0, 62, 64
2, 918592, Note_on_c, 0, 63, 50
2, 918592, Note_on_c, 0, 60, 59
2, 918592, Note_on_c, 0, 53, 48
2, 918592, Note_on_c, 0, 41, 54
2, 918592, Note_on_c, 0, 29, 39
2, 918599, Note_on_c, 0, 65, 56
2, 918692, Control_c, 0, 64, 127
2, 919466, Note_off_c, 0, 41, 64
2, 919478, Note_off_c, 0, 63, 64
2, 919479, Note_off_c, 0, 60, 64
2, 919502, Note_off_c, 0, 29, 64
2, 919508, Note_off_c, 0, 65, 64
2, 919534, Note_off_c, 0, 53, 64
2, 919712, Note_on_c, 0, 58, 51
2, 919712, Note_on_c, 0, 53, 44
2, 919718, Note_on_c, 0, 65, 49
2, 919718, Note_on_c, 0, 62, 51
2, 919720, Note_on_c, 0, 46, 48
2, 919720, Note_on_c, 0, 34, 45
2, 919729, Control_c, 0, 64, 0
2, 919868, Control_c, 0, 64, 127
2, 920239, Note_off_c, 0, 62, 64
2, 920240, Note_off_c, 0, 58, 64
2, 920245, Note_off_c, 0, 53, 64
2, 920245, Note_off_c, 0, 65, 64
2, 920247, Note_off_c, 0, 34, 64
2, 920247, Note_off_c, 0, 46, 64
2, 921158, Note_on_c, 0, 46, 90
2, 921158, Note_on_c, 0, 34, 76
2, 921176, Control_c, 0, 64, 127
2, 921200, Note_off_c, 0, 46, 64
2, 921201, Note_off_c, 0, 34, 64
2, 921234, Note_on_c, 0, 45, 75
2, 921238, Note_on_c, 0, 33, 78
2, 921256, Control_c, 0, 64, 0
2, 921321, Note_off_c, 0, 33, 64
2, 921321, Note_off_c, 0, 45, 64
2, 921384, Note_on_c, 0, 43, 81
2, 921386, Note_on_c, 0, 31, 84
2, 921408, Note_off_c, 0, 31, 64
2, 921409, Note_off_c, 0, 43, 64
2, 921428, Note_on_c, 0, 43, 73
2, 921428, Note_on_c, 0, 31, 77
2, 921439, Control_c, 0, 64, 127
2, 921490, Note_on_c, 0, 63, 69
2, 921494, Note_on_c, 0, 60, 69
2, 921494, Note_on_c, 0, 57, 69
2, 921541, Note_on_c, 0, 51, 67
2, 921564, Note_off_c, 0, 43, 64
2, 921569, Note_off_c, 0, 31, 64
2, 921574, Note_off_c, 0, 63, 64
2, 921580, Note_off_c, 0, 51, 64
2, 921611, Note_on_c, 0, 62, 64
2, 921611, Note_on_c, 0, 50, 62
2, 921649, Note_off_c, 0, 50, 64
2, 921668, Note_on_c, 0, 30, 72
2, 921670, Note_on_c, 0, 42, 63
2, 921689, Note_off_c, 0, 57, 64
2, 921689, Note_off_c, 0, 60, 64
2, 921693, Note_off_c, 0, 62, 64
2, 921694, Note_off_c, 0, 30, 64
2, 921697, Note_off_c, 0, 42, 64
2, 921711, Control_c, 0, 64, 0
2, 921733, Note_on_c, 0, 45, 84
2, 921735, Note_on_c, 0, 33, 76
2, 921754, Note_off_c, 0, 33, 64
2, 921754, Note_off_c, 0, 45, 64
2, 921793, Note_on_c, 0, 45, 81
2, 921793, Note_on_c, 0, 33, 82
2, 921839, Control_c, 0, 64, 127
2, 921850, Note_on_c, 0, 66, 73
2, 921854, Note_on_c, 0, 63, 73
2, 921855, Note_on_c, 0, 60, 72
2, 921899, Note_on_c, 0, 54, 72
2, 921906, Note_off_c, 0, 60, 64
2, 921940, Note_off_c, 0, 54, 64
2, 921940, Note_off_c, 0, 66, 64
2, 921961, Note_off_c, 0, 33, 64
2, 921968, Note_off_c, 0, 45, 64
2, 921968, Note_on_c, 0, 60, 64
2, 921968, Note_on_c, 0, 55, 63
2, 921972, Note_on_c, 0, 67, 64
2, 921990, Control_c, 0, 64, 0
2, 922028, Note_on_c, 0, 46, 84
2, 922030, Note_on_c, 0, 34, 73
2, 922055, Note_off_c, 0, 34, 64
2, 922058, Note_off_c, 0, 46, 64
2, 922070, Note_off_c, 0, 60, 64
2, 922089, Note_on_c, 0, 43, 76
2, 922091, Note_on_c, 0, 31, 75
2, 922093, Note_off_c, 0, 63, 64
2, 922113, Note_off_c, 0, 43, 64
2, 922114, Note_off_c, 0, 31, 64
2, 922130, Note_off_c, 0, 67, 64
2, 922141, Note_off_c, 0, 55, 64
2, 922156, Note_on_c, 0, 46, 93
2, 922158, Note_on_c, 0, 34, 88
2, 922180, Control_c, 0, 64, 127
2, 922219, Note_on_c, 0, 63, 69
2, 922223, Note_on_c, 0, 67, 69
2, 922223, Note_on_c, 0, 60, 69
2, 922269, Note_off_c, 0, 67, 64
2, 922270, Note_on_c, 0, 55, 64
2, 922302, Note_off_c, 0, 55, 64
2, 922342, Note_on_c, 0, 54, 77
2, 922345, Note_on_c, 0, 66, 73
2, 922359, Note_off_c, 0, 34, 64
2, 922360, Note_off_c, 0, 46, 64
2, 922375, Note_off_c, 0, 54, 64
2, 922397, Note_on_c, 0, 33, 67
2, 922402, Note_on_c, 0, 45, 65
2, 922414, Note_off_c, 0, 63, 64
2, 922418, Note_off_c, 0, 60, 64
2, 922424, Note_off_c, 0, 33, 64
2, 922427, Note_off_c, 0, 45, 64
2, 922429, Note_off_c, 0, 66, 64
2, 922434, Control_c, 0, 64, 0
2, 922465, Note_on_c, 0, 48, 84
2, 922469, Note_on_c, 0, 36, 75
2, 922486, Note_off_c, 0, 48, 64
2, 922487, Note_off_c, 0, 36, 64
2, 922529, Note_on_c, 0, 48, 86
2, 922529, Note_on_c, 0, 36, 81
2, 922576, Control_c, 0, 64, 127
2, 922586, Note_on_c, 0, 69, 70
2, 922586, Note_on_c, 0, 66, 69
2, 922589, Note_on_c, 0, 63, 66
2, 922638, Note_off_c, 0, 69, 64
2, 922651, Note_on_c, 0, 57, 75
2, 922665, Note_off_c, 0, 63, 64
2, 922668, Note_off_c, 0, 66, 64
2, 922684, Note_off_c, 0, 57, 64
2, 922712, Note_on_c, 0, 70, 75
2, 922714, Note_on_c, 0, 67, 63
2, 922716, Note_on_c, 0, 58, 84
2, 922741, Note_off_c, 0, 36, 64
2, 922742, Note_off_c, 0, 48, 64
2, 922764, Control_c, 0, 64, 0
2, 922784, Note_on_c, 0, 50, 77
2, 922785, Note_on_c, 0, 38, 71
2, 922795, Note_off_c, 0, 67, 64
2, 922799, Note_off_c, 0, 70, 64
2, 922808, Note_off_c, 0, 38, 64
2, 922809, Note_off_c, 0, 50, 64
2, 922819, Note_off_c, 0, 58, 64
2, 922845, Note_on_c, 0, 46, 86
2, 922848, Note_on_c, 0, 34, 86
2, 922864, Note_off_c, 0, 34, 64
2, 922869, Note_off_c, 0, 46, 64
2, 922929, Note_on_c, 0, 61, 94
2, 922931, Note_on_c, 0, 49, 88
2, 922959, Control_c, 0, 64, 127
2, 922994, Note_on_c, 0, 79, 69
2, 922994, Note_on_c, 0, 75, 69
2, 922994, Note_on_c, 0, 70, 66
2, 923040, Note_off_c, 0, 79, 64
2, 923049, Note_on_c, 0, 67, 66
2, 923051, Note_off_c, 0, 75, 64
2, 923060, Note_off_c, 0, 70, 64
2, 923084, Note_off_c, 0, 67, 64
2, 923121, Note_on_c, 0, 78, 57
2, 923127, Note_on_c, 0, 74, 66
2, 923127, Note_on_c, 0, 69, 60
2, 923127, Note_on_c, 0, 66, 75
2, 923144, Note_off_c, 0, 49, 64
2, 923167, Note_off_c, 0, 61, 64
2, 923188, Note_off_c, 0, 69, 64
2, 923188, Note_on_c, 0, 62, 72
2, 923192, Note_on_c, 0, 50, 69
2, 923206, Note_off_c, 0, 66, 64
2, 923215, Note_off_c, 0, 62, 64
2, 923216, Note_off_c, 0, 50, 64
2, 923219, Control_c, 0, 64, 0
2, 923223, Note_off_c, 0, 74, 64
2, 923226, Note_off_c, 0, 78, 64
2, 923253, Note_on_c, 0, 57, 81
2, 923253, Note_on_c, 0, 45, 78
2, 923275, Note_off_c, 0, 57, 64
2, 923276, Note_off_c, 0, 45, 64
2, 923323, Note_on_c, 0, 59, 86
2, 923323, Note_on_c, 0, 47, 84
2, 923341, Control_c, 0, 64, 127
2, 923368, Note_on_c, 0, 77, 69
2, 923377, Note_on_c, 0, 73, 66
2, 923377, Note_on_c, 0, 68, 58
2, 923441, Note_off_c, 0, 73, 64
2, 923442, Note_on_c, 0, 65, 53
2, 923447, Note_off_c, 0, 77, 64
2, 923456, Note_off_c, 0, 68, 64
2, 923476, Note_off_c, 0, 65, 64
2, 923496, Note_on_c, 0, 64, 69
2, 923507, Note_on_c, 0, 76, 64
2, 923509, Note_on_c, 0, 72, 64
2, 923510, Note_on_c, 0, 67, 67
2, 923521, Note_off_c, 0, 47, 64
2, 923534, Note_off_c, 0, 59, 64
2, 923546, Note_off_c, 0, 67, 64
2, 923563, Note_off_c, 0, 72, 64
2, 923563, Note_off_c, 0, 64, 64
2, 923573, Note_off_c, 0, 76, 64
2, 923574, Note_on_c, 0, 60, 77
2, 923576, Note_on_c, 0, 48, 58
2, 923594, Control_c, 0, 64, 0
2, 923598, Note_off_c, 0, 48, 64
2, 923602, Note_off_c, 0, 60, 64
2, 923630, Note_on_c, 0, 43, 79
2, 923634, Note_on_c, 0, 55, 77
2, 923653, Note_off_c, 0, 55, 64
2, 923654, Note_off_c, 0, 43, 64
2, 923707, Note_on_c, 0, 59, 78
2, 923707, Note_on_c, 0, 47, 77
2, 923724, Control_c, 0, 64, 127
2, 923762, Note_on_c, 0, 73, 64
2, 923764, Note_on_c, 0, 77, 66
2, 923764, Note_on_c, 0, 68, 59
2, 923821, Note_on_c, 0, 65, 60
2, 923825, Note_off_c, 0, 73, 64
2, 923838, Note_off_c, 0, 68, 64
2, 923843, Note_off_c, 0, 77, 64
2, 923853, Note_off_c, 0, 65, 64
2, 923890, Note_off_c, 0, 47, 64
2, 923892, Note_on_c, 0, 64, 75
2, 923893, Note_on_c, 0, 67, 76
2, 923896, Note_on_c, 0, 76, 67
2, 923896, Note_on_c, 0, 72, 69
2, 923903, Note_off_c, 0, 59, 64
2, 923951, Note_on_c, 0, 60, 75
2, 923956, Note_on_c, 0, 48, 50
2, 923967, Note_off_c, 0, 76, 64
2, 923969, Note_off_c, 0, 64, 64
2, 923971, Note_off_c, 0, 67, 64
2, 923974, Note_off_c, 0, 48, 64
2, 923974, Note_off_c, 0, 72, 64
2, 923976, Note_off_c, 0, 60, 64
2, 923996, Control_c, 0, 64, 0
2, 924018, Note_on_c, 0, 55, 76
2, 924019, Note_on_c, 0, 43, 79
2, 924037, Note_off_c, 0, 43, 64
2, 924039, Note_off_c, 0, 55, 64
2, 924080, Note_on_c, 0, 55, 77
2, 924080, Note_on_c, 0, 43, 78
2, 924097, Control_c, 0, 64, 127
2, 924112, Note_off_c, 0, 43, 64
2, 924113, Note_off_c, 0, 55, 64
2, 924133, Note_on_c, 0, 75, 71
2, 924136, Note_on_c, 0, 69, 72
2, 924136, Note_on_c, 0, 63, 77
2, 924140, Note_on_c, 0, 72, 70
2, 924143, Note_on_c, 0, 54, 87
2, 924146, Note_on_c, 0, 42, 86
2, 924164, Note_off_c, 0, 42, 64
2, 924166, Note_off_c, 0, 54, 64
2, 924183, Note_off_c, 0, 69, 64
2, 924185, Control_c, 0, 64, 0
2, 924193, Note_off_c, 0, 72, 64
2, 924195, Note_off_c, 0, 63, 64
2, 924198, Note_on_c, 0, 43, 77
2, 924200, Note_on_c, 0, 55, 82
2, 924206, Note_off_c, 0, 75, 64
2, 924208, Control_c, 0, 64, 127
2, 924221, Note_off_c, 0, 43, 64
2, 924224, Note_off_c, 0, 55, 64
2, 924242, Control_c, 0, 64, 0
2, 924262, Note_on_c, 0, 46, 84
2, 924265, Note_on_c, 0, 58, 93
2, 924300, Note_off_c, 0, 46, 64
2, 924303, Note_off_c, 0, 58, 64
2, 924307, Control_c, 0, 64, 127
2, 924326, Note_on_c, 0, 45, 75
2, 924329, Note_on_c, 0, 57, 81
2, 924379, Control_c, 0, 64, 0
2, 924383, Note_off_c, 0, 57, 64
2, 924384, Note_off_c, 0, 45, 64
2, 924443, Note_on_c, 0, 55, 82
2, 924448, Note_on_c, 0, 43, 84
2, 924466, Note_off_c, 0, 55, 64
2, 924467, Note_off_c, 0, 43, 64
2, 924481, Note_on_c, 0, 43, 66
2, 924484, Note_on_c, 0, 55, 75
2, 924488, Control_c, 0, 64, 127
2, 924543, Note_on_c, 0, 75, 70
2, 924547, Note_on_c, 0, 69, 69
2, 924548, Note_on_c, 0, 72, 69
2, 924599, Note_on_c, 0, 63, 58
2, 924606, Note_off_c, 0, 55, 64
2, 924609, Note_off_c, 0, 43, 64
2, 924624, Note_off_c, 0, 75, 64
2, 924632, Note_off_c, 0, 63, 64
2, 924671, Note_on_c, 0, 62, 42
2, 924675, Note_on_c, 0, 74, 55
2, 924705, Note_off_c, 0, 62, 64
2, 924718, Note_on_c, 0, 54, 64
2, 924721, Note_on_c, 0, 42, 64
2, 924736, Note_off_c, 0, 74, 64
2, 924736, Note_off_c, 0, 69, 64
2, 924737, Note_off_c, 0, 72, 64
2, 924745, Note_off_c, 0, 42, 64
2, 924746, Note_off_c, 0, 54, 64
2, 924751, Control_c, 0, 64, 0
2, 924784, Note_on_c, 0, 57, 77
2, 924784, Note_on_c, 0, 45, 79
2, 924804, Note_off_c, 0, 45, 64
2, 924808, Note_off_c, 0, 57, 64
2, 924845, Note_on_c, 0, 57, 78
2, 924846, Note_on_c, 0, 45, 79
2, 924882, Control_c, 0, 64, 127
2, 924897, Note_on_c, 0, 78, 70
2, 924901, Note_on_c, 0, 75, 72
2, 924903, Note_on_c, 0, 72, 72
2, 924961, Note_on_c, 0, 66, 65
2, 924970, Note_off_c, 0, 72, 64
2, 924997, Note_off_c, 0, 66, 64
2, 925003, Note_off_c, 0, 78, 64
2, 925026, Note_off_c, 0, 57, 64
2, 925029, Note_on_c, 0, 67, 67
2, 925031, Note_off_c, 0, 45, 64
2, 925031, Note_on_c, 0, 79, 69
2, 925074, Control_c, 0, 64, 0
2, 925092, Note_on_c, 0, 58, 78
2, 925093, Note_on_c, 0, 46, 66
2, 925119, Note_off_c, 0, 46, 64
2, 925119, Note_off_c, 0, 58, 64
2, 925140, Note_off_c, 0, 75, 64
2, 925153, Note_on_c, 0, 55, 72
2, 925154, Note_on_c, 0, 43, 77
2, 925172, Note_off_c, 0, 55, 64
2, 925173, Note_off_c, 0, 67, 64
2, 925177, Note_off_c, 0, 43, 64
2, 925177, Note_off_c, 0, 79, 64
2, 925220, Note_on_c, 0, 58, 92
2, 925220, Note_on_c, 0, 46, 84
2, 925263, Control_c, 0, 64, 127
2, 925279, Note_on_c, 0, 75, 66
2, 925280, Note_on_c, 0, 79, 69
2, 925282, Note_on_c, 0, 72, 65
2, 925334, Note_off_c, 0, 79, 64
2, 925335, Note_on_c, 0, 67, 52
2, 925370, Note_off_c, 0, 67, 64
2, 925406, Note_on_c, 0, 78, 65
2, 925408, Note_on_c, 0, 66, 73
2, 925422, Note_off_c, 0, 46, 64
2, 925424, Note_off_c, 0, 58, 64
2, 925465, Note_on_c, 0, 45, 69
2, 925470, Note_on_c, 0, 57, 69
2, 925488, Note_off_c, 0, 45, 64
2, 925490, Note_off_c, 0, 57, 64
2, 925498, Control_c, 0, 64, 0
2, 925518, Note_off_c, 0, 75, 64
2, 925521, Note_off_c, 0, 72, 64
2, 925531, Note_on_c, 0, 60, 82
2, 925531, Note_on_c, 0, 48, 79
2, 925552, Note_off_c, 0, 78, 64
2, 925554, Note_off_c, 0, 48, 64
2, 925554, Note_off_c, 0, 66, 64
2, 925555, Note_off_c, 0, 60, 64
2, 925593, Note_on_c, 0, 60, 86
2, 925597, Note_on_c, 0, 48, 82
2, 925651, Note_on_c, 0, 78, 66
2, 925652, Note_on_c, 0, 81, 70
2, 925655, Note_on_c, 0, 75, 69
2, 925659, Control_c, 0, 64, 127
2, 925705, Note_off_c, 0, 81, 64
2, 925715, Note_on_c, 0, 69, 69
2, 925721, Note_off_c, 0, 75, 64
2, 925727, Note_off_c, 0, 78, 64
2, 925736, Control_c, 0, 64, 0
2, 925749, Note_off_c, 0, 69, 64
2, 925777, Note_on_c, 0, 82, 77
2, 925781, Note_on_c, 0, 79, 70
2, 925783, Note_on_c, 0, 70, 88
2, 925792, Note_off_c, 0, 48, 64
2, 925806, Note_off_c, 0, 60, 64
2, 925847, Note_on_c, 0, 50, 54
2, 925848, Note_on_c, 0, 62, 77
2, 925876, Note_off_c, 0, 62, 64
2, 925876, Note_off_c, 0, 50, 64
2, 925882, Control_c, 0, 64, 127
2, 925889, Note_off_c, 0, 70, 64
2, 925900, Note_off_c, 0, 79, 64
2, 925915, Note_on_c, 0, 58, 79
2, 925916, Note_on_c, 0, 46, 81
2, 925929, Control_c, 0, 64, 0
2, 925936, Note_off_c, 0, 46, 64
2, 925936, Note_off_c, 0, 58, 64
2, 925971, Note_off_c, 0, 82, 64
2, 925993, Note_on_c, 0, 67, 84
2, 925994, Note_on_c, 0, 55, 77
2, 926005, Control_c, 0, 64, 127
2, 926017, Note_off_c, 0, 67, 64
2, 926020, Note_off_c, 0, 55, 64
2, 926065, Note_on_c, 0, 82, 73
2, 926069, Note_on_c, 0, 63, 90
2, 926071, Note_on_c, 0, 79, 72
2, 926071, Note_on_c, 0, 51, 82
2, 926085, Note_off_c, 0, 51, 64
2, 926088, Note_off_c, 0, 63, 64
2, 926127, Note_on_c, 0, 70, 67
2, 926131, Note_on_c, 0, 50, 78
2, 926136, Note_on_c, 0, 62, 84
2, 926151, Note_off_c, 0, 50, 64
2, 926154, Note_off_c, 0, 62, 64
2, 926154, Control_c, 0, 64, 0
2, 926165, Note_off_c, 0, 79, 64
2, 926194, Note_on_c, 0, 62, 86
2, 926197, Note_on_c, 0, 50, 86
2, 926215, Control_c, 0, 64, 127
2, 926218, Note_off_c, 0, 70, 64
2, 926225, Note_off_c, 0, 82, 64
2, 926261, Note_on_c, 0, 79, 66
2, 926264, Note_on_c, 0, 81, 69
2, 926267, Note_on_c, 0, 76, 72
2, 926270, Note_off_c, 0, 50, 64
2, 926277, Note_off_c, 0, 62, 64
2, 926320, Note_off_c, 0, 76, 64
2, 926324, Note_on_c, 0, 61, 82
2, 926324, Note_on_c, 0, 49, 79
2, 926326, Note_on_c, 0, 69, 50
2, 926331, Note_off_c, 0, 79, 64
2, 926344, Note_off_c, 0, 49, 64
2, 926348, Note_off_c, 0, 61, 64
2, 926351, Control_c, 0, 64, 0
2, 926359, Note_off_c, 0, 69, 64
2, 926391, Note_on_c, 0, 53, 75
2, 926395, Note_on_c, 0, 65, 79
2, 926404, Control_c, 0, 64, 127
2, 926415, Note_off_c, 0, 65, 64
2, 926416, Note_off_c, 0, 53, 64
2, 926424, Note_off_c, 0, 81, 64
2, 926448, Note_on_c, 0, 80, 72
2, 926453, Note_on_c, 0, 77, 69
2, 926461, Note_on_c, 0, 49, 86
2, 926462, Note_on_c, 0, 61, 87
2, 926477, Note_off_c, 0, 49, 64
2, 926481, Note_off_c, 0, 61, 64
2, 926512, Note_on_c, 0, 68, 72
2, 926515, Note_off_c, 0, 77, 64
2, 926519, Note_on_c, 0, 48, 81
2, 926521, Note_on_c, 0, 60, 86
2, 926538, Control_c, 0, 64, 0
2, 926542, Note_off_c, 0, 60, 64
2, 926542, Note_off_c, 0, 48, 64
2, 926585, Note_off_c, 0, 68, 64
2, 926585, Note_on_c, 0, 60, 87
2, 926585, Note_on_c, 0, 48, 87
2, 926608, Note_off_c, 0, 80, 64
2, 926613, Control_c, 0, 64, 127
2, 926649, Note_on_c, 0, 79, 70
2, 926649, Note_on_c, 0, 77, 71
2, 926649, Note_on_c, 0, 74, 72
2, 926670, Note_off_c, 0, 60, 64
2, 926671, Note_off_c, 0, 48, 64
2, 926675, Control_c, 0, 64, 0
2, 926704, Note_off_c, 0, 74, 64
2, 926707, Note_on_c, 0, 67, 52
2, 926713, Note_on_c, 0, 47, 75
2, 926715, Note_on_c, 0, 59, 79
2, 926727, Note_off_c, 0, 77, 64
2, 926735, Note_off_c, 0, 47, 64
2, 926736, Note_off_c, 0, 59, 64
2, 926741, Control_c, 0, 64, 127
2, 926779, Note_on_c, 0, 51, 78
2, 926781, Note_on_c, 0, 63, 90
2, 926798, Note_off_c, 0, 67, 64
2, 926799, Note_off_c, 0, 51, 64
2, 926804, Note_off_c, 0, 63, 64
2, 926809, Note_off_c, 0, 79, 64
2, 926821, Control_c, 0, 64, 0
2, 926841, Note_on_c, 0, 75, 71
2, 926845, Note_on_c, 0, 48, 77
2, 926847, Note_on_c, 0, 60, 79
2, 926848, Note_on_c, 0, 72, 70
2, 926856, Note_on_c, 0, 67, 71
2, 926866, Note_off_c, 0, 48, 64
2, 926869, Note_off_c, 0, 60, 64
2, 926899, Note_on_c, 0, 63, 52
2, 926905, Note_off_c, 0, 67, 64
2, 926908, Note_off_c, 0, 72, 64
2, 926908, Control_c, 0, 64, 127
2, 926913, Note_on_c, 0, 58, 90
2, 926913, Note_on_c, 0, 46, 82
2, 926929, Note_off_c, 0, 46, 64
2, 926930, Note_off_c, 0, 58, 64
2, 926934, Note_off_c, 0, 63, 64
2, 926965, Note_on_c, 0, 57, 77
2, 926965, Note_on_c, 0, 45, 75
2, 926984, Control_c, 0, 64, 0
2, 926988, Note_off_c, 0, 45, 64
2, 926994, Note_off_c, 0, 57, 64
2, 927001, Note_off_c, 0, 75, 64
2, 927020, Note_on_c, 0, 75, 73
2, 927024, Note_on_c, 0, 66, 70
2, 927029, Note_on_c, 0, 72, 63
2, 927029, Note_on_c, 0, 60, 79
2, 927032, Note_on_c, 0, 48, 77
2, 927049, Note_off_c, 0, 48, 64
2, 927049, Note_off_c, 0, 60, 64
2, 927052, Control_c, 0, 64, 127
2, 927076, Note_on_c, 0, 63, 59
2, 927082, Note_off_c, 0, 66, 64
2, 927091, Note_on_c, 0, 56, 93
2, 927091, Note_on_c, 0, 44, 86
2, 927093, Note_off_c, 0, 72, 64
2, 927106, Note_off_c, 0, 44, 64
2, 927110, Note_off_c, 0, 56, 64
2, 927110, Note_off_c, 0, 63, 64
2, 927120, Note_off_c, 0, 75, 64
2, 927131, Control_c, 0, 64, 0
2, 927143, Note_on_c, 0, 75, 70
2, 927147, Note_on_c, 0, 63, 88
2, 927150, Note_on_c, 0, 67, 78
2, 927150, Note_on_c, 0, 55, 82
2, 927150, Note_on_c, 0, 43, 81
2, 927154, Note_on_c, 0, 72, 60
2, 927172, Note_off_c, 0, 55, 64
2, 927173, Note_off_c, 0, 43, 64
2, 927180, Control_c, 0, 64, 127
2, 927183, Note_off_c, 0, 67, 64
2, 927183, Note_off_c, 0, 63, 64
2, 927189, Note_off_c, 0, 72, 64
2, 927190, Note_off_c, 0, 75, 64
2, 927211, Note_on_c, 0, 75, 69
2, 927211, Note_on_c, 0, 72, 71
2, 927211, Note_on_c, 0, 68, 87
2, 927211, Note_on_c, 0, 63, 84
2, 927216, Note_on_c, 0, 54, 93
2, 927217, Note_on_c, 0, 42, 87
2, 927230, Note_off_c, 0, 42, 64
2, 927233, Note_off_c, 0, 54, 64
2, 927246, Note_off_c, 0, 68, 64
2, 927252, Note_off_c, 0, 63, 64
2, 927270, Note_on_c, 0, 41, 81
2, 927271, Note_on_c, 0, 53, 86
2, 927290, Note_off_c, 0, 53, 64
2, 927290, Note_off_c, 0, 41, 64
2, 927301, Control_c, 0, 64, 0
2, 927324, Control_c, 0, 64, 127
2, 927331, Note_on_c, 0, 52, 82
2, 927333, Note_on_c, 0, 40, 79
2, 927347, Control_c, 0, 64, 0
2, 927353, Note_off_c, 0, 40, 64
2, 927353, Note_off_c, 0, 52, 64
2, 927356, Note_off_c, 0, 72, 64
2, 927369, Note_off_c, 0, 75, 64
2, 927392, Note_on_c, 0, 51, 92
2, 927392, Note_on_c, 0, 39, 87
2, 927408, Control_c, 0, 64, 127
2, 927412, Note_off_c, 0, 39, 64
2, 927416, Note_off_c, 0, 51, 64
2, 927447, Control_c, 0, 64, 0
2, 927450, Note_on_c, 0, 50, 81
2, 927451, Note_on_c, 0, 38, 72
2, 927474, Note_off_c, 0, 38, 64
2, 927474, Note_off_c, 0, 50, 64
2, 927519, Note_on_c, 0, 49, 92
2, 927519, Note_on_c, 0, 37, 87
2, 927526, Control_c, 0, 64, 127
2, 927536, Note_off_c, 0, 37, 64
2, 927540, Note_off_c, 0, 49, 64
2, 927588, Note_on_c, 0, 77, 70
2, 927588, Note_on_c, 0, 73, 71
2, 927591, Note_on_c, 0, 68, 70
2, 927591, Note_on_c, 0, 61, 90
2, 927591, Note_on_c, 0, 49, 82
2, 927607, Note_off_c, 0, 49, 64
2, 927611, Note_off_c, 0, 61, 64
2, 927616, Control_c, 0, 64, 0
2, 927649, Note_off_c, 0, 73, 64
2, 927652, Note_on_c, 0, 65, 58
2, 927655, Note_on_c, 0, 61, 90
2, 927658, Note_on_c, 0, 49, 84
2, 927663, Note_off_c, 0, 68, 64
2, 927676, Note_off_c, 0, 49, 64
2, 927678, Note_off_c, 0, 61, 64
2, 927715, Note_on_c, 0, 61, 88
2, 927715, Note_on_c, 0, 49, 82
2, 927723, Note_off_c, 0, 65, 64
2, 927739, Note_off_c, 0, 49, 64
2, 927744, Note_off_c, 0, 61, 64
2, 927748, Note_off_c, 0, 77, 64
2, 927773, Note_on_c, 0, 79, 76
2, 927773, Note_on_c, 0, 75, 84
2, 927775, Note_on_c, 0, 70, 81
2, 927779, Note_on_c, 0, 61, 84
2, 927779, Note_on_c, 0, 49, 77
2, 927786, Control_c, 0, 64, 127
2, 927817, Note_off_c, 0, 49, 64
2, 927829, Note_on_c, 0, 49, 66
2, 927834, Note_on_c, 0, 67, 52
2, 927837, Note_off_c, 0, 70, 64
2, 927844, Note_off_c, 0, 75, 64
2, 927859, Note_off_c, 0, 49, 64
2, 927861, Control_c, 0, 64, 0
2, 927865, Note_off_c, 0, 61, 64
2, 927871, Note_off_c, 0, 67, 64
2, 927889, Note_on_c, 0, 48, 72
2, 927890, Note_on_c, 0, 60, 77
2, 927917, Note_off_c, 0, 60, 64
2, 927918, Note_off_c, 0, 48, 64
2, 927923, Control_c, 0, 64, 127
2, 927933, Note_off_c, 0, 79, 64
2, 927954, Note_on_c, 0, 80, 77
2, 927958, Note_on_c, 0, 58, 88
2, 927960, Note_on_c, 0, 72, 75
2, 927961, Note_on_c, 0, 75, 72
2, 927964, Note_on_c, 0, 46, 79
2, 927975, Note_off_c, 0, 46, 64
2, 927981, Note_off_c, 0, 58, 64
2, 928008, Note_on_c, 0, 68, 71
2, 928014, Note_off_c, 0, 75, 64
2, 928018, Note_on_c, 0, 56, 93
2, 928019, Note_off_c, 0, 72, 64
2, 928019, Note_on_c, 0, 44, 81
2, 928037, Note_off_c, 0, 44, 64
2, 928041, Note_off_c, 0, 56, 64
2, 928055, Control_c, 0, 64, 0
2, 928065, Note_off_c, 0, 68, 64
2, 928075, Note_on_c, 0, 43, 73
2, 928077, Note_on_c, 0, 55, 79
2, 928090, Control_c, 0, 64, 127
2, 928098, Note_off_c, 0, 43, 64
2, 928100, Note_off_c, 0, 55, 64
2, 928102, Control_c, 0, 64, 0
2, 928114, Note_off_c, 0, 80, 64
2, 928136, Note_on_c, 0, 75, 75
2, 928136, Note_on_c, 0, 72, 73
2, 928139, Note_on_c, 0, 68, 75
2, 928139, Note_on_c, 0, 41, 78
2, 928142, Note_on_c, 0, 53, 81
2, 928162, Note_off_c, 0, 53, 64
2, 928162, Note_off_c, 0, 41, 64
2, 928196, Note_on_c, 0, 51, 90
2, 928198, Note_on_c, 0, 63, 57
2, 928202, Note_on_c, 0, 39, 82
2, 928206, Note_off_c, 0, 68, 64
2, 928206, Note_off_c, 0, 72, 64
2, 928218, Note_off_c, 0, 39, 64
2, 928223, Note_off_c, 0, 51, 64
2, 928259, Note_on_c, 0, 49, 86
2, 928259, Note_on_c, 0, 37, 82
2, 928269, Control_c, 0, 64, 127
2, 928278, Note_off_c, 0, 37, 64
2, 928282, Note_off_c, 0, 49, 64
2, 928289, Note_off_c, 0, 63, 64
2, 928296, Note_off_c, 0, 75, 64
2, 928316, Note_on_c, 0, 77, 72
2, 928319, Note_on_c, 0, 73, 76
2, 928320, Note_on_c, 0, 68, 77
2, 928322, Note_on_c, 0, 49, 78
2, 928325, Note_on_c, 0, 61, 88
2, 928348, Note_off_c, 0, 61, 64
2, 928348, Note_off_c, 0, 49, 64
2, 928354, Control_c, 0, 64, 0
2, 928380, Note_on_c, 0, 65, 57
2, 928385, Note_on_c, 0, 61, 82
2, 928385, Note_on_c, 0, 49, 81
2, 928389, Note_off_c, 0, 68, 64
2, 928391, Note_off_c, 0, 73, 64
2, 928408, Note_off_c, 0, 49, 64
2, 928410, Note_off_c, 0, 61, 64
2, 928443, Note_on_c, 0, 61, 87
2, 928448, Note_on_c, 0, 49, 79
2, 928464, Note_off_c, 0, 65, 64
2, 928469, Control_c, 0, 64, 127
2, 928472, Note_off_c, 0, 49, 64
2, 928476, Note_off_c, 0, 77, 64
2, 928477, Note_off_c, 0, 61, 64
2, 928481, Control_c, 0, 64, 0
2, 928491, Control_c, 0, 64, 127
2, 928500, Note_on_c, 0, 79, 73
2, 928501, Note_on_c, 0, 75, 77
2, 928503, Note_on_c, 0, 70, 79
2, 928509, Note_on_c, 0, 61, 86
2, 928510, Note_on_c, 0, 49, 78
2, 928542, Note_off_c, 0, 49, 64
2, 928544, Note_off_c, 0, 61, 64
2, 928558, Note_on_c, 0, 67, 52
2, 928558, Note_on_c, 0, 49, 72
2, 928562, Note_on_c, 0, 61, 71
2, 928570, Note_off_c, 0, 70, 64
2, 928577, Note_off_c, 0, 75, 64
2, 928578, Control_c, 0, 64, 0
2, 928589, Note_off_c, 0, 49, 64
2, 928600, Note_off_c, 0, 67, 64
2, 928603, Note_off_c, 0, 61, 64
2, 928618, Note_on_c, 0, 60, 77
2, 928620, Note_on_c, 0, 48, 75
2, 928639, Control_c, 0, 64, 127
2, 928649, Note_off_c, 0, 60, 64
2, 928651, Note_off_c, 0, 48, 64
2, 928658, Control_c, 0, 64, 0
2, 928660, Note_off_c, 0, 79, 64
2, 928680, Note_on_c, 0, 80, 77
2, 928681, Note_on_c, 0, 72, 73
2, 928685, Note_on_c, 0, 75, 70
2, 928688, Note_on_c, 0, 58, 88
2, 928689, Control_c, 0, 64, 127
2, 928694, Note_on_c, 0, 46, 86
2, 928708, Note_off_c, 0, 46, 64
2, 928709, Note_off_c, 0, 58, 64
2, 928732, Note_on_c, 0, 68, 70
2, 928742, Note_off_c, 0, 72, 64
2, 928745, Note_on_c, 0, 56, 92
2, 928746, Note_on_c, 0, 44, 79
2, 928748, Note_off_c, 0, 75, 64
2, 928765, Note_off_c, 0, 44, 64
2, 928768, Note_off_c, 0, 56, 64
2, 928770, Control_c, 0, 64, 0
2, 928792, Note_off_c, 0, 68, 64
2, 928803, Note_on_c, 0, 55, 77
2, 928803, Note_on_c, 0, 43, 72
2, 928825, Note_off_c, 0, 43, 64
2, 928826, Note_off_c, 0, 55, 64
2, 928840, Note_off_c, 0, 80, 64
2, 928856, Note_on_c, 0, 79, 75
2, 928856, Note_on_c, 0, 75, 73
2, 928861, Note_on_c, 0, 72, 75
2, 928861, Note_on_c, 0, 53, 79
2, 928866, Note_on_c, 0, 41, 77
2, 928882, Note_off_c, 0, 53, 64
2, 928883, Note_off_c, 0, 41, 64
2, 928885, Control_c, 0, 64, 127
2, 928916, Note_on_c, 0, 67, 58
2, 928921, Note_on_c, 0, 51, 92
2, 928925, Note_on_c, 0, 39, 86
2, 928931, Note_off_c, 0, 72, 64
2, 928935, Note_off_c, 0, 75, 64
2, 928945, Note_off_c, 0, 39, 64
2, 928949, Note_off_c, 0, 51, 64
2, 928957, Control_c, 0, 64, 0
2, 928981, Note_on_c, 0, 50, 75
2, 928984, Note_on_c, 0, 38, 76
2, 928998, Note_off_c, 0, 38, 64
2, 929005, Note_off_c, 0, 50, 64
2, 929010, Note_off_c, 0, 67, 64
2, 929013, Control_c, 0, 64, 127
2, 929016, Note_off_c, 0, 79, 64
2, 929040, Note_on_c, 0, 77, 75
2, 929040, Note_on_c, 0, 74, 77
2, 929040, Note_on_c, 0, 68, 82
2, 929047, Note_on_c, 0, 48, 82
2, 929048, Note_on_c, 0, 60, 79
2, 929071, Note_off_c, 0, 60, 64
2, 929071, Note_off_c, 0, 48, 64
2, 929086, Control_c, 0, 64, 0
2, 929101, Note_on_c, 0, 65, 46
2, 929105, Note_on_c, 0, 60, 79
2, 929107, Note_on_c, 0, 48, 79
2, 929119, Note_off_c, 0, 68, 64
2, 929123, Note_off_c, 0, 74, 64
2, 929129, Note_off_c, 0, 48, 64
2, 929129, Note_off_c, 0, 60, 64
2, 929162, Note_on_c, 0, 60, 81
2, 929164, Note_on_c, 0, 48, 81
2, 929168, Note_off_c, 0, 65, 64
2, 929187, Note_off_c, 0, 48, 64
2, 929190, Note_off_c, 0, 60, 64
2, 929200, Note_off_c, 0, 77, 64
2, 929218, Note_on_c, 0, 78, 77
2, 929222, Note_on_c, 0, 69, 84
2, 929224, Note_on_c, 0, 74, 71
2, 929224, Note_on_c, 0, 60, 77
2, 929225, Note_on_c, 0, 48, 79
2, 929233, Control_c, 0, 64, 127
2, 929256, Note_off_c, 0, 48, 64
2, 929257, Note_off_c, 0, 60, 64
2, 929258, Control_c, 0, 64, 0
2, 929276, Note_on_c, 0, 48, 66
2, 929279, Note_on_c, 0, 60, 70
2, 929281, Note_on_c, 0, 66, 63
2, 929289, Note_off_c, 0, 69, 64
2, 929294, Note_off_c, 0, 74, 64
2, 929294, Control_c, 0, 64, 127
2, 929308, Note_off_c, 0, 48, 64
2, 929309, Note_off_c, 0, 60, 64
2, 929314, Control_c, 0, 64, 0
2, 929342, Note_on_c, 0, 58, 92
2, 929345, Note_on_c, 0, 46, 86
2, 929347, Control_c, 0, 64, 127
2, 929365, Note_off_c, 0, 46, 64
2, 929365, Note_off_c, 0, 66, 64
2, 929372, Note_off_c, 0, 58, 64
2, 929378, Note_off_c, 0, 78, 64
2, 929400, Note_on_c, 0, 70, 72
2, 929400, Control_c, 0, 64, 0
2, 929406, Note_on_c, 0, 79, 75
2, 929406, Note_on_c, 0, 74, 72
2, 929406, Note_on_c, 0, 45, 76
2, 929407, Note_on_c, 0, 57, 86
2, 929425, Note_off_c, 0, 57, 64
2, 929427, Note_off_c, 0, 45, 64
2, 929458, Note_on_c, 0, 67, 60
2, 929460, Note_off_c, 0, 74, 64
2, 929465, Note_on_c, 0, 55, 77
2, 929469, Note_on_c, 0, 43, 75
2, 929472, Note_off_c, 0, 70, 64
2, 929484, Note_off_c, 0, 43, 64
2, 929487, Note_off_c, 0, 55, 64
2, 929497, Note_off_c, 0, 67, 64
2, 929530, Note_on_c, 0, 51, 93
2, 929532, Note_on_c, 0, 39, 88
2, 929532, Control_c, 0, 64, 127
2, 929550, Note_off_c, 0, 39, 64
2, 929555, Note_off_c, 0, 51, 64
2, 929566, Note_off_c, 0, 79, 64
2, 929587, Note_on_c, 0, 50, 82
2, 929589, Note_on_c, 0, 38, 75
2, 929593, Note_on_c, 0, 72, 75
2, 929593, Note_on_c, 0, 69, 77
2, 929596, Note_on_c, 0, 67, 73
2, 929601, Control_c, 0, 64, 0
2, 929612, Note_off_c, 0, 38, 64
2, 929612, Note_off_c, 0, 50, 64
2, 929646, Note_on_c, 0, 60, 31
2, 929649, Note_off_c, 0, 69, 64
2, 929649, Note_on_c, 0, 48, 84
2, 929651, Note_on_c, 0, 36, 64
2, 929654, Note_off_c, 0, 67, 64
2, 929667, Note_off_c, 0, 36, 64
2, 929670, Note_off_c, 0, 48, 64
2, 929674, Note_off_c, 0, 60, 64
2, 929725, Note_on_c, 0, 34, 87
2, 929730, Note_on_c, 0, 46, 93
2, 929753, Note_off_c, 0, 72, 64
2, 929792, Note_on_c, 0, 70, 69
2, 929796, Note_on_c, 0, 74, 72
2, 929796, Note_on_c, 0, 67, 69
2, 929842, Note_on_c, 0, 62, 60
2, 929856, Note_off_c, 0, 34, 64
2, 929861, Note_off_c, 0, 67, 64
2, 929870, Note_off_c, 0, 46, 64
2, 929876, Note_off_c, 0, 70, 64
2, 929891, Note_off_c, 0, 62, 64
2, 929914, Note_on_c, 0, 51, 94
2, 929919, Note_on_c, 0, 39, 88
2, 929937, Control_c, 0, 64, 127
2, 929956, Note_off_c, 0, 74, 64
2, 929984, Note_on_c, 0, 63, 71
2, 929986, Note_on_c, 0, 67, 70
2, 929986, Note_on_c, 0, 58, 72
2, 930019, Note_off_c, 0, 51, 64
2, 930028, Note_off_c, 0, 39, 64
2, 930047, Note_on_c, 0, 55, 51
2, 930064, Note_off_c, 0, 58, 64
2, 930065, Note_off_c, 0, 63, 64
2, 930085, Control_c, 0, 64, 0
2, 930097, Note_off_c, 0, 55, 64
2, 930112, Note_on_c, 0, 45, 86
2, 930112, Note_on_c, 0, 33, 81
2, 930140, Control_c, 0, 64, 127
2, 930146, Note_off_c, 0, 67, 64
2, 930174, Note_on_c, 0, 67, 77
2, 930177, Note_on_c, 0, 72, 66
2, 930179, Note_on_c, 0, 63, 75
2, 930221, Control_c, 0, 64, 0
2, 930225, Note_off_c, 0, 63, 64
2, 930230, Note_off_c, 0, 33, 64
2, 930236, Note_off_c, 0, 45, 64
2, 930238, Note_on_c, 0, 60, 66
2, 930249, Note_off_c, 0, 67, 64
2, 930274, Note_off_c, 0, 60, 64
2, 930310, Note_on_c, 0, 38, 75
2, 930316, Note_on_c, 0, 50, 82
2, 930326, Control_c, 0, 64, 127
2, 930337, Note_off_c, 0, 72, 64
2, 930376, Note_on_c, 0, 70, 76
2, 930379, Note_on_c, 0, 66, 81
2, 930405, Note_off_c, 0, 50, 64
2, 930432, Note_on_c, 0, 60, 77
2, 930433, Control_c, 0, 64, 0
2, 930440, Note_on_c, 0, 69, 69
2, 930454, Note_off_c, 0, 70, 64
2, 930456, Note_off_c, 0, 38, 64
2, 930466, Note_off_c, 0, 66, 64
2, 930478, Note_off_c, 0, 60, 64
2, 930486, Note_off_c, 0, 69, 64
2, 930538, Note_on_c, 0, 49, 93
2, 930539, Note_on_c, 0, 37, 93
2, 930553, Control_c, 0, 64, 127
2, 930560, Note_off_c, 0, 37, 64
2, 930569, Note_off_c, 0, 49, 64
2, 930605, Note_on_c, 0, 68, 62
2, 930609, Note_on_c, 0, 73, 71
2, 930610, Note_on_c, 0, 77, 72
2, 930613, Note_on_c, 0, 61, 93
2, 930616, Note_on_c, 0, 49, 79
2, 930632, Note_off_c, 0, 49, 64
2, 930634, Note_off_c, 0, 61, 64
2, 930659, Note_on_c, 0, 65, 38
2, 930675, Note_on_c, 0, 61, 87
2, 930676, Note_off_c, 0, 68, 64
2, 930679, Note_on_c, 0, 49, 84
2, 930683, Note_off_c, 0, 73, 64
2, 930698, Note_off_c, 0, 49, 64
2, 930699, Note_off_c, 0, 61, 64
2, 930704, Control_c, 0, 64, 0
2, 930731, Note_on_c, 0, 61, 88
2, 930735, Note_on_c, 0, 49, 84
2, 930758, Note_off_c, 0, 49, 64
2, 930761, Note_off_c, 0, 65, 64
2, 930763, Note_off_c, 0, 61, 64
2, 930770, Note_off_c, 0, 77, 64
2, 930783, Note_on_c, 0, 79, 75
2, 930785, Note_on_c, 0, 75, 81
2, 930788, Note_on_c, 0, 70, 82
2, 930793, Note_on_c, 0, 61, 87
2, 930797, Note_on_c, 0, 49, 81
2, 930808, Control_c, 0, 64, 127
2, 930822, Note_off_c, 0, 49, 64
2, 930825, Note_off_c, 0, 61, 64
2, 930841, Note_on_c, 0, 67, 64
2, 930849, Note_on_c, 0, 49, 75
2, 930850, Note_on_c, 0, 61, 84
2, 930858, Note_off_c, 0, 70, 64
2, 930878, Note_off_c, 0, 49, 64
2, 930880, Note_off_c, 0, 75, 64
2, 930887, Control_c, 0, 64, 0
2, 930893, Note_off_c, 0, 61, 64
2, 930896, Note_off_c, 0, 67, 64
2, 930906, Note_on_c, 0, 60, 82
2, 930907, Note_on_c, 0, 48, 77
2, 930935, Note_off_c, 0, 60, 64
2, 930940, Note_off_c, 0, 48, 64
2, 930943, Note_off_c, 0, 79, 64
2, 930949, Control_c, 0, 64, 127
2, 930958, Note_on_c, 0, 80, 75
2, 930962, Note_on_c, 0, 72, 75
2, 930964, Note_on_c, 0, 75, 73
2, 930971, Note_on_c, 0, 58, 92
2, 930972, Note_on_c, 0, 46, 84
2, 930990, Note_off_c, 0, 46, 64
2, 930993, Note_off_c, 0, 58, 64
2, 931013, Note_on_c, 0, 68, 63
2, 931025, Note_on_c, 0, 56, 93
2, 931027, Note_on_c, 0, 44, 79
2, 931030, Note_off_c, 0, 72, 64
2, 931037, Note_off_c, 0, 75, 64
2, 931048, Note_off_c, 0, 44, 64
2, 931049, Note_off_c, 0, 56, 64
2, 931061, Control_c, 0, 64, 0
2, 931065, Note_off_c, 0, 68, 64
2, 931080, Note_on_c, 0, 55, 77
2, 931080, Note_on_c, 0, 43, 75
2, 931101, Note_off_c, 0, 55, 64
2, 931103, Note_off_c, 0, 43, 64
2, 931118, Note_off_c, 0, 80, 64
2, 931130, Note_on_c, 0, 68, 72
2, 931132, Note_on_c, 0, 75, 75
2, 931135, Note_on_c, 0, 72, 75
2, 931138, Note_on_c, 0, 53, 84
2, 931138, Note_on_c, 0, 41, 79
2, 931157, Note_off_c, 0, 41, 64
2, 931157, Control_c, 0, 64, 127
2, 931161, Note_off_c, 0, 53, 64
2, 931187, Note_off_c, 0, 68, 64
2, 931190, Note_on_c, 0, 63, 60
2, 931194, Note_on_c, 0, 51, 90
2, 931196, Note_on_c, 0, 39, 84
2, 931201, Note_off_c, 0, 72, 64
2, 931214, Note_off_c, 0, 39, 64
2, 931218, Note_off_c, 0, 51, 64
2, 931220, Control_c, 0, 64, 0
2, 931247, Note_on_c, 0, 49, 88
2, 931251, Note_on_c, 0, 37, 84
2, 931267, Control_c, 0, 64, 127
2, 931271, Note_off_c, 0, 37, 64
2, 931277, Note_off_c, 0, 49, 64
2, 931292, Note_off_c, 0, 75, 64
2, 931296, Note_off_c, 0, 63, 64
2, 931304, Note_on_c, 0, 77, 72
2, 931306, Note_on_c, 0, 73, 77
2, 931309, Note_on_c, 0, 68, 77
2, 931311, Note_on_c, 0, 49, 79
2, 931313, Note_on_c, 0, 61, 90
2, 931333, Note_off_c, 0, 49, 64
2, 931336, Note_off_c, 0, 61, 64
2, 931362, Note_on_c, 0, 65, 62
2, 931369, Note_on_c, 0, 61, 87
2, 931373, Note_on_c, 0, 49, 79
2, 931381, Note_off_c, 0, 68, 64
2, 931385, Note_off_c, 0, 73, 64
2, 931392, Note_off_c, 0, 49, 64
2, 931394, Note_off_c, 0, 61, 64
2, 931403, Control_c, 0, 64, 0
2, 931426, Note_on_c, 0, 61, 88
2, 931427, Note_on_c, 0, 49, 82
2, 931450, Note_off_c, 0, 49, 64
2, 931454, Note_off_c, 0, 61, 64
2, 931456, Note_off_c, 0, 65, 64
2, 931464, Note_off_c, 0, 77, 64
2, 931478, Note_on_c, 0, 79, 76
2, 931479, Note_on_c, 0, 70, 77
2, 931483, Note_on_c, 0, 75, 82
2, 931486, Note_on_c, 0, 61, 90
2, 931487, Note_on_c, 0, 49, 81
2, 931498, Control_c, 0, 64, 127
2, 931512, Note_off_c, 0, 49, 64
2, 931513, Note_off_c, 0, 61, 64
2, 931534, Note_on_c, 0, 67, 67
2, 931540, Note_on_c, 0, 61, 82
2, 931540, Note_on_c, 0, 49, 75
2, 931554, Note_off_c, 0, 70, 64
2, 931571, Note_off_c, 0, 49, 64
2, 931573, Note_off_c, 0, 75, 64
2, 931579, Note_off_c, 0, 61, 64
2, 931586, Control_c, 0, 64, 0
2, 931589, Note_off_c, 0, 67, 64
2, 931597, Note_on_c, 0, 60, 81
2, 931599, Note_on_c, 0, 48, 81
2, 931625, Note_off_c, 0, 60, 64
2, 931626, Note_off_c, 0, 48, 64
2, 931638, Note_off_c, 0, 79, 64
2, 931649, Note_on_c, 0, 80, 75
2, 931652, Note_on_c, 0, 72, 75
2, 931654, Note_on_c, 0, 75, 70
2, 931657, Note_on_c, 0, 46, 75
2, 931660, Note_on_c, 0, 58, 78
2, 931671, Note_off_c, 0, 46, 64
2, 931682, Note_off_c, 0, 58, 64
2, 931686, Control_c, 0, 64, 127
2, 931701, Note_on_c, 0, 68, 66
2, 931712, Note_on_c, 0, 44, 90
2, 931714, Note_on_c, 0, 56, 94
2, 931720, Note_off_c, 0, 72, 64
2, 931726, Note_off_c, 0, 75, 64
2, 931727, Note_off_c, 0, 44, 64
2, 931738, Note_off_c, 0, 56, 64
2, 931760, Note_on_c, 0, 43, 53
2, 931767, Note_on_c, 0, 55, 79
2, 931768, Note_off_c, 0, 43, 64
2, 931772, Note_off_c, 0, 68, 64
2, 931785, Note_off_c, 0, 55, 64
2, 931802, Control_c, 0, 64, 0
2, 931809, Note_off_c, 0, 80, 64
2, 931823, Note_on_c, 0, 53, 77
2, 931823, Note_on_c, 0, 41, 67
2, 931824, Note_on_c, 0, 79, 75
2, 931828, Note_on_c, 0, 75, 82
2, 931832, Note_on_c, 0, 72, 81
2, 931844, Note_off_c, 0, 53, 64
2, 931846, Note_off_c, 0, 41, 64
2, 931880, Note_on_c, 0, 39, 87
2, 931884, Note_on_c, 0, 67, 52
2, 931886, Note_on_c, 0, 51, 93
2, 931893, Note_off_c, 0, 39, 64
2, 931895, Control_c, 0, 64, 127
2, 931899, Note_off_c, 0, 72, 64
2, 931906, Note_off_c, 0, 75, 64
2, 931908, Note_off_c, 0, 51, 64
2, 931915, Control_c, 0, 64, 0
2, 931936, Note_on_c, 0, 50, 87
2, 931938, Note_on_c, 0, 38, 82
2, 931960, Note_off_c, 0, 50, 64
2, 931962, Note_off_c, 0, 38, 64
2, 931962, Control_c, 0, 64, 127
2, 931979, Note_off_c, 0, 67, 64
2, 931984, Note_off_c, 0, 79, 64
2, 931997, Note_on_c, 0, 77, 75
2, 931997, Note_on_c, 0, 68, 77
2, 932000, Note_on_c, 0, 74, 73
2, 932004, Note_on_c, 0, 48, 82
2, 932008, Note_on_c, 0, 60, 84
2, 932024, Note_off_c, 0, 60, 64
2, 932024, Note_off_c, 0, 48, 64
2, 932051, Note_on_c, 0, 65, 59
2, 932055, Note_on_c, 0, 60, 78
2, 932059, Note_on_c, 0, 48, 79
2, 932061, Note_off_c, 0, 68, 64
2, 932074, Note_off_c, 0, 74, 64
2, 932079, Note_off_c, 0, 48, 64
2, 932080, Note_off_c, 0, 60, 64
2, 932086, Control_c, 0, 64, 0
2, 932103, Note_off_c, 0, 65, 64
2, 932107, Note_on_c, 0, 60, 78
2, 932109, Note_on_c, 0, 48, 81
2, 932135, Note_off_c, 0, 48, 64
2, 932135, Note_off_c, 0, 60, 64
2, 932154, Note_on_c, 0, 78, 75
2, 932156, Note_on_c, 0, 69, 75
2, 932157, Note_off_c, 0, 77, 64
2, 932159, Note_on_c, 0, 74, 72
2, 932165, Note_on_c, 0, 60, 81
2, 932171, Note_on_c, 0, 48, 81
2, 932178, Control_c, 0, 64, 127
2, 932189, Note_off_c, 0, 48, 64
2, 932191, Note_off_c, 0, 60, 64
2, 932198, Control_c, 0, 64, 0
2, 932210, Note_on_c, 0, 66, 60
2, 932219, Note_off_c, 0, 74, 64
2, 932221, Note_off_c, 0, 69, 64
2, 932221, Note_on_c, 0, 60, 79
2, 932221, Note_on_c, 0, 48, 78
2, 932248, Note_off_c, 0, 48, 64
2, 932249, Note_off_c, 0, 60, 64
2, 932256, Control_c, 0, 64, 127
2, 932263, Note_off_c, 0, 66, 64
2, 932276, Note_on_c, 0, 58, 93
2, 932278, Note_on_c, 0, 46, 88
2, 932303, Note_off_c, 0, 58, 64
2, 932305, Note_off_c, 0, 46, 64
2, 932314, Note_off_c, 0, 78, 64
2, 932327, Note_on_c, 0, 70, 72
2, 932329, Note_on_c, 0, 79, 73
2, 932332, Note_on_c, 0, 74, 75
2, 932335, Note_on_c, 0, 57, 86
2, 932335, Note_on_c, 0, 45, 77
2, 932351, Control_c, 0, 64, 0
2, 932358, Note_off_c, 0, 57, 64
2, 932359, Note_off_c, 0, 45, 64
2, 932376, Note_on_c, 0, 67, 51
2, 932380, Note_off_c, 0, 74, 64
2, 932384, Note_on_c, 0, 55, 78
2, 932385, Note_off_c, 0, 70, 64
2, 932390, Note_on_c, 0, 43, 75
2, 932402, Note_off_c, 0, 55, 64
2, 932414, Note_off_c, 0, 43, 64
2, 932414, Note_off_c, 0, 67, 64
2, 932449, Note_on_c, 0, 51, 94
2, 932452, Note_on_c, 0, 39, 88
2, 932456, Control_c, 0, 64, 127
2, 932472, Note_off_c, 0, 39, 64
2, 932476, Note_off_c, 0, 51, 64
2, 932489, Note_off_c, 0, 79, 64
2, 932500, Note_on_c, 0, 50, 82
2, 932500, Note_on_c, 0, 38, 77
2, 932502, Note_on_c, 0, 69, 70
2, 932506, Note_on_c, 0, 72, 73
2, 932506, Note_on_c, 0, 67, 69
2, 932520, Control_c, 0, 64, 0
2, 932527, Note_off_c, 0, 50, 64
2, 932530, Note_off_c, 0, 38, 64
2, 932551, Note_on_c, 0, 60, 55
2, 932560, Note_on_c, 0, 48, 90
2, 932560, Note_on_c, 0, 36, 60
2, 932563, Note_off_c, 0, 69, 64
2, 932567, Note_off_c, 0, 67, 64
2, 932570, Control_c, 0, 64, 127
2, 932575, Note_off_c, 0, 36, 64
2, 932577, Note_off_c, 0, 48, 64
2, 932600, Control_c, 0, 64, 0
2, 932604, Note_off_c, 0, 60, 64
2, 932627, Note_on_c, 0, 46, 95
2, 932627, Note_on_c, 0, 34, 90
2, 932662, Control_c, 0, 64, 127
2, 932666, Note_off_c, 0, 72, 64
2, 932687, Note_on_c, 0, 70, 72
2, 932689, Note_on_c, 0, 74, 72
2, 932689, Note_on_c, 0, 67, 69
2, 932728, Control_c, 0, 64, 0
2, 932740, Note_off_c, 0, 34, 64
2, 932745, Note_on_c, 0, 62, 58
2, 932758, Note_off_c, 0, 67, 64
2, 932760, Note_off_c, 0, 46, 64
2, 932766, Note_off_c, 0, 70, 64
2, 932793, Note_off_c, 0, 62, 64
2, 932803, Note_on_c, 0, 51, 92
2, 932807, Note_on_c, 0, 39, 88
2, 932817, Control_c, 0, 64, 127
2, 932849, Note_off_c, 0, 74, 64
2, 932863, Note_on_c, 0, 63, 69
2, 932867, Note_on_c, 0, 60, 70
2, 932868, Note_on_c, 0, 67, 70
2, 932905, Note_off_c, 0, 51, 64
2, 932919, Note_off_c, 0, 39, 64
2, 932920, Note_on_c, 0, 55, 54
2, 932934, Note_off_c, 0, 60, 64
2, 932935, Note_off_c, 0, 63, 64
2, 932937, Control_c, 0, 64, 0
2, 932963, Note_off_c, 0, 55, 64
2, 932981, Note_on_c, 0, 45, 79
2, 932986, Note_on_c, 0, 33, 75
2, 933003, Control_c, 0, 64, 127
2, 933028, Note_off_c, 0, 67, 64
2, 933028, Note_on_c, 0, 63, 66
2, 933032, Note_on_c, 0, 72, 69
2, 933034, Note_on_c, 0, 67, 69
2, 933063, Control_c, 0, 64, 0
2, 933085, Note_off_c, 0, 33, 64
2, 933087, Note_on_c, 0, 60, 64
2, 933091, Note_off_c, 0, 45, 64
2, 933099, Note_off_c, 0, 63, 64
2, 933119, Note_off_c, 0, 60, 64
2, 933120, Note_off_c, 0, 67, 64
2, 933150, Note_on_c, 0, 50, 86
2, 933152, Note_on_c, 0, 38, 86
2, 933161, Control_c, 0, 64, 127
2, 933192, Note_off_c, 0, 72, 64
2, 933200, Note_on_c, 0, 70, 67
2, 933203, Note_on_c, 0, 66, 72
2, 933237, Note_off_c, 0, 50, 64
2, 933247, Control_c, 0, 64, 0
2, 933256, Note_off_c, 0, 38, 64
2, 933264, Note_on_c, 0, 69, 69
2, 933268, Note_off_c, 0, 70, 64
2, 933268, Note_on_c, 0, 60, 63
2, 933276, Note_off_c, 0, 66, 64
2, 933293, Note_off_c, 0, 60, 64
2, 933308, Note_off_c, 0, 69, 64
2, 933322, Note_on_c, 0, 46, 93
2, 933327, Note_on_c, 0, 34, 92
2, 933341, Control_c, 0, 64, 127
2, 933378, Note_on_c, 0, 74, 69
2, 933381, Note_on_c, 0, 70, 66
2, 933384, Note_on_c, 0, 67, 67
2, 933408, Control_c, 0, 64, 0
2, 933425, Note_off_c, 0, 34, 64
2, 933427, Note_off_c, 0, 70, 64
2, 933430, Note_on_c, 0, 62, 59
2, 933446, Note_off_c, 0, 67, 64
2, 933450, Note_off_c, 0, 46, 64
2, 933474, Note_off_c, 0, 62, 64
2, 933494, Note_on_c, 0, 51, 92
2, 933498, Note_on_c, 0, 39, 84
2, 933510, Control_c, 0, 64, 127
2, 933538, Note_off_c, 0, 74, 64
2, 933549, Note_on_c, 0, 63, 59
2, 933553, Note_on_c, 0, 67, 48
2, 933554, Note_on_c, 0, 58, 64
2, 933578, Note_off_c, 0, 39, 64
2, 933591, Note_off_c, 0, 58, 64
2, 933595, Control_c, 0, 64, 0
2, 933606, Note_off_c, 0, 63, 64
2, 933616, Note_on_c, 0, 55, 64
2, 933629, Note_off_c, 0, 51, 64
2, 933666, Note_off_c, 0, 55, 64
2, 933667, Note_on_c, 0, 45, 86
2, 933669, Note_on_c, 0, 33, 81
2, 933690, Control_c, 0, 64, 127
2, 933713, Note_off_c, 0, 67, 64
2, 933720, Note_on_c, 0, 63, 69
2, 933725, Note_on_c, 0, 72, 75
2, 933725, Note_on_c, 0, 67, 66
2, 933775, Control_c, 0, 64, 0
2, 933776, Note_on_c, 0, 60, 60
2, 933787, Note_off_c, 0, 45, 64
2, 933790, Note_on_c, 0, 66, 64
2, 933791, Note_off_c, 0, 63, 64
2, 933796, Note_off_c, 0, 33, 64
2, 933809, Note_off_c, 0, 67, 64
2, 933814, Note_off_c, 0, 60, 64
2, 933828, Note_off_c, 0, 66, 64
2, 933856, Note_on_c, 0, 34, 72
2, 933857, Note_on_c, 0, 46, 93
2, 933876, Control_c, 0, 64, 127
2, 933885, Note_off_c, 0, 72, 64
2, 933899, Note_off_c, 0, 34, 64
2, 933904, Note_off_c, 0, 46, 64
2, 933920, Note_on_c, 0, 67, 60
2, 933920, Note_on_c, 0, 63, 60
2, 933922, Note_on_c, 0, 45, 84
2, 933927, Note_on_c, 0, 33, 79
2, 933928, Note_on_c, 0, 58, 60
2, 933968, Note_on_c, 0, 55, 60
2, 933986, Note_off_c, 0, 33, 64
2, 933989, Note_off_c, 0, 45, 64
2, 934000, Note_off_c, 0, 55, 64
2, 934002, Control_c, 0, 64, 0
2, 934004, Note_off_c, 0, 63, 64
2, 934012, Note_off_c, 0, 58, 64
2, 934028, Note_on_c, 0, 43, 82
2, 934032, Note_on_c, 0, 31, 84
2, 934051, Note_off_c, 0, 31, 64
2, 934054, Note_off_c, 0, 43, 64
2, 934072, Note_on_c, 0, 43, 78
2, 934074, Note_on_c, 0, 31, 79
2, 934080, Note_off_c, 0, 67, 64
2, 934090, Control_c, 0, 64, 127
2, 934128, Note_on_c, 0, 63, 69
2, 934132, Note_on_c, 0, 60, 69
2, 934133, Note_on_c, 0, 57, 69
2, 934178, Note_on_c, 0, 51, 73
2, 934182, Note_off_c, 0, 43, 64
2, 934192, Note_off_c, 0, 31, 64
2, 934196, Note_off_c, 0, 63, 64
2, 934220, Note_off_c, 0, 51, 64
2, 934239, Note_on_c, 0, 50, 64
2, 934245, Note_on_c, 0, 62, 64
2, 934267, Control_c, 0, 64, 0
2, 934278, Note_off_c, 0, 50, 64
2, 934287, Note_on_c, 0, 42, 73
2, 934287, Note_on_c, 0, 30, 67
2, 934302, Note_off_c, 0, 60, 64
2, 934303, Note_off_c, 0, 57, 64
2, 934310, Note_off_c, 0, 30, 64
2, 934311, Note_off_c, 0, 42, 64
2, 934321, Note_off_c, 0, 62, 64
2, 934353, Note_on_c, 0, 45, 84
2, 934357, Note_on_c, 0, 33, 79
2, 934376, Note_off_c, 0, 33, 64
2, 934376, Note_off_c, 0, 45, 64
2, 934405, Note_on_c, 0, 45, 81
2, 934407, Note_on_c, 0, 33, 78
2, 934427, Control_c, 0, 64, 127
2, 934449, Note_on_c, 0, 66, 65
2, 934453, Note_on_c, 0, 63, 66
2, 934453, Note_on_c, 0, 60, 69
2, 934504, Note_on_c, 0, 54, 76
2, 934513, Note_off_c, 0, 60, 64
2, 934518, Note_off_c, 0, 33, 64
2, 934522, Note_off_c, 0, 45, 64
2, 934536, Note_off_c, 0, 66, 64
2, 934537, Note_off_c, 0, 54, 64
2, 934564, Note_on_c, 0, 67, 72
2, 934569, Note_on_c, 0, 55, 72
2, 934594, Control_c, 0, 64, 0
2, 934609, Note_on_c, 0, 46, 58
2, 934612, Note_on_c, 0, 32, 70
2, 934623, Note_off_c, 0, 63, 64
2, 934633, Note_off_c, 0, 46, 64
2, 934638, Note_off_c, 0, 32, 64
2, 934655, Note_off_c, 0, 67, 64
2, 934660, Note_off_c, 0, 55, 64
2, 934682, Note_on_c, 0, 43, 78
2, 934684, Note_on_c, 0, 31, 75
2, 934700, Note_off_c, 0, 31, 64
2, 934703, Note_off_c, 0, 43, 64
2, 934733, Note_on_c, 0, 33, 73
2, 934735, Note_on_c, 0, 45, 84
2, 934742, Control_c, 0, 64, 127
2, 934785, Note_on_c, 0, 66, 75
2, 934789, Note_on_c, 0, 63, 72
2, 934789, Note_on_c, 0, 60, 73
2, 934840, Note_on_c, 0, 54, 78
2, 934843, Note_off_c, 0, 60, 64
2, 934876, Note_off_c, 0, 33, 64
2, 934878, Note_off_c, 0, 54, 64
2, 934879, Note_off_c, 0, 66, 64
2, 934883, Note_off_c, 0, 45, 64
2, 934897, Control_c, 0, 64, 0
2, 934910, Note_on_c, 0, 67, 75
2, 934910, Note_on_c, 0, 55, 75
2, 934963, Note_on_c, 0, 46, 86
2, 934969, Note_on_c, 0, 34, 71
2, 934990, Note_off_c, 0, 46, 64
2, 934993, Note_off_c, 0, 34, 64
2, 935005, Note_off_c, 0, 55, 64
2, 935024, Note_on_c, 0, 43, 86
2, 935028, Note_off_c, 0, 63, 64
2, 935032, Note_on_c, 0, 31, 84
2, 935045, Note_off_c, 0, 43, 64
2, 935047, Note_off_c, 0, 67, 64
2, 935048, Note_off_c, 0, 31, 64
2, 935082, Note_on_c, 0, 33, 87
2, 935085, Note_on_c, 0, 45, 86
2, 935097, Control_c, 0, 64, 127
2, 935137, Note_on_c, 0, 78, 70
2, 935142, Note_on_c, 0, 75, 72
2, 935144, Note_on_c, 0, 72, 66
2, 935185, Note_on_c, 0, 66, 84
2, 935190, Note_off_c, 0, 72, 64
2, 935209, Note_off_c, 0, 33, 64
2, 935212, Note_off_c, 0, 45, 64
2, 935217, Note_off_c, 0, 78, 64
2, 935227, Note_off_c, 0, 66, 64
2, 935236, Note_on_c, 0, 79, 79
2, 935240, Note_on_c, 0, 70, 82
2, 935284, Note_on_c, 0, 46, 73
2, 935286, Note_on_c, 0, 34, 75
2, 935302, Note_off_c, 0, 75, 64
2, 935304, Note_off_c, 0, 79, 64
2, 935308, Note_off_c, 0, 34, 64
2, 935312, Note_off_c, 0, 70, 64
2, 935313, Note_off_c, 0, 46, 64
2, 935314, Control_c, 0, 64, 0
2, 935343, Note_on_c, 0, 43, 78
2, 935343, Note_on_c, 0, 31, 77
2, 935365, Note_off_c, 0, 31, 64
2, 935365, Note_off_c, 0, 43, 64
2, 935407, Note_on_c, 0, 91, 79
2, 935410, Note_on_c, 0, 87, 90
2, 935410, Note_on_c, 0, 82, 92
2, 935414, Note_on_c, 0, 79, 86
2, 935414, Note_on_c, 0, 37, 94
2, 935414, Note_on_c, 0, 25, 90
2, 935454, Control_c, 0, 64, 127
2, 935590, Note_off_c, 0, 91, 64
2, 935600, Note_off_c, 0, 87, 64
2, 935606, Note_off_c, 0, 82, 64
2, 935614, Note_off_c, 0, 25, 64
2, 935616, Note_off_c, 0, 79, 64
2, 935625, Note_off_c, 0, 37, 64
2, 935654, Control_c, 0, 64, 0
2, 935780, Note_on_c, 0, 38, 86
2, 935782, Note_on_c, 0, 70, 86
2, 935782, Note_on_c, 0, 26, 86
2, 935786, Note_on_c, 0, 74, 86
2, 935787, Note_on_c, 0, 67, 86
2, 935787, Note_on_c, 0, 62, 86
2, 935800, Control_c, 0, 64, 127
2, 935908, Note_off_c, 0, 74, 64
2, 935923, Note_off_c, 0, 70, 64
2, 935925, Note_off_c, 0, 67, 64
2, 935932, Control_c, 0, 64, 0
2, 935938, Note_off_c, 0, 26, 64
2, 935940, Note_off_c, 0, 62, 64
2, 935959, Note_off_c, 0, 38, 64
2, 936022, Note_on_c, 0, 38, 86
2, 936024, Note_on_c, 0, 50, 86
2, 936024, Note_on_c, 0, 45, 86
2, 936025, Note_on_c, 0, 66, 86
2, 936029, Note_on_c, 0, 60, 86
2, 936033, Note_on_c, 0, 62, 86
2, 936033, Note_on_c, 0, 54, 86
2, 936051, Control_c, 0, 64, 127
2, 936130, Note_off_c, 0, 38, 64
2, 936144, Note_off_c, 0, 45, 64
2, 936151, Note_off_c, 0, 54, 64
2, 936152, Note_off_c, 0, 50, 64
2, 936217, Note_off_c, 0, 62, 64
2, 936219, Note_off_c, 0, 60, 64
2, 936231, Control_c, 0, 64, 0
2, 936239, Note_off_c, 0, 66, 64
2, 936248, Note_on_c, 0, 31, 95
2, 936353, Control_c, 0, 64, 127
2, 936360, Note_on_c, 0, 43, 86
2, 936432, Note_on_c, 0, 50, 86
2, 936504, Note_on_c, 0, 55, 86
2, 936552, Note_on_c, 0, 58, 86
2, 936616, Note_on_c, 0, 62, 86
2, 936680, Note_on_c, 0, 67, 86
2, 937411, Note_off_c, 0, 31, 64
2, 937498, Note_off_c, 0, 43, 64
2, 937552, Note_off_c, 0, 50, 64
2, 937603, Note_off_c, 0, 55, 64
2, 937631, Note_off_c, 0, 58, 64
2, 937658, Note_off_c, 0, 62, 64
2, 937706, Note_off_c, 0, 67, 64
2, 937782, Control_c, 0, 64, 0
2, 938825, Control_c, 0, 64, 127
2, 938898, Control_c, 0, 64, 0
2, 939268, Note_on_c, 0, 41, 32
2, 939311, Note_on_c, 0, 48, 24
2, 939356, Control_c, 0, 64, 127
2, 939367, Note_on_c, 0, 57, 21
2, 939398, Note_on_c, 0, 72, 50
2, 939507, Note_on_c, 0, 69, 51
2, 939525, Note_off_c, 0, 72, 64
2, 939600, Note_off_c, 0, 69, 64
2, 939615, Note_on_c, 0, 65, 43
2, 939700, Note_on_c, 0, 62, 46
2, 939722, Note_off_c, 0, 65, 64
2, 939784, Note_off_c, 0, 57, 64
2, 939791, Note_on_c, 0, 60, 48
2, 939796, Note_off_c, 0, 41, 64
2, 939797, Note_off_c, 0, 48, 64
2, 939820, Note_off_c, 0, 62, 64
2, 939845, Note_off_c, 0, 60, 64
2, 939883, Note_on_c, 0, 65, 49
2, 939986, Note_on_c, 0, 77, 28
2, 940055, Note_off_c, 0, 77, 64
2, 940065, Note_on_c, 0, 74, 45
2, 940126, Note_off_c, 0, 65, 64
2, 940152, Note_off_c, 0, 74, 64
2, 940165, Note_on_c, 0, 72, 49
2, 940260, Note_on_c, 0, 69, 43
2, 940280, Note_off_c, 0, 72, 64
2, 940344, Note_off_c, 0, 69, 64
2, 940361, Note_on_c, 0, 65, 36
2, 940459, Note_on_c, 0, 62, 36
2, 940485, Note_off_c, 0, 65, 64
2, 940552, Note_on_c, 0, 60, 28
2, 940587, Note_off_c, 0, 62, 64
2, 940610, Note_off_c, 0, 60, 64
2, 940642, Note_on_c, 0, 65, 50
2, 940736, Note_on_c, 0, 77, 45
2, 940805, Note_off_c, 0, 77, 64
2, 940820, Note_on_c, 0, 74, 43
2, 940876, Control_c, 0, 64, 0
2, 940899, Note_on_c, 0, 36, 31
2, 940902, Note_off_c, 0, 74, 64
2, 940912, Note_off_c, 0, 65, 64
2, 940912, Note_on_c, 0, 72, 46
2, 940940, Control_c, 0, 64, 127
2, 940962, Note_off_c, 0, 36, 64
2, 941011, Note_on_c, 0, 69, 45
2, 941016, Note_off_c, 0, 72, 64
2, 941075, Note_off_c, 0, 69, 64
2, 941102, Note_on_c, 0, 65, 45
2, 941170, Note_on_c, 0, 47, 44
2, 941190, Note_on_c, 0, 62, 38
2, 941196, Note_on_c, 0, 48, 39
2, 941202, Note_off_c, 0, 47, 64
2, 941254, Note_off_c, 0, 65, 64
2, 941295, Note_on_c, 0, 60, 28
2, 941314, Note_off_c, 0, 62, 64
2, 941318, Note_off_c, 0, 48, 64
2, 941321, Note_on_c, 0, 50, 39
2, 941345, Note_off_c, 0, 50, 64
2, 941347, Note_off_c, 0, 60, 64
2, 941354, Note_on_c, 0, 48, 44
2, 941372, Note_on_c, 0, 65, 43
2, 941386, Note_off_c, 0, 48, 64
2, 941391, Note_on_c, 0, 50, 59
2, 941424, Note_on_c, 0, 48, 50
2, 941440, Note_off_c, 0, 50, 64
2, 941460, Note_on_c, 0, 77, 45
2, 941498, Note_on_c, 0, 47, 51
2, 941510, Note_off_c, 0, 48, 64
2, 941543, Note_off_c, 0, 77, 64
2, 941548, Note_on_c, 0, 74, 54
2, 941562, Note_on_c, 0, 48, 57
2, 941579, Note_off_c, 0, 47, 64
2, 941632, Control_c, 0, 64, 0
2, 941640, Note_off_c, 0, 74, 64
2, 941644, Note_off_c, 0, 65, 64
2, 941645, Note_on_c, 0, 72, 55
2, 941649, Note_on_c, 0, 57, 49
2, 941695, Control_c, 0, 64, 127
2, 941745, Note_on_c, 0, 69, 51
2, 941765, Note_off_c, 0, 72, 64
2, 941831, Note_off_c, 0, 69, 64
2, 941843, Note_on_c, 0, 65, 43
2, 941928, Note_on_c, 0, 62, 33
2, 941941, Note_off_c, 0, 65, 64
2, 941966, Note_off_c, 0, 57, 64
2, 942026, Control_c, 0, 64, 0
2, 942030, Note_on_c, 0, 55, 40
2, 942036, Note_on_c, 0, 60, 39
2, 942043, Note_off_c, 0, 62, 64
2, 942089, Control_c, 0, 64, 127
2, 942103, Note_off_c, 0, 60, 64
2, 942122, Note_on_c, 0, 64, 52
2, 942210, Note_on_c, 0, 70, 33
2, 942259, Note_off_c, 0, 48, 64
2, 942285, Note_off_c, 0, 70, 64
2, 942292, Note_on_c, 0, 67, 45
2, 942308, Note_off_c, 0, 64, 64
2, 942373, Control_c, 0, 64, 0
2, 942392, Note_off_c, 0, 67, 64
2, 942404, Note_on_c, 0, 69, 55
2, 942407, Note_on_c, 0, 41, 38
2, 942412, Note_off_c, 0, 55, 64
2, 942488, Note_on_c, 0, 65, 55
2, 942505, Note_off_c, 0, 69, 64
2, 942579, Note_on_c, 0, 48, 48
2, 942585, Note_off_c, 0, 65, 64
2, 942594, Control_c, 0, 64, 127
2, 942598, Note_on_c, 0, 60, 48
2, 942609, Note_off_c, 0, 41, 64
2, 942660, Note_off_c, 0, 48, 64
2, 942671, Note_off_c, 0, 60, 64
2, 942678, Note_on_c, 0, 53, 45
2, 942682, Note_on_c, 0, 57, 27
2, 942719, Note_off_c, 0, 57, 64
2, 942758, Note_on_c, 0, 57, 33
2, 942768, Note_off_c, 0, 53, 64
2, 942770, Note_on_c, 0, 60, 55
2, 942846, Note_off_c, 0, 60, 64
2, 942859, Note_on_c, 0, 65, 43
2, 942922, Note_off_c, 0, 57, 64
2, 942934, Note_on_c, 0, 55, 45
2, 942936, Note_on_c, 0, 70, 54
2, 942941, Note_on_c, 0, 64, 28
2, 942949, Note_on_c, 0, 48, 44
2, 942951, Note_off_c, 0, 65, 64
2, 942979, Note_off_c, 0, 48, 64
2, 942984, Note_off_c, 0, 55, 64
2, 943006, Note_off_c, 0, 70, 64
2, 943016, Note_on_c, 0, 67, 57
2, 943032, Note_off_c, 0, 64, 64
2, 943073, Control_c, 0, 64, 0
2, 943106, Note_off_c, 0, 67, 64
2, 943112, Note_on_c, 0, 41, 41
2, 943114, Note_on_c, 0, 69, 54
2, 943143, Control_c, 0, 64, 127
2, 943196, Note_on_c, 0, 65, 50
2, 943206, Note_off_c, 0, 69, 64
2, 943274, Note_off_c, 0, 65, 64
2, 943278, Note_on_c, 0, 48, 46
2, 943283, Note_on_c, 0, 60, 43
2, 943294, Note_off_c, 0, 41, 64
2, 943356, Note_off_c, 0, 60, 64
2, 943356, Note_off_c, 0, 48, 64
2, 943360, Note_on_c, 0, 57, 43
2, 943366, Note_on_c, 0, 53, 45
2, 943409, Note_off_c, 0, 57, 64
2, 943445, Note_on_c, 0, 57, 50
2, 943451, Note_on_c, 0, 60, 55
2, 943466, Note_off_c, 0, 53, 64
2, 943526, Note_off_c, 0, 60, 64
2, 943571, Note_on_c, 0, 65, 2
2, 943617, Note_on_c, 0, 70, 54
2, 943621, Note_off_c, 0, 65, 64
2, 943621, Note_off_c, 0, 57, 64
2, 943623, Note_on_c, 0, 64, 27
2, 943624, Note_on_c, 0, 55, 42
2, 943629, Note_on_c, 0, 48, 36
2, 943668, Note_off_c, 0, 48, 64
2, 943678, Note_off_c, 0, 55, 64
2, 943686, Note_off_c, 0, 70, 64
2, 943705, Control_c, 0, 64, 0
2, 943710, Note_on_c, 0, 67, 44
2, 943716, Note_off_c, 0, 64, 64
2, 943801, Note_off_c, 0, 67, 64
2, 943806, Note_on_c, 0, 41, 30
2, 943807, Note_on_c, 0, 69, 52
2, 943831, Control_c, 0, 64, 127
2, 943900, Note_off_c, 0, 69, 64
2, 943901, Note_on_c, 0, 65, 34
2, 943969, Note_off_c, 0, 65, 64
2, 943981, Note_on_c, 0, 48, 45
2, 943988, Note_on_c, 0, 60, 51
2, 944014, Note_off_c, 0, 41, 64
2, 944045, Note_off_c, 0, 48, 64
2, 944056, Note_off_c, 0, 60, 64
2, 944062, Note_on_c, 0, 53, 40
2, 944069, Note_on_c, 0, 57, 27
2, 944101, Note_off_c, 0, 53, 64
2, 944107, Note_off_c, 0, 57, 64
2, 944151, Note_on_c, 0, 60, 56
2, 944151, Note_on_c, 0, 57, 41
2, 944220, Note_off_c, 0, 60, 64
2, 944234, Note_on_c, 0, 65, 54
2, 944239, Note_on_c, 0, 53, 40
2, 944244, Note_off_c, 0, 57, 64
2, 944310, Note_off_c, 0, 65, 64
2, 944316, Note_on_c, 0, 62, 61
2, 944324, Note_on_c, 0, 70, 54
2, 944351, Control_c, 0, 64, 0
2, 944360, Note_off_c, 0, 53, 64
2, 944402, Note_on_c, 0, 59, 43
2, 944404, Note_on_c, 0, 68, 67
2, 944409, Note_off_c, 0, 70, 64
2, 944415, Note_off_c, 0, 62, 64
2, 944473, Note_off_c, 0, 68, 64
2, 944491, Note_on_c, 0, 60, 45
2, 944494, Note_off_c, 0, 59, 64
2, 944494, Note_on_c, 0, 69, 56
2, 944495, Control_c, 0, 64, 127
2, 944562, Note_off_c, 0, 60, 64
2, 944566, Note_off_c, 0, 69, 64
2, 944569, Note_on_c, 0, 70, 44
2, 944622, Note_off_c, 0, 70, 64
2, 944667, Note_on_c, 0, 74, 52
2, 944667, Note_on_c, 0, 70, 73
2, 944700, Control_c, 0, 64, 0
2, 944737, Note_off_c, 0, 70, 64
2, 944744, Note_on_c, 0, 68, 39
2, 944751, Note_on_c, 0, 71, 46
2, 944756, Note_off_c, 0, 74, 64
2, 944825, Note_off_c, 0, 71, 64
2, 944849, Note_on_c, 0, 72, 48
2, 944856, Note_on_c, 0, 69, 54
2, 944860, Note_off_c, 0, 68, 64
2, 944865, Control_c, 0, 64, 127
2, 944934, Note_on_c, 0, 76, 56
2, 944939, Note_off_c, 0, 69, 64
2, 945003, Note_off_c, 0, 72, 64
2, 945032, Note_off_c, 0, 76, 64
2, 945040, Note_on_c, 0, 77, 48
2, 945165, Note_off_c, 0, 77, 64
2, 945174, Note_on_c, 0, 81, 21
2, 945177, Note_on_c, 0, 48, 20
2, 945186, Control_c, 0, 64, 0
2, 945210, Note_on_c, 0, 55, 42
2, 945266, Note_on_c, 0, 64, 39
2, 945280, Note_on_c, 0, 79, 54
2, 945293, Note_off_c, 0, 81, 64
2, 945313, Control_c, 0, 64, 127
2, 945370, Note_on_c, 0, 76, 45
2, 945389, Note_off_c, 0, 79, 64
2, 945432, Note_off_c, 0, 76, 64
2, 945444, Note_on_c, 0, 72, 34
2, 945514, Note_on_c, 0, 69, 39
2, 945534, Note_off_c, 0, 72, 64
2, 945608, Note_on_c, 0, 67, 43
2, 945628, Note_off_c, 0, 69, 64
2, 945659, Note_off_c, 0, 67, 64
2, 945687, Note_on_c, 0, 72, 54
2, 945773, Note_on_c, 0, 84, 48
2, 945847, Note_off_c, 0, 84, 64
2, 945852, Note_on_c, 0, 81, 56
2, 945917, Note_off_c, 0, 72, 64
2, 945927, Note_off_c, 0, 81, 64
2, 945941, Note_on_c, 0, 79, 57
2, 946016, Note_on_c, 0, 76, 50
2, 946036, Note_off_c, 0, 79, 64
2, 946053, Note_off_c, 0, 64, 64
2, 946088, Note_off_c, 0, 55, 64
2, 946094, Note_off_c, 0, 76, 64
2, 946103, Note_off_c, 0, 48, 64
2, 946106, Note_on_c, 0, 72, 39
2, 946176, Note_on_c, 0, 69, 57
2, 946196, Note_off_c, 0, 72, 64
2, 946253, Note_on_c, 0, 67, 52
2, 946274, Note_off_c, 0, 69, 64
2, 946312, Note_off_c, 0, 67, 64
2, 946333, Note_on_c, 0, 72, 57
2, 946426, Note_on_c, 0, 84, 54
2, 946501, Note_on_c, 0, 81, 56
2, 946507, Control_c, 0, 64, 0
2, 946514, Note_off_c, 0, 84, 64
2, 946586, Note_off_c, 0, 81, 64
2, 946587, Note_on_c, 0, 79, 57
2, 946591, Note_on_c, 0, 43, 46
2, 946612, Note_off_c, 0, 72, 64
2, 946616, Control_c, 0, 64, 127
2, 946639, Note_off_c, 0, 43, 64
2, 946666, Note_on_c, 0, 76, 51
2, 946685, Note_off_c, 0, 79, 64
2, 946728, Note_off_c, 0, 76, 64
2, 946746, Note_on_c, 0, 72, 28
2, 946813, Note_on_c, 0, 54, 24
2, 946819, Note_on_c, 0, 69, 39
2, 946836, Note_off_c, 0, 72, 64
2, 946853, Note_on_c, 0, 55, 44
2, 946863, Note_off_c, 0, 54, 64
2, 946886, Note_on_c, 0, 57, 43
2, 946899, Note_on_c, 0, 67, 37
2, 946901, Note_off_c, 0, 55, 64
2, 946921, Note_off_c, 0, 69, 64
2, 946926, Note_on_c, 0, 55, 48
2, 946929, Note_off_c, 0, 57, 64
2, 946944, Note_off_c, 0, 67, 64
2, 946962, Note_on_c, 0, 72, 54
2, 946967, Note_off_c, 0, 55, 64
2, 946969, Note_on_c, 0, 57, 54
2, 946993, Note_on_c, 0, 55, 51
2, 947001, Note_off_c, 0, 57, 64
2, 947040, Note_off_c, 0, 55, 64
2, 947043, Note_on_c, 0, 57, 48
2, 947069, Note_on_c, 0, 55, 46
2, 947074, Note_on_c, 0, 84, 37
2, 947099, Note_off_c, 0, 57, 64
2, 947115, Note_on_c, 0, 54, 48
2, 947133, Note_off_c, 0, 55, 64
2, 947133, Note_on_c, 0, 81, 56
2, 947136, Note_off_c, 0, 84, 64
2, 947164, Note_on_c, 0, 55, 46
2, 947182, Note_off_c, 0, 54, 64
2, 947188, Note_off_c, 0, 72, 64
2, 947210, Control_c, 0, 64, 0
2, 947216, Note_on_c, 0, 79, 51
2, 947217, Note_off_c, 0, 81, 64
2, 947233, Note_on_c, 0, 64, 56
2, 947264, Control_c, 0, 64, 127
2, 947299, Note_on_c, 0, 76, 52
2, 947321, Note_off_c, 0, 79, 64
2, 947372, Note_off_c, 0, 76, 64
2, 947378, Note_on_c, 0, 72, 36
2, 947454, Note_on_c, 0, 69, 36
2, 947462, Note_off_c, 0, 72, 64
2, 947511, Note_off_c, 0, 64, 64
2, 947520, Control_c, 0, 64, 0
2, 947543, Note_on_c, 0, 67, 43
2, 947545, Note_on_c, 0, 62, 54
2, 947561, Note_off_c, 0, 69, 64
2, 947573, Control_c, 0, 64, 127
2, 947619, Note_off_c, 0, 67, 64
2, 947635, Note_on_c, 0, 71, 54
2, 947724, Note_on_c, 0, 77, 51
2, 947774, Note_off_c, 0, 71, 64
2, 947797, Note_on_c, 0, 74, 46
2, 947803, Note_off_c, 0, 77, 64
2, 947832, Control_c, 0, 64, 0
2, 947850, Note_off_c, 0, 62, 64
2, 947884, Note_on_c, 0, 48, 42
2, 947887, Note_off_c, 0, 74, 64
2, 947888, Note_on_c, 0, 76, 54
2, 947890, Note_off_c, 0, 55, 64
2, 947964, Note_on_c, 0, 72, 55
2, 947984, Note_off_c, 0, 76, 64
2, 948040, Note_off_c, 0, 72, 64
2, 948048, Note_on_c, 0, 55, 45
2, 948051, Note_on_c, 0, 67, 39
2, 948064, Note_off_c, 0, 48, 64
2, 948065, Control_c, 0, 64, 127
2, 948116, Note_off_c, 0, 67, 64
2, 948120, Note_off_c, 0, 55, 64
2, 948122, Note_on_c, 0, 64, 32
2, 948135, Note_on_c, 0, 60, 48
2, 948166, Note_off_c, 0, 64, 64
2, 948181, Control_c, 0, 64, 0
2, 948201, Note_on_c, 0, 64, 52
2, 948216, Note_on_c, 0, 67, 52
2, 948222, Note_off_c, 0, 60, 64
2, 948243, Control_c, 0, 64, 127
2, 948288, Note_off_c, 0, 67, 64
2, 948292, Note_on_c, 0, 72, 54
2, 948312, Control_c, 0, 64, 0
2, 948360, Note_on_c, 0, 62, 45
2, 948365, Note_off_c, 0, 64, 64
2, 948366, Note_on_c, 0, 77, 50
2, 948366, Note_on_c, 0, 71, 58
2, 948370, Note_on_c, 0, 55, 27
2, 948378, Note_off_c, 0, 72, 64
2, 948381, Control_c, 0, 64, 127
2, 948416, Note_off_c, 0, 62, 64
2, 948425, Note_off_c, 0, 55, 64
2, 948437, Note_off_c, 0, 77, 64
2, 948444, Note_on_c, 0, 74, 46
2, 948446, Note_off_c, 0, 71, 64
2, 948464, Control_c, 0, 64, 0
2, 948519, Note_on_c, 0, 48, 43
2, 948525, Note_off_c, 0, 74, 64
2, 948525, Note_on_c, 0, 76, 56
2, 948544, Control_c, 0, 64, 127
2, 948600, Note_on_c, 0, 72, 54
2, 948623, Note_off_c, 0, 76, 64
2, 948670, Note_off_c, 0, 72, 64
2, 948682, Note_on_c, 0, 67, 32
2, 948683, Note_on_c, 0, 55, 44
2, 948704, Note_off_c, 0, 48, 64
2, 948740, Note_off_c, 0, 55, 64
2, 948746, Note_off_c, 0, 67, 64
2, 948746, Note_on_c, 0, 64, 45
2, 948757, Note_on_c, 0, 60, 44
2, 948784, Control_c, 0, 64, 0
2, 948796, Note_off_c, 0, 64, 64
2, 948826, Note_on_c, 0, 64, 42
2, 948846, Note_on_c, 0, 67, 46
2, 948848, Note_off_c, 0, 60, 64
2, 948856, Control_c, 0, 64, 127
2, 948906, Note_off_c, 0, 67, 64
2, 948914, Note_on_c, 0, 72, 54
2, 948977, Note_off_c, 0, 64, 64
2, 948988, Note_on_c, 0, 62, 46
2, 948991, Note_on_c, 0, 55, 32
2, 948994, Note_on_c, 0, 77, 48
2, 949000, Note_off_c, 0, 72, 64
2, 949004, Note_on_c, 0, 71, 24
2, 949024, Note_off_c, 0, 55, 64
2, 949066, Note_off_c, 0, 71, 64
2, 949074, Note_off_c, 0, 77, 64
2, 949076, Note_off_c, 0, 62, 64
2, 949076, Note_on_c, 0, 74, 43
2, 949091, Control_c, 0, 64, 0
2, 949158, Note_off_c, 0, 74, 64
2, 949163, Note_on_c, 0, 76, 52
2, 949168, Note_on_c, 0, 48, 44
2, 949186, Control_c, 0, 64, 127
2, 949242, Note_on_c, 0, 72, 50
2, 949250, Note_off_c, 0, 76, 64
2, 949299, Note_off_c, 0, 72, 64
2, 949312, Note_on_c, 0, 67, 43
2, 949330, Note_on_c, 0, 55, 36
2, 949346, Note_off_c, 0, 48, 64
2, 949376, Note_off_c, 0, 67, 64
2, 949394, Note_on_c, 0, 58, 44
2, 949409, Note_off_c, 0, 55, 64
2, 949458, Note_off_c, 0, 58, 64
2, 949458, Note_on_c, 0, 67, 57
2, 949471, Note_on_c, 0, 64, 38
2, 949520, Note_off_c, 0, 64, 64
2, 949538, Note_on_c, 0, 72, 52
2, 949542, Note_off_c, 0, 67, 64
2, 949611, Note_on_c, 0, 64, 16
2, 949628, Note_on_c, 0, 76, 54
2, 949642, Note_off_c, 0, 72, 64
2, 949671, Note_off_c, 0, 76, 64
2, 949683, Note_on_c, 0, 70, 36
2, 949706, Note_on_c, 0, 79, 68
2, 949794, Note_on_c, 0, 84, 61
2, 949878, Note_off_c, 0, 84, 64
2, 949880, Note_on_c, 0, 88, 55
2, 949939, Note_off_c, 0, 79, 64
2, 949952, Note_on_c, 0, 86, 54
2, 949955, Note_off_c, 0, 88, 64
2, 950039, Note_off_c, 0, 86, 64
2, 950043, Note_on_c, 0, 79, 57
2, 950099, Note_off_c, 0, 79, 64
2, 950127, Note_on_c, 0, 74, 54
2, 950144, Note_off_c, 0, 70, 64
2, 950156, Note_off_c, 0, 64, 64
2, 950212, Note_on_c, 0, 79, 52
2, 950214, Note_off_c, 0, 74, 64
2, 950308, Note_on_c, 0, 74, 36
2, 950330, Note_off_c, 0, 79, 64
2, 950391, Note_on_c, 0, 76, 54
2, 950396, Note_off_c, 0, 74, 64
2, 950418, Note_off_c, 0, 76, 64
2, 950423, Note_on_c, 0, 53, 33
2, 950471, Note_on_c, 0, 60, 36
2, 950504, Control_c, 0, 64, 0
2, 950543, Note_on_c, 0, 69, 39
2, 950556, Note_on_c, 0, 84, 48
2, 950636, Note_on_c, 0, 81, 43
2, 950640, Control_c, 0, 64, 127
2, 950658, Note_off_c, 0, 84, 64
2, 950700, Note_off_c, 0, 81, 64
2, 950718, Note_on_c, 0, 77, 42
2, 950792, Note_on_c, 0, 74, 26
2, 950813, Note_off_c, 0, 77, 64
2, 950874, Note_on_c, 0, 72, 35
2, 950894, Note_off_c, 0, 74, 64
2, 950921, Note_off_c, 0, 72, 64
2, 950952, Note_on_c, 0, 77, 43
2, 951045, Note_on_c, 0, 89, 36
2, 951103, Note_off_c, 0, 89, 64
2, 951114, Note_on_c, 0, 86, 46
2, 951162, Note_off_c, 0, 77, 64
2, 951202, Note_on_c, 0, 84, 48
2, 951217, Note_off_c, 0, 86, 64
2, 951276, Note_on_c, 0, 81, 46
2, 951298, Note_off_c, 0, 84, 64
2, 951355, Note_off_c, 0, 81, 64
2, 951361, Note_on_c, 0, 77, 48
2, 951436, Note_on_c, 0, 74, 51
2, 951454, Note_off_c, 0, 69, 64
2, 951455, Note_off_c, 0, 77, 64
2, 951499, Note_off_c, 0, 60, 64
2, 951508, Note_on_c, 0, 72, 48
2, 951519, Note_off_c, 0, 53, 64
2, 951526, Note_off_c, 0, 74, 64
2, 951558, Note_off_c, 0, 72, 64
2, 951590, Note_on_c, 0, 77, 45
2, 951698, Note_on_c, 0, 89, 22
2, 951760, Note_on_c, 0, 86, 45
2, 951766, Control_c, 0, 64, 0
2, 951790, Note_off_c, 0, 89, 64
2, 951842, Note_on_c, 0, 48, 48
2, 951846, Note_on_c, 0, 84, 49
2, 951853, Note_off_c, 0, 86, 64
2, 951864, Note_off_c, 0, 77, 64
2, 951866, Control_c, 0, 64, 127
2, 951886, Note_off_c, 0, 48, 64
2, 951934, Note_on_c, 0, 81, 39
2, 951940, Note_off_c, 0, 84, 64
2, 951987, Note_off_c, 0, 81, 64
2, 951997, Note_on_c, 0, 77, 50
2, 952066, Note_on_c, 0, 59, 34
2, 952074, Note_on_c, 0, 74, 30
2, 952088, Note_on_c, 0, 60, 49
2, 952098, Note_off_c, 0, 59, 64
2, 952111, Note_off_c, 0, 77, 64
2, 952142, Note_off_c, 0, 60, 64
2, 952142, Note_on_c, 0, 62, 30
2, 952150, Note_on_c, 0, 72, 27
2, 952158, Note_off_c, 0, 74, 64
2, 952167, Note_on_c, 0, 60, 48
2, 952169, Note_off_c, 0, 62, 64
2, 952192, Note_off_c, 0, 72, 64
2, 952206, Note_off_c, 0, 60, 64
2, 952206, Note_on_c, 0, 62, 57
2, 952212, Note_on_c, 0, 77, 24
2, 952242, Note_on_c, 0, 60, 54
2, 952246, Note_off_c, 0, 62, 64
2, 952275, Note_on_c, 0, 62, 56
2, 952280, Note_off_c, 0, 60, 64
2, 952312, Note_on_c, 0, 60, 48
2, 952325, Note_on_c, 0, 89, 38
2, 952368, Note_off_c, 0, 62, 64
2, 952371, Note_on_c, 0, 59, 51
2, 952378, Note_off_c, 0, 60, 64
2, 952411, Note_on_c, 0, 60, 52
2, 952414, Note_on_c, 0, 86, 45
2, 952422, Note_off_c, 0, 59, 64
2, 952425, Note_off_c, 0, 89, 64
2, 952452, Control_c, 0, 64, 0
2, 952457, Note_off_c, 0, 77, 64
2, 952488, Note_on_c, 0, 69, 51
2, 952495, Note_on_c, 0, 84, 51
2, 952502, Note_off_c, 0, 86, 64
2, 952534, Control_c, 0, 64, 127
2, 952572, Note_on_c, 0, 81, 42
2, 952596, Note_off_c, 0, 84, 64
2, 952634, Note_off_c, 0, 81, 64
2, 952646, Note_on_c, 0, 77, 28
2, 952717, Note_on_c, 0, 74, 45
2, 952734, Note_off_c, 0, 77, 64
2, 952766, Note_off_c, 0, 69, 64
2, 952798, Control_c, 0, 64, 0
2, 952806, Note_on_c, 0, 72, 43
2, 952813, Note_on_c, 0, 67, 57
2, 952818, Note_off_c, 0, 74, 64
2, 952851, Control_c, 0, 64, 127
2, 952875, Note_off_c, 0, 72, 64
2, 952899, Note_on_c, 0, 76, 42
2, 952968, Note_on_c, 0, 82, 33
2, 953014, Note_off_c, 0, 76, 64
2, 953036, Note_off_c, 0, 82, 64
2, 953046, Note_on_c, 0, 79, 45
2, 953127, Note_off_c, 0, 60, 64
2, 953131, Note_off_c, 0, 79, 64
2, 953141, Note_on_c, 0, 81, 45
2, 953141, Control_c, 0, 64, 0
2, 953152, Note_on_c, 0, 53, 45
2, 953162, Note_off_c, 0, 67, 64
2, 953214, Note_on_c, 0, 77, 44
2, 953233, Note_off_c, 0, 81, 64
2, 953300, Note_off_c, 0, 77, 64
2, 953308, Note_on_c, 0, 60, 48
2, 953313, Note_on_c, 0, 72, 31
2, 953318, Note_off_c, 0, 53, 64
2, 953331, Control_c, 0, 64, 127
2, 953371, Note_off_c, 0, 72, 64
2, 953378, Note_on_c, 0, 69, 45
2, 953390, Note_on_c, 0, 65, 43
2, 953428, Note_off_c, 0, 69, 64
2, 953436, Control_c, 0, 64, 0
2, 953458, Note_off_c, 0, 60, 64
2, 953465, Note_on_c, 0, 69, 54
2, 953472, Note_on_c, 0, 72, 45
2, 953480, Note_off_c, 0, 65, 64
2, 953491, Control_c, 0, 64, 127
2, 953536, Note_on_c, 0, 77, 60
2, 953550, Note_off_c, 0, 72, 64
2, 953607, Note_off_c, 0, 77, 64
2, 953620, Note_off_c, 0, 69, 64
2, 953623, Note_on_c, 0, 67, 48
2, 953626, Note_on_c, 0, 60, 48
2, 953631, Note_on_c, 0, 82, 48
2, 953631, Note_on_c, 0, 76, 31
2, 953672, Note_off_c, 0, 60, 64
2, 953681, Note_off_c, 0, 67, 64
2, 953694, Note_off_c, 0, 82, 64
2, 953702, Note_off_c, 0, 76, 64
2, 953702, Note_on_c, 0, 79, 47
2, 953749, Control_c, 0, 64, 0
2, 953788, Note_off_c, 0, 79, 64
2, 953790, Note_on_c, 0, 53, 43
2, 953795, Note_on_c, 0, 81, 45
2, 953858, Note_on_c, 0, 77, 46
2, 953875, Note_off_c, 0, 81, 64
2, 953933, Note_off_c, 0, 77, 64
2, 953938, Note_on_c, 0, 60, 47
2, 953951, Note_on_c, 0, 72, 36
2, 953952, Control_c, 0, 64, 127
2, 953966, Note_off_c, 0, 53, 64
2, 954010, Note_off_c, 0, 72, 64
2, 954016, Note_on_c, 0, 65, 48
2, 954024, Note_on_c, 0, 69, 60
2, 954060, Control_c, 0, 64, 0
2, 954075, Note_off_c, 0, 69, 64
2, 954088, Note_off_c, 0, 60, 64
2, 954093, Note_on_c, 0, 69, 56
2, 954098, Note_on_c, 0, 72, 50
2, 954114, Note_off_c, 0, 65, 64
2, 954156, Control_c, 0, 64, 127
2, 954166, Note_off_c, 0, 72, 64
2, 954176, Note_on_c, 0, 77, 60
2, 954209, Control_c, 0, 64, 0
2, 954233, Note_off_c, 0, 77, 64
2, 954258, Note_on_c, 0, 82, 45
2, 954260, Note_on_c, 0, 60, 44
2, 954264, Note_off_c, 0, 69, 64
2, 954264, Note_on_c, 0, 67, 42
2, 954268, Note_on_c, 0, 76, 27
2, 954303, Note_off_c, 0, 60, 64
2, 954332, Note_off_c, 0, 82, 64
2, 954335, Note_on_c, 0, 79, 48
2, 954337, Note_off_c, 0, 76, 64
2, 954348, Note_off_c, 0, 67, 64
2, 954417, Note_off_c, 0, 79, 64
2, 954437, Note_on_c, 0, 53, 45
2, 954442, Note_on_c, 0, 81, 47
2, 954480, Control_c, 0, 64, 127
2, 954524, Note_on_c, 0, 77, 41
2, 954532, Note_off_c, 0, 81, 64
2, 954588, Note_off_c, 0, 77, 64
2, 954593, Note_on_c, 0, 60, 43
2, 954606, Note_on_c, 0, 72, 34
2, 954648, Note_on_c, 0, 69, 45
2, 954670, Note_off_c, 0, 72, 64
2, 954678, Note_on_c, 0, 65, 45
2, 954758, Note_on_c, 0, 72, 51
2, 954768, Note_off_c, 0, 69, 64
2, 954824, Note_on_c, 0, 77, 49
2, 954824, Note_on_c, 0, 69, 42
2, 954855, Note_off_c, 0, 72, 64
2, 954930, Note_on_c, 0, 75, 43
2, 954931, Note_off_c, 0, 77, 64
2, 954940, Note_on_c, 0, 81, 33
2, 955012, Note_on_c, 0, 84, 57
2, 955038, Note_off_c, 0, 81, 64
2, 955099, Note_on_c, 0, 89, 49
2, 955114, Note_off_c, 0, 53, 64
2, 955156, Note_off_c, 0, 60, 64
2, 955166, Note_off_c, 0, 84, 64
2, 955178, Note_on_c, 0, 93, 39
2, 955197, Note_off_c, 0, 65, 64
2, 955219, Note_off_c, 0, 89, 64
2, 955262, Note_on_c, 0, 91, 36
2, 955267, Note_off_c, 0, 93, 64
2, 955352, Note_off_c, 0, 91, 64
2, 955352, Note_on_c, 0, 84, 54
2, 955401, Note_off_c, 0, 69, 64
2, 955434, Note_on_c, 0, 79, 47
2, 955456, Note_off_c, 0, 75, 64
2, 955460, Note_off_c, 0, 84, 64
2, 955515, Note_on_c, 0, 84, 43
2, 955532, Note_off_c, 0, 79, 64
2, 955615, Note_on_c, 0, 79, 23
2, 955647, Note_off_c, 0, 84, 64
2, 955692, Note_on_c, 0, 81, 45
2, 955699, Note_off_c, 0, 79, 64
2, 955729, Control_c, 0, 64, 0
2, 955768, Note_on_c, 0, 89, 48
2, 955785, Note_on_c, 0, 58, 45
2, 955803, Note_off_c, 0, 81, 64
2, 955843, Control_c, 0, 64, 127
2, 955882, Note_off_c, 0, 89, 64
2, 955898, Note_on_c, 0, 86, 45
2, 955934, Note_off_c, 0, 58, 64
2, 955954, Note_on_c, 0, 65, 48
2, 955964, Note_on_c, 0, 67, 46
2, 955993, Note_on_c, 0, 82, 48
2, 956030, Note_off_c, 0, 86, 64
2, 956061, Note_on_c, 0, 79, 51
2, 956063, Note_off_c, 0, 82, 64
2, 956083, Control_c, 0, 64, 0
2, 956088, Note_on_c, 0, 74, 40
2, 956138, Note_on_c, 0, 77, 54
2, 956159, Note_off_c, 0, 79, 64
2, 956221, Control_c, 0, 64, 127
2, 956237, Note_on_c, 0, 82, 63
2, 956287, Note_off_c, 0, 77, 64
2, 956320, Note_on_c, 0, 94, 49
2, 956358, Note_off_c, 0, 82, 64
2, 956391, Note_off_c, 0, 94, 64
2, 956396, Note_on_c, 0, 91, 46
2, 956490, Note_on_c, 0, 89, 42
2, 956498, Note_off_c, 0, 91, 64
2, 956565, Note_on_c, 0, 86, 45
2, 956582, Note_off_c, 0, 89, 64
2, 956648, Note_off_c, 0, 86, 64
2, 956650, Note_on_c, 0, 82, 60
2, 956733, Note_on_c, 0, 79, 54
2, 956755, Note_off_c, 0, 82, 64
2, 956813, Note_on_c, 0, 77, 48
2, 956832, Note_off_c, 0, 79, 64
2, 956903, Note_on_c, 0, 82, 61
2, 956911, Note_off_c, 0, 67, 64
2, 956912, Note_off_c, 0, 74, 64
2, 956916, Note_off_c, 0, 65, 64
2, 956938, Note_off_c, 0, 77, 64
2, 956988, Note_on_c, 0, 94, 48
2, 957051, Note_off_c, 0, 82, 64
2, 957060, Note_off_c, 0, 94, 64
2, 957060, Note_on_c, 0, 91, 44
2, 957139, Control_c, 0, 64, 0
2, 957154, Note_on_c, 0, 89, 49
2, 957166, Note_on_c, 0, 55, 43
2, 957176, Note_off_c, 0, 91, 64
2, 957203, Control_c, 0, 64, 127
2, 957235, Note_on_c, 0, 86, 49
2, 957280, Note_off_c, 0, 89, 64
2, 957300, Note_on_c, 0, 67, 48
2, 957303, Note_off_c, 0, 55, 64
2, 957335, Note_off_c, 0, 86, 64
2, 957341, Note_on_c, 0, 83, 48
2, 957348, Note_off_c, 0, 67, 64
2, 957418, Note_on_c, 0, 79, 24
2, 957426, Note_off_c, 0, 83, 64
2, 957436, Note_on_c, 0, 74, 43
2, 957500, Note_on_c, 0, 77, 51
2, 957514, Note_off_c, 0, 79, 64
2, 957564, Note_on_c, 0, 83, 47
2, 957620, Note_off_c, 0, 77, 64
2, 957656, Note_on_c, 0, 95, 49
2, 957727, Note_on_c, 0, 91, 48
2, 957756, Note_off_c, 0, 74, 64
2, 957759, Note_off_c, 0, 95, 64
2, 957819, Note_on_c, 0, 89, 47
2, 957832, Note_off_c, 0, 83, 64
2, 957844, Note_off_c, 0, 91, 64
2, 957905, Note_on_c, 0, 86, 36
2, 957927, Note_off_c, 0, 89, 64
2, 957972, Note_off_c, 0, 86, 64
2, 957990, Note_on_c, 0, 83, 30
2, 958068, Note_on_c, 0, 79, 23
2, 958091, Note_off_c, 0, 83, 64
2, 958148, Note_on_c, 0, 77, 27
2, 958156, Note_off_c, 0, 79, 64
2, 958186, Note_off_c, 0, 77, 64
2, 958224, Note_on_c, 0, 83, 27
2, 958337, Note_on_c, 0, 95, 43
2, 958399, Note_off_c, 0, 95, 64
2, 958407, Note_on_c, 0, 91, 39
2, 958463, Note_off_c, 0, 91, 64
2, 958465, Control_c, 0, 64, 0
2, 958500, Note_on_c, 0, 89, 47
2, 958503, Note_on_c, 0, 60, 48
2, 958535, Note_off_c, 0, 83, 64
2, 958536, Control_c, 0, 64, 127
2, 958578, Note_on_c, 0, 86, 44
2, 958604, Note_off_c, 0, 89, 64
2, 958630, Note_on_c, 0, 67, 43
2, 958648, Note_off_c, 0, 86, 64
2, 958658, Note_on_c, 0, 84, 32
2, 958722, Note_on_c, 0, 81, 54
2, 958722, Note_on_c, 0, 72, 44
2, 958750, Note_off_c, 0, 84, 64
2, 958808, Note_on_c, 0, 79, 40
2, 958810, Note_on_c, 0, 77, 56
2, 958831, Note_off_c, 0, 81, 64
2, 958892, Note_on_c, 0, 84, 46
2, 958939, Note_off_c, 0, 79, 64
2, 958986, Note_on_c, 0, 96, 45
2, 958992, Note_off_c, 0, 84, 64
2, 959044, Note_off_c, 0, 96, 64
2, 959050, Note_on_c, 0, 93, 45
2, 959130, Note_off_c, 0, 93, 64
2, 959133, Note_on_c, 0, 89, 42
2, 959218, Note_on_c, 0, 86, 43
2, 959237, Note_off_c, 0, 89, 64
2, 959290, Note_on_c, 0, 84, 43
2, 959334, Note_off_c, 0, 86, 64
2, 959340, Note_off_c, 0, 60, 64
2, 959364, Note_on_c, 0, 81, 36
2, 959396, Note_off_c, 0, 84, 64
2, 959442, Note_on_c, 0, 79, 48
2, 959456, Note_off_c, 0, 81, 64
2, 959524, Note_off_c, 0, 72, 64
2, 959528, Note_on_c, 0, 84, 41
2, 959594, Note_off_c, 0, 79, 64
2, 959605, Note_off_c, 0, 67, 64
2, 959615, Note_on_c, 0, 96, 42
2, 959619, Note_off_c, 0, 84, 64
2, 959676, Note_off_c, 0, 96, 64
2, 959681, Note_on_c, 0, 93, 41
2, 959726, Note_on_c, 0, 60, 30
2, 959770, Note_on_c, 0, 67, 43
2, 959783, Note_off_c, 0, 93, 64
2, 959801, Note_on_c, 0, 70, 49
2, 959820, Note_on_c, 0, 89, 51
2, 959906, Note_on_c, 0, 86, 45
2, 959937, Note_off_c, 0, 89, 64
2, 959971, Note_off_c, 0, 86, 64
2, 959974, Note_on_c, 0, 84, 54
2, 960028, Note_off_c, 0, 60, 64
2, 960039, Note_on_c, 0, 81, 40
2, 960062, Note_off_c, 0, 84, 64
2, 960121, Note_on_c, 0, 79, 44
2, 960126, Note_on_c, 0, 76, 49
2, 960142, Note_off_c, 0, 81, 64
2, 960184, Note_off_c, 0, 67, 64
2, 960196, Note_on_c, 0, 84, 45
2, 960227, Note_off_c, 0, 70, 64
2, 960261, Note_off_c, 0, 79, 64
2, 960283, Note_off_c, 0, 76, 64
2, 960285, Note_on_c, 0, 96, 40
2, 960300, Note_off_c, 0, 84, 64
2, 960307, Note_off_c, 0, 77, 64
2, 960350, Note_on_c, 0, 93, 36
2, 960380, Note_off_c, 0, 96, 64
2, 960440, Note_on_c, 0, 81, 46
2, 960443, Note_on_c, 0, 91, 45
2, 960473, Note_off_c, 0, 93, 64
2, 960532, Note_on_c, 0, 88, 27
2, 960572, Note_off_c, 0, 81, 64
2, 960596, Note_off_c, 0, 91, 64
2, 960601, Note_on_c, 0, 84, 40
2, 960626, Note_off_c, 0, 88, 64
2, 960666, Control_c, 0, 64, 0
2, 960681, Note_on_c, 0, 81, 52
2, 960744, Note_on_c, 0, 79, 46
2, 960747, Note_off_c, 0, 84, 64
2, 960751, Control_c, 0, 64, 127
2, 960764, Note_off_c, 0, 81, 64
2, 960816, Note_on_c, 0, 84, 54
2, 960851, Note_off_c, 0, 79, 64
2, 960916, Note_on_c, 0, 96, 42
2, 960994, Note_on_c, 0, 91, 38
2, 961010, Note_off_c, 0, 84, 64
2, 961029, Note_on_c, 0, 65, 37
2, 961041, Note_off_c, 0, 96, 64
2, 961066, Note_on_c, 0, 72, 46
2, 961104, Control_c, 0, 64, 0
2, 961110, Note_off_c, 0, 91, 64
2, 961120, Note_on_c, 0, 96, 47
2, 961124, Note_on_c, 0, 81, 43
2, 961156, Control_c, 0, 64, 127
2, 961204, Note_on_c, 0, 93, 45
2, 961217, Note_off_c, 0, 96, 64
2, 961277, Note_on_c, 0, 89, 23
2, 961312, Note_off_c, 0, 93, 64
2, 961362, Note_on_c, 0, 86, 38
2, 961368, Note_off_c, 0, 89, 64
2, 961433, Note_on_c, 0, 84, 36
2, 961462, Note_off_c, 0, 86, 64
2, 961526, Note_on_c, 0, 89, 46
2, 961541, Note_off_c, 0, 84, 64
2, 961610, Note_on_c, 0, 101, 48
2, 961678, Note_off_c, 0, 89, 64
2, 961684, Note_off_c, 0, 101, 64
2, 961684, Note_on_c, 0, 98, 47
2, 961761, Note_off_c, 0, 98, 64
2, 961770, Note_on_c, 0, 96, 57
2, 961843, Note_on_c, 0, 93, 44
2, 961878, Note_off_c, 0, 96, 64
2, 961917, Note_off_c, 0, 93, 64
2, 961924, Note_on_c, 0, 89, 57
2, 962009, Note_on_c, 0, 86, 44
2, 962020, Note_off_c, 0, 89, 64
2, 962084, Note_on_c, 0, 84, 45
2, 962106, Note_off_c, 0, 86, 64
2, 962114, Note_off_c, 0, 81, 64
2, 962163, Note_off_c, 0, 72, 64
2, 962169, Note_on_c, 0, 89, 48
2, 962180, Note_off_c, 0, 65, 64
2, 962200, Note_off_c, 0, 84, 64
2, 962259, Note_on_c, 0, 101, 48
2, 962348, Note_on_c, 0, 98, 45
2, 962353, Note_off_c, 0, 101, 64
2, 962372, Note_off_c, 0, 89, 64
2, 962415, Control_c, 0, 64, 0
2, 962452, Note_on_c, 0, 48, 51
2, 962460, Note_on_c, 0, 96, 48
2, 962470, Note_off_c, 0, 98, 64
2, 962478, Control_c, 0, 64, 127
2, 962546, Note_on_c, 0, 93, 30
2, 962546, Control_c, 0, 64, 127
2, 962579, Note_off_c, 0, 96, 64
2, 962615, Note_on_c, 0, 89, 23
2, 962638, Note_off_c, 0, 48, 64
2, 962639, Note_off_c, 0, 93, 64
2, 962693, Note_on_c, 0, 86, 34
2, 962719, Note_off_c, 0, 89, 64
2, 962746, Note_on_c, 0, 59, 34
2, 962768, Note_on_c, 0, 60, 49
2, 962770, Note_off_c, 0, 86, 64
2, 962778, Note_off_c, 0, 59, 64
2, 962814, Note_on_c, 0, 84, 36
2, 962822, Note_off_c, 0, 60, 64
2, 962822, Note_on_c, 0, 62, 30
2, 962847, Note_on_c, 0, 60, 48
2, 962849, Note_off_c, 0, 62, 64
2, 962886, Note_off_c, 0, 60, 64
2, 962886, Note_on_c, 0, 62, 57
2, 962912, Control_c, 0, 64, 0
2, 962916, Note_on_c, 0, 89, 30
2, 962922, Note_on_c, 0, 60, 54
2, 962926, Note_off_c, 0, 62, 64
2, 962955, Note_on_c, 0, 62, 56
2, 962960, Note_off_c, 0, 60, 64
2, 962976, Note_on_c, 0, 101, 42
2, 962981, Note_off_c, 0, 84, 64
2, 962992, Note_on_c, 0, 60, 48
2, 963005, Note_on_c, 0, 89, 38
2, 963016, Note_on_c, 0, 98, 36
2, 963032, Note_off_c, 0, 89, 64
2, 963048, Note_off_c, 0, 62, 64
2, 963051, Note_on_c, 0, 59, 51
2, 963058, Note_off_c, 0, 60, 64
2, 963091, Note_on_c, 0, 60, 52
2, 963102, Note_off_c, 0, 59, 64
2, 963105, Note_off_c, 0, 89, 64
2, 963110, Note_off_c, 0, 101, 64
2, 963120, Note_on_c, 0, 96, 33
2, 963122, Control_c, 0, 64, 127
2, 963128, Note_on_c, 0, 69, 51
2, 963132, Control_c, 0, 64, 0
2, 963139, Note_off_c, 0, 98, 64
2, 963168, Note_on_c, 0, 93, 21
2, 963214, Control_c, 0, 64, 127
2, 963224, Note_off_c, 0, 96, 64
2, 963248, Note_on_c, 0, 89, 34
2, 963305, Note_off_c, 0, 93, 64
2, 963328, Note_on_c, 0, 86, 51
2, 963342, Control_c, 0, 64, 0
2, 963348, Note_off_c, 0, 89, 64
2, 963406, Note_off_c, 0, 69, 64
2, 963408, Note_on_c, 0, 84, 19
2, 963408, Note_on_c, 0, 67, 57
2, 963454, Control_c, 0, 64, 127
2, 963466, Note_off_c, 0, 86, 64
2, 963478, Control_c, 0, 64, 0
2, 963504, Note_on_c, 0, 88, 38
2, 963531, Control_c, 0, 64, 127
2, 963558, Note_off_c, 0, 84, 64
2, 963560, Note_on_c, 0, 94, 44
2, 963621, Note_off_c, 0, 88, 64
2, 963632, Note_on_c, 0, 91, 45
2, 963664, Note_off_c, 0, 94, 64
2, 963694, Control_c, 0, 64, 0
2, 963724, Note_off_c, 0, 91, 64
2, 963732, Note_on_c, 0, 93, 54
2, 963737, Note_on_c, 0, 53, 47
2, 963755, Note_off_c, 0, 67, 64
2, 963773, Control_c, 0, 64, 127
2, 963807, Note_off_c, 0, 60, 64
2, 963810, Note_on_c, 0, 89, 42
2, 963821, Control_c, 0, 64, 0
2, 963844, Note_off_c, 0, 93, 64
2, 963884, Note_on_c, 0, 84, 48
2, 963886, Note_off_c, 0, 89, 64
2, 963896, Note_on_c, 0, 60, 48
2, 963909, Note_off_c, 0, 53, 64
2, 963922, Note_off_c, 0, 84, 64
2, 963952, Note_off_c, 0, 60, 64
2, 963960, Note_on_c, 0, 65, 50
2, 963969, Note_on_c, 0, 81, 51
2, 964034, Note_off_c, 0, 81, 64
2, 964040, Control_c, 0, 64, 0
2, 964050, Note_on_c, 0, 77, 42
2, 964058, Note_on_c, 0, 69, 38
2, 964061, Note_off_c, 0, 65, 64
2, 964108, Note_off_c, 0, 77, 64
2, 964124, Note_on_c, 0, 72, 49
2, 964204, Note_on_c, 0, 67, 45
2, 964207, Note_on_c, 0, 82, 45
2, 964211, Note_off_c, 0, 69, 64
2, 964211, Note_on_c, 0, 60, 45
2, 964217, Note_on_c, 0, 76, 39
2, 964230, Control_c, 0, 64, 127
2, 964242, Note_off_c, 0, 67, 64
2, 964254, Note_off_c, 0, 60, 64
2, 964285, Note_off_c, 0, 76, 64
2, 964288, Note_off_c, 0, 82, 64
2, 964293, Note_on_c, 0, 79, 39
2, 964313, Note_off_c, 0, 72, 64
2, 964362, Control_c, 0, 64, 0
2, 964376, Note_on_c, 0, 81, 45
2, 964381, Note_off_c, 0, 79, 64
2, 964387, Note_on_c, 0, 41, 51
2, 964414, Control_c, 0, 64, 127
2, 964450, Note_on_c, 0, 77, 45
2, 964488, Note_off_c, 0, 81, 64
2, 964519, Note_on_c, 0, 72, 46
2, 964523, Note_off_c, 0, 77, 64
2, 964527, Note_on_c, 0, 48, 48
2, 964540, Note_off_c, 0, 41, 64
2, 964560, Note_off_c, 0, 72, 64
2, 964575, Note_off_c, 0, 48, 64
2, 964592, Note_on_c, 0, 53, 31
2, 964603, Note_on_c, 0, 69, 50
2, 964640, Control_c, 0, 64, 0
2, 964683, Note_on_c, 0, 57, 43
2, 964688, Note_on_c, 0, 65, 38
2, 964697, Note_off_c, 0, 69, 64
2, 964701, Note_off_c, 0, 53, 64
2, 964703, Control_c, 0, 64, 127
2, 964749, Note_off_c, 0, 65, 64
2, 964754, Note_on_c, 0, 60, 48
2, 964815, Control_c, 0, 64, 0
2, 964836, Note_on_c, 0, 70, 43
2, 964843, Note_on_c, 0, 64, 42
2, 964843, Note_on_c, 0, 55, 42
2, 964843, Note_on_c, 0, 48, 42
2, 964844, Note_off_c, 0, 57, 64
2, 964875, Note_off_c, 0, 60, 64
2, 964893, Note_off_c, 0, 48, 64
2, 964916, Note_on_c, 0, 67, 48
2, 964920, Note_off_c, 0, 70, 64
2, 964923, Note_off_c, 0, 64, 64
2, 964998, Note_on_c, 0, 69, 49
2, 965002, Note_off_c, 0, 67, 64
2, 965006, Note_on_c, 0, 41, 40
2, 965011, Control_c, 0, 64, 127
2, 965016, Note_off_c, 0, 55, 64
2, 965080, Note_on_c, 0, 65, 44
2, 965101, Note_off_c, 0, 69, 64
2, 965145, Note_off_c, 0, 65, 64
2, 965157, Note_on_c, 0, 48, 47
2, 965160, Note_on_c, 0, 60, 22
2, 965181, Note_off_c, 0, 41, 64
2, 965224, Note_on_c, 0, 57, 48
2, 965230, Note_off_c, 0, 60, 64
2, 965235, Note_off_c, 0, 48, 64
2, 965244, Note_on_c, 0, 53, 44
2, 965276, Note_off_c, 0, 57, 64
2, 965311, Note_on_c, 0, 60, 46
2, 965314, Note_on_c, 0, 57, 50
2, 965339, Note_off_c, 0, 53, 64
2, 965390, Note_off_c, 0, 60, 64
2, 965400, Note_on_c, 0, 65, 40
2, 965449, Control_c, 0, 64, 0
2, 965477, Note_on_c, 0, 70, 45
2, 965484, Note_on_c, 0, 64, 27
2, 965487, Note_on_c, 0, 48, 39
2, 965490, Note_on_c, 0, 55, 42
2, 965499, Note_off_c, 0, 65, 64
2, 965504, Note_off_c, 0, 57, 64
2, 965518, Control_c, 0, 64, 127
2, 965561, Note_off_c, 0, 48, 64
2, 965564, Note_on_c, 0, 67, 45
2, 965566, Note_off_c, 0, 64, 64
2, 965568, Note_off_c, 0, 70, 64
2, 965583, Note_off_c, 0, 55, 64
2, 965642, Control_c, 0, 64, 0
2, 965650, Note_off_c, 0, 67, 64
2, 965654, Note_on_c, 0, 69, 47
2, 965688, Note_on_c, 0, 41, 40
2, 965704, Control_c, 0, 64, 127
2, 965743, Note_on_c, 0, 65, 44
2, 965773, Note_off_c, 0, 69, 64
2, 965810, Note_on_c, 0, 48, 44
2, 965812, Note_off_c, 0, 65, 64
2, 965817, Note_on_c, 0, 60, 36
2, 965831, Note_off_c, 0, 41, 64
2, 965877, Note_off_c, 0, 48, 64
2, 965885, Note_on_c, 0, 57, 46
2, 965898, Note_on_c, 0, 53, 45
2, 965903, Note_off_c, 0, 60, 64
2, 965939, Note_off_c, 0, 57, 64
2, 965947, Control_c, 0, 64, 0
2, 965976, Note_on_c, 0, 57, 42
2, 965983, Note_on_c, 0, 60, 42
2, 965999, Note_off_c, 0, 53, 64
2, 966010, Control_c, 0, 64, 127
2, 966072, Note_on_c, 0, 65, 39
2, 966076, Note_off_c, 0, 60, 64
2, 966151, Note_off_c, 0, 57, 64
2, 966159, Note_on_c, 0, 55, 42
2, 966159, Note_on_c, 0, 48, 42
2, 966166, Note_on_c, 0, 70, 45
2, 966166, Note_on_c, 0, 64, 19
2, 966170, Note_off_c, 0, 65, 64
2, 966196, Note_off_c, 0, 48, 64
2, 966217, Note_off_c, 0, 55, 64
2, 966264, Note_off_c, 0, 64, 64
2, 966266, Note_on_c, 0, 67, 50
2, 966274, Note_off_c, 0, 70, 64
2, 966350, Control_c, 0, 64, 0
2, 966386, Note_on_c, 0, 41, 45
2, 966388, Note_off_c, 0, 67, 64
2, 966391, Note_on_c, 0, 69, 47
2, 966430, Control_c, 0, 64, 127
2, 966485, Note_on_c, 0, 65, 37
2, 966497, Note_off_c, 0, 69, 64
2, 966561, Note_off_c, 0, 65, 64
2, 966575, Note_on_c, 0, 60, 36
2, 966658, Note_off_c, 0, 60, 64
2, 966662, Note_on_c, 0, 57, 24
2, 966662, Note_on_c, 0, 48, 44
2, 966688, Note_off_c, 0, 41, 64
2, 966752, Note_on_c, 0, 60, 48
2, 966752, Note_on_c, 0, 53, 45
2, 966772, Note_off_c, 0, 48, 64
2, 966772, Note_off_c, 0, 57, 64
2, 966824, Note_off_c, 0, 53, 64
2, 966824, Note_off_c, 0, 60, 64
2, 966833, Note_on_c, 0, 65, 44
2, 966840, Note_on_c, 0, 57, 23
2, 966920, Note_on_c, 0, 60, 48
2, 966922, Note_on_c, 0, 69, 45
2, 966929, Note_off_c, 0, 65, 64
2, 966932, Note_off_c, 0, 57, 64
2, 967000, Note_on_c, 0, 65, 23
2, 967003, Note_on_c, 0, 72, 57
2, 967030, Note_off_c, 0, 60, 64
2, 967032, Note_off_c, 0, 69, 64
2, 967095, Note_on_c, 0, 77, 44
2, 967096, Note_on_c, 0, 69, 48
2, 967114, Note_off_c, 0, 65, 64
2, 967126, Note_off_c, 0, 72, 64
2, 967174, Note_off_c, 0, 77, 64
2, 967175, Note_off_c, 0, 69, 64
2, 967176, Note_on_c, 0, 75, 46
2, 967179, Note_on_c, 0, 81, 51
2, 967272, Note_on_c, 0, 69, 2
2, 967276, Note_on_c, 0, 84, 51
2, 967296, Note_off_c, 0, 81, 64
2, 967360, Note_on_c, 0, 65, 23
2, 967363, Note_on_c, 0, 89, 48
2, 967400, Note_off_c, 0, 69, 64
2, 967404, Note_off_c, 0, 84, 64
2, 967464, Note_on_c, 0, 93, 49
2, 967466, Note_off_c, 0, 65, 64
2, 967469, Note_off_c, 0, 89, 64
2, 967472, Note_on_c, 0, 60, 33
2, 967560, Note_on_c, 0, 57, 43
2, 967571, Note_on_c, 0, 84, 42
2, 967613, Note_off_c, 0, 93, 64
2, 967621, Note_off_c, 0, 60, 64
2, 967688, Note_on_c, 0, 89, 48
2, 967688, Note_on_c, 0, 53, 46
2, 967704, Note_off_c, 0, 57, 64
2, 967715, Note_off_c, 0, 84, 64
2, 967800, Note_on_c, 0, 48, 37
2, 967811, Note_on_c, 0, 81, 53
2, 967837, Note_off_c, 0, 53, 64
2, 967837, Note_off_c, 0, 89, 64
2, 967970, Note_off_c, 0, 48, 64
2, 967981, Note_off_c, 0, 81, 64
2, 968069, Note_on_c, 0, 101, 29
2, 968079, Note_on_c, 0, 41, 30
2, 968592, Note_off_c, 0, 41, 64
2, 968622, Note_off_c, 0, 101, 64
2, 968643, Note_off_c, 0, 75, 64
2, 969775, Control_c, 0, 64, 127
2, 969828, Control_c, 0, 64, 0
2, 969922, Control_c, 0, 64, 127
2, 970029, Note_on_c, 0, 38, 75
2, 970102, Note_on_c, 0, 45, 62
2, 970107, Note_off_c, 0, 38, 64
2, 970175, Note_on_c, 0, 53, 60
2, 970179, Note_off_c, 0, 45, 64
2, 970238, Note_on_c, 0, 38, 57
2, 970243, Note_off_c, 0, 53, 64
2, 970263, Note_off_c, 0, 38, 64
2, 970316, Note_on_c, 0, 57, 64
2, 970353, Note_off_c, 0, 57, 64
2, 970462, Note_on_c, 0, 38, 85
2, 970477, Control_c, 0, 64, 0
2, 970515, Control_c, 0, 64, 127
2, 970536, Note_on_c, 0, 45, 59
2, 970549, Note_off_c, 0, 38, 64
2, 970603, Note_on_c, 0, 53, 58
2, 970608, Note_off_c, 0, 45, 64
2, 970666, Note_on_c, 0, 38, 60
2, 970670, Note_off_c, 0, 53, 64
2, 970691, Note_off_c, 0, 38, 64
2, 970744, Note_on_c, 0, 57, 54
2, 970806, Note_off_c, 0, 57, 64
2, 970888, Control_c, 0, 64, 0
2, 970890, Note_on_c, 0, 38, 85
2, 970932, Control_c, 0, 64, 127
2, 970964, Note_on_c, 0, 45, 54
2, 970991, Note_off_c, 0, 38, 64
2, 971032, Note_on_c, 0, 53, 56
2, 971033, Note_off_c, 0, 45, 64
2, 971103, Note_on_c, 0, 38, 63
2, 971105, Note_off_c, 0, 53, 64
2, 971126, Note_off_c, 0, 38, 64
2, 971179, Note_on_c, 0, 57, 52
2, 971223, Note_off_c, 0, 57, 64
2, 971321, Control_c, 0, 64, 0
2, 971324, Note_on_c, 0, 38, 80
2, 971350, Control_c, 0, 64, 127
2, 971395, Note_on_c, 0, 45, 54
2, 971406, Note_off_c, 0, 38, 64
2, 971464, Note_off_c, 0, 45, 64
2, 971467, Note_on_c, 0, 53, 48
2, 971535, Note_on_c, 0, 38, 52
2, 971538, Note_off_c, 0, 53, 64
2, 971558, Note_off_c, 0, 38, 64
2, 971616, Note_on_c, 0, 57, 53
2, 971656, Note_off_c, 0, 57, 64
2, 971756, Control_c, 0, 64, 0
2, 971763, Note_on_c, 0, 69, 66
2, 971766, Note_on_c, 0, 38, 67
2, 971797, Control_c, 0, 64, 127
2, 971830, Note_off_c, 0, 38, 64
2, 971834, Note_on_c, 0, 45, 44
2, 971898, Note_off_c, 0, 45, 64
2, 971909, Note_on_c, 0, 53, 30
2, 971962, Note_on_c, 0, 38, 42
2, 971974, Note_off_c, 0, 53, 64
2, 971985, Note_off_c, 0, 38, 64
2, 972036, Note_on_c, 0, 65, 63
2, 972041, Note_off_c, 0, 69, 64
2, 972043, Note_on_c, 0, 57, 28
2, 972093, Note_off_c, 0, 57, 64
2, 972172, Control_c, 0, 64, 0
2, 972186, Note_on_c, 0, 62, 64
2, 972190, Note_on_c, 0, 38, 59
2, 972198, Note_off_c, 0, 65, 64
2, 972204, Control_c, 0, 64, 127
2, 972250, Note_off_c, 0, 38, 64
2, 972250, Note_on_c, 0, 45, 51
2, 972316, Note_off_c, 0, 45, 64
2, 972318, Note_on_c, 0, 53, 47
2, 972378, Note_off_c, 0, 53, 64
2, 972389, Note_on_c, 0, 38, 36
2, 972416, Note_off_c, 0, 38, 64
2, 972467, Note_on_c, 0, 57, 54
2, 972526, Note_off_c, 0, 57, 64
2, 972610, Control_c, 0, 64, 0
2, 972620, Note_on_c, 0, 38, 63
2, 972648, Control_c, 0, 64, 127
2, 972678, Note_off_c, 0, 38, 64
2, 972682, Note_on_c, 0, 45, 45
2, 972749, Note_on_c, 0, 53, 39
2, 972756, Note_off_c, 0, 45, 64
2, 972803, Note_off_c, 0, 53, 64
2, 972810, Note_on_c, 0, 38, 48
2, 972836, Note_off_c, 0, 38, 64
2, 972890, Note_on_c, 0, 57, 45
2, 972943, Note_off_c, 0, 57, 64
2, 973022, Control_c, 0, 64, 0
2, 973034, Note_on_c, 0, 38, 63
2, 973037, Note_on_c, 0, 65, 65
2, 973040, Note_off_c, 0, 62, 64
2, 973060, Control_c, 0, 64, 127
2, 973092, Note_on_c, 0, 45, 52
2, 973101, Note_off_c, 0, 38, 64
2, 973153, Note_on_c, 0, 69, 63
2, 973156, Note_off_c, 0, 45, 64
2, 973156, Note_on_c, 0, 53, 52
2, 973165, Note_off_c, 0, 65, 64
2, 973225, Note_off_c, 0, 53, 64
2, 973229, Note_on_c, 0, 38, 53
2, 973259, Note_off_c, 0, 38, 64
2, 973263, Note_off_c, 0, 69, 64
2, 973302, Note_on_c, 0, 57, 62
2, 973385, Note_on_c, 0, 74, 66
2, 973392, Note_off_c, 0, 57, 64
2, 973456, Note_on_c, 0, 72, 63
2, 973460, Note_on_c, 0, 38, 67
2, 973465, Control_c, 0, 64, 0
2, 973468, Note_off_c, 0, 74, 64
2, 973499, Control_c, 0, 64, 127
2, 973521, Note_off_c, 0, 38, 64
2, 973524, Note_on_c, 0, 45, 29
2, 973574, Note_on_c, 0, 53, 32
2, 973581, Note_off_c, 0, 45, 64
2, 973631, Note_off_c, 0, 53, 64
2, 973638, Note_on_c, 0, 38, 49
2, 973664, Note_off_c, 0, 38, 64
2, 973710, Note_on_c, 0, 57, 45
2, 973760, Note_off_c, 0, 57, 64
2, 973837, Control_c, 0, 64, 0
2, 973840, Note_on_c, 0, 38, 64
2, 973868, Control_c, 0, 64, 127
2, 973894, Note_on_c, 0, 45, 48
2, 973898, Note_off_c, 0, 38, 64
2, 973963, Note_on_c, 0, 53, 43
2, 973971, Note_off_c, 0, 45, 64
2, 974013, Note_off_c, 0, 53, 64
2, 974028, Note_on_c, 0, 38, 52
2, 974049, Note_off_c, 0, 38, 64
2, 974100, Note_on_c, 0, 57, 44
2, 974133, Note_off_c, 0, 57, 64
2, 974152, Note_on_c, 0, 70, 62
2, 974171, Note_off_c, 0, 72, 64
2, 974237, Note_on_c, 0, 69, 65
2, 974239, Note_on_c, 0, 38, 53
2, 974245, Note_off_c, 0, 70, 64
2, 974260, Control_c, 0, 64, 0
2, 974296, Note_on_c, 0, 45, 43
2, 974300, Control_c, 0, 64, 127
2, 974308, Note_off_c, 0, 38, 64
2, 974362, Note_off_c, 0, 45, 64
2, 974362, Note_on_c, 0, 53, 47
2, 974403, Note_off_c, 0, 69, 64
2, 974417, Note_off_c, 0, 53, 64
2, 974417, Note_on_c, 0, 38, 44
2, 974444, Note_off_c, 0, 38, 64
2, 974500, Note_on_c, 0, 57, 55
2, 974535, Note_off_c, 0, 57, 64
2, 974631, Note_on_c, 0, 38, 64
2, 974643, Control_c, 0, 64, 0
2, 974682, Control_c, 0, 64, 127
2, 974695, Note_on_c, 0, 45, 52
2, 974727, Note_off_c, 0, 38, 64
2, 974762, Note_on_c, 0, 53, 52
2, 974772, Note_off_c, 0, 45, 64
2, 974821, Note_off_c, 0, 53, 64
2, 974826, Note_on_c, 0, 38, 53
2, 974849, Note_off_c, 0, 38, 64
2, 974901, Note_on_c, 0, 57, 56
2, 974936, Note_off_c, 0, 57, 64
2, 974973, Note_on_c, 0, 69, 68
2, 975015, Note_off_c, 0, 69, 64
2, 975068, Note_on_c, 0, 69, 76
2, 975072, Note_on_c, 0, 38, 64
2, 975079, Control_c, 0, 64, 0
2, 975122, Control_c, 0, 64, 127
2, 975132, Note_off_c, 0, 38, 64
2, 975133, Note_on_c, 0, 45, 47
2, 975196, Note_on_c, 0, 53, 48
2, 975202, Note_off_c, 0, 45, 64
2, 975252, Note_on_c, 0, 38, 36
2, 975253, Note_off_c, 0, 53, 64
2, 975277, Note_off_c, 0, 38, 64
2, 975326, Note_on_c, 0, 57, 46
2, 975364, Note_off_c, 0, 57, 64
2, 975382, Note_on_c, 0, 65, 58
2, 975389, Note_off_c, 0, 69, 64
2, 975431, Note_on_c, 0, 62, 54
2, 975438, Note_off_c, 0, 65, 64
2, 975449, Note_on_c, 0, 64, 50
2, 975458, Note_off_c, 0, 62, 64
2, 975468, Note_on_c, 0, 65, 53
2, 975474, Note_off_c, 0, 64, 64
2, 975487, Control_c, 0, 64, 0
2, 975489, Note_on_c, 0, 64, 72
2, 975494, Note_on_c, 0, 38, 64
2, 975495, Note_off_c, 0, 65, 64
2, 975544, Control_c, 0, 64, 127
2, 975564, Note_on_c, 0, 45, 49
2, 975576, Note_off_c, 0, 38, 64
2, 975635, Note_off_c, 0, 45, 64
2, 975635, Note_on_c, 0, 62, 60
2, 975638, Note_on_c, 0, 53, 43
2, 975640, Note_off_c, 0, 64, 64
2, 975696, Note_on_c, 0, 38, 52
2, 975703, Note_off_c, 0, 53, 64
2, 975722, Note_off_c, 0, 38, 64
2, 975772, Note_on_c, 0, 57, 54
2, 975822, Note_off_c, 0, 57, 64
2, 975910, Control_c, 0, 64, 0
2, 975915, Note_on_c, 0, 38, 69
2, 975949, Control_c, 0, 64, 127
2, 975961, Note_off_c, 0, 62, 64
2, 975972, Note_on_c, 0, 45, 56
2, 975986, Note_off_c, 0, 38, 64
2, 976042, Note_on_c, 0, 53, 47
2, 976054, Note_off_c, 0, 45, 64
2, 976089, Note_off_c, 0, 53, 64
2, 976094, Note_on_c, 0, 38, 52
2, 976120, Note_off_c, 0, 38, 64
2, 976181, Note_on_c, 0, 65, 69
2, 976187, Note_on_c, 0, 57, 49
2, 976221, Note_off_c, 0, 57, 64
2, 976306, Control_c, 0, 64, 0
2, 976313, Note_on_c, 0, 69, 68
2, 976313, Note_on_c, 0, 38, 65
2, 976317, Note_off_c, 0, 65, 64
2, 976358, Control_c, 0, 64, 127
2, 976366, Note_on_c, 0, 45, 44
2, 976376, Note_off_c, 0, 38, 64
2, 976436, Note_on_c, 0, 74, 68
2, 976439, Note_on_c, 0, 53, 53
2, 976441, Note_off_c, 0, 69, 64
2, 976448, Note_off_c, 0, 45, 64
2, 976497, Note_off_c, 0, 53, 64
2, 976500, Note_on_c, 0, 38, 46
2, 976510, Note_off_c, 0, 74, 64
2, 976532, Note_off_c, 0, 38, 64
2, 976580, Note_on_c, 0, 57, 57
2, 976614, Note_off_c, 0, 57, 64
2, 976644, Note_on_c, 0, 77, 68
2, 976728, Note_on_c, 0, 76, 80
2, 976736, Note_on_c, 0, 38, 55
2, 976740, Note_off_c, 0, 77, 64
2, 976748, Control_c, 0, 64, 0
2, 976792, Note_off_c, 0, 38, 64
2, 976793, Control_c, 0, 64, 127
2, 976797, Note_on_c, 0, 45, 31
2, 976849, Note_on_c, 0, 53, 49
2, 976861, Note_off_c, 0, 45, 64
2, 976894, Note_off_c, 0, 53, 64
2, 976906, Note_on_c, 0, 38, 40
2, 976930, Note_off_c, 0, 38, 64
2, 976977, Note_on_c, 0, 57, 54
2, 977011, Note_off_c, 0, 57, 64
2, 977107, Note_on_c, 0, 38, 59
2, 977113, Control_c, 0, 64, 0
2, 977146, Control_c, 0, 64, 127
2, 977175, Note_on_c, 0, 45, 53
2, 977180, Note_off_c, 0, 38, 64
2, 977239, Note_on_c, 0, 53, 48
2, 977248, Note_off_c, 0, 45, 64
2, 977296, Note_off_c, 0, 53, 64
2, 977299, Note_on_c, 0, 38, 44
2, 977325, Note_off_c, 0, 38, 64
2, 977367, Note_on_c, 0, 57, 45
2, 977401, Note_off_c, 0, 57, 64
2, 977429, Note_on_c, 0, 74, 63
2, 977440, Note_off_c, 0, 76, 64
2, 977503, Control_c, 0, 64, 0
2, 977512, Note_on_c, 0, 69, 62
2, 977512, Note_on_c, 0, 38, 62
2, 977518, Note_off_c, 0, 74, 64
2, 977541, Control_c, 0, 64, 127
2, 977576, Note_on_c, 0, 45, 49
2, 977591, Note_off_c, 0, 38, 64
2, 977640, Note_on_c, 0, 53, 45
2, 977655, Note_off_c, 0, 45, 64
2, 977694, Note_on_c, 0, 38, 44
2, 977699, Note_off_c, 0, 53, 64
2, 977722, Note_off_c, 0, 38, 64
2, 977756, Note_on_c, 0, 57, 58
2, 977760, Note_off_c, 0, 69, 64
2, 977786, Note_off_c, 0, 57, 64
2, 977800, Note_on_c, 0, 69, 60
2, 977841, Note_on_c, 0, 71, 62
2, 977862, Note_off_c, 0, 69, 64
2, 977878, Control_c, 0, 64, 0
2, 977889, Note_on_c, 0, 38, 63
2, 977893, Note_on_c, 0, 72, 64
2, 977904, Note_off_c, 0, 71, 64
2, 977915, Control_c, 0, 64, 127
2, 977942, Note_off_c, 0, 38, 64
2, 977946, Note_on_c, 0, 71, 69
2, 977947, Note_on_c, 0, 43, 43
2, 977956, Note_off_c, 0, 72, 64
2, 977988, Note_on_c, 0, 72, 68
2, 977996, Note_off_c, 0, 71, 64
2, 977999, Note_off_c, 0, 43, 64
2, 978007, Note_on_c, 0, 53, 41
2, 978018, Note_on_c, 0, 71, 64
2, 978024, Note_off_c, 0, 72, 64
2, 978044, Note_on_c, 0, 72, 68
2, 978050, Note_off_c, 0, 71, 64
2, 978060, Note_on_c, 0, 38, 44
2, 978067, Note_on_c, 0, 71, 68
2, 978071, Note_off_c, 0, 72, 64
2, 978076, Note_off_c, 0, 53, 64
2, 978090, Note_on_c, 0, 72, 64
2, 978094, Note_off_c, 0, 38, 64
2, 978109, Note_off_c, 0, 72, 64
2, 978122, Note_on_c, 0, 55, 36
2, 978130, Note_on_c, 0, 72, 64
2, 978131, Note_off_c, 0, 71, 64
2, 978143, Note_off_c, 0, 72, 64
2, 978146, Note_on_c, 0, 71, 68
2, 978163, Note_on_c, 0, 72, 56
2, 978166, Note_off_c, 0, 71, 64
2, 978166, Note_off_c, 0, 55, 64
2, 978172, Note_off_c, 0, 72, 64
2, 978177, Note_on_c, 0, 71, 60
2, 978187, Note_on_c, 0, 72, 59
2, 978192, Note_off_c, 0, 71, 64
2, 978206, Note_on_c, 0, 71, 63
2, 978212, Note_off_c, 0, 72, 64
2, 978226, Note_on_c, 0, 69, 58
2, 978229, Note_off_c, 0, 71, 64
2, 978246, Note_on_c, 0, 71, 68
2, 978254, Control_c, 0, 64, 0
2, 978270, Note_off_c, 0, 69, 64
2, 978274, Note_on_c, 0, 72, 68
2, 978274, Note_on_c, 0, 36, 76
2, 978300, Control_c, 0, 64, 127
2, 978324, Note_off_c, 0, 71, 64
2, 978331, Note_off_c, 0, 36, 64
2, 978333, Note_on_c, 0, 45, 38
2, 978389, Note_off_c, 0, 45, 64
2, 978389, Note_on_c, 0, 53, 54
2, 978443, Note_off_c, 0, 53, 64
2, 978454, Note_on_c, 0, 36, 54
2, 978475, Note_off_c, 0, 36, 64
2, 978520, Note_on_c, 0, 57, 66
2, 978540, Note_off_c, 0, 57, 64
2, 978640, Note_off_c, 0, 72, 64
2, 978642, Note_on_c, 0, 36, 66
2, 978643, Note_on_c, 0, 70, 66
2, 978650, Control_c, 0, 64, 0
2, 978695, Control_c, 0, 64, 127
2, 978701, Note_on_c, 0, 45, 52
2, 978717, Note_off_c, 0, 36, 64
2, 978763, Note_off_c, 0, 45, 64
2, 978766, Note_on_c, 0, 53, 38
2, 978819, Note_on_c, 0, 36, 52
2, 978831, Note_off_c, 0, 53, 64
2, 978846, Note_off_c, 0, 36, 64
2, 978881, Note_on_c, 0, 69, 57
2, 978885, Note_off_c, 0, 70, 64
2, 978887, Note_on_c, 0, 57, 52
2, 978914, Note_off_c, 0, 57, 64
2, 979009, Note_on_c, 0, 36, 68
2, 979013, Note_on_c, 0, 67, 59
2, 979016, Control_c, 0, 64, 0
2, 979023, Note_off_c, 0, 69, 64
2, 979046, Control_c, 0, 64, 127
2, 979074, Note_off_c, 0, 36, 64
2, 979075, Note_on_c, 0, 43, 44
2, 979085, Note_on_c, 0, 69, 56
2, 979099, Note_off_c, 0, 67, 64
2, 979122, Note_off_c, 0, 43, 64
2, 979134, Note_on_c, 0, 67, 63
2, 979139, Note_on_c, 0, 53, 28
2, 979144, Note_off_c, 0, 69, 64
2, 979163, Note_on_c, 0, 69, 58
2, 979167, Note_off_c, 0, 67, 64
2, 979172, Note_off_c, 0, 53, 64
2, 979175, Note_on_c, 0, 36, 52
2, 979184, Note_on_c, 0, 67, 52
2, 979187, Note_off_c, 0, 69, 64
2, 979198, Note_off_c, 0, 36, 64
2, 979202, Note_off_c, 0, 67, 64
2, 979206, Note_on_c, 0, 69, 60
2, 979220, Note_on_c, 0, 67, 66
2, 979221, Note_off_c, 0, 69, 64
2, 979237, Note_on_c, 0, 55, 44
2, 979241, Note_off_c, 0, 67, 64
2, 979248, Note_on_c, 0, 69, 64
2, 979264, Note_on_c, 0, 67, 63
2, 979265, Note_off_c, 0, 55, 64
2, 979271, Note_off_c, 0, 69, 64
2, 979281, Note_off_c, 0, 67, 64
2, 979283, Note_on_c, 0, 67, 64
2, 979307, Note_off_c, 0, 67, 64
2, 979308, Note_on_c, 0, 65, 58
2, 979331, Note_on_c, 0, 67, 60
2, 979346, Note_off_c, 0, 65, 64
2, 979359, Control_c, 0, 64, 0
2, 979371, Note_on_c, 0, 36, 61
2, 979373, Note_on_c, 0, 69, 65
2, 979376, Note_off_c, 0, 67, 64
2, 979391, Control_c, 0, 64, 127
2, 979431, Note_on_c, 0, 43, 54
2, 979443, Note_off_c, 0, 36, 64
2, 979492, Note_off_c, 0, 43, 64
2, 979498, Note_on_c, 0, 53, 44
2, 979546, Note_on_c, 0, 36, 52
2, 979554, Note_off_c, 0, 53, 64
2, 979576, Note_off_c, 0, 36, 64
2, 979613, Note_on_c, 0, 55, 54
2, 979648, Note_off_c, 0, 55, 64
2, 979668, Note_on_c, 0, 65, 63
2, 979674, Note_off_c, 0, 69, 64
2, 979747, Note_on_c, 0, 36, 71
2, 979749, Note_on_c, 0, 60, 63
2, 979751, Control_c, 0, 64, 0
2, 979757, Note_off_c, 0, 65, 64
2, 979791, Control_c, 0, 64, 127
2, 979810, Note_on_c, 0, 46, 44
2, 979823, Note_off_c, 0, 36, 64
2, 979871, Note_off_c, 0, 46, 64
2, 979878, Note_on_c, 0, 53, 56
2, 979936, Note_on_c, 0, 36, 52
2, 979956, Note_off_c, 0, 53, 64
2, 979969, Note_off_c, 0, 36, 64
2, 980004, Note_on_c, 0, 55, 63
2, 980048, Note_off_c, 0, 55, 64
2, 980127, Note_on_c, 0, 36, 72
2, 980129, Control_c, 0, 64, 0
2, 980168, Control_c, 0, 64, 127
2, 980184, Note_on_c, 0, 46, 56
2, 980208, Note_off_c, 0, 36, 64
2, 980249, Note_on_c, 0, 53, 49
2, 980254, Note_off_c, 0, 46, 64
2, 980309, Note_on_c, 0, 36, 31
2, 980314, Note_off_c, 0, 53, 64
2, 980343, Note_off_c, 0, 36, 64
2, 980383, Note_on_c, 0, 55, 34
2, 980426, Note_off_c, 0, 55, 64
2, 980438, Note_off_c, 0, 60, 64
2, 980476, Note_on_c, 0, 36, 66
2, 980480, Note_on_c, 0, 60, 68
2, 980511, Control_c, 0, 64, 0
2, 980551, Control_c, 0, 64, 127
2, 980555, Note_off_c, 0, 60, 64
2, 980562, Note_on_c, 0, 46, 54
2, 980564, Note_off_c, 0, 36, 64
2, 980568, Note_on_c, 0, 62, 46
2, 980605, Note_off_c, 0, 62, 64
2, 980605, Note_on_c, 0, 60, 52
2, 980616, Note_off_c, 0, 46, 64
2, 980624, Note_on_c, 0, 52, 39
2, 980632, Note_on_c, 0, 59, 59
2, 980638, Note_off_c, 0, 60, 64
2, 980657, Note_off_c, 0, 59, 64
2, 980661, Note_on_c, 0, 36, 52
2, 980663, Note_off_c, 0, 52, 64
2, 980663, Note_on_c, 0, 60, 60
2, 980688, Note_on_c, 0, 62, 56
2, 980694, Note_off_c, 0, 36, 64
2, 980699, Note_off_c, 0, 60, 64
2, 980714, Note_on_c, 0, 64, 51
2, 980727, Note_off_c, 0, 62, 64
2, 980730, Note_on_c, 0, 55, 34
2, 980738, Note_off_c, 0, 64, 64
2, 980744, Note_on_c, 0, 65, 54
2, 980764, Note_off_c, 0, 55, 64
2, 980767, Note_on_c, 0, 67, 53
2, 980785, Note_off_c, 0, 65, 64
2, 980791, Note_on_c, 0, 69, 33
2, 980804, Note_on_c, 0, 70, 63
2, 980809, Note_off_c, 0, 67, 64
2, 980820, Note_off_c, 0, 69, 64
2, 980835, Note_on_c, 0, 72, 66
2, 980840, Control_c, 0, 64, 0
2, 980846, Note_off_c, 0, 70, 64
2, 980858, Note_on_c, 0, 74, 67
2, 980859, Note_off_c, 0, 72, 64
2, 980881, Note_on_c, 0, 76, 51
2, 980887, Note_off_c, 0, 74, 64
2, 980892, Note_on_c, 0, 36, 48
2, 980910, Note_off_c, 0, 76, 64
2, 980912, Control_c, 0, 64, 127
2, 980922, Note_on_c, 0, 77, 58
2, 980937, Note_on_c, 0, 79, 62
2, 980944, Note_on_c, 0, 46, 31
2, 980946, Note_off_c, 0, 77, 64
2, 980949, Note_off_c, 0, 36, 64
2, 980972, Note_on_c, 0, 81, 51
2, 980976, Note_off_c, 0, 79, 64
2, 980984, Note_on_c, 0, 52, 26
2, 980986, Note_off_c, 0, 46, 64
2, 980991, Note_on_c, 0, 82, 57
2, 981009, Note_off_c, 0, 81, 64
2, 981012, Note_off_c, 0, 52, 64
2, 981018, Note_on_c, 0, 36, 36
2, 981024, Note_off_c, 0, 82, 64
2, 981028, Note_on_c, 0, 84, 72
2, 981037, Note_off_c, 0, 36, 64
2, 981054, Note_on_c, 0, 86, 60
2, 981058, Note_off_c, 0, 84, 64
2, 981075, Note_on_c, 0, 88, 69
2, 981078, Note_on_c, 0, 55, 58
2, 981086, Note_off_c, 0, 86, 64
2, 981093, Note_off_c, 0, 88, 64
2, 981101, Note_on_c, 0, 89, 59
2, 981116, Note_on_c, 0, 91, 71
2, 981134, Note_on_c, 0, 93, 52
2, 981148, Note_off_c, 0, 89, 64
2, 981150, Note_on_c, 0, 94, 72
2, 981157, Note_off_c, 0, 91, 64
2, 981163, Note_off_c, 0, 93, 64
2, 981168, Note_off_c, 0, 94, 64
2, 981175, Note_on_c, 0, 95, 31
2, 981180, Note_on_c, 0, 96, 46
2, 981198, Note_on_c, 0, 98, 69
2, 981202, Note_off_c, 0, 95, 64
2, 981203, Note_off_c, 0, 96, 64
2, 981213, Note_on_c, 0, 100, 68
2, 981230, Control_c, 0, 64, 0
2, 981233, Note_off_c, 0, 98, 64
2, 981233, Note_off_c, 0, 55, 64
2, 981237, Note_on_c, 0, 101, 82
2, 981240, Note_on_c, 0, 41, 72
2, 981255, Note_off_c, 0, 100, 64
2, 981264, Control_c, 0, 64, 127
2, 981293, Note_off_c, 0, 41, 64
2, 981311, Note_on_c, 0, 48, 44
2, 981371, Note_on_c, 0, 57, 56
2, 981373, Note_off_c, 0, 48, 64
2, 981428, Note_off_c, 0, 57, 64
2, 981430, Note_on_c, 0, 41, 49
2, 981457, Note_off_c, 0, 41, 64
2, 981496, Note_on_c, 0, 60, 65
2, 981527, Note_off_c, 0, 60, 64
2, 981618, Note_on_c, 0, 41, 77
2, 981623, Control_c, 0, 64, 0
2, 981662, Control_c, 0, 64, 127
2, 981675, Note_on_c, 0, 48, 58
2, 981683, Note_off_c, 0, 41, 64
2, 981738, Note_on_c, 0, 57, 51
2, 981743, Note_off_c, 0, 48, 64
2, 981791, Note_off_c, 0, 57, 64
2, 981796, Note_on_c, 0, 41, 57
2, 981822, Note_off_c, 0, 41, 64
2, 981826, Note_off_c, 0, 101, 64
2, 981864, Note_on_c, 0, 60, 44
2, 981894, Note_off_c, 0, 60, 64
2, 982009, Note_on_c, 0, 71, 60
2, 982009, Note_on_c, 0, 41, 63
2, 982016, Control_c, 0, 64, 0
2, 982049, Control_c, 0, 64, 127
2, 982079, Note_on_c, 0, 51, 44
2, 982084, Note_on_c, 0, 72, 59
2, 982094, Note_off_c, 0, 71, 64
2, 982114, Note_off_c, 0, 41, 64
2, 982133, Note_off_c, 0, 51, 64
2, 982136, Note_on_c, 0, 57, 36
2, 982140, Note_on_c, 0, 71, 68
2, 982151, Note_off_c, 0, 72, 64
2, 982182, Note_off_c, 0, 57, 64
2, 982189, Note_on_c, 0, 72, 58
2, 982189, Note_on_c, 0, 41, 56
2, 982196, Note_off_c, 0, 71, 64
2, 982213, Note_off_c, 0, 41, 64
2, 982223, Note_on_c, 0, 71, 68
2, 982227, Note_off_c, 0, 72, 64
2, 982237, Note_on_c, 0, 59, 54
2, 982247, Note_off_c, 0, 71, 64
2, 982250, Note_on_c, 0, 72, 62
2, 982265, Note_off_c, 0, 72, 64
2, 982268, Note_on_c, 0, 71, 64
2, 982269, Note_off_c, 0, 59, 64
2, 982287, Note_off_c, 0, 71, 64
2, 982287, Note_on_c, 0, 72, 68
2, 982300, Note_on_c, 0, 71, 62
2, 982308, Note_off_c, 0, 72, 64
2, 982317, Note_on_c, 0, 69, 63
2, 982321, Note_off_c, 0, 71, 64
2, 982338, Note_on_c, 0, 71, 63
2, 982351, Note_off_c, 0, 69, 64
2, 982357, Control_c, 0, 64, 0
2, 982366, Note_on_c, 0, 41, 63
2, 982367, Note_on_c, 0, 72, 66
2, 982371, Note_off_c, 0, 71, 64
2, 982390, Control_c, 0, 64, 127
2, 982415, Note_off_c, 0, 41, 64
2, 982425, Note_on_c, 0, 47, 51
2, 982483, Note_off_c, 0, 47, 64
2, 982487, Note_on_c, 0, 57, 54
2, 982541, Note_on_c, 0, 41, 49
2, 982542, Note_off_c, 0, 57, 64
2, 982570, Note_off_c, 0, 41, 64
2, 982598, Note_on_c, 0, 59, 36
2, 982628, Note_off_c, 0, 59, 64
2, 982660, Note_on_c, 0, 69, 56
2, 982666, Note_off_c, 0, 72, 64
2, 982694, Control_c, 0, 64, 0
2, 982714, Note_on_c, 0, 40, 68
2, 982717, Note_on_c, 0, 64, 59
2, 982726, Note_off_c, 0, 69, 64
2, 982742, Control_c, 0, 64, 127
2, 982782, Note_off_c, 0, 64, 64
2, 982787, Note_off_c, 0, 40, 64
2, 982789, Note_on_c, 0, 48, 31
2, 982855, Note_on_c, 0, 57, 40
2, 982873, Note_off_c, 0, 48, 64
2, 982903, Note_on_c, 0, 40, 52
2, 982914, Note_off_c, 0, 57, 64
2, 982926, Note_off_c, 0, 40, 64
2, 982960, Note_on_c, 0, 89, 68
2, 982965, Note_on_c, 0, 60, 62
2, 982990, Note_off_c, 0, 60, 64
2, 983079, Control_c, 0, 64, 0
2, 983086, Note_on_c, 0, 40, 59
2, 983125, Control_c, 0, 64, 127
2, 983131, Note_on_c, 0, 88, 44
2, 983139, Note_on_c, 0, 48, 47
2, 983156, Note_off_c, 0, 89, 64
2, 983157, Note_off_c, 0, 40, 64
2, 983166, Note_on_c, 0, 84, 48
2, 983180, Note_off_c, 0, 88, 64
2, 983193, Note_on_c, 0, 81, 45
2, 983195, Note_off_c, 0, 84, 64
2, 983196, Note_on_c, 0, 57, 54
2, 983202, Note_off_c, 0, 48, 64
2, 983210, Note_off_c, 0, 81, 64
2, 983228, Note_on_c, 0, 77, 58
2, 983233, Note_on_c, 0, 40, 36
2, 983255, Note_off_c, 0, 57, 64
2, 983260, Note_off_c, 0, 40, 64
2, 983260, Note_on_c, 0, 76, 23
2, 983276, Note_on_c, 0, 72, 58
2, 983279, Note_off_c, 0, 77, 64
2, 983284, Note_on_c, 0, 60, 54
2, 983286, Note_off_c, 0, 76, 64
2, 983300, Note_on_c, 0, 69, 68
2, 983304, Note_off_c, 0, 72, 64
2, 983314, Note_off_c, 0, 60, 64
2, 983320, Note_off_c, 0, 69, 64
2, 983331, Note_on_c, 0, 65, 71
2, 983353, Note_on_c, 0, 64, 68
2, 983364, Note_off_c, 0, 65, 64
2, 983380, Note_on_c, 0, 60, 64
2, 983392, Note_off_c, 0, 64, 64
2, 983400, Note_on_c, 0, 57, 68
2, 983404, Note_off_c, 0, 60, 64
2, 983424, Note_off_c, 0, 57, 64
2, 983433, Note_on_c, 0, 53, 55
2, 983455, Note_on_c, 0, 52, 58
2, 983461, Note_off_c, 0, 53, 64
2, 983470, Control_c, 0, 64, 0
2, 983473, Note_on_c, 0, 40, 82
2, 983508, Note_on_c, 0, 50, 39
2, 983509, Control_c, 0, 64, 127
2, 983535, Note_off_c, 0, 40, 64
2, 983538, Note_off_c, 0, 50, 64
2, 983540, Note_on_c, 0, 56, 41
2, 983556, Note_on_c, 0, 40, 57
2, 983561, Note_off_c, 0, 52, 64
2, 983575, Note_off_c, 0, 56, 64
2, 983586, Note_off_c, 0, 40, 64
2, 983588, Note_on_c, 0, 52, 64
2, 983592, Note_on_c, 0, 59, 54
2, 983614, Note_on_c, 0, 53, 58
2, 983618, Note_off_c, 0, 52, 64
2, 983622, Note_off_c, 0, 59, 64
2, 983635, Note_on_c, 0, 52, 60
2, 983641, Note_off_c, 0, 53, 64
2, 983656, Note_on_c, 0, 51, 66
2, 983660, Note_off_c, 0, 52, 64
2, 983681, Note_off_c, 0, 51, 64
2, 983682, Note_on_c, 0, 52, 68
2, 983701, Note_on_c, 0, 54, 64
2, 983712, Note_off_c, 0, 52, 64
2, 983728, Note_on_c, 0, 56, 28
2, 983732, Note_off_c, 0, 54, 64
2, 983750, Note_on_c, 0, 57, 51
2, 983753, Note_off_c, 0, 56, 64
2, 983774, Note_on_c, 0, 59, 64
2, 983781, Note_off_c, 0, 57, 64
2, 983787, Control_c, 0, 64, 0
2, 983796, Note_on_c, 0, 60, 68
2, 983804, Note_on_c, 0, 40, 75
2, 983805, Note_off_c, 0, 59, 64
2, 983820, Note_on_c, 0, 62, 67
2, 983821, Note_off_c, 0, 60, 64
2, 983826, Control_c, 0, 64, 127
2, 983835, Note_on_c, 0, 64, 70
2, 983843, Note_off_c, 0, 40, 64
2, 983845, Note_on_c, 0, 47, 28
2, 983847, Note_off_c, 0, 62, 64
2, 983855, Note_on_c, 0, 66, 63
2, 983877, Note_off_c, 0, 47, 64
2, 983877, Note_off_c, 0, 64, 64
2, 983879, Note_on_c, 0, 50, 43
2, 983889, Note_on_c, 0, 68, 65
2, 983899, Note_off_c, 0, 66, 64
2, 983907, Note_on_c, 0, 56, 69
2, 983911, Note_on_c, 0, 69, 68
2, 983914, Note_off_c, 0, 68, 64
2, 983917, Note_off_c, 0, 50, 64
2, 983929, Note_off_c, 0, 56, 64
2, 983932, Note_on_c, 0, 71, 67
2, 983941, Note_off_c, 0, 69, 64
2, 983954, Note_on_c, 0, 40, 58
2, 983958, Note_on_c, 0, 72, 69
2, 983967, Note_off_c, 0, 71, 64
2, 983970, Note_off_c, 0, 40, 64
2, 983973, Note_on_c, 0, 50, 54
2, 983982, Note_on_c, 0, 74, 73
2, 983983, Note_off_c, 0, 72, 64
2, 983993, Note_on_c, 0, 59, 60
2, 984004, Note_on_c, 0, 76, 56
2, 984012, Note_off_c, 0, 74, 64
2, 984016, Note_off_c, 0, 50, 64
2, 984018, Note_on_c, 0, 78, 68
2, 984032, Note_off_c, 0, 76, 64
2, 984041, Note_on_c, 0, 80, 66
2, 984051, Note_off_c, 0, 78, 64
2, 984062, Note_on_c, 0, 81, 76
2, 984066, Note_off_c, 0, 80, 64
2, 984085, Note_on_c, 0, 83, 64
2, 984090, Note_off_c, 0, 81, 64
2, 984102, Note_on_c, 0, 84, 70
2, 984108, Note_off_c, 0, 83, 64
2, 984122, Note_on_c, 0, 86, 57
2, 984127, Note_off_c, 0, 84, 64
2, 984141, Note_on_c, 0, 88, 71
2, 984148, Note_off_c, 0, 86, 64
2, 984160, Note_on_c, 0, 90, 57
2, 984180, Note_off_c, 0, 88, 64
2, 984182, Note_on_c, 0, 92, 71
2, 984198, Note_off_c, 0, 59, 64
2, 984200, Note_off_c, 0, 90, 64
2, 984202, Control_c, 0, 64, 0
2, 984208, Note_on_c, 0, 93, 82
2, 984210, Note_on_c, 0, 33, 77
2, 984222, Note_off_c, 0, 92, 64
2, 984244, Control_c, 0, 64, 127
2, 984296, Note_off_c, 0, 33, 64
2, 984299, Note_on_c, 0, 40, 53
2, 984361, Note_on_c, 0, 48, 54
2, 984367, Note_off_c, 0, 40, 64
2, 984428, Note_off_c, 0, 48, 64
2, 984428, Note_on_c, 0, 33, 53
2, 984451, Note_off_c, 0, 33, 64
2, 984493, Note_on_c, 0, 52, 56
2, 984523, Note_off_c, 0, 52, 64
2, 984626, Note_on_c, 0, 33, 81
2, 984633, Control_c, 0, 64, 0
2, 984678, Control_c, 0, 64, 127
2, 984690, Note_on_c, 0, 40, 54
2, 984708, Note_off_c, 0, 33, 64
2, 984756, Note_on_c, 0, 48, 52
2, 984765, Note_off_c, 0, 40, 64
2, 984812, Note_off_c, 0, 48, 64
2, 984816, Note_on_c, 0, 33, 52
2, 984837, Note_off_c, 0, 33, 64
2, 984886, Note_on_c, 0, 52, 63
2, 984924, Note_off_c, 0, 52, 64
2, 985018, Note_on_c, 0, 33, 80
2, 985027, Control_c, 0, 64, 0
2, 985080, Control_c, 0, 64, 127
2, 985086, Note_on_c, 0, 40, 54
2, 985114, Note_off_c, 0, 33, 64
2, 985144, Note_on_c, 0, 48, 56
2, 985147, Note_off_c, 0, 40, 64
2, 985207, Note_off_c, 0, 48, 64
2, 985215, Note_on_c, 0, 33, 52
2, 985237, Note_off_c, 0, 33, 64
2, 985282, Note_on_c, 0, 52, 60
2, 985314, Note_off_c, 0, 52, 64
2, 985410, Note_on_c, 0, 33, 82
2, 985430, Control_c, 0, 64, 0
2, 985469, Control_c, 0, 64, 127
2, 985479, Note_on_c, 0, 40, 52
2, 985490, Note_off_c, 0, 33, 64
2, 985540, Note_on_c, 0, 48, 47
2, 985544, Note_off_c, 0, 40, 64
2, 985603, Note_off_c, 0, 48, 64
2, 985607, Note_on_c, 0, 33, 44
2, 985635, Note_off_c, 0, 33, 64
2, 985636, Note_off_c, 0, 93, 64
2, 985681, Note_on_c, 0, 52, 40
2, 985699, Note_off_c, 0, 52, 64
2, 985829, Note_on_c, 0, 33, 77
2, 985831, Note_on_c, 0, 64, 81
2, 985848, Control_c, 0, 64, 0
2, 985903, Note_off_c, 0, 33, 64
2, 985904, Note_on_c, 0, 40, 49
2, 985912, Control_c, 0, 64, 127
2, 985981, Note_off_c, 0, 40, 64
2, 985981, Note_on_c, 0, 48, 54
2, 986037, Note_off_c, 0, 48, 64
2, 986039, Note_on_c, 0, 33, 51
2, 986129, Note_on_c, 0, 52, 44
2, 986130, Note_on_c, 0, 60, 77
2, 986140, Note_off_c, 0, 64, 64
2, 986145, Note_off_c, 0, 33, 64
2, 986216, Note_off_c, 0, 52, 64
2, 986281, Control_c, 0, 64, 0
2, 986289, Note_on_c, 0, 33, 71
2, 986293, Note_on_c, 0, 57, 85
2, 986301, Note_off_c, 0, 60, 64
2, 986334, Control_c, 0, 64, 127
2, 986368, Note_on_c, 0, 40, 36
2, 986373, Note_off_c, 0, 33, 64
2, 986430, Note_on_c, 0, 48, 44
2, 986440, Note_off_c, 0, 40, 64
2, 986485, Note_off_c, 0, 48, 64
2, 986487, Note_on_c, 0, 33, 43
2, 986562, Note_on_c, 0, 52, 47
2, 986580, Note_off_c, 0, 33, 64
2, 986691, Note_off_c, 0, 52, 64
2, 986699, Note_on_c, 0, 33, 80
2, 986704, Control_c, 0, 64, 0
2, 986737, Control_c, 0, 64, 127
2, 986759, Note_on_c, 0, 40, 44
2, 986766, Note_off_c, 0, 33, 64
2, 986819, Note_on_c, 0, 48, 44
2, 986829, Note_off_c, 0, 40, 64
2, 986870, Note_off_c, 0, 48, 64
2, 986875, Note_on_c, 0, 33, 63
2, 986944, Note_off_c, 0, 33, 64
2, 986944, Note_on_c, 0, 52, 43
2, 987060, Note_off_c, 0, 52, 64
2, 987061, Control_c, 0, 64, 0
2, 987065, Note_on_c, 0, 33, 68
2, 987069, Note_on_c, 0, 60, 83
2, 987079, Note_off_c, 0, 57, 64
2, 987103, Control_c, 0, 64, 127
2, 987117, Note_on_c, 0, 40, 52
2, 987131, Note_off_c, 0, 33, 64
2, 987180, Note_on_c, 0, 64, 80
2, 987182, Note_on_c, 0, 48, 48
2, 987186, Note_off_c, 0, 40, 64
2, 987186, Note_off_c, 0, 60, 64
2, 987227, Note_off_c, 0, 48, 64
2, 987245, Note_on_c, 0, 33, 51
2, 987302, Note_on_c, 0, 52, 49
2, 987313, Note_off_c, 0, 33, 64
2, 987351, Note_on_c, 0, 69, 82
2, 987353, Note_off_c, 0, 64, 64
2, 987355, Note_off_c, 0, 52, 64
2, 987422, Note_on_c, 0, 67, 83
2, 987430, Note_off_c, 0, 69, 64
2, 987432, Note_on_c, 0, 33, 77
2, 987446, Control_c, 0, 64, 0
2, 987481, Note_on_c, 0, 40, 52
2, 987485, Note_off_c, 0, 33, 64
2, 987487, Control_c, 0, 64, 127
2, 987540, Note_on_c, 0, 48, 54
2, 987545, Note_off_c, 0, 40, 64
2, 987587, Note_off_c, 0, 48, 64
2, 987594, Note_on_c, 0, 33, 58
2, 987654, Note_off_c, 0, 33, 64
2, 987659, Note_on_c, 0, 52, 54
2, 987756, Note_off_c, 0, 52, 64
2, 987777, Note_on_c, 0, 33, 80
2, 987790, Control_c, 0, 64, 0
2, 987828, Control_c, 0, 64, 127
2, 987835, Note_on_c, 0, 40, 54
2, 987843, Note_off_c, 0, 33, 64
2, 987896, Note_on_c, 0, 48, 58
2, 987905, Note_off_c, 0, 40, 64
2, 987953, Note_on_c, 0, 33, 54
2, 987964, Note_off_c, 0, 48, 64
2, 988022, Note_on_c, 0, 52, 54
2, 988035, Note_off_c, 0, 33, 64
2, 988074, Note_on_c, 0, 65, 72
2, 988087, Note_off_c, 0, 67, 64
2, 988104, Note_off_c, 0, 52, 64
2, 988132, Note_on_c, 0, 33, 71
2, 988142, Note_on_c, 0, 64, 72
2, 988150, Note_off_c, 0, 65, 64
2, 988161, Control_c, 0, 64, 0
2, 988194, Note_off_c, 0, 33, 64
2, 988195, Note_on_c, 0, 40, 44
2, 988207, Control_c, 0, 64, 127
2, 988258, Note_on_c, 0, 48, 30
2, 988269, Note_off_c, 0, 40, 64
2, 988307, Note_off_c, 0, 48, 64
2, 988312, Note_on_c, 0, 33, 58
2, 988384, Note_on_c, 0, 52, 54
2, 988399, Note_off_c, 0, 33, 64
2, 988460, Note_off_c, 0, 52, 64
2, 988500, Note_on_c, 0, 33, 68
2, 988515, Control_c, 0, 64, 0
2, 988549, Control_c, 0, 64, 127
2, 988556, Note_on_c, 0, 40, 36
2, 988566, Note_off_c, 0, 33, 64
2, 988618, Note_on_c, 0, 48, 37
2, 988633, Note_off_c, 0, 40, 64
2, 988668, Note_off_c, 0, 64, 64
2, 988669, Note_off_c, 0, 48, 64
2, 988674, Note_on_c, 0, 33, 54
2, 988737, Note_on_c, 0, 52, 51
2, 988755, Note_off_c, 0, 33, 64
2, 988795, Note_on_c, 0, 64, 81
2, 988810, Note_off_c, 0, 52, 64
2, 988823, Note_off_c, 0, 64, 64
2, 988846, Note_on_c, 0, 64, 85
2, 988849, Note_on_c, 0, 33, 68
2, 988860, Control_c, 0, 64, 0
2, 988893, Control_c, 0, 64, 127
2, 988901, Note_on_c, 0, 40, 30
2, 988905, Note_off_c, 0, 33, 64
2, 988964, Note_on_c, 0, 48, 36
2, 988974, Note_off_c, 0, 40, 64
2, 989019, Note_off_c, 0, 48, 64
2, 989022, Note_on_c, 0, 33, 54
2, 989079, Note_off_c, 0, 64, 64
2, 989088, Note_on_c, 0, 52, 48
2, 989115, Note_off_c, 0, 33, 64
2, 989132, Note_on_c, 0, 60, 79
2, 989187, Note_off_c, 0, 60, 64
2, 989196, Note_on_c, 0, 57, 65
2, 989197, Note_off_c, 0, 52, 64
2, 989215, Note_on_c, 0, 59, 57
2, 989222, Note_off_c, 0, 57, 64
2, 989239, Note_on_c, 0, 60, 63
2, 989245, Note_off_c, 0, 59, 64
2, 989257, Note_on_c, 0, 59, 85
2, 989261, Note_on_c, 0, 33, 77
2, 989266, Note_off_c, 0, 60, 64
2, 989268, Control_c, 0, 64, 0
2, 989300, Control_c, 0, 64, 127
2, 989325, Note_on_c, 0, 40, 44
2, 989336, Note_off_c, 0, 33, 64
2, 989394, Note_on_c, 0, 57, 72
2, 989396, Note_on_c, 0, 48, 26
2, 989399, Note_off_c, 0, 40, 64
2, 989399, Note_off_c, 0, 59, 64
2, 989442, Note_off_c, 0, 48, 64
2, 989454, Note_on_c, 0, 33, 54
2, 989521, Note_on_c, 0, 52, 54
2, 989550, Note_off_c, 0, 33, 64
2, 989564, Note_off_c, 0, 52, 64
2, 989633, Control_c, 0, 64, 0
2, 989639, Note_on_c, 0, 33, 75
2, 989674, Control_c, 0, 64, 127
2, 989682, Note_off_c, 0, 57, 64
2, 989700, Note_on_c, 0, 40, 52
2, 989716, Note_off_c, 0, 33, 64
2, 989762, Note_on_c, 0, 48, 52
2, 989773, Note_off_c, 0, 40, 64
2, 989818, Note_off_c, 0, 48, 64
2, 989820, Note_on_c, 0, 33, 60
2, 989885, Note_on_c, 0, 60, 85
2, 989887, Note_on_c, 0, 52, 41
2, 989897, Note_off_c, 0, 33, 64
2, 989957, Note_off_c, 0, 52, 64
2, 989999, Control_c, 0, 64, 0
2, 990010, Note_on_c, 0, 64, 83
2, 990010, Note_on_c, 0, 33, 75
2, 990013, Note_off_c, 0, 60, 64
2, 990036, Control_c, 0, 64, 127
2, 990070, Note_on_c, 0, 40, 53
2, 990081, Note_off_c, 0, 33, 64
2, 990128, Note_on_c, 0, 69, 84
2, 990131, Note_off_c, 0, 64, 64
2, 990132, Note_on_c, 0, 48, 50
2, 990139, Note_off_c, 0, 40, 64
2, 990172, Note_off_c, 0, 48, 64
2, 990181, Note_on_c, 0, 33, 52
2, 990236, Note_off_c, 0, 33, 64
2, 990241, Note_on_c, 0, 52, 52
2, 990298, Note_on_c, 0, 72, 80
2, 990305, Note_off_c, 0, 69, 64
2, 990340, Note_off_c, 0, 52, 64
2, 990373, Note_on_c, 0, 71, 74
2, 990376, Note_off_c, 0, 72, 64
2, 990380, Note_on_c, 0, 33, 71
2, 990388, Control_c, 0, 64, 0
2, 990430, Control_c, 0, 64, 127
2, 990439, Note_on_c, 0, 40, 47
2, 990444, Note_off_c, 0, 33, 64
2, 990494, Note_on_c, 0, 48, 55
2, 990503, Note_off_c, 0, 40, 64
2, 990547, Note_off_c, 0, 48, 64
2, 990550, Note_on_c, 0, 33, 49
2, 990616, Note_on_c, 0, 52, 56
2, 990634, Note_off_c, 0, 33, 64
2, 990711, Note_off_c, 0, 52, 64
2, 990729, Control_c, 0, 64, 0
2, 990735, Note_on_c, 0, 33, 76
2, 990765, Control_c, 0, 64, 127
2, 990795, Note_on_c, 0, 40, 49
2, 990812, Note_off_c, 0, 33, 64
2, 990853, Note_on_c, 0, 48, 53
2, 990865, Note_off_c, 0, 40, 64
2, 990899, Note_off_c, 0, 48, 64
2, 990908, Note_on_c, 0, 33, 56
2, 990970, Note_on_c, 0, 52, 54
2, 991005, Note_off_c, 0, 33, 64
2, 991023, Note_on_c, 0, 69, 83
2, 991029, Note_off_c, 0, 71, 64
2, 991046, Note_off_c, 0, 52, 64
2, 991107, Note_on_c, 0, 33, 68
2, 991109, Note_on_c, 0, 64, 72
2, 991114, Note_off_c, 0, 69, 64
2, 991114, Control_c, 0, 64, 0
2, 991148, Control_c, 0, 64, 127
2, 991178, Note_on_c, 0, 40, 30
2, 991182, Note_off_c, 0, 33, 64
2, 991236, Note_off_c, 0, 40, 64
2, 991237, Note_on_c, 0, 48, 28
2, 991270, Note_off_c, 0, 48, 64
2, 991286, Note_on_c, 0, 33, 52
2, 991323, Note_off_c, 0, 64, 64
2, 991334, Note_off_c, 0, 33, 64
2, 991340, Note_on_c, 0, 52, 47
2, 991386, Note_on_c, 0, 64, 73
2, 991420, Note_off_c, 0, 52, 64
2, 991432, Note_on_c, 0, 66, 79
2, 991463, Note_off_c, 0, 64, 64
2, 991470, Control_c, 0, 64, 0
2, 991481, Note_on_c, 0, 33, 68
2, 991487, Note_on_c, 0, 67, 76
2, 991497, Note_off_c, 0, 66, 64
2, 991512, Control_c, 0, 64, 127
2, 991541, Note_on_c, 0, 66, 72
2, 991549, Note_on_c, 0, 38, 40
2, 991553, Note_off_c, 0, 67, 64
2, 991561, Note_off_c, 0, 33, 64
2, 991591, Note_on_c, 0, 67, 68
2, 991594, Note_off_c, 0, 66, 64
2, 991599, Note_on_c, 0, 48, 48
2, 991603, Note_off_c, 0, 38, 64
2, 991621, Note_on_c, 0, 66, 83
2, 991629, Note_off_c, 0, 67, 64
2, 991643, Note_off_c, 0, 48, 64
2, 991653, Note_on_c, 0, 67, 68
2, 991659, Note_off_c, 0, 66, 64
2, 991662, Note_on_c, 0, 33, 41
2, 991674, Note_on_c, 0, 66, 77
2, 991680, Note_off_c, 0, 67, 64
2, 991694, Note_on_c, 0, 67, 76
2, 991698, Note_off_c, 0, 66, 64
2, 991709, Note_on_c, 0, 50, 52
2, 991712, Note_on_c, 0, 66, 85
2, 991715, Note_off_c, 0, 67, 64
2, 991728, Note_on_c, 0, 67, 77
2, 991730, Note_off_c, 0, 33, 64
2, 991735, Note_off_c, 0, 66, 64
2, 991749, Note_on_c, 0, 66, 85
2, 991757, Note_off_c, 0, 67, 64
2, 991783, Note_on_c, 0, 64, 85
2, 991784, Note_off_c, 0, 66, 64
2, 991810, Note_off_c, 0, 50, 64
2, 991817, Note_on_c, 0, 66, 72
2, 991834, Note_off_c, 0, 64, 64
2, 991851, Control_c, 0, 64, 0
2, 991859, Note_off_c, 0, 66, 64
2, 991860, Note_on_c, 0, 67, 85
2, 991863, Note_on_c, 0, 31, 71
2, 991888, Control_c, 0, 64, 127
2, 991921, Note_on_c, 0, 40, 51
2, 991928, Note_off_c, 0, 31, 64
2, 991978, Note_on_c, 0, 48, 48
2, 991983, Note_off_c, 0, 40, 64
2, 992022, Note_off_c, 0, 48, 64
2, 992036, Note_on_c, 0, 31, 52
2, 992093, Note_off_c, 0, 31, 64
2, 992101, Note_on_c, 0, 52, 41
2, 992200, Note_off_c, 0, 52, 64
2, 992214, Note_off_c, 0, 67, 64
2, 992217, Control_c, 0, 64, 0
2, 992220, Note_on_c, 0, 65, 79
2, 992220, Note_on_c, 0, 31, 72
2, 992254, Control_c, 0, 64, 127
2, 992275, Note_on_c, 0, 40, 45
2, 992284, Note_off_c, 0, 31, 64
2, 992335, Note_on_c, 0, 48, 49
2, 992343, Note_off_c, 0, 40, 64
2, 992380, Note_off_c, 0, 48, 64
2, 992387, Note_on_c, 0, 31, 63
2, 992445, Note_on_c, 0, 64, 81
2, 992449, Note_on_c, 0, 52, 58
2, 992451, Note_off_c, 0, 65, 64
2, 992468, Note_off_c, 0, 31, 64
2, 992532, Note_off_c, 0, 52, 64
2, 992564, Control_c, 0, 64, 0
2, 992571, Note_on_c, 0, 31, 57
2, 992572, Note_on_c, 0, 62, 80
2, 992587, Note_off_c, 0, 64, 64
2, 992606, Control_c, 0, 64, 127
2, 992640, Note_on_c, 0, 38, 54
2, 992653, Note_on_c, 0, 64, 80
2, 992665, Note_off_c, 0, 31, 64
2, 992669, Note_off_c, 0, 62, 64
2, 992699, Note_on_c, 0, 48, 50
2, 992707, Note_off_c, 0, 38, 64
2, 992713, Note_on_c, 0, 62, 80
2, 992721, Note_off_c, 0, 64, 64
2, 992743, Note_off_c, 0, 48, 64
2, 992749, Note_off_c, 0, 62, 64
2, 992749, Note_on_c, 0, 64, 80
2, 992756, Note_on_c, 0, 31, 52
2, 992768, Note_on_c, 0, 62, 80
2, 992773, Note_off_c, 0, 64, 64
2, 992795, Note_off_c, 0, 62, 64
2, 992796, Note_on_c, 0, 64, 80
2, 992799, Note_on_c, 0, 50, 52
2, 992805, Note_off_c, 0, 31, 64
2, 992810, Note_on_c, 0, 62, 80
2, 992813, Note_off_c, 0, 64, 64
2, 992826, Note_on_c, 0, 64, 80
2, 992831, Note_off_c, 0, 62, 64
2, 992847, Note_on_c, 0, 62, 80
2, 992854, Note_off_c, 0, 64, 64
2, 992872, Note_on_c, 0, 60, 80
2, 992873, Note_off_c, 0, 62, 64
2, 992877, Note_off_c, 0, 50, 64
2, 992894, Note_on_c, 0, 62, 80
2, 992911, Note_off_c, 0, 60, 64
2, 992920, Control_c, 0, 64, 0
2, 992930, Note_on_c, 0, 31, 68
2, 992933, Note_on_c, 0, 64, 80
2, 992941, Note_off_c, 0, 62, 64
2, 992957, Control_c, 0, 64, 127
2, 992990, Note_on_c, 0, 38, 52
2, 993004, Note_off_c, 0, 31, 64
2, 993050, Note_on_c, 0, 48, 54
2, 993054, Note_off_c, 0, 38, 64
2, 993100, Note_off_c, 0, 48, 64
2, 993109, Note_on_c, 0, 31, 58
2, 993164, Note_on_c, 0, 50, 55
2, 993170, Note_off_c, 0, 31, 64
2, 993224, Note_on_c, 0, 60, 76
2, 993228, Note_off_c, 0, 64, 64
2, 993269, Note_off_c, 0, 50, 64
2, 993289, Note_on_c, 0, 55, 81
2, 993289, Note_on_c, 0, 31, 72
2, 993292, Control_c, 0, 64, 0
2, 993298, Note_off_c, 0, 60, 64
2, 993331, Control_c, 0, 64, 127
2, 993349, Note_on_c, 0, 38, 52
2, 993366, Note_off_c, 0, 31, 64
2, 993406, Note_on_c, 0, 48, 49
2, 993412, Note_off_c, 0, 38, 64
2, 993466, Note_on_c, 0, 31, 48
2, 993467, Note_off_c, 0, 48, 64
2, 993528, Note_on_c, 0, 50, 60
2, 993538, Note_off_c, 0, 31, 64
2, 993640, Control_c, 0, 64, 0
2, 993648, Note_on_c, 0, 31, 83
2, 993668, Note_off_c, 0, 50, 64
2, 993679, Control_c, 0, 64, 127
2, 993714, Note_on_c, 0, 38, 58
2, 993732, Note_off_c, 0, 31, 64
2, 993773, Note_on_c, 0, 48, 59
2, 993788, Note_off_c, 0, 38, 64
2, 993827, Note_on_c, 0, 31, 58
2, 993842, Note_off_c, 0, 48, 64
2, 993897, Note_on_c, 0, 50, 58
2, 993901, Note_off_c, 0, 31, 64
2, 993904, Note_off_c, 0, 55, 64
2, 994014, Control_c, 0, 64, 0
2, 994023, Note_on_c, 0, 55, 76
2, 994024, Note_on_c, 0, 31, 75
2, 994034, Note_off_c, 0, 50, 64
2, 994057, Control_c, 0, 64, 127
2, 994087, Note_on_c, 0, 57, 54
2, 994089, Note_off_c, 0, 55, 64
2, 994093, Note_on_c, 0, 41, 31
2, 994113, Note_on_c, 0, 55, 59
2, 994124, Note_off_c, 0, 57, 64
2, 994136, Note_on_c, 0, 54, 72
2, 994144, Note_off_c, 0, 55, 64
2, 994151, Note_off_c, 0, 31, 64
2, 994159, Note_off_c, 0, 41, 64
2, 994163, Note_off_c, 0, 54, 64
2, 994166, Note_on_c, 0, 48, 30
2, 994169, Note_on_c, 0, 55, 68
2, 994188, Note_on_c, 0, 57, 81
2, 994200, Note_off_c, 0, 55, 64
2, 994209, Note_off_c, 0, 48, 64
2, 994215, Note_on_c, 0, 59, 85
2, 994225, Note_off_c, 0, 57, 64
2, 994235, Note_off_c, 0, 59, 64
2, 994242, Note_on_c, 0, 60, 85
2, 994262, Note_on_c, 0, 62, 76
2, 994272, Note_off_c, 0, 60, 64
2, 994284, Note_on_c, 0, 64, 76
2, 994294, Note_off_c, 0, 62, 64
2, 994302, Note_off_c, 0, 64, 64
2, 994307, Note_on_c, 0, 65, 84
2, 994329, Note_on_c, 0, 67, 77
2, 994347, Note_off_c, 0, 65, 64
2, 994347, Note_on_c, 0, 69, 76
2, 994370, Note_off_c, 0, 67, 64
2, 994375, Note_on_c, 0, 31, 81
2, 994376, Note_on_c, 0, 71, 72
2, 994386, Note_off_c, 0, 69, 64
2, 994394, Note_off_c, 0, 71, 64
2, 994400, Note_on_c, 0, 72, 85
2, 994416, Note_on_c, 0, 38, 58
2, 994423, Note_off_c, 0, 31, 64
2, 994423, Note_on_c, 0, 74, 79
2, 994434, Note_off_c, 0, 72, 64
2, 994451, Note_on_c, 0, 76, 85
2, 994457, Note_on_c, 0, 48, 54
2, 994461, Note_off_c, 0, 74, 64
2, 994468, Note_off_c, 0, 76, 64
2, 994472, Note_off_c, 0, 38, 64
2, 994477, Note_on_c, 0, 77, 84
2, 994499, Note_off_c, 0, 48, 64
2, 994499, Note_on_c, 0, 79, 79
2, 994503, Note_on_c, 0, 31, 66
2, 994518, Note_on_c, 0, 81, 70
2, 994519, Note_off_c, 0, 77, 64
2, 994534, Note_off_c, 0, 79, 64
2, 994540, Note_on_c, 0, 41, 54
2, 994542, Note_on_c, 0, 83, 84
2, 994552, Note_off_c, 0, 81, 64
2, 994552, Note_off_c, 0, 31, 64
2, 994557, Note_off_c, 0, 83, 64
2, 994566, Note_on_c, 0, 84, 85
2, 994571, Note_on_c, 0, 50, 52
2, 994587, Note_on_c, 0, 86, 85
2, 994595, Note_off_c, 0, 41, 64
2, 994600, Note_off_c, 0, 84, 64
2, 994612, Note_on_c, 0, 88, 85
2, 994619, Note_off_c, 0, 86, 64
2, 994629, Note_off_c, 0, 88, 64
2, 994632, Note_on_c, 0, 89, 85
2, 994646, Note_off_c, 0, 50, 64
2, 994654, Note_on_c, 0, 91, 83
2, 994665, Note_off_c, 0, 89, 64
2, 994672, Note_on_c, 0, 93, 73
2, 994692, Note_off_c, 0, 91, 64
2, 994692, Note_on_c, 0, 95, 84
2, 994711, Note_off_c, 0, 93, 64
2, 994719, Note_on_c, 0, 96, 102
2, 994726, Note_on_c, 0, 36, 85
2, 994731, Note_off_c, 0, 95, 64
2, 994735, Control_c, 0, 64, 0
2, 994788, Note_on_c, 0, 43, 58
2, 994795, Note_off_c, 0, 36, 64
2, 994811, Control_c, 0, 64, 127
2, 994847, Note_on_c, 0, 52, 54
2, 994853, Note_off_c, 0, 43, 64
2, 994897, Note_on_c, 0, 36, 55
2, 994903, Note_off_c, 0, 52, 64
2, 994923, Note_off_c, 0, 36, 64
2, 994958, Note_on_c, 0, 55, 60
2, 994983, Note_off_c, 0, 55, 64
2, 995077, Note_on_c, 0, 36, 76
2, 995077, Control_c, 0, 64, 0
2, 995107, Control_c, 0, 64, 127
2, 995135, Note_on_c, 0, 43, 54
2, 995159, Note_off_c, 0, 36, 64
2, 995189, Note_on_c, 0, 52, 51
2, 995191, Note_off_c, 0, 43, 64
2, 995199, Note_off_c, 0, 96, 64
2, 995238, Note_on_c, 0, 36, 53
2, 995251, Note_off_c, 0, 52, 64
2, 995271, Note_off_c, 0, 36, 64
2, 995308, Note_on_c, 0, 55, 45
2, 995339, Note_off_c, 0, 55, 64
2, 995422, Control_c, 0, 64, 0
2, 995426, Note_on_c, 0, 66, 78
2, 995426, Note_on_c, 0, 36, 84
2, 995464, Control_c, 0, 64, 127
2, 995494, Note_on_c, 0, 42, 57
2, 995505, Note_off_c, 0, 36, 64
2, 995520, Note_on_c, 0, 67, 66
2, 995528, Note_off_c, 0, 66, 64
2, 995546, Note_on_c, 0, 52, 55
2, 995548, Note_off_c, 0, 42, 64
2, 995570, Note_on_c, 0, 66, 67
2, 995578, Note_off_c, 0, 67, 64
2, 995586, Note_off_c, 0, 52, 64
2, 995588, Note_on_c, 0, 36, 46
2, 995604, Note_on_c, 0, 67, 61
2, 995605, Note_off_c, 0, 66, 64
2, 995620, Note_off_c, 0, 36, 64
2, 995622, Note_on_c, 0, 66, 76
2, 995628, Note_off_c, 0, 67, 64
2, 995638, Note_on_c, 0, 54, 66
2, 995646, Note_off_c, 0, 66, 64
2, 995648, Note_on_c, 0, 67, 69
2, 995657, Note_off_c, 0, 54, 64
2, 995667, Note_on_c, 0, 66, 64
2, 995678, Note_off_c, 0, 67, 64
2, 995697, Note_on_c, 0, 64, 65
2, 995701, Note_off_c, 0, 66, 64
2, 995718, Note_on_c, 0, 66, 101
2, 995732, Note_off_c, 0, 64, 64
2, 995745, Control_c, 0, 64, 0
2, 995754, Note_on_c, 0, 36, 70
2, 995756, Note_on_c, 0, 67, 87
2, 995759, Note_off_c, 0, 66, 64
2, 995778, Control_c, 0, 64, 127
2, 995811, Note_on_c, 0, 42, 58
2, 995820, Note_off_c, 0, 36, 64
2, 995864, Note_on_c, 0, 52, 48
2, 995868, Note_off_c, 0, 42, 64
2, 995907, Note_off_c, 0, 52, 64
2, 995917, Note_on_c, 0, 36, 57
2, 995963, Note_off_c, 0, 36, 64
2, 995977, Note_on_c, 0, 54, 53
2, 995996, Note_off_c, 0, 54, 64
2, 996037, Note_on_c, 0, 64, 63
2, 996049, Note_off_c, 0, 67, 64
2, 996088, Control_c, 0, 64, 0
2, 996106, Note_on_c, 0, 59, 64
2, 996108, Note_on_c, 0, 35, 36
2, 996111, Note_off_c, 0, 64, 64
2, 996130, Control_c, 0, 64, 127
2, 996163, Note_off_c, 0, 35, 64
2, 996168, Note_on_c, 0, 43, 54
2, 996198, Note_off_c, 0, 59, 64
2, 996223, Note_on_c, 0, 52, 40
2, 996234, Note_off_c, 0, 43, 64
2, 996288, Note_on_c, 0, 35, 39
2, 996314, Note_off_c, 0, 52, 64
2, 996337, Note_off_c, 0, 35, 64
2, 996338, Note_on_c, 0, 43, 45
2, 996342, Note_on_c, 0, 84, 85
2, 996364, Note_on_c, 0, 52, 30
2, 996371, Note_off_c, 0, 43, 64
2, 996416, Note_off_c, 0, 52, 64
2, 996446, Note_on_c, 0, 35, 76
2, 996485, Note_on_c, 0, 83, 57
2, 996496, Note_on_c, 0, 43, 46
2, 996498, Note_off_c, 0, 84, 64
2, 996515, Note_on_c, 0, 79, 51
2, 996522, Note_off_c, 0, 83, 64
2, 996533, Note_on_c, 0, 76, 56
2, 996538, Note_off_c, 0, 79, 64
2, 996542, Note_off_c, 0, 35, 64
2, 996548, Note_on_c, 0, 52, 48
2, 996550, Note_off_c, 0, 43, 64
2, 996558, Note_off_c, 0, 76, 64
2, 996565, Note_on_c, 0, 72, 65
2, 996591, Note_on_c, 0, 71, 62
2, 996598, Note_off_c, 0, 72, 64
2, 996607, Note_off_c, 0, 52, 64
2, 996609, Note_on_c, 0, 67, 65
2, 996621, Note_off_c, 0, 71, 64
2, 996630, Note_on_c, 0, 64, 68
2, 996633, Note_off_c, 0, 67, 64
2, 996655, Note_off_c, 0, 64, 64
2, 996659, Note_on_c, 0, 60, 70
2, 996684, Note_off_c, 0, 60, 64
2, 996693, Note_on_c, 0, 59, 48
2, 996718, Note_off_c, 0, 59, 64
2, 996719, Note_on_c, 0, 55, 39
2, 996744, Note_on_c, 0, 52, 72
2, 996749, Note_off_c, 0, 55, 64
2, 996768, Note_on_c, 0, 48, 62
2, 996773, Note_off_c, 0, 52, 64
2, 996783, Control_c, 0, 64, 0
2, 996786, Note_on_c, 0, 47, 94
2, 996789, Note_on_c, 0, 35, 51
2, 996798, Note_off_c, 0, 48, 64
2, 996844, Note_on_c, 0, 43, 45
2, 996867, Note_off_c, 0, 35, 64
2, 996883, Control_c, 0, 64, 127
2, 996905, Note_off_c, 0, 43, 64
2, 996912, Note_on_c, 0, 52, 28
2, 996937, Note_off_c, 0, 52, 64
2, 996942, Note_off_c, 0, 47, 64
2, 996950, Note_on_c, 0, 43, 58
2, 996984, Note_off_c, 0, 43, 64
2, 996995, Note_on_c, 0, 52, 51
2, 997018, Note_off_c, 0, 52, 64
2, 997038, Note_on_c, 0, 48, 56
2, 997091, Note_on_c, 0, 51, 56
2, 997118, Note_off_c, 0, 48, 64
2, 997130, Note_on_c, 0, 35, 84
2, 997140, Note_on_c, 0, 54, 58
2, 997155, Note_off_c, 0, 51, 64
2, 997174, Note_on_c, 0, 42, 41
2, 997177, Note_on_c, 0, 57, 60
2, 997180, Note_off_c, 0, 54, 64
2, 997189, Note_off_c, 0, 35, 64
2, 997207, Note_on_c, 0, 60, 60
2, 997207, Note_on_c, 0, 45, 45
2, 997212, Note_off_c, 0, 42, 64
2, 997217, Note_off_c, 0, 57, 64
2, 997235, Note_on_c, 0, 63, 61
2, 997255, Note_on_c, 0, 42, 30
2, 997257, Note_off_c, 0, 45, 64
2, 997264, Note_off_c, 0, 60, 64
2, 997265, Note_on_c, 0, 66, 62
2, 997278, Note_off_c, 0, 63, 64
2, 997282, Note_off_c, 0, 42, 64
2, 997290, Note_on_c, 0, 69, 63
2, 997291, Note_on_c, 0, 35, 44
2, 997294, Note_off_c, 0, 66, 64
2, 997294, Note_on_c, 0, 45, 36
2, 997315, Note_off_c, 0, 45, 64
2, 997316, Note_on_c, 0, 72, 63
2, 997330, Note_off_c, 0, 69, 64
2, 997339, Note_on_c, 0, 42, 3
2, 997340, Note_on_c, 0, 75, 64
2, 997355, Note_off_c, 0, 42, 64
2, 997355, Note_off_c, 0, 72, 64
2, 997362, Note_on_c, 0, 45, 28
2, 997363, Note_on_c, 0, 78, 64
2, 997373, Note_off_c, 0, 75, 64
2, 997380, Note_on_c, 0, 81, 64
2, 997386, Note_on_c, 0, 42, 37
2, 997388, Note_off_c, 0, 45, 64
2, 997392, Note_off_c, 0, 35, 64
2, 997403, Note_off_c, 0, 78, 64
2, 997408, Note_off_c, 0, 42, 64
2, 997409, Note_on_c, 0, 45, 36
2, 997415, Note_on_c, 0, 84, 66
2, 997420, Note_off_c, 0, 81, 64
2, 997434, Note_on_c, 0, 87, 66
2, 997438, Note_off_c, 0, 45, 64
2, 997456, Note_off_c, 0, 84, 64
2, 997464, Note_on_c, 0, 90, 68
2, 997472, Note_on_c, 0, 93, 68
2, 997473, Note_off_c, 0, 87, 64
2, 997496, Note_on_c, 0, 96, 68
2, 997504, Note_off_c, 0, 90, 64
2, 997504, Note_on_c, 0, 99, 68
2, 997508, Note_off_c, 0, 93, 64
2, 997533, Note_on_c, 0, 100, 84
2, 997534, Note_off_c, 0, 99, 64
2, 997536, Note_off_c, 0, 96, 64
2, 997545, Note_on_c, 0, 40, 84
2, 997557, Control_c, 0, 64, 0
2, 997595, Control_c, 0, 64, 127
2, 997598, Note_on_c, 0, 47, 50
2, 997609, Note_off_c, 0, 40, 64
2, 997644, Note_on_c, 0, 55, 44
2, 997646, Note_off_c, 0, 47, 64
2, 997694, Note_off_c, 0, 55, 64
2, 997699, Note_on_c, 0, 40, 54
2, 997719, Note_off_c, 0, 40, 64
2, 997751, Note_off_c, 0, 100, 64
2, 997754, Note_on_c, 0, 59, 49
2, 997789, Note_off_c, 0, 59, 64
2, 997888, Note_on_c, 0, 67, 86
2, 997888, Note_on_c, 0, 40, 66
2, 997892, Control_c, 0, 64, 0
2, 997931, Control_c, 0, 64, 127
2, 997942, Note_on_c, 0, 47, 52
2, 997945, Note_off_c, 0, 40, 64
2, 997998, Note_on_c, 0, 55, 50
2, 998002, Note_off_c, 0, 47, 64
2, 998059, Note_on_c, 0, 40, 45
2, 998062, Note_off_c, 0, 55, 64
2, 998081, Note_off_c, 0, 40, 64
2, 998122, Note_on_c, 0, 59, 55
2, 998162, Note_off_c, 0, 59, 64
2, 998239, Control_c, 0, 64, 0
2, 998255, Note_on_c, 0, 39, 85
2, 998271, Control_c, 0, 64, 127
2, 998312, Note_on_c, 0, 47, 47
2, 998315, Note_off_c, 0, 39, 64
2, 998370, Note_off_c, 0, 47, 64
2, 998382, Note_on_c, 0, 55, 28
2, 998418, Note_off_c, 0, 55, 64
2, 998433, Note_on_c, 0, 39, 56
2, 998451, Note_off_c, 0, 39, 64
2, 998490, Note_on_c, 0, 59, 54
2, 998511, Note_off_c, 0, 67, 64
2, 998516, Note_off_c, 0, 59, 64
2, 998545, Note_on_c, 0, 67, 60
2, 998562, Note_off_c, 0, 67, 64
2, 998576, Note_on_c, 0, 67, 54
2, 998618, Note_on_c, 0, 70, 58
2, 998625, Note_off_c, 0, 67, 64
2, 998655, Note_on_c, 0, 68, 68
2, 998657, Control_c, 0, 64, 0
2, 998664, Note_on_c, 0, 38, 75
2, 998670, Note_off_c, 0, 70, 64
2, 998688, Control_c, 0, 64, 127
2, 998708, Note_on_c, 0, 47, 41
2, 998717, Note_off_c, 0, 68, 64
2, 998719, Note_off_c, 0, 38, 64
2, 998757, Note_off_c, 0, 47, 64
2, 998757, Note_on_c, 0, 53, 46
2, 998799, Note_off_c, 0, 53, 64
2, 998872, Note_on_c, 0, 38, 36
2, 998905, Note_off_c, 0, 38, 64
2, 998953, Note_on_c, 0, 67, 60
2, 998955, Note_on_c, 0, 55, 39
2, 998989, Note_off_c, 0, 55, 64
2, 999030, Note_off_c, 0, 67, 64
2, 999099, Control_c, 0, 64, 0
2, 999103, Note_on_c, 0, 67, 60
2, 999103, Note_on_c, 0, 36, 68
2, 999140, Control_c, 0, 64, 127
2, 999178, Note_off_c, 0, 36, 64
2, 999183, Note_on_c, 0, 43, 51
2, 999242, Note_on_c, 0, 51, 49
2, 999249, Note_off_c, 0, 43, 64
2, 999281, Note_off_c, 0, 51, 64
2, 999298, Note_on_c, 0, 36, 42
2, 999324, Note_off_c, 0, 36, 64
2, 999357, Note_on_c, 0, 63, 58
2, 999362, Note_on_c, 0, 55, 58
2, 999369, Note_off_c, 0, 67, 64
2, 999388, Note_off_c, 0, 55, 64
2, 999502, Note_on_c, 0, 36, 73
2, 999506, Control_c, 0, 64, 0
2, 999508, Note_on_c, 0, 60, 63
2, 999514, Note_off_c, 0, 63, 64
2, 999541, Control_c, 0, 64, 127
2, 999574, Note_on_c, 0, 43, 48
2, 999577, Note_off_c, 0, 36, 64
2, 999630, Note_on_c, 0, 51, 49
2, 999631, Note_off_c, 0, 43, 64
2, 999668, Note_off_c, 0, 51, 64
2, 999685, Note_on_c, 0, 36, 52
2, 999708, Note_off_c, 0, 36, 64
2, 999752, Note_on_c, 0, 55, 58
2, 999774, Note_off_c, 0, 55, 64
2, 999870, Note_on_c, 0, 36, 71
2, 999873, Control_c, 0, 64, 0
2, 999906, Control_c, 0, 64, 127
2, 999934, Note_on_c, 0, 43, 40
2, 999956, Note_off_c, 0, 36, 64
2, 999987, Note_off_c, 0, 43, 64
2, 999994, Note_on_c, 0, 51, 46
2, 1000031, Note_off_c, 0, 51, 64
2, 1000043, Note_on_c, 0, 36, 43
2, 1000067, Note_off_c, 0, 36, 64
2, 1000112, Note_on_c, 0, 55, 52
2, 1000131, Note_off_c, 0, 55, 64
2, 1000221, Control_c, 0, 64, 0
2, 1000235, Note_on_c, 0, 36, 56
2, 1000240, Note_on_c, 0, 63, 58
2, 1000255, Note_off_c, 0, 60, 64
2, 1000263, Control_c, 0, 64, 127
2, 1000294, Note_on_c, 0, 43, 43
2, 1000308, Note_off_c, 0, 36, 64
2, 1000353, Note_off_c, 0, 43, 64
2, 1000356, Note_on_c, 0, 51, 30
2, 1000358, Note_on_c, 0, 67, 63
2, 1000361, Note_off_c, 0, 63, 64
2, 1000392, Note_off_c, 0, 51, 64
2, 1000411, Note_on_c, 0, 36, 41
2, 1000433, Note_off_c, 0, 36, 64
2, 1000483, Note_on_c, 0, 55, 36
2, 1000506, Note_off_c, 0, 55, 64
2, 1000540, Note_on_c, 0, 72, 56
2, 1000547, Note_off_c, 0, 67, 64
2, 1000601, Control_c, 0, 64, 0
2, 1000610, Note_on_c, 0, 70, 58
2, 1000612, Note_on_c, 0, 36, 68
2, 1000615, Note_off_c, 0, 72, 64
2, 1000643, Control_c, 0, 64, 127
2, 1000676, Note_on_c, 0, 44, 51
2, 1000689, Note_off_c, 0, 36, 64
2, 1000734, Note_off_c, 0, 44, 64
2, 1000735, Note_on_c, 0, 51, 41
2, 1000776, Note_off_c, 0, 51, 64
2, 1000778, Note_on_c, 0, 36, 48
2, 1000804, Note_off_c, 0, 36, 64
2, 1000845, Note_on_c, 0, 68, 51
2, 1000850, Note_on_c, 0, 56, 63
2, 1000861, Note_off_c, 0, 70, 64
2, 1000875, Note_off_c, 0, 56, 64
2, 1000974, Note_on_c, 0, 63, 58
2, 1000976, Note_on_c, 0, 36, 72
2, 1000981, Control_c, 0, 64, 0
2, 1000986, Note_off_c, 0, 68, 64
2, 1001020, Control_c, 0, 64, 127
2, 1001036, Note_on_c, 0, 44, 44
2, 1001048, Note_off_c, 0, 36, 64
2, 1001098, Note_off_c, 0, 44, 64
2, 1001100, Note_on_c, 0, 51, 28
2, 1001144, Note_off_c, 0, 51, 64
2, 1001147, Note_on_c, 0, 36, 52
2, 1001174, Note_off_c, 0, 36, 64
2, 1001219, Note_on_c, 0, 56, 60
2, 1001260, Note_off_c, 0, 56, 64
2, 1001335, Control_c, 0, 64, 0
2, 1001338, Note_on_c, 0, 36, 70
2, 1001381, Control_c, 0, 64, 127
2, 1001412, Note_on_c, 0, 44, 30
2, 1001416, Note_off_c, 0, 36, 64
2, 1001447, Note_on_c, 0, 68, 58
2, 1001465, Note_off_c, 0, 63, 64
2, 1001467, Note_off_c, 0, 44, 64
2, 1001485, Note_on_c, 0, 54, 30
2, 1001502, Note_off_c, 0, 54, 64
2, 1001522, Note_on_c, 0, 36, 47
2, 1001539, Note_off_c, 0, 36, 64
2, 1001582, Note_on_c, 0, 56, 58
2, 1001609, Note_off_c, 0, 56, 64
2, 1001619, Note_off_c, 0, 68, 64
2, 1001644, Note_on_c, 0, 68, 64
2, 1001696, Note_off_c, 0, 68, 64
2, 1001713, Note_on_c, 0, 68, 58
2, 1001713, Note_on_c, 0, 36, 76
2, 1001719, Control_c, 0, 64, 0
2, 1001753, Control_c, 0, 64, 127
2, 1001774, Note_off_c, 0, 36, 64
2, 1001774, Note_on_c, 0, 65, 56
2, 1001776, Note_on_c, 0, 44, 52
2, 1001786, Note_off_c, 0, 68, 64
2, 1001806, Note_off_c, 0, 44, 64
2, 1001832, Note_on_c, 0, 66, 63
2, 1001836, Note_on_c, 0, 54, 62
2, 1001840, Note_off_c, 0, 65, 64
2, 1001867, Note_off_c, 0, 54, 64
2, 1001888, Note_on_c, 0, 63, 51
2, 1001892, Note_on_c, 0, 36, 51
2, 1001896, Note_off_c, 0, 66, 64
2, 1001913, Note_off_c, 0, 36, 64
2, 1001952, Note_on_c, 0, 66, 58
2, 1001953, Note_on_c, 0, 56, 68
2, 1001958, Note_off_c, 0, 63, 64
2, 1001970, Note_off_c, 0, 56, 64
2, 1002032, Note_on_c, 0, 56, 74
2, 1002115, Note_on_c, 0, 68, 76
2, 1002119, Note_on_c, 0, 37, 77
2, 1002120, Note_off_c, 0, 66, 64
2, 1002126, Note_off_c, 0, 56, 64
2, 1002131, Control_c, 0, 64, 0
2, 1002176, Control_c, 0, 64, 127
2, 1002191, Note_on_c, 0, 44, 51
2, 1002196, Note_off_c, 0, 37, 64
2, 1002241, Note_off_c, 0, 44, 64
2, 1002245, Note_on_c, 0, 53, 49
2, 1002274, Note_off_c, 0, 53, 64
2, 1002301, Note_on_c, 0, 37, 66
2, 1002321, Note_off_c, 0, 37, 64
2, 1002368, Note_on_c, 0, 65, 56
2, 1002369, Note_on_c, 0, 56, 64
2, 1002381, Note_off_c, 0, 68, 64
2, 1002389, Note_off_c, 0, 56, 64
2, 1002493, Control_c, 0, 64, 0
2, 1002496, Note_on_c, 0, 61, 59
2, 1002496, Note_on_c, 0, 37, 60
2, 1002504, Note_off_c, 0, 65, 64
2, 1002529, Control_c, 0, 64, 127
2, 1002557, Note_on_c, 0, 44, 51
2, 1002558, Note_off_c, 0, 37, 64
2, 1002614, Note_off_c, 0, 44, 64
2, 1002615, Note_on_c, 0, 53, 49
2, 1002645, Note_off_c, 0, 53, 64
2, 1002683, Note_on_c, 0, 37, 60
2, 1002707, Note_off_c, 0, 37, 64
2, 1002751, Note_on_c, 0, 56, 64
2, 1002771, Note_off_c, 0, 56, 64
2, 1002873, Control_c, 0, 64, 0
2, 1002879, Note_on_c, 0, 37, 74
2, 1002909, Control_c, 0, 64, 127
2, 1002944, Note_on_c, 0, 44, 54
2, 1002949, Note_off_c, 0, 37, 64
2, 1002990, Note_off_c, 0, 44, 64
2, 1002997, Note_on_c, 0, 53, 44
2, 1003023, Note_off_c, 0, 53, 64
2, 1003030, Note_off_c, 0, 61, 64
2, 1003051, Note_on_c, 0, 37, 60
2, 1003072, Note_off_c, 0, 37, 64
2, 1003123, Note_on_c, 0, 65, 63
2, 1003126, Note_on_c, 0, 56, 58
2, 1003152, Note_off_c, 0, 56, 64
2, 1003238, Control_c, 0, 64, 0
2, 1003244, Note_on_c, 0, 37, 70
2, 1003248, Note_on_c, 0, 68, 64
2, 1003261, Note_off_c, 0, 65, 64
2, 1003276, Control_c, 0, 64, 127
2, 1003305, Note_on_c, 0, 44, 49
2, 1003317, Note_off_c, 0, 37, 64
2, 1003356, Note_off_c, 0, 44, 64
2, 1003359, Note_on_c, 0, 53, 48
2, 1003361, Note_on_c, 0, 73, 64
2, 1003369, Note_off_c, 0, 68, 64
2, 1003386, Note_off_c, 0, 53, 64
2, 1003412, Note_on_c, 0, 37, 48
2, 1003446, Note_off_c, 0, 37, 64
2, 1003477, Note_on_c, 0, 56, 61
2, 1003499, Note_off_c, 0, 56, 64
2, 1003537, Note_on_c, 0, 77, 65
2, 1003538, Note_off_c, 0, 73, 64
2, 1003635, Note_on_c, 0, 75, 63
2, 1003635, Control_c, 0, 64, 0
2, 1003638, Note_on_c, 0, 37, 42
2, 1003642, Note_off_c, 0, 77, 64
2, 1003681, Control_c, 0, 64, 127
2, 1003720, Note_on_c, 0, 44, 39
2, 1003731, Note_off_c, 0, 37, 64
2, 1003769, Note_off_c, 0, 44, 64
2, 1003774, Note_on_c, 0, 53, 22
2, 1003795, Note_off_c, 0, 53, 64
2, 1003814, Note_on_c, 0, 37, 43
2, 1003836, Note_off_c, 0, 37, 64
2, 1003868, Note_on_c, 0, 73, 64
2, 1003872, Note_on_c, 0, 56, 48
2, 1003886, Note_off_c, 0, 75, 64
2, 1003910, Note_off_c, 0, 56, 64
2, 1003992, Note_on_c, 0, 68, 63
2, 1003992, Control_c, 0, 64, 0
2, 1003995, Note_on_c, 0, 37, 52
2, 1004011, Note_off_c, 0, 73, 64
2, 1004023, Control_c, 0, 64, 127
2, 1004052, Note_on_c, 0, 44, 35
2, 1004056, Note_off_c, 0, 37, 64
2, 1004101, Note_off_c, 0, 44, 64
2, 1004103, Note_on_c, 0, 53, 29
2, 1004135, Note_off_c, 0, 53, 64
2, 1004154, Note_on_c, 0, 37, 40
2, 1004176, Note_off_c, 0, 37, 64
2, 1004217, Note_on_c, 0, 56, 42
2, 1004237, Note_off_c, 0, 56, 64
2, 1004312, Control_c, 0, 64, 0
2, 1004325, Note_on_c, 0, 37, 51
2, 1004358, Control_c, 0, 64, 127
2, 1004381, Note_on_c, 0, 44, 32
2, 1004384, Note_off_c, 0, 37, 64
2, 1004400, Note_off_c, 0, 68, 64
2, 1004430, Note_on_c, 0, 53, 31
2, 1004437, Note_off_c, 0, 44, 64
2, 1004460, Note_off_c, 0, 53, 64
2, 1004487, Note_on_c, 0, 37, 42
2, 1004513, Note_off_c, 0, 37, 64
2, 1004555, Note_on_c, 0, 65, 48
2, 1004555, Note_on_c, 0, 56, 44
2, 1004585, Note_off_c, 0, 56, 64
2, 1004659, Control_c, 0, 64, 0
2, 1004662, Note_on_c, 0, 37, 52
2, 1004667, Note_on_c, 0, 68, 54
2, 1004684, Note_off_c, 0, 65, 64
2, 1004702, Control_c, 0, 64, 127
2, 1004719, Note_on_c, 0, 44, 34
2, 1004729, Note_off_c, 0, 37, 64
2, 1004766, Note_off_c, 0, 44, 64
2, 1004766, Note_on_c, 0, 73, 48
2, 1004771, Note_on_c, 0, 53, 34
2, 1004772, Note_off_c, 0, 68, 64
2, 1004798, Note_off_c, 0, 53, 64
2, 1004827, Note_on_c, 0, 37, 48
2, 1004843, Note_off_c, 0, 37, 64
2, 1004882, Note_on_c, 0, 56, 52
2, 1004903, Note_off_c, 0, 56, 64
2, 1004929, Note_off_c, 0, 73, 64
2, 1004937, Note_on_c, 0, 77, 45
2, 1005029, Control_c, 0, 64, 0
2, 1005035, Note_on_c, 0, 37, 50
2, 1005038, Note_on_c, 0, 75, 50
2, 1005048, Note_off_c, 0, 77, 64
2, 1005076, Control_c, 0, 64, 127
2, 1005133, Note_on_c, 0, 45, 28
2, 1005134, Note_off_c, 0, 37, 64
2, 1005179, Note_off_c, 0, 45, 64
2, 1005179, Note_on_c, 0, 53, 22
2, 1005209, Note_off_c, 0, 53, 64
2, 1005221, Note_on_c, 0, 37, 46
2, 1005239, Note_off_c, 0, 37, 64
2, 1005273, Note_on_c, 0, 73, 50
2, 1005277, Note_on_c, 0, 57, 40
2, 1005286, Note_off_c, 0, 75, 64
2, 1005301, Note_off_c, 0, 57, 64
2, 1005402, Note_on_c, 0, 37, 62
2, 1005402, Control_c, 0, 64, 0
2, 1005408, Note_on_c, 0, 69, 49
2, 1005417, Note_off_c, 0, 73, 64
2, 1005439, Control_c, 0, 64, 127
2, 1005463, Note_off_c, 0, 37, 64
2, 1005469, Note_on_c, 0, 45, 24
2, 1005508, Note_off_c, 0, 45, 64
2, 1005516, Note_on_c, 0, 53, 26
2, 1005542, Note_off_c, 0, 53, 64
2, 1005568, Note_on_c, 0, 37, 50
2, 1005594, Note_off_c, 0, 37, 64
2, 1005632, Note_on_c, 0, 57, 46
2, 1005663, Note_off_c, 0, 57, 64
2, 1005744, Control_c, 0, 64, 0
2, 1005755, Note_on_c, 0, 37, 72
2, 1005778, Control_c, 0, 64, 127
2, 1005810, Note_off_c, 0, 69, 64
2, 1005810, Note_on_c, 0, 45, 39
2, 1005814, Note_off_c, 0, 37, 64
2, 1005861, Note_on_c, 0, 53, 48
2, 1005864, Note_on_c, 0, 69, 60
2, 1005865, Note_off_c, 0, 45, 64
2, 1005890, Note_off_c, 0, 53, 64
2, 1005913, Note_on_c, 0, 37, 52
2, 1005925, Note_off_c, 0, 69, 64
2, 1005933, Note_off_c, 0, 37, 64
2, 1005963, Note_on_c, 0, 69, 63
2, 1005973, Note_on_c, 0, 57, 55
2, 1006007, Note_off_c, 0, 57, 64
2, 1006049, Note_off_c, 0, 69, 64
2, 1006084, Note_on_c, 0, 69, 63
2, 1006087, Note_on_c, 0, 37, 70
2, 1006093, Control_c, 0, 64, 0
2, 1006126, Control_c, 0, 64, 127
2, 1006139, Note_on_c, 0, 45, 46
2, 1006147, Note_off_c, 0, 37, 64
2, 1006200, Note_off_c, 0, 45, 64
2, 1006200, Note_on_c, 0, 53, 45
2, 1006205, Note_on_c, 0, 65, 66
2, 1006206, Note_off_c, 0, 69, 64
2, 1006224, Note_off_c, 0, 53, 64
2, 1006261, Note_on_c, 0, 37, 50
2, 1006299, Note_off_c, 0, 37, 64
2, 1006306, Note_off_c, 0, 65, 64
2, 1006330, Note_on_c, 0, 57, 46
2, 1006353, Note_off_c, 0, 57, 64
2, 1006397, Note_on_c, 0, 67, 78
2, 1006472, Note_on_c, 0, 69, 68
2, 1006476, Note_on_c, 0, 37, 76
2, 1006481, Note_off_c, 0, 67, 64
2, 1006514, Control_c, 0, 64, 0
2, 1006542, Control_c, 0, 64, 127
2, 1006550, Note_on_c, 0, 45, 43
2, 1006556, Note_off_c, 0, 37, 64
2, 1006595, Note_on_c, 0, 53, 38
2, 1006601, Note_off_c, 0, 45, 64
2, 1006623, Note_off_c, 0, 53, 64
2, 1006649, Note_on_c, 0, 37, 55
2, 1006678, Note_off_c, 0, 37, 64
2, 1006710, Note_on_c, 0, 57, 48
2, 1006737, Note_off_c, 0, 57, 64
2, 1006822, Control_c, 0, 64, 0
2, 1006825, Note_on_c, 0, 37, 88
2, 1006858, Control_c, 0, 64, 127
2, 1006888, Note_on_c, 0, 45, 61
2, 1006895, Note_off_c, 0, 37, 64
2, 1006937, Note_on_c, 0, 53, 46
2, 1006939, Note_off_c, 0, 45, 64
2, 1006972, Note_off_c, 0, 53, 64
2, 1006992, Note_on_c, 0, 37, 68
2, 1007018, Note_off_c, 0, 37, 64
2, 1007052, Note_on_c, 0, 57, 73
2, 1007071, Note_off_c, 0, 57, 64
2, 1007157, Control_c, 0, 64, 0
2, 1007164, Note_on_c, 0, 37, 92
2, 1007181, Note_off_c, 0, 69, 64
2, 1007186, Control_c, 0, 64, 127
2, 1007221, Note_on_c, 0, 45, 46
2, 1007245, Note_off_c, 0, 37, 64
2, 1007271, Note_on_c, 0, 69, 58
2, 1007274, Note_on_c, 0, 81, 61
2, 1007274, Note_on_c, 0, 53, 33
2, 1007276, Note_off_c, 0, 45, 64
2, 1007307, Note_off_c, 0, 53, 64
2, 1007330, Note_on_c, 0, 37, 59
2, 1007354, Note_off_c, 0, 37, 64
2, 1007369, Note_off_c, 0, 69, 64
2, 1007371, Note_off_c, 0, 81, 64
2, 1007400, Note_on_c, 0, 57, 54
2, 1007403, Note_on_c, 0, 81, 64
2, 1007403, Note_on_c, 0, 69, 67
2, 1007434, Note_off_c, 0, 57, 64
2, 1007500, Note_off_c, 0, 81, 64
2, 1007504, Note_off_c, 0, 69, 64
2, 1007514, Control_c, 0, 64, 0
2, 1007528, Note_on_c, 0, 37, 80
2, 1007532, Note_on_c, 0, 81, 65
2, 1007533, Note_on_c, 0, 69, 67
2, 1007547, Control_c, 0, 64, 127
2, 1007573, Note_off_c, 0, 81, 64
2, 1007574, Note_off_c, 0, 69, 64
2, 1007577, Note_on_c, 0, 45, 49
2, 1007580, Note_off_c, 0, 37, 64
2, 1007637, Note_off_c, 0, 45, 64
2, 1007642, Note_on_c, 0, 72, 46
2, 1007643, Note_on_c, 0, 53, 54
2, 1007646, Note_on_c, 0, 84, 56
2, 1007662, Note_off_c, 0, 72, 64
2, 1007677, Note_off_c, 0, 53, 64
2, 1007683, Note_off_c, 0, 84, 64
2, 1007683, Note_on_c, 0, 82, 80
2, 1007684, Note_on_c, 0, 70, 69
2, 1007723, Note_on_c, 0, 37, 51
2, 1007757, Note_off_c, 0, 37, 64
2, 1007779, Note_off_c, 0, 82, 64
2, 1007785, Note_on_c, 0, 57, 52
2, 1007808, Note_off_c, 0, 70, 64
2, 1007812, Note_off_c, 0, 57, 64
2, 1007846, Note_on_c, 0, 69, 62
2, 1007850, Note_on_c, 0, 81, 67
2, 1007903, Note_off_c, 0, 69, 64
2, 1007906, Note_off_c, 0, 81, 64
2, 1007935, Control_c, 0, 64, 0
2, 1007941, Note_on_c, 0, 81, 66
2, 1007941, Note_on_c, 0, 69, 68
2, 1007944, Note_on_c, 0, 38, 70
2, 1007972, Control_c, 0, 64, 127
2, 1008012, Note_on_c, 0, 45, 55
2, 1008015, Note_off_c, 0, 81, 64
2, 1008023, Note_off_c, 0, 38, 64
2, 1008072, Note_on_c, 0, 53, 54
2, 1008088, Note_off_c, 0, 69, 64
2, 1008096, Note_off_c, 0, 45, 64
2, 1008116, Note_off_c, 0, 53, 64
2, 1008119, Note_on_c, 0, 38, 55
2, 1008141, Note_off_c, 0, 38, 64
2, 1008190, Note_on_c, 0, 77, 66
2, 1008190, Note_on_c, 0, 65, 62
2, 1008196, Note_on_c, 0, 57, 52
2, 1008225, Note_off_c, 0, 57, 64
2, 1008244, Note_off_c, 0, 77, 64
2, 1008257, Note_off_c, 0, 65, 64
2, 1008320, Control_c, 0, 64, 0
2, 1008329, Note_on_c, 0, 38, 74
2, 1008331, Note_on_c, 0, 74, 65
2, 1008331, Note_on_c, 0, 62, 60
2, 1008357, Control_c, 0, 64, 127
2, 1008386, Note_on_c, 0, 45, 54
2, 1008391, Note_off_c, 0, 38, 64
2, 1008445, Note_on_c, 0, 53, 49
2, 1008454, Note_off_c, 0, 45, 64
2, 1008489, Note_off_c, 0, 53, 64
2, 1008496, Note_on_c, 0, 38, 49
2, 1008519, Note_off_c, 0, 38, 64
2, 1008556, Note_on_c, 0, 57, 52
2, 1008590, Note_off_c, 0, 57, 64
2, 1008654, Control_c, 0, 64, 0
2, 1008674, Note_on_c, 0, 38, 80
2, 1008697, Control_c, 0, 64, 127
2, 1008731, Note_on_c, 0, 45, 56
2, 1008752, Note_off_c, 0, 38, 64
2, 1008787, Note_off_c, 0, 74, 64
2, 1008788, Note_off_c, 0, 62, 64
2, 1008795, Note_on_c, 0, 53, 58
2, 1008800, Note_off_c, 0, 45, 64
2, 1008841, Note_off_c, 0, 53, 64
2, 1008845, Note_on_c, 0, 38, 53
2, 1008868, Note_off_c, 0, 38, 64
2, 1008907, Note_on_c, 0, 77, 64
2, 1008907, Note_on_c, 0, 65, 63
2, 1008911, Note_on_c, 0, 57, 52
2, 1008949, Note_off_c, 0, 57, 64
2, 1008957, Note_off_c, 0, 65, 64
2, 1008958, Note_off_c, 0, 77, 64
2, 1009040, Note_on_c, 0, 69, 58
2, 1009042, Note_on_c, 0, 81, 66
2, 1009042, Note_on_c, 0, 38, 71
2, 1009094, Note_off_c, 0, 69, 64
2, 1009097, Note_on_c, 0, 45, 54
2, 1009101, Note_off_c, 0, 81, 64
2, 1009102, Note_off_c, 0, 38, 64
2, 1009163, Note_on_c, 0, 86, 66
2, 1009165, Note_off_c, 0, 45, 64
2, 1009165, Note_on_c, 0, 74, 63
2, 1009167, Note_on_c, 0, 53, 56
2, 1009201, Note_off_c, 0, 74, 64
2, 1009206, Note_off_c, 0, 86, 64
2, 1009219, Note_on_c, 0, 38, 52
2, 1009229, Note_off_c, 0, 53, 64
2, 1009250, Note_off_c, 0, 38, 64
2, 1009283, Note_on_c, 0, 57, 44
2, 1009308, Note_off_c, 0, 57, 64
2, 1009339, Note_on_c, 0, 89, 64
2, 1009341, Note_on_c, 0, 77, 58
2, 1009378, Note_off_c, 0, 89, 64
2, 1009384, Note_off_c, 0, 77, 64
2, 1009415, Control_c, 0, 64, 0
2, 1009421, Note_on_c, 0, 76, 60
2, 1009421, Note_on_c, 0, 34, 102
2, 1009423, Note_on_c, 0, 88, 68
2, 1009456, Control_c, 0, 64, 127
2, 1009471, Note_on_c, 0, 43, 58
2, 1009477, Note_off_c, 0, 34, 64
2, 1009521, Note_off_c, 0, 43, 64
2, 1009525, Note_on_c, 0, 50, 64
2, 1009528, Note_off_c, 0, 88, 64
2, 1009566, Note_off_c, 0, 76, 64
2, 1009573, Note_on_c, 0, 34, 58
2, 1009580, Note_off_c, 0, 50, 64
2, 1009631, Note_on_c, 0, 86, 64
2, 1009631, Note_on_c, 0, 52, 60
2, 1009632, Note_off_c, 0, 34, 64
2, 1009633, Note_on_c, 0, 74, 59
2, 1009658, Note_off_c, 0, 86, 64
2, 1009662, Note_off_c, 0, 74, 64
2, 1009702, Note_off_c, 0, 52, 64
2, 1009732, Control_c, 0, 64, 0
2, 1009740, Note_on_c, 0, 79, 66
2, 1009740, Note_on_c, 0, 67, 60
2, 1009742, Note_on_c, 0, 34, 102
2, 1009764, Control_c, 0, 64, 127
2, 1009770, Note_off_c, 0, 67, 64
2, 1009781, Note_off_c, 0, 79, 64
2, 1009789, Note_on_c, 0, 43, 60
2, 1009803, Note_off_c, 0, 34, 64
2, 1009849, Note_on_c, 0, 50, 62
2, 1009851, Note_off_c, 0, 43, 64
2, 1009851, Note_on_c, 0, 86, 66
2, 1009851, Note_on_c, 0, 74, 63
2, 1009883, Note_off_c, 0, 74, 64
2, 1009892, Note_off_c, 0, 86, 64
2, 1009898, Note_off_c, 0, 50, 64
2, 1009902, Note_on_c, 0, 34, 68
2, 1009950, Note_off_c, 0, 34, 64
2, 1009963, Note_on_c, 0, 53, 39
2, 1010005, Note_off_c, 0, 53, 64
2, 1010009, Note_on_c, 0, 89, 66
2, 1010011, Note_on_c, 0, 77, 56
2, 1010050, Note_off_c, 0, 89, 64
2, 1010053, Note_off_c, 0, 77, 64
2, 1010066, Control_c, 0, 64, 0
2, 1010078, Note_on_c, 0, 34, 102
2, 1010080, Note_on_c, 0, 76, 68
2, 1010081, Note_on_c, 0, 88, 71
2, 1010104, Control_c, 0, 64, 127
2, 1010126, Note_on_c, 0, 44, 58
2, 1010140, Note_off_c, 0, 34, 64
2, 1010180, Note_off_c, 0, 44, 64
2, 1010182, Note_on_c, 0, 50, 54
2, 1010213, Note_off_c, 0, 88, 64
2, 1010224, Note_off_c, 0, 50, 64
2, 1010227, Note_on_c, 0, 34, 54
2, 1010238, Note_off_c, 0, 76, 64
2, 1010259, Note_off_c, 0, 34, 64
2, 1010289, Note_on_c, 0, 86, 68
2, 1010292, Note_on_c, 0, 53, 54
2, 1010293, Note_on_c, 0, 74, 64
2, 1010316, Note_off_c, 0, 86, 64
2, 1010318, Note_off_c, 0, 74, 64
2, 1010319, Note_off_c, 0, 53, 64
2, 1010399, Note_on_c, 0, 80, 65
2, 1010402, Note_on_c, 0, 68, 66
2, 1010404, Note_on_c, 0, 34, 102
2, 1010404, Control_c, 0, 64, 0
2, 1010436, Control_c, 0, 64, 127
2, 1010447, Note_on_c, 0, 44, 39
2, 1010474, Note_off_c, 0, 34, 64
2, 1010503, Note_off_c, 0, 44, 64
2, 1010505, Note_on_c, 0, 50, 60
2, 1010512, Note_on_c, 0, 86, 68
2, 1010512, Note_on_c, 0, 74, 64
2, 1010549, Note_off_c, 0, 80, 64
2, 1010552, Note_off_c, 0, 68, 64
2, 1010554, Note_off_c, 0, 50, 64
2, 1010557, Note_on_c, 0, 34, 66
2, 1010595, Note_off_c, 0, 34, 64
2, 1010619, Note_on_c, 0, 89, 66
2, 1010622, Note_on_c, 0, 77, 68
2, 1010629, Note_on_c, 0, 53, 44
2, 1010656, Note_off_c, 0, 53, 64
2, 1010662, Note_off_c, 0, 74, 64
2, 1010662, Note_off_c, 0, 86, 64
2, 1010755, Control_c, 0, 64, 0
2, 1010762, Note_on_c, 0, 98, 64
2, 1010762, Note_on_c, 0, 34, 81
2, 1010763, Note_on_c, 0, 101, 68
2, 1010769, Note_off_c, 0, 89, 64
2, 1010772, Note_off_c, 0, 77, 64
2, 1010793, Control_c, 0, 64, 127
2, 1010802, Note_on_c, 0, 97, 52
2, 1010803, Note_on_c, 0, 100, 65
2, 1010806, Note_off_c, 0, 98, 64
2, 1010807, Note_off_c, 0, 101, 64
2, 1010809, Note_off_c, 0, 34, 64
2, 1010816, Note_on_c, 0, 44, 53
2, 1010835, Note_on_c, 0, 99, 62
2, 1010835, Note_on_c, 0, 96, 74
2, 1010847, Note_off_c, 0, 97, 64
2, 1010848, Note_off_c, 0, 100, 64
2, 1010859, Note_off_c, 0, 44, 64
2, 1010870, Note_on_c, 0, 50, 64
2, 1010874, Note_on_c, 0, 95, 76
2, 1010875, Note_on_c, 0, 98, 74
2, 1010880, Note_off_c, 0, 96, 64
2, 1010880, Note_off_c, 0, 99, 64
2, 1010898, Note_on_c, 0, 97, 79
2, 1010898, Note_on_c, 0, 94, 71
2, 1010909, Note_off_c, 0, 95, 64
2, 1010910, Note_off_c, 0, 98, 64
2, 1010912, Note_on_c, 0, 34, 46
2, 1010924, Note_off_c, 0, 50, 64
2, 1010931, Note_on_c, 0, 93, 69
2, 1010932, Note_on_c, 0, 96, 60
2, 1010936, Note_off_c, 0, 94, 64
2, 1010936, Note_off_c, 0, 97, 64
2, 1010943, Note_off_c, 0, 34, 64
2, 1010966, Note_on_c, 0, 53, 51
2, 1010967, Note_on_c, 0, 92, 68
2, 1010968, Note_on_c, 0, 95, 62
2, 1010978, Note_off_c, 0, 93, 64
2, 1010979, Note_off_c, 0, 96, 64
2, 1010996, Note_off_c, 0, 53, 64
2, 1010997, Note_on_c, 0, 94, 68
2, 1010997, Note_on_c, 0, 91, 52
2, 1011009, Note_off_c, 0, 92, 64
2, 1011010, Note_off_c, 0, 95, 64
2, 1011010, Note_on_c, 0, 91, 58
2, 1011028, Note_on_c, 0, 93, 28
2, 1011028, Note_on_c, 0, 90, 68
2, 1011029, Note_off_c, 0, 91, 64
2, 1011041, Note_off_c, 0, 94, 64
2, 1011054, Note_off_c, 0, 91, 64
2, 1011054, Note_on_c, 0, 92, 68
2, 1011054, Note_on_c, 0, 89, 72
2, 1011057, Control_c, 0, 64, 0
2, 1011060, Note_off_c, 0, 90, 64
2, 1011060, Note_off_c, 0, 93, 64
2, 1011060, Note_on_c, 0, 34, 80
2, 1011086, Control_c, 0, 64, 127
2, 1011098, Note_on_c, 0, 91, 52
2, 1011098, Note_on_c, 0, 88, 63
2, 1011104, Note_off_c, 0, 89, 64
2, 1011104, Note_off_c, 0, 92, 64
2, 1011108, Note_off_c, 0, 34, 64
2, 1011112, Note_on_c, 0, 44, 45
2, 1011129, Note_off_c, 0, 91, 64
2, 1011131, Note_off_c, 0, 88, 64
2, 1011134, Note_on_c, 0, 90, 63
2, 1011134, Note_on_c, 0, 87, 68
2, 1011151, Note_off_c, 0, 44, 64
2, 1011163, Note_off_c, 0, 90, 64
2, 1011166, Note_on_c, 0, 89, 62
2, 1011166, Note_on_c, 0, 86, 72
2, 1011168, Note_on_c, 0, 50, 60
2, 1011175, Note_off_c, 0, 87, 64
2, 1011190, Note_on_c, 0, 88, 63
2, 1011191, Note_on_c, 0, 85, 66
2, 1011201, Note_off_c, 0, 89, 64
2, 1011203, Note_off_c, 0, 86, 64
2, 1011206, Note_off_c, 0, 50, 64
2, 1011220, Note_on_c, 0, 34, 42
2, 1011230, Note_on_c, 0, 84, 72
2, 1011232, Note_on_c, 0, 87, 59
2, 1011245, Note_off_c, 0, 88, 64
2, 1011246, Note_off_c, 0, 85, 64
2, 1011266, Note_off_c, 0, 34, 64
2, 1011269, Note_off_c, 0, 84, 64
2, 1011269, Note_off_c, 0, 87, 64
2, 1011270, Note_on_c, 0, 53, 63
2, 1011271, Note_on_c, 0, 86, 77
2, 1011271, Note_on_c, 0, 83, 72
2, 1011291, Note_off_c, 0, 53, 64
2, 1011298, Note_on_c, 0, 85, 72
2, 1011298, Note_on_c, 0, 82, 72
2, 1011306, Note_off_c, 0, 83, 64
2, 1011306, Note_off_c, 0, 86, 64
2, 1011332, Note_on_c, 0, 84, 69
2, 1011332, Note_on_c, 0, 81, 69
2, 1011337, Note_off_c, 0, 82, 64
2, 1011337, Note_off_c, 0, 85, 64
2, 1011356, Control_c, 0, 64, 0
2, 1011362, Note_on_c, 0, 83, 50
2, 1011362, Note_on_c, 0, 80, 69
2, 1011362, Note_on_c, 0, 34, 85
2, 1011371, Note_off_c, 0, 84, 64
2, 1011378, Note_off_c, 0, 81, 64
2, 1011391, Control_c, 0, 64, 127
2, 1011401, Note_on_c, 0, 82, 63
2, 1011401, Note_on_c, 0, 79, 71
2, 1011406, Note_off_c, 0, 80, 64
2, 1011406, Note_off_c, 0, 83, 64
2, 1011420, Note_off_c, 0, 34, 64
2, 1011424, Note_on_c, 0, 44, 36
2, 1011435, Note_on_c, 0, 81, 64
2, 1011435, Note_on_c, 0, 78, 68
2, 1011443, Note_off_c, 0, 79, 64
2, 1011446, Note_off_c, 0, 82, 64
2, 1011464, Note_off_c, 0, 44, 64
2, 1011472, Note_on_c, 0, 80, 68
2, 1011472, Note_on_c, 0, 77, 62
2, 1011472, Note_on_c, 0, 50, 58
2, 1011483, Note_off_c, 0, 78, 64
2, 1011483, Note_off_c, 0, 81, 64
2, 1011504, Note_off_c, 0, 50, 64
2, 1011505, Note_on_c, 0, 79, 71
2, 1011506, Note_off_c, 0, 80, 64
2, 1011506, Note_on_c, 0, 76, 72
2, 1011508, Note_off_c, 0, 77, 64
2, 1011516, Note_on_c, 0, 34, 36
2, 1011535, Note_on_c, 0, 78, 79
2, 1011535, Note_on_c, 0, 75, 74
2, 1011540, Note_off_c, 0, 76, 64
2, 1011541, Note_off_c, 0, 79, 64
2, 1011565, Note_off_c, 0, 34, 64
2, 1011570, Note_on_c, 0, 53, 33
2, 1011573, Note_off_c, 0, 75, 64
2, 1011573, Note_off_c, 0, 78, 64
2, 1011573, Note_on_c, 0, 77, 71
2, 1011573, Note_on_c, 0, 74, 74
2, 1011606, Note_on_c, 0, 76, 69
2, 1011606, Note_on_c, 0, 73, 64
2, 1011609, Note_off_c, 0, 53, 64
2, 1011611, Note_off_c, 0, 77, 64
2, 1011614, Note_off_c, 0, 74, 64
2, 1011643, Note_on_c, 0, 75, 62
2, 1011644, Note_on_c, 0, 72, 81
2, 1011655, Note_off_c, 0, 76, 64
2, 1011655, Control_c, 0, 64, 0
2, 1011656, Note_off_c, 0, 73, 64
2, 1011680, Note_on_c, 0, 74, 68
2, 1011680, Note_on_c, 0, 71, 72
2, 1011680, Note_on_c, 0, 34, 85
2, 1011684, Note_off_c, 0, 75, 64
2, 1011685, Note_off_c, 0, 72, 64
2, 1011688, Control_c, 0, 64, 127
2, 1011706, Note_on_c, 0, 70, 64
2, 1011707, Note_on_c, 0, 73, 68
2, 1011719, Note_off_c, 0, 71, 64
2, 1011719, Note_off_c, 0, 74, 64
2, 1011726, Note_on_c, 0, 44, 49
2, 1011728, Note_off_c, 0, 34, 64
2, 1011748, Note_on_c, 0, 72, 63
2, 1011748, Note_on_c, 0, 69, 69
2, 1011749, Note_off_c, 0, 73, 64
2, 1011750, Note_off_c, 0, 70, 64
2, 1011773, Note_off_c, 0, 44, 64
2, 1011780, Note_on_c, 0, 68, 64
2, 1011780, Note_on_c, 0, 50, 49
2, 1011781, Note_off_c, 0, 72, 64
2, 1011781, Note_on_c, 0, 71, 76
2, 1011784, Note_off_c, 0, 69, 64
2, 1011813, Note_off_c, 0, 50, 64
2, 1011821, Note_off_c, 0, 68, 64
2, 1011822, Note_off_c, 0, 71, 64
2, 1011824, Note_on_c, 0, 70, 72
2, 1011824, Note_on_c, 0, 67, 68
2, 1011854, Note_on_c, 0, 34, 83
2, 1011870, Note_on_c, 0, 69, 65
2, 1011870, Note_on_c, 0, 66, 56
2, 1011873, Note_off_c, 0, 67, 64
2, 1011873, Note_off_c, 0, 70, 64
2, 1011910, Note_off_c, 0, 66, 64
2, 1011910, Note_off_c, 0, 69, 64
2, 1011916, Note_on_c, 0, 68, 85
2, 1011916, Note_on_c, 0, 65, 71
2, 1011918, Note_on_c, 0, 53, 28
2, 1011944, Note_off_c, 0, 34, 64
2, 1011966, Note_off_c, 0, 65, 64
2, 1011966, Note_off_c, 0, 68, 64
2, 1011968, Note_on_c, 0, 68, 85
2, 1011968, Note_on_c, 0, 64, 68
2, 1012005, Note_off_c, 0, 53, 64
2, 1012018, Note_off_c, 0, 64, 64
2, 1012018, Note_off_c, 0, 68, 64
2, 1012018, Note_on_c, 0, 62, 64
2, 1012023, Note_on_c, 0, 68, 85
2, 1012078, Note_off_c, 0, 62, 64
2, 1012080, Note_on_c, 0, 33, 92
2, 1012083, Note_off_c, 0, 68, 64
2, 1012084, Note_on_c, 0, 57, 85
2, 1012084, Control_c, 0, 64, 0
2, 1012128, Control_c, 0, 64, 127
2, 1012161, Note_on_c, 0, 41, 54
2, 1012201, Note_off_c, 0, 33, 64
2, 1012206, Note_off_c, 0, 41, 64
2, 1012215, Note_on_c, 0, 50, 56
2, 1012255, Note_off_c, 0, 50, 64
2, 1012272, Note_on_c, 0, 33, 63
2, 1012301, Note_off_c, 0, 33, 64
2, 1012320, Note_on_c, 0, 53, 46
2, 1012337, Note_off_c, 0, 57, 64
2, 1012383, Note_on_c, 0, 69, 81
2, 1012404, Note_off_c, 0, 69, 64
2, 1012406, Note_off_c, 0, 53, 64
2, 1012421, Note_on_c, 0, 69, 85
2, 1012428, Note_on_c, 0, 33, 81
2, 1012432, Control_c, 0, 64, 0
2, 1012460, Control_c, 0, 64, 127
2, 1012493, Note_on_c, 0, 41, 57
2, 1012505, Note_off_c, 0, 33, 64
2, 1012537, Note_on_c, 0, 45, 53
2, 1012546, Note_off_c, 0, 41, 64
2, 1012576, Note_off_c, 0, 45, 64
2, 1012581, Note_on_c, 0, 33, 64
2, 1012610, Note_off_c, 0, 33, 64
2, 1012640, Note_on_c, 0, 50, 63
2, 1012670, Note_off_c, 0, 50, 64
2, 1012748, Control_c, 0, 64, 0
2, 1012754, Note_on_c, 0, 33, 79
2, 1012782, Control_c, 0, 64, 127
2, 1012796, Note_on_c, 0, 41, 56
2, 1012835, Note_off_c, 0, 33, 64
2, 1012841, Note_off_c, 0, 69, 64
2, 1012845, Note_on_c, 0, 67, 66
2, 1012848, Note_on_c, 0, 45, 55
2, 1012849, Note_off_c, 0, 41, 64
2, 1012878, Note_off_c, 0, 45, 64
2, 1012892, Note_on_c, 0, 33, 51
2, 1012916, Note_off_c, 0, 33, 64
2, 1012940, Note_on_c, 0, 50, 60
2, 1012956, Note_off_c, 0, 50, 64
2, 1012986, Note_on_c, 0, 65, 66
2, 1012993, Note_off_c, 0, 67, 64
2, 1013052, Control_c, 0, 64, 0
2, 1013062, Note_on_c, 0, 33, 67
2, 1013066, Note_on_c, 0, 64, 69
2, 1013079, Note_off_c, 0, 65, 64
2, 1013090, Control_c, 0, 64, 127
2, 1013113, Note_on_c, 0, 41, 51
2, 1013125, Note_off_c, 0, 33, 64
2, 1013157, Note_on_c, 0, 65, 60
2, 1013162, Note_off_c, 0, 41, 64
2, 1013163, Note_off_c, 0, 64, 64
2, 1013170, Note_on_c, 0, 45, 47
2, 1013196, Note_on_c, 0, 64, 69
2, 1013200, Note_off_c, 0, 45, 64
2, 1013204, Note_on_c, 0, 33, 57
2, 1013208, Note_off_c, 0, 65, 64
2, 1013230, Note_off_c, 0, 33, 64
2, 1013244, Note_on_c, 0, 62, 54
2, 1013247, Note_off_c, 0, 64, 64
2, 1013252, Note_on_c, 0, 50, 53
2, 1013288, Note_off_c, 0, 50, 64
2, 1013290, Note_on_c, 0, 64, 74
2, 1013296, Note_off_c, 0, 62, 64
2, 1013328, Note_on_c, 0, 65, 69
2, 1013334, Note_off_c, 0, 64, 64
2, 1013360, Note_on_c, 0, 62, 68
2, 1013372, Note_off_c, 0, 65, 64
2, 1013402, Control_c, 0, 64, 0
2, 1013412, Note_on_c, 0, 57, 68
2, 1013415, Note_on_c, 0, 33, 74
2, 1013419, Note_off_c, 0, 62, 64
2, 1013440, Control_c, 0, 64, 127
2, 1013454, Note_off_c, 0, 57, 64
2, 1013472, Note_on_c, 0, 41, 57
2, 1013489, Note_off_c, 0, 33, 64
2, 1013515, Note_off_c, 0, 41, 64
2, 1013518, Note_on_c, 0, 50, 68
2, 1013540, Note_off_c, 0, 50, 64
2, 1013574, Note_on_c, 0, 33, 48
2, 1013600, Note_off_c, 0, 33, 64
2, 1013638, Note_on_c, 0, 53, 58
2, 1013639, Note_on_c, 0, 69, 71
2, 1013640, Note_on_c, 0, 81, 71
2, 1013672, Note_off_c, 0, 69, 64
2, 1013678, Note_off_c, 0, 53, 64
2, 1013684, Note_off_c, 0, 81, 64
2, 1013757, Control_c, 0, 64, 0
2, 1013767, Note_on_c, 0, 81, 74
2, 1013768, Note_on_c, 0, 93, 72
2, 1013768, Note_on_c, 0, 33, 72
2, 1013788, Control_c, 0, 64, 127
2, 1013825, Note_off_c, 0, 33, 64
2, 1013838, Note_on_c, 0, 41, 44
2, 1013886, Note_on_c, 0, 50, 36
2, 1013889, Note_off_c, 0, 41, 64
2, 1013922, Note_off_c, 0, 50, 64
2, 1013934, Note_on_c, 0, 33, 60
2, 1013953, Note_off_c, 0, 33, 64
2, 1013990, Note_on_c, 0, 53, 60
2, 1014030, Note_off_c, 0, 53, 64
2, 1014086, Control_c, 0, 64, 0
2, 1014103, Note_on_c, 0, 33, 75
2, 1014122, Control_c, 0, 64, 127
2, 1014138, Note_off_c, 0, 93, 64
2, 1014162, Note_on_c, 0, 41, 54
2, 1014163, Note_off_c, 0, 81, 64
2, 1014166, Note_off_c, 0, 33, 64
2, 1014203, Note_on_c, 0, 91, 68
2, 1014203, Note_on_c, 0, 79, 62
2, 1014207, Note_on_c, 0, 50, 54
2, 1014211, Note_off_c, 0, 41, 64
2, 1014238, Note_off_c, 0, 50, 64
2, 1014254, Note_on_c, 0, 33, 58
2, 1014276, Note_off_c, 0, 33, 64
2, 1014308, Note_on_c, 0, 53, 60
2, 1014324, Note_off_c, 0, 91, 64
2, 1014339, Note_off_c, 0, 79, 64
2, 1014348, Note_off_c, 0, 53, 64
2, 1014366, Note_on_c, 0, 89, 56
2, 1014369, Note_on_c, 0, 77, 68
2, 1014407, Note_off_c, 0, 77, 64
2, 1014408, Note_off_c, 0, 89, 64
2, 1014412, Control_c, 0, 64, 0
2, 1014434, Note_on_c, 0, 88, 65
2, 1014434, Note_on_c, 0, 33, 67
2, 1014436, Note_on_c, 0, 76, 68
2, 1014445, Control_c, 0, 64, 127
2, 1014477, Note_off_c, 0, 76, 64
2, 1014479, Note_off_c, 0, 33, 64
2, 1014482, Note_off_c, 0, 88, 64
2, 1014486, Note_on_c, 0, 41, 44
2, 1014509, Note_on_c, 0, 89, 64
2, 1014509, Note_on_c, 0, 77, 69
2, 1014531, Note_off_c, 0, 77, 64
2, 1014535, Note_off_c, 0, 89, 64
2, 1014536, Note_off_c, 0, 41, 64
2, 1014538, Note_on_c, 0, 50, 36
2, 1014568, Note_on_c, 0, 88, 68
2, 1014570, Note_on_c, 0, 76, 68
2, 1014572, Note_off_c, 0, 50, 64
2, 1014584, Note_on_c, 0, 33, 31
2, 1014585, Note_off_c, 0, 76, 64
2, 1014588, Note_off_c, 0, 88, 64
2, 1014600, Note_off_c, 0, 33, 64
2, 1014610, Note_on_c, 0, 86, 69
2, 1014612, Note_on_c, 0, 74, 66
2, 1014626, Note_off_c, 0, 74, 64
2, 1014629, Note_off_c, 0, 86, 64
2, 1014637, Note_on_c, 0, 53, 36
2, 1014647, Note_on_c, 0, 88, 71
2, 1014647, Note_on_c, 0, 76, 72
2, 1014660, Note_off_c, 0, 76, 64
2, 1014661, Note_off_c, 0, 88, 64
2, 1014665, Note_off_c, 0, 53, 64
2, 1014682, Note_on_c, 0, 89, 76
2, 1014683, Note_on_c, 0, 77, 76
2, 1014699, Note_off_c, 0, 77, 64
2, 1014706, Note_off_c, 0, 89, 64
2, 1014748, Note_on_c, 0, 86, 68
2, 1014752, Note_on_c, 0, 74, 69
2, 1014766, Note_off_c, 0, 86, 64
2, 1014768, Note_off_c, 0, 74, 64
2, 1014804, Note_on_c, 0, 94, 72
2, 1014804, Note_on_c, 0, 82, 74
2, 1014808, Note_on_c, 0, 33, 64
2, 1014812, Control_c, 0, 64, 0
2, 1014840, Control_c, 0, 64, 127
2, 1014850, Note_off_c, 0, 33, 64
2, 1014860, Note_off_c, 0, 94, 64
2, 1014862, Note_on_c, 0, 43, 28
2, 1014868, Note_off_c, 0, 82, 64
2, 1014913, Note_on_c, 0, 50, 58
2, 1014917, Note_on_c, 0, 88, 69
2, 1014917, Note_on_c, 0, 76, 68
2, 1014919, Note_off_c, 0, 43, 64
2, 1014937, Note_off_c, 0, 76, 64
2, 1014952, Note_off_c, 0, 50, 64
2, 1014956, Note_off_c, 0, 88, 64
2, 1014963, Note_on_c, 0, 33, 63
2, 1014990, Note_off_c, 0, 33, 64
2, 1015009, Note_on_c, 0, 89, 74
2, 1015009, Note_on_c, 0, 77, 69
2, 1015014, Note_on_c, 0, 52, 54
2, 1015031, Note_off_c, 0, 52, 64
2, 1015031, Note_off_c, 0, 77, 64
2, 1015043, Note_off_c, 0, 89, 64
2, 1015108, Control_c, 0, 64, 0
2, 1015119, Note_on_c, 0, 93, 66
2, 1015119, Note_on_c, 0, 81, 68
2, 1015119, Note_on_c, 0, 33, 67
2, 1015138, Control_c, 0, 64, 127
2, 1015155, Note_off_c, 0, 33, 64
2, 1015166, Note_on_c, 0, 43, 56
2, 1015182, Note_off_c, 0, 93, 64
2, 1015193, Note_off_c, 0, 81, 64
2, 1015221, Note_off_c, 0, 43, 64
2, 1015222, Note_on_c, 0, 50, 56
2, 1015224, Note_on_c, 0, 91, 68
2, 1015225, Note_on_c, 0, 79, 69
2, 1015246, Note_off_c, 0, 91, 64
2, 1015247, Note_off_c, 0, 79, 64
2, 1015251, Note_off_c, 0, 50, 64
2, 1015273, Note_on_c, 0, 33, 47
2, 1015292, Note_off_c, 0, 33, 64
2, 1015326, Note_on_c, 0, 82, 66
2, 1015326, Note_on_c, 0, 70, 74
2, 1015331, Note_on_c, 0, 52, 54
2, 1015342, Note_off_c, 0, 70, 64
2, 1015348, Note_off_c, 0, 82, 64
2, 1015351, Note_off_c, 0, 52, 64
2, 1015420, Control_c, 0, 64, 0
2, 1015428, Note_on_c, 0, 86, 66
2, 1015430, Note_on_c, 0, 74, 64
2, 1015432, Note_on_c, 0, 33, 69
2, 1015448, Control_c, 0, 64, 127
2, 1015465, Note_off_c, 0, 33, 64
2, 1015470, Note_off_c, 0, 86, 64
2, 1015479, Note_on_c, 0, 43, 42
2, 1015484, Note_off_c, 0, 74, 64
2, 1015527, Note_on_c, 0, 50, 63
2, 1015530, Note_on_c, 0, 79, 68
2, 1015530, Note_on_c, 0, 55, 68
2, 1015532, Note_off_c, 0, 43, 64
2, 1015562, Note_off_c, 0, 50, 64
2, 1015575, Note_on_c, 0, 33, 49
2, 1015581, Note_off_c, 0, 79, 64
2, 1015584, Note_off_c, 0, 55, 64
2, 1015598, Note_off_c, 0, 33, 64
2, 1015627, Note_on_c, 0, 52, 64
2, 1015629, Note_on_c, 0, 81, 72
2, 1015630, Note_on_c, 0, 69, 69
2, 1015648, Note_off_c, 0, 69, 64
2, 1015655, Note_off_c, 0, 52, 64
2, 1015660, Note_off_c, 0, 81, 64
2, 1015724, Control_c, 0, 64, 0
2, 1015737, Note_on_c, 0, 84, 66
2, 1015739, Note_on_c, 0, 72, 58
2, 1015739, Note_on_c, 0, 33, 69
2, 1015757, Control_c, 0, 64, 127
2, 1015773, Note_off_c, 0, 33, 64
2, 1015784, Note_on_c, 0, 43, 43
2, 1015790, Note_off_c, 0, 72, 64
2, 1015813, Note_off_c, 0, 84, 64
2, 1015840, Note_off_c, 0, 43, 64
2, 1015840, Note_on_c, 0, 50, 40
2, 1015842, Note_on_c, 0, 70, 69
2, 1015845, Note_on_c, 0, 82, 64
2, 1015875, Note_off_c, 0, 50, 64
2, 1015877, Note_off_c, 0, 82, 64
2, 1015886, Note_off_c, 0, 70, 64
2, 1015892, Note_on_c, 0, 33, 35
2, 1015913, Note_off_c, 0, 33, 64
2, 1015984, Note_on_c, 0, 76, 63
2, 1015984, Note_on_c, 0, 52, 52
2, 1016004, Note_off_c, 0, 52, 64
2, 1016018, Note_off_c, 0, 76, 64
2, 1016043, Control_c, 0, 64, 0
2, 1016053, Note_on_c, 0, 79, 68
2, 1016053, Note_on_c, 0, 67, 68
2, 1016058, Note_on_c, 0, 33, 69
2, 1016071, Control_c, 0, 64, 127
2, 1016089, Note_off_c, 0, 79, 64
2, 1016090, Note_off_c, 0, 33, 64
2, 1016098, Note_off_c, 0, 67, 64
2, 1016102, Note_on_c, 0, 43, 52
2, 1016143, Note_off_c, 0, 43, 64
2, 1016159, Note_on_c, 0, 70, 68
2, 1016159, Note_on_c, 0, 50, 72
2, 1016169, Note_on_c, 0, 62, 26
2, 1016185, Note_off_c, 0, 50, 64
2, 1016190, Note_off_c, 0, 62, 64
2, 1016193, Note_off_c, 0, 70, 64
2, 1016211, Note_on_c, 0, 33, 58
2, 1016234, Note_off_c, 0, 33, 64
2, 1016265, Note_on_c, 0, 72, 66
2, 1016266, Note_on_c, 0, 60, 66
2, 1016269, Note_on_c, 0, 52, 59
2, 1016290, Note_off_c, 0, 60, 64
2, 1016294, Note_off_c, 0, 52, 64
2, 1016299, Note_off_c, 0, 72, 64
2, 1016360, Control_c, 0, 64, 0
2, 1016373, Note_on_c, 0, 76, 68
2, 1016375, Note_on_c, 0, 64, 64
2, 1016378, Note_on_c, 0, 33, 69
2, 1016393, Control_c, 0, 64, 127
2, 1016410, Note_off_c, 0, 33, 64
2, 1016427, Note_on_c, 0, 43, 47
2, 1016428, Note_off_c, 0, 76, 64
2, 1016434, Note_off_c, 0, 64, 64
2, 1016468, Note_on_c, 0, 62, 56
2, 1016470, Note_on_c, 0, 74, 64
2, 1016470, Note_on_c, 0, 50, 54
2, 1016471, Note_off_c, 0, 43, 64
2, 1016500, Note_off_c, 0, 50, 64
2, 1016500, Note_off_c, 0, 74, 64
2, 1016503, Note_off_c, 0, 62, 64
2, 1016517, Note_on_c, 0, 33, 63
2, 1016541, Note_off_c, 0, 33, 64
2, 1016576, Note_on_c, 0, 55, 56
2, 1016577, Note_on_c, 0, 67, 64
2, 1016580, Note_on_c, 0, 52, 56
2, 1016593, Note_off_c, 0, 52, 64
2, 1016600, Note_off_c, 0, 55, 64
2, 1016601, Note_off_c, 0, 67, 64
2, 1016688, Control_c, 0, 64, 0
2, 1016695, Note_on_c, 0, 70, 77
2, 1016697, Note_on_c, 0, 58, 69
2, 1016700, Note_on_c, 0, 33, 69
2, 1016721, Control_c, 0, 64, 127
2, 1016736, Note_off_c, 0, 33, 64
2, 1016751, Note_on_c, 0, 43, 26
2, 1016801, Note_off_c, 0, 43, 64
2, 1016804, Note_on_c, 0, 50, 63
2, 1016839, Note_off_c, 0, 50, 64
2, 1016858, Note_on_c, 0, 33, 50
2, 1016877, Note_off_c, 0, 33, 64
2, 1016911, Note_on_c, 0, 52, 64
2, 1016915, Note_off_c, 0, 70, 64
2, 1016917, Note_off_c, 0, 58, 64
2, 1016929, Note_off_c, 0, 52, 64
2, 1017015, Control_c, 0, 64, 0
2, 1017028, Note_on_c, 0, 61, 71
2, 1017028, Note_on_c, 0, 33, 69
2, 1017029, Note_on_c, 0, 49, 69
2, 1017043, Control_c, 0, 64, 127
2, 1017078, Note_on_c, 0, 43, 60
2, 1017091, Note_off_c, 0, 33, 64
2, 1017125, Note_off_c, 0, 43, 64
2, 1017137, Note_on_c, 0, 45, 68
2, 1017169, Note_off_c, 0, 45, 64
2, 1017189, Note_on_c, 0, 33, 52
2, 1017224, Note_off_c, 0, 33, 64
2, 1017248, Note_off_c, 0, 61, 64
2, 1017249, Note_off_c, 0, 49, 64
2, 1017251, Note_on_c, 0, 52, 72
2, 1017311, Note_off_c, 0, 52, 64
2, 1017390, Note_on_c, 0, 62, 68
2, 1017390, Note_on_c, 0, 50, 54
2, 1017394, Note_on_c, 0, 38, 76
2, 1017398, Control_c, 0, 64, 0
2, 1017426, Control_c, 0, 64, 127
2, 1017451, Note_on_c, 0, 45, 58
2, 1017464, Note_off_c, 0, 38, 64
2, 1017497, Note_on_c, 0, 53, 64
2, 1017510, Note_off_c, 0, 50, 64
2, 1017511, Note_off_c, 0, 45, 64
2, 1017515, Note_off_c, 0, 62, 64
2, 1017541, Note_off_c, 0, 53, 64
2, 1017545, Note_on_c, 0, 38, 66
2, 1017572, Note_off_c, 0, 38, 64
2, 1017598, Note_on_c, 0, 57, 66
2, 1017621, Note_off_c, 0, 57, 64
2, 1017705, Note_on_c, 0, 38, 71
2, 1017721, Control_c, 0, 64, 0
2, 1017761, Note_on_c, 0, 45, 56
2, 1017761, Control_c, 0, 64, 127
2, 1017790, Note_off_c, 0, 38, 64
2, 1017813, Note_on_c, 0, 53, 66
2, 1017836, Note_off_c, 0, 45, 64
2, 1017860, Note_off_c, 0, 53, 64
2, 1017861, Note_on_c, 0, 38, 60
2, 1017886, Note_off_c, 0, 38, 64
2, 1017914, Note_on_c, 0, 57, 66
2, 1017935, Note_off_c, 0, 57, 64
2, 1018021, Note_on_c, 0, 101, 68
2, 1018026, Note_on_c, 0, 89, 66
2, 1018026, Note_on_c, 0, 38, 58
2, 1018027, Control_c, 0, 64, 0
2, 1018068, Note_on_c, 0, 44, 40
2, 1018076, Note_off_c, 0, 38, 64
2, 1018088, Control_c, 0, 64, 127
2, 1018112, Note_on_c, 0, 53, 58
2, 1018114, Note_off_c, 0, 44, 64
2, 1018147, Note_on_c, 0, 38, 56
2, 1018149, Note_on_c, 0, 100, 60
2, 1018151, Note_off_c, 0, 53, 64
2, 1018152, Note_off_c, 0, 101, 64
2, 1018154, Note_off_c, 0, 89, 64
2, 1018170, Note_on_c, 0, 98, 64
2, 1018184, Note_off_c, 0, 38, 64
2, 1018185, Note_off_c, 0, 100, 64
2, 1018189, Note_on_c, 0, 56, 30
2, 1018194, Note_on_c, 0, 95, 56
2, 1018204, Note_off_c, 0, 98, 64
2, 1018208, Note_on_c, 0, 91, 68
2, 1018228, Note_off_c, 0, 95, 64
2, 1018228, Note_on_c, 0, 89, 58
2, 1018238, Note_on_c, 0, 88, 74
2, 1018242, Note_off_c, 0, 91, 64
2, 1018250, Note_off_c, 0, 56, 64
2, 1018252, Note_on_c, 0, 38, 60
2, 1018257, Note_on_c, 0, 86, 64
2, 1018262, Note_off_c, 0, 89, 64
2, 1018271, Note_off_c, 0, 88, 64
2, 1018279, Note_on_c, 0, 83, 58
2, 1018290, Note_off_c, 0, 86, 64
2, 1018296, Note_on_c, 0, 79, 72
2, 1018300, Note_on_c, 0, 45, 43
2, 1018308, Note_off_c, 0, 38, 64
2, 1018313, Note_off_c, 0, 83, 64
2, 1018325, Note_on_c, 0, 77, 68
2, 1018330, Note_off_c, 0, 79, 64
2, 1018334, Note_off_c, 0, 45, 64
2, 1018339, Note_on_c, 0, 76, 56
2, 1018340, Note_on_c, 0, 53, 54
2, 1018352, Note_off_c, 0, 77, 64
2, 1018363, Note_on_c, 0, 74, 58
2, 1018371, Note_off_c, 0, 76, 64
2, 1018376, Note_on_c, 0, 71, 63
2, 1018390, Note_off_c, 0, 74, 64
2, 1018400, Note_off_c, 0, 53, 64
2, 1018404, Note_on_c, 0, 38, 54
2, 1018405, Note_on_c, 0, 67, 64
2, 1018410, Note_off_c, 0, 71, 64
2, 1018427, Note_on_c, 0, 65, 72
2, 1018443, Note_on_c, 0, 64, 66
2, 1018453, Note_off_c, 0, 67, 64
2, 1018464, Note_off_c, 0, 38, 64
2, 1018465, Note_off_c, 0, 65, 64
2, 1018469, Note_on_c, 0, 62, 56
2, 1018481, Note_off_c, 0, 64, 64
2, 1018488, Note_on_c, 0, 56, 54
2, 1018507, Note_off_c, 0, 62, 64
2, 1018516, Note_on_c, 0, 59, 64
2, 1018548, Note_off_c, 0, 56, 64
2, 1018548, Note_on_c, 0, 55, 63
2, 1018554, Note_off_c, 0, 59, 64
2, 1018566, Note_on_c, 0, 53, 63
2, 1018568, Note_off_c, 0, 55, 64
2, 1018584, Note_off_c, 0, 53, 64
2, 1018594, Note_on_c, 0, 52, 60
2, 1018608, Note_off_c, 0, 52, 64
2, 1018608, Note_on_c, 0, 50, 79
2, 1018608, Note_on_c, 0, 38, 54
2, 1018623, Control_c, 0, 64, 0
2, 1018668, Note_off_c, 0, 38, 64
2, 1018714, Note_on_c, 0, 45, 51
2, 1018719, Control_c, 0, 64, 127
2, 1018740, Note_off_c, 0, 45, 64
2, 1018756, Note_on_c, 0, 53, 74
2, 1018782, Note_off_c, 0, 53, 64
2, 1018813, Note_on_c, 0, 38, 58
2, 1018841, Note_off_c, 0, 38, 64
2, 1018866, Note_on_c, 0, 57, 68
2, 1018883, Note_off_c, 0, 50, 64
2, 1018889, Note_off_c, 0, 57, 64
2, 1018979, Note_on_c, 0, 38, 66
2, 1019032, Note_on_c, 0, 45, 56
2, 1019055, Note_off_c, 0, 38, 64
2, 1019072, Control_c, 0, 64, 0
2, 1019087, Note_on_c, 0, 53, 60
2, 1019092, Control_c, 0, 64, 127
2, 1019113, Note_off_c, 0, 45, 64
2, 1019136, Note_on_c, 0, 38, 59
2, 1019149, Note_off_c, 0, 53, 64
2, 1019161, Note_off_c, 0, 38, 64
2, 1019196, Note_on_c, 0, 57, 63
2, 1019217, Note_off_c, 0, 57, 64
2, 1019312, Control_c, 0, 64, 0
2, 1019317, Note_on_c, 0, 71, 68
2, 1019320, Note_on_c, 0, 65, 64
2, 1019320, Note_on_c, 0, 59, 66
2, 1019323, Note_on_c, 0, 38, 60
2, 1019350, Control_c, 0, 64, 127
2, 1019373, Note_on_c, 0, 44, 54
2, 1019385, Note_off_c, 0, 38, 64
2, 1019421, Note_off_c, 0, 44, 64
2, 1019430, Note_on_c, 0, 53, 36
2, 1019460, Note_off_c, 0, 53, 64
2, 1019472, Note_on_c, 0, 38, 44
2, 1019497, Note_off_c, 0, 38, 64
2, 1019536, Note_on_c, 0, 56, 54
2, 1019563, Note_off_c, 0, 56, 64
2, 1019595, Note_off_c, 0, 71, 64
2, 1019611, Note_off_c, 0, 59, 64
2, 1019626, Note_off_c, 0, 65, 64
2, 1019652, Note_on_c, 0, 70, 68
2, 1019654, Note_on_c, 0, 65, 64
2, 1019654, Control_c, 0, 64, 0
2, 1019658, Note_on_c, 0, 58, 72
2, 1019663, Note_on_c, 0, 38, 54
2, 1019686, Control_c, 0, 64, 127
2, 1019703, Note_on_c, 0, 44, 54
2, 1019714, Note_off_c, 0, 38, 64
2, 1019759, Note_on_c, 0, 53, 39
2, 1019761, Note_off_c, 0, 44, 64
2, 1019791, Note_off_c, 0, 53, 64
2, 1019803, Note_on_c, 0, 38, 55
2, 1019833, Note_off_c, 0, 38, 64
2, 1019864, Note_on_c, 0, 56, 62
2, 1019891, Note_off_c, 0, 56, 64
2, 1019924, Note_off_c, 0, 65, 64
2, 1019948, Note_off_c, 0, 58, 64
2, 1019962, Note_off_c, 0, 70, 64
2, 1019985, Note_on_c, 0, 65, 58
2, 1019986, Control_c, 0, 64, 0
2, 1019992, Note_on_c, 0, 69, 60
2, 1019992, Note_on_c, 0, 57, 60
2, 1019996, Note_on_c, 0, 38, 59
2, 1020019, Control_c, 0, 64, 127
2, 1020045, Note_off_c, 0, 38, 64
2, 1020046, Note_on_c, 0, 45, 53
2, 1020095, Note_off_c, 0, 65, 64
2, 1020099, Note_on_c, 0, 53, 41
2, 1020111, Note_off_c, 0, 45, 64
2, 1020113, Note_off_c, 0, 57, 64
2, 1020154, Note_on_c, 0, 38, 56
2, 1020166, Note_off_c, 0, 53, 64
2, 1020175, Note_off_c, 0, 38, 64
2, 1020213, Note_on_c, 0, 57, 28
2, 1020242, Note_off_c, 0, 57, 64
2, 1020315, Control_c, 0, 64, 0
2, 1020322, Note_on_c, 0, 38, 58
2, 1020349, Control_c, 0, 64, 127
2, 1020366, Note_on_c, 0, 45, 51
2, 1020383, Note_off_c, 0, 38, 64
2, 1020415, Note_on_c, 0, 53, 44
2, 1020431, Note_off_c, 0, 45, 64
2, 1020462, Note_off_c, 0, 53, 64
2, 1020467, Note_on_c, 0, 38, 43
2, 1020469, Note_off_c, 0, 69, 64
2, 1020492, Note_off_c, 0, 38, 64
2, 1020528, Note_on_c, 0, 57, 27
2, 1020550, Note_off_c, 0, 57, 64
2, 1020616, Control_c, 0, 64, 0
2, 1020621, Note_on_c, 0, 101, 76
2, 1020622, Note_on_c, 0, 89, 66
2, 1020626, Note_on_c, 0, 38, 60
2, 1020654, Control_c, 0, 64, 127
2, 1020678, Note_on_c, 0, 44, 50
2, 1020692, Note_off_c, 0, 38, 64
2, 1020726, Note_on_c, 0, 53, 46
2, 1020727, Note_off_c, 0, 44, 64
2, 1020761, Note_on_c, 0, 38, 56
2, 1020763, Note_off_c, 0, 89, 64
2, 1020768, Note_off_c, 0, 53, 64
2, 1020768, Note_on_c, 0, 100, 71
2, 1020774, Note_off_c, 0, 101, 64
2, 1020787, Note_on_c, 0, 98, 72
2, 1020791, Note_off_c, 0, 38, 64
2, 1020804, Note_off_c, 0, 100, 64
2, 1020809, Note_on_c, 0, 95, 63
2, 1020821, Note_on_c, 0, 91, 71
2, 1020823, Note_off_c, 0, 98, 64
2, 1020836, Note_on_c, 0, 89, 59
2, 1020844, Note_on_c, 0, 56, 63
2, 1020845, Note_off_c, 0, 95, 64
2, 1020852, Note_on_c, 0, 88, 62
2, 1020857, Note_off_c, 0, 56, 64
2, 1020857, Note_off_c, 0, 91, 64
2, 1020860, Note_on_c, 0, 86, 62
2, 1020872, Note_off_c, 0, 89, 64
2, 1020886, Note_on_c, 0, 83, 55
2, 1020888, Note_off_c, 0, 88, 64
2, 1020898, Note_off_c, 0, 86, 64
2, 1020908, Note_on_c, 0, 79, 68
2, 1020922, Note_off_c, 0, 83, 64
2, 1020927, Note_on_c, 0, 77, 72
2, 1020929, Note_on_c, 0, 38, 56
2, 1020938, Note_on_c, 0, 76, 54
2, 1020944, Note_off_c, 0, 79, 64
2, 1020961, Note_off_c, 0, 38, 64
2, 1020963, Note_off_c, 0, 77, 64
2, 1020968, Note_on_c, 0, 74, 58
2, 1020980, Note_on_c, 0, 44, 43
2, 1020986, Note_off_c, 0, 76, 64
2, 1020992, Note_on_c, 0, 71, 63
2, 1021014, Note_off_c, 0, 44, 64
2, 1021016, Note_off_c, 0, 74, 64
2, 1021016, Note_on_c, 0, 53, 69
2, 1021021, Note_on_c, 0, 67, 64
2, 1021040, Note_off_c, 0, 71, 64
2, 1021043, Note_off_c, 0, 53, 64
2, 1021043, Note_on_c, 0, 65, 72
2, 1021056, Note_on_c, 0, 38, 58
2, 1021064, Note_on_c, 0, 64, 66
2, 1021069, Note_off_c, 0, 67, 64
2, 1021074, Note_off_c, 0, 38, 64
2, 1021081, Note_off_c, 0, 65, 64
2, 1021088, Note_on_c, 0, 62, 56
2, 1021092, Note_on_c, 0, 56, 57
2, 1021097, Note_off_c, 0, 64, 64
2, 1021106, Note_off_c, 0, 56, 64
2, 1021108, Note_on_c, 0, 59, 64
2, 1021111, Note_off_c, 0, 62, 64
2, 1021132, Note_on_c, 0, 55, 64
2, 1021137, Note_off_c, 0, 59, 64
2, 1021152, Note_off_c, 0, 55, 64
2, 1021160, Note_on_c, 0, 53, 67
2, 1021176, Note_on_c, 0, 52, 56
2, 1021178, Note_off_c, 0, 53, 64
2, 1021198, Control_c, 0, 64, 0
2, 1021199, Note_off_c, 0, 52, 64
2, 1021204, Note_on_c, 0, 50, 90
2, 1021204, Note_on_c, 0, 38, 58
2, 1021232, Note_off_c, 0, 38, 64
2, 1021239, Control_c, 0, 64, 0
2, 1021256, Note_on_c, 0, 45, 54
2, 1021259, Control_c, 0, 64, 127
2, 1021305, Note_off_c, 0, 45, 64
2, 1021324, Note_on_c, 0, 53, 69
2, 1021358, Note_off_c, 0, 53, 64
2, 1021359, Note_off_c, 0, 50, 64
2, 1021384, Note_on_c, 0, 38, 54
2, 1021414, Note_off_c, 0, 38, 64
2, 1021434, Note_on_c, 0, 57, 71
2, 1021474, Note_off_c, 0, 57, 64
2, 1021547, Note_on_c, 0, 38, 68
2, 1021555, Control_c, 0, 64, 0
2, 1021589, Control_c, 0, 64, 127
2, 1021596, Note_on_c, 0, 45, 58
2, 1021615, Note_off_c, 0, 38, 64
2, 1021653, Note_on_c, 0, 53, 56
2, 1021668, Note_off_c, 0, 45, 64
2, 1021702, Note_on_c, 0, 38, 53
2, 1021704, Note_off_c, 0, 53, 64
2, 1021728, Note_off_c, 0, 38, 64
2, 1021763, Note_on_c, 0, 57, 45
2, 1021786, Note_off_c, 0, 57, 64
2, 1021875, Control_c, 0, 64, 0
2, 1021877, Note_on_c, 0, 38, 47
2, 1021883, Note_on_c, 0, 71, 41
2, 1021884, Note_on_c, 0, 59, 33
2, 1021896, Note_on_c, 0, 65, 42
2, 1021913, Control_c, 0, 64, 127
2, 1021933, Note_off_c, 0, 59, 64
2, 1021936, Note_off_c, 0, 71, 64
2, 1021942, Note_on_c, 0, 44, 57
2, 1021950, Note_off_c, 0, 38, 64
2, 1021963, Note_on_c, 0, 71, 42
2, 1021967, Note_on_c, 0, 59, 44
2, 1021990, Note_off_c, 0, 59, 64
2, 1021998, Note_off_c, 0, 71, 64
2, 1021998, Note_off_c, 0, 44, 64
2, 1022004, Note_off_c, 0, 65, 64
2, 1022008, Note_on_c, 0, 53, 44
2, 1022024, Note_on_c, 0, 65, 38
2, 1022025, Note_on_c, 0, 59, 39
2, 1022028, Note_on_c, 0, 71, 30
2, 1022040, Note_off_c, 0, 53, 64
2, 1022047, Note_off_c, 0, 59, 64
2, 1022049, Note_on_c, 0, 38, 50
2, 1022050, Note_off_c, 0, 65, 64
2, 1022051, Note_off_c, 0, 71, 64
2, 1022072, Note_off_c, 0, 38, 64
2, 1022079, Note_on_c, 0, 65, 51
2, 1022081, Note_on_c, 0, 71, 51
2, 1022081, Note_on_c, 0, 59, 49
2, 1022100, Note_on_c, 0, 56, 29
2, 1022103, Note_off_c, 0, 59, 64
2, 1022104, Note_off_c, 0, 65, 64
2, 1022111, Note_off_c, 0, 71, 64
2, 1022122, Note_off_c, 0, 56, 64
2, 1022136, Note_on_c, 0, 71, 40
2, 1022141, Note_on_c, 0, 59, 51
2, 1022142, Note_on_c, 0, 65, 49
2, 1022160, Note_off_c, 0, 59, 64
2, 1022164, Note_off_c, 0, 65, 64
2, 1022170, Note_off_c, 0, 71, 64
2, 1022178, Control_c, 0, 64, 0
2, 1022189, Note_on_c, 0, 71, 54
2, 1022190, Note_on_c, 0, 59, 56
2, 1022192, Note_on_c, 0, 65, 52
2, 1022194, Note_on_c, 0, 38, 63
2, 1022213, Control_c, 0, 64, 127
2, 1022224, Note_off_c, 0, 71, 64
2, 1022227, Note_off_c, 0, 59, 64
2, 1022239, Note_off_c, 0, 65, 64
2, 1022250, Note_on_c, 0, 70, 65
2, 1022252, Note_on_c, 0, 65, 61
2, 1022255, Note_on_c, 0, 58, 70
2, 1022262, Note_off_c, 0, 38, 64
2, 1022277, Note_on_c, 0, 44, 58
2, 1022284, Note_off_c, 0, 58, 64
2, 1022287, Note_off_c, 0, 65, 64
2, 1022292, Note_off_c, 0, 70, 64
2, 1022319, Note_on_c, 0, 70, 58
2, 1022321, Note_on_c, 0, 58, 66
2, 1022323, Note_on_c, 0, 65, 58
2, 1022326, Note_on_c, 0, 53, 42
2, 1022329, Note_off_c, 0, 44, 64
2, 1022344, Note_off_c, 0, 58, 64
2, 1022353, Note_off_c, 0, 70, 64
2, 1022357, Note_off_c, 0, 53, 64
2, 1022371, Note_on_c, 0, 38, 53
2, 1022386, Note_on_c, 0, 70, 68
2, 1022388, Note_on_c, 0, 58, 71
2, 1022394, Note_off_c, 0, 38, 64
2, 1022413, Note_off_c, 0, 58, 64
2, 1022414, Note_off_c, 0, 65, 64
2, 1022418, Note_off_c, 0, 70, 64
2, 1022432, Note_on_c, 0, 56, 63
2, 1022443, Note_on_c, 0, 70, 70
2, 1022446, Note_on_c, 0, 58, 73
2, 1022448, Note_on_c, 0, 65, 64
2, 1022451, Note_off_c, 0, 56, 64
2, 1022466, Note_off_c, 0, 65, 64
2, 1022470, Note_off_c, 0, 58, 64
2, 1022477, Note_off_c, 0, 70, 64
2, 1022504, Note_on_c, 0, 38, 63
2, 1022534, Note_on_c, 0, 45, 63
2, 1022539, Control_c, 0, 64, 0
2, 1022546, Note_on_c, 0, 69, 77
2, 1022547, Note_on_c, 0, 65, 77
2, 1022551, Note_on_c, 0, 57, 87
2, 1022551, Note_on_c, 0, 53, 74
2, 1022659, Control_c, 0, 64, 127
2, 1022708, Note_off_c, 0, 57, 64
2, 1022716, Note_off_c, 0, 65, 64
2, 1022724, Note_off_c, 0, 45, 64
2, 1022724, Note_off_c, 0, 38, 64
2, 1022728, Note_off_c, 0, 69, 64
2, 1022742, Note_off_c, 0, 53, 64
2, 1022912, Note_on_c, 0, 77, 68
2, 1022919, Note_on_c, 0, 98, 69
2, 1022921, Note_on_c, 0, 86, 63
2, 1022921, Note_on_c, 0, 74, 68
2, 1022924, Note_on_c, 0, 65, 65
2, 1022927, Note_on_c, 0, 69, 64
2, 1022982, Note_off_c, 0, 86, 64
2, 1022995, Note_off_c, 0, 98, 64
2, 1023031, Note_off_c, 0, 69, 64
2, 1023036, Note_off_c, 0, 65, 64
2, 1023036, Note_off_c, 0, 77, 64
2, 1023045, Note_off_c, 0, 74, 64
2, 1023278, Note_on_c, 0, 94, 49
2, 1023345, Note_on_c, 0, 93, 53
2, 1023356, Note_off_c, 0, 94, 64
2, 1023396, Note_on_c, 0, 89, 57
2, 1023411, Note_off_c, 0, 93, 64
2, 1023430, Note_on_c, 0, 86, 58
2, 1023441, Note_off_c, 0, 89, 64
2, 1023464, Note_on_c, 0, 82, 59
2, 1023492, Note_on_c, 0, 81, 58
2, 1023498, Note_off_c, 0, 86, 64
2, 1023506, Note_off_c, 0, 82, 64
2, 1023525, Note_on_c, 0, 77, 63
2, 1023540, Note_off_c, 0, 81, 64
2, 1023553, Note_on_c, 0, 74, 64
2, 1023557, Note_off_c, 0, 77, 64
2, 1023570, Note_off_c, 0, 74, 64
2, 1023578, Note_on_c, 0, 70, 67
2, 1023605, Note_on_c, 0, 69, 68
2, 1023611, Note_off_c, 0, 70, 64
2, 1023638, Note_off_c, 0, 69, 64
2, 1023642, Note_on_c, 0, 65, 51
2, 1023654, Note_on_c, 0, 62, 72
2, 1023668, Note_off_c, 0, 65, 64
2, 1023674, Note_off_c, 0, 62, 64
2, 1023680, Note_on_c, 0, 58, 71
2, 1023703, Note_on_c, 0, 57, 74
2, 1023709, Note_off_c, 0, 58, 64
2, 1023729, Note_on_c, 0, 53, 75
2, 1023744, Note_off_c, 0, 57, 64
2, 1023752, Note_on_c, 0, 50, 79
2, 1023759, Note_off_c, 0, 53, 64
2, 1023772, Note_off_c, 0, 50, 64
2, 1023774, Note_on_c, 0, 46, 78
2, 1023801, Note_on_c, 0, 45, 81
2, 1023803, Note_off_c, 0, 46, 64
2, 1023831, Note_on_c, 0, 41, 44
2, 1023833, Note_off_c, 0, 45, 64
2, 1023836, Note_on_c, 0, 38, 70
2, 1023854, Note_off_c, 0, 41, 64
2, 1023858, Note_on_c, 0, 34, 85
2, 1023861, Note_off_c, 0, 38, 64
2, 1023880, Note_on_c, 0, 33, 87
2, 1023889, Note_off_c, 0, 34, 64
2, 1023898, Note_on_c, 0, 29, 73
2, 1023914, Note_off_c, 0, 33, 64
2, 1023924, Note_on_c, 0, 28, 89
2, 1023926, Note_off_c, 0, 29, 64
2, 1023948, Note_off_c, 0, 28, 64
2, 1023953, Note_on_c, 0, 26, 109
2, 1023983, Control_c, 0, 64, 0
2, 1024038, Control_c, 0, 64, 127
2, 1024823, Note_off_c, 0, 26, 64
2, 1024845, Note_on_c, 0, 26, 124
2, 1025805, Note_off_c, 0, 26, 64
2, 1025810, Note_on_c, 0, 26, 127
2, 1026879, Control_c, 0, 64, 0
2, 1027490, Note_off_c, 0, 26, 64
2, 1027490, End_track
3, 0, Start_track
3, 0, Title_t, "24 Preludes, Op. 28"
3, 0, End_track
4, 0, Start_track
4, 0, Title_t, "Realtime performance May 1997"
4, 0, End_track
5, 0, Start_track
5, 0, Title_t, "by Ron Lubetsky, M.D."
5, 0, End_track
6, 0, Start_track
6, 0, End_track
7, 0, Start_track
7, 0, End_track
8, 0, Start_track
8, 0, End_track
9, 0, Start_track
9, 0, Title_t, "No portion of this MIDI "
9, 0, End_track
10, 0, Start_track
10, 0, Title_t, "sequence by be altered or "
10, 0, End_track
11, 0, Start_track
11, 0, Title_t, "redistributed without sole "
11, 0, End_track
12, 0, Start_track
12, 0, Title_t, "permission of the author."
12, 0, End_track
13, 0, Start_track
13, 0, End_track
14, 0, Start_track
14, 0, Title_t, "Copyright   1997 by"
14, 0, End_track
15, 0, Start_track
15, 0, Title_t, "Ron Lubetsky, M.D."
15, 0, End_track
16, 0, Start_track
16, 0, Title_t, "All Rights Reserved"
16, 0, End_track
17, 0, Start_track
17, 0, Title_t, "Email: acuity2020@aol.com"
17, 0, End_track
18, 0, Start_track
18, 0, Title_t, "Website:"
18, 0, End_track
19, 0, Start_track
19, 0, Title_t, "'The Classical MIDI Resource'"
19, 0, End_track
20, 0, Start_track
20, 0, Title_t, "http://www.uchsc.edu/"
20, 0, End_track
21, 0, Start_track
21, 0, Title_t, "sm/ophthal/midi/mymidi.htm"
21, 0, End_track
0, 0, End_of_file
