0, 0, Header, 1, 5, 240
1, 0, Start_track
1, 0, MIDI_port, 0
1, 0, System_exclusive, 5, 126, 127, 9, 1, 247
1, 0, MIDI_port, 0
1, 0, Time_signature, 6, 3, 12, 8
1, 0, Key_signature, -4, "major"
1, 0, Tempo, 529708
1, 0, Marker_t, "Allegro, molto agitato"
1, 840, Tempo, 512033
1, 900, Tempo, 556225
1, 960, Tempo, 538600
1, 1020, Tempo, 494438
1, 1080, Tempo, 556225
1, 1140, Tempo, 520969
1, 1200, Tempo, 538600
1, 1260, Tempo, 503187
1, 1320, Tempo, 529708
1, 1380, Tempo, 538600
1, 1440, Tempo, 547445
1, 1500, Tempo, 529708
1, 1560, Tempo, 512033
1, 1620, Tempo, 547445
1, 1680, Tempo, 538600
1, 1740, Tempo, 520969
1, 1800, Tempo, 538600
1, 1860, Tempo, 529708
1, 1920, Tempo, 512033
1, 1980, Tempo, 529708
1, 2040, Tempo, 512033
1, 2100, Tempo, 547445
1, 2160, Tempo, 538600
1, 2280, Tempo, 520969
1, 2340, Tempo, 512033
1, 2400, Tempo, 538600
1, 2460, Tempo, 529708
1, 2580, Tempo, 547445
1, 2640, Tempo, 512033
1, 2760, Tempo, 556225
1, 2820, Tempo, 520969
1, 2880, Tempo, 538600
1, 2940, Tempo, 529708
1, 3000, Tempo, 538600
1, 3060, Tempo, 529708
1, 3120, Tempo, 520969
1, 3180, Tempo, 512033
1, 3240, Tempo, 529708
1, 3300, Tempo, 520969
1, 3360, Tempo, 556225
1, 3420, Tempo, 503187
1, 3480, Tempo, 565025
1, 3540, Tempo, 529708
1, 3600, Tempo, 520969
1, 3660, Tempo, 538600
1, 3720, Tempo, 503187
1, 3780, Tempo, 556225
1, 3840, Tempo, 494438
1, 3900, Tempo, 538600
1, 3960, Tempo, 520969
1, 4020, Tempo, 556225
1, 4080, Tempo, 512033
1, 4140, Tempo, 538600
1, 4260, Tempo, 520969
1, 4320, Tempo, 512033
1, 4380, Tempo, 547445
1, 4500, Tempo, 520969
1, 4620, Tempo, 547445
1, 4680, Tempo, 529708
1, 4740, Tempo, 512033
1, 4860, Tempo, 529708
1, 4920, Tempo, 556225
1, 4980, Tempo, 538600
1, 5100, Tempo, 547445
1, 5160, Tempo, 512033
1, 5220, Tempo, 556225
1, 5280, Tempo, 538600
1, 5340, Tempo, 529708
1, 5400, Tempo, 503187
1, 5460, Tempo, 538600
1, 5520, Tempo, 547445
1, 5580, Tempo, 529708
1, 5640, Tempo, 503187
1, 5700, Tempo, 538600
1, 5943, Tempo, 584055
1, 6480, Tempo, 529381
1, 6900, Tempo, 520969
1, 6960, Tempo, 547445
1, 7020, Tempo, 529708
1, 7080, Tempo, 520969
1, 7140, Tempo, 529708
1, 7200, Tempo, 538600
1, 7260, Tempo, 520969
1, 7320, Tempo, 529708
1, 7440, Tempo, 512033
1, 7500, Tempo, 565025
1, 7560, Tempo, 494438
1, 7620, Tempo, 556225
1, 7680, Tempo, 538600
1, 7740, Tempo, 494438
1, 7800, Tempo, 556225
1, 7860, Tempo, 503187
1, 7920, Tempo, 538600
1, 8040, Tempo, 512033
1, 8100, Tempo, 547445
1, 8160, Tempo, 538600
1, 8280, Tempo, 520969
1, 8340, Tempo, 503187
1, 8400, Tempo, 538600
1, 8460, Tempo, 529708
1, 8520, Tempo, 520969
1, 8580, Tempo, 538600
1, 8640, Tempo, 556225
1, 8760, Tempo, 547445
1, 8820, Tempo, 538600
1, 8880, Tempo, 520969
1, 8940, Tempo, 529708
1, 9000, Tempo, 547445
1, 9060, Tempo, 520969
1, 9120, Tempo, 538600
1, 9180, Tempo, 494438
1, 9240, Tempo, 547445
1, 9300, Tempo, 538600
1, 9360, Tempo, 503187
1, 9420, Tempo, 547445
1, 9480, Tempo, 512033
1, 9540, Tempo, 538600
1, 9600, Tempo, 547445
1, 9660, Tempo, 512033
1, 9720, Tempo, 529708
1, 9780, Tempo, 547445
1, 9840, Tempo, 520969
1, 9900, Tempo, 547445
1, 9960, Tempo, 529708
1, 10020, Tempo, 512033
1, 10140, Tempo, 565025
1, 10200, Tempo, 529708
1, 10260, Tempo, 520969
1, 10320, Tempo, 512033
1, 10380, Tempo, 529708
1, 10500, Tempo, 547445
1, 10560, Tempo, 512033
1, 10620, Tempo, 529708
1, 10680, Tempo, 556225
1, 10740, Tempo, 529708
1, 10800, Tempo, 494438
1, 10860, Tempo, 529708
1, 10980, Tempo, 556225
1, 11040, Tempo, 538600
1, 11100, Tempo, 512033
1, 11160, Tempo, 520969
1, 11220, Tempo, 529708
1, 11280, Tempo, 547445
1, 11340, Tempo, 529708
1, 11400, Tempo, 538600
1, 11460, Tempo, 529708
1, 11520, Tempo, 520969
1, 11580, Tempo, 529708
1, 11640, Tempo, 503187
1, 11700, Tempo, 538600
1, 11760, Tempo, 556225
1, 11820, Tempo, 512033
1, 11880, Tempo, 538600
1, 11940, Tempo, 520969
1, 12000, Tempo, 547445
1, 12060, Tempo, 520969
1, 12120, Tempo, 529708
1, 12180, Tempo, 503187
1, 12240, Tempo, 556225
1, 12300, Tempo, 512033
1, 12360, Tempo, 547445
1, 12420, Tempo, 529708
1, 12480, Tempo, 503187
1, 12540, Tempo, 547445
1, 12600, Tempo, 529708
1, 12660, Tempo, 520969
1, 12720, Tempo, 538600
1, 12780, Tempo, 520969
1, 12840, Tempo, 538600
1, 12900, Tempo, 512033
1, 12960, Tempo, 565025
1, 13020, Tempo, 512033
1, 13080, Tempo, 538600
1, 13140, Tempo, 503187
1, 13200, Tempo, 529708
1, 13260, Tempo, 556225
1, 13320, Tempo, 520969
1, 13380, Tempo, 538600
1, 13440, Tempo, 503187
1, 13500, Tempo, 538600
1, 13560, Tempo, 529708
1, 13620, Tempo, 556225
1, 13680, Tempo, 529708
1, 13740, Tempo, 520969
1, 13800, Tempo, 503187
1, 13860, Tempo, 538600
1, 13920, Tempo, 556225
1, 13980, Tempo, 529708
1, 14040, Tempo, 503187
1, 14100, Tempo, 538600
1, 14160, Tempo, 512033
1, 14220, Tempo, 529708
1, 14280, Tempo, 556225
1, 14340, Tempo, 529708
1, 14400, Tempo, 520969
1, 14460, Tempo, 538600
1, 14520, Tempo, 520969
1, 14580, Tempo, 538600
1, 14640, Tempo, 529708
1, 14760, Tempo, 538600
1, 14820, Tempo, 520969
1, 14880, Tempo, 503187
1, 14940, Tempo, 547445
1, 15000, Tempo, 512033
1, 15060, Tempo, 565025
1, 15120, Tempo, 529708
1, 15180, Tempo, 512033
1, 15240, Tempo, 520969
1, 15360, Tempo, 547445
1, 15420, Tempo, 529708
1, 15480, Tempo, 538600
1, 15540, Tempo, 503187
1, 15600, Tempo, 538600
1, 15660, Tempo, 547445
1, 15720, Tempo, 520969
1, 15780, Tempo, 547445
1, 15840, Tempo, 520969
1, 15900, Tempo, 503187
1, 15960, Tempo, 529708
1, 16020, Tempo, 547445
1, 16080, Tempo, 520969
1, 16140, Tempo, 538600
1, 16200, Tempo, 529708
1, 16260, Tempo, 547445
1, 16320, Tempo, 503187
1, 16380, Tempo, 529708
1, 16440, Tempo, 556225
1, 16500, Tempo, 520969
1, 16620, Tempo, 538600
1, 16680, Tempo, 503187
1, 16740, Tempo, 538600
1, 16800, Tempo, 556225
1, 16860, Tempo, 520969
1, 16920, Tempo, 538600
1, 16980, Tempo, 529708
1, 17040, Tempo, 494438
1, 17100, Tempo, 556225
1, 17160, Tempo, 529708
1, 17220, Tempo, 503187
1, 17281, Tempo, 419229
1, 17340, Tempo, 494438
1, 17400, Tempo, 565025
1, 17460, Tempo, 520969
1, 17520, Tempo, 529708
1, 17760, Tempo, 503187
1, 17820, Tempo, 547445
1, 17940, Tempo, 494438
1, 18120, Tempo, 520969
1, 18180, Tempo, 538600
1, 18240, Tempo, 512033
1, 18300, Tempo, 529708
1, 18420, Tempo, 538600
1, 18540, Tempo, 512033
1, 18600, Tempo, 520969
1, 18720, Tempo, 547445
1, 18780, Tempo, 538600
1, 18840, Tempo, 520969
1, 18960, Tempo, 556225
1, 19020, Tempo, 520969
1, 19200, Tempo, 529708
1, 19260, Tempo, 520969
1, 19320, Tempo, 556225
1, 19380, Tempo, 538600
1, 19440, Tempo, 494438
1, 19500, Tempo, 556225
1, 19560, Tempo, 503187
1, 19620, Tempo, 529708
1, 19740, Tempo, 538600
1, 19800, Tempo, 547445
1, 19860, Tempo, 503187
1, 19920, Tempo, 538600
1, 19980, Tempo, 529708
1, 20040, Tempo, 547445
1, 20100, Tempo, 512033
1, 20160, Tempo, 556225
1, 20220, Tempo, 529708
1, 20280, Tempo, 512033
1, 20340, Tempo, 529708
1, 20400, Tempo, 547445
1, 20460, Tempo, 512033
1, 20580, Tempo, 538600
1, 20640, Tempo, 529708
1, 20700, Tempo, 538600
1, 20760, Tempo, 520969
1, 20880, Tempo, 529708
1, 20940, Tempo, 565025
1, 21000, Tempo, 512033
1, 21060, Tempo, 538600
1, 21120, Tempo, 520969
1, 21180, Tempo, 512033
1, 21240, Tempo, 565025
1, 21300, Tempo, 494438
1, 21360, Tempo, 556225
1, 21420, Tempo, 520969
1, 21480, Tempo, 538600
1, 21540, Tempo, 520969
1, 21600, Tempo, 529708
1, 21660, Tempo, 547445
1, 21720, Tempo, 520969
1, 21780, Tempo, 512033
1, 21840, Tempo, 529708
1, 21900, Tempo, 538600
1, 22020, Tempo, 503187
1, 22080, Tempo, 556225
1, 22140, Tempo, 529708
1, 22200, Tempo, 503187
1, 22260, Tempo, 556225
1, 22320, Tempo, 583544
1, 22380, Tempo, 616967
1, 22440, Tempo, 503187
1, 22500, Tempo, 529708
1, 22560, Tempo, 547445
1, 22620, Tempo, 503187
1, 22680, Tempo, 538600
1, 22740, Tempo, 520969
1, 22800, Tempo, 556225
1, 22860, Tempo, 538600
1, 22920, Tempo, 520969
1, 22980, Tempo, 538600
1, 23040, Tempo, 520969
1, 23100, Tempo, 512033
1, 23160, Tempo, 556225
1, 23220, Tempo, 512033
1, 23280, Tempo, 547445
1, 23340, Tempo, 494438
1, 23400, Tempo, 547445
1, 23460, Tempo, 538600
1, 23520, Tempo, 503187
1, 23580, Tempo, 529708
1, 23640, Tempo, 547445
1, 23700, Tempo, 538600
1, 23760, Tempo, 503187
1, 23820, Tempo, 538600
1, 23880, Tempo, 556225
1, 23935, Tempo, 623182
1, 24060, Tempo, 494438
1, 24115, Tempo, 651042
1, 24240, Tempo, 547445
1, 24300, Tempo, 512033
1, 24420, Tempo, 538600
1, 24480, Tempo, 556225
1, 24540, Tempo, 520969
1, 24600, Tempo, 529708
1, 24660, Tempo, 538600
1, 24720, Tempo, 529708
1, 24780, Tempo, 494438
1, 24840, Tempo, 529708
1, 24900, Tempo, 547445
1, 25020, Tempo, 520969
1, 25080, Tempo, 512033
1, 25140, Tempo, 538600
1, 25200, Tempo, 520969
1, 25260, Tempo, 529708
1, 25320, Tempo, 520969
1, 25380, Tempo, 556225
1, 25440, Tempo, 538600
1, 25500, Tempo, 503187
1, 25560, Tempo, 556225
1, 25620, Tempo, 520969
1, 25680, Tempo, 529708
1, 25800, Tempo, 538600
1, 25860, Tempo, 520969
1, 25920, Tempo, 512033
1, 25980, Tempo, 529708
1, 26100, Tempo, 556225
1, 26160, Tempo, 494438
1, 26220, Tempo, 547445
1, 26280, Tempo, 529708
1, 26400, Tempo, 538600
1, 26460, Tempo, 512033
1, 26520, Tempo, 520969
1, 26580, Tempo, 529708
1, 26640, Tempo, 556225
1, 26700, Tempo, 512033
1, 26760, Tempo, 556225
1, 26820, Tempo, 512033
1, 26880, Tempo, 520969
1, 26940, Tempo, 529708
1, 27000, Tempo, 556225
1, 27060, Tempo, 494438
1, 27120, Tempo, 556225
1, 27180, Tempo, 529708
1, 27240, Tempo, 512033
1, 27300, Tempo, 520969
1, 27360, Tempo, 565025
1, 27420, Tempo, 520969
1, 27480, Tempo, 503187
1, 27540, Tempo, 538600
1, 27600, Tempo, 547445
1, 27660, Tempo, 538600
1, 27720, Tempo, 503187
1, 27780, Tempo, 547445
1, 27840, Tempo, 512033
1, 27900, Tempo, 556225
1, 27960, Tempo, 494438
1, 28020, Tempo, 529708
1, 28080, Tempo, 538600
1, 28140, Tempo, 547445
1, 28200, Tempo, 520969
1, 28320, Tempo, 529708
1, 28380, Tempo, 538600
1, 28440, Tempo, 512033
1, 28500, Tempo, 565025
1, 28560, Tempo, 512033
1, 28620, Tempo, 529708
1, 28680, Tempo, 520969
1, 28740, Tempo, 529708
1, 28800, Tempo, 547445
1, 28860, Tempo, 503187
1, 28920, Tempo, 547445
1, 28980, Tempo, 520969
1, 29040, Tempo, 556225
1, 29100, Tempo, 529708
1, 29160, Tempo, 494438
1, 29220, Tempo, 547445
1, 29340, Tempo, 520969
1, 29460, Tempo, 538600
1, 29520, Tempo, 512033
1, 29580, Tempo, 556225
1, 29640, Tempo, 503187
1, 29700, Tempo, 520969
1, 29760, Tempo, 565025
1, 29820, Tempo, 529708
1, 29880, Tempo, 512033
1, 29940, Tempo, 547445
1, 30000, Tempo, 503187
1, 30060, Tempo, 556225
1, 30120, Tempo, 529708
1, 30240, Tempo, 503187
1, 30300, Tempo, 529708
1, 30360, Tempo, 556225
1, 30420, Tempo, 503187
1, 30480, Tempo, 520969
1, 30540, Tempo, 538600
1, 30600, Tempo, 520969
1, 30660, Tempo, 565025
1, 30720, Tempo, 512033
1, 30780, Tempo, 547445
1, 30840, Tempo, 512033
1, 30900, Tempo, 538600
1, 30960, Tempo, 512033
1, 31020, Tempo, 529708
1, 31080, Tempo, 538600
1, 31140, Tempo, 547445
1, 31200, Tempo, 503187
1, 31260, Tempo, 529708
1, 31320, Tempo, 547445
1, 31380, Tempo, 538600
1, 31440, Tempo, 494438
1, 31500, Tempo, 565025
1, 31560, Tempo, 503187
1, 31620, Tempo, 529708
1, 31800, Tempo, 520969
1, 31860, Tempo, 547445
1, 31980, Tempo, 520969
1, 32040, Tempo, 529708
1, 32100, Tempo, 520969
1, 32280, Tempo, 556225
1, 32340, Tempo, 520969
1, 32400, Tempo, 547445
1, 32460, Tempo, 520969
1, 32580, Tempo, 512033
1, 32640, Tempo, 556225
1, 32700, Tempo, 520969
1, 32820, Tempo, 547445
1, 32880, Tempo, 512033
1, 32940, Tempo, 538600
1, 33060, Tempo, 503187
1, 33120, Tempo, 556225
1, 33180, Tempo, 503187
1, 33240, Tempo, 556225
1, 33300, Tempo, 512033
1, 33360, Tempo, 538600
1, 33420, Tempo, 529708
1, 33480, Tempo, 512033
1, 33540, Tempo, 529708
1, 33600, Tempo, 556225
1, 33660, Tempo, 529708
1, 33720, Tempo, 520969
1, 33780, Tempo, 547445
1, 33840, Tempo, 520969
1, 33900, Tempo, 529708
1, 34020, Tempo, 520969
1, 34080, Tempo, 538600
1, 34140, Tempo, 520969
1, 34320, Tempo, 565025
1, 34380, Tempo, 520969
1, 34440, Tempo, 538600
1, 34500, Tempo, 529708
1, 34560, Tempo, 520969
1, 34680, Tempo, 538600
1, 34740, Tempo, 529708
1, 34800, Tempo, 503187
1, 34860, Tempo, 547445
1, 34980, Tempo, 512033
1, 35040, Tempo, 529708
1, 35160, Tempo, 547445
1, 35220, Tempo, 503187
1, 35280, Tempo, 556225
1, 35340, Tempo, 520969
1, 35520, Tempo, 529708
1, 35580, Tempo, 547445
1, 35640, Tempo, 538600
1, 35700, Tempo, 529708
1, 35760, Tempo, 512033
1, 35820, Tempo, 529708
1, 35880, Tempo, 520969
1, 35940, Tempo, 556225
1, 36000, Tempo, 503187
1, 36060, Tempo, 520969
1, 36120, Tempo, 514756
1, 36300, Tempo, 482393
1, 36360, Tempo, 514756
1, 36420, Tempo, 547445
1, 36480, Tempo, 520969
1, 36540, Tempo, 529708
1, 36600, Tempo, 547445
1, 36660, Tempo, 529708
1, 36720, Tempo, 520969
1, 36780, Tempo, 529708
1, 36840, Tempo, 538600
1, 36900, Tempo, 529708
1, 36960, Tempo, 520969
1, 37020, Tempo, 538600
1, 37080, Tempo, 512033
1, 37140, Tempo, 538600
1, 37260, Tempo, 520969
1, 37500, Tempo, 556225
1, 37560, Tempo, 514756
1, 37620, Tempo, 498670
1, 37680, Tempo, 482393
1, 37740, Tempo, 522830
1, 37860, Tempo, 529708
1, 37920, Tempo, 512033
1, 37980, Tempo, 547445
1, 38040, Tempo, 494438
1, 38100, Tempo, 547445
1, 38160, Tempo, 502386
1, 38220, Tempo, 494438
1, 38280, Tempo, 526131
1, 38340, Tempo, 502386
1, 38400, Tempo, 486421
1, 38460, Tempo, 518224
1, 38520, Tempo, 470441
1, 38580, Tempo, 518224
1, 38640, Tempo, 494438
1, 38760, Tempo, 518224
1, 38820, Tempo, 502386
1, 38940, Tempo, 510247
1, 39000, Tempo, 502386
1, 39060, Tempo, 486421
1, 39120, Tempo, 494438
1, 39180, Tempo, 526131
1, 39240, Tempo, 478393
1, 39300, Tempo, 533950
1, 39360, Tempo, 494438
1, 39420, Tempo, 486421
1, 39480, Tempo, 526131
1, 39540, Tempo, 486421
1, 39600, Tempo, 494438
1, 39660, Tempo, 526131
1, 39720, Tempo, 494438
1, 39780, Tempo, 502386
1, 39840, Tempo, 486421
1, 39900, Tempo, 518224
1, 39960, Tempo, 478393
1, 40020, Tempo, 502386
1, 40080, Tempo, 518224
1, 40140, Tempo, 510247
1, 40260, Tempo, 470441
1, 40320, Tempo, 533950
1, 40380, Tempo, 470441
1, 40440, Tempo, 502386
1, 40500, Tempo, 526131
1, 40560, Tempo, 502386
1, 40680, Tempo, 510247
1, 40740, Tempo, 470441
1, 40800, Tempo, 533950
1, 40860, Tempo, 502386
1, 40920, Tempo, 503187
1, 40980, Tempo, 556225
1, 41040, Tempo, 529708
1, 41148, Tempo, 594589
1, 41280, Tempo, 503187
1, 41340, Tempo, 547445
1, 41400, Tempo, 529708
1, 41460, Tempo, 520969
1, 41520, Tempo, 512033
1, 41580, Tempo, 529708
1, 41700, Tempo, 565025
1, 41760, Tempo, 531114
1, 41878, Tempo, 599580
1, 42000, Tempo, 503060
1, 42060, Tempo, 546597
1, 42180, Tempo, 565025
1, 42240, Tempo, 503187
1, 42300, Tempo, 538600
1, 42480, Tempo, 503187
1, 42540, Tempo, 547445
1, 42600, Tempo, 538600
1, 42660, Tempo, 494438
1, 42720, Tempo, 538600
1, 42780, Tempo, 520969
1, 42840, Tempo, 661230
1, 42900, Tempo, 613371
1, 42960, Tempo, 578090
1, 43020, Tempo, 625326
1, 43080, Tempo, 601685
1, 43140, Tempo, 625326
1, 43200, Tempo, 627549
1, 43320, Tempo, 653239
1, 43440, Tempo, 666445
1, 43500, Tempo, 640342
1, 43560, Tempo, 602047
1, 43620, Tempo, 627549
1, 43680, Tempo, 679502
1, 43741, Tempo, 692841
1, 43920, Tempo, 679502
1, 43980, Tempo, 653239
1, 44040, Tempo, 614754
1, 44160, Tempo, 679502
1, 44220, Tempo, 653239
1, 44280, Tempo, 602047
1, 44340, Tempo, 627549
1, 44400, Tempo, 692761
1, 44460, Tempo, 614754
1, 44520, Tempo, 666445
1, 44580, Tempo, 640342
1, 44700, Tempo, 627549
1, 44760, Tempo, 653239
1, 44820, Tempo, 614754
1, 44880, Tempo, 640342
1, 44940, Tempo, 614754
1, 45000, Tempo, 666445
1, 45060, Tempo, 653239
1, 45120, Tempo, 602047
1, 45180, Tempo, 679502
1, 45360, Tempo, 737735
1, 45420, Tempo, 790097
1, 45480, Tempo, 703895
1, 45540, Tempo, 772300
1, 45600, Tempo, 737735
1, 45660, Tempo, 703895
1, 45720, Tempo, 772300
1, 45780, Tempo, 687285
1, 45840, Tempo, 790097
1, 45900, Tempo, 754907
1, 45960, Tempo, 687285
1, 46020, Tempo, 720634
1, 46080, Tempo, 649210
1, 46140, Tempo, 625326
1, 46200, Tempo, 566572
1, 46260, Tempo, 637281
1, 46320, Tempo, 589797
1, 46380, Tempo, 625326
1, 46440, Tempo, 601685
1, 46500, Tempo, 613371
1, 46560, Tempo, 661230
1, 46620, Tempo, 578090
1, 46680, Tempo, 625326
1, 46740, Tempo, 637281
1, 46800, Tempo, 589797
1, 46860, Tempo, 613371
1, 47040, Tempo, 637281
1, 47100, Tempo, 566572
1, 47160, Tempo, 613371
1, 47220, Tempo, 649210
1, 47280, Tempo, 601685
1, 47340, Tempo, 625326
1, 47400, Tempo, 578090
1, 47460, Tempo, 637281
1, 47520, Tempo, 589797
1, 47523, Tempo, 600661
1, 47538, Tempo, 606980
1, 47553, Tempo, 613371
1, 47568, Tempo, 619899
1, 47583, Tempo, 626566
1, 47598, Tempo, 633379
1, 47613, Tempo, 640342
1, 47628, Tempo, 647529
1, 47643, Tempo, 654664
1, 47659, Tempo, 662105
1, 47674, Tempo, 669718
1, 47689, Tempo, 677507
1, 47704, Tempo, 685479
1, 47719, Tempo, 693802
1, 47734, Tempo, 702083
1, 47749, Tempo, 710648
1, 47764, Tempo, 719338
1, 47779, Tempo, 728421
1, 47795, Tempo, 737735
1, 47810, Tempo, 747012
1, 47825, Tempo, 756907
1, 47840, Tempo, 766773
1, 47855, Tempo, 777101
1, 47870, Tempo, 787402
1, 47885, Tempo, 798191
1, 47900, Tempo, 809280
1, 47915, Tempo, 820681
1, 47931, Tempo, 832408
1, 47946, Tempo, 844714
1, 47961, Tempo, 857143
1, 47976, Tempo, 869691
1, 47991, Tempo, 883002
1, 48006, Tempo, 896459
1, 48021, Tempo, 910747
1, 48036, Tempo, 925069
1, 48051, Tempo, 940144
1, 48067, Tempo, 955566
1, 48082, Tempo, 971188
1, 48097, Tempo, 987817
1, 48112, Tempo, 1004857
1, 48127, Tempo, 1022147
1, 48142, Tempo, 1040402
1, 48157, Tempo, 1059509
1, 48172, Tempo, 1078943
1, 48187, Tempo, 1099707
1, 48203, Tempo, 1120448
1, 48218, Tempo, 1142857
1, 48233, Tempo, 1165728
1, 48248, Tempo, 1189061
1, 48263, Tempo, 1214083
1, 48278, Tempo, 1239926
1, 48293, Tempo, 1267159
1, 48308, Tempo, 1294778
1, 48323, Tempo, 1324211
1, 48339, Tempo, 1355320
1, 48354, Tempo, 1387604
1, 48369, Tempo, 1421801
1, 48384, Tempo, 1456664
1, 48399, Tempo, 1494024
1, 48414, Tempo, 1533350
1, 48429, Tempo, 1574803
1, 48444, Tempo, 1618996
1, 48459, Tempo, 1664817
1, 48475, Tempo, 1714776
1, 48490, Tempo, 1765745
1, 48505, Tempo, 1821494
1, 48520, Tempo, 1880288
1, 48535, Tempo, 1942376
1, 48550, Tempo, 2009377
1, 48565, Tempo, 2081888
1, 48580, Tempo, 2158273
1, 48595, Tempo, 2242991
1, 48851, Tempo, 2309469
1, 48851, End_track
2, 0, Start_track
2, 0, MIDI_port, 0
2, 0, Title_t, "Frederic Chopin"
2, 0, Program_c, 0, 0
2, 0, Control_c, 0, 10, 70
2, 0, Control_c, 0, 91, 50
2, 5, Control_c, 0, 93, 24
2, 10, Text_t, "TVF cutoff freq.    "
2, 10, Control_c, 0, 99, 1
2, 15, Control_c, 0, 98, 32
2, 20, Control_c, 0, 6, 64
2, 25, Text_t, "TVF Resonance       "
2, 25, Control_c, 0, 98, 33
2, 30, Control_c, 0, 6, 64
2, 35, Text_t, "TVF&TVA Env.Attack  "
2, 35, Control_c, 0, 98, 99
2, 40, Control_c, 0, 6, 64
2, 45, Text_t, "TVF&TVA Env.Decay   "
2, 45, Control_c, 0, 98, 100
2, 50, Control_c, 0, 6, 65
2, 55, Text_t, "TVF&TVA Env.Release "
2, 55, Control_c, 0, 98, 102
2, 60, Control_c, 0, 6, 64
2, 720, Control_c, 0, 64, 127
2, 838, Note_on_c, 0, 65, 55
2, 936, Note_on_c, 0, 65, 0
2, 963, Note_on_c, 0, 67, 60
2, 1064, Note_on_c, 0, 67, 0
2, 1078, Control_c, 0, 64, 0
2, 1082, Control_c, 0, 64, 127
2, 1199, Note_on_c, 0, 68, 56
2, 1305, Note_on_c, 0, 68, 0
2, 1326, Note_on_c, 0, 70, 61
2, 1429, Note_on_c, 0, 70, 0
2, 1437, Control_c, 0, 64, 0
2, 1441, Control_c, 0, 64, 127
2, 1560, Note_on_c, 0, 72, 63
2, 1661, Note_on_c, 0, 72, 0
2, 1679, Note_on_c, 0, 73, 65
2, 1776, Note_on_c, 0, 73, 0
2, 1795, Control_c, 0, 64, 0
2, 1796, Note_on_c, 0, 72, 70
2, 1799, Control_c, 0, 64, 127
2, 1894, Note_on_c, 0, 72, 0
2, 1920, Note_on_c, 0, 80, 75
2, 2019, Note_on_c, 0, 80, 0
2, 2036, Note_on_c, 0, 79, 77
2, 2132, Note_on_c, 0, 79, 0
2, 2156, Control_c, 0, 64, 0
2, 2158, Note_on_c, 0, 77, 86
2, 2160, Control_c, 0, 64, 127
2, 2254, Note_on_c, 0, 77, 0
2, 2278, Note_on_c, 0, 72, 77
2, 2378, Note_on_c, 0, 72, 0
2, 2398, Note_on_c, 0, 73, 86
2, 2500, Note_on_c, 0, 73, 0
2, 2516, Note_on_c, 0, 72, 91
2, 2516, Control_c, 0, 64, 0
2, 2520, Control_c, 0, 64, 127
2, 2613, Note_on_c, 0, 72, 0
2, 2635, Note_on_c, 0, 68, 88
2, 2730, Note_on_c, 0, 68, 0
2, 2762, Note_on_c, 0, 65, 89
2, 2854, Note_on_c, 0, 65, 0
2, 2876, Control_c, 0, 64, 0
2, 2878, Note_on_c, 0, 60, 107
2, 2880, Control_c, 0, 64, 127
2, 3237, Control_c, 0, 64, 0
2, 3241, Control_c, 0, 64, 127
2, 3594, Control_c, 0, 64, 0
2, 3610, Note_on_c, 0, 60, 0
2, 3721, Note_on_c, 0, 65, 55
2, 3823, Note_on_c, 0, 65, 0
2, 3838, Note_on_c, 0, 67, 58
2, 3929, Note_on_c, 0, 67, 0
2, 4078, Note_on_c, 0, 68, 56
2, 4173, Note_on_c, 0, 68, 0
2, 4196, Note_on_c, 0, 70, 56
2, 4293, Note_on_c, 0, 70, 0
2, 4437, Note_on_c, 0, 72, 65
2, 4537, Note_on_c, 0, 72, 0
2, 4557, Note_on_c, 0, 73, 63
2, 4656, Note_on_c, 0, 73, 0
2, 4678, Note_on_c, 0, 72, 66
2, 4779, Note_on_c, 0, 72, 0
2, 4800, Note_on_c, 0, 84, 78
2, 4913, Note_on_c, 0, 84, 0
2, 4924, Note_on_c, 0, 80, 66
2, 5015, Note_on_c, 0, 80, 0
2, 5034, Note_on_c, 0, 79, 78
2, 5129, Note_on_c, 0, 79, 0
2, 5164, Note_on_c, 0, 72, 73
2, 5271, Note_on_c, 0, 72, 0
2, 5282, Note_on_c, 0, 73, 76
2, 5378, Note_on_c, 0, 73, 0
2, 5395, Note_on_c, 0, 72, 82
2, 5496, Note_on_c, 0, 72, 0
2, 5519, Note_on_c, 0, 67, 80
2, 5616, Note_on_c, 0, 67, 0
2, 5638, Note_on_c, 0, 60, 78
2, 5738, Note_on_c, 0, 60, 0
2, 5762, Note_on_c, 0, 65, 91
2, 5820, Note_on_c, 0, 65, 0
2, 5822, Note_on_c, 0, 67, 84
2, 5882, Note_on_c, 0, 67, 0
2, 5882, Note_on_c, 0, 68, 93
2, 6381, Note_on_c, 0, 68, 0
2, 6480, Control_c, 0, 67, 127
2, 6600, Note_on_c, 0, 65, 55
2, 6701, Note_on_c, 0, 65, 0
2, 6721, Note_on_c, 0, 67, 60
2, 6817, Note_on_c, 0, 67, 0
2, 6959, Note_on_c, 0, 68, 61
2, 7058, Note_on_c, 0, 68, 0
2, 7080, Note_on_c, 0, 70, 61
2, 7183, Note_on_c, 0, 70, 0
2, 7321, Note_on_c, 0, 72, 63
2, 7424, Note_on_c, 0, 72, 0
2, 7442, Note_on_c, 0, 73, 66
2, 7550, Note_on_c, 0, 73, 0
2, 7562, Note_on_c, 0, 72, 78
2, 7665, Note_on_c, 0, 72, 0
2, 7680, Note_on_c, 0, 80, 78
2, 7781, Note_on_c, 0, 80, 0
2, 7799, Note_on_c, 0, 79, 80
2, 7909, Note_on_c, 0, 79, 0
2, 7921, Note_on_c, 0, 77, 87
2, 8018, Note_on_c, 0, 77, 0
2, 8043, Note_on_c, 0, 72, 77
2, 8146, Note_on_c, 0, 72, 0
2, 8163, Note_on_c, 0, 73, 74
2, 8263, Note_on_c, 0, 73, 0
2, 8280, Note_on_c, 0, 72, 80
2, 8382, Note_on_c, 0, 72, 0
2, 8406, Note_on_c, 0, 68, 75
2, 8502, Note_on_c, 0, 68, 0
2, 8524, Note_on_c, 0, 65, 79
2, 8630, Note_on_c, 0, 65, 0
2, 8637, Note_on_c, 0, 60, 90
2, 9347, Note_on_c, 0, 60, 0
2, 9477, Note_on_c, 0, 65, 79
2, 9576, Note_on_c, 0, 65, 0
2, 9597, Note_on_c, 0, 67, 79
2, 9696, Note_on_c, 0, 67, 0
2, 9843, Note_on_c, 0, 68, 80
2, 9943, Note_on_c, 0, 68, 0
2, 9957, Note_on_c, 0, 70, 80
2, 10051, Note_on_c, 0, 70, 0
2, 10195, Note_on_c, 0, 72, 78
2, 10286, Note_on_c, 0, 72, 0
2, 10320, Note_on_c, 0, 73, 76
2, 10424, Note_on_c, 0, 73, 0
2, 10438, Note_on_c, 0, 72, 78
2, 10538, Note_on_c, 0, 72, 0
2, 10557, Note_on_c, 0, 84, 75
2, 10653, Note_on_c, 0, 84, 0
2, 10683, Note_on_c, 0, 80, 79
2, 10776, Note_on_c, 0, 80, 0
2, 10799, Note_on_c, 0, 79, 80
2, 10899, Note_on_c, 0, 79, 0
2, 10926, Note_on_c, 0, 72, 76
2, 11028, Note_on_c, 0, 72, 0
2, 11036, Note_on_c, 0, 73, 73
2, 11135, Note_on_c, 0, 73, 0
2, 11161, Note_on_c, 0, 72, 82
2, 11265, Note_on_c, 0, 72, 0
2, 11278, Note_on_c, 0, 67, 73
2, 11382, Note_on_c, 0, 67, 0
2, 11398, Note_on_c, 0, 60, 73
2, 11496, Note_on_c, 0, 60, 0
2, 11514, Note_on_c, 0, 65, 96
2, 11518, Control_c, 0, 64, 127
2, 12232, Note_on_c, 0, 65, 0
2, 12238, Control_c, 0, 64, 0
2, 12240, Control_c, 0, 67, 0
2, 12241, Note_on_c, 0, 68, 64
2, 12242, Control_c, 0, 64, 127
2, 12573, Note_on_c, 0, 70, 65
2, 12580, Note_on_c, 0, 68, 0
2, 12596, Control_c, 0, 64, 0
2, 12600, Control_c, 0, 64, 127
2, 12602, Note_on_c, 0, 68, 72
2, 12604, Note_on_c, 0, 70, 0
2, 12720, Note_on_c, 0, 68, 0
2, 12724, Note_on_c, 0, 67, 72
2, 12897, Note_on_c, 0, 67, 0
2, 12902, Note_on_c, 0, 68, 78
2, 12958, Control_c, 0, 64, 0
2, 12961, Note_on_c, 0, 70, 86
2, 12962, Note_on_c, 0, 68, 0
2, 12962, Control_c, 0, 64, 127
2, 13298, Note_on_c, 0, 70, 0
2, 13315, Control_c, 0, 64, 0
2, 13319, Note_on_c, 0, 72, 89
2, 13319, Control_c, 0, 64, 127
2, 13659, Note_on_c, 0, 72, 0
2, 13674, Control_c, 0, 64, 0
2, 13678, Control_c, 0, 64, 127
2, 13679, Note_on_c, 0, 73, 99
2, 13773, Note_on_c, 0, 73, 0
2, 13795, Note_on_c, 0, 68, 96
2, 13894, Note_on_c, 0, 68, 0
2, 13919, Note_on_c, 0, 70, 95
2, 14015, Note_on_c, 0, 70, 0
2, 14035, Note_on_c, 0, 68, 98
2, 14132, Note_on_c, 0, 68, 0
2, 14158, Note_on_c, 0, 65, 98
2, 14260, Note_on_c, 0, 65, 0
2, 14283, Note_on_c, 0, 61, 96
2, 14380, Note_on_c, 0, 61, 0
2, 14395, Note_on_c, 0, 56, 116
2, 14395, Control_c, 0, 64, 0
2, 14399, Control_c, 0, 64, 127
2, 14636, Note_on_c, 0, 56, 0
2, 14995, Note_on_c, 0, 63, 96
2, 15113, Control_c, 0, 64, 0
2, 15117, Note_on_c, 0, 75, 97
2, 15118, Note_on_c, 0, 63, 0
2, 15118, Control_c, 0, 64, 127
2, 15357, Note_on_c, 0, 75, 0
2, 15424, Note_on_c, 0, 75, 83
2, 15450, Note_on_c, 0, 75, 0
2, 15450, Note_on_c, 0, 77, 84
2, 15480, Note_on_c, 0, 77, 0
2, 15480, Note_on_c, 0, 75, 88
2, 15594, Note_on_c, 0, 75, 0
2, 15603, Note_on_c, 0, 74, 58
2, 15718, Note_on_c, 0, 75, 56
2, 15721, Note_on_c, 0, 74, 0
2, 15834, Control_c, 0, 64, 0
2, 15835, Note_on_c, 0, 75, 0
2, 15835, Note_on_c, 0, 77, 64
2, 15838, Control_c, 0, 64, 127
2, 16180, Note_on_c, 0, 77, 0
2, 16196, Control_c, 0, 64, 0
2, 16199, Note_on_c, 0, 78, 71
2, 16200, Control_c, 0, 64, 127
2, 16555, Control_c, 0, 64, 0
2, 16648, Note_on_c, 0, 78, 0
2, 16676, Note_on_c, 0, 73, 71
2, 16774, Note_on_c, 0, 73, 0
2, 16799, Note_on_c, 0, 75, 71
2, 16893, Note_on_c, 0, 75, 0
2, 16916, Note_on_c, 0, 73, 80
2, 17021, Note_on_c, 0, 73, 0
2, 17034, Note_on_c, 0, 70, 78
2, 17135, Note_on_c, 0, 70, 0
2, 17157, Note_on_c, 0, 66, 77
2, 17252, Note_on_c, 0, 66, 0
2, 17282, Control_c, 0, 64, 127
2, 17283, Note_on_c, 0, 61, 85
2, 17378, Note_on_c, 0, 61, 0
2, 17405, Note_on_c, 0, 73, 94
2, 17500, Note_on_c, 0, 73, 0
2, 17518, Note_on_c, 0, 75, 85
2, 17622, Note_on_c, 0, 75, 0
2, 17635, Control_c, 0, 64, 0
2, 17639, Control_c, 0, 64, 127
2, 17640, Note_on_c, 0, 73, 87
2, 17741, Note_on_c, 0, 73, 0
2, 17763, Note_on_c, 0, 68, 91
2, 17870, Note_on_c, 0, 68, 0
2, 17882, Note_on_c, 0, 64, 92
2, 17981, Note_on_c, 0, 64, 0
2, 17998, Note_on_c, 0, 61, 99
2, 17998, Control_c, 0, 64, 0
2, 18002, Control_c, 0, 64, 127
2, 18108, Note_on_c, 0, 61, 0
2, 18119, Note_on_c, 0, 73, 99
2, 18121, Note_on_c, 0, 61, 101
2, 18213, Note_on_c, 0, 73, 0
2, 18220, Note_on_c, 0, 61, 0
2, 18234, Note_on_c, 0, 75, 98
2, 18234, Note_on_c, 0, 63, 100
2, 18328, Note_on_c, 0, 75, 0
2, 18335, Note_on_c, 0, 63, 0
2, 18479, Note_on_c, 0, 64, 96
2, 18480, Note_on_c, 0, 76, 97
2, 18574, Note_on_c, 0, 76, 0
2, 18576, Note_on_c, 0, 64, 0
2, 18596, Note_on_c, 0, 78, 103
2, 18599, Note_on_c, 0, 66, 96
2, 18697, Note_on_c, 0, 78, 0
2, 18702, Note_on_c, 0, 66, 0
2, 18718, Control_c, 0, 64, 0
2, 18722, Control_c, 0, 64, 127
2, 18841, Note_on_c, 0, 79, 103
2, 18843, Note_on_c, 0, 67, 98
2, 18939, Note_on_c, 0, 79, 0
2, 18943, Note_on_c, 0, 67, 0
2, 18957, Note_on_c, 0, 69, 105
2, 18960, Note_on_c, 0, 81, 105
2, 19059, Note_on_c, 0, 81, 0
2, 19059, Note_on_c, 0, 69, 0
2, 19075, Control_c, 0, 64, 0
2, 19079, Control_c, 0, 64, 127
2, 19200, Note_on_c, 0, 82, 105
2, 19204, Note_on_c, 0, 70, 102
2, 19300, Note_on_c, 0, 70, 0
2, 19301, Note_on_c, 0, 82, 0
2, 19318, Note_on_c, 0, 84, 103
2, 19326, Note_on_c, 0, 72, 108
2, 19419, Note_on_c, 0, 84, 0
2, 19425, Note_on_c, 0, 72, 0
2, 19434, Control_c, 0, 64, 0
2, 19439, Note_on_c, 0, 85, 114
2, 19440, Note_on_c, 0, 73, 111
2, 19556, Note_on_c, 0, 87, 107
2, 19558, Note_on_c, 0, 85, 0
2, 19560, Note_on_c, 0, 75, 109
2, 19565, Note_on_c, 0, 73, 0
2, 19666, Note_on_c, 0, 87, 0
2, 19678, Note_on_c, 0, 88, 107
2, 19680, Note_on_c, 0, 76, 106
2, 19682, Note_on_c, 0, 75, 0
2, 19792, Note_on_c, 0, 88, 0
2, 19802, Note_on_c, 0, 76, 0
2, 19802, Note_on_c, 0, 90, 114
2, 19802, Note_on_c, 0, 78, 114
2, 19912, Note_on_c, 0, 78, 0
2, 19913, Note_on_c, 0, 90, 0
2, 19923, Note_on_c, 0, 91, 112
2, 19925, Note_on_c, 0, 79, 112
2, 20036, Note_on_c, 0, 91, 0
2, 20039, Note_on_c, 0, 79, 0
2, 20041, Note_on_c, 0, 93, 111
2, 20042, Note_on_c, 0, 81, 108
2, 20157, Note_on_c, 0, 81, 0
2, 20158, Note_on_c, 0, 93, 0
2, 20162, Note_on_c, 0, 94, 119
2, 20165, Note_on_c, 0, 82, 123
2, 20213, Note_on_c, 0, 94, 0
2, 20214, Note_on_c, 0, 84, 113
2, 20216, Note_on_c, 0, 96, 109
2, 20218, Note_on_c, 0, 82, 0
2, 20266, Note_on_c, 0, 84, 0
2, 20268, Note_on_c, 0, 96, 0
2, 20275, Note_on_c, 0, 85, 112
2, 20279, Note_on_c, 0, 97, 114
2, 20510, Note_on_c, 0, 85, 0
2, 20518, Note_on_c, 0, 97, 0
2, 20882, Control_c, 0, 64, 127
2, 20885, Note_on_c, 0, 85, 98
2, 20885, Note_on_c, 0, 73, 105
2, 20981, Note_on_c, 0, 73, 0
2, 20986, Note_on_c, 0, 85, 0
2, 20996, Note_on_c, 0, 85, 98
2, 21001, Note_on_c, 0, 73, 95
2, 21090, Note_on_c, 0, 85, 0
2, 21107, Note_on_c, 0, 73, 0
2, 21119, Note_on_c, 0, 85, 94
2, 21120, Note_on_c, 0, 73, 95
2, 21216, Note_on_c, 0, 85, 0
2, 21218, Note_on_c, 0, 73, 0
2, 21238, Note_on_c, 0, 85, 110
2, 21238, Control_c, 0, 64, 0
2, 21242, Control_c, 0, 64, 127
2, 21244, Note_on_c, 0, 73, 106
2, 21465, Note_on_c, 0, 73, 0
2, 21480, Note_on_c, 0, 72, 95
2, 21482, Note_on_c, 0, 84, 93
2, 21486, Note_on_c, 0, 85, 0
2, 21579, Note_on_c, 0, 72, 0
2, 21583, Note_on_c, 0, 84, 0
2, 21596, Control_c, 0, 64, 0
2, 21598, Note_on_c, 0, 73, 64
2, 21600, Control_c, 0, 64, 127
2, 21703, Note_on_c, 0, 73, 0
2, 21717, Note_on_c, 0, 73, 62
2, 21810, Note_on_c, 0, 73, 0
2, 21842, Note_on_c, 0, 73, 57
2, 21945, Note_on_c, 0, 73, 0
2, 21956, Note_on_c, 0, 73, 73
2, 21956, Control_c, 0, 64, 0
2, 21960, Control_c, 0, 64, 127
2, 22194, Note_on_c, 0, 73, 0
2, 22203, Note_on_c, 0, 72, 60
2, 22315, Note_on_c, 0, 70, 99
2, 22315, Control_c, 0, 64, 0
2, 22316, Note_on_c, 0, 82, 104
2, 22319, Control_c, 0, 64, 127
2, 22328, Note_on_c, 0, 72, 0
2, 22411, Note_on_c, 0, 70, 0
2, 22412, Note_on_c, 0, 82, 0
2, 22458, Note_on_c, 0, 80, 94
2, 22460, Note_on_c, 0, 68, 97
2, 22532, Note_on_c, 0, 80, 0
2, 22546, Note_on_c, 0, 68, 0
2, 22557, Note_on_c, 0, 82, 98
2, 22559, Note_on_c, 0, 70, 95
2, 22655, Note_on_c, 0, 82, 0
2, 22663, Note_on_c, 0, 70, 0
2, 22678, Control_c, 0, 64, 0
2, 22682, Control_c, 0, 64, 127
2, 22684, Note_on_c, 0, 84, 102
2, 22686, Note_on_c, 0, 72, 95
2, 23034, Note_on_c, 0, 72, 0
2, 23034, Note_on_c, 0, 84, 0
2, 23034, Control_c, 0, 64, 0
2, 23036, Note_on_c, 0, 70, 67
2, 23038, Control_c, 0, 64, 127
2, 23150, Note_on_c, 0, 70, 0
2, 23163, Note_on_c, 0, 68, 55
2, 23274, Note_on_c, 0, 68, 0
2, 23276, Note_on_c, 0, 70, 59
2, 23398, Control_c, 0, 64, 0
2, 23399, Note_on_c, 0, 72, 60
2, 23401, Note_on_c, 0, 70, 0
2, 23402, Control_c, 0, 64, 127
2, 23755, Control_c, 0, 64, 0
2, 23757, Note_on_c, 0, 97, 105
2, 23759, Note_on_c, 0, 85, 103
2, 23759, Control_c, 0, 64, 127
2, 23780, Note_on_c, 0, 72, 0
2, 23807, Note_on_c, 0, 85, 0
2, 23810, Note_on_c, 0, 97, 0
2, 23830, Note_on_c, 0, 85, 96
2, 23831, Note_on_c, 0, 97, 92
2, 23877, Note_on_c, 0, 97, 0
2, 23881, Note_on_c, 0, 85, 0
2, 23903, Note_on_c, 0, 97, 92
2, 23904, Note_on_c, 0, 85, 97
2, 23948, Note_on_c, 0, 85, 0
2, 23952, Note_on_c, 0, 97, 0
2, 23976, Note_on_c, 0, 85, 91
2, 23980, Note_on_c, 0, 97, 96
2, 24029, Note_on_c, 0, 85, 0
2, 24033, Note_on_c, 0, 97, 0
2, 24043, Note_on_c, 0, 73, 93
2, 24046, Note_on_c, 0, 85, 98
2, 24092, Note_on_c, 0, 73, 0
2, 24097, Note_on_c, 0, 85, 0
2, 24118, Control_c, 0, 64, 0
2, 24119, Note_on_c, 0, 73, 105
2, 24122, Control_c, 0, 64, 127
2, 24124, Note_on_c, 0, 85, 103
2, 24359, Note_on_c, 0, 72, 87
2, 24359, Note_on_c, 0, 84, 92
2, 24362, Note_on_c, 0, 85, 0
2, 24372, Note_on_c, 0, 73, 0
2, 24477, Control_c, 0, 64, 0
2, 24478, Note_on_c, 0, 85, 61
2, 24480, Note_on_c, 0, 72, 0
2, 24481, Control_c, 0, 64, 127
2, 24485, Note_on_c, 0, 84, 0
2, 24528, Note_on_c, 0, 85, 0
2, 24549, Note_on_c, 0, 85, 52
2, 24597, Note_on_c, 0, 85, 0
2, 24623, Note_on_c, 0, 85, 51
2, 24671, Note_on_c, 0, 85, 0
2, 24692, Note_on_c, 0, 85, 52
2, 24740, Note_on_c, 0, 85, 0
2, 24765, Note_on_c, 0, 73, 48
2, 24815, Note_on_c, 0, 73, 0
2, 24838, Control_c, 0, 64, 0
2, 24842, Note_on_c, 0, 73, 71
2, 24842, Control_c, 0, 64, 127
2, 25078, Note_on_c, 0, 73, 0
2, 25081, Note_on_c, 0, 72, 46
2, 25196, Control_c, 0, 64, 0
2, 25199, Note_on_c, 0, 82, 101
2, 25200, Note_on_c, 0, 72, 0
2, 25200, Control_c, 0, 64, 127
2, 25200, Note_on_c, 0, 70, 94
2, 25264, Note_on_c, 0, 82, 0
2, 25267, Note_on_c, 0, 70, 0
2, 25270, Note_on_c, 0, 72, 93
2, 25277, Note_on_c, 0, 84, 87
2, 25342, Note_on_c, 0, 72, 0
2, 25342, Note_on_c, 0, 70, 87
2, 25344, Note_on_c, 0, 82, 90
2, 25350, Note_on_c, 0, 84, 0
2, 25413, Note_on_c, 0, 80, 87
2, 25415, Note_on_c, 0, 70, 0
2, 25416, Note_on_c, 0, 68, 86
2, 25418, Note_on_c, 0, 82, 0
2, 25479, Note_on_c, 0, 68, 0
2, 25480, Note_on_c, 0, 80, 0
2, 25489, Note_on_c, 0, 70, 90
2, 25490, Note_on_c, 0, 82, 92
2, 25557, Control_c, 0, 64, 0
2, 25559, Note_on_c, 0, 70, 0
2, 25560, Note_on_c, 0, 84, 94
2, 25561, Control_c, 0, 64, 127
2, 25563, Note_on_c, 0, 82, 0
2, 25563, Note_on_c, 0, 72, 96
2, 25902, Note_on_c, 0, 72, 0
2, 25902, Note_on_c, 0, 84, 0
2, 25915, Control_c, 0, 64, 0
2, 25919, Control_c, 0, 64, 127
2, 25921, Note_on_c, 0, 70, 54
2, 25991, Note_on_c, 0, 72, 49
2, 25995, Note_on_c, 0, 70, 0
2, 26064, Note_on_c, 0, 72, 0
2, 26065, Note_on_c, 0, 70, 47
2, 26132, Note_on_c, 0, 68, 52
2, 26139, Note_on_c, 0, 70, 0
2, 26202, Note_on_c, 0, 68, 0
2, 26209, Note_on_c, 0, 70, 48
2, 26276, Control_c, 0, 64, 0
2, 26278, Note_on_c, 0, 72, 53
2, 26280, Control_c, 0, 64, 127
2, 26285, Note_on_c, 0, 70, 0
2, 26623, Note_on_c, 0, 72, 0
2, 26638, Control_c, 0, 64, 0
2, 26760, Note_on_c, 0, 65, 48
2, 26858, Note_on_c, 0, 65, 0
2, 26876, Note_on_c, 0, 67, 51
2, 26976, Note_on_c, 0, 67, 0
2, 27122, Note_on_c, 0, 68, 50
2, 27217, Note_on_c, 0, 68, 0
2, 27237, Note_on_c, 0, 70, 51
2, 27339, Note_on_c, 0, 70, 0
2, 27477, Note_on_c, 0, 72, 48
2, 27578, Note_on_c, 0, 72, 0
2, 27617, Note_on_c, 0, 73, 52
2, 27638, Note_on_c, 0, 73, 0
2, 27640, Note_on_c, 0, 75, 57
2, 27653, Note_on_c, 0, 75, 0
2, 27662, Note_on_c, 0, 73, 55
2, 27718, Note_on_c, 0, 73, 0
2, 27720, Note_on_c, 0, 72, 62
2, 27821, Note_on_c, 0, 72, 0
2, 27840, Note_on_c, 0, 80, 53
2, 27946, Note_on_c, 0, 80, 0
2, 27958, Note_on_c, 0, 79, 56
2, 28051, Note_on_c, 0, 79, 0
2, 28084, Note_on_c, 0, 77, 65
2, 28179, Note_on_c, 0, 77, 0
2, 28203, Note_on_c, 0, 72, 64
2, 28303, Note_on_c, 0, 72, 0
2, 28341, Note_on_c, 0, 73, 60
2, 28356, Note_on_c, 0, 73, 0
2, 28365, Note_on_c, 0, 75, 64
2, 28383, Note_on_c, 0, 73, 56
2, 28386, Note_on_c, 0, 75, 0
2, 28441, Note_on_c, 0, 72, 65
2, 28442, Note_on_c, 0, 73, 0
2, 28540, Note_on_c, 0, 72, 0
2, 28560, Note_on_c, 0, 68, 56
2, 28663, Note_on_c, 0, 68, 0
2, 28684, Note_on_c, 0, 65, 59
2, 28782, Note_on_c, 0, 65, 0
2, 28801, Note_on_c, 0, 60, 82
2, 29500, Note_on_c, 0, 60, 0
2, 29637, Note_on_c, 0, 65, 56
2, 29728, Note_on_c, 0, 65, 0
2, 29761, Note_on_c, 0, 67, 64
2, 29856, Note_on_c, 0, 67, 0
2, 30001, Note_on_c, 0, 68, 58
2, 30110, Note_on_c, 0, 68, 0
2, 30115, Note_on_c, 0, 70, 58
2, 30211, Note_on_c, 0, 70, 0
2, 30359, Note_on_c, 0, 72, 62
2, 30462, Note_on_c, 0, 72, 0
2, 30497, Note_on_c, 0, 73, 59
2, 30515, Note_on_c, 0, 73, 0
2, 30521, Note_on_c, 0, 75, 57
2, 30538, Note_on_c, 0, 75, 0
2, 30540, Note_on_c, 0, 73, 61
2, 30596, Note_on_c, 0, 73, 0
2, 30600, Note_on_c, 0, 72, 65
2, 30703, Note_on_c, 0, 72, 0
2, 30714, Note_on_c, 0, 84, 60
2, 30811, Note_on_c, 0, 84, 0
2, 30838, Note_on_c, 0, 80, 60
2, 30939, Note_on_c, 0, 80, 0
2, 30959, Note_on_c, 0, 79, 69
2, 31055, Note_on_c, 0, 79, 0
2, 31077, Note_on_c, 0, 72, 61
2, 31173, Note_on_c, 0, 72, 0
2, 31201, Note_on_c, 0, 73, 63
2, 31307, Note_on_c, 0, 73, 0
2, 31318, Note_on_c, 0, 72, 67
2, 31414, Note_on_c, 0, 72, 0
2, 31439, Note_on_c, 0, 67, 61
2, 31538, Note_on_c, 0, 67, 0
2, 31561, Note_on_c, 0, 60, 62
2, 31665, Note_on_c, 0, 60, 0
2, 31680, Note_on_c, 0, 65, 70
2, 31738, Note_on_c, 0, 67, 62
2, 31742, Note_on_c, 0, 65, 0
2, 31797, Note_on_c, 0, 67, 0
2, 31804, Note_on_c, 0, 68, 62
2, 32287, Note_on_c, 0, 68, 0
2, 32517, Note_on_c, 0, 65, 65
2, 32521, Note_on_c, 0, 77, 67
2, 32618, Note_on_c, 0, 65, 0
2, 32622, Note_on_c, 0, 77, 0
2, 32638, Note_on_c, 0, 67, 63
2, 32638, Note_on_c, 0, 79, 69
2, 32742, Note_on_c, 0, 79, 0
2, 32745, Note_on_c, 0, 67, 0
2, 32877, Note_on_c, 0, 80, 62
2, 32879, Note_on_c, 0, 68, 66
2, 32970, Note_on_c, 0, 80, 0
2, 32972, Note_on_c, 0, 68, 0
2, 32999, Note_on_c, 0, 82, 67
2, 33001, Note_on_c, 0, 70, 66
2, 33096, Note_on_c, 0, 82, 0
2, 33097, Note_on_c, 0, 70, 0
2, 33242, Note_on_c, 0, 84, 64
2, 33246, Note_on_c, 0, 72, 65
2, 33335, Note_on_c, 0, 84, 0
2, 33344, Note_on_c, 0, 72, 0
2, 33358, Note_on_c, 0, 73, 68
2, 33360, Note_on_c, 0, 85, 62
2, 33459, Note_on_c, 0, 73, 0
2, 33461, Note_on_c, 0, 85, 0
2, 33481, Note_on_c, 0, 84, 73
2, 33484, Note_on_c, 0, 72, 73
2, 33581, Note_on_c, 0, 84, 0
2, 33588, Note_on_c, 0, 72, 0
2, 33602, Note_on_c, 0, 92, 72
2, 33603, Note_on_c, 0, 80, 73
2, 33697, Note_on_c, 0, 92, 0
2, 33702, Note_on_c, 0, 80, 0
2, 33716, Note_on_c, 0, 91, 67
2, 33720, Note_on_c, 0, 79, 71
2, 33815, Note_on_c, 0, 91, 0
2, 33821, Note_on_c, 0, 79, 0
2, 33838, Note_on_c, 0, 89, 81
2, 33841, Note_on_c, 0, 77, 82
2, 33934, Note_on_c, 0, 89, 0
2, 33942, Note_on_c, 0, 77, 0
2, 33957, Note_on_c, 0, 84, 71
2, 33960, Note_on_c, 0, 72, 72
2, 34058, Note_on_c, 0, 84, 0
2, 34063, Note_on_c, 0, 72, 0
2, 34080, Note_on_c, 0, 85, 66
2, 34082, Note_on_c, 0, 73, 72
2, 34177, Note_on_c, 0, 85, 0
2, 34179, Note_on_c, 0, 73, 0
2, 34197, Note_on_c, 0, 72, 68
2, 34204, Note_on_c, 0, 84, 74
2, 34299, Note_on_c, 0, 72, 0
2, 34310, Note_on_c, 0, 84, 0
2, 34318, Note_on_c, 0, 68, 63
2, 34320, Note_on_c, 0, 80, 66
2, 34413, Note_on_c, 0, 80, 0
2, 34421, Note_on_c, 0, 68, 0
2, 34435, Note_on_c, 0, 77, 62
2, 34438, Note_on_c, 0, 65, 61
2, 34536, Note_on_c, 0, 65, 0
2, 34539, Note_on_c, 0, 77, 0
2, 34555, Note_on_c, 0, 60, 91
2, 34555, Note_on_c, 0, 72, 91
2, 35270, Note_on_c, 0, 72, 0
2, 35270, Note_on_c, 0, 60, 0
2, 35281, Control_c, 0, 64, 127
2, 35395, Note_on_c, 0, 65, 62
2, 35400, Note_on_c, 0, 77, 67
2, 35495, Note_on_c, 0, 65, 0
2, 35498, Note_on_c, 0, 77, 0
2, 35523, Note_on_c, 0, 67, 61
2, 35525, Note_on_c, 0, 79, 63
2, 35624, Note_on_c, 0, 67, 0
2, 35625, Note_on_c, 0, 79, 0
2, 35635, Control_c, 0, 64, 0
2, 35639, Control_c, 0, 64, 127
2, 35757, Note_on_c, 0, 69, 67
2, 35761, Note_on_c, 0, 81, 62
2, 35853, Note_on_c, 0, 69, 0
2, 35862, Note_on_c, 0, 81, 0
2, 35880, Note_on_c, 0, 82, 69
2, 35881, Note_on_c, 0, 70, 66
2, 35980, Note_on_c, 0, 70, 0
2, 35983, Note_on_c, 0, 82, 0
2, 35994, Control_c, 0, 64, 0
2, 35998, Control_c, 0, 64, 127
2, 36121, Note_on_c, 0, 84, 67
2, 36125, Note_on_c, 0, 72, 66
2, 36235, Note_on_c, 0, 84, 0
2, 36237, Note_on_c, 0, 85, 65
2, 36238, Note_on_c, 0, 73, 67
2, 36244, Note_on_c, 0, 72, 0
2, 36352, Note_on_c, 0, 85, 0
2, 36358, Note_on_c, 0, 73, 0
2, 36358, Control_c, 0, 64, 0
2, 36361, Note_on_c, 0, 75, 69
2, 36362, Note_on_c, 0, 87, 72
2, 36362, Control_c, 0, 64, 127
2, 36709, Note_on_c, 0, 75, 0
2, 36711, Note_on_c, 0, 87, 0
2, 36714, Control_c, 0, 64, 0
2, 36718, Control_c, 0, 64, 127
2, 36838, Note_on_c, 0, 71, 71
2, 36841, Note_on_c, 0, 83, 67
2, 36936, Note_on_c, 0, 71, 0
2, 36939, Note_on_c, 0, 83, 0
2, 36958, Note_on_c, 0, 72, 72
2, 36960, Note_on_c, 0, 84, 67
2, 37058, Note_on_c, 0, 84, 0
2, 37059, Note_on_c, 0, 72, 0
2, 37074, Control_c, 0, 64, 0
2, 37078, Control_c, 0, 64, 127
2, 37195, Note_on_c, 0, 86, 74
2, 37199, Note_on_c, 0, 74, 73
2, 37293, Note_on_c, 0, 74, 0
2, 37295, Note_on_c, 0, 86, 0
2, 37319, Note_on_c, 0, 76, 68
2, 37323, Note_on_c, 0, 88, 72
2, 37420, Note_on_c, 0, 76, 0
2, 37429, Note_on_c, 0, 88, 0
2, 37437, Control_c, 0, 64, 0
2, 37441, Control_c, 0, 64, 127
2, 37556, Note_on_c, 0, 77, 68
2, 37560, Note_on_c, 0, 89, 75
2, 37668, Note_on_c, 0, 77, 0
2, 37677, Note_on_c, 0, 91, 68
2, 37680, Note_on_c, 0, 89, 0
2, 37681, Note_on_c, 0, 79, 75
2, 37795, Note_on_c, 0, 91, 0
2, 37796, Control_c, 0, 64, 0
2, 37799, Note_on_c, 0, 80, 77
2, 37800, Control_c, 0, 64, 127
2, 37803, Note_on_c, 0, 79, 0
2, 37804, Note_on_c, 0, 92, 76
2, 38144, Note_on_c, 0, 80, 0
2, 38150, Note_on_c, 0, 92, 0
2, 38156, Control_c, 0, 64, 0
2, 38160, Control_c, 0, 64, 127
2, 38278, Note_on_c, 0, 64, 69
2, 38279, Note_on_c, 0, 76, 77
2, 38398, Note_on_c, 0, 76, 0
2, 38398, Note_on_c, 0, 65, 75
2, 38400, Note_on_c, 0, 64, 0
2, 38401, Note_on_c, 0, 77, 77
2, 38514, Note_on_c, 0, 68, 74
2, 38515, Note_on_c, 0, 65, 0
2, 38519, Note_on_c, 0, 80, 76
2, 38526, Note_on_c, 0, 77, 0
2, 38630, Note_on_c, 0, 68, 0
2, 38632, Note_on_c, 0, 80, 0
2, 38637, Note_on_c, 0, 67, 72
2, 38638, Note_on_c, 0, 79, 74
2, 38747, Note_on_c, 0, 67, 0
2, 38754, Note_on_c, 0, 79, 0
2, 38766, Note_on_c, 0, 80, 73
2, 38766, Note_on_c, 0, 68, 79
2, 38875, Control_c, 0, 64, 0
2, 38876, Note_on_c, 0, 80, 0
2, 38879, Control_c, 0, 64, 127
2, 38880, Note_on_c, 0, 84, 83
2, 38882, Note_on_c, 0, 68, 0
2, 38883, Note_on_c, 0, 72, 84
2, 38995, Note_on_c, 0, 82, 72
2, 38999, Note_on_c, 0, 70, 75
2, 39001, Note_on_c, 0, 84, 0
2, 39002, Note_on_c, 0, 72, 0
2, 39110, Note_on_c, 0, 82, 0
2, 39115, Note_on_c, 0, 70, 0
2, 39123, Note_on_c, 0, 72, 76
2, 39124, Note_on_c, 0, 84, 75
2, 39238, Note_on_c, 0, 87, 83
2, 39240, Note_on_c, 0, 84, 0
2, 39240, Note_on_c, 0, 75, 80
2, 39242, Note_on_c, 0, 72, 0
2, 39348, Note_on_c, 0, 87, 0
2, 39360, Note_on_c, 0, 73, 78
2, 39360, Note_on_c, 0, 85, 75
2, 39363, Note_on_c, 0, 75, 0
2, 39478, Note_on_c, 0, 73, 0
2, 39479, Note_on_c, 0, 87, 77
2, 39484, Note_on_c, 0, 85, 0
2, 39484, Note_on_c, 0, 75, 78
2, 39594, Note_on_c, 0, 75, 0
2, 39596, Control_c, 0, 64, 0
2, 39599, Note_on_c, 0, 87, 0
2, 39599, Note_on_c, 0, 77, 81
2, 39600, Control_c, 0, 64, 127
2, 39601, Note_on_c, 0, 89, 84
2, 39718, Note_on_c, 0, 77, 0
2, 39719, Note_on_c, 0, 88, 80
2, 39720, Note_on_c, 0, 89, 0
2, 39721, Note_on_c, 0, 76, 74
2, 39829, Note_on_c, 0, 88, 0
2, 39836, Note_on_c, 0, 77, 81
2, 39838, Note_on_c, 0, 76, 0
2, 39839, Note_on_c, 0, 89, 79
2, 39953, Note_on_c, 0, 77, 0
2, 39954, Note_on_c, 0, 89, 0
2, 39956, Note_on_c, 0, 92, 82
2, 39958, Note_on_c, 0, 80, 84
2, 40066, Note_on_c, 0, 92, 0
2, 40072, Note_on_c, 0, 80, 0
2, 40083, Note_on_c, 0, 91, 79
2, 40086, Note_on_c, 0, 79, 78
2, 40198, Note_on_c, 0, 92, 82
2, 40198, Note_on_c, 0, 80, 79
2, 40201, Note_on_c, 0, 91, 0
2, 40203, Note_on_c, 0, 79, 0
2, 40314, Note_on_c, 0, 92, 0
2, 40315, Control_c, 0, 64, 0
2, 40318, Note_on_c, 0, 80, 0
2, 40318, Note_on_c, 0, 81, 91
2, 40319, Control_c, 0, 64, 127
2, 40323, Note_on_c, 0, 93, 86
2, 40375, Note_on_c, 0, 93, 0
2, 40375, Note_on_c, 0, 94, 81
2, 40378, Note_on_c, 0, 82, 77
2, 40380, Note_on_c, 0, 81, 0
2, 40429, Note_on_c, 0, 94, 0
2, 40434, Note_on_c, 0, 82, 0
2, 40445, Note_on_c, 0, 85, 95
2, 40446, Note_on_c, 0, 97, 95
2, 40916, Note_on_c, 0, 76, 52
2, 40921, Note_on_c, 0, 64, 54
2, 40922, Note_on_c, 0, 97, 0
2, 40927, Note_on_c, 0, 85, 0
2, 41032, Note_on_c, 0, 76, 0
2, 41034, Control_c, 0, 64, 0
2, 41036, Note_on_c, 0, 67, 54
2, 41038, Control_c, 0, 64, 127
2, 41039, Note_on_c, 0, 79, 59
2, 41040, Control_c, 0, 67, 127
2, 41043, Note_on_c, 0, 64, 0
2, 41134, Note_on_c, 0, 67, 0
2, 41137, Note_on_c, 0, 79, 0
2, 41156, Note_on_c, 0, 79, 48
2, 41156, Note_on_c, 0, 67, 46
2, 41257, Note_on_c, 0, 79, 0
2, 41259, Note_on_c, 0, 67, 0
2, 41278, Note_on_c, 0, 79, 51
2, 41280, Note_on_c, 0, 67, 47
2, 41371, Note_on_c, 0, 79, 0
2, 41383, Note_on_c, 0, 67, 0
2, 41395, Note_on_c, 0, 79, 67
2, 41395, Control_c, 0, 64, 0
2, 41399, Control_c, 0, 64, 127
2, 41402, Note_on_c, 0, 67, 67
2, 41629, Note_on_c, 0, 79, 0
2, 41638, Note_on_c, 0, 67, 0
2, 41644, Note_on_c, 0, 77, 51
2, 41646, Note_on_c, 0, 65, 52
2, 41754, Control_c, 0, 64, 0
2, 41755, Note_on_c, 0, 67, 56
2, 41758, Control_c, 0, 64, 127
2, 41764, Note_on_c, 0, 65, 0
2, 41765, Note_on_c, 0, 77, 0
2, 41851, Note_on_c, 0, 67, 0
2, 41877, Note_on_c, 0, 67, 41
2, 41973, Note_on_c, 0, 67, 0
2, 42004, Note_on_c, 0, 67, 42
2, 42110, Note_on_c, 0, 67, 0
2, 42118, Control_c, 0, 64, 0
2, 42122, Control_c, 0, 64, 127
2, 42124, Note_on_c, 0, 67, 61
2, 42359, Note_on_c, 0, 65, 46
2, 42362, Note_on_c, 0, 67, 0
2, 42471, Note_on_c, 0, 65, 0
2, 42474, Control_c, 0, 64, 0
2, 42477, Note_on_c, 0, 76, 55
2, 42478, Control_c, 0, 64, 127
2, 42480, Note_on_c, 0, 64, 54
2, 42578, Note_on_c, 0, 76, 0
2, 42581, Note_on_c, 0, 64, 0
2, 42595, Note_on_c, 0, 75, 52
2, 42603, Note_on_c, 0, 63, 56
2, 42690, Note_on_c, 0, 75, 0
2, 42700, Note_on_c, 0, 63, 0
2, 42721, Note_on_c, 0, 76, 59
2, 42725, Note_on_c, 0, 64, 58
2, 42820, Note_on_c, 0, 76, 0
2, 42823, Note_on_c, 0, 64, 0
2, 42838, Control_c, 0, 64, 0
2, 42842, Control_c, 0, 64, 127
2, 42845, Note_on_c, 0, 65, 65
2, 42845, Note_on_c, 0, 77, 63
2, 43178, Note_on_c, 0, 65, 0
2, 43180, Note_on_c, 0, 77, 0
2, 43196, Control_c, 0, 64, 0
2, 43197, Note_on_c, 0, 64, 56
2, 43200, Control_c, 0, 64, 127
2, 43317, Note_on_c, 0, 64, 0
2, 43323, Note_on_c, 0, 63, 48
2, 43435, Note_on_c, 0, 63, 0
2, 43443, Note_on_c, 0, 64, 45
2, 43553, Note_on_c, 0, 64, 0
2, 43554, Control_c, 0, 64, 0
2, 43558, Control_c, 0, 64, 127
2, 43559, Note_on_c, 0, 65, 50
2, 43918, Control_c, 0, 64, 0
2, 43920, Control_c, 0, 67, 0
2, 43921, Note_on_c, 0, 65, 0
2, 43922, Control_c, 0, 64, 127
2, 43922, Note_on_c, 0, 79, 122
2, 43924, Note_on_c, 0, 91, 121
2, 43965, Note_on_c, 0, 91, 0
2, 43967, Note_on_c, 0, 91, 107
2, 43968, Note_on_c, 0, 79, 0
2, 43970, Note_on_c, 0, 79, 111
2, 44008, Note_on_c, 0, 91, 0
2, 44010, Note_on_c, 0, 79, 0
2, 44014, Note_on_c, 0, 91, 109
2, 44016, Note_on_c, 0, 79, 108
2, 44058, Note_on_c, 0, 91, 0
2, 44060, Note_on_c, 0, 79, 0
2, 44061, Note_on_c, 0, 91, 107
2, 44064, Note_on_c, 0, 79, 113
2, 44109, Note_on_c, 0, 91, 0
2, 44111, Note_on_c, 0, 79, 0
2, 44112, Note_on_c, 0, 79, 109
2, 44116, Note_on_c, 0, 91, 106
2, 44158, Note_on_c, 0, 79, 0
2, 44165, Note_on_c, 0, 91, 0
2, 44165, Note_on_c, 0, 79, 108
2, 44166, Note_on_c, 0, 91, 108
2, 44203, Note_on_c, 0, 79, 0
2, 44207, Note_on_c, 0, 91, 0
2, 44248, Note_on_c, 0, 79, 119
2, 44251, Note_on_c, 0, 67, 119
2, 44273, Note_on_c, 0, 79, 0
2, 44274, Control_c, 0, 64, 0
2, 44277, Note_on_c, 0, 67, 0
2, 44278, Control_c, 0, 64, 127
2, 44279, Note_on_c, 0, 67, 122
2, 44280, Note_on_c, 0, 79, 120
2, 44513, Note_on_c, 0, 67, 0
2, 44522, Note_on_c, 0, 65, 107
2, 44524, Note_on_c, 0, 77, 113
2, 44527, Note_on_c, 0, 79, 0
2, 44633, Note_on_c, 0, 65, 0
2, 44634, Note_on_c, 0, 77, 0
2, 44634, Control_c, 0, 64, 0
2, 44638, Control_c, 0, 64, 127
2, 44638, Note_on_c, 0, 79, 56
2, 44681, Note_on_c, 0, 79, 0
2, 44686, Note_on_c, 0, 79, 53
2, 44729, Note_on_c, 0, 79, 0
2, 44731, Note_on_c, 0, 79, 54
2, 44775, Note_on_c, 0, 79, 0
2, 44784, Note_on_c, 0, 79, 53
2, 44827, Note_on_c, 0, 79, 0
2, 44829, Note_on_c, 0, 79, 52
2, 44878, Note_on_c, 0, 79, 0
2, 44883, Note_on_c, 0, 79, 51
2, 44925, Note_on_c, 0, 79, 0
2, 44969, Note_on_c, 0, 67, 70
2, 44996, Note_on_c, 0, 67, 0
2, 44998, Control_c, 0, 64, 0
2, 45002, Control_c, 0, 64, 127
2, 45003, Note_on_c, 0, 67, 67
2, 45235, Note_on_c, 0, 67, 0
2, 45240, Note_on_c, 0, 65, 48
2, 45358, Control_c, 0, 64, 0
2, 45362, Control_c, 0, 64, 127
2, 45362, Note_on_c, 0, 64, 121
2, 45365, Note_on_c, 0, 65, 0
2, 45366, Note_on_c, 0, 76, 116
2, 45406, Note_on_c, 0, 64, 0
2, 45410, Note_on_c, 0, 76, 0
2, 45421, Note_on_c, 0, 77, 110
2, 45424, Note_on_c, 0, 65, 108
2, 45457, Note_on_c, 0, 77, 0
2, 45465, Note_on_c, 0, 65, 0
2, 45478, Note_on_c, 0, 67, 116
2, 45480, Note_on_c, 0, 79, 109
2, 45512, Note_on_c, 0, 67, 0
2, 45517, Note_on_c, 0, 79, 0
2, 45539, Note_on_c, 0, 68, 109
2, 45543, Note_on_c, 0, 80, 113
2, 45579, Note_on_c, 0, 80, 0
2, 45585, Note_on_c, 0, 68, 0
2, 45596, Note_on_c, 0, 70, 112
2, 45598, Note_on_c, 0, 82, 109
2, 45636, Note_on_c, 0, 82, 0
2, 45639, Note_on_c, 0, 70, 0
2, 45656, Note_on_c, 0, 80, 116
2, 45659, Note_on_c, 0, 68, 111
2, 45695, Note_on_c, 0, 80, 0
2, 45703, Note_on_c, 0, 68, 0
2, 45717, Note_on_c, 0, 65, 114
2, 45717, Control_c, 0, 64, 0
2, 45720, Note_on_c, 0, 77, 114
2, 45721, Control_c, 0, 64, 127
2, 46068, Note_on_c, 0, 77, 0
2, 46078, Control_c, 0, 64, 0
2, 46080, Note_on_c, 0, 64, 63
2, 46082, Control_c, 0, 64, 127
2, 46085, Note_on_c, 0, 65, 0
2, 46121, Note_on_c, 0, 64, 0
2, 46138, Note_on_c, 0, 65, 62
2, 46175, Note_on_c, 0, 65, 0
2, 46198, Note_on_c, 0, 67, 55
2, 46236, Note_on_c, 0, 67, 0
2, 46266, Note_on_c, 0, 68, 55
2, 46307, Note_on_c, 0, 68, 0
2, 46323, Note_on_c, 0, 70, 55
2, 46362, Note_on_c, 0, 70, 0
2, 46381, Note_on_c, 0, 68, 58
2, 46420, Note_on_c, 0, 68, 0
2, 46437, Control_c, 0, 64, 0
2, 46440, Note_on_c, 0, 65, 66
2, 46441, Control_c, 0, 64, 127
2, 46800, Note_on_c, 0, 94, 47
2, 46804, Note_on_c, 0, 65, 0
2, 46861, Note_on_c, 0, 84, 39
2, 46863, Note_on_c, 0, 94, 0
2, 46919, Note_on_c, 0, 92, 44
2, 46922, Note_on_c, 0, 84, 0
2, 46976, Note_on_c, 0, 84, 43
2, 46979, Note_on_c, 0, 92, 0
2, 47034, Note_on_c, 0, 84, 0
2, 47037, Note_on_c, 0, 94, 40
2, 47095, Note_on_c, 0, 84, 43
2, 47098, Note_on_c, 0, 94, 0
2, 47152, Note_on_c, 0, 84, 0
2, 47159, Note_on_c, 0, 92, 46
2, 47219, Note_on_c, 0, 92, 0
2, 47219, Note_on_c, 0, 84, 39
2, 47276, Note_on_c, 0, 84, 0
2, 47278, Note_on_c, 0, 94, 38
2, 47329, Note_on_c, 0, 94, 0
2, 47336, Note_on_c, 0, 84, 36
2, 47399, Note_on_c, 0, 84, 0
2, 47401, Note_on_c, 0, 92, 40
2, 47464, Note_on_c, 0, 92, 0
2, 47465, Note_on_c, 0, 84, 44
2, 47520, Note_on_c, 0, 84, 0
2, 47520, Note_on_c, 0, 91, 47
2, 47578, Note_on_c, 0, 91, 0
2, 47582, Note_on_c, 0, 80, 38
2, 47634, Note_on_c, 0, 80, 0
2, 47636, Note_on_c, 0, 89, 41
2, 47689, Note_on_c, 0, 89, 0
2, 47705, Note_on_c, 0, 80, 38
2, 47758, Note_on_c, 0, 80, 0
2, 47758, Note_on_c, 0, 91, 42
2, 47818, Note_on_c, 0, 91, 0
2, 47819, Note_on_c, 0, 80, 44
2, 47873, Note_on_c, 0, 80, 0
2, 47884, Note_on_c, 0, 89, 43
2, 47940, Note_on_c, 0, 89, 0
2, 47942, Note_on_c, 0, 80, 44
2, 47998, Note_on_c, 0, 80, 0
2, 48003, Note_on_c, 0, 91, 36
2, 48060, Note_on_c, 0, 80, 44
2, 48064, Note_on_c, 0, 91, 0
2, 48117, Note_on_c, 0, 80, 0
2, 48118, Note_on_c, 0, 89, 41
2, 48176, Note_on_c, 0, 80, 43
2, 48177, Note_on_c, 0, 89, 0
2, 48231, Note_on_c, 0, 80, 0
2, 48239, Note_on_c, 0, 101, 29
2, 48361, Note_on_c, 0, 101, 0
2, 48848, Control_c, 0, 64, 0
2, 48848, End_track
3, 0, Start_track
3, 0, MIDI_port, 0
3, 0, Title_t, "Etude, Op. 10, No. 9"
3, 0, Program_c, 1, 0
3, 0, Control_c, 1, 10, 58
3, 0, Control_c, 1, 91, 90
3, 5, Control_c, 1, 93, 24
3, 10, Text_t, "TVF cutoff freq.    "
3, 10, Control_c, 1, 99, 1
3, 15, Control_c, 1, 98, 32
3, 20, Control_c, 1, 6, 64
3, 25, Text_t, "TVF Resonance       "
3, 25, Control_c, 1, 98, 33
3, 30, Control_c, 1, 6, 64
3, 35, Text_t, "TVF&TVA Env.Attack  "
3, 35, Control_c, 1, 98, 99
3, 40, Control_c, 1, 6, 64
3, 45, Text_t, "TVF&TVA Env.Decay   "
3, 45, Control_c, 1, 98, 100
3, 50, Control_c, 1, 6, 65
3, 55, Text_t, "TVF&TVA Env.Release "
3, 55, Control_c, 1, 98, 102
3, 60, Control_c, 1, 6, 64
3, 720, Control_c, 1, 64, 127
3, 722, Note_on_c, 1, 41, 60
3, 776, Note_on_c, 1, 48, 48
3, 790, Note_on_c, 1, 41, 0
3, 841, Note_on_c, 1, 48, 0
3, 841, Note_on_c, 1, 56, 49
3, 898, Note_on_c, 1, 48, 46
3, 910, Note_on_c, 1, 56, 0
3, 955, Note_on_c, 1, 58, 49
3, 969, Note_on_c, 1, 48, 0
3, 1015, Note_on_c, 1, 58, 0
3, 1015, Note_on_c, 1, 48, 46
3, 1078, Note_on_c, 1, 48, 0
3, 1078, Control_c, 1, 64, 0
3, 1082, Control_c, 1, 64, 127
3, 1084, Note_on_c, 1, 41, 55
3, 1136, Note_on_c, 1, 48, 53
3, 1151, Note_on_c, 1, 41, 0
3, 1201, Note_on_c, 1, 48, 0
3, 1204, Note_on_c, 1, 60, 46
3, 1262, Note_on_c, 1, 48, 53
3, 1266, Note_on_c, 1, 60, 0
3, 1321, Note_on_c, 1, 61, 51
3, 1335, Note_on_c, 1, 48, 0
3, 1382, Note_on_c, 1, 48, 52
3, 1383, Note_on_c, 1, 61, 0
3, 1437, Control_c, 1, 64, 0
3, 1440, Note_on_c, 1, 41, 67
3, 1441, Control_c, 1, 64, 127
3, 1449, Note_on_c, 1, 48, 0
3, 1500, Note_on_c, 1, 41, 0
3, 1502, Note_on_c, 1, 48, 52
3, 1556, Note_on_c, 1, 60, 56
3, 1565, Note_on_c, 1, 48, 0
3, 1617, Note_on_c, 1, 48, 52
3, 1618, Note_on_c, 1, 60, 0
3, 1681, Note_on_c, 1, 58, 59
3, 1685, Note_on_c, 1, 48, 0
3, 1735, Note_on_c, 1, 48, 61
3, 1747, Note_on_c, 1, 58, 0
3, 1795, Control_c, 1, 64, 0
3, 1799, Control_c, 1, 64, 127
3, 1800, Note_on_c, 1, 48, 0
3, 1802, Note_on_c, 1, 41, 66
3, 1855, Note_on_c, 1, 48, 58
3, 1864, Note_on_c, 1, 41, 0
3, 1916, Note_on_c, 1, 48, 0
3, 1918, Note_on_c, 1, 56, 67
3, 1982, Note_on_c, 1, 56, 0
3, 1983, Note_on_c, 1, 48, 66
3, 2040, Note_on_c, 1, 58, 69
3, 2045, Note_on_c, 1, 48, 0
3, 2100, Note_on_c, 1, 48, 64
3, 2107, Note_on_c, 1, 58, 0
3, 2156, Note_on_c, 1, 41, 83
3, 2156, Control_c, 1, 64, 0
3, 2160, Control_c, 1, 64, 127
3, 2161, Note_on_c, 1, 48, 0
3, 2216, Note_on_c, 1, 48, 76
3, 2218, Note_on_c, 1, 41, 0
3, 2277, Note_on_c, 1, 56, 69
3, 2284, Note_on_c, 1, 48, 0
3, 2335, Note_on_c, 1, 48, 73
3, 2342, Note_on_c, 1, 56, 0
3, 2400, Note_on_c, 1, 48, 0
3, 2405, Note_on_c, 1, 58, 74
3, 2464, Note_on_c, 1, 48, 82
3, 2474, Note_on_c, 1, 58, 0
3, 2516, Control_c, 1, 64, 0
3, 2517, Note_on_c, 1, 41, 85
3, 2520, Control_c, 1, 64, 127
3, 2534, Note_on_c, 1, 48, 0
3, 2580, Note_on_c, 1, 41, 0
3, 2583, Note_on_c, 1, 48, 79
3, 2634, Note_on_c, 1, 56, 87
3, 2645, Note_on_c, 1, 48, 0
3, 2700, Note_on_c, 1, 56, 0
3, 2703, Note_on_c, 1, 48, 84
3, 2759, Note_on_c, 1, 60, 88
3, 2771, Note_on_c, 1, 48, 0
3, 2822, Note_on_c, 1, 48, 85
3, 2825, Note_on_c, 1, 60, 0
3, 2876, Control_c, 1, 64, 0
3, 2880, Control_c, 1, 64, 127
3, 2884, Note_on_c, 1, 41, 100
3, 2888, Note_on_c, 1, 48, 0
3, 2935, Note_on_c, 1, 48, 48
3, 2949, Note_on_c, 1, 41, 0
3, 2995, Note_on_c, 1, 55, 50
3, 3003, Note_on_c, 1, 48, 0
3, 3055, Note_on_c, 1, 48, 54
3, 3061, Note_on_c, 1, 55, 0
3, 3116, Note_on_c, 1, 48, 0
3, 3119, Note_on_c, 1, 56, 46
3, 3181, Note_on_c, 1, 48, 54
3, 3188, Note_on_c, 1, 56, 0
3, 3237, Control_c, 1, 64, 0
3, 3241, Control_c, 1, 64, 127
3, 3243, Note_on_c, 1, 41, 53
3, 3249, Note_on_c, 1, 48, 0
3, 3300, Note_on_c, 1, 48, 46
3, 3305, Note_on_c, 1, 41, 0
3, 3364, Note_on_c, 1, 58, 53
3, 3367, Note_on_c, 1, 48, 0
3, 3422, Note_on_c, 1, 48, 47
3, 3431, Note_on_c, 1, 58, 0
3, 3481, Note_on_c, 1, 55, 54
3, 3494, Note_on_c, 1, 48, 0
3, 3537, Note_on_c, 1, 48, 52
3, 3543, Note_on_c, 1, 55, 0
3, 3594, Control_c, 1, 64, 0
3, 3598, Note_on_c, 1, 41, 66
3, 3599, Note_on_c, 1, 48, 0
3, 3660, Note_on_c, 1, 48, 47
3, 3668, Note_on_c, 1, 41, 0
3, 3715, Note_on_c, 1, 56, 50
3, 3725, Note_on_c, 1, 48, 0
3, 3779, Note_on_c, 1, 56, 0
3, 3782, Note_on_c, 1, 48, 46
3, 3842, Note_on_c, 1, 58, 52
3, 3848, Note_on_c, 1, 48, 0
3, 3900, Note_on_c, 1, 48, 47
3, 3914, Note_on_c, 1, 58, 0
3, 3962, Note_on_c, 1, 48, 0
3, 3964, Note_on_c, 1, 41, 53
3, 4023, Note_on_c, 1, 48, 48
3, 4031, Note_on_c, 1, 41, 0
3, 4082, Note_on_c, 1, 60, 54
3, 4083, Note_on_c, 1, 48, 0
3, 4142, Note_on_c, 1, 48, 46
3, 4148, Note_on_c, 1, 60, 0
3, 4197, Note_on_c, 1, 61, 48
3, 4207, Note_on_c, 1, 48, 0
3, 4259, Note_on_c, 1, 48, 47
3, 4265, Note_on_c, 1, 61, 0
3, 4323, Note_on_c, 1, 48, 0
3, 4323, Note_on_c, 1, 41, 62
3, 4383, Note_on_c, 1, 48, 49
3, 4394, Note_on_c, 1, 41, 0
3, 4442, Note_on_c, 1, 60, 54
3, 4449, Note_on_c, 1, 48, 0
3, 4495, Note_on_c, 1, 48, 57
3, 4506, Note_on_c, 1, 60, 0
3, 4558, Note_on_c, 1, 48, 0
3, 4560, Note_on_c, 1, 58, 59
3, 4620, Note_on_c, 1, 48, 53
3, 4626, Note_on_c, 1, 58, 0
3, 4677, Note_on_c, 1, 41, 64
3, 4685, Note_on_c, 1, 48, 0
3, 4739, Note_on_c, 1, 48, 59
3, 4740, Note_on_c, 1, 41, 0
3, 4802, Note_on_c, 1, 56, 60
3, 4806, Note_on_c, 1, 48, 0
3, 4866, Note_on_c, 1, 48, 65
3, 4871, Note_on_c, 1, 56, 0
3, 4926, Note_on_c, 1, 60, 62
3, 4932, Note_on_c, 1, 48, 0
3, 4979, Note_on_c, 1, 48, 67
3, 4992, Note_on_c, 1, 60, 0
3, 5039, Note_on_c, 1, 48, 0
3, 5040, Note_on_c, 1, 41, 78
3, 5105, Note_on_c, 1, 48, 62
3, 5106, Note_on_c, 1, 41, 0
3, 5159, Note_on_c, 1, 58, 67
3, 5165, Note_on_c, 1, 48, 0
3, 5219, Note_on_c, 1, 58, 0
3, 5221, Note_on_c, 1, 48, 68
3, 5281, Note_on_c, 1, 48, 0
3, 5282, Note_on_c, 1, 55, 67
3, 5334, Note_on_c, 1, 48, 73
3, 5345, Note_on_c, 1, 55, 0
3, 5395, Note_on_c, 1, 41, 75
3, 5398, Note_on_c, 1, 48, 0
3, 5459, Note_on_c, 1, 48, 73
3, 5463, Note_on_c, 1, 41, 0
3, 5518, Note_on_c, 1, 58, 73
3, 5527, Note_on_c, 1, 48, 0
3, 5576, Note_on_c, 1, 48, 72
3, 5580, Note_on_c, 1, 58, 0
3, 5640, Note_on_c, 1, 48, 0
3, 5640, Note_on_c, 1, 55, 74
3, 5705, Note_on_c, 1, 48, 75
3, 5713, Note_on_c, 1, 55, 0
3, 5762, Note_on_c, 1, 41, 86
3, 5773, Note_on_c, 1, 48, 0
3, 5819, Note_on_c, 1, 47, 81
3, 5824, Note_on_c, 1, 41, 0
3, 5877, Note_on_c, 1, 56, 76
3, 5888, Note_on_c, 1, 47, 0
3, 5940, Note_on_c, 1, 56, 0
3, 5943, Note_on_c, 1, 47, 77
3, 5998, Note_on_c, 1, 61, 81
3, 6008, Note_on_c, 1, 47, 0
3, 6063, Note_on_c, 1, 47, 84
3, 6067, Note_on_c, 1, 61, 0
3, 6123, Note_on_c, 1, 47, 0
3, 6123, Note_on_c, 1, 41, 84
3, 6181, Note_on_c, 1, 47, 82
3, 6193, Note_on_c, 1, 41, 0
3, 6235, Note_on_c, 1, 56, 83
3, 6247, Note_on_c, 1, 47, 0
3, 6296, Note_on_c, 1, 47, 88
3, 6300, Note_on_c, 1, 56, 0
3, 6357, Note_on_c, 1, 47, 0
3, 6362, Note_on_c, 1, 61, 88
3, 6425, Note_on_c, 1, 47, 91
3, 6427, Note_on_c, 1, 61, 0
3, 6475, Note_on_c, 1, 41, 60
3, 6480, Control_c, 1, 67, 127
3, 6491, Note_on_c, 1, 47, 0
3, 6539, Note_on_c, 1, 41, 0
3, 6540, Note_on_c, 1, 48, 49
3, 6596, Note_on_c, 1, 56, 52
3, 6602, Note_on_c, 1, 48, 0
3, 6656, Note_on_c, 1, 48, 49
3, 6657, Note_on_c, 1, 56, 0
3, 6717, Note_on_c, 1, 58, 53
3, 6720, Note_on_c, 1, 48, 0
3, 6779, Note_on_c, 1, 48, 51
3, 6789, Note_on_c, 1, 58, 0
3, 6845, Note_on_c, 1, 41, 51
3, 6846, Note_on_c, 1, 48, 0
3, 6900, Note_on_c, 1, 48, 54
3, 6908, Note_on_c, 1, 41, 0
3, 6963, Note_on_c, 1, 60, 53
3, 6966, Note_on_c, 1, 48, 0
3, 7016, Note_on_c, 1, 48, 49
3, 7031, Note_on_c, 1, 60, 0
3, 7076, Note_on_c, 1, 48, 0
3, 7080, Note_on_c, 1, 61, 54
3, 7139, Note_on_c, 1, 48, 47
3, 7146, Note_on_c, 1, 61, 0
3, 7202, Note_on_c, 1, 41, 68
3, 7206, Note_on_c, 1, 48, 0
3, 7255, Note_on_c, 1, 48, 54
3, 7266, Note_on_c, 1, 41, 0
3, 7318, Note_on_c, 1, 48, 0
3, 7323, Note_on_c, 1, 60, 54
3, 7384, Note_on_c, 1, 48, 59
3, 7390, Note_on_c, 1, 60, 0
3, 7440, Note_on_c, 1, 58, 62
3, 7448, Note_on_c, 1, 48, 0
3, 7501, Note_on_c, 1, 48, 58
3, 7506, Note_on_c, 1, 58, 0
3, 7554, Note_on_c, 1, 41, 67
3, 7563, Note_on_c, 1, 48, 0
3, 7620, Note_on_c, 1, 41, 0
3, 7622, Note_on_c, 1, 48, 65
3, 7680, Note_on_c, 1, 56, 69
3, 7685, Note_on_c, 1, 48, 0
3, 7738, Note_on_c, 1, 48, 74
3, 7743, Note_on_c, 1, 56, 0
3, 7804, Note_on_c, 1, 58, 72
3, 7805, Note_on_c, 1, 48, 0
3, 7859, Note_on_c, 1, 48, 72
3, 7867, Note_on_c, 1, 58, 0
3, 7921, Note_on_c, 1, 41, 87
3, 7923, Note_on_c, 1, 48, 0
3, 7980, Note_on_c, 1, 48, 69
3, 7985, Note_on_c, 1, 41, 0
3, 8037, Note_on_c, 1, 56, 69
3, 8049, Note_on_c, 1, 48, 0
3, 8098, Note_on_c, 1, 48, 74
3, 8099, Note_on_c, 1, 56, 0
3, 8157, Note_on_c, 1, 58, 68
3, 8167, Note_on_c, 1, 48, 0
3, 8217, Note_on_c, 1, 48, 69
3, 8218, Note_on_c, 1, 58, 0
3, 8274, Note_on_c, 1, 41, 75
3, 8280, Note_on_c, 1, 48, 0
3, 8336, Note_on_c, 1, 41, 0
3, 8340, Note_on_c, 1, 48, 69
3, 8404, Note_on_c, 1, 56, 72
3, 8405, Note_on_c, 1, 48, 0
3, 8462, Note_on_c, 1, 48, 72
3, 8471, Note_on_c, 1, 56, 0
3, 8522, Note_on_c, 1, 60, 72
3, 8531, Note_on_c, 1, 48, 0
3, 8585, Note_on_c, 1, 48, 72
3, 8589, Note_on_c, 1, 60, 0
3, 8637, Note_on_c, 1, 41, 80
3, 8650, Note_on_c, 1, 48, 0
3, 8700, Note_on_c, 1, 48, 67
3, 8703, Note_on_c, 1, 41, 0
3, 8763, Note_on_c, 1, 55, 68
3, 8770, Note_on_c, 1, 48, 0
3, 8824, Note_on_c, 1, 48, 72
3, 8828, Note_on_c, 1, 55, 0
3, 8876, Note_on_c, 1, 56, 74
3, 8885, Note_on_c, 1, 48, 0
3, 8937, Note_on_c, 1, 48, 69
3, 8944, Note_on_c, 1, 56, 0
3, 9003, Note_on_c, 1, 48, 0
3, 9003, Note_on_c, 1, 41, 74
3, 9062, Note_on_c, 1, 48, 66
3, 9070, Note_on_c, 1, 41, 0
3, 9120, Note_on_c, 1, 58, 74
3, 9129, Note_on_c, 1, 48, 0
3, 9176, Note_on_c, 1, 48, 67
3, 9189, Note_on_c, 1, 58, 0
3, 9240, Note_on_c, 1, 48, 0
3, 9245, Note_on_c, 1, 55, 70
3, 9297, Note_on_c, 1, 48, 71
3, 9311, Note_on_c, 1, 55, 0
3, 9362, Note_on_c, 1, 48, 0
3, 9362, Note_on_c, 1, 41, 82
3, 9419, Note_on_c, 1, 48, 72
3, 9430, Note_on_c, 1, 41, 0
3, 9480, Note_on_c, 1, 56, 66
3, 9492, Note_on_c, 1, 48, 0
3, 9541, Note_on_c, 1, 48, 66
3, 9551, Note_on_c, 1, 56, 0
3, 9600, Note_on_c, 1, 58, 66
3, 9602, Note_on_c, 1, 48, 0
3, 9662, Note_on_c, 1, 48, 66
3, 9666, Note_on_c, 1, 58, 0
3, 9720, Note_on_c, 1, 41, 73
3, 9729, Note_on_c, 1, 48, 0
3, 9779, Note_on_c, 1, 48, 68
3, 9784, Note_on_c, 1, 41, 0
3, 9839, Note_on_c, 1, 60, 72
3, 9848, Note_on_c, 1, 48, 0
3, 9897, Note_on_c, 1, 48, 67
3, 9906, Note_on_c, 1, 60, 0
3, 9959, Note_on_c, 1, 61, 69
3, 9962, Note_on_c, 1, 48, 0
3, 10015, Note_on_c, 1, 48, 66
3, 10024, Note_on_c, 1, 61, 0
3, 10078, Note_on_c, 1, 48, 0
3, 10081, Note_on_c, 1, 41, 85
3, 10145, Note_on_c, 1, 48, 72
3, 10146, Note_on_c, 1, 41, 0
3, 10201, Note_on_c, 1, 60, 67
3, 10209, Note_on_c, 1, 48, 0
3, 10258, Note_on_c, 1, 48, 72
3, 10266, Note_on_c, 1, 60, 0
3, 10318, Note_on_c, 1, 58, 71
3, 10322, Note_on_c, 1, 48, 0
3, 10382, Note_on_c, 1, 58, 0
3, 10384, Note_on_c, 1, 48, 71
3, 10445, Note_on_c, 1, 41, 74
3, 10450, Note_on_c, 1, 48, 0
3, 10497, Note_on_c, 1, 48, 66
3, 10509, Note_on_c, 1, 41, 0
3, 10560, Note_on_c, 1, 56, 70
3, 10561, Note_on_c, 1, 48, 0
3, 10624, Note_on_c, 1, 48, 66
3, 10626, Note_on_c, 1, 56, 0
3, 10683, Note_on_c, 1, 60, 74
3, 10691, Note_on_c, 1, 48, 0
3, 10736, Note_on_c, 1, 48, 70
3, 10748, Note_on_c, 1, 60, 0
3, 10795, Note_on_c, 1, 41, 82
3, 10801, Note_on_c, 1, 48, 0
3, 10858, Note_on_c, 1, 48, 72
3, 10862, Note_on_c, 1, 41, 0
3, 10922, Note_on_c, 1, 58, 70
3, 10924, Note_on_c, 1, 48, 0
3, 10985, Note_on_c, 1, 48, 72
3, 10986, Note_on_c, 1, 58, 0
3, 11035, Note_on_c, 1, 55, 72
3, 11052, Note_on_c, 1, 48, 0
3, 11096, Note_on_c, 1, 55, 0
3, 11098, Note_on_c, 1, 48, 69
3, 11161, Note_on_c, 1, 48, 0
3, 11163, Note_on_c, 1, 41, 73
3, 11223, Note_on_c, 1, 48, 66
3, 11227, Note_on_c, 1, 41, 0
3, 11277, Note_on_c, 1, 58, 73
3, 11288, Note_on_c, 1, 48, 0
3, 11337, Note_on_c, 1, 48, 67
3, 11341, Note_on_c, 1, 58, 0
3, 11399, Note_on_c, 1, 55, 66
3, 11405, Note_on_c, 1, 48, 0
3, 11461, Note_on_c, 1, 48, 68
3, 11463, Note_on_c, 1, 55, 0
3, 11515, Note_on_c, 1, 41, 81
3, 11518, Control_c, 1, 64, 127
3, 11525, Note_on_c, 1, 48, 0
3, 11580, Note_on_c, 1, 48, 67
3, 11582, Note_on_c, 1, 41, 0
3, 11635, Note_on_c, 1, 56, 68
3, 11648, Note_on_c, 1, 48, 0
3, 11701, Note_on_c, 1, 48, 70
3, 11702, Note_on_c, 1, 56, 0
3, 11761, Note_on_c, 1, 60, 66
3, 11764, Note_on_c, 1, 48, 0
3, 11815, Note_on_c, 1, 48, 69
3, 11826, Note_on_c, 1, 60, 0
3, 11877, Note_on_c, 1, 48, 0
3, 11881, Note_on_c, 1, 41, 74
3, 11935, Note_on_c, 1, 48, 71
3, 11948, Note_on_c, 1, 41, 0
3, 11996, Note_on_c, 1, 48, 0
3, 12000, Note_on_c, 1, 56, 72
3, 12058, Note_on_c, 1, 48, 69
3, 12066, Note_on_c, 1, 56, 0
3, 12115, Note_on_c, 1, 60, 69
3, 12123, Note_on_c, 1, 48, 0
3, 12179, Note_on_c, 1, 60, 0
3, 12182, Note_on_c, 1, 48, 53
3, 12238, Control_c, 1, 64, 0
3, 12240, Control_c, 1, 67, 0
3, 12242, Control_c, 1, 64, 127
3, 12246, Note_on_c, 1, 41, 62
3, 12254, Note_on_c, 1, 48, 0
3, 12299, Note_on_c, 1, 50, 52
3, 12308, Note_on_c, 1, 41, 0
3, 12360, Note_on_c, 1, 56, 57
3, 12362, Note_on_c, 1, 50, 0
3, 12422, Note_on_c, 1, 50, 51
3, 12427, Note_on_c, 1, 56, 0
3, 12478, Note_on_c, 1, 58, 57
3, 12489, Note_on_c, 1, 50, 0
3, 12538, Note_on_c, 1, 50, 61
3, 12544, Note_on_c, 1, 58, 0
3, 12596, Control_c, 1, 64, 0
3, 12600, Control_c, 1, 64, 127
3, 12601, Note_on_c, 1, 41, 63
3, 12603, Note_on_c, 1, 50, 0
3, 12661, Note_on_c, 1, 46, 59
3, 12669, Note_on_c, 1, 41, 0
3, 12724, Note_on_c, 1, 56, 61
3, 12728, Note_on_c, 1, 46, 0
3, 12778, Note_on_c, 1, 46, 61
3, 12788, Note_on_c, 1, 56, 0
3, 12844, Note_on_c, 1, 46, 0
3, 12845, Note_on_c, 1, 58, 67
3, 12898, Note_on_c, 1, 46, 67
3, 12912, Note_on_c, 1, 58, 0
3, 12958, Control_c, 1, 64, 0
3, 12959, Note_on_c, 1, 46, 0
3, 12962, Control_c, 1, 64, 127
3, 12964, Note_on_c, 1, 39, 79
3, 13016, Note_on_c, 1, 46, 67
3, 13022, Note_on_c, 1, 39, 0
3, 13078, Note_on_c, 1, 46, 0
3, 13078, Note_on_c, 1, 54, 73
3, 13137, Note_on_c, 1, 46, 78
3, 13148, Note_on_c, 1, 54, 0
3, 13200, Note_on_c, 1, 46, 0
3, 13202, Note_on_c, 1, 58, 80
3, 13261, Note_on_c, 1, 46, 77
3, 13271, Note_on_c, 1, 58, 0
3, 13315, Control_c, 1, 64, 0
3, 13317, Note_on_c, 1, 39, 86
3, 13319, Control_c, 1, 64, 127
3, 13327, Note_on_c, 1, 46, 0
3, 13380, Note_on_c, 1, 44, 82
3, 13382, Note_on_c, 1, 39, 0
3, 13437, Note_on_c, 1, 54, 86
3, 13443, Note_on_c, 1, 44, 0
3, 13502, Note_on_c, 1, 54, 0
3, 13505, Note_on_c, 1, 44, 88
3, 13560, Note_on_c, 1, 56, 87
3, 13569, Note_on_c, 1, 44, 0
3, 13617, Note_on_c, 1, 44, 89
3, 13622, Note_on_c, 1, 56, 0
3, 13674, Control_c, 1, 64, 0
3, 13678, Control_c, 1, 64, 127
3, 13681, Note_on_c, 1, 37, 99
3, 13682, Note_on_c, 1, 44, 0
3, 13737, Note_on_c, 1, 44, 93
3, 13743, Note_on_c, 1, 37, 0
3, 13797, Note_on_c, 1, 53, 90
3, 13805, Note_on_c, 1, 44, 0
3, 13859, Note_on_c, 1, 44, 91
3, 13861, Note_on_c, 1, 53, 0
3, 13923, Note_on_c, 1, 56, 91
3, 13931, Note_on_c, 1, 44, 0
3, 13982, Note_on_c, 1, 44, 91
3, 13988, Note_on_c, 1, 56, 0
3, 14040, Note_on_c, 1, 37, 97
3, 14050, Note_on_c, 1, 44, 0
3, 14103, Note_on_c, 1, 44, 92
3, 14113, Note_on_c, 1, 37, 0
3, 14164, Note_on_c, 1, 53, 89
3, 14170, Note_on_c, 1, 44, 0
3, 14221, Note_on_c, 1, 44, 86
3, 14233, Note_on_c, 1, 53, 0
3, 14285, Note_on_c, 1, 44, 0
3, 14286, Note_on_c, 1, 56, 88
3, 14340, Note_on_c, 1, 44, 89
3, 14346, Note_on_c, 1, 56, 0
3, 14395, Control_c, 1, 64, 0
3, 14396, Note_on_c, 1, 36, 111
3, 14399, Control_c, 1, 64, 127
3, 14404, Note_on_c, 1, 44, 0
3, 14463, Note_on_c, 1, 44, 92
3, 14464, Note_on_c, 1, 36, 0
3, 14517, Note_on_c, 1, 51, 89
3, 14532, Note_on_c, 1, 44, 0
3, 14579, Note_on_c, 1, 44, 93
3, 14582, Note_on_c, 1, 51, 0
3, 14641, Note_on_c, 1, 56, 87
3, 14643, Note_on_c, 1, 44, 0
3, 14701, Note_on_c, 1, 44, 92
3, 14710, Note_on_c, 1, 56, 0
3, 14760, Note_on_c, 1, 36, 95
3, 14768, Note_on_c, 1, 44, 0
3, 14822, Note_on_c, 1, 44, 94
3, 14824, Note_on_c, 1, 36, 0
3, 14875, Note_on_c, 1, 51, 87
3, 14889, Note_on_c, 1, 44, 0
3, 14946, Note_on_c, 1, 51, 0
3, 14946, Note_on_c, 1, 44, 90
3, 15001, Note_on_c, 1, 56, 94
3, 15009, Note_on_c, 1, 44, 0
3, 15062, Note_on_c, 1, 44, 93
3, 15073, Note_on_c, 1, 56, 0
3, 15114, Control_c, 1, 64, 0
3, 15117, Note_on_c, 1, 35, 67
3, 15118, Control_c, 1, 64, 127
3, 15121, Note_on_c, 1, 44, 0
3, 15177, Note_on_c, 1, 42, 47
3, 15180, Note_on_c, 1, 35, 0
3, 15241, Note_on_c, 1, 51, 54
3, 15244, Note_on_c, 1, 42, 0
3, 15302, Note_on_c, 1, 42, 53
3, 15305, Note_on_c, 1, 51, 0
3, 15361, Note_on_c, 1, 54, 54
3, 15373, Note_on_c, 1, 42, 0
3, 15416, Note_on_c, 1, 42, 53
3, 15425, Note_on_c, 1, 54, 0
3, 15476, Note_on_c, 1, 35, 58
3, 15481, Note_on_c, 1, 42, 0
3, 15538, Note_on_c, 1, 35, 0
3, 15540, Note_on_c, 1, 42, 51
3, 15600, Note_on_c, 1, 51, 47
3, 15611, Note_on_c, 1, 42, 0
3, 15658, Note_on_c, 1, 42, 51
3, 15667, Note_on_c, 1, 51, 0
3, 15715, Note_on_c, 1, 54, 48
3, 15719, Note_on_c, 1, 42, 0
3, 15779, Note_on_c, 1, 42, 48
3, 15780, Note_on_c, 1, 54, 0
3, 15834, Control_c, 1, 64, 0
3, 15835, Note_on_c, 1, 35, 60
3, 15838, Control_c, 1, 64, 127
3, 15843, Note_on_c, 1, 42, 0
3, 15895, Note_on_c, 1, 44, 53
3, 15897, Note_on_c, 1, 35, 0
3, 15964, Note_on_c, 1, 44, 0
3, 15965, Note_on_c, 1, 49, 47
3, 16020, Note_on_c, 1, 44, 52
3, 16035, Note_on_c, 1, 49, 0
3, 16082, Note_on_c, 1, 56, 50
3, 16086, Note_on_c, 1, 44, 0
3, 16142, Note_on_c, 1, 44, 46
3, 16153, Note_on_c, 1, 56, 0
3, 16196, Note_on_c, 1, 34, 58
3, 16196, Control_c, 1, 64, 0
3, 16200, Control_c, 1, 64, 127
3, 16207, Note_on_c, 1, 44, 0
3, 16258, Note_on_c, 1, 42, 55
3, 16265, Note_on_c, 1, 34, 0
3, 16321, Note_on_c, 1, 49, 50
3, 16327, Note_on_c, 1, 42, 0
3, 16384, Note_on_c, 1, 42, 52
3, 16392, Note_on_c, 1, 49, 0
3, 16437, Note_on_c, 1, 54, 57
3, 16452, Note_on_c, 1, 42, 0
3, 16500, Note_on_c, 1, 42, 57
3, 16505, Note_on_c, 1, 54, 0
3, 16555, Control_c, 1, 64, 0
3, 16561, Note_on_c, 1, 34, 73
3, 16564, Note_on_c, 1, 42, 0
3, 16616, Note_on_c, 1, 42, 57
3, 16630, Note_on_c, 1, 34, 0
3, 16675, Note_on_c, 1, 49, 63
3, 16680, Note_on_c, 1, 42, 0
3, 16739, Note_on_c, 1, 49, 0
3, 16746, Note_on_c, 1, 42, 66
3, 16805, Note_on_c, 1, 54, 60
3, 16812, Note_on_c, 1, 42, 0
3, 16857, Note_on_c, 1, 42, 66
3, 16870, Note_on_c, 1, 54, 0
3, 16919, Note_on_c, 1, 34, 72
3, 16923, Note_on_c, 1, 42, 0
3, 16980, Note_on_c, 1, 42, 64
3, 16989, Note_on_c, 1, 34, 0
3, 17040, Note_on_c, 1, 49, 65
3, 17042, Note_on_c, 1, 42, 0
3, 17099, Note_on_c, 1, 42, 68
3, 17110, Note_on_c, 1, 49, 0
3, 17161, Note_on_c, 1, 54, 73
3, 17171, Note_on_c, 1, 42, 0
3, 17219, Note_on_c, 1, 42, 76
3, 17227, Note_on_c, 1, 54, 0
3, 17281, Note_on_c, 1, 32, 88
3, 17282, Control_c, 1, 64, 127
3, 17285, Note_on_c, 1, 42, 0
3, 17336, Note_on_c, 1, 41, 74
3, 17345, Note_on_c, 1, 32, 0
3, 17399, Note_on_c, 1, 41, 0
3, 17405, Note_on_c, 1, 49, 80
3, 17454, Note_on_c, 1, 41, 76
3, 17466, Note_on_c, 1, 49, 0
3, 17517, Note_on_c, 1, 41, 0
3, 17519, Note_on_c, 1, 53, 80
3, 17581, Note_on_c, 1, 41, 78
3, 17585, Note_on_c, 1, 53, 0
3, 17635, Control_c, 1, 64, 0
3, 17639, Control_c, 1, 64, 127
3, 17642, Note_on_c, 1, 32, 83
3, 17649, Note_on_c, 1, 41, 0
3, 17702, Note_on_c, 1, 40, 87
3, 17704, Note_on_c, 1, 32, 0
3, 17757, Note_on_c, 1, 49, 82
3, 17764, Note_on_c, 1, 40, 0
3, 17822, Note_on_c, 1, 40, 82
3, 17827, Note_on_c, 1, 49, 0
3, 17881, Note_on_c, 1, 52, 89
3, 17882, Note_on_c, 1, 40, 0
3, 17937, Note_on_c, 1, 40, 85
3, 17944, Note_on_c, 1, 52, 0
3, 17997, Note_on_c, 1, 40, 0
3, 17998, Control_c, 1, 64, 0
3, 18002, Control_c, 1, 64, 127
3, 18003, Note_on_c, 1, 31, 99
3, 18065, Note_on_c, 1, 40, 86
3, 18067, Note_on_c, 1, 31, 0
3, 18120, Note_on_c, 1, 49, 90
3, 18127, Note_on_c, 1, 40, 0
3, 18183, Note_on_c, 1, 40, 92
3, 18185, Note_on_c, 1, 49, 0
3, 18242, Note_on_c, 1, 52, 91
3, 18248, Note_on_c, 1, 40, 0
3, 18301, Note_on_c, 1, 40, 91
3, 18308, Note_on_c, 1, 52, 0
3, 18356, Note_on_c, 1, 34, 96
3, 18365, Note_on_c, 1, 40, 0
3, 18421, Note_on_c, 1, 43, 89
3, 18423, Note_on_c, 1, 34, 0
3, 18482, Note_on_c, 1, 52, 94
3, 18490, Note_on_c, 1, 43, 0
3, 18537, Note_on_c, 1, 43, 97
3, 18550, Note_on_c, 1, 52, 0
3, 18602, Note_on_c, 1, 43, 0
3, 18602, Note_on_c, 1, 55, 94
3, 18661, Note_on_c, 1, 43, 97
3, 18668, Note_on_c, 1, 55, 0
3, 18718, Control_c, 1, 64, 0
3, 18721, Note_on_c, 1, 35, 112
3, 18722, Control_c, 1, 64, 127
3, 18726, Note_on_c, 1, 43, 0
3, 18776, Note_on_c, 1, 43, 97
3, 18789, Note_on_c, 1, 35, 0
3, 18840, Note_on_c, 1, 52, 98
3, 18842, Note_on_c, 1, 43, 0
3, 18900, Note_on_c, 1, 43, 94
3, 18906, Note_on_c, 1, 52, 0
3, 18961, Note_on_c, 1, 55, 98
3, 18969, Note_on_c, 1, 43, 0
3, 19022, Note_on_c, 1, 43, 97
3, 19025, Note_on_c, 1, 55, 0
3, 19075, Control_c, 1, 64, 0
3, 19077, Note_on_c, 1, 36, 103
3, 19079, Control_c, 1, 64, 127
3, 19090, Note_on_c, 1, 43, 0
3, 19138, Note_on_c, 1, 43, 103
3, 19148, Note_on_c, 1, 36, 0
3, 19203, Note_on_c, 1, 52, 101
3, 19207, Note_on_c, 1, 43, 0
3, 19260, Note_on_c, 1, 43, 97
3, 19267, Note_on_c, 1, 52, 0
3, 19320, Note_on_c, 1, 55, 103
3, 19323, Note_on_c, 1, 43, 0
3, 19379, Note_on_c, 1, 43, 104
3, 19383, Note_on_c, 1, 55, 0
3, 19434, Control_c, 1, 64, 0
3, 19442, Note_on_c, 1, 40, 119
3, 19444, Note_on_c, 1, 43, 0
3, 19506, Note_on_c, 1, 49, 106
3, 19514, Note_on_c, 1, 40, 0
3, 19556, Note_on_c, 1, 58, 107
3, 19565, Note_on_c, 1, 49, 0
3, 19619, Note_on_c, 1, 58, 0
3, 19620, Note_on_c, 1, 49, 103
3, 19680, Note_on_c, 1, 43, 108
3, 19686, Note_on_c, 1, 49, 0
3, 19745, Note_on_c, 1, 52, 107
3, 19750, Note_on_c, 1, 43, 0
3, 19798, Note_on_c, 1, 61, 112
3, 19814, Note_on_c, 1, 52, 0
3, 19863, Note_on_c, 1, 52, 110
3, 19865, Note_on_c, 1, 61, 0
3, 19920, Note_on_c, 1, 46, 109
3, 19930, Note_on_c, 1, 52, 0
3, 19981, Note_on_c, 1, 46, 0
3, 19984, Note_on_c, 1, 55, 111
3, 20041, Note_on_c, 1, 64, 112
3, 20048, Note_on_c, 1, 55, 0
3, 20097, Note_on_c, 1, 55, 113
3, 20105, Note_on_c, 1, 64, 0
3, 20162, Note_on_c, 1, 55, 0
3, 20165, Note_on_c, 1, 49, 117
3, 20217, Note_on_c, 1, 58, 109
3, 20224, Note_on_c, 1, 49, 0
3, 20279, Note_on_c, 1, 58, 0
3, 20280, Note_on_c, 1, 67, 106
3, 20336, Note_on_c, 1, 58, 109
3, 20345, Note_on_c, 1, 67, 0
3, 20399, Note_on_c, 1, 52, 113
3, 20408, Note_on_c, 1, 58, 0
3, 20460, Note_on_c, 1, 61, 109
3, 20467, Note_on_c, 1, 52, 0
3, 20518, Note_on_c, 1, 70, 110
3, 20524, Note_on_c, 1, 61, 0
3, 20582, Note_on_c, 1, 70, 0
3, 20584, Note_on_c, 1, 61, 102
3, 20638, Note_on_c, 1, 70, 104
3, 20651, Note_on_c, 1, 61, 0
3, 20698, Note_on_c, 1, 61, 102
3, 20707, Note_on_c, 1, 70, 0
3, 20759, Note_on_c, 1, 70, 93
3, 20766, Note_on_c, 1, 61, 0
3, 20818, Note_on_c, 1, 61, 90
3, 20826, Note_on_c, 1, 70, 0
3, 20882, Note_on_c, 1, 61, 0
3, 20882, Control_c, 1, 64, 127
3, 20886, Note_on_c, 1, 48, 97
3, 20946, Note_on_c, 1, 56, 92
3, 20954, Note_on_c, 1, 48, 0
3, 21001, Note_on_c, 1, 65, 93
3, 21009, Note_on_c, 1, 56, 0
3, 21057, Note_on_c, 1, 56, 87
3, 21070, Note_on_c, 1, 65, 0
3, 21120, Note_on_c, 1, 68, 87
3, 21129, Note_on_c, 1, 56, 0
3, 21183, Note_on_c, 1, 68, 0
3, 21184, Note_on_c, 1, 56, 86
3, 21238, Control_c, 1, 64, 0
3, 21241, Note_on_c, 1, 48, 93
3, 21242, Control_c, 1, 64, 127
3, 21256, Note_on_c, 1, 56, 0
3, 21301, Note_on_c, 1, 55, 86
3, 21306, Note_on_c, 1, 48, 0
3, 21358, Note_on_c, 1, 64, 94
3, 21373, Note_on_c, 1, 55, 0
3, 21417, Note_on_c, 1, 55, 91
3, 21433, Note_on_c, 1, 64, 0
3, 21478, Note_on_c, 1, 67, 86
3, 21481, Note_on_c, 1, 55, 0
3, 21541, Note_on_c, 1, 55, 94
3, 21542, Note_on_c, 1, 67, 0
3, 21596, Control_c, 1, 64, 0
3, 21599, Note_on_c, 1, 48, 64
3, 21600, Control_c, 1, 64, 127
3, 21612, Note_on_c, 1, 55, 0
3, 21664, Note_on_c, 1, 56, 49
3, 21667, Note_on_c, 1, 48, 0
3, 21718, Note_on_c, 1, 65, 46
3, 21726, Note_on_c, 1, 56, 0
3, 21779, Note_on_c, 1, 65, 0
3, 21780, Note_on_c, 1, 56, 48
3, 21842, Note_on_c, 1, 68, 49
3, 21849, Note_on_c, 1, 56, 0
3, 21903, Note_on_c, 1, 56, 51
3, 21911, Note_on_c, 1, 68, 0
3, 21956, Control_c, 1, 64, 0
3, 21960, Control_c, 1, 64, 127
3, 21961, Note_on_c, 1, 48, 57
3, 21970, Note_on_c, 1, 56, 0
3, 22017, Note_on_c, 1, 55, 46
3, 22029, Note_on_c, 1, 48, 0
3, 22082, Note_on_c, 1, 55, 0
3, 22085, Note_on_c, 1, 64, 53
3, 22143, Note_on_c, 1, 55, 47
3, 22152, Note_on_c, 1, 64, 0
3, 22195, Note_on_c, 1, 67, 51
3, 22210, Note_on_c, 1, 55, 0
3, 22263, Note_on_c, 1, 67, 0
3, 22265, Note_on_c, 1, 55, 50
3, 22315, Control_c, 1, 64, 0
3, 22316, Note_on_c, 1, 48, 107
3, 22319, Control_c, 1, 64, 127
3, 22324, Note_on_c, 1, 55, 0
3, 22380, Note_on_c, 1, 53, 90
3, 22382, Note_on_c, 1, 48, 0
3, 22435, Note_on_c, 1, 61, 87
3, 22446, Note_on_c, 1, 53, 0
3, 22502, Note_on_c, 1, 53, 88
3, 22503, Note_on_c, 1, 61, 0
3, 22562, Note_on_c, 1, 65, 93
3, 22571, Note_on_c, 1, 53, 0
3, 22620, Note_on_c, 1, 53, 89
3, 22624, Note_on_c, 1, 65, 0
3, 22678, Control_c, 1, 64, 0
3, 22682, Control_c, 1, 64, 127
3, 22685, Note_on_c, 1, 48, 94
3, 22686, Note_on_c, 1, 53, 0
3, 22744, Note_on_c, 1, 55, 91
3, 22747, Note_on_c, 1, 48, 0
3, 22803, Note_on_c, 1, 64, 86
3, 22809, Note_on_c, 1, 55, 0
3, 22862, Note_on_c, 1, 55, 94
3, 22870, Note_on_c, 1, 64, 0
3, 22922, Note_on_c, 1, 67, 92
3, 22930, Note_on_c, 1, 55, 0
3, 22983, Note_on_c, 1, 55, 87
3, 22987, Note_on_c, 1, 67, 0
3, 23034, Note_on_c, 1, 48, 58
3, 23034, Control_c, 1, 64, 0
3, 23038, Control_c, 1, 64, 127
3, 23045, Note_on_c, 1, 55, 0
3, 23095, Note_on_c, 1, 53, 52
3, 23102, Note_on_c, 1, 48, 0
3, 23161, Note_on_c, 1, 53, 0
3, 23164, Note_on_c, 1, 61, 54
3, 23221, Note_on_c, 1, 53, 52
3, 23224, Note_on_c, 1, 61, 0
3, 23282, Note_on_c, 1, 65, 51
3, 23293, Note_on_c, 1, 53, 0
3, 23340, Note_on_c, 1, 53, 51
3, 23348, Note_on_c, 1, 65, 0
3, 23398, Control_c, 1, 64, 0
3, 23402, Control_c, 1, 64, 127
3, 23403, Note_on_c, 1, 48, 58
3, 23410, Note_on_c, 1, 53, 0
3, 23461, Note_on_c, 1, 55, 52
3, 23466, Note_on_c, 1, 48, 0
3, 23517, Note_on_c, 1, 64, 48
3, 23527, Note_on_c, 1, 55, 0
3, 23583, Note_on_c, 1, 64, 0
3, 23583, Note_on_c, 1, 55, 51
3, 23646, Note_on_c, 1, 67, 48
3, 23653, Note_on_c, 1, 55, 0
3, 23698, Note_on_c, 1, 55, 50
3, 23712, Note_on_c, 1, 67, 0
3, 23755, Control_c, 1, 64, 0
3, 23759, Control_c, 1, 64, 127
3, 23762, Note_on_c, 1, 48, 105
3, 23764, Note_on_c, 1, 55, 0
3, 23826, Note_on_c, 1, 56, 88
3, 23830, Note_on_c, 1, 48, 0
3, 23880, Note_on_c, 1, 65, 90
3, 23891, Note_on_c, 1, 56, 0
3, 23938, Note_on_c, 1, 56, 90
3, 23947, Note_on_c, 1, 65, 0
3, 24002, Note_on_c, 1, 56, 0
3, 24004, Note_on_c, 1, 68, 94
3, 24061, Note_on_c, 1, 56, 92
3, 24064, Note_on_c, 1, 68, 0
3, 24118, Control_c, 1, 64, 0
3, 24122, Control_c, 1, 64, 127
3, 24125, Note_on_c, 1, 48, 96
3, 24131, Note_on_c, 1, 56, 0
3, 24184, Note_on_c, 1, 55, 91
3, 24191, Note_on_c, 1, 48, 0
3, 24236, Note_on_c, 1, 64, 90
3, 24251, Note_on_c, 1, 55, 0
3, 24295, Note_on_c, 1, 55, 93
3, 24301, Note_on_c, 1, 64, 0
3, 24357, Note_on_c, 1, 67, 92
3, 24361, Note_on_c, 1, 55, 0
3, 24418, Note_on_c, 1, 55, 94
3, 24423, Note_on_c, 1, 67, 0
3, 24477, Note_on_c, 1, 48, 60
3, 24477, Control_c, 1, 64, 0
3, 24481, Control_c, 1, 64, 127
3, 24482, Note_on_c, 1, 55, 0
3, 24538, Note_on_c, 1, 48, 0
3, 24542, Note_on_c, 1, 56, 51
3, 24598, Note_on_c, 1, 65, 54
3, 24606, Note_on_c, 1, 56, 0
3, 24661, Note_on_c, 1, 56, 51
3, 24665, Note_on_c, 1, 65, 0
3, 24718, Note_on_c, 1, 68, 54
3, 24723, Note_on_c, 1, 56, 0
3, 24775, Note_on_c, 1, 56, 50
3, 24784, Note_on_c, 1, 68, 0
3, 24838, Control_c, 1, 64, 0
3, 24839, Note_on_c, 1, 48, 54
3, 24842, Control_c, 1, 64, 127
3, 24844, Note_on_c, 1, 56, 0
3, 24904, Note_on_c, 1, 55, 50
3, 24908, Note_on_c, 1, 48, 0
3, 24963, Note_on_c, 1, 64, 54
3, 24971, Note_on_c, 1, 55, 0
3, 25018, Note_on_c, 1, 55, 54
3, 25028, Note_on_c, 1, 64, 0
3, 25079, Note_on_c, 1, 67, 47
3, 25086, Note_on_c, 1, 55, 0
3, 25139, Note_on_c, 1, 55, 48
3, 25142, Note_on_c, 1, 67, 0
3, 25196, Control_c, 1, 64, 0
3, 25200, Control_c, 1, 64, 127
3, 25202, Note_on_c, 1, 48, 100
3, 25205, Note_on_c, 1, 55, 0
3, 25260, Note_on_c, 1, 53, 92
3, 25269, Note_on_c, 1, 48, 0
3, 25319, Note_on_c, 1, 61, 94
3, 25328, Note_on_c, 1, 53, 0
3, 25385, Note_on_c, 1, 53, 91
3, 25387, Note_on_c, 1, 61, 0
3, 25441, Note_on_c, 1, 65, 86
3, 25444, Note_on_c, 1, 53, 0
3, 25495, Note_on_c, 1, 53, 91
3, 25505, Note_on_c, 1, 65, 0
3, 25557, Control_c, 1, 64, 0
3, 25560, Note_on_c, 1, 53, 0
3, 25561, Control_c, 1, 64, 127
3, 25563, Note_on_c, 1, 48, 90
3, 25616, Note_on_c, 1, 55, 91
3, 25630, Note_on_c, 1, 48, 0
3, 25675, Note_on_c, 1, 55, 0
3, 25679, Note_on_c, 1, 64, 90
3, 25738, Note_on_c, 1, 55, 90
3, 25746, Note_on_c, 1, 64, 0
3, 25796, Note_on_c, 1, 67, 86
3, 25800, Note_on_c, 1, 55, 0
3, 25860, Note_on_c, 1, 55, 94
3, 25862, Note_on_c, 1, 67, 0
3, 25915, Control_c, 1, 64, 0
3, 25916, Note_on_c, 1, 48, 60
3, 25919, Control_c, 1, 64, 127
3, 25925, Note_on_c, 1, 55, 0
3, 25985, Note_on_c, 1, 53, 51
3, 25986, Note_on_c, 1, 48, 0
3, 26044, Note_on_c, 1, 61, 46
3, 26054, Note_on_c, 1, 53, 0
3, 26103, Note_on_c, 1, 53, 47
3, 26112, Note_on_c, 1, 61, 0
3, 26155, Note_on_c, 1, 65, 51
3, 26167, Note_on_c, 1, 53, 0
3, 26214, Note_on_c, 1, 65, 0
3, 26220, Note_on_c, 1, 53, 48
3, 26276, Control_c, 1, 64, 0
3, 26280, Control_c, 1, 64, 127
3, 26281, Note_on_c, 1, 53, 0
3, 26281, Note_on_c, 1, 48, 52
3, 26337, Note_on_c, 1, 55, 51
3, 26351, Note_on_c, 1, 48, 0
3, 26400, Note_on_c, 1, 64, 49
3, 26402, Note_on_c, 1, 55, 0
3, 26457, Note_on_c, 1, 55, 49
3, 26466, Note_on_c, 1, 64, 0
3, 26524, Note_on_c, 1, 55, 0
3, 26524, Note_on_c, 1, 67, 47
3, 26585, Note_on_c, 1, 55, 52
3, 26595, Note_on_c, 1, 67, 0
3, 26638, Control_c, 1, 64, 0
3, 26644, Note_on_c, 1, 41, 60
3, 26654, Note_on_c, 1, 55, 0
3, 26699, Note_on_c, 1, 48, 50
3, 26711, Note_on_c, 1, 41, 0
3, 26759, Note_on_c, 1, 56, 50
3, 26762, Note_on_c, 1, 48, 0
3, 26814, Note_on_c, 1, 48, 53
3, 26827, Note_on_c, 1, 56, 0
3, 26879, Note_on_c, 1, 48, 0
3, 26882, Note_on_c, 1, 58, 49
3, 26944, Note_on_c, 1, 48, 46
3, 26951, Note_on_c, 1, 58, 0
3, 26999, Note_on_c, 1, 41, 53
3, 27009, Note_on_c, 1, 48, 0
3, 27060, Note_on_c, 1, 48, 49
3, 27067, Note_on_c, 1, 41, 0
3, 27124, Note_on_c, 1, 60, 47
3, 27129, Note_on_c, 1, 48, 0
3, 27178, Note_on_c, 1, 48, 53
3, 27186, Note_on_c, 1, 60, 0
3, 27237, Note_on_c, 1, 48, 0
3, 27243, Note_on_c, 1, 61, 52
3, 27302, Note_on_c, 1, 48, 54
3, 27314, Note_on_c, 1, 61, 0
3, 27358, Note_on_c, 1, 41, 64
3, 27371, Note_on_c, 1, 48, 0
3, 27418, Note_on_c, 1, 48, 51
3, 27424, Note_on_c, 1, 41, 0
3, 27476, Note_on_c, 1, 60, 51
3, 27478, Note_on_c, 1, 48, 0
3, 27539, Note_on_c, 1, 60, 0
3, 27540, Note_on_c, 1, 48, 53
3, 27601, Note_on_c, 1, 58, 54
3, 27603, Note_on_c, 1, 48, 0
3, 27662, Note_on_c, 1, 48, 57
3, 27666, Note_on_c, 1, 58, 0
3, 27718, Note_on_c, 1, 41, 58
3, 27729, Note_on_c, 1, 48, 0
3, 27778, Note_on_c, 1, 48, 54
3, 27781, Note_on_c, 1, 41, 0
3, 27841, Note_on_c, 1, 56, 53
3, 27845, Note_on_c, 1, 48, 0
3, 27900, Note_on_c, 1, 48, 60
3, 27909, Note_on_c, 1, 56, 0
3, 27954, Note_on_c, 1, 58, 60
3, 27965, Note_on_c, 1, 48, 0
3, 28018, Note_on_c, 1, 58, 0
3, 28019, Note_on_c, 1, 48, 58
3, 28078, Note_on_c, 1, 41, 69
3, 28089, Note_on_c, 1, 48, 0
3, 28142, Note_on_c, 1, 48, 63
3, 28146, Note_on_c, 1, 41, 0
3, 28199, Note_on_c, 1, 56, 62
3, 28210, Note_on_c, 1, 48, 0
3, 28257, Note_on_c, 1, 48, 56
3, 28262, Note_on_c, 1, 56, 0
3, 28322, Note_on_c, 1, 48, 0
3, 28324, Note_on_c, 1, 58, 59
3, 28381, Note_on_c, 1, 48, 64
3, 28394, Note_on_c, 1, 58, 0
3, 28436, Note_on_c, 1, 41, 60
3, 28447, Note_on_c, 1, 48, 0
3, 28498, Note_on_c, 1, 48, 57
3, 28502, Note_on_c, 1, 41, 0
3, 28560, Note_on_c, 1, 56, 57
3, 28565, Note_on_c, 1, 48, 0
3, 28617, Note_on_c, 1, 48, 57
3, 28631, Note_on_c, 1, 56, 0
3, 28683, Note_on_c, 1, 60, 61
3, 28688, Note_on_c, 1, 48, 0
3, 28745, Note_on_c, 1, 48, 57
3, 28753, Note_on_c, 1, 60, 0
3, 28805, Note_on_c, 1, 41, 69
3, 28810, Note_on_c, 1, 48, 0
3, 28855, Note_on_c, 1, 48, 61
3, 28865, Note_on_c, 1, 41, 0
3, 28918, Note_on_c, 1, 55, 62
3, 28920, Note_on_c, 1, 48, 0
3, 28982, Note_on_c, 1, 48, 62
3, 28992, Note_on_c, 1, 55, 0
3, 29038, Note_on_c, 1, 56, 64
3, 29051, Note_on_c, 1, 48, 0
3, 29094, Note_on_c, 1, 48, 62
3, 29105, Note_on_c, 1, 56, 0
3, 29154, Note_on_c, 1, 48, 0
3, 29162, Note_on_c, 1, 41, 62
3, 29225, Note_on_c, 1, 48, 63
3, 29234, Note_on_c, 1, 41, 0
3, 29280, Note_on_c, 1, 58, 59
3, 29287, Note_on_c, 1, 48, 0
3, 29337, Note_on_c, 1, 48, 64
3, 29347, Note_on_c, 1, 58, 0
3, 29397, Note_on_c, 1, 55, 62
3, 29399, Note_on_c, 1, 48, 0
3, 29461, Note_on_c, 1, 48, 57
3, 29468, Note_on_c, 1, 55, 0
3, 29522, Note_on_c, 1, 41, 70
3, 29529, Note_on_c, 1, 48, 0
3, 29579, Note_on_c, 1, 48, 59
3, 29589, Note_on_c, 1, 41, 0
3, 29639, Note_on_c, 1, 56, 57
3, 29645, Note_on_c, 1, 48, 0
3, 29701, Note_on_c, 1, 56, 0
3, 29701, Note_on_c, 1, 48, 61
3, 29762, Note_on_c, 1, 58, 57
3, 29769, Note_on_c, 1, 48, 0
3, 29817, Note_on_c, 1, 48, 64
3, 29828, Note_on_c, 1, 58, 0
3, 29876, Note_on_c, 1, 41, 61
3, 29883, Note_on_c, 1, 48, 0
3, 29939, Note_on_c, 1, 48, 59
3, 29940, Note_on_c, 1, 41, 0
3, 29998, Note_on_c, 1, 60, 58
3, 30009, Note_on_c, 1, 48, 0
3, 30058, Note_on_c, 1, 48, 57
3, 30062, Note_on_c, 1, 60, 0
3, 30117, Note_on_c, 1, 61, 57
3, 30132, Note_on_c, 1, 48, 0
3, 30175, Note_on_c, 1, 48, 56
3, 30184, Note_on_c, 1, 61, 0
3, 30237, Note_on_c, 1, 41, 75
3, 30242, Note_on_c, 1, 48, 0
3, 30297, Note_on_c, 1, 48, 62
3, 30299, Note_on_c, 1, 41, 0
3, 30364, Note_on_c, 1, 48, 0
3, 30364, Note_on_c, 1, 60, 63
3, 30416, Note_on_c, 1, 48, 56
3, 30425, Note_on_c, 1, 60, 0
3, 30478, Note_on_c, 1, 58, 60
3, 30482, Note_on_c, 1, 48, 0
3, 30538, Note_on_c, 1, 48, 59
3, 30545, Note_on_c, 1, 58, 0
3, 30603, Note_on_c, 1, 48, 0
3, 30603, Note_on_c, 1, 41, 67
3, 30665, Note_on_c, 1, 48, 60
3, 30669, Note_on_c, 1, 41, 0
3, 30719, Note_on_c, 1, 56, 60
3, 30731, Note_on_c, 1, 48, 0
3, 30784, Note_on_c, 1, 56, 0
3, 30784, Note_on_c, 1, 48, 62
3, 30841, Note_on_c, 1, 60, 58
3, 30846, Note_on_c, 1, 48, 0
3, 30903, Note_on_c, 1, 48, 61
3, 30907, Note_on_c, 1, 60, 0
3, 30955, Note_on_c, 1, 41, 64
3, 30966, Note_on_c, 1, 48, 0
3, 31024, Note_on_c, 1, 41, 0
3, 31025, Note_on_c, 1, 48, 64
3, 31084, Note_on_c, 1, 58, 64
3, 31089, Note_on_c, 1, 48, 0
3, 31139, Note_on_c, 1, 48, 63
3, 31153, Note_on_c, 1, 58, 0
3, 31194, Note_on_c, 1, 55, 56
3, 31207, Note_on_c, 1, 48, 0
3, 31254, Note_on_c, 1, 55, 0
3, 31257, Note_on_c, 1, 48, 60
3, 31323, Note_on_c, 1, 41, 65
3, 31328, Note_on_c, 1, 48, 0
3, 31380, Note_on_c, 1, 48, 62
3, 31385, Note_on_c, 1, 41, 0
3, 31441, Note_on_c, 1, 58, 62
3, 31444, Note_on_c, 1, 48, 0
3, 31506, Note_on_c, 1, 48, 58
3, 31509, Note_on_c, 1, 58, 0
3, 31556, Note_on_c, 1, 55, 64
3, 31571, Note_on_c, 1, 48, 0
3, 31622, Note_on_c, 1, 55, 0
3, 31625, Note_on_c, 1, 48, 63
3, 31684, Note_on_c, 1, 41, 71
3, 31689, Note_on_c, 1, 48, 0
3, 31737, Note_on_c, 1, 47, 63
3, 31746, Note_on_c, 1, 41, 0
3, 31802, Note_on_c, 1, 56, 61
3, 31805, Note_on_c, 1, 47, 0
3, 31858, Note_on_c, 1, 47, 65
3, 31871, Note_on_c, 1, 56, 0
3, 31921, Note_on_c, 1, 61, 68
3, 31926, Note_on_c, 1, 47, 0
3, 31974, Note_on_c, 1, 47, 67
3, 31985, Note_on_c, 1, 61, 0
3, 32035, Note_on_c, 1, 41, 65
3, 32037, Note_on_c, 1, 47, 0
3, 32098, Note_on_c, 1, 41, 0
3, 32098, Note_on_c, 1, 47, 67
3, 32160, Note_on_c, 1, 47, 0
3, 32163, Note_on_c, 1, 56, 65
3, 32217, Note_on_c, 1, 47, 69
3, 32232, Note_on_c, 1, 56, 0
3, 32280, Note_on_c, 1, 47, 0
3, 32285, Note_on_c, 1, 61, 68
3, 32336, Note_on_c, 1, 47, 68
3, 32346, Note_on_c, 1, 61, 0
3, 32396, Note_on_c, 1, 41, 76
3, 32397, Note_on_c, 1, 47, 0
3, 32457, Note_on_c, 1, 48, 64
3, 32460, Note_on_c, 1, 41, 0
3, 32519, Note_on_c, 1, 56, 65
3, 32521, Note_on_c, 1, 48, 0
3, 32578, Note_on_c, 1, 48, 61
3, 32584, Note_on_c, 1, 56, 0
3, 32645, Note_on_c, 1, 58, 66
3, 32647, Note_on_c, 1, 48, 0
3, 32695, Note_on_c, 1, 48, 61
3, 32709, Note_on_c, 1, 58, 0
3, 32759, Note_on_c, 1, 48, 0
3, 32759, Note_on_c, 1, 41, 71
3, 32819, Note_on_c, 1, 48, 67
3, 32830, Note_on_c, 1, 41, 0
3, 32880, Note_on_c, 1, 60, 62
3, 32887, Note_on_c, 1, 48, 0
3, 32943, Note_on_c, 1, 48, 62
3, 32950, Note_on_c, 1, 60, 0
3, 33004, Note_on_c, 1, 61, 61
3, 33009, Note_on_c, 1, 48, 0
3, 33062, Note_on_c, 1, 48, 67
3, 33065, Note_on_c, 1, 61, 0
3, 33122, Note_on_c, 1, 41, 74
3, 33129, Note_on_c, 1, 48, 0
3, 33179, Note_on_c, 1, 48, 64
3, 33181, Note_on_c, 1, 41, 0
3, 33243, Note_on_c, 1, 60, 67
3, 33244, Note_on_c, 1, 48, 0
3, 33298, Note_on_c, 1, 48, 68
3, 33310, Note_on_c, 1, 60, 0
3, 33358, Note_on_c, 1, 58, 65
3, 33362, Note_on_c, 1, 48, 0
3, 33417, Note_on_c, 1, 48, 71
3, 33424, Note_on_c, 1, 58, 0
3, 33482, Note_on_c, 1, 48, 0
3, 33482, Note_on_c, 1, 41, 73
3, 33544, Note_on_c, 1, 48, 67
3, 33547, Note_on_c, 1, 41, 0
3, 33601, Note_on_c, 1, 56, 70
3, 33610, Note_on_c, 1, 48, 0
3, 33656, Note_on_c, 1, 48, 73
3, 33661, Note_on_c, 1, 56, 0
3, 33719, Note_on_c, 1, 48, 0
3, 33723, Note_on_c, 1, 58, 66
3, 33778, Note_on_c, 1, 48, 66
3, 33789, Note_on_c, 1, 58, 0
3, 33839, Note_on_c, 1, 41, 80
3, 33845, Note_on_c, 1, 48, 0
3, 33898, Note_on_c, 1, 48, 67
3, 33905, Note_on_c, 1, 41, 0
3, 33956, Note_on_c, 1, 56, 74
3, 33967, Note_on_c, 1, 48, 0
3, 34019, Note_on_c, 1, 48, 68
3, 34024, Note_on_c, 1, 56, 0
3, 34077, Note_on_c, 1, 58, 69
3, 34086, Note_on_c, 1, 48, 0
3, 34137, Note_on_c, 1, 48, 71
3, 34141, Note_on_c, 1, 58, 0
3, 34197, Note_on_c, 1, 41, 66
3, 34206, Note_on_c, 1, 48, 0
3, 34262, Note_on_c, 1, 48, 68
3, 34266, Note_on_c, 1, 41, 0
3, 34324, Note_on_c, 1, 56, 63
3, 34325, Note_on_c, 1, 48, 0
3, 34378, Note_on_c, 1, 48, 69
3, 34384, Note_on_c, 1, 56, 0
3, 34435, Note_on_c, 1, 60, 63
3, 34440, Note_on_c, 1, 48, 0
3, 34499, Note_on_c, 1, 60, 0
3, 34499, Note_on_c, 1, 48, 63
3, 34556, Note_on_c, 1, 41, 90
3, 34568, Note_on_c, 1, 48, 0
3, 34618, Note_on_c, 1, 48, 63
3, 34622, Note_on_c, 1, 41, 0
3, 34684, Note_on_c, 1, 55, 68
3, 34688, Note_on_c, 1, 48, 0
3, 34738, Note_on_c, 1, 48, 68
3, 34750, Note_on_c, 1, 55, 0
3, 34796, Note_on_c, 1, 56, 68
3, 34805, Note_on_c, 1, 48, 0
3, 34859, Note_on_c, 1, 48, 68
3, 34863, Note_on_c, 1, 56, 0
3, 34924, Note_on_c, 1, 41, 70
3, 34932, Note_on_c, 1, 48, 0
3, 34974, Note_on_c, 1, 48, 61
3, 34986, Note_on_c, 1, 41, 0
3, 35039, Note_on_c, 1, 58, 62
3, 35042, Note_on_c, 1, 48, 0
3, 35098, Note_on_c, 1, 48, 62
3, 35110, Note_on_c, 1, 58, 0
3, 35159, Note_on_c, 1, 55, 64
3, 35163, Note_on_c, 1, 48, 0
3, 35215, Note_on_c, 1, 48, 65
3, 35222, Note_on_c, 1, 55, 0
3, 35275, Note_on_c, 1, 48, 0
3, 35281, Control_c, 1, 64, 127
3, 35284, Note_on_c, 1, 41, 75
3, 35338, Note_on_c, 1, 48, 69
3, 35351, Note_on_c, 1, 41, 0
3, 35402, Note_on_c, 1, 57, 66
3, 35405, Note_on_c, 1, 48, 0
3, 35463, Note_on_c, 1, 48, 65
3, 35470, Note_on_c, 1, 57, 0
3, 35523, Note_on_c, 1, 58, 69
3, 35527, Note_on_c, 1, 48, 0
3, 35579, Note_on_c, 1, 48, 65
3, 35585, Note_on_c, 1, 58, 0
3, 35635, Control_c, 1, 64, 0
3, 35638, Note_on_c, 1, 41, 72
3, 35639, Control_c, 1, 64, 127
3, 35643, Note_on_c, 1, 48, 0
3, 35698, Note_on_c, 1, 48, 70
3, 35701, Note_on_c, 1, 41, 0
3, 35755, Note_on_c, 1, 60, 70
3, 35762, Note_on_c, 1, 48, 0
3, 35821, Note_on_c, 1, 48, 69
3, 35823, Note_on_c, 1, 60, 0
3, 35882, Note_on_c, 1, 61, 69
3, 35890, Note_on_c, 1, 48, 0
3, 35942, Note_on_c, 1, 48, 63
3, 35950, Note_on_c, 1, 61, 0
3, 35994, Control_c, 1, 64, 0
3, 35996, Note_on_c, 1, 41, 79
3, 35998, Control_c, 1, 64, 127
3, 36008, Note_on_c, 1, 48, 0
3, 36059, Note_on_c, 1, 54, 65
3, 36060, Note_on_c, 1, 41, 0
3, 36122, Note_on_c, 1, 63, 64
3, 36133, Note_on_c, 1, 54, 0
3, 36184, Note_on_c, 1, 63, 0
3, 36184, Note_on_c, 1, 54, 71
3, 36242, Note_on_c, 1, 65, 69
3, 36247, Note_on_c, 1, 54, 0
3, 36296, Note_on_c, 1, 54, 69
3, 36304, Note_on_c, 1, 65, 0
3, 36358, Note_on_c, 1, 41, 68
3, 36358, Control_c, 1, 64, 0
3, 36360, Note_on_c, 1, 54, 0
3, 36362, Control_c, 1, 64, 127
3, 36419, Note_on_c, 1, 54, 69
3, 36425, Note_on_c, 1, 41, 0
3, 36478, Note_on_c, 1, 66, 71
3, 36481, Note_on_c, 1, 54, 0
3, 36541, Note_on_c, 1, 54, 70
3, 36545, Note_on_c, 1, 66, 0
3, 36599, Note_on_c, 1, 66, 71
3, 36610, Note_on_c, 1, 54, 0
3, 36656, Note_on_c, 1, 54, 66
3, 36668, Note_on_c, 1, 66, 0
3, 36714, Control_c, 1, 64, 0
3, 36718, Control_c, 1, 64, 127
3, 36719, Note_on_c, 1, 54, 0
3, 36719, Note_on_c, 1, 41, 84
3, 36778, Note_on_c, 1, 50, 68
3, 36784, Note_on_c, 1, 41, 0
3, 36837, Note_on_c, 1, 56, 70
3, 36849, Note_on_c, 1, 50, 0
3, 36897, Note_on_c, 1, 50, 73
3, 36899, Note_on_c, 1, 56, 0
3, 36962, Note_on_c, 1, 57, 73
3, 36965, Note_on_c, 1, 50, 0
3, 37022, Note_on_c, 1, 50, 66
3, 37027, Note_on_c, 1, 57, 0
3, 37074, Control_c, 1, 64, 0
3, 37078, Control_c, 1, 64, 127
3, 37078, Note_on_c, 1, 41, 76
3, 37087, Note_on_c, 1, 50, 0
3, 37140, Note_on_c, 1, 41, 0
3, 37143, Note_on_c, 1, 50, 70
3, 37202, Note_on_c, 1, 59, 66
3, 37210, Note_on_c, 1, 50, 0
3, 37257, Note_on_c, 1, 50, 68
3, 37265, Note_on_c, 1, 59, 0
3, 37319, Note_on_c, 1, 50, 0
3, 37321, Note_on_c, 1, 61, 69
3, 37381, Note_on_c, 1, 50, 68
3, 37391, Note_on_c, 1, 61, 0
3, 37437, Control_c, 1, 64, 0
3, 37440, Note_on_c, 1, 41, 88
3, 37441, Control_c, 1, 64, 127
3, 37448, Note_on_c, 1, 50, 0
3, 37500, Note_on_c, 1, 50, 71
3, 37510, Note_on_c, 1, 41, 0
3, 37562, Note_on_c, 1, 62, 69
3, 37567, Note_on_c, 1, 50, 0
3, 37619, Note_on_c, 1, 50, 73
3, 37628, Note_on_c, 1, 62, 0
3, 37676, Note_on_c, 1, 64, 76
3, 37681, Note_on_c, 1, 50, 0
3, 37741, Note_on_c, 1, 50, 69
3, 37743, Note_on_c, 1, 64, 0
3, 37796, Control_c, 1, 64, 0
3, 37798, Note_on_c, 1, 41, 72
3, 37800, Control_c, 1, 64, 127
3, 37807, Note_on_c, 1, 50, 0
3, 37856, Note_on_c, 1, 50, 74
3, 37865, Note_on_c, 1, 41, 0
3, 37922, Note_on_c, 1, 65, 70
3, 37924, Note_on_c, 1, 50, 0
3, 37976, Note_on_c, 1, 50, 73
3, 37994, Note_on_c, 1, 65, 0
3, 38042, Note_on_c, 1, 65, 76
3, 38044, Note_on_c, 1, 50, 0
3, 38103, Note_on_c, 1, 50, 76
3, 38108, Note_on_c, 1, 65, 0
3, 38156, Control_c, 1, 64, 0
3, 38160, Control_c, 1, 64, 127
3, 38163, Note_on_c, 1, 50, 0
3, 38163, Note_on_c, 1, 41, 84
3, 38216, Note_on_c, 1, 49, 73
3, 38230, Note_on_c, 1, 41, 0
3, 38281, Note_on_c, 1, 58, 77
3, 38285, Note_on_c, 1, 49, 0
3, 38338, Note_on_c, 1, 49, 76
3, 38345, Note_on_c, 1, 58, 0
3, 38398, Note_on_c, 1, 61, 75
3, 38402, Note_on_c, 1, 49, 0
3, 38457, Note_on_c, 1, 49, 72
3, 38465, Note_on_c, 1, 61, 0
3, 38520, Note_on_c, 1, 41, 81
3, 38523, Note_on_c, 1, 49, 0
3, 38578, Note_on_c, 1, 49, 73
3, 38594, Note_on_c, 1, 41, 0
3, 38644, Note_on_c, 1, 58, 73
3, 38648, Note_on_c, 1, 49, 0
3, 38700, Note_on_c, 1, 49, 71
3, 38714, Note_on_c, 1, 58, 0
3, 38764, Note_on_c, 1, 49, 0
3, 38765, Note_on_c, 1, 61, 76
3, 38821, Note_on_c, 1, 49, 74
3, 38833, Note_on_c, 1, 61, 0
3, 38875, Control_c, 1, 64, 0
3, 38879, Control_c, 1, 64, 127
3, 38879, Note_on_c, 1, 41, 85
3, 38883, Note_on_c, 1, 49, 0
3, 38936, Note_on_c, 1, 49, 73
3, 38944, Note_on_c, 1, 41, 0
3, 38998, Note_on_c, 1, 58, 79
3, 39001, Note_on_c, 1, 49, 0
3, 39058, Note_on_c, 1, 49, 73
3, 39062, Note_on_c, 1, 58, 0
3, 39120, Note_on_c, 1, 49, 0
3, 39124, Note_on_c, 1, 61, 80
3, 39184, Note_on_c, 1, 49, 73
3, 39189, Note_on_c, 1, 61, 0
3, 39238, Note_on_c, 1, 41, 83
3, 39244, Note_on_c, 1, 49, 0
3, 39304, Note_on_c, 1, 41, 0
3, 39304, Note_on_c, 1, 49, 80
3, 39357, Note_on_c, 1, 58, 76
3, 39366, Note_on_c, 1, 49, 0
3, 39415, Note_on_c, 1, 58, 0
3, 39423, Note_on_c, 1, 49, 74
3, 39480, Note_on_c, 1, 61, 78
3, 39495, Note_on_c, 1, 49, 0
3, 39540, Note_on_c, 1, 49, 78
3, 39542, Note_on_c, 1, 61, 0
3, 39596, Control_c, 1, 64, 0
3, 39600, Control_c, 1, 64, 127
3, 39603, Note_on_c, 1, 41, 91
3, 39609, Note_on_c, 1, 49, 0
3, 39660, Note_on_c, 1, 49, 76
3, 39670, Note_on_c, 1, 41, 0
3, 39714, Note_on_c, 1, 58, 74
3, 39725, Note_on_c, 1, 49, 0
3, 39778, Note_on_c, 1, 58, 0
3, 39778, Note_on_c, 1, 49, 81
3, 39841, Note_on_c, 1, 61, 75
3, 39846, Note_on_c, 1, 49, 0
3, 39900, Note_on_c, 1, 49, 76
3, 39910, Note_on_c, 1, 61, 0
3, 39957, Note_on_c, 1, 41, 80
3, 39961, Note_on_c, 1, 49, 0
3, 40019, Note_on_c, 1, 49, 80
3, 40020, Note_on_c, 1, 41, 0
3, 40080, Note_on_c, 1, 58, 80
3, 40091, Note_on_c, 1, 49, 0
3, 40143, Note_on_c, 1, 49, 83
3, 40148, Note_on_c, 1, 58, 0
3, 40196, Note_on_c, 1, 61, 80
3, 40209, Note_on_c, 1, 49, 0
3, 40257, Note_on_c, 1, 49, 82
3, 40264, Note_on_c, 1, 61, 0
3, 40315, Control_c, 1, 64, 0
3, 40319, Control_c, 1, 64, 127
3, 40324, Note_on_c, 1, 41, 91
3, 40325, Note_on_c, 1, 49, 0
3, 40376, Note_on_c, 1, 49, 83
3, 40390, Note_on_c, 1, 41, 0
3, 40440, Note_on_c, 1, 49, 0
3, 40440, Note_on_c, 1, 58, 92
3, 40503, Note_on_c, 1, 58, 0
3, 40504, Note_on_c, 1, 49, 87
3, 40559, Note_on_c, 1, 61, 90
3, 40568, Note_on_c, 1, 49, 0
3, 40619, Note_on_c, 1, 49, 86
3, 40622, Note_on_c, 1, 61, 0
3, 40682, Note_on_c, 1, 41, 90
3, 40688, Note_on_c, 1, 49, 0
3, 40740, Note_on_c, 1, 49, 92
3, 40750, Note_on_c, 1, 41, 0
3, 40802, Note_on_c, 1, 58, 89
3, 40813, Note_on_c, 1, 49, 0
3, 40857, Note_on_c, 1, 49, 94
3, 40866, Note_on_c, 1, 58, 0
3, 40918, Note_on_c, 1, 61, 50
3, 40920, Note_on_c, 1, 49, 0
3, 40983, Note_on_c, 1, 61, 0
3, 40983, Note_on_c, 1, 49, 52
3, 41034, Control_c, 1, 64, 0
3, 41038, Control_c, 1, 64, 127
3, 41038, Note_on_c, 1, 41, 59
3, 41040, Control_c, 1, 67, 127
3, 41049, Note_on_c, 1, 49, 0
3, 41099, Note_on_c, 1, 49, 51
3, 41105, Note_on_c, 1, 41, 0
3, 41155, Note_on_c, 1, 58, 46
3, 41165, Note_on_c, 1, 49, 0
3, 41217, Note_on_c, 1, 49, 52
3, 41219, Note_on_c, 1, 58, 0
3, 41281, Note_on_c, 1, 61, 54
3, 41286, Note_on_c, 1, 49, 0
3, 41342, Note_on_c, 1, 49, 50
3, 41353, Note_on_c, 1, 61, 0
3, 41395, Control_c, 1, 64, 0
3, 41397, Note_on_c, 1, 41, 56
3, 41399, Control_c, 1, 64, 127
3, 41407, Note_on_c, 1, 49, 0
3, 41461, Note_on_c, 1, 48, 48
3, 41465, Note_on_c, 1, 41, 0
3, 41521, Note_on_c, 1, 56, 53
3, 41529, Note_on_c, 1, 48, 0
3, 41581, Note_on_c, 1, 48, 51
3, 41587, Note_on_c, 1, 56, 0
3, 41642, Note_on_c, 1, 60, 51
3, 41647, Note_on_c, 1, 48, 0
3, 41700, Note_on_c, 1, 48, 48
3, 41705, Note_on_c, 1, 60, 0
3, 41754, Control_c, 1, 64, 0
3, 41758, Control_c, 1, 64, 127
3, 41760, Note_on_c, 1, 41, 61
3, 41765, Note_on_c, 1, 48, 0
3, 41825, Note_on_c, 1, 49, 45
3, 41828, Note_on_c, 1, 41, 0
3, 41883, Note_on_c, 1, 58, 47
3, 41887, Note_on_c, 1, 49, 0
3, 41940, Note_on_c, 1, 49, 44
3, 41948, Note_on_c, 1, 58, 0
3, 42001, Note_on_c, 1, 61, 41
3, 42012, Note_on_c, 1, 49, 0
3, 42065, Note_on_c, 1, 49, 45
3, 42069, Note_on_c, 1, 61, 0
3, 42118, Note_on_c, 1, 41, 50
3, 42118, Control_c, 1, 64, 0
3, 42122, Control_c, 1, 64, 127
3, 42132, Note_on_c, 1, 49, 0
3, 42186, Note_on_c, 1, 48, 44
3, 42188, Note_on_c, 1, 41, 0
3, 42240, Note_on_c, 1, 56, 44
3, 42252, Note_on_c, 1, 48, 0
3, 42300, Note_on_c, 1, 48, 41
3, 42311, Note_on_c, 1, 56, 0
3, 42364, Note_on_c, 1, 60, 43
3, 42365, Note_on_c, 1, 48, 0
3, 42415, Note_on_c, 1, 48, 46
3, 42429, Note_on_c, 1, 60, 0
3, 42474, Control_c, 1, 64, 0
3, 42476, Note_on_c, 1, 48, 0
3, 42478, Control_c, 1, 64, 127
3, 42481, Note_on_c, 1, 41, 66
3, 42537, Note_on_c, 1, 49, 51
3, 42554, Note_on_c, 1, 41, 0
3, 42597, Note_on_c, 1, 58, 59
3, 42611, Note_on_c, 1, 49, 0
3, 42656, Note_on_c, 1, 49, 56
3, 42661, Note_on_c, 1, 58, 0
3, 42718, Note_on_c, 1, 61, 60
3, 42719, Note_on_c, 1, 49, 0
3, 42779, Note_on_c, 1, 49, 56
3, 42784, Note_on_c, 1, 61, 0
3, 42838, Control_c, 1, 64, 0
3, 42840, Note_on_c, 1, 41, 68
3, 42842, Control_c, 1, 64, 127
3, 42848, Note_on_c, 1, 49, 0
3, 42897, Note_on_c, 1, 48, 63
3, 42905, Note_on_c, 1, 41, 0
3, 42955, Note_on_c, 1, 48, 0
3, 42962, Note_on_c, 1, 56, 59
3, 43025, Note_on_c, 1, 48, 62
3, 43028, Note_on_c, 1, 56, 0
3, 43084, Note_on_c, 1, 60, 58
3, 43093, Note_on_c, 1, 48, 0
3, 43142, Note_on_c, 1, 48, 61
3, 43150, Note_on_c, 1, 60, 0
3, 43196, Control_c, 1, 64, 0
3, 43199, Note_on_c, 1, 41, 58
3, 43200, Control_c, 1, 64, 127
3, 43209, Note_on_c, 1, 48, 0
3, 43260, Note_on_c, 1, 41, 0
3, 43261, Note_on_c, 1, 49, 46
3, 43322, Note_on_c, 1, 58, 41
3, 43326, Note_on_c, 1, 49, 0
3, 43381, Note_on_c, 1, 49, 44
3, 43383, Note_on_c, 1, 58, 0
3, 43437, Note_on_c, 1, 61, 43
3, 43442, Note_on_c, 1, 49, 0
3, 43498, Note_on_c, 1, 49, 49
3, 43501, Note_on_c, 1, 61, 0
3, 43554, Control_c, 1, 64, 0
3, 43558, Note_on_c, 1, 49, 0
3, 43558, Control_c, 1, 64, 127
3, 43562, Note_on_c, 1, 41, 52
3, 43623, Note_on_c, 1, 48, 49
3, 43629, Note_on_c, 1, 41, 0
3, 43681, Note_on_c, 1, 56, 46
3, 43691, Note_on_c, 1, 48, 0
3, 43737, Note_on_c, 1, 48, 46
3, 43746, Note_on_c, 1, 56, 0
3, 43795, Note_on_c, 1, 60, 41
3, 43799, Note_on_c, 1, 48, 0
3, 43860, Note_on_c, 1, 60, 0
3, 43861, Note_on_c, 1, 48, 44
3, 43918, Control_c, 1, 64, 0
3, 43920, Control_c, 1, 67, 0
3, 43922, Control_c, 1, 64, 127
3, 43926, Note_on_c, 1, 41, 116
3, 43927, Note_on_c, 1, 48, 0
3, 43975, Note_on_c, 1, 49, 110
3, 43992, Note_on_c, 1, 41, 0
3, 44037, Note_on_c, 1, 49, 0
3, 44041, Note_on_c, 1, 58, 106
3, 44099, Note_on_c, 1, 49, 113
3, 44107, Note_on_c, 1, 58, 0
3, 44161, Note_on_c, 1, 61, 108
3, 44171, Note_on_c, 1, 49, 0
3, 44223, Note_on_c, 1, 49, 113
3, 44225, Note_on_c, 1, 61, 0
3, 44274, Control_c, 1, 64, 0
3, 44278, Control_c, 1, 64, 127
3, 44282, Note_on_c, 1, 41, 117
3, 44289, Note_on_c, 1, 49, 0
3, 44345, Note_on_c, 1, 48, 111
3, 44355, Note_on_c, 1, 41, 0
3, 44405, Note_on_c, 1, 56, 107
3, 44413, Note_on_c, 1, 48, 0
3, 44462, Note_on_c, 1, 48, 108
3, 44465, Note_on_c, 1, 56, 0
3, 44521, Note_on_c, 1, 60, 111
3, 44528, Note_on_c, 1, 48, 0
3, 44576, Note_on_c, 1, 48, 113
3, 44583, Note_on_c, 1, 60, 0
3, 44634, Control_c, 1, 64, 0
3, 44637, Note_on_c, 1, 41, 61
3, 44638, Control_c, 1, 64, 127
3, 44641, Note_on_c, 1, 48, 0
3, 44698, Note_on_c, 1, 49, 48
3, 44704, Note_on_c, 1, 41, 0
3, 44758, Note_on_c, 1, 58, 52
3, 44765, Note_on_c, 1, 49, 0
3, 44815, Note_on_c, 1, 49, 53
3, 44827, Note_on_c, 1, 58, 0
3, 44880, Note_on_c, 1, 49, 0
3, 44880, Note_on_c, 1, 61, 48
3, 44936, Note_on_c, 1, 49, 47
3, 44946, Note_on_c, 1, 61, 0
3, 44998, Control_c, 1, 64, 0
3, 44999, Note_on_c, 1, 49, 0
3, 45000, Note_on_c, 1, 41, 54
3, 45002, Control_c, 1, 64, 127
3, 45063, Note_on_c, 1, 41, 0
3, 45063, Note_on_c, 1, 48, 54
3, 45120, Note_on_c, 1, 56, 51
3, 45128, Note_on_c, 1, 48, 0
3, 45178, Note_on_c, 1, 48, 46
3, 45194, Note_on_c, 1, 56, 0
3, 45237, Note_on_c, 1, 60, 54
3, 45251, Note_on_c, 1, 48, 0
3, 45296, Note_on_c, 1, 60, 0
3, 45304, Note_on_c, 1, 48, 46
3, 45358, Control_c, 1, 64, 0
3, 45362, Control_c, 1, 64, 127
3, 45363, Note_on_c, 1, 41, 122
3, 45367, Note_on_c, 1, 48, 0
3, 45425, Note_on_c, 1, 41, 0
3, 45425, Note_on_c, 1, 49, 108
3, 45475, Note_on_c, 1, 58, 107
3, 45487, Note_on_c, 1, 49, 0
3, 45536, Note_on_c, 1, 58, 0
3, 45544, Note_on_c, 1, 49, 107
3, 45595, Note_on_c, 1, 61, 108
3, 45612, Note_on_c, 1, 49, 0
3, 45659, Note_on_c, 1, 49, 110
3, 45662, Note_on_c, 1, 61, 0
3, 45717, Control_c, 1, 64, 0
3, 45721, Note_on_c, 1, 41, 117
3, 45721, Control_c, 1, 64, 127
3, 45726, Note_on_c, 1, 49, 0
3, 45783, Note_on_c, 1, 48, 106
3, 45785, Note_on_c, 1, 41, 0
3, 45845, Note_on_c, 1, 56, 106
3, 45851, Note_on_c, 1, 48, 0
3, 45903, Note_on_c, 1, 48, 109
3, 45912, Note_on_c, 1, 56, 0
3, 45961, Note_on_c, 1, 60, 108
3, 45968, Note_on_c, 1, 48, 0
3, 46018, Note_on_c, 1, 48, 110
3, 46027, Note_on_c, 1, 60, 0
3, 46078, Control_c, 1, 64, 0
3, 46082, Control_c, 1, 64, 127
3, 46085, Note_on_c, 1, 41, 58
3, 46091, Note_on_c, 1, 48, 0
3, 46136, Note_on_c, 1, 49, 49
3, 46147, Note_on_c, 1, 41, 0
3, 46199, Note_on_c, 1, 58, 54
3, 46201, Note_on_c, 1, 49, 0
3, 46258, Note_on_c, 1, 49, 51
3, 46268, Note_on_c, 1, 58, 0
3, 46322, Note_on_c, 1, 61, 48
3, 46327, Note_on_c, 1, 49, 0
3, 46383, Note_on_c, 1, 49, 50
3, 46386, Note_on_c, 1, 61, 0
3, 46437, Control_c, 1, 64, 0
3, 46441, Control_c, 1, 64, 127
3, 46443, Note_on_c, 1, 41, 53
3, 46448, Note_on_c, 1, 49, 0
3, 46506, Note_on_c, 1, 48, 54
3, 46507, Note_on_c, 1, 41, 0
3, 46565, Note_on_c, 1, 56, 50
3, 46571, Note_on_c, 1, 48, 0
3, 46619, Note_on_c, 1, 48, 53
3, 46626, Note_on_c, 1, 56, 0
3, 46680, Note_on_c, 1, 60, 53
3, 46685, Note_on_c, 1, 48, 0
3, 46741, Note_on_c, 1, 60, 0
3, 46741, Note_on_c, 1, 48, 53
3, 46799, Note_on_c, 1, 41, 44
3, 46809, Note_on_c, 1, 48, 0
3, 46924, Note_on_c, 1, 41, 0
3, 47025, Control_c, 1, 91, 50
3, 47039, Note_on_c, 1, 85, 33
3, 47095, Note_on_c, 1, 77, 28
3, 47107, Note_on_c, 1, 85, 0
3, 47159, Note_on_c, 1, 85, 38
3, 47161, Note_on_c, 1, 77, 0
3, 47224, Note_on_c, 1, 77, 28
3, 47232, Note_on_c, 1, 85, 0
3, 47282, Note_on_c, 1, 85, 34
3, 47288, Note_on_c, 1, 77, 0
3, 47344, Note_on_c, 1, 77, 32
3, 47345, Note_on_c, 1, 85, 0
3, 47397, Note_on_c, 1, 85, 27
3, 47405, Note_on_c, 1, 77, 0
3, 47459, Note_on_c, 1, 77, 32
3, 47462, Note_on_c, 1, 85, 0
3, 47523, Note_on_c, 1, 82, 43
3, 47531, Note_on_c, 1, 77, 0
3, 47578, Note_on_c, 1, 77, 27
3, 47588, Note_on_c, 1, 82, 0
3, 47635, Note_on_c, 1, 82, 26
3, 47644, Note_on_c, 1, 77, 0
3, 47700, Note_on_c, 1, 82, 0
3, 47703, Note_on_c, 1, 77, 26
3, 47757, Note_on_c, 1, 82, 30
3, 47766, Note_on_c, 1, 77, 0
3, 47815, Note_on_c, 1, 77, 33
3, 47821, Note_on_c, 1, 82, 0
3, 47879, Note_on_c, 1, 77, 0
3, 47881, Note_on_c, 1, 82, 31
3, 47937, Note_on_c, 1, 77, 26
3, 47950, Note_on_c, 1, 82, 0
3, 48004, Note_on_c, 1, 82, 27
3, 48006, Note_on_c, 1, 77, 0
3, 48062, Note_on_c, 1, 77, 33
3, 48074, Note_on_c, 1, 82, 0
3, 48118, Note_on_c, 1, 82, 33
3, 48129, Note_on_c, 1, 77, 0
3, 48178, Note_on_c, 1, 77, 33
3, 48183, Note_on_c, 1, 82, 0
3, 48239, Note_on_c, 1, 65, 30
3, 48248, Note_on_c, 1, 77, 0
3, 48371, Note_on_c, 1, 65, 0
3, 48848, Control_c, 1, 64, 0
3, 48848, End_track
4, 0, Start_track
4, 0, MIDI_port, 0
4, 0, Title_t, "Entered by John Cowles"
4, 0, End_track
5, 0, Start_track
5, 0, MIDI_port, 0
5, 0, Title_t, "cowles@hydra.convex.com"
5, 0, End_track
0, 0, End_of_file
