0, 0, Header, 1, 17, 240
1, 0, Start_track
1, 0, Time_signature, 4, 2, 24, 8
1, 0, Tempo, 500000
1, 0, Marker_t, "Chopin: Fantasy in f minor, Op. 49; realtime sequence 8/97 by Ron Lubetsky, M.D."
1, 92160, Tempo, 454545
1, 98880, Tempo, 500000
1, 116160, Tempo, 454545
1, 121920, Tempo, 500000
1, 151680, Tempo, 454545
1, 159360, Tempo, 500000
1, 233280, Tempo, 454545
1, 240960, Tempo, 500000
1, 258240, Tempo, 454545
1, 264000, Tempo, 500000
1, 264000, End_track
2, 0, Start_track
2, 0, Title_t, "Frederic Chopin:"
2, 0, Program_c, 0, 0
2, 0, Control_c, 0, 7, 91
2, 16, Note_on_c, 0, 53, 62
2, 16, Note_on_c, 0, 41, 62
2, 45, Control_c, 0, 64, 127
2, 396, Note_on_c, 0, 36, 62
2, 404, Note_on_c, 0, 48, 62
2, 460, Note_off_c, 0, 36, 64
2, 465, Note_off_c, 0, 48, 64
2, 466, Note_off_c, 0, 53, 64
2, 466, Control_c, 0, 64, 0
2, 480, Note_off_c, 0, 41, 64
2, 692, Note_on_c, 0, 53, 62
2, 707, Note_on_c, 0, 41, 62
2, 760, Note_on_c, 0, 51, 62
2, 771, Note_off_c, 0, 53, 64
2, 771, Note_on_c, 0, 39, 62
2, 784, Note_off_c, 0, 41, 64
2, 1164, Note_on_c, 0, 46, 62
2, 1168, Note_on_c, 0, 34, 62
2, 1195, Note_off_c, 0, 51, 64
2, 1202, Note_off_c, 0, 39, 64
2, 1229, Note_off_c, 0, 34, 64
2, 1236, Note_off_c, 0, 46, 64
2, 1459, Note_on_c, 0, 39, 62
2, 1464, Note_on_c, 0, 51, 60
2, 1548, Note_on_c, 0, 49, 59
2, 1550, Note_off_c, 0, 51, 64
2, 1556, Note_off_c, 0, 39, 64
2, 1558, Note_on_c, 0, 37, 59
2, 1941, Note_on_c, 0, 32, 55
2, 1948, Note_on_c, 0, 44, 55
2, 1971, Note_off_c, 0, 49, 64
2, 1987, Note_off_c, 0, 37, 64
2, 2000, Note_off_c, 0, 32, 64
2, 2006, Note_off_c, 0, 44, 64
2, 2237, Note_on_c, 0, 49, 51
2, 2239, Note_on_c, 0, 37, 51
2, 2331, Note_on_c, 0, 48, 50
2, 2337, Note_on_c, 0, 36, 50
2, 2341, Note_off_c, 0, 37, 64
2, 2363, Note_off_c, 0, 49, 64
2, 2636, Control_c, 0, 64, 127
2, 2726, Note_off_c, 0, 36, 64
2, 2757, Note_off_c, 0, 48, 64
2, 2947, Control_c, 0, 64, 0
2, 2995, Control_c, 0, 64, 0
2, 3156, Note_on_c, 0, 70, 65
2, 3158, Note_on_c, 0, 72, 63
2, 3158, Note_on_c, 0, 60, 42
2, 3160, Note_on_c, 0, 64, 33
2, 3160, Note_on_c, 0, 55, 40
2, 3160, Note_on_c, 0, 48, 41
2, 3175, Control_c, 0, 64, 0
2, 3212, Control_c, 0, 64, 127
2, 3325, Note_off_c, 0, 48, 64
2, 3326, Note_off_c, 0, 55, 64
2, 3355, Note_off_c, 0, 60, 64
2, 3371, Note_off_c, 0, 64, 64
2, 3379, Note_off_c, 0, 70, 64
2, 3473, Note_off_c, 0, 72, 64
2, 3568, Note_on_c, 0, 72, 71
2, 3568, Note_on_c, 0, 48, 31
2, 3575, Note_on_c, 0, 70, 65
2, 3576, Note_on_c, 0, 60, 46
2, 3576, Note_on_c, 0, 55, 46
2, 3577, Note_on_c, 0, 64, 57
2, 3643, Note_off_c, 0, 55, 64
2, 3647, Note_off_c, 0, 48, 64
2, 3650, Note_off_c, 0, 60, 64
2, 3653, Note_off_c, 0, 70, 64
2, 3665, Note_off_c, 0, 64, 64
2, 3671, Note_off_c, 0, 72, 64
2, 3848, Note_on_c, 0, 60, 44
2, 3848, Note_on_c, 0, 55, 46
2, 3848, Note_on_c, 0, 48, 46
2, 3850, Note_on_c, 0, 72, 67
2, 3855, Note_on_c, 0, 64, 55
2, 3874, Note_off_c, 0, 48, 64
2, 3885, Note_off_c, 0, 64, 64
2, 3897, Note_off_c, 0, 55, 64
2, 3897, Note_off_c, 0, 60, 64
2, 3912, Note_on_c, 0, 65, 77
2, 3912, Note_on_c, 0, 60, 55
2, 3913, Note_on_c, 0, 73, 71
2, 3919, Note_off_c, 0, 72, 64
2, 3920, Note_on_c, 0, 56, 64
2, 3920, Note_on_c, 0, 48, 44
2, 3923, Control_c, 0, 64, 0
2, 3977, Control_c, 0, 64, 127
2, 4057, Note_off_c, 0, 56, 64
2, 4072, Note_off_c, 0, 65, 64
2, 4117, Note_off_c, 0, 48, 64
2, 4152, Note_off_c, 0, 60, 64
2, 4200, Note_on_c, 0, 72, 72
2, 4218, Note_off_c, 0, 73, 64
2, 4292, Note_on_c, 0, 60, 65
2, 4294, Note_on_c, 0, 77, 71
2, 4294, Note_on_c, 0, 65, 58
2, 4296, Note_on_c, 0, 68, 77
2, 4525, Note_off_c, 0, 72, 64
2, 4531, Note_off_c, 0, 60, 64
2, 4533, Note_off_c, 0, 65, 64
2, 4535, Note_off_c, 0, 68, 64
2, 4564, Note_on_c, 0, 72, 64
2, 4565, Note_on_c, 0, 80, 65
2, 4565, Note_on_c, 0, 68, 67
2, 4568, Note_on_c, 0, 60, 44
2, 4569, Note_off_c, 0, 77, 64
2, 4569, Note_on_c, 0, 65, 65
2, 4598, Note_off_c, 0, 72, 64
2, 4602, Note_off_c, 0, 60, 64
2, 4602, Note_off_c, 0, 68, 64
2, 4605, Note_off_c, 0, 65, 64
2, 4633, Control_c, 0, 64, 0
2, 4644, Note_on_c, 0, 64, 77
2, 4644, Note_on_c, 0, 60, 64
2, 4648, Note_on_c, 0, 79, 79
2, 4648, Note_on_c, 0, 72, 79
2, 4651, Note_on_c, 0, 70, 75
2, 4660, Note_off_c, 0, 80, 64
2, 4679, Control_c, 0, 64, 127
2, 4831, Note_off_c, 0, 70, 64
2, 4839, Note_off_c, 0, 64, 64
2, 4852, Note_off_c, 0, 72, 64
2, 4902, Note_off_c, 0, 60, 64
2, 5020, Note_on_c, 0, 72, 73
2, 5020, Note_on_c, 0, 67, 40
2, 5024, Note_on_c, 0, 60, 51
2, 5026, Note_on_c, 0, 70, 63
2, 5033, Note_off_c, 0, 79, 64
2, 5144, Note_off_c, 0, 60, 64
2, 5180, Note_off_c, 0, 67, 64
2, 5202, Note_off_c, 0, 70, 64
2, 5210, Note_off_c, 0, 72, 64
2, 5400, Control_c, 0, 64, 0
2, 5428, Note_on_c, 0, 79, 71
2, 5428, Note_on_c, 0, 72, 71
2, 5428, Note_on_c, 0, 68, 57
2, 5434, Note_on_c, 0, 67, 41
2, 5434, Note_on_c, 0, 53, 43
2, 5435, Note_on_c, 0, 60, 55
2, 5472, Control_c, 0, 64, 127
2, 5708, Note_off_c, 0, 67, 64
2, 5796, Note_off_c, 0, 72, 64
2, 5856, Note_on_c, 0, 77, 58
2, 5859, Note_on_c, 0, 65, 43
2, 5872, Control_c, 0, 64, 0
2, 5883, Note_off_c, 0, 79, 64
2, 5904, Note_off_c, 0, 60, 64
2, 5919, Control_c, 0, 64, 127
2, 6168, Note_on_c, 0, 73, 51
2, 6168, Note_on_c, 0, 61, 35
2, 6182, Note_off_c, 0, 77, 64
2, 6252, Note_on_c, 0, 60, 48
2, 6253, Note_on_c, 0, 72, 64
2, 6262, Note_off_c, 0, 61, 64
2, 6262, Note_off_c, 0, 73, 64
2, 6276, Control_c, 0, 64, 0
2, 6320, Note_off_c, 0, 68, 64
2, 6347, Control_c, 0, 64, 127
2, 6389, Note_off_c, 0, 65, 64
2, 6401, Note_off_c, 0, 72, 64
2, 6404, Note_off_c, 0, 60, 64
2, 6416, Note_off_c, 0, 53, 64
2, 6489, Control_c, 0, 64, 0
2, 6535, Control_c, 0, 64, 127
2, 6636, Note_on_c, 0, 48, 51
2, 6637, Note_on_c, 0, 36, 59
2, 6696, Control_c, 0, 64, 0
2, 6708, Note_off_c, 0, 36, 64
2, 6708, Note_off_c, 0, 48, 64
2, 6931, Note_on_c, 0, 53, 56
2, 6934, Note_on_c, 0, 41, 48
2, 7010, Note_off_c, 0, 53, 64
2, 7010, Note_on_c, 0, 51, 60
2, 7017, Note_on_c, 0, 39, 62
2, 7023, Note_off_c, 0, 41, 64
2, 7405, Note_on_c, 0, 46, 67
2, 7410, Note_on_c, 0, 34, 48
2, 7424, Note_off_c, 0, 51, 64
2, 7430, Control_c, 0, 64, 127
2, 7447, Note_off_c, 0, 39, 64
2, 7477, Note_off_c, 0, 34, 64
2, 7483, Note_off_c, 0, 46, 64
2, 7562, Control_c, 0, 64, 0
2, 7682, Note_on_c, 0, 51, 52
2, 7690, Note_on_c, 0, 39, 63
2, 7762, Note_on_c, 0, 49, 64
2, 7764, Note_off_c, 0, 51, 64
2, 7778, Note_on_c, 0, 37, 65
2, 7786, Note_off_c, 0, 39, 64
2, 8148, Note_on_c, 0, 44, 49
2, 8151, Note_on_c, 0, 32, 51
2, 8160, Note_off_c, 0, 49, 64
2, 8186, Note_off_c, 0, 37, 64
2, 8263, Note_off_c, 0, 32, 64
2, 8285, Note_off_c, 0, 44, 64
2, 8441, Note_on_c, 0, 37, 69
2, 8445, Note_on_c, 0, 49, 52
2, 8532, Note_on_c, 0, 48, 75
2, 8544, Note_on_c, 0, 36, 50
2, 8548, Note_off_c, 0, 37, 64
2, 8568, Note_off_c, 0, 49, 64
2, 8918, Note_on_c, 0, 44, 69
2, 8922, Note_on_c, 0, 32, 58
2, 8959, Note_off_c, 0, 48, 64
2, 8965, Note_off_c, 0, 36, 64
2, 8996, Note_off_c, 0, 32, 64
2, 8996, Note_off_c, 0, 44, 64
2, 9210, Note_on_c, 0, 29, 67
2, 9212, Note_on_c, 0, 41, 51
2, 9299, Note_on_c, 0, 27, 57
2, 9303, Note_on_c, 0, 39, 49
2, 9308, Note_off_c, 0, 29, 64
2, 9310, Note_off_c, 0, 41, 64
2, 9410, Control_c, 0, 64, 127
2, 9511, Note_off_c, 0, 27, 64
2, 9517, Note_off_c, 0, 39, 64
2, 9709, Note_on_c, 0, 67, 65
2, 9709, Note_on_c, 0, 63, 50
2, 9710, Note_on_c, 0, 75, 70
2, 9710, Note_on_c, 0, 73, 71
2, 9712, Note_on_c, 0, 58, 41
2, 9712, Note_on_c, 0, 51, 34
2, 9766, Note_off_c, 0, 58, 64
2, 9771, Note_off_c, 0, 51, 64
2, 9783, Note_off_c, 0, 73, 64
2, 9789, Note_off_c, 0, 67, 64
2, 9796, Note_off_c, 0, 63, 64
2, 9798, Note_off_c, 0, 75, 64
2, 10000, Note_on_c, 0, 58, 47
2, 10000, Note_on_c, 0, 51, 43
2, 10001, Note_on_c, 0, 75, 64
2, 10004, Note_on_c, 0, 67, 66
2, 10004, Note_on_c, 0, 63, 70
2, 10041, Note_off_c, 0, 51, 64
2, 10041, Note_off_c, 0, 58, 64
2, 10045, Note_off_c, 0, 63, 64
2, 10045, Note_off_c, 0, 67, 64
2, 10057, Control_c, 0, 64, 0
2, 10064, Note_on_c, 0, 63, 55
2, 10064, Note_on_c, 0, 60, 43
2, 10068, Note_on_c, 0, 51, 57
2, 10069, Note_off_c, 0, 75, 64
2, 10070, Note_on_c, 0, 77, 75
2, 10070, Note_on_c, 0, 68, 78
2, 10103, Control_c, 0, 64, 127
2, 10316, Note_off_c, 0, 63, 64
2, 10320, Note_off_c, 0, 51, 64
2, 10322, Note_off_c, 0, 68, 64
2, 10329, Note_on_c, 0, 75, 63
2, 10334, Note_off_c, 0, 77, 64
2, 10351, Note_off_c, 0, 60, 64
2, 10412, Note_on_c, 0, 80, 66
2, 10412, Note_on_c, 0, 68, 78
2, 10412, Note_on_c, 0, 63, 75
2, 10412, Note_on_c, 0, 51, 44
2, 10413, Note_on_c, 0, 60, 67
2, 10512, Note_off_c, 0, 51, 64
2, 10512, Note_off_c, 0, 63, 64
2, 10512, Note_off_c, 0, 68, 64
2, 10513, Note_off_c, 0, 60, 64
2, 10543, Note_off_c, 0, 75, 64
2, 10676, Note_on_c, 0, 84, 73
2, 10676, Note_on_c, 0, 68, 66
2, 10676, Note_on_c, 0, 63, 59
2, 10680, Note_on_c, 0, 75, 71
2, 10680, Note_on_c, 0, 72, 67
2, 10687, Note_off_c, 0, 80, 64
2, 10717, Note_off_c, 0, 63, 64
2, 10717, Note_off_c, 0, 68, 64
2, 10721, Note_off_c, 0, 72, 64
2, 10721, Note_off_c, 0, 75, 64
2, 10761, Control_c, 0, 64, 0
2, 10764, Note_on_c, 0, 67, 72
2, 10764, Note_on_c, 0, 63, 71
2, 10770, Note_on_c, 0, 82, 79
2, 10770, Note_on_c, 0, 75, 79
2, 10771, Note_off_c, 0, 84, 64
2, 10771, Note_on_c, 0, 73, 77
2, 10804, Control_c, 0, 64, 127
2, 10927, Note_off_c, 0, 67, 64
2, 10953, Note_off_c, 0, 63, 64
2, 10970, Note_off_c, 0, 75, 64
2, 10983, Note_off_c, 0, 73, 64
2, 11152, Note_on_c, 0, 75, 72
2, 11152, Note_on_c, 0, 67, 71
2, 11153, Note_on_c, 0, 73, 77
2, 11153, Note_on_c, 0, 58, 58
2, 11154, Note_on_c, 0, 51, 49
2, 11156, Note_on_c, 0, 63, 55
2, 11175, Control_c, 0, 64, 0
2, 11195, Note_off_c, 0, 82, 64
2, 11200, Control_c, 0, 64, 127
2, 11298, Note_off_c, 0, 67, 64
2, 11311, Note_off_c, 0, 73, 64
2, 11320, Note_off_c, 0, 51, 64
2, 11324, Note_off_c, 0, 58, 64
2, 11350, Note_off_c, 0, 63, 64
2, 11353, Note_off_c, 0, 75, 64
2, 11520, Note_on_c, 0, 80, 73
2, 11524, Note_on_c, 0, 72, 65
2, 11524, Note_on_c, 0, 60, 43
2, 11524, Note_on_c, 0, 51, 32
2, 11526, Note_on_c, 0, 63, 35
2, 11528, Note_on_c, 0, 68, 62
2, 11544, Control_c, 0, 64, 0
2, 11582, Control_c, 0, 64, 127
2, 11625, Note_off_c, 0, 60, 64
2, 11633, Note_off_c, 0, 63, 64
2, 11657, Note_off_c, 0, 51, 64
2, 11710, Note_off_c, 0, 68, 64
2, 11714, Note_off_c, 0, 72, 64
2, 11901, Note_on_c, 0, 51, 50
2, 11902, Note_on_c, 0, 79, 67
2, 11908, Note_on_c, 0, 72, 57
2, 11908, Note_on_c, 0, 39, 49
2, 11911, Note_on_c, 0, 68, 64
2, 11924, Control_c, 0, 64, 0
2, 11925, Note_off_c, 0, 80, 64
2, 11952, Control_c, 0, 64, 127
2, 11999, Note_off_c, 0, 39, 64
2, 12007, Note_off_c, 0, 51, 64
2, 12172, Note_on_c, 0, 51, 73
2, 12179, Note_on_c, 0, 77, 71
2, 12179, Note_on_c, 0, 39, 70
2, 12187, Note_off_c, 0, 79, 64
2, 12210, Note_off_c, 0, 72, 64
2, 12215, Note_off_c, 0, 51, 64
2, 12218, Note_off_c, 0, 39, 64
2, 12219, Note_off_c, 0, 77, 64
2, 12219, Note_off_c, 0, 68, 64
2, 12236, Control_c, 0, 64, 0
2, 12257, Note_on_c, 0, 77, 67
2, 12260, Note_on_c, 0, 67, 41
2, 12260, Note_on_c, 0, 51, 72
2, 12260, Note_on_c, 0, 39, 71
2, 12262, Note_on_c, 0, 73, 32
2, 12288, Control_c, 0, 64, 127
2, 12405, Note_off_c, 0, 39, 64
2, 12417, Note_off_c, 0, 51, 64
2, 12601, Control_c, 0, 64, 0
2, 12627, Note_on_c, 0, 51, 64
2, 12628, Note_on_c, 0, 75, 64
2, 12635, Note_on_c, 0, 39, 67
2, 12648, Control_c, 0, 64, 127
2, 12662, Note_off_c, 0, 77, 64
2, 12686, Note_off_c, 0, 39, 64
2, 12693, Note_off_c, 0, 51, 64
2, 12709, Note_off_c, 0, 73, 64
2, 12747, Note_off_c, 0, 67, 64
2, 12859, Note_on_c, 0, 51, 60
2, 12859, Note_on_c, 0, 39, 65
2, 12941, Note_on_c, 0, 60, 44
2, 12968, Control_c, 0, 64, 0
2, 12973, Note_off_c, 0, 75, 64
2, 12981, Note_on_c, 0, 53, 57
2, 12982, Note_on_c, 0, 68, 71
2, 12982, Note_on_c, 0, 41, 64
2, 12994, Note_off_c, 0, 39, 64
2, 12994, Note_off_c, 0, 51, 64
2, 13014, Note_on_c, 0, 75, 77
2, 13027, Control_c, 0, 64, 127
2, 13177, Note_off_c, 0, 60, 64
2, 13179, Note_off_c, 0, 68, 64
2, 13232, Note_on_c, 0, 39, 65
2, 13236, Note_off_c, 0, 53, 64
2, 13237, Note_off_c, 0, 41, 64
2, 13239, Note_on_c, 0, 51, 60
2, 13291, Note_on_c, 0, 63, 78
2, 13309, Note_off_c, 0, 75, 64
2, 13327, Note_on_c, 0, 68, 66
2, 13337, Note_on_c, 0, 75, 67
2, 13380, Note_on_c, 0, 56, 62
2, 13382, Note_on_c, 0, 73, 64
2, 13392, Note_on_c, 0, 44, 72
2, 13399, Note_off_c, 0, 68, 64
2, 13472, Note_off_c, 0, 39, 64
2, 13479, Note_off_c, 0, 51, 64
2, 13608, Note_on_c, 0, 72, 71
2, 13612, Note_on_c, 0, 60, 77
2, 13618, Note_on_c, 0, 48, 63
2, 13620, Note_off_c, 0, 56, 64
2, 13632, Note_off_c, 0, 44, 64
2, 13661, Note_off_c, 0, 63, 64
2, 13679, Note_off_c, 0, 75, 64
2, 13720, Note_on_c, 0, 67, 77
2, 13720, Note_on_c, 0, 63, 67
2, 13722, Note_on_c, 0, 61, 54
2, 13728, Note_on_c, 0, 75, 75
2, 13731, Note_on_c, 0, 58, 69
2, 13739, Note_on_c, 0, 46, 65
2, 13747, Note_off_c, 0, 73, 64
2, 13757, Note_off_c, 0, 60, 64
2, 13763, Note_off_c, 0, 48, 64
2, 13900, Note_off_c, 0, 58, 64
2, 13917, Note_off_c, 0, 46, 64
2, 14030, Note_off_c, 0, 72, 64
2, 14034, Control_c, 0, 64, 0
2, 14095, Note_on_c, 0, 51, 64
2, 14099, Note_on_c, 0, 39, 65
2, 14107, Control_c, 0, 64, 127
2, 14237, Note_on_c, 0, 70, 48
2, 14247, Note_off_c, 0, 39, 64
2, 14267, Note_off_c, 0, 51, 64
2, 14325, Note_off_c, 0, 63, 64
2, 14325, Note_off_c, 0, 67, 64
2, 14328, Note_off_c, 0, 61, 64
2, 14337, Note_on_c, 0, 72, 73
2, 14353, Note_off_c, 0, 75, 64
2, 14367, Note_off_c, 0, 70, 64
2, 14452, Note_off_c, 0, 72, 64
2, 14458, Control_c, 0, 64, 0
2, 14460, Note_on_c, 0, 56, 67
2, 14464, Note_on_c, 0, 72, 71
2, 14464, Note_on_c, 0, 63, 65
2, 14464, Note_on_c, 0, 60, 64
2, 14466, Note_on_c, 0, 68, 67
2, 14466, Note_on_c, 0, 44, 66
2, 14508, Control_c, 0, 64, 127
2, 14574, Note_off_c, 0, 56, 64
2, 14601, Note_off_c, 0, 44, 64
2, 14610, Note_off_c, 0, 63, 64
2, 14619, Note_off_c, 0, 60, 64
2, 14644, Note_off_c, 0, 68, 64
2, 14829, Note_on_c, 0, 58, 65
2, 14836, Note_on_c, 0, 64, 63
2, 14836, Note_on_c, 0, 48, 44
2, 14836, Note_on_c, 0, 36, 43
2, 14837, Note_on_c, 0, 68, 64
2, 14880, Control_c, 0, 64, 0
2, 14928, Control_c, 0, 64, 127
2, 14973, Note_on_c, 0, 67, 77
2, 15002, Note_off_c, 0, 68, 64
2, 15054, Note_off_c, 0, 36, 64
2, 15068, Note_off_c, 0, 48, 64
2, 15068, Note_off_c, 0, 64, 64
2, 15076, Note_off_c, 0, 58, 64
2, 15153, Note_on_c, 0, 65, 59
2, 15165, Note_off_c, 0, 67, 64
2, 15181, Note_off_c, 0, 65, 64
2, 15218, Control_c, 0, 64, 0
2, 15229, Note_off_c, 0, 72, 64
2, 15230, Note_on_c, 0, 65, 65
2, 15232, Note_on_c, 0, 53, 54
2, 15232, Note_on_c, 0, 41, 51
2, 15235, Note_on_c, 0, 56, 64
2, 15266, Control_c, 0, 64, 127
2, 15300, Note_off_c, 0, 41, 64
2, 15308, Note_off_c, 0, 56, 64
2, 15316, Note_off_c, 0, 65, 64
2, 15321, Note_off_c, 0, 53, 64
2, 15660, Note_on_c, 0, 48, 64
2, 15660, Note_on_c, 0, 36, 50
2, 15677, Control_c, 0, 64, 0
2, 15713, Control_c, 0, 64, 127
2, 15722, Note_off_c, 0, 36, 64
2, 15726, Note_off_c, 0, 48, 64
2, 15834, Control_c, 0, 64, 0
2, 15915, Note_on_c, 0, 29, 54
2, 15925, Note_on_c, 0, 53, 60
2, 15933, Note_on_c, 0, 41, 49
2, 15977, Note_off_c, 0, 41, 64
2, 16007, Note_off_c, 0, 29, 64
2, 16014, Note_on_c, 0, 27, 36
2, 16015, Note_on_c, 0, 51, 59
2, 16016, Note_on_c, 0, 39, 65
2, 16026, Note_off_c, 0, 53, 64
2, 16031, Control_c, 0, 64, 127
2, 16332, Control_c, 0, 64, 0
2, 16392, Note_on_c, 0, 34, 57
2, 16399, Note_on_c, 0, 46, 59
2, 16409, Note_off_c, 0, 51, 64
2, 16426, Note_off_c, 0, 39, 64
2, 16426, Control_c, 0, 64, 127
2, 16438, Note_off_c, 0, 27, 64
2, 16450, Note_off_c, 0, 34, 64
2, 16452, Note_off_c, 0, 46, 64
2, 16509, Control_c, 0, 64, 0
2, 16657, Note_on_c, 0, 39, 49
2, 16659, Note_on_c, 0, 51, 59
2, 16664, Note_on_c, 0, 27, 54
2, 16704, Control_c, 0, 64, 127
2, 16716, Note_off_c, 0, 39, 64
2, 16755, Note_on_c, 0, 25, 54
2, 16756, Note_on_c, 0, 49, 64
2, 16756, Note_on_c, 0, 37, 70
2, 16767, Note_off_c, 0, 27, 64
2, 16768, Note_off_c, 0, 51, 64
2, 16780, Control_c, 0, 64, 0
2, 17141, Note_on_c, 0, 32, 47
2, 17148, Control_c, 0, 64, 127
2, 17158, Note_on_c, 0, 44, 54
2, 17169, Note_off_c, 0, 49, 64
2, 17179, Note_off_c, 0, 37, 64
2, 17187, Note_off_c, 0, 25, 64
2, 17214, Control_c, 0, 64, 0
2, 17219, Note_off_c, 0, 44, 64
2, 17219, Note_off_c, 0, 32, 64
2, 17264, Control_c, 0, 64, 0
2, 17437, Note_on_c, 0, 49, 55
2, 17440, Note_on_c, 0, 25, 56
2, 17445, Note_on_c, 0, 37, 51
2, 17493, Note_off_c, 0, 49, 64
2, 17498, Note_off_c, 0, 37, 64
2, 17500, Note_off_c, 0, 25, 64
2, 17513, Note_on_c, 0, 48, 56
2, 17521, Note_on_c, 0, 36, 65
2, 17522, Note_on_c, 0, 24, 60
2, 17875, Control_c, 0, 64, 127
2, 18156, Note_off_c, 0, 24, 64
2, 18156, Note_off_c, 0, 48, 64
2, 18158, Note_off_c, 0, 36, 64
2, 18260, Control_c, 0, 64, 0
2, 18285, Note_on_c, 0, 60, 58
2, 18286, Note_on_c, 0, 72, 83
2, 18286, Note_on_c, 0, 70, 78
2, 18294, Note_on_c, 0, 64, 66
2, 18294, Note_on_c, 0, 48, 55
2, 18295, Note_on_c, 0, 55, 54
2, 18333, Control_c, 0, 64, 127
2, 18388, Note_off_c, 0, 55, 64
2, 18401, Note_off_c, 0, 48, 64
2, 18420, Note_off_c, 0, 60, 64
2, 18443, Note_off_c, 0, 70, 64
2, 18448, Note_off_c, 0, 72, 64
2, 18450, Note_off_c, 0, 64, 64
2, 18669, Note_on_c, 0, 70, 78
2, 18673, Note_on_c, 0, 72, 83
2, 18678, Note_on_c, 0, 64, 75
2, 18678, Note_on_c, 0, 55, 64
2, 18679, Note_on_c, 0, 60, 66
2, 18686, Note_on_c, 0, 48, 51
2, 18739, Note_off_c, 0, 48, 64
2, 18744, Note_off_c, 0, 55, 64
2, 18746, Note_off_c, 0, 70, 64
2, 18751, Note_off_c, 0, 60, 64
2, 18754, Note_off_c, 0, 64, 64
2, 18758, Note_off_c, 0, 72, 64
2, 18920, Note_on_c, 0, 48, 64
2, 18928, Note_on_c, 0, 64, 75
2, 18935, Note_on_c, 0, 72, 82
2, 18935, Note_on_c, 0, 55, 56
2, 18936, Note_on_c, 0, 60, 67
2, 18954, Note_off_c, 0, 48, 64
2, 18970, Note_off_c, 0, 64, 64
2, 18975, Note_off_c, 0, 55, 64
2, 18976, Control_c, 0, 64, 0
2, 18977, Note_off_c, 0, 60, 64
2, 18992, Note_on_c, 0, 48, 40
2, 19000, Note_on_c, 0, 60, 67
2, 19001, Note_on_c, 0, 73, 83
2, 19010, Note_on_c, 0, 65, 94
2, 19016, Note_on_c, 0, 56, 67
2, 19020, Note_off_c, 0, 72, 64
2, 19031, Control_c, 0, 64, 127
2, 19141, Note_off_c, 0, 60, 64
2, 19143, Note_off_c, 0, 56, 64
2, 19151, Note_off_c, 0, 65, 64
2, 19151, Note_off_c, 0, 48, 64
2, 19274, Note_on_c, 0, 72, 82
2, 19286, Note_off_c, 0, 73, 64
2, 19341, Control_c, 0, 64, 0
2, 19354, Note_on_c, 0, 77, 86
2, 19354, Note_on_c, 0, 68, 97
2, 19354, Note_on_c, 0, 65, 77
2, 19355, Note_on_c, 0, 60, 78
2, 19393, Control_c, 0, 64, 127
2, 19404, Note_off_c, 0, 68, 64
2, 19425, Note_off_c, 0, 60, 64
2, 19430, Note_off_c, 0, 65, 64
2, 19443, Note_off_c, 0, 72, 64
2, 19609, Note_on_c, 0, 80, 78
2, 19612, Note_on_c, 0, 72, 87
2, 19612, Note_on_c, 0, 68, 83
2, 19612, Note_on_c, 0, 65, 77
2, 19612, Note_on_c, 0, 60, 77
2, 19639, Note_off_c, 0, 77, 64
2, 19645, Note_off_c, 0, 68, 64
2, 19650, Note_off_c, 0, 60, 64
2, 19650, Note_off_c, 0, 65, 64
2, 19665, Note_off_c, 0, 72, 64
2, 19690, Control_c, 0, 64, 0
2, 19704, Note_on_c, 0, 72, 83
2, 19704, Note_on_c, 0, 64, 83
2, 19706, Note_on_c, 0, 79, 94
2, 19708, Note_on_c, 0, 70, 86
2, 19708, Note_on_c, 0, 60, 75
2, 19730, Note_off_c, 0, 80, 64
2, 19746, Control_c, 0, 64, 127
2, 19880, Note_off_c, 0, 64, 64
2, 19889, Note_off_c, 0, 60, 64
2, 19891, Note_off_c, 0, 72, 64
2, 19895, Note_off_c, 0, 70, 64
2, 20059, Control_c, 0, 64, 0
2, 20068, Note_on_c, 0, 67, 62
2, 20068, Note_on_c, 0, 60, 83
2, 20072, Note_on_c, 0, 70, 81
2, 20074, Note_on_c, 0, 72, 94
2, 20091, Note_off_c, 0, 79, 64
2, 20108, Control_c, 0, 64, 127
2, 20252, Note_off_c, 0, 60, 64
2, 20258, Note_off_c, 0, 72, 64
2, 20269, Note_off_c, 0, 67, 64
2, 20274, Note_off_c, 0, 70, 64
2, 20472, Control_c, 0, 64, 0
2, 20488, Note_on_c, 0, 68, 79
2, 20490, Note_on_c, 0, 79, 88
2, 20490, Note_on_c, 0, 72, 83
2, 20490, Note_on_c, 0, 67, 54
2, 20492, Note_on_c, 0, 60, 70
2, 20499, Note_on_c, 0, 53, 62
2, 20534, Control_c, 0, 64, 127
2, 20761, Note_off_c, 0, 67, 64
2, 20763, Note_off_c, 0, 72, 64
2, 20897, Note_on_c, 0, 77, 59
2, 20901, Note_on_c, 0, 65, 56
2, 20912, Control_c, 0, 64, 0
2, 20915, Note_off_c, 0, 79, 64
2, 20944, Note_off_c, 0, 60, 64
2, 20959, Control_c, 0, 64, 127
2, 21192, Note_on_c, 0, 61, 47
2, 21197, Note_off_c, 0, 77, 64
2, 21197, Note_on_c, 0, 73, 65
2, 21240, Control_c, 0, 64, 0
2, 21247, Note_off_c, 0, 68, 64
2, 21262, Note_on_c, 0, 72, 65
2, 21264, Note_on_c, 0, 60, 67
2, 21270, Note_off_c, 0, 65, 64
2, 21276, Note_off_c, 0, 73, 64
2, 21278, Note_off_c, 0, 61, 64
2, 21298, Control_c, 0, 64, 127
2, 21377, Note_off_c, 0, 60, 64
2, 21390, Note_off_c, 0, 72, 64
2, 21399, Note_off_c, 0, 53, 64
2, 21649, Note_on_c, 0, 48, 61
2, 21651, Note_on_c, 0, 36, 70
2, 21663, Control_c, 0, 64, 0
2, 21718, Note_off_c, 0, 36, 64
2, 21722, Note_off_c, 0, 48, 64
2, 21932, Note_on_c, 0, 41, 51
2, 21934, Note_on_c, 0, 53, 66
2, 22027, Note_on_c, 0, 51, 63
2, 22033, Note_on_c, 0, 39, 62
2, 22039, Note_off_c, 0, 41, 64
2, 22041, Note_off_c, 0, 53, 64
2, 22420, Note_on_c, 0, 46, 78
2, 22426, Note_on_c, 0, 34, 69
2, 22447, Note_off_c, 0, 51, 64
2, 22472, Note_off_c, 0, 39, 64
2, 22493, Note_off_c, 0, 34, 64
2, 22504, Note_off_c, 0, 46, 64
2, 22721, Note_on_c, 0, 51, 66
2, 22729, Note_on_c, 0, 39, 61
2, 22812, Note_on_c, 0, 49, 64
2, 22814, Note_on_c, 0, 37, 81
2, 22820, Note_off_c, 0, 51, 64
2, 22826, Note_off_c, 0, 39, 64
2, 23204, Note_on_c, 0, 44, 87
2, 23207, Note_on_c, 0, 32, 79
2, 23231, Note_off_c, 0, 49, 64
2, 23242, Note_off_c, 0, 37, 64
2, 23303, Note_off_c, 0, 32, 64
2, 23325, Note_off_c, 0, 44, 64
2, 23527, Note_on_c, 0, 37, 72
2, 23531, Note_on_c, 0, 49, 78
2, 23628, Note_on_c, 0, 47, 86
2, 23628, Note_on_c, 0, 35, 85
2, 23638, Note_off_c, 0, 37, 64
2, 23643, Note_off_c, 0, 49, 64
2, 24009, Control_c, 0, 64, 127
2, 24157, Note_off_c, 0, 35, 64
2, 24180, Note_off_c, 0, 47, 64
2, 24648, Note_on_c, 0, 69, 66
2, 24654, Note_on_c, 0, 63, 49
2, 24655, Note_on_c, 0, 71, 67
2, 24656, Note_on_c, 0, 59, 34
2, 24656, Note_on_c, 0, 57, 37
2, 24656, Note_on_c, 0, 54, 37
2, 24664, Note_on_c, 0, 47, 43
2, 24679, Control_c, 0, 64, 0
2, 24716, Control_c, 0, 64, 127
2, 24784, Note_off_c, 0, 57, 64
2, 24817, Note_off_c, 0, 69, 64
2, 24832, Note_off_c, 0, 59, 64
2, 24849, Note_off_c, 0, 71, 64
2, 24864, Note_off_c, 0, 63, 64
2, 24869, Note_off_c, 0, 47, 64
2, 24872, Note_off_c, 0, 54, 64
2, 25044, Note_on_c, 0, 63, 68
2, 25044, Note_on_c, 0, 54, 58
2, 25048, Note_on_c, 0, 59, 56
2, 25049, Note_on_c, 0, 71, 73
2, 25055, Note_on_c, 0, 69, 71
2, 25055, Note_on_c, 0, 47, 49
2, 25075, Control_c, 0, 64, 0
2, 25090, Control_c, 0, 64, 127
2, 25149, Note_off_c, 0, 69, 64
2, 25150, Note_off_c, 0, 47, 64
2, 25153, Note_off_c, 0, 63, 64
2, 25159, Note_off_c, 0, 71, 64
2, 25159, Note_off_c, 0, 54, 64
2, 25170, Note_off_c, 0, 59, 64
2, 25333, Note_on_c, 0, 71, 70
2, 25336, Note_on_c, 0, 63, 68
2, 25336, Note_on_c, 0, 59, 68
2, 25336, Note_on_c, 0, 54, 59
2, 25336, Note_on_c, 0, 47, 68
2, 25368, Note_off_c, 0, 47, 64
2, 25384, Control_c, 0, 64, 0
2, 25385, Note_off_c, 0, 59, 64
2, 25385, Note_off_c, 0, 63, 64
2, 25388, Note_off_c, 0, 54, 64
2, 25400, Note_on_c, 0, 73, 85
2, 25408, Note_on_c, 0, 59, 57
2, 25408, Note_on_c, 0, 56, 73
2, 25408, Note_on_c, 0, 47, 58
2, 25409, Note_on_c, 0, 64, 81
2, 25416, Note_off_c, 0, 71, 64
2, 25421, Control_c, 0, 64, 127
2, 25560, Note_off_c, 0, 56, 64
2, 25628, Note_off_c, 0, 47, 64
2, 25631, Note_off_c, 0, 64, 64
2, 25661, Note_off_c, 0, 59, 64
2, 25663, Note_on_c, 0, 71, 72
2, 25685, Note_off_c, 0, 73, 64
2, 25746, Note_on_c, 0, 68, 73
2, 25750, Note_on_c, 0, 76, 79
2, 25750, Note_on_c, 0, 64, 81
2, 25750, Note_on_c, 0, 59, 73
2, 25758, Note_on_c, 0, 47, 72
2, 25769, Note_off_c, 0, 71, 64
2, 25782, Note_off_c, 0, 64, 64
2, 25791, Note_off_c, 0, 47, 64
2, 25795, Note_off_c, 0, 68, 64
2, 25801, Note_off_c, 0, 59, 64
2, 26035, Note_off_c, 0, 76, 64
2, 26044, Note_on_c, 0, 80, 73
2, 26044, Note_on_c, 0, 71, 55
2, 26044, Note_on_c, 0, 68, 69
2, 26044, Note_on_c, 0, 64, 54
2, 26044, Note_on_c, 0, 59, 68
2, 26077, Control_c, 0, 64, 0
2, 26082, Note_off_c, 0, 59, 64
2, 26082, Note_off_c, 0, 64, 64
2, 26082, Note_off_c, 0, 68, 64
2, 26082, Note_off_c, 0, 71, 64
2, 26104, Note_on_c, 0, 78, 85
2, 26104, Note_on_c, 0, 71, 68
2, 26104, Note_on_c, 0, 59, 73
2, 26105, Note_on_c, 0, 69, 78
2, 26105, Note_on_c, 0, 63, 85
2, 26119, Note_off_c, 0, 80, 64
2, 26127, Control_c, 0, 64, 127
2, 26242, Note_off_c, 0, 59, 64
2, 26245, Note_off_c, 0, 63, 64
2, 26291, Note_off_c, 0, 78, 64
2, 26306, Note_off_c, 0, 71, 64
2, 26307, Note_off_c, 0, 69, 64
2, 26472, Control_c, 0, 64, 0
2, 26498, Note_on_c, 0, 59, 68
2, 26498, Note_on_c, 0, 54, 65
2, 26499, Note_on_c, 0, 63, 74
2, 26506, Note_on_c, 0, 47, 73
2, 26510, Note_on_c, 0, 71, 89
2, 26514, Note_on_c, 0, 69, 78
2, 26525, Control_c, 0, 64, 127
2, 26600, Note_off_c, 0, 59, 64
2, 26601, Note_off_c, 0, 54, 64
2, 26607, Note_off_c, 0, 69, 64
2, 26609, Note_off_c, 0, 63, 64
2, 26614, Note_off_c, 0, 47, 64
2, 26627, Note_off_c, 0, 71, 64
2, 26827, Note_on_c, 0, 40, 73
2, 26874, Note_on_c, 0, 47, 71
2, 26925, Note_on_c, 0, 56, 79
2, 26926, Control_c, 0, 64, 0
2, 26940, Note_on_c, 0, 68, 73
2, 26969, Note_on_c, 0, 74, 73
2, 26992, Note_on_c, 0, 83, 95
2, 27012, Control_c, 0, 64, 127
2, 27116, Note_off_c, 0, 47, 64
2, 27130, Note_off_c, 0, 40, 64
2, 27166, Note_off_c, 0, 74, 64
2, 27184, Note_off_c, 0, 68, 64
2, 27184, Note_off_c, 0, 56, 64
2, 27388, Note_on_c, 0, 82, 80
2, 27391, Note_on_c, 0, 58, 70
2, 27395, Note_on_c, 0, 68, 75
2, 27398, Note_on_c, 0, 74, 78
2, 27407, Note_off_c, 0, 83, 64
2, 27493, Note_off_c, 0, 58, 64
2, 27502, Note_off_c, 0, 74, 64
2, 27516, Note_off_c, 0, 68, 64
2, 27700, Note_on_c, 0, 80, 78
2, 27700, Note_on_c, 0, 74, 71
2, 27704, Note_on_c, 0, 68, 73
2, 27704, Note_on_c, 0, 59, 73
2, 27713, Note_off_c, 0, 82, 64
2, 27737, Note_off_c, 0, 68, 64
2, 27738, Note_off_c, 0, 74, 64
2, 27738, Note_off_c, 0, 80, 64
2, 27740, Note_off_c, 0, 59, 64
2, 27792, Note_on_c, 0, 84, 81
2, 27792, Note_on_c, 0, 72, 73
2, 27792, Note_on_c, 0, 63, 82
2, 27792, Note_on_c, 0, 56, 35
2, 27796, Note_on_c, 0, 80, 81
2, 27796, Note_on_c, 0, 75, 81
2, 27796, Note_on_c, 0, 51, 85
2, 27797, Note_on_c, 0, 60, 65
2, 27810, Control_c, 0, 64, 0
2, 27863, Control_c, 0, 64, 127
2, 27980, Note_off_c, 0, 56, 64
2, 27980, Note_off_c, 0, 60, 64
2, 27984, Note_off_c, 0, 51, 64
2, 27984, Note_off_c, 0, 75, 64
2, 27989, Note_off_c, 0, 63, 64
2, 27991, Note_off_c, 0, 84, 64
2, 27995, Note_off_c, 0, 80, 64
2, 28015, Note_off_c, 0, 72, 64
2, 28152, Note_on_c, 0, 84, 85
2, 28152, Note_on_c, 0, 79, 81
2, 28156, Note_on_c, 0, 55, 60
2, 28156, Note_on_c, 0, 52, 74
2, 28159, Note_on_c, 0, 60, 74
2, 28160, Note_on_c, 0, 72, 81
2, 28160, Note_on_c, 0, 64, 74
2, 28300, Note_off_c, 0, 52, 64
2, 28300, Note_off_c, 0, 55, 64
2, 28303, Note_off_c, 0, 64, 64
2, 28303, Note_off_c, 0, 60, 64
2, 28437, Note_off_c, 0, 79, 64
2, 28437, Note_off_c, 0, 84, 64
2, 28444, Note_on_c, 0, 70, 80
2, 28445, Note_off_c, 0, 72, 64
2, 28448, Note_on_c, 0, 82, 75
2, 28474, Control_c, 0, 64, 0
2, 28493, Note_off_c, 0, 82, 64
2, 28493, Note_off_c, 0, 70, 64
2, 28509, Note_on_c, 0, 82, 73
2, 28512, Note_on_c, 0, 77, 70
2, 28512, Note_on_c, 0, 70, 68
2, 28513, Note_on_c, 0, 72, 68
2, 28517, Note_on_c, 0, 65, 75
2, 28518, Note_on_c, 0, 60, 75
2, 28518, Note_on_c, 0, 53, 73
2, 28538, Control_c, 0, 64, 127
2, 28636, Note_off_c, 0, 65, 64
2, 28658, Note_off_c, 0, 60, 64
2, 28664, Note_off_c, 0, 53, 64
2, 28666, Note_off_c, 0, 77, 64
2, 28667, Note_off_c, 0, 72, 64
2, 28804, Note_on_c, 0, 68, 60
2, 28808, Note_on_c, 0, 80, 75
2, 28814, Note_off_c, 0, 82, 64
2, 28817, Note_off_c, 0, 70, 64
2, 28832, Control_c, 0, 64, 0
2, 28862, Note_on_c, 0, 34, 73
2, 28863, Note_on_c, 0, 46, 87
2, 28864, Note_on_c, 0, 77, 79
2, 28869, Note_on_c, 0, 73, 67
2, 28874, Note_on_c, 0, 65, 79
2, 28881, Control_c, 0, 64, 127
2, 28902, Note_off_c, 0, 77, 64
2, 28914, Note_off_c, 0, 73, 64
2, 28917, Note_off_c, 0, 65, 64
2, 28919, Note_off_c, 0, 68, 64
2, 28922, Note_off_c, 0, 46, 64
2, 28923, Note_off_c, 0, 80, 64
2, 28939, Note_off_c, 0, 34, 64
2, 29156, Note_on_c, 0, 61, 81
2, 29156, Note_on_c, 0, 54, 79
2, 29160, Note_on_c, 0, 66, 76
2, 29215, Note_off_c, 0, 66, 64
2, 29232, Note_on_c, 0, 42, 81
2, 29234, Note_on_c, 0, 70, 85
2, 29236, Note_on_c, 0, 66, 54
2, 29239, Note_on_c, 0, 58, 85
2, 29249, Control_c, 0, 64, 0
2, 29274, Control_c, 0, 64, 127
2, 29385, Note_off_c, 0, 66, 64
2, 29395, Note_off_c, 0, 54, 64
2, 29395, Note_off_c, 0, 61, 64
2, 29401, Note_off_c, 0, 58, 64
2, 29420, Note_off_c, 0, 42, 64
2, 29635, Control_c, 0, 64, 0
2, 29644, Note_on_c, 0, 64, 73
2, 29644, Note_on_c, 0, 58, 66
2, 29644, Note_on_c, 0, 55, 57
2, 29644, Note_on_c, 0, 48, 47
2, 29645, Note_on_c, 0, 60, 65
2, 29645, Note_on_c, 0, 36, 56
2, 29659, Note_off_c, 0, 70, 64
2, 29697, Control_c, 0, 64, 127
2, 29892, Control_c, 0, 64, 0
2, 29944, Control_c, 0, 64, 127
2, 30068, Control_c, 0, 64, 0
2, 30088, Note_on_c, 0, 65, 72
2, 30088, Note_on_c, 0, 41, 56
2, 30088, Note_on_c, 0, 29, 56
2, 30099, Note_off_c, 0, 48, 64
2, 30099, Note_off_c, 0, 55, 64
2, 30099, Note_off_c, 0, 58, 64
2, 30099, Note_off_c, 0, 64, 64
2, 30100, Note_off_c, 0, 36, 64
2, 30100, Note_off_c, 0, 60, 64
2, 30120, Control_c, 0, 64, 127
2, 30222, Note_off_c, 0, 29, 64
2, 30222, Note_off_c, 0, 41, 64
2, 30516, Note_on_c, 0, 60, 45
2, 30516, Note_on_c, 0, 57, 39
2, 30520, Note_on_c, 0, 53, 37
2, 30528, Note_on_c, 0, 48, 36
2, 30596, Note_off_c, 0, 53, 64
2, 30609, Note_off_c, 0, 48, 64
2, 30644, Note_off_c, 0, 65, 64
2, 30679, Note_off_c, 0, 57, 64
2, 30679, Note_off_c, 0, 60, 64
2, 30929, Control_c, 0, 64, 0
2, 30943, Note_on_c, 0, 69, 73
2, 30951, Note_on_c, 0, 38, 45
2, 30991, Control_c, 0, 64, 127
2, 31040, Note_off_c, 0, 38, 64
2, 31221, Note_off_c, 0, 69, 64
2, 31370, Note_on_c, 0, 69, 53
2, 31373, Note_on_c, 0, 65, 54
2, 31381, Note_on_c, 0, 59, 44
2, 31389, Note_on_c, 0, 43, 36
2, 31392, Note_on_c, 0, 55, 35
2, 31397, Note_on_c, 0, 50, 35
2, 31448, Note_off_c, 0, 55, 64
2, 31449, Note_off_c, 0, 50, 64
2, 31463, Note_off_c, 0, 43, 64
2, 31511, Note_off_c, 0, 69, 64
2, 31530, Note_off_c, 0, 65, 64
2, 31571, Note_off_c, 0, 59, 64
2, 31696, Note_on_c, 0, 69, 67
2, 31741, Note_off_c, 0, 69, 64
2, 31767, Note_on_c, 0, 36, 50
2, 31775, Note_on_c, 0, 69, 62
2, 31783, Control_c, 0, 64, 0
2, 31819, Control_c, 0, 64, 127
2, 31875, Note_off_c, 0, 36, 64
2, 32135, Note_on_c, 0, 48, 32
2, 32136, Note_on_c, 0, 64, 26
2, 32140, Note_on_c, 0, 58, 40
2, 32140, Note_on_c, 0, 55, 29
2, 32235, Note_off_c, 0, 55, 64
2, 32251, Note_off_c, 0, 48, 64
2, 32273, Note_off_c, 0, 58, 64
2, 32285, Note_off_c, 0, 64, 64
2, 32312, Note_on_c, 0, 67, 73
2, 32328, Note_off_c, 0, 69, 64
2, 32499, Note_on_c, 0, 65, 73
2, 32505, Note_on_c, 0, 50, 50
2, 32506, Note_on_c, 0, 60, 57
2, 32510, Note_on_c, 0, 57, 57
2, 32510, Note_on_c, 0, 38, 45
2, 32519, Note_off_c, 0, 67, 64
2, 32522, Control_c, 0, 64, 0
2, 32560, Control_c, 0, 64, 127
2, 32586, Note_off_c, 0, 38, 64
2, 32592, Note_off_c, 0, 60, 64
2, 32597, Note_off_c, 0, 57, 64
2, 32616, Note_off_c, 0, 50, 64
2, 32787, Note_on_c, 0, 67, 68
2, 32804, Note_off_c, 0, 65, 64
2, 32833, Control_c, 0, 64, 0
2, 32856, Note_on_c, 0, 69, 75
2, 32863, Note_on_c, 0, 65, 70
2, 32864, Note_on_c, 0, 43, 52
2, 32868, Note_on_c, 0, 31, 53
2, 32872, Note_on_c, 0, 59, 52
2, 32879, Note_off_c, 0, 67, 64
2, 32885, Control_c, 0, 64, 127
2, 32923, Note_off_c, 0, 65, 64
2, 32925, Note_off_c, 0, 43, 64
2, 32938, Note_off_c, 0, 59, 64
2, 32952, Note_off_c, 0, 31, 64
2, 33125, Note_on_c, 0, 71, 73
2, 33161, Note_off_c, 0, 69, 64
2, 33194, Control_c, 0, 64, 0
2, 33205, Note_on_c, 0, 24, 52
2, 33206, Note_on_c, 0, 72, 87
2, 33206, Note_on_c, 0, 64, 66
2, 33217, Note_on_c, 0, 36, 36
2, 33235, Note_off_c, 0, 71, 64
2, 33247, Control_c, 0, 64, 127
2, 33306, Note_off_c, 0, 24, 64
2, 33311, Note_off_c, 0, 64, 64
2, 33324, Note_off_c, 0, 36, 64
2, 33587, Note_on_c, 0, 67, 75
2, 33591, Note_off_c, 0, 72, 64
2, 33591, Note_on_c, 0, 52, 56
2, 33598, Note_on_c, 0, 60, 35
2, 33609, Control_c, 0, 64, 0
2, 33645, Control_c, 0, 64, 127
2, 33727, Note_off_c, 0, 60, 64
2, 33733, Note_off_c, 0, 52, 64
2, 33772, Note_off_c, 0, 67, 64
2, 33954, Note_on_c, 0, 67, 63
2, 33962, Note_on_c, 0, 41, 64
2, 33988, Control_c, 0, 64, 0
2, 34023, Control_c, 0, 64, 127
2, 34079, Note_off_c, 0, 41, 64
2, 34140, Note_off_c, 0, 67, 64
2, 34322, Note_on_c, 0, 67, 69
2, 34330, Note_on_c, 0, 63, 39
2, 34331, Note_on_c, 0, 60, 47
2, 34334, Note_on_c, 0, 53, 45
2, 34340, Note_on_c, 0, 57, 33
2, 34450, Note_off_c, 0, 53, 64
2, 34465, Note_off_c, 0, 67, 64
2, 34467, Note_off_c, 0, 60, 64
2, 34476, Note_off_c, 0, 57, 64
2, 34482, Note_off_c, 0, 63, 64
2, 34623, Note_on_c, 0, 67, 76
2, 34670, Note_off_c, 0, 67, 64
2, 34683, Control_c, 0, 64, 0
2, 34700, Note_on_c, 0, 67, 81
2, 34705, Note_on_c, 0, 34, 68
2, 34724, Control_c, 0, 64, 127
2, 34804, Note_off_c, 0, 34, 64
2, 35057, Note_on_c, 0, 56, 35
2, 35064, Note_on_c, 0, 62, 45
2, 35064, Note_on_c, 0, 46, 39
2, 35142, Note_off_c, 0, 46, 64
2, 35174, Note_off_c, 0, 56, 64
2, 35186, Note_off_c, 0, 62, 64
2, 35231, Note_on_c, 0, 65, 73
2, 35255, Note_off_c, 0, 67, 64
2, 35401, Note_on_c, 0, 63, 61
2, 35404, Note_on_c, 0, 58, 65
2, 35411, Control_c, 0, 64, 0
2, 35415, Note_on_c, 0, 55, 51
2, 35416, Note_off_c, 0, 65, 64
2, 35416, Note_on_c, 0, 36, 51
2, 35424, Note_on_c, 0, 48, 33
2, 35456, Control_c, 0, 64, 127
2, 35483, Note_off_c, 0, 55, 64
2, 35494, Note_off_c, 0, 36, 64
2, 35509, Note_off_c, 0, 58, 64
2, 35522, Note_off_c, 0, 48, 64
2, 35664, Note_on_c, 0, 65, 54
2, 35716, Note_off_c, 0, 63, 64
2, 35742, Note_off_c, 0, 65, 64
2, 35744, Note_on_c, 0, 63, 72
2, 35748, Note_on_c, 0, 67, 65
2, 35752, Note_on_c, 0, 57, 61
2, 35752, Note_on_c, 0, 41, 58
2, 35758, Note_on_c, 0, 29, 54
2, 35796, Note_off_c, 0, 57, 64
2, 35802, Note_off_c, 0, 63, 64
2, 35805, Note_off_c, 0, 29, 64
2, 35820, Note_off_c, 0, 41, 64
2, 36032, Note_on_c, 0, 69, 54
2, 36063, Control_c, 0, 64, 0
2, 36083, Note_off_c, 0, 67, 64
2, 36096, Note_on_c, 0, 70, 81
2, 36096, Note_on_c, 0, 62, 67
2, 36096, Note_on_c, 0, 46, 74
2, 36104, Note_on_c, 0, 34, 59
2, 36121, Control_c, 0, 64, 127
2, 36135, Note_off_c, 0, 69, 64
2, 36162, Note_off_c, 0, 46, 64
2, 36183, Note_off_c, 0, 62, 64
2, 36236, Note_off_c, 0, 34, 64
2, 36263, Note_off_c, 0, 70, 64
2, 36475, Note_on_c, 0, 53, 54
2, 36479, Note_on_c, 0, 65, 74
2, 36487, Note_on_c, 0, 62, 46
2, 36590, Note_off_c, 0, 62, 64
2, 36614, Note_off_c, 0, 53, 64
2, 36652, Note_off_c, 0, 65, 64
2, 36806, Control_c, 0, 64, 0
2, 36825, Note_on_c, 0, 65, 62
2, 36825, Note_on_c, 0, 37, 47
2, 36854, Control_c, 0, 64, 127
2, 36864, Note_off_c, 0, 37, 64
2, 37007, Note_off_c, 0, 65, 64
2, 37216, Note_on_c, 0, 56, 42
2, 37219, Note_on_c, 0, 61, 36
2, 37220, Note_on_c, 0, 65, 64
2, 37220, Note_on_c, 0, 53, 44
2, 37220, Note_on_c, 0, 49, 32
2, 37220, Note_on_c, 0, 44, 36
2, 37296, Note_off_c, 0, 49, 64
2, 37310, Note_off_c, 0, 44, 64
2, 37316, Note_off_c, 0, 56, 64
2, 37320, Note_off_c, 0, 53, 64
2, 37331, Note_off_c, 0, 65, 64
2, 37334, Note_off_c, 0, 61, 64
2, 37520, Note_on_c, 0, 65, 67
2, 37560, Note_off_c, 0, 65, 64
2, 37560, Control_c, 0, 64, 0
2, 37596, Note_on_c, 0, 65, 62
2, 37596, Note_on_c, 0, 32, 58
2, 37614, Control_c, 0, 64, 127
2, 37679, Note_off_c, 0, 32, 64
2, 37956, Note_on_c, 0, 60, 30
2, 37956, Note_on_c, 0, 56, 30
2, 37956, Note_on_c, 0, 54, 43
2, 37956, Note_on_c, 0, 51, 43
2, 37960, Note_on_c, 0, 44, 38
2, 38101, Note_off_c, 0, 51, 64
2, 38101, Note_off_c, 0, 54, 64
2, 38101, Note_off_c, 0, 56, 64
2, 38101, Note_off_c, 0, 60, 64
2, 38105, Note_off_c, 0, 44, 64
2, 38119, Note_on_c, 0, 63, 59
2, 38141, Note_off_c, 0, 65, 64
2, 38262, Control_c, 0, 64, 0
2, 38284, Note_on_c, 0, 61, 61
2, 38286, Note_on_c, 0, 37, 59
2, 38291, Note_on_c, 0, 53, 50
2, 38298, Note_off_c, 0, 63, 64
2, 38311, Control_c, 0, 64, 127
2, 38340, Note_off_c, 0, 53, 64
2, 38345, Note_off_c, 0, 37, 64
2, 38545, Note_on_c, 0, 56, 52
2, 38551, Note_on_c, 0, 63, 55
2, 38580, Note_off_c, 0, 61, 64
2, 38588, Control_c, 0, 64, 0
2, 38604, Note_off_c, 0, 56, 64
2, 38610, Note_on_c, 0, 65, 68
2, 38619, Note_on_c, 0, 61, 46
2, 38620, Note_on_c, 0, 44, 30
2, 38624, Note_on_c, 0, 56, 29
2, 38624, Note_on_c, 0, 49, 24
2, 38637, Note_off_c, 0, 63, 64
2, 38648, Control_c, 0, 64, 127
2, 38739, Note_off_c, 0, 61, 64
2, 38740, Note_off_c, 0, 44, 64
2, 38744, Note_off_c, 0, 49, 64
2, 38744, Note_off_c, 0, 56, 64
2, 38861, Note_on_c, 0, 58, 54
2, 38867, Note_on_c, 0, 70, 62
2, 38895, Note_off_c, 0, 65, 64
2, 38906, Note_off_c, 0, 58, 64
2, 38927, Note_off_c, 0, 70, 64
2, 38935, Note_on_c, 0, 68, 72
2, 38935, Note_on_c, 0, 60, 62
2, 38940, Note_on_c, 0, 32, 52
2, 38940, Control_c, 0, 64, 0
2, 38988, Control_c, 0, 64, 127
2, 39028, Note_off_c, 0, 32, 64
2, 39288, Note_on_c, 0, 56, 32
2, 39288, Note_on_c, 0, 51, 28
2, 39290, Note_on_c, 0, 63, 56
2, 39344, Note_off_c, 0, 63, 64
2, 39345, Note_off_c, 0, 56, 64
2, 39350, Note_off_c, 0, 51, 64
2, 39456, Note_on_c, 0, 66, 62
2, 39464, Note_off_c, 0, 68, 64
2, 39486, Note_off_c, 0, 60, 64
2, 39609, Control_c, 0, 64, 0
2, 39625, Note_on_c, 0, 37, 56
2, 39629, Note_on_c, 0, 65, 66
2, 39633, Note_on_c, 0, 61, 55
2, 39637, Note_off_c, 0, 66, 64
2, 39664, Control_c, 0, 64, 127
2, 39692, Note_off_c, 0, 37, 64
2, 39782, Note_off_c, 0, 61, 64
2, 39889, Note_on_c, 0, 66, 59
2, 39924, Note_off_c, 0, 65, 64
2, 39938, Control_c, 0, 64, 0
2, 39955, Note_on_c, 0, 67, 63
2, 39959, Note_on_c, 0, 49, 52
2, 39960, Note_on_c, 0, 60, 66
2, 39967, Note_on_c, 0, 53, 55
2, 39972, Note_off_c, 0, 66, 64
2, 39986, Control_c, 0, 64, 127
2, 40046, Note_off_c, 0, 49, 64
2, 40047, Note_off_c, 0, 60, 64
2, 40054, Note_off_c, 0, 53, 64
2, 40207, Note_on_c, 0, 59, 47
2, 40214, Note_on_c, 0, 68, 62
2, 40240, Note_off_c, 0, 67, 64
2, 40244, Note_off_c, 0, 59, 64
2, 40259, Control_c, 0, 64, 0
2, 40279, Note_on_c, 0, 36, 54
2, 40283, Note_on_c, 0, 69, 57
2, 40289, Note_on_c, 0, 65, 62
2, 40293, Note_on_c, 0, 57, 52
2, 40309, Control_c, 0, 64, 127
2, 40324, Note_off_c, 0, 68, 64
2, 40359, Note_off_c, 0, 57, 64
2, 40370, Note_off_c, 0, 65, 64
2, 40373, Note_off_c, 0, 36, 64
2, 40536, Note_on_c, 0, 70, 59
2, 40539, Note_on_c, 0, 67, 51
2, 40578, Note_off_c, 0, 69, 64
2, 40600, Control_c, 0, 64, 0
2, 40606, Note_off_c, 0, 67, 64
2, 40613, Note_on_c, 0, 71, 62
2, 40614, Note_on_c, 0, 57, 57
2, 40617, Note_on_c, 0, 68, 67
2, 40629, Note_on_c, 0, 65, 38
2, 40640, Control_c, 0, 64, 127
2, 40651, Note_off_c, 0, 70, 64
2, 40673, Note_off_c, 0, 68, 64
2, 40690, Note_off_c, 0, 57, 64
2, 40698, Note_off_c, 0, 65, 64
2, 40848, Note_on_c, 0, 72, 66
2, 40848, Note_on_c, 0, 69, 56
2, 40868, Note_off_c, 0, 71, 64
2, 40885, Note_off_c, 0, 69, 64
2, 40885, Note_off_c, 0, 72, 64
2, 40911, Note_on_c, 0, 72, 67
2, 40933, Control_c, 0, 64, 0
2, 40940, Note_on_c, 0, 48, 58
2, 40960, Note_on_c, 0, 81, 67
2, 40976, Control_c, 0, 64, 127
2, 41044, Note_off_c, 0, 72, 64
2, 41052, Note_off_c, 0, 48, 64
2, 41320, Note_on_c, 0, 79, 67
2, 41324, Note_on_c, 0, 60, 47
2, 41328, Note_on_c, 0, 70, 56
2, 41331, Note_off_c, 0, 81, 64
2, 41334, Note_on_c, 0, 64, 39
2, 41350, Control_c, 0, 64, 0
2, 41376, Control_c, 0, 64, 127
2, 41446, Note_off_c, 0, 64, 64
2, 41459, Note_off_c, 0, 60, 64
2, 41613, Note_off_c, 0, 70, 64
2, 41703, Note_on_c, 0, 77, 67
2, 41704, Note_on_c, 0, 69, 39
2, 41709, Control_c, 0, 64, 0
2, 41713, Note_on_c, 0, 41, 38
2, 41715, Note_off_c, 0, 79, 64
2, 41749, Control_c, 0, 64, 127
2, 41796, Note_off_c, 0, 41, 64
2, 41953, Note_off_c, 0, 77, 64
2, 41954, Note_off_c, 0, 69, 64
2, 42097, Note_on_c, 0, 69, 64
2, 42107, Note_on_c, 0, 53, 54
2, 42112, Note_on_c, 0, 65, 35
2, 42112, Note_on_c, 0, 60, 42
2, 42178, Note_off_c, 0, 65, 64
2, 42194, Note_off_c, 0, 60, 64
2, 42210, Note_off_c, 0, 53, 64
2, 42473, Note_on_c, 0, 38, 70
2, 42600, Note_off_c, 0, 38, 64
2, 42700, Note_off_c, 0, 69, 64
2, 42824, Note_on_c, 0, 59, 20
2, 42824, Note_on_c, 0, 55, 35
2, 42824, Note_on_c, 0, 50, 22
2, 42829, Note_on_c, 0, 69, 55
2, 42832, Note_on_c, 0, 62, 48
2, 42837, Note_on_c, 0, 65, 50
2, 42840, Control_c, 0, 64, 0
2, 42877, Control_c, 0, 64, 127
2, 42988, Note_off_c, 0, 50, 64
2, 42988, Note_off_c, 0, 55, 64
2, 42988, Note_off_c, 0, 59, 64
2, 42996, Note_off_c, 0, 62, 64
2, 42997, Note_off_c, 0, 69, 64
2, 43001, Note_off_c, 0, 65, 64
2, 43078, Control_c, 0, 64, 127
2, 43112, Note_on_c, 0, 69, 45
2, 43163, Note_off_c, 0, 69, 64
2, 43187, Control_c, 0, 64, 0
2, 43193, Note_on_c, 0, 69, 62
2, 43194, Note_on_c, 0, 36, 55
2, 43238, Control_c, 0, 64, 127
2, 43276, Note_off_c, 0, 36, 64
2, 43520, Note_on_c, 0, 48, 40
2, 43524, Note_on_c, 0, 64, 40
2, 43524, Note_on_c, 0, 58, 39
2, 43524, Note_on_c, 0, 55, 28
2, 43528, Note_on_c, 0, 60, 42
2, 43631, Note_off_c, 0, 55, 64
2, 43631, Note_off_c, 0, 58, 64
2, 43635, Note_off_c, 0, 60, 64
2, 43645, Note_off_c, 0, 64, 64
2, 43698, Note_on_c, 0, 67, 51
2, 43717, Note_off_c, 0, 48, 64
2, 43718, Note_off_c, 0, 69, 64
2, 43861, Control_c, 0, 64, 0
2, 43868, Note_on_c, 0, 65, 55
2, 43877, Note_on_c, 0, 60, 48
2, 43882, Note_on_c, 0, 57, 45
2, 43882, Note_on_c, 0, 50, 38
2, 43882, Note_on_c, 0, 38, 42
2, 43904, Control_c, 0, 64, 127
2, 43918, Note_off_c, 0, 67, 64
2, 43949, Note_off_c, 0, 38, 64
2, 43949, Note_off_c, 0, 60, 64
2, 43970, Note_off_c, 0, 57, 64
2, 43972, Note_off_c, 0, 50, 64
2, 44130, Note_on_c, 0, 67, 50
2, 44153, Note_off_c, 0, 65, 64
2, 44182, Control_c, 0, 64, 0
2, 44201, Note_on_c, 0, 69, 56
2, 44208, Note_on_c, 0, 43, 45
2, 44209, Note_on_c, 0, 65, 55
2, 44209, Note_on_c, 0, 59, 55
2, 44209, Note_on_c, 0, 31, 50
2, 44230, Control_c, 0, 64, 127
2, 44255, Note_off_c, 0, 67, 64
2, 44259, Note_off_c, 0, 43, 64
2, 44260, Note_off_c, 0, 59, 64
2, 44262, Note_off_c, 0, 65, 64
2, 44277, Note_off_c, 0, 31, 64
2, 44449, Note_on_c, 0, 71, 48
2, 44486, Note_off_c, 0, 69, 64
2, 44523, Control_c, 0, 64, 0
2, 44533, Note_on_c, 0, 64, 50
2, 44534, Note_on_c, 0, 72, 60
2, 44540, Note_on_c, 0, 36, 35
2, 44541, Note_on_c, 0, 24, 47
2, 44561, Note_off_c, 0, 71, 64
2, 44561, Control_c, 0, 64, 127
2, 44621, Note_off_c, 0, 24, 64
2, 44631, Note_off_c, 0, 36, 64
2, 44632, Note_off_c, 0, 64, 64
2, 44886, Note_on_c, 0, 67, 59
2, 44889, Control_c, 0, 64, 0
2, 44895, Note_off_c, 0, 72, 64
2, 44895, Note_on_c, 0, 52, 34
2, 44903, Note_on_c, 0, 60, 35
2, 44926, Control_c, 0, 64, 127
2, 45002, Note_off_c, 0, 60, 64
2, 45009, Note_off_c, 0, 52, 64
2, 45054, Note_off_c, 0, 67, 64
2, 45236, Note_on_c, 0, 67, 39
2, 45248, Note_on_c, 0, 41, 46
2, 45263, Control_c, 0, 64, 0
2, 45280, Control_c, 0, 64, 127
2, 45353, Note_off_c, 0, 41, 64
2, 45400, Note_off_c, 0, 67, 64
2, 45588, Note_on_c, 0, 63, 46
2, 45592, Note_on_c, 0, 60, 24
2, 45593, Note_on_c, 0, 67, 55
2, 45596, Note_on_c, 0, 57, 23
2, 45598, Note_on_c, 0, 53, 35
2, 45613, Control_c, 0, 64, 0
2, 45631, Control_c, 0, 64, 127
2, 45732, Note_off_c, 0, 67, 64
2, 45734, Note_off_c, 0, 63, 64
2, 45735, Note_off_c, 0, 57, 64
2, 45738, Note_off_c, 0, 60, 64
2, 45744, Note_off_c, 0, 53, 64
2, 45870, Note_on_c, 0, 67, 55
2, 45916, Note_off_c, 0, 67, 64
2, 45948, Control_c, 0, 64, 0
2, 45957, Note_on_c, 0, 34, 53
2, 45965, Note_on_c, 0, 67, 62
2, 45993, Control_c, 0, 64, 127
2, 46043, Note_off_c, 0, 34, 64
2, 46296, Note_on_c, 0, 58, 17
2, 46296, Note_on_c, 0, 56, 33
2, 46296, Note_on_c, 0, 53, 17
2, 46300, Note_on_c, 0, 46, 39
2, 46303, Note_on_c, 0, 62, 39
2, 46405, Note_off_c, 0, 46, 64
2, 46420, Note_off_c, 0, 53, 64
2, 46420, Note_off_c, 0, 56, 64
2, 46420, Note_off_c, 0, 58, 64
2, 46427, Note_off_c, 0, 62, 64
2, 46468, Note_on_c, 0, 65, 55
2, 46490, Note_off_c, 0, 67, 64
2, 46628, Control_c, 0, 64, 0
2, 46634, Note_on_c, 0, 63, 53
2, 46644, Note_on_c, 0, 58, 53
2, 46645, Note_on_c, 0, 24, 40
2, 46650, Note_on_c, 0, 55, 39
2, 46659, Note_on_c, 0, 36, 26
2, 46667, Note_off_c, 0, 65, 64
2, 46681, Control_c, 0, 64, 127
2, 46725, Note_off_c, 0, 55, 64
2, 46725, Note_off_c, 0, 24, 64
2, 46730, Note_off_c, 0, 58, 64
2, 46747, Note_off_c, 0, 36, 64
2, 46882, Note_on_c, 0, 65, 51
2, 46919, Note_off_c, 0, 63, 64
2, 46939, Control_c, 0, 64, 0
2, 46964, Note_on_c, 0, 63, 53
2, 46964, Note_on_c, 0, 57, 34
2, 46964, Note_on_c, 0, 41, 34
2, 46966, Note_on_c, 0, 67, 63
2, 46968, Note_on_c, 0, 29, 53
2, 46991, Control_c, 0, 64, 127
2, 46992, Note_off_c, 0, 65, 64
2, 47019, Note_off_c, 0, 29, 64
2, 47032, Note_off_c, 0, 41, 64
2, 47034, Note_off_c, 0, 57, 64
2, 47034, Note_off_c, 0, 63, 64
2, 47212, Note_on_c, 0, 69, 54
2, 47231, Note_off_c, 0, 67, 64
2, 47273, Control_c, 0, 64, 0
2, 47292, Note_on_c, 0, 62, 34
2, 47292, Note_on_c, 0, 58, 39
2, 47296, Note_on_c, 0, 70, 73
2, 47296, Note_on_c, 0, 46, 55
2, 47296, Note_on_c, 0, 34, 45
2, 47308, Control_c, 0, 64, 127
2, 47314, Note_off_c, 0, 69, 64
2, 47364, Note_off_c, 0, 58, 64
2, 47374, Note_off_c, 0, 62, 64
2, 47529, Note_off_c, 0, 34, 64
2, 47529, Note_off_c, 0, 46, 64
2, 47656, Note_on_c, 0, 65, 60
2, 47664, Note_on_c, 0, 58, 35
2, 47664, Note_on_c, 0, 50, 45
2, 47681, Note_off_c, 0, 70, 64
2, 47769, Note_off_c, 0, 58, 64
2, 47800, Note_off_c, 0, 50, 64
2, 47810, Note_off_c, 0, 65, 64
2, 48008, Note_on_c, 0, 65, 48
2, 48011, Note_on_c, 0, 37, 46
2, 48028, Control_c, 0, 64, 0
2, 48085, Control_c, 0, 64, 127
2, 48144, Note_off_c, 0, 37, 64
2, 48273, Note_off_c, 0, 65, 64
2, 48374, Note_on_c, 0, 65, 41
2, 48376, Note_on_c, 0, 56, 26
2, 48380, Note_on_c, 0, 61, 37
2, 48380, Note_on_c, 0, 53, 20
2, 48380, Note_on_c, 0, 44, 24
2, 48384, Note_on_c, 0, 49, 24
2, 48486, Note_off_c, 0, 65, 64
2, 48493, Note_off_c, 0, 56, 64
2, 48503, Note_off_c, 0, 53, 64
2, 48507, Note_off_c, 0, 44, 64
2, 48511, Note_off_c, 0, 49, 64
2, 48511, Note_off_c, 0, 61, 64
2, 48637, Note_on_c, 0, 65, 58
2, 48681, Note_off_c, 0, 65, 64
2, 48684, Control_c, 0, 64, 0
2, 48711, Note_on_c, 0, 65, 58
2, 48718, Note_on_c, 0, 32, 42
2, 48738, Control_c, 0, 64, 127
2, 48827, Note_off_c, 0, 32, 64
2, 49048, Note_on_c, 0, 56, 22
2, 49055, Note_on_c, 0, 60, 42
2, 49056, Note_on_c, 0, 54, 30
2, 49056, Note_on_c, 0, 51, 22
2, 49056, Note_on_c, 0, 44, 25
2, 49182, Note_off_c, 0, 56, 64
2, 49190, Note_off_c, 0, 44, 64
2, 49190, Note_off_c, 0, 51, 64
2, 49190, Note_off_c, 0, 54, 64
2, 49227, Note_off_c, 0, 60, 64
2, 49229, Note_on_c, 0, 63, 50
2, 49236, Note_off_c, 0, 65, 64
2, 49366, Control_c, 0, 64, 0
2, 49388, Note_on_c, 0, 61, 53
2, 49389, Note_on_c, 0, 37, 45
2, 49400, Note_on_c, 0, 53, 37
2, 49410, Note_off_c, 0, 63, 64
2, 49424, Control_c, 0, 64, 127
2, 49455, Note_off_c, 0, 53, 64
2, 49457, Note_off_c, 0, 37, 64
2, 49632, Note_on_c, 0, 56, 44
2, 49637, Note_on_c, 0, 63, 44
2, 49672, Note_off_c, 0, 56, 64
2, 49673, Note_off_c, 0, 61, 64
2, 49688, Note_on_c, 0, 56, 20
2, 49695, Note_off_c, 0, 63, 64
2, 49696, Note_on_c, 0, 44, 36
2, 49698, Note_on_c, 0, 65, 58
2, 49698, Note_on_c, 0, 61, 58
2, 49704, Note_on_c, 0, 49, 49
2, 49759, Note_off_c, 0, 61, 64
2, 49808, Note_off_c, 0, 44, 64
2, 49811, Note_off_c, 0, 56, 64
2, 49812, Note_off_c, 0, 49, 64
2, 49944, Note_on_c, 0, 58, 50
2, 49953, Note_on_c, 0, 70, 55
2, 49992, Note_off_c, 0, 58, 64
2, 50002, Control_c, 0, 64, 0
2, 50004, Note_off_c, 0, 65, 64
2, 50014, Note_off_c, 0, 70, 64
2, 50017, Note_on_c, 0, 60, 62
2, 50022, Note_on_c, 0, 68, 57
2, 50023, Note_on_c, 0, 32, 57
2, 50059, Control_c, 0, 64, 127
2, 50113, Note_off_c, 0, 32, 64
2, 50347, Note_on_c, 0, 51, 46
2, 50350, Note_on_c, 0, 63, 49
2, 50356, Note_on_c, 0, 56, 36
2, 50394, Note_off_c, 0, 63, 64
2, 50402, Note_off_c, 0, 56, 64
2, 50408, Note_off_c, 0, 51, 64
2, 50507, Note_on_c, 0, 66, 69
2, 50537, Note_off_c, 0, 60, 64
2, 50547, Note_off_c, 0, 68, 64
2, 50650, Control_c, 0, 64, 0
2, 50667, Note_on_c, 0, 37, 62
2, 50674, Note_on_c, 0, 65, 73
2, 50674, Note_on_c, 0, 61, 66
2, 50692, Note_off_c, 0, 66, 64
2, 50717, Control_c, 0, 64, 127
2, 50739, Note_off_c, 0, 37, 64
2, 50772, Note_off_c, 0, 61, 64
2, 50928, Note_on_c, 0, 66, 52
2, 50959, Note_off_c, 0, 65, 64
2, 50989, Note_on_c, 0, 67, 71
2, 50993, Note_on_c, 0, 49, 66
2, 51000, Note_off_c, 0, 66, 64
2, 51000, Note_on_c, 0, 60, 63
2, 51006, Note_on_c, 0, 53, 50
2, 51051, Note_off_c, 0, 53, 64
2, 51057, Note_off_c, 0, 49, 64
2, 51064, Note_off_c, 0, 60, 64
2, 51232, Note_on_c, 0, 59, 50
2, 51238, Note_on_c, 0, 68, 69
2, 51267, Control_c, 0, 64, 0
2, 51271, Note_off_c, 0, 59, 64
2, 51274, Note_off_c, 0, 67, 64
2, 51293, Note_on_c, 0, 36, 75
2, 51301, Note_on_c, 0, 69, 69
2, 51305, Note_on_c, 0, 65, 75
2, 51309, Note_on_c, 0, 57, 61
2, 51328, Control_c, 0, 64, 127
2, 51337, Note_off_c, 0, 68, 64
2, 51351, Note_off_c, 0, 57, 64
2, 51360, Note_off_c, 0, 65, 64
2, 51371, Note_off_c, 0, 36, 64
2, 51540, Note_on_c, 0, 67, 66
2, 51543, Note_on_c, 0, 70, 61
2, 51586, Note_off_c, 0, 69, 64
2, 51594, Note_off_c, 0, 67, 64
2, 51599, Note_on_c, 0, 71, 69
2, 51604, Note_on_c, 0, 68, 77
2, 51611, Note_on_c, 0, 57, 64
2, 51616, Note_on_c, 0, 60, 58
2, 51619, Note_on_c, 0, 65, 45
2, 51648, Note_off_c, 0, 70, 64
2, 51655, Note_off_c, 0, 68, 64
2, 51683, Note_off_c, 0, 60, 64
2, 51688, Note_off_c, 0, 65, 64
2, 51693, Note_off_c, 0, 57, 64
2, 51830, Note_on_c, 0, 72, 73
2, 51831, Note_on_c, 0, 69, 66
2, 51858, Note_off_c, 0, 72, 64
2, 51862, Note_off_c, 0, 69, 64
2, 51884, Note_off_c, 0, 71, 64
2, 51886, Note_on_c, 0, 72, 74
2, 51929, Note_on_c, 0, 81, 80
2, 51935, Note_on_c, 0, 48, 63
2, 51938, Control_c, 0, 64, 0
2, 51968, Note_off_c, 0, 72, 64
2, 51988, Control_c, 0, 64, 127
2, 52042, Note_off_c, 0, 48, 64
2, 52296, Note_on_c, 0, 79, 70
2, 52296, Note_on_c, 0, 70, 61
2, 52300, Note_on_c, 0, 64, 57
2, 52305, Note_on_c, 0, 60, 53
2, 52314, Note_off_c, 0, 81, 64
2, 52609, Note_off_c, 0, 70, 64
2, 52615, Note_off_c, 0, 64, 64
2, 52767, Note_on_c, 0, 77, 66
2, 52771, Note_off_c, 0, 79, 64
2, 52775, Note_on_c, 0, 69, 65
2, 52775, Note_on_c, 0, 65, 49
2, 52782, Note_on_c, 0, 53, 37
2, 52790, Control_c, 0, 64, 0
2, 53030, Control_c, 0, 64, 127
2, 53273, Note_off_c, 0, 77, 64
2, 53287, Note_off_c, 0, 65, 64
2, 53288, Note_off_c, 0, 69, 64
2, 53299, Note_off_c, 0, 60, 64
2, 53319, Note_off_c, 0, 53, 64
2, 53563, Control_c, 0, 64, 0
2, 53931, Note_on_c, 0, 67, 80
2, 53931, Note_on_c, 0, 61, 83
2, 53940, Note_on_c, 0, 55, 73
2, 53940, Note_on_c, 0, 53, 81
2, 53940, Note_on_c, 0, 34, 83
2, 53946, Note_on_c, 0, 46, 89
2, 54198, Control_c, 0, 64, 127
2, 54496, Note_off_c, 0, 61, 64
2, 54509, Note_off_c, 0, 67, 64
2, 54516, Note_off_c, 0, 34, 64
2, 54539, Note_off_c, 0, 46, 64
2, 54539, Note_off_c, 0, 53, 64
2, 54544, Note_off_c, 0, 55, 64
2, 54726, Note_on_c, 0, 65, 66
2, 54726, Note_on_c, 0, 58, 64
2, 54736, Note_on_c, 0, 55, 49
2, 54736, Note_on_c, 0, 53, 55
2, 54741, Note_on_c, 0, 37, 63
2, 54742, Note_on_c, 0, 49, 62
2, 54751, Control_c, 0, 64, 0
2, 54806, Note_off_c, 0, 37, 64
2, 54812, Note_off_c, 0, 49, 64
2, 54812, Note_off_c, 0, 58, 64
2, 54813, Note_off_c, 0, 53, 64
2, 54813, Note_off_c, 0, 55, 64
2, 54822, Note_off_c, 0, 65, 64
2, 55037, Note_on_c, 0, 58, 68
2, 55037, Note_on_c, 0, 49, 71
2, 55044, Note_on_c, 0, 65, 61
2, 55044, Note_on_c, 0, 55, 55
2, 55044, Note_on_c, 0, 53, 57
2, 55044, Note_on_c, 0, 37, 66
2, 55074, Note_off_c, 0, 37, 64
2, 55077, Note_off_c, 0, 55, 64
2, 55083, Note_off_c, 0, 53, 64
2, 55084, Note_off_c, 0, 58, 64
2, 55088, Note_off_c, 0, 65, 64
2, 55088, Note_off_c, 0, 49, 64
2, 55120, Note_on_c, 0, 58, 56
2, 55126, Note_on_c, 0, 65, 62
2, 55126, Note_on_c, 0, 49, 58
2, 55130, Note_on_c, 0, 37, 60
2, 55131, Note_on_c, 0, 55, 48
2, 55131, Note_on_c, 0, 53, 48
2, 55187, Note_off_c, 0, 49, 64
2, 55194, Note_off_c, 0, 37, 64
2, 55200, Note_off_c, 0, 65, 64
2, 55201, Note_off_c, 0, 55, 64
2, 55207, Note_off_c, 0, 53, 64
2, 55209, Note_off_c, 0, 58, 64
2, 55512, Note_on_c, 0, 60, 43
2, 55512, Note_on_c, 0, 53, 45
2, 55515, Note_on_c, 0, 55, 48
2, 55521, Note_on_c, 0, 48, 38
2, 55521, Note_on_c, 0, 36, 39
2, 55590, Note_off_c, 0, 36, 64
2, 55594, Note_off_c, 0, 55, 64
2, 55596, Note_off_c, 0, 60, 64
2, 55601, Note_off_c, 0, 48, 64
2, 55603, Note_off_c, 0, 53, 64
2, 55917, Note_on_c, 0, 55, 39
2, 55917, Note_on_c, 0, 52, 36
2, 55918, Note_on_c, 0, 60, 44
2, 55918, Note_on_c, 0, 48, 37
2, 55918, Note_on_c, 0, 36, 41
2, 56004, Note_off_c, 0, 36, 64
2, 56009, Note_off_c, 0, 60, 64
2, 56011, Note_off_c, 0, 48, 64
2, 56012, Note_off_c, 0, 55, 64
2, 56020, Note_off_c, 0, 52, 64
2, 56330, Note_on_c, 0, 60, 45
2, 56330, Note_on_c, 0, 57, 45
2, 56330, Note_on_c, 0, 53, 35
2, 56342, Note_on_c, 0, 48, 35
2, 56342, Note_on_c, 0, 41, 35
2, 56495, Note_off_c, 0, 53, 64
2, 56495, Note_off_c, 0, 60, 64
2, 56498, Note_off_c, 0, 57, 64
2, 56510, Note_off_c, 0, 48, 64
2, 56512, Note_off_c, 0, 41, 64
2, 57230, Note_on_c, 0, 67, 46
2, 57231, Note_on_c, 0, 61, 46
2, 57237, Note_on_c, 0, 55, 43
2, 57238, Note_on_c, 0, 53, 44
2, 57250, Note_on_c, 0, 46, 58
2, 57252, Note_on_c, 0, 34, 53
2, 57382, Control_c, 0, 64, 127
2, 57772, Note_off_c, 0, 67, 64
2, 57775, Note_off_c, 0, 34, 64
2, 57793, Note_off_c, 0, 61, 64
2, 57795, Note_off_c, 0, 46, 64
2, 57816, Note_off_c, 0, 53, 64
2, 57826, Note_off_c, 0, 55, 64
2, 58126, Note_on_c, 0, 58, 38
2, 58132, Note_on_c, 0, 65, 38
2, 58132, Note_on_c, 0, 49, 41
2, 58132, Note_on_c, 0, 37, 38
2, 58133, Note_on_c, 0, 55, 36
2, 58133, Note_on_c, 0, 53, 37
2, 58165, Control_c, 0, 64, 0
2, 58242, Note_off_c, 0, 55, 64
2, 58244, Note_off_c, 0, 53, 64
2, 58244, Note_off_c, 0, 65, 64
2, 58251, Note_off_c, 0, 49, 64
2, 58255, Note_off_c, 0, 37, 64
2, 58255, Note_off_c, 0, 58, 64
2, 58462, Note_on_c, 0, 65, 37
2, 58462, Note_on_c, 0, 58, 43
2, 58465, Note_on_c, 0, 55, 37
2, 58466, Note_on_c, 0, 53, 38
2, 58474, Note_on_c, 0, 49, 46
2, 58474, Note_on_c, 0, 37, 43
2, 58507, Note_off_c, 0, 37, 64
2, 58509, Note_off_c, 0, 49, 64
2, 58512, Note_off_c, 0, 53, 64
2, 58515, Note_off_c, 0, 55, 64
2, 58519, Note_off_c, 0, 58, 64
2, 58527, Note_off_c, 0, 65, 64
2, 58551, Note_on_c, 0, 58, 36
2, 58551, Note_on_c, 0, 49, 40
2, 58556, Note_on_c, 0, 55, 17
2, 58557, Note_on_c, 0, 65, 37
2, 58557, Note_on_c, 0, 53, 19
2, 58557, Note_on_c, 0, 37, 39
2, 58711, Note_off_c, 0, 65, 64
2, 58712, Note_off_c, 0, 55, 64
2, 58714, Note_off_c, 0, 53, 64
2, 58725, Note_off_c, 0, 37, 64
2, 58732, Note_off_c, 0, 58, 64
2, 58736, Note_off_c, 0, 49, 64
2, 59396, Note_on_c, 0, 60, 39
2, 59399, Note_on_c, 0, 53, 32
2, 59400, Note_on_c, 0, 36, 30
2, 59406, Note_on_c, 0, 55, 27
2, 59409, Note_on_c, 0, 48, 27
2, 59672, Note_off_c, 0, 53, 64
2, 59674, Note_off_c, 0, 60, 64
2, 59678, Note_off_c, 0, 55, 64
2, 59681, Note_off_c, 0, 36, 64
2, 59690, Note_off_c, 0, 48, 64
2, 60206, Note_on_c, 0, 52, 24
2, 60208, Note_on_c, 0, 55, 28
2, 60213, Note_on_c, 0, 60, 32
2, 60222, Note_on_c, 0, 48, 24
2, 60224, Note_on_c, 0, 36, 23
2, 60233, Control_c, 0, 64, 127
2, 60322, Note_off_c, 0, 48, 64
2, 60329, Note_off_c, 0, 55, 64
2, 60342, Note_off_c, 0, 60, 64
2, 60343, Note_off_c, 0, 36, 64
2, 60360, Note_off_c, 0, 52, 64
2, 60493, Control_c, 0, 64, 0
2, 60618, Note_on_c, 0, 53, 45
2, 60624, Note_on_c, 0, 60, 33
2, 60624, Note_on_c, 0, 57, 33
2, 60624, Note_on_c, 0, 48, 31
2, 60625, Note_on_c, 0, 41, 27
2, 60625, Note_on_c, 0, 29, 27
2, 60645, Control_c, 0, 64, 127
2, 61000, Note_on_c, 0, 36, 50
2, 61020, Note_off_c, 0, 29, 64
2, 61023, Note_off_c, 0, 41, 64
2, 61172, Note_off_c, 0, 57, 64
2, 61229, Note_off_c, 0, 48, 64
2, 61235, Note_off_c, 0, 36, 64
2, 61238, Note_off_c, 0, 60, 64
2, 61288, Note_on_c, 0, 41, 47
2, 61296, Note_off_c, 0, 53, 64
2, 61329, Note_off_c, 0, 41, 64
2, 61368, Note_on_c, 0, 49, 41
2, 61376, Note_on_c, 0, 61, 35
2, 61379, Note_on_c, 0, 58, 33
2, 61380, Note_on_c, 0, 41, 44
2, 61380, Note_on_c, 0, 29, 37
2, 61389, Note_on_c, 0, 53, 30
2, 61417, Control_c, 0, 64, 0
2, 61772, Note_on_c, 0, 37, 49
2, 61782, Note_off_c, 0, 29, 64
2, 61796, Note_off_c, 0, 41, 64
2, 62007, Note_off_c, 0, 37, 64
2, 62045, Note_off_c, 0, 58, 64
2, 62058, Note_off_c, 0, 61, 64
2, 62064, Note_off_c, 0, 53, 64
2, 62076, Note_on_c, 0, 41, 53
2, 62080, Note_off_c, 0, 49, 64
2, 62124, Note_off_c, 0, 41, 64
2, 62168, Note_on_c, 0, 60, 34
2, 62168, Note_on_c, 0, 57, 30
2, 62168, Note_on_c, 0, 53, 19
2, 62175, Note_on_c, 0, 48, 25
2, 62176, Note_on_c, 0, 29, 26
2, 62178, Note_on_c, 0, 41, 34
2, 62186, Control_c, 0, 64, 127
2, 62597, Note_on_c, 0, 36, 29
2, 62606, Note_off_c, 0, 29, 64
2, 62628, Note_off_c, 0, 41, 64
2, 62635, Note_off_c, 0, 36, 64
2, 62638, Control_c, 0, 64, 0
2, 62856, Control_c, 0, 64, 127
2, 62931, Note_off_c, 0, 57, 64
2, 62944, Note_on_c, 0, 41, 25
2, 62947, Note_off_c, 0, 60, 64
2, 62955, Note_off_c, 0, 48, 64
2, 62961, Note_off_c, 0, 53, 64
2, 62992, Note_off_c, 0, 41, 64
2, 63048, Note_on_c, 0, 49, 29
2, 63048, Note_on_c, 0, 29, 18
2, 63051, Note_on_c, 0, 61, 28
2, 63054, Note_on_c, 0, 41, 26
2, 63056, Note_on_c, 0, 53, 18
2, 63061, Note_on_c, 0, 58, 23
2, 63178, Control_c, 0, 64, 0
2, 63434, Control_c, 0, 64, 127
2, 63503, Note_on_c, 0, 37, 26
2, 63534, Note_off_c, 0, 29, 64
2, 63546, Note_off_c, 0, 41, 64
2, 63559, Note_off_c, 0, 37, 64
2, 63648, Control_c, 0, 64, 0
2, 63761, Control_c, 0, 64, 127
2, 63856, Note_on_c, 0, 41, 22
2, 64071, Note_off_c, 0, 53, 64
2, 64080, Note_off_c, 0, 41, 64
2, 64080, Note_off_c, 0, 58, 64
2, 64080, Note_off_c, 0, 61, 64
2, 64080, Note_on_c, 0, 29, 51
2, 64083, Note_off_c, 0, 49, 64
2, 64149, Control_c, 0, 64, 127
2, 64221, Note_on_c, 0, 41, 41
2, 64340, Note_on_c, 0, 48, 36
2, 64440, Note_on_c, 0, 53, 45
2, 64538, Note_on_c, 0, 55, 48
2, 64646, Note_on_c, 0, 58, 48
2, 64659, Note_off_c, 0, 55, 64
2, 64744, Note_on_c, 0, 56, 46
2, 64779, Note_off_c, 0, 58, 64
2, 64832, Note_off_c, 0, 53, 64
2, 64846, Note_on_c, 0, 55, 45
2, 64870, Note_off_c, 0, 56, 64
2, 64941, Note_on_c, 0, 53, 49
2, 64950, Note_off_c, 0, 55, 64
2, 65048, Note_on_c, 0, 56, 49
2, 65166, Note_on_c, 0, 58, 46
2, 65270, Note_on_c, 0, 61, 48
2, 65286, Note_off_c, 0, 58, 64
2, 65396, Note_on_c, 0, 60, 50
2, 65400, Note_off_c, 0, 61, 64
2, 65507, Control_c, 0, 64, 0
2, 65691, Control_c, 0, 64, 127
2, 66858, Note_off_c, 0, 48, 64
2, 66871, Note_off_c, 0, 29, 64
2, 66920, Note_off_c, 0, 41, 64
2, 66960, Note_off_c, 0, 53, 64
2, 66960, Note_off_c, 0, 56, 64
2, 66960, Note_off_c, 0, 60, 64
2, 67032, Note_on_c, 0, 32, 54
2, 67051, Control_c, 0, 64, 0
2, 67137, Control_c, 0, 64, 127
2, 67203, Note_on_c, 0, 44, 46
2, 67339, Note_on_c, 0, 51, 47
2, 67453, Note_on_c, 0, 56, 51
2, 67562, Note_on_c, 0, 58, 53
2, 67659, Note_on_c, 0, 61, 47
2, 67671, Note_off_c, 0, 58, 64
2, 67763, Note_on_c, 0, 60, 52
2, 67786, Note_off_c, 0, 61, 64
2, 67792, Note_off_c, 0, 56, 64
2, 67848, Note_on_c, 0, 58, 51
2, 67869, Note_off_c, 0, 60, 64
2, 67937, Note_off_c, 0, 58, 64
2, 67941, Note_on_c, 0, 56, 59
2, 68038, Note_on_c, 0, 60, 51
2, 68143, Note_on_c, 0, 61, 48
2, 68258, Note_on_c, 0, 65, 46
2, 68264, Note_off_c, 0, 61, 64
2, 68391, Note_on_c, 0, 63, 45
2, 68397, Note_off_c, 0, 65, 64
2, 68718, Control_c, 0, 64, 0
2, 69072, Control_c, 0, 64, 127
2, 69840, Note_off_c, 0, 44, 64
2, 69840, Note_off_c, 0, 51, 64
2, 69840, Note_off_c, 0, 56, 64
2, 69840, Note_off_c, 0, 60, 64
2, 69840, Note_off_c, 0, 63, 64
2, 69852, Note_off_c, 0, 32, 64
2, 69875, Note_on_c, 0, 36, 64
2, 69898, Control_c, 0, 64, 0
2, 69992, Control_c, 0, 64, 127
2, 70027, Note_on_c, 0, 48, 34
2, 70136, Note_on_c, 0, 55, 53
2, 70250, Note_on_c, 0, 60, 48
2, 70337, Note_on_c, 0, 62, 54
2, 70429, Note_on_c, 0, 65, 51
2, 70438, Note_off_c, 0, 62, 64
2, 70512, Note_on_c, 0, 63, 50
2, 70535, Note_off_c, 0, 65, 64
2, 70540, Note_off_c, 0, 60, 64
2, 70587, Note_on_c, 0, 62, 54
2, 70613, Note_off_c, 0, 63, 64
2, 70654, Note_off_c, 0, 62, 64
2, 70663, Note_on_c, 0, 60, 60
2, 70717, Note_off_c, 0, 55, 64
2, 70728, Note_on_c, 0, 63, 57
2, 70730, Note_off_c, 0, 48, 64
2, 70791, Note_on_c, 0, 65, 68
2, 70833, Note_off_c, 0, 63, 64
2, 70835, Note_off_c, 0, 36, 64
2, 70850, Note_on_c, 0, 68, 50
2, 70869, Note_off_c, 0, 65, 64
2, 70896, Control_c, 0, 64, 0
2, 70913, Note_on_c, 0, 67, 79
2, 70916, Note_off_c, 0, 68, 64
2, 70922, Note_on_c, 0, 39, 72
2, 70945, Control_c, 0, 64, 127
2, 70987, Note_off_c, 0, 60, 64
2, 71004, Note_on_c, 0, 51, 68
2, 71064, Note_on_c, 0, 58, 77
2, 71136, Note_on_c, 0, 63, 68
2, 71168, Note_off_c, 0, 67, 64
2, 71184, Note_on_c, 0, 65, 64
2, 71242, Note_off_c, 0, 65, 64
2, 71244, Note_on_c, 0, 68, 69
2, 71292, Note_on_c, 0, 67, 66
2, 71304, Note_off_c, 0, 63, 64
2, 71316, Note_off_c, 0, 68, 64
2, 71340, Note_on_c, 0, 65, 73
2, 71360, Note_off_c, 0, 67, 64
2, 71372, Note_off_c, 0, 58, 64
2, 71378, Note_off_c, 0, 51, 64
2, 71384, Note_on_c, 0, 63, 68
2, 71385, Note_off_c, 0, 65, 64
2, 71427, Note_on_c, 0, 67, 74
2, 71478, Note_on_c, 0, 69, 73
2, 71501, Note_off_c, 0, 67, 64
2, 71531, Note_on_c, 0, 72, 70
2, 71547, Note_off_c, 0, 69, 64
2, 71565, Control_c, 0, 64, 0
2, 71567, Note_off_c, 0, 39, 64
2, 71571, Note_on_c, 0, 43, 78
2, 71586, Note_on_c, 0, 70, 81
2, 71594, Note_off_c, 0, 72, 64
2, 71616, Control_c, 0, 64, 127
2, 71630, Note_on_c, 0, 55, 65
2, 71652, Note_off_c, 0, 63, 64
2, 71694, Note_on_c, 0, 62, 70
2, 71756, Note_on_c, 0, 67, 65
2, 71771, Note_off_c, 0, 70, 64
2, 71804, Note_on_c, 0, 69, 73
2, 71846, Note_on_c, 0, 72, 68
2, 71871, Note_off_c, 0, 69, 64
2, 71890, Note_on_c, 0, 70, 79
2, 71896, Note_off_c, 0, 67, 64
2, 71902, Note_off_c, 0, 62, 64
2, 71917, Note_off_c, 0, 55, 64
2, 71919, Note_off_c, 0, 72, 64
2, 71947, Note_on_c, 0, 69, 67
2, 71963, Note_off_c, 0, 70, 64
2, 71992, Note_off_c, 0, 69, 64
2, 72001, Note_on_c, 0, 67, 57
2, 72047, Note_on_c, 0, 70, 73
2, 72107, Note_on_c, 0, 72, 66
2, 72126, Note_off_c, 0, 70, 64
2, 72140, Note_on_c, 0, 75, 64
2, 72166, Note_off_c, 0, 43, 64
2, 72169, Note_off_c, 0, 72, 64
2, 72175, Note_on_c, 0, 46, 67
2, 72196, Note_on_c, 0, 74, 89
2, 72211, Note_off_c, 0, 75, 64
2, 72244, Note_off_c, 0, 67, 64
2, 72256, Note_on_c, 0, 56, 76
2, 72318, Note_on_c, 0, 65, 82
2, 72363, Note_off_c, 0, 65, 64
2, 72365, Note_on_c, 0, 70, 62
2, 72424, Note_on_c, 0, 72, 65
2, 72451, Note_off_c, 0, 74, 64
2, 72463, Note_off_c, 0, 70, 64
2, 72471, Note_on_c, 0, 75, 75
2, 72488, Note_off_c, 0, 72, 64
2, 72524, Note_on_c, 0, 74, 73
2, 72528, Note_on_c, 0, 65, 59
2, 72528, Note_on_c, 0, 62, 59
2, 72528, Note_on_c, 0, 58, 45
2, 72539, Note_off_c, 0, 75, 64
2, 72543, Note_off_c, 0, 58, 64
2, 72560, Note_off_c, 0, 62, 64
2, 72566, Note_off_c, 0, 65, 64
2, 72576, Note_on_c, 0, 72, 53
2, 72579, Note_off_c, 0, 74, 64
2, 72609, Note_off_c, 0, 72, 64
2, 72622, Note_on_c, 0, 70, 87
2, 72678, Note_on_c, 0, 74, 73
2, 72698, Note_off_c, 0, 70, 64
2, 72720, Note_on_c, 0, 67, 47
2, 72727, Note_on_c, 0, 75, 73
2, 72728, Note_on_c, 0, 63, 58
2, 72752, Note_on_c, 0, 79, 70
2, 72754, Note_off_c, 0, 74, 64
2, 72758, Note_off_c, 0, 67, 64
2, 72771, Note_off_c, 0, 75, 64
2, 72772, Note_off_c, 0, 63, 64
2, 72788, Note_off_c, 0, 56, 64
2, 72797, Note_on_c, 0, 77, 85
2, 72800, Note_on_c, 0, 65, 72
2, 72800, Note_on_c, 0, 62, 78
2, 72800, Note_on_c, 0, 58, 55
2, 72800, Note_on_c, 0, 56, 64
2, 72810, Note_off_c, 0, 79, 64
2, 72820, Note_off_c, 0, 58, 64
2, 72823, Note_off_c, 0, 65, 64
2, 72825, Note_off_c, 0, 56, 64
2, 72831, Note_off_c, 0, 62, 64
2, 72843, Note_on_c, 0, 74, 70
2, 72865, Note_off_c, 0, 77, 64
2, 72893, Note_off_c, 0, 74, 64
2, 72900, Note_on_c, 0, 70, 90
2, 72961, Note_on_c, 0, 72, 74
2, 72963, Note_off_c, 0, 70, 64
2, 73008, Note_on_c, 0, 75, 64
2, 73008, Note_on_c, 0, 67, 54
2, 73016, Note_on_c, 0, 63, 50
2, 73032, Note_off_c, 0, 72, 64
2, 73047, Note_on_c, 0, 79, 69
2, 73048, Note_off_c, 0, 67, 64
2, 73055, Note_off_c, 0, 75, 64
2, 73059, Note_off_c, 0, 63, 64
2, 73090, Note_on_c, 0, 77, 73
2, 73092, Note_on_c, 0, 65, 81
2, 73092, Note_on_c, 0, 62, 85
2, 73092, Note_on_c, 0, 58, 80
2, 73092, Note_on_c, 0, 56, 80
2, 73104, Note_off_c, 0, 58, 64
2, 73108, Note_off_c, 0, 79, 64
2, 73109, Note_off_c, 0, 65, 64
2, 73114, Note_off_c, 0, 56, 64
2, 73118, Note_off_c, 0, 62, 64
2, 73130, Note_on_c, 0, 74, 68
2, 73161, Note_off_c, 0, 77, 64
2, 73180, Note_off_c, 0, 74, 64
2, 73196, Note_on_c, 0, 70, 96
2, 73243, Note_off_c, 0, 70, 64
2, 73247, Note_on_c, 0, 72, 81
2, 73296, Note_on_c, 0, 67, 73
2, 73296, Note_on_c, 0, 63, 67
2, 73305, Note_on_c, 0, 75, 68
2, 73316, Note_off_c, 0, 72, 64
2, 73327, Note_on_c, 0, 79, 78
2, 73334, Note_off_c, 0, 67, 64
2, 73339, Note_off_c, 0, 63, 64
2, 73340, Note_off_c, 0, 75, 64
2, 73357, Control_c, 0, 64, 0
2, 73364, Note_on_c, 0, 56, 85
2, 73368, Note_on_c, 0, 74, 87
2, 73368, Note_on_c, 0, 65, 89
2, 73368, Note_on_c, 0, 62, 92
2, 73368, Note_on_c, 0, 58, 79
2, 73371, Note_on_c, 0, 77, 90
2, 73387, Note_off_c, 0, 79, 64
2, 73394, Note_off_c, 0, 58, 64
2, 73402, Note_off_c, 0, 74, 64
2, 73407, Control_c, 0, 64, 127
2, 73410, Note_off_c, 0, 65, 64
2, 73410, Note_off_c, 0, 56, 64
2, 73414, Note_off_c, 0, 62, 64
2, 73431, Note_off_c, 0, 77, 64
2, 73680, Control_c, 0, 64, 0
2, 73714, Note_on_c, 0, 82, 87
2, 73718, Note_on_c, 0, 94, 100
2, 73719, Note_on_c, 0, 58, 89
2, 73723, Note_on_c, 0, 70, 96
2, 73733, Control_c, 0, 64, 127
2, 73748, Note_off_c, 0, 82, 64
2, 73750, Note_off_c, 0, 70, 64
2, 73754, Note_off_c, 0, 58, 64
2, 73756, Note_off_c, 0, 94, 64
2, 73830, Note_off_c, 0, 46, 64
2, 73900, Note_on_c, 0, 82, 100
2, 73901, Note_on_c, 0, 70, 91
2, 73904, Note_on_c, 0, 58, 100
2, 73908, Note_on_c, 0, 46, 87
2, 74008, Note_off_c, 0, 58, 64
2, 74013, Note_off_c, 0, 46, 64
2, 74016, Note_off_c, 0, 70, 64
2, 74020, Note_off_c, 0, 82, 64
2, 74088, Note_on_c, 0, 34, 97
2, 74088, Note_on_c, 0, 58, 104
2, 74096, Note_on_c, 0, 46, 106
2, 74096, Note_on_c, 0, 70, 106
2, 74160, Control_c, 0, 64, 0
2, 74232, Control_c, 0, 64, 127
2, 75048, Note_off_c, 0, 58, 64
2, 75048, Note_off_c, 0, 34, 64
2, 75056, Note_off_c, 0, 70, 64
2, 75056, Note_off_c, 0, 46, 64
2, 75240, Note_on_c, 0, 27, 100
2, 75273, Control_c, 0, 64, 127
2, 75349, Note_on_c, 0, 39, 50
2, 75467, Note_on_c, 0, 46, 56
2, 75567, Note_on_c, 0, 51, 57
2, 75652, Note_on_c, 0, 53, 53
2, 75743, Note_on_c, 0, 56, 48
2, 75748, Note_off_c, 0, 53, 64
2, 75840, Note_on_c, 0, 54, 54
2, 75875, Note_off_c, 0, 56, 64
2, 75899, Note_off_c, 0, 51, 64
2, 75920, Note_on_c, 0, 53, 57
2, 75945, Note_off_c, 0, 54, 64
2, 76005, Note_on_c, 0, 51, 57
2, 76023, Note_off_c, 0, 53, 64
2, 76101, Note_on_c, 0, 54, 59
2, 76196, Note_on_c, 0, 56, 59
2, 76298, Note_on_c, 0, 59, 58
2, 76332, Note_off_c, 0, 56, 64
2, 76419, Note_off_c, 0, 59, 64
2, 76421, Note_on_c, 0, 58, 62
2, 76424, Control_c, 0, 64, 0
2, 76663, Control_c, 0, 64, 127
2, 77754, Note_off_c, 0, 46, 64
2, 77760, Note_off_c, 0, 51, 64
2, 77760, Note_off_c, 0, 54, 64
2, 77760, Note_off_c, 0, 39, 64
2, 77760, Note_off_c, 0, 58, 64
2, 77765, Control_c, 0, 64, 0
2, 77768, Note_off_c, 0, 27, 64
2, 77771, Note_on_c, 0, 30, 62
2, 77891, Control_c, 0, 64, 127
2, 77927, Note_on_c, 0, 42, 55
2, 78043, Note_on_c, 0, 49, 64
2, 78142, Note_on_c, 0, 54, 62
2, 78217, Note_on_c, 0, 56, 64
2, 78293, Note_on_c, 0, 59, 63
2, 78314, Note_off_c, 0, 56, 64
2, 78375, Note_on_c, 0, 58, 64
2, 78404, Note_off_c, 0, 59, 64
2, 78427, Note_off_c, 0, 54, 64
2, 78443, Note_on_c, 0, 56, 64
2, 78472, Note_off_c, 0, 58, 64
2, 78511, Note_on_c, 0, 54, 73
2, 78519, Note_off_c, 0, 56, 64
2, 78580, Note_on_c, 0, 58, 64
2, 78661, Note_on_c, 0, 59, 61
2, 78741, Note_on_c, 0, 63, 64
2, 78761, Note_off_c, 0, 59, 64
2, 78829, Note_on_c, 0, 61, 68
2, 78836, Note_off_c, 0, 63, 64
2, 78891, Control_c, 0, 64, 0
2, 78996, Control_c, 0, 64, 127
2, 79486, Note_off_c, 0, 49, 64
2, 79519, Note_off_c, 0, 42, 64
2, 79598, Note_off_c, 0, 58, 64
2, 79637, Note_off_c, 0, 61, 64
2, 79639, Note_off_c, 0, 54, 64
2, 79666, Note_off_c, 0, 30, 64
2, 79849, Control_c, 0, 64, 0
2, 79896, Note_on_c, 0, 34, 61
2, 79928, Control_c, 0, 64, 127
2, 79994, Note_on_c, 0, 46, 51
2, 80084, Note_on_c, 0, 53, 57
2, 80163, Note_on_c, 0, 58, 66
2, 80236, Note_on_c, 0, 60, 37
2, 80252, Note_off_c, 0, 58, 64
2, 80281, Note_off_c, 0, 60, 64
2, 80286, Note_on_c, 0, 63, 45
2, 80354, Note_on_c, 0, 61, 46
2, 80363, Note_off_c, 0, 63, 64
2, 80378, Note_off_c, 0, 53, 64
2, 80410, Note_on_c, 0, 60, 35
2, 80417, Note_off_c, 0, 61, 64
2, 80448, Note_on_c, 0, 58, 49
2, 80453, Note_off_c, 0, 60, 64
2, 80515, Note_on_c, 0, 61, 38
2, 80556, Note_off_c, 0, 46, 64
2, 80559, Note_off_c, 0, 58, 64
2, 80575, Note_on_c, 0, 63, 55
2, 80583, Note_off_c, 0, 61, 64
2, 80616, Note_off_c, 0, 34, 64
2, 80629, Note_on_c, 0, 66, 64
2, 80635, Note_off_c, 0, 63, 64
2, 80649, Control_c, 0, 64, 0
2, 80673, Note_on_c, 0, 37, 65
2, 80680, Note_on_c, 0, 65, 67
2, 80682, Note_off_c, 0, 66, 64
2, 80714, Control_c, 0, 64, 127
2, 80727, Note_on_c, 0, 49, 63
2, 80737, Note_off_c, 0, 65, 64
2, 80792, Note_on_c, 0, 56, 52
2, 80856, Note_on_c, 0, 61, 61
2, 80917, Note_on_c, 0, 63, 64
2, 80935, Note_off_c, 0, 61, 64
2, 80970, Note_on_c, 0, 66, 56
2, 80983, Note_off_c, 0, 63, 64
2, 81015, Note_on_c, 0, 65, 56
2, 81023, Note_off_c, 0, 66, 64
2, 81049, Note_off_c, 0, 56, 64
2, 81052, Note_off_c, 0, 49, 64
2, 81060, Note_on_c, 0, 63, 61
2, 81070, Note_off_c, 0, 65, 64
2, 81098, Note_off_c, 0, 63, 64
2, 81103, Note_on_c, 0, 61, 64
2, 81164, Note_on_c, 0, 65, 64
2, 81174, Note_off_c, 0, 61, 64
2, 81205, Note_off_c, 0, 37, 64
2, 81211, Note_on_c, 0, 67, 73
2, 81214, Note_off_c, 0, 65, 64
2, 81249, Note_off_c, 0, 67, 64
2, 81258, Note_on_c, 0, 70, 56
2, 81265, Control_c, 0, 64, 0
2, 81280, Control_c, 0, 64, 127
2, 81288, Note_on_c, 0, 68, 60
2, 81288, Note_on_c, 0, 41, 45
2, 81296, Note_on_c, 0, 53, 46
2, 81297, Note_off_c, 0, 70, 64
2, 81336, Note_on_c, 0, 65, 50
2, 81350, Note_off_c, 0, 68, 64
2, 81371, Note_off_c, 0, 65, 64
2, 81375, Note_on_c, 0, 60, 50
2, 81422, Note_on_c, 0, 65, 50
2, 81452, Note_off_c, 0, 60, 64
2, 81464, Note_on_c, 0, 67, 51
2, 81474, Note_off_c, 0, 65, 64
2, 81498, Note_on_c, 0, 70, 52
2, 81516, Note_off_c, 0, 67, 64
2, 81531, Note_on_c, 0, 68, 53
2, 81536, Note_on_c, 0, 48, 64
2, 81536, Note_on_c, 0, 36, 54
2, 81549, Note_off_c, 0, 41, 64
2, 81550, Note_off_c, 0, 70, 64
2, 81557, Note_off_c, 0, 53, 64
2, 81568, Note_on_c, 0, 65, 53
2, 81597, Note_off_c, 0, 68, 64
2, 81612, Note_on_c, 0, 60, 54
2, 81613, Note_off_c, 0, 65, 64
2, 81666, Note_on_c, 0, 65, 55
2, 81683, Note_off_c, 0, 60, 64
2, 81709, Note_off_c, 0, 65, 64
2, 81712, Note_on_c, 0, 68, 54
2, 81741, Note_on_c, 0, 73, 57
2, 81764, Note_off_c, 0, 68, 64
2, 81792, Note_on_c, 0, 43, 78
2, 81794, Note_on_c, 0, 72, 59
2, 81800, Note_on_c, 0, 31, 65
2, 81802, Note_off_c, 0, 36, 64
2, 81804, Note_off_c, 0, 48, 64
2, 81806, Note_off_c, 0, 73, 64
2, 81828, Note_on_c, 0, 68, 60
2, 81849, Note_off_c, 0, 72, 64
2, 81856, Note_on_c, 0, 65, 60
2, 81865, Note_off_c, 0, 68, 64
2, 81886, Note_on_c, 0, 68, 61
2, 81906, Note_off_c, 0, 65, 64
2, 81932, Note_on_c, 0, 72, 63
2, 81940, Note_off_c, 0, 68, 64
2, 81968, Note_on_c, 0, 79, 58
2, 81988, Note_off_c, 0, 72, 64
2, 82008, Note_on_c, 0, 34, 77
2, 82012, Note_on_c, 0, 77, 63
2, 82012, Note_on_c, 0, 46, 83
2, 82020, Note_off_c, 0, 79, 64
2, 82060, Note_off_c, 0, 43, 64
2, 82060, Note_on_c, 0, 72, 64
2, 82068, Note_off_c, 0, 31, 64
2, 82083, Note_off_c, 0, 77, 64
2, 82101, Note_off_c, 0, 72, 64
2, 82108, Note_on_c, 0, 68, 65
2, 82153, Note_off_c, 0, 68, 64
2, 82156, Note_on_c, 0, 72, 66
2, 82196, Note_on_c, 0, 77, 60
2, 82224, Note_on_c, 0, 44, 96
2, 82224, Note_on_c, 0, 32, 72
2, 82228, Note_on_c, 0, 82, 69
2, 82234, Note_off_c, 0, 72, 64
2, 82248, Note_off_c, 0, 77, 64
2, 82260, Note_off_c, 0, 34, 64
2, 82264, Note_off_c, 0, 46, 64
2, 82264, Note_on_c, 0, 31, 69
2, 82269, Note_off_c, 0, 82, 64
2, 82271, Note_on_c, 0, 80, 70
2, 82272, Note_on_c, 0, 43, 73
2, 82304, Note_on_c, 0, 77, 62
2, 82317, Note_off_c, 0, 80, 64
2, 82323, Note_off_c, 0, 32, 64
2, 82323, Note_off_c, 0, 44, 64
2, 82337, Note_on_c, 0, 72, 71
2, 82356, Note_off_c, 0, 77, 64
2, 82369, Note_on_c, 0, 77, 72
2, 82406, Note_off_c, 0, 72, 64
2, 82416, Note_on_c, 0, 80, 74
2, 82439, Note_off_c, 0, 77, 64
2, 82462, Note_off_c, 0, 80, 64
2, 82466, Note_on_c, 0, 85, 75
2, 82481, Control_c, 0, 64, 0
2, 82507, Note_on_c, 0, 41, 89
2, 82507, Note_on_c, 0, 29, 71
2, 82512, Note_off_c, 0, 85, 64
2, 82515, Note_on_c, 0, 84, 76
2, 82525, Note_off_c, 0, 31, 64
2, 82532, Control_c, 0, 64, 127
2, 82533, Note_off_c, 0, 43, 64
2, 82548, Note_on_c, 0, 80, 76
2, 82564, Note_off_c, 0, 84, 64
2, 82583, Note_on_c, 0, 77, 77
2, 82590, Note_off_c, 0, 80, 64
2, 82625, Note_on_c, 0, 80, 78
2, 82630, Note_off_c, 0, 77, 64
2, 82671, Note_off_c, 0, 80, 64
2, 82679, Note_on_c, 0, 84, 79
2, 82716, Note_on_c, 0, 91, 81
2, 82730, Note_off_c, 0, 84, 64
2, 82754, Note_on_c, 0, 89, 82
2, 82764, Note_off_c, 0, 91, 64
2, 82785, Note_on_c, 0, 84, 82
2, 82790, Note_off_c, 0, 89, 64
2, 82821, Note_off_c, 0, 84, 64
2, 82825, Note_on_c, 0, 80, 83
2, 82852, Note_off_c, 0, 80, 64
2, 82874, Note_on_c, 0, 84, 85
2, 82908, Note_on_c, 0, 89, 87
2, 82937, Note_off_c, 0, 89, 64
2, 82938, Note_off_c, 0, 84, 64
2, 82952, Note_on_c, 0, 94, 87
2, 82991, Note_on_c, 0, 27, 85
2, 82996, Note_on_c, 0, 39, 102
2, 83003, Note_on_c, 0, 92, 88
2, 83011, Note_off_c, 0, 94, 64
2, 83028, Note_on_c, 0, 89, 89
2, 83032, Note_off_c, 0, 29, 64
2, 83032, Note_off_c, 0, 41, 64
2, 83047, Note_off_c, 0, 92, 64
2, 83066, Note_on_c, 0, 84, 90
2, 83070, Note_off_c, 0, 89, 64
2, 83124, Note_on_c, 0, 89, 92
2, 83154, Note_on_c, 0, 92, 93
2, 83156, Note_off_c, 0, 84, 64
2, 83169, Note_off_c, 0, 89, 64
2, 83183, Note_on_c, 0, 96, 93
2, 83200, Note_off_c, 0, 92, 64
2, 83220, Note_off_c, 0, 96, 64
2, 83220, Note_on_c, 0, 101, 101
2, 83224, Note_on_c, 0, 25, 105
2, 83228, Note_on_c, 0, 37, 105
2, 83245, Control_c, 0, 64, 127
2, 83261, Note_off_c, 0, 27, 64
2, 83261, Note_on_c, 0, 99, 74
2, 83266, Note_off_c, 0, 39, 64
2, 83308, Note_on_c, 0, 97, 74
2, 83314, Note_off_c, 0, 101, 64
2, 83336, Note_off_c, 0, 99, 64
2, 83346, Note_on_c, 0, 96, 74
2, 83362, Note_off_c, 0, 97, 64
2, 83389, Note_off_c, 0, 96, 64
2, 83412, Note_on_c, 0, 95, 75
2, 83454, Note_on_c, 0, 94, 75
2, 83486, Note_off_c, 0, 95, 64
2, 83498, Note_on_c, 0, 92, 75
2, 83508, Note_on_c, 0, 59, 75
2, 83512, Note_on_c, 0, 71, 75
2, 83512, Note_on_c, 0, 61, 75
2, 83513, Note_on_c, 0, 65, 75
2, 83526, Note_off_c, 0, 94, 64
2, 83534, Note_on_c, 0, 90, 75
2, 83564, Note_off_c, 0, 92, 64
2, 83585, Note_on_c, 0, 89, 75
2, 83589, Note_off_c, 0, 90, 64
2, 83639, Note_off_c, 0, 89, 64
2, 83641, Note_on_c, 0, 87, 76
2, 83685, Note_on_c, 0, 85, 76
2, 83694, Note_off_c, 0, 87, 64
2, 83736, Note_off_c, 0, 85, 64
2, 83738, Note_on_c, 0, 84, 76
2, 83768, Note_off_c, 0, 65, 64
2, 83784, Note_on_c, 0, 83, 77
2, 83786, Note_off_c, 0, 71, 64
2, 83791, Note_off_c, 0, 59, 64
2, 83791, Note_off_c, 0, 61, 64
2, 83796, Note_off_c, 0, 84, 64
2, 83827, Note_on_c, 0, 82, 77
2, 83846, Note_off_c, 0, 83, 64
2, 83866, Note_on_c, 0, 80, 77
2, 83892, Note_off_c, 0, 82, 64
2, 83900, Note_on_c, 0, 78, 77
2, 83919, Note_off_c, 0, 80, 64
2, 83942, Note_on_c, 0, 77, 77
2, 83948, Note_off_c, 0, 78, 64
2, 83996, Note_on_c, 0, 75, 78
2, 83999, Note_off_c, 0, 77, 64
2, 84028, Note_on_c, 0, 73, 78
2, 84028, Note_on_c, 0, 65, 78
2, 84028, Note_on_c, 0, 61, 78
2, 84028, Note_on_c, 0, 59, 78
2, 84032, Note_on_c, 0, 53, 78
2, 84046, Note_off_c, 0, 75, 64
2, 84072, Note_on_c, 0, 72, 78
2, 84078, Note_off_c, 0, 73, 64
2, 84110, Note_on_c, 0, 71, 79
2, 84117, Note_off_c, 0, 72, 64
2, 84154, Note_on_c, 0, 70, 79
2, 84169, Note_off_c, 0, 71, 64
2, 84180, Note_on_c, 0, 68, 79
2, 84193, Note_off_c, 0, 59, 64
2, 84193, Note_off_c, 0, 61, 64
2, 84193, Note_off_c, 0, 65, 64
2, 84197, Note_off_c, 0, 53, 64
2, 84224, Note_off_c, 0, 70, 64
2, 84230, Note_on_c, 0, 66, 79
2, 84240, Note_off_c, 0, 68, 64
2, 84255, Control_c, 0, 64, 0
2, 84278, Note_on_c, 0, 65, 79
2, 84280, Note_on_c, 0, 68, 79
2, 84280, Note_on_c, 0, 59, 79
2, 84282, Note_on_c, 0, 61, 79
2, 84283, Note_on_c, 0, 56, 79
2, 84311, Note_off_c, 0, 66, 64
2, 84312, Control_c, 0, 64, 127
2, 84326, Note_on_c, 0, 63, 79
2, 84347, Note_off_c, 0, 61, 64
2, 84351, Note_off_c, 0, 65, 64
2, 84351, Note_on_c, 0, 61, 79
2, 84373, Note_off_c, 0, 63, 64
2, 84388, Note_on_c, 0, 60, 75
2, 84401, Note_off_c, 0, 61, 64
2, 84425, Note_off_c, 0, 59, 64
2, 84455, Note_on_c, 0, 59, 77
2, 84476, Note_off_c, 0, 60, 64
2, 84489, Note_on_c, 0, 58, 78
2, 84498, Note_off_c, 0, 56, 64
2, 84518, Note_off_c, 0, 59, 64
2, 84538, Note_on_c, 0, 56, 79
2, 84564, Note_on_c, 0, 54, 80
2, 84569, Note_off_c, 0, 58, 64
2, 84590, Note_off_c, 0, 56, 64
2, 84611, Note_on_c, 0, 53, 81
2, 84617, Note_off_c, 0, 54, 64
2, 84668, Note_on_c, 0, 51, 83
2, 84687, Note_off_c, 0, 53, 64
2, 84698, Note_on_c, 0, 49, 84
2, 84714, Note_off_c, 0, 51, 64
2, 84743, Note_on_c, 0, 48, 85
2, 84749, Note_off_c, 0, 49, 64
2, 84804, Note_on_c, 0, 47, 87
2, 84805, Control_c, 0, 64, 0
2, 84821, Note_off_c, 0, 48, 64
2, 84835, Note_on_c, 0, 46, 88
2, 84867, Note_off_c, 0, 47, 64
2, 84871, Control_c, 0, 64, 127
2, 84876, Note_on_c, 0, 44, 89
2, 84898, Note_off_c, 0, 46, 64
2, 84910, Note_on_c, 0, 42, 90
2, 84928, Note_off_c, 0, 44, 64
2, 84952, Note_on_c, 0, 41, 91
2, 84954, Note_off_c, 0, 25, 64
2, 84969, Note_off_c, 0, 37, 64
2, 84980, Note_off_c, 0, 42, 64
2, 85007, Note_on_c, 0, 39, 92
2, 85014, Note_off_c, 0, 41, 64
2, 85036, Note_off_c, 0, 68, 64
2, 85036, Note_on_c, 0, 37, 93
2, 85055, Note_off_c, 0, 39, 64
2, 85080, Note_on_c, 0, 36, 95
2, 85102, Note_off_c, 0, 37, 64
2, 85150, Note_on_c, 0, 35, 97
2, 85151, Note_off_c, 0, 36, 64
2, 85186, Note_on_c, 0, 34, 98
2, 85216, Note_off_c, 0, 35, 64
2, 85223, Note_on_c, 0, 32, 99
2, 85258, Note_on_c, 0, 30, 100
2, 85261, Note_off_c, 0, 34, 64
2, 85277, Note_off_c, 0, 32, 64
2, 85296, Note_on_c, 0, 29, 101
2, 85301, Note_off_c, 0, 30, 64
2, 85339, Note_off_c, 0, 29, 64
2, 85344, Note_on_c, 0, 27, 102
2, 85387, Note_on_c, 0, 26, 103
2, 85391, Note_off_c, 0, 27, 64
2, 85433, Note_off_c, 0, 26, 64
2, 85433, Note_on_c, 0, 25, 105
2, 85464, Note_on_c, 0, 24, 105
2, 85480, Note_off_c, 0, 25, 64
2, 85629, Control_c, 0, 64, 0
2, 85827, Note_on_c, 0, 60, 87
2, 86069, Note_on_c, 0, 40, 58
2, 86098, Control_c, 0, 64, 127
2, 86151, Note_on_c, 0, 48, 42
2, 86218, Note_on_c, 0, 49, 28
2, 86220, Note_off_c, 0, 48, 64
2, 86288, Note_on_c, 0, 55, 71
2, 86291, Note_on_c, 0, 48, 29
2, 86303, Note_off_c, 0, 49, 64
2, 86307, Note_off_c, 0, 60, 64
2, 86339, Note_on_c, 0, 49, 53
2, 86354, Note_off_c, 0, 24, 64
2, 86360, Note_off_c, 0, 48, 64
2, 86403, Note_on_c, 0, 48, 32
2, 86429, Note_off_c, 0, 49, 64
2, 86444, Note_off_c, 0, 40, 64
2, 86448, Control_c, 0, 64, 0
2, 86461, Note_on_c, 0, 41, 73
2, 86469, Note_off_c, 0, 48, 64
2, 86490, Control_c, 0, 64, 127
2, 86529, Note_on_c, 0, 48, 56
2, 86583, Note_on_c, 0, 49, 50
2, 86589, Note_on_c, 0, 56, 72
2, 86600, Note_off_c, 0, 48, 64
2, 86613, Note_off_c, 0, 55, 64
2, 86642, Note_on_c, 0, 48, 46
2, 86652, Note_off_c, 0, 49, 64
2, 86688, Note_on_c, 0, 49, 60
2, 86716, Note_off_c, 0, 48, 64
2, 86742, Note_on_c, 0, 48, 35
2, 86770, Note_on_c, 0, 68, 79
2, 86773, Note_off_c, 0, 49, 64
2, 86803, Note_off_c, 0, 56, 64
2, 86808, Control_c, 0, 64, 0
2, 86816, Note_off_c, 0, 41, 64
2, 86817, Note_off_c, 0, 48, 64
2, 86828, Note_on_c, 0, 41, 68
2, 86870, Control_c, 0, 64, 127
2, 86924, Note_on_c, 0, 49, 22
2, 86961, Note_on_c, 0, 67, 68
2, 86980, Note_on_c, 0, 56, 56
2, 86987, Note_off_c, 0, 68, 64
2, 86993, Note_off_c, 0, 49, 64
2, 87036, Note_on_c, 0, 50, 53
2, 87049, Note_off_c, 0, 56, 64
2, 87105, Note_off_c, 0, 50, 64
2, 87108, Note_on_c, 0, 56, 61
2, 87141, Note_on_c, 0, 65, 63
2, 87164, Note_on_c, 0, 50, 47
2, 87168, Note_off_c, 0, 67, 64
2, 87177, Note_off_c, 0, 56, 64
2, 87197, Control_c, 0, 64, 0
2, 87223, Note_off_c, 0, 41, 64
2, 87233, Note_off_c, 0, 50, 64
2, 87251, Note_on_c, 0, 43, 85
2, 87264, Control_c, 0, 64, 127
2, 87300, Note_on_c, 0, 51, 30
2, 87326, Note_on_c, 0, 63, 67
2, 87349, Note_off_c, 0, 65, 64
2, 87369, Note_off_c, 0, 51, 64
2, 87372, Note_on_c, 0, 58, 57
2, 87428, Note_on_c, 0, 51, 30
2, 87441, Note_off_c, 0, 58, 64
2, 87483, Note_on_c, 0, 58, 53
2, 87496, Note_on_c, 0, 67, 73
2, 87497, Note_off_c, 0, 51, 64
2, 87529, Note_off_c, 0, 63, 64
2, 87529, Note_on_c, 0, 65, 79
2, 87540, Note_on_c, 0, 51, 45
2, 87552, Note_off_c, 0, 67, 64
2, 87552, Note_off_c, 0, 58, 64
2, 87562, Control_c, 0, 64, 0
2, 87606, Note_off_c, 0, 43, 64
2, 87609, Note_off_c, 0, 51, 64
2, 87612, Note_on_c, 0, 43, 78
2, 87622, Control_c, 0, 64, 127
2, 87656, Note_on_c, 0, 51, 56
2, 87695, Note_on_c, 0, 63, 76
2, 87705, Note_on_c, 0, 59, 48
2, 87718, Note_off_c, 0, 65, 64
2, 87725, Note_off_c, 0, 51, 64
2, 87755, Note_on_c, 0, 51, 58
2, 87774, Note_off_c, 0, 59, 64
2, 87809, Note_on_c, 0, 59, 58
2, 87824, Note_off_c, 0, 51, 64
2, 87853, Note_on_c, 0, 51, 68
2, 87878, Note_off_c, 0, 59, 64
2, 87891, Note_on_c, 0, 59, 90
2, 87899, Control_c, 0, 64, 0
2, 87910, Note_off_c, 0, 63, 64
2, 87922, Note_off_c, 0, 51, 64
2, 87937, Note_off_c, 0, 43, 64
2, 87946, Note_off_c, 0, 59, 64
2, 87946, Note_on_c, 0, 44, 85
2, 87955, Note_on_c, 0, 59, 82
2, 87967, Control_c, 0, 64, 127
2, 88028, Note_on_c, 0, 51, 24
2, 88038, Note_on_c, 0, 60, 79
2, 88068, Note_off_c, 0, 59, 64
2, 88083, Note_off_c, 0, 60, 64
2, 88097, Note_off_c, 0, 51, 64
2, 88097, Note_on_c, 0, 60, 52
2, 88136, Note_on_c, 0, 51, 52
2, 88166, Note_off_c, 0, 60, 64
2, 88187, Note_on_c, 0, 60, 61
2, 88205, Note_off_c, 0, 51, 64
2, 88223, Note_on_c, 0, 51, 52
2, 88227, Note_on_c, 0, 72, 93
2, 88256, Note_off_c, 0, 60, 64
2, 88257, Control_c, 0, 64, 0
2, 88260, Note_off_c, 0, 44, 64
2, 88292, Note_off_c, 0, 51, 64
2, 88293, Note_on_c, 0, 44, 87
2, 88308, Control_c, 0, 64, 127
2, 88363, Note_on_c, 0, 52, 47
2, 88390, Note_on_c, 0, 70, 88
2, 88397, Note_on_c, 0, 60, 56
2, 88422, Note_off_c, 0, 72, 64
2, 88432, Note_off_c, 0, 52, 64
2, 88456, Note_on_c, 0, 52, 52
2, 88464, Note_off_c, 0, 60, 64
2, 88497, Note_on_c, 0, 60, 56
2, 88525, Note_off_c, 0, 52, 64
2, 88535, Note_on_c, 0, 53, 53
2, 88548, Note_on_c, 0, 68, 78
2, 88550, Note_off_c, 0, 60, 64
2, 88572, Note_off_c, 0, 70, 64
2, 88585, Control_c, 0, 64, 0
2, 88602, Note_off_c, 0, 53, 64
2, 88628, Note_off_c, 0, 44, 64
2, 88637, Note_on_c, 0, 47, 61
2, 88655, Control_c, 0, 64, 127
2, 88687, Note_on_c, 0, 53, 56
2, 88716, Note_on_c, 0, 67, 78
2, 88733, Note_off_c, 0, 68, 64
2, 88746, Note_on_c, 0, 62, 53
2, 88756, Note_off_c, 0, 53, 64
2, 88780, Note_on_c, 0, 53, 49
2, 88815, Note_off_c, 0, 62, 64
2, 88836, Note_on_c, 0, 62, 54
2, 88849, Note_off_c, 0, 53, 64
2, 88861, Note_on_c, 0, 70, 76
2, 88882, Note_on_c, 0, 53, 50
2, 88884, Note_off_c, 0, 67, 64
2, 88903, Note_on_c, 0, 68, 85
2, 88905, Note_off_c, 0, 62, 64
2, 88936, Control_c, 0, 64, 0
2, 88942, Note_off_c, 0, 70, 64
2, 88951, Note_off_c, 0, 53, 64
2, 88952, Note_off_c, 0, 47, 64
2, 88981, Note_on_c, 0, 47, 66
2, 88987, Control_c, 0, 64, 127
2, 89035, Note_on_c, 0, 55, 47
2, 89066, Note_on_c, 0, 67, 78
2, 89092, Note_on_c, 0, 62, 2
2, 89094, Note_off_c, 0, 68, 64
2, 89104, Note_off_c, 0, 55, 64
2, 89154, Note_on_c, 0, 55, 52
2, 89161, Note_off_c, 0, 62, 64
2, 89210, Note_on_c, 0, 62, 61
2, 89223, Note_off_c, 0, 55, 64
2, 89250, Note_on_c, 0, 56, 62
2, 89276, Note_on_c, 0, 65, 85
2, 89279, Note_off_c, 0, 62, 64
2, 89291, Note_off_c, 0, 67, 64
2, 89299, Control_c, 0, 64, 0
2, 89313, Note_off_c, 0, 65, 64
2, 89316, Note_off_c, 0, 47, 64
2, 89327, Note_off_c, 0, 56, 64
2, 89339, Note_on_c, 0, 65, 79
2, 89348, Note_on_c, 0, 48, 75
2, 89353, Control_c, 0, 64, 127
2, 89410, Note_on_c, 0, 55, 48
2, 89453, Note_on_c, 0, 64, 75
2, 89466, Note_on_c, 0, 58, 61
2, 89471, Note_off_c, 0, 65, 64
2, 89481, Note_off_c, 0, 55, 64
2, 89526, Note_on_c, 0, 61, 65
2, 89535, Note_off_c, 0, 58, 64
2, 89564, Note_on_c, 0, 58, 59
2, 89593, Note_off_c, 0, 64, 64
2, 89595, Note_off_c, 0, 61, 64
2, 89610, Note_on_c, 0, 73, 78
2, 89616, Note_on_c, 0, 70, 79
2, 89630, Note_on_c, 0, 55, 32
2, 89631, Note_off_c, 0, 58, 64
2, 89641, Control_c, 0, 64, 0
2, 89673, Note_off_c, 0, 48, 64
2, 89691, Note_on_c, 0, 48, 79
2, 89699, Note_off_c, 0, 55, 64
2, 89700, Note_on_c, 0, 72, 58
2, 89707, Note_on_c, 0, 68, 78
2, 89710, Control_c, 0, 64, 127
2, 89725, Note_off_c, 0, 73, 64
2, 89731, Note_off_c, 0, 70, 64
2, 89760, Note_on_c, 0, 56, 62
2, 89784, Note_on_c, 0, 70, 87
2, 89787, Note_on_c, 0, 67, 75
2, 89809, Note_on_c, 0, 59, 68
2, 89815, Note_off_c, 0, 72, 64
2, 89822, Note_off_c, 0, 68, 64
2, 89835, Note_off_c, 0, 56, 64
2, 89868, Note_on_c, 0, 62, 62
2, 89878, Note_off_c, 0, 59, 64
2, 89888, Note_on_c, 0, 68, 81
2, 89892, Note_on_c, 0, 65, 82
2, 89899, Note_off_c, 0, 70, 64
2, 89899, Note_on_c, 0, 59, 47
2, 89902, Note_off_c, 0, 67, 64
2, 89937, Note_off_c, 0, 62, 64
2, 89961, Note_on_c, 0, 56, 42
2, 89964, Note_on_c, 0, 74, 66
2, 89968, Note_on_c, 0, 77, 76
2, 89973, Note_off_c, 0, 59, 64
2, 89988, Control_c, 0, 64, 0
2, 90003, Note_off_c, 0, 68, 64
2, 90007, Note_off_c, 0, 65, 64
2, 90016, Note_off_c, 0, 48, 64
2, 90030, Note_off_c, 0, 56, 64
2, 90030, Note_on_c, 0, 48, 76
2, 90045, Control_c, 0, 64, 127
2, 90050, Note_on_c, 0, 72, 85
2, 90051, Note_on_c, 0, 76, 80
2, 90079, Note_off_c, 0, 74, 64
2, 90083, Note_off_c, 0, 77, 64
2, 90108, Note_on_c, 0, 55, 54
2, 90134, Note_on_c, 0, 67, 70
2, 90134, Note_on_c, 0, 64, 68
2, 90153, Note_off_c, 0, 72, 64
2, 90166, Note_off_c, 0, 76, 64
2, 90170, Note_on_c, 0, 58, 73
2, 90184, Note_off_c, 0, 55, 64
2, 90204, Note_off_c, 0, 67, 64
2, 90206, Note_off_c, 0, 64, 64
2, 90225, Note_on_c, 0, 61, 73
2, 90239, Note_off_c, 0, 58, 64
2, 90260, Note_on_c, 0, 58, 56
2, 90289, Note_on_c, 0, 73, 73
2, 90289, Note_on_c, 0, 70, 56
2, 90294, Note_off_c, 0, 61, 64
2, 90299, Note_on_c, 0, 55, 39
2, 90317, Control_c, 0, 64, 0
2, 90329, Note_off_c, 0, 58, 64
2, 90355, Note_off_c, 0, 48, 64
2, 90365, Note_on_c, 0, 48, 74
2, 90368, Note_off_c, 0, 55, 64
2, 90380, Note_on_c, 0, 72, 83
2, 90383, Control_c, 0, 64, 127
2, 90396, Note_on_c, 0, 68, 79
2, 90404, Note_off_c, 0, 70, 64
2, 90404, Note_off_c, 0, 73, 64
2, 90448, Note_on_c, 0, 56, 59
2, 90469, Note_on_c, 0, 67, 70
2, 90472, Note_on_c, 0, 70, 85
2, 90495, Note_off_c, 0, 72, 64
2, 90498, Note_on_c, 0, 59, 67
2, 90511, Note_off_c, 0, 68, 64
2, 90517, Note_off_c, 0, 56, 64
2, 90549, Note_on_c, 0, 62, 68
2, 90555, Note_on_c, 0, 68, 85
2, 90563, Note_on_c, 0, 65, 79
2, 90567, Note_off_c, 0, 59, 64
2, 90580, Note_on_c, 0, 59, 50
2, 90584, Note_off_c, 0, 67, 64
2, 90587, Note_off_c, 0, 70, 64
2, 90618, Note_off_c, 0, 62, 64
2, 90621, Note_on_c, 0, 56, 40
2, 90636, Note_on_c, 0, 74, 79
2, 90640, Note_on_c, 0, 77, 72
2, 90648, Note_off_c, 0, 59, 64
2, 90669, Control_c, 0, 64, 0
2, 90670, Note_off_c, 0, 68, 64
2, 90678, Note_off_c, 0, 65, 64
2, 90690, Note_off_c, 0, 48, 64
2, 90699, Note_off_c, 0, 56, 64
2, 90722, Note_on_c, 0, 48, 75
2, 90723, Control_c, 0, 64, 127
2, 90733, Note_on_c, 0, 76, 86
2, 90740, Note_on_c, 0, 72, 86
2, 90751, Note_off_c, 0, 74, 64
2, 90755, Note_off_c, 0, 77, 64
2, 90788, Note_on_c, 0, 55, 44
2, 90824, Note_on_c, 0, 67, 76
2, 90824, Note_on_c, 0, 64, 76
2, 90848, Note_off_c, 0, 76, 64
2, 90855, Note_off_c, 0, 72, 64
2, 90856, Note_on_c, 0, 60, 43
2, 90857, Note_off_c, 0, 55, 64
2, 90879, Note_off_c, 0, 64, 64
2, 90879, Note_off_c, 0, 67, 64
2, 90895, Note_on_c, 0, 64, 65
2, 90925, Note_off_c, 0, 60, 64
2, 90940, Note_on_c, 0, 60, 54
2, 90956, Note_off_c, 0, 64, 64
2, 90984, Note_on_c, 0, 80, 72
2, 90984, Note_on_c, 0, 77, 70
2, 90985, Note_on_c, 0, 55, 53
2, 90992, Note_on_c, 0, 80, 72
2, 90992, Note_on_c, 0, 77, 70
2, 91009, Control_c, 0, 64, 0
2, 91017, Control_c, 0, 64, 0
2, 91023, Note_off_c, 0, 60, 64
2, 91047, Note_off_c, 0, 48, 64
2, 91047, Control_c, 0, 64, 127
2, 91052, Note_on_c, 0, 48, 69
2, 91055, Control_c, 0, 64, 127
2, 91060, Note_off_c, 0, 48, 64
2, 91060, Note_on_c, 0, 48, 69
2, 91070, Note_off_c, 0, 55, 64
2, 91070, Note_on_c, 0, 79, 75
2, 91076, Note_on_c, 0, 76, 67
2, 91090, Note_off_c, 0, 80, 64
2, 91091, Note_off_c, 0, 77, 64
2, 91099, Note_off_c, 0, 77, 64
2, 91107, Note_off_c, 0, 80, 64
2, 91125, Note_on_c, 0, 55, 53
2, 91143, Note_on_c, 0, 72, 74
2, 91153, Note_on_c, 0, 67, 70
2, 91185, Note_off_c, 0, 79, 64
2, 91188, Note_on_c, 0, 60, 44
2, 91191, Note_off_c, 0, 76, 64
2, 91200, Note_off_c, 0, 55, 64
2, 91213, Note_off_c, 0, 72, 64
2, 91223, Note_off_c, 0, 67, 64
2, 91230, Note_on_c, 0, 64, 61
2, 91257, Note_off_c, 0, 60, 64
2, 91278, Note_on_c, 0, 60, 53
2, 91300, Note_off_c, 0, 64, 64
2, 91320, Note_on_c, 0, 84, 73
2, 91328, Note_on_c, 0, 80, 75
2, 91339, Note_on_c, 0, 55, 38
2, 91347, Note_off_c, 0, 60, 64
2, 91385, Note_off_c, 0, 48, 64
2, 91386, Control_c, 0, 64, 0
2, 91413, Note_on_c, 0, 48, 63
2, 91417, Note_off_c, 0, 84, 64
2, 91420, Note_on_c, 0, 79, 62
2, 91424, Note_on_c, 0, 84, 67
2, 91427, Note_off_c, 0, 55, 64
2, 91434, Control_c, 0, 64, 127
2, 91443, Note_off_c, 0, 80, 64
2, 91499, Note_on_c, 0, 55, 45
2, 91523, Note_on_c, 0, 72, 56
2, 91535, Note_off_c, 0, 79, 64
2, 91575, Note_on_c, 0, 60, 49
2, 91588, Note_off_c, 0, 55, 64
2, 91604, Note_off_c, 0, 84, 64
2, 91632, Note_on_c, 0, 64, 52
2, 91643, Note_off_c, 0, 60, 64
2, 91682, Note_on_c, 0, 60, 45
2, 91704, Note_on_c, 0, 84, 66
2, 91708, Note_off_c, 0, 72, 64
2, 91709, Note_on_c, 0, 72, 64
2, 91714, Note_off_c, 0, 64, 64
2, 91760, Note_off_c, 0, 60, 64
2, 91765, Note_on_c, 0, 55, 43
2, 91808, Note_off_c, 0, 48, 64
2, 91832, Note_on_c, 0, 48, 62
2, 91842, Note_off_c, 0, 55, 64
2, 91847, Note_off_c, 0, 84, 64
2, 91918, Note_on_c, 0, 55, 41
2, 91924, Note_off_c, 0, 72, 64
2, 91932, Note_on_c, 0, 84, 62
2, 91944, Note_on_c, 0, 72, 60
2, 92017, Note_on_c, 0, 60, 33
2, 92039, Note_off_c, 0, 55, 64
2, 92053, Note_off_c, 0, 84, 64
2, 92078, Control_c, 0, 64, 0
2, 92096, Note_on_c, 0, 64, 38
2, 92099, Note_off_c, 0, 60, 64
2, 92142, Control_c, 0, 64, 127
2, 92159, Note_off_c, 0, 72, 64
2, 92174, Note_on_c, 0, 60, 43
2, 92180, Note_on_c, 0, 84, 54
2, 92183, Note_on_c, 0, 72, 46
2, 92190, Note_off_c, 0, 64, 64
2, 92284, Note_on_c, 0, 55, 41
2, 92287, Note_off_c, 0, 60, 64
2, 92376, Note_off_c, 0, 72, 64
2, 92376, Note_off_c, 0, 84, 64
2, 92378, Note_off_c, 0, 55, 64
2, 92397, Note_off_c, 0, 48, 64
2, 92415, Note_on_c, 0, 44, 49
2, 92417, Note_on_c, 0, 84, 64
2, 92417, Note_on_c, 0, 80, 63
2, 92422, Control_c, 0, 64, 0
2, 92426, Control_c, 0, 64, 127
2, 92520, Note_on_c, 0, 63, 49
2, 92577, Note_on_c, 0, 85, 66
2, 92594, Note_on_c, 0, 56, 49
2, 92595, Note_off_c, 0, 80, 64
2, 92595, Note_off_c, 0, 84, 64
2, 92597, Note_on_c, 0, 75, 30
2, 92601, Note_off_c, 0, 63, 64
2, 92682, Note_off_c, 0, 56, 64
2, 92688, Control_c, 0, 64, 0
2, 92689, Note_off_c, 0, 44, 64
2, 92696, Note_on_c, 0, 86, 74
2, 92696, Note_on_c, 0, 51, 49
2, 92707, Note_off_c, 0, 85, 64
2, 92708, Note_on_c, 0, 80, 57
2, 92727, Note_off_c, 0, 75, 64
2, 92727, Control_c, 0, 64, 127
2, 92778, Note_on_c, 0, 63, 49
2, 92816, Note_on_c, 0, 87, 61
2, 92816, Note_on_c, 0, 75, 68
2, 92840, Note_off_c, 0, 86, 64
2, 92852, Note_off_c, 0, 80, 64
2, 92854, Note_on_c, 0, 56, 49
2, 92864, Note_off_c, 0, 63, 64
2, 92925, Control_c, 0, 64, 0
2, 92940, Note_on_c, 0, 89, 74
2, 92942, Note_off_c, 0, 56, 64
2, 92945, Note_on_c, 0, 46, 49
2, 92948, Note_on_c, 0, 79, 60
2, 92951, Note_off_c, 0, 75, 64
2, 92951, Note_off_c, 0, 87, 64
2, 92963, Control_c, 0, 64, 127
2, 92969, Note_off_c, 0, 51, 64
2, 93009, Note_on_c, 0, 63, 49
2, 93056, Note_on_c, 0, 87, 69
2, 93056, Note_on_c, 0, 85, 62
2, 93063, Note_off_c, 0, 89, 64
2, 93071, Note_off_c, 0, 79, 64
2, 93076, Note_off_c, 0, 63, 64
2, 93082, Note_on_c, 0, 55, 49
2, 93125, Note_off_c, 0, 85, 64
2, 93128, Note_on_c, 0, 85, 68
2, 93148, Control_c, 0, 64, 0
2, 93162, Note_off_c, 0, 55, 64
2, 93176, Note_on_c, 0, 96, 73
2, 93178, Note_on_c, 0, 51, 49
2, 93185, Note_off_c, 0, 46, 64
2, 93189, Note_off_c, 0, 87, 64
2, 93197, Control_c, 0, 64, 127
2, 93253, Note_on_c, 0, 63, 49
2, 93257, Note_off_c, 0, 85, 64
2, 93309, Note_on_c, 0, 55, 49
2, 93323, Note_off_c, 0, 63, 64
2, 93354, Note_on_c, 0, 87, 55
2, 93358, Note_on_c, 0, 94, 80
2, 93375, Note_off_c, 0, 96, 64
2, 93378, Control_c, 0, 64, 0
2, 93388, Note_off_c, 0, 94, 64
2, 93393, Note_off_c, 0, 55, 64
2, 93400, Note_on_c, 0, 94, 73
2, 93405, Note_on_c, 0, 84, 79
2, 93405, Note_on_c, 0, 48, 49
2, 93413, Note_off_c, 0, 51, 64
2, 93414, Note_off_c, 0, 87, 64
2, 93424, Control_c, 0, 64, 127
2, 93466, Note_on_c, 0, 63, 49
2, 93505, Note_on_c, 0, 92, 68
2, 93513, Note_on_c, 0, 87, 72
2, 93515, Note_off_c, 0, 94, 64
2, 93520, Note_off_c, 0, 84, 64
2, 93545, Note_on_c, 0, 56, 49
2, 93549, Note_off_c, 0, 63, 64
2, 93590, Note_off_c, 0, 48, 64
2, 93592, Control_c, 0, 64, 0
2, 93616, Note_on_c, 0, 91, 70
2, 93621, Note_on_c, 0, 48, 49
2, 93622, Note_on_c, 0, 82, 64
2, 93629, Note_off_c, 0, 56, 64
2, 93636, Control_c, 0, 64, 127
2, 93640, Note_off_c, 0, 92, 64
2, 93648, Note_off_c, 0, 87, 64
2, 93685, Note_on_c, 0, 89, 64
2, 93689, Note_on_c, 0, 80, 80
2, 93692, Note_on_c, 0, 64, 49
2, 93705, Note_off_c, 0, 91, 64
2, 93711, Note_off_c, 0, 82, 64
2, 93748, Note_on_c, 0, 79, 51
2, 93752, Note_on_c, 0, 88, 69
2, 93756, Note_on_c, 0, 58, 49
2, 93774, Note_off_c, 0, 89, 64
2, 93778, Note_off_c, 0, 80, 64
2, 93793, Note_off_c, 0, 64, 64
2, 93806, Note_off_c, 0, 48, 64
2, 93806, Control_c, 0, 64, 0
2, 93822, Note_off_c, 0, 58, 64
2, 93829, Note_on_c, 0, 91, 73
2, 93832, Note_on_c, 0, 82, 80
2, 93838, Note_on_c, 0, 53, 49
2, 93840, Note_off_c, 0, 79, 64
2, 93844, Note_off_c, 0, 88, 64
2, 93844, Control_c, 0, 64, 127
2, 93898, Note_on_c, 0, 65, 49
2, 93951, Note_on_c, 0, 60, 49
2, 93973, Note_off_c, 0, 65, 64
2, 93976, Note_on_c, 0, 89, 79
2, 93976, Note_on_c, 0, 80, 73
2, 93992, Note_off_c, 0, 91, 64
2, 93992, Poly_aftertouch_c, 0, 80, 101
2, 93995, Note_off_c, 0, 82, 64
2, 94006, Note_off_c, 0, 80, 64
2, 94006, Note_off_c, 0, 89, 64
2, 94013, Poly_aftertouch_c, 0, 80, 0
2, 94015, Control_c, 0, 64, 0
2, 94023, Note_off_c, 0, 53, 64
2, 94024, Note_off_c, 0, 60, 64
2, 94039, Note_on_c, 0, 58, 49
2, 94040, Note_on_c, 0, 89, 79
2, 94040, Note_on_c, 0, 80, 73
2, 94054, Control_c, 0, 64, 127
2, 94110, Note_on_c, 0, 87, 62
2, 94119, Note_on_c, 0, 68, 49
2, 94148, Note_off_c, 0, 89, 64
2, 94150, Note_on_c, 0, 82, 75
2, 94167, Note_off_c, 0, 80, 64
2, 94179, Note_on_c, 0, 62, 49
2, 94180, Note_off_c, 0, 68, 64
2, 94194, Note_on_c, 0, 86, 73
2, 94224, Note_off_c, 0, 58, 64
2, 94228, Note_off_c, 0, 87, 64
2, 94242, Control_c, 0, 64, 0
2, 94252, Note_off_c, 0, 62, 64
2, 94260, Note_on_c, 0, 51, 49
2, 94267, Note_on_c, 0, 89, 73
2, 94267, Note_on_c, 0, 79, 62
2, 94280, Control_c, 0, 64, 127
2, 94292, Note_off_c, 0, 86, 64
2, 94292, Note_off_c, 0, 82, 64
2, 94336, Note_on_c, 0, 67, 49
2, 94371, Note_on_c, 0, 87, 69
2, 94376, Note_on_c, 0, 82, 73
2, 94391, Note_off_c, 0, 79, 64
2, 94391, Note_off_c, 0, 89, 64
2, 94407, Note_on_c, 0, 63, 49
2, 94424, Note_off_c, 0, 67, 64
2, 94445, Note_off_c, 0, 51, 64
2, 94458, Control_c, 0, 64, 0
2, 94488, Note_on_c, 0, 78, 72
2, 94490, Note_on_c, 0, 56, 49
2, 94494, Note_off_c, 0, 63, 64
2, 94494, Note_on_c, 0, 85, 74
2, 94510, Control_c, 0, 64, 127
2, 94517, Note_off_c, 0, 87, 64
2, 94522, Note_off_c, 0, 82, 64
2, 94554, Note_on_c, 0, 66, 49
2, 94598, Note_on_c, 0, 84, 68
2, 94598, Note_on_c, 0, 80, 68
2, 94613, Note_off_c, 0, 78, 64
2, 94619, Note_off_c, 0, 85, 64
2, 94631, Note_on_c, 0, 63, 49
2, 94638, Note_off_c, 0, 66, 64
2, 94668, Control_c, 0, 64, 0
2, 94675, Note_off_c, 0, 56, 64
2, 94703, Note_on_c, 0, 87, 68
2, 94704, Note_off_c, 0, 63, 64
2, 94705, Note_on_c, 0, 49, 49
2, 94706, Note_on_c, 0, 77, 61
2, 94713, Control_c, 0, 64, 127
2, 94740, Note_off_c, 0, 80, 64
2, 94740, Note_off_c, 0, 84, 64
2, 94787, Note_on_c, 0, 65, 49
2, 94805, Note_on_c, 0, 85, 68
2, 94808, Note_on_c, 0, 80, 62
2, 94812, Note_off_c, 0, 87, 64
2, 94815, Note_off_c, 0, 77, 64
2, 94830, Note_on_c, 0, 61, 49
2, 94862, Note_off_c, 0, 65, 64
2, 94880, Control_c, 0, 64, 0
2, 94907, Note_on_c, 0, 73, 73
2, 94913, Note_off_c, 0, 61, 64
2, 94914, Note_on_c, 0, 84, 72
2, 94914, Note_on_c, 0, 58, 49
2, 94931, Control_c, 0, 64, 127
2, 94943, Note_off_c, 0, 85, 64
2, 94946, Note_off_c, 0, 80, 64
2, 94973, Note_off_c, 0, 49, 64
2, 94976, Note_on_c, 0, 65, 49
2, 95012, Note_on_c, 0, 82, 64
2, 95019, Note_on_c, 0, 77, 64
2, 95029, Note_off_c, 0, 73, 64
2, 95036, Note_off_c, 0, 84, 64
2, 95055, Note_on_c, 0, 61, 49
2, 95067, Note_off_c, 0, 65, 64
2, 95098, Control_c, 0, 64, 0
2, 95099, Note_off_c, 0, 58, 64
2, 95114, Note_off_c, 0, 82, 64
2, 95122, Note_off_c, 0, 61, 64
2, 95127, Note_on_c, 0, 72, 68
2, 95127, Note_on_c, 0, 51, 49
2, 95129, Note_on_c, 0, 82, 70
2, 95143, Control_c, 0, 64, 127
2, 95144, Note_off_c, 0, 77, 64
2, 95196, Note_on_c, 0, 63, 49
2, 95226, Note_on_c, 0, 80, 62
2, 95231, Note_on_c, 0, 75, 64
2, 95249, Note_on_c, 0, 60, 49
2, 95264, Note_off_c, 0, 72, 64
2, 95266, Note_off_c, 0, 82, 64
2, 95269, Note_off_c, 0, 63, 64
2, 95296, Control_c, 0, 64, 0
2, 95312, Note_off_c, 0, 51, 64
2, 95323, Note_on_c, 0, 56, 49
2, 95329, Note_off_c, 0, 60, 64
2, 95330, Note_on_c, 0, 79, 68
2, 95335, Note_on_c, 0, 68, 77
2, 95341, Control_c, 0, 64, 127
2, 95348, Note_off_c, 0, 80, 64
2, 95353, Note_off_c, 0, 75, 64
2, 95394, Note_on_c, 0, 63, 49
2, 95429, Note_on_c, 0, 77, 69
2, 95429, Note_on_c, 0, 72, 68
2, 95442, Note_on_c, 0, 60, 49
2, 95446, Note_off_c, 0, 63, 64
2, 95458, Note_off_c, 0, 79, 64
2, 95463, Note_off_c, 0, 68, 64
2, 95508, Note_off_c, 0, 56, 64
2, 95512, Control_c, 0, 64, 0
2, 95522, Note_off_c, 0, 60, 64
2, 95528, Note_on_c, 0, 67, 46
2, 95528, Note_on_c, 0, 39, 49
2, 95533, Note_on_c, 0, 75, 68
2, 95547, Control_c, 0, 64, 127
2, 95564, Note_off_c, 0, 72, 64
2, 95568, Note_off_c, 0, 77, 64
2, 95609, Note_on_c, 0, 61, 49
2, 95632, Note_on_c, 0, 76, 68
2, 95633, Note_on_c, 0, 73, 50
2, 95664, Note_on_c, 0, 55, 49
2, 95667, Note_off_c, 0, 67, 64
2, 95669, Note_off_c, 0, 61, 64
2, 95672, Note_off_c, 0, 75, 64
2, 95727, Control_c, 0, 64, 0
2, 95740, Note_on_c, 0, 67, 61
2, 95743, Note_on_c, 0, 79, 64
2, 95747, Note_off_c, 0, 55, 64
2, 95752, Note_on_c, 0, 51, 49
2, 95767, Note_off_c, 0, 76, 64
2, 95768, Note_off_c, 0, 73, 64
2, 95771, Control_c, 0, 64, 127
2, 95799, Note_off_c, 0, 39, 64
2, 95815, Note_on_c, 0, 61, 49
2, 95821, Note_on_c, 0, 77, 73
2, 95828, Note_off_c, 0, 79, 64
2, 95865, Note_on_c, 0, 70, 79
2, 95872, Note_off_c, 0, 67, 64
2, 95882, Note_on_c, 0, 55, 49
2, 95884, Note_off_c, 0, 61, 64
2, 95898, Note_on_c, 0, 73, 69
2, 95914, Note_off_c, 0, 77, 64
2, 95937, Note_off_c, 0, 51, 64
2, 95954, Control_c, 0, 64, 0
2, 95962, Note_off_c, 0, 55, 64
2, 95975, Note_on_c, 0, 72, 80
2, 95977, Note_on_c, 0, 68, 77
2, 95977, Note_on_c, 0, 44, 49
2, 95984, Note_off_c, 0, 73, 64
2, 95991, Note_off_c, 0, 70, 64
2, 95997, Control_c, 0, 64, 127
2, 96050, Note_on_c, 0, 60, 49
2, 96091, Note_on_c, 0, 73, 77
2, 96092, Note_on_c, 0, 63, 49
2, 96103, Note_off_c, 0, 72, 64
2, 96105, Note_off_c, 0, 68, 64
2, 96114, Note_on_c, 0, 56, 49
2, 96130, Note_off_c, 0, 60, 64
2, 96169, Control_c, 0, 64, 0
2, 96192, Note_on_c, 0, 51, 49
2, 96196, Note_on_c, 0, 68, 64
2, 96197, Note_off_c, 0, 56, 64
2, 96197, Note_on_c, 0, 74, 72
2, 96213, Note_off_c, 0, 73, 64
2, 96214, Note_off_c, 0, 63, 64
2, 96221, Control_c, 0, 64, 127
2, 96251, Note_off_c, 0, 44, 64
2, 96262, Note_on_c, 0, 60, 49
2, 96302, Note_on_c, 0, 75, 61
2, 96304, Note_on_c, 0, 63, 49
2, 96313, Note_off_c, 0, 68, 64
2, 96314, Note_off_c, 0, 74, 64
2, 96320, Note_on_c, 0, 56, 49
2, 96344, Note_off_c, 0, 60, 64
2, 96377, Note_off_c, 0, 51, 64
2, 96377, Control_c, 0, 64, 0
2, 96384, Note_off_c, 0, 56, 64
2, 96398, Note_on_c, 0, 46, 49
2, 96403, Note_on_c, 0, 77, 70
2, 96404, Note_on_c, 0, 67, 69
2, 96412, Note_off_c, 0, 75, 64
2, 96414, Note_off_c, 0, 63, 64
2, 96429, Control_c, 0, 64, 127
2, 96461, Note_on_c, 0, 63, 49
2, 96504, Note_off_c, 0, 67, 64
2, 96504, Note_on_c, 0, 73, 62
2, 96505, Note_on_c, 0, 75, 67
2, 96513, Note_off_c, 0, 77, 64
2, 96517, Note_on_c, 0, 55, 49
2, 96526, Note_off_c, 0, 63, 64
2, 96549, Note_off_c, 0, 73, 64
2, 96562, Note_on_c, 0, 73, 80
2, 96576, Control_c, 0, 64, 0
2, 96583, Note_off_c, 0, 46, 64
2, 96600, Note_off_c, 0, 55, 64
2, 96605, Note_on_c, 0, 84, 73
2, 96607, Note_on_c, 0, 51, 49
2, 96626, Note_off_c, 0, 75, 64
2, 96633, Control_c, 0, 64, 127
2, 96670, Note_on_c, 0, 63, 49
2, 96683, Note_off_c, 0, 73, 64
2, 96736, Note_on_c, 0, 55, 49
2, 96751, Note_off_c, 0, 63, 64
2, 96780, Note_on_c, 0, 75, 64
2, 96782, Control_c, 0, 64, 0
2, 96787, Note_on_c, 0, 82, 72
2, 96792, Note_off_c, 0, 51, 64
2, 96803, Note_off_c, 0, 82, 64
2, 96806, Note_off_c, 0, 84, 64
2, 96816, Note_on_c, 0, 48, 49
2, 96824, Note_on_c, 0, 82, 82
2, 96824, Note_on_c, 0, 72, 64
2, 96828, Note_off_c, 0, 55, 64
2, 96828, Control_c, 0, 64, 127
2, 96837, Note_off_c, 0, 75, 64
2, 96888, Note_on_c, 0, 63, 49
2, 96920, Note_on_c, 0, 80, 69
2, 96920, Note_on_c, 0, 75, 72
2, 96927, Note_off_c, 0, 72, 64
2, 96927, Note_off_c, 0, 82, 64
2, 96944, Note_on_c, 0, 56, 49
2, 96948, Note_off_c, 0, 63, 64
2, 96988, Control_c, 0, 64, 0
2, 97001, Note_off_c, 0, 48, 64
2, 97014, Note_on_c, 0, 48, 49
2, 97016, Note_on_c, 0, 79, 70
2, 97019, Note_on_c, 0, 70, 73
2, 97028, Note_off_c, 0, 75, 64
2, 97028, Note_off_c, 0, 80, 64
2, 97029, Control_c, 0, 64, 127
2, 97039, Note_off_c, 0, 56, 64
2, 97071, Note_on_c, 0, 77, 73
2, 97075, Note_off_c, 0, 79, 64
2, 97078, Note_off_c, 0, 70, 64
2, 97081, Note_on_c, 0, 68, 77
2, 97087, Note_on_c, 0, 64, 49
2, 97128, Note_on_c, 0, 76, 64
2, 97135, Note_on_c, 0, 67, 51
2, 97137, Note_off_c, 0, 77, 64
2, 97147, Note_off_c, 0, 68, 64
2, 97147, Note_on_c, 0, 58, 49
2, 97181, Control_c, 0, 64, 0
2, 97195, Note_off_c, 0, 64, 64
2, 97199, Note_off_c, 0, 48, 64
2, 97204, Note_on_c, 0, 79, 70
2, 97204, Note_on_c, 0, 70, 83
2, 97213, Note_on_c, 0, 53, 49
2, 97216, Note_off_c, 0, 58, 64
2, 97224, Note_off_c, 0, 76, 64
2, 97227, Control_c, 0, 64, 127
2, 97231, Note_off_c, 0, 67, 64
2, 97286, Note_on_c, 0, 65, 49
2, 97345, Note_on_c, 0, 60, 49
2, 97352, Note_off_c, 0, 65, 64
2, 97382, Note_on_c, 0, 77, 68
2, 97384, Note_on_c, 0, 68, 83
2, 97388, Note_off_c, 0, 70, 64
2, 97388, Note_off_c, 0, 79, 64
2, 97390, Control_c, 0, 64, 0
2, 97398, Note_off_c, 0, 53, 64
2, 97411, Note_off_c, 0, 77, 64
2, 97413, Note_off_c, 0, 68, 64
2, 97420, Note_off_c, 0, 60, 64
2, 97428, Note_on_c, 0, 68, 70
2, 97429, Note_on_c, 0, 77, 79
2, 97433, Note_on_c, 0, 46, 49
2, 97442, Control_c, 0, 64, 127
2, 97498, Note_on_c, 0, 75, 56
2, 97514, Note_off_c, 0, 77, 64
2, 97519, Note_on_c, 0, 65, 49
2, 97537, Note_on_c, 0, 70, 77
2, 97565, Note_on_c, 0, 58, 49
2, 97573, Note_off_c, 0, 65, 64
2, 97575, Note_off_c, 0, 68, 64
2, 97582, Note_on_c, 0, 74, 68
2, 97600, Note_off_c, 0, 75, 64
2, 97636, Control_c, 0, 64, 0
2, 97644, Note_off_c, 0, 58, 64
2, 97664, Note_on_c, 0, 67, 62
2, 97665, Note_on_c, 0, 51, 49
2, 97667, Note_on_c, 0, 77, 74
2, 97674, Note_off_c, 0, 70, 64
2, 97683, Control_c, 0, 64, 127
2, 97688, Note_off_c, 0, 74, 64
2, 97698, Note_off_c, 0, 46, 64
2, 97727, Note_on_c, 0, 63, 49
2, 97776, Note_on_c, 0, 70, 70
2, 97780, Note_on_c, 0, 75, 68
2, 97788, Note_off_c, 0, 67, 64
2, 97791, Note_off_c, 0, 77, 64
2, 97805, Note_off_c, 0, 63, 64
2, 97807, Note_on_c, 0, 58, 49
2, 97850, Note_off_c, 0, 51, 64
2, 97853, Control_c, 0, 64, 0
2, 97881, Note_on_c, 0, 44, 49
2, 97886, Note_on_c, 0, 66, 80
2, 97887, Note_off_c, 0, 58, 64
2, 97887, Note_on_c, 0, 73, 73
2, 97896, Note_off_c, 0, 70, 64
2, 97897, Control_c, 0, 64, 127
2, 97900, Note_off_c, 0, 75, 64
2, 97953, Note_on_c, 0, 63, 49
2, 97992, Note_on_c, 0, 72, 72
2, 97995, Note_on_c, 0, 68, 68
2, 98007, Note_on_c, 0, 56, 49
2, 98012, Note_off_c, 0, 66, 64
2, 98013, Note_off_c, 0, 73, 64
2, 98014, Note_off_c, 0, 63, 64
2, 98062, Control_c, 0, 64, 0
2, 98066, Note_off_c, 0, 44, 64
2, 98084, Note_on_c, 0, 65, 68
2, 98087, Note_on_c, 0, 75, 74
2, 98089, Note_on_c, 0, 49, 49
2, 98092, Note_off_c, 0, 56, 64
2, 98095, Note_off_c, 0, 72, 64
2, 98098, Note_off_c, 0, 68, 64
2, 98108, Control_c, 0, 64, 127
2, 98165, Note_on_c, 0, 61, 49
2, 98205, Note_on_c, 0, 73, 62
2, 98210, Note_on_c, 0, 68, 47
2, 98213, Note_off_c, 0, 65, 64
2, 98216, Note_off_c, 0, 75, 64
2, 98231, Note_off_c, 0, 61, 64
2, 98238, Note_on_c, 0, 56, 49
2, 98274, Note_off_c, 0, 49, 64
2, 98283, Control_c, 0, 64, 0
2, 98304, Note_on_c, 0, 72, 74
2, 98306, Note_on_c, 0, 61, 68
2, 98312, Note_on_c, 0, 37, 79
2, 98318, Note_off_c, 0, 56, 64
2, 98319, Control_c, 0, 64, 127
2, 98324, Note_off_c, 0, 73, 64
2, 98329, Note_off_c, 0, 68, 64
2, 98395, Note_on_c, 0, 58, 49
2, 98432, Note_on_c, 0, 70, 61
2, 98435, Note_on_c, 0, 65, 62
2, 98457, Note_on_c, 0, 53, 49
2, 98459, Note_off_c, 0, 72, 64
2, 98461, Note_off_c, 0, 61, 64
2, 98475, Note_off_c, 0, 58, 64
2, 98497, Note_off_c, 0, 37, 64
2, 98518, Control_c, 0, 64, 0
2, 98529, Note_off_c, 0, 70, 64
2, 98533, Note_on_c, 0, 70, 69
2, 98536, Note_on_c, 0, 60, 64
2, 98537, Note_off_c, 0, 53, 64
2, 98541, Note_on_c, 0, 39, 49
2, 98558, Note_off_c, 0, 65, 64
2, 98561, Control_c, 0, 64, 127
2, 98611, Note_on_c, 0, 56, 49
2, 98637, Note_on_c, 0, 68, 69
2, 98643, Note_on_c, 0, 63, 68
2, 98652, Note_off_c, 0, 70, 64
2, 98655, Note_off_c, 0, 60, 64
2, 98674, Note_on_c, 0, 51, 49
2, 98678, Note_off_c, 0, 56, 64
2, 98718, Control_c, 0, 64, 0
2, 98749, Note_off_c, 0, 51, 64
2, 98749, Note_on_c, 0, 56, 49
2, 98752, Note_on_c, 0, 67, 68
2, 98757, Control_c, 0, 64, 127
2, 98760, Note_on_c, 0, 48, 49
2, 98761, Note_off_c, 0, 68, 64
2, 98767, Note_off_c, 0, 63, 64
2, 98807, Note_off_c, 0, 56, 64
2, 98814, Note_off_c, 0, 39, 64
2, 98825, Note_on_c, 0, 56, 49
2, 98860, Note_on_c, 0, 60, 70
2, 98864, Note_on_c, 0, 68, 68
2, 98879, Note_off_c, 0, 67, 64
2, 98889, Note_on_c, 0, 51, 49
2, 98895, Note_off_c, 0, 56, 64
2, 98937, Control_c, 0, 64, 0
2, 98945, Note_off_c, 0, 48, 64
2, 98966, Note_on_c, 0, 39, 49
2, 98969, Note_off_c, 0, 51, 64
2, 98971, Note_on_c, 0, 61, 71
2, 98974, Note_on_c, 0, 69, 72
2, 98977, Note_off_c, 0, 60, 64
2, 98981, Note_off_c, 0, 68, 64
2, 98982, Control_c, 0, 64, 127
2, 99034, Note_on_c, 0, 55, 49
2, 99075, Note_on_c, 0, 70, 68
2, 99075, Note_on_c, 0, 63, 61
2, 99085, Note_off_c, 0, 61, 64
2, 99087, Note_on_c, 0, 51, 49
2, 99088, Note_off_c, 0, 69, 64
2, 99103, Note_off_c, 0, 55, 64
2, 99152, Control_c, 0, 64, 0
2, 99168, Note_off_c, 0, 51, 64
2, 99171, Note_on_c, 0, 46, 49
2, 99177, Note_on_c, 0, 72, 73
2, 99177, Note_on_c, 0, 61, 65
2, 99197, Note_off_c, 0, 63, 64
2, 99197, Note_off_c, 0, 70, 64
2, 99197, Control_c, 0, 64, 127
2, 99233, Note_on_c, 0, 55, 49
2, 99244, Note_off_c, 0, 39, 64
2, 99292, Note_on_c, 0, 73, 69
2, 99292, Note_on_c, 0, 63, 51
2, 99303, Note_on_c, 0, 51, 45
2, 99311, Note_off_c, 0, 61, 64
2, 99311, Note_off_c, 0, 72, 64
2, 99315, Note_off_c, 0, 55, 64
2, 99336, Note_off_c, 0, 46, 64
2, 99348, Note_on_c, 0, 38, 45
2, 99380, Note_on_c, 0, 56, 60
2, 99380, Note_on_c, 0, 47, 81
2, 99383, Control_c, 0, 64, 0
2, 99393, Note_off_c, 0, 51, 64
2, 99404, Note_off_c, 0, 63, 64
2, 99404, Note_off_c, 0, 73, 64
2, 99404, Note_on_c, 0, 53, 81
2, 99406, Note_on_c, 0, 71, 79
2, 99423, Note_off_c, 0, 56, 64
2, 99432, Control_c, 0, 64, 127
2, 99465, Note_on_c, 0, 68, 67
2, 99469, Note_off_c, 0, 71, 64
2, 99539, Note_on_c, 0, 65, 65
2, 99555, Note_off_c, 0, 68, 64
2, 99600, Note_on_c, 0, 58, 67
2, 99608, Note_off_c, 0, 65, 64
2, 99654, Note_off_c, 0, 38, 64
2, 99665, Note_on_c, 0, 59, 60
2, 99676, Note_off_c, 0, 58, 64
2, 99691, Note_off_c, 0, 53, 64
2, 99696, Note_off_c, 0, 47, 64
2, 99716, Note_on_c, 0, 56, 61
2, 99727, Note_off_c, 0, 59, 64
2, 99782, Note_on_c, 0, 55, 66
2, 99784, Note_on_c, 0, 46, 25
2, 99787, Note_on_c, 0, 39, 66
2, 99789, Note_off_c, 0, 56, 64
2, 99803, Control_c, 0, 64, 0
2, 99836, Note_on_c, 0, 58, 63
2, 99843, Control_c, 0, 64, 127
2, 99866, Note_off_c, 0, 55, 64
2, 99907, Note_on_c, 0, 62, 62
2, 99918, Control_c, 0, 64, 0
2, 99925, Note_off_c, 0, 58, 64
2, 99958, Control_c, 0, 64, 127
2, 99965, Note_on_c, 0, 64, 55
2, 99991, Note_off_c, 0, 62, 64
2, 100008, Note_off_c, 0, 46, 64
2, 100027, Note_on_c, 0, 63, 78
2, 100033, Note_off_c, 0, 64, 64
2, 100044, Note_off_c, 0, 39, 64
2, 100085, Note_on_c, 0, 75, 60
2, 100099, Note_off_c, 0, 63, 64
2, 100104, Note_on_c, 0, 40, 38
2, 100148, Note_on_c, 0, 58, 85
2, 100155, Note_off_c, 0, 75, 64
2, 100155, Control_c, 0, 64, 0
2, 100160, Note_on_c, 0, 48, 72
2, 100184, Note_on_c, 0, 55, 52
2, 100188, Note_on_c, 0, 73, 81
2, 100195, Note_off_c, 0, 58, 64
2, 100201, Control_c, 0, 64, 127
2, 100251, Note_on_c, 0, 70, 71
2, 100286, Note_off_c, 0, 73, 64
2, 100313, Note_on_c, 0, 67, 72
2, 100331, Note_off_c, 0, 70, 64
2, 100349, Note_off_c, 0, 40, 64
2, 100371, Note_on_c, 0, 60, 69
2, 100386, Note_off_c, 0, 67, 64
2, 100412, Note_off_c, 0, 48, 64
2, 100430, Note_on_c, 0, 61, 75
2, 100438, Note_off_c, 0, 55, 64
2, 100444, Note_off_c, 0, 60, 64
2, 100484, Note_on_c, 0, 58, 65
2, 100501, Note_off_c, 0, 61, 64
2, 100508, Control_c, 0, 64, 0
2, 100536, Note_on_c, 0, 41, 63
2, 100540, Note_on_c, 0, 57, 72
2, 100540, Note_on_c, 0, 48, 64
2, 100550, Control_c, 0, 64, 127
2, 100553, Note_off_c, 0, 58, 64
2, 100598, Note_on_c, 0, 60, 63
2, 100608, Note_off_c, 0, 57, 64
2, 100658, Note_on_c, 0, 64, 53
2, 100689, Note_off_c, 0, 60, 64
2, 100705, Note_off_c, 0, 41, 64
2, 100712, Note_off_c, 0, 48, 64
2, 100719, Note_on_c, 0, 66, 55
2, 100744, Note_off_c, 0, 64, 64
2, 100776, Note_on_c, 0, 65, 62
2, 100791, Note_off_c, 0, 66, 64
2, 100841, Note_on_c, 0, 77, 53
2, 100846, Note_on_c, 0, 45, 58
2, 100867, Control_c, 0, 64, 0
2, 100872, Note_off_c, 0, 65, 64
2, 100876, Note_on_c, 0, 53, 56
2, 100891, Note_on_c, 0, 60, 61
2, 100893, Note_on_c, 0, 73, 78
2, 100896, Note_off_c, 0, 77, 64
2, 100903, Note_off_c, 0, 45, 64
2, 100907, Control_c, 0, 64, 127
2, 100913, Note_off_c, 0, 53, 64
2, 100933, Note_off_c, 0, 60, 64
2, 100946, Note_on_c, 0, 72, 83
2, 100955, Note_off_c, 0, 73, 64
2, 100997, Note_on_c, 0, 84, 68
2, 101008, Note_off_c, 0, 72, 64
2, 101017, Note_on_c, 0, 48, 62
2, 101048, Note_on_c, 0, 57, 53
2, 101057, Note_on_c, 0, 78, 62
2, 101068, Note_off_c, 0, 84, 64
2, 101072, Note_on_c, 0, 65, 63
2, 101094, Note_off_c, 0, 48, 64
2, 101109, Note_on_c, 0, 77, 66
2, 101113, Note_off_c, 0, 57, 64
2, 101122, Note_off_c, 0, 65, 64
2, 101130, Note_off_c, 0, 78, 64
2, 101152, Note_on_c, 0, 89, 68
2, 101168, Note_off_c, 0, 77, 64
2, 101178, Note_on_c, 0, 53, 66
2, 101203, Note_on_c, 0, 60, 61
2, 101219, Note_on_c, 0, 85, 87
2, 101221, Note_off_c, 0, 53, 64
2, 101224, Note_on_c, 0, 69, 71
2, 101229, Note_off_c, 0, 89, 64
2, 101240, Note_off_c, 0, 60, 64
2, 101270, Note_on_c, 0, 84, 67
2, 101273, Note_off_c, 0, 69, 64
2, 101280, Note_off_c, 0, 85, 64
2, 101319, Note_on_c, 0, 96, 68
2, 101330, Note_off_c, 0, 84, 64
2, 101348, Note_on_c, 0, 57, 50
2, 101374, Note_on_c, 0, 65, 70
2, 101385, Note_on_c, 0, 90, 73
2, 101390, Note_off_c, 0, 96, 64
2, 101392, Note_on_c, 0, 72, 67
2, 101439, Note_on_c, 0, 89, 79
2, 101450, Note_off_c, 0, 90, 64
2, 101454, Note_off_c, 0, 57, 64
2, 101490, Note_on_c, 0, 101, 73
2, 101503, Note_off_c, 0, 72, 64
2, 101512, Note_off_c, 0, 65, 64
2, 101522, Control_c, 0, 64, 0
2, 101531, Note_on_c, 0, 60, 65
2, 101556, Note_on_c, 0, 69, 70
2, 101576, Control_c, 0, 64, 127
2, 101583, Note_on_c, 0, 77, 73
2, 101587, Note_on_c, 0, 96, 75
2, 101601, Note_off_c, 0, 101, 64
2, 101613, Note_off_c, 0, 89, 64
2, 101642, Note_on_c, 0, 93, 55
2, 101664, Note_off_c, 0, 69, 64
2, 101666, Note_off_c, 0, 77, 64
2, 101668, Note_off_c, 0, 96, 64
2, 101683, Note_off_c, 0, 60, 64
2, 101694, Note_on_c, 0, 89, 66
2, 101718, Note_off_c, 0, 93, 64
2, 101747, Note_on_c, 0, 84, 82
2, 101769, Note_off_c, 0, 89, 64
2, 101803, Note_on_c, 0, 81, 59
2, 101824, Note_off_c, 0, 84, 64
2, 101850, Note_on_c, 0, 77, 73
2, 101877, Note_off_c, 0, 81, 64
2, 101916, Note_on_c, 0, 72, 78
2, 101940, Note_off_c, 0, 77, 64
2, 101972, Note_on_c, 0, 69, 67
2, 101997, Note_off_c, 0, 72, 64
2, 102031, Note_on_c, 0, 65, 68
2, 102045, Note_off_c, 0, 69, 64
2, 102095, Note_on_c, 0, 60, 78
2, 102130, Note_off_c, 0, 65, 64
2, 102156, Note_on_c, 0, 53, 68
2, 102177, Note_off_c, 0, 60, 64
2, 102214, Note_off_c, 0, 53, 64
2, 102223, Note_on_c, 0, 41, 79
2, 102253, Note_off_c, 0, 41, 64
2, 102284, Note_on_c, 0, 40, 52
2, 102303, Note_on_c, 0, 58, 73
2, 102308, Note_on_c, 0, 49, 85
2, 102320, Control_c, 0, 64, 0
2, 102336, Note_on_c, 0, 55, 45
2, 102340, Note_on_c, 0, 73, 84
2, 102363, Note_off_c, 0, 58, 64
2, 102409, Note_on_c, 0, 70, 63
2, 102413, Control_c, 0, 64, 127
2, 102430, Note_off_c, 0, 73, 64
2, 102464, Note_on_c, 0, 67, 69
2, 102479, Note_off_c, 0, 70, 64
2, 102522, Note_on_c, 0, 60, 67
2, 102544, Note_off_c, 0, 67, 64
2, 102572, Note_off_c, 0, 40, 64
2, 102573, Note_off_c, 0, 49, 64
2, 102580, Note_on_c, 0, 61, 50
2, 102594, Note_off_c, 0, 60, 64
2, 102624, Note_off_c, 0, 55, 64
2, 102632, Note_on_c, 0, 58, 48
2, 102646, Note_off_c, 0, 61, 64
2, 102692, Note_on_c, 0, 57, 69
2, 102696, Note_on_c, 0, 48, 64
2, 102698, Control_c, 0, 64, 0
2, 102700, Note_on_c, 0, 41, 62
2, 102717, Note_off_c, 0, 58, 64
2, 102746, Note_on_c, 0, 60, 55
2, 102748, Control_c, 0, 64, 127
2, 102762, Note_off_c, 0, 57, 64
2, 102807, Note_on_c, 0, 64, 53
2, 102837, Note_off_c, 0, 60, 64
2, 102868, Note_on_c, 0, 66, 45
2, 102888, Note_off_c, 0, 64, 64
2, 102902, Note_off_c, 0, 48, 64
2, 102910, Note_off_c, 0, 41, 64
2, 102922, Note_on_c, 0, 65, 70
2, 102939, Note_off_c, 0, 66, 64
2, 102985, Note_on_c, 0, 77, 56
2, 103005, Note_off_c, 0, 65, 64
2, 103048, Note_on_c, 0, 42, 75
2, 103064, Note_off_c, 0, 77, 64
2, 103067, Note_on_c, 0, 60, 85
2, 103078, Note_on_c, 0, 51, 68
2, 103083, Control_c, 0, 64, 0
2, 103099, Note_on_c, 0, 75, 74
2, 103100, Note_on_c, 0, 57, 67
2, 103109, Note_off_c, 0, 60, 64
2, 103130, Control_c, 0, 64, 127
2, 103160, Note_on_c, 0, 72, 77
2, 103175, Note_off_c, 0, 75, 64
2, 103205, Note_on_c, 0, 69, 72
2, 103217, Note_off_c, 0, 72, 64
2, 103261, Note_on_c, 0, 62, 63
2, 103286, Note_off_c, 0, 69, 64
2, 103308, Note_on_c, 0, 63, 78
2, 103327, Note_off_c, 0, 51, 64
2, 103343, Note_off_c, 0, 62, 64
2, 103344, Note_off_c, 0, 42, 64
2, 103362, Note_on_c, 0, 60, 65
2, 103367, Note_off_c, 0, 57, 64
2, 103378, Note_off_c, 0, 63, 64
2, 103401, Control_c, 0, 64, 0
2, 103419, Note_on_c, 0, 59, 69
2, 103423, Note_on_c, 0, 50, 65
2, 103423, Note_on_c, 0, 43, 64
2, 103439, Note_off_c, 0, 60, 64
2, 103446, Control_c, 0, 64, 127
2, 103467, Note_on_c, 0, 62, 58
2, 103477, Note_off_c, 0, 59, 64
2, 103524, Note_on_c, 0, 66, 57
2, 103544, Note_off_c, 0, 62, 64
2, 103568, Note_off_c, 0, 43, 64
2, 103570, Note_on_c, 0, 68, 41
2, 103584, Note_off_c, 0, 50, 64
2, 103593, Note_off_c, 0, 66, 64
2, 103629, Note_on_c, 0, 67, 60
2, 103640, Note_off_c, 0, 68, 64
2, 103678, Note_on_c, 0, 79, 55
2, 103689, Note_on_c, 0, 43, 50
2, 103691, Note_off_c, 0, 67, 64
2, 103700, Control_c, 0, 64, 0
2, 103704, Note_on_c, 0, 50, 73
2, 103730, Note_off_c, 0, 43, 64
2, 103736, Note_on_c, 0, 59, 62
2, 103741, Note_off_c, 0, 50, 64
2, 103744, Note_on_c, 0, 70, 73
2, 103744, Control_c, 0, 64, 127
2, 103760, Note_off_c, 0, 79, 64
2, 103776, Note_off_c, 0, 59, 64
2, 103790, Note_on_c, 0, 71, 75
2, 103801, Note_off_c, 0, 70, 64
2, 103840, Note_on_c, 0, 50, 64
2, 103842, Note_on_c, 0, 83, 62
2, 103860, Note_off_c, 0, 71, 64
2, 103866, Note_on_c, 0, 59, 56
2, 103876, Note_off_c, 0, 50, 64
2, 103895, Note_on_c, 0, 67, 39
2, 103898, Note_on_c, 0, 73, 73
2, 103902, Note_off_c, 0, 59, 64
2, 103908, Note_off_c, 0, 83, 64
2, 103925, Note_off_c, 0, 67, 64
2, 103943, Note_on_c, 0, 74, 81
2, 103958, Note_off_c, 0, 73, 64
2, 103992, Note_on_c, 0, 55, 73
2, 104004, Note_on_c, 0, 86, 75
2, 104014, Note_off_c, 0, 74, 64
2, 104026, Note_on_c, 0, 62, 73
2, 104032, Note_off_c, 0, 55, 64
2, 104052, Note_on_c, 0, 71, 68
2, 104054, Note_on_c, 0, 78, 73
2, 104058, Note_off_c, 0, 62, 64
2, 104064, Note_off_c, 0, 86, 64
2, 104084, Note_off_c, 0, 71, 64
2, 104098, Note_on_c, 0, 79, 68
2, 104122, Note_off_c, 0, 78, 64
2, 104144, Note_on_c, 0, 91, 70
2, 104158, Note_on_c, 0, 59, 47
2, 104168, Note_off_c, 0, 79, 64
2, 104184, Note_on_c, 0, 67, 73
2, 104194, Note_off_c, 0, 59, 64
2, 104202, Note_on_c, 0, 82, 78
2, 104209, Note_on_c, 0, 74, 79
2, 104212, Note_off_c, 0, 67, 64
2, 104224, Note_off_c, 0, 91, 64
2, 104248, Note_off_c, 0, 74, 64
2, 104258, Note_on_c, 0, 83, 75
2, 104285, Note_off_c, 0, 82, 64
2, 104309, Note_on_c, 0, 98, 70
2, 104329, Note_off_c, 0, 83, 64
2, 104336, Note_on_c, 0, 62, 52
2, 104351, Control_c, 0, 64, 0
2, 104352, Note_on_c, 0, 71, 32
2, 104360, Note_on_c, 0, 95, 87
2, 104362, Note_on_c, 0, 79, 59
2, 104384, Control_c, 0, 64, 127
2, 104386, Note_off_c, 0, 98, 64
2, 104416, Note_on_c, 0, 91, 57
2, 104442, Note_off_c, 0, 95, 64
2, 104448, Note_off_c, 0, 62, 64
2, 104452, Note_off_c, 0, 71, 64
2, 104467, Note_on_c, 0, 86, 79
2, 104475, Note_off_c, 0, 79, 64
2, 104499, Note_off_c, 0, 91, 64
2, 104516, Note_on_c, 0, 83, 85
2, 104532, Note_off_c, 0, 86, 64
2, 104567, Note_on_c, 0, 79, 76
2, 104581, Note_off_c, 0, 83, 64
2, 104617, Note_on_c, 0, 74, 89
2, 104635, Note_off_c, 0, 79, 64
2, 104668, Note_on_c, 0, 71, 75
2, 104695, Note_off_c, 0, 74, 64
2, 104718, Note_on_c, 0, 67, 82
2, 104738, Note_off_c, 0, 71, 64
2, 104769, Note_on_c, 0, 62, 79
2, 104794, Note_off_c, 0, 67, 64
2, 104832, Note_on_c, 0, 59, 85
2, 104838, Note_off_c, 0, 62, 64
2, 104890, Note_on_c, 0, 55, 83
2, 104905, Note_off_c, 0, 59, 64
2, 104947, Note_on_c, 0, 43, 87
2, 104961, Note_off_c, 0, 55, 64
2, 105023, Control_c, 0, 64, 0
2, 105052, Note_on_c, 0, 75, 90
2, 105055, Note_on_c, 0, 63, 92
2, 105058, Note_on_c, 0, 36, 85
2, 105081, Note_off_c, 0, 43, 64
2, 105184, Control_c, 0, 64, 127
2, 105198, Note_on_c, 0, 43, 56
2, 105253, Note_off_c, 0, 36, 64
2, 105253, Note_on_c, 0, 51, 70
2, 105257, Note_off_c, 0, 43, 64
2, 105319, Note_off_c, 0, 51, 64
2, 105321, Note_on_c, 0, 43, 59
2, 105376, Note_off_c, 0, 43, 64
2, 105383, Note_on_c, 0, 51, 68
2, 105434, Note_on_c, 0, 43, 55
2, 105445, Note_off_c, 0, 51, 64
2, 105481, Control_c, 0, 64, 0
2, 105495, Note_on_c, 0, 36, 72
2, 105497, Note_on_c, 0, 74, 83
2, 105498, Note_on_c, 0, 62, 85
2, 105507, Note_off_c, 0, 75, 64
2, 105509, Note_off_c, 0, 43, 64
2, 105510, Note_off_c, 0, 63, 64
2, 105525, Control_c, 0, 64, 127
2, 105575, Note_on_c, 0, 44, 51
2, 105601, Note_on_c, 0, 61, 95
2, 105606, Note_on_c, 0, 73, 83
2, 105615, Note_on_c, 0, 51, 56
2, 105620, Note_off_c, 0, 74, 64
2, 105621, Note_off_c, 0, 62, 64
2, 105622, Note_off_c, 0, 44, 64
2, 105675, Note_off_c, 0, 51, 64
2, 105686, Note_on_c, 0, 44, 56
2, 105690, Note_off_c, 0, 36, 64
2, 105696, Note_on_c, 0, 72, 85
2, 105696, Note_on_c, 0, 60, 89
2, 105714, Note_off_c, 0, 61, 64
2, 105719, Note_off_c, 0, 73, 64
2, 105736, Note_off_c, 0, 44, 64
2, 105758, Note_on_c, 0, 51, 52
2, 105772, Note_on_c, 0, 71, 77
2, 105774, Note_on_c, 0, 59, 86
2, 105791, Note_off_c, 0, 60, 64
2, 105791, Note_off_c, 0, 72, 64
2, 105806, Note_on_c, 0, 44, 30
2, 105816, Note_off_c, 0, 51, 64
2, 105827, Control_c, 0, 64, 0
2, 105853, Note_on_c, 0, 58, 85
2, 105858, Note_on_c, 0, 70, 81
2, 105860, Note_on_c, 0, 36, 73
2, 105867, Note_off_c, 0, 44, 64
2, 105867, Note_off_c, 0, 71, 64
2, 105869, Note_off_c, 0, 59, 64
2, 105877, Control_c, 0, 64, 127
2, 105930, Note_on_c, 0, 44, 30
2, 105937, Note_on_c, 0, 69, 88
2, 105937, Note_on_c, 0, 57, 91
2, 105948, Note_off_c, 0, 58, 64
2, 105953, Note_off_c, 0, 70, 64
2, 105996, Note_on_c, 0, 53, 52
2, 106000, Note_on_c, 0, 68, 77
2, 106000, Note_on_c, 0, 56, 82
2, 106018, Note_off_c, 0, 44, 64
2, 106022, Note_off_c, 0, 57, 64
2, 106022, Note_off_c, 0, 69, 64
2, 106043, Note_off_c, 0, 53, 64
2, 106045, Note_off_c, 0, 56, 64
2, 106045, Note_off_c, 0, 68, 64
2, 106055, Note_off_c, 0, 36, 64
2, 106056, Note_on_c, 0, 44, 48
2, 106060, Note_on_c, 0, 68, 81
2, 106060, Note_on_c, 0, 56, 87
2, 106121, Note_off_c, 0, 44, 64
2, 106121, Note_on_c, 0, 53, 63
2, 106174, Note_on_c, 0, 44, 59
2, 106176, Note_off_c, 0, 53, 64
2, 106180, Control_c, 0, 64, 0
2, 106231, Note_off_c, 0, 44, 64
2, 106231, Note_on_c, 0, 35, 85
2, 106240, Note_on_c, 0, 62, 85
2, 106242, Note_on_c, 0, 65, 82
2, 106250, Control_c, 0, 64, 127
2, 106306, Note_on_c, 0, 43, 57
2, 106367, Note_on_c, 0, 53, 57
2, 106382, Note_off_c, 0, 43, 64
2, 106417, Note_off_c, 0, 53, 64
2, 106426, Note_off_c, 0, 35, 64
2, 106433, Note_on_c, 0, 67, 86
2, 106435, Note_on_c, 0, 55, 85
2, 106438, Note_on_c, 0, 43, 57
2, 106446, Note_off_c, 0, 62, 64
2, 106448, Note_off_c, 0, 65, 64
2, 106455, Note_off_c, 0, 56, 64
2, 106455, Note_off_c, 0, 68, 64
2, 106497, Note_off_c, 0, 43, 64
2, 106499, Note_on_c, 0, 53, 70
2, 106559, Note_off_c, 0, 53, 64
2, 106560, Note_on_c, 0, 43, 61
2, 106610, Control_c, 0, 64, 0
2, 106638, Note_on_c, 0, 63, 85
2, 106640, Note_on_c, 0, 36, 83
2, 106642, Note_on_c, 0, 60, 86
2, 106646, Note_off_c, 0, 43, 64
2, 106656, Note_off_c, 0, 67, 64
2, 106658, Note_off_c, 0, 55, 64
2, 106684, Control_c, 0, 64, 127
2, 106718, Note_off_c, 0, 60, 64
2, 106727, Note_off_c, 0, 36, 64
2, 106727, Note_off_c, 0, 63, 64
2, 106852, Note_on_c, 0, 75, 63
2, 106855, Note_on_c, 0, 79, 66
2, 106855, Note_on_c, 0, 63, 47
2, 106867, Control_c, 0, 64, 0
2, 106906, Note_on_c, 0, 60, 46
2, 106913, Control_c, 0, 64, 127
2, 106952, Note_on_c, 0, 87, 67
2, 106953, Note_on_c, 0, 84, 67
2, 106964, Note_off_c, 0, 60, 64
2, 106967, Note_off_c, 0, 75, 64
2, 106970, Note_off_c, 0, 79, 64
2, 106973, Note_on_c, 0, 55, 46
2, 107040, Note_off_c, 0, 63, 64
2, 107048, Note_off_c, 0, 55, 64
2, 107052, Control_c, 0, 64, 0
2, 107058, Note_off_c, 0, 84, 64
2, 107059, Note_on_c, 0, 48, 45
2, 107062, Note_on_c, 0, 84, 63
2, 107064, Note_on_c, 0, 80, 58
2, 107067, Note_off_c, 0, 87, 64
2, 107088, Control_c, 0, 64, 127
2, 107127, Note_on_c, 0, 56, 45
2, 107152, Note_on_c, 0, 75, 62
2, 107152, Note_on_c, 0, 72, 35
2, 107177, Note_off_c, 0, 84, 64
2, 107179, Note_off_c, 0, 80, 64
2, 107195, Note_off_c, 0, 56, 64
2, 107195, Note_on_c, 0, 60, 45
2, 107237, Note_off_c, 0, 72, 64
2, 107244, Note_off_c, 0, 48, 64
2, 107249, Note_on_c, 0, 72, 64
2, 107251, Note_on_c, 0, 68, 75
2, 107255, Note_off_c, 0, 60, 64
2, 107259, Note_on_c, 0, 63, 45
2, 107267, Note_off_c, 0, 75, 64
2, 107304, Note_on_c, 0, 60, 44
2, 107328, Note_on_c, 0, 75, 62
2, 107331, Note_on_c, 0, 80, 67
2, 107350, Note_on_c, 0, 56, 44
2, 107364, Note_off_c, 0, 72, 64
2, 107366, Note_off_c, 0, 68, 64
2, 107377, Note_off_c, 0, 60, 64
2, 107392, Control_c, 0, 64, 0
2, 107432, Note_off_c, 0, 56, 64
2, 107432, Note_on_c, 0, 77, 63
2, 107432, Note_on_c, 0, 74, 54
2, 107437, Note_on_c, 0, 50, 44
2, 107443, Note_off_c, 0, 75, 64
2, 107444, Note_off_c, 0, 63, 64
2, 107445, Control_c, 0, 64, 127
2, 107446, Note_off_c, 0, 80, 64
2, 107494, Note_on_c, 0, 56, 43
2, 107525, Note_on_c, 0, 72, 63
2, 107527, Note_on_c, 0, 65, 59
2, 107544, Note_on_c, 0, 60, 43
2, 107547, Note_off_c, 0, 74, 64
2, 107547, Note_off_c, 0, 77, 64
2, 107557, Note_off_c, 0, 56, 64
2, 107604, Note_on_c, 0, 62, 42
2, 107610, Note_off_c, 0, 72, 64
2, 107613, Note_off_c, 0, 60, 64
2, 107617, Note_on_c, 0, 66, 76
2, 107619, Note_on_c, 0, 72, 59
2, 107622, Note_off_c, 0, 65, 64
2, 107622, Note_off_c, 0, 50, 64
2, 107657, Note_on_c, 0, 60, 42
2, 107703, Note_on_c, 0, 78, 72
2, 107704, Note_on_c, 0, 74, 56
2, 107710, Note_on_c, 0, 56, 41
2, 107730, Note_off_c, 0, 60, 64
2, 107732, Note_off_c, 0, 66, 64
2, 107734, Note_off_c, 0, 72, 64
2, 107774, Control_c, 0, 64, 0
2, 107783, Note_off_c, 0, 56, 64
2, 107789, Note_off_c, 0, 62, 64
2, 107799, Note_off_c, 0, 74, 64
2, 107801, Note_on_c, 0, 43, 41
2, 107804, Note_on_c, 0, 74, 60
2, 107806, Note_on_c, 0, 79, 62
2, 107818, Note_off_c, 0, 78, 64
2, 107818, Control_c, 0, 64, 127
2, 107880, Note_on_c, 0, 50, 40
2, 107896, Note_on_c, 0, 71, 49
2, 107901, Note_on_c, 0, 67, 56
2, 107921, Note_off_c, 0, 79, 64
2, 107925, Note_off_c, 0, 74, 64
2, 107935, Note_off_c, 0, 50, 64
2, 107941, Note_on_c, 0, 55, 40
2, 107986, Note_off_c, 0, 67, 64
2, 107986, Note_off_c, 0, 43, 64
2, 107992, Note_on_c, 0, 65, 69
2, 107996, Note_on_c, 0, 67, 66
2, 107998, Note_on_c, 0, 59, 39
2, 108001, Note_off_c, 0, 55, 64
2, 108011, Note_off_c, 0, 71, 64
2, 108025, Control_c, 0, 64, 0
2, 108048, Control_c, 0, 64, 127
2, 108052, Note_on_c, 0, 55, 39
2, 108104, Note_on_c, 0, 74, 58
2, 108104, Note_on_c, 0, 71, 57
2, 108104, Note_on_c, 0, 50, 39
2, 108105, Note_off_c, 0, 59, 64
2, 108111, Note_off_c, 0, 65, 64
2, 108112, Note_off_c, 0, 55, 64
2, 108115, Note_off_c, 0, 67, 64
2, 108177, Note_off_c, 0, 50, 64
2, 108219, Note_off_c, 0, 71, 64
2, 108219, Note_off_c, 0, 74, 64
2, 108220, Control_c, 0, 64, 0
2, 108232, Note_on_c, 0, 91, 90
2, 108233, Note_on_c, 0, 82, 103
2, 108235, Note_on_c, 0, 79, 92
2, 108241, Note_on_c, 0, 39, 93
2, 108267, Control_c, 0, 64, 127
2, 108329, Note_on_c, 0, 46, 75
2, 108386, Note_on_c, 0, 51, 42
2, 108398, Note_off_c, 0, 46, 64
2, 108434, Note_on_c, 0, 55, 66
2, 108460, Note_off_c, 0, 51, 64
2, 108495, Note_on_c, 0, 58, 86
2, 108528, Note_off_c, 0, 55, 64
2, 108555, Note_on_c, 0, 63, 85
2, 108575, Note_off_c, 0, 58, 64
2, 108575, Note_off_c, 0, 39, 64
2, 108608, Note_off_c, 0, 82, 64
2, 108620, Note_on_c, 0, 82, 79
2, 108620, Note_on_c, 0, 77, 90
2, 108623, Note_on_c, 0, 89, 85
2, 108626, Note_on_c, 0, 67, 86
2, 108627, Note_off_c, 0, 91, 64
2, 108628, Note_off_c, 0, 63, 64
2, 108630, Note_off_c, 0, 79, 64
2, 108679, Note_on_c, 0, 63, 72
2, 108702, Note_off_c, 0, 67, 64
2, 108724, Note_off_c, 0, 82, 64
2, 108727, Note_on_c, 0, 87, 78
2, 108727, Note_on_c, 0, 75, 87
2, 108737, Note_off_c, 0, 77, 64
2, 108737, Note_on_c, 0, 58, 74
2, 108740, Note_off_c, 0, 89, 64
2, 108754, Note_off_c, 0, 63, 64
2, 108807, Note_on_c, 0, 55, 45
2, 108818, Note_off_c, 0, 58, 64
2, 108818, Note_on_c, 0, 74, 74
2, 108821, Note_on_c, 0, 86, 85
2, 108839, Note_off_c, 0, 75, 64
2, 108839, Note_off_c, 0, 87, 64
2, 108863, Note_on_c, 0, 51, 70
2, 108873, Note_off_c, 0, 55, 64
2, 108895, Note_on_c, 0, 85, 85
2, 108895, Note_on_c, 0, 73, 83
2, 108903, Note_on_c, 0, 46, 73
2, 108913, Note_off_c, 0, 74, 64
2, 108916, Note_off_c, 0, 86, 64
2, 108918, Note_off_c, 0, 51, 64
2, 108965, Control_c, 0, 64, 0
2, 108983, Note_on_c, 0, 41, 80
2, 108985, Note_off_c, 0, 46, 64
2, 108989, Note_on_c, 0, 80, 85
2, 108990, Note_on_c, 0, 72, 85
2, 108994, Note_on_c, 0, 84, 86
2, 109002, Note_off_c, 0, 73, 64
2, 109002, Note_off_c, 0, 85, 64
2, 109006, Control_c, 0, 64, 127
2, 109040, Note_on_c, 0, 50, 56
2, 109078, Note_on_c, 0, 71, 79
2, 109080, Note_on_c, 0, 83, 81
2, 109084, Note_off_c, 0, 72, 64
2, 109088, Note_off_c, 0, 84, 64
2, 109088, Note_off_c, 0, 80, 64
2, 109095, Note_on_c, 0, 56, 57
2, 109102, Note_off_c, 0, 50, 64
2, 109139, Note_on_c, 0, 82, 85
2, 109141, Note_on_c, 0, 70, 93
2, 109146, Note_off_c, 0, 71, 64
2, 109148, Note_off_c, 0, 83, 64
2, 109170, Note_off_c, 0, 70, 64
2, 109175, Note_off_c, 0, 82, 64
2, 109175, Note_off_c, 0, 56, 64
2, 109195, Note_on_c, 0, 70, 79
2, 109197, Note_on_c, 0, 82, 85
2, 109200, Note_on_c, 0, 50, 66
2, 109254, Note_off_c, 0, 50, 64
2, 109264, Note_on_c, 0, 56, 73
2, 109281, Note_off_c, 0, 41, 64
2, 109328, Note_off_c, 0, 56, 64
2, 109333, Note_on_c, 0, 50, 75
2, 109373, Control_c, 0, 64, 0
2, 109389, Note_off_c, 0, 50, 64
2, 109393, Note_on_c, 0, 34, 73
2, 109403, Note_on_c, 0, 74, 79
2, 109421, Control_c, 0, 64, 127
2, 109463, Note_on_c, 0, 46, 51
2, 109493, Note_off_c, 0, 70, 64
2, 109518, Note_on_c, 0, 56, 68
2, 109520, Note_off_c, 0, 46, 64
2, 109583, Note_off_c, 0, 56, 64
2, 109588, Note_on_c, 0, 68, 76
2, 109588, Note_on_c, 0, 46, 53
2, 109589, Note_on_c, 0, 80, 85
2, 109593, Note_off_c, 0, 82, 64
2, 109633, Note_off_c, 0, 46, 64
2, 109649, Note_on_c, 0, 56, 72
2, 109698, Note_on_c, 0, 46, 61
2, 109704, Note_off_c, 0, 56, 64
2, 109712, Note_off_c, 0, 34, 64
2, 109736, Note_off_c, 0, 74, 64
2, 109743, Control_c, 0, 64, 0
2, 109770, Note_off_c, 0, 46, 64
2, 109775, Note_on_c, 0, 39, 79
2, 109777, Note_on_c, 0, 79, 81
2, 109780, Note_on_c, 0, 75, 80
2, 109801, Control_c, 0, 64, 127
2, 109805, Note_off_c, 0, 68, 64
2, 109806, Note_off_c, 0, 80, 64
2, 109871, Note_off_c, 0, 79, 64
2, 109874, Note_off_c, 0, 75, 64
2, 109964, Note_on_c, 0, 79, 66
2, 109967, Note_on_c, 0, 82, 67
2, 109971, Note_on_c, 0, 67, 47
2, 110022, Note_on_c, 0, 63, 46
2, 110050, Note_off_c, 0, 39, 64
2, 110068, Note_on_c, 0, 91, 71
2, 110071, Note_on_c, 0, 87, 59
2, 110082, Note_off_c, 0, 82, 64
2, 110082, Note_on_c, 0, 58, 46
2, 110097, Note_off_c, 0, 79, 64
2, 110098, Note_off_c, 0, 63, 64
2, 110155, Note_off_c, 0, 58, 64
2, 110156, Note_off_c, 0, 67, 64
2, 110164, Control_c, 0, 64, 0
2, 110166, Note_off_c, 0, 87, 64
2, 110172, Note_on_c, 0, 84, 60
2, 110175, Note_on_c, 0, 87, 67
2, 110180, Note_on_c, 0, 48, 45
2, 110183, Note_off_c, 0, 91, 64
2, 110200, Control_c, 0, 64, 127
2, 110243, Note_on_c, 0, 56, 45
2, 110264, Note_on_c, 0, 80, 54
2, 110267, Note_on_c, 0, 75, 61
2, 110287, Note_off_c, 0, 84, 64
2, 110290, Note_off_c, 0, 87, 64
2, 110303, Note_off_c, 0, 56, 64
2, 110305, Note_on_c, 0, 60, 45
2, 110356, Note_off_c, 0, 60, 64
2, 110362, Note_off_c, 0, 75, 64
2, 110364, Note_on_c, 0, 63, 45
2, 110365, Note_off_c, 0, 48, 64
2, 110366, Note_on_c, 0, 75, 59
2, 110366, Note_on_c, 0, 72, 50
2, 110379, Note_off_c, 0, 80, 64
2, 110415, Note_on_c, 0, 60, 44
2, 110452, Note_on_c, 0, 56, 44
2, 110458, Note_on_c, 0, 84, 58
2, 110462, Note_on_c, 0, 80, 62
2, 110481, Note_off_c, 0, 72, 64
2, 110481, Note_off_c, 0, 75, 64
2, 110483, Note_off_c, 0, 60, 64
2, 110527, Control_c, 0, 64, 0
2, 110537, Note_off_c, 0, 56, 64
2, 110544, Note_on_c, 0, 50, 43
2, 110547, Note_off_c, 0, 80, 64
2, 110549, Note_off_c, 0, 63, 64
2, 110549, Note_on_c, 0, 82, 58
2, 110552, Note_on_c, 0, 80, 56
2, 110563, Control_c, 0, 64, 127
2, 110566, Control_c, 0, 64, 0
2, 110571, Note_on_c, 0, 82, 63
2, 110573, Note_off_c, 0, 84, 64
2, 110587, Note_off_c, 0, 82, 64
2, 110600, Note_on_c, 0, 56, 43
2, 110630, Note_on_c, 0, 58, 43
2, 110640, Note_on_c, 0, 74, 57
2, 110640, Note_on_c, 0, 70, 64
2, 110657, Note_off_c, 0, 56, 64
2, 110664, Note_off_c, 0, 82, 64
2, 110667, Note_off_c, 0, 80, 64
2, 110689, Note_on_c, 0, 65, 42
2, 110694, Note_off_c, 0, 58, 64
2, 110715, Note_off_c, 0, 70, 64
2, 110715, Note_off_c, 0, 74, 64
2, 110729, Note_off_c, 0, 50, 64
2, 110734, Note_on_c, 0, 74, 57
2, 110734, Note_on_c, 0, 70, 63
2, 110758, Note_on_c, 0, 58, 41
2, 110815, Note_on_c, 0, 80, 50
2, 110816, Note_on_c, 0, 56, 41
2, 110819, Note_on_c, 0, 83, 50
2, 110825, Note_off_c, 0, 58, 64
2, 110849, Note_off_c, 0, 70, 64
2, 110849, Note_off_c, 0, 74, 64
2, 110874, Note_off_c, 0, 65, 64
2, 110875, Control_c, 0, 64, 0
2, 110880, Note_off_c, 0, 56, 64
2, 110895, Note_on_c, 0, 46, 40
2, 110909, Note_on_c, 0, 84, 55
2, 110910, Note_off_c, 0, 80, 64
2, 110916, Note_on_c, 0, 80, 51
2, 110920, Control_c, 0, 64, 127
2, 110934, Note_off_c, 0, 83, 64
2, 110961, Note_on_c, 0, 56, 40
2, 110989, Note_on_c, 0, 72, 54
2, 110992, Note_on_c, 0, 74, 52
2, 111003, Note_on_c, 0, 58, 40
2, 111012, Note_off_c, 0, 56, 64
2, 111024, Note_off_c, 0, 84, 64
2, 111031, Note_off_c, 0, 80, 64
2, 111056, Note_on_c, 0, 62, 39
2, 111057, Note_off_c, 0, 58, 64
2, 111080, Note_off_c, 0, 46, 64
2, 111084, Note_on_c, 0, 70, 51
2, 111085, Note_on_c, 0, 66, 39
2, 111104, Note_off_c, 0, 72, 64
2, 111107, Note_off_c, 0, 74, 64
2, 111107, Note_on_c, 0, 58, 39
2, 111168, Note_on_c, 0, 74, 51
2, 111169, Note_on_c, 0, 78, 51
2, 111173, Note_on_c, 0, 56, 38
2, 111184, Note_off_c, 0, 58, 64
2, 111199, Note_off_c, 0, 70, 64
2, 111200, Note_off_c, 0, 66, 64
2, 111241, Note_off_c, 0, 62, 64
2, 111244, Control_c, 0, 64, 0
2, 111246, Note_off_c, 0, 56, 64
2, 111253, Note_on_c, 0, 39, 56
2, 111256, Note_on_c, 0, 79, 57
2, 111261, Note_on_c, 0, 51, 54
2, 111263, Note_on_c, 0, 75, 57
2, 111274, Control_c, 0, 64, 127
2, 111283, Note_off_c, 0, 74, 64
2, 111284, Note_off_c, 0, 78, 64
2, 111368, Note_on_c, 0, 70, 58
2, 111368, Note_on_c, 0, 67, 56
2, 111424, Note_off_c, 0, 67, 64
2, 111424, Note_off_c, 0, 70, 64
2, 111460, Note_on_c, 0, 67, 56
2, 111460, Note_on_c, 0, 63, 45
2, 111460, Note_on_c, 0, 58, 59
2, 111464, Note_on_c, 0, 70, 58
2, 111464, Note_on_c, 0, 55, 53
2, 111471, Note_off_c, 0, 79, 64
2, 111478, Note_off_c, 0, 75, 64
2, 111490, Control_c, 0, 64, 0
2, 111501, Note_off_c, 0, 58, 64
2, 111501, Note_off_c, 0, 63, 64
2, 111505, Note_off_c, 0, 55, 64
2, 111524, Note_off_c, 0, 39, 64
2, 111531, Note_off_c, 0, 51, 64
2, 111552, Note_on_c, 0, 75, 60
2, 111558, Note_on_c, 0, 79, 60
2, 111608, Note_off_c, 0, 75, 64
2, 111614, Note_off_c, 0, 79, 64
2, 111631, Control_c, 0, 64, 0
2, 111640, Note_on_c, 0, 76, 60
2, 111641, Note_on_c, 0, 80, 60
2, 111641, Note_on_c, 0, 38, 64
2, 111644, Note_on_c, 0, 50, 55
2, 111675, Note_off_c, 0, 67, 64
2, 111679, Note_off_c, 0, 70, 64
2, 111685, Control_c, 0, 64, 127
2, 111736, Note_on_c, 0, 71, 61
2, 111738, Note_on_c, 0, 68, 72
2, 111792, Note_off_c, 0, 71, 64
2, 111794, Note_off_c, 0, 68, 64
2, 111820, Note_on_c, 0, 71, 61
2, 111820, Note_on_c, 0, 59, 56
2, 111822, Note_on_c, 0, 56, 53
2, 111824, Note_on_c, 0, 68, 66
2, 111824, Note_on_c, 0, 64, 41
2, 111855, Note_off_c, 0, 76, 64
2, 111856, Note_off_c, 0, 59, 64
2, 111856, Note_off_c, 0, 80, 64
2, 111859, Note_off_c, 0, 56, 64
2, 111865, Note_off_c, 0, 64, 64
2, 111904, Note_on_c, 0, 80, 62
2, 111904, Note_on_c, 0, 76, 62
2, 111910, Note_off_c, 0, 38, 64
2, 111917, Note_off_c, 0, 50, 64
2, 111942, Control_c, 0, 64, 0
2, 111960, Note_off_c, 0, 76, 64
2, 111960, Note_off_c, 0, 80, 64
2, 111975, Note_on_c, 0, 49, 24
2, 111980, Note_on_c, 0, 81, 63
2, 111982, Note_on_c, 0, 77, 63
2, 111982, Note_on_c, 0, 37, 57
2, 112004, Control_c, 0, 64, 127
2, 112035, Note_off_c, 0, 71, 64
2, 112039, Note_off_c, 0, 68, 64
2, 112072, Note_on_c, 0, 73, 63
2, 112072, Note_on_c, 0, 71, 63
2, 112128, Note_off_c, 0, 71, 64
2, 112128, Note_off_c, 0, 73, 64
2, 112160, Note_on_c, 0, 61, 53
2, 112161, Note_on_c, 0, 73, 64
2, 112161, Note_on_c, 0, 71, 64
2, 112164, Note_on_c, 0, 65, 49
2, 112164, Note_on_c, 0, 56, 21
2, 112191, Note_off_c, 0, 56, 64
2, 112194, Note_off_c, 0, 65, 64
2, 112195, Note_off_c, 0, 81, 64
2, 112197, Note_off_c, 0, 61, 64
2, 112197, Note_off_c, 0, 77, 64
2, 112240, Note_on_c, 0, 81, 66
2, 112240, Note_on_c, 0, 77, 66
2, 112246, Note_off_c, 0, 49, 64
2, 112253, Note_off_c, 0, 37, 64
2, 112271, Control_c, 0, 64, 0
2, 112296, Note_off_c, 0, 77, 64
2, 112296, Note_off_c, 0, 81, 64
2, 112308, Note_on_c, 0, 54, 42
2, 112312, Note_on_c, 0, 42, 57
2, 112313, Note_on_c, 0, 82, 66
2, 112313, Note_on_c, 0, 78, 66
2, 112333, Control_c, 0, 64, 127
2, 112376, Note_off_c, 0, 71, 64
2, 112376, Note_off_c, 0, 73, 64
2, 112392, Note_on_c, 0, 70, 67
2, 112393, Note_on_c, 0, 73, 67
2, 112448, Note_off_c, 0, 70, 64
2, 112449, Note_off_c, 0, 73, 64
2, 112468, Note_on_c, 0, 72, 68
2, 112468, Note_on_c, 0, 55, 52
2, 112472, Note_on_c, 0, 70, 68
2, 112472, Note_on_c, 0, 64, 62
2, 112472, Note_on_c, 0, 60, 56
2, 112499, Note_off_c, 0, 55, 64
2, 112502, Note_off_c, 0, 60, 64
2, 112508, Note_off_c, 0, 64, 64
2, 112528, Note_off_c, 0, 78, 64
2, 112528, Note_off_c, 0, 82, 64
2, 112564, Note_on_c, 0, 82, 68
2, 112570, Note_on_c, 0, 76, 69
2, 112579, Note_off_c, 0, 54, 64
2, 112583, Note_off_c, 0, 42, 64
2, 112592, Control_c, 0, 64, 0
2, 112620, Note_off_c, 0, 82, 64
2, 112626, Note_off_c, 0, 76, 64
2, 112632, Note_on_c, 0, 41, 60
2, 112636, Note_on_c, 0, 81, 69
2, 112638, Note_on_c, 0, 53, 63
2, 112640, Note_on_c, 0, 77, 69
2, 112654, Control_c, 0, 64, 127
2, 112683, Note_off_c, 0, 72, 64
2, 112687, Note_off_c, 0, 70, 64
2, 112714, Note_on_c, 0, 72, 70
2, 112720, Note_on_c, 0, 69, 64
2, 112770, Note_off_c, 0, 72, 64
2, 112776, Note_off_c, 0, 69, 64
2, 112804, Note_on_c, 0, 69, 67
2, 112804, Note_on_c, 0, 60, 65
2, 112804, Note_on_c, 0, 57, 63
2, 112807, Note_on_c, 0, 72, 71
2, 112807, Note_on_c, 0, 65, 64
2, 112825, Note_off_c, 0, 60, 64
2, 112828, Note_off_c, 0, 65, 64
2, 112832, Note_off_c, 0, 57, 64
2, 112851, Note_off_c, 0, 81, 64
2, 112855, Note_off_c, 0, 77, 64
2, 112872, Note_on_c, 0, 77, 71
2, 112875, Note_on_c, 0, 81, 71
2, 112903, Note_off_c, 0, 41, 64
2, 112909, Note_off_c, 0, 53, 64
2, 112924, Control_c, 0, 64, 0
2, 112928, Note_off_c, 0, 77, 64
2, 112931, Note_off_c, 0, 81, 64
2, 112952, Note_on_c, 0, 40, 57
2, 112956, Note_on_c, 0, 78, 72
2, 112956, Note_on_c, 0, 52, 54
2, 112959, Note_on_c, 0, 82, 72
2, 112985, Control_c, 0, 64, 127
2, 113019, Note_off_c, 0, 69, 64
2, 113022, Note_off_c, 0, 72, 64
2, 113040, Note_on_c, 0, 73, 73
2, 113040, Note_on_c, 0, 70, 73
2, 113096, Note_off_c, 0, 70, 64
2, 113096, Note_off_c, 0, 73, 64
2, 113124, Note_on_c, 0, 73, 73
2, 113128, Note_on_c, 0, 61, 57
2, 113128, Note_on_c, 0, 58, 56
2, 113130, Note_on_c, 0, 70, 73
2, 113130, Note_on_c, 0, 66, 71
2, 113154, Note_off_c, 0, 61, 64
2, 113158, Note_off_c, 0, 58, 64
2, 113167, Note_off_c, 0, 66, 64
2, 113171, Note_off_c, 0, 78, 64
2, 113174, Note_off_c, 0, 82, 64
2, 113198, Note_on_c, 0, 82, 74
2, 113202, Note_on_c, 0, 78, 74
2, 113222, Note_off_c, 0, 40, 64
2, 113227, Note_off_c, 0, 52, 64
2, 113253, Control_c, 0, 64, 0
2, 113254, Note_off_c, 0, 82, 64
2, 113258, Note_off_c, 0, 78, 64
2, 113284, Note_on_c, 0, 51, 57
2, 113288, Note_on_c, 0, 39, 73
2, 113290, Note_on_c, 0, 83, 75
2, 113291, Note_on_c, 0, 79, 75
2, 113305, Control_c, 0, 64, 127
2, 113339, Note_off_c, 0, 73, 64
2, 113345, Note_off_c, 0, 70, 64
2, 113364, Note_on_c, 0, 75, 75
2, 113364, Note_on_c, 0, 73, 75
2, 113420, Note_off_c, 0, 73, 64
2, 113420, Note_off_c, 0, 75, 64
2, 113448, Note_on_c, 0, 75, 77
2, 113448, Note_on_c, 0, 67, 67
2, 113448, Note_on_c, 0, 58, 24
2, 113449, Note_on_c, 0, 73, 77
2, 113449, Note_on_c, 0, 63, 66
2, 113477, Note_off_c, 0, 67, 64
2, 113480, Note_off_c, 0, 58, 64
2, 113486, Note_off_c, 0, 63, 64
2, 113505, Note_off_c, 0, 83, 64
2, 113506, Note_off_c, 0, 79, 64
2, 113518, Note_on_c, 0, 79, 78
2, 113525, Note_on_c, 0, 83, 78
2, 113555, Note_off_c, 0, 51, 64
2, 113559, Note_off_c, 0, 39, 64
2, 113567, Control_c, 0, 64, 0
2, 113574, Note_off_c, 0, 79, 64
2, 113581, Note_off_c, 0, 83, 64
2, 113602, Note_on_c, 0, 44, 68
2, 113608, Note_on_c, 0, 56, 51
2, 113609, Note_on_c, 0, 84, 78
2, 113609, Note_on_c, 0, 80, 78
2, 113622, Control_c, 0, 64, 127
2, 113663, Note_off_c, 0, 75, 64
2, 113664, Note_off_c, 0, 73, 64
2, 113682, Note_on_c, 0, 75, 79
2, 113685, Note_on_c, 0, 72, 79
2, 113738, Note_off_c, 0, 75, 64
2, 113741, Note_off_c, 0, 72, 64
2, 113775, Note_on_c, 0, 74, 79
2, 113775, Note_on_c, 0, 72, 79
2, 113776, Note_on_c, 0, 68, 68
2, 113776, Note_on_c, 0, 62, 67
2, 113776, Note_on_c, 0, 60, 64
2, 113807, Note_off_c, 0, 62, 64
2, 113813, Note_off_c, 0, 60, 64
2, 113813, Note_off_c, 0, 68, 64
2, 113824, Note_off_c, 0, 80, 64
2, 113824, Note_off_c, 0, 84, 64
2, 113847, Note_on_c, 0, 84, 80
2, 113849, Note_on_c, 0, 78, 80
2, 113873, Note_off_c, 0, 44, 64
2, 113878, Control_c, 0, 64, 0
2, 113879, Note_off_c, 0, 56, 64
2, 113903, Note_off_c, 0, 84, 64
2, 113905, Note_off_c, 0, 78, 64
2, 113924, Note_on_c, 0, 43, 79
2, 113928, Note_on_c, 0, 55, 74
2, 113932, Note_on_c, 0, 83, 81
2, 113933, Note_on_c, 0, 79, 81
2, 113945, Control_c, 0, 64, 127
2, 113990, Note_off_c, 0, 72, 64
2, 113990, Note_off_c, 0, 74, 64
2, 114008, Note_on_c, 0, 74, 81
2, 114010, Note_on_c, 0, 71, 81
2, 114064, Note_off_c, 0, 74, 64
2, 114066, Note_off_c, 0, 71, 64
2, 114083, Note_on_c, 0, 67, 63
2, 114084, Note_on_c, 0, 74, 82
2, 114084, Note_on_c, 0, 71, 82
2, 114084, Note_on_c, 0, 59, 71
2, 114086, Note_on_c, 0, 62, 69
2, 114112, Note_off_c, 0, 67, 64
2, 114117, Note_off_c, 0, 59, 64
2, 114120, Note_off_c, 0, 62, 64
2, 114147, Note_off_c, 0, 83, 64
2, 114148, Note_off_c, 0, 79, 64
2, 114160, Note_on_c, 0, 79, 83
2, 114164, Note_on_c, 0, 83, 83
2, 114185, Control_c, 0, 64, 0
2, 114195, Note_off_c, 0, 43, 64
2, 114199, Note_off_c, 0, 55, 64
2, 114216, Note_off_c, 0, 79, 64
2, 114220, Note_off_c, 0, 83, 64
2, 114232, Note_on_c, 0, 80, 83
2, 114233, Note_on_c, 0, 54, 67
2, 114236, Note_on_c, 0, 84, 83
2, 114237, Note_on_c, 0, 42, 75
2, 114258, Control_c, 0, 64, 127
2, 114299, Note_off_c, 0, 71, 64
2, 114299, Note_off_c, 0, 74, 64
2, 114318, Note_on_c, 0, 75, 84
2, 114318, Note_on_c, 0, 72, 84
2, 114374, Note_off_c, 0, 72, 64
2, 114374, Note_off_c, 0, 75, 64
2, 114404, Note_on_c, 0, 68, 96
2, 114404, Note_on_c, 0, 60, 70
2, 114405, Note_on_c, 0, 75, 85
2, 114405, Note_on_c, 0, 72, 85
2, 114408, Note_on_c, 0, 63, 75
2, 114429, Note_off_c, 0, 68, 64
2, 114434, Note_off_c, 0, 60, 64
2, 114438, Note_off_c, 0, 63, 64
2, 114447, Note_off_c, 0, 80, 64
2, 114451, Note_off_c, 0, 84, 64
2, 114476, Note_on_c, 0, 84, 85
2, 114480, Note_on_c, 0, 80, 85
2, 114504, Note_off_c, 0, 54, 64
2, 114508, Note_off_c, 0, 42, 64
2, 114512, Control_c, 0, 64, 0
2, 114532, Note_off_c, 0, 84, 64
2, 114536, Note_off_c, 0, 80, 64
2, 114551, Note_on_c, 0, 81, 86
2, 114554, Note_on_c, 0, 85, 86
2, 114556, Note_on_c, 0, 53, 73
2, 114569, Note_on_c, 0, 41, 61
2, 114575, Control_c, 0, 64, 127
2, 114620, Note_off_c, 0, 72, 64
2, 114620, Note_off_c, 0, 75, 64
2, 114627, Note_on_c, 0, 77, 88
2, 114633, Note_on_c, 0, 75, 88
2, 114683, Note_off_c, 0, 77, 64
2, 114689, Note_off_c, 0, 75, 64
2, 114712, Note_on_c, 0, 77, 88
2, 114712, Note_on_c, 0, 69, 77
2, 114712, Note_on_c, 0, 65, 62
2, 114716, Note_on_c, 0, 75, 88
2, 114719, Note_on_c, 0, 63, 49
2, 114749, Note_off_c, 0, 65, 64
2, 114749, Note_off_c, 0, 69, 64
2, 114756, Note_off_c, 0, 63, 64
2, 114766, Note_off_c, 0, 81, 64
2, 114769, Note_off_c, 0, 85, 64
2, 114784, Note_on_c, 0, 81, 89
2, 114786, Note_on_c, 0, 85, 89
2, 114827, Note_off_c, 0, 53, 64
2, 114827, Control_c, 0, 64, 0
2, 114840, Note_off_c, 0, 81, 64
2, 114840, Note_off_c, 0, 41, 64
2, 114842, Note_off_c, 0, 85, 64
2, 114856, Note_on_c, 0, 86, 89
2, 114856, Note_on_c, 0, 82, 89
2, 114864, Note_on_c, 0, 46, 81
2, 114864, Note_on_c, 0, 34, 78
2, 114883, Control_c, 0, 64, 127
2, 114927, Note_off_c, 0, 77, 64
2, 114931, Note_off_c, 0, 75, 64
2, 114941, Note_on_c, 0, 77, 90
2, 114946, Note_on_c, 0, 74, 90
2, 114997, Note_off_c, 0, 77, 64
2, 115002, Note_off_c, 0, 74, 64
2, 115032, Note_on_c, 0, 77, 91
2, 115032, Note_on_c, 0, 70, 91
2, 115032, Note_on_c, 0, 65, 73
2, 115032, Note_on_c, 0, 62, 69
2, 115036, Note_on_c, 0, 74, 91
2, 115069, Note_off_c, 0, 62, 64
2, 115069, Note_off_c, 0, 65, 64
2, 115069, Note_off_c, 0, 70, 64
2, 115071, Note_off_c, 0, 82, 64
2, 115071, Note_off_c, 0, 86, 64
2, 115102, Control_c, 0, 64, 0
2, 115104, Note_on_c, 0, 86, 91
2, 115104, Note_on_c, 0, 82, 91
2, 115129, Control_c, 0, 64, 0
2, 115135, Note_off_c, 0, 34, 64
2, 115135, Note_off_c, 0, 46, 64
2, 115160, Note_off_c, 0, 82, 64
2, 115160, Note_off_c, 0, 86, 64
2, 115172, Note_on_c, 0, 46, 83
2, 115172, Note_on_c, 0, 34, 80
2, 115176, Note_on_c, 0, 87, 92
2, 115176, Note_on_c, 0, 83, 92
2, 115193, Control_c, 0, 64, 127
2, 115247, Note_off_c, 0, 77, 64
2, 115251, Note_off_c, 0, 74, 64
2, 115253, Note_on_c, 0, 78, 93
2, 115256, Note_on_c, 0, 75, 93
2, 115309, Note_off_c, 0, 78, 64
2, 115312, Note_off_c, 0, 75, 64
2, 115328, Note_on_c, 0, 63, 83
2, 115328, Note_on_c, 0, 59, 80
2, 115330, Note_on_c, 0, 54, 75
2, 115335, Note_on_c, 0, 78, 93
2, 115335, Note_on_c, 0, 75, 93
2, 115356, Note_off_c, 0, 59, 64
2, 115364, Note_off_c, 0, 54, 64
2, 115364, Note_off_c, 0, 63, 64
2, 115391, Note_off_c, 0, 83, 64
2, 115391, Note_off_c, 0, 87, 64
2, 115400, Note_on_c, 0, 87, 94
2, 115405, Note_on_c, 0, 83, 94
2, 115443, Note_off_c, 0, 34, 64
2, 115443, Note_off_c, 0, 46, 64
2, 115443, Control_c, 0, 64, 0
2, 115456, Note_off_c, 0, 87, 64
2, 115461, Note_off_c, 0, 83, 64
2, 115483, Note_on_c, 0, 46, 85
2, 115484, Note_on_c, 0, 88, 95
2, 115484, Note_on_c, 0, 84, 95
2, 115491, Note_on_c, 0, 34, 80
2, 115507, Control_c, 0, 64, 127
2, 115550, Note_off_c, 0, 75, 64
2, 115550, Note_off_c, 0, 78, 64
2, 115558, Note_on_c, 0, 79, 95
2, 115561, Note_on_c, 0, 76, 95
2, 115614, Note_off_c, 0, 79, 64
2, 115617, Note_off_c, 0, 76, 64
2, 115644, Note_on_c, 0, 64, 83
2, 115644, Note_on_c, 0, 60, 83
2, 115645, Note_on_c, 0, 55, 74
2, 115646, Note_on_c, 0, 79, 96
2, 115646, Note_on_c, 0, 76, 96
2, 115674, Note_off_c, 0, 60, 64
2, 115680, Note_off_c, 0, 55, 64
2, 115680, Note_off_c, 0, 64, 64
2, 115699, Note_off_c, 0, 84, 64
2, 115699, Note_off_c, 0, 88, 64
2, 115720, Note_on_c, 0, 84, 96
2, 115724, Note_on_c, 0, 88, 96
2, 115753, Control_c, 0, 64, 0
2, 115754, Note_off_c, 0, 46, 64
2, 115762, Note_off_c, 0, 34, 64
2, 115776, Note_off_c, 0, 84, 64
2, 115780, Note_off_c, 0, 88, 64
2, 115798, Note_on_c, 0, 34, 97
2, 115802, Note_on_c, 0, 89, 97
2, 115802, Note_on_c, 0, 85, 97
2, 115802, Note_on_c, 0, 46, 97
2, 115816, Control_c, 0, 64, 127
2, 115861, Note_off_c, 0, 76, 64
2, 115861, Note_off_c, 0, 79, 64
2, 115882, Note_on_c, 0, 80, 99
2, 115883, Note_on_c, 0, 77, 99
2, 115938, Note_off_c, 0, 80, 64
2, 115939, Note_off_c, 0, 77, 64
2, 115976, Note_on_c, 0, 77, 99
2, 115976, Note_on_c, 0, 65, 82
2, 115976, Note_on_c, 0, 61, 86
2, 115976, Note_on_c, 0, 56, 82
2, 115976, Note_on_c, 0, 53, 79
2, 115977, Note_on_c, 0, 80, 99
2, 116008, Note_off_c, 0, 65, 64
2, 116012, Note_off_c, 0, 56, 64
2, 116013, Note_off_c, 0, 53, 64
2, 116013, Note_off_c, 0, 61, 64
2, 116017, Note_off_c, 0, 85, 64
2, 116017, Note_off_c, 0, 89, 64
2, 116064, Note_on_c, 0, 89, 100
2, 116064, Note_on_c, 0, 85, 100
2, 116069, Note_off_c, 0, 34, 64
2, 116073, Note_off_c, 0, 46, 64
2, 116110, Control_c, 0, 64, 0
2, 116120, Note_off_c, 0, 85, 64
2, 116120, Note_off_c, 0, 89, 64
2, 116141, Note_on_c, 0, 90, 101
2, 116141, Note_on_c, 0, 86, 101
2, 116144, Note_on_c, 0, 46, 105
2, 116144, Note_on_c, 0, 34, 102
2, 116171, Control_c, 0, 64, 127
2, 116191, Note_off_c, 0, 77, 64
2, 116192, Note_off_c, 0, 80, 64
2, 116230, Note_on_c, 0, 82, 102
2, 116231, Note_on_c, 0, 80, 102
2, 116286, Note_off_c, 0, 82, 64
2, 116287, Note_off_c, 0, 80, 64
2, 116328, Note_on_c, 0, 82, 103
2, 116328, Note_on_c, 0, 80, 103
2, 116328, Note_on_c, 0, 62, 90
2, 116328, Note_on_c, 0, 58, 60
2, 116328, Note_on_c, 0, 56, 83
2, 116330, Note_on_c, 0, 66, 113
2, 116356, Note_off_c, 0, 86, 64
2, 116356, Note_off_c, 0, 90, 64
2, 116369, Note_off_c, 0, 56, 64
2, 116369, Note_off_c, 0, 58, 64
2, 116369, Note_off_c, 0, 62, 64
2, 116371, Note_off_c, 0, 66, 64
2, 116418, Note_off_c, 0, 34, 64
2, 116418, Note_off_c, 0, 46, 64
2, 116450, Note_on_c, 0, 86, 103
2, 116453, Note_on_c, 0, 90, 103
2, 116543, Note_off_c, 0, 80, 64
2, 116543, Note_off_c, 0, 82, 64
2, 116570, Control_c, 0, 64, 0
2, 116590, Note_off_c, 0, 86, 64
2, 116593, Note_off_c, 0, 90, 64
2, 116596, Note_on_c, 0, 91, 83
2, 116596, Note_on_c, 0, 51, 101
2, 116600, Note_on_c, 0, 87, 99
2, 116600, Note_on_c, 0, 82, 95
2, 116600, Note_on_c, 0, 79, 83
2, 116600, Note_on_c, 0, 39, 83
2, 116634, Control_c, 0, 64, 127
2, 116810, Control_c, 0, 64, 0
2, 116864, Note_on_c, 0, 69, 77
2, 116867, Note_on_c, 0, 42, 68
2, 116868, Note_on_c, 0, 57, 84
2, 116868, Note_on_c, 0, 54, 80
2, 116880, Control_c, 0, 64, 127
2, 116930, Note_off_c, 0, 51, 64
2, 116930, Note_off_c, 0, 91, 64
2, 116934, Note_off_c, 0, 39, 64
2, 116934, Note_off_c, 0, 79, 64
2, 116934, Note_off_c, 0, 82, 64
2, 116934, Note_off_c, 0, 87, 64
2, 116972, Note_on_c, 0, 70, 81
2, 116975, Note_on_c, 0, 58, 101
2, 116982, Note_on_c, 0, 55, 93
2, 116982, Note_on_c, 0, 43, 78
2, 116997, Note_off_c, 0, 69, 64
2, 117000, Note_off_c, 0, 42, 64
2, 117001, Note_off_c, 0, 54, 64
2, 117001, Note_off_c, 0, 57, 64
2, 117078, Note_on_c, 0, 62, 76
2, 117078, Note_on_c, 0, 50, 84
2, 117082, Note_on_c, 0, 38, 73
2, 117083, Note_on_c, 0, 74, 76
2, 117094, Note_off_c, 0, 70, 64
2, 117097, Note_off_c, 0, 58, 64
2, 117104, Note_off_c, 0, 43, 64
2, 117104, Note_off_c, 0, 55, 64
2, 117163, Note_on_c, 0, 75, 78
2, 117163, Note_on_c, 0, 63, 85
2, 117164, Note_on_c, 0, 51, 96
2, 117169, Note_on_c, 0, 39, 91
2, 117190, Note_off_c, 0, 50, 64
2, 117190, Note_off_c, 0, 62, 64
2, 117194, Note_off_c, 0, 38, 64
2, 117195, Note_off_c, 0, 74, 64
2, 117247, Note_on_c, 0, 67, 82
2, 117252, Note_on_c, 0, 46, 100
2, 117252, Note_on_c, 0, 34, 80
2, 117257, Note_on_c, 0, 79, 89
2, 117296, Note_off_c, 0, 63, 64
2, 117296, Note_off_c, 0, 75, 64
2, 117297, Note_off_c, 0, 51, 64
2, 117302, Note_off_c, 0, 39, 64
2, 117319, Note_on_c, 0, 70, 91
2, 117326, Note_on_c, 0, 82, 98
2, 117329, Note_on_c, 0, 43, 105
2, 117336, Note_on_c, 0, 31, 97
2, 117359, Note_off_c, 0, 67, 64
2, 117364, Note_off_c, 0, 34, 64
2, 117364, Note_off_c, 0, 46, 64
2, 117369, Note_off_c, 0, 79, 64
2, 117377, Control_c, 0, 64, 0
2, 117422, Note_on_c, 0, 75, 98
2, 117422, Note_on_c, 0, 39, 113
2, 117423, Note_on_c, 0, 87, 101
2, 117423, Note_on_c, 0, 27, 105
2, 117431, Note_off_c, 0, 70, 64
2, 117435, Control_c, 0, 64, 127
2, 117438, Note_off_c, 0, 82, 64
2, 117441, Note_off_c, 0, 43, 64
2, 117448, Note_off_c, 0, 31, 64
2, 117624, Control_c, 0, 64, 0
2, 117660, Note_on_c, 0, 55, 86
2, 117664, Note_on_c, 0, 70, 57
2, 117664, Note_on_c, 0, 51, 93
2, 117664, Note_on_c, 0, 43, 90
2, 117671, Note_on_c, 0, 63, 79
2, 117671, Note_on_c, 0, 58, 92
2, 117714, Control_c, 0, 64, 127
2, 117795, Note_off_c, 0, 39, 64
2, 117795, Note_off_c, 0, 75, 64
2, 117796, Note_off_c, 0, 27, 64
2, 117796, Note_off_c, 0, 87, 64
2, 117956, Note_off_c, 0, 55, 64
2, 117960, Note_off_c, 0, 43, 64
2, 117960, Note_off_c, 0, 51, 64
2, 117960, Note_off_c, 0, 70, 64
2, 117967, Note_off_c, 0, 58, 64
2, 117967, Note_off_c, 0, 63, 64
2, 118026, Note_on_c, 0, 73, 75
2, 118032, Note_on_c, 0, 61, 70
2, 118032, Note_on_c, 0, 51, 67
2, 118034, Note_on_c, 0, 63, 70
2, 118034, Note_on_c, 0, 56, 86
2, 118040, Note_on_c, 0, 44, 70
2, 118127, Note_off_c, 0, 51, 64
2, 118129, Note_off_c, 0, 56, 64
2, 118129, Note_off_c, 0, 63, 64
2, 118135, Note_off_c, 0, 44, 64
2, 118144, Note_on_c, 0, 44, 63
2, 118150, Note_on_c, 0, 63, 76
2, 118151, Note_off_c, 0, 73, 64
2, 118152, Note_on_c, 0, 59, 73
2, 118152, Note_on_c, 0, 56, 82
2, 118152, Note_on_c, 0, 51, 70
2, 118155, Note_on_c, 0, 71, 62
2, 118157, Note_off_c, 0, 61, 64
2, 118161, Control_c, 0, 64, 0
2, 118185, Note_off_c, 0, 44, 64
2, 118191, Note_off_c, 0, 56, 64
2, 118191, Note_off_c, 0, 63, 64
2, 118192, Note_on_c, 0, 55, 73
2, 118193, Note_off_c, 0, 51, 64
2, 118193, Note_off_c, 0, 59, 64
2, 118193, Note_on_c, 0, 63, 93
2, 118193, Note_on_c, 0, 58, 92
2, 118196, Note_off_c, 0, 71, 64
2, 118199, Note_on_c, 0, 70, 92
2, 118200, Note_on_c, 0, 43, 77
2, 118208, Note_on_c, 0, 51, 68
2, 118215, Control_c, 0, 64, 127
2, 118309, Note_off_c, 0, 55, 64
2, 118310, Note_off_c, 0, 58, 64
2, 118310, Note_off_c, 0, 63, 64
2, 118316, Note_off_c, 0, 70, 64
2, 118317, Note_off_c, 0, 43, 64
2, 118325, Note_off_c, 0, 51, 64
2, 118364, Control_c, 0, 64, 0
2, 118388, Control_c, 0, 64, 127
2, 118400, Note_on_c, 0, 42, 77
2, 118401, Note_on_c, 0, 57, 68
2, 118404, Note_on_c, 0, 54, 84
2, 118405, Note_on_c, 0, 69, 66
2, 118493, Note_on_c, 0, 70, 78
2, 118499, Note_on_c, 0, 58, 86
2, 118502, Note_on_c, 0, 55, 82
2, 118506, Note_on_c, 0, 43, 75
2, 118531, Note_off_c, 0, 42, 64
2, 118532, Note_off_c, 0, 57, 64
2, 118535, Note_off_c, 0, 54, 64
2, 118536, Note_off_c, 0, 69, 64
2, 118591, Note_on_c, 0, 50, 94
2, 118591, Note_on_c, 0, 38, 91
2, 118594, Note_on_c, 0, 62, 84
2, 118599, Note_on_c, 0, 74, 86
2, 118605, Note_off_c, 0, 70, 64
2, 118611, Note_off_c, 0, 58, 64
2, 118614, Note_off_c, 0, 55, 64
2, 118618, Note_off_c, 0, 43, 64
2, 118670, Note_on_c, 0, 63, 87
2, 118674, Note_on_c, 0, 75, 85
2, 118678, Note_on_c, 0, 51, 91
2, 118678, Note_on_c, 0, 39, 93
2, 118703, Note_off_c, 0, 38, 64
2, 118703, Note_off_c, 0, 50, 64
2, 118706, Note_off_c, 0, 62, 64
2, 118711, Note_off_c, 0, 74, 64
2, 118751, Note_on_c, 0, 67, 83
2, 118752, Note_on_c, 0, 34, 92
2, 118758, Note_on_c, 0, 46, 108
2, 118761, Note_on_c, 0, 79, 80
2, 118782, Note_off_c, 0, 63, 64
2, 118786, Note_off_c, 0, 75, 64
2, 118790, Note_off_c, 0, 39, 64
2, 118790, Note_off_c, 0, 51, 64
2, 118826, Note_on_c, 0, 82, 100
2, 118826, Note_on_c, 0, 70, 100
2, 118826, Note_on_c, 0, 31, 96
2, 118832, Note_on_c, 0, 43, 91
2, 118863, Note_off_c, 0, 67, 64
2, 118864, Note_off_c, 0, 34, 64
2, 118870, Note_off_c, 0, 46, 64
2, 118873, Note_off_c, 0, 79, 64
2, 118884, Control_c, 0, 64, 0
2, 118899, Note_on_c, 0, 79, 95
2, 118902, Note_on_c, 0, 22, 127
2, 118910, Note_on_c, 0, 91, 104
2, 118910, Note_on_c, 0, 34, 127
2, 118938, Note_off_c, 0, 31, 64
2, 118938, Note_off_c, 0, 70, 64
2, 118938, Note_off_c, 0, 82, 64
2, 118940, Control_c, 0, 64, 127
2, 118944, Note_off_c, 0, 43, 64
2, 118985, Control_c, 0, 64, 0
2, 118992, Control_c, 0, 64, 0
2, 119039, Control_c, 0, 64, 127
2, 119095, Note_off_c, 0, 34, 64
2, 119120, Note_on_c, 0, 63, 91
2, 119120, Note_on_c, 0, 34, 74
2, 119128, Note_on_c, 0, 58, 108
2, 119128, Note_on_c, 0, 55, 91
2, 119128, Note_on_c, 0, 46, 101
2, 119130, Note_on_c, 0, 67, 86
2, 119153, Control_c, 0, 64, 127
2, 119272, Note_off_c, 0, 79, 64
2, 119275, Note_off_c, 0, 22, 64
2, 119283, Note_off_c, 0, 91, 64
2, 119416, Note_off_c, 0, 34, 64
2, 119416, Note_off_c, 0, 63, 64
2, 119424, Note_off_c, 0, 46, 64
2, 119424, Note_off_c, 0, 55, 64
2, 119424, Note_off_c, 0, 58, 64
2, 119426, Note_off_c, 0, 67, 64
2, 119453, Control_c, 0, 64, 0
2, 119472, Note_on_c, 0, 62, 73
2, 119475, Note_on_c, 0, 67, 75
2, 119480, Note_on_c, 0, 46, 96
2, 119480, Note_on_c, 0, 34, 90
2, 119480, Control_c, 0, 64, 127
2, 119486, Note_on_c, 0, 56, 83
2, 119557, Note_off_c, 0, 62, 64
2, 119565, Note_off_c, 0, 34, 64
2, 119565, Note_off_c, 0, 46, 64
2, 119571, Note_off_c, 0, 56, 64
2, 119580, Note_on_c, 0, 65, 68
2, 119584, Note_on_c, 0, 62, 73
2, 119584, Note_on_c, 0, 56, 67
2, 119584, Note_on_c, 0, 46, 83
2, 119584, Note_on_c, 0, 34, 68
2, 119590, Note_off_c, 0, 67, 64
2, 119610, Control_c, 0, 64, 0
2, 119620, Note_off_c, 0, 46, 64
2, 119620, Note_off_c, 0, 62, 64
2, 119621, Note_off_c, 0, 65, 64
2, 119627, Note_off_c, 0, 34, 64
2, 119627, Note_off_c, 0, 56, 64
2, 119632, Note_on_c, 0, 39, 80
2, 119640, Note_on_c, 0, 55, 73
2, 119641, Note_on_c, 0, 51, 90
2, 119645, Note_on_c, 0, 63, 86
2, 119646, Note_on_c, 0, 67, 73
2, 119675, Control_c, 0, 64, 127
2, 119726, Note_off_c, 0, 39, 64
2, 119734, Note_off_c, 0, 55, 64
2, 119735, Note_off_c, 0, 51, 64
2, 119739, Note_off_c, 0, 63, 64
2, 119740, Note_off_c, 0, 67, 64
2, 119755, Control_c, 0, 64, 127
2, 119796, Control_c, 0, 64, 0
2, 119848, Control_c, 0, 64, 127
2, 119862, Note_on_c, 0, 54, 78
2, 119864, Note_on_c, 0, 42, 81
2, 119865, Note_on_c, 0, 57, 69
2, 119869, Note_on_c, 0, 69, 68
2, 119960, Note_on_c, 0, 70, 75
2, 119964, Note_on_c, 0, 58, 83
2, 119968, Note_on_c, 0, 55, 83
2, 119972, Note_on_c, 0, 43, 72
2, 119993, Note_off_c, 0, 54, 64
2, 119995, Note_off_c, 0, 42, 64
2, 119996, Note_off_c, 0, 57, 64
2, 120000, Note_off_c, 0, 69, 64
2, 120058, Note_on_c, 0, 50, 85
2, 120058, Note_on_c, 0, 38, 81
2, 120062, Note_on_c, 0, 62, 77
2, 120066, Note_on_c, 0, 74, 81
2, 120072, Note_off_c, 0, 70, 64
2, 120076, Note_off_c, 0, 58, 64
2, 120080, Note_off_c, 0, 55, 64
2, 120084, Note_off_c, 0, 43, 64
2, 120132, Note_on_c, 0, 75, 88
2, 120135, Note_on_c, 0, 63, 89
2, 120141, Note_on_c, 0, 51, 107
2, 120142, Note_on_c, 0, 39, 85
2, 120170, Note_off_c, 0, 38, 64
2, 120170, Note_off_c, 0, 50, 64
2, 120174, Note_off_c, 0, 62, 64
2, 120178, Note_off_c, 0, 74, 64
2, 120210, Note_on_c, 0, 67, 87
2, 120212, Note_on_c, 0, 46, 108
2, 120217, Note_on_c, 0, 34, 93
2, 120222, Note_on_c, 0, 79, 94
2, 120244, Note_off_c, 0, 75, 64
2, 120247, Note_off_c, 0, 63, 64
2, 120253, Note_off_c, 0, 51, 64
2, 120254, Note_off_c, 0, 39, 64
2, 120280, Note_on_c, 0, 31, 93
2, 120292, Note_on_c, 0, 82, 96
2, 120292, Note_on_c, 0, 70, 97
2, 120299, Note_on_c, 0, 43, 48
2, 120322, Note_off_c, 0, 67, 64
2, 120324, Note_off_c, 0, 46, 64
2, 120329, Note_off_c, 0, 34, 64
2, 120334, Note_off_c, 0, 79, 64
2, 120371, Control_c, 0, 64, 0
2, 120383, Note_on_c, 0, 39, 113
2, 120384, Note_on_c, 0, 87, 101
2, 120384, Note_on_c, 0, 75, 103
2, 120384, Note_on_c, 0, 27, 99
2, 120392, Note_off_c, 0, 31, 64
2, 120404, Note_off_c, 0, 70, 64
2, 120404, Note_off_c, 0, 82, 64
2, 120411, Note_off_c, 0, 43, 64
2, 120428, Control_c, 0, 64, 127
2, 120610, Control_c, 0, 64, 0
2, 120644, Note_on_c, 0, 70, 74
2, 120648, Note_on_c, 0, 51, 79
2, 120648, Note_on_c, 0, 43, 73
2, 120649, Note_on_c, 0, 63, 80
2, 120649, Note_on_c, 0, 55, 79
2, 120650, Note_on_c, 0, 58, 93
2, 120689, Control_c, 0, 64, 127
2, 120756, Note_off_c, 0, 39, 64
2, 120757, Note_off_c, 0, 27, 64
2, 120757, Note_off_c, 0, 75, 64
2, 120757, Note_off_c, 0, 87, 64
2, 120940, Note_off_c, 0, 70, 64
2, 120944, Note_off_c, 0, 43, 64
2, 120944, Note_off_c, 0, 51, 64
2, 120945, Note_off_c, 0, 55, 64
2, 120945, Note_off_c, 0, 63, 64
2, 120946, Note_off_c, 0, 58, 64
2, 121005, Control_c, 0, 64, 0
2, 121016, Note_on_c, 0, 58, 90
2, 121016, Note_on_c, 0, 51, 73
2, 121017, Note_on_c, 0, 73, 77
2, 121018, Note_on_c, 0, 61, 80
2, 121023, Note_on_c, 0, 63, 77
2, 121023, Note_on_c, 0, 46, 85
2, 121044, Control_c, 0, 64, 127
2, 121078, Note_off_c, 0, 63, 64
2, 121081, Note_off_c, 0, 51, 64
2, 121081, Note_off_c, 0, 58, 64
2, 121082, Note_off_c, 0, 73, 64
2, 121083, Note_off_c, 0, 61, 64
2, 121088, Note_off_c, 0, 46, 64
2, 121088, Note_on_c, 0, 71, 73
2, 121090, Note_on_c, 0, 46, 73
2, 121095, Note_on_c, 0, 56, 88
2, 121095, Note_on_c, 0, 51, 79
2, 121096, Note_on_c, 0, 63, 73
2, 121096, Note_on_c, 0, 59, 76
2, 121185, Note_off_c, 0, 46, 64
2, 121190, Note_off_c, 0, 51, 64
2, 121190, Note_off_c, 0, 56, 64
2, 121191, Note_off_c, 0, 59, 64
2, 121191, Note_off_c, 0, 63, 64
2, 121199, Note_on_c, 0, 51, 88
2, 121202, Note_on_c, 0, 58, 81
2, 121203, Note_off_c, 0, 71, 64
2, 121203, Note_on_c, 0, 55, 84
2, 121209, Note_on_c, 0, 70, 76
2, 121209, Note_on_c, 0, 63, 72
2, 121209, Note_on_c, 0, 43, 75
2, 121224, Control_c, 0, 64, 0
2, 121228, Note_off_c, 0, 51, 64
2, 121231, Note_off_c, 0, 58, 64
2, 121232, Note_off_c, 0, 55, 64
2, 121238, Note_off_c, 0, 43, 64
2, 121238, Note_off_c, 0, 63, 64
2, 121238, Note_off_c, 0, 70, 64
2, 121241, Note_on_c, 0, 58, 73
2, 121248, Note_on_c, 0, 70, 72
2, 121248, Note_on_c, 0, 63, 79
2, 121253, Note_on_c, 0, 51, 73
2, 121253, Control_c, 0, 64, 127
2, 121261, Note_on_c, 0, 55, 72
2, 121261, Note_on_c, 0, 43, 69
2, 121335, Note_off_c, 0, 58, 64
2, 121342, Note_off_c, 0, 63, 64
2, 121342, Note_off_c, 0, 70, 64
2, 121347, Note_off_c, 0, 51, 64
2, 121355, Note_off_c, 0, 43, 64
2, 121355, Note_off_c, 0, 55, 64
2, 121384, Control_c, 0, 64, 0
2, 121436, Control_c, 0, 64, 127
2, 121443, Note_on_c, 0, 54, 80
2, 121444, Note_on_c, 0, 42, 75
2, 121452, Note_on_c, 0, 69, 68
2, 121453, Note_on_c, 0, 57, 68
2, 121536, Note_on_c, 0, 70, 77
2, 121542, Note_on_c, 0, 58, 75
2, 121542, Note_on_c, 0, 55, 82
2, 121545, Note_on_c, 0, 43, 73
2, 121565, Note_off_c, 0, 54, 64
2, 121566, Note_off_c, 0, 42, 64
2, 121574, Note_off_c, 0, 69, 64
2, 121575, Note_off_c, 0, 57, 64
2, 121626, Note_on_c, 0, 38, 84
2, 121630, Note_on_c, 0, 50, 88
2, 121633, Note_on_c, 0, 62, 76
2, 121634, Note_on_c, 0, 74, 76
2, 121658, Note_off_c, 0, 70, 64
2, 121664, Note_off_c, 0, 55, 64
2, 121664, Note_off_c, 0, 58, 64
2, 121667, Note_off_c, 0, 43, 64
2, 121708, Note_on_c, 0, 75, 78
2, 121708, Note_on_c, 0, 63, 87
2, 121708, Note_on_c, 0, 51, 101
2, 121718, Note_on_c, 0, 39, 84
2, 121738, Note_off_c, 0, 38, 64
2, 121742, Note_off_c, 0, 50, 64
2, 121745, Note_off_c, 0, 62, 64
2, 121746, Note_off_c, 0, 74, 64
2, 121776, Note_on_c, 0, 46, 108
2, 121783, Note_on_c, 0, 34, 97
2, 121792, Note_on_c, 0, 67, 81
2, 121797, Note_on_c, 0, 79, 84
2, 121820, Note_off_c, 0, 51, 64
2, 121820, Note_off_c, 0, 63, 64
2, 121820, Note_off_c, 0, 75, 64
2, 121830, Note_off_c, 0, 39, 64
2, 121851, Note_on_c, 0, 32, 103
2, 121859, Note_on_c, 0, 43, 106
2, 121866, Note_on_c, 0, 70, 101
2, 121872, Note_on_c, 0, 82, 105
2, 121888, Note_off_c, 0, 46, 64
2, 121895, Note_off_c, 0, 34, 64
2, 121904, Note_off_c, 0, 67, 64
2, 121909, Note_off_c, 0, 79, 64
2, 121922, Control_c, 0, 64, 0
2, 121944, Note_on_c, 0, 22, 117
2, 121948, Note_on_c, 0, 79, 94
2, 121957, Note_on_c, 0, 91, 106
2, 121957, Note_on_c, 0, 34, 125
2, 121963, Note_off_c, 0, 32, 64
2, 121971, Note_off_c, 0, 43, 64
2, 121978, Note_off_c, 0, 70, 64
2, 121984, Note_off_c, 0, 82, 64
2, 121986, Control_c, 0, 64, 127
2, 122065, Control_c, 0, 64, 0
2, 122142, Note_off_c, 0, 34, 64
2, 122144, Note_on_c, 0, 39, 88
2, 122152, Note_on_c, 0, 63, 81
2, 122152, Note_on_c, 0, 58, 108
2, 122152, Note_on_c, 0, 55, 88
2, 122152, Note_on_c, 0, 46, 105
2, 122152, Note_on_c, 0, 34, 99
2, 122160, Note_on_c, 0, 67, 81
2, 122187, Control_c, 0, 64, 127
2, 122193, Control_c, 0, 64, 127
2, 122317, Note_off_c, 0, 22, 64
2, 122321, Note_off_c, 0, 79, 64
2, 122330, Note_off_c, 0, 39, 64
2, 122330, Note_off_c, 0, 91, 64
2, 122448, Note_off_c, 0, 34, 64
2, 122448, Note_off_c, 0, 46, 64
2, 122448, Note_off_c, 0, 55, 64
2, 122448, Note_off_c, 0, 58, 64
2, 122448, Note_off_c, 0, 63, 64
2, 122456, Note_off_c, 0, 67, 64
2, 122512, Note_on_c, 0, 67, 80
2, 122512, Note_on_c, 0, 62, 68
2, 122512, Note_on_c, 0, 56, 73
2, 122512, Note_on_c, 0, 46, 93
2, 122520, Note_on_c, 0, 34, 80
2, 122579, Control_c, 0, 64, 127
2, 122619, Note_off_c, 0, 46, 64
2, 122619, Note_off_c, 0, 56, 64
2, 122619, Note_off_c, 0, 62, 64
2, 122619, Note_off_c, 0, 67, 64
2, 122624, Note_on_c, 0, 46, 68
2, 122627, Note_off_c, 0, 34, 64
2, 122648, Note_on_c, 0, 65, 83
2, 122648, Note_on_c, 0, 62, 86
2, 122648, Note_on_c, 0, 56, 77
2, 122656, Note_on_c, 0, 34, 80
2, 122665, Note_off_c, 0, 46, 64
2, 122667, Control_c, 0, 64, 127
2, 122688, Note_on_c, 0, 51, 75
2, 122689, Note_off_c, 0, 56, 64
2, 122689, Note_off_c, 0, 62, 64
2, 122689, Note_off_c, 0, 65, 64
2, 122689, Control_c, 0, 64, 0
2, 122696, Note_on_c, 0, 67, 91
2, 122696, Note_on_c, 0, 63, 89
2, 122696, Note_on_c, 0, 55, 77
2, 122696, Note_on_c, 0, 46, 93
2, 122696, Note_on_c, 0, 39, 86
2, 122697, Note_off_c, 0, 34, 64
2, 122795, Note_off_c, 0, 51, 64
2, 122803, Note_off_c, 0, 39, 64
2, 122803, Note_off_c, 0, 46, 64
2, 122803, Note_off_c, 0, 55, 64
2, 122803, Note_off_c, 0, 63, 64
2, 122803, Note_off_c, 0, 67, 64
2, 122908, Note_on_c, 0, 67, 84
2, 122908, Note_on_c, 0, 56, 91
2, 122912, Note_on_c, 0, 62, 84
2, 122912, Note_on_c, 0, 34, 108
2, 122915, Note_on_c, 0, 46, 108
2, 122927, Control_c, 0, 64, 127
2, 123204, Note_off_c, 0, 56, 64
2, 123204, Note_off_c, 0, 67, 64
2, 123208, Note_off_c, 0, 34, 64
2, 123208, Note_off_c, 0, 62, 64
2, 123211, Note_off_c, 0, 46, 64
2, 123244, Note_on_c, 0, 67, 82
2, 123244, Note_on_c, 0, 62, 62
2, 123244, Note_on_c, 0, 46, 86
2, 123244, Note_on_c, 0, 34, 96
2, 123248, Note_on_c, 0, 56, 79
2, 123351, Note_off_c, 0, 34, 64
2, 123351, Note_off_c, 0, 46, 64
2, 123351, Note_off_c, 0, 62, 64
2, 123351, Note_off_c, 0, 67, 64
2, 123355, Note_off_c, 0, 56, 64
2, 123360, Note_on_c, 0, 65, 82
2, 123360, Note_on_c, 0, 46, 80
2, 123364, Note_on_c, 0, 62, 84
2, 123364, Note_on_c, 0, 56, 72
2, 123364, Note_on_c, 0, 34, 79
2, 123394, Control_c, 0, 64, 0
2, 123401, Note_off_c, 0, 46, 64
2, 123401, Note_off_c, 0, 65, 64
2, 123402, Note_off_c, 0, 56, 64
2, 123405, Note_off_c, 0, 34, 64
2, 123408, Note_off_c, 0, 62, 64
2, 123408, Note_on_c, 0, 67, 92
2, 123408, Note_on_c, 0, 63, 89
2, 123408, Note_on_c, 0, 46, 77
2, 123408, Note_on_c, 0, 39, 73
2, 123409, Note_on_c, 0, 55, 77
2, 123410, Note_on_c, 0, 51, 94
2, 123502, Note_off_c, 0, 39, 64
2, 123502, Note_off_c, 0, 46, 64
2, 123502, Note_off_c, 0, 63, 64
2, 123502, Note_off_c, 0, 67, 64
2, 123503, Note_off_c, 0, 55, 64
2, 123504, Note_off_c, 0, 51, 64
2, 123600, Note_on_c, 0, 34, 108
2, 123604, Note_on_c, 0, 46, 103
2, 123608, Note_on_c, 0, 62, 84
2, 123608, Note_on_c, 0, 56, 91
2, 123612, Note_on_c, 0, 67, 84
2, 123636, Control_c, 0, 64, 127
2, 123896, Note_off_c, 0, 34, 64
2, 123900, Note_off_c, 0, 46, 64
2, 123904, Note_off_c, 0, 56, 64
2, 123904, Note_off_c, 0, 62, 64
2, 123908, Note_off_c, 0, 67, 64
2, 123944, Note_on_c, 0, 34, 93
2, 123952, Note_on_c, 0, 62, 68
2, 123956, Note_on_c, 0, 67, 83
2, 123960, Note_on_c, 0, 56, 77
2, 123960, Note_on_c, 0, 46, 80
2, 124051, Note_off_c, 0, 34, 64
2, 124059, Note_off_c, 0, 62, 64
2, 124063, Note_off_c, 0, 67, 64
2, 124067, Note_off_c, 0, 46, 64
2, 124067, Note_off_c, 0, 56, 64
2, 124096, Note_on_c, 0, 65, 85
2, 124096, Note_on_c, 0, 62, 69
2, 124096, Note_on_c, 0, 56, 59
2, 124096, Note_on_c, 0, 46, 73
2, 124100, Note_on_c, 0, 34, 80
2, 124110, Control_c, 0, 64, 0
2, 124137, Note_off_c, 0, 46, 64
2, 124137, Note_off_c, 0, 56, 64
2, 124137, Note_off_c, 0, 62, 64
2, 124137, Note_off_c, 0, 65, 64
2, 124141, Note_off_c, 0, 34, 64
2, 124152, Note_on_c, 0, 67, 100
2, 124152, Note_on_c, 0, 65, 80
2, 124152, Note_on_c, 0, 47, 86
2, 124152, Note_on_c, 0, 35, 80
2, 124160, Note_on_c, 0, 62, 82
2, 124160, Note_on_c, 0, 55, 80
2, 124246, Note_off_c, 0, 35, 64
2, 124246, Note_off_c, 0, 47, 64
2, 124246, Note_off_c, 0, 65, 64
2, 124246, Note_off_c, 0, 67, 64
2, 124254, Note_off_c, 0, 55, 64
2, 124254, Note_off_c, 0, 62, 64
2, 124477, Control_c, 0, 64, 127
2, 124496, Note_on_c, 0, 59, 93
2, 124496, Note_on_c, 0, 47, 99
2, 124504, Note_on_c, 0, 79, 99
2, 124504, Note_on_c, 0, 77, 93
2, 124504, Note_on_c, 0, 74, 99
2, 124504, Note_on_c, 0, 67, 96
2, 124504, Note_on_c, 0, 55, 93
2, 124504, Note_on_c, 0, 50, 93
2, 124780, Note_off_c, 0, 50, 64
2, 124780, Note_off_c, 0, 55, 64
2, 124791, Note_off_c, 0, 47, 64
2, 124792, Note_off_c, 0, 59, 64
2, 124812, Note_off_c, 0, 74, 64
2, 124826, Note_off_c, 0, 77, 64
2, 124830, Note_off_c, 0, 79, 64
2, 124836, Note_off_c, 0, 67, 64
2, 124973, Note_on_c, 0, 59, 62
2, 124977, Note_on_c, 0, 55, 60
2, 124982, Note_on_c, 0, 50, 60
2, 124986, Note_on_c, 0, 77, 40
2, 124986, Note_on_c, 0, 74, 41
2, 124986, Note_on_c, 0, 67, 45
2, 124993, Note_on_c, 0, 79, 32
2, 124993, Note_on_c, 0, 47, 35
2, 125004, Note_off_c, 0, 47, 64
2, 125007, Note_off_c, 0, 55, 64
2, 125011, Note_off_c, 0, 50, 64
2, 125012, Note_off_c, 0, 74, 64
2, 125015, Note_off_c, 0, 67, 64
2, 125016, Note_off_c, 0, 79, 64
2, 125016, Note_off_c, 0, 77, 64
2, 125020, Note_off_c, 0, 59, 64
2, 125055, Note_on_c, 0, 67, 53
2, 125059, Note_on_c, 0, 74, 56
2, 125059, Note_on_c, 0, 59, 49
2, 125064, Note_on_c, 0, 47, 37
2, 125066, Note_on_c, 0, 77, 57
2, 125067, Note_on_c, 0, 79, 49
2, 125067, Note_on_c, 0, 55, 50
2, 125067, Note_on_c, 0, 50, 49
2, 125075, Note_off_c, 0, 47, 64
2, 125086, Note_off_c, 0, 74, 64
2, 125089, Note_off_c, 0, 50, 64
2, 125089, Note_off_c, 0, 55, 64
2, 125090, Note_off_c, 0, 77, 64
2, 125096, Note_off_c, 0, 79, 64
2, 125096, Note_off_c, 0, 59, 64
2, 125096, Note_off_c, 0, 67, 64
2, 125126, Note_on_c, 0, 59, 57
2, 125130, Note_on_c, 0, 74, 61
2, 125130, Note_on_c, 0, 67, 61
2, 125137, Note_on_c, 0, 79, 58
2, 125137, Note_on_c, 0, 77, 60
2, 125137, Note_on_c, 0, 55, 60
2, 125139, Note_on_c, 0, 50, 60
2, 125145, Note_on_c, 0, 47, 52
2, 125157, Note_off_c, 0, 74, 64
2, 125159, Note_off_c, 0, 47, 64
2, 125164, Note_off_c, 0, 77, 64
2, 125165, Note_off_c, 0, 50, 64
2, 125165, Note_off_c, 0, 55, 64
2, 125165, Note_off_c, 0, 67, 64
2, 125171, Note_off_c, 0, 79, 64
2, 125171, Note_off_c, 0, 59, 64
2, 125194, Note_on_c, 0, 59, 69
2, 125197, Note_on_c, 0, 67, 67
2, 125204, Note_on_c, 0, 74, 70
2, 125204, Note_on_c, 0, 55, 70
2, 125204, Note_on_c, 0, 50, 69
2, 125204, Note_on_c, 0, 47, 65
2, 125212, Note_on_c, 0, 79, 64
2, 125212, Note_on_c, 0, 77, 69
2, 125225, Note_off_c, 0, 74, 64
2, 125231, Note_off_c, 0, 77, 64
2, 125231, Note_off_c, 0, 55, 64
2, 125235, Note_off_c, 0, 50, 64
2, 125235, Note_off_c, 0, 67, 64
2, 125236, Note_off_c, 0, 79, 64
2, 125236, Note_off_c, 0, 47, 64
2, 125240, Note_off_c, 0, 59, 64
2, 125261, Note_on_c, 0, 67, 72
2, 125264, Note_on_c, 0, 74, 73
2, 125265, Note_on_c, 0, 79, 68
2, 125265, Note_on_c, 0, 77, 73
2, 125265, Note_on_c, 0, 59, 70
2, 125274, Note_on_c, 0, 55, 74
2, 125274, Note_on_c, 0, 47, 67
2, 125275, Note_on_c, 0, 50, 73
2, 125295, Note_off_c, 0, 74, 64
2, 125299, Note_off_c, 0, 77, 64
2, 125299, Note_off_c, 0, 67, 64
2, 125303, Note_off_c, 0, 50, 64
2, 125303, Note_off_c, 0, 55, 64
2, 125303, Note_off_c, 0, 59, 64
2, 125308, Note_off_c, 0, 47, 64
2, 125308, Note_off_c, 0, 79, 64
2, 125322, Note_on_c, 0, 67, 66
2, 125328, Note_on_c, 0, 74, 77
2, 125332, Note_on_c, 0, 79, 68
2, 125332, Note_on_c, 0, 77, 73
2, 125332, Note_on_c, 0, 59, 71
2, 125340, Note_on_c, 0, 55, 77
2, 125340, Note_on_c, 0, 50, 72
2, 125340, Note_on_c, 0, 47, 68
2, 125360, Note_off_c, 0, 74, 64
2, 125360, Note_off_c, 0, 67, 64
2, 125363, Note_off_c, 0, 77, 64
2, 125363, Note_off_c, 0, 79, 64
2, 125368, Note_off_c, 0, 50, 64
2, 125369, Note_off_c, 0, 47, 64
2, 125369, Note_off_c, 0, 55, 64
2, 125374, Note_off_c, 0, 59, 64
2, 125396, Note_on_c, 0, 67, 80
2, 125401, Note_on_c, 0, 79, 80
2, 125401, Note_on_c, 0, 77, 77
2, 125401, Note_on_c, 0, 74, 86
2, 125401, Note_on_c, 0, 59, 81
2, 125405, Note_on_c, 0, 55, 87
2, 125410, Note_on_c, 0, 47, 82
2, 125411, Note_on_c, 0, 50, 87
2, 125435, Note_off_c, 0, 74, 64
2, 125435, Note_off_c, 0, 67, 64
2, 125442, Note_off_c, 0, 50, 64
2, 125444, Note_off_c, 0, 55, 64
2, 125444, Note_off_c, 0, 59, 64
2, 125445, Note_off_c, 0, 77, 64
2, 125450, Note_off_c, 0, 47, 64
2, 125450, Note_off_c, 0, 79, 64
2, 125616, Control_c, 0, 64, 0
2, 125677, Note_on_c, 0, 80, 103
2, 125681, Note_on_c, 0, 74, 99
2, 125682, Note_on_c, 0, 68, 103
2, 125687, Note_on_c, 0, 76, 99
2, 125688, Note_on_c, 0, 56, 100
2, 125695, Note_on_c, 0, 59, 100
2, 125695, Note_on_c, 0, 52, 96
2, 125695, Note_on_c, 0, 47, 93
2, 125723, Control_c, 0, 64, 127
2, 125737, Note_off_c, 0, 68, 64
2, 125744, Note_off_c, 0, 74, 64
2, 125752, Note_off_c, 0, 80, 64
2, 125754, Note_off_c, 0, 76, 64
2, 125760, Note_off_c, 0, 56, 64
2, 125762, Note_off_c, 0, 52, 64
2, 125767, Note_off_c, 0, 59, 64
2, 125781, Note_off_c, 0, 47, 64
2, 125996, Note_on_c, 0, 64, 94
2, 125996, Note_on_c, 0, 28, 96
2, 126002, Note_on_c, 0, 52, 86
2, 126002, Note_on_c, 0, 40, 102
2, 126211, Note_off_c, 0, 64, 64
2, 126217, Note_off_c, 0, 52, 64
2, 126222, Note_on_c, 0, 80, 53
2, 126225, Note_on_c, 0, 68, 62
2, 126232, Note_on_c, 0, 76, 53
2, 126232, Note_on_c, 0, 71, 53
2, 126238, Note_on_c, 0, 52, 41
2, 126245, Note_on_c, 0, 64, 29
2, 126248, Note_on_c, 0, 62, 24
2, 126248, Note_on_c, 0, 59, 24
2, 126255, Note_off_c, 0, 71, 64
2, 126255, Note_off_c, 0, 76, 64
2, 126255, Note_off_c, 0, 68, 64
2, 126263, Note_off_c, 0, 80, 64
2, 126267, Note_off_c, 0, 59, 64
2, 126267, Note_off_c, 0, 62, 64
2, 126271, Note_off_c, 0, 64, 64
2, 126281, Note_off_c, 0, 52, 64
2, 126304, Note_on_c, 0, 76, 63
2, 126307, Note_on_c, 0, 68, 65
2, 126308, Note_on_c, 0, 80, 67
2, 126312, Note_on_c, 0, 71, 31
2, 126317, Note_on_c, 0, 59, 68
2, 126322, Note_on_c, 0, 64, 59
2, 126323, Note_on_c, 0, 62, 58
2, 126323, Note_on_c, 0, 52, 60
2, 126333, Note_off_c, 0, 68, 64
2, 126333, Note_off_c, 0, 76, 64
2, 126338, Note_off_c, 0, 71, 64
2, 126343, Note_off_c, 0, 80, 64
2, 126349, Note_off_c, 0, 62, 64
2, 126349, Note_off_c, 0, 64, 64
2, 126349, Note_off_c, 0, 59, 64
2, 126351, Note_off_c, 0, 52, 64
2, 126373, Note_on_c, 0, 80, 66
2, 126374, Note_on_c, 0, 68, 68
2, 126378, Note_on_c, 0, 76, 67
2, 126384, Note_on_c, 0, 64, 67
2, 126385, Note_on_c, 0, 62, 67
2, 126392, Note_on_c, 0, 71, 45
2, 126392, Note_on_c, 0, 59, 70
2, 126392, Note_on_c, 0, 52, 68
2, 126403, Note_off_c, 0, 71, 64
2, 126405, Note_off_c, 0, 68, 64
2, 126409, Note_off_c, 0, 76, 64
2, 126421, Note_off_c, 0, 59, 64
2, 126421, Note_off_c, 0, 62, 64
2, 126421, Note_off_c, 0, 64, 64
2, 126422, Note_off_c, 0, 52, 64
2, 126422, Note_off_c, 0, 80, 64
2, 126441, Note_on_c, 0, 68, 75
2, 126445, Note_on_c, 0, 80, 79
2, 126450, Note_on_c, 0, 76, 82
2, 126450, Note_on_c, 0, 71, 75
2, 126457, Note_on_c, 0, 62, 75
2, 126458, Note_on_c, 0, 64, 75
2, 126458, Note_on_c, 0, 59, 80
2, 126458, Note_on_c, 0, 52, 75
2, 126471, Note_off_c, 0, 71, 64
2, 126473, Note_off_c, 0, 76, 64
2, 126474, Note_off_c, 0, 68, 64
2, 126486, Note_off_c, 0, 59, 64
2, 126489, Note_off_c, 0, 64, 64
2, 126489, Note_off_c, 0, 62, 64
2, 126489, Note_off_c, 0, 80, 64
2, 126490, Note_off_c, 0, 52, 64
2, 126504, Note_on_c, 0, 80, 79
2, 126510, Note_on_c, 0, 76, 83
2, 126510, Note_on_c, 0, 71, 78
2, 126510, Note_on_c, 0, 68, 79
2, 126520, Note_on_c, 0, 62, 80
2, 126521, Note_on_c, 0, 64, 80
2, 126521, Note_on_c, 0, 59, 83
2, 126521, Note_on_c, 0, 52, 79
2, 126538, Note_off_c, 0, 71, 64
2, 126541, Note_off_c, 0, 68, 64
2, 126541, Note_off_c, 0, 76, 64
2, 126551, Note_off_c, 0, 64, 64
2, 126555, Note_off_c, 0, 59, 64
2, 126558, Note_off_c, 0, 62, 64
2, 126562, Note_on_c, 0, 68, 75
2, 126565, Note_off_c, 0, 52, 64
2, 126570, Note_on_c, 0, 76, 78
2, 126570, Note_on_c, 0, 71, 64
2, 126575, Note_on_c, 0, 64, 77
2, 126575, Note_on_c, 0, 59, 79
2, 126576, Note_on_c, 0, 52, 53
2, 126577, Note_on_c, 0, 62, 76
2, 126599, Note_off_c, 0, 68, 64
2, 126603, Note_off_c, 0, 71, 64
2, 126609, Note_off_c, 0, 62, 64
2, 126609, Note_off_c, 0, 64, 64
2, 126609, Note_off_c, 0, 76, 64
2, 126615, Note_off_c, 0, 59, 64
2, 126619, Note_off_c, 0, 52, 64
2, 126619, Note_off_c, 0, 80, 64
2, 126631, Note_on_c, 0, 80, 84
2, 126631, Note_on_c, 0, 68, 88
2, 126632, Note_on_c, 0, 52, 84
2, 126640, Note_on_c, 0, 76, 86
2, 126640, Note_on_c, 0, 71, 85
2, 126641, Note_on_c, 0, 64, 89
2, 126641, Note_on_c, 0, 62, 86
2, 126641, Note_on_c, 0, 59, 94
2, 126668, Note_off_c, 0, 68, 64
2, 126671, Note_off_c, 0, 64, 64
2, 126672, Note_off_c, 0, 59, 64
2, 126672, Note_off_c, 0, 62, 64
2, 126677, Note_off_c, 0, 71, 64
2, 126682, Note_off_c, 0, 76, 64
2, 126685, Note_off_c, 0, 52, 64
2, 126685, Note_off_c, 0, 80, 64
2, 126691, Note_off_c, 0, 28, 64
2, 126697, Note_off_c, 0, 40, 64
2, 126898, Control_c, 0, 64, 0
2, 126925, Note_on_c, 0, 80, 82
2, 126926, Note_on_c, 0, 68, 82
2, 126931, Note_on_c, 0, 76, 82
2, 126931, Note_on_c, 0, 74, 78
2, 126937, Note_on_c, 0, 52, 78
2, 126938, Note_on_c, 0, 59, 80
2, 126938, Note_on_c, 0, 47, 77
2, 126951, Control_c, 0, 64, 127
2, 126977, Note_off_c, 0, 74, 64
2, 127011, Note_off_c, 0, 76, 64
2, 127015, Note_off_c, 0, 68, 64
2, 127020, Note_off_c, 0, 47, 64
2, 127038, Note_off_c, 0, 52, 64
2, 127047, Note_off_c, 0, 59, 64
2, 127047, Note_off_c, 0, 80, 64
2, 127205, Note_on_c, 0, 80, 80
2, 127208, Note_on_c, 0, 73, 83
2, 127213, Note_on_c, 0, 68, 87
2, 127213, Note_on_c, 0, 56, 82
2, 127214, Note_on_c, 0, 59, 83
2, 127221, Note_on_c, 0, 77, 82
2, 127221, Note_on_c, 0, 47, 77
2, 127222, Note_on_c, 0, 53, 79
2, 127274, Note_off_c, 0, 73, 64
2, 127298, Note_off_c, 0, 47, 64
2, 127304, Note_off_c, 0, 68, 64
2, 127317, Note_off_c, 0, 56, 64
2, 127320, Note_off_c, 0, 77, 64
2, 127322, Note_off_c, 0, 53, 64
2, 127326, Note_off_c, 0, 80, 64
2, 127329, Note_off_c, 0, 59, 64
2, 127455, Control_c, 0, 64, 0
2, 127478, Note_on_c, 0, 80, 82
2, 127484, Note_on_c, 0, 72, 83
2, 127485, Note_on_c, 0, 56, 77
2, 127490, Note_on_c, 0, 77, 82
2, 127490, Note_on_c, 0, 68, 81
2, 127490, Note_on_c, 0, 60, 80
2, 127492, Note_on_c, 0, 53, 78
2, 127492, Note_on_c, 0, 48, 80
2, 127508, Control_c, 0, 64, 127
2, 127563, Note_off_c, 0, 48, 64
2, 127579, Note_off_c, 0, 72, 64
2, 127586, Note_off_c, 0, 68, 64
2, 127599, Note_off_c, 0, 53, 64
2, 127599, Note_off_c, 0, 77, 64
2, 127599, Note_off_c, 0, 80, 64
2, 127615, Note_off_c, 0, 56, 64
2, 127628, Note_off_c, 0, 60, 64
2, 127759, Note_on_c, 0, 80, 82
2, 127760, Note_on_c, 0, 53, 72
2, 127764, Note_on_c, 0, 62, 79
2, 127764, Note_on_c, 0, 58, 78
2, 127764, Note_on_c, 0, 50, 80
2, 127770, Note_on_c, 0, 70, 87
2, 127771, Note_on_c, 0, 77, 78
2, 127771, Note_on_c, 0, 68, 94
2, 127778, Control_c, 0, 64, 0
2, 127803, Control_c, 0, 64, 127
2, 127850, Note_off_c, 0, 77, 64
2, 127866, Note_off_c, 0, 53, 64
2, 127870, Note_off_c, 0, 50, 64
2, 127896, Note_off_c, 0, 62, 64
2, 127904, Note_off_c, 0, 70, 64
2, 127911, Note_off_c, 0, 80, 64
2, 127916, Note_off_c, 0, 58, 64
2, 127925, Note_off_c, 0, 68, 64
2, 128030, Control_c, 0, 64, 0
2, 128045, Note_on_c, 0, 51, 71
2, 128052, Note_on_c, 0, 79, 82
2, 128054, Note_on_c, 0, 70, 82
2, 128060, Note_on_c, 0, 75, 82
2, 128060, Note_on_c, 0, 67, 82
2, 128060, Note_on_c, 0, 58, 78
2, 128066, Note_on_c, 0, 63, 90
2, 128091, Control_c, 0, 64, 127
2, 128133, Note_off_c, 0, 58, 64
2, 128165, Note_off_c, 0, 67, 64
2, 128167, Note_off_c, 0, 63, 64
2, 128179, Note_off_c, 0, 51, 64
2, 128181, Note_off_c, 0, 70, 64
2, 128189, Note_off_c, 0, 75, 64
2, 128196, Note_off_c, 0, 79, 64
2, 128295, Note_on_c, 0, 46, 75
2, 128326, Note_on_c, 0, 53, 80
2, 128346, Note_on_c, 0, 58, 70
2, 128354, Control_c, 0, 64, 0
2, 128359, Note_off_c, 0, 46, 64
2, 128385, Note_on_c, 0, 84, 85
2, 128388, Note_on_c, 0, 75, 90
2, 128388, Note_on_c, 0, 63, 89
2, 128395, Note_on_c, 0, 77, 84
2, 128395, Note_on_c, 0, 72, 84
2, 128409, Control_c, 0, 64, 127
2, 128415, Note_off_c, 0, 53, 64
2, 128421, Note_off_c, 0, 58, 64
2, 128422, Note_off_c, 0, 63, 64
2, 128433, Note_off_c, 0, 77, 64
2, 128437, Note_off_c, 0, 72, 64
2, 128441, Note_off_c, 0, 75, 64
2, 128454, Note_off_c, 0, 84, 64
2, 128682, Control_c, 0, 64, 0
2, 128724, Note_on_c, 0, 62, 85
2, 128724, Note_on_c, 0, 58, 79
2, 128729, Note_on_c, 0, 56, 79
2, 128729, Note_on_c, 0, 50, 83
2, 128731, Note_on_c, 0, 34, 81
2, 128736, Note_on_c, 0, 46, 96
2, 128759, Control_c, 0, 64, 127
2, 129005, Control_c, 0, 64, 0
2, 129019, Note_on_c, 0, 63, 89
2, 129020, Note_off_c, 0, 58, 64
2, 129020, Note_off_c, 0, 62, 64
2, 129021, Note_on_c, 0, 51, 81
2, 129024, Note_on_c, 0, 27, 90
2, 129025, Note_off_c, 0, 50, 64
2, 129025, Note_off_c, 0, 56, 64
2, 129025, Note_on_c, 0, 55, 73
2, 129027, Note_off_c, 0, 34, 64
2, 129030, Note_on_c, 0, 39, 100
2, 129032, Note_off_c, 0, 46, 64
2, 129059, Note_off_c, 0, 39, 64
2, 129064, Note_off_c, 0, 27, 64
2, 129076, Note_off_c, 0, 51, 64
2, 129080, Note_off_c, 0, 55, 64
2, 129195, Note_on_c, 0, 58, 103
2, 129198, Note_on_c, 0, 56, 68
2, 129198, Note_on_c, 0, 29, 61
2, 129204, Note_on_c, 0, 50, 57
2, 129204, Note_on_c, 0, 41, 62
2, 129216, Control_c, 0, 64, 127
2, 129219, Note_off_c, 0, 63, 64
2, 129235, Note_off_c, 0, 29, 64
2, 129238, Note_off_c, 0, 41, 64
2, 129253, Note_off_c, 0, 56, 64
2, 129259, Note_off_c, 0, 50, 64
2, 129282, Control_c, 0, 64, 0
2, 129333, Control_c, 0, 64, 127
2, 129355, Note_on_c, 0, 51, 61
2, 129359, Note_on_c, 0, 55, 51
2, 129363, Note_on_c, 0, 43, 61
2, 129363, Note_on_c, 0, 31, 62
2, 129390, Note_off_c, 0, 43, 64
2, 129402, Note_off_c, 0, 31, 64
2, 129410, Note_off_c, 0, 51, 64
2, 129414, Note_off_c, 0, 55, 64
2, 129481, Control_c, 0, 64, 0
2, 129514, Control_c, 0, 64, 127
2, 129516, Note_on_c, 0, 56, 47
2, 129522, Note_on_c, 0, 24, 59
2, 129523, Note_on_c, 0, 67, 88
2, 129523, Note_on_c, 0, 63, 52
2, 129523, Note_on_c, 0, 36, 58
2, 129550, Note_off_c, 0, 58, 64
2, 129565, Note_off_c, 0, 24, 64
2, 129566, Note_off_c, 0, 36, 64
2, 129571, Note_off_c, 0, 56, 64
2, 129578, Note_off_c, 0, 63, 64
2, 129618, Control_c, 0, 64, 0
2, 129664, Note_on_c, 0, 26, 57
2, 129667, Note_on_c, 0, 38, 62
2, 129672, Note_on_c, 0, 65, 92
2, 129672, Note_on_c, 0, 58, 51
2, 129678, Note_on_c, 0, 56, 53
2, 129684, Control_c, 0, 64, 127
2, 129701, Note_off_c, 0, 26, 64
2, 129708, Note_off_c, 0, 67, 64
2, 129714, Note_off_c, 0, 38, 64
2, 129727, Note_off_c, 0, 58, 64
2, 129733, Note_off_c, 0, 56, 64
2, 129788, Control_c, 0, 64, 0
2, 129821, Note_on_c, 0, 63, 84
2, 129824, Note_on_c, 0, 56, 57
2, 129824, Note_on_c, 0, 51, 58
2, 129824, Note_on_c, 0, 36, 52
2, 129831, Note_on_c, 0, 48, 55
2, 129844, Control_c, 0, 64, 127
2, 129857, Note_off_c, 0, 65, 64
2, 129866, Note_off_c, 0, 48, 64
2, 129866, Note_off_c, 0, 36, 64
2, 129879, Note_off_c, 0, 51, 64
2, 129879, Note_off_c, 0, 56, 64
2, 129930, Control_c, 0, 64, 0
2, 129973, Note_on_c, 0, 34, 64
2, 129974, Note_on_c, 0, 58, 49
2, 129978, Note_on_c, 0, 46, 59
2, 129979, Note_on_c, 0, 62, 78
2, 129979, Note_on_c, 0, 53, 51
2, 129995, Control_c, 0, 64, 127
2, 130006, Note_off_c, 0, 63, 64
2, 130014, Note_off_c, 0, 34, 64
2, 130015, Note_off_c, 0, 46, 64
2, 130029, Note_off_c, 0, 58, 64
2, 130034, Note_off_c, 0, 53, 64
2, 130072, Control_c, 0, 64, 0
2, 130119, Note_on_c, 0, 44, 73
2, 130124, Note_on_c, 0, 50, 49
2, 130124, Note_on_c, 0, 32, 62
2, 130128, Note_on_c, 0, 60, 61
2, 130136, Control_c, 0, 64, 127
2, 130156, Note_off_c, 0, 32, 64
2, 130164, Note_off_c, 0, 44, 64
2, 130164, Note_off_c, 0, 62, 64
2, 130179, Note_off_c, 0, 50, 64
2, 130194, Note_on_c, 0, 62, 77
2, 130215, Note_off_c, 0, 60, 64
2, 130216, Control_c, 0, 64, 0
2, 130263, Note_on_c, 0, 31, 56
2, 130264, Note_on_c, 0, 60, 71
2, 130264, Note_on_c, 0, 43, 57
2, 130270, Note_off_c, 0, 62, 64
2, 130276, Note_on_c, 0, 51, 59
2, 130289, Control_c, 0, 64, 127
2, 130301, Note_off_c, 0, 31, 64
2, 130304, Note_off_c, 0, 43, 64
2, 130328, Control_c, 0, 64, 0
2, 130331, Note_off_c, 0, 51, 64
2, 130332, Note_on_c, 0, 58, 81
2, 130345, Note_off_c, 0, 60, 64
2, 130406, Note_on_c, 0, 56, 62
2, 130406, Note_on_c, 0, 50, 61
2, 130413, Note_on_c, 0, 41, 62
2, 130416, Note_on_c, 0, 29, 56
2, 130442, Note_off_c, 0, 29, 64
2, 130449, Note_off_c, 0, 41, 64
2, 130461, Note_off_c, 0, 50, 64
2, 130461, Note_off_c, 0, 56, 64
2, 130534, Control_c, 0, 64, 127
2, 130551, Note_on_c, 0, 51, 62
2, 130556, Note_on_c, 0, 55, 51
2, 130556, Note_on_c, 0, 39, 74
2, 130560, Note_on_c, 0, 27, 68
2, 130586, Note_off_c, 0, 39, 64
2, 130588, Note_off_c, 0, 27, 64
2, 130606, Note_off_c, 0, 51, 64
2, 130611, Note_off_c, 0, 55, 64
2, 130649, Control_c, 0, 64, 0
2, 130692, Note_on_c, 0, 56, 34
2, 130700, Note_on_c, 0, 63, 52
2, 130703, Note_on_c, 0, 67, 81
2, 130707, Note_on_c, 0, 36, 58
2, 130708, Note_on_c, 0, 24, 58
2, 130717, Note_off_c, 0, 58, 64
2, 130730, Control_c, 0, 64, 127
2, 130747, Note_off_c, 0, 56, 64
2, 130753, Note_off_c, 0, 24, 64
2, 130755, Note_off_c, 0, 63, 64
2, 130759, Note_off_c, 0, 36, 64
2, 130786, Control_c, 0, 64, 0
2, 130843, Note_on_c, 0, 38, 62
2, 130848, Note_on_c, 0, 58, 49
2, 130848, Note_on_c, 0, 56, 51
2, 130848, Note_on_c, 0, 26, 58
2, 130858, Note_on_c, 0, 65, 80
2, 130861, Control_c, 0, 64, 127
2, 130879, Note_off_c, 0, 26, 64
2, 130886, Note_off_c, 0, 38, 64
2, 130888, Note_off_c, 0, 67, 64
2, 130903, Note_off_c, 0, 56, 64
2, 130903, Note_off_c, 0, 58, 64
2, 130957, Control_c, 0, 64, 0
2, 130992, Note_on_c, 0, 63, 78
2, 130995, Note_on_c, 0, 56, 59
2, 130996, Note_on_c, 0, 51, 57
2, 131002, Note_on_c, 0, 48, 56
2, 131002, Note_on_c, 0, 36, 55
2, 131021, Control_c, 0, 64, 127
2, 131039, Note_off_c, 0, 48, 64
2, 131043, Note_off_c, 0, 36, 64
2, 131043, Note_off_c, 0, 65, 64
2, 131050, Note_off_c, 0, 56, 64
2, 131051, Note_off_c, 0, 51, 64
2, 131089, Control_c, 0, 64, 0
2, 131134, Note_on_c, 0, 62, 70
2, 131134, Note_on_c, 0, 58, 52
2, 131134, Note_on_c, 0, 34, 61
2, 131141, Note_on_c, 0, 53, 55
2, 131141, Note_on_c, 0, 46, 74
2, 131154, Control_c, 0, 64, 127
2, 131168, Note_off_c, 0, 34, 64
2, 131172, Note_off_c, 0, 46, 64
2, 131177, Note_off_c, 0, 63, 64
2, 131189, Note_off_c, 0, 58, 64
2, 131196, Note_off_c, 0, 53, 64
2, 131222, Control_c, 0, 64, 0
2, 131276, Note_on_c, 0, 63, 70
2, 131281, Note_on_c, 0, 60, 48
2, 131282, Note_on_c, 0, 32, 67
2, 131286, Note_on_c, 0, 44, 74
2, 131287, Note_on_c, 0, 53, 49
2, 131296, Control_c, 0, 64, 127
2, 131318, Note_off_c, 0, 32, 64
2, 131319, Note_off_c, 0, 62, 64
2, 131320, Note_off_c, 0, 44, 64
2, 131336, Note_off_c, 0, 60, 64
2, 131340, Note_on_c, 0, 62, 39
2, 131342, Note_off_c, 0, 53, 64
2, 131346, Note_on_c, 0, 65, 77
2, 131361, Note_off_c, 0, 63, 64
2, 131363, Control_c, 0, 64, 0
2, 131395, Note_off_c, 0, 62, 64
2, 131416, Note_on_c, 0, 53, 55
2, 131419, Note_on_c, 0, 58, 86
2, 131420, Control_c, 0, 64, 127
2, 131427, Note_on_c, 0, 32, 67
2, 131428, Note_on_c, 0, 44, 75
2, 131441, Note_off_c, 0, 65, 64
2, 131466, Note_off_c, 0, 32, 64
2, 131471, Note_off_c, 0, 44, 64
2, 131471, Note_off_c, 0, 53, 64
2, 131504, Control_c, 0, 64, 0
2, 131547, Note_on_c, 0, 60, 64
2, 131554, Note_on_c, 0, 51, 60
2, 131557, Note_on_c, 0, 43, 59
2, 131562, Note_on_c, 0, 31, 56
2, 131564, Note_off_c, 0, 58, 64
2, 131576, Control_c, 0, 64, 127
2, 131600, Note_off_c, 0, 31, 64
2, 131602, Note_off_c, 0, 43, 64
2, 131609, Note_off_c, 0, 51, 64
2, 131614, Note_on_c, 0, 58, 78
2, 131634, Control_c, 0, 64, 0
2, 131639, Note_off_c, 0, 60, 64
2, 131659, Note_off_c, 0, 58, 64
2, 131671, Control_c, 0, 64, 127
2, 131684, Note_on_c, 0, 58, 59
2, 131684, Note_on_c, 0, 51, 62
2, 131690, Note_on_c, 0, 43, 67
2, 131694, Note_on_c, 0, 63, 80
2, 131694, Note_on_c, 0, 31, 61
2, 131722, Note_off_c, 0, 43, 64
2, 131729, Note_off_c, 0, 31, 64
2, 131739, Note_off_c, 0, 51, 64
2, 131739, Note_off_c, 0, 58, 64
2, 131789, Control_c, 0, 64, 0
2, 131822, Note_on_c, 0, 58, 58
2, 131823, Note_on_c, 0, 53, 56
2, 131828, Note_on_c, 0, 38, 57
2, 131833, Note_on_c, 0, 26, 61
2, 131834, Note_on_c, 0, 65, 70
2, 131867, Note_off_c, 0, 26, 64
2, 131873, Note_off_c, 0, 38, 64
2, 131877, Note_off_c, 0, 58, 64
2, 131878, Note_off_c, 0, 53, 64
2, 131879, Note_off_c, 0, 63, 64
2, 131962, Note_on_c, 0, 27, 69
2, 131965, Note_on_c, 0, 39, 70
2, 131971, Note_on_c, 0, 67, 78
2, 131971, Note_on_c, 0, 58, 57
2, 131971, Note_on_c, 0, 55, 52
2, 131995, Note_off_c, 0, 27, 64
2, 131999, Note_off_c, 0, 39, 64
2, 132009, Note_off_c, 0, 65, 64
2, 132026, Note_off_c, 0, 55, 64
2, 132026, Note_off_c, 0, 58, 64
2, 132116, Note_off_c, 0, 67, 64
2, 132121, Note_on_c, 0, 55, 56
2, 132122, Note_on_c, 0, 62, 66
2, 132126, Note_on_c, 0, 67, 85
2, 132126, Note_on_c, 0, 46, 80
2, 132126, Note_on_c, 0, 34, 71
2, 132145, Control_c, 0, 64, 127
2, 132155, Note_off_c, 0, 34, 64
2, 132161, Note_off_c, 0, 46, 64
2, 132176, Note_off_c, 0, 55, 64
2, 132177, Note_off_c, 0, 62, 64
2, 132204, Control_c, 0, 64, 0
2, 132256, Control_c, 0, 64, 127
2, 132280, Note_on_c, 0, 63, 57
2, 132280, Note_on_c, 0, 55, 52
2, 132280, Note_on_c, 0, 48, 42
2, 132280, Note_on_c, 0, 36, 51
2, 132312, Note_off_c, 0, 36, 64
2, 132318, Note_off_c, 0, 48, 64
2, 132335, Note_off_c, 0, 55, 64
2, 132335, Note_off_c, 0, 63, 64
2, 132359, Control_c, 0, 64, 0
2, 132401, Note_off_c, 0, 67, 64
2, 132409, Note_on_c, 0, 67, 80
2, 132416, Note_on_c, 0, 62, 55
2, 132416, Note_on_c, 0, 58, 61
2, 132420, Note_on_c, 0, 43, 62
2, 132420, Note_on_c, 0, 31, 61
2, 132434, Control_c, 0, 64, 127
2, 132457, Note_off_c, 0, 31, 64
2, 132461, Note_off_c, 0, 43, 64
2, 132471, Note_off_c, 0, 58, 64
2, 132471, Note_off_c, 0, 62, 64
2, 132500, Control_c, 0, 64, 0
2, 132552, Note_on_c, 0, 56, 34
2, 132559, Note_on_c, 0, 60, 48
2, 132559, Note_on_c, 0, 32, 68
2, 132562, Note_on_c, 0, 44, 75
2, 132584, Note_off_c, 0, 32, 64
2, 132590, Control_c, 0, 64, 127
2, 132596, Note_off_c, 0, 44, 64
2, 132607, Note_off_c, 0, 56, 64
2, 132614, Note_off_c, 0, 60, 64
2, 132644, Control_c, 0, 64, 0
2, 132696, Note_on_c, 0, 60, 55
2, 132697, Note_on_c, 0, 65, 61
2, 132697, Note_on_c, 0, 56, 58
2, 132706, Note_on_c, 0, 44, 79
2, 132724, Note_off_c, 0, 67, 64
2, 132736, Note_off_c, 0, 44, 64
2, 132751, Note_off_c, 0, 60, 64
2, 132752, Note_off_c, 0, 56, 64
2, 132842, Note_on_c, 0, 67, 63
2, 132847, Note_on_c, 0, 62, 51
2, 132847, Note_on_c, 0, 55, 49
2, 132855, Note_on_c, 0, 46, 81
2, 132855, Note_on_c, 0, 34, 75
2, 132862, Note_off_c, 0, 65, 64
2, 132866, Control_c, 0, 64, 127
2, 132887, Note_off_c, 0, 34, 64
2, 132893, Note_off_c, 0, 46, 64
2, 132902, Note_off_c, 0, 55, 64
2, 132902, Note_off_c, 0, 62, 64
2, 132953, Control_c, 0, 64, 0
2, 132976, Note_on_c, 0, 36, 55
2, 132984, Note_on_c, 0, 60, 59
2, 132984, Note_on_c, 0, 56, 53
2, 132984, Note_on_c, 0, 51, 57
2, 132984, Note_on_c, 0, 48, 48
2, 133018, Note_off_c, 0, 36, 64
2, 133027, Note_off_c, 0, 67, 64
2, 133030, Note_off_c, 0, 48, 64
2, 133039, Note_off_c, 0, 51, 64
2, 133039, Note_off_c, 0, 56, 64
2, 133120, Note_off_c, 0, 60, 64
2, 133128, Note_on_c, 0, 51, 34
2, 133135, Note_on_c, 0, 63, 80
2, 133137, Note_on_c, 0, 43, 67
2, 133143, Note_on_c, 0, 58, 58
2, 133143, Note_on_c, 0, 31, 68
2, 133168, Note_off_c, 0, 31, 64
2, 133174, Note_off_c, 0, 43, 64
2, 133183, Note_off_c, 0, 51, 64
2, 133198, Note_off_c, 0, 58, 64
2, 133250, Note_off_c, 0, 63, 64
2, 133286, Note_on_c, 0, 63, 64
2, 133293, Note_on_c, 0, 60, 52
2, 133294, Note_on_c, 0, 51, 56
2, 133298, Note_on_c, 0, 44, 83
2, 133298, Note_on_c, 0, 32, 75
2, 133324, Note_off_c, 0, 32, 64
2, 133332, Note_off_c, 0, 44, 64
2, 133348, Note_off_c, 0, 60, 64
2, 133349, Note_off_c, 0, 51, 64
2, 133429, Note_on_c, 0, 41, 69
2, 133433, Note_on_c, 0, 56, 51
2, 133440, Note_on_c, 0, 29, 53
2, 133440, Control_c, 0, 64, 127
2, 133469, Note_off_c, 0, 29, 64
2, 133475, Note_off_c, 0, 41, 64
2, 133488, Note_off_c, 0, 56, 64
2, 133572, Note_on_c, 0, 58, 29
2, 133572, Note_on_c, 0, 53, 34
2, 133580, Note_on_c, 0, 62, 62
2, 133587, Note_on_c, 0, 34, 69
2, 133591, Note_on_c, 0, 46, 81
2, 133611, Note_off_c, 0, 63, 64
2, 133621, Note_off_c, 0, 46, 64
2, 133621, Note_off_c, 0, 34, 64
2, 133627, Note_off_c, 0, 53, 64
2, 133627, Note_off_c, 0, 58, 64
2, 133665, Control_c, 0, 64, 0
2, 133720, Note_on_c, 0, 55, 51
2, 133724, Note_on_c, 0, 58, 69
2, 133731, Note_on_c, 0, 51, 68
2, 133734, Note_on_c, 0, 39, 75
2, 133741, Note_off_c, 0, 62, 64
2, 133757, Note_off_c, 0, 51, 64
2, 133757, Note_off_c, 0, 55, 64
2, 133761, Note_off_c, 0, 58, 64
2, 133764, Note_off_c, 0, 39, 64
2, 133884, Note_on_c, 0, 70, 84
2, 133887, Note_on_c, 0, 68, 71
2, 133892, Note_on_c, 0, 62, 62
2, 133892, Note_on_c, 0, 53, 68
2, 133896, Note_on_c, 0, 41, 60
2, 133907, Control_c, 0, 64, 127
2, 133942, Note_off_c, 0, 68, 64
2, 133947, Note_off_c, 0, 62, 64
2, 134034, Note_on_c, 0, 67, 57
2, 134034, Note_on_c, 0, 63, 68
2, 134037, Note_on_c, 0, 55, 62
2, 134043, Note_on_c, 0, 43, 62
2, 134057, Note_off_c, 0, 53, 64
2, 134061, Note_off_c, 0, 41, 64
2, 134089, Note_off_c, 0, 63, 64
2, 134089, Note_off_c, 0, 67, 64
2, 134147, Control_c, 0, 64, 0
2, 134179, Note_on_c, 0, 79, 85
2, 134180, Note_on_c, 0, 36, 58
2, 134183, Note_on_c, 0, 48, 53
2, 134184, Note_on_c, 0, 75, 57
2, 134184, Note_on_c, 0, 68, 37
2, 134202, Note_off_c, 0, 55, 64
2, 134208, Note_off_c, 0, 43, 64
2, 134209, Note_off_c, 0, 70, 64
2, 134217, Control_c, 0, 64, 127
2, 134239, Note_off_c, 0, 68, 64
2, 134239, Note_off_c, 0, 75, 64
2, 134241, Control_c, 0, 64, 0
2, 134312, Note_on_c, 0, 68, 57
2, 134315, Note_on_c, 0, 50, 70
2, 134315, Note_on_c, 0, 38, 63
2, 134317, Note_on_c, 0, 77, 93
2, 134317, Note_on_c, 0, 70, 59
2, 134324, Note_off_c, 0, 79, 64
2, 134345, Note_off_c, 0, 36, 64
2, 134348, Note_off_c, 0, 48, 64
2, 134348, Control_c, 0, 64, 127
2, 134367, Note_off_c, 0, 68, 64
2, 134372, Note_off_c, 0, 70, 64
2, 134416, Control_c, 0, 64, 0
2, 134456, Note_on_c, 0, 60, 53
2, 134457, Note_on_c, 0, 75, 85
2, 134461, Note_on_c, 0, 63, 62
2, 134462, Note_on_c, 0, 68, 65
2, 134467, Note_on_c, 0, 48, 61
2, 134480, Note_off_c, 0, 38, 64
2, 134480, Note_off_c, 0, 50, 64
2, 134490, Control_c, 0, 64, 127
2, 134492, Note_off_c, 0, 77, 64
2, 134516, Note_off_c, 0, 63, 64
2, 134517, Note_off_c, 0, 68, 64
2, 134558, Control_c, 0, 64, 0
2, 134596, Note_on_c, 0, 46, 68
2, 134597, Note_on_c, 0, 58, 68
2, 134602, Note_on_c, 0, 74, 78
2, 134603, Note_on_c, 0, 65, 58
2, 134608, Note_on_c, 0, 70, 58
2, 134621, Note_off_c, 0, 60, 64
2, 134622, Note_off_c, 0, 75, 64
2, 134632, Note_off_c, 0, 48, 64
2, 134658, Note_off_c, 0, 65, 64
2, 134663, Note_off_c, 0, 70, 64
2, 134731, Note_on_c, 0, 72, 82
2, 134734, Note_on_c, 0, 44, 70
2, 134736, Note_on_c, 0, 62, 39
2, 134738, Note_on_c, 0, 65, 48
2, 134741, Note_on_c, 0, 56, 66
2, 134761, Note_off_c, 0, 46, 64
2, 134762, Note_off_c, 0, 58, 64
2, 134765, Control_c, 0, 64, 127
2, 134767, Note_off_c, 0, 74, 64
2, 134791, Note_off_c, 0, 62, 64
2, 134793, Note_off_c, 0, 65, 64
2, 134815, Note_on_c, 0, 74, 86
2, 134833, Note_off_c, 0, 72, 64
2, 134853, Control_c, 0, 64, 0
2, 134875, Note_on_c, 0, 72, 62
2, 134876, Note_on_c, 0, 55, 54
2, 134876, Note_on_c, 0, 43, 61
2, 134885, Note_on_c, 0, 63, 63
2, 134894, Note_off_c, 0, 74, 64
2, 134899, Note_off_c, 0, 44, 64
2, 134906, Note_off_c, 0, 56, 64
2, 134936, Note_on_c, 0, 70, 87
2, 134940, Note_off_c, 0, 63, 64
2, 134949, Note_off_c, 0, 72, 64
2, 135011, Note_on_c, 0, 62, 67
2, 135014, Note_on_c, 0, 68, 73
2, 135019, Note_on_c, 0, 53, 69
2, 135019, Note_on_c, 0, 41, 66
2, 135041, Note_off_c, 0, 43, 64
2, 135041, Note_off_c, 0, 55, 64
2, 135066, Note_off_c, 0, 62, 64
2, 135069, Note_off_c, 0, 68, 64
2, 135140, Control_c, 0, 64, 127
2, 135152, Note_on_c, 0, 67, 58
2, 135156, Note_on_c, 0, 63, 72
2, 135162, Note_on_c, 0, 51, 88
2, 135163, Note_on_c, 0, 39, 75
2, 135184, Note_off_c, 0, 41, 64
2, 135184, Note_off_c, 0, 53, 64
2, 135207, Note_off_c, 0, 67, 64
2, 135211, Note_off_c, 0, 63, 64
2, 135274, Control_c, 0, 64, 0
2, 135304, Note_on_c, 0, 75, 60
2, 135304, Note_on_c, 0, 68, 39
2, 135307, Note_on_c, 0, 79, 80
2, 135310, Note_on_c, 0, 48, 66
2, 135310, Note_on_c, 0, 36, 64
2, 135327, Note_off_c, 0, 51, 64
2, 135327, Control_c, 0, 64, 127
2, 135328, Note_off_c, 0, 39, 64
2, 135351, Note_off_c, 0, 70, 64
2, 135359, Note_off_c, 0, 68, 64
2, 135359, Note_off_c, 0, 75, 64
2, 135411, Control_c, 0, 64, 0
2, 135444, Control_c, 0, 64, 127
2, 135452, Note_on_c, 0, 77, 80
2, 135452, Note_on_c, 0, 70, 62
2, 135452, Note_on_c, 0, 68, 64
2, 135452, Note_on_c, 0, 38, 70
2, 135463, Note_on_c, 0, 50, 75
2, 135475, Note_off_c, 0, 36, 64
2, 135475, Note_off_c, 0, 48, 64
2, 135492, Note_off_c, 0, 79, 64
2, 135507, Note_off_c, 0, 68, 64
2, 135507, Note_off_c, 0, 70, 64
2, 135546, Control_c, 0, 64, 0
2, 135579, Control_c, 0, 64, 127
2, 135592, Note_on_c, 0, 75, 80
2, 135593, Note_on_c, 0, 60, 55
2, 135597, Note_on_c, 0, 68, 71
2, 135597, Note_on_c, 0, 63, 68
2, 135598, Note_on_c, 0, 48, 63
2, 135617, Note_off_c, 0, 38, 64
2, 135617, Note_off_c, 0, 77, 64
2, 135628, Note_off_c, 0, 50, 64
2, 135652, Note_off_c, 0, 63, 64
2, 135652, Note_off_c, 0, 68, 64
2, 135725, Note_on_c, 0, 46, 78
2, 135730, Note_on_c, 0, 74, 74
2, 135730, Note_on_c, 0, 58, 69
2, 135734, Note_on_c, 0, 70, 61
2, 135735, Note_on_c, 0, 65, 64
2, 135747, Note_off_c, 0, 75, 64
2, 135758, Note_off_c, 0, 60, 64
2, 135763, Note_off_c, 0, 48, 64
2, 135789, Note_off_c, 0, 70, 64
2, 135790, Note_off_c, 0, 65, 64
2, 135815, Control_c, 0, 64, 0
2, 135864, Note_on_c, 0, 75, 72
2, 135864, Note_on_c, 0, 65, 54
2, 135867, Note_on_c, 0, 72, 56
2, 135867, Note_on_c, 0, 44, 73
2, 135868, Note_on_c, 0, 56, 71
2, 135880, Control_c, 0, 64, 127
2, 135890, Note_off_c, 0, 46, 64
2, 135895, Note_off_c, 0, 58, 64
2, 135895, Note_off_c, 0, 74, 64
2, 135919, Note_off_c, 0, 65, 64
2, 135922, Note_off_c, 0, 72, 64
2, 135933, Note_on_c, 0, 77, 84
2, 135936, Note_on_c, 0, 74, 56
2, 135970, Control_c, 0, 64, 0
2, 135975, Note_off_c, 0, 75, 64
2, 135986, Note_off_c, 0, 74, 64
2, 135988, Control_c, 0, 64, 127
2, 135992, Note_off_c, 0, 44, 64
2, 136001, Note_on_c, 0, 65, 75
2, 136003, Note_off_c, 0, 56, 64
2, 136004, Note_on_c, 0, 70, 75
2, 136004, Note_on_c, 0, 44, 75
2, 136010, Note_on_c, 0, 56, 75
2, 136027, Note_off_c, 0, 77, 64
2, 136056, Note_off_c, 0, 65, 64
2, 136099, Control_c, 0, 64, 0
2, 136133, Note_on_c, 0, 72, 86
2, 136133, Note_on_c, 0, 65, 75
2, 136141, Note_on_c, 0, 55, 75
2, 136141, Note_on_c, 0, 43, 75
2, 136159, Note_off_c, 0, 70, 64
2, 136160, Control_c, 0, 64, 127
2, 136169, Note_off_c, 0, 44, 64
2, 136175, Note_off_c, 0, 56, 64
2, 136184, Note_off_c, 0, 65, 64
2, 136192, Note_on_c, 0, 70, 87
2, 136212, Note_off_c, 0, 72, 64
2, 136247, Note_off_c, 0, 70, 64
2, 136256, Note_off_c, 0, 43, 64
2, 136256, Note_off_c, 0, 55, 64
2, 136264, Note_on_c, 0, 75, 87
2, 136264, Note_on_c, 0, 70, 76
2, 136268, Note_on_c, 0, 55, 76
2, 136272, Note_on_c, 0, 63, 76
2, 136273, Note_on_c, 0, 43, 76
2, 136325, Note_off_c, 0, 70, 64
2, 136327, Note_off_c, 0, 63, 64
2, 136374, Control_c, 0, 64, 0
2, 136405, Note_on_c, 0, 50, 77
2, 136410, Note_on_c, 0, 70, 77
2, 136410, Note_on_c, 0, 38, 77
2, 136414, Note_on_c, 0, 65, 77
2, 136420, Note_on_c, 0, 77, 88
2, 136433, Note_off_c, 0, 55, 64
2, 136438, Note_off_c, 0, 43, 64
2, 136448, Control_c, 0, 64, 127
2, 136449, Note_off_c, 0, 75, 64
2, 136463, Note_off_c, 0, 70, 64
2, 136469, Note_off_c, 0, 65, 64
2, 136516, Control_c, 0, 64, 0
2, 136538, Note_on_c, 0, 39, 77
2, 136546, Note_on_c, 0, 51, 77
2, 136552, Note_on_c, 0, 70, 77
2, 136554, Note_on_c, 0, 79, 93
2, 136554, Note_on_c, 0, 67, 77
2, 136570, Note_off_c, 0, 50, 64
2, 136575, Note_off_c, 0, 38, 64
2, 136585, Note_off_c, 0, 77, 64
2, 136585, Control_c, 0, 64, 127
2, 136607, Note_off_c, 0, 70, 64
2, 136609, Note_off_c, 0, 67, 64
2, 136659, Control_c, 0, 64, 0
2, 136699, Note_off_c, 0, 79, 64
2, 136703, Note_off_c, 0, 39, 64
2, 136706, Note_on_c, 0, 74, 78
2, 136706, Note_on_c, 0, 67, 78
2, 136710, Note_on_c, 0, 79, 100
2, 136711, Note_off_c, 0, 51, 64
2, 136714, Note_on_c, 0, 46, 78
2, 136719, Note_on_c, 0, 34, 78
2, 136761, Note_off_c, 0, 67, 64
2, 136761, Note_off_c, 0, 74, 64
2, 136842, Note_on_c, 0, 75, 78
2, 136848, Note_on_c, 0, 67, 78
2, 136851, Control_c, 0, 64, 127
2, 136857, Note_on_c, 0, 36, 78
2, 136864, Note_on_c, 0, 48, 78
2, 136879, Note_off_c, 0, 46, 64
2, 136884, Note_off_c, 0, 34, 64
2, 136897, Note_off_c, 0, 75, 64
2, 136900, Note_off_c, 0, 67, 64
2, 136975, Note_off_c, 0, 79, 64
2, 136978, Control_c, 0, 64, 0
2, 136991, Note_on_c, 0, 79, 97
2, 136992, Note_on_c, 0, 70, 78
2, 136998, Note_on_c, 0, 74, 78
2, 137003, Note_on_c, 0, 31, 78
2, 137009, Note_on_c, 0, 43, 78
2, 137022, Note_off_c, 0, 36, 64
2, 137025, Control_c, 0, 64, 127
2, 137029, Note_off_c, 0, 48, 64
2, 137047, Note_off_c, 0, 70, 64
2, 137053, Note_off_c, 0, 74, 64
2, 137100, Control_c, 0, 64, 0
2, 137136, Note_on_c, 0, 68, 79
2, 137137, Note_on_c, 0, 72, 79
2, 137143, Note_on_c, 0, 32, 79
2, 137149, Note_on_c, 0, 44, 79
2, 137168, Note_off_c, 0, 31, 64
2, 137174, Note_off_c, 0, 43, 64
2, 137191, Note_off_c, 0, 68, 64
2, 137192, Note_off_c, 0, 72, 64
2, 137274, Note_off_c, 0, 44, 64
2, 137283, Note_on_c, 0, 72, 80
2, 137284, Note_on_c, 0, 77, 80
2, 137284, Note_on_c, 0, 68, 80
2, 137293, Note_on_c, 0, 44, 80
2, 137296, Note_on_c, 0, 56, 80
2, 137297, Note_off_c, 0, 79, 64
2, 137306, Control_c, 0, 64, 127
2, 137308, Note_off_c, 0, 32, 64
2, 137338, Note_off_c, 0, 72, 64
2, 137339, Note_off_c, 0, 68, 64
2, 137391, Control_c, 0, 64, 0
2, 137437, Note_on_c, 0, 79, 80
2, 137440, Note_on_c, 0, 74, 80
2, 137440, Note_on_c, 0, 58, 80
2, 137446, Note_on_c, 0, 67, 80
2, 137446, Note_on_c, 0, 46, 80
2, 137456, Control_c, 0, 64, 127
2, 137458, Note_off_c, 0, 44, 64
2, 137459, Note_off_c, 0, 77, 64
2, 137461, Note_off_c, 0, 56, 64
2, 137487, Note_off_c, 0, 74, 64
2, 137498, Note_off_c, 0, 67, 64
2, 137544, Control_c, 0, 64, 0
2, 137598, Note_on_c, 0, 48, 81
2, 137600, Note_on_c, 0, 68, 81
2, 137600, Note_on_c, 0, 63, 81
2, 137600, Note_on_c, 0, 60, 81
2, 137602, Note_on_c, 0, 72, 81
2, 137605, Note_off_c, 0, 58, 64
2, 137611, Note_off_c, 0, 46, 64
2, 137616, Control_c, 0, 64, 127
2, 137622, Note_off_c, 0, 79, 64
2, 137655, Note_off_c, 0, 63, 64
2, 137655, Note_off_c, 0, 68, 64
2, 137729, Control_c, 0, 64, 0
2, 137740, Note_on_c, 0, 63, 81
2, 137744, Note_on_c, 0, 75, 81
2, 137744, Note_on_c, 0, 70, 81
2, 137744, Note_on_c, 0, 43, 81
2, 137748, Note_on_c, 0, 55, 81
2, 137761, Note_off_c, 0, 72, 64
2, 137763, Note_off_c, 0, 48, 64
2, 137765, Note_off_c, 0, 60, 64
2, 137795, Note_off_c, 0, 63, 64
2, 137795, Control_c, 0, 64, 127
2, 137799, Note_off_c, 0, 70, 64
2, 137879, Control_c, 0, 64, 0
2, 137889, Note_off_c, 0, 75, 64
2, 137909, Note_off_c, 0, 43, 64
2, 137913, Note_off_c, 0, 55, 64
2, 137920, Note_on_c, 0, 72, 82
2, 137923, Note_on_c, 0, 75, 82
2, 137923, Note_on_c, 0, 63, 82
2, 137928, Note_on_c, 0, 56, 82
2, 137928, Note_on_c, 0, 44, 82
2, 137946, Control_c, 0, 64, 127
2, 137975, Note_off_c, 0, 72, 64
2, 137978, Note_off_c, 0, 63, 64
2, 138093, Note_off_c, 0, 44, 64
2, 138093, Note_off_c, 0, 56, 64
2, 138103, Control_c, 0, 64, 0
2, 138112, Note_on_c, 0, 63, 74
2, 138114, Note_on_c, 0, 68, 74
2, 138119, Note_on_c, 0, 41, 83
2, 138120, Note_on_c, 0, 53, 83
2, 138167, Note_off_c, 0, 63, 64
2, 138169, Note_off_c, 0, 68, 64
2, 138286, Control_c, 0, 64, 127
2, 138300, Control_c, 0, 64, 127
2, 138314, Note_off_c, 0, 41, 64
2, 138315, Note_off_c, 0, 53, 64
2, 138315, Note_on_c, 0, 46, 83
2, 138318, Note_on_c, 0, 74, 83
2, 138320, Note_on_c, 0, 62, 84
2, 138323, Note_on_c, 0, 70, 83
2, 138323, Note_on_c, 0, 58, 83
2, 138338, Note_off_c, 0, 75, 64
2, 138391, Control_c, 0, 64, 0
2, 138431, Control_c, 0, 64, 0
2, 138446, Note_off_c, 0, 70, 64
2, 138446, Note_off_c, 0, 62, 64
2, 138451, Note_off_c, 0, 46, 64
2, 138456, Control_c, 0, 64, 127
2, 138459, Note_off_c, 0, 58, 64
2, 138507, Control_c, 0, 64, 127
2, 138604, Note_on_c, 0, 45, 84
2, 138605, Control_c, 0, 64, 0
2, 138608, Note_on_c, 0, 71, 84
2, 138608, Note_on_c, 0, 66, 84
2, 138608, Note_on_c, 0, 63, 84
2, 138611, Note_on_c, 0, 75, 84
2, 138620, Note_on_c, 0, 33, 84
2, 138628, Control_c, 0, 64, 0
2, 138633, Note_off_c, 0, 74, 64
2, 138700, Control_c, 0, 64, 127
2, 138734, Control_c, 0, 64, 127
2, 138863, Note_on_c, 0, 54, 63
2, 138901, Note_off_c, 0, 63, 64
2, 138901, Note_off_c, 0, 45, 64
2, 138902, Note_off_c, 0, 66, 64
2, 138909, Note_off_c, 0, 71, 64
2, 138920, Note_off_c, 0, 75, 64
2, 138924, Note_on_c, 0, 59, 67
2, 138932, Note_off_c, 0, 54, 64
2, 138932, Note_off_c, 0, 33, 64
2, 138969, Note_on_c, 0, 64, 71
2, 138983, Note_off_c, 0, 59, 64
2, 139011, Note_on_c, 0, 63, 57
2, 139027, Note_off_c, 0, 64, 64
2, 139065, Note_on_c, 0, 61, 46
2, 139082, Note_off_c, 0, 63, 64
2, 139094, Note_on_c, 0, 59, 56
2, 139106, Note_off_c, 0, 61, 64
2, 139145, Note_off_c, 0, 59, 64
2, 139155, Note_on_c, 0, 66, 84
2, 139195, Note_on_c, 0, 71, 67
2, 139202, Note_off_c, 0, 66, 64
2, 139239, Note_on_c, 0, 76, 57
2, 139252, Note_off_c, 0, 71, 64
2, 139285, Note_on_c, 0, 75, 62
2, 139292, Note_on_c, 0, 66, 69
2, 139293, Note_on_c, 0, 57, 67
2, 139295, Note_on_c, 0, 63, 66
2, 139298, Note_on_c, 0, 59, 67
2, 139303, Note_off_c, 0, 76, 64
2, 139335, Note_on_c, 0, 73, 67
2, 139357, Note_off_c, 0, 75, 64
2, 139378, Note_on_c, 0, 71, 62
2, 139387, Note_off_c, 0, 73, 64
2, 139427, Control_c, 0, 64, 0
2, 139429, Note_off_c, 0, 71, 64
2, 139439, Note_on_c, 0, 78, 81
2, 139479, Note_on_c, 0, 83, 56
2, 139489, Note_off_c, 0, 78, 64
2, 139528, Note_on_c, 0, 88, 62
2, 139541, Note_off_c, 0, 83, 64
2, 139551, Control_c, 0, 64, 0
2, 139552, Note_off_c, 0, 57, 64
2, 139554, Note_off_c, 0, 66, 64
2, 139558, Note_off_c, 0, 59, 64
2, 139558, Note_off_c, 0, 63, 64
2, 139564, Note_on_c, 0, 78, 66
2, 139564, Note_on_c, 0, 75, 53
2, 139564, Note_on_c, 0, 71, 72
2, 139566, Note_on_c, 0, 69, 59
2, 139570, Note_on_c, 0, 87, 72
2, 139576, Control_c, 0, 64, 127
2, 139588, Note_off_c, 0, 88, 64
2, 139615, Note_on_c, 0, 85, 57
2, 139626, Note_off_c, 0, 87, 64
2, 139660, Note_on_c, 0, 83, 62
2, 139664, Note_off_c, 0, 85, 64
2, 139700, Note_off_c, 0, 83, 64
2, 139705, Note_on_c, 0, 90, 70
2, 139751, Note_on_c, 0, 95, 50
2, 139756, Note_off_c, 0, 90, 64
2, 139779, Note_off_c, 0, 71, 64
2, 139779, Note_off_c, 0, 75, 64
2, 139779, Note_off_c, 0, 78, 64
2, 139781, Note_off_c, 0, 69, 64
2, 139787, Note_on_c, 0, 80, 61
2, 139797, Note_on_c, 0, 100, 70
2, 139809, Note_off_c, 0, 95, 64
2, 139818, Note_off_c, 0, 80, 64
2, 139841, Note_on_c, 0, 99, 81
2, 139844, Note_on_c, 0, 71, 66
2, 139846, Note_on_c, 0, 75, 67
2, 139848, Note_on_c, 0, 69, 62
2, 139849, Note_on_c, 0, 78, 76
2, 139852, Note_off_c, 0, 100, 64
2, 139876, Note_off_c, 0, 99, 64
2, 139879, Note_off_c, 0, 71, 64
2, 139881, Note_off_c, 0, 75, 64
2, 139883, Note_off_c, 0, 69, 64
2, 139884, Note_off_c, 0, 78, 64
2, 139990, Note_on_c, 0, 54, 79
2, 140040, Note_on_c, 0, 59, 57
2, 140059, Note_off_c, 0, 54, 64
2, 140079, Note_on_c, 0, 64, 62
2, 140090, Control_c, 0, 64, 0
2, 140094, Note_off_c, 0, 59, 64
2, 140109, Control_c, 0, 64, 127
2, 140124, Note_on_c, 0, 63, 66
2, 140129, Note_off_c, 0, 64, 64
2, 140132, Note_on_c, 0, 33, 89
2, 140135, Note_on_c, 0, 45, 89
2, 140171, Note_on_c, 0, 61, 49
2, 140181, Note_off_c, 0, 63, 64
2, 140204, Note_on_c, 0, 59, 68
2, 140214, Note_off_c, 0, 61, 64
2, 140267, Note_off_c, 0, 59, 64
2, 140271, Note_on_c, 0, 66, 84
2, 140306, Note_on_c, 0, 71, 56
2, 140321, Note_off_c, 0, 66, 64
2, 140350, Note_on_c, 0, 76, 59
2, 140366, Note_off_c, 0, 71, 64
2, 140396, Note_on_c, 0, 59, 68
2, 140401, Note_on_c, 0, 75, 62
2, 140403, Note_on_c, 0, 63, 70
2, 140403, Note_on_c, 0, 57, 72
2, 140404, Note_on_c, 0, 66, 75
2, 140418, Note_off_c, 0, 76, 64
2, 140447, Note_on_c, 0, 73, 79
2, 140471, Note_off_c, 0, 75, 64
2, 140487, Note_on_c, 0, 71, 55
2, 140497, Note_off_c, 0, 73, 64
2, 140548, Note_off_c, 0, 71, 64
2, 140548, Note_on_c, 0, 78, 77
2, 140590, Note_on_c, 0, 83, 62
2, 140608, Note_off_c, 0, 78, 64
2, 140635, Note_off_c, 0, 33, 64
2, 140635, Note_off_c, 0, 45, 64
2, 140639, Note_on_c, 0, 88, 56
2, 140645, Note_off_c, 0, 83, 64
2, 140657, Note_off_c, 0, 59, 64
2, 140660, Note_on_c, 0, 71, 53
2, 140663, Note_on_c, 0, 69, 63
2, 140664, Note_off_c, 0, 57, 64
2, 140664, Note_off_c, 0, 63, 64
2, 140665, Note_on_c, 0, 78, 75
2, 140665, Note_on_c, 0, 75, 67
2, 140666, Note_off_c, 0, 66, 64
2, 140679, Note_on_c, 0, 87, 66
2, 140696, Note_off_c, 0, 88, 64
2, 140725, Note_on_c, 0, 85, 73
2, 140743, Note_off_c, 0, 87, 64
2, 140770, Note_on_c, 0, 83, 50
2, 140773, Note_off_c, 0, 85, 64
2, 140809, Note_off_c, 0, 83, 64
2, 140815, Note_on_c, 0, 90, 66
2, 140856, Note_on_c, 0, 95, 43
2, 140875, Note_off_c, 0, 71, 64
2, 140878, Note_off_c, 0, 69, 64
2, 140880, Note_off_c, 0, 75, 64
2, 140880, Note_off_c, 0, 78, 64
2, 140885, Note_on_c, 0, 80, 67
2, 140892, Note_off_c, 0, 90, 64
2, 140900, Note_on_c, 0, 100, 70
2, 140908, Control_c, 0, 64, 0
2, 140911, Note_off_c, 0, 95, 64
2, 140918, Note_off_c, 0, 80, 64
2, 140940, Note_on_c, 0, 75, 66
2, 140940, Note_on_c, 0, 71, 59
2, 140940, Note_on_c, 0, 69, 66
2, 140942, Note_on_c, 0, 99, 82
2, 140942, Note_on_c, 0, 78, 76
2, 140950, Control_c, 0, 64, 127
2, 140953, Note_off_c, 0, 100, 64
2, 140975, Note_off_c, 0, 69, 64
2, 140975, Note_off_c, 0, 71, 64
2, 140975, Note_off_c, 0, 75, 64
2, 140977, Note_off_c, 0, 78, 64
2, 140977, Note_off_c, 0, 99, 64
2, 141093, Note_on_c, 0, 54, 73
2, 141133, Note_on_c, 0, 60, 62
2, 141162, Note_off_c, 0, 54, 64
2, 141172, Note_on_c, 0, 65, 79
2, 141178, Note_off_c, 0, 60, 64
2, 141217, Note_on_c, 0, 63, 48
2, 141228, Note_on_c, 0, 33, 90
2, 141229, Note_off_c, 0, 65, 64
2, 141231, Note_on_c, 0, 45, 90
2, 141255, Note_on_c, 0, 61, 68
2, 141276, Note_off_c, 0, 63, 64
2, 141300, Note_on_c, 0, 60, 75
2, 141316, Note_off_c, 0, 61, 64
2, 141348, Note_off_c, 0, 60, 64
2, 141354, Note_on_c, 0, 66, 82
2, 141394, Note_on_c, 0, 72, 51
2, 141408, Note_off_c, 0, 66, 64
2, 141434, Note_on_c, 0, 77, 60
2, 141442, Note_off_c, 0, 72, 64
2, 141481, Note_on_c, 0, 75, 79
2, 141484, Note_on_c, 0, 57, 70
2, 141488, Note_on_c, 0, 66, 75
2, 141488, Note_on_c, 0, 63, 72
2, 141492, Note_on_c, 0, 60, 67
2, 141510, Note_off_c, 0, 77, 64
2, 141528, Note_on_c, 0, 73, 61
2, 141548, Note_off_c, 0, 75, 64
2, 141576, Note_on_c, 0, 72, 67
2, 141587, Note_off_c, 0, 73, 64
2, 141625, Note_off_c, 0, 72, 64
2, 141629, Note_on_c, 0, 78, 84
2, 141672, Note_on_c, 0, 84, 56
2, 141678, Note_off_c, 0, 78, 64
2, 141712, Note_on_c, 0, 89, 55
2, 141720, Note_off_c, 0, 84, 64
2, 141730, Note_off_c, 0, 33, 64
2, 141733, Note_off_c, 0, 45, 64
2, 141748, Note_off_c, 0, 57, 64
2, 141748, Note_on_c, 0, 72, 58
2, 141749, Note_on_c, 0, 69, 62
2, 141752, Note_off_c, 0, 63, 64
2, 141752, Note_off_c, 0, 66, 64
2, 141753, Note_on_c, 0, 78, 73
2, 141755, Note_on_c, 0, 75, 63
2, 141756, Note_off_c, 0, 60, 64
2, 141758, Note_on_c, 0, 87, 83
2, 141779, Note_off_c, 0, 89, 64
2, 141794, Note_on_c, 0, 85, 79
2, 141810, Note_off_c, 0, 87, 64
2, 141824, Note_on_c, 0, 84, 59
2, 141853, Note_off_c, 0, 85, 64
2, 141884, Note_off_c, 0, 84, 64
2, 141885, Note_on_c, 0, 90, 79
2, 141939, Note_on_c, 0, 96, 64
2, 141955, Note_off_c, 0, 90, 64
2, 141961, Note_on_c, 0, 80, 67
2, 141963, Note_off_c, 0, 72, 64
2, 141964, Note_off_c, 0, 69, 64
2, 141968, Note_off_c, 0, 78, 64
2, 141970, Note_off_c, 0, 75, 64
2, 141986, Note_on_c, 0, 101, 73
2, 141991, Note_off_c, 0, 96, 64
2, 141994, Note_off_c, 0, 80, 64
2, 142020, Note_on_c, 0, 69, 57
2, 142022, Note_on_c, 0, 78, 77
2, 142025, Note_on_c, 0, 75, 68
2, 142026, Note_on_c, 0, 72, 56
2, 142029, Note_on_c, 0, 99, 88
2, 142047, Note_off_c, 0, 101, 64
2, 142055, Note_off_c, 0, 69, 64
2, 142057, Note_off_c, 0, 78, 64
2, 142060, Note_off_c, 0, 75, 64
2, 142061, Note_off_c, 0, 72, 64
2, 142064, Note_off_c, 0, 99, 64
2, 142152, Note_on_c, 0, 54, 82
2, 142199, Note_on_c, 0, 60, 54
2, 142201, Note_off_c, 0, 54, 64
2, 142234, Control_c, 0, 64, 0
2, 142242, Note_on_c, 0, 65, 63
2, 142247, Note_off_c, 0, 60, 64
2, 142268, Note_on_c, 0, 32, 107
2, 142272, Note_on_c, 0, 44, 102
2, 142276, Control_c, 0, 64, 127
2, 142279, Note_on_c, 0, 63, 77
2, 142302, Note_off_c, 0, 65, 64
2, 142315, Note_on_c, 0, 61, 80
2, 142334, Note_off_c, 0, 63, 64
2, 142357, Note_on_c, 0, 60, 73
2, 142374, Note_off_c, 0, 61, 64
2, 142413, Note_on_c, 0, 66, 73
2, 142421, Note_off_c, 0, 60, 64
2, 142456, Note_on_c, 0, 72, 48
2, 142470, Note_off_c, 0, 66, 64
2, 142489, Note_on_c, 0, 77, 66
2, 142520, Note_off_c, 0, 72, 64
2, 142533, Note_on_c, 0, 75, 76
2, 142535, Note_on_c, 0, 56, 72
2, 142540, Note_on_c, 0, 66, 77
2, 142540, Note_on_c, 0, 63, 70
2, 142545, Note_on_c, 0, 60, 59
2, 142553, Note_off_c, 0, 77, 64
2, 142576, Note_on_c, 0, 73, 68
2, 142592, Note_off_c, 0, 75, 64
2, 142615, Note_on_c, 0, 72, 70
2, 142636, Note_off_c, 0, 73, 64
2, 142671, Note_off_c, 0, 72, 64
2, 142676, Note_on_c, 0, 78, 81
2, 142717, Note_on_c, 0, 84, 62
2, 142723, Note_off_c, 0, 78, 64
2, 142762, Note_on_c, 0, 89, 58
2, 142764, Note_off_c, 0, 84, 64
2, 142779, Note_off_c, 0, 32, 64
2, 142783, Note_off_c, 0, 44, 64
2, 142783, Note_on_c, 0, 68, 68
2, 142788, Note_on_c, 0, 80, 82
2, 142788, Note_on_c, 0, 75, 68
2, 142793, Note_on_c, 0, 72, 63
2, 142796, Note_off_c, 0, 56, 64
2, 142798, Note_on_c, 0, 87, 73
2, 142801, Note_off_c, 0, 63, 64
2, 142801, Note_off_c, 0, 66, 64
2, 142806, Note_off_c, 0, 60, 64
2, 142823, Note_off_c, 0, 89, 64
2, 142837, Note_on_c, 0, 85, 73
2, 142853, Note_off_c, 0, 87, 64
2, 142874, Note_on_c, 0, 84, 56
2, 142892, Note_off_c, 0, 85, 64
2, 142932, Note_on_c, 0, 90, 72
2, 142939, Note_off_c, 0, 84, 64
2, 142975, Note_on_c, 0, 96, 56
2, 142988, Note_off_c, 0, 90, 64
2, 142998, Note_off_c, 0, 68, 64
2, 143003, Note_off_c, 0, 75, 64
2, 143003, Note_off_c, 0, 80, 64
2, 143008, Note_off_c, 0, 72, 64
2, 143019, Note_on_c, 0, 101, 59
2, 143020, Note_on_c, 0, 80, 67
2, 143023, Note_off_c, 0, 96, 64
2, 143025, Control_c, 0, 64, 0
2, 143049, Control_c, 0, 64, 127
2, 143053, Note_off_c, 0, 80, 64
2, 143058, Note_on_c, 0, 75, 67
2, 143059, Note_on_c, 0, 78, 82
2, 143061, Note_on_c, 0, 99, 79
2, 143061, Note_on_c, 0, 68, 62
2, 143065, Note_on_c, 0, 72, 57
2, 143092, Note_off_c, 0, 101, 64
2, 143099, Note_on_c, 0, 96, 62
2, 143133, Note_off_c, 0, 75, 64
2, 143134, Note_off_c, 0, 99, 64
2, 143134, Note_off_c, 0, 78, 64
2, 143136, Note_off_c, 0, 68, 64
2, 143140, Note_off_c, 0, 72, 64
2, 143140, Note_on_c, 0, 92, 77
2, 143172, Note_off_c, 0, 96, 64
2, 143190, Note_on_c, 0, 90, 85
2, 143213, Note_off_c, 0, 92, 64
2, 143224, Note_on_c, 0, 87, 64
2, 143262, Note_on_c, 0, 84, 61
2, 143263, Note_off_c, 0, 90, 64
2, 143297, Note_off_c, 0, 87, 64
2, 143301, Note_on_c, 0, 80, 81
2, 143335, Note_off_c, 0, 84, 64
2, 143340, Note_on_c, 0, 78, 68
2, 143374, Note_off_c, 0, 80, 64
2, 143383, Note_on_c, 0, 75, 46
2, 143413, Note_off_c, 0, 78, 64
2, 143418, Note_on_c, 0, 72, 56
2, 143447, Note_on_c, 0, 68, 49
2, 143456, Note_off_c, 0, 75, 64
2, 143473, Note_on_c, 0, 66, 61
2, 143491, Note_off_c, 0, 72, 64
2, 143520, Note_off_c, 0, 68, 64
2, 143527, Note_on_c, 0, 63, 54
2, 143546, Note_off_c, 0, 66, 64
2, 143558, Note_on_c, 0, 60, 62
2, 143598, Note_on_c, 0, 56, 73
2, 143600, Note_off_c, 0, 63, 64
2, 143631, Note_off_c, 0, 60, 64
2, 143640, Note_on_c, 0, 54, 69
2, 143671, Note_off_c, 0, 56, 64
2, 143676, Note_on_c, 0, 51, 38
2, 143713, Note_off_c, 0, 54, 64
2, 143715, Note_on_c, 0, 48, 54
2, 143749, Note_off_c, 0, 51, 64
2, 143749, Note_on_c, 0, 44, 76
2, 143788, Note_off_c, 0, 48, 64
2, 143788, Note_on_c, 0, 42, 82
2, 143822, Note_off_c, 0, 44, 64
2, 143854, Note_on_c, 0, 39, 73
2, 143861, Note_off_c, 0, 42, 64
2, 143898, Note_on_c, 0, 33, 100
2, 143927, Note_off_c, 0, 39, 64
2, 143946, Note_on_c, 0, 35, 91
2, 143971, Note_off_c, 0, 33, 64
2, 143972, Control_c, 0, 64, 0
2, 143979, Note_on_c, 0, 33, 99
2, 143987, Note_off_c, 0, 35, 64
2, 144028, Note_on_c, 0, 32, 100
2, 144052, Note_off_c, 0, 33, 64
2, 144133, Control_c, 0, 64, 127
2, 144156, Note_off_c, 0, 32, 64
2, 144330, Control_c, 0, 64, 0
2, 144345, Note_on_c, 0, 56, 70
2, 144347, Note_on_c, 0, 92, 77
2, 144347, Note_on_c, 0, 68, 68
2, 144349, Note_on_c, 0, 80, 72
2, 144355, Control_c, 0, 64, 127
2, 144367, Note_off_c, 0, 68, 64
2, 144370, Note_off_c, 0, 92, 64
2, 144371, Note_off_c, 0, 80, 64
2, 144372, Note_off_c, 0, 56, 64
2, 144506, Note_on_c, 0, 80, 73
2, 144506, Note_on_c, 0, 44, 72
2, 144509, Note_on_c, 0, 68, 77
2, 144509, Note_on_c, 0, 56, 76
2, 144531, Note_off_c, 0, 56, 64
2, 144536, Note_off_c, 0, 80, 64
2, 144537, Note_off_c, 0, 44, 64
2, 144538, Note_off_c, 0, 68, 64
2, 144685, Note_on_c, 0, 68, 72
2, 144689, Note_on_c, 0, 56, 84
2, 144692, Note_on_c, 0, 44, 88
2, 144695, Control_c, 0, 64, 0
2, 144700, Note_on_c, 0, 32, 89
2, 144774, Control_c, 0, 64, 127
2, 145022, Note_off_c, 0, 68, 64
2, 145045, Note_off_c, 0, 56, 64
2, 145056, Note_off_c, 0, 44, 64
2, 145064, Note_off_c, 0, 32, 64
2, 145172, Note_on_c, 0, 31, 93
2, 145177, Note_on_c, 0, 67, 68
2, 145177, Note_on_c, 0, 55, 67
2, 145182, Note_on_c, 0, 43, 79
2, 145196, Note_off_c, 0, 31, 64
2, 145202, Note_off_c, 0, 55, 64
2, 145206, Note_off_c, 0, 43, 64
2, 145208, Note_off_c, 0, 67, 64
2, 145220, Note_on_c, 0, 31, 93
2, 145223, Note_on_c, 0, 43, 79
2, 145225, Note_on_c, 0, 55, 66
2, 145228, Note_on_c, 0, 67, 73
2, 145287, Control_c, 0, 64, 0
2, 145384, Note_off_c, 0, 67, 64
2, 145390, Note_off_c, 0, 31, 64
2, 145393, Note_off_c, 0, 43, 64
2, 145398, Note_off_c, 0, 55, 64
2, 145496, Note_on_c, 0, 55, 82
2, 145685, Note_on_c, 0, 35, 49
2, 145714, Control_c, 0, 64, 127
2, 145727, Control_c, 0, 64, 0
2, 145767, Note_on_c, 0, 43, 35
2, 145834, Note_on_c, 0, 44, 23
2, 145836, Note_off_c, 0, 43, 64
2, 145904, Note_on_c, 0, 50, 66
2, 145907, Note_on_c, 0, 43, 24
2, 145919, Note_off_c, 0, 44, 64
2, 145955, Note_on_c, 0, 44, 45
2, 145976, Note_off_c, 0, 43, 64
2, 145976, Note_off_c, 0, 55, 64
2, 146019, Note_on_c, 0, 43, 27
2, 146045, Note_off_c, 0, 44, 64
2, 146060, Note_off_c, 0, 35, 64
2, 146064, Control_c, 0, 64, 0
2, 146077, Note_on_c, 0, 36, 62
2, 146085, Note_off_c, 0, 43, 64
2, 146106, Control_c, 0, 64, 127
2, 146145, Note_on_c, 0, 43, 47
2, 146199, Note_on_c, 0, 44, 42
2, 146205, Note_on_c, 0, 51, 74
2, 146216, Note_off_c, 0, 43, 64
2, 146229, Note_off_c, 0, 50, 64
2, 146258, Note_on_c, 0, 43, 39
2, 146268, Note_off_c, 0, 44, 64
2, 146304, Note_on_c, 0, 44, 51
2, 146332, Note_off_c, 0, 43, 64
2, 146358, Note_on_c, 0, 43, 29
2, 146386, Note_on_c, 0, 63, 81
2, 146389, Note_off_c, 0, 44, 64
2, 146419, Note_off_c, 0, 51, 64
2, 146424, Control_c, 0, 64, 0
2, 146432, Note_off_c, 0, 36, 64
2, 146433, Note_off_c, 0, 43, 64
2, 146444, Note_on_c, 0, 36, 57
2, 146486, Control_c, 0, 64, 127
2, 146540, Note_on_c, 0, 44, 22
2, 146577, Note_on_c, 0, 62, 64
2, 146596, Note_on_c, 0, 51, 56
2, 146603, Note_off_c, 0, 63, 64
2, 146609, Note_off_c, 0, 44, 64
2, 146652, Note_on_c, 0, 44, 53
2, 146665, Note_off_c, 0, 51, 64
2, 146721, Note_off_c, 0, 44, 64
2, 146724, Note_on_c, 0, 51, 61
2, 146757, Note_on_c, 0, 60, 73
2, 146780, Note_on_c, 0, 44, 47
2, 146784, Note_off_c, 0, 62, 64
2, 146793, Note_off_c, 0, 51, 64
2, 146813, Control_c, 0, 64, 0
2, 146839, Note_off_c, 0, 36, 64
2, 146849, Note_off_c, 0, 44, 64
2, 146867, Note_on_c, 0, 38, 72
2, 146880, Control_c, 0, 64, 127
2, 146916, Note_on_c, 0, 44, 30
2, 146942, Note_on_c, 0, 58, 69
2, 146965, Note_off_c, 0, 60, 64
2, 146985, Note_off_c, 0, 44, 64
2, 146988, Note_on_c, 0, 53, 57
2, 147044, Note_on_c, 0, 44, 30
2, 147057, Note_off_c, 0, 53, 64
2, 147099, Note_on_c, 0, 53, 53
2, 147112, Note_on_c, 0, 61, 68
2, 147113, Note_off_c, 0, 44, 64
2, 147145, Note_off_c, 0, 58, 64
2, 147145, Note_on_c, 0, 59, 73
2, 147156, Note_on_c, 0, 44, 45
2, 147168, Note_off_c, 0, 61, 64
2, 147168, Note_off_c, 0, 53, 64
2, 147178, Control_c, 0, 64, 0
2, 147222, Note_off_c, 0, 38, 64
2, 147225, Note_off_c, 0, 44, 64
2, 147228, Note_on_c, 0, 38, 66
2, 147238, Control_c, 0, 64, 127
2, 147272, Note_on_c, 0, 46, 56
2, 147311, Note_on_c, 0, 58, 79
2, 147321, Note_on_c, 0, 53, 48
2, 147334, Note_off_c, 0, 59, 64
2, 147341, Note_off_c, 0, 46, 64
2, 147371, Note_on_c, 0, 46, 58
2, 147390, Note_off_c, 0, 53, 64
2, 147425, Note_on_c, 0, 53, 58
2, 147440, Note_off_c, 0, 46, 64
2, 147469, Note_on_c, 0, 46, 68
2, 147494, Note_off_c, 0, 53, 64
2, 147507, Note_on_c, 0, 53, 83
2, 147515, Control_c, 0, 64, 0
2, 147526, Note_off_c, 0, 58, 64
2, 147538, Note_off_c, 0, 46, 64
2, 147553, Note_off_c, 0, 38, 64
2, 147562, Note_off_c, 0, 53, 64
2, 147562, Note_on_c, 0, 39, 72
2, 147571, Note_on_c, 0, 53, 75
2, 147583, Control_c, 0, 64, 127
2, 147644, Note_on_c, 0, 46, 24
2, 147654, Note_on_c, 0, 54, 73
2, 147684, Note_off_c, 0, 53, 64
2, 147699, Note_off_c, 0, 54, 64
2, 147713, Note_off_c, 0, 46, 64
2, 147713, Note_on_c, 0, 54, 52
2, 147752, Note_on_c, 0, 46, 52
2, 147782, Note_off_c, 0, 54, 64
2, 147803, Note_on_c, 0, 54, 61
2, 147821, Note_off_c, 0, 46, 64
2, 147839, Note_on_c, 0, 46, 52
2, 147843, Note_on_c, 0, 70, 90
2, 147872, Note_off_c, 0, 54, 64
2, 147873, Control_c, 0, 64, 0
2, 147876, Note_off_c, 0, 39, 64
2, 147908, Note_off_c, 0, 46, 64
2, 147909, Note_on_c, 0, 39, 73
2, 147924, Control_c, 0, 64, 127
2, 147979, Note_on_c, 0, 47, 47
2, 148006, Note_on_c, 0, 68, 78
2, 148013, Note_on_c, 0, 54, 56
2, 148038, Note_off_c, 0, 70, 64
2, 148048, Note_off_c, 0, 47, 64
2, 148072, Note_on_c, 0, 47, 52
2, 148080, Note_off_c, 0, 54, 64
2, 148113, Note_on_c, 0, 54, 56
2, 148141, Note_off_c, 0, 47, 64
2, 148151, Note_on_c, 0, 48, 53
2, 148164, Note_on_c, 0, 66, 91
2, 148166, Note_off_c, 0, 54, 64
2, 148188, Note_off_c, 0, 68, 64
2, 148201, Control_c, 0, 64, 0
2, 148218, Note_off_c, 0, 48, 64
2, 148244, Note_off_c, 0, 39, 64
2, 148253, Note_on_c, 0, 45, 51
2, 148271, Control_c, 0, 64, 127
2, 148303, Note_on_c, 0, 51, 56
2, 148332, Note_on_c, 0, 65, 82
2, 148349, Note_off_c, 0, 66, 64
2, 148362, Note_on_c, 0, 60, 53
2, 148372, Note_off_c, 0, 51, 64
2, 148396, Note_on_c, 0, 51, 49
2, 148431, Note_off_c, 0, 60, 64
2, 148452, Note_on_c, 0, 60, 54
2, 148465, Note_off_c, 0, 51, 64
2, 148477, Note_on_c, 0, 68, 80
2, 148498, Note_on_c, 0, 51, 50
2, 148500, Note_off_c, 0, 65, 64
2, 148519, Note_on_c, 0, 66, 90
2, 148521, Note_off_c, 0, 60, 64
2, 148552, Control_c, 0, 64, 0
2, 148558, Note_off_c, 0, 68, 64
2, 148567, Note_off_c, 0, 51, 64
2, 148568, Note_off_c, 0, 45, 64
2, 148597, Note_on_c, 0, 45, 56
2, 148603, Control_c, 0, 64, 127
2, 148651, Note_on_c, 0, 53, 47
2, 148682, Note_on_c, 0, 65, 82
2, 148708, Note_on_c, 0, 60, 61
2, 148710, Note_off_c, 0, 66, 64
2, 148720, Note_off_c, 0, 53, 64
2, 148770, Note_on_c, 0, 53, 52
2, 148777, Note_off_c, 0, 60, 64
2, 148826, Note_on_c, 0, 60, 61
2, 148839, Note_off_c, 0, 53, 64
2, 148866, Note_on_c, 0, 54, 62
2, 148892, Note_on_c, 0, 63, 80
2, 148895, Note_off_c, 0, 60, 64
2, 148907, Note_off_c, 0, 65, 64
2, 148915, Control_c, 0, 64, 0
2, 148929, Note_off_c, 0, 63, 64
2, 148932, Note_off_c, 0, 45, 64
2, 148943, Note_off_c, 0, 54, 64
2, 148955, Note_on_c, 0, 63, 75
2, 148964, Note_on_c, 0, 46, 63
2, 148969, Control_c, 0, 64, 127
2, 149026, Note_on_c, 0, 53, 48
2, 149069, Note_on_c, 0, 62, 70
2, 149082, Note_on_c, 0, 56, 61
2, 149087, Note_off_c, 0, 63, 64
2, 149097, Note_off_c, 0, 53, 64
2, 149142, Note_on_c, 0, 59, 65
2, 149151, Note_off_c, 0, 56, 64
2, 149180, Note_on_c, 0, 56, 59
2, 149209, Note_off_c, 0, 62, 64
2, 149211, Note_off_c, 0, 59, 64
2, 149226, Note_on_c, 0, 71, 66
2, 149232, Note_on_c, 0, 68, 67
2, 149246, Note_on_c, 0, 53, 32
2, 149247, Note_off_c, 0, 56, 64
2, 149257, Control_c, 0, 64, 0
2, 149289, Note_off_c, 0, 46, 64
2, 149307, Note_on_c, 0, 46, 67
2, 149315, Note_off_c, 0, 53, 64
2, 149316, Note_on_c, 0, 70, 49
2, 149323, Note_on_c, 0, 66, 66
2, 149326, Control_c, 0, 64, 127
2, 149341, Note_off_c, 0, 71, 64
2, 149347, Note_off_c, 0, 68, 64
2, 149376, Note_on_c, 0, 54, 52
2, 149400, Note_on_c, 0, 68, 73
2, 149403, Note_on_c, 0, 65, 63
2, 149425, Note_on_c, 0, 57, 57
2, 149431, Note_off_c, 0, 70, 64
2, 149438, Note_off_c, 0, 66, 64
2, 149451, Note_off_c, 0, 54, 64
2, 149484, Note_on_c, 0, 60, 52
2, 149494, Note_off_c, 0, 57, 64
2, 149504, Note_on_c, 0, 66, 68
2, 149508, Note_on_c, 0, 63, 69
2, 149515, Note_off_c, 0, 68, 64
2, 149515, Note_on_c, 0, 57, 39
2, 149518, Note_off_c, 0, 65, 64
2, 149553, Note_off_c, 0, 60, 64
2, 149577, Note_on_c, 0, 54, 35
2, 149580, Note_on_c, 0, 72, 56
2, 149584, Note_on_c, 0, 75, 64
2, 149589, Note_off_c, 0, 57, 64
2, 149604, Control_c, 0, 64, 0
2, 149619, Note_off_c, 0, 66, 64
2, 149623, Note_off_c, 0, 63, 64
2, 149632, Note_off_c, 0, 46, 64
2, 149646, Note_off_c, 0, 54, 64
2, 149646, Note_on_c, 0, 46, 64
2, 149661, Control_c, 0, 64, 127
2, 149666, Note_on_c, 0, 70, 72
2, 149667, Note_on_c, 0, 74, 68
2, 149695, Note_off_c, 0, 72, 64
2, 149699, Note_off_c, 0, 75, 64
2, 149724, Note_on_c, 0, 53, 45
2, 149750, Note_on_c, 0, 62, 57
2, 149750, Note_on_c, 0, 65, 59
2, 149769, Note_off_c, 0, 70, 64
2, 149782, Note_off_c, 0, 74, 64
2, 149786, Note_on_c, 0, 56, 62
2, 149800, Note_off_c, 0, 53, 64
2, 149820, Note_off_c, 0, 65, 64
2, 149822, Note_off_c, 0, 62, 64
2, 149841, Note_on_c, 0, 59, 62
2, 149855, Note_off_c, 0, 56, 64
2, 149876, Note_on_c, 0, 56, 47
2, 149905, Note_on_c, 0, 71, 62
2, 149905, Note_on_c, 0, 68, 47
2, 149910, Note_off_c, 0, 59, 64
2, 149915, Note_on_c, 0, 53, 33
2, 149933, Control_c, 0, 64, 0
2, 149945, Note_off_c, 0, 56, 64
2, 149971, Note_off_c, 0, 46, 64
2, 149981, Note_on_c, 0, 46, 62
2, 149984, Note_off_c, 0, 53, 64
2, 149996, Note_on_c, 0, 70, 69
2, 149999, Control_c, 0, 64, 127
2, 150012, Note_on_c, 0, 66, 66
2, 150020, Note_off_c, 0, 68, 64
2, 150020, Note_off_c, 0, 71, 64
2, 150064, Note_on_c, 0, 54, 49
2, 150085, Note_on_c, 0, 65, 57
2, 150088, Note_on_c, 0, 68, 70
2, 150111, Note_off_c, 0, 70, 64
2, 150114, Note_on_c, 0, 57, 54
2, 150127, Note_off_c, 0, 66, 64
2, 150133, Note_off_c, 0, 54, 64
2, 150165, Note_on_c, 0, 60, 55
2, 150171, Note_on_c, 0, 66, 70
2, 150179, Note_on_c, 0, 63, 65
2, 150183, Note_off_c, 0, 57, 64
2, 150196, Note_on_c, 0, 57, 40
2, 150200, Note_off_c, 0, 65, 64
2, 150203, Note_off_c, 0, 68, 64
2, 150234, Note_off_c, 0, 60, 64
2, 150237, Note_on_c, 0, 54, 32
2, 150252, Note_on_c, 0, 72, 64
2, 150256, Note_on_c, 0, 75, 59
2, 150264, Note_off_c, 0, 57, 64
2, 150285, Control_c, 0, 64, 0
2, 150286, Note_off_c, 0, 66, 64
2, 150294, Note_off_c, 0, 63, 64
2, 150306, Note_off_c, 0, 46, 64
2, 150315, Note_off_c, 0, 54, 64
2, 150338, Note_on_c, 0, 46, 61
2, 150339, Control_c, 0, 64, 127
2, 150349, Note_on_c, 0, 74, 70
2, 150356, Note_on_c, 0, 70, 70
2, 150367, Note_off_c, 0, 72, 64
2, 150371, Note_off_c, 0, 75, 64
2, 150404, Note_on_c, 0, 53, 36
2, 150424, Note_on_c, 0, 62, 62
2, 150432, Note_on_c, 0, 65, 62
2, 150464, Note_off_c, 0, 74, 64
2, 150471, Note_off_c, 0, 70, 64
2, 150472, Note_on_c, 0, 58, 35
2, 150473, Note_off_c, 0, 53, 64
2, 150494, Note_off_c, 0, 62, 64
2, 150502, Note_off_c, 0, 65, 64
2, 150511, Note_on_c, 0, 62, 53
2, 150541, Note_off_c, 0, 58, 64
2, 150556, Note_on_c, 0, 58, 44
2, 150572, Note_off_c, 0, 62, 64
2, 150601, Note_on_c, 0, 53, 43
2, 150608, Note_on_c, 0, 78, 59
2, 150608, Note_on_c, 0, 75, 58
2, 150616, Note_on_c, 0, 75, 58
2, 150625, Control_c, 0, 64, 0
2, 150633, Control_c, 0, 64, 0
2, 150639, Note_off_c, 0, 58, 64
2, 150663, Note_off_c, 0, 46, 64
2, 150663, Control_c, 0, 64, 127
2, 150671, Control_c, 0, 64, 127
2, 150676, Note_on_c, 0, 46, 57
2, 150686, Note_off_c, 0, 53, 64
2, 150692, Note_on_c, 0, 74, 55
2, 150696, Note_on_c, 0, 77, 62
2, 150716, Note_off_c, 0, 75, 64
2, 150722, Note_off_c, 0, 75, 64
2, 150723, Note_off_c, 0, 78, 64
2, 150741, Note_on_c, 0, 53, 43
2, 150759, Note_on_c, 0, 70, 61
2, 150769, Note_on_c, 0, 65, 57
2, 150804, Note_on_c, 0, 58, 35
2, 150807, Note_off_c, 0, 74, 64
2, 150811, Note_off_c, 0, 77, 64
2, 150816, Note_off_c, 0, 53, 64
2, 150829, Note_off_c, 0, 70, 64
2, 150839, Note_off_c, 0, 65, 64
2, 150846, Note_on_c, 0, 62, 50
2, 150873, Note_off_c, 0, 58, 64
2, 150894, Note_on_c, 0, 58, 43
2, 150916, Note_off_c, 0, 62, 64
2, 150920, Note_on_c, 0, 78, 61
2, 150923, Note_on_c, 0, 82, 60
2, 150955, Note_on_c, 0, 53, 31
2, 150963, Note_off_c, 0, 58, 64
2, 151001, Note_off_c, 0, 46, 64
2, 151002, Control_c, 0, 64, 0
2, 151020, Note_off_c, 0, 82, 64
2, 151029, Note_on_c, 0, 46, 52
2, 151035, Note_off_c, 0, 78, 64
2, 151036, Note_on_c, 0, 77, 51
2, 151040, Note_on_c, 0, 82, 55
2, 151043, Note_off_c, 0, 53, 64
2, 151050, Control_c, 0, 64, 127
2, 151115, Note_on_c, 0, 53, 36
2, 151139, Note_on_c, 0, 70, 46
2, 151151, Note_off_c, 0, 77, 64
2, 151191, Note_on_c, 0, 58, 40
2, 151204, Note_off_c, 0, 53, 64
2, 151220, Note_off_c, 0, 82, 64
2, 151248, Note_on_c, 0, 62, 43
2, 151259, Note_off_c, 0, 58, 64
2, 151298, Note_on_c, 0, 58, 38
2, 151320, Note_on_c, 0, 82, 54
2, 151324, Note_off_c, 0, 70, 64
2, 151325, Note_on_c, 0, 70, 53
2, 151330, Note_off_c, 0, 62, 64
2, 151376, Note_off_c, 0, 58, 64
2, 151381, Note_on_c, 0, 53, 36
2, 151424, Note_off_c, 0, 46, 64
2, 151448, Note_on_c, 0, 46, 51
2, 151458, Note_off_c, 0, 53, 64
2, 151534, Note_on_c, 0, 53, 33
2, 151535, Note_off_c, 0, 82, 64
2, 151540, Note_off_c, 0, 70, 64
2, 151548, Note_on_c, 0, 82, 52
2, 151560, Note_on_c, 0, 70, 50
2, 151633, Note_on_c, 0, 58, 27
2, 151655, Note_off_c, 0, 53, 64
2, 151712, Note_on_c, 0, 62, 31
2, 151715, Note_off_c, 0, 58, 64
2, 151763, Note_off_c, 0, 82, 64
2, 151775, Note_off_c, 0, 70, 64
2, 151790, Note_on_c, 0, 58, 36
2, 151790, Control_c, 0, 64, 0
2, 151796, Note_on_c, 0, 82, 45
2, 151799, Note_on_c, 0, 70, 38
2, 151806, Note_off_c, 0, 62, 64
2, 151854, Control_c, 0, 64, 127
2, 151865, Note_off_c, 0, 58, 64
2, 151870, Note_on_c, 0, 53, 32
2, 151911, Note_off_c, 0, 82, 64
2, 151914, Note_off_c, 0, 70, 64
2, 151920, Note_off_c, 0, 53, 64
2, 151920, Note_off_c, 0, 46, 64
2, 151947, Note_on_c, 0, 42, 44
2, 151949, Note_on_c, 0, 82, 57
2, 151949, Note_on_c, 0, 78, 56
2, 151958, Control_c, 0, 64, 127
2, 152052, Note_on_c, 0, 61, 44
2, 152109, Note_on_c, 0, 83, 54
2, 152126, Note_on_c, 0, 54, 44
2, 152127, Note_off_c, 0, 78, 64
2, 152127, Note_off_c, 0, 82, 64
2, 152129, Note_on_c, 0, 73, 27
2, 152133, Note_off_c, 0, 61, 64
2, 152214, Note_off_c, 0, 54, 64
2, 152220, Control_c, 0, 64, 0
2, 152221, Note_off_c, 0, 42, 64
2, 152228, Note_on_c, 0, 84, 72
2, 152228, Note_on_c, 0, 49, 44
2, 152239, Note_off_c, 0, 83, 64
2, 152240, Note_on_c, 0, 78, 51
2, 152259, Note_off_c, 0, 73, 64
2, 152259, Control_c, 0, 64, 127
2, 152310, Note_on_c, 0, 61, 44
2, 152348, Note_on_c, 0, 85, 60
2, 152348, Note_on_c, 0, 73, 61
2, 152372, Note_off_c, 0, 84, 64
2, 152384, Note_off_c, 0, 78, 64
2, 152386, Note_on_c, 0, 54, 44
2, 152396, Note_off_c, 0, 61, 64
2, 152457, Control_c, 0, 64, 0
2, 152472, Note_on_c, 0, 87, 72
2, 152474, Note_off_c, 0, 54, 64
2, 152477, Note_on_c, 0, 44, 44
2, 152480, Note_on_c, 0, 77, 54
2, 152483, Note_off_c, 0, 73, 64
2, 152483, Note_off_c, 0, 85, 64
2, 152495, Control_c, 0, 64, 127
2, 152501, Note_off_c, 0, 49, 64
2, 152541, Note_on_c, 0, 61, 44
2, 152588, Note_on_c, 0, 85, 67
2, 152588, Note_on_c, 0, 83, 51
2, 152595, Note_off_c, 0, 87, 64
2, 152603, Note_off_c, 0, 77, 64
2, 152608, Note_off_c, 0, 61, 64
2, 152614, Note_on_c, 0, 53, 44
2, 152657, Note_off_c, 0, 83, 64
2, 152660, Note_on_c, 0, 83, 55
2, 152680, Control_c, 0, 64, 0
2, 152694, Note_off_c, 0, 53, 64
2, 152708, Note_on_c, 0, 94, 71
2, 152710, Note_on_c, 0, 49, 44
2, 152717, Note_off_c, 0, 44, 64
2, 152721, Note_off_c, 0, 85, 64
2, 152729, Control_c, 0, 64, 127
2, 152785, Note_on_c, 0, 61, 44
2, 152789, Note_off_c, 0, 83, 64
2, 152841, Note_on_c, 0, 53, 44
2, 152855, Note_off_c, 0, 61, 64
2, 152886, Note_on_c, 0, 85, 53
2, 152890, Note_on_c, 0, 92, 78
2, 152907, Note_off_c, 0, 94, 64
2, 152910, Control_c, 0, 64, 0
2, 152920, Note_off_c, 0, 92, 64
2, 152925, Note_off_c, 0, 53, 64
2, 152932, Note_on_c, 0, 92, 71
2, 152937, Note_on_c, 0, 82, 71
2, 152937, Note_on_c, 0, 46, 44
2, 152945, Note_off_c, 0, 49, 64
2, 152946, Note_off_c, 0, 85, 64
2, 152956, Control_c, 0, 64, 127
2, 152998, Note_on_c, 0, 61, 44
2, 153037, Note_on_c, 0, 90, 65
2, 153045, Note_on_c, 0, 85, 70
2, 153047, Note_off_c, 0, 92, 64
2, 153052, Note_off_c, 0, 82, 64
2, 153077, Note_on_c, 0, 54, 44
2, 153081, Note_off_c, 0, 61, 64
2, 153122, Note_off_c, 0, 46, 64
2, 153124, Control_c, 0, 64, 0
2, 153148, Note_on_c, 0, 89, 68
2, 153153, Note_on_c, 0, 46, 44
2, 153154, Note_on_c, 0, 80, 57
2, 153161, Note_off_c, 0, 54, 64
2, 153168, Control_c, 0, 64, 127
2, 153172, Note_off_c, 0, 90, 64
2, 153180, Note_off_c, 0, 85, 64
2, 153217, Note_on_c, 0, 87, 63
2, 153221, Note_on_c, 0, 78, 72
2, 153224, Note_on_c, 0, 62, 44
2, 153237, Note_off_c, 0, 89, 64
2, 153243, Note_off_c, 0, 80, 64
2, 153280, Note_on_c, 0, 77, 45
2, 153284, Note_on_c, 0, 86, 67
2, 153288, Note_on_c, 0, 56, 44
2, 153306, Note_off_c, 0, 87, 64
2, 153310, Note_off_c, 0, 78, 64
2, 153325, Note_off_c, 0, 62, 64
2, 153338, Note_off_c, 0, 46, 64
2, 153338, Control_c, 0, 64, 0
2, 153354, Note_off_c, 0, 56, 64
2, 153361, Note_on_c, 0, 89, 71
2, 153364, Note_on_c, 0, 80, 72
2, 153370, Note_on_c, 0, 51, 44
2, 153372, Note_off_c, 0, 77, 64
2, 153376, Note_off_c, 0, 86, 64
2, 153376, Control_c, 0, 64, 127
2, 153430, Note_on_c, 0, 66, 44
2, 153483, Note_on_c, 0, 58, 44
2, 153504, Note_on_c, 0, 78, 65
2, 153505, Note_off_c, 0, 66, 64
2, 153508, Note_on_c, 0, 87, 76
2, 153524, Note_off_c, 0, 89, 64
2, 153524, Poly_aftertouch_c, 0, 78, 101
2, 153527, Note_off_c, 0, 80, 64
2, 153534, Note_off_c, 0, 78, 64
2, 153538, Note_off_c, 0, 87, 64
2, 153545, Poly_aftertouch_c, 0, 78, 0
2, 153547, Control_c, 0, 64, 0
2, 153555, Note_off_c, 0, 51, 64
2, 153556, Note_off_c, 0, 58, 64
2, 153571, Note_on_c, 0, 44, 44
2, 153572, Note_on_c, 0, 87, 76
2, 153572, Note_on_c, 0, 78, 65
2, 153586, Control_c, 0, 64, 127
2, 153642, Note_on_c, 0, 85, 61
2, 153651, Note_on_c, 0, 66, 44
2, 153680, Note_off_c, 0, 87, 64
2, 153682, Note_on_c, 0, 80, 67
2, 153699, Note_off_c, 0, 78, 64
2, 153711, Note_on_c, 0, 56, 44
2, 153712, Note_off_c, 0, 66, 64
2, 153726, Note_on_c, 0, 84, 71
2, 153756, Note_off_c, 0, 44, 64
2, 153760, Note_off_c, 0, 85, 64
2, 153774, Control_c, 0, 64, 0
2, 153784, Note_off_c, 0, 56, 64
2, 153792, Note_on_c, 0, 49, 44
2, 153799, Note_on_c, 0, 87, 71
2, 153799, Note_on_c, 0, 77, 55
2, 153812, Control_c, 0, 64, 127
2, 153824, Note_off_c, 0, 84, 64
2, 153824, Note_off_c, 0, 80, 64
2, 153868, Note_on_c, 0, 65, 44
2, 153903, Note_on_c, 0, 85, 67
2, 153908, Note_on_c, 0, 80, 65
2, 153923, Note_off_c, 0, 77, 64
2, 153923, Note_off_c, 0, 87, 64
2, 153939, Note_on_c, 0, 56, 44
2, 153956, Note_off_c, 0, 65, 64
2, 153977, Note_off_c, 0, 49, 64
2, 153990, Control_c, 0, 64, 0
2, 154020, Note_on_c, 0, 76, 64
2, 154022, Note_on_c, 0, 54, 44
2, 154026, Note_off_c, 0, 56, 64
2, 154026, Note_on_c, 0, 83, 61
2, 154042, Control_c, 0, 64, 127
2, 154049, Note_off_c, 0, 85, 64
2, 154054, Note_off_c, 0, 80, 64
2, 154086, Note_on_c, 0, 64, 44
2, 154130, Note_on_c, 0, 82, 61
2, 154130, Note_on_c, 0, 78, 61
2, 154145, Note_off_c, 0, 76, 64
2, 154151, Note_off_c, 0, 83, 64
2, 154163, Note_on_c, 0, 58, 44
2, 154170, Note_off_c, 0, 64, 64
2, 154200, Control_c, 0, 64, 0
2, 154207, Note_off_c, 0, 54, 64
2, 154235, Note_on_c, 0, 85, 66
2, 154236, Note_off_c, 0, 58, 64
2, 154237, Note_on_c, 0, 47, 44
2, 154238, Note_on_c, 0, 75, 54
2, 154245, Control_c, 0, 64, 127
2, 154272, Note_off_c, 0, 78, 64
2, 154272, Note_off_c, 0, 82, 64
2, 154319, Note_on_c, 0, 63, 44
2, 154337, Note_on_c, 0, 83, 55
2, 154340, Note_on_c, 0, 78, 55
2, 154344, Note_off_c, 0, 85, 64
2, 154347, Note_off_c, 0, 75, 64
2, 154362, Note_on_c, 0, 59, 44
2, 154394, Note_off_c, 0, 63, 64
2, 154412, Control_c, 0, 64, 0
2, 154439, Note_on_c, 0, 71, 65
2, 154445, Note_off_c, 0, 59, 64
2, 154446, Note_on_c, 0, 82, 64
2, 154446, Note_on_c, 0, 56, 44
2, 154463, Control_c, 0, 64, 127
2, 154475, Note_off_c, 0, 83, 64
2, 154478, Note_off_c, 0, 78, 64
2, 154505, Note_off_c, 0, 47, 64
2, 154508, Note_on_c, 0, 63, 44
2, 154561, Note_off_c, 0, 71, 64
2, 154568, Note_off_c, 0, 82, 64
2, 154587, Note_on_c, 0, 59, 44
2, 154592, Note_on_c, 0, 80, 57
2, 154592, Note_on_c, 0, 75, 57
2, 154599, Note_off_c, 0, 63, 64
2, 154630, Control_c, 0, 64, 0
2, 154631, Note_off_c, 0, 56, 64
2, 154637, Note_off_c, 0, 75, 64
2, 154637, Note_off_c, 0, 80, 64
2, 154654, Note_off_c, 0, 59, 64
2, 154659, Note_on_c, 0, 70, 61
2, 154659, Note_on_c, 0, 49, 44
2, 154661, Note_on_c, 0, 80, 63
2, 154675, Control_c, 0, 64, 127
2, 154728, Note_on_c, 0, 61, 44
2, 154758, Note_on_c, 0, 78, 55
2, 154763, Note_on_c, 0, 73, 57
2, 154781, Note_on_c, 0, 58, 44
2, 154796, Note_off_c, 0, 70, 64
2, 154798, Note_off_c, 0, 80, 64
2, 154801, Note_off_c, 0, 61, 64
2, 154828, Control_c, 0, 64, 0
2, 154844, Note_off_c, 0, 49, 64
2, 154855, Note_on_c, 0, 54, 44
2, 154861, Note_off_c, 0, 58, 64
2, 154862, Note_on_c, 0, 77, 61
2, 154867, Note_on_c, 0, 66, 69
2, 154873, Control_c, 0, 64, 127
2, 154880, Note_off_c, 0, 78, 64
2, 154885, Note_off_c, 0, 73, 64
2, 154926, Note_on_c, 0, 61, 44
2, 154961, Note_on_c, 0, 75, 62
2, 154961, Note_on_c, 0, 70, 61
2, 154974, Note_on_c, 0, 58, 44
2, 154990, Note_off_c, 0, 77, 64
2, 154995, Note_off_c, 0, 66, 64
2, 155010, Note_off_c, 0, 61, 64
2, 155040, Note_off_c, 0, 54, 64
2, 155044, Control_c, 0, 64, 0
2, 155054, Note_off_c, 0, 58, 64
2, 155060, Note_on_c, 0, 65, 41
2, 155060, Note_on_c, 0, 37, 44
2, 155065, Note_on_c, 0, 73, 61
2, 155079, Control_c, 0, 64, 127
2, 155096, Note_off_c, 0, 70, 64
2, 155100, Note_off_c, 0, 75, 64
2, 155141, Note_on_c, 0, 59, 44
2, 155164, Note_on_c, 0, 74, 61
2, 155165, Note_on_c, 0, 71, 45
2, 155196, Note_on_c, 0, 53, 44
2, 155199, Note_off_c, 0, 65, 64
2, 155204, Note_off_c, 0, 73, 64
2, 155225, Note_off_c, 0, 59, 64
2, 155259, Control_c, 0, 64, 0
2, 155272, Note_on_c, 0, 65, 54
2, 155275, Note_on_c, 0, 77, 57
2, 155279, Note_off_c, 0, 53, 64
2, 155284, Note_on_c, 0, 49, 44
2, 155299, Note_off_c, 0, 74, 64
2, 155300, Note_off_c, 0, 71, 64
2, 155303, Control_c, 0, 64, 127
2, 155331, Note_off_c, 0, 37, 64
2, 155347, Note_on_c, 0, 59, 44
2, 155353, Note_on_c, 0, 75, 65
2, 155360, Note_off_c, 0, 77, 64
2, 155397, Note_on_c, 0, 68, 71
2, 155404, Note_off_c, 0, 65, 64
2, 155414, Note_on_c, 0, 53, 44
2, 155416, Note_off_c, 0, 59, 64
2, 155430, Note_on_c, 0, 71, 62
2, 155446, Note_off_c, 0, 75, 64
2, 155469, Note_off_c, 0, 49, 64
2, 155486, Control_c, 0, 64, 0
2, 155494, Note_off_c, 0, 53, 64
2, 155507, Note_on_c, 0, 70, 80
2, 155509, Note_on_c, 0, 66, 77
2, 155509, Note_on_c, 0, 42, 49
2, 155516, Note_off_c, 0, 71, 64
2, 155523, Note_off_c, 0, 68, 64
2, 155529, Control_c, 0, 64, 127
2, 155582, Note_on_c, 0, 58, 49
2, 155623, Note_on_c, 0, 71, 77
2, 155624, Note_on_c, 0, 61, 49
2, 155635, Note_off_c, 0, 70, 64
2, 155637, Note_off_c, 0, 66, 64
2, 155646, Note_on_c, 0, 54, 49
2, 155662, Note_off_c, 0, 58, 64
2, 155701, Control_c, 0, 64, 0
2, 155724, Note_on_c, 0, 49, 49
2, 155728, Note_on_c, 0, 66, 64
2, 155729, Note_off_c, 0, 54, 64
2, 155729, Note_on_c, 0, 72, 72
2, 155745, Note_off_c, 0, 71, 64
2, 155746, Note_off_c, 0, 61, 64
2, 155753, Control_c, 0, 64, 127
2, 155783, Note_off_c, 0, 42, 64
2, 155794, Note_on_c, 0, 58, 49
2, 155834, Note_on_c, 0, 73, 61
2, 155836, Note_on_c, 0, 61, 49
2, 155845, Note_off_c, 0, 66, 64
2, 155846, Note_off_c, 0, 72, 64
2, 155852, Note_on_c, 0, 54, 49
2, 155876, Note_off_c, 0, 58, 64
2, 155909, Note_off_c, 0, 49, 64
2, 155909, Control_c, 0, 64, 0
2, 155930, Note_on_c, 0, 44, 49
2, 155935, Note_on_c, 0, 75, 70
2, 155936, Note_off_c, 0, 54, 64
2, 155936, Note_on_c, 0, 65, 69
2, 155944, Note_off_c, 0, 73, 64
2, 155946, Note_off_c, 0, 61, 64
2, 155961, Control_c, 0, 64, 127
2, 155993, Note_on_c, 0, 59, 49
2, 156036, Note_off_c, 0, 65, 64
2, 156036, Note_on_c, 0, 71, 62
2, 156037, Note_on_c, 0, 73, 67
2, 156045, Note_off_c, 0, 75, 64
2, 156049, Note_on_c, 0, 53, 49
2, 156058, Note_off_c, 0, 59, 64
2, 156081, Note_off_c, 0, 71, 64
2, 156094, Note_on_c, 0, 71, 80
2, 156108, Control_c, 0, 64, 0
2, 156115, Note_off_c, 0, 44, 64
2, 156132, Note_off_c, 0, 53, 64
2, 156137, Note_on_c, 0, 82, 73
2, 156139, Note_on_c, 0, 49, 49
2, 156158, Note_off_c, 0, 73, 64
2, 156165, Control_c, 0, 64, 127
2, 156202, Note_on_c, 0, 61, 49
2, 156215, Note_off_c, 0, 71, 64
2, 156268, Note_on_c, 0, 53, 49
2, 156283, Note_off_c, 0, 61, 64
2, 156312, Note_on_c, 0, 73, 64
2, 156314, Control_c, 0, 64, 0
2, 156319, Note_on_c, 0, 80, 72
2, 156324, Note_off_c, 0, 49, 64
2, 156335, Note_off_c, 0, 80, 64
2, 156338, Note_off_c, 0, 82, 64
2, 156348, Note_on_c, 0, 46, 49
2, 156356, Note_on_c, 0, 80, 82
2, 156356, Note_on_c, 0, 70, 64
2, 156360, Note_off_c, 0, 53, 64
2, 156360, Control_c, 0, 64, 127
2, 156369, Note_off_c, 0, 73, 64
2, 156420, Note_on_c, 0, 61, 49
2, 156452, Note_on_c, 0, 78, 69
2, 156452, Note_on_c, 0, 73, 72
2, 156459, Note_off_c, 0, 70, 64
2, 156459, Note_off_c, 0, 80, 64
2, 156476, Note_on_c, 0, 54, 49
2, 156508, Note_off_c, 0, 61, 64
2, 156520, Control_c, 0, 64, 0
2, 156533, Note_off_c, 0, 46, 64
2, 156546, Note_on_c, 0, 46, 49
2, 156548, Note_on_c, 0, 77, 70
2, 156551, Note_on_c, 0, 68, 73
2, 156560, Note_off_c, 0, 73, 64
2, 156560, Note_off_c, 0, 78, 64
2, 156561, Control_c, 0, 64, 127
2, 156571, Note_off_c, 0, 54, 64
2, 156603, Note_on_c, 0, 75, 73
2, 156607, Note_off_c, 0, 77, 64
2, 156610, Note_off_c, 0, 68, 64
2, 156613, Note_on_c, 0, 66, 77
2, 156619, Note_on_c, 0, 62, 49
2, 156660, Note_on_c, 0, 74, 64
2, 156667, Note_on_c, 0, 65, 51
2, 156669, Note_off_c, 0, 75, 64
2, 156679, Note_off_c, 0, 66, 64
2, 156679, Note_on_c, 0, 56, 49
2, 156713, Control_c, 0, 64, 0
2, 156727, Note_off_c, 0, 62, 64
2, 156731, Note_off_c, 0, 46, 64
2, 156736, Note_on_c, 0, 77, 70
2, 156736, Note_on_c, 0, 68, 83
2, 156745, Note_on_c, 0, 51, 49
2, 156748, Note_off_c, 0, 56, 64
2, 156756, Note_off_c, 0, 74, 64
2, 156759, Control_c, 0, 64, 127
2, 156763, Note_off_c, 0, 65, 64
2, 156818, Note_on_c, 0, 63, 49
2, 156877, Note_on_c, 0, 58, 49
2, 156884, Note_off_c, 0, 63, 64
2, 156914, Note_on_c, 0, 75, 68
2, 156916, Note_on_c, 0, 66, 83
2, 156920, Note_off_c, 0, 68, 64
2, 156920, Note_off_c, 0, 77, 64
2, 156922, Control_c, 0, 64, 0
2, 156930, Note_off_c, 0, 51, 64
2, 156943, Note_off_c, 0, 75, 64
2, 156945, Note_off_c, 0, 66, 64
2, 156952, Note_off_c, 0, 58, 64
2, 156960, Note_on_c, 0, 66, 70
2, 156961, Note_on_c, 0, 75, 79
2, 156965, Note_on_c, 0, 44, 49
2, 156974, Control_c, 0, 64, 127
2, 157030, Note_on_c, 0, 73, 56
2, 157046, Note_off_c, 0, 75, 64
2, 157051, Note_on_c, 0, 63, 49
2, 157069, Note_on_c, 0, 68, 77
2, 157097, Note_on_c, 0, 56, 49
2, 157105, Note_off_c, 0, 63, 64
2, 157107, Note_off_c, 0, 66, 64
2, 157114, Note_on_c, 0, 72, 68
2, 157132, Note_off_c, 0, 73, 64
2, 157168, Control_c, 0, 64, 0
2, 157176, Note_off_c, 0, 56, 64
2, 157196, Note_on_c, 0, 65, 62
2, 157197, Note_on_c, 0, 49, 49
2, 157199, Note_on_c, 0, 75, 74
2, 157206, Note_off_c, 0, 68, 64
2, 157215, Control_c, 0, 64, 127
2, 157220, Note_off_c, 0, 72, 64
2, 157230, Note_off_c, 0, 44, 64
2, 157259, Note_on_c, 0, 61, 49
2, 157308, Note_on_c, 0, 68, 70
2, 157312, Note_on_c, 0, 73, 68
2, 157320, Note_off_c, 0, 65, 64
2, 157323, Note_off_c, 0, 75, 64
2, 157337, Note_off_c, 0, 61, 64
2, 157339, Note_on_c, 0, 56, 49
2, 157382, Note_off_c, 0, 49, 64
2, 157385, Control_c, 0, 64, 0
2, 157413, Note_on_c, 0, 42, 49
2, 157418, Note_on_c, 0, 64, 80
2, 157419, Note_off_c, 0, 56, 64
2, 157419, Note_on_c, 0, 71, 73
2, 157428, Note_off_c, 0, 68, 64
2, 157429, Control_c, 0, 64, 127
2, 157432, Note_off_c, 0, 73, 64
2, 157485, Note_on_c, 0, 61, 49
2, 157524, Note_on_c, 0, 70, 72
2, 157527, Note_on_c, 0, 66, 68
2, 157539, Note_on_c, 0, 54, 49
2, 157544, Note_off_c, 0, 64, 64
2, 157545, Note_off_c, 0, 71, 64
2, 157566, Note_off_c, 0, 61, 64
2, 157594, Control_c, 0, 64, 0
2, 157598, Note_off_c, 0, 42, 64
2, 157616, Note_on_c, 0, 63, 68
2, 157619, Note_on_c, 0, 73, 74
2, 157621, Note_on_c, 0, 47, 49
2, 157624, Note_off_c, 0, 54, 64
2, 157627, Note_off_c, 0, 70, 64
2, 157630, Note_off_c, 0, 66, 64
2, 157640, Control_c, 0, 64, 127
2, 157697, Note_on_c, 0, 59, 49
2, 157737, Note_on_c, 0, 71, 62
2, 157742, Note_on_c, 0, 66, 47
2, 157745, Note_off_c, 0, 63, 64
2, 157748, Note_off_c, 0, 73, 64
2, 157770, Note_on_c, 0, 54, 49
2, 157783, Note_off_c, 0, 59, 64
2, 157806, Note_off_c, 0, 47, 64
2, 157815, Control_c, 0, 64, 0
2, 157836, Note_on_c, 0, 70, 74
2, 157838, Note_on_c, 0, 59, 68
2, 157844, Note_on_c, 0, 35, 79
2, 157850, Note_off_c, 0, 54, 64
2, 157851, Control_c, 0, 64, 127
2, 157856, Note_off_c, 0, 71, 64
2, 157861, Note_off_c, 0, 66, 64
2, 157927, Note_on_c, 0, 56, 49
2, 157964, Note_on_c, 0, 68, 61
2, 157967, Note_on_c, 0, 63, 62
2, 157989, Note_on_c, 0, 51, 49
2, 157991, Note_off_c, 0, 70, 64
2, 157993, Note_off_c, 0, 59, 64
2, 158007, Note_off_c, 0, 56, 64
2, 158029, Note_off_c, 0, 35, 64
2, 158050, Control_c, 0, 64, 0
2, 158061, Note_off_c, 0, 68, 64
2, 158068, Note_on_c, 0, 58, 64
2, 158069, Note_off_c, 0, 51, 64
2, 158073, Note_on_c, 0, 37, 49
2, 158076, Note_on_c, 0, 68, 69
2, 158090, Note_off_c, 0, 63, 64
2, 158093, Control_c, 0, 64, 127
2, 158143, Note_on_c, 0, 54, 49
2, 158169, Note_on_c, 0, 66, 69
2, 158175, Note_on_c, 0, 61, 68
2, 158187, Note_off_c, 0, 58, 64
2, 158195, Note_off_c, 0, 68, 64
2, 158206, Note_on_c, 0, 49, 49
2, 158230, Note_off_c, 0, 54, 64
2, 158250, Control_c, 0, 64, 0
2, 158281, Note_off_c, 0, 49, 64
2, 158281, Note_on_c, 0, 54, 49
2, 158284, Note_on_c, 0, 65, 68
2, 158289, Control_c, 0, 64, 127
2, 158292, Note_on_c, 0, 46, 49
2, 158293, Note_off_c, 0, 66, 64
2, 158299, Note_off_c, 0, 61, 64
2, 158339, Note_off_c, 0, 54, 64
2, 158346, Note_off_c, 0, 37, 64
2, 158357, Note_on_c, 0, 54, 49
2, 158392, Note_on_c, 0, 58, 70
2, 158396, Note_on_c, 0, 66, 68
2, 158411, Note_off_c, 0, 65, 64
2, 158421, Note_on_c, 0, 49, 49
2, 158427, Note_off_c, 0, 54, 64
2, 158469, Control_c, 0, 64, 0
2, 158477, Note_off_c, 0, 46, 64
2, 158498, Note_on_c, 0, 37, 49
2, 158501, Note_off_c, 0, 49, 64
2, 158503, Note_on_c, 0, 59, 79
2, 158506, Note_on_c, 0, 67, 72
2, 158509, Note_off_c, 0, 58, 64
2, 158513, Note_off_c, 0, 66, 64
2, 158514, Control_c, 0, 64, 127
2, 158566, Note_on_c, 0, 53, 49
2, 158607, Note_on_c, 0, 68, 68
2, 158607, Note_on_c, 0, 61, 68
2, 158617, Note_off_c, 0, 59, 64
2, 158619, Note_on_c, 0, 49, 49
2, 158620, Note_off_c, 0, 67, 64
2, 158635, Note_off_c, 0, 53, 64
2, 158684, Control_c, 0, 64, 0
2, 158700, Note_off_c, 0, 49, 64
2, 158703, Note_on_c, 0, 44, 49
2, 158709, Note_on_c, 0, 70, 73
2, 158709, Note_on_c, 0, 59, 73
2, 158729, Note_off_c, 0, 61, 64
2, 158729, Note_off_c, 0, 68, 64
2, 158729, Control_c, 0, 64, 127
2, 158765, Note_on_c, 0, 53, 49
2, 158776, Note_off_c, 0, 37, 64
2, 158824, Note_on_c, 0, 71, 75
2, 158824, Note_on_c, 0, 61, 62
2, 158835, Note_on_c, 0, 49, 49
2, 158843, Note_off_c, 0, 59, 64
2, 158843, Note_off_c, 0, 70, 64
2, 158847, Note_off_c, 0, 53, 64
2, 158880, Note_on_c, 0, 36, 53
2, 158888, Note_off_c, 0, 44, 64
2, 158912, Note_on_c, 0, 54, 62
2, 158915, Control_c, 0, 64, 0
2, 158925, Note_off_c, 0, 49, 64
2, 158936, Note_off_c, 0, 61, 64
2, 158936, Note_off_c, 0, 71, 64
2, 158936, Note_on_c, 0, 51, 94
2, 158938, Note_on_c, 0, 69, 92
2, 158955, Note_off_c, 0, 54, 64
2, 158964, Control_c, 0, 64, 127
2, 158997, Note_on_c, 0, 66, 67
2, 159001, Note_off_c, 0, 69, 64
2, 159071, Note_on_c, 0, 63, 66
2, 159087, Note_off_c, 0, 66, 64
2, 159132, Note_on_c, 0, 56, 68
2, 159140, Note_off_c, 0, 63, 64
2, 159186, Note_off_c, 0, 36, 64
2, 159197, Note_on_c, 0, 57, 60
2, 159208, Note_off_c, 0, 56, 64
2, 159223, Note_off_c, 0, 51, 64
2, 159248, Note_on_c, 0, 54, 61
2, 159259, Note_off_c, 0, 57, 64
2, 159314, Note_on_c, 0, 53, 67
2, 159316, Note_on_c, 0, 44, 25
2, 159319, Note_on_c, 0, 37, 66
2, 159321, Note_off_c, 0, 54, 64
2, 159335, Control_c, 0, 64, 0
2, 159368, Note_on_c, 0, 56, 64
2, 159375, Control_c, 0, 64, 127
2, 159398, Note_off_c, 0, 53, 64
2, 159439, Note_on_c, 0, 60, 63
2, 159450, Control_c, 0, 64, 0
2, 159457, Note_off_c, 0, 56, 64
2, 159490, Control_c, 0, 64, 127
2, 159497, Note_on_c, 0, 62, 55
2, 159523, Note_off_c, 0, 60, 64
2, 159540, Note_off_c, 0, 44, 64
2, 159559, Note_on_c, 0, 61, 78
2, 159565, Note_off_c, 0, 62, 64
2, 159576, Note_off_c, 0, 37, 64
2, 159617, Note_on_c, 0, 73, 69
2, 159631, Note_off_c, 0, 61, 64
2, 159636, Note_on_c, 0, 36, 43
2, 159680, Note_on_c, 0, 54, 85
2, 159687, Note_off_c, 0, 73, 64
2, 159687, Control_c, 0, 64, 0
2, 159716, Note_on_c, 0, 51, 60
2, 159720, Note_on_c, 0, 69, 81
2, 159727, Note_off_c, 0, 54, 64
2, 159733, Control_c, 0, 64, 127
2, 159783, Note_on_c, 0, 66, 71
2, 159818, Note_off_c, 0, 69, 64
2, 159845, Note_on_c, 0, 63, 71
2, 159863, Note_off_c, 0, 66, 64
2, 159881, Note_off_c, 0, 36, 64
2, 159903, Note_on_c, 0, 56, 69
2, 159918, Note_off_c, 0, 63, 64
2, 159962, Note_on_c, 0, 57, 74
2, 159970, Note_off_c, 0, 51, 64
2, 159976, Note_off_c, 0, 56, 64
2, 160016, Note_on_c, 0, 54, 65
2, 160033, Note_off_c, 0, 57, 64
2, 160040, Control_c, 0, 64, 0
2, 160068, Note_on_c, 0, 37, 63
2, 160072, Note_on_c, 0, 53, 71
2, 160072, Note_on_c, 0, 44, 64
2, 160082, Control_c, 0, 64, 127
2, 160085, Note_off_c, 0, 54, 64
2, 160130, Note_on_c, 0, 56, 63
2, 160140, Note_off_c, 0, 53, 64
2, 160190, Note_on_c, 0, 60, 52
2, 160221, Note_off_c, 0, 56, 64
2, 160237, Note_off_c, 0, 37, 64
2, 160244, Note_off_c, 0, 44, 64
2, 160251, Note_on_c, 0, 62, 55
2, 160276, Note_off_c, 0, 60, 64
2, 160308, Note_on_c, 0, 61, 62
2, 160323, Note_off_c, 0, 62, 64
2, 160373, Note_on_c, 0, 73, 53
2, 160378, Note_on_c, 0, 41, 75
2, 160399, Control_c, 0, 64, 0
2, 160404, Note_off_c, 0, 61, 64
2, 160408, Note_on_c, 0, 49, 65
2, 160423, Note_on_c, 0, 56, 69
2, 160425, Note_on_c, 0, 69, 78
2, 160428, Note_off_c, 0, 73, 64
2, 160435, Note_off_c, 0, 41, 64
2, 160439, Control_c, 0, 64, 127
2, 160445, Note_off_c, 0, 49, 64
2, 160465, Note_off_c, 0, 56, 64
2, 160478, Note_on_c, 0, 68, 83
2, 160487, Note_off_c, 0, 69, 64
2, 160529, Note_on_c, 0, 80, 68
2, 160540, Note_off_c, 0, 68, 64
2, 160549, Note_on_c, 0, 44, 72
2, 160580, Note_on_c, 0, 53, 61
2, 160589, Note_on_c, 0, 74, 62
2, 160600, Note_off_c, 0, 80, 64
2, 160604, Note_on_c, 0, 61, 73
2, 160626, Note_off_c, 0, 44, 64
2, 160641, Note_on_c, 0, 73, 66
2, 160645, Note_off_c, 0, 53, 64
2, 160654, Note_off_c, 0, 61, 64
2, 160662, Note_off_c, 0, 74, 64
2, 160684, Note_on_c, 0, 85, 68
2, 160700, Note_off_c, 0, 73, 64
2, 160710, Note_on_c, 0, 49, 75
2, 160735, Note_on_c, 0, 56, 69
2, 160751, Note_on_c, 0, 81, 87
2, 160753, Note_off_c, 0, 49, 64
2, 160756, Note_on_c, 0, 65, 81
2, 160761, Note_off_c, 0, 85, 64
2, 160772, Note_off_c, 0, 56, 64
2, 160802, Note_on_c, 0, 80, 67
2, 160805, Note_off_c, 0, 65, 64
2, 160812, Note_off_c, 0, 81, 64
2, 160851, Note_on_c, 0, 92, 68
2, 160862, Note_off_c, 0, 80, 64
2, 160880, Note_on_c, 0, 53, 56
2, 160906, Note_on_c, 0, 61, 80
2, 160917, Note_on_c, 0, 86, 73
2, 160922, Note_off_c, 0, 92, 64
2, 160924, Note_on_c, 0, 68, 76
2, 160971, Note_on_c, 0, 85, 79
2, 160982, Note_off_c, 0, 86, 64
2, 160986, Note_off_c, 0, 53, 64
2, 161022, Note_on_c, 0, 101, 73
2, 161035, Note_off_c, 0, 68, 64
2, 161044, Note_off_c, 0, 61, 64
2, 161054, Control_c, 0, 64, 0
2, 161063, Note_on_c, 0, 56, 74
2, 161088, Note_on_c, 0, 65, 80
2, 161108, Control_c, 0, 64, 127
2, 161115, Note_on_c, 0, 73, 83
2, 161119, Note_on_c, 0, 97, 75
2, 161133, Note_off_c, 0, 101, 64
2, 161145, Note_off_c, 0, 85, 64
2, 161174, Note_on_c, 0, 92, 55
2, 161196, Note_off_c, 0, 65, 64
2, 161198, Note_off_c, 0, 73, 64
2, 161200, Note_off_c, 0, 97, 64
2, 161215, Note_off_c, 0, 56, 64
2, 161226, Note_on_c, 0, 89, 66
2, 161250, Note_off_c, 0, 92, 64
2, 161279, Note_on_c, 0, 85, 82
2, 161301, Note_off_c, 0, 89, 64
2, 161335, Note_on_c, 0, 80, 59
2, 161356, Note_off_c, 0, 85, 64
2, 161382, Note_on_c, 0, 77, 73
2, 161409, Note_off_c, 0, 80, 64
2, 161448, Note_on_c, 0, 73, 78
2, 161472, Note_off_c, 0, 77, 64
2, 161504, Note_on_c, 0, 68, 67
2, 161529, Note_off_c, 0, 73, 64
2, 161563, Note_on_c, 0, 65, 68
2, 161577, Note_off_c, 0, 68, 64
2, 161627, Note_on_c, 0, 61, 78
2, 161662, Note_off_c, 0, 65, 64
2, 161688, Note_on_c, 0, 56, 68
2, 161709, Note_off_c, 0, 61, 64
2, 161746, Note_off_c, 0, 56, 64
2, 161755, Note_on_c, 0, 53, 79
2, 161785, Note_off_c, 0, 53, 64
2, 161816, Note_on_c, 0, 38, 61
2, 161835, Note_on_c, 0, 56, 75
2, 161840, Note_on_c, 0, 47, 99
2, 161852, Control_c, 0, 64, 0
2, 161868, Note_on_c, 0, 53, 53
2, 161872, Note_on_c, 0, 71, 99
2, 161895, Note_off_c, 0, 56, 64
2, 161941, Note_on_c, 0, 68, 64
2, 161945, Control_c, 0, 64, 127
2, 161962, Note_off_c, 0, 71, 64
2, 161996, Note_on_c, 0, 65, 70
2, 162011, Note_off_c, 0, 68, 64
2, 162054, Note_on_c, 0, 58, 68
2, 162076, Note_off_c, 0, 65, 64
2, 162104, Note_off_c, 0, 38, 64
2, 162105, Note_off_c, 0, 47, 64
2, 162112, Note_on_c, 0, 59, 51
2, 162126, Note_off_c, 0, 58, 64
2, 162156, Note_off_c, 0, 53, 64
2, 162164, Note_on_c, 0, 56, 49
2, 162178, Note_off_c, 0, 59, 64
2, 162224, Note_on_c, 0, 55, 69
2, 162228, Note_on_c, 0, 46, 64
2, 162230, Control_c, 0, 64, 0
2, 162232, Note_on_c, 0, 39, 63
2, 162249, Note_off_c, 0, 56, 64
2, 162278, Note_on_c, 0, 58, 56
2, 162280, Control_c, 0, 64, 127
2, 162294, Note_off_c, 0, 55, 64
2, 162339, Note_on_c, 0, 62, 53
2, 162369, Note_off_c, 0, 58, 64
2, 162400, Note_on_c, 0, 64, 45
2, 162420, Note_off_c, 0, 62, 64
2, 162434, Note_off_c, 0, 46, 64
2, 162442, Note_off_c, 0, 39, 64
2, 162454, Note_on_c, 0, 63, 70
2, 162471, Note_off_c, 0, 64, 64
2, 162517, Note_on_c, 0, 75, 56
2, 162537, Note_off_c, 0, 63, 64
2, 162580, Note_on_c, 0, 40, 86
2, 162596, Note_off_c, 0, 75, 64
2, 162599, Note_on_c, 0, 56, 84
2, 162610, Note_on_c, 0, 47, 77
2, 162615, Control_c, 0, 64, 0
2, 162631, Note_on_c, 0, 71, 84
2, 162632, Note_on_c, 0, 53, 76
2, 162641, Note_off_c, 0, 56, 64
2, 162662, Control_c, 0, 64, 127
2, 162692, Note_on_c, 0, 68, 77
2, 162707, Note_off_c, 0, 71, 64
2, 162737, Note_on_c, 0, 65, 72
2, 162749, Note_off_c, 0, 68, 64
2, 162793, Note_on_c, 0, 58, 63
2, 162818, Note_off_c, 0, 65, 64
2, 162840, Note_on_c, 0, 59, 78
2, 162859, Note_off_c, 0, 47, 64
2, 162875, Note_off_c, 0, 58, 64
2, 162876, Note_off_c, 0, 40, 64
2, 162894, Note_on_c, 0, 56, 65
2, 162899, Note_off_c, 0, 53, 64
2, 162910, Note_off_c, 0, 59, 64
2, 162933, Control_c, 0, 64, 0
2, 162951, Note_on_c, 0, 55, 69
2, 162955, Note_on_c, 0, 46, 65
2, 162955, Note_on_c, 0, 39, 64
2, 162971, Note_off_c, 0, 56, 64
2, 162978, Control_c, 0, 64, 127
2, 162999, Note_on_c, 0, 58, 58
2, 163009, Note_off_c, 0, 55, 64
2, 163056, Note_on_c, 0, 62, 57
2, 163076, Note_off_c, 0, 58, 64
2, 163100, Note_off_c, 0, 39, 64
2, 163102, Note_on_c, 0, 64, 41
2, 163116, Note_off_c, 0, 46, 64
2, 163125, Note_off_c, 0, 62, 64
2, 163161, Note_on_c, 0, 63, 60
2, 163172, Note_off_c, 0, 64, 64
2, 163210, Note_on_c, 0, 75, 55
2, 163221, Note_on_c, 0, 43, 58
2, 163223, Note_off_c, 0, 63, 64
2, 163232, Control_c, 0, 64, 0
2, 163236, Note_on_c, 0, 51, 68
2, 163262, Note_off_c, 0, 43, 64
2, 163268, Note_on_c, 0, 58, 72
2, 163273, Note_off_c, 0, 51, 64
2, 163276, Note_on_c, 0, 71, 73
2, 163276, Control_c, 0, 64, 127
2, 163292, Note_off_c, 0, 75, 64
2, 163308, Note_off_c, 0, 58, 64
2, 163322, Note_on_c, 0, 70, 75
2, 163333, Note_off_c, 0, 71, 64
2, 163372, Note_on_c, 0, 46, 73
2, 163374, Note_on_c, 0, 82, 62
2, 163392, Note_off_c, 0, 70, 64
2, 163398, Note_on_c, 0, 55, 65
2, 163408, Note_off_c, 0, 46, 64
2, 163427, Note_on_c, 0, 63, 45
2, 163430, Note_on_c, 0, 76, 73
2, 163434, Note_off_c, 0, 55, 64
2, 163440, Note_off_c, 0, 82, 64
2, 163457, Note_off_c, 0, 63, 64
2, 163475, Note_on_c, 0, 75, 81
2, 163490, Note_off_c, 0, 76, 64
2, 163524, Note_on_c, 0, 51, 83
2, 163532, Note_on_c, 0, 87, 75
2, 163546, Note_off_c, 0, 75, 64
2, 163558, Note_on_c, 0, 58, 83
2, 163564, Note_off_c, 0, 51, 64
2, 163584, Note_on_c, 0, 67, 79
2, 163586, Note_on_c, 0, 83, 73
2, 163590, Note_off_c, 0, 58, 64
2, 163592, Note_off_c, 0, 87, 64
2, 163616, Note_off_c, 0, 67, 64
2, 163630, Note_on_c, 0, 82, 68
2, 163654, Note_off_c, 0, 83, 64
2, 163676, Note_on_c, 0, 94, 70
2, 163690, Note_on_c, 0, 55, 54
2, 163700, Note_off_c, 0, 82, 64
2, 163716, Note_on_c, 0, 63, 85
2, 163726, Note_off_c, 0, 55, 64
2, 163734, Note_on_c, 0, 88, 78
2, 163741, Note_on_c, 0, 70, 91
2, 163744, Note_off_c, 0, 63, 64
2, 163756, Note_off_c, 0, 94, 64
2, 163780, Note_off_c, 0, 70, 64
2, 163790, Note_on_c, 0, 87, 75
2, 163817, Note_off_c, 0, 88, 64
2, 163841, Note_on_c, 0, 99, 70
2, 163861, Note_off_c, 0, 87, 64
2, 163868, Note_on_c, 0, 58, 60
2, 163883, Control_c, 0, 64, 0
2, 163884, Note_on_c, 0, 67, 36
2, 163892, Note_on_c, 0, 94, 87
2, 163894, Note_on_c, 0, 75, 68
2, 163916, Control_c, 0, 64, 127
2, 163918, Note_off_c, 0, 99, 64
2, 163948, Note_on_c, 0, 91, 58
2, 163974, Note_off_c, 0, 94, 64
2, 163980, Note_off_c, 0, 58, 64
2, 163984, Note_off_c, 0, 67, 64
2, 163999, Note_on_c, 0, 87, 81
2, 164007, Note_off_c, 0, 75, 64
2, 164031, Note_off_c, 0, 91, 64
2, 164048, Note_on_c, 0, 82, 88
2, 164064, Note_off_c, 0, 87, 64
2, 164099, Note_on_c, 0, 79, 79
2, 164113, Note_off_c, 0, 82, 64
2, 164149, Note_on_c, 0, 75, 94
2, 164167, Note_off_c, 0, 79, 64
2, 164200, Note_on_c, 0, 70, 81
2, 164227, Note_off_c, 0, 75, 64
2, 164250, Note_on_c, 0, 67, 89
2, 164270, Note_off_c, 0, 70, 64
2, 164301, Note_on_c, 0, 63, 86
2, 164326, Note_off_c, 0, 67, 64
2, 164364, Note_on_c, 0, 58, 95
2, 164370, Note_off_c, 0, 63, 64
2, 164422, Note_on_c, 0, 51, 93
2, 164437, Note_off_c, 0, 58, 64
2, 164479, Note_on_c, 0, 39, 99
2, 164493, Note_off_c, 0, 51, 64
2, 164555, Control_c, 0, 64, 0
2, 164590, Note_on_c, 0, 27, 91
2, 164716, Control_c, 0, 64, 127
2, 164818, Note_on_c, 0, 46, 57
2, 164882, Control_c, 0, 64, 0
2, 164898, Note_on_c, 0, 51, 66
2, 164986, Note_on_c, 0, 56, 62
2, 165053, Note_on_c, 0, 55, 68
2, 165078, Note_off_c, 0, 56, 64
2, 165083, Note_off_c, 0, 51, 64
2, 165125, Note_on_c, 0, 53, 56
2, 165151, Note_off_c, 0, 55, 64
2, 165174, Control_c, 0, 64, 127
2, 165184, Note_off_c, 0, 53, 64
2, 165194, Note_on_c, 0, 51, 74
2, 165266, Note_on_c, 0, 55, 73
2, 165341, Note_on_c, 0, 56, 70
2, 165359, Control_c, 0, 64, 0
2, 165405, Note_on_c, 0, 60, 68
2, 165418, Control_c, 0, 64, 0
2, 165432, Note_off_c, 0, 56, 64
2, 165484, Note_off_c, 0, 60, 64
2, 165486, Note_on_c, 0, 58, 72
2, 165505, Note_off_c, 0, 27, 64
2, 165560, Control_c, 0, 64, 127
2, 165573, Note_off_c, 0, 39, 64
2, 165706, Note_off_c, 0, 55, 64
2, 165709, Note_off_c, 0, 51, 64
2, 165728, Note_off_c, 0, 58, 64
2, 165736, Note_off_c, 0, 46, 64
2, 166052, Note_on_c, 0, 58, 59
2, 166062, Note_on_c, 0, 70, 54
2, 166062, Note_on_c, 0, 63, 52
2, 166068, Note_on_c, 0, 67, 57
2, 166069, Note_on_c, 0, 51, 35
2, 166091, Control_c, 0, 64, 0
2, 166120, Control_c, 0, 64, 127
2, 166498, Note_on_c, 0, 72, 48
2, 166500, Note_on_c, 0, 60, 38
2, 166510, Note_off_c, 0, 70, 64
2, 166516, Note_off_c, 0, 58, 64
2, 166565, Control_c, 0, 64, 0
2, 166581, Note_on_c, 0, 58, 65
2, 166584, Note_on_c, 0, 70, 68
2, 166590, Note_off_c, 0, 72, 64
2, 166618, Control_c, 0, 64, 127
2, 166623, Note_off_c, 0, 67, 64
2, 166658, Note_off_c, 0, 60, 64
2, 166718, Note_off_c, 0, 58, 64
2, 166728, Note_off_c, 0, 51, 64
2, 166747, Note_off_c, 0, 63, 64
2, 166755, Note_off_c, 0, 70, 64
2, 166932, Note_on_c, 0, 46, 70
2, 166977, Control_c, 0, 64, 0
2, 167001, Note_on_c, 0, 51, 54
2, 167066, Note_on_c, 0, 56, 58
2, 167124, Note_on_c, 0, 55, 68
2, 167134, Note_on_c, 0, 39, 63
2, 167143, Note_off_c, 0, 51, 64
2, 167147, Note_off_c, 0, 56, 64
2, 167152, Control_c, 0, 64, 127
2, 167194, Note_on_c, 0, 53, 55
2, 167204, Note_off_c, 0, 55, 64
2, 167243, Note_off_c, 0, 53, 64
2, 167253, Note_on_c, 0, 51, 67
2, 167316, Note_on_c, 0, 55, 66
2, 167377, Note_on_c, 0, 58, 56
2, 167405, Note_off_c, 0, 55, 64
2, 167449, Note_on_c, 0, 63, 63
2, 167454, Note_off_c, 0, 58, 64
2, 167477, Control_c, 0, 64, 0
2, 167525, Note_on_c, 0, 58, 71
2, 167540, Note_off_c, 0, 63, 64
2, 167568, Control_c, 0, 64, 127
2, 168001, Note_on_c, 0, 70, 53
2, 168006, Note_on_c, 0, 75, 53
2, 168007, Note_on_c, 0, 82, 72
2, 168012, Note_on_c, 0, 79, 48
2, 168015, Note_on_c, 0, 63, 42
2, 168148, Note_off_c, 0, 75, 64
2, 168244, Note_off_c, 0, 79, 64
2, 168418, Note_off_c, 0, 70, 64
2, 168434, Note_on_c, 0, 75, 42
2, 168442, Note_on_c, 0, 87, 52
2, 168449, Note_off_c, 0, 82, 64
2, 168530, Note_on_c, 0, 82, 46
2, 168533, Note_on_c, 0, 70, 62
2, 168542, Note_off_c, 0, 87, 64
2, 168546, Note_off_c, 0, 75, 64
2, 168680, Control_c, 0, 64, 0
2, 168786, Control_c, 0, 64, 127
2, 168827, Note_off_c, 0, 46, 64
2, 168865, Note_off_c, 0, 63, 64
2, 168880, Note_off_c, 0, 51, 64
2, 168889, Note_off_c, 0, 39, 64
2, 168899, Note_off_c, 0, 58, 64
2, 168902, Note_on_c, 0, 46, 43
2, 168979, Note_on_c, 0, 51, 43
2, 169040, Control_c, 0, 64, 0
2, 169071, Note_on_c, 0, 56, 43
2, 169110, Note_off_c, 0, 70, 64
2, 169130, Note_on_c, 0, 39, 37
2, 169136, Note_off_c, 0, 82, 64
2, 169136, Note_on_c, 0, 27, 37
2, 169139, Note_on_c, 0, 54, 43
2, 169146, Control_c, 0, 64, 127
2, 169157, Note_off_c, 0, 56, 64
2, 169157, Note_off_c, 0, 51, 64
2, 169213, Note_on_c, 0, 53, 43
2, 169222, Note_off_c, 0, 54, 64
2, 169282, Note_off_c, 0, 53, 64
2, 169289, Note_on_c, 0, 51, 43
2, 169326, Note_off_c, 0, 27, 64
2, 169358, Note_on_c, 0, 54, 43
2, 169440, Note_on_c, 0, 56, 43
2, 169509, Note_on_c, 0, 59, 43
2, 169532, Note_off_c, 0, 56, 64
2, 169576, Note_on_c, 0, 58, 43
2, 169577, Note_off_c, 0, 59, 64
2, 169599, Control_c, 0, 64, 0
2, 169696, Control_c, 0, 64, 127
2, 169804, Note_off_c, 0, 51, 64
2, 169811, Note_off_c, 0, 54, 64
2, 169814, Note_off_c, 0, 39, 64
2, 169826, Note_off_c, 0, 46, 64
2, 169831, Note_off_c, 0, 58, 64
2, 170061, Note_on_c, 0, 58, 37
2, 170067, Note_on_c, 0, 70, 47
2, 170067, Note_on_c, 0, 63, 43
2, 170072, Note_on_c, 0, 51, 28
2, 170076, Note_on_c, 0, 66, 38
2, 170386, Note_off_c, 0, 70, 64
2, 170446, Note_on_c, 0, 71, 22
2, 170447, Note_on_c, 0, 59, 34
2, 170464, Note_off_c, 0, 58, 64
2, 170490, Control_c, 0, 64, 0
2, 170507, Note_off_c, 0, 71, 64
2, 170508, Note_on_c, 0, 70, 49
2, 170518, Note_on_c, 0, 58, 39
2, 170535, Control_c, 0, 64, 127
2, 170547, Note_off_c, 0, 59, 64
2, 170605, Note_off_c, 0, 51, 64
2, 170642, Note_off_c, 0, 58, 64
2, 170661, Note_off_c, 0, 66, 64
2, 170682, Note_off_c, 0, 63, 64
2, 170689, Note_off_c, 0, 70, 64
2, 170870, Note_on_c, 0, 46, 34
2, 170930, Note_on_c, 0, 51, 45
2, 171007, Note_on_c, 0, 56, 47
2, 171062, Note_on_c, 0, 54, 48
2, 171081, Control_c, 0, 64, 0
2, 171087, Note_off_c, 0, 56, 64
2, 171087, Note_on_c, 0, 39, 39
2, 171094, Note_off_c, 0, 51, 64
2, 171133, Note_on_c, 0, 53, 51
2, 171149, Note_off_c, 0, 54, 64
2, 171154, Control_c, 0, 64, 127
2, 171188, Note_on_c, 0, 51, 48
2, 171195, Note_off_c, 0, 53, 64
2, 171259, Note_on_c, 0, 54, 52
2, 171324, Note_on_c, 0, 58, 40
2, 171400, Note_on_c, 0, 63, 49
2, 171414, Note_off_c, 0, 58, 64
2, 171438, Control_c, 0, 64, 0
2, 171492, Note_on_c, 0, 58, 44
2, 171513, Note_off_c, 0, 63, 64
2, 171529, Control_c, 0, 64, 127
2, 171633, Note_off_c, 0, 54, 64
2, 171641, Note_off_c, 0, 51, 64
2, 171649, Note_off_c, 0, 39, 64
2, 171660, Note_off_c, 0, 46, 64
2, 171664, Note_off_c, 0, 58, 64
2, 171998, Note_on_c, 0, 70, 38
2, 172007, Note_on_c, 0, 78, 48
2, 172011, Note_on_c, 0, 82, 48
2, 172012, Note_on_c, 0, 75, 45
2, 172030, Note_on_c, 0, 63, 45
2, 172164, Note_off_c, 0, 63, 64
2, 172185, Note_off_c, 0, 70, 64
2, 172200, Note_off_c, 0, 75, 64
2, 172226, Note_off_c, 0, 78, 64
2, 172246, Note_off_c, 0, 82, 64
2, 172534, Note_on_c, 0, 78, 32
2, 172538, Note_on_c, 0, 90, 47
2, 172677, Note_off_c, 0, 78, 64
2, 172688, Note_off_c, 0, 90, 64
2, 172764, Note_on_c, 0, 78, 30
2, 172771, Note_on_c, 0, 90, 28
2, 172825, Control_c, 0, 64, 0
2, 172861, Control_c, 0, 64, 127
2, 173070, Note_off_c, 0, 90, 64
2, 173094, Note_off_c, 0, 78, 64
2, 173301, Note_on_c, 0, 49, 50
2, 173438, Note_on_c, 0, 54, 41
2, 173472, Note_off_c, 0, 49, 64
2, 173556, Note_off_c, 0, 54, 64
2, 173569, Note_on_c, 0, 59, 41
2, 173700, Note_off_c, 0, 59, 64
2, 173708, Note_on_c, 0, 58, 40
2, 173717, Note_on_c, 0, 30, 48
2, 173717, Note_on_c, 0, 42, 48
2, 173737, Control_c, 0, 64, 0
2, 173804, Control_c, 0, 64, 127
2, 173834, Note_on_c, 0, 54, 48
2, 173843, Note_off_c, 0, 58, 64
2, 173903, Note_off_c, 0, 54, 64
2, 173916, Note_on_c, 0, 49, 47
2, 174011, Note_on_c, 0, 54, 47
2, 174016, Note_off_c, 0, 49, 64
2, 174094, Note_off_c, 0, 54, 64
2, 174099, Note_on_c, 0, 58, 47
2, 174167, Note_on_c, 0, 63, 47
2, 174169, Note_off_c, 0, 58, 64
2, 174231, Note_on_c, 0, 61, 47
2, 174237, Note_off_c, 0, 63, 64
2, 174304, Note_on_c, 0, 58, 47
2, 174305, Note_off_c, 0, 61, 64
2, 174350, Note_off_c, 0, 58, 64
2, 174352, Note_on_c, 0, 54, 47
2, 174412, Note_on_c, 0, 58, 47
2, 174424, Note_off_c, 0, 54, 64
2, 174469, Note_on_c, 0, 61, 47
2, 174478, Note_off_c, 0, 58, 64
2, 174516, Note_on_c, 0, 68, 47
2, 174524, Note_off_c, 0, 61, 64
2, 174569, Note_on_c, 0, 66, 47
2, 174595, Note_off_c, 0, 68, 64
2, 174595, Note_off_c, 0, 30, 64
2, 174617, Note_off_c, 0, 42, 64
2, 174627, Note_off_c, 0, 66, 64
2, 174630, Note_on_c, 0, 61, 47
2, 174675, Note_off_c, 0, 61, 64
2, 174677, Note_on_c, 0, 58, 47
2, 174720, Note_on_c, 0, 61, 47
2, 174736, Note_off_c, 0, 58, 64
2, 174766, Note_on_c, 0, 66, 46
2, 174773, Note_off_c, 0, 61, 64
2, 174812, Note_off_c, 0, 66, 64
2, 174818, Note_on_c, 0, 71, 46
2, 174826, Note_on_c, 0, 42, 46
2, 174856, Note_on_c, 0, 70, 46
2, 174869, Note_on_c, 0, 49, 46
2, 174873, Note_off_c, 0, 71, 64
2, 174881, Control_c, 0, 64, 0
2, 174917, Control_c, 0, 64, 127
2, 174927, Note_on_c, 0, 66, 46
2, 174932, Note_off_c, 0, 70, 64
2, 174932, Note_on_c, 0, 58, 46
2, 174952, Note_on_c, 0, 61, 46
2, 174953, Note_off_c, 0, 66, 64
2, 174995, Note_on_c, 0, 66, 46
2, 175021, Note_off_c, 0, 61, 64
2, 175037, Note_on_c, 0, 70, 46
2, 175044, Note_off_c, 0, 66, 64
2, 175081, Note_on_c, 0, 75, 46
2, 175090, Note_off_c, 0, 70, 64
2, 175120, Note_on_c, 0, 73, 46
2, 175142, Note_off_c, 0, 75, 64
2, 175175, Note_off_c, 0, 73, 64
2, 175181, Note_on_c, 0, 70, 46
2, 175217, Note_on_c, 0, 66, 46
2, 175227, Note_off_c, 0, 70, 64
2, 175263, Note_on_c, 0, 70, 46
2, 175283, Note_off_c, 0, 66, 64
2, 175297, Note_on_c, 0, 73, 45
2, 175308, Note_off_c, 0, 70, 64
2, 175350, Note_off_c, 0, 73, 64
2, 175354, Note_on_c, 0, 80, 45
2, 175386, Note_on_c, 0, 78, 45
2, 175406, Note_off_c, 0, 80, 64
2, 175440, Note_on_c, 0, 73, 45
2, 175448, Note_off_c, 0, 78, 64
2, 175471, Note_on_c, 0, 70, 45
2, 175485, Note_off_c, 0, 73, 64
2, 175514, Note_on_c, 0, 73, 45
2, 175521, Note_off_c, 0, 70, 64
2, 175536, Note_off_c, 0, 49, 64
2, 175548, Note_on_c, 0, 78, 45
2, 175559, Note_off_c, 0, 73, 64
2, 175588, Note_off_c, 0, 42, 64
2, 175598, Note_off_c, 0, 78, 64
2, 175607, Note_on_c, 0, 83, 45
2, 175629, Note_off_c, 0, 58, 64
2, 175634, Note_on_c, 0, 82, 45
2, 175649, Note_off_c, 0, 83, 64
2, 175690, Note_on_c, 0, 78, 45
2, 175696, Note_off_c, 0, 82, 64
2, 175721, Note_off_c, 0, 78, 64
2, 175726, Note_on_c, 0, 73, 45
2, 175763, Note_on_c, 0, 78, 45
2, 175782, Note_off_c, 0, 73, 64
2, 175795, Note_on_c, 0, 82, 45
2, 175803, Note_off_c, 0, 78, 64
2, 175812, Note_on_c, 0, 54, 45
2, 175839, Note_off_c, 0, 82, 64
2, 175840, Note_on_c, 0, 87, 45
2, 175852, Note_on_c, 0, 61, 45
2, 175868, Control_c, 0, 64, 0
2, 175873, Note_on_c, 0, 85, 45
2, 175898, Note_off_c, 0, 87, 64
2, 175901, Note_on_c, 0, 70, 45
2, 175910, Control_c, 0, 64, 127
2, 175931, Note_off_c, 0, 85, 64
2, 175931, Note_on_c, 0, 82, 45
2, 175955, Note_on_c, 0, 78, 45
2, 175958, Note_off_c, 0, 82, 64
2, 175998, Note_on_c, 0, 82, 45
2, 176015, Note_off_c, 0, 78, 64
2, 176029, Note_on_c, 0, 85, 45
2, 176037, Note_off_c, 0, 82, 64
2, 176058, Note_off_c, 0, 85, 64
2, 176065, Note_on_c, 0, 92, 45
2, 176095, Note_on_c, 0, 90, 45
2, 176113, Note_off_c, 0, 92, 64
2, 176136, Note_on_c, 0, 85, 44
2, 176148, Note_off_c, 0, 90, 64
2, 176165, Note_on_c, 0, 82, 44
2, 176172, Note_off_c, 0, 85, 64
2, 176205, Note_on_c, 0, 85, 44
2, 176217, Note_off_c, 0, 82, 64
2, 176241, Note_off_c, 0, 85, 64
2, 176245, Note_on_c, 0, 90, 44
2, 176281, Note_off_c, 0, 90, 64
2, 176285, Note_on_c, 0, 95, 44
2, 176314, Note_on_c, 0, 94, 44
2, 176333, Note_off_c, 0, 61, 64
2, 176334, Note_off_c, 0, 95, 64
2, 176355, Note_on_c, 0, 90, 44
2, 176376, Note_off_c, 0, 94, 64
2, 176391, Note_off_c, 0, 90, 64
2, 176391, Note_on_c, 0, 85, 43
2, 176435, Note_on_c, 0, 90, 43
2, 176451, Note_off_c, 0, 85, 64
2, 176474, Note_on_c, 0, 94, 43
2, 176479, Note_off_c, 0, 90, 64
2, 176510, Note_on_c, 0, 99, 43
2, 176513, Note_off_c, 0, 94, 64
2, 176544, Note_on_c, 0, 97, 43
2, 176565, Note_off_c, 0, 99, 64
2, 176574, Note_off_c, 0, 54, 64
2, 176587, Note_on_c, 0, 94, 43
2, 176596, Note_off_c, 0, 97, 64
2, 176596, Note_off_c, 0, 70, 64
2, 176623, Note_off_c, 0, 94, 64
2, 176634, Note_on_c, 0, 90, 43
2, 176663, Note_on_c, 0, 94, 43
2, 176680, Note_off_c, 0, 90, 64
2, 176689, Note_on_c, 0, 54, 43
2, 176693, Note_on_c, 0, 97, 43
2, 176701, Note_off_c, 0, 94, 64
2, 176724, Control_c, 0, 64, 0
2, 176734, Note_off_c, 0, 97, 64
2, 176734, Note_on_c, 0, 99, 43
2, 176739, Note_on_c, 0, 61, 43
2, 176769, Note_on_c, 0, 97, 43
2, 176772, Note_on_c, 0, 70, 43
2, 176772, Control_c, 0, 64, 127
2, 176788, Note_off_c, 0, 99, 64
2, 176807, Note_on_c, 0, 94, 43
2, 176822, Note_off_c, 0, 97, 64
2, 176845, Note_on_c, 0, 90, 43
2, 176846, Note_off_c, 0, 94, 64
2, 176867, Note_off_c, 0, 54, 64
2, 176886, Note_on_c, 0, 94, 43
2, 176909, Note_off_c, 0, 90, 64
2, 176922, Note_on_c, 0, 97, 43
2, 176931, Note_off_c, 0, 94, 64
2, 176967, Note_on_c, 0, 99, 43
2, 176970, Note_off_c, 0, 97, 64
2, 177004, Note_on_c, 0, 97, 43
2, 177027, Note_off_c, 0, 99, 64
2, 177048, Note_off_c, 0, 61, 64
2, 177058, Note_on_c, 0, 94, 43
2, 177071, Note_off_c, 0, 97, 64
2, 177073, Note_off_c, 0, 70, 64
2, 177095, Note_off_c, 0, 94, 64
2, 177101, Note_on_c, 0, 90, 43
2, 177140, Note_on_c, 0, 94, 43
2, 177170, Note_off_c, 0, 90, 64
2, 177176, Note_on_c, 0, 97, 43
2, 177186, Note_off_c, 0, 94, 64
2, 177223, Note_on_c, 0, 54, 42
2, 177233, Note_on_c, 0, 99, 42
2, 177239, Note_off_c, 0, 97, 64
2, 177286, Note_on_c, 0, 61, 42
2, 177300, Note_on_c, 0, 97, 42
2, 177324, Note_off_c, 0, 54, 64
2, 177329, Note_off_c, 0, 99, 64
2, 177329, Note_on_c, 0, 70, 42
2, 177352, Note_on_c, 0, 94, 42
2, 177365, Note_off_c, 0, 61, 64
2, 177372, Note_off_c, 0, 97, 64
2, 177398, Note_off_c, 0, 94, 64
2, 177412, Note_on_c, 0, 90, 42
2, 177428, Note_off_c, 0, 70, 64
2, 177452, Note_on_c, 0, 94, 42
2, 177496, Note_off_c, 0, 90, 64
2, 177504, Note_on_c, 0, 97, 41
2, 177518, Note_off_c, 0, 94, 64
2, 177526, Note_on_c, 0, 54, 41
2, 177569, Note_on_c, 0, 99, 41
2, 177580, Note_off_c, 0, 97, 64
2, 177590, Note_on_c, 0, 61, 41
2, 177607, Note_off_c, 0, 54, 64
2, 177634, Note_on_c, 0, 97, 41
2, 177640, Note_on_c, 0, 70, 41
2, 177653, Note_off_c, 0, 99, 64
2, 177660, Note_off_c, 0, 61, 64
2, 177699, Note_off_c, 0, 70, 64
2, 177699, Note_on_c, 0, 94, 41
2, 177707, Note_off_c, 0, 97, 64
2, 177747, Note_off_c, 0, 94, 64
2, 177760, Note_on_c, 0, 90, 41
2, 177821, Note_on_c, 0, 94, 41
2, 177867, Note_off_c, 0, 90, 64
2, 177880, Note_on_c, 0, 97, 41
2, 177898, Note_off_c, 0, 94, 64
2, 177949, Note_on_c, 0, 54, 41
2, 177971, Note_on_c, 0, 99, 41
2, 177975, Note_off_c, 0, 97, 64
2, 178025, Note_on_c, 0, 61, 40
2, 178094, Note_on_c, 0, 70, 40
2, 178142, Note_on_c, 0, 97, 40
2, 178167, Note_off_c, 0, 99, 64
2, 178304, Note_off_c, 0, 97, 64
2, 178308, Note_off_c, 0, 61, 64
2, 178318, Note_off_c, 0, 54, 64
2, 178320, Note_off_c, 0, 70, 64
2, 179258, Control_c, 0, 64, 0
2, 179280, Note_on_c, 0, 54, 42
2, 179286, Note_on_c, 0, 66, 38
2, 179289, Note_on_c, 0, 90, 61
2, 179292, Note_on_c, 0, 78, 52
2, 179317, Control_c, 0, 64, 127
2, 179449, Note_off_c, 0, 78, 64
2, 179449, Note_off_c, 0, 90, 64
2, 179453, Note_off_c, 0, 66, 64
2, 179470, Note_off_c, 0, 54, 64
2, 179751, Note_on_c, 0, 66, 45
2, 179758, Note_on_c, 0, 54, 48
2, 179761, Note_on_c, 0, 78, 62
2, 179761, Note_on_c, 0, 42, 46
2, 179803, Control_c, 0, 64, 0
2, 179818, Control_c, 0, 64, 127
2, 180001, Note_off_c, 0, 66, 64
2, 180010, Note_off_c, 0, 42, 64
2, 180022, Note_off_c, 0, 54, 64
2, 180024, Note_off_c, 0, 78, 64
2, 180430, Note_on_c, 0, 66, 52
2, 180430, Note_on_c, 0, 54, 38
2, 180433, Note_on_c, 0, 30, 38
2, 180439, Note_on_c, 0, 42, 38
2, 180515, Control_c, 0, 64, 0
2, 180572, Control_c, 0, 64, 127
2, 182160, Note_off_c, 0, 54, 64
2, 182160, Note_off_c, 0, 66, 64
2, 182160, Note_off_c, 0, 30, 64
2, 182160, Note_off_c, 0, 42, 64
2, 182168, Note_on_c, 0, 63, 42
2, 182168, Note_on_c, 0, 59, 50
2, 182168, Note_on_c, 0, 54, 35
2, 182168, Note_on_c, 0, 47, 32
2, 182168, Note_on_c, 0, 35, 31
2, 182176, Note_on_c, 0, 66, 63
2, 182482, Control_c, 0, 64, 127
2, 182663, Note_off_c, 0, 35, 64
2, 182663, Note_off_c, 0, 47, 64
2, 182663, Note_off_c, 0, 54, 64
2, 182663, Note_off_c, 0, 59, 64
2, 182663, Note_off_c, 0, 63, 64
2, 182904, Note_on_c, 0, 63, 50
2, 182904, Note_on_c, 0, 59, 51
2, 182904, Note_on_c, 0, 54, 45
2, 182904, Note_on_c, 0, 47, 34
2, 182904, Note_on_c, 0, 35, 25
2, 182951, Note_off_c, 0, 66, 64
2, 183072, Control_c, 0, 64, 0
2, 183161, Control_c, 0, 64, 127
2, 183529, Note_off_c, 0, 35, 64
2, 183529, Note_off_c, 0, 47, 64
2, 183529, Note_off_c, 0, 54, 64
2, 183529, Note_off_c, 0, 59, 64
2, 183529, Note_off_c, 0, 63, 64
2, 183639, Control_c, 0, 64, 0
2, 183690, Control_c, 0, 64, 127
2, 183712, Note_on_c, 0, 66, 57
2, 183712, Note_on_c, 0, 63, 47
2, 183712, Note_on_c, 0, 47, 45
2, 183720, Note_on_c, 0, 54, 39
2, 183887, Note_off_c, 0, 47, 64
2, 183887, Note_off_c, 0, 63, 64
2, 183895, Note_off_c, 0, 54, 64
2, 183961, Note_on_c, 0, 63, 51
2, 183962, Note_on_c, 0, 71, 58
2, 183969, Note_on_c, 0, 47, 44
2, 183971, Note_on_c, 0, 54, 39
2, 183977, Note_off_c, 0, 66, 64
2, 184043, Control_c, 0, 64, 0
2, 184151, Control_c, 0, 64, 127
2, 184477, Note_on_c, 0, 70, 60
2, 184495, Note_off_c, 0, 71, 64
2, 184701, Note_on_c, 0, 68, 46
2, 184710, Note_off_c, 0, 70, 64
2, 184990, Control_c, 0, 64, 0
2, 184999, Note_on_c, 0, 66, 34
2, 185019, Note_off_c, 0, 68, 64
2, 185060, Control_c, 0, 64, 127
2, 185181, Note_off_c, 0, 54, 64
2, 185201, Note_off_c, 0, 47, 64
2, 185203, Note_off_c, 0, 66, 64
2, 185216, Note_off_c, 0, 63, 64
2, 185485, Note_on_c, 0, 35, 37
2, 185488, Note_on_c, 0, 54, 43
2, 185489, Note_on_c, 0, 47, 37
2, 185497, Note_on_c, 0, 63, 40
2, 185498, Note_on_c, 0, 59, 40
2, 185535, Note_off_c, 0, 35, 64
2, 185551, Note_off_c, 0, 54, 64
2, 185552, Note_off_c, 0, 47, 64
2, 185560, Note_off_c, 0, 63, 64
2, 185561, Note_off_c, 0, 59, 64
2, 185564, Note_on_c, 0, 54, 37
2, 185569, Note_on_c, 0, 35, 40
2, 185574, Note_on_c, 0, 47, 27
2, 185576, Note_on_c, 0, 63, 43
2, 185576, Note_on_c, 0, 59, 39
2, 185593, Control_c, 0, 64, 0
2, 185689, Control_c, 0, 64, 127
2, 185827, Note_off_c, 0, 35, 64
2, 186042, Note_off_c, 0, 59, 64
2, 186079, Note_on_c, 0, 64, 51
2, 186082, Note_on_c, 0, 40, 45
2, 186083, Note_on_c, 0, 56, 48
2, 186088, Note_on_c, 0, 59, 51
2, 186098, Control_c, 0, 64, 0
2, 186099, Note_off_c, 0, 54, 64
2, 186100, Note_off_c, 0, 47, 64
2, 186102, Note_off_c, 0, 63, 64
2, 186175, Control_c, 0, 64, 127
2, 186343, Note_off_c, 0, 59, 64
2, 186352, Note_on_c, 0, 63, 47
2, 186352, Note_on_c, 0, 59, 50
2, 186352, Note_on_c, 0, 54, 50
2, 186357, Note_off_c, 0, 64, 64
2, 186361, Note_on_c, 0, 47, 38
2, 186366, Control_c, 0, 64, 0
2, 186383, Note_off_c, 0, 40, 64
2, 186384, Note_off_c, 0, 56, 64
2, 186427, Control_c, 0, 64, 127
2, 186607, Note_off_c, 0, 59, 64
2, 186638, Note_on_c, 0, 64, 48
2, 186638, Note_on_c, 0, 59, 51
2, 186638, Note_on_c, 0, 56, 54
2, 186648, Note_on_c, 0, 40, 39
2, 186657, Note_off_c, 0, 63, 64
2, 186657, Control_c, 0, 64, 0
2, 186667, Note_off_c, 0, 54, 64
2, 186676, Note_off_c, 0, 47, 64
2, 186716, Control_c, 0, 64, 127
2, 186950, Control_c, 0, 64, 0
2, 186953, Note_off_c, 0, 59, 64
2, 186953, Note_off_c, 0, 64, 64
2, 186963, Note_off_c, 0, 56, 64
2, 186963, Note_on_c, 0, 68, 49
2, 186964, Note_on_c, 0, 59, 53
2, 186968, Note_on_c, 0, 37, 49
2, 186973, Note_off_c, 0, 40, 64
2, 186974, Note_on_c, 0, 64, 51
2, 187030, Control_c, 0, 64, 127
2, 187360, Note_on_c, 0, 61, 52
2, 187364, Note_on_c, 0, 52, 45
2, 187368, Note_on_c, 0, 58, 53
2, 187372, Note_on_c, 0, 42, 27
2, 187388, Note_off_c, 0, 68, 64
2, 187389, Note_off_c, 0, 59, 64
2, 187393, Note_off_c, 0, 37, 64
2, 187399, Note_off_c, 0, 64, 64
2, 187442, Control_c, 0, 64, 0
2, 187544, Control_c, 0, 64, 127
2, 187895, Note_off_c, 0, 61, 64
2, 187900, Note_on_c, 0, 60, 58
2, 187910, Note_on_c, 0, 51, 42
2, 187929, Note_off_c, 0, 52, 64
2, 187940, Note_off_c, 0, 58, 64
2, 188113, Note_on_c, 0, 61, 56
2, 188113, Note_on_c, 0, 52, 41
2, 188129, Note_off_c, 0, 60, 64
2, 188139, Note_off_c, 0, 51, 64
2, 188342, Control_c, 0, 64, 0
2, 188363, Note_on_c, 0, 58, 41
2, 188365, Note_on_c, 0, 64, 54
2, 188370, Note_on_c, 0, 56, 36
2, 188376, Note_off_c, 0, 61, 64
2, 188419, Control_c, 0, 64, 127
2, 188500, Note_off_c, 0, 42, 64
2, 188551, Note_off_c, 0, 52, 64
2, 188795, Note_on_c, 0, 63, 47
2, 188800, Note_on_c, 0, 54, 45
2, 188818, Note_off_c, 0, 58, 64
2, 188820, Note_off_c, 0, 64, 64
2, 188825, Note_off_c, 0, 56, 64
2, 188871, Note_off_c, 0, 63, 64
2, 188876, Note_off_c, 0, 54, 64
2, 188893, Note_on_c, 0, 63, 55
2, 188900, Note_on_c, 0, 59, 51
2, 188900, Note_on_c, 0, 54, 44
2, 188906, Note_on_c, 0, 47, 50
2, 188915, Control_c, 0, 64, 0
2, 189021, Control_c, 0, 64, 127
2, 189428, Note_off_c, 0, 63, 64
2, 189470, Note_on_c, 0, 63, 38
2, 189475, Note_on_c, 0, 46, 40
2, 189476, Note_on_c, 0, 56, 36
2, 189479, Note_on_c, 0, 65, 39
2, 189495, Note_off_c, 0, 54, 64
2, 189495, Note_off_c, 0, 59, 64
2, 189501, Note_off_c, 0, 47, 64
2, 189506, Control_c, 0, 64, 0
2, 189613, Control_c, 0, 64, 127
2, 189716, Note_on_c, 0, 66, 62
2, 189738, Note_off_c, 0, 65, 64
2, 189839, Note_off_c, 0, 63, 64
2, 189909, Note_on_c, 0, 68, 58
2, 189914, Note_off_c, 0, 66, 64
2, 189928, Note_on_c, 0, 62, 53
2, 189932, Note_on_c, 0, 53, 45
2, 189943, Note_off_c, 0, 56, 64
2, 189973, Control_c, 0, 64, 0
2, 190083, Note_on_c, 0, 58, 33
2, 190089, Note_off_c, 0, 53, 64
2, 190104, Control_c, 0, 64, 127
2, 190254, Note_on_c, 0, 53, 50
2, 190256, Note_off_c, 0, 58, 64
2, 190344, Note_on_c, 0, 70, 62
2, 190356, Note_off_c, 0, 62, 64
2, 190357, Note_off_c, 0, 46, 64
2, 190368, Note_off_c, 0, 68, 64
2, 190505, Note_on_c, 0, 68, 58
2, 190506, Note_off_c, 0, 53, 64
2, 190511, Note_off_c, 0, 70, 64
2, 190513, Note_on_c, 0, 58, 40
2, 190514, Note_on_c, 0, 63, 31
2, 190522, Note_on_c, 0, 51, 30
2, 190549, Control_c, 0, 64, 0
2, 190725, Control_c, 0, 64, 127
2, 190883, Control_c, 0, 64, 0
2, 190968, Control_c, 0, 64, 127
2, 191059, Note_on_c, 0, 66, 41
2, 191117, Note_off_c, 0, 68, 64
2, 191468, Note_off_c, 0, 58, 64
2, 191469, Note_off_c, 0, 63, 64
2, 191474, Note_off_c, 0, 66, 64
2, 191477, Note_off_c, 0, 51, 64
2, 191559, Note_on_c, 0, 66, 56
2, 191563, Note_on_c, 0, 60, 52
2, 191568, Note_on_c, 0, 51, 28
2, 191568, Note_on_c, 0, 44, 44
2, 191573, Note_on_c, 0, 56, 28
2, 191593, Control_c, 0, 64, 0
2, 191680, Control_c, 0, 64, 127
2, 191968, Note_on_c, 0, 68, 45
2, 192053, Note_off_c, 0, 56, 64
2, 192074, Note_off_c, 0, 66, 64
2, 192077, Note_on_c, 0, 64, 52
2, 192078, Note_off_c, 0, 60, 64
2, 192083, Note_off_c, 0, 44, 64
2, 192083, Note_off_c, 0, 51, 64
2, 192090, Note_on_c, 0, 61, 42
2, 192090, Note_on_c, 0, 49, 44
2, 192097, Note_on_c, 0, 56, 30
2, 192112, Control_c, 0, 64, 0
2, 192113, Note_off_c, 0, 68, 64
2, 192228, Control_c, 0, 64, 127
2, 192632, Note_off_c, 0, 64, 64
2, 192645, Note_off_c, 0, 49, 64
2, 192645, Note_off_c, 0, 61, 64
2, 192652, Note_off_c, 0, 56, 64
2, 192662, Note_on_c, 0, 56, 36
2, 192667, Note_on_c, 0, 49, 28
2, 192672, Note_on_c, 0, 61, 48
2, 192674, Note_on_c, 0, 64, 43
2, 192688, Control_c, 0, 64, 0
2, 192744, Control_c, 0, 64, 127
2, 192917, Note_off_c, 0, 56, 64
2, 192922, Note_on_c, 0, 44, 44
2, 192928, Note_on_c, 0, 56, 47
2, 192931, Note_on_c, 0, 63, 52
2, 192939, Note_off_c, 0, 49, 64
2, 192939, Note_on_c, 0, 59, 52
2, 192948, Control_c, 0, 64, 0
2, 192957, Note_off_c, 0, 61, 64
2, 192959, Note_off_c, 0, 64, 64
2, 192994, Control_c, 0, 64, 127
2, 193203, Note_off_c, 0, 56, 64
2, 193207, Note_on_c, 0, 64, 53
2, 193212, Note_on_c, 0, 61, 43
2, 193212, Note_on_c, 0, 56, 37
2, 193216, Note_off_c, 0, 63, 64
2, 193220, Note_on_c, 0, 49, 36
2, 193220, Control_c, 0, 64, 0
2, 193224, Note_off_c, 0, 59, 64
2, 193233, Note_off_c, 0, 44, 64
2, 193277, Control_c, 0, 64, 127
2, 193497, Note_off_c, 0, 61, 64
2, 193512, Note_on_c, 0, 66, 41
2, 193517, Note_on_c, 0, 58, 44
2, 193518, Note_on_c, 0, 61, 45
2, 193522, Note_on_c, 0, 42, 43
2, 193529, Control_c, 0, 64, 0
2, 193532, Note_off_c, 0, 64, 64
2, 193546, Note_off_c, 0, 56, 64
2, 193554, Note_off_c, 0, 49, 64
2, 193590, Control_c, 0, 64, 127
2, 193897, Note_off_c, 0, 42, 64
2, 193897, Note_off_c, 0, 66, 64
2, 193902, Note_off_c, 0, 58, 64
2, 193903, Note_off_c, 0, 61, 64
2, 193904, Note_on_c, 0, 66, 57
2, 193911, Note_on_c, 0, 58, 45
2, 193911, Note_on_c, 0, 42, 44
2, 193912, Note_on_c, 0, 30, 44
2, 193920, Note_on_c, 0, 54, 36
2, 193921, Note_on_c, 0, 64, 43
2, 193986, Control_c, 0, 64, 0
2, 194092, Control_c, 0, 64, 127
2, 194544, Note_on_c, 0, 35, 36
2, 194545, Note_off_c, 0, 54, 64
2, 194552, Note_on_c, 0, 54, 34
2, 194557, Note_on_c, 0, 63, 27
2, 194562, Note_on_c, 0, 59, 29
2, 194566, Note_on_c, 0, 47, 28
2, 194599, Note_off_c, 0, 66, 64
2, 194606, Note_off_c, 0, 42, 64
2, 194606, Note_off_c, 0, 58, 64
2, 194607, Note_off_c, 0, 30, 64
2, 194616, Note_off_c, 0, 64, 64
2, 194646, Control_c, 0, 64, 0
2, 194726, Control_c, 0, 64, 127
2, 194843, Note_off_c, 0, 35, 64
2, 194954, Control_c, 0, 64, 0
2, 195060, Control_c, 0, 64, 127
2, 195187, Note_off_c, 0, 54, 64
2, 195192, Note_off_c, 0, 63, 64
2, 195197, Note_off_c, 0, 59, 64
2, 195200, Note_on_c, 0, 66, 51
2, 195200, Note_on_c, 0, 63, 33
2, 195200, Note_on_c, 0, 59, 40
2, 195201, Note_off_c, 0, 47, 64
2, 195204, Note_on_c, 0, 75, 62
2, 195239, Control_c, 0, 64, 0
2, 195317, Control_c, 0, 64, 127
2, 195704, Note_on_c, 0, 58, 45
2, 195705, Note_off_c, 0, 66, 64
2, 195712, Note_on_c, 0, 73, 64
2, 195712, Note_on_c, 0, 66, 49
2, 195712, Note_on_c, 0, 61, 33
2, 195745, Note_off_c, 0, 63, 64
2, 195748, Note_off_c, 0, 59, 64
2, 195749, Note_off_c, 0, 75, 64
2, 195794, Control_c, 0, 64, 0
2, 196245, Note_on_c, 0, 64, 34
2, 196245, Note_on_c, 0, 56, 26
2, 196260, Note_on_c, 0, 59, 20
2, 196276, Note_off_c, 0, 58, 64
2, 196284, Note_off_c, 0, 61, 64
2, 196284, Note_off_c, 0, 66, 64
2, 196300, Control_c, 0, 64, 127
2, 196722, Note_on_c, 0, 55, 43
2, 196730, Note_on_c, 0, 71, 56
2, 196751, Control_c, 0, 64, 0
2, 196767, Note_off_c, 0, 73, 64
2, 196780, Note_off_c, 0, 56, 64
2, 196828, Control_c, 0, 64, 127
2, 196864, Note_off_c, 0, 64, 64
2, 196921, Note_off_c, 0, 59, 64
2, 197174, Note_on_c, 0, 54, 44
2, 197181, Note_off_c, 0, 55, 64
2, 197182, Note_on_c, 0, 70, 62
2, 197184, Note_on_c, 0, 61, 33
2, 197189, Note_off_c, 0, 71, 64
2, 197194, Control_c, 0, 64, 0
2, 197269, Control_c, 0, 64, 127
2, 197664, Note_off_c, 0, 61, 64
2, 197666, Note_on_c, 0, 68, 45
2, 197674, Note_on_c, 0, 61, 33
2, 197674, Note_on_c, 0, 52, 33
2, 197682, Note_on_c, 0, 56, 30
2, 197699, Note_off_c, 0, 54, 64
2, 197707, Note_off_c, 0, 70, 64
2, 197824, Control_c, 0, 64, 0
2, 197953, Control_c, 0, 64, 127
2, 198154, Note_on_c, 0, 67, 40
2, 198154, Note_on_c, 0, 63, 4
2, 198158, Note_on_c, 0, 51, 46
2, 198162, Note_on_c, 0, 58, 42
2, 198173, Note_off_c, 0, 68, 64
2, 198181, Note_off_c, 0, 61, 64
2, 198189, Note_off_c, 0, 56, 64
2, 198191, Note_off_c, 0, 52, 64
2, 198199, Control_c, 0, 64, 0
2, 198294, Control_c, 0, 64, 127
2, 198721, Note_on_c, 0, 68, 57
2, 198728, Note_on_c, 0, 61, 38
2, 198728, Note_on_c, 0, 49, 39
2, 198730, Note_on_c, 0, 76, 57
2, 198740, Note_on_c, 0, 64, 28
2, 198749, Note_off_c, 0, 63, 64
2, 198749, Note_off_c, 0, 67, 64
2, 198753, Note_off_c, 0, 51, 64
2, 198757, Note_off_c, 0, 58, 64
2, 198785, Control_c, 0, 64, 0
2, 198883, Control_c, 0, 64, 127
2, 199216, Note_on_c, 0, 69, 54
2, 199224, Note_on_c, 0, 48, 28
2, 199226, Note_on_c, 0, 60, 33
2, 199234, Control_c, 0, 64, 0
2, 199256, Note_off_c, 0, 68, 64
2, 199263, Note_off_c, 0, 49, 64
2, 199263, Note_off_c, 0, 61, 64
2, 199303, Control_c, 0, 64, 127
2, 199616, Note_off_c, 0, 64, 64
2, 199696, Note_off_c, 0, 69, 64
2, 199701, Note_on_c, 0, 75, 60
2, 199706, Note_on_c, 0, 69, 56
2, 199710, Note_on_c, 0, 65, 54
2, 199711, Note_on_c, 0, 47, 34
2, 199717, Note_on_c, 0, 59, 39
2, 199731, Control_c, 0, 64, 0
2, 199735, Note_off_c, 0, 76, 64
2, 199759, Note_off_c, 0, 48, 64
2, 199761, Note_off_c, 0, 60, 64
2, 199848, Control_c, 0, 64, 127
2, 200165, Note_off_c, 0, 65, 64
2, 200176, Note_on_c, 0, 74, 59
2, 200176, Note_on_c, 0, 46, 45
2, 200182, Note_on_c, 0, 70, 54
2, 200187, Note_on_c, 0, 65, 51
2, 200188, Note_on_c, 0, 58, 34
2, 200209, Control_c, 0, 64, 0
2, 200226, Note_off_c, 0, 75, 64
2, 200231, Note_off_c, 0, 69, 64
2, 200236, Note_off_c, 0, 47, 64
2, 200242, Note_off_c, 0, 59, 64
2, 200314, Control_c, 0, 64, 127
2, 200670, Note_on_c, 0, 73, 58
2, 200675, Note_on_c, 0, 61, 41
2, 200679, Note_on_c, 0, 67, 47
2, 200684, Note_on_c, 0, 45, 35
2, 200685, Note_on_c, 0, 57, 36
2, 200701, Note_off_c, 0, 46, 64
2, 200701, Note_off_c, 0, 74, 64
2, 200707, Note_off_c, 0, 70, 64
2, 200711, Control_c, 0, 64, 0
2, 200712, Note_off_c, 0, 65, 64
2, 200713, Note_off_c, 0, 58, 64
2, 200812, Control_c, 0, 64, 127
2, 201145, Note_off_c, 0, 73, 64
2, 201160, Note_on_c, 0, 44, 45
2, 201163, Note_on_c, 0, 73, 57
2, 201167, Note_on_c, 0, 56, 36
2, 201168, Note_on_c, 0, 64, 37
2, 201172, Note_off_c, 0, 45, 64
2, 201173, Note_on_c, 0, 68, 36
2, 201200, Note_off_c, 0, 61, 64
2, 201204, Note_off_c, 0, 67, 64
2, 201210, Note_off_c, 0, 57, 64
2, 201231, Control_c, 0, 64, 0
2, 201328, Control_c, 0, 64, 127
2, 201659, Note_on_c, 0, 71, 53
2, 201662, Note_on_c, 0, 43, 49
2, 201677, Note_on_c, 0, 55, 33
2, 201685, Note_off_c, 0, 44, 64
2, 201687, Control_c, 0, 64, 0
2, 201692, Note_off_c, 0, 56, 64
2, 201783, Note_off_c, 0, 68, 64
2, 201789, Control_c, 0, 64, 127
2, 201907, Note_off_c, 0, 64, 64
2, 202120, Note_on_c, 0, 74, 53
2, 202130, Note_on_c, 0, 65, 30
2, 202158, Note_off_c, 0, 73, 64
2, 202578, Note_on_c, 0, 42, 34
2, 202582, Note_on_c, 0, 75, 53
2, 202585, Note_on_c, 0, 70, 52
2, 202592, Note_on_c, 0, 63, 33
2, 202593, Note_on_c, 0, 54, 33
2, 202600, Note_off_c, 0, 43, 64
2, 202600, Note_off_c, 0, 71, 64
2, 202607, Control_c, 0, 64, 0
2, 202615, Note_off_c, 0, 55, 64
2, 202645, Note_off_c, 0, 74, 64
2, 202655, Note_off_c, 0, 65, 64
2, 202704, Control_c, 0, 64, 127
2, 203040, Note_off_c, 0, 70, 64
2, 203056, Note_on_c, 0, 68, 49
2, 203056, Note_on_c, 0, 50, 37
2, 203060, Note_on_c, 0, 77, 60
2, 203060, Note_on_c, 0, 70, 56
2, 203063, Note_on_c, 0, 38, 45
2, 203097, Control_c, 0, 64, 0
2, 203103, Note_off_c, 0, 42, 64
2, 203107, Note_off_c, 0, 75, 64
2, 203117, Note_off_c, 0, 63, 64
2, 203118, Note_off_c, 0, 54, 64
2, 203182, Control_c, 0, 64, 127
2, 203524, Note_on_c, 0, 78, 62
2, 203528, Note_on_c, 0, 51, 32
2, 203528, Note_on_c, 0, 39, 42
2, 203531, Note_on_c, 0, 66, 41
2, 203569, Control_c, 0, 64, 0
2, 203591, Note_off_c, 0, 50, 64
2, 203591, Note_off_c, 0, 68, 64
2, 203595, Note_off_c, 0, 70, 64
2, 203595, Note_off_c, 0, 77, 64
2, 203598, Note_off_c, 0, 38, 64
2, 203668, Control_c, 0, 64, 127
2, 204008, Note_on_c, 0, 68, 52
2, 204008, Note_on_c, 0, 63, 47
2, 204012, Note_on_c, 0, 56, 48
2, 204012, Note_on_c, 0, 44, 36
2, 204015, Note_on_c, 0, 71, 54
2, 204022, Control_c, 0, 64, 0
2, 204049, Note_off_c, 0, 78, 64
2, 204053, Note_off_c, 0, 39, 64
2, 204053, Note_off_c, 0, 51, 64
2, 204056, Note_off_c, 0, 66, 64
2, 204099, Control_c, 0, 64, 127
2, 204463, Note_off_c, 0, 63, 64
2, 204463, Note_off_c, 0, 68, 64
2, 204470, Note_off_c, 0, 71, 64
2, 204480, Note_on_c, 0, 71, 55
2, 204480, Note_on_c, 0, 47, 49
2, 204480, Note_on_c, 0, 35, 52
2, 204482, Note_on_c, 0, 75, 65
2, 204484, Note_on_c, 0, 68, 52
2, 204485, Note_on_c, 0, 63, 43
2, 204519, Control_c, 0, 64, 0
2, 204537, Note_off_c, 0, 44, 64
2, 204537, Note_off_c, 0, 56, 64
2, 204594, Control_c, 0, 64, 0
2, 204629, Control_c, 0, 64, 127
2, 204905, Note_off_c, 0, 71, 64
2, 204909, Note_off_c, 0, 68, 64
2, 204910, Note_off_c, 0, 63, 64
2, 204952, Note_on_c, 0, 63, 51
2, 204952, Note_on_c, 0, 32, 52
2, 204956, Note_on_c, 0, 68, 56
2, 204956, Note_on_c, 0, 44, 52
2, 204958, Note_on_c, 0, 71, 68
2, 205000, Note_off_c, 0, 35, 64
2, 205000, Note_off_c, 0, 47, 64
2, 205007, Note_off_c, 0, 75, 64
2, 205043, Control_c, 0, 64, 0
2, 205058, Control_c, 0, 64, 0
2, 205148, Control_c, 0, 64, 127
2, 205436, Note_on_c, 0, 65, 47
2, 205440, Note_on_c, 0, 62, 33
2, 205440, Note_on_c, 0, 46, 44
2, 205440, Note_on_c, 0, 34, 52
2, 205441, Note_on_c, 0, 70, 56
2, 205471, Note_off_c, 0, 32, 64
2, 205475, Note_off_c, 0, 44, 64
2, 205487, Note_off_c, 0, 63, 64
2, 205491, Note_off_c, 0, 68, 64
2, 205493, Note_off_c, 0, 71, 64
2, 205503, Control_c, 0, 64, 0
2, 205554, Control_c, 0, 64, 0
2, 205593, Control_c, 0, 64, 127
2, 205916, Note_off_c, 0, 70, 64
2, 205928, Note_on_c, 0, 66, 40
2, 205932, Note_on_c, 0, 63, 31
2, 205932, Note_on_c, 0, 39, 34
2, 205932, Note_on_c, 0, 27, 48
2, 205933, Note_on_c, 0, 70, 49
2, 205961, Note_off_c, 0, 65, 64
2, 205965, Note_off_c, 0, 34, 64
2, 205965, Note_off_c, 0, 46, 64
2, 205965, Note_off_c, 0, 62, 64
2, 206005, Control_c, 0, 64, 0
2, 206092, Control_c, 0, 64, 127
2, 206408, Note_off_c, 0, 70, 64
2, 206452, Note_on_c, 0, 61, 28
2, 206456, Note_on_c, 0, 70, 50
2, 206456, Note_on_c, 0, 64, 36
2, 206456, Note_on_c, 0, 42, 25
2, 206456, Note_on_c, 0, 30, 33
2, 206473, Note_off_c, 0, 66, 64
2, 206477, Note_off_c, 0, 27, 64
2, 206477, Note_off_c, 0, 39, 64
2, 206477, Note_off_c, 0, 63, 64
2, 206492, Control_c, 0, 64, 0
2, 206606, Control_c, 0, 64, 127
2, 207040, Note_on_c, 0, 59, 46
2, 207057, Note_off_c, 0, 61, 64
2, 207061, Note_off_c, 0, 64, 64
2, 207090, Note_on_c, 0, 64, 46
2, 207091, Note_off_c, 0, 70, 64
2, 207121, Note_on_c, 0, 70, 45
2, 207174, Note_on_c, 0, 68, 50
2, 207188, Note_off_c, 0, 70, 64
2, 207212, Control_c, 0, 64, 0
2, 207340, Control_c, 0, 64, 127
2, 207581, Note_off_c, 0, 42, 64
2, 207602, Note_off_c, 0, 30, 64
2, 207745, Note_off_c, 0, 64, 64
2, 207755, Note_off_c, 0, 59, 64
2, 207759, Note_on_c, 0, 66, 64
2, 207760, Note_on_c, 0, 64, 19
2, 207767, Note_on_c, 0, 58, 36
2, 207769, Note_off_c, 0, 68, 64
2, 207944, Note_off_c, 0, 66, 64
2, 207960, Note_on_c, 0, 66, 52
2, 207960, Note_on_c, 0, 35, 31
2, 207963, Note_on_c, 0, 54, 26
2, 207964, Note_on_c, 0, 47, 31
2, 207971, Note_on_c, 0, 63, 26
2, 207975, Note_off_c, 0, 64, 64
2, 207982, Note_off_c, 0, 58, 64
2, 207982, Note_on_c, 0, 59, 27
2, 207986, Control_c, 0, 64, 0
2, 208050, Control_c, 0, 64, 0
2, 208074, Control_c, 0, 64, 127
2, 208455, Note_off_c, 0, 35, 64
2, 208458, Note_off_c, 0, 54, 64
2, 208459, Note_off_c, 0, 47, 64
2, 208476, Note_off_c, 0, 63, 64
2, 208477, Note_off_c, 0, 59, 64
2, 208486, Note_on_c, 0, 54, 40
2, 208493, Note_on_c, 0, 63, 33
2, 208494, Note_on_c, 0, 59, 34
2, 208494, Note_on_c, 0, 47, 31
2, 208504, Note_on_c, 0, 35, 21
2, 208564, Note_off_c, 0, 66, 64
2, 208592, Control_c, 0, 64, 0
2, 208730, Control_c, 0, 64, 127
2, 209111, Note_off_c, 0, 54, 64
2, 209118, Note_off_c, 0, 63, 64
2, 209119, Note_off_c, 0, 47, 64
2, 209119, Note_off_c, 0, 59, 64
2, 209129, Note_off_c, 0, 35, 64
2, 209149, Note_on_c, 0, 66, 54
2, 209150, Note_on_c, 0, 47, 42
2, 209155, Note_on_c, 0, 63, 34
2, 209155, Note_on_c, 0, 54, 39
2, 209188, Control_c, 0, 64, 0
2, 209336, Control_c, 0, 64, 127
2, 209435, Note_off_c, 0, 47, 64
2, 209440, Note_off_c, 0, 54, 64
2, 209440, Note_off_c, 0, 63, 64
2, 209464, Note_on_c, 0, 54, 41
2, 209468, Note_on_c, 0, 71, 58
2, 209468, Note_on_c, 0, 63, 51
2, 209476, Note_on_c, 0, 47, 44
2, 209488, Control_c, 0, 64, 0
2, 209524, Note_off_c, 0, 66, 64
2, 209678, Control_c, 0, 64, 127
2, 209800, Note_off_c, 0, 47, 64
2, 209834, Note_off_c, 0, 63, 64
2, 209896, Note_on_c, 0, 70, 56
2, 209903, Note_on_c, 0, 63, 54
2, 209908, Note_on_c, 0, 47, 53
2, 209914, Note_on_c, 0, 55, 41
2, 209919, Control_c, 0, 64, 0
2, 209926, Note_off_c, 0, 54, 64
2, 209943, Note_off_c, 0, 71, 64
2, 209986, Control_c, 0, 64, 127
2, 210058, Note_off_c, 0, 47, 64
2, 210079, Control_c, 0, 64, 0
2, 210088, Note_off_c, 0, 63, 64
2, 210105, Note_on_c, 0, 63, 59
2, 210110, Note_on_c, 0, 56, 61
2, 210113, Note_on_c, 0, 68, 58
2, 210114, Note_on_c, 0, 47, 45
2, 210124, Note_off_c, 0, 70, 64
2, 210141, Note_off_c, 0, 55, 64
2, 210150, Control_c, 0, 64, 127
2, 210244, Control_c, 0, 64, 0
2, 210360, Note_off_c, 0, 63, 64
2, 210383, Note_on_c, 0, 66, 61
2, 210388, Note_on_c, 0, 63, 39
2, 210388, Note_on_c, 0, 57, 52
2, 210392, Note_off_c, 0, 68, 64
2, 210397, Note_off_c, 0, 56, 64
2, 210450, Control_c, 0, 64, 127
2, 210829, Note_off_c, 0, 47, 64
2, 210868, Note_off_c, 0, 66, 64
2, 210873, Note_off_c, 0, 57, 64
2, 210873, Note_off_c, 0, 63, 64
2, 210912, Note_on_c, 0, 57, 50
2, 210918, Note_on_c, 0, 59, 52
2, 210919, Note_on_c, 0, 63, 52
2, 210923, Note_on_c, 0, 47, 50
2, 210957, Note_off_c, 0, 57, 64
2, 210963, Note_off_c, 0, 59, 64
2, 210964, Note_off_c, 0, 63, 64
2, 210968, Note_off_c, 0, 47, 64
2, 210988, Note_on_c, 0, 63, 51
2, 210988, Note_on_c, 0, 59, 51
2, 210995, Note_on_c, 0, 57, 47
2, 211000, Note_on_c, 0, 47, 46
2, 211022, Control_c, 0, 64, 0
2, 211168, Control_c, 0, 64, 127
2, 211443, Note_off_c, 0, 59, 64
2, 211450, Note_off_c, 0, 57, 64
2, 211458, Note_on_c, 0, 56, 57
2, 211459, Note_on_c, 0, 59, 58
2, 211467, Note_on_c, 0, 40, 41
2, 211468, Note_on_c, 0, 64, 51
2, 211485, Control_c, 0, 64, 0
2, 211501, Note_off_c, 0, 47, 64
2, 211513, Note_off_c, 0, 63, 64
2, 211572, Control_c, 0, 64, 127
2, 211694, Note_off_c, 0, 59, 64
2, 211698, Note_on_c, 0, 63, 60
2, 211704, Note_on_c, 0, 59, 57
2, 211704, Note_on_c, 0, 54, 54
2, 211704, Note_on_c, 0, 47, 52
2, 211722, Control_c, 0, 64, 0
2, 211733, Note_off_c, 0, 40, 64
2, 211743, Note_off_c, 0, 56, 64
2, 211753, Note_off_c, 0, 64, 64
2, 211790, Control_c, 0, 64, 127
2, 211939, Note_off_c, 0, 59, 64
2, 211941, Note_on_c, 0, 64, 57
2, 211941, Note_on_c, 0, 56, 60
2, 211946, Note_on_c, 0, 59, 56
2, 211953, Note_on_c, 0, 40, 52
2, 211960, Control_c, 0, 64, 0
2, 211983, Note_off_c, 0, 63, 64
2, 211987, Note_off_c, 0, 47, 64
2, 211989, Note_off_c, 0, 54, 64
2, 212038, Control_c, 0, 64, 127
2, 212181, Note_off_c, 0, 59, 64
2, 212187, Control_c, 0, 64, 0
2, 212216, Note_off_c, 0, 64, 64
2, 212227, Note_on_c, 0, 68, 57
2, 212231, Note_off_c, 0, 56, 64
2, 212231, Note_on_c, 0, 64, 37
2, 212239, Note_on_c, 0, 59, 45
2, 212239, Note_on_c, 0, 37, 47
2, 212249, Note_off_c, 0, 40, 64
2, 212277, Control_c, 0, 64, 127
2, 212620, Note_on_c, 0, 61, 54
2, 212623, Note_on_c, 0, 42, 44
2, 212628, Note_on_c, 0, 58, 34
2, 212628, Note_on_c, 0, 52, 38
2, 212642, Note_off_c, 0, 68, 64
2, 212646, Note_off_c, 0, 64, 64
2, 212654, Note_off_c, 0, 37, 64
2, 212654, Note_off_c, 0, 59, 64
2, 212749, Control_c, 0, 64, 0
2, 212865, Control_c, 0, 64, 127
2, 213129, Note_off_c, 0, 61, 64
2, 213133, Note_on_c, 0, 60, 57
2, 213133, Note_on_c, 0, 51, 52
2, 213156, Note_off_c, 0, 52, 64
2, 213156, Note_off_c, 0, 58, 64
2, 213264, Control_c, 0, 64, 0
2, 213339, Note_on_c, 0, 61, 54
2, 213347, Note_on_c, 0, 52, 45
2, 213350, Note_off_c, 0, 51, 64
2, 213372, Note_off_c, 0, 60, 64
2, 213378, Control_c, 0, 64, 127
2, 213510, Control_c, 0, 64, 0
2, 213552, Note_on_c, 0, 58, 45
2, 213561, Note_on_c, 0, 64, 51
2, 213566, Note_on_c, 0, 56, 39
2, 213604, Note_off_c, 0, 61, 64
2, 213627, Control_c, 0, 64, 127
2, 213733, Note_off_c, 0, 42, 64
2, 213970, Note_off_c, 0, 58, 64
2, 213973, Note_on_c, 0, 63, 47
2, 213974, Note_on_c, 0, 54, 49
2, 213979, Note_off_c, 0, 64, 64
2, 213984, Note_off_c, 0, 56, 64
2, 213998, Note_off_c, 0, 52, 64
2, 214020, Note_off_c, 0, 63, 64
2, 214028, Note_off_c, 0, 54, 64
2, 214065, Note_on_c, 0, 47, 51
2, 214065, Note_on_c, 0, 63, 47
2, 214072, Note_on_c, 0, 59, 51
2, 214088, Note_on_c, 0, 54, 51
2, 214100, Control_c, 0, 64, 0
2, 214216, Control_c, 0, 64, 127
2, 214570, Note_off_c, 0, 63, 64
2, 214582, Note_on_c, 0, 46, 25
2, 214590, Note_off_c, 0, 47, 64
2, 214595, Note_on_c, 0, 56, 28
2, 214597, Note_off_c, 0, 59, 64
2, 214601, Note_on_c, 0, 65, 52
2, 214604, Note_on_c, 0, 63, 31
2, 214613, Note_off_c, 0, 54, 64
2, 214625, Control_c, 0, 64, 0
2, 214784, Control_c, 0, 64, 127
2, 214812, Note_on_c, 0, 66, 52
2, 214840, Note_off_c, 0, 65, 64
2, 214976, Note_off_c, 0, 63, 64
2, 214985, Note_on_c, 0, 62, 49
2, 214990, Note_on_c, 0, 53, 33
2, 214990, Note_on_c, 0, 68, 49
2, 214996, Note_off_c, 0, 56, 64
2, 215009, Control_c, 0, 64, 0
2, 215013, Note_off_c, 0, 66, 64
2, 215145, Control_c, 0, 64, 127
2, 215150, Note_on_c, 0, 58, 30
2, 215160, Note_off_c, 0, 53, 64
2, 215297, Note_on_c, 0, 53, 42
2, 215300, Note_off_c, 0, 58, 64
2, 215359, Note_on_c, 0, 70, 42
2, 215381, Note_off_c, 0, 68, 64
2, 215474, Note_off_c, 0, 46, 64
2, 215482, Note_on_c, 0, 51, 40
2, 215482, Note_on_c, 0, 58, 35
2, 215488, Note_off_c, 0, 70, 64
2, 215488, Note_on_c, 0, 63, 48
2, 215488, Note_on_c, 0, 68, 42
2, 215489, Note_off_c, 0, 53, 64
2, 215496, Note_off_c, 0, 62, 64
2, 215503, Control_c, 0, 64, 0
2, 215692, Control_c, 0, 64, 127
2, 215752, Note_on_c, 0, 67, 35
2, 215823, Note_off_c, 0, 68, 64
2, 216016, Note_on_c, 0, 66, 33
2, 216047, Note_off_c, 0, 67, 64
2, 216288, Control_c, 0, 64, 0
2, 216440, Control_c, 0, 64, 127
2, 216727, Note_off_c, 0, 58, 64
2, 216727, Note_off_c, 0, 51, 64
2, 216731, Note_off_c, 0, 66, 64
2, 216733, Note_off_c, 0, 63, 64
2, 216760, Note_on_c, 0, 51, 24
2, 216766, Note_on_c, 0, 44, 23
2, 216766, Note_on_c, 0, 66, 44
2, 216768, Note_on_c, 0, 60, 38
2, 216825, Control_c, 0, 64, 0
2, 216960, Note_on_c, 0, 56, 30
2, 216964, Control_c, 0, 64, 127
2, 216980, Note_off_c, 0, 51, 64
2, 217130, Note_on_c, 0, 51, 38
2, 217139, Note_off_c, 0, 56, 64
2, 217201, Note_on_c, 0, 68, 28
2, 217230, Note_off_c, 0, 66, 64
2, 217292, Note_on_c, 0, 56, 23
2, 217295, Note_off_c, 0, 68, 64
2, 217295, Note_off_c, 0, 51, 64
2, 217296, Note_on_c, 0, 49, 23
2, 217303, Note_off_c, 0, 60, 64
2, 217309, Note_off_c, 0, 44, 64
2, 217309, Note_on_c, 0, 64, 33
2, 217309, Note_on_c, 0, 61, 31
2, 217368, Control_c, 0, 64, 0
2, 217506, Control_c, 0, 64, 127
2, 217817, Note_off_c, 0, 56, 64
2, 217821, Note_off_c, 0, 49, 64
2, 217834, Note_off_c, 0, 61, 64
2, 217834, Note_off_c, 0, 64, 64
2, 217862, Note_on_c, 0, 56, 29
2, 217863, Note_on_c, 0, 61, 33
2, 217863, Note_on_c, 0, 64, 45
2, 217869, Note_on_c, 0, 49, 33
2, 217880, Control_c, 0, 64, 0
2, 217973, Control_c, 0, 64, 127
2, 218147, Note_off_c, 0, 56, 64
2, 218162, Note_on_c, 0, 56, 44
2, 218170, Note_on_c, 0, 63, 38
2, 218174, Note_on_c, 0, 59, 44
2, 218181, Note_on_c, 0, 44, 29
2, 218181, Control_c, 0, 64, 0
2, 218188, Note_off_c, 0, 64, 64
2, 218188, Note_off_c, 0, 61, 64
2, 218194, Note_off_c, 0, 49, 64
2, 218261, Control_c, 0, 64, 127
2, 218530, Note_on_c, 0, 49, 23
2, 218533, Note_off_c, 0, 56, 64
2, 218536, Note_on_c, 0, 64, 32
2, 218541, Note_on_c, 0, 61, 30
2, 218541, Note_on_c, 0, 56, 22
2, 218545, Note_off_c, 0, 59, 64
2, 218552, Note_off_c, 0, 44, 64
2, 218556, Control_c, 0, 64, 0
2, 218565, Note_off_c, 0, 63, 64
2, 218654, Control_c, 0, 64, 127
2, 218919, Note_on_c, 0, 66, 27
2, 218921, Note_off_c, 0, 64, 64
2, 218922, Note_on_c, 0, 58, 40
2, 218933, Note_on_c, 0, 42, 34
2, 218937, Note_on_c, 0, 64, 31
2, 218957, Control_c, 0, 64, 0
2, 218974, Note_off_c, 0, 49, 64
2, 218985, Note_off_c, 0, 56, 64
2, 218985, Note_off_c, 0, 61, 64
2, 219036, Control_c, 0, 64, 127
2, 219484, Note_off_c, 0, 66, 64
2, 219487, Note_off_c, 0, 58, 64
2, 219498, Note_off_c, 0, 42, 64
2, 219502, Note_off_c, 0, 64, 64
2, 219505, Note_on_c, 0, 30, 35
2, 219510, Note_on_c, 0, 66, 36
2, 219510, Note_on_c, 0, 58, 36
2, 219510, Note_on_c, 0, 54, 30
2, 219516, Note_on_c, 0, 42, 21
2, 219520, Note_on_c, 0, 64, 33
2, 219567, Control_c, 0, 64, 0
2, 219695, Control_c, 0, 64, 127
2, 220584, Control_c, 0, 64, 127
2, 220675, Control_c, 0, 64, 0
2, 220715, Control_c, 0, 64, 0
2, 220740, Control_c, 0, 64, 127
2, 220791, Control_c, 0, 64, 127
2, 220912, Control_c, 0, 64, 0
2, 221018, Control_c, 0, 64, 127
2, 221027, Note_on_c, 0, 63, 69
2, 221032, Note_on_c, 0, 57, 71
2, 221036, Note_on_c, 0, 60, 71
2, 221129, Note_off_c, 0, 30, 64
2, 221134, Note_off_c, 0, 54, 64
2, 221134, Note_off_c, 0, 58, 64
2, 221134, Note_off_c, 0, 66, 64
2, 221140, Note_off_c, 0, 42, 64
2, 221144, Note_off_c, 0, 64, 64
2, 221147, Note_on_c, 0, 51, 56
2, 221202, Note_off_c, 0, 57, 64
2, 221208, Note_on_c, 0, 57, 70
2, 221209, Note_off_c, 0, 63, 64
2, 221211, Note_off_c, 0, 60, 64
2, 221216, Note_off_c, 0, 51, 64
2, 221253, Note_on_c, 0, 61, 75
2, 221267, Note_off_c, 0, 57, 64
2, 221288, Note_on_c, 0, 42, 79
2, 221288, Note_on_c, 0, 30, 81
2, 221295, Note_on_c, 0, 60, 74
2, 221311, Note_off_c, 0, 61, 64
2, 221321, Control_c, 0, 64, 127
2, 221349, Note_on_c, 0, 58, 55
2, 221366, Note_off_c, 0, 60, 64
2, 221378, Note_on_c, 0, 57, 67
2, 221390, Note_off_c, 0, 58, 64
2, 221429, Note_off_c, 0, 57, 64
2, 221439, Note_on_c, 0, 63, 67
2, 221479, Note_on_c, 0, 69, 79
2, 221480, Control_c, 0, 64, 0
2, 221486, Note_off_c, 0, 63, 64
2, 221523, Note_on_c, 0, 73, 68
2, 221536, Note_off_c, 0, 69, 64
2, 221569, Note_on_c, 0, 72, 80
2, 221576, Note_on_c, 0, 60, 82
2, 221577, Note_on_c, 0, 51, 79
2, 221579, Note_on_c, 0, 57, 78
2, 221582, Note_on_c, 0, 54, 79
2, 221587, Note_off_c, 0, 73, 64
2, 221619, Note_on_c, 0, 70, 79
2, 221641, Note_off_c, 0, 72, 64
2, 221662, Note_on_c, 0, 69, 73
2, 221671, Note_off_c, 0, 70, 64
2, 221713, Note_off_c, 0, 69, 64
2, 221723, Note_on_c, 0, 75, 81
2, 221763, Note_on_c, 0, 81, 66
2, 221773, Note_off_c, 0, 75, 64
2, 221788, Note_off_c, 0, 42, 64
2, 221791, Note_off_c, 0, 30, 64
2, 221812, Note_on_c, 0, 85, 73
2, 221825, Note_off_c, 0, 81, 64
2, 221835, Control_c, 0, 64, 0
2, 221836, Note_off_c, 0, 51, 64
2, 221838, Note_off_c, 0, 60, 64
2, 221842, Note_off_c, 0, 54, 64
2, 221842, Note_off_c, 0, 57, 64
2, 221848, Note_on_c, 0, 72, 78
2, 221848, Note_on_c, 0, 69, 63
2, 221848, Note_on_c, 0, 66, 85
2, 221850, Note_on_c, 0, 63, 70
2, 221854, Note_on_c, 0, 84, 93
2, 221860, Control_c, 0, 64, 127
2, 221872, Note_off_c, 0, 85, 64
2, 221899, Note_on_c, 0, 82, 68
2, 221910, Note_off_c, 0, 84, 64
2, 221944, Note_on_c, 0, 81, 73
2, 221948, Note_off_c, 0, 82, 64
2, 221984, Note_off_c, 0, 81, 64
2, 221989, Note_on_c, 0, 87, 70
2, 222035, Note_on_c, 0, 93, 59
2, 222040, Note_off_c, 0, 87, 64
2, 222063, Note_off_c, 0, 66, 64
2, 222063, Note_off_c, 0, 69, 64
2, 222063, Note_off_c, 0, 72, 64
2, 222065, Note_off_c, 0, 63, 64
2, 222071, Note_on_c, 0, 73, 72
2, 222081, Note_on_c, 0, 97, 83
2, 222093, Note_off_c, 0, 93, 64
2, 222102, Note_off_c, 0, 73, 64
2, 222125, Note_on_c, 0, 96, 96
2, 222128, Note_on_c, 0, 66, 78
2, 222130, Note_on_c, 0, 69, 79
2, 222132, Note_on_c, 0, 63, 74
2, 222133, Note_on_c, 0, 72, 90
2, 222136, Note_off_c, 0, 97, 64
2, 222160, Note_off_c, 0, 96, 64
2, 222163, Note_off_c, 0, 66, 64
2, 222165, Note_off_c, 0, 69, 64
2, 222167, Note_off_c, 0, 63, 64
2, 222168, Note_off_c, 0, 72, 64
2, 222274, Note_on_c, 0, 51, 79
2, 222324, Note_on_c, 0, 57, 68
2, 222343, Note_off_c, 0, 51, 64
2, 222363, Note_on_c, 0, 61, 73
2, 222374, Control_c, 0, 64, 0
2, 222378, Note_off_c, 0, 57, 64
2, 222393, Control_c, 0, 64, 127
2, 222408, Note_on_c, 0, 60, 85
2, 222413, Note_off_c, 0, 61, 64
2, 222416, Note_on_c, 0, 30, 81
2, 222419, Note_on_c, 0, 42, 79
2, 222455, Note_on_c, 0, 58, 54
2, 222465, Note_off_c, 0, 60, 64
2, 222488, Note_on_c, 0, 57, 73
2, 222498, Note_off_c, 0, 58, 64
2, 222551, Note_off_c, 0, 57, 64
2, 222555, Note_on_c, 0, 63, 84
2, 222590, Note_on_c, 0, 69, 66
2, 222605, Note_off_c, 0, 63, 64
2, 222634, Note_on_c, 0, 73, 70
2, 222650, Note_off_c, 0, 69, 64
2, 222680, Note_on_c, 0, 54, 81
2, 222685, Note_on_c, 0, 72, 80
2, 222687, Note_on_c, 0, 57, 83
2, 222687, Note_on_c, 0, 51, 85
2, 222688, Note_on_c, 0, 60, 89
2, 222702, Note_off_c, 0, 73, 64
2, 222731, Note_on_c, 0, 70, 85
2, 222755, Note_off_c, 0, 72, 64
2, 222771, Note_on_c, 0, 69, 59
2, 222781, Note_off_c, 0, 70, 64
2, 222832, Note_off_c, 0, 69, 64
2, 222832, Note_on_c, 0, 75, 77
2, 222874, Note_on_c, 0, 81, 73
2, 222892, Note_off_c, 0, 75, 64
2, 222919, Note_off_c, 0, 30, 64
2, 222919, Note_off_c, 0, 42, 64
2, 222923, Note_on_c, 0, 85, 66
2, 222929, Note_off_c, 0, 81, 64
2, 222941, Note_off_c, 0, 54, 64
2, 222944, Note_on_c, 0, 66, 63
2, 222948, Note_off_c, 0, 51, 64
2, 222948, Note_off_c, 0, 57, 64
2, 222949, Note_on_c, 0, 75, 89
2, 222949, Note_on_c, 0, 69, 79
2, 222950, Note_off_c, 0, 60, 64
2, 222963, Note_on_c, 0, 84, 85
2, 222980, Note_off_c, 0, 85, 64
2, 223009, Note_on_c, 0, 82, 79
2, 223027, Note_off_c, 0, 84, 64
2, 223054, Note_on_c, 0, 81, 55
2, 223057, Note_off_c, 0, 82, 64
2, 223093, Note_off_c, 0, 81, 64
2, 223099, Note_on_c, 0, 87, 66
2, 223140, Note_on_c, 0, 93, 51
2, 223159, Note_off_c, 0, 66, 64
2, 223164, Note_off_c, 0, 69, 64
2, 223164, Note_off_c, 0, 75, 64
2, 223169, Note_on_c, 0, 77, 79
2, 223176, Note_off_c, 0, 87, 64
2, 223184, Note_on_c, 0, 97, 83
2, 223192, Control_c, 0, 64, 0
2, 223195, Note_off_c, 0, 93, 64
2, 223202, Note_off_c, 0, 77, 64
2, 223224, Note_on_c, 0, 69, 78
2, 223224, Note_on_c, 0, 66, 70
2, 223226, Note_on_c, 0, 96, 97
2, 223226, Note_on_c, 0, 75, 90
2, 223234, Control_c, 0, 64, 127
2, 223237, Note_off_c, 0, 97, 64
2, 223259, Note_off_c, 0, 66, 64
2, 223259, Note_off_c, 0, 69, 64
2, 223261, Note_off_c, 0, 75, 64
2, 223261, Note_off_c, 0, 96, 64
2, 223377, Note_on_c, 0, 52, 73
2, 223417, Note_on_c, 0, 58, 73
2, 223446, Note_off_c, 0, 52, 64
2, 223456, Note_on_c, 0, 63, 93
2, 223462, Note_off_c, 0, 58, 64
2, 223501, Note_on_c, 0, 61, 81
2, 223512, Note_on_c, 0, 30, 85
2, 223513, Note_off_c, 0, 63, 64
2, 223515, Note_on_c, 0, 42, 85
2, 223539, Note_on_c, 0, 59, 74
2, 223560, Note_off_c, 0, 61, 64
2, 223584, Note_on_c, 0, 58, 82
2, 223600, Note_off_c, 0, 59, 64
2, 223632, Note_off_c, 0, 58, 64
2, 223638, Note_on_c, 0, 64, 82
2, 223678, Note_on_c, 0, 70, 61
2, 223692, Note_off_c, 0, 64, 64
2, 223718, Note_on_c, 0, 75, 71
2, 223726, Note_off_c, 0, 70, 64
2, 223765, Note_on_c, 0, 73, 102
2, 223768, Note_on_c, 0, 52, 83
2, 223772, Note_on_c, 0, 61, 89
2, 223772, Note_on_c, 0, 58, 85
2, 223776, Note_on_c, 0, 54, 79
2, 223794, Note_off_c, 0, 75, 64
2, 223812, Note_on_c, 0, 71, 66
2, 223832, Note_off_c, 0, 73, 64
2, 223860, Note_on_c, 0, 70, 72
2, 223871, Note_off_c, 0, 71, 64
2, 223909, Note_off_c, 0, 70, 64
2, 223913, Note_on_c, 0, 76, 84
2, 223956, Note_on_c, 0, 82, 66
2, 223962, Note_off_c, 0, 76, 64
2, 223996, Note_on_c, 0, 87, 65
2, 224004, Note_off_c, 0, 82, 64
2, 224014, Note_off_c, 0, 30, 64
2, 224017, Note_off_c, 0, 42, 64
2, 224032, Note_off_c, 0, 52, 64
2, 224032, Note_on_c, 0, 66, 69
2, 224033, Note_on_c, 0, 64, 74
2, 224036, Note_off_c, 0, 58, 64
2, 224036, Note_off_c, 0, 61, 64
2, 224037, Note_on_c, 0, 73, 102
2, 224039, Note_on_c, 0, 70, 75
2, 224040, Note_off_c, 0, 54, 64
2, 224042, Note_on_c, 0, 85, 102
2, 224063, Note_off_c, 0, 87, 64
2, 224078, Note_on_c, 0, 83, 85
2, 224094, Note_off_c, 0, 85, 64
2, 224108, Note_on_c, 0, 82, 64
2, 224137, Note_off_c, 0, 83, 64
2, 224168, Note_off_c, 0, 82, 64
2, 224169, Note_on_c, 0, 88, 79
2, 224223, Note_on_c, 0, 94, 76
2, 224239, Note_off_c, 0, 88, 64
2, 224245, Note_on_c, 0, 75, 79
2, 224247, Note_off_c, 0, 66, 64
2, 224248, Note_off_c, 0, 64, 64
2, 224252, Note_off_c, 0, 73, 64
2, 224254, Note_off_c, 0, 70, 64
2, 224270, Note_on_c, 0, 99, 87
2, 224275, Note_off_c, 0, 94, 64
2, 224278, Note_off_c, 0, 75, 64
2, 224304, Note_on_c, 0, 64, 68
2, 224306, Note_on_c, 0, 73, 91
2, 224309, Note_on_c, 0, 70, 80
2, 224310, Note_on_c, 0, 66, 67
2, 224313, Note_on_c, 0, 97, 104
2, 224331, Note_off_c, 0, 99, 64
2, 224339, Note_off_c, 0, 64, 64
2, 224341, Note_off_c, 0, 73, 64
2, 224344, Note_off_c, 0, 70, 64
2, 224345, Note_off_c, 0, 66, 64
2, 224348, Note_off_c, 0, 97, 64
2, 224436, Note_on_c, 0, 52, 82
2, 224483, Note_on_c, 0, 58, 64
2, 224485, Note_off_c, 0, 52, 64
2, 224518, Control_c, 0, 64, 0
2, 224526, Note_on_c, 0, 63, 75
2, 224531, Note_off_c, 0, 58, 64
2, 224552, Note_on_c, 0, 30, 89
2, 224556, Note_on_c, 0, 42, 91
2, 224560, Control_c, 0, 64, 127
2, 224563, Note_on_c, 0, 61, 100
2, 224586, Note_off_c, 0, 63, 64
2, 224599, Note_on_c, 0, 59, 87
2, 224618, Note_off_c, 0, 61, 64
2, 224641, Note_on_c, 0, 58, 79
2, 224658, Note_off_c, 0, 59, 64
2, 224697, Note_on_c, 0, 64, 73
2, 224705, Note_off_c, 0, 58, 64
2, 224740, Note_on_c, 0, 70, 57
2, 224754, Note_off_c, 0, 64, 64
2, 224773, Note_on_c, 0, 75, 78
2, 224804, Note_off_c, 0, 70, 64
2, 224817, Note_on_c, 0, 73, 99
2, 224819, Note_on_c, 0, 52, 85
2, 224824, Note_on_c, 0, 64, 91
2, 224824, Note_on_c, 0, 58, 83
2, 224829, Note_on_c, 0, 54, 70
2, 224837, Note_off_c, 0, 75, 64
2, 224860, Note_on_c, 0, 71, 73
2, 224876, Note_off_c, 0, 73, 64
2, 224899, Note_on_c, 0, 70, 76
2, 224920, Note_off_c, 0, 71, 64
2, 224955, Note_off_c, 0, 70, 64
2, 224960, Note_on_c, 0, 76, 81
2, 225001, Note_on_c, 0, 82, 73
2, 225007, Note_off_c, 0, 76, 64
2, 225039, Note_off_c, 0, 64, 64
2, 225046, Note_on_c, 0, 87, 69
2, 225048, Note_off_c, 0, 82, 64
2, 225063, Note_off_c, 0, 30, 64
2, 225067, Note_off_c, 0, 42, 64
2, 225067, Note_on_c, 0, 64, 80
2, 225072, Note_on_c, 0, 76, 97
2, 225072, Note_on_c, 0, 70, 81
2, 225077, Note_on_c, 0, 66, 75
2, 225080, Note_off_c, 0, 52, 64
2, 225082, Note_on_c, 0, 85, 95
2, 225085, Note_off_c, 0, 58, 64
2, 225090, Note_off_c, 0, 54, 64
2, 225107, Note_off_c, 0, 87, 64
2, 225121, Note_on_c, 0, 83, 79
2, 225137, Note_off_c, 0, 85, 64
2, 225158, Note_on_c, 0, 82, 61
2, 225176, Note_off_c, 0, 83, 64
2, 225216, Note_on_c, 0, 88, 72
2, 225223, Note_off_c, 0, 82, 64
2, 225259, Note_on_c, 0, 94, 67
2, 225272, Note_off_c, 0, 88, 64
2, 225282, Note_off_c, 0, 64, 64
2, 225287, Note_off_c, 0, 70, 64
2, 225287, Note_off_c, 0, 76, 64
2, 225292, Note_off_c, 0, 66, 64
2, 225303, Note_on_c, 0, 99, 70
2, 225304, Note_on_c, 0, 78, 79
2, 225307, Note_off_c, 0, 94, 64
2, 225309, Control_c, 0, 64, 0
2, 225333, Control_c, 0, 64, 127
2, 225337, Note_off_c, 0, 78, 64
2, 225342, Note_on_c, 0, 70, 79
2, 225343, Note_on_c, 0, 76, 97
2, 225345, Note_on_c, 0, 97, 93
2, 225345, Note_on_c, 0, 64, 74
2, 225349, Note_on_c, 0, 66, 68
2, 225376, Note_off_c, 0, 99, 64
2, 225383, Note_on_c, 0, 94, 73
2, 225417, Note_off_c, 0, 70, 64
2, 225418, Note_off_c, 0, 97, 64
2, 225418, Note_off_c, 0, 76, 64
2, 225420, Note_off_c, 0, 64, 64
2, 225424, Note_off_c, 0, 66, 64
2, 225424, Note_on_c, 0, 90, 91
2, 225456, Note_off_c, 0, 94, 64
2, 225474, Note_on_c, 0, 88, 100
2, 225497, Note_off_c, 0, 90, 64
2, 225508, Note_on_c, 0, 85, 76
2, 225546, Note_on_c, 0, 82, 72
2, 225547, Note_off_c, 0, 88, 64
2, 225581, Note_off_c, 0, 85, 64
2, 225585, Note_on_c, 0, 78, 96
2, 225619, Note_off_c, 0, 82, 64
2, 225624, Note_on_c, 0, 76, 80
2, 225658, Note_off_c, 0, 78, 64
2, 225667, Note_on_c, 0, 73, 55
2, 225697, Note_off_c, 0, 76, 64
2, 225702, Note_on_c, 0, 70, 66
2, 225731, Note_on_c, 0, 66, 58
2, 225740, Note_off_c, 0, 73, 64
2, 225757, Note_on_c, 0, 64, 72
2, 225775, Note_off_c, 0, 70, 64
2, 225804, Note_off_c, 0, 66, 64
2, 225811, Note_on_c, 0, 61, 64
2, 225830, Note_off_c, 0, 64, 64
2, 225842, Note_on_c, 0, 58, 73
2, 225882, Note_on_c, 0, 54, 87
2, 225884, Note_off_c, 0, 61, 64
2, 225915, Note_off_c, 0, 58, 64
2, 225924, Note_on_c, 0, 52, 82
2, 225955, Note_off_c, 0, 54, 64
2, 225960, Note_on_c, 0, 49, 45
2, 225997, Note_off_c, 0, 52, 64
2, 225999, Note_on_c, 0, 46, 64
2, 226033, Note_off_c, 0, 49, 64
2, 226033, Note_on_c, 0, 42, 90
2, 226072, Note_off_c, 0, 46, 64
2, 226072, Note_on_c, 0, 40, 97
2, 226106, Note_off_c, 0, 42, 64
2, 226138, Note_on_c, 0, 37, 87
2, 226145, Note_off_c, 0, 40, 64
2, 226182, Note_on_c, 0, 31, 92
2, 226211, Note_off_c, 0, 37, 64
2, 226230, Note_on_c, 0, 33, 92
2, 226255, Note_off_c, 0, 31, 64
2, 226256, Control_c, 0, 64, 0
2, 226263, Note_on_c, 0, 31, 92
2, 226271, Note_off_c, 0, 33, 64
2, 226312, Note_on_c, 0, 30, 92
2, 226336, Note_off_c, 0, 31, 64
2, 226417, Control_c, 0, 64, 127
2, 226440, Note_off_c, 0, 30, 64
2, 226614, Control_c, 0, 64, 0
2, 226629, Note_on_c, 0, 54, 83
2, 226631, Note_on_c, 0, 90, 91
2, 226631, Note_on_c, 0, 66, 81
2, 226633, Note_on_c, 0, 78, 85
2, 226639, Control_c, 0, 64, 127
2, 226651, Note_off_c, 0, 66, 64
2, 226654, Note_off_c, 0, 90, 64
2, 226655, Note_off_c, 0, 78, 64
2, 226656, Note_off_c, 0, 54, 64
2, 226790, Note_on_c, 0, 78, 87
2, 226790, Note_on_c, 0, 42, 85
2, 226793, Note_on_c, 0, 66, 91
2, 226793, Note_on_c, 0, 54, 90
2, 226815, Note_off_c, 0, 54, 64
2, 226820, Note_off_c, 0, 78, 64
2, 226821, Note_off_c, 0, 42, 64
2, 226822, Note_off_c, 0, 66, 64
2, 226969, Note_on_c, 0, 66, 85
2, 226973, Note_on_c, 0, 54, 99
2, 226976, Note_on_c, 0, 42, 104
2, 226979, Control_c, 0, 64, 0
2, 226984, Note_on_c, 0, 30, 89
2, 227058, Control_c, 0, 64, 127
2, 227306, Note_off_c, 0, 66, 64
2, 227329, Note_off_c, 0, 54, 64
2, 227340, Note_off_c, 0, 42, 64
2, 227348, Note_off_c, 0, 30, 64
2, 227456, Note_on_c, 0, 29, 93
2, 227461, Note_on_c, 0, 65, 80
2, 227461, Note_on_c, 0, 53, 79
2, 227466, Note_on_c, 0, 41, 93
2, 227480, Note_off_c, 0, 29, 64
2, 227486, Note_off_c, 0, 53, 64
2, 227490, Note_off_c, 0, 41, 64
2, 227492, Note_off_c, 0, 65, 64
2, 227504, Note_on_c, 0, 29, 93
2, 227507, Note_on_c, 0, 41, 93
2, 227509, Note_on_c, 0, 53, 78
2, 227512, Note_on_c, 0, 65, 87
2, 227571, Control_c, 0, 64, 0
2, 227668, Note_off_c, 0, 65, 64
2, 227674, Note_off_c, 0, 29, 64
2, 227677, Note_off_c, 0, 41, 64
2, 227682, Note_off_c, 0, 53, 64
2, 227792, Note_on_c, 0, 65, 82
2, 227800, Note_on_c, 0, 53, 82
2, 227844, Control_c, 0, 64, 0
2, 227906, Control_c, 0, 64, 127
2, 227969, Note_on_c, 0, 33, 49
2, 227998, Control_c, 0, 64, 127
2, 227998, Control_c, 0, 64, 127
2, 228011, Control_c, 0, 64, 0
2, 228011, Control_c, 0, 64, 0
2, 228051, Note_on_c, 0, 41, 35
2, 228118, Note_on_c, 0, 42, 23
2, 228120, Note_off_c, 0, 41, 64
2, 228188, Note_on_c, 0, 60, 60
2, 228188, Note_on_c, 0, 48, 60
2, 228191, Note_on_c, 0, 41, 24
2, 228203, Note_off_c, 0, 42, 64
2, 228233, Control_c, 0, 64, 0
2, 228239, Note_on_c, 0, 42, 45
2, 228260, Note_off_c, 0, 41, 64
2, 228272, Note_off_c, 0, 65, 64
2, 228280, Note_off_c, 0, 53, 64
2, 228300, Control_c, 0, 64, 127
2, 228303, Note_on_c, 0, 41, 27
2, 228329, Note_off_c, 0, 42, 64
2, 228344, Note_off_c, 0, 33, 64
2, 228348, Control_c, 0, 64, 0
2, 228348, Control_c, 0, 64, 0
2, 228361, Note_on_c, 0, 34, 62
2, 228369, Note_off_c, 0, 41, 64
2, 228390, Control_c, 0, 64, 127
2, 228390, Control_c, 0, 64, 127
2, 228429, Note_on_c, 0, 41, 47
2, 228483, Note_on_c, 0, 42, 42
2, 228489, Note_on_c, 0, 61, 64
2, 228489, Note_on_c, 0, 49, 64
2, 228500, Note_off_c, 0, 41, 64
2, 228513, Note_off_c, 0, 48, 64
2, 228513, Note_off_c, 0, 60, 64
2, 228542, Note_on_c, 0, 41, 39
2, 228552, Note_off_c, 0, 42, 64
2, 228588, Note_on_c, 0, 42, 51
2, 228598, Control_c, 0, 64, 0
2, 228616, Note_off_c, 0, 41, 64
2, 228642, Note_on_c, 0, 41, 29
2, 228644, Note_off_c, 0, 61, 64
2, 228658, Control_c, 0, 64, 127
2, 228670, Note_on_c, 0, 73, 78
2, 228670, Note_on_c, 0, 61, 65
2, 228673, Note_off_c, 0, 42, 64
2, 228703, Note_off_c, 0, 49, 64
2, 228708, Control_c, 0, 64, 0
2, 228708, Control_c, 0, 64, 0
2, 228716, Note_off_c, 0, 34, 64
2, 228717, Note_off_c, 0, 41, 64
2, 228728, Note_on_c, 0, 34, 57
2, 228770, Control_c, 0, 64, 127
2, 228770, Control_c, 0, 64, 127
2, 228824, Note_on_c, 0, 42, 22
2, 228861, Note_on_c, 0, 72, 66
2, 228861, Note_on_c, 0, 60, 66
2, 228880, Note_on_c, 0, 49, 56
2, 228887, Note_off_c, 0, 61, 64
2, 228887, Note_off_c, 0, 73, 64
2, 228893, Note_off_c, 0, 42, 64
2, 228935, Control_c, 0, 64, 0
2, 228936, Note_on_c, 0, 43, 53
2, 228949, Note_off_c, 0, 49, 64
2, 229003, Control_c, 0, 64, 127
2, 229005, Note_off_c, 0, 43, 64
2, 229008, Note_on_c, 0, 49, 61
2, 229041, Note_on_c, 0, 70, 67
2, 229041, Note_on_c, 0, 58, 67
2, 229064, Note_on_c, 0, 43, 47
2, 229068, Note_off_c, 0, 60, 64
2, 229068, Note_off_c, 0, 72, 64
2, 229077, Note_off_c, 0, 49, 64
2, 229097, Control_c, 0, 64, 0
2, 229097, Control_c, 0, 64, 0
2, 229123, Note_off_c, 0, 34, 64
2, 229133, Note_off_c, 0, 43, 64
2, 229151, Note_on_c, 0, 36, 72
2, 229164, Control_c, 0, 64, 127
2, 229164, Control_c, 0, 64, 127
2, 229200, Note_on_c, 0, 43, 30
2, 229226, Note_on_c, 0, 68, 63
2, 229226, Note_on_c, 0, 56, 63
2, 229249, Note_off_c, 0, 58, 64
2, 229249, Note_off_c, 0, 70, 64
2, 229269, Note_off_c, 0, 43, 64
2, 229272, Note_on_c, 0, 51, 57
2, 229293, Control_c, 0, 64, 0
2, 229328, Note_on_c, 0, 44, 30
2, 229341, Note_off_c, 0, 51, 64
2, 229344, Control_c, 0, 64, 127
2, 229383, Note_on_c, 0, 51, 53
2, 229396, Note_on_c, 0, 72, 62
2, 229396, Note_on_c, 0, 60, 62
2, 229397, Note_off_c, 0, 44, 64
2, 229429, Note_off_c, 0, 56, 64
2, 229429, Note_off_c, 0, 68, 64
2, 229429, Note_on_c, 0, 70, 67
2, 229429, Note_on_c, 0, 58, 67
2, 229440, Note_on_c, 0, 44, 45
2, 229452, Note_off_c, 0, 51, 64
2, 229452, Note_off_c, 0, 60, 64
2, 229452, Note_off_c, 0, 72, 64
2, 229462, Control_c, 0, 64, 0
2, 229462, Control_c, 0, 64, 0
2, 229506, Note_off_c, 0, 36, 64
2, 229509, Note_off_c, 0, 44, 64
2, 229512, Note_on_c, 0, 36, 66
2, 229522, Control_c, 0, 64, 127
2, 229522, Control_c, 0, 64, 127
2, 229556, Note_on_c, 0, 44, 56
2, 229595, Note_on_c, 0, 68, 72
2, 229595, Note_on_c, 0, 56, 72
2, 229605, Note_on_c, 0, 52, 48
2, 229618, Note_off_c, 0, 58, 64
2, 229618, Note_off_c, 0, 70, 64
2, 229621, Control_c, 0, 64, 0
2, 229625, Note_off_c, 0, 44, 64
2, 229655, Note_on_c, 0, 44, 58
2, 229674, Note_off_c, 0, 52, 64
2, 229691, Control_c, 0, 64, 127
2, 229709, Note_on_c, 0, 52, 58
2, 229724, Note_off_c, 0, 44, 64
2, 229753, Note_on_c, 0, 44, 68
2, 229778, Note_off_c, 0, 52, 64
2, 229791, Note_on_c, 0, 64, 68
2, 229791, Note_on_c, 0, 52, 68
2, 229799, Control_c, 0, 64, 0
2, 229799, Control_c, 0, 64, 0
2, 229810, Note_off_c, 0, 56, 64
2, 229810, Note_off_c, 0, 68, 64
2, 229822, Note_off_c, 0, 44, 64
2, 229837, Note_off_c, 0, 36, 64
2, 229846, Note_on_c, 0, 37, 72
2, 229867, Control_c, 0, 64, 127
2, 229867, Control_c, 0, 64, 127
2, 229928, Note_on_c, 0, 44, 24
2, 229938, Note_on_c, 0, 65, 67
2, 229938, Note_on_c, 0, 53, 67
2, 229966, Note_off_c, 0, 52, 64
2, 229966, Note_off_c, 0, 64, 64
2, 229972, Control_c, 0, 64, 0
2, 229983, Note_off_c, 0, 53, 64
2, 229997, Note_off_c, 0, 44, 64
2, 229997, Note_on_c, 0, 53, 52
2, 230023, Control_c, 0, 64, 127
2, 230036, Note_on_c, 0, 44, 52
2, 230066, Note_off_c, 0, 53, 64
2, 230087, Note_on_c, 0, 53, 61
2, 230103, Note_off_c, 0, 65, 64
2, 230105, Note_off_c, 0, 44, 64
2, 230123, Note_on_c, 0, 44, 52
2, 230127, Note_on_c, 0, 77, 79
2, 230127, Note_on_c, 0, 65, 79
2, 230156, Note_off_c, 0, 53, 64
2, 230157, Control_c, 0, 64, 0
2, 230157, Control_c, 0, 64, 0
2, 230160, Note_off_c, 0, 37, 64
2, 230192, Note_off_c, 0, 44, 64
2, 230193, Note_on_c, 0, 37, 73
2, 230208, Control_c, 0, 64, 127
2, 230208, Control_c, 0, 64, 127
2, 230263, Note_on_c, 0, 45, 47
2, 230290, Note_on_c, 0, 75, 62
2, 230290, Note_on_c, 0, 63, 62
2, 230297, Note_on_c, 0, 53, 56
2, 230322, Note_off_c, 0, 65, 64
2, 230322, Note_off_c, 0, 77, 64
2, 230332, Note_off_c, 0, 45, 64
2, 230335, Control_c, 0, 64, 0
2, 230356, Note_on_c, 0, 45, 52
2, 230364, Note_off_c, 0, 53, 64
2, 230389, Control_c, 0, 64, 127
2, 230397, Note_on_c, 0, 53, 56
2, 230425, Note_off_c, 0, 45, 64
2, 230435, Note_on_c, 0, 46, 53
2, 230448, Note_on_c, 0, 73, 73
2, 230448, Note_on_c, 0, 61, 73
2, 230450, Note_off_c, 0, 53, 64
2, 230472, Note_off_c, 0, 63, 64
2, 230472, Note_off_c, 0, 75, 64
2, 230485, Control_c, 0, 64, 0
2, 230485, Control_c, 0, 64, 0
2, 230502, Note_off_c, 0, 46, 64
2, 230528, Note_off_c, 0, 37, 64
2, 230537, Note_on_c, 0, 40, 51
2, 230555, Control_c, 0, 64, 127
2, 230555, Control_c, 0, 64, 127
2, 230587, Note_on_c, 0, 46, 56
2, 230616, Note_on_c, 0, 72, 66
2, 230616, Note_on_c, 0, 60, 66
2, 230633, Note_off_c, 0, 61, 64
2, 230633, Note_off_c, 0, 73, 64
2, 230646, Note_on_c, 0, 55, 53
2, 230656, Note_off_c, 0, 46, 64
2, 230677, Control_c, 0, 64, 0
2, 230680, Note_on_c, 0, 46, 49
2, 230715, Note_off_c, 0, 55, 64
2, 230736, Note_on_c, 0, 55, 54
2, 230746, Control_c, 0, 64, 127
2, 230749, Note_off_c, 0, 46, 64
2, 230761, Note_on_c, 0, 75, 64
2, 230761, Note_on_c, 0, 63, 64
2, 230782, Note_on_c, 0, 46, 50
2, 230784, Note_off_c, 0, 60, 64
2, 230784, Note_off_c, 0, 72, 64
2, 230803, Note_on_c, 0, 73, 72
2, 230803, Note_on_c, 0, 61, 72
2, 230805, Note_off_c, 0, 55, 64
2, 230836, Control_c, 0, 64, 0
2, 230836, Control_c, 0, 64, 0
2, 230842, Note_off_c, 0, 63, 64
2, 230842, Note_off_c, 0, 75, 64
2, 230851, Note_off_c, 0, 46, 64
2, 230852, Note_off_c, 0, 40, 64
2, 230881, Note_on_c, 0, 40, 56
2, 230887, Control_c, 0, 64, 127
2, 230887, Control_c, 0, 64, 127
2, 230935, Note_on_c, 0, 48, 47
2, 230966, Note_on_c, 0, 72, 66
2, 230966, Note_on_c, 0, 60, 66
2, 230992, Note_on_c, 0, 55, 52
2, 230994, Note_off_c, 0, 61, 64
2, 230994, Note_off_c, 0, 73, 64
2, 231004, Note_off_c, 0, 48, 64
2, 231024, Control_c, 0, 64, 0
2, 231054, Note_on_c, 0, 48, 52
2, 231061, Note_off_c, 0, 55, 64
2, 231081, Control_c, 0, 64, 127
2, 231110, Note_on_c, 0, 55, 61
2, 231123, Note_off_c, 0, 48, 64
2, 231150, Note_on_c, 0, 48, 62
2, 231176, Note_on_c, 0, 70, 72
2, 231176, Note_on_c, 0, 58, 72
2, 231179, Note_off_c, 0, 55, 64
2, 231191, Note_off_c, 0, 60, 64
2, 231191, Note_off_c, 0, 72, 64
2, 231199, Control_c, 0, 64, 0
2, 231199, Control_c, 0, 64, 0
2, 231213, Note_off_c, 0, 58, 64
2, 231213, Note_off_c, 0, 70, 64
2, 231216, Note_off_c, 0, 40, 64
2, 231227, Note_off_c, 0, 48, 64
2, 231239, Note_on_c, 0, 70, 67
2, 231239, Note_on_c, 0, 58, 67
2, 231248, Note_on_c, 0, 41, 63
2, 231253, Control_c, 0, 64, 127
2, 231253, Control_c, 0, 64, 127
2, 231310, Note_on_c, 0, 48, 48
2, 231352, Note_on_c, 0, 69, 63
2, 231352, Note_on_c, 0, 57, 63
2, 231353, Control_c, 0, 64, 0
2, 231366, Note_on_c, 0, 51, 61
2, 231371, Note_off_c, 0, 58, 64
2, 231371, Note_off_c, 0, 70, 64
2, 231381, Note_off_c, 0, 48, 64
2, 231407, Note_off_c, 0, 57, 64
2, 231407, Note_off_c, 0, 69, 64
2, 231426, Note_on_c, 0, 57, 65
2, 231435, Note_off_c, 0, 51, 64
2, 231464, Note_on_c, 0, 51, 59
2, 231495, Note_off_c, 0, 57, 64
2, 231504, Note_on_c, 0, 66, 66
2, 231508, Note_on_c, 0, 75, 67
2, 231510, Note_on_c, 0, 78, 86
2, 231530, Note_on_c, 0, 48, 32
2, 231531, Note_off_c, 0, 51, 64
2, 231541, Control_c, 0, 64, 0
2, 231573, Note_off_c, 0, 41, 64
2, 231591, Note_on_c, 0, 41, 67
2, 231599, Note_off_c, 0, 48, 64
2, 231600, Note_on_c, 0, 77, 49
2, 231600, Note_on_c, 0, 73, 66
2, 231600, Note_on_c, 0, 65, 49
2, 231610, Control_c, 0, 64, 127
2, 231619, Note_off_c, 0, 66, 64
2, 231623, Note_off_c, 0, 75, 64
2, 231625, Note_off_c, 0, 78, 64
2, 231660, Note_on_c, 0, 49, 52
2, 231684, Note_on_c, 0, 75, 73
2, 231687, Note_on_c, 0, 72, 63
2, 231709, Note_on_c, 0, 52, 57
2, 231715, Note_off_c, 0, 65, 64
2, 231715, Note_off_c, 0, 73, 64
2, 231715, Note_off_c, 0, 77, 64
2, 231735, Note_off_c, 0, 49, 64
2, 231768, Note_on_c, 0, 58, 52
2, 231778, Note_off_c, 0, 52, 64
2, 231788, Note_on_c, 0, 73, 68
2, 231792, Note_on_c, 0, 70, 69
2, 231799, Note_off_c, 0, 75, 64
2, 231799, Note_on_c, 0, 52, 39
2, 231802, Note_off_c, 0, 72, 64
2, 231837, Note_off_c, 0, 58, 64
2, 231861, Note_on_c, 0, 49, 35
2, 231868, Note_on_c, 0, 82, 64
2, 231872, Note_on_c, 0, 79, 56
2, 231873, Note_off_c, 0, 52, 64
2, 231888, Control_c, 0, 64, 0
2, 231903, Note_off_c, 0, 73, 64
2, 231907, Note_off_c, 0, 70, 64
2, 231916, Note_off_c, 0, 41, 64
2, 231930, Note_off_c, 0, 49, 64
2, 231930, Note_on_c, 0, 41, 64
2, 231945, Control_c, 0, 64, 127
2, 231950, Note_on_c, 0, 77, 72
2, 231951, Note_on_c, 0, 81, 68
2, 231983, Note_off_c, 0, 82, 64
2, 231987, Note_off_c, 0, 79, 64
2, 232008, Note_on_c, 0, 48, 45
2, 232034, Note_on_c, 0, 72, 59
2, 232034, Note_on_c, 0, 69, 57
2, 232053, Note_off_c, 0, 77, 64
2, 232066, Note_off_c, 0, 81, 64
2, 232070, Note_on_c, 0, 51, 62
2, 232084, Note_off_c, 0, 48, 64
2, 232104, Note_off_c, 0, 72, 64
2, 232106, Note_off_c, 0, 69, 64
2, 232125, Note_on_c, 0, 57, 62
2, 232139, Note_off_c, 0, 51, 64
2, 232160, Note_on_c, 0, 51, 47
2, 232188, Note_on_c, 0, 66, 62
2, 232189, Note_on_c, 0, 78, 72
2, 232189, Note_on_c, 0, 75, 47
2, 232194, Note_off_c, 0, 57, 64
2, 232199, Note_on_c, 0, 48, 33
2, 232217, Control_c, 0, 64, 0
2, 232229, Note_off_c, 0, 51, 64
2, 232255, Note_off_c, 0, 41, 64
2, 232265, Note_on_c, 0, 41, 62
2, 232268, Note_off_c, 0, 48, 64
2, 232280, Note_on_c, 0, 77, 70
2, 232280, Note_on_c, 0, 65, 70
2, 232283, Control_c, 0, 64, 127
2, 232284, Note_on_c, 0, 73, 67
2, 232303, Note_off_c, 0, 66, 64
2, 232304, Note_off_c, 0, 75, 64
2, 232304, Note_off_c, 0, 78, 64
2, 232348, Note_on_c, 0, 49, 50
2, 232369, Note_on_c, 0, 72, 59
2, 232372, Note_on_c, 0, 75, 72
2, 232395, Note_off_c, 0, 65, 64
2, 232395, Note_off_c, 0, 77, 64
2, 232398, Note_on_c, 0, 52, 56
2, 232399, Note_off_c, 0, 73, 64
2, 232417, Note_off_c, 0, 49, 64
2, 232449, Note_on_c, 0, 58, 57
2, 232452, Note_on_c, 0, 70, 67
2, 232455, Note_on_c, 0, 73, 72
2, 232467, Note_off_c, 0, 52, 64
2, 232480, Note_on_c, 0, 52, 42
2, 232484, Note_off_c, 0, 72, 64
2, 232487, Note_off_c, 0, 75, 64
2, 232518, Note_off_c, 0, 58, 64
2, 232521, Note_on_c, 0, 49, 34
2, 232540, Note_on_c, 0, 82, 61
2, 232540, Note_on_c, 0, 79, 67
2, 232548, Note_off_c, 0, 52, 64
2, 232567, Note_off_c, 0, 70, 64
2, 232569, Control_c, 0, 64, 0
2, 232570, Note_off_c, 0, 73, 64
2, 232590, Note_off_c, 0, 41, 64
2, 232599, Note_off_c, 0, 49, 64
2, 232622, Note_on_c, 0, 41, 64
2, 232623, Control_c, 0, 64, 127
2, 232633, Note_on_c, 0, 81, 73
2, 232636, Note_on_c, 0, 77, 73
2, 232655, Note_off_c, 0, 79, 64
2, 232655, Note_off_c, 0, 82, 64
2, 232688, Note_on_c, 0, 48, 38
2, 232712, Note_on_c, 0, 72, 66
2, 232712, Note_on_c, 0, 69, 66
2, 232748, Note_off_c, 0, 81, 64
2, 232751, Note_off_c, 0, 77, 64
2, 232756, Note_on_c, 0, 53, 37
2, 232757, Note_off_c, 0, 48, 64
2, 232782, Note_off_c, 0, 69, 64
2, 232782, Note_off_c, 0, 72, 64
2, 232795, Note_on_c, 0, 60, 57
2, 232825, Note_off_c, 0, 53, 64
2, 232840, Note_on_c, 0, 53, 47
2, 232856, Note_off_c, 0, 60, 64
2, 232868, Note_on_c, 0, 85, 63
2, 232869, Note_on_c, 0, 82, 62
2, 232872, Note_on_c, 0, 85, 63
2, 232872, Note_on_c, 0, 82, 62
2, 232885, Note_on_c, 0, 48, 47
2, 232909, Control_c, 0, 64, 0
2, 232917, Control_c, 0, 64, 0
2, 232923, Note_off_c, 0, 53, 64
2, 232947, Note_off_c, 0, 41, 64
2, 232947, Control_c, 0, 64, 127
2, 232955, Control_c, 0, 64, 127
2, 232960, Note_on_c, 0, 41, 62
2, 232970, Note_off_c, 0, 48, 64
2, 232970, Note_on_c, 0, 84, 67
2, 232971, Note_off_c, 0, 82, 64
2, 232974, Note_off_c, 0, 85, 64
2, 232976, Note_on_c, 0, 81, 60
2, 232984, Note_off_c, 0, 82, 64
2, 232987, Note_off_c, 0, 85, 64
2, 233025, Note_on_c, 0, 48, 47
2, 233043, Note_on_c, 0, 77, 67
2, 233053, Note_on_c, 0, 72, 63
2, 233085, Note_off_c, 0, 84, 64
2, 233088, Note_on_c, 0, 53, 39
2, 233091, Note_off_c, 0, 81, 64
2, 233100, Note_off_c, 0, 48, 64
2, 233113, Note_off_c, 0, 77, 64
2, 233123, Note_off_c, 0, 72, 64
2, 233130, Note_on_c, 0, 60, 56
2, 233157, Note_off_c, 0, 53, 64
2, 233178, Note_on_c, 0, 53, 48
2, 233200, Note_off_c, 0, 60, 64
2, 233204, Note_on_c, 0, 85, 68
2, 233207, Note_on_c, 0, 89, 67
2, 233239, Note_on_c, 0, 48, 35
2, 233247, Note_off_c, 0, 53, 64
2, 233285, Note_off_c, 0, 41, 64
2, 233286, Control_c, 0, 64, 0
2, 233304, Note_off_c, 0, 89, 64
2, 233313, Note_on_c, 0, 41, 59
2, 233319, Note_off_c, 0, 85, 64
2, 233320, Note_on_c, 0, 84, 58
2, 233324, Note_on_c, 0, 89, 62
2, 233327, Note_off_c, 0, 48, 64
2, 233334, Control_c, 0, 64, 127
2, 233399, Note_on_c, 0, 48, 42
2, 233423, Note_on_c, 0, 77, 53
2, 233435, Note_off_c, 0, 84, 64
2, 233475, Note_on_c, 0, 53, 49
2, 233488, Note_off_c, 0, 48, 64
2, 233504, Note_off_c, 0, 89, 64
2, 233532, Note_on_c, 0, 57, 55
2, 233543, Note_off_c, 0, 53, 64
2, 233582, Note_on_c, 0, 60, 49
2, 233604, Note_on_c, 0, 89, 63
2, 233608, Note_off_c, 0, 77, 64
2, 233609, Note_on_c, 0, 77, 62
2, 233614, Note_off_c, 0, 57, 64
2, 233660, Note_off_c, 0, 60, 64
2, 233665, Note_on_c, 0, 65, 49
2, 233708, Note_off_c, 0, 41, 64
2, 233732, Note_on_c, 0, 69, 74
2, 233742, Note_off_c, 0, 65, 64
2, 233809, Note_off_c, 0, 69, 64
2, 233818, Note_on_c, 0, 65, 45
2, 233819, Note_off_c, 0, 89, 64
2, 233824, Note_off_c, 0, 77, 64
2, 233832, Note_on_c, 0, 89, 62
2, 233844, Note_on_c, 0, 77, 60
2, 233917, Note_on_c, 0, 60, 36
2, 233918, Control_c, 0, 64, 0
2, 233939, Note_off_c, 0, 65, 64
2, 233982, Control_c, 0, 64, 127
2, 233996, Note_on_c, 0, 57, 42
2, 233999, Note_off_c, 0, 60, 64
2, 234047, Note_off_c, 0, 89, 64
2, 234059, Note_off_c, 0, 77, 64
2, 234074, Note_on_c, 0, 53, 46
2, 234080, Note_on_c, 0, 89, 56
2, 234083, Note_on_c, 0, 77, 47
2, 234090, Note_off_c, 0, 57, 64
2, 234149, Note_off_c, 0, 53, 64
2, 234154, Note_on_c, 0, 48, 41
2, 234195, Note_off_c, 0, 89, 64
2, 234198, Note_off_c, 0, 77, 64
2, 234229, Note_off_c, 0, 48, 64
2, 234255, Note_on_c, 0, 37, 68
2, 234257, Note_on_c, 0, 89, 70
2, 234257, Note_on_c, 0, 85, 68
2, 234266, Control_c, 0, 64, 127
2, 234360, Note_on_c, 0, 65, 48
2, 234417, Note_on_c, 0, 90, 63
2, 234434, Note_on_c, 0, 61, 48
2, 234435, Note_off_c, 0, 85, 64
2, 234435, Note_off_c, 0, 89, 64
2, 234437, Note_on_c, 0, 80, 30
2, 234441, Note_off_c, 0, 65, 64
2, 234522, Note_off_c, 0, 61, 64
2, 234528, Control_c, 0, 64, 0
2, 234529, Note_off_c, 0, 37, 64
2, 234536, Note_on_c, 0, 91, 72
2, 234536, Note_on_c, 0, 56, 48
2, 234547, Note_off_c, 0, 90, 64
2, 234548, Note_on_c, 0, 85, 55
2, 234567, Note_off_c, 0, 80, 64
2, 234567, Control_c, 0, 64, 127
2, 234618, Note_on_c, 0, 68, 48
2, 234656, Note_on_c, 0, 92, 60
2, 234656, Note_on_c, 0, 80, 65
2, 234680, Note_off_c, 0, 91, 64
2, 234692, Note_off_c, 0, 85, 64
2, 234694, Note_on_c, 0, 61, 48
2, 234704, Note_off_c, 0, 68, 64
2, 234765, Control_c, 0, 64, 0
2, 234780, Note_on_c, 0, 94, 72
2, 234782, Note_off_c, 0, 61, 64
2, 234785, Note_on_c, 0, 51, 48
2, 234788, Note_on_c, 0, 84, 58
2, 234791, Note_off_c, 0, 80, 64
2, 234791, Note_off_c, 0, 92, 64
2, 234803, Control_c, 0, 64, 127
2, 234809, Note_off_c, 0, 56, 64
2, 234849, Note_on_c, 0, 66, 48
2, 234896, Note_on_c, 0, 92, 67
2, 234896, Note_on_c, 0, 90, 61
2, 234903, Note_off_c, 0, 94, 64
2, 234911, Note_off_c, 0, 84, 64
2, 234916, Note_off_c, 0, 66, 64
2, 234922, Note_on_c, 0, 60, 48
2, 234965, Note_off_c, 0, 90, 64
2, 234968, Note_on_c, 0, 90, 66
2, 234988, Control_c, 0, 64, 0
2, 235002, Note_off_c, 0, 60, 64
2, 235016, Note_on_c, 0, 101, 71
2, 235018, Note_on_c, 0, 56, 48
2, 235025, Note_off_c, 0, 51, 64
2, 235029, Note_off_c, 0, 92, 64
2, 235037, Control_c, 0, 64, 127
2, 235093, Note_on_c, 0, 68, 48
2, 235097, Note_off_c, 0, 90, 64
2, 235149, Note_on_c, 0, 60, 48
2, 235163, Note_off_c, 0, 68, 64
2, 235194, Note_on_c, 0, 92, 53
2, 235198, Note_on_c, 0, 99, 78
2, 235215, Note_off_c, 0, 101, 64
2, 235218, Control_c, 0, 64, 0
2, 235228, Note_off_c, 0, 99, 64
2, 235233, Note_off_c, 0, 60, 64
2, 235240, Note_on_c, 0, 99, 71
2, 235245, Note_on_c, 0, 89, 76
2, 235245, Note_on_c, 0, 53, 48
2, 235253, Note_off_c, 0, 56, 64
2, 235254, Note_off_c, 0, 92, 64
2, 235264, Control_c, 0, 64, 127
2, 235306, Note_on_c, 0, 68, 48
2, 235345, Note_on_c, 0, 97, 65
2, 235353, Note_on_c, 0, 92, 70
2, 235355, Note_off_c, 0, 99, 64
2, 235360, Note_off_c, 0, 89, 64
2, 235385, Note_on_c, 0, 61, 48
2, 235389, Note_off_c, 0, 68, 64
2, 235430, Note_off_c, 0, 53, 64
2, 235432, Control_c, 0, 64, 0
2, 235456, Note_on_c, 0, 96, 68
2, 235461, Note_on_c, 0, 53, 48
2, 235462, Note_on_c, 0, 87, 63
2, 235469, Note_off_c, 0, 61, 64
2, 235476, Control_c, 0, 64, 127
2, 235480, Note_off_c, 0, 97, 64
2, 235488, Note_off_c, 0, 92, 64
2, 235525, Note_on_c, 0, 94, 63
2, 235529, Note_on_c, 0, 85, 77
2, 235532, Note_on_c, 0, 69, 48
2, 235545, Note_off_c, 0, 96, 64
2, 235551, Note_off_c, 0, 87, 64
2, 235588, Note_on_c, 0, 84, 50
2, 235592, Note_on_c, 0, 93, 67
2, 235596, Note_on_c, 0, 63, 48
2, 235614, Note_off_c, 0, 94, 64
2, 235618, Note_off_c, 0, 85, 64
2, 235633, Note_off_c, 0, 69, 64
2, 235646, Note_off_c, 0, 53, 64
2, 235646, Control_c, 0, 64, 0
2, 235662, Note_off_c, 0, 63, 64
2, 235669, Note_on_c, 0, 96, 71
2, 235672, Note_on_c, 0, 87, 78
2, 235678, Note_on_c, 0, 58, 48
2, 235680, Note_off_c, 0, 84, 64
2, 235684, Note_off_c, 0, 93, 64
2, 235684, Control_c, 0, 64, 127
2, 235738, Note_on_c, 0, 73, 48
2, 235791, Note_on_c, 0, 65, 48
2, 235813, Note_off_c, 0, 73, 64
2, 235816, Note_on_c, 0, 94, 76
2, 235824, Note_on_c, 0, 85, 71
2, 235832, Note_off_c, 0, 96, 64
2, 235832, Poly_aftertouch_c, 0, 85, 101
2, 235835, Note_off_c, 0, 87, 64
2, 235846, Note_off_c, 0, 94, 64
2, 235853, Poly_aftertouch_c, 0, 85, 0
2, 235854, Note_off_c, 0, 85, 64
2, 235855, Control_c, 0, 64, 0
2, 235863, Note_off_c, 0, 58, 64
2, 235864, Note_off_c, 0, 65, 64
2, 235879, Note_on_c, 0, 51, 48
2, 235880, Note_on_c, 0, 94, 76
2, 235880, Note_on_c, 0, 85, 71
2, 235894, Control_c, 0, 64, 127
2, 235950, Note_on_c, 0, 92, 61
2, 235959, Note_on_c, 0, 73, 48
2, 235988, Note_off_c, 0, 94, 64
2, 235990, Note_on_c, 0, 87, 73
2, 236007, Note_off_c, 0, 85, 64
2, 236019, Note_on_c, 0, 63, 48
2, 236020, Note_off_c, 0, 73, 64
2, 236034, Note_on_c, 0, 91, 71
2, 236064, Note_off_c, 0, 51, 64
2, 236068, Note_off_c, 0, 92, 64
2, 236082, Control_c, 0, 64, 0
2, 236092, Note_off_c, 0, 63, 64
2, 236100, Note_on_c, 0, 56, 48
2, 236107, Note_on_c, 0, 94, 71
2, 236107, Note_on_c, 0, 84, 61
2, 236120, Control_c, 0, 64, 127
2, 236132, Note_off_c, 0, 91, 64
2, 236132, Note_off_c, 0, 87, 64
2, 236176, Note_on_c, 0, 72, 48
2, 236211, Note_on_c, 0, 92, 67
2, 236216, Note_on_c, 0, 87, 71
2, 236231, Note_off_c, 0, 84, 64
2, 236231, Note_off_c, 0, 94, 64
2, 236247, Note_on_c, 0, 63, 48
2, 236264, Note_off_c, 0, 72, 64
2, 236285, Note_off_c, 0, 56, 64
2, 236298, Control_c, 0, 64, 0
2, 236328, Note_on_c, 0, 83, 70
2, 236330, Note_on_c, 0, 61, 48
2, 236334, Note_off_c, 0, 63, 64
2, 236334, Note_on_c, 0, 90, 72
2, 236350, Control_c, 0, 64, 127
2, 236357, Note_off_c, 0, 92, 64
2, 236362, Note_off_c, 0, 87, 64
2, 236394, Note_on_c, 0, 71, 48
2, 236438, Note_on_c, 0, 89, 66
2, 236438, Note_on_c, 0, 85, 65
2, 236453, Note_off_c, 0, 83, 64
2, 236459, Note_off_c, 0, 90, 64
2, 236471, Note_on_c, 0, 65, 48
2, 236478, Note_off_c, 0, 71, 64
2, 236508, Control_c, 0, 64, 0
2, 236515, Note_off_c, 0, 61, 64
2, 236543, Note_on_c, 0, 92, 66
2, 236544, Note_off_c, 0, 65, 64
2, 236545, Note_on_c, 0, 54, 48
2, 236546, Note_on_c, 0, 82, 59
2, 236553, Control_c, 0, 64, 127
2, 236580, Note_off_c, 0, 85, 64
2, 236580, Note_off_c, 0, 89, 64
2, 236627, Note_on_c, 0, 70, 48
2, 236645, Note_on_c, 0, 90, 65
2, 236648, Note_on_c, 0, 85, 61
2, 236652, Note_off_c, 0, 92, 64
2, 236655, Note_off_c, 0, 82, 64
2, 236670, Note_on_c, 0, 63, 48
2, 236702, Note_off_c, 0, 70, 64
2, 236720, Control_c, 0, 64, 0
2, 236747, Note_on_c, 0, 78, 71
2, 236753, Note_off_c, 0, 63, 64
2, 236754, Note_on_c, 0, 89, 70
2, 236754, Note_on_c, 0, 58, 48
2, 236771, Control_c, 0, 64, 127
2, 236783, Note_off_c, 0, 90, 64
2, 236786, Note_off_c, 0, 85, 64
2, 236813, Note_off_c, 0, 54, 64
2, 236816, Note_on_c, 0, 66, 48
2, 236852, Note_on_c, 0, 87, 63
2, 236859, Note_on_c, 0, 82, 63
2, 236869, Note_off_c, 0, 78, 64
2, 236876, Note_off_c, 0, 89, 64
2, 236895, Note_on_c, 0, 63, 48
2, 236907, Note_off_c, 0, 66, 64
2, 236938, Control_c, 0, 64, 0
2, 236939, Note_off_c, 0, 58, 64
2, 236954, Note_off_c, 0, 87, 64
2, 236962, Note_off_c, 0, 63, 64
2, 236967, Note_on_c, 0, 77, 65
2, 236967, Note_on_c, 0, 44, 54
2, 236969, Note_on_c, 0, 87, 68
2, 236983, Control_c, 0, 64, 127
2, 236984, Note_off_c, 0, 82, 64
2, 237036, Note_on_c, 0, 61, 48
2, 237066, Note_on_c, 0, 85, 61
2, 237071, Note_on_c, 0, 80, 63
2, 237089, Note_on_c, 0, 56, 48
2, 237104, Note_off_c, 0, 77, 64
2, 237106, Note_off_c, 0, 87, 64
2, 237109, Note_off_c, 0, 61, 64
2, 237136, Control_c, 0, 64, 0
2, 237152, Note_off_c, 0, 44, 64
2, 237163, Note_on_c, 0, 53, 48
2, 237169, Note_off_c, 0, 56, 64
2, 237170, Note_on_c, 0, 84, 65
2, 237175, Note_on_c, 0, 73, 74
2, 237181, Control_c, 0, 64, 127
2, 237188, Note_off_c, 0, 85, 64
2, 237193, Note_off_c, 0, 80, 64
2, 237234, Note_on_c, 0, 61, 48
2, 237269, Note_on_c, 0, 82, 67
2, 237269, Note_on_c, 0, 77, 65
2, 237282, Note_on_c, 0, 56, 48
2, 237286, Note_off_c, 0, 61, 64
2, 237298, Note_off_c, 0, 84, 64
2, 237303, Note_off_c, 0, 73, 64
2, 237348, Note_off_c, 0, 53, 64
2, 237352, Control_c, 0, 64, 0
2, 237362, Note_off_c, 0, 56, 64
2, 237368, Note_on_c, 0, 72, 45
2, 237368, Note_on_c, 0, 44, 54
2, 237373, Note_on_c, 0, 80, 65
2, 237387, Control_c, 0, 64, 127
2, 237404, Note_off_c, 0, 77, 64
2, 237408, Note_off_c, 0, 82, 64
2, 237449, Note_on_c, 0, 60, 48
2, 237472, Note_on_c, 0, 81, 65
2, 237473, Note_on_c, 0, 78, 49
2, 237504, Note_on_c, 0, 54, 48
2, 237507, Note_off_c, 0, 72, 64
2, 237509, Note_off_c, 0, 60, 64
2, 237512, Note_off_c, 0, 80, 64
2, 237567, Control_c, 0, 64, 0
2, 237580, Note_on_c, 0, 72, 59
2, 237583, Note_on_c, 0, 84, 63
2, 237587, Note_off_c, 0, 54, 64
2, 237592, Note_on_c, 0, 51, 48
2, 237607, Note_off_c, 0, 81, 64
2, 237608, Note_off_c, 0, 78, 64
2, 237611, Control_c, 0, 64, 127
2, 237639, Note_off_c, 0, 44, 64
2, 237655, Note_on_c, 0, 66, 48
2, 237661, Note_on_c, 0, 82, 71
2, 237668, Note_off_c, 0, 84, 64
2, 237705, Note_on_c, 0, 75, 68
2, 237712, Note_off_c, 0, 72, 64
2, 237722, Note_on_c, 0, 56, 48
2, 237724, Note_off_c, 0, 66, 64
2, 237738, Note_on_c, 0, 78, 67
2, 237754, Note_off_c, 0, 82, 64
2, 237777, Note_off_c, 0, 51, 64
2, 237794, Control_c, 0, 64, 0
2, 237802, Note_off_c, 0, 56, 64
2, 237815, Note_on_c, 0, 77, 87
2, 237817, Note_on_c, 0, 73, 83
2, 237817, Note_on_c, 0, 37, 54
2, 237824, Note_off_c, 0, 78, 64
2, 237831, Note_off_c, 0, 75, 64
2, 237837, Control_c, 0, 64, 127
2, 237890, Note_on_c, 0, 61, 54
2, 237931, Note_on_c, 0, 78, 83
2, 237932, Note_on_c, 0, 68, 54
2, 237943, Note_off_c, 0, 77, 64
2, 237945, Note_off_c, 0, 73, 64
2, 237954, Note_on_c, 0, 53, 54
2, 237970, Note_off_c, 0, 61, 64
2, 238009, Control_c, 0, 64, 0
2, 238032, Note_on_c, 0, 44, 54
2, 238036, Note_on_c, 0, 73, 70
2, 238037, Note_off_c, 0, 53, 64
2, 238037, Note_on_c, 0, 79, 78
2, 238053, Note_off_c, 0, 78, 64
2, 238054, Note_off_c, 0, 68, 64
2, 238061, Control_c, 0, 64, 127
2, 238091, Note_off_c, 0, 37, 64
2, 238102, Note_on_c, 0, 56, 54
2, 238142, Note_on_c, 0, 80, 66
2, 238144, Note_on_c, 0, 68, 54
2, 238153, Note_off_c, 0, 73, 64
2, 238154, Note_off_c, 0, 79, 64
2, 238160, Note_on_c, 0, 53, 54
2, 238184, Note_off_c, 0, 56, 64
2, 238217, Note_off_c, 0, 44, 64
2, 238217, Control_c, 0, 64, 0
2, 238224, Note_off_c, 0, 53, 64
2, 238238, Note_on_c, 0, 39, 54
2, 238243, Note_on_c, 0, 82, 76
2, 238244, Note_on_c, 0, 72, 75
2, 238252, Note_off_c, 0, 80, 64
2, 238254, Note_off_c, 0, 68, 64
2, 238269, Control_c, 0, 64, 127
2, 238301, Note_on_c, 0, 56, 54
2, 238344, Note_off_c, 0, 72, 64
2, 238344, Note_on_c, 0, 78, 68
2, 238345, Note_on_c, 0, 80, 72
2, 238353, Note_off_c, 0, 82, 64
2, 238357, Note_on_c, 0, 48, 54
2, 238366, Note_off_c, 0, 56, 64
2, 238389, Note_off_c, 0, 78, 64
2, 238402, Note_on_c, 0, 78, 87
2, 238416, Control_c, 0, 64, 0
2, 238423, Note_off_c, 0, 39, 64
2, 238440, Note_off_c, 0, 48, 64
2, 238445, Note_on_c, 0, 89, 79
2, 238447, Note_on_c, 0, 44, 54
2, 238466, Note_off_c, 0, 80, 64
2, 238473, Control_c, 0, 64, 127
2, 238510, Note_on_c, 0, 56, 54
2, 238523, Note_off_c, 0, 78, 64
2, 238576, Note_on_c, 0, 48, 54
2, 238591, Note_off_c, 0, 56, 64
2, 238620, Note_on_c, 0, 80, 63
2, 238622, Control_c, 0, 64, 0
2, 238627, Note_on_c, 0, 87, 78
2, 238632, Note_off_c, 0, 44, 64
2, 238643, Note_off_c, 0, 87, 64
2, 238646, Note_off_c, 0, 89, 64
2, 238656, Note_on_c, 0, 41, 54
2, 238664, Note_on_c, 0, 87, 89
2, 238664, Note_on_c, 0, 77, 70
2, 238668, Note_off_c, 0, 48, 64
2, 238668, Control_c, 0, 64, 127
2, 238677, Note_off_c, 0, 80, 64
2, 238728, Note_on_c, 0, 56, 54
2, 238760, Note_on_c, 0, 85, 75
2, 238760, Note_on_c, 0, 80, 78
2, 238767, Note_off_c, 0, 77, 64
2, 238767, Note_off_c, 0, 87, 64
2, 238784, Note_on_c, 0, 49, 54
2, 238788, Note_off_c, 0, 56, 64
2, 238828, Control_c, 0, 64, 0
2, 238841, Note_off_c, 0, 41, 64
2, 238854, Note_on_c, 0, 41, 54
2, 238856, Note_on_c, 0, 84, 76
2, 238859, Note_on_c, 0, 75, 79
2, 238868, Note_off_c, 0, 80, 64
2, 238868, Note_off_c, 0, 85, 64
2, 238869, Control_c, 0, 64, 127
2, 238879, Note_off_c, 0, 49, 64
2, 238911, Note_on_c, 0, 82, 79
2, 238915, Note_off_c, 0, 84, 64
2, 238918, Note_off_c, 0, 75, 64
2, 238921, Note_on_c, 0, 73, 83
2, 238927, Note_on_c, 0, 57, 54
2, 238968, Note_on_c, 0, 81, 70
2, 238975, Note_on_c, 0, 72, 56
2, 238977, Note_off_c, 0, 82, 64
2, 238987, Note_off_c, 0, 73, 64
2, 238987, Note_on_c, 0, 51, 54
2, 239021, Control_c, 0, 64, 0
2, 239035, Note_off_c, 0, 57, 64
2, 239039, Note_off_c, 0, 41, 64
2, 239044, Note_on_c, 0, 84, 76
2, 239044, Note_on_c, 0, 75, 90
2, 239053, Note_on_c, 0, 46, 54
2, 239056, Note_off_c, 0, 51, 64
2, 239064, Note_off_c, 0, 81, 64
2, 239067, Control_c, 0, 64, 127
2, 239071, Note_off_c, 0, 72, 64
2, 239126, Note_on_c, 0, 61, 54
2, 239185, Note_on_c, 0, 53, 54
2, 239192, Note_off_c, 0, 61, 64
2, 239222, Note_on_c, 0, 82, 73
2, 239224, Note_on_c, 0, 73, 90
2, 239228, Note_off_c, 0, 75, 64
2, 239228, Note_off_c, 0, 84, 64
2, 239230, Control_c, 0, 64, 0
2, 239238, Note_off_c, 0, 46, 64
2, 239251, Note_off_c, 0, 82, 64
2, 239253, Note_off_c, 0, 73, 64
2, 239260, Note_off_c, 0, 53, 64
2, 239268, Note_on_c, 0, 73, 76
2, 239269, Note_on_c, 0, 82, 85
2, 239273, Note_on_c, 0, 39, 54
2, 239282, Control_c, 0, 64, 127
2, 239338, Note_on_c, 0, 80, 61
2, 239354, Note_off_c, 0, 82, 64
2, 239359, Note_on_c, 0, 61, 54
2, 239377, Note_on_c, 0, 75, 83
2, 239405, Note_on_c, 0, 51, 54
2, 239413, Note_off_c, 0, 61, 64
2, 239415, Note_off_c, 0, 73, 64
2, 239422, Note_on_c, 0, 79, 73
2, 239440, Note_off_c, 0, 80, 64
2, 239476, Control_c, 0, 64, 0
2, 239484, Note_off_c, 0, 51, 64
2, 239504, Note_on_c, 0, 72, 68
2, 239505, Note_on_c, 0, 44, 54
2, 239507, Note_on_c, 0, 82, 80
2, 239514, Note_off_c, 0, 75, 64
2, 239523, Control_c, 0, 64, 127
2, 239528, Note_off_c, 0, 79, 64
2, 239538, Note_off_c, 0, 39, 64
2, 239567, Note_on_c, 0, 60, 54
2, 239616, Note_on_c, 0, 75, 76
2, 239620, Note_on_c, 0, 80, 74
2, 239628, Note_off_c, 0, 72, 64
2, 239631, Note_off_c, 0, 82, 64
2, 239645, Note_off_c, 0, 60, 64
2, 239647, Note_on_c, 0, 54, 54
2, 239690, Note_off_c, 0, 44, 64
2, 239693, Control_c, 0, 64, 0
2, 239721, Note_on_c, 0, 49, 54
2, 239726, Note_on_c, 0, 71, 86
2, 239727, Note_off_c, 0, 54, 64
2, 239727, Note_on_c, 0, 78, 79
2, 239736, Note_off_c, 0, 75, 64
2, 239737, Control_c, 0, 64, 127
2, 239740, Note_off_c, 0, 80, 64
2, 239793, Note_on_c, 0, 59, 54
2, 239832, Note_on_c, 0, 77, 78
2, 239835, Note_on_c, 0, 73, 73
2, 239847, Note_on_c, 0, 56, 54
2, 239852, Note_off_c, 0, 71, 64
2, 239853, Note_off_c, 0, 78, 64
2, 239854, Note_off_c, 0, 59, 64
2, 239902, Control_c, 0, 64, 0
2, 239906, Note_off_c, 0, 49, 64
2, 239924, Note_on_c, 0, 70, 73
2, 239927, Note_on_c, 0, 80, 81
2, 239929, Note_on_c, 0, 42, 54
2, 239932, Note_off_c, 0, 56, 64
2, 239935, Note_off_c, 0, 77, 64
2, 239938, Note_off_c, 0, 73, 64
2, 239948, Control_c, 0, 64, 127
2, 240005, Note_on_c, 0, 58, 54
2, 240045, Note_on_c, 0, 78, 68
2, 240050, Note_on_c, 0, 73, 51
2, 240053, Note_off_c, 0, 70, 64
2, 240056, Note_off_c, 0, 80, 64
2, 240071, Note_off_c, 0, 58, 64
2, 240078, Note_on_c, 0, 51, 54
2, 240114, Note_off_c, 0, 42, 64
2, 240123, Control_c, 0, 64, 0
2, 240144, Note_on_c, 0, 77, 81
2, 240146, Note_on_c, 0, 66, 73
2, 240152, Note_on_c, 0, 46, 85
2, 240158, Note_off_c, 0, 51, 64
2, 240159, Control_c, 0, 64, 127
2, 240164, Note_off_c, 0, 78, 64
2, 240169, Note_off_c, 0, 73, 64
2, 240235, Note_on_c, 0, 58, 54
2, 240272, Note_on_c, 0, 75, 66
2, 240275, Note_on_c, 0, 70, 68
2, 240297, Note_on_c, 0, 51, 54
2, 240299, Note_off_c, 0, 77, 64
2, 240301, Note_off_c, 0, 66, 64
2, 240315, Note_off_c, 0, 58, 64
2, 240337, Note_off_c, 0, 46, 64
2, 240358, Control_c, 0, 64, 0
2, 240369, Note_off_c, 0, 75, 64
2, 240373, Note_on_c, 0, 77, 75
2, 240376, Note_on_c, 0, 65, 70
2, 240377, Note_off_c, 0, 51, 64
2, 240381, Note_on_c, 0, 44, 54
2, 240398, Note_off_c, 0, 70, 64
2, 240401, Control_c, 0, 64, 127
2, 240451, Note_on_c, 0, 56, 54
2, 240477, Note_on_c, 0, 75, 75
2, 240483, Note_on_c, 0, 68, 73
2, 240492, Note_off_c, 0, 77, 64
2, 240495, Note_off_c, 0, 65, 64
2, 240514, Note_on_c, 0, 53, 54
2, 240518, Note_off_c, 0, 56, 64
2, 240558, Control_c, 0, 64, 0
2, 240589, Note_off_c, 0, 53, 64
2, 240592, Note_on_c, 0, 73, 73
2, 240596, Note_on_c, 0, 65, 54
2, 240597, Control_c, 0, 64, 127
2, 240600, Note_on_c, 0, 49, 54
2, 240601, Note_off_c, 0, 75, 64
2, 240607, Note_off_c, 0, 68, 64
2, 240654, Note_off_c, 0, 44, 64
2, 240665, Note_on_c, 0, 56, 54
2, 240704, Note_on_c, 0, 70, 74
2, 240704, Note_on_c, 0, 68, 76
2, 240719, Note_off_c, 0, 73, 64
2, 240723, Note_off_c, 0, 65, 64
2, 240729, Note_on_c, 0, 53, 54
2, 240735, Note_off_c, 0, 56, 64
2, 240777, Control_c, 0, 64, 0
2, 240785, Note_off_c, 0, 49, 64
2, 240806, Note_on_c, 0, 32, 54
2, 240809, Note_off_c, 0, 53, 64
2, 240814, Note_on_c, 0, 72, 78
2, 240820, Note_on_c, 0, 60, 76
2, 240821, Note_off_c, 0, 68, 64
2, 240821, Note_off_c, 0, 70, 64
2, 240822, Control_c, 0, 64, 127
2, 240874, Note_on_c, 0, 54, 54
2, 240915, Note_on_c, 0, 70, 73
2, 240915, Note_on_c, 0, 63, 65
2, 240927, Note_on_c, 0, 51, 54
2, 240928, Note_off_c, 0, 72, 64
2, 240934, Note_off_c, 0, 60, 64
2, 240943, Note_off_c, 0, 54, 64
2, 240992, Control_c, 0, 64, 0
2, 241004, Note_on_c, 0, 68, 79
2, 241008, Note_off_c, 0, 51, 64
2, 241011, Note_on_c, 0, 44, 54
2, 241020, Note_on_c, 0, 54, 79
2, 241037, Note_off_c, 0, 63, 64
2, 241037, Note_off_c, 0, 70, 64
2, 241037, Control_c, 0, 64, 127
2, 241073, Note_on_c, 0, 60, 48
2, 241084, Note_off_c, 0, 32, 64
2, 241119, Note_off_c, 0, 54, 64
2, 241132, Note_on_c, 0, 63, 61
2, 241132, Note_on_c, 0, 56, 82
2, 241136, Note_on_c, 0, 54, 54
2, 241138, Note_off_c, 0, 68, 64
2, 241155, Note_off_c, 0, 60, 64
2, 241176, Note_off_c, 0, 44, 64
2, 241188, Note_on_c, 0, 31, 85
2, 241220, Note_on_c, 0, 49, 69
2, 241223, Control_c, 0, 64, 0
2, 241226, Note_off_c, 0, 54, 64
2, 241244, Note_off_c, 0, 56, 64
2, 241244, Note_off_c, 0, 63, 64
2, 241246, Note_on_c, 0, 64, 92
2, 241263, Note_off_c, 0, 49, 64
2, 241272, Control_c, 0, 64, 127
2, 241305, Note_on_c, 0, 61, 67
2, 241309, Note_off_c, 0, 64, 64
2, 241379, Note_on_c, 0, 58, 66
2, 241395, Note_off_c, 0, 61, 64
2, 241440, Note_on_c, 0, 51, 67
2, 241448, Note_off_c, 0, 58, 64
2, 241505, Note_on_c, 0, 52, 60
2, 241516, Note_off_c, 0, 51, 64
2, 241556, Note_on_c, 0, 49, 61
2, 241567, Note_off_c, 0, 52, 64
2, 241622, Note_on_c, 0, 48, 67
2, 241627, Note_on_c, 0, 32, 65
2, 241629, Note_off_c, 0, 49, 64
2, 241643, Note_off_c, 0, 31, 64
2, 241643, Control_c, 0, 64, 0
2, 241676, Note_on_c, 0, 51, 63
2, 241683, Control_c, 0, 64, 127
2, 241706, Note_off_c, 0, 48, 64
2, 241747, Note_on_c, 0, 55, 62
2, 241758, Control_c, 0, 64, 0
2, 241765, Note_off_c, 0, 51, 64
2, 241798, Control_c, 0, 64, 127
2, 241805, Note_on_c, 0, 57, 55
2, 241831, Note_off_c, 0, 55, 64
2, 241867, Note_on_c, 0, 56, 78
2, 241873, Note_off_c, 0, 57, 64
2, 241884, Note_off_c, 0, 32, 64
2, 241925, Note_on_c, 0, 68, 60
2, 241939, Note_off_c, 0, 56, 64
2, 241944, Note_on_c, 0, 33, 85
2, 241988, Note_on_c, 0, 51, 98
2, 241995, Note_off_c, 0, 68, 64
2, 241995, Control_c, 0, 64, 0
2, 242028, Note_on_c, 0, 66, 93
2, 242035, Note_off_c, 0, 51, 64
2, 242041, Control_c, 0, 64, 127
2, 242091, Note_on_c, 0, 63, 71
2, 242126, Note_off_c, 0, 66, 64
2, 242153, Note_on_c, 0, 60, 72
2, 242171, Note_off_c, 0, 63, 64
2, 242211, Note_on_c, 0, 53, 69
2, 242226, Note_off_c, 0, 60, 64
2, 242270, Note_on_c, 0, 54, 75
2, 242284, Note_off_c, 0, 53, 64
2, 242324, Note_on_c, 0, 51, 65
2, 242341, Note_off_c, 0, 54, 64
2, 242348, Control_c, 0, 64, 0
2, 242376, Note_on_c, 0, 34, 65
2, 242380, Note_on_c, 0, 50, 72
2, 242390, Control_c, 0, 64, 127
2, 242393, Note_off_c, 0, 51, 64
2, 242399, Note_off_c, 0, 33, 64
2, 242438, Note_on_c, 0, 53, 63
2, 242448, Note_off_c, 0, 50, 64
2, 242498, Note_on_c, 0, 57, 53
2, 242529, Note_off_c, 0, 53, 64
2, 242545, Note_off_c, 0, 34, 64
2, 242559, Note_on_c, 0, 59, 55
2, 242584, Note_off_c, 0, 57, 64
2, 242616, Note_on_c, 0, 58, 63
2, 242631, Note_off_c, 0, 59, 64
2, 242681, Note_on_c, 0, 70, 53
2, 242686, Note_on_c, 0, 34, 58
2, 242707, Control_c, 0, 64, 0
2, 242712, Note_off_c, 0, 58, 64
2, 242731, Note_on_c, 0, 50, 61
2, 242733, Note_on_c, 0, 66, 78
2, 242736, Note_off_c, 0, 70, 64
2, 242743, Note_off_c, 0, 34, 64
2, 242747, Control_c, 0, 64, 127
2, 242773, Note_off_c, 0, 50, 64
2, 242786, Note_on_c, 0, 65, 83
2, 242795, Note_off_c, 0, 66, 64
2, 242837, Note_on_c, 0, 77, 68
2, 242848, Note_off_c, 0, 65, 64
2, 242857, Note_on_c, 0, 46, 72
2, 242888, Note_on_c, 0, 53, 61
2, 242897, Note_on_c, 0, 71, 62
2, 242908, Note_off_c, 0, 77, 64
2, 242912, Note_on_c, 0, 62, 73
2, 242934, Note_off_c, 0, 46, 64
2, 242949, Note_on_c, 0, 70, 66
2, 242953, Note_off_c, 0, 53, 64
2, 242962, Note_off_c, 0, 62, 64
2, 242970, Note_off_c, 0, 71, 64
2, 242992, Note_on_c, 0, 82, 68
2, 243008, Note_off_c, 0, 70, 64
2, 243018, Note_on_c, 0, 50, 75
2, 243043, Note_on_c, 0, 58, 69
2, 243059, Note_on_c, 0, 78, 87
2, 243061, Note_off_c, 0, 50, 64
2, 243064, Note_on_c, 0, 65, 81
2, 243069, Note_off_c, 0, 82, 64
2, 243080, Note_off_c, 0, 58, 64
2, 243110, Note_on_c, 0, 77, 67
2, 243113, Note_off_c, 0, 65, 64
2, 243120, Note_off_c, 0, 78, 64
2, 243159, Note_on_c, 0, 89, 68
2, 243170, Note_off_c, 0, 77, 64
2, 243188, Note_on_c, 0, 53, 56
2, 243214, Note_on_c, 0, 62, 80
2, 243225, Note_on_c, 0, 83, 73
2, 243230, Note_off_c, 0, 89, 64
2, 243232, Note_on_c, 0, 70, 76
2, 243279, Note_on_c, 0, 82, 79
2, 243290, Note_off_c, 0, 83, 64
2, 243294, Note_off_c, 0, 53, 64
2, 243330, Note_on_c, 0, 101, 73
2, 243343, Note_off_c, 0, 70, 64
2, 243352, Note_off_c, 0, 62, 64
2, 243362, Control_c, 0, 64, 0
2, 243371, Note_on_c, 0, 58, 74
2, 243396, Note_on_c, 0, 65, 80
2, 243416, Control_c, 0, 64, 127
2, 243423, Note_on_c, 0, 74, 83
2, 243427, Note_on_c, 0, 98, 75
2, 243441, Note_off_c, 0, 101, 64
2, 243453, Note_off_c, 0, 82, 64
2, 243482, Note_on_c, 0, 94, 55
2, 243504, Note_off_c, 0, 65, 64
2, 243506, Note_off_c, 0, 74, 64
2, 243508, Note_off_c, 0, 98, 64
2, 243523, Note_off_c, 0, 58, 64
2, 243534, Note_on_c, 0, 89, 66
2, 243558, Note_off_c, 0, 94, 64
2, 243587, Note_on_c, 0, 86, 82
2, 243609, Note_off_c, 0, 89, 64
2, 243643, Note_on_c, 0, 82, 59
2, 243664, Note_off_c, 0, 86, 64
2, 243690, Note_on_c, 0, 77, 73
2, 243717, Note_off_c, 0, 82, 64
2, 243756, Note_on_c, 0, 74, 78
2, 243780, Note_off_c, 0, 77, 64
2, 243812, Note_on_c, 0, 70, 67
2, 243837, Note_off_c, 0, 74, 64
2, 243871, Note_on_c, 0, 65, 68
2, 243885, Note_off_c, 0, 70, 64
2, 243935, Note_on_c, 0, 58, 78
2, 243970, Note_off_c, 0, 65, 64
2, 243996, Note_on_c, 0, 53, 68
2, 244017, Note_off_c, 0, 58, 64
2, 244054, Note_off_c, 0, 53, 64
2, 244063, Note_on_c, 0, 46, 79
2, 244093, Note_off_c, 0, 46, 64
2, 244124, Note_on_c, 0, 33, 61
2, 244143, Note_on_c, 0, 51, 85
2, 244160, Control_c, 0, 64, 0
2, 244176, Note_on_c, 0, 48, 52
2, 244180, Note_on_c, 0, 66, 98
2, 244203, Note_off_c, 0, 51, 64
2, 244249, Note_on_c, 0, 63, 64
2, 244253, Control_c, 0, 64, 127
2, 244270, Note_off_c, 0, 66, 64
2, 244304, Note_on_c, 0, 60, 70
2, 244319, Note_off_c, 0, 63, 64
2, 244362, Note_on_c, 0, 53, 68
2, 244384, Note_off_c, 0, 60, 64
2, 244412, Note_off_c, 0, 33, 64
2, 244420, Note_on_c, 0, 54, 51
2, 244434, Note_off_c, 0, 53, 64
2, 244464, Note_off_c, 0, 48, 64
2, 244472, Note_on_c, 0, 51, 49
2, 244486, Note_off_c, 0, 54, 64
2, 244532, Note_on_c, 0, 50, 69
2, 244536, Note_on_c, 0, 41, 64
2, 244538, Control_c, 0, 64, 0
2, 244540, Note_on_c, 0, 34, 63
2, 244557, Note_off_c, 0, 51, 64
2, 244586, Note_on_c, 0, 53, 56
2, 244588, Control_c, 0, 64, 127
2, 244602, Note_off_c, 0, 50, 64
2, 244647, Note_on_c, 0, 57, 53
2, 244677, Note_off_c, 0, 53, 64
2, 244708, Note_on_c, 0, 59, 45
2, 244728, Note_off_c, 0, 57, 64
2, 244742, Note_off_c, 0, 41, 64
2, 244750, Note_off_c, 0, 34, 64
2, 244762, Note_on_c, 0, 58, 70
2, 244779, Note_off_c, 0, 59, 64
2, 244825, Note_on_c, 0, 70, 56
2, 244845, Note_off_c, 0, 58, 64
2, 244888, Note_on_c, 0, 35, 86
2, 244904, Note_off_c, 0, 70, 64
2, 244907, Note_on_c, 0, 53, 97
2, 244923, Control_c, 0, 64, 0
2, 244939, Note_on_c, 0, 68, 85
2, 244940, Note_on_c, 0, 50, 77
2, 244949, Note_off_c, 0, 53, 64
2, 244970, Control_c, 0, 64, 127
2, 245000, Note_on_c, 0, 65, 77
2, 245015, Note_off_c, 0, 68, 64
2, 245045, Note_on_c, 0, 62, 72
2, 245057, Note_off_c, 0, 65, 64
2, 245101, Note_on_c, 0, 55, 63
2, 245126, Note_off_c, 0, 62, 64
2, 245148, Note_on_c, 0, 56, 78
2, 245183, Note_off_c, 0, 55, 64
2, 245184, Note_off_c, 0, 35, 64
2, 245202, Note_on_c, 0, 53, 65
2, 245207, Note_off_c, 0, 50, 64
2, 245218, Note_off_c, 0, 56, 64
2, 245241, Control_c, 0, 64, 0
2, 245259, Note_on_c, 0, 52, 69
2, 245263, Note_on_c, 0, 43, 65
2, 245263, Note_on_c, 0, 36, 64
2, 245279, Note_off_c, 0, 53, 64
2, 245286, Control_c, 0, 64, 127
2, 245307, Note_on_c, 0, 55, 58
2, 245317, Note_off_c, 0, 52, 64
2, 245364, Note_on_c, 0, 59, 57
2, 245384, Note_off_c, 0, 55, 64
2, 245408, Note_off_c, 0, 36, 64
2, 245410, Note_on_c, 0, 61, 41
2, 245424, Note_off_c, 0, 43, 64
2, 245433, Note_off_c, 0, 59, 64
2, 245469, Note_on_c, 0, 60, 60
2, 245480, Note_off_c, 0, 61, 64
2, 245518, Note_on_c, 0, 72, 55
2, 245529, Note_on_c, 0, 36, 58
2, 245531, Note_off_c, 0, 60, 64
2, 245540, Control_c, 0, 64, 0
2, 245544, Note_on_c, 0, 43, 85
2, 245570, Note_off_c, 0, 36, 64
2, 245576, Note_on_c, 0, 52, 72
2, 245581, Note_off_c, 0, 43, 64
2, 245584, Note_on_c, 0, 63, 73
2, 245584, Control_c, 0, 64, 127
2, 245600, Note_off_c, 0, 72, 64
2, 245616, Note_off_c, 0, 52, 64
2, 245624, Note_on_c, 0, 64, 75
2, 245641, Note_off_c, 0, 63, 64
2, 245680, Note_on_c, 0, 48, 73
2, 245682, Note_on_c, 0, 76, 62
2, 245694, Note_off_c, 0, 64, 64
2, 245706, Note_on_c, 0, 55, 65
2, 245716, Note_off_c, 0, 48, 64
2, 245735, Note_on_c, 0, 64, 45
2, 245738, Note_on_c, 0, 66, 73
2, 245742, Note_off_c, 0, 55, 64
2, 245748, Note_off_c, 0, 76, 64
2, 245765, Note_off_c, 0, 64, 64
2, 245783, Note_on_c, 0, 67, 81
2, 245798, Note_off_c, 0, 66, 64
2, 245832, Note_on_c, 0, 52, 83
2, 245844, Note_on_c, 0, 79, 84
2, 245854, Note_off_c, 0, 67, 64
2, 245866, Note_on_c, 0, 60, 83
2, 245872, Note_off_c, 0, 52, 64
2, 245892, Note_on_c, 0, 67, 79
2, 245894, Note_on_c, 0, 71, 73
2, 245898, Note_off_c, 0, 60, 64
2, 245904, Note_off_c, 0, 79, 64
2, 245924, Note_off_c, 0, 67, 64
2, 245938, Note_on_c, 0, 72, 68
2, 245962, Note_off_c, 0, 71, 64
2, 245984, Note_on_c, 0, 84, 70
2, 245998, Note_on_c, 0, 55, 54
2, 246008, Note_off_c, 0, 72, 64
2, 246024, Note_on_c, 0, 64, 85
2, 246034, Note_off_c, 0, 55, 64
2, 246042, Note_on_c, 0, 75, 78
2, 246049, Note_on_c, 0, 72, 91
2, 246052, Note_off_c, 0, 64, 64
2, 246064, Note_off_c, 0, 84, 64
2, 246088, Note_off_c, 0, 72, 64
2, 246098, Note_on_c, 0, 76, 75
2, 246125, Note_off_c, 0, 75, 64
2, 246149, Note_on_c, 0, 100, 70
2, 246169, Note_off_c, 0, 76, 64
2, 246176, Note_on_c, 0, 60, 60
2, 246191, Control_c, 0, 64, 0
2, 246192, Note_on_c, 0, 67, 36
2, 246200, Note_on_c, 0, 96, 87
2, 246202, Note_on_c, 0, 76, 68
2, 246224, Control_c, 0, 64, 127
2, 246226, Note_off_c, 0, 100, 64
2, 246256, Note_on_c, 0, 91, 57
2, 246282, Note_off_c, 0, 96, 64
2, 246288, Note_off_c, 0, 60, 64
2, 246292, Note_off_c, 0, 67, 64
2, 246307, Note_on_c, 0, 88, 79
2, 246315, Note_off_c, 0, 76, 64
2, 246339, Note_off_c, 0, 91, 64
2, 246356, Note_on_c, 0, 84, 85
2, 246372, Note_off_c, 0, 88, 64
2, 246407, Note_on_c, 0, 79, 76
2, 246421, Note_off_c, 0, 84, 64
2, 246457, Note_on_c, 0, 76, 89
2, 246475, Note_off_c, 0, 79, 64
2, 246508, Note_on_c, 0, 72, 75
2, 246535, Note_off_c, 0, 76, 64
2, 246558, Note_on_c, 0, 67, 82
2, 246578, Note_off_c, 0, 72, 64
2, 246609, Note_on_c, 0, 64, 79
2, 246634, Note_off_c, 0, 67, 64
2, 246672, Note_on_c, 0, 60, 85
2, 246678, Note_off_c, 0, 64, 64
2, 246730, Note_on_c, 0, 55, 83
2, 246745, Note_off_c, 0, 60, 64
2, 246787, Note_on_c, 0, 48, 87
2, 246801, Note_off_c, 0, 55, 64
2, 246863, Control_c, 0, 64, 0
2, 246892, Note_on_c, 0, 80, 90
2, 246895, Note_on_c, 0, 68, 92
2, 246896, Note_on_c, 0, 29, 85
2, 246898, Note_on_c, 0, 41, 85
2, 246921, Note_off_c, 0, 48, 64
2, 247024, Control_c, 0, 64, 127
2, 247038, Note_on_c, 0, 48, 56
2, 247091, Note_off_c, 0, 29, 64
2, 247093, Note_off_c, 0, 41, 64
2, 247093, Note_on_c, 0, 56, 70
2, 247097, Note_off_c, 0, 48, 64
2, 247159, Note_off_c, 0, 56, 64
2, 247161, Note_on_c, 0, 48, 59
2, 247216, Note_off_c, 0, 48, 64
2, 247223, Note_on_c, 0, 56, 68
2, 247274, Note_on_c, 0, 48, 55
2, 247285, Note_off_c, 0, 56, 64
2, 247321, Control_c, 0, 64, 0
2, 247335, Note_on_c, 0, 41, 72
2, 247337, Note_on_c, 0, 79, 83
2, 247338, Note_on_c, 0, 67, 85
2, 247347, Note_off_c, 0, 80, 64
2, 247349, Note_off_c, 0, 48, 64
2, 247350, Note_off_c, 0, 68, 64
2, 247365, Control_c, 0, 64, 127
2, 247415, Note_on_c, 0, 49, 51
2, 247441, Note_on_c, 0, 66, 95
2, 247446, Note_on_c, 0, 78, 83
2, 247455, Note_on_c, 0, 56, 56
2, 247460, Note_off_c, 0, 79, 64
2, 247461, Note_off_c, 0, 67, 64
2, 247462, Note_off_c, 0, 49, 64
2, 247515, Note_off_c, 0, 56, 64
2, 247526, Note_on_c, 0, 49, 56
2, 247530, Note_off_c, 0, 41, 64
2, 247536, Note_on_c, 0, 77, 85
2, 247536, Note_on_c, 0, 65, 89
2, 247554, Note_off_c, 0, 66, 64
2, 247559, Note_off_c, 0, 78, 64
2, 247576, Note_off_c, 0, 49, 64
2, 247598, Note_on_c, 0, 56, 52
2, 247612, Note_on_c, 0, 76, 77
2, 247614, Note_on_c, 0, 64, 86
2, 247631, Note_off_c, 0, 65, 64
2, 247631, Note_off_c, 0, 77, 64
2, 247646, Note_on_c, 0, 49, 30
2, 247656, Note_off_c, 0, 56, 64
2, 247667, Control_c, 0, 64, 0
2, 247693, Note_on_c, 0, 63, 85
2, 247698, Note_on_c, 0, 75, 81
2, 247700, Note_on_c, 0, 43, 73
2, 247707, Note_off_c, 0, 49, 64
2, 247707, Note_off_c, 0, 76, 64
2, 247709, Note_off_c, 0, 64, 64
2, 247717, Control_c, 0, 64, 127
2, 247770, Note_on_c, 0, 49, 30
2, 247777, Note_on_c, 0, 74, 88
2, 247777, Note_on_c, 0, 62, 91
2, 247788, Note_off_c, 0, 63, 64
2, 247793, Note_off_c, 0, 75, 64
2, 247836, Note_on_c, 0, 58, 52
2, 247840, Note_on_c, 0, 73, 91
2, 247840, Note_on_c, 0, 61, 97
2, 247858, Note_off_c, 0, 49, 64
2, 247862, Note_off_c, 0, 62, 64
2, 247862, Note_off_c, 0, 74, 64
2, 247883, Note_off_c, 0, 58, 64
2, 247885, Note_off_c, 0, 61, 64
2, 247885, Note_off_c, 0, 73, 64
2, 247895, Note_off_c, 0, 43, 64
2, 247896, Note_on_c, 0, 49, 48
2, 247900, Note_on_c, 0, 73, 89
2, 247900, Note_on_c, 0, 61, 94
2, 247961, Note_off_c, 0, 49, 64
2, 247961, Note_on_c, 0, 58, 63
2, 248014, Note_on_c, 0, 49, 59
2, 248016, Note_off_c, 0, 58, 64
2, 248020, Control_c, 0, 64, 0
2, 248071, Note_off_c, 0, 49, 64
2, 248071, Note_on_c, 0, 36, 85
2, 248080, Note_on_c, 0, 67, 85
2, 248082, Note_on_c, 0, 70, 82
2, 248090, Control_c, 0, 64, 127
2, 248146, Note_on_c, 0, 48, 57
2, 248207, Note_on_c, 0, 58, 57
2, 248222, Note_off_c, 0, 48, 64
2, 248257, Note_off_c, 0, 58, 64
2, 248266, Note_off_c, 0, 36, 64
2, 248273, Note_on_c, 0, 72, 86
2, 248275, Note_on_c, 0, 60, 85
2, 248278, Note_on_c, 0, 48, 57
2, 248286, Note_off_c, 0, 67, 64
2, 248288, Note_off_c, 0, 70, 64
2, 248295, Note_off_c, 0, 61, 64
2, 248295, Note_off_c, 0, 73, 64
2, 248337, Note_off_c, 0, 48, 64
2, 248339, Note_on_c, 0, 58, 70
2, 248399, Note_off_c, 0, 58, 64
2, 248400, Note_on_c, 0, 48, 61
2, 248450, Control_c, 0, 64, 0
2, 248478, Note_on_c, 0, 68, 85
2, 248480, Note_on_c, 0, 41, 83
2, 248482, Note_on_c, 0, 65, 86
2, 248486, Note_off_c, 0, 48, 64
2, 248496, Note_off_c, 0, 72, 64
2, 248498, Note_off_c, 0, 60, 64
2, 248524, Control_c, 0, 64, 127
2, 248558, Note_off_c, 0, 65, 64
2, 248567, Note_off_c, 0, 41, 64
2, 248567, Note_off_c, 0, 68, 64
2, 248692, Note_on_c, 0, 80, 64
2, 248695, Note_on_c, 0, 84, 67
2, 248695, Note_on_c, 0, 68, 48
2, 248707, Control_c, 0, 64, 0
2, 248746, Note_on_c, 0, 65, 47
2, 248753, Control_c, 0, 64, 127
2, 248792, Note_on_c, 0, 92, 68
2, 248793, Note_on_c, 0, 89, 68
2, 248804, Note_off_c, 0, 65, 64
2, 248807, Note_off_c, 0, 80, 64
2, 248810, Note_off_c, 0, 84, 64
2, 248813, Note_on_c, 0, 60, 46
2, 248880, Note_off_c, 0, 68, 64
2, 248888, Note_off_c, 0, 60, 64
2, 248892, Control_c, 0, 64, 0
2, 248898, Note_off_c, 0, 89, 64
2, 248899, Note_on_c, 0, 53, 46
2, 248902, Note_on_c, 0, 89, 63
2, 248904, Note_on_c, 0, 85, 58
2, 248907, Note_off_c, 0, 92, 64
2, 248928, Control_c, 0, 64, 127
2, 248967, Note_on_c, 0, 61, 45
2, 248992, Note_on_c, 0, 80, 62
2, 248992, Note_on_c, 0, 77, 35
2, 249017, Note_off_c, 0, 89, 64
2, 249019, Note_off_c, 0, 85, 64
2, 249035, Note_off_c, 0, 61, 64
2, 249035, Note_on_c, 0, 65, 45
2, 249077, Note_off_c, 0, 77, 64
2, 249084, Note_off_c, 0, 53, 64
2, 249089, Note_on_c, 0, 77, 65
2, 249091, Note_on_c, 0, 73, 76
2, 249095, Note_off_c, 0, 65, 64
2, 249099, Note_on_c, 0, 68, 45
2, 249107, Note_off_c, 0, 80, 64
2, 249144, Note_on_c, 0, 65, 45
2, 249168, Note_on_c, 0, 80, 62
2, 249171, Note_on_c, 0, 85, 68
2, 249190, Note_on_c, 0, 61, 44
2, 249204, Note_off_c, 0, 77, 64
2, 249206, Note_off_c, 0, 73, 64
2, 249217, Note_off_c, 0, 65, 64
2, 249232, Control_c, 0, 64, 0
2, 249272, Note_off_c, 0, 61, 64
2, 249272, Note_on_c, 0, 82, 63
2, 249272, Note_on_c, 0, 79, 54
2, 249277, Note_on_c, 0, 55, 44
2, 249283, Note_off_c, 0, 80, 64
2, 249284, Note_off_c, 0, 68, 64
2, 249285, Control_c, 0, 64, 127
2, 249286, Note_off_c, 0, 85, 64
2, 249334, Note_on_c, 0, 61, 43
2, 249365, Note_on_c, 0, 77, 63
2, 249367, Note_on_c, 0, 70, 60
2, 249384, Note_on_c, 0, 65, 43
2, 249387, Note_off_c, 0, 79, 64
2, 249387, Note_off_c, 0, 82, 64
2, 249397, Note_off_c, 0, 61, 64
2, 249444, Note_on_c, 0, 67, 43
2, 249450, Note_off_c, 0, 77, 64
2, 249453, Note_off_c, 0, 65, 64
2, 249457, Note_on_c, 0, 71, 77
2, 249459, Note_on_c, 0, 77, 59
2, 249462, Note_off_c, 0, 70, 64
2, 249462, Note_off_c, 0, 55, 64
2, 249497, Note_on_c, 0, 65, 42
2, 249543, Note_on_c, 0, 83, 72
2, 249544, Note_on_c, 0, 79, 56
2, 249550, Note_on_c, 0, 61, 41
2, 249570, Note_off_c, 0, 65, 64
2, 249572, Note_off_c, 0, 71, 64
2, 249574, Note_off_c, 0, 77, 64
2, 249614, Control_c, 0, 64, 0
2, 249623, Note_off_c, 0, 61, 64
2, 249629, Note_off_c, 0, 67, 64
2, 249639, Note_off_c, 0, 79, 64
2, 249641, Note_on_c, 0, 48, 41
2, 249644, Note_on_c, 0, 79, 60
2, 249646, Note_on_c, 0, 84, 62
2, 249658, Note_off_c, 0, 83, 64
2, 249658, Control_c, 0, 64, 127
2, 249720, Note_on_c, 0, 55, 40
2, 249736, Note_on_c, 0, 76, 49
2, 249741, Note_on_c, 0, 72, 56
2, 249761, Note_off_c, 0, 84, 64
2, 249765, Note_off_c, 0, 79, 64
2, 249775, Note_off_c, 0, 55, 64
2, 249781, Note_on_c, 0, 60, 40
2, 249826, Note_off_c, 0, 72, 64
2, 249826, Note_off_c, 0, 48, 64
2, 249832, Note_on_c, 0, 70, 69
2, 249836, Note_on_c, 0, 72, 66
2, 249838, Note_on_c, 0, 64, 39
2, 249841, Note_off_c, 0, 60, 64
2, 249851, Note_off_c, 0, 76, 64
2, 249865, Control_c, 0, 64, 0
2, 249888, Control_c, 0, 64, 127
2, 249892, Note_on_c, 0, 60, 39
2, 249944, Note_on_c, 0, 79, 57
2, 249944, Note_on_c, 0, 76, 56
2, 249944, Note_on_c, 0, 55, 38
2, 249945, Note_off_c, 0, 64, 64
2, 249951, Note_off_c, 0, 70, 64
2, 249952, Note_off_c, 0, 60, 64
2, 249955, Note_off_c, 0, 72, 64
2, 250017, Note_off_c, 0, 55, 64
2, 250044, Control_c, 0, 64, 0
2, 250056, Note_on_c, 0, 96, 85
2, 250056, Note_on_c, 0, 44, 85
2, 250056, Note_on_c, 0, 32, 95
2, 250057, Note_on_c, 0, 87, 85
2, 250059, Note_off_c, 0, 76, 64
2, 250059, Note_off_c, 0, 79, 64
2, 250059, Note_on_c, 0, 84, 85
2, 250060, Control_c, 0, 64, 0
2, 250072, Note_on_c, 0, 96, 85
2, 250073, Note_on_c, 0, 87, 85
2, 250075, Note_on_c, 0, 84, 85
2, 250091, Control_c, 0, 64, 127
2, 250107, Control_c, 0, 64, 127
2, 250136, Note_off_c, 0, 84, 64
2, 250136, Note_off_c, 0, 87, 64
2, 250136, Note_off_c, 0, 96, 64
2, 250169, Note_on_c, 0, 51, 75
2, 250226, Note_on_c, 0, 56, 42
2, 250238, Note_off_c, 0, 51, 64
2, 250274, Note_on_c, 0, 60, 66
2, 250300, Note_off_c, 0, 56, 64
2, 250335, Note_on_c, 0, 63, 86
2, 250368, Note_off_c, 0, 60, 64
2, 250390, Note_off_c, 0, 32, 64
2, 250390, Note_off_c, 0, 44, 64
2, 250395, Note_on_c, 0, 68, 85
2, 250415, Note_off_c, 0, 63, 64
2, 250448, Note_off_c, 0, 87, 64
2, 250460, Note_on_c, 0, 83, 90
2, 250463, Note_on_c, 0, 95, 85
2, 250464, Note_on_c, 0, 87, 79
2, 250466, Note_on_c, 0, 72, 86
2, 250467, Note_off_c, 0, 96, 64
2, 250468, Note_off_c, 0, 68, 64
2, 250470, Note_off_c, 0, 84, 64
2, 250519, Note_on_c, 0, 68, 72
2, 250542, Note_off_c, 0, 72, 64
2, 250556, Note_off_c, 0, 87, 64
2, 250567, Note_on_c, 0, 94, 78
2, 250567, Note_on_c, 0, 82, 87
2, 250572, Note_on_c, 0, 87, 85
2, 250577, Note_off_c, 0, 83, 64
2, 250577, Note_on_c, 0, 63, 74
2, 250580, Note_off_c, 0, 95, 64
2, 250594, Note_off_c, 0, 68, 64
2, 250647, Note_on_c, 0, 60, 45
2, 250657, Note_off_c, 0, 87, 64
2, 250658, Note_off_c, 0, 63, 64
2, 250658, Note_on_c, 0, 81, 74
2, 250660, Note_on_c, 0, 87, 79
2, 250661, Note_on_c, 0, 93, 85
2, 250679, Note_off_c, 0, 82, 64
2, 250679, Note_off_c, 0, 94, 64
2, 250703, Note_on_c, 0, 56, 70
2, 250713, Note_off_c, 0, 60, 64
2, 250724, Note_on_c, 0, 92, 85
2, 250724, Note_on_c, 0, 80, 83
2, 250733, Note_off_c, 0, 81, 64
2, 250736, Note_off_c, 0, 93, 64
2, 250743, Note_on_c, 0, 51, 73
2, 250758, Note_off_c, 0, 56, 64
2, 250764, Note_off_c, 0, 87, 64
2, 250776, Note_on_c, 0, 91, 85
2, 250780, Note_on_c, 0, 79, 90
2, 250799, Note_off_c, 0, 80, 64
2, 250799, Note_off_c, 0, 92, 64
2, 250805, Control_c, 0, 64, 0
2, 250823, Note_on_c, 0, 46, 80
2, 250825, Note_off_c, 0, 51, 64
2, 250830, Note_on_c, 0, 78, 85
2, 250834, Note_on_c, 0, 90, 86
2, 250846, Control_c, 0, 64, 127
2, 250851, Note_off_c, 0, 91, 64
2, 250855, Note_off_c, 0, 79, 64
2, 250880, Note_on_c, 0, 51, 56
2, 250904, Note_on_c, 0, 89, 81
2, 250904, Note_on_c, 0, 77, 79
2, 250924, Note_off_c, 0, 78, 64
2, 250928, Note_off_c, 0, 90, 64
2, 250935, Note_on_c, 0, 55, 57
2, 250942, Note_off_c, 0, 51, 64
2, 250968, Note_on_c, 0, 88, 85
2, 250968, Note_on_c, 0, 76, 93
2, 250972, Note_off_c, 0, 77, 64
2, 250972, Note_off_c, 0, 89, 64
2, 251015, Note_off_c, 0, 55, 64
2, 251035, Note_on_c, 0, 75, 79
2, 251037, Note_on_c, 0, 87, 85
2, 251040, Note_on_c, 0, 61, 66
2, 251053, Note_off_c, 0, 76, 64
2, 251053, Note_off_c, 0, 88, 64
2, 251094, Note_off_c, 0, 61, 64
2, 251104, Note_on_c, 0, 55, 73
2, 251121, Note_off_c, 0, 46, 64
2, 251168, Note_off_c, 0, 55, 64
2, 251173, Note_on_c, 0, 51, 75
2, 251213, Control_c, 0, 64, 0
2, 251229, Note_off_c, 0, 51, 64
2, 251233, Note_on_c, 0, 39, 73
2, 251243, Note_on_c, 0, 79, 79
2, 251261, Control_c, 0, 64, 127
2, 251303, Note_on_c, 0, 51, 57
2, 251333, Note_off_c, 0, 75, 64
2, 251358, Note_on_c, 0, 55, 76
2, 251360, Note_off_c, 0, 51, 64
2, 251423, Note_off_c, 0, 55, 64
2, 251428, Note_on_c, 0, 73, 76
2, 251428, Note_on_c, 0, 63, 59
2, 251429, Note_on_c, 0, 85, 85
2, 251433, Note_off_c, 0, 87, 64
2, 251473, Note_off_c, 0, 63, 64
2, 251489, Note_on_c, 0, 55, 81
2, 251538, Note_on_c, 0, 51, 68
2, 251544, Note_off_c, 0, 55, 64
2, 251552, Note_off_c, 0, 39, 64
2, 251576, Note_off_c, 0, 79, 64
2, 251583, Control_c, 0, 64, 0
2, 251610, Note_off_c, 0, 51, 64
2, 251615, Note_on_c, 0, 44, 79
2, 251617, Note_on_c, 0, 84, 81
2, 251620, Note_on_c, 0, 72, 80
2, 251641, Control_c, 0, 64, 127
2, 251645, Note_off_c, 0, 73, 64
2, 251646, Note_off_c, 0, 85, 64
2, 251711, Note_off_c, 0, 84, 64
2, 251714, Note_off_c, 0, 72, 64
2, 251804, Note_on_c, 0, 72, 65
2, 251807, Note_on_c, 0, 75, 66
2, 251811, Note_on_c, 0, 60, 46
2, 251862, Note_on_c, 0, 56, 46
2, 251890, Note_off_c, 0, 44, 64
2, 251908, Note_on_c, 0, 84, 70
2, 251911, Note_on_c, 0, 80, 58
2, 251922, Note_off_c, 0, 75, 64
2, 251922, Note_on_c, 0, 51, 46
2, 251937, Note_off_c, 0, 72, 64
2, 251938, Note_off_c, 0, 56, 64
2, 251995, Note_off_c, 0, 51, 64
2, 251996, Note_off_c, 0, 60, 64
2, 252004, Control_c, 0, 64, 0
2, 252006, Note_off_c, 0, 80, 64
2, 252012, Note_on_c, 0, 77, 59
2, 252015, Note_on_c, 0, 80, 67
2, 252020, Note_on_c, 0, 41, 45
2, 252023, Note_off_c, 0, 84, 64
2, 252040, Control_c, 0, 64, 127
2, 252083, Note_on_c, 0, 49, 45
2, 252104, Note_on_c, 0, 73, 54
2, 252107, Note_on_c, 0, 68, 60
2, 252127, Note_off_c, 0, 77, 64
2, 252130, Note_off_c, 0, 80, 64
2, 252143, Note_off_c, 0, 49, 64
2, 252145, Note_on_c, 0, 56, 45
2, 252196, Note_off_c, 0, 56, 64
2, 252202, Note_off_c, 0, 68, 64
2, 252204, Note_on_c, 0, 61, 45
2, 252205, Note_off_c, 0, 41, 64
2, 252206, Note_on_c, 0, 68, 59
2, 252206, Note_on_c, 0, 65, 50
2, 252219, Note_off_c, 0, 73, 64
2, 252255, Note_on_c, 0, 56, 44
2, 252292, Note_on_c, 0, 49, 44
2, 252298, Note_on_c, 0, 77, 57
2, 252302, Note_on_c, 0, 73, 61
2, 252321, Note_off_c, 0, 65, 64
2, 252321, Note_off_c, 0, 68, 64
2, 252323, Note_off_c, 0, 56, 64
2, 252367, Control_c, 0, 64, 0
2, 252377, Note_off_c, 0, 49, 64
2, 252384, Note_on_c, 0, 43, 43
2, 252387, Note_off_c, 0, 73, 64
2, 252389, Note_off_c, 0, 61, 64
2, 252389, Note_on_c, 0, 75, 58
2, 252392, Note_on_c, 0, 73, 56
2, 252403, Control_c, 0, 64, 127
2, 252406, Control_c, 0, 64, 0
2, 252411, Note_on_c, 0, 75, 63
2, 252413, Note_off_c, 0, 77, 64
2, 252427, Note_off_c, 0, 75, 64
2, 252440, Note_on_c, 0, 49, 43
2, 252470, Note_on_c, 0, 51, 43
2, 252472, Note_on_c, 0, 67, 57
2, 252472, Note_on_c, 0, 63, 64
2, 252497, Note_off_c, 0, 49, 64
2, 252504, Note_off_c, 0, 75, 64
2, 252507, Note_off_c, 0, 73, 64
2, 252529, Note_on_c, 0, 61, 42
2, 252534, Note_off_c, 0, 51, 64
2, 252567, Note_off_c, 0, 63, 64
2, 252567, Note_off_c, 0, 67, 64
2, 252569, Note_off_c, 0, 43, 64
2, 252574, Note_on_c, 0, 67, 56
2, 252574, Note_on_c, 0, 63, 62
2, 252598, Note_on_c, 0, 51, 41
2, 252655, Note_on_c, 0, 73, 50
2, 252656, Note_on_c, 0, 46, 41
2, 252659, Note_on_c, 0, 76, 50
2, 252665, Note_off_c, 0, 51, 64
2, 252689, Note_off_c, 0, 63, 64
2, 252689, Note_off_c, 0, 67, 64
2, 252714, Note_off_c, 0, 61, 64
2, 252715, Control_c, 0, 64, 0
2, 252720, Note_off_c, 0, 46, 64
2, 252735, Note_on_c, 0, 39, 40
2, 252749, Note_on_c, 0, 77, 55
2, 252750, Note_off_c, 0, 73, 64
2, 252756, Note_on_c, 0, 73, 51
2, 252760, Control_c, 0, 64, 127
2, 252774, Note_off_c, 0, 76, 64
2, 252801, Note_on_c, 0, 46, 40
2, 252829, Note_on_c, 0, 65, 54
2, 252832, Note_on_c, 0, 67, 52
2, 252843, Note_on_c, 0, 51, 40
2, 252852, Note_off_c, 0, 46, 64
2, 252864, Note_off_c, 0, 77, 64
2, 252871, Note_off_c, 0, 73, 64
2, 252896, Note_on_c, 0, 55, 39
2, 252897, Note_off_c, 0, 51, 64
2, 252920, Note_off_c, 0, 39, 64
2, 252924, Note_on_c, 0, 63, 51
2, 252925, Note_on_c, 0, 59, 39
2, 252944, Note_off_c, 0, 65, 64
2, 252947, Note_off_c, 0, 67, 64
2, 252947, Note_on_c, 0, 51, 39
2, 253013, Note_on_c, 0, 46, 38
2, 253016, Note_on_c, 0, 71, 53
2, 253016, Note_on_c, 0, 67, 53
2, 253024, Note_off_c, 0, 51, 64
2, 253039, Note_off_c, 0, 63, 64
2, 253040, Note_off_c, 0, 59, 64
2, 253081, Note_off_c, 0, 55, 64
2, 253084, Control_c, 0, 64, 0
2, 253086, Note_off_c, 0, 46, 64
2, 253093, Note_on_c, 0, 32, 66
2, 253096, Note_on_c, 0, 72, 56
2, 253101, Note_on_c, 0, 44, 63
2, 253103, Note_on_c, 0, 68, 56
2, 253114, Control_c, 0, 64, 127
2, 253131, Note_off_c, 0, 67, 64
2, 253131, Note_off_c, 0, 71, 64
2, 253176, Note_on_c, 0, 63, 56
2, 253184, Note_on_c, 0, 60, 56
2, 253232, Note_off_c, 0, 63, 64
2, 253240, Note_off_c, 0, 60, 64
2, 253272, Note_on_c, 0, 63, 57
2, 253280, Note_on_c, 0, 60, 57
2, 253280, Note_on_c, 0, 56, 52
2, 253280, Note_on_c, 0, 51, 68
2, 253311, Note_off_c, 0, 72, 64
2, 253318, Note_off_c, 0, 68, 64
2, 253321, Note_off_c, 0, 51, 64
2, 253321, Note_off_c, 0, 56, 64
2, 253330, Control_c, 0, 64, 0
2, 253360, Note_on_c, 0, 72, 58
2, 253364, Note_off_c, 0, 32, 64
2, 253368, Note_on_c, 0, 68, 58
2, 253371, Note_off_c, 0, 44, 64
2, 253416, Note_off_c, 0, 72, 64
2, 253424, Note_off_c, 0, 68, 64
2, 253456, Note_on_c, 0, 69, 58
2, 253456, Note_on_c, 0, 43, 64
2, 253464, Note_on_c, 0, 73, 59
2, 253471, Control_c, 0, 64, 0
2, 253481, Note_on_c, 0, 31, 74
2, 253487, Note_off_c, 0, 63, 64
2, 253495, Note_off_c, 0, 60, 64
2, 253525, Control_c, 0, 64, 127
2, 253560, Note_on_c, 0, 64, 60
2, 253568, Note_on_c, 0, 61, 60
2, 253616, Note_off_c, 0, 64, 64
2, 253624, Note_off_c, 0, 61, 64
2, 253660, Note_on_c, 0, 64, 60
2, 253660, Note_on_c, 0, 52, 64
2, 253664, Note_on_c, 0, 61, 60
2, 253664, Note_on_c, 0, 57, 48
2, 253671, Note_off_c, 0, 69, 64
2, 253679, Note_off_c, 0, 73, 64
2, 253696, Note_off_c, 0, 52, 64
2, 253705, Note_off_c, 0, 57, 64
2, 253729, Note_off_c, 0, 43, 64
2, 253736, Note_on_c, 0, 73, 61
2, 253744, Note_on_c, 0, 69, 61
2, 253750, Note_off_c, 0, 31, 64
2, 253782, Control_c, 0, 64, 0
2, 253792, Note_off_c, 0, 73, 64
2, 253800, Note_off_c, 0, 69, 64
2, 253815, Note_on_c, 0, 42, 28
2, 253820, Note_on_c, 0, 74, 61
2, 253822, Note_on_c, 0, 70, 61
2, 253822, Note_on_c, 0, 30, 66
2, 253844, Control_c, 0, 64, 127
2, 253875, Note_off_c, 0, 64, 64
2, 253879, Note_off_c, 0, 61, 64
2, 253912, Note_on_c, 0, 66, 63
2, 253912, Note_on_c, 0, 64, 63
2, 253968, Note_off_c, 0, 64, 64
2, 253968, Note_off_c, 0, 66, 64
2, 254000, Note_on_c, 0, 54, 61
2, 254001, Note_on_c, 0, 66, 63
2, 254001, Note_on_c, 0, 64, 63
2, 254004, Note_on_c, 0, 58, 57
2, 254004, Note_on_c, 0, 49, 24
2, 254031, Note_off_c, 0, 49, 64
2, 254034, Note_off_c, 0, 58, 64
2, 254035, Note_off_c, 0, 74, 64
2, 254037, Note_off_c, 0, 54, 64
2, 254037, Note_off_c, 0, 70, 64
2, 254072, Note_on_c, 0, 74, 64
2, 254077, Note_on_c, 0, 70, 64
2, 254086, Note_off_c, 0, 42, 64
2, 254093, Note_off_c, 0, 30, 64
2, 254111, Control_c, 0, 64, 0
2, 254128, Note_off_c, 0, 74, 64
2, 254133, Note_off_c, 0, 70, 64
2, 254148, Note_on_c, 0, 47, 48
2, 254152, Note_on_c, 0, 35, 66
2, 254153, Note_on_c, 0, 75, 66
2, 254153, Note_on_c, 0, 71, 66
2, 254173, Control_c, 0, 64, 127
2, 254216, Note_off_c, 0, 64, 64
2, 254216, Note_off_c, 0, 66, 64
2, 254232, Note_on_c, 0, 63, 66
2, 254233, Note_on_c, 0, 66, 66
2, 254288, Note_off_c, 0, 63, 64
2, 254289, Note_off_c, 0, 66, 64
2, 254293, Note_off_c, 0, 47, 64
2, 254308, Note_on_c, 0, 65, 67
2, 254308, Note_on_c, 0, 47, 60
2, 254312, Note_on_c, 0, 63, 67
2, 254312, Note_on_c, 0, 59, 71
2, 254312, Note_on_c, 0, 53, 63
2, 254339, Note_off_c, 0, 47, 64
2, 254342, Note_off_c, 0, 53, 64
2, 254348, Note_off_c, 0, 59, 64
2, 254368, Note_off_c, 0, 71, 64
2, 254368, Note_off_c, 0, 75, 64
2, 254404, Note_on_c, 0, 75, 68
2, 254410, Note_on_c, 0, 69, 68
2, 254423, Note_off_c, 0, 35, 64
2, 254432, Control_c, 0, 64, 0
2, 254460, Note_off_c, 0, 75, 64
2, 254466, Note_off_c, 0, 69, 64
2, 254472, Note_on_c, 0, 34, 69
2, 254476, Note_on_c, 0, 74, 68
2, 254478, Note_on_c, 0, 46, 72
2, 254480, Note_on_c, 0, 70, 68
2, 254494, Control_c, 0, 64, 127
2, 254523, Note_off_c, 0, 65, 64
2, 254527, Note_off_c, 0, 63, 64
2, 254554, Note_on_c, 0, 65, 69
2, 254560, Note_on_c, 0, 62, 69
2, 254610, Note_off_c, 0, 65, 64
2, 254616, Note_off_c, 0, 62, 64
2, 254644, Note_on_c, 0, 62, 70
2, 254644, Note_on_c, 0, 53, 74
2, 254647, Note_on_c, 0, 65, 70
2, 254647, Note_on_c, 0, 58, 73
2, 254665, Note_off_c, 0, 53, 64
2, 254668, Note_off_c, 0, 58, 64
2, 254691, Note_off_c, 0, 74, 64
2, 254695, Note_off_c, 0, 70, 64
2, 254712, Note_on_c, 0, 70, 70
2, 254715, Note_on_c, 0, 74, 70
2, 254743, Note_off_c, 0, 34, 64
2, 254749, Note_off_c, 0, 46, 64
2, 254764, Control_c, 0, 64, 0
2, 254768, Note_off_c, 0, 70, 64
2, 254771, Note_off_c, 0, 74, 64
2, 254792, Note_on_c, 0, 33, 66
2, 254796, Note_on_c, 0, 71, 71
2, 254796, Note_on_c, 0, 45, 61
2, 254799, Note_on_c, 0, 75, 71
2, 254825, Control_c, 0, 64, 127
2, 254859, Note_off_c, 0, 62, 64
2, 254862, Note_off_c, 0, 65, 64
2, 254880, Note_on_c, 0, 66, 71
2, 254880, Note_on_c, 0, 63, 71
2, 254936, Note_off_c, 0, 63, 64
2, 254936, Note_off_c, 0, 66, 64
2, 254964, Note_on_c, 0, 66, 72
2, 254968, Note_on_c, 0, 54, 64
2, 254968, Note_on_c, 0, 51, 63
2, 254970, Note_on_c, 0, 63, 73
2, 254970, Note_on_c, 0, 59, 73
2, 254994, Note_off_c, 0, 54, 64
2, 254998, Note_off_c, 0, 51, 64
2, 255007, Note_off_c, 0, 59, 64
2, 255011, Note_off_c, 0, 71, 64
2, 255014, Note_off_c, 0, 75, 64
2, 255038, Note_on_c, 0, 75, 73
2, 255042, Note_on_c, 0, 71, 73
2, 255062, Note_off_c, 0, 33, 64
2, 255067, Note_off_c, 0, 45, 64
2, 255093, Control_c, 0, 64, 0
2, 255094, Note_off_c, 0, 75, 64
2, 255098, Note_off_c, 0, 71, 64
2, 255124, Note_on_c, 0, 44, 64
2, 255128, Note_on_c, 0, 32, 82
2, 255130, Note_on_c, 0, 76, 74
2, 255131, Note_on_c, 0, 72, 74
2, 255145, Control_c, 0, 64, 127
2, 255179, Note_off_c, 0, 66, 64
2, 255185, Note_off_c, 0, 63, 64
2, 255204, Note_on_c, 0, 68, 75
2, 255204, Note_on_c, 0, 66, 75
2, 255260, Note_off_c, 0, 66, 64
2, 255260, Note_off_c, 0, 68, 64
2, 255288, Note_on_c, 0, 68, 75
2, 255288, Note_on_c, 0, 60, 75
2, 255288, Note_on_c, 0, 51, 27
2, 255289, Note_on_c, 0, 66, 75
2, 255289, Note_on_c, 0, 56, 75
2, 255317, Note_off_c, 0, 60, 64
2, 255320, Note_off_c, 0, 51, 64
2, 255326, Note_off_c, 0, 56, 64
2, 255345, Note_off_c, 0, 76, 64
2, 255346, Note_off_c, 0, 72, 64
2, 255358, Note_on_c, 0, 72, 77
2, 255365, Note_on_c, 0, 76, 77
2, 255395, Note_off_c, 0, 44, 64
2, 255399, Note_off_c, 0, 32, 64
2, 255407, Control_c, 0, 64, 0
2, 255414, Note_off_c, 0, 72, 64
2, 255421, Note_off_c, 0, 76, 64
2, 255442, Note_on_c, 0, 37, 78
2, 255448, Note_on_c, 0, 49, 58
2, 255449, Note_on_c, 0, 77, 78
2, 255449, Note_on_c, 0, 73, 78
2, 255462, Control_c, 0, 64, 127
2, 255503, Note_off_c, 0, 68, 64
2, 255504, Note_off_c, 0, 66, 64
2, 255522, Note_on_c, 0, 68, 78
2, 255525, Note_on_c, 0, 65, 78
2, 255578, Note_off_c, 0, 68, 64
2, 255581, Note_off_c, 0, 65, 64
2, 255593, Note_off_c, 0, 49, 64
2, 255615, Note_on_c, 0, 67, 79
2, 255615, Note_on_c, 0, 65, 79
2, 255616, Note_on_c, 0, 61, 79
2, 255616, Note_on_c, 0, 55, 75
2, 255616, Note_on_c, 0, 49, 72
2, 255647, Note_off_c, 0, 55, 64
2, 255653, Note_off_c, 0, 49, 64
2, 255653, Note_off_c, 0, 61, 64
2, 255664, Note_off_c, 0, 73, 64
2, 255664, Note_off_c, 0, 77, 64
2, 255687, Note_on_c, 0, 77, 79
2, 255689, Note_on_c, 0, 71, 79
2, 255713, Note_off_c, 0, 37, 64
2, 255718, Control_c, 0, 64, 0
2, 255743, Note_off_c, 0, 77, 64
2, 255745, Note_off_c, 0, 71, 64
2, 255764, Note_on_c, 0, 36, 88
2, 255768, Note_on_c, 0, 48, 84
2, 255772, Note_on_c, 0, 76, 80
2, 255773, Note_on_c, 0, 72, 80
2, 255785, Control_c, 0, 64, 127
2, 255830, Note_off_c, 0, 65, 64
2, 255830, Note_off_c, 0, 67, 64
2, 255848, Note_on_c, 0, 67, 81
2, 255850, Note_on_c, 0, 64, 81
2, 255904, Note_off_c, 0, 67, 64
2, 255906, Note_off_c, 0, 64, 64
2, 255923, Note_on_c, 0, 60, 81
2, 255924, Note_on_c, 0, 67, 81
2, 255924, Note_on_c, 0, 64, 81
2, 255924, Note_on_c, 0, 52, 80
2, 255926, Note_on_c, 0, 55, 78
2, 255952, Note_off_c, 0, 60, 64
2, 255957, Note_off_c, 0, 52, 64
2, 255960, Note_off_c, 0, 55, 64
2, 255987, Note_off_c, 0, 76, 64
2, 255988, Note_off_c, 0, 72, 64
2, 256000, Note_on_c, 0, 72, 82
2, 256004, Note_on_c, 0, 76, 82
2, 256025, Control_c, 0, 64, 0
2, 256035, Note_off_c, 0, 36, 64
2, 256039, Note_off_c, 0, 48, 64
2, 256056, Note_off_c, 0, 72, 64
2, 256060, Note_off_c, 0, 76, 64
2, 256072, Note_on_c, 0, 73, 83
2, 256073, Note_on_c, 0, 47, 75
2, 256076, Note_on_c, 0, 77, 83
2, 256077, Note_on_c, 0, 35, 85
2, 256098, Control_c, 0, 64, 127
2, 256139, Note_off_c, 0, 64, 64
2, 256139, Note_off_c, 0, 67, 64
2, 256158, Note_on_c, 0, 68, 83
2, 256158, Note_on_c, 0, 65, 83
2, 256214, Note_off_c, 0, 65, 64
2, 256214, Note_off_c, 0, 68, 64
2, 256244, Note_on_c, 0, 61, 84
2, 256244, Note_on_c, 0, 53, 79
2, 256245, Note_on_c, 0, 68, 84
2, 256245, Note_on_c, 0, 65, 84
2, 256248, Note_on_c, 0, 56, 84
2, 256269, Note_off_c, 0, 61, 64
2, 256274, Note_off_c, 0, 53, 64
2, 256278, Note_off_c, 0, 56, 64
2, 256287, Note_off_c, 0, 73, 64
2, 256291, Note_off_c, 0, 77, 64
2, 256316, Note_on_c, 0, 77, 85
2, 256320, Note_on_c, 0, 73, 85
2, 256344, Note_off_c, 0, 47, 64
2, 256348, Note_off_c, 0, 35, 64
2, 256352, Control_c, 0, 64, 0
2, 256372, Note_off_c, 0, 77, 64
2, 256376, Note_off_c, 0, 73, 64
2, 256391, Note_on_c, 0, 74, 85
2, 256394, Note_on_c, 0, 78, 85
2, 256396, Note_on_c, 0, 46, 82
2, 256409, Note_on_c, 0, 34, 69
2, 256415, Control_c, 0, 64, 127
2, 256460, Note_off_c, 0, 65, 64
2, 256460, Note_off_c, 0, 68, 64
2, 256467, Note_on_c, 0, 70, 86
2, 256473, Note_on_c, 0, 68, 88
2, 256523, Note_off_c, 0, 70, 64
2, 256529, Note_off_c, 0, 68, 64
2, 256552, Note_on_c, 0, 70, 88
2, 256552, Note_on_c, 0, 62, 88
2, 256552, Note_on_c, 0, 58, 69
2, 256556, Note_on_c, 0, 68, 88
2, 256559, Note_on_c, 0, 53, 55
2, 256589, Note_off_c, 0, 58, 64
2, 256589, Note_off_c, 0, 62, 64
2, 256596, Note_off_c, 0, 53, 64
2, 256606, Note_off_c, 0, 74, 64
2, 256609, Note_off_c, 0, 78, 64
2, 256624, Note_on_c, 0, 74, 89
2, 256626, Note_on_c, 0, 78, 89
2, 256667, Note_off_c, 0, 46, 64
2, 256667, Control_c, 0, 64, 0
2, 256680, Note_off_c, 0, 74, 64
2, 256680, Note_off_c, 0, 34, 64
2, 256682, Note_off_c, 0, 78, 64
2, 256696, Note_on_c, 0, 79, 89
2, 256696, Note_on_c, 0, 75, 89
2, 256704, Note_on_c, 0, 39, 91
2, 256704, Note_on_c, 0, 27, 88
2, 256723, Control_c, 0, 64, 127
2, 256767, Note_off_c, 0, 70, 64
2, 256771, Note_off_c, 0, 68, 64
2, 256781, Note_on_c, 0, 70, 90
2, 256786, Note_on_c, 0, 67, 90
2, 256837, Note_off_c, 0, 70, 64
2, 256842, Note_off_c, 0, 67, 64
2, 256872, Note_on_c, 0, 70, 91
2, 256872, Note_on_c, 0, 63, 91
2, 256872, Note_on_c, 0, 58, 81
2, 256872, Note_on_c, 0, 55, 78
2, 256876, Note_on_c, 0, 67, 91
2, 256909, Note_off_c, 0, 55, 64
2, 256909, Note_off_c, 0, 58, 64
2, 256909, Note_off_c, 0, 63, 64
2, 256911, Note_off_c, 0, 75, 64
2, 256911, Note_off_c, 0, 79, 64
2, 256942, Control_c, 0, 64, 0
2, 256944, Note_on_c, 0, 79, 91
2, 256944, Note_on_c, 0, 75, 91
2, 256969, Control_c, 0, 64, 0
2, 256975, Note_off_c, 0, 27, 64
2, 256975, Note_off_c, 0, 39, 64
2, 257000, Note_off_c, 0, 75, 64
2, 257000, Note_off_c, 0, 79, 64
2, 257012, Note_on_c, 0, 39, 94
2, 257012, Note_on_c, 0, 27, 90
2, 257016, Note_on_c, 0, 80, 92
2, 257016, Note_on_c, 0, 76, 92
2, 257033, Control_c, 0, 64, 127
2, 257087, Note_off_c, 0, 70, 64
2, 257091, Note_off_c, 0, 67, 64
2, 257093, Note_on_c, 0, 71, 93
2, 257096, Note_on_c, 0, 68, 93
2, 257149, Note_off_c, 0, 71, 64
2, 257152, Note_off_c, 0, 68, 64
2, 257168, Note_on_c, 0, 64, 93
2, 257168, Note_on_c, 0, 59, 89
2, 257170, Note_on_c, 0, 56, 84
2, 257175, Note_on_c, 0, 71, 93
2, 257175, Note_on_c, 0, 68, 93
2, 257196, Note_off_c, 0, 59, 64
2, 257204, Note_off_c, 0, 56, 64
2, 257204, Note_off_c, 0, 64, 64
2, 257231, Note_off_c, 0, 76, 64
2, 257231, Note_off_c, 0, 80, 64
2, 257240, Note_on_c, 0, 80, 94
2, 257245, Note_on_c, 0, 76, 94
2, 257283, Note_off_c, 0, 27, 64
2, 257283, Note_off_c, 0, 39, 64
2, 257283, Control_c, 0, 64, 0
2, 257296, Note_off_c, 0, 80, 64
2, 257301, Note_off_c, 0, 76, 64
2, 257323, Note_on_c, 0, 39, 97
2, 257324, Note_on_c, 0, 81, 95
2, 257324, Note_on_c, 0, 77, 95
2, 257331, Note_on_c, 0, 27, 89
2, 257347, Control_c, 0, 64, 127
2, 257390, Note_off_c, 0, 68, 64
2, 257390, Note_off_c, 0, 71, 64
2, 257398, Note_on_c, 0, 72, 95
2, 257401, Note_on_c, 0, 69, 95
2, 257454, Note_off_c, 0, 72, 64
2, 257457, Note_off_c, 0, 69, 64
2, 257484, Note_on_c, 0, 65, 96
2, 257484, Note_on_c, 0, 60, 96
2, 257485, Note_on_c, 0, 57, 84
2, 257486, Note_on_c, 0, 72, 96
2, 257486, Note_on_c, 0, 69, 96
2, 257514, Note_off_c, 0, 60, 64
2, 257520, Note_off_c, 0, 57, 64
2, 257520, Note_off_c, 0, 65, 64
2, 257539, Note_off_c, 0, 77, 64
2, 257539, Note_off_c, 0, 81, 64
2, 257560, Note_on_c, 0, 77, 96
2, 257564, Note_on_c, 0, 81, 96
2, 257593, Control_c, 0, 64, 0
2, 257594, Note_off_c, 0, 39, 64
2, 257602, Note_off_c, 0, 27, 64
2, 257616, Note_off_c, 0, 77, 64
2, 257620, Note_off_c, 0, 81, 64
2, 257638, Note_on_c, 0, 27, 106
2, 257642, Note_on_c, 0, 82, 97
2, 257642, Note_on_c, 0, 78, 97
2, 257642, Note_on_c, 0, 39, 106
2, 257656, Control_c, 0, 64, 127
2, 257701, Note_off_c, 0, 69, 64
2, 257701, Note_off_c, 0, 72, 64
2, 257722, Note_on_c, 0, 73, 99
2, 257723, Note_on_c, 0, 70, 99
2, 257778, Note_off_c, 0, 73, 64
2, 257779, Note_off_c, 0, 70, 64
2, 257816, Note_on_c, 0, 70, 99
2, 257816, Note_on_c, 0, 66, 99
2, 257816, Note_on_c, 0, 61, 99
2, 257816, Note_on_c, 0, 58, 91
2, 257817, Note_on_c, 0, 73, 99
2, 257848, Note_off_c, 0, 66, 64
2, 257852, Note_off_c, 0, 58, 64
2, 257853, Note_off_c, 0, 61, 64
2, 257857, Note_off_c, 0, 78, 64
2, 257857, Note_off_c, 0, 82, 64
2, 257904, Note_on_c, 0, 82, 100
2, 257904, Note_on_c, 0, 78, 100
2, 257909, Note_off_c, 0, 27, 64
2, 257913, Note_off_c, 0, 39, 64
2, 257950, Control_c, 0, 64, 0
2, 257960, Note_off_c, 0, 78, 64
2, 257960, Note_off_c, 0, 82, 64
2, 257981, Note_on_c, 0, 83, 101
2, 257981, Note_on_c, 0, 79, 101
2, 257984, Note_on_c, 0, 39, 114
2, 257984, Note_on_c, 0, 27, 114
2, 258011, Control_c, 0, 64, 127
2, 258031, Note_off_c, 0, 70, 64
2, 258032, Note_off_c, 0, 73, 64
2, 258070, Note_on_c, 0, 75, 102
2, 258071, Note_on_c, 0, 73, 102
2, 258126, Note_off_c, 0, 75, 64
2, 258127, Note_off_c, 0, 73, 64
2, 258168, Note_on_c, 0, 75, 103
2, 258168, Note_on_c, 0, 73, 103
2, 258168, Note_on_c, 0, 63, 103
2, 258168, Note_on_c, 0, 58, 64
2, 258168, Note_on_c, 0, 55, 90
2, 258170, Note_on_c, 0, 67, 103
2, 258196, Note_off_c, 0, 79, 64
2, 258196, Note_off_c, 0, 83, 64
2, 258209, Note_off_c, 0, 55, 64
2, 258209, Note_off_c, 0, 58, 64
2, 258209, Note_off_c, 0, 63, 64
2, 258211, Note_off_c, 0, 67, 64
2, 258258, Note_off_c, 0, 27, 64
2, 258258, Note_off_c, 0, 39, 64
2, 258290, Note_on_c, 0, 79, 104
2, 258293, Note_on_c, 0, 83, 104
2, 258383, Note_off_c, 0, 73, 64
2, 258383, Note_off_c, 0, 75, 64
2, 258410, Control_c, 0, 64, 0
2, 258430, Note_off_c, 0, 79, 64
2, 258433, Note_off_c, 0, 83, 64
2, 258436, Note_on_c, 0, 84, 84
2, 258436, Note_on_c, 0, 44, 102
2, 258440, Note_on_c, 0, 80, 100
2, 258440, Note_on_c, 0, 75, 96
2, 258440, Note_on_c, 0, 72, 84
2, 258440, Note_on_c, 0, 32, 84
2, 258474, Control_c, 0, 64, 127
2, 258650, Control_c, 0, 64, 0
2, 258704, Note_on_c, 0, 74, 70
2, 258707, Note_on_c, 0, 47, 62
2, 258708, Note_on_c, 0, 62, 77
2, 258708, Note_on_c, 0, 59, 73
2, 258720, Control_c, 0, 64, 127
2, 258770, Note_off_c, 0, 44, 64
2, 258770, Note_off_c, 0, 84, 64
2, 258774, Note_off_c, 0, 32, 64
2, 258774, Note_off_c, 0, 72, 64
2, 258774, Note_off_c, 0, 75, 64
2, 258774, Note_off_c, 0, 80, 64
2, 258812, Note_on_c, 0, 75, 74
2, 258815, Note_on_c, 0, 63, 92
2, 258822, Note_on_c, 0, 60, 85
2, 258822, Note_on_c, 0, 48, 71
2, 258837, Note_off_c, 0, 74, 64
2, 258840, Note_off_c, 0, 47, 64
2, 258841, Note_off_c, 0, 59, 64
2, 258841, Note_off_c, 0, 62, 64
2, 258918, Note_on_c, 0, 67, 76
2, 258918, Note_on_c, 0, 55, 84
2, 258922, Note_on_c, 0, 43, 73
2, 258923, Note_on_c, 0, 79, 76
2, 258934, Note_off_c, 0, 75, 64
2, 258937, Note_off_c, 0, 63, 64
2, 258944, Note_off_c, 0, 48, 64
2, 258944, Note_off_c, 0, 60, 64
2, 259003, Note_on_c, 0, 80, 78
2, 259003, Note_on_c, 0, 68, 85
2, 259004, Note_on_c, 0, 56, 96
2, 259009, Note_on_c, 0, 44, 91
2, 259030, Note_off_c, 0, 55, 64
2, 259030, Note_off_c, 0, 67, 64
2, 259034, Note_off_c, 0, 43, 64
2, 259035, Note_off_c, 0, 79, 64
2, 259087, Note_on_c, 0, 72, 82
2, 259092, Note_on_c, 0, 51, 100
2, 259092, Note_on_c, 0, 39, 80
2, 259097, Note_on_c, 0, 84, 89
2, 259136, Note_off_c, 0, 68, 64
2, 259136, Note_off_c, 0, 80, 64
2, 259137, Note_off_c, 0, 56, 64
2, 259142, Note_off_c, 0, 44, 64
2, 259159, Note_on_c, 0, 75, 91
2, 259166, Note_on_c, 0, 87, 98
2, 259169, Note_on_c, 0, 48, 105
2, 259176, Note_on_c, 0, 36, 97
2, 259199, Note_off_c, 0, 72, 64
2, 259204, Note_off_c, 0, 39, 64
2, 259204, Note_off_c, 0, 51, 64
2, 259209, Note_off_c, 0, 84, 64
2, 259217, Control_c, 0, 64, 0
2, 259262, Note_on_c, 0, 80, 98
2, 259262, Note_on_c, 0, 44, 113
2, 259263, Note_on_c, 0, 92, 101
2, 259263, Note_on_c, 0, 32, 105
2, 259271, Note_off_c, 0, 75, 64
2, 259275, Control_c, 0, 64, 127
2, 259278, Note_off_c, 0, 87, 64
2, 259281, Note_off_c, 0, 48, 64
2, 259288, Note_off_c, 0, 36, 64
2, 259464, Control_c, 0, 64, 0
2, 259500, Note_on_c, 0, 60, 79
2, 259504, Note_on_c, 0, 75, 52
2, 259504, Note_on_c, 0, 56, 85
2, 259504, Note_on_c, 0, 48, 82
2, 259511, Note_on_c, 0, 68, 72
2, 259511, Note_on_c, 0, 63, 84
2, 259554, Control_c, 0, 64, 127
2, 259635, Note_off_c, 0, 44, 64
2, 259635, Note_off_c, 0, 80, 64
2, 259636, Note_off_c, 0, 32, 64
2, 259636, Note_off_c, 0, 92, 64
2, 259796, Note_off_c, 0, 60, 64
2, 259800, Note_off_c, 0, 48, 64
2, 259800, Note_off_c, 0, 56, 64
2, 259800, Note_off_c, 0, 75, 64
2, 259807, Note_off_c, 0, 63, 64
2, 259807, Note_off_c, 0, 68, 64
2, 259866, Note_on_c, 0, 78, 75
2, 259872, Note_on_c, 0, 66, 70
2, 259872, Note_on_c, 0, 56, 67
2, 259874, Note_on_c, 0, 68, 70
2, 259874, Note_on_c, 0, 61, 86
2, 259880, Note_on_c, 0, 49, 70
2, 259967, Note_off_c, 0, 56, 64
2, 259969, Note_off_c, 0, 61, 64
2, 259969, Note_off_c, 0, 68, 64
2, 259975, Note_off_c, 0, 49, 64
2, 259984, Note_on_c, 0, 49, 63
2, 259990, Note_on_c, 0, 68, 76
2, 259991, Note_off_c, 0, 78, 64
2, 259992, Note_on_c, 0, 64, 73
2, 259992, Note_on_c, 0, 61, 82
2, 259992, Note_on_c, 0, 56, 70
2, 259995, Note_on_c, 0, 76, 62
2, 259997, Note_off_c, 0, 66, 64
2, 260001, Control_c, 0, 64, 0
2, 260025, Note_off_c, 0, 49, 64
2, 260031, Note_off_c, 0, 61, 64
2, 260031, Note_off_c, 0, 68, 64
2, 260032, Note_on_c, 0, 60, 67
2, 260033, Note_off_c, 0, 56, 64
2, 260033, Note_off_c, 0, 64, 64
2, 260033, Note_on_c, 0, 68, 85
2, 260033, Note_on_c, 0, 63, 84
2, 260036, Note_off_c, 0, 76, 64
2, 260039, Note_on_c, 0, 75, 84
2, 260040, Note_on_c, 0, 48, 70
2, 260048, Note_on_c, 0, 56, 62
2, 260055, Control_c, 0, 64, 127
2, 260149, Note_off_c, 0, 60, 64
2, 260150, Note_off_c, 0, 63, 64
2, 260150, Note_off_c, 0, 68, 64
2, 260156, Note_off_c, 0, 75, 64
2, 260157, Note_off_c, 0, 48, 64
2, 260165, Note_off_c, 0, 56, 64
2, 260204, Control_c, 0, 64, 0
2, 260228, Control_c, 0, 64, 127
2, 260240, Note_on_c, 0, 47, 77
2, 260241, Note_on_c, 0, 62, 68
2, 260244, Note_on_c, 0, 59, 84
2, 260245, Note_on_c, 0, 74, 66
2, 260333, Note_on_c, 0, 75, 78
2, 260339, Note_on_c, 0, 63, 86
2, 260342, Note_on_c, 0, 60, 82
2, 260346, Note_on_c, 0, 48, 75
2, 260371, Note_off_c, 0, 47, 64
2, 260372, Note_off_c, 0, 62, 64
2, 260375, Note_off_c, 0, 59, 64
2, 260376, Note_off_c, 0, 74, 64
2, 260431, Note_on_c, 0, 55, 85
2, 260431, Note_on_c, 0, 43, 82
2, 260434, Note_on_c, 0, 67, 76
2, 260439, Note_on_c, 0, 79, 78
2, 260445, Note_off_c, 0, 75, 64
2, 260451, Note_off_c, 0, 63, 64
2, 260454, Note_off_c, 0, 60, 64
2, 260458, Note_off_c, 0, 48, 64
2, 260510, Note_on_c, 0, 68, 85
2, 260514, Note_on_c, 0, 80, 83
2, 260518, Note_on_c, 0, 56, 89
2, 260518, Note_on_c, 0, 44, 91
2, 260543, Note_off_c, 0, 43, 64
2, 260543, Note_off_c, 0, 55, 64
2, 260546, Note_off_c, 0, 67, 64
2, 260551, Note_off_c, 0, 79, 64
2, 260591, Note_on_c, 0, 72, 82
2, 260592, Note_on_c, 0, 39, 91
2, 260598, Note_on_c, 0, 51, 106
2, 260601, Note_on_c, 0, 84, 78
2, 260622, Note_off_c, 0, 68, 64
2, 260626, Note_off_c, 0, 80, 64
2, 260630, Note_off_c, 0, 44, 64
2, 260630, Note_off_c, 0, 56, 64
2, 260666, Note_on_c, 0, 87, 89
2, 260666, Note_on_c, 0, 75, 89
2, 260666, Note_on_c, 0, 36, 85
2, 260672, Note_on_c, 0, 48, 81
2, 260703, Note_off_c, 0, 72, 64
2, 260704, Note_off_c, 0, 39, 64
2, 260710, Note_off_c, 0, 51, 64
2, 260713, Note_off_c, 0, 84, 64
2, 260724, Control_c, 0, 64, 0
2, 260739, Note_on_c, 0, 84, 102
2, 260742, Note_on_c, 0, 27, 108
2, 260750, Note_on_c, 0, 96, 112
2, 260750, Note_on_c, 0, 39, 108
2, 260778, Note_off_c, 0, 36, 64
2, 260778, Note_off_c, 0, 75, 64
2, 260778, Note_off_c, 0, 87, 64
2, 260780, Control_c, 0, 64, 127
2, 260784, Note_off_c, 0, 48, 64
2, 260825, Control_c, 0, 64, 0
2, 260832, Control_c, 0, 64, 0
2, 260879, Control_c, 0, 64, 127
2, 260927, Note_off_c, 0, 27, 64
2, 260935, Note_off_c, 0, 39, 64
2, 260960, Note_on_c, 0, 68, 87
2, 260960, Note_on_c, 0, 39, 71
2, 260968, Note_on_c, 0, 63, 103
2, 260968, Note_on_c, 0, 60, 87
2, 260968, Note_on_c, 0, 51, 96
2, 260970, Note_on_c, 0, 72, 83
2, 260993, Control_c, 0, 64, 127
2, 261112, Note_off_c, 0, 84, 64
2, 261123, Note_off_c, 0, 96, 64
2, 261256, Note_off_c, 0, 39, 64
2, 261256, Note_off_c, 0, 68, 64
2, 261264, Note_off_c, 0, 51, 64
2, 261264, Note_off_c, 0, 60, 64
2, 261264, Note_off_c, 0, 63, 64
2, 261266, Note_off_c, 0, 72, 64
2, 261293, Control_c, 0, 64, 0
2, 261312, Note_on_c, 0, 67, 67
2, 261315, Note_on_c, 0, 72, 79
2, 261320, Note_on_c, 0, 51, 88
2, 261320, Note_on_c, 0, 39, 82
2, 261320, Control_c, 0, 64, 127
2, 261326, Note_on_c, 0, 61, 76
2, 261397, Note_off_c, 0, 67, 64
2, 261405, Note_off_c, 0, 39, 64
2, 261405, Note_off_c, 0, 51, 64
2, 261411, Note_off_c, 0, 61, 64
2, 261420, Note_on_c, 0, 70, 70
2, 261424, Note_on_c, 0, 67, 67
2, 261424, Note_on_c, 0, 61, 61
2, 261424, Note_on_c, 0, 51, 76
2, 261424, Note_on_c, 0, 39, 62
2, 261430, Note_off_c, 0, 72, 64
2, 261450, Control_c, 0, 64, 0
2, 261460, Note_off_c, 0, 51, 64
2, 261460, Note_off_c, 0, 67, 64
2, 261461, Note_off_c, 0, 70, 64
2, 261467, Note_off_c, 0, 39, 64
2, 261467, Note_off_c, 0, 61, 64
2, 261472, Note_on_c, 0, 44, 73
2, 261480, Note_on_c, 0, 60, 67
2, 261481, Note_on_c, 0, 56, 82
2, 261485, Note_on_c, 0, 68, 79
2, 261486, Note_on_c, 0, 72, 77
2, 261515, Control_c, 0, 64, 127
2, 261566, Note_off_c, 0, 44, 64
2, 261574, Note_off_c, 0, 60, 64
2, 261575, Note_off_c, 0, 56, 64
2, 261579, Note_off_c, 0, 68, 64
2, 261580, Note_off_c, 0, 72, 64
2, 261595, Control_c, 0, 64, 127
2, 261636, Control_c, 0, 64, 0
2, 261688, Control_c, 0, 64, 127
2, 261702, Note_on_c, 0, 59, 77
2, 261704, Note_on_c, 0, 47, 80
2, 261705, Note_on_c, 0, 62, 68
2, 261709, Note_on_c, 0, 74, 67
2, 261800, Note_on_c, 0, 75, 74
2, 261804, Note_on_c, 0, 63, 82
2, 261808, Note_on_c, 0, 60, 82
2, 261812, Note_on_c, 0, 48, 71
2, 261833, Note_off_c, 0, 59, 64
2, 261835, Note_off_c, 0, 47, 64
2, 261836, Note_off_c, 0, 62, 64
2, 261840, Note_off_c, 0, 74, 64
2, 261898, Note_on_c, 0, 55, 84
2, 261898, Note_on_c, 0, 43, 81
2, 261902, Note_on_c, 0, 67, 76
2, 261906, Note_on_c, 0, 79, 80
2, 261912, Note_off_c, 0, 75, 64
2, 261916, Note_off_c, 0, 63, 64
2, 261920, Note_off_c, 0, 60, 64
2, 261924, Note_off_c, 0, 48, 64
2, 261972, Note_on_c, 0, 80, 87
2, 261975, Note_on_c, 0, 68, 88
2, 261981, Note_on_c, 0, 56, 106
2, 261982, Note_on_c, 0, 44, 84
2, 262010, Note_off_c, 0, 43, 64
2, 262010, Note_off_c, 0, 55, 64
2, 262014, Note_off_c, 0, 67, 64
2, 262018, Note_off_c, 0, 79, 64
2, 262050, Note_on_c, 0, 72, 86
2, 262052, Note_on_c, 0, 51, 108
2, 262057, Note_on_c, 0, 39, 92
2, 262062, Note_on_c, 0, 84, 93
2, 262084, Note_off_c, 0, 80, 64
2, 262087, Note_off_c, 0, 68, 64
2, 262093, Note_off_c, 0, 56, 64
2, 262094, Note_off_c, 0, 44, 64
2, 262120, Note_on_c, 0, 36, 103
2, 262132, Note_on_c, 0, 87, 95
2, 262132, Note_on_c, 0, 75, 96
2, 262139, Note_on_c, 0, 48, 47
2, 262162, Note_off_c, 0, 72, 64
2, 262164, Note_off_c, 0, 51, 64
2, 262169, Note_off_c, 0, 39, 64
2, 262174, Note_off_c, 0, 84, 64
2, 262211, Control_c, 0, 64, 0
2, 262223, Note_on_c, 0, 44, 112
2, 262224, Note_on_c, 0, 92, 100
2, 262224, Note_on_c, 0, 80, 102
2, 262224, Note_on_c, 0, 32, 112
2, 262232, Note_off_c, 0, 36, 64
2, 262244, Note_off_c, 0, 75, 64
2, 262244, Note_off_c, 0, 87, 64
2, 262251, Note_off_c, 0, 48, 64
2, 262268, Control_c, 0, 64, 127
2, 262450, Control_c, 0, 64, 0
2, 262484, Note_on_c, 0, 75, 68
2, 262488, Note_on_c, 0, 56, 72
2, 262488, Note_on_c, 0, 48, 67
2, 262489, Note_on_c, 0, 68, 73
2, 262489, Note_on_c, 0, 60, 72
2, 262490, Note_on_c, 0, 63, 85
2, 262529, Control_c, 0, 64, 127
2, 262596, Note_off_c, 0, 44, 64
2, 262597, Note_off_c, 0, 32, 64
2, 262597, Note_off_c, 0, 80, 64
2, 262597, Note_off_c, 0, 92, 64
2, 262780, Note_off_c, 0, 75, 64
2, 262784, Note_off_c, 0, 48, 64
2, 262784, Note_off_c, 0, 56, 64
2, 262785, Note_off_c, 0, 60, 64
2, 262785, Note_off_c, 0, 68, 64
2, 262786, Note_off_c, 0, 63, 64
2, 262845, Control_c, 0, 64, 0
2, 262856, Note_on_c, 0, 63, 90
2, 262856, Note_on_c, 0, 56, 73
2, 262857, Note_on_c, 0, 78, 77
2, 262858, Note_on_c, 0, 66, 80
2, 262863, Note_on_c, 0, 68, 77
2, 262863, Note_on_c, 0, 51, 85
2, 262884, Control_c, 0, 64, 127
2, 262918, Note_off_c, 0, 68, 64
2, 262921, Note_off_c, 0, 56, 64
2, 262921, Note_off_c, 0, 63, 64
2, 262922, Note_off_c, 0, 78, 64
2, 262923, Note_off_c, 0, 66, 64
2, 262928, Note_off_c, 0, 51, 64
2, 262928, Note_on_c, 0, 76, 73
2, 262930, Note_on_c, 0, 51, 73
2, 262935, Note_on_c, 0, 61, 88
2, 262935, Note_on_c, 0, 56, 79
2, 262936, Note_on_c, 0, 68, 73
2, 262936, Note_on_c, 0, 64, 76
2, 263025, Note_off_c, 0, 51, 64
2, 263030, Note_off_c, 0, 56, 64
2, 263030, Note_off_c, 0, 61, 64
2, 263031, Note_off_c, 0, 64, 64
2, 263031, Note_off_c, 0, 68, 64
2, 263039, Note_on_c, 0, 56, 88
2, 263042, Note_on_c, 0, 63, 81
2, 263043, Note_off_c, 0, 76, 64
2, 263043, Note_on_c, 0, 60, 84
2, 263049, Note_on_c, 0, 75, 76
2, 263049, Note_on_c, 0, 68, 72
2, 263049, Note_on_c, 0, 48, 75
2, 263064, Control_c, 0, 64, 0
2, 263068, Note_off_c, 0, 56, 64
2, 263071, Note_off_c, 0, 63, 64
2, 263072, Note_off_c, 0, 60, 64
2, 263078, Note_off_c, 0, 48, 64
2, 263078, Note_off_c, 0, 68, 64
2, 263078, Note_off_c, 0, 75, 64
2, 263081, Note_on_c, 0, 63, 73
2, 263088, Note_on_c, 0, 75, 72
2, 263088, Note_on_c, 0, 68, 79
2, 263093, Note_on_c, 0, 56, 73
2, 263093, Control_c, 0, 64, 127
2, 263101, Note_on_c, 0, 60, 72
2, 263101, Note_on_c, 0, 48, 69
2, 263175, Note_off_c, 0, 63, 64
2, 263182, Note_off_c, 0, 68, 64
2, 263182, Note_off_c, 0, 75, 64
2, 263187, Note_off_c, 0, 56, 64
2, 263195, Note_off_c, 0, 48, 64
2, 263195, Note_off_c, 0, 60, 64
2, 263224, Control_c, 0, 64, 0
2, 263276, Control_c, 0, 64, 127
2, 263283, Note_on_c, 0, 59, 80
2, 263284, Note_on_c, 0, 47, 75
2, 263292, Note_on_c, 0, 74, 68
2, 263293, Note_on_c, 0, 62, 74
2, 263376, Note_on_c, 0, 75, 77
2, 263382, Note_on_c, 0, 63, 82
2, 263382, Note_on_c, 0, 60, 82
2, 263385, Note_on_c, 0, 48, 73
2, 263405, Note_off_c, 0, 59, 64
2, 263406, Note_off_c, 0, 47, 64
2, 263414, Note_off_c, 0, 74, 64
2, 263415, Note_off_c, 0, 62, 64
2, 263466, Note_on_c, 0, 43, 84
2, 263470, Note_on_c, 0, 55, 88
2, 263473, Note_on_c, 0, 67, 76
2, 263474, Note_on_c, 0, 79, 76
2, 263498, Note_off_c, 0, 75, 64
2, 263504, Note_off_c, 0, 60, 64
2, 263504, Note_off_c, 0, 63, 64
2, 263507, Note_off_c, 0, 48, 64
2, 263548, Note_on_c, 0, 80, 78
2, 263548, Note_on_c, 0, 68, 87
2, 263548, Note_on_c, 0, 56, 101
2, 263558, Note_on_c, 0, 44, 85
2, 263578, Note_off_c, 0, 43, 64
2, 263582, Note_off_c, 0, 55, 64
2, 263585, Note_off_c, 0, 67, 64
2, 263586, Note_off_c, 0, 79, 64
2, 263616, Note_on_c, 0, 51, 108
2, 263623, Note_on_c, 0, 39, 97
2, 263632, Note_on_c, 0, 72, 81
2, 263637, Note_on_c, 0, 84, 84
2, 263660, Note_off_c, 0, 56, 64
2, 263660, Note_off_c, 0, 68, 64
2, 263660, Note_off_c, 0, 80, 64
2, 263670, Note_off_c, 0, 44, 64
2, 263691, Note_on_c, 0, 37, 95
2, 263699, Note_on_c, 0, 48, 97
2, 263706, Note_on_c, 0, 75, 92
2, 263712, Note_on_c, 0, 87, 96
2, 263728, Note_off_c, 0, 51, 64
2, 263735, Note_off_c, 0, 39, 64
2, 263744, Note_off_c, 0, 72, 64
2, 263749, Note_off_c, 0, 84, 64
2, 263762, Control_c, 0, 64, 0
2, 263784, Note_on_c, 0, 27, 107
2, 263788, Note_on_c, 0, 84, 104
2, 263797, Note_on_c, 0, 96, 116
2, 263797, Note_on_c, 0, 39, 114
2, 263803, Note_off_c, 0, 37, 64
2, 263811, Note_off_c, 0, 48, 64
2, 263818, Note_off_c, 0, 75, 64
2, 263824, Note_off_c, 0, 87, 64
2, 263826, Control_c, 0, 64, 127
2, 263905, Control_c, 0, 64, 0
2, 263969, Note_off_c, 0, 27, 64
2, 263982, Note_off_c, 0, 39, 64
2, 263984, Note_on_c, 0, 44, 74
2, 263992, Note_on_c, 0, 68, 70
2, 263992, Note_on_c, 0, 63, 92
2, 263992, Note_on_c, 0, 60, 74
2, 263992, Note_on_c, 0, 51, 90
2, 263992, Note_on_c, 0, 39, 84
2, 264000, Note_on_c, 0, 72, 81
2, 264027, Control_c, 0, 64, 127
2, 264033, Control_c, 0, 64, 127
2, 264161, Note_off_c, 0, 84, 64
2, 264170, Note_off_c, 0, 44, 64
2, 264170, Note_off_c, 0, 96, 64
2, 264288, Note_off_c, 0, 39, 64
2, 264288, Note_off_c, 0, 51, 64
2, 264288, Note_off_c, 0, 60, 64
2, 264288, Note_off_c, 0, 63, 64
2, 264288, Note_off_c, 0, 68, 64
2, 264296, Note_off_c, 0, 72, 64
2, 264352, Note_on_c, 0, 72, 96
2, 264352, Note_on_c, 0, 67, 71
2, 264352, Note_on_c, 0, 61, 77
2, 264352, Note_on_c, 0, 51, 97
2, 264360, Note_on_c, 0, 39, 83
2, 264419, Control_c, 0, 64, 127
2, 264459, Note_off_c, 0, 51, 64
2, 264459, Note_off_c, 0, 61, 64
2, 264459, Note_off_c, 0, 67, 64
2, 264459, Note_off_c, 0, 72, 64
2, 264464, Note_on_c, 0, 51, 71
2, 264467, Note_off_c, 0, 39, 64
2, 264471, Note_on_c, 0, 61, 80
2, 264480, Note_on_c, 0, 67, 90
2, 264480, Note_on_c, 0, 39, 83
2, 264483, Note_on_c, 0, 70, 98
2, 264505, Note_off_c, 0, 51, 64
2, 264507, Control_c, 0, 64, 127
2, 264512, Note_off_c, 0, 61, 64
2, 264521, Note_off_c, 0, 39, 64
2, 264521, Note_off_c, 0, 67, 64
2, 264524, Note_off_c, 0, 70, 64
2, 264528, Note_on_c, 0, 56, 79
2, 264529, Control_c, 0, 64, 0
2, 264536, Note_on_c, 0, 72, 103
2, 264536, Note_on_c, 0, 68, 93
2, 264536, Note_on_c, 0, 60, 80
2, 264536, Note_on_c, 0, 51, 97
2, 264536, Note_on_c, 0, 44, 90
2, 264635, Note_off_c, 0, 56, 64
2, 264643, Note_off_c, 0, 44, 64
2, 264643, Note_off_c, 0, 51, 64
2, 264643, Note_off_c, 0, 60, 64
2, 264643, Note_off_c, 0, 68, 64
2, 264643, Note_off_c, 0, 72, 64
2, 264748, Note_on_c, 0, 72, 80
2, 264748, Note_on_c, 0, 61, 87
2, 264752, Note_on_c, 0, 67, 80
2, 264752, Note_on_c, 0, 39, 103
2, 264755, Note_on_c, 0, 51, 103
2, 264767, Control_c, 0, 64, 127
2, 265044, Note_off_c, 0, 61, 64
2, 265044, Note_off_c, 0, 72, 64
2, 265048, Note_off_c, 0, 39, 64
2, 265048, Note_off_c, 0, 67, 64
2, 265051, Note_off_c, 0, 51, 64
2, 265084, Note_on_c, 0, 72, 86
2, 265084, Note_on_c, 0, 67, 65
2, 265084, Note_on_c, 0, 51, 90
2, 265084, Note_on_c, 0, 39, 101
2, 265088, Note_on_c, 0, 61, 82
2, 265191, Note_off_c, 0, 39, 64
2, 265191, Note_off_c, 0, 51, 64
2, 265191, Note_off_c, 0, 67, 64
2, 265191, Note_off_c, 0, 72, 64
2, 265195, Note_off_c, 0, 61, 64
2, 265200, Note_on_c, 0, 70, 86
2, 265200, Note_on_c, 0, 51, 83
2, 265204, Note_on_c, 0, 67, 88
2, 265204, Note_on_c, 0, 61, 75
2, 265204, Note_on_c, 0, 39, 82
2, 265234, Control_c, 0, 64, 0
2, 265241, Note_off_c, 0, 51, 64
2, 265241, Note_off_c, 0, 70, 64
2, 265242, Note_off_c, 0, 61, 64
2, 265245, Note_off_c, 0, 39, 64
2, 265248, Note_off_c, 0, 67, 64
2, 265248, Note_on_c, 0, 72, 96
2, 265248, Note_on_c, 0, 68, 93
2, 265248, Note_on_c, 0, 51, 80
2, 265248, Note_on_c, 0, 44, 77
2, 265249, Note_on_c, 0, 60, 80
2, 265250, Note_on_c, 0, 56, 98
2, 265342, Note_off_c, 0, 44, 64
2, 265342, Note_off_c, 0, 51, 64
2, 265342, Note_off_c, 0, 68, 64
2, 265342, Note_off_c, 0, 72, 64
2, 265343, Note_off_c, 0, 60, 64
2, 265344, Note_off_c, 0, 56, 64
2, 265440, Note_on_c, 0, 39, 103
2, 265444, Note_on_c, 0, 51, 98
2, 265448, Note_on_c, 0, 67, 80
2, 265448, Note_on_c, 0, 61, 87
2, 265452, Note_on_c, 0, 72, 80
2, 265476, Control_c, 0, 64, 127
2, 265736, Note_off_c, 0, 39, 64
2, 265740, Note_off_c, 0, 51, 64
2, 265744, Note_off_c, 0, 61, 64
2, 265744, Note_off_c, 0, 67, 64
2, 265748, Note_off_c, 0, 72, 64
2, 265784, Note_on_c, 0, 39, 97
2, 265792, Note_on_c, 0, 67, 71
2, 265796, Note_on_c, 0, 72, 87
2, 265800, Note_on_c, 0, 61, 80
2, 265800, Note_on_c, 0, 51, 83
2, 265891, Note_off_c, 0, 39, 64
2, 265899, Note_off_c, 0, 67, 64
2, 265903, Note_off_c, 0, 72, 64
2, 265907, Note_off_c, 0, 51, 64
2, 265907, Note_off_c, 0, 61, 64
2, 265936, Note_on_c, 0, 70, 89
2, 265936, Note_on_c, 0, 67, 72
2, 265936, Note_on_c, 0, 61, 62
2, 265936, Note_on_c, 0, 51, 77
2, 265940, Note_on_c, 0, 39, 83
2, 265950, Control_c, 0, 64, 0
2, 265977, Note_off_c, 0, 51, 64
2, 265977, Note_off_c, 0, 61, 64
2, 265977, Note_off_c, 0, 67, 64
2, 265977, Note_off_c, 0, 70, 64
2, 265981, Note_off_c, 0, 39, 64
2, 265992, Note_on_c, 0, 72, 104
2, 265992, Note_on_c, 0, 70, 88
2, 265992, Note_on_c, 0, 52, 94
2, 265992, Note_on_c, 0, 40, 88
2, 266000, Note_on_c, 0, 67, 90
2, 266000, Note_on_c, 0, 60, 88
2, 266086, Note_off_c, 0, 40, 64
2, 266086, Note_off_c, 0, 52, 64
2, 266086, Note_off_c, 0, 70, 64
2, 266086, Note_off_c, 0, 72, 64
2, 266094, Note_off_c, 0, 60, 64
2, 266094, Note_off_c, 0, 67, 64
2, 266317, Control_c, 0, 64, 127
2, 266336, Note_on_c, 0, 64, 89
2, 266336, Note_on_c, 0, 52, 94
2, 266344, Note_on_c, 0, 84, 94
2, 266344, Note_on_c, 0, 82, 89
2, 266344, Note_on_c, 0, 79, 94
2, 266344, Note_on_c, 0, 72, 92
2, 266344, Note_on_c, 0, 60, 89
2, 266344, Note_on_c, 0, 55, 89
2, 266620, Note_off_c, 0, 55, 64
2, 266620, Note_off_c, 0, 60, 64
2, 266631, Note_off_c, 0, 52, 64
2, 266632, Note_off_c, 0, 64, 64
2, 266652, Note_off_c, 0, 79, 64
2, 266666, Note_off_c, 0, 82, 64
2, 266670, Note_off_c, 0, 84, 64
2, 266676, Note_off_c, 0, 72, 64
2, 266813, Note_on_c, 0, 64, 50
2, 266817, Note_on_c, 0, 60, 48
2, 266822, Note_on_c, 0, 55, 49
2, 266826, Note_on_c, 0, 82, 41
2, 266826, Note_on_c, 0, 79, 42
2, 266826, Note_on_c, 0, 72, 46
2, 266833, Note_on_c, 0, 84, 34
2, 266833, Note_on_c, 0, 52, 36
2, 266844, Note_off_c, 0, 52, 64
2, 266847, Note_off_c, 0, 60, 64
2, 266851, Note_off_c, 0, 55, 64
2, 266852, Note_off_c, 0, 79, 64
2, 266855, Note_off_c, 0, 72, 64
2, 266856, Note_off_c, 0, 84, 64
2, 266856, Note_off_c, 0, 82, 64
2, 266860, Note_off_c, 0, 64, 64
2, 266895, Note_on_c, 0, 72, 54
2, 266899, Note_on_c, 0, 79, 58
2, 266899, Note_on_c, 0, 64, 51
2, 266904, Note_on_c, 0, 52, 38
2, 266906, Note_on_c, 0, 82, 58
2, 266907, Note_on_c, 0, 84, 50
2, 266907, Note_on_c, 0, 60, 51
2, 266907, Note_on_c, 0, 55, 50
2, 266915, Note_off_c, 0, 52, 64
2, 266926, Note_off_c, 0, 79, 64
2, 266929, Note_off_c, 0, 55, 64
2, 266929, Note_off_c, 0, 60, 64
2, 266930, Note_off_c, 0, 82, 64
2, 266936, Note_off_c, 0, 84, 64
2, 266936, Note_off_c, 0, 64, 64
2, 266936, Note_off_c, 0, 72, 64
2, 266966, Note_on_c, 0, 64, 58
2, 266970, Note_on_c, 0, 79, 63
2, 266970, Note_on_c, 0, 72, 63
2, 266977, Note_on_c, 0, 84, 60
2, 266977, Note_on_c, 0, 82, 62
2, 266977, Note_on_c, 0, 60, 62
2, 266979, Note_on_c, 0, 55, 62
2, 266985, Note_on_c, 0, 52, 53
2, 266997, Note_off_c, 0, 79, 64
2, 266999, Note_off_c, 0, 52, 64
2, 267004, Note_off_c, 0, 82, 64
2, 267005, Note_off_c, 0, 55, 64
2, 267005, Note_off_c, 0, 60, 64
2, 267005, Note_off_c, 0, 72, 64
2, 267011, Note_off_c, 0, 84, 64
2, 267011, Note_off_c, 0, 64, 64
2, 267034, Note_on_c, 0, 64, 70
2, 267037, Note_on_c, 0, 72, 68
2, 267044, Note_on_c, 0, 79, 72
2, 267044, Note_on_c, 0, 60, 72
2, 267044, Note_on_c, 0, 55, 71
2, 267044, Note_on_c, 0, 52, 67
2, 267052, Note_on_c, 0, 84, 67
2, 267052, Note_on_c, 0, 82, 72
2, 267065, Note_off_c, 0, 79, 64
2, 267071, Note_off_c, 0, 82, 64
2, 267071, Note_off_c, 0, 60, 64
2, 267075, Note_off_c, 0, 55, 64
2, 267075, Note_off_c, 0, 72, 64
2, 267076, Note_off_c, 0, 84, 64
2, 267076, Note_off_c, 0, 52, 64
2, 267080, Note_off_c, 0, 64, 64
2, 267101, Note_on_c, 0, 72, 74
2, 267104, Note_on_c, 0, 79, 75
2, 267105, Note_on_c, 0, 84, 69
2, 267105, Note_on_c, 0, 82, 74
2, 267105, Note_on_c, 0, 64, 71
2, 267114, Note_on_c, 0, 60, 75
2, 267114, Note_on_c, 0, 52, 68
2, 267115, Note_on_c, 0, 55, 74
2, 267135, Note_off_c, 0, 79, 64
2, 267139, Note_off_c, 0, 82, 64
2, 267139, Note_off_c, 0, 72, 64
2, 267143, Note_off_c, 0, 55, 64
2, 267143, Note_off_c, 0, 60, 64
2, 267143, Note_off_c, 0, 64, 64
2, 267148, Note_off_c, 0, 52, 64
2, 267148, Note_off_c, 0, 84, 64
2, 267162, Note_on_c, 0, 72, 68
2, 267168, Note_on_c, 0, 79, 78
2, 267172, Note_on_c, 0, 84, 69
2, 267172, Note_on_c, 0, 82, 75
2, 267172, Note_on_c, 0, 64, 73
2, 267180, Note_on_c, 0, 60, 78
2, 267180, Note_on_c, 0, 55, 74
2, 267180, Note_on_c, 0, 52, 69
2, 267200, Note_off_c, 0, 79, 64
2, 267200, Note_off_c, 0, 72, 64
2, 267203, Note_off_c, 0, 82, 64
2, 267203, Note_off_c, 0, 84, 64
2, 267208, Note_off_c, 0, 55, 64
2, 267209, Note_off_c, 0, 52, 64
2, 267209, Note_off_c, 0, 60, 64
2, 267214, Note_off_c, 0, 64, 64
2, 267236, Note_on_c, 0, 72, 82
2, 267241, Note_on_c, 0, 84, 82
2, 267241, Note_on_c, 0, 82, 78
2, 267241, Note_on_c, 0, 79, 87
2, 267241, Note_on_c, 0, 64, 83
2, 267245, Note_on_c, 0, 60, 87
2, 267250, Note_on_c, 0, 52, 83
2, 267251, Note_on_c, 0, 55, 88
2, 267275, Note_off_c, 0, 79, 64
2, 267275, Note_off_c, 0, 72, 64
2, 267282, Note_off_c, 0, 55, 64
2, 267284, Note_off_c, 0, 60, 64
2, 267284, Note_off_c, 0, 64, 64
2, 267285, Note_off_c, 0, 82, 64
2, 267290, Note_off_c, 0, 52, 64
2, 267290, Note_off_c, 0, 84, 64
2, 267456, Control_c, 0, 64, 0
2, 267517, Note_on_c, 0, 85, 94
2, 267521, Note_on_c, 0, 79, 90
2, 267522, Note_on_c, 0, 73, 90
2, 267527, Note_on_c, 0, 81, 90
2, 267528, Note_on_c, 0, 61, 92
2, 267535, Note_on_c, 0, 64, 92
2, 267535, Note_on_c, 0, 57, 88
2, 267535, Note_on_c, 0, 52, 85
2, 267563, Control_c, 0, 64, 127
2, 267577, Note_off_c, 0, 73, 64
2, 267584, Note_off_c, 0, 79, 64
2, 267592, Note_off_c, 0, 85, 64
2, 267594, Note_off_c, 0, 81, 64
2, 267600, Note_off_c, 0, 61, 64
2, 267602, Note_off_c, 0, 57, 64
2, 267607, Note_off_c, 0, 64, 64
2, 267621, Note_off_c, 0, 52, 64
2, 267836, Note_on_c, 0, 69, 94
2, 267836, Note_on_c, 0, 33, 96
2, 267842, Note_on_c, 0, 57, 86
2, 267842, Note_on_c, 0, 45, 102
2, 268051, Note_off_c, 0, 69, 64
2, 268057, Note_off_c, 0, 57, 64
2, 268062, Note_on_c, 0, 85, 51
2, 268065, Note_on_c, 0, 73, 60
2, 268072, Note_on_c, 0, 81, 51
2, 268072, Note_on_c, 0, 79, 51
2, 268078, Note_on_c, 0, 57, 39
2, 268080, Note_on_c, 0, 55, 32
2, 268080, Note_on_c, 0, 52, 32
2, 268085, Note_on_c, 0, 61, 32
2, 268085, Note_on_c, 0, 57, 28
2, 268088, Note_on_c, 0, 64, 24
2, 268095, Note_off_c, 0, 79, 64
2, 268095, Note_off_c, 0, 81, 64
2, 268095, Note_off_c, 0, 73, 64
2, 268103, Note_off_c, 0, 85, 64
2, 268105, Note_off_c, 0, 52, 64
2, 268105, Note_off_c, 0, 55, 64
2, 268107, Note_off_c, 0, 64, 64
2, 268110, Note_off_c, 0, 61, 64
2, 268111, Note_off_c, 0, 57, 64
2, 268121, Note_off_c, 0, 57, 64
2, 268144, Note_on_c, 0, 81, 61
2, 268147, Note_on_c, 0, 73, 63
2, 268148, Note_on_c, 0, 85, 65
2, 268152, Note_on_c, 0, 79, 30
2, 268156, Note_on_c, 0, 61, 66
2, 268157, Note_on_c, 0, 64, 66
2, 268162, Note_on_c, 0, 57, 57
2, 268163, Note_on_c, 0, 57, 58
2, 268163, Note_on_c, 0, 55, 57
2, 268163, Note_on_c, 0, 52, 57
2, 268173, Note_off_c, 0, 73, 64
2, 268173, Note_off_c, 0, 81, 64
2, 268178, Note_off_c, 0, 79, 64
2, 268183, Note_off_c, 0, 85, 64
2, 268184, Note_off_c, 0, 61, 64
2, 268189, Note_off_c, 0, 52, 64
2, 268189, Note_off_c, 0, 55, 64
2, 268189, Note_off_c, 0, 57, 64
2, 268189, Note_off_c, 0, 64, 64
2, 268191, Note_off_c, 0, 57, 64
2, 268213, Note_on_c, 0, 85, 64
2, 268214, Note_on_c, 0, 73, 66
2, 268218, Note_on_c, 0, 81, 65
2, 268224, Note_on_c, 0, 57, 65
2, 268225, Note_on_c, 0, 55, 65
2, 268225, Note_on_c, 0, 52, 65
2, 268232, Note_on_c, 0, 79, 44
2, 268232, Note_on_c, 0, 64, 68
2, 268232, Note_on_c, 0, 61, 67
2, 268232, Note_on_c, 0, 57, 66
2, 268243, Note_off_c, 0, 79, 64
2, 268245, Note_off_c, 0, 73, 64
2, 268249, Note_off_c, 0, 81, 64
2, 268257, Note_off_c, 0, 61, 64
2, 268261, Note_off_c, 0, 64, 64
2, 268261, Note_off_c, 0, 52, 64
2, 268261, Note_off_c, 0, 55, 64
2, 268261, Note_off_c, 0, 57, 64
2, 268262, Note_off_c, 0, 57, 64
2, 268262, Note_off_c, 0, 85, 64
2, 268281, Note_on_c, 0, 73, 74
2, 268285, Note_on_c, 0, 85, 78
2, 268290, Note_on_c, 0, 81, 81
2, 268290, Note_on_c, 0, 79, 74
2, 268297, Note_on_c, 0, 55, 74
2, 268297, Note_on_c, 0, 52, 74
2, 268298, Note_on_c, 0, 64, 80
2, 268298, Note_on_c, 0, 57, 74
2, 268298, Note_on_c, 0, 57, 74
2, 268300, Note_on_c, 0, 61, 79
2, 268311, Note_off_c, 0, 79, 64
2, 268313, Note_off_c, 0, 81, 64
2, 268314, Note_off_c, 0, 73, 64
2, 268325, Note_off_c, 0, 61, 64
2, 268326, Note_off_c, 0, 64, 64
2, 268329, Note_off_c, 0, 57, 64
2, 268329, Note_off_c, 0, 52, 64
2, 268329, Note_off_c, 0, 55, 64
2, 268329, Note_off_c, 0, 85, 64
2, 268330, Note_off_c, 0, 57, 64
2, 268344, Note_on_c, 0, 85, 78
2, 268350, Note_on_c, 0, 81, 83
2, 268350, Note_on_c, 0, 79, 77
2, 268350, Note_on_c, 0, 73, 78
2, 268360, Note_on_c, 0, 55, 79
2, 268360, Note_on_c, 0, 52, 79
2, 268361, Note_on_c, 0, 64, 82
2, 268361, Note_on_c, 0, 57, 79
2, 268361, Note_on_c, 0, 57, 78
2, 268363, Note_on_c, 0, 61, 84
2, 268378, Note_off_c, 0, 79, 64
2, 268381, Note_off_c, 0, 73, 64
2, 268381, Note_off_c, 0, 81, 64
2, 268391, Note_off_c, 0, 57, 64
2, 268395, Note_off_c, 0, 61, 64
2, 268395, Note_off_c, 0, 64, 64
2, 268398, Note_off_c, 0, 52, 64
2, 268398, Note_off_c, 0, 55, 64
2, 268402, Note_on_c, 0, 73, 75
2, 268405, Note_off_c, 0, 57, 64
2, 268410, Note_on_c, 0, 81, 78
2, 268410, Note_on_c, 0, 79, 64
2, 268415, Note_on_c, 0, 64, 79
2, 268415, Note_on_c, 0, 61, 82
2, 268415, Note_on_c, 0, 57, 77
2, 268416, Note_on_c, 0, 57, 53
2, 268417, Note_on_c, 0, 55, 76
2, 268417, Note_on_c, 0, 52, 76
2, 268439, Note_off_c, 0, 73, 64
2, 268443, Note_off_c, 0, 79, 64
2, 268449, Note_off_c, 0, 52, 64
2, 268449, Note_off_c, 0, 55, 64
2, 268449, Note_off_c, 0, 57, 64
2, 268449, Note_off_c, 0, 81, 64
2, 268455, Note_off_c, 0, 64, 64
2, 268456, Note_off_c, 0, 61, 64
2, 268459, Note_off_c, 0, 57, 64
2, 268459, Note_off_c, 0, 85, 64
2, 268471, Note_on_c, 0, 85, 85
2, 268471, Note_on_c, 0, 73, 89
2, 268472, Note_on_c, 0, 57, 85
2, 268480, Note_on_c, 0, 81, 87
2, 268480, Note_on_c, 0, 79, 86
2, 268481, Note_on_c, 0, 64, 94
2, 268481, Note_on_c, 0, 57, 90
2, 268481, Note_on_c, 0, 55, 87
2, 268481, Note_on_c, 0, 52, 87
2, 268490, Note_on_c, 0, 61, 98
2, 268508, Note_off_c, 0, 73, 64
2, 268511, Note_off_c, 0, 57, 64
2, 268512, Note_off_c, 0, 52, 64
2, 268512, Note_off_c, 0, 55, 64
2, 268512, Note_off_c, 0, 64, 64
2, 268517, Note_off_c, 0, 79, 64
2, 268518, Note_off_c, 0, 61, 64
2, 268522, Note_off_c, 0, 81, 64
2, 268525, Note_off_c, 0, 57, 64
2, 268525, Note_off_c, 0, 85, 64
2, 268531, Note_off_c, 0, 33, 64
2, 268537, Note_off_c, 0, 45, 64
2, 268623, Control_c, 0, 64, 127
2, 268738, Control_c, 0, 64, 0
2, 268765, Note_on_c, 0, 85, 82
2, 268766, Note_on_c, 0, 73, 82
2, 268771, Note_on_c, 0, 81, 82
2, 268771, Note_on_c, 0, 79, 78
2, 268776, Note_on_c, 0, 55, 80
2, 268777, Note_on_c, 0, 57, 78
2, 268778, Note_on_c, 0, 64, 80
2, 268778, Note_on_c, 0, 61, 78
2, 268778, Note_on_c, 0, 52, 77
2, 268791, Control_c, 0, 64, 127
2, 268817, Note_off_c, 0, 79, 64
2, 268851, Note_off_c, 0, 81, 64
2, 268855, Note_off_c, 0, 73, 64
2, 268860, Note_off_c, 0, 52, 64
2, 268878, Note_off_c, 0, 57, 64
2, 268880, Note_off_c, 0, 61, 64
2, 268885, Note_off_c, 0, 55, 64
2, 268887, Note_off_c, 0, 64, 64
2, 268887, Note_off_c, 0, 85, 64
2, 268967, Control_c, 0, 64, 127
2, 269045, Note_on_c, 0, 85, 83
2, 269048, Note_on_c, 0, 79, 86
2, 269053, Note_on_c, 0, 73, 90
2, 269053, Note_on_c, 0, 61, 85
2, 269054, Note_on_c, 0, 64, 86
2, 269056, Note_on_c, 0, 55, 83
2, 269061, Note_on_c, 0, 82, 86
2, 269061, Note_on_c, 0, 52, 80
2, 269062, Note_on_c, 0, 58, 82
2, 269114, Note_off_c, 0, 79, 64
2, 269138, Note_off_c, 0, 52, 64
2, 269144, Note_off_c, 0, 73, 64
2, 269157, Note_off_c, 0, 61, 64
2, 269160, Note_off_c, 0, 82, 64
2, 269162, Note_off_c, 0, 58, 64
2, 269165, Note_off_c, 0, 55, 64
2, 269166, Note_off_c, 0, 85, 64
2, 269169, Note_off_c, 0, 64, 64
2, 269295, Control_c, 0, 64, 0
2, 269318, Note_on_c, 0, 85, 88
2, 269324, Note_on_c, 0, 77, 89
2, 269325, Note_on_c, 0, 61, 83
2, 269330, Note_on_c, 0, 82, 89
2, 269330, Note_on_c, 0, 73, 110
2, 269330, Note_on_c, 0, 65, 87
2, 269332, Note_on_c, 0, 58, 85
2, 269332, Note_on_c, 0, 53, 87
2, 269348, Control_c, 0, 64, 127
2, 269403, Note_off_c, 0, 53, 64
2, 269419, Note_off_c, 0, 77, 64
2, 269426, Note_off_c, 0, 73, 64
2, 269439, Note_off_c, 0, 58, 64
2, 269439, Note_off_c, 0, 82, 64
2, 269439, Note_off_c, 0, 85, 64
2, 269455, Note_off_c, 0, 61, 64
2, 269468, Note_off_c, 0, 65, 64
2, 269599, Note_on_c, 0, 85, 92
2, 269599, Control_c, 0, 64, 127
2, 269600, Note_on_c, 0, 58, 90
2, 269604, Note_on_c, 0, 67, 89
2, 269604, Note_on_c, 0, 63, 88
2, 269604, Note_on_c, 0, 55, 90
2, 269610, Note_on_c, 0, 75, 98
2, 269611, Note_on_c, 0, 82, 88
2, 269611, Note_on_c, 0, 73, 106
2, 269618, Control_c, 0, 64, 0
2, 269643, Control_c, 0, 64, 127
2, 269690, Note_off_c, 0, 82, 64
2, 269709, Note_off_c, 0, 58, 64
2, 269710, Note_off_c, 0, 55, 64
2, 269736, Note_off_c, 0, 67, 64
2, 269744, Note_off_c, 0, 75, 64
2, 269751, Note_off_c, 0, 85, 64
2, 269756, Note_off_c, 0, 63, 64
2, 269765, Note_off_c, 0, 73, 64
2, 269870, Control_c, 0, 64, 0
2, 269885, Note_on_c, 0, 56, 83
2, 269892, Note_on_c, 0, 84, 95
2, 269894, Note_on_c, 0, 75, 95
2, 269900, Note_on_c, 0, 80, 95
2, 269900, Note_on_c, 0, 72, 95
2, 269900, Note_on_c, 0, 63, 91
2, 269906, Note_on_c, 0, 68, 105
2, 269931, Control_c, 0, 64, 127
2, 269973, Note_off_c, 0, 63, 64
2, 270005, Note_off_c, 0, 72, 64
2, 270007, Note_off_c, 0, 68, 64
2, 270019, Note_off_c, 0, 56, 64
2, 270021, Note_off_c, 0, 75, 64
2, 270029, Note_off_c, 0, 80, 64
2, 270036, Note_off_c, 0, 84, 64
2, 270135, Note_on_c, 0, 51, 75
2, 270166, Note_on_c, 0, 58, 80
2, 270186, Note_on_c, 0, 61, 70
2, 270194, Control_c, 0, 64, 0
2, 270199, Note_off_c, 0, 51, 64
2, 270225, Note_on_c, 0, 89, 93
2, 270228, Note_on_c, 0, 80, 90
2, 270228, Note_on_c, 0, 68, 113
2, 270235, Note_on_c, 0, 77, 84
2, 270249, Control_c, 0, 64, 127
2, 270255, Note_off_c, 0, 58, 64
2, 270261, Note_off_c, 0, 61, 64
2, 270262, Note_off_c, 0, 68, 64
2, 270277, Note_off_c, 0, 77, 64
2, 270281, Note_off_c, 0, 80, 64
2, 270294, Note_off_c, 0, 89, 64
2, 270522, Control_c, 0, 64, 0
2, 270564, Note_on_c, 0, 67, 93
2, 270564, Note_on_c, 0, 63, 86
2, 270569, Note_on_c, 0, 61, 86
2, 270569, Note_on_c, 0, 55, 91
2, 270571, Note_on_c, 0, 39, 81
2, 270576, Note_on_c, 0, 51, 105
2, 270599, Control_c, 0, 64, 127
2, 270845, Control_c, 0, 64, 0
2, 270859, Note_on_c, 0, 68, 95
2, 270860, Note_off_c, 0, 63, 64
2, 270860, Note_off_c, 0, 67, 64
2, 270861, Note_on_c, 0, 56, 76
2, 270864, Note_on_c, 0, 32, 85
2, 270865, Note_off_c, 0, 55, 64
2, 270865, Note_off_c, 0, 61, 64
2, 270865, Note_on_c, 0, 60, 69
2, 270867, Note_off_c, 0, 39, 64
2, 270870, Note_on_c, 0, 44, 96
2, 270872, Note_off_c, 0, 51, 64
2, 270899, Note_off_c, 0, 44, 64
2, 270904, Note_off_c, 0, 32, 64
2, 270916, Note_off_c, 0, 56, 64
2, 270920, Note_off_c, 0, 60, 64
2, 271035, Note_on_c, 0, 63, 97
2, 271038, Note_on_c, 0, 61, 73
2, 271038, Note_on_c, 0, 34, 66
2, 271044, Note_on_c, 0, 55, 62
2, 271044, Note_on_c, 0, 46, 68
2, 271056, Control_c, 0, 64, 127
2, 271059, Note_off_c, 0, 68, 64
2, 271075, Note_off_c, 0, 34, 64
2, 271078, Note_off_c, 0, 46, 64
2, 271093, Note_off_c, 0, 61, 64
2, 271099, Note_off_c, 0, 55, 64
2, 271122, Control_c, 0, 64, 0
2, 271173, Control_c, 0, 64, 127
2, 271195, Note_on_c, 0, 56, 67
2, 271199, Note_on_c, 0, 60, 56
2, 271203, Note_on_c, 0, 48, 66
2, 271203, Note_on_c, 0, 36, 68
2, 271230, Note_off_c, 0, 48, 64
2, 271242, Note_off_c, 0, 36, 64
2, 271250, Note_off_c, 0, 56, 64
2, 271254, Note_off_c, 0, 60, 64
2, 271321, Control_c, 0, 64, 0
2, 271354, Control_c, 0, 64, 127
2, 271356, Note_on_c, 0, 61, 56
2, 271362, Note_on_c, 0, 29, 70
2, 271363, Note_on_c, 0, 72, 80
2, 271363, Note_on_c, 0, 68, 62
2, 271363, Note_on_c, 0, 41, 69
2, 271390, Note_off_c, 0, 63, 64
2, 271405, Note_off_c, 0, 29, 64
2, 271406, Note_off_c, 0, 41, 64
2, 271411, Note_off_c, 0, 61, 64
2, 271418, Note_off_c, 0, 68, 64
2, 271458, Control_c, 0, 64, 0
2, 271504, Note_on_c, 0, 31, 68
2, 271507, Note_on_c, 0, 43, 74
2, 271512, Note_on_c, 0, 70, 92
2, 271512, Note_on_c, 0, 63, 61
2, 271518, Note_on_c, 0, 61, 63
2, 271524, Control_c, 0, 64, 127
2, 271541, Note_off_c, 0, 31, 64
2, 271548, Note_off_c, 0, 72, 64
2, 271554, Note_off_c, 0, 43, 64
2, 271567, Note_off_c, 0, 63, 64
2, 271573, Note_off_c, 0, 61, 64
2, 271628, Control_c, 0, 64, 0
2, 271661, Note_on_c, 0, 68, 86
2, 271664, Note_on_c, 0, 61, 68
2, 271664, Note_on_c, 0, 56, 69
2, 271664, Note_on_c, 0, 41, 62
2, 271671, Note_on_c, 0, 53, 64
2, 271684, Control_c, 0, 64, 127
2, 271697, Note_off_c, 0, 70, 64
2, 271706, Note_off_c, 0, 41, 64
2, 271706, Note_off_c, 0, 53, 64
2, 271719, Note_off_c, 0, 56, 64
2, 271719, Note_off_c, 0, 61, 64
2, 271770, Control_c, 0, 64, 0
2, 271813, Note_on_c, 0, 39, 77
2, 271814, Note_on_c, 0, 63, 58
2, 271818, Note_on_c, 0, 51, 70
2, 271819, Note_on_c, 0, 67, 81
2, 271819, Note_on_c, 0, 58, 61
2, 271835, Control_c, 0, 64, 127
2, 271846, Note_off_c, 0, 68, 64
2, 271854, Note_off_c, 0, 39, 64
2, 271855, Note_off_c, 0, 51, 64
2, 271869, Note_off_c, 0, 63, 64
2, 271874, Note_off_c, 0, 58, 64
2, 271912, Control_c, 0, 64, 0
2, 271959, Note_on_c, 0, 49, 86
2, 271964, Note_on_c, 0, 55, 58
2, 271964, Note_on_c, 0, 37, 74
2, 271968, Note_on_c, 0, 65, 75
2, 271976, Control_c, 0, 64, 127
2, 271996, Note_off_c, 0, 37, 64
2, 272004, Note_off_c, 0, 49, 64
2, 272004, Note_off_c, 0, 67, 64
2, 272019, Note_off_c, 0, 55, 64
2, 272034, Note_on_c, 0, 67, 86
2, 272055, Note_off_c, 0, 65, 64
2, 272056, Control_c, 0, 64, 0
2, 272103, Note_on_c, 0, 36, 67
2, 272104, Note_on_c, 0, 65, 81
2, 272104, Note_on_c, 0, 48, 68
2, 272110, Note_off_c, 0, 67, 64
2, 272116, Note_on_c, 0, 56, 70
2, 272129, Control_c, 0, 64, 127
2, 272141, Note_off_c, 0, 36, 64
2, 272144, Note_off_c, 0, 48, 64
2, 272168, Control_c, 0, 64, 0
2, 272171, Note_off_c, 0, 56, 64
2, 272172, Note_on_c, 0, 63, 79
2, 272185, Note_off_c, 0, 65, 64
2, 272246, Note_on_c, 0, 61, 74
2, 272246, Note_on_c, 0, 55, 73
2, 272253, Note_on_c, 0, 46, 74
2, 272256, Note_on_c, 0, 34, 67
2, 272282, Note_off_c, 0, 34, 64
2, 272289, Note_off_c, 0, 46, 64
2, 272301, Note_off_c, 0, 55, 64
2, 272301, Note_off_c, 0, 61, 64
2, 272374, Control_c, 0, 64, 127
2, 272391, Note_on_c, 0, 56, 74
2, 272396, Note_on_c, 0, 60, 61
2, 272396, Note_on_c, 0, 44, 89
2, 272400, Note_on_c, 0, 32, 80
2, 272426, Note_off_c, 0, 44, 64
2, 272428, Note_off_c, 0, 32, 64
2, 272446, Note_off_c, 0, 56, 64
2, 272451, Note_off_c, 0, 60, 64
2, 272489, Control_c, 0, 64, 0
2, 272532, Note_on_c, 0, 61, 40
2, 272540, Note_on_c, 0, 68, 62
2, 272543, Note_on_c, 0, 72, 89
2, 272547, Note_on_c, 0, 41, 69
2, 272548, Note_on_c, 0, 29, 69
2, 272557, Note_off_c, 0, 63, 64
2, 272570, Control_c, 0, 64, 127
2, 272587, Note_off_c, 0, 61, 64
2, 272593, Note_off_c, 0, 29, 64
2, 272595, Note_off_c, 0, 68, 64
2, 272599, Note_off_c, 0, 41, 64
2, 272626, Control_c, 0, 64, 0
2, 272683, Note_on_c, 0, 43, 74
2, 272688, Note_on_c, 0, 63, 59
2, 272688, Note_on_c, 0, 61, 61
2, 272688, Note_on_c, 0, 31, 69
2, 272698, Note_on_c, 0, 70, 105
2, 272701, Control_c, 0, 64, 127
2, 272719, Note_off_c, 0, 31, 64
2, 272726, Note_off_c, 0, 43, 64
2, 272728, Note_off_c, 0, 72, 64
2, 272743, Note_off_c, 0, 61, 64
2, 272743, Note_off_c, 0, 63, 64
2, 272797, Control_c, 0, 64, 0
2, 272832, Note_on_c, 0, 68, 88
2, 272835, Note_on_c, 0, 61, 70
2, 272836, Note_on_c, 0, 56, 68
2, 272842, Note_on_c, 0, 53, 67
2, 272842, Note_on_c, 0, 41, 64
2, 272861, Control_c, 0, 64, 127
2, 272879, Note_off_c, 0, 53, 64
2, 272883, Note_off_c, 0, 41, 64
2, 272883, Note_off_c, 0, 70, 64
2, 272890, Note_off_c, 0, 61, 64
2, 272891, Note_off_c, 0, 56, 64
2, 272929, Control_c, 0, 64, 0
2, 272974, Note_on_c, 0, 67, 80
2, 272974, Note_on_c, 0, 63, 62
2, 272974, Note_on_c, 0, 39, 73
2, 272981, Note_on_c, 0, 58, 64
2, 272981, Note_on_c, 0, 51, 89
2, 272994, Control_c, 0, 64, 127
2, 273008, Note_off_c, 0, 39, 64
2, 273012, Note_off_c, 0, 51, 64
2, 273017, Note_off_c, 0, 68, 64
2, 273029, Note_off_c, 0, 63, 64
2, 273036, Note_off_c, 0, 58, 64
2, 273062, Control_c, 0, 64, 0
2, 273116, Note_on_c, 0, 68, 80
2, 273121, Note_on_c, 0, 65, 57
2, 273122, Note_on_c, 0, 37, 79
2, 273126, Note_on_c, 0, 49, 89
2, 273127, Note_on_c, 0, 58, 58
2, 273136, Control_c, 0, 64, 127
2, 273158, Note_off_c, 0, 37, 64
2, 273159, Note_off_c, 0, 67, 64
2, 273160, Note_off_c, 0, 49, 64
2, 273176, Note_off_c, 0, 65, 64
2, 273180, Note_on_c, 0, 67, 40
2, 273182, Note_off_c, 0, 58, 64
2, 273186, Note_on_c, 0, 70, 86
2, 273201, Note_off_c, 0, 68, 64
2, 273203, Control_c, 0, 64, 0
2, 273235, Note_off_c, 0, 67, 64
2, 273256, Note_on_c, 0, 58, 64
2, 273259, Note_on_c, 0, 63, 81
2, 273260, Control_c, 0, 64, 127
2, 273267, Note_on_c, 0, 37, 79
2, 273268, Note_on_c, 0, 49, 90
2, 273281, Note_off_c, 0, 70, 64
2, 273306, Note_off_c, 0, 37, 64
2, 273311, Note_off_c, 0, 49, 64
2, 273311, Note_off_c, 0, 58, 64
2, 273344, Control_c, 0, 64, 0
2, 273387, Note_on_c, 0, 65, 77
2, 273394, Note_on_c, 0, 56, 71
2, 273397, Note_on_c, 0, 48, 70
2, 273402, Note_on_c, 0, 36, 67
2, 273404, Note_off_c, 0, 63, 64
2, 273416, Control_c, 0, 64, 127
2, 273440, Note_off_c, 0, 36, 64
2, 273442, Note_off_c, 0, 48, 64
2, 273449, Note_off_c, 0, 56, 64
2, 273454, Note_on_c, 0, 63, 92
2, 273474, Control_c, 0, 64, 0
2, 273479, Note_off_c, 0, 65, 64
2, 273499, Note_off_c, 0, 63, 64
2, 273511, Control_c, 0, 64, 127
2, 273524, Note_on_c, 0, 63, 70
2, 273524, Note_on_c, 0, 56, 74
2, 273530, Note_on_c, 0, 48, 79
2, 273534, Note_on_c, 0, 68, 86
2, 273534, Note_on_c, 0, 36, 72
2, 273562, Note_off_c, 0, 48, 64
2, 273569, Note_off_c, 0, 36, 64
2, 273579, Note_off_c, 0, 56, 64
2, 273579, Note_off_c, 0, 63, 64
2, 273629, Control_c, 0, 64, 0
2, 273662, Note_on_c, 0, 63, 69
2, 273663, Note_on_c, 0, 58, 67
2, 273668, Note_on_c, 0, 43, 68
2, 273673, Note_on_c, 0, 31, 73
2, 273674, Note_on_c, 0, 70, 88
2, 273707, Note_off_c, 0, 31, 64
2, 273713, Note_off_c, 0, 43, 64
2, 273717, Note_off_c, 0, 63, 64
2, 273718, Note_off_c, 0, 58, 64
2, 273719, Note_off_c, 0, 68, 64
2, 273802, Note_on_c, 0, 32, 82
2, 273805, Note_on_c, 0, 44, 83
2, 273811, Note_on_c, 0, 72, 88
2, 273811, Note_on_c, 0, 63, 68
2, 273811, Note_on_c, 0, 60, 62
2, 273835, Note_off_c, 0, 32, 64
2, 273839, Note_off_c, 0, 44, 64
2, 273849, Note_off_c, 0, 70, 64
2, 273866, Note_off_c, 0, 60, 64
2, 273866, Note_off_c, 0, 63, 64
2, 273956, Note_off_c, 0, 72, 64
2, 273961, Note_on_c, 0, 60, 61
2, 273962, Note_on_c, 0, 67, 71
2, 273966, Note_on_c, 0, 72, 89
2, 273966, Note_on_c, 0, 51, 86
2, 273966, Note_on_c, 0, 39, 77
2, 273985, Control_c, 0, 64, 127
2, 273995, Note_off_c, 0, 39, 64
2, 274001, Note_off_c, 0, 51, 64
2, 274016, Note_off_c, 0, 60, 64
2, 274017, Note_off_c, 0, 67, 64
2, 274044, Control_c, 0, 64, 0
2, 274096, Control_c, 0, 64, 127
2, 274120, Note_on_c, 0, 68, 62
2, 274120, Note_on_c, 0, 60, 57
2, 274120, Note_on_c, 0, 53, 46
2, 274120, Note_on_c, 0, 41, 56
2, 274152, Note_off_c, 0, 41, 64
2, 274158, Note_off_c, 0, 53, 64
2, 274175, Note_off_c, 0, 60, 64
2, 274175, Note_off_c, 0, 68, 64
2, 274199, Control_c, 0, 64, 0
2, 274241, Note_off_c, 0, 72, 64
2, 274249, Note_on_c, 0, 72, 80
2, 274256, Note_on_c, 0, 67, 59
2, 274256, Note_on_c, 0, 63, 67
2, 274260, Note_on_c, 0, 48, 68
2, 274260, Note_on_c, 0, 36, 66
2, 274274, Control_c, 0, 64, 127
2, 274297, Note_off_c, 0, 36, 64
2, 274301, Note_off_c, 0, 48, 64
2, 274311, Note_off_c, 0, 63, 64
2, 274311, Note_off_c, 0, 67, 64
2, 274340, Control_c, 0, 64, 0
2, 274392, Note_on_c, 0, 61, 37
2, 274399, Note_on_c, 0, 65, 52
2, 274399, Note_on_c, 0, 37, 73
2, 274402, Note_on_c, 0, 49, 82
2, 274424, Note_off_c, 0, 37, 64
2, 274430, Control_c, 0, 64, 127
2, 274436, Note_off_c, 0, 49, 64
2, 274447, Note_off_c, 0, 61, 64
2, 274454, Note_off_c, 0, 65, 64
2, 274484, Control_c, 0, 64, 0
2, 274536, Note_on_c, 0, 65, 59
2, 274537, Note_on_c, 0, 70, 90
2, 274537, Note_on_c, 0, 61, 63
2, 274546, Note_on_c, 0, 49, 85
2, 274564, Note_off_c, 0, 72, 64
2, 274576, Note_off_c, 0, 49, 64
2, 274591, Note_off_c, 0, 65, 64
2, 274592, Note_off_c, 0, 61, 64
2, 274682, Note_on_c, 0, 72, 94
2, 274687, Note_on_c, 0, 67, 50
2, 274687, Note_on_c, 0, 60, 47
2, 274695, Note_on_c, 0, 51, 88
2, 274695, Note_on_c, 0, 39, 82
2, 274702, Note_off_c, 0, 70, 64
2, 274706, Control_c, 0, 64, 127
2, 274727, Note_off_c, 0, 39, 64
2, 274733, Note_off_c, 0, 51, 64
2, 274742, Note_off_c, 0, 60, 64
2, 274742, Note_off_c, 0, 67, 64
2, 274793, Control_c, 0, 64, 0
2, 274816, Note_on_c, 0, 41, 59
2, 274824, Note_on_c, 0, 65, 66
2, 274824, Note_on_c, 0, 61, 52
2, 274824, Note_on_c, 0, 56, 55
2, 274824, Note_on_c, 0, 53, 46
2, 274858, Note_off_c, 0, 41, 64
2, 274867, Note_off_c, 0, 72, 64
2, 274870, Note_off_c, 0, 53, 64
2, 274879, Note_off_c, 0, 56, 64
2, 274879, Note_off_c, 0, 61, 64
2, 274960, Note_off_c, 0, 65, 64
2, 274968, Note_on_c, 0, 56, 37
2, 274975, Note_on_c, 0, 68, 86
2, 274977, Note_on_c, 0, 48, 72
2, 274983, Note_on_c, 0, 63, 63
2, 274983, Note_on_c, 0, 36, 73
2, 275008, Note_off_c, 0, 36, 64
2, 275014, Note_off_c, 0, 48, 64
2, 275023, Note_off_c, 0, 56, 64
2, 275038, Note_off_c, 0, 63, 64
2, 275090, Note_off_c, 0, 68, 64
2, 275126, Note_on_c, 0, 68, 77
2, 275133, Note_on_c, 0, 65, 57
2, 275134, Note_on_c, 0, 56, 61
2, 275138, Note_on_c, 0, 49, 90
2, 275138, Note_on_c, 0, 37, 82
2, 275164, Note_off_c, 0, 37, 64
2, 275172, Note_off_c, 0, 49, 64
2, 275188, Note_off_c, 0, 65, 64
2, 275189, Note_off_c, 0, 56, 64
2, 275269, Note_on_c, 0, 46, 75
2, 275273, Note_on_c, 0, 61, 56
2, 275280, Note_on_c, 0, 34, 58
2, 275280, Control_c, 0, 64, 127
2, 275309, Note_off_c, 0, 34, 64
2, 275315, Note_off_c, 0, 46, 64
2, 275328, Note_off_c, 0, 61, 64
2, 275412, Note_on_c, 0, 63, 32
2, 275412, Note_on_c, 0, 58, 37
2, 275420, Note_on_c, 0, 67, 68
2, 275427, Note_on_c, 0, 39, 75
2, 275431, Note_on_c, 0, 51, 88
2, 275451, Note_off_c, 0, 68, 64
2, 275461, Note_off_c, 0, 51, 64
2, 275461, Note_off_c, 0, 39, 64
2, 275467, Note_off_c, 0, 58, 64
2, 275467, Note_off_c, 0, 63, 64
2, 275505, Control_c, 0, 64, 0
2, 275560, Note_on_c, 0, 60, 56
2, 275564, Note_on_c, 0, 63, 75
2, 275571, Note_on_c, 0, 56, 73
2, 275574, Note_on_c, 0, 44, 82
2, 275581, Note_off_c, 0, 67, 64
2, 275597, Note_off_c, 0, 56, 64
2, 275597, Note_off_c, 0, 60, 64
2, 275601, Note_off_c, 0, 63, 64
2, 275604, Note_off_c, 0, 44, 64
2, 275652, Control_c, 0, 64, 127
2, 275660, Control_c, 0, 64, 127
2, 275724, Note_on_c, 0, 75, 76
2, 275727, Note_on_c, 0, 73, 76
2, 275732, Note_on_c, 0, 67, 76
2, 275732, Note_on_c, 0, 58, 76
2, 275736, Note_on_c, 0, 46, 76
2, 275747, Control_c, 0, 64, 127
2, 275782, Note_off_c, 0, 73, 64
2, 275787, Note_off_c, 0, 67, 64
2, 275874, Note_on_c, 0, 72, 76
2, 275874, Note_on_c, 0, 68, 76
2, 275877, Note_on_c, 0, 60, 76
2, 275883, Note_on_c, 0, 48, 76
2, 275897, Note_off_c, 0, 58, 64
2, 275901, Note_off_c, 0, 46, 64
2, 275929, Note_off_c, 0, 68, 64
2, 275929, Note_off_c, 0, 72, 64
2, 275987, Control_c, 0, 64, 0
2, 276019, Note_on_c, 0, 84, 83
2, 276020, Note_on_c, 0, 41, 76
2, 276023, Note_on_c, 0, 53, 76
2, 276024, Note_on_c, 0, 80, 76
2, 276024, Note_on_c, 0, 73, 76
2, 276042, Note_off_c, 0, 60, 64
2, 276048, Note_off_c, 0, 48, 64
2, 276049, Note_off_c, 0, 75, 64
2, 276057, Control_c, 0, 64, 127
2, 276079, Note_off_c, 0, 73, 64
2, 276079, Note_off_c, 0, 80, 64
2, 276081, Control_c, 0, 64, 0
2, 276152, Note_on_c, 0, 73, 76
2, 276155, Note_on_c, 0, 55, 76
2, 276155, Note_on_c, 0, 43, 76
2, 276157, Note_on_c, 0, 82, 83
2, 276157, Note_on_c, 0, 75, 76
2, 276164, Note_off_c, 0, 84, 64
2, 276185, Note_off_c, 0, 41, 64
2, 276188, Note_off_c, 0, 53, 64
2, 276188, Control_c, 0, 64, 127
2, 276207, Note_off_c, 0, 73, 64
2, 276212, Note_off_c, 0, 75, 64
2, 276256, Control_c, 0, 64, 0
2, 276296, Note_on_c, 0, 65, 76
2, 276297, Note_on_c, 0, 80, 83
2, 276301, Note_on_c, 0, 68, 76
2, 276302, Note_on_c, 0, 73, 76
2, 276307, Note_on_c, 0, 53, 76
2, 276320, Note_off_c, 0, 43, 64
2, 276320, Note_off_c, 0, 55, 64
2, 276330, Control_c, 0, 64, 127
2, 276332, Note_off_c, 0, 82, 64
2, 276356, Note_off_c, 0, 68, 64
2, 276357, Note_off_c, 0, 73, 64
2, 276398, Control_c, 0, 64, 0
2, 276436, Note_on_c, 0, 51, 76
2, 276437, Note_on_c, 0, 63, 76
2, 276442, Note_on_c, 0, 79, 83
2, 276443, Note_on_c, 0, 70, 76
2, 276448, Note_on_c, 0, 75, 76
2, 276461, Note_off_c, 0, 65, 64
2, 276462, Note_off_c, 0, 80, 64
2, 276472, Note_off_c, 0, 53, 64
2, 276498, Note_off_c, 0, 70, 64
2, 276503, Note_off_c, 0, 75, 64
2, 276571, Note_on_c, 0, 77, 83
2, 276574, Note_on_c, 0, 49, 76
2, 276576, Note_on_c, 0, 67, 76
2, 276578, Note_on_c, 0, 70, 76
2, 276581, Note_on_c, 0, 61, 76
2, 276601, Note_off_c, 0, 51, 64
2, 276602, Note_off_c, 0, 63, 64
2, 276605, Control_c, 0, 64, 127
2, 276607, Note_off_c, 0, 79, 64
2, 276631, Note_off_c, 0, 67, 64
2, 276633, Note_off_c, 0, 70, 64
2, 276655, Note_on_c, 0, 79, 83
2, 276673, Note_off_c, 0, 77, 64
2, 276693, Control_c, 0, 64, 0
2, 276715, Note_on_c, 0, 77, 83
2, 276716, Note_on_c, 0, 60, 76
2, 276716, Note_on_c, 0, 48, 76
2, 276725, Note_on_c, 0, 68, 76
2, 276734, Note_off_c, 0, 79, 64
2, 276739, Note_off_c, 0, 49, 64
2, 276746, Note_off_c, 0, 61, 64
2, 276776, Note_on_c, 0, 75, 76
2, 276780, Note_off_c, 0, 68, 64
2, 276789, Note_off_c, 0, 77, 64
2, 276848, Note_on_c, 0, 63, 76
2, 276851, Note_on_c, 0, 67, 76
2, 276854, Note_on_c, 0, 73, 76
2, 276859, Note_on_c, 0, 58, 76
2, 276859, Note_on_c, 0, 46, 76
2, 276881, Note_off_c, 0, 48, 64
2, 276881, Note_off_c, 0, 60, 64
2, 276903, Note_off_c, 0, 63, 64
2, 276906, Note_off_c, 0, 67, 64
2, 276909, Note_off_c, 0, 73, 64
2, 276980, Control_c, 0, 64, 127
2, 276992, Note_on_c, 0, 72, 76
2, 276992, Note_on_c, 0, 63, 76
2, 276996, Note_on_c, 0, 68, 76
2, 277002, Note_on_c, 0, 56, 76
2, 277003, Note_on_c, 0, 44, 76
2, 277024, Note_off_c, 0, 46, 64
2, 277024, Note_off_c, 0, 58, 64
2, 277047, Note_off_c, 0, 63, 64
2, 277047, Note_off_c, 0, 72, 64
2, 277051, Note_off_c, 0, 68, 64
2, 277114, Control_c, 0, 64, 0
2, 277144, Note_on_c, 0, 80, 76
2, 277144, Note_on_c, 0, 73, 76
2, 277147, Note_on_c, 0, 84, 83
2, 277150, Note_on_c, 0, 53, 76
2, 277150, Note_on_c, 0, 41, 76
2, 277167, Note_off_c, 0, 56, 64
2, 277167, Control_c, 0, 64, 127
2, 277168, Note_off_c, 0, 44, 64
2, 277191, Note_off_c, 0, 75, 64
2, 277199, Note_off_c, 0, 73, 64
2, 277199, Note_off_c, 0, 80, 64
2, 277251, Control_c, 0, 64, 0
2, 277284, Control_c, 0, 64, 127
2, 277292, Note_on_c, 0, 82, 83
2, 277292, Note_on_c, 0, 75, 76
2, 277292, Note_on_c, 0, 73, 76
2, 277292, Note_on_c, 0, 43, 76
2, 277303, Note_on_c, 0, 55, 76
2, 277315, Note_off_c, 0, 41, 64
2, 277315, Note_off_c, 0, 53, 64
2, 277332, Note_off_c, 0, 84, 64
2, 277347, Note_off_c, 0, 73, 64
2, 277347, Note_off_c, 0, 75, 64
2, 277386, Control_c, 0, 64, 0
2, 277419, Control_c, 0, 64, 127
2, 277432, Note_on_c, 0, 80, 83
2, 277433, Note_on_c, 0, 65, 76
2, 277437, Note_on_c, 0, 73, 76
2, 277437, Note_on_c, 0, 68, 76
2, 277438, Note_on_c, 0, 53, 76
2, 277457, Note_off_c, 0, 43, 64
2, 277457, Note_off_c, 0, 82, 64
2, 277468, Note_off_c, 0, 55, 64
2, 277492, Note_off_c, 0, 68, 64
2, 277492, Note_off_c, 0, 73, 64
2, 277565, Note_on_c, 0, 51, 76
2, 277568, Note_on_c, 0, 67, 76
2, 277570, Note_on_c, 0, 79, 83
2, 277570, Note_on_c, 0, 63, 76
2, 277574, Note_on_c, 0, 75, 76
2, 277575, Note_on_c, 0, 70, 76
2, 277587, Note_off_c, 0, 80, 64
2, 277598, Note_off_c, 0, 65, 64
2, 277603, Note_off_c, 0, 53, 64
2, 277623, Note_off_c, 0, 67, 64
2, 277629, Note_off_c, 0, 75, 64
2, 277630, Note_off_c, 0, 70, 64
2, 277636, Control_c, 0, 64, 127
2, 277655, Control_c, 0, 64, 0
2, 277704, Note_on_c, 0, 80, 83
2, 277704, Note_on_c, 0, 61, 76
2, 277707, Note_on_c, 0, 77, 76
2, 277707, Note_on_c, 0, 49, 76
2, 277712, Note_on_c, 0, 68, 76
2, 277720, Control_c, 0, 64, 127
2, 277730, Note_off_c, 0, 51, 64
2, 277735, Note_off_c, 0, 63, 64
2, 277735, Note_off_c, 0, 79, 64
2, 277762, Note_off_c, 0, 77, 64
2, 277767, Note_off_c, 0, 68, 64
2, 277773, Note_on_c, 0, 82, 83
2, 277776, Note_on_c, 0, 79, 83
2, 277776, Note_on_c, 0, 70, 76
2, 277810, Control_c, 0, 64, 0
2, 277815, Note_off_c, 0, 80, 64
2, 277826, Note_off_c, 0, 79, 64
2, 277828, Control_c, 0, 64, 127
2, 277831, Note_off_c, 0, 70, 64
2, 277832, Note_off_c, 0, 49, 64
2, 277839, Note_off_c, 0, 61, 64
2, 277841, Note_on_c, 0, 70, 76
2, 277844, Note_on_c, 0, 49, 76
2, 277848, Note_on_c, 0, 75, 83
2, 277848, Note_on_c, 0, 63, 76
2, 277850, Note_on_c, 0, 61, 76
2, 277867, Note_off_c, 0, 82, 64
2, 277896, Note_off_c, 0, 70, 64
2, 277903, Note_off_c, 0, 63, 64
2, 277908, Control_c, 0, 64, 127
2, 277939, Control_c, 0, 64, 0
2, 277973, Note_on_c, 0, 77, 83
2, 277976, Note_on_c, 0, 68, 76
2, 277976, Note_on_c, 0, 65, 76
2, 277981, Note_on_c, 0, 60, 76
2, 277981, Note_on_c, 0, 48, 76
2, 278000, Control_c, 0, 64, 127
2, 278003, Note_off_c, 0, 75, 64
2, 278009, Note_off_c, 0, 49, 64
2, 278015, Note_off_c, 0, 61, 64
2, 278027, Note_off_c, 0, 68, 64
2, 278031, Note_off_c, 0, 65, 64
2, 278032, Note_on_c, 0, 75, 83
2, 278040, Note_on_c, 0, 63, 76
2, 278052, Note_off_c, 0, 77, 64
2, 278086, Note_off_c, 0, 48, 64
2, 278086, Note_off_c, 0, 60, 64
2, 278087, Note_off_c, 0, 75, 64
2, 278095, Note_off_c, 0, 63, 64
2, 278104, Note_on_c, 0, 80, 83
2, 278104, Note_on_c, 0, 75, 76
2, 278108, Note_on_c, 0, 60, 76
2, 278112, Note_on_c, 0, 68, 76
2, 278113, Note_on_c, 0, 48, 76
2, 278165, Note_off_c, 0, 75, 64
2, 278167, Note_off_c, 0, 68, 64
2, 278214, Control_c, 0, 64, 0
2, 278245, Note_on_c, 0, 55, 76
2, 278250, Note_on_c, 0, 75, 76
2, 278250, Note_on_c, 0, 43, 76
2, 278254, Note_on_c, 0, 70, 76
2, 278260, Note_on_c, 0, 82, 100
2, 278273, Note_off_c, 0, 60, 64
2, 278278, Note_off_c, 0, 48, 64
2, 278288, Control_c, 0, 64, 127
2, 278289, Note_off_c, 0, 80, 64
2, 278303, Note_off_c, 0, 75, 64
2, 278309, Note_off_c, 0, 70, 64
2, 278356, Control_c, 0, 64, 0
2, 278378, Note_on_c, 0, 44, 76
2, 278384, Note_on_c, 0, 80, 76
2, 278386, Note_on_c, 0, 56, 76
2, 278392, Note_on_c, 0, 75, 76
2, 278394, Note_on_c, 0, 84, 91
2, 278394, Note_on_c, 0, 72, 76
2, 278410, Note_off_c, 0, 55, 64
2, 278415, Note_off_c, 0, 43, 64
2, 278425, Note_off_c, 0, 82, 64
2, 278425, Control_c, 0, 64, 127
2, 278439, Note_off_c, 0, 80, 64
2, 278447, Note_off_c, 0, 75, 64
2, 278449, Note_off_c, 0, 72, 64
2, 278499, Control_c, 0, 64, 0
2, 278539, Note_off_c, 0, 84, 64
2, 278543, Note_off_c, 0, 44, 64
2, 278546, Note_on_c, 0, 79, 76
2, 278546, Note_on_c, 0, 72, 76
2, 278550, Note_on_c, 0, 84, 97
2, 278551, Note_off_c, 0, 56, 64
2, 278554, Note_on_c, 0, 51, 76
2, 278559, Note_on_c, 0, 39, 76
2, 278601, Note_off_c, 0, 72, 64
2, 278601, Note_off_c, 0, 79, 64
2, 278682, Note_on_c, 0, 80, 76
2, 278688, Note_on_c, 0, 72, 76
2, 278691, Control_c, 0, 64, 127
2, 278697, Note_on_c, 0, 41, 76
2, 278704, Note_on_c, 0, 53, 76
2, 278719, Note_off_c, 0, 51, 64
2, 278724, Note_off_c, 0, 39, 64
2, 278737, Note_off_c, 0, 80, 64
2, 278740, Note_off_c, 0, 72, 64
2, 278815, Note_off_c, 0, 84, 64
2, 278818, Control_c, 0, 64, 0
2, 278831, Note_on_c, 0, 84, 99
2, 278832, Note_on_c, 0, 75, 76
2, 278838, Note_on_c, 0, 79, 76
2, 278843, Note_on_c, 0, 36, 76
2, 278849, Note_on_c, 0, 48, 76
2, 278862, Note_off_c, 0, 41, 64
2, 278865, Control_c, 0, 64, 127
2, 278869, Note_off_c, 0, 53, 64
2, 278887, Note_off_c, 0, 75, 64
2, 278893, Note_off_c, 0, 79, 64
2, 278940, Control_c, 0, 64, 0
2, 278976, Note_on_c, 0, 73, 76
2, 278977, Note_on_c, 0, 77, 76
2, 278983, Note_on_c, 0, 37, 76
2, 278989, Note_on_c, 0, 49, 76
2, 279008, Note_off_c, 0, 36, 64
2, 279014, Note_off_c, 0, 48, 64
2, 279031, Note_off_c, 0, 73, 64
2, 279032, Note_off_c, 0, 77, 64
2, 279108, Note_off_c, 0, 37, 64
2, 279114, Note_off_c, 0, 49, 64
2, 279124, Note_on_c, 0, 82, 83
2, 279124, Note_on_c, 0, 77, 76
2, 279124, Note_on_c, 0, 73, 76
2, 279124, Note_on_c, 0, 61, 76
2, 279128, Note_on_c, 0, 49, 76
2, 279137, Note_off_c, 0, 84, 64
2, 279146, Control_c, 0, 64, 127
2, 279179, Note_off_c, 0, 73, 64
2, 279179, Note_off_c, 0, 77, 64
2, 279231, Control_c, 0, 64, 0
2, 279276, Note_on_c, 0, 79, 76
2, 279276, Note_on_c, 0, 72, 76
2, 279277, Note_on_c, 0, 84, 83
2, 279280, Note_on_c, 0, 63, 76
2, 279280, Note_on_c, 0, 51, 76
2, 279289, Note_off_c, 0, 61, 64
2, 279293, Note_off_c, 0, 49, 64
2, 279296, Control_c, 0, 64, 127
2, 279299, Note_off_c, 0, 82, 64
2, 279323, Note_off_c, 0, 79, 64
2, 279328, Note_off_c, 0, 72, 64
2, 279384, Control_c, 0, 64, 0
2, 279438, Note_on_c, 0, 53, 77
2, 279440, Note_on_c, 0, 73, 77
2, 279440, Note_on_c, 0, 68, 77
2, 279440, Note_on_c, 0, 65, 77
2, 279442, Note_on_c, 0, 77, 84
2, 279445, Note_off_c, 0, 51, 64
2, 279445, Note_off_c, 0, 63, 64
2, 279456, Control_c, 0, 64, 127
2, 279462, Note_off_c, 0, 84, 64
2, 279495, Note_off_c, 0, 68, 64
2, 279495, Note_off_c, 0, 73, 64
2, 279569, Control_c, 0, 64, 0
2, 279584, Note_on_c, 0, 80, 85
2, 279588, Note_on_c, 0, 60, 78
2, 279590, Note_on_c, 0, 68, 78
2, 279591, Note_on_c, 0, 75, 78
2, 279592, Note_on_c, 0, 48, 78
2, 279601, Note_off_c, 0, 77, 64
2, 279603, Note_off_c, 0, 53, 64
2, 279605, Note_off_c, 0, 65, 64
2, 279635, Control_c, 0, 64, 127
2, 279645, Note_off_c, 0, 68, 64
2, 279646, Note_off_c, 0, 75, 64
2, 279719, Control_c, 0, 64, 0
2, 279729, Note_off_c, 0, 80, 64
2, 279753, Note_off_c, 0, 60, 64
2, 279757, Note_off_c, 0, 48, 64
2, 279760, Note_on_c, 0, 77, 79
2, 279763, Note_on_c, 0, 80, 71
2, 279763, Note_on_c, 0, 68, 79
2, 279764, Note_on_c, 0, 61, 79
2, 279764, Note_on_c, 0, 49, 79
2, 279786, Control_c, 0, 64, 127
2, 279815, Note_off_c, 0, 77, 64
2, 279818, Note_off_c, 0, 68, 64
2, 279929, Note_off_c, 0, 49, 64
2, 279929, Note_off_c, 0, 61, 64
2, 279943, Control_c, 0, 64, 0
2, 279952, Note_on_c, 0, 68, 81
2, 279952, Note_on_c, 0, 58, 82
2, 279954, Note_on_c, 0, 73, 81
2, 279959, Note_on_c, 0, 46, 82
2, 280126, Control_c, 0, 64, 127
2, 280147, Note_off_c, 0, 58, 64
2, 280147, Note_off_c, 0, 68, 64
2, 280149, Note_off_c, 0, 73, 64
2, 280154, Note_off_c, 0, 46, 64
2, 280158, Note_on_c, 0, 79, 85
2, 280160, Note_on_c, 0, 70, 83
2, 280160, Note_on_c, 0, 67, 83
2, 280160, Note_on_c, 0, 51, 83
2, 280163, Note_on_c, 0, 75, 83
2, 280163, Note_on_c, 0, 63, 83
2, 280178, Note_off_c, 0, 80, 64
2, 280355, Note_off_c, 0, 51, 64
2, 280355, Note_off_c, 0, 67, 64
2, 280355, Note_off_c, 0, 70, 64
2, 280358, Note_off_c, 0, 63, 64
2, 280358, Note_off_c, 0, 75, 64
2, 280445, Control_c, 0, 64, 0
2, 280448, Note_on_c, 0, 76, 85
2, 280448, Note_on_c, 0, 71, 85
2, 280448, Note_on_c, 0, 68, 85
2, 280448, Note_on_c, 0, 50, 85
2, 280448, Note_on_c, 0, 38, 85
2, 280451, Note_on_c, 0, 80, 95
2, 280473, Note_off_c, 0, 79, 64
2, 280540, Control_c, 0, 64, 127
2, 280566, Control_c, 0, 64, 127
2, 280695, Note_on_c, 0, 47, 56
2, 280741, Note_off_c, 0, 68, 64
2, 280742, Note_off_c, 0, 71, 64
2, 280745, Note_off_c, 0, 50, 64
2, 280749, Note_off_c, 0, 76, 64
2, 280756, Note_on_c, 0, 52, 59
2, 280760, Note_off_c, 0, 80, 64
2, 280760, Note_off_c, 0, 38, 64
2, 280764, Note_off_c, 0, 47, 64
2, 280801, Note_on_c, 0, 57, 63
2, 280815, Note_off_c, 0, 52, 64
2, 280843, Note_on_c, 0, 56, 57
2, 280859, Note_off_c, 0, 57, 64
2, 280897, Note_on_c, 0, 54, 46
2, 280914, Note_off_c, 0, 56, 64
2, 280926, Note_on_c, 0, 52, 56
2, 280938, Note_off_c, 0, 54, 64
2, 280977, Note_off_c, 0, 52, 64
2, 280987, Note_on_c, 0, 59, 67
2, 281027, Note_on_c, 0, 64, 67
2, 281034, Note_off_c, 0, 59, 64
2, 281071, Note_on_c, 0, 69, 57
2, 281084, Note_off_c, 0, 64, 64
2, 281117, Note_on_c, 0, 68, 62
2, 281124, Note_on_c, 0, 59, 69
2, 281125, Note_on_c, 0, 50, 67
2, 281127, Note_on_c, 0, 56, 66
2, 281130, Note_on_c, 0, 52, 67
2, 281135, Note_off_c, 0, 69, 64
2, 281167, Note_on_c, 0, 66, 67
2, 281189, Note_off_c, 0, 68, 64
2, 281210, Note_on_c, 0, 64, 62
2, 281219, Note_off_c, 0, 66, 64
2, 281261, Note_off_c, 0, 64, 64
2, 281267, Control_c, 0, 64, 0
2, 281271, Note_on_c, 0, 71, 81
2, 281311, Note_on_c, 0, 76, 56
2, 281321, Note_off_c, 0, 71, 64
2, 281360, Note_on_c, 0, 81, 62
2, 281373, Note_off_c, 0, 76, 64
2, 281383, Control_c, 0, 64, 0
2, 281384, Note_off_c, 0, 50, 64
2, 281386, Note_off_c, 0, 59, 64
2, 281390, Note_off_c, 0, 52, 64
2, 281390, Note_off_c, 0, 56, 64
2, 281396, Note_on_c, 0, 71, 66
2, 281396, Note_on_c, 0, 68, 53
2, 281396, Note_on_c, 0, 64, 72
2, 281398, Note_on_c, 0, 62, 59
2, 281402, Note_on_c, 0, 80, 72
2, 281408, Control_c, 0, 64, 127
2, 281420, Note_off_c, 0, 81, 64
2, 281447, Note_on_c, 0, 78, 57
2, 281458, Note_off_c, 0, 80, 64
2, 281492, Note_on_c, 0, 76, 62
2, 281496, Note_off_c, 0, 78, 64
2, 281500, Control_c, 0, 64, 127
2, 281532, Note_off_c, 0, 76, 64
2, 281537, Note_on_c, 0, 83, 70
2, 281583, Note_on_c, 0, 88, 50
2, 281588, Note_off_c, 0, 83, 64
2, 281611, Note_off_c, 0, 64, 64
2, 281611, Note_off_c, 0, 68, 64
2, 281611, Note_off_c, 0, 71, 64
2, 281613, Note_off_c, 0, 62, 64
2, 281619, Note_on_c, 0, 73, 61
2, 281629, Note_on_c, 0, 93, 70
2, 281641, Note_off_c, 0, 88, 64
2, 281650, Note_off_c, 0, 73, 64
2, 281673, Note_on_c, 0, 92, 81
2, 281676, Note_on_c, 0, 64, 66
2, 281678, Note_on_c, 0, 68, 67
2, 281680, Note_on_c, 0, 62, 62
2, 281681, Note_on_c, 0, 71, 76
2, 281684, Note_off_c, 0, 93, 64
2, 281708, Note_off_c, 0, 92, 64
2, 281711, Note_off_c, 0, 64, 64
2, 281713, Note_off_c, 0, 68, 64
2, 281715, Note_off_c, 0, 62, 64
2, 281716, Note_off_c, 0, 71, 64
2, 281822, Note_on_c, 0, 47, 79
2, 281872, Note_on_c, 0, 52, 57
2, 281891, Note_off_c, 0, 47, 64
2, 281911, Note_on_c, 0, 57, 62
2, 281922, Control_c, 0, 64, 0
2, 281926, Note_off_c, 0, 52, 64
2, 281941, Control_c, 0, 64, 127
2, 281956, Note_on_c, 0, 56, 66
2, 281961, Note_off_c, 0, 57, 64
2, 281964, Note_on_c, 0, 26, 90
2, 281967, Note_on_c, 0, 38, 89
2, 282003, Note_on_c, 0, 54, 45
2, 282013, Note_off_c, 0, 56, 64
2, 282036, Note_on_c, 0, 52, 62
2, 282046, Note_off_c, 0, 54, 64
2, 282099, Note_off_c, 0, 52, 64
2, 282103, Note_on_c, 0, 59, 84
2, 282138, Note_on_c, 0, 64, 56
2, 282153, Note_off_c, 0, 59, 64
2, 282182, Note_on_c, 0, 69, 59
2, 282198, Note_off_c, 0, 64, 64
2, 282228, Note_on_c, 0, 52, 68
2, 282233, Note_on_c, 0, 68, 62
2, 282235, Note_on_c, 0, 56, 70
2, 282235, Note_on_c, 0, 50, 72
2, 282236, Note_on_c, 0, 59, 75
2, 282250, Note_off_c, 0, 69, 64
2, 282279, Note_on_c, 0, 66, 72
2, 282303, Note_off_c, 0, 68, 64
2, 282319, Note_on_c, 0, 64, 50
2, 282329, Note_off_c, 0, 66, 64
2, 282380, Note_off_c, 0, 64, 64
2, 282380, Note_on_c, 0, 71, 77
2, 282422, Note_on_c, 0, 76, 62
2, 282440, Note_off_c, 0, 71, 64
2, 282467, Note_off_c, 0, 26, 64
2, 282467, Note_off_c, 0, 38, 64
2, 282471, Note_on_c, 0, 81, 56
2, 282477, Note_off_c, 0, 76, 64
2, 282489, Note_off_c, 0, 52, 64
2, 282492, Note_on_c, 0, 64, 53
2, 282495, Note_on_c, 0, 62, 63
2, 282496, Note_off_c, 0, 50, 64
2, 282496, Note_off_c, 0, 56, 64
2, 282497, Note_on_c, 0, 71, 75
2, 282497, Note_on_c, 0, 68, 67
2, 282498, Note_off_c, 0, 59, 64
2, 282511, Note_on_c, 0, 80, 66
2, 282528, Note_off_c, 0, 81, 64
2, 282557, Note_on_c, 0, 78, 67
2, 282575, Note_off_c, 0, 80, 64
2, 282602, Note_on_c, 0, 76, 46
2, 282605, Note_off_c, 0, 78, 64
2, 282641, Note_off_c, 0, 76, 64
2, 282647, Note_on_c, 0, 83, 66
2, 282688, Note_on_c, 0, 88, 43
2, 282707, Note_off_c, 0, 64, 64
2, 282710, Note_off_c, 0, 62, 64
2, 282712, Note_off_c, 0, 68, 64
2, 282712, Note_off_c, 0, 71, 64
2, 282717, Note_on_c, 0, 73, 67
2, 282724, Note_off_c, 0, 83, 64
2, 282732, Note_on_c, 0, 93, 70
2, 282740, Control_c, 0, 64, 0
2, 282743, Note_off_c, 0, 88, 64
2, 282750, Note_off_c, 0, 73, 64
2, 282772, Note_on_c, 0, 68, 66
2, 282772, Note_on_c, 0, 64, 59
2, 282772, Note_on_c, 0, 62, 66
2, 282774, Note_on_c, 0, 92, 82
2, 282774, Note_on_c, 0, 71, 76
2, 282782, Control_c, 0, 64, 127
2, 282785, Note_off_c, 0, 93, 64
2, 282807, Note_off_c, 0, 62, 64
2, 282807, Note_off_c, 0, 64, 64
2, 282807, Note_off_c, 0, 68, 64
2, 282809, Note_off_c, 0, 71, 64
2, 282809, Note_off_c, 0, 92, 64
2, 282925, Note_on_c, 0, 47, 73
2, 282965, Note_on_c, 0, 53, 62
2, 282994, Note_off_c, 0, 47, 64
2, 283004, Note_on_c, 0, 57, 79
2, 283010, Note_off_c, 0, 53, 64
2, 283049, Note_on_c, 0, 56, 44
2, 283060, Note_on_c, 0, 26, 90
2, 283061, Note_off_c, 0, 57, 64
2, 283063, Note_on_c, 0, 38, 90
2, 283087, Note_on_c, 0, 54, 68
2, 283108, Note_off_c, 0, 56, 64
2, 283132, Note_on_c, 0, 53, 75
2, 283148, Note_off_c, 0, 54, 64
2, 283180, Note_off_c, 0, 53, 64
2, 283186, Note_on_c, 0, 59, 82
2, 283226, Note_on_c, 0, 65, 51
2, 283240, Note_off_c, 0, 59, 64
2, 283266, Note_on_c, 0, 69, 60
2, 283274, Note_off_c, 0, 65, 64
2, 283313, Note_on_c, 0, 68, 72
2, 283316, Note_on_c, 0, 50, 70
2, 283320, Note_on_c, 0, 59, 75
2, 283320, Note_on_c, 0, 56, 72
2, 283324, Note_on_c, 0, 53, 67
2, 283342, Note_off_c, 0, 69, 64
2, 283360, Note_on_c, 0, 66, 61
2, 283380, Note_off_c, 0, 68, 64
2, 283408, Note_on_c, 0, 65, 67
2, 283419, Note_off_c, 0, 66, 64
2, 283457, Note_off_c, 0, 65, 64
2, 283461, Note_on_c, 0, 71, 84
2, 283504, Note_on_c, 0, 77, 56
2, 283510, Note_off_c, 0, 71, 64
2, 283544, Note_on_c, 0, 81, 55
2, 283552, Note_off_c, 0, 77, 64
2, 283562, Note_off_c, 0, 26, 64
2, 283565, Note_off_c, 0, 38, 64
2, 283580, Note_off_c, 0, 50, 64
2, 283580, Note_on_c, 0, 65, 58
2, 283581, Note_on_c, 0, 62, 62
2, 283584, Note_off_c, 0, 56, 64
2, 283584, Note_off_c, 0, 59, 64
2, 283585, Note_on_c, 0, 71, 73
2, 283587, Note_on_c, 0, 68, 63
2, 283588, Note_off_c, 0, 53, 64
2, 283590, Note_on_c, 0, 80, 76
2, 283611, Note_off_c, 0, 81, 64
2, 283626, Note_on_c, 0, 78, 79
2, 283642, Note_off_c, 0, 80, 64
2, 283656, Note_on_c, 0, 77, 59
2, 283685, Note_off_c, 0, 78, 64
2, 283716, Note_off_c, 0, 77, 64
2, 283717, Note_on_c, 0, 83, 79
2, 283771, Note_on_c, 0, 89, 64
2, 283787, Note_off_c, 0, 83, 64
2, 283795, Note_off_c, 0, 65, 64
2, 283796, Note_off_c, 0, 62, 64
2, 283800, Note_off_c, 0, 71, 64
2, 283802, Note_off_c, 0, 68, 64
2, 283804, Note_on_c, 0, 73, 67
2, 283818, Note_on_c, 0, 93, 73
2, 283823, Note_off_c, 0, 89, 64
2, 283837, Note_off_c, 0, 73, 64
2, 283876, Note_on_c, 0, 86, 68
2, 283878, Note_on_c, 0, 92, 67
2, 283878, Note_on_c, 0, 71, 77
2, 283878, Note_on_c, 0, 65, 56
2, 283878, Note_on_c, 0, 62, 57
2, 283888, Note_off_c, 0, 93, 64
2, 283896, Note_off_c, 0, 65, 64
2, 283896, Control_c, 0, 64, 127
2, 283900, Note_off_c, 0, 71, 64
2, 283902, Note_off_c, 0, 62, 64
2, 283916, Note_on_c, 0, 85, 69
2, 283956, Note_off_c, 0, 86, 64
2, 283976, Note_on_c, 0, 84, 67
2, 283985, Note_off_c, 0, 85, 64
2, 284026, Note_on_c, 0, 83, 67
2, 284042, Note_off_c, 0, 84, 64
2, 284066, Note_on_c, 0, 82, 53
2, 284074, Note_off_c, 0, 83, 64
2, 284124, Note_on_c, 0, 81, 28
2, 284130, Note_off_c, 0, 82, 64
2, 284173, Note_off_c, 0, 92, 64
2, 284178, Note_on_c, 0, 86, 62
2, 284179, Note_on_c, 0, 80, 73
2, 284179, Note_on_c, 0, 71, 60
2, 284197, Note_off_c, 0, 81, 64
2, 284224, Note_on_c, 0, 70, 50
2, 284229, Note_on_c, 0, 79, 72
2, 284232, Note_off_c, 0, 71, 64
2, 284237, Note_off_c, 0, 80, 64
2, 284278, Note_on_c, 0, 69, 72
2, 284281, Note_on_c, 0, 78, 73
2, 284287, Note_off_c, 0, 79, 64
2, 284290, Note_off_c, 0, 70, 64
2, 284322, Note_on_c, 0, 68, 45
2, 284324, Note_on_c, 0, 77, 56
2, 284327, Note_off_c, 0, 69, 64
2, 284333, Note_off_c, 0, 78, 64
2, 284370, Note_on_c, 0, 76, 73
2, 284370, Note_on_c, 0, 67, 72
2, 284388, Note_off_c, 0, 68, 64
2, 284390, Note_off_c, 0, 77, 64
2, 284412, Note_on_c, 0, 66, 68
2, 284416, Note_on_c, 0, 75, 82
2, 284421, Note_off_c, 0, 67, 64
2, 284421, Note_off_c, 0, 76, 64
2, 284426, Control_c, 0, 64, 0
2, 284472, Note_on_c, 0, 65, 73
2, 284473, Note_off_c, 0, 86, 64
2, 284474, Note_on_c, 0, 80, 73
2, 284474, Note_on_c, 0, 74, 77
2, 284478, Note_off_c, 0, 66, 64
2, 284482, Note_off_c, 0, 75, 64
2, 284492, Control_c, 0, 64, 127
2, 284514, Note_on_c, 0, 73, 76
2, 284514, Note_on_c, 0, 64, 70
2, 284531, Note_off_c, 0, 74, 64
2, 284538, Note_off_c, 0, 65, 64
2, 284559, Note_on_c, 0, 72, 54
2, 284559, Note_on_c, 0, 63, 67
2, 284570, Note_off_c, 0, 64, 64
2, 284572, Note_off_c, 0, 73, 64
2, 284602, Note_on_c, 0, 62, 68
2, 284603, Note_on_c, 0, 71, 67
2, 284605, Note_off_c, 0, 72, 64
2, 284614, Note_off_c, 0, 63, 64
2, 284650, Note_on_c, 0, 61, 62
2, 284653, Note_on_c, 0, 70, 79
2, 284656, Note_off_c, 0, 71, 64
2, 284657, Note_off_c, 0, 62, 64
2, 284702, Note_on_c, 0, 69, 70
2, 284702, Note_on_c, 0, 60, 66
2, 284708, Control_c, 0, 64, 0
2, 284719, Note_off_c, 0, 70, 64
2, 284719, Note_off_c, 0, 61, 64
2, 284746, Note_on_c, 0, 74, 77
2, 284746, Note_on_c, 0, 68, 79
2, 284746, Note_on_c, 0, 59, 56
2, 284754, Note_off_c, 0, 69, 64
2, 284767, Control_c, 0, 64, 127
2, 284769, Note_off_c, 0, 60, 64
2, 284769, Note_off_c, 0, 80, 64
2, 284802, Note_on_c, 0, 58, 70
2, 284804, Note_on_c, 0, 67, 73
2, 284814, Note_off_c, 0, 59, 64
2, 284814, Note_off_c, 0, 68, 64
2, 284854, Note_on_c, 0, 66, 75
2, 284854, Note_on_c, 0, 57, 69
2, 284863, Note_off_c, 0, 58, 64
2, 284870, Note_off_c, 0, 67, 64
2, 284892, Note_on_c, 0, 65, 59
2, 284894, Note_on_c, 0, 56, 69
2, 284898, Note_off_c, 0, 66, 64
2, 284916, Note_off_c, 0, 57, 64
2, 284936, Note_on_c, 0, 64, 73
2, 284938, Note_on_c, 0, 55, 73
2, 284958, Note_off_c, 0, 65, 64
2, 284960, Note_off_c, 0, 56, 64
2, 284976, Note_on_c, 0, 63, 84
2, 284976, Note_on_c, 0, 54, 70
2, 284986, Note_off_c, 0, 64, 64
2, 284992, Control_c, 0, 64, 0
2, 285004, Note_off_c, 0, 55, 64
2, 285036, Note_on_c, 0, 68, 84
2, 285038, Note_on_c, 0, 62, 73
2, 285038, Note_on_c, 0, 53, 73
2, 285041, Note_off_c, 0, 74, 64
2, 285050, Note_off_c, 0, 54, 64
2, 285053, Note_off_c, 0, 63, 64
2, 285057, Control_c, 0, 64, 127
2, 285082, Note_on_c, 0, 52, 68
2, 285083, Note_on_c, 0, 61, 68
2, 285090, Note_off_c, 0, 62, 64
2, 285104, Note_off_c, 0, 53, 64
2, 285126, Note_on_c, 0, 51, 72
2, 285127, Note_on_c, 0, 60, 62
2, 285134, Note_off_c, 0, 52, 64
2, 285140, Note_off_c, 0, 61, 64
2, 285172, Note_on_c, 0, 50, 73
2, 285175, Note_on_c, 0, 59, 73
2, 285188, Note_off_c, 0, 51, 64
2, 285204, Note_off_c, 0, 60, 64
2, 285222, Note_on_c, 0, 49, 73
2, 285225, Note_on_c, 0, 58, 79
2, 285233, Note_off_c, 0, 59, 64
2, 285244, Note_off_c, 0, 50, 64
2, 285282, Note_on_c, 0, 48, 69
2, 285284, Note_on_c, 0, 57, 73
2, 285291, Note_off_c, 0, 58, 64
2, 285293, Note_off_c, 0, 49, 64
2, 285303, Control_c, 0, 64, 0
2, 285331, Note_off_c, 0, 68, 64
2, 285347, Note_on_c, 0, 56, 84
2, 285348, Note_on_c, 0, 62, 62
2, 285348, Note_on_c, 0, 47, 72
2, 285355, Note_off_c, 0, 48, 64
2, 285357, Note_off_c, 0, 57, 64
2, 285384, Control_c, 0, 64, 127
2, 285408, Note_on_c, 0, 55, 62
2, 285410, Note_on_c, 0, 46, 76
2, 285421, Note_off_c, 0, 56, 64
2, 285422, Note_off_c, 0, 47, 64
2, 285466, Note_on_c, 0, 54, 72
2, 285468, Note_on_c, 0, 45, 70
2, 285482, Note_off_c, 0, 46, 64
2, 285485, Note_off_c, 0, 55, 64
2, 285526, Note_on_c, 0, 53, 66
2, 285528, Note_on_c, 0, 44, 77
2, 285535, Note_off_c, 0, 54, 64
2, 285550, Note_off_c, 0, 45, 64
2, 285586, Note_on_c, 0, 52, 77
2, 285586, Note_on_c, 0, 43, 81
2, 285606, Note_off_c, 0, 53, 64
2, 285608, Note_off_c, 0, 44, 64
2, 285647, Note_on_c, 0, 42, 82
2, 285649, Note_on_c, 0, 51, 85
2, 285657, Note_off_c, 0, 43, 64
2, 285666, Note_off_c, 0, 52, 64
2, 285748, Note_on_c, 0, 59, 68
2, 285748, Note_on_c, 0, 56, 84
2, 285748, Note_on_c, 0, 41, 76
2, 285751, Note_on_c, 0, 50, 68
2, 285763, Note_off_c, 0, 62, 64
2, 285766, Note_off_c, 0, 42, 64
2, 285768, Note_off_c, 0, 51, 64
2, 285768, Control_c, 0, 64, 0
2, 286273, Note_on_c, 0, 40, 72
2, 286279, Note_off_c, 0, 41, 64
2, 286444, Control_c, 0, 64, 127
2, 286598, Note_off_c, 0, 56, 64
2, 286604, Note_off_c, 0, 40, 64
2, 286604, Note_off_c, 0, 50, 64
2, 286620, Note_on_c, 0, 60, 68
2, 286675, Note_off_c, 0, 59, 64
2, 286854, Note_on_c, 0, 27, 61
2, 286856, Note_on_c, 0, 39, 62
2, 286883, Note_on_c, 0, 48, 62
2, 286914, Control_c, 0, 64, 0
2, 286928, Note_on_c, 0, 56, 72
2, 286978, Note_on_c, 0, 63, 83
2, 286979, Note_off_c, 0, 60, 64
2, 286996, Control_c, 0, 64, 127
2, 287133, Note_off_c, 0, 48, 64
2, 287141, Note_off_c, 0, 56, 64
2, 287232, Note_off_c, 0, 27, 64
2, 287232, Note_off_c, 0, 39, 64
2, 287514, Note_on_c, 0, 60, 77
2, 287514, Note_on_c, 0, 39, 66
2, 287514, Note_on_c, 0, 27, 64
2, 287515, Note_on_c, 0, 51, 68
2, 287518, Note_on_c, 0, 56, 77
2, 287533, Note_off_c, 0, 63, 64
2, 287582, Control_c, 0, 64, 0
2, 287670, Control_c, 0, 64, 127
2, 287912, Note_off_c, 0, 56, 64
2, 287916, Note_off_c, 0, 51, 64
2, 287921, Note_off_c, 0, 60, 64
2, 287987, Note_off_c, 0, 27, 64
2, 287991, Note_off_c, 0, 39, 64
2, 288357, Control_c, 0, 64, 0
2, 288370, Note_on_c, 0, 51, 56
2, 288370, Note_on_c, 0, 39, 57
2, 288371, Note_on_c, 0, 63, 68
2, 288371, Note_on_c, 0, 60, 66
2, 288371, Note_on_c, 0, 56, 62
2, 288421, Control_c, 0, 64, 127
2, 288551, Note_off_c, 0, 60, 64
2, 288560, Note_off_c, 0, 56, 64
2, 288584, Note_off_c, 0, 39, 64
2, 288588, Note_off_c, 0, 51, 64
2, 288770, Note_on_c, 0, 68, 73
2, 288777, Note_on_c, 0, 60, 66
2, 288783, Note_on_c, 0, 56, 59
2, 288788, Note_on_c, 0, 51, 44
2, 288793, Note_on_c, 0, 39, 39
2, 288826, Note_off_c, 0, 63, 64
2, 288856, Control_c, 0, 64, 0
2, 288952, Control_c, 0, 64, 127
2, 289432, Note_on_c, 0, 67, 62
2, 289465, Note_off_c, 0, 68, 64
2, 289846, Note_on_c, 0, 65, 47
2, 289887, Note_off_c, 0, 67, 64
2, 290422, Note_on_c, 0, 63, 29
2, 290426, Note_off_c, 0, 65, 64
2, 290504, Control_c, 0, 64, 0
2, 290724, Control_c, 0, 64, 127
2, 290948, Note_off_c, 0, 60, 64
2, 290954, Note_off_c, 0, 56, 64
2, 290964, Note_off_c, 0, 63, 64
2, 290966, Note_off_c, 0, 39, 64
2, 290970, Note_off_c, 0, 51, 64
2, 291308, Control_c, 0, 64, 0
2, 291669, Note_on_c, 0, 60, 29
2, 291728, Control_c, 0, 64, 127
2, 291826, Note_on_c, 0, 63, 44
2, 291874, Note_off_c, 0, 60, 64
2, 291968, Note_on_c, 0, 72, 46
2, 292000, Note_off_c, 0, 63, 64
2, 292064, Control_c, 0, 64, 0
2, 292144, Note_on_c, 0, 70, 45
2, 292145, Note_off_c, 0, 72, 64
2, 292512, Control_c, 0, 64, 127
2, 293148, Note_on_c, 0, 68, 22
2, 293180, Note_off_c, 0, 70, 64
2, 293459, Control_c, 0, 64, 0
2, 293604, Note_off_c, 0, 68, 64
2, 293841, Control_c, 0, 64, 127
2, 294048, Note_on_c, 0, 60, 40
2, 294215, Note_on_c, 0, 63, 56
2, 294223, Note_off_c, 0, 60, 64
2, 294231, Control_c, 0, 64, 0
2, 294368, Note_on_c, 0, 75, 53
2, 294397, Note_off_c, 0, 63, 64
2, 294557, Note_on_c, 0, 73, 48
2, 294594, Note_off_c, 0, 75, 64
2, 294753, Control_c, 0, 64, 127
2, 295677, Note_on_c, 0, 72, 24
2, 295739, Note_off_c, 0, 73, 64
2, 295816, Control_c, 0, 64, 0
2, 295957, Control_c, 0, 64, 127
2, 296050, Note_off_c, 0, 72, 64
2, 296322, Control_c, 0, 64, 0
2, 296456, Note_on_c, 0, 63, 40
2, 296563, Control_c, 0, 64, 127
2, 296642, Note_on_c, 0, 68, 44
2, 296669, Note_off_c, 0, 63, 64
2, 296828, Note_on_c, 0, 72, 44
2, 296852, Note_off_c, 0, 68, 64
2, 297068, Control_c, 0, 64, 0
2, 297097, Note_on_c, 0, 79, 53
2, 297164, Note_off_c, 0, 72, 64
2, 297213, Control_c, 0, 64, 127
2, 297754, Note_on_c, 0, 77, 36
2, 297777, Note_off_c, 0, 79, 64
2, 297848, Control_c, 0, 64, 0
2, 298052, Control_c, 0, 64, 127
2, 298502, Note_on_c, 0, 75, 29
2, 298549, Note_off_c, 0, 77, 64
2, 298883, Control_c, 0, 64, 0
2, 299103, Control_c, 0, 64, 127
2, 299317, Note_off_c, 0, 75, 64
2, 299889, Note_on_c, 0, 39, 27
2, 300050, Note_on_c, 0, 51, 28
2, 300145, Note_on_c, 0, 55, 38
2, 300259, Note_on_c, 0, 61, 29
2, 300326, Control_c, 0, 64, 0
2, 300457, Control_c, 0, 64, 127
2, 301719, Control_c, 0, 64, 0
2, 301767, Note_on_c, 0, 32, 62
2, 301798, Control_c, 0, 64, 127
2, 301892, Note_off_c, 0, 39, 64
2, 301920, Note_off_c, 0, 51, 64
2, 301920, Note_off_c, 0, 61, 64
2, 301924, Note_off_c, 0, 32, 64
2, 301926, Note_on_c, 0, 39, 41
2, 302045, Note_on_c, 0, 44, 42
2, 302060, Note_off_c, 0, 39, 64
2, 302152, Note_on_c, 0, 51, 28
2, 302165, Note_off_c, 0, 44, 64
2, 302258, Note_off_c, 0, 51, 64
2, 302263, Note_on_c, 0, 44, 43
2, 302264, Note_on_c, 0, 56, 46
2, 302280, Note_off_c, 0, 55, 64
2, 302355, Note_off_c, 0, 44, 64
2, 302360, Note_on_c, 0, 61, 47
2, 302363, Note_on_c, 0, 39, 43
2, 302380, Note_off_c, 0, 56, 64
2, 302464, Note_on_c, 0, 60, 52
2, 302467, Note_on_c, 0, 32, 43
2, 302479, Note_off_c, 0, 39, 64
2, 302481, Note_off_c, 0, 61, 64
2, 302493, Control_c, 0, 64, 0
2, 302527, Control_c, 0, 64, 127
2, 302566, Note_on_c, 0, 56, 43
2, 302567, Note_on_c, 0, 39, 44
2, 302575, Note_off_c, 0, 32, 64
2, 302579, Note_off_c, 0, 60, 64
2, 302657, Note_on_c, 0, 44, 44
2, 302658, Note_on_c, 0, 51, 44
2, 302664, Note_off_c, 0, 39, 64
2, 302678, Note_off_c, 0, 56, 64
2, 302720, Note_off_c, 0, 51, 64
2, 302736, Note_off_c, 0, 44, 64
2, 302748, Note_on_c, 0, 56, 48
2, 302750, Note_on_c, 0, 51, 45
2, 302806, Note_on_c, 0, 60, 50
2, 302809, Note_on_c, 0, 44, 45
2, 302814, Note_off_c, 0, 51, 64
2, 302844, Note_off_c, 0, 56, 64
2, 302869, Note_off_c, 0, 44, 64
2, 302876, Note_on_c, 0, 65, 50
2, 302876, Note_on_c, 0, 39, 45
2, 302880, Control_c, 0, 64, 0
2, 302895, Note_off_c, 0, 60, 64
2, 302899, Control_c, 0, 64, 127
2, 302932, Note_on_c, 0, 32, 45
2, 302934, Note_on_c, 0, 63, 51
2, 302940, Note_off_c, 0, 39, 64
2, 302947, Note_off_c, 0, 65, 64
2, 303016, Note_on_c, 0, 60, 51
2, 303016, Note_on_c, 0, 39, 45
2, 303023, Note_off_c, 0, 32, 64
2, 303033, Note_off_c, 0, 63, 64
2, 303086, Note_on_c, 0, 56, 52
2, 303089, Note_on_c, 0, 44, 46
2, 303096, Note_off_c, 0, 39, 64
2, 303115, Note_off_c, 0, 60, 64
2, 303148, Note_off_c, 0, 44, 64
2, 303156, Note_on_c, 0, 60, 52
2, 303157, Note_on_c, 0, 51, 46
2, 303158, Note_off_c, 0, 56, 64
2, 303222, Note_on_c, 0, 63, 52
2, 303222, Note_on_c, 0, 44, 47
2, 303225, Note_off_c, 0, 51, 64
2, 303268, Note_off_c, 0, 60, 64
2, 303277, Note_off_c, 0, 44, 64
2, 303278, Note_on_c, 0, 70, 53
2, 303279, Note_on_c, 0, 39, 47
2, 303334, Note_off_c, 0, 63, 64
2, 303338, Note_off_c, 0, 39, 64
2, 303340, Note_on_c, 0, 68, 54
2, 303340, Note_on_c, 0, 32, 47
2, 303369, Note_off_c, 0, 70, 64
2, 303389, Note_off_c, 0, 32, 64
2, 303390, Note_on_c, 0, 63, 54
2, 303391, Note_on_c, 0, 39, 47
2, 303411, Note_off_c, 0, 68, 64
2, 303450, Note_on_c, 0, 60, 55
2, 303451, Note_on_c, 0, 44, 47
2, 303455, Note_off_c, 0, 63, 64
2, 303457, Note_off_c, 0, 39, 64
2, 303496, Note_off_c, 0, 44, 64
2, 303498, Note_on_c, 0, 51, 47
2, 303500, Note_on_c, 0, 63, 55
2, 303513, Note_off_c, 0, 60, 64
2, 303546, Note_on_c, 0, 68, 56
2, 303552, Note_on_c, 0, 44, 47
2, 303556, Note_off_c, 0, 63, 64
2, 303558, Note_off_c, 0, 51, 64
2, 303588, Note_on_c, 0, 73, 56
2, 303588, Note_on_c, 0, 39, 47
2, 303594, Note_off_c, 0, 44, 64
2, 303611, Note_off_c, 0, 68, 64
2, 303634, Note_on_c, 0, 72, 56
2, 303635, Note_on_c, 0, 32, 48
2, 303641, Note_off_c, 0, 39, 64
2, 303662, Note_off_c, 0, 73, 64
2, 303686, Note_off_c, 0, 32, 64
2, 303686, Note_on_c, 0, 68, 57
2, 303686, Note_on_c, 0, 39, 48
2, 303698, Note_off_c, 0, 72, 64
2, 303731, Note_off_c, 0, 68, 64
2, 303735, Note_on_c, 0, 44, 48
2, 303736, Note_on_c, 0, 63, 57
2, 303746, Note_off_c, 0, 39, 64
2, 303777, Note_off_c, 0, 44, 64
2, 303780, Note_on_c, 0, 68, 57
2, 303783, Note_on_c, 0, 51, 48
2, 303793, Note_off_c, 0, 63, 64
2, 303812, Note_on_c, 0, 72, 57
2, 303830, Note_off_c, 0, 51, 64
2, 303830, Note_on_c, 0, 44, 49
2, 303836, Note_off_c, 0, 68, 64
2, 303860, Note_off_c, 0, 44, 64
2, 303860, Note_on_c, 0, 77, 58
2, 303860, Note_on_c, 0, 39, 49
2, 303861, Note_off_c, 0, 72, 64
2, 303898, Note_on_c, 0, 75, 58
2, 303900, Note_on_c, 0, 32, 50
2, 303904, Note_on_c, 0, 75, 58
2, 303907, Note_off_c, 0, 39, 64
2, 303928, Note_off_c, 0, 77, 64
2, 303946, Note_on_c, 0, 72, 59
2, 303946, Note_on_c, 0, 39, 50
2, 303952, Note_off_c, 0, 75, 64
2, 303958, Note_off_c, 0, 75, 64
2, 303962, Note_off_c, 0, 32, 64
2, 303996, Note_on_c, 0, 68, 59
2, 303996, Note_on_c, 0, 44, 50
2, 304004, Note_off_c, 0, 39, 64
2, 304011, Note_off_c, 0, 72, 64
2, 304028, Note_on_c, 0, 72, 61
2, 304039, Note_off_c, 0, 44, 64
2, 304042, Note_on_c, 0, 51, 50
2, 304058, Note_off_c, 0, 68, 64
2, 304068, Note_on_c, 0, 75, 61
2, 304084, Note_on_c, 0, 44, 50
2, 304086, Note_off_c, 0, 51, 64
2, 304086, Note_on_c, 0, 44, 50
2, 304093, Note_off_c, 0, 72, 64
2, 304100, Note_on_c, 0, 82, 61
2, 304108, Note_off_c, 0, 75, 64
2, 304109, Note_on_c, 0, 39, 51
2, 304113, Note_off_c, 0, 44, 64
2, 304127, Note_off_c, 0, 44, 64
2, 304152, Note_on_c, 0, 80, 62
2, 304153, Note_on_c, 0, 32, 51
2, 304157, Note_off_c, 0, 39, 64
2, 304164, Note_off_c, 0, 82, 64
2, 304194, Note_off_c, 0, 32, 64
2, 304200, Note_on_c, 0, 75, 62
2, 304201, Note_off_c, 0, 80, 64
2, 304203, Note_on_c, 0, 39, 51
2, 304238, Note_on_c, 0, 72, 62
2, 304239, Note_on_c, 0, 44, 51
2, 304246, Note_off_c, 0, 75, 64
2, 304257, Note_off_c, 0, 39, 64
2, 304269, Note_off_c, 0, 44, 64
2, 304276, Note_on_c, 0, 51, 51
2, 304280, Note_on_c, 0, 75, 62
2, 304298, Note_off_c, 0, 72, 64
2, 304308, Note_on_c, 0, 80, 62
2, 304315, Note_on_c, 0, 44, 51
2, 304322, Note_off_c, 0, 51, 64
2, 304326, Note_off_c, 0, 75, 64
2, 304336, Note_on_c, 0, 85, 62
2, 304339, Note_on_c, 0, 39, 51
2, 304342, Note_off_c, 0, 80, 64
2, 304350, Note_off_c, 0, 44, 64
2, 304361, Control_c, 0, 64, 0
2, 304386, Note_on_c, 0, 84, 63
2, 304388, Note_on_c, 0, 32, 51
2, 304389, Note_off_c, 0, 85, 64
2, 304389, Control_c, 0, 64, 127
2, 304399, Note_off_c, 0, 39, 64
2, 304424, Note_on_c, 0, 80, 63
2, 304431, Note_off_c, 0, 32, 64
2, 304434, Note_on_c, 0, 39, 51
2, 304445, Note_off_c, 0, 84, 64
2, 304468, Note_on_c, 0, 75, 63
2, 304468, Note_on_c, 0, 44, 51
2, 304489, Note_off_c, 0, 80, 64
2, 304494, Note_off_c, 0, 39, 64
2, 304507, Note_off_c, 0, 44, 64
2, 304508, Note_on_c, 0, 51, 52
2, 304516, Note_on_c, 0, 80, 64
2, 304537, Note_off_c, 0, 75, 64
2, 304546, Note_off_c, 0, 51, 64
2, 304555, Note_off_c, 0, 80, 64
2, 304564, Note_on_c, 0, 84, 65
2, 304565, Note_on_c, 0, 44, 52
2, 304593, Note_off_c, 0, 44, 64
2, 304594, Note_on_c, 0, 89, 65
2, 304595, Note_on_c, 0, 39, 52
2, 304601, Note_off_c, 0, 84, 64
2, 304628, Note_on_c, 0, 32, 52
2, 304630, Note_on_c, 0, 87, 65
2, 304635, Note_off_c, 0, 39, 64
2, 304641, Note_off_c, 0, 89, 64
2, 304668, Note_on_c, 0, 39, 52
2, 304671, Note_off_c, 0, 32, 64
2, 304672, Note_on_c, 0, 84, 66
2, 304684, Note_off_c, 0, 87, 64
2, 304716, Note_on_c, 0, 44, 52
2, 304720, Note_on_c, 0, 80, 67
2, 304722, Note_off_c, 0, 84, 64
2, 304723, Note_off_c, 0, 39, 64
2, 304758, Note_off_c, 0, 44, 64
2, 304760, Note_on_c, 0, 84, 67
2, 304764, Note_on_c, 0, 51, 52
2, 304777, Note_off_c, 0, 80, 64
2, 304796, Note_on_c, 0, 87, 67
2, 304796, Note_on_c, 0, 44, 53
2, 304797, Note_off_c, 0, 51, 64
2, 304799, Note_off_c, 0, 84, 64
2, 304824, Note_on_c, 0, 94, 67
2, 304826, Note_off_c, 0, 44, 64
2, 304832, Note_off_c, 0, 87, 64
2, 304832, Note_on_c, 0, 39, 53
2, 304868, Note_on_c, 0, 92, 90
2, 304868, Note_on_c, 0, 32, 53
2, 304879, Note_off_c, 0, 94, 64
2, 304880, Note_off_c, 0, 39, 64
2, 304896, Note_on_c, 0, 87, 68
2, 304900, Note_on_c, 0, 39, 53
2, 304908, Note_off_c, 0, 32, 64
2, 304917, Note_off_c, 0, 92, 64
2, 304932, Note_on_c, 0, 84, 67
2, 304932, Note_on_c, 0, 44, 53
2, 304941, Note_off_c, 0, 87, 64
2, 304959, Note_off_c, 0, 39, 64
2, 304978, Note_off_c, 0, 44, 64
2, 304980, Note_on_c, 0, 51, 54
2, 304984, Note_on_c, 0, 87, 67
2, 305000, Note_off_c, 0, 84, 64
2, 305028, Note_on_c, 0, 92, 67
2, 305028, Note_on_c, 0, 44, 54
2, 305029, Note_off_c, 0, 51, 64
2, 305036, Note_off_c, 0, 87, 64
2, 305058, Note_on_c, 0, 97, 67
2, 305059, Note_off_c, 0, 44, 64
2, 305060, Note_on_c, 0, 39, 54
2, 305063, Note_off_c, 0, 92, 64
2, 305092, Note_on_c, 0, 96, 67
2, 305092, Note_on_c, 0, 32, 54
2, 305106, Note_off_c, 0, 39, 64
2, 305113, Note_off_c, 0, 97, 64
2, 305136, Note_on_c, 0, 92, 66
2, 305136, Note_on_c, 0, 39, 54
2, 305139, Note_off_c, 0, 32, 64
2, 305148, Note_off_c, 0, 96, 64
2, 305179, Note_off_c, 0, 92, 64
2, 305184, Note_on_c, 0, 87, 65
2, 305184, Note_on_c, 0, 44, 53
2, 305196, Note_off_c, 0, 39, 64
2, 305223, Note_off_c, 0, 44, 64
2, 305244, Note_on_c, 0, 92, 65
2, 305244, Note_on_c, 0, 51, 53
2, 305248, Note_off_c, 0, 87, 64
2, 305291, Note_off_c, 0, 51, 64
2, 305292, Note_off_c, 0, 92, 64
2, 305292, Note_on_c, 0, 44, 52
2, 305296, Note_on_c, 0, 96, 65
2, 305322, Note_off_c, 0, 44, 64
2, 305349, Note_off_c, 0, 96, 64
2, 305350, Note_on_c, 0, 101, 64
2, 305350, Note_on_c, 0, 39, 52
2, 305393, Note_off_c, 0, 39, 64
2, 305394, Note_on_c, 0, 99, 64
2, 305395, Note_on_c, 0, 32, 52
2, 305413, Note_off_c, 0, 101, 64
2, 305436, Note_on_c, 0, 96, 63
2, 305440, Note_on_c, 0, 39, 52
2, 305443, Note_off_c, 0, 32, 64
2, 305463, Note_off_c, 0, 99, 64
2, 305488, Note_on_c, 0, 92, 63
2, 305494, Note_on_c, 0, 44, 51
2, 305501, Note_off_c, 0, 96, 64
2, 305503, Note_off_c, 0, 39, 64
2, 305538, Note_on_c, 0, 96, 62
2, 305540, Note_off_c, 0, 44, 64
2, 305540, Note_on_c, 0, 51, 51
2, 305547, Note_off_c, 0, 92, 64
2, 305581, Note_off_c, 0, 96, 64
2, 305586, Note_on_c, 0, 99, 62
2, 305587, Note_off_c, 0, 51, 64
2, 305593, Note_on_c, 0, 44, 51
2, 305621, Note_on_c, 0, 39, 51
2, 305622, Note_on_c, 0, 101, 62
2, 305624, Note_off_c, 0, 44, 64
2, 305628, Note_off_c, 0, 99, 64
2, 305664, Note_on_c, 0, 99, 62
2, 305668, Note_on_c, 0, 32, 51
2, 305674, Note_off_c, 0, 39, 64
2, 305685, Note_off_c, 0, 101, 64
2, 305726, Note_off_c, 0, 32, 64
2, 305726, Note_off_c, 0, 99, 64
2, 305730, Note_on_c, 0, 96, 62
2, 305730, Note_on_c, 0, 39, 50
2, 305778, Note_off_c, 0, 96, 64
2, 305786, Note_on_c, 0, 92, 61
2, 305787, Note_on_c, 0, 44, 49
2, 305796, Note_off_c, 0, 39, 64
2, 305830, Note_off_c, 0, 44, 64
2, 305836, Note_on_c, 0, 96, 61
2, 305837, Note_on_c, 0, 51, 49
2, 305863, Note_off_c, 0, 92, 64
2, 305892, Note_on_c, 0, 99, 61
2, 305893, Note_off_c, 0, 51, 64
2, 305895, Note_on_c, 0, 44, 48
2, 305897, Note_off_c, 0, 96, 64
2, 305919, Note_off_c, 0, 44, 64
2, 305936, Note_on_c, 0, 101, 60
2, 305940, Note_on_c, 0, 39, 48
2, 305953, Note_off_c, 0, 99, 64
2, 305983, Note_off_c, 0, 39, 64
2, 305984, Note_on_c, 0, 99, 59
2, 305984, Note_on_c, 0, 32, 47
2, 306016, Note_off_c, 0, 101, 64
2, 306033, Note_on_c, 0, 39, 47
2, 306034, Note_on_c, 0, 96, 58
2, 306037, Note_off_c, 0, 32, 64
2, 306066, Note_off_c, 0, 99, 64
2, 306090, Note_on_c, 0, 92, 58
2, 306092, Note_on_c, 0, 44, 47
2, 306093, Note_off_c, 0, 39, 64
2, 306121, Note_off_c, 0, 96, 64
2, 306129, Note_off_c, 0, 44, 64
2, 306136, Note_on_c, 0, 96, 57
2, 306136, Note_on_c, 0, 51, 47
2, 306175, Note_off_c, 0, 92, 64
2, 306180, Note_on_c, 0, 99, 57
2, 306184, Note_on_c, 0, 44, 46
2, 306190, Note_off_c, 0, 51, 64
2, 306224, Note_on_c, 0, 101, 57
2, 306227, Note_off_c, 0, 44, 64
2, 306227, Note_on_c, 0, 39, 45
2, 306240, Note_off_c, 0, 96, 64
2, 306248, Note_off_c, 0, 99, 64
2, 306280, Note_off_c, 0, 39, 64
2, 306280, Note_on_c, 0, 32, 45
2, 306284, Note_on_c, 0, 99, 56
2, 306305, Note_off_c, 0, 101, 64
2, 306332, Note_on_c, 0, 96, 56
2, 306335, Note_on_c, 0, 39, 45
2, 306340, Note_off_c, 0, 32, 64
2, 306361, Note_off_c, 0, 99, 64
2, 306393, Note_on_c, 0, 44, 45
2, 306396, Note_on_c, 0, 92, 56
2, 306403, Note_off_c, 0, 39, 64
2, 306416, Note_off_c, 0, 96, 64
2, 306455, Note_off_c, 0, 44, 64
2, 306460, Note_on_c, 0, 51, 44
2, 306464, Note_on_c, 0, 96, 55
2, 306480, Note_off_c, 0, 92, 64
2, 306528, Note_off_c, 0, 96, 64
2, 306529, Note_on_c, 0, 44, 44
2, 306531, Note_off_c, 0, 51, 64
2, 306532, Note_on_c, 0, 99, 54
2, 306567, Note_off_c, 0, 44, 64
2, 306580, Note_on_c, 0, 101, 54
2, 306582, Note_on_c, 0, 39, 43
2, 306621, Note_off_c, 0, 99, 64
2, 306652, Note_on_c, 0, 99, 53
2, 306652, Note_on_c, 0, 32, 43
2, 306657, Note_off_c, 0, 39, 64
2, 306675, Note_off_c, 0, 101, 64
2, 306734, Note_on_c, 0, 39, 42
2, 306735, Note_off_c, 0, 32, 64
2, 306736, Note_on_c, 0, 96, 52
2, 306738, Note_off_c, 0, 99, 64
2, 306817, Note_off_c, 0, 96, 64
2, 306827, Note_off_c, 0, 39, 64
2, 306832, Note_on_c, 0, 92, 52
2, 306834, Note_on_c, 0, 44, 41
2, 306885, Note_off_c, 0, 44, 64
2, 306900, Note_on_c, 0, 96, 51
2, 306906, Note_on_c, 0, 51, 40
2, 306952, Note_off_c, 0, 92, 64
2, 306996, Note_on_c, 0, 99, 51
2, 306998, Note_off_c, 0, 51, 64
2, 306999, Note_on_c, 0, 44, 40
2, 307048, Note_off_c, 0, 96, 64
2, 307093, Note_off_c, 0, 44, 64
2, 307112, Note_on_c, 0, 39, 39
2, 307114, Note_on_c, 0, 101, 51
2, 307142, Note_off_c, 0, 99, 64
2, 307238, Note_off_c, 0, 101, 64
2, 307238, Note_on_c, 0, 99, 50
2, 307240, Note_on_c, 0, 32, 41
2, 307244, Note_off_c, 0, 39, 64
2, 307390, Note_off_c, 0, 99, 64
2, 307429, Note_off_c, 0, 32, 64
2, 308135, Control_c, 0, 64, 0
2, 308432, Note_on_c, 0, 68, 85
2, 308437, Note_on_c, 0, 64, 81
2, 308437, Note_on_c, 0, 61, 83
2, 308438, Note_on_c, 0, 56, 85
2, 308444, Note_on_c, 0, 49, 85
2, 308444, Note_on_c, 0, 37, 85
2, 308763, Control_c, 0, 64, 127
2, 309348, Note_off_c, 0, 68, 64
2, 309353, Note_off_c, 0, 61, 64
2, 309353, Note_off_c, 0, 64, 64
2, 309354, Note_off_c, 0, 56, 64
2, 309360, Note_off_c, 0, 37, 64
2, 309360, Note_off_c, 0, 49, 64
2, 309831, Note_on_c, 0, 80, 95
2, 309833, Note_on_c, 0, 68, 95
2, 309834, Note_on_c, 0, 72, 95
2, 309841, Note_on_c, 0, 75, 95
2, 309841, Note_on_c, 0, 44, 95
2, 309841, Note_on_c, 0, 32, 95
2, 309904, Control_c, 0, 64, 0
2, 310222, Control_c, 0, 64, 127
2, 312960, Note_off_c, 0, 32, 64
2, 313670, Note_off_c, 0, 80, 64
2, 313672, Note_off_c, 0, 68, 64
2, 313673, Note_off_c, 0, 72, 64
2, 313680, Note_off_c, 0, 44, 64
2, 313680, Note_off_c, 0, 75, 64
2, 313680, End_track
3, 0, Start_track
3, 0, Title_t, "Fantasy in f minor, Op. 49"
3, 0, End_track
4, 0, Start_track
4, 0, Title_t, "Realtime performance 8/24/97 "
4, 0, End_track
5, 0, Start_track
5, 0, Title_t, "by Ron Lubetsky, M.D."
5, 0, End_track
6, 0, Start_track
6, 0, Title_t, "Copyright  1997 by"
6, 0, End_track
7, 0, Start_track
7, 0, Title_t, "Ron Lubetsky, M.D."
7, 0, End_track
8, 0, Start_track
8, 0, Title_t, "All rights reserved."
8, 0, End_track
9, 0, Start_track
9, 0, Title_t, "No portion of this MIDI "
9, 0, End_track
10, 0, Start_track
10, 0, Title_t, "sequence may be altered or"
10, 0, End_track
11, 0, Start_track
11, 0, Title_t, "redistributed without  "
11, 0, End_track
12, 0, Start_track
12, 0, Title_t, "permission of the author."
12, 0, End_track
13, 0, Start_track
13, 0, Title_t, "Email: acuity2020@aol.com"
13, 0, End_track
14, 0, Start_track
14, 0, Title_t, "Website: "
14, 0, End_track
15, 0, Start_track
15, 0, Title_t, "'The Classical MIDI Resource'"
15, 0, End_track
16, 0, Start_track
16, 0, Title_t, "http://acuity2020.simplenet."
16, 0, End_track
17, 0, Start_track
17, 0, Title_t, "com/midi/resource.htm"
17, 0, End_track
0, 0, End_of_file
