0, 0, Header, 1, 3, 120
1, 0, Start_track
1, 0, Sequencer_specific, 3, 0, 0, 65
1, 0, Time_signature, 3, 2, 24, 8
1, 0, Key_signature, 0, "major"
1, 0, Tempo, 377358
1, 0, Marker_t, "Beethoven  -  Fur Elise"
1, 11226, Tempo, 372671
1, 11230, Tempo, 375000
1, 11232, Tempo, 377358
1, 11236, Tempo, 382166
1, 11240, Tempo, 384615
1, 11244, Tempo, 387097
1, 11248, Tempo, 392157
1, 11280, Tempo, 397351
1, 11292, Tempo, 402685
1, 11304, Tempo, 405405
1, 11316, Tempo, 408163
1, 11328, Tempo, 413793
1, 11360, Tempo, 419580
1, 11372, Tempo, 425532
1, 11396, Tempo, 431655
1, 11412, Tempo, 434783
1, 11424, Tempo, 437956
1, 11440, Tempo, 444444
1, 11464, Tempo, 451128
1, 11476, Tempo, 454545
1, 11488, Tempo, 458015
1, 11500, Tempo, 465116
1, 11512, Tempo, 468750
1, 11516, Tempo, 472441
1, 11528, Tempo, 480000
1, 11536, Tempo, 483871
1, 11540, Tempo, 487805
1, 11548, Tempo, 495868
1, 11564, Tempo, 504202
1, 11572, Tempo, 512821
1, 11580, Tempo, 517241
1, 11592, Tempo, 521739
1, 11596, Tempo, 526316
1, 11608, Tempo, 530973
1, 11620, Tempo, 540541
1, 11628, Tempo, 550459
1, 11644, Tempo, 555556
1, 11648, Tempo, 560748
1, 11654, Tempo, 566038
1, 11658, Tempo, 571429
1, 11664, Tempo, 576923
1, 11670, Tempo, 582524
1, 11688, Tempo, 428571
1, 17520, Tempo, 425532
1, 17548, Tempo, 422535
1, 17552, Tempo, 419580
1, 17612, Tempo, 416667
1, 17616, Tempo, 413793
1, 17636, Tempo, 410959
1, 17640, Tempo, 408163
1, 17654, Tempo, 405405
1, 17658, Tempo, 402685
1, 17664, Tempo, 400000
1, 17670, Tempo, 397351
1, 17678, Tempo, 394737
1, 17680, Tempo, 392157
1, 17692, Tempo, 389610
1, 17698, Tempo, 387097
1, 17712, Tempo, 384615
1, 17714, Tempo, 382166
1, 17728, Tempo, 379747
1, 17736, Tempo, 377358
1, 17736, End_track
2, 0, Start_track
2, 0, MIDI_port, 0
2, 0, Title_t, "Piano R"
2, 0, Control_c, 0, 0, 0
2, 0, Control_c, 0, 32, 0
2, 0, Program_c, 0, 0
2, 0, Control_c, 0, 7, 127
2, 0, Control_c, 0, 10, 50
2, 0, Control_c, 0, 91, 110
2, 53, Control_c, 0, 121, 0
2, 53, Control_c, 0, 7, 127
2, 235, Note_on_c, 0, 76, 84
2, 297, Note_on_c, 0, 75, 71
2, 305, Note_on_c, 0, 76, 0
2, 362, Note_on_c, 0, 76, 80
2, 363, Note_on_c, 0, 75, 0
2, 417, Note_on_c, 0, 75, 65
2, 432, Note_on_c, 0, 76, 0
2, 476, Note_on_c, 0, 76, 84
2, 478, Note_on_c, 0, 75, 0
2, 535, Note_on_c, 0, 71, 69
2, 551, Note_on_c, 0, 76, 0
2, 593, Note_on_c, 0, 74, 78
2, 600, Note_on_c, 0, 71, 0
2, 653, Note_on_c, 0, 74, 0
2, 654, Note_on_c, 0, 72, 73
2, 717, Note_on_c, 0, 69, 74
2, 729, Note_on_c, 0, 72, 0
2, 760, Control_c, 0, 64, 127
2, 866, Note_on_c, 0, 69, 0
2, 894, Note_on_c, 0, 60, 71
2, 944, Note_on_c, 0, 60, 0
2, 951, Note_on_c, 0, 64, 67
2, 956, Control_c, 0, 64, 0
2, 1008, Note_on_c, 0, 64, 0
2, 1008, Note_on_c, 0, 69, 77
2, 1062, Note_on_c, 0, 71, 74
2, 1068, Note_on_c, 0, 69, 0
2, 1095, Control_c, 0, 64, 127
2, 1123, Note_on_c, 0, 71, 0
2, 1231, Note_on_c, 0, 64, 66
2, 1285, Control_c, 0, 64, 0
2, 1290, Note_on_c, 0, 68, 75
2, 1309, Note_on_c, 0, 64, 0
2, 1355, Note_on_c, 0, 71, 80
2, 1356, Note_on_c, 0, 68, 0
2, 1420, Note_on_c, 0, 71, 0
2, 1421, Note_on_c, 0, 72, 73
2, 1471, Control_c, 0, 64, 127
2, 1506, Note_on_c, 0, 72, 0
2, 1611, Note_on_c, 0, 64, 68
2, 1677, Note_on_c, 0, 76, 72
2, 1679, Note_on_c, 0, 64, 0
2, 1680, Control_c, 0, 64, 0
2, 1737, Note_on_c, 0, 75, 61
2, 1743, Note_on_c, 0, 76, 0
2, 1797, Note_on_c, 0, 75, 0
2, 1800, Note_on_c, 0, 76, 73
2, 1856, Note_on_c, 0, 75, 64
2, 1870, Note_on_c, 0, 76, 0
2, 1912, Note_on_c, 0, 76, 77
2, 1914, Note_on_c, 0, 75, 0
2, 1967, Note_on_c, 0, 71, 76
2, 1987, Note_on_c, 0, 76, 0
2, 2025, Note_on_c, 0, 74, 83
2, 2043, Note_on_c, 0, 71, 0
2, 2083, Note_on_c, 0, 72, 81
2, 2085, Note_on_c, 0, 74, 0
2, 2146, Note_on_c, 0, 69, 73
2, 2153, Note_on_c, 0, 72, 0
2, 2180, Control_c, 0, 64, 127
2, 2295, Note_on_c, 0, 69, 0
2, 2325, Note_on_c, 0, 60, 66
2, 2385, Note_on_c, 0, 60, 0
2, 2385, Control_c, 0, 64, 0
2, 2385, Note_on_c, 0, 64, 65
2, 2440, Note_on_c, 0, 64, 0
2, 2445, Note_on_c, 0, 69, 69
2, 2491, Note_on_c, 0, 69, 0
2, 2500, Note_on_c, 0, 71, 76
2, 2531, Control_c, 0, 64, 127
2, 2570, Note_on_c, 0, 71, 0
2, 2675, Note_on_c, 0, 64, 77
2, 2705, Control_c, 0, 64, 0
2, 2736, Note_on_c, 0, 72, 83
2, 2753, Note_on_c, 0, 64, 0
2, 2797, Note_on_c, 0, 72, 0
2, 2799, Note_on_c, 0, 71, 80
2, 2855, Note_on_c, 0, 71, 0
2, 2865, Note_on_c, 0, 69, 72
2, 2917, Control_c, 0, 64, 127
2, 2937, Note_on_c, 0, 69, 0
2, 3127, Control_c, 0, 64, 0
2, 3141, Note_on_c, 0, 76, 59
2, 3200, Note_on_c, 0, 75, 45
2, 3204, Note_on_c, 0, 76, 0
2, 3260, Note_on_c, 0, 76, 59
2, 3263, Note_on_c, 0, 75, 0
2, 3320, Note_on_c, 0, 75, 45
2, 3328, Note_on_c, 0, 76, 0
2, 3375, Note_on_c, 0, 76, 63
2, 3383, Note_on_c, 0, 75, 0
2, 3436, Note_on_c, 0, 71, 45
2, 3440, Note_on_c, 0, 76, 0
2, 3500, Note_on_c, 0, 74, 47
2, 3511, Note_on_c, 0, 71, 0
2, 3551, Note_on_c, 0, 74, 0
2, 3557, Note_on_c, 0, 72, 45
2, 3617, Note_on_c, 0, 69, 41
2, 3627, Note_on_c, 0, 72, 0
2, 3651, Control_c, 0, 64, 127
2, 3736, Note_on_c, 0, 69, 0
2, 3785, Note_on_c, 0, 60, 52
2, 3832, Control_c, 0, 64, 0
2, 3850, Note_on_c, 0, 64, 55
2, 3851, Note_on_c, 0, 60, 0
2, 3905, Note_on_c, 0, 69, 48
2, 3910, Note_on_c, 0, 64, 0
2, 3960, Note_on_c, 0, 69, 0
2, 3960, Note_on_c, 0, 71, 59
2, 4002, Control_c, 0, 64, 127
2, 4079, Note_on_c, 0, 71, 0
2, 4137, Note_on_c, 0, 64, 54
2, 4165, Control_c, 0, 64, 0
2, 4190, Note_on_c, 0, 68, 57
2, 4210, Note_on_c, 0, 64, 0
2, 4250, Note_on_c, 0, 71, 57
2, 4253, Note_on_c, 0, 68, 0
2, 4305, Note_on_c, 0, 71, 0
2, 4309, Note_on_c, 0, 72, 77
2, 4361, Control_c, 0, 64, 127
2, 4428, Note_on_c, 0, 72, 0
2, 4496, Note_on_c, 0, 64, 53
2, 4521, Control_c, 0, 64, 0
2, 4557, Note_on_c, 0, 76, 67
2, 4561, Note_on_c, 0, 64, 0
2, 4615, Note_on_c, 0, 75, 53
2, 4625, Note_on_c, 0, 76, 0
2, 4670, Note_on_c, 0, 76, 67
2, 4675, Note_on_c, 0, 75, 0
2, 4731, Note_on_c, 0, 75, 59
2, 4742, Note_on_c, 0, 76, 0
2, 4785, Note_on_c, 0, 76, 69
2, 4786, Note_on_c, 0, 75, 0
2, 4842, Note_on_c, 0, 71, 55
2, 4857, Note_on_c, 0, 76, 0
2, 4906, Note_on_c, 0, 74, 65
2, 4930, Note_on_c, 0, 71, 0
2, 4970, Note_on_c, 0, 72, 59
2, 4971, Note_on_c, 0, 74, 0
2, 5035, Note_on_c, 0, 69, 71
2, 5040, Note_on_c, 0, 72, 0
2, 5066, Control_c, 0, 64, 127
2, 5154, Note_on_c, 0, 69, 0
2, 5216, Note_on_c, 0, 60, 76
2, 5225, Control_c, 0, 64, 0
2, 5270, Note_on_c, 0, 64, 78
2, 5276, Note_on_c, 0, 60, 0
2, 5330, Note_on_c, 0, 69, 77
2, 5335, Note_on_c, 0, 64, 0
2, 5380, Note_on_c, 0, 69, 0
2, 5385, Note_on_c, 0, 71, 79
2, 5425, Control_c, 0, 64, 127
2, 5504, Note_on_c, 0, 71, 0
2, 5566, Note_on_c, 0, 64, 83
2, 5585, Control_c, 0, 64, 0
2, 5630, Note_on_c, 0, 72, 86
2, 5637, Note_on_c, 0, 64, 0
2, 5688, Note_on_c, 0, 72, 0
2, 5694, Note_on_c, 0, 71, 75
2, 5752, Note_on_c, 0, 71, 0
2, 5762, Note_on_c, 0, 69, 71
2, 5810, Control_c, 0, 64, 127
2, 5830, Note_on_c, 0, 69, 0
2, 5946, Note_on_c, 0, 71, 82
2, 6005, Note_on_c, 0, 72, 88
2, 6010, Control_c, 0, 64, 0
2, 6029, Note_on_c, 0, 71, 0
2, 6066, Note_on_c, 0, 74, 90
2, 6086, Note_on_c, 0, 72, 0
2, 6133, Note_on_c, 0, 76, 94
2, 6136, Note_on_c, 0, 74, 0
2, 6201, Control_c, 0, 64, 127
2, 6246, Note_on_c, 0, 76, 0
2, 6256, Note_on_c, 0, 60, 93
2, 6310, Note_on_c, 0, 67, 97
2, 6338, Note_on_c, 0, 60, 0
2, 6360, Control_c, 0, 64, 0
2, 6365, Note_on_c, 0, 77, 101
2, 6395, Note_on_c, 0, 67, 0
2, 6425, Note_on_c, 0, 76, 96
2, 6445, Note_on_c, 0, 77, 0
2, 6485, Note_on_c, 0, 74, 96
2, 6497, Note_on_c, 0, 76, 0
2, 6530, Control_c, 0, 64, 127
2, 6604, Note_on_c, 0, 74, 0
2, 6660, Note_on_c, 0, 65, 93
2, 6706, Control_c, 0, 64, 0
2, 6725, Note_on_c, 0, 76, 96
2, 6752, Note_on_c, 0, 65, 0
2, 6786, Note_on_c, 0, 74, 83
2, 6800, Note_on_c, 0, 76, 0
2, 6847, Note_on_c, 0, 72, 87
2, 6856, Note_on_c, 0, 74, 0
2, 6887, Control_c, 0, 64, 127
2, 6966, Note_on_c, 0, 72, 0
2, 7031, Note_on_c, 0, 64, 78
2, 7056, Control_c, 0, 64, 0
2, 7093, Note_on_c, 0, 74, 84
2, 7111, Note_on_c, 0, 64, 0
2, 7148, Note_on_c, 0, 74, 0
2, 7150, Note_on_c, 0, 72, 81
2, 7220, Note_on_c, 0, 71, 78
2, 7222, Note_on_c, 0, 72, 0
2, 7260, Control_c, 0, 64, 127
2, 7362, Note_on_c, 0, 71, 0
2, 7369, Note_on_c, 0, 64, 75
2, 7455, Note_on_c, 0, 64, 0
2, 7458, Note_on_c, 0, 76, 77
2, 7496, Note_on_c, 0, 76, 0
2, 7536, Note_on_c, 0, 64, 67
2, 7576, Note_on_c, 0, 64, 0
2, 7606, Note_on_c, 0, 76, 63
2, 7631, Note_on_c, 0, 76, 0
2, 7671, Note_on_c, 0, 76, 58
2, 7730, Note_on_c, 0, 76, 0
2, 7740, Note_on_c, 0, 88, 57
2, 7777, Note_on_c, 0, 88, 0
2, 7814, Note_on_c, 0, 75, 71
2, 7889, Note_on_c, 0, 75, 0
2, 7901, Note_on_c, 0, 76, 64
2, 7971, Note_on_c, 0, 76, 0
2, 7982, Note_on_c, 0, 75, 66
2, 7986, Control_c, 0, 64, 0
2, 8060, Note_on_c, 0, 76, 60
2, 8064, Note_on_c, 0, 75, 0
2, 8141, Note_on_c, 0, 75, 57
2, 8165, Note_on_c, 0, 76, 0
2, 8236, Note_on_c, 0, 76, 65
2, 8241, Note_on_c, 0, 75, 0
2, 8351, Note_on_c, 0, 75, 58
2, 8357, Note_on_c, 0, 76, 0
2, 8444, Note_on_c, 0, 75, 0
2, 8455, Note_on_c, 0, 76, 66
2, 8540, Note_on_c, 0, 76, 0
2, 8540, Note_on_c, 0, 75, 59
2, 8610, Note_on_c, 0, 76, 71
2, 8615, Note_on_c, 0, 75, 0
2, 8680, Note_on_c, 0, 75, 62
2, 8690, Note_on_c, 0, 76, 0
2, 8740, Note_on_c, 0, 76, 77
2, 8743, Note_on_c, 0, 75, 0
2, 8805, Note_on_c, 0, 71, 69
2, 8827, Note_on_c, 0, 76, 0
2, 8871, Note_on_c, 0, 74, 79
2, 8902, Note_on_c, 0, 71, 0
2, 8941, Note_on_c, 0, 72, 73
2, 8946, Note_on_c, 0, 74, 0
2, 9015, Note_on_c, 0, 69, 77
2, 9019, Note_on_c, 0, 72, 0
2, 9056, Control_c, 0, 64, 127
2, 9134, Note_on_c, 0, 69, 0
2, 9190, Note_on_c, 0, 60, 81
2, 9248, Note_on_c, 0, 60, 0
2, 9251, Note_on_c, 0, 64, 78
2, 9257, Control_c, 0, 64, 0
2, 9301, Note_on_c, 0, 64, 0
2, 9305, Note_on_c, 0, 69, 83
2, 9355, Note_on_c, 0, 69, 0
2, 9357, Note_on_c, 0, 71, 83
2, 9390, Control_c, 0, 64, 127
2, 9476, Note_on_c, 0, 71, 0
2, 9530, Note_on_c, 0, 64, 77
2, 9572, Control_c, 0, 64, 0
2, 9587, Note_on_c, 0, 68, 82
2, 9600, Note_on_c, 0, 64, 0
2, 9645, Note_on_c, 0, 68, 0
2, 9647, Note_on_c, 0, 71, 85
2, 9697, Note_on_c, 0, 71, 0
2, 9705, Note_on_c, 0, 72, 88
2, 9732, Control_c, 0, 64, 127
2, 9824, Note_on_c, 0, 72, 0
2, 9895, Note_on_c, 0, 64, 78
2, 9955, Note_on_c, 0, 64, 0
2, 9955, Control_c, 0, 64, 0
2, 9960, Note_on_c, 0, 76, 81
2, 10018, Note_on_c, 0, 75, 83
2, 10021, Note_on_c, 0, 76, 0
2, 10075, Note_on_c, 0, 76, 83
2, 10083, Note_on_c, 0, 75, 0
2, 10136, Note_on_c, 0, 75, 77
2, 10151, Note_on_c, 0, 76, 0
2, 10191, Note_on_c, 0, 75, 0
2, 10193, Note_on_c, 0, 76, 78
2, 10249, Note_on_c, 0, 71, 77
2, 10258, Note_on_c, 0, 76, 0
2, 10306, Note_on_c, 0, 74, 80
2, 10324, Note_on_c, 0, 71, 0
2, 10366, Note_on_c, 0, 74, 0
2, 10366, Note_on_c, 0, 72, 75
2, 10430, Note_on_c, 0, 69, 76
2, 10434, Note_on_c, 0, 72, 0
2, 10471, Control_c, 0, 64, 127
2, 10579, Note_on_c, 0, 69, 0
2, 10610, Note_on_c, 0, 60, 71
2, 10620, Control_c, 0, 64, 0
2, 10675, Note_on_c, 0, 64, 75
2, 10690, Note_on_c, 0, 60, 0
2, 10736, Note_on_c, 0, 69, 78
2, 10740, Note_on_c, 0, 64, 0
2, 10789, Note_on_c, 0, 69, 0
2, 10793, Note_on_c, 0, 71, 78
2, 10825, Control_c, 0, 64, 127
2, 10912, Note_on_c, 0, 71, 0
2, 10972, Note_on_c, 0, 64, 78
2, 10996, Control_c, 0, 64, 0
2, 11035, Note_on_c, 0, 72, 83
2, 11049, Note_on_c, 0, 64, 0
2, 11102, Note_on_c, 0, 72, 0
2, 11106, Note_on_c, 0, 71, 72
2, 11163, Note_on_c, 0, 71, 0
2, 11176, Note_on_c, 0, 69, 80
2, 11200, Control_c, 0, 64, 127
2, 11355, Note_on_c, 0, 69, 0
2, 11425, Note_on_c, 0, 72, 77
2, 11425, Note_on_c, 0, 64, 63
2, 11425, Note_on_c, 0, 60, 87
2, 11430, Control_c, 0, 64, 0
2, 11461, Note_on_c, 0, 64, 0
2, 11463, Note_on_c, 0, 60, 0
2, 11466, Control_c, 0, 64, 127
2, 11484, Note_on_c, 0, 72, 0
2, 11509, Note_on_c, 0, 65, 75
2, 11509, Note_on_c, 0, 72, 84
2, 11510, Note_on_c, 0, 60, 82
2, 11539, Note_on_c, 0, 65, 0
2, 11547, Note_on_c, 0, 60, 0
2, 11568, Note_on_c, 0, 72, 0
2, 11580, Note_on_c, 0, 67, 82
2, 11580, Note_on_c, 0, 60, 73
2, 11580, Note_on_c, 0, 64, 71
2, 11580, Note_on_c, 0, 72, 93
2, 11639, Note_on_c, 0, 72, 0
2, 11639, Note_on_c, 0, 67, 0
2, 11639, Note_on_c, 0, 60, 0
2, 11639, Note_on_c, 0, 64, 0
2, 11646, Note_on_c, 0, 65, 76
2, 11669, Note_on_c, 0, 69, 81
2, 11674, Note_on_c, 0, 65, 0
2, 11682, Control_c, 0, 64, 0
2, 11695, Note_on_c, 0, 72, 103
2, 11699, Note_on_c, 0, 69, 0
2, 11740, Control_c, 0, 64, 127
2, 11780, Note_on_c, 0, 72, 0
2, 11800, Note_on_c, 0, 60, 80
2, 11850, Note_on_c, 0, 60, 0
2, 11894, Note_on_c, 0, 60, 89
2, 11895, Note_on_c, 0, 77, 112
2, 11940, Note_on_c, 0, 77, 0
2, 11945, Note_on_c, 0, 60, 0
2, 11972, Note_on_c, 0, 76, 97
2, 11987, Note_on_c, 0, 76, 0
2, 11995, Note_on_c, 0, 76, 106
2, 12000, Control_c, 0, 64, 0
2, 12045, Control_c, 0, 64, 127
2, 12092, Note_on_c, 0, 76, 0
2, 12092, Note_on_c, 0, 74, 110
2, 12095, Note_on_c, 0, 62, 75
2, 12138, Note_on_c, 0, 62, 0
2, 12155, Note_on_c, 0, 74, 0
2, 12182, Note_on_c, 0, 82, 110
2, 12185, Note_on_c, 0, 62, 75
2, 12205, Note_on_c, 0, 82, 0
2, 12230, Note_on_c, 0, 62, 0
2, 12256, Note_on_c, 0, 81, 103
2, 12272, Note_on_c, 0, 81, 0
2, 12285, Control_c, 0, 64, 0
2, 12285, Note_on_c, 0, 81, 112
2, 12330, Control_c, 0, 64, 127
2, 12333, Note_on_c, 0, 64, 76
2, 12336, Note_on_c, 0, 79, 109
2, 12355, Note_on_c, 0, 81, 0
2, 12380, Note_on_c, 0, 77, 110
2, 12381, Note_on_c, 0, 64, 0
2, 12386, Note_on_c, 0, 79, 0
2, 12391, Control_c, 0, 64, 0
2, 12425, Control_c, 0, 64, 127
2, 12431, Note_on_c, 0, 76, 117
2, 12431, Note_on_c, 0, 64, 83
2, 12443, Note_on_c, 0, 77, 0
2, 12471, Note_on_c, 0, 64, 0
2, 12471, Control_c, 0, 64, 0
2, 12480, Note_on_c, 0, 74, 107
2, 12495, Control_c, 0, 64, 127
2, 12497, Note_on_c, 0, 76, 0
2, 12522, Note_on_c, 0, 74, 0
2, 12532, Note_on_c, 0, 72, 109
2, 12532, Note_on_c, 0, 64, 76
2, 12555, Note_on_c, 0, 64, 0
2, 12572, Control_c, 0, 64, 0
2, 12580, Note_on_c, 0, 70, 115
2, 12602, Note_on_c, 0, 72, 0
2, 12635, Control_c, 0, 64, 127
2, 12682, Note_on_c, 0, 70, 0
2, 12688, Note_on_c, 0, 69, 103
2, 12688, Note_on_c, 0, 60, 74
2, 12713, Note_on_c, 0, 69, 0
2, 12733, Note_on_c, 0, 60, 0
2, 12780, Note_on_c, 0, 70, 98
2, 12781, Note_on_c, 0, 60, 97
2, 12797, Note_on_c, 0, 69, 101
2, 12802, Note_on_c, 0, 70, 0
2, 12807, Control_c, 0, 64, 0
2, 12815, Note_on_c, 0, 69, 0
2, 12816, Note_on_c, 0, 67, 100
2, 12831, Note_on_c, 0, 60, 0
2, 12834, Note_on_c, 0, 67, 0
2, 12835, Note_on_c, 0, 69, 107
2, 12860, Note_on_c, 0, 70, 99
2, 12865, Note_on_c, 0, 69, 0
2, 12888, Note_on_c, 0, 72, 109
2, 12893, Note_on_c, 0, 70, 0
2, 12937, Control_c, 0, 64, 127
2, 12987, Note_on_c, 0, 60, 80
2, 13037, Note_on_c, 0, 72, 0
2, 13044, Note_on_c, 0, 60, 0
2, 13086, Note_on_c, 0, 74, 111
2, 13087, Note_on_c, 0, 60, 89
2, 13137, Note_on_c, 0, 60, 0
2, 13142, Note_on_c, 0, 75, 112
2, 13146, Note_on_c, 0, 74, 0
2, 13200, Note_on_c, 0, 76, 115
2, 13207, Note_on_c, 0, 75, 0
2, 13207, Control_c, 0, 64, 0
2, 13270, Control_c, 0, 64, 127
2, 13301, Note_on_c, 0, 60, 90
2, 13320, Note_on_c, 0, 76, 0
2, 13344, Note_on_c, 0, 60, 0
2, 13350, Note_on_c, 0, 76, 115
2, 13405, Note_on_c, 0, 76, 0
2, 13405, Control_c, 0, 64, 0
2, 13407, Note_on_c, 0, 62, 71
2, 13407, Note_on_c, 0, 77, 115
2, 13450, Control_c, 0, 64, 127
2, 13453, Note_on_c, 0, 62, 0
2, 13456, Note_on_c, 0, 69, 106
2, 13472, Note_on_c, 0, 77, 0
2, 13510, Note_on_c, 0, 72, 117
2, 13511, Control_c, 0, 64, 0
2, 13516, Note_on_c, 0, 69, 0
2, 13560, Note_on_c, 0, 64, 78
2, 13565, Control_c, 0, 64, 127
2, 13605, Note_on_c, 0, 64, 0
2, 13616, Note_on_c, 0, 72, 0
2, 13650, Note_on_c, 0, 74, 102
2, 13652, Note_on_c, 0, 64, 76
2, 13670, Note_on_c, 0, 72, 100
2, 13677, Note_on_c, 0, 64, 0
2, 13680, Note_on_c, 0, 74, 0
2, 13690, Note_on_c, 0, 72, 0
2, 13690, Note_on_c, 0, 71, 93
2, 13710, Note_on_c, 0, 71, 0
2, 13710, Note_on_c, 0, 72, 94
2, 13717, Control_c, 0, 64, 0
2, 13725, Note_on_c, 0, 74, 108
2, 13730, Note_on_c, 0, 72, 0
2, 13766, Control_c, 0, 64, 127
2, 13770, Note_on_c, 0, 65, 76
2, 13785, Note_on_c, 0, 65, 0
2, 13788, Note_on_c, 0, 74, 0
2, 13791, Note_on_c, 0, 71, 104
2, 13809, Note_on_c, 0, 71, 0
2, 13820, Control_c, 0, 64, 0
2, 13826, Note_on_c, 0, 72, 100
2, 13826, Note_on_c, 0, 60, 77
2, 13827, Note_on_c, 0, 64, 62
2, 13852, Note_on_c, 0, 72, 0
2, 13856, Note_on_c, 0, 79, 102
2, 13867, Control_c, 0, 64, 127
2, 13885, Note_on_c, 0, 67, 104
2, 13887, Note_on_c, 0, 79, 0
2, 13902, Note_on_c, 0, 64, 0
2, 13907, Note_on_c, 0, 60, 0
2, 13910, Note_on_c, 0, 67, 0
2, 13912, Note_on_c, 0, 79, 98
2, 13940, Note_on_c, 0, 69, 102
2, 13943, Note_on_c, 0, 79, 0
2, 13965, Note_on_c, 0, 69, 0
2, 13965, Note_on_c, 0, 79, 97
2, 13989, Note_on_c, 0, 67, 83
2, 13990, Note_on_c, 0, 65, 92
2, 13990, Note_on_c, 0, 71, 103
2, 14000, Note_on_c, 0, 79, 0
2, 14002, Control_c, 0, 64, 0
2, 14009, Note_on_c, 0, 67, 0
2, 14015, Note_on_c, 0, 65, 0
2, 14015, Note_on_c, 0, 71, 0
2, 14016, Note_on_c, 0, 79, 103
2, 14040, Note_on_c, 0, 72, 108
2, 14043, Note_on_c, 0, 67, 83
2, 14043, Note_on_c, 0, 64, 89
2, 14047, Note_on_c, 0, 79, 0
2, 14058, Note_on_c, 0, 67, 0
2, 14059, Note_on_c, 0, 64, 0
2, 14070, Note_on_c, 0, 72, 0
2, 14071, Note_on_c, 0, 79, 101
2, 14099, Note_on_c, 0, 74, 102
2, 14100, Note_on_c, 0, 62, 76
2, 14100, Note_on_c, 0, 67, 80
2, 14104, Note_on_c, 0, 79, 0
2, 14115, Note_on_c, 0, 67, 0
2, 14116, Note_on_c, 0, 62, 0
2, 14127, Note_on_c, 0, 74, 0
2, 14130, Note_on_c, 0, 79, 98
2, 14161, Note_on_c, 0, 79, 0
2, 14165, Note_on_c, 0, 64, 63
2, 14165, Note_on_c, 0, 67, 66
2, 14165, Note_on_c, 0, 60, 86
2, 14166, Note_on_c, 0, 76, 98
2, 14195, Control_c, 0, 64, 127
2, 14195, Note_on_c, 0, 79, 102
2, 14199, Note_on_c, 0, 76, 0
2, 14208, Note_on_c, 0, 67, 0
2, 14220, Note_on_c, 0, 60, 0
2, 14225, Note_on_c, 0, 64, 0
2, 14226, Note_on_c, 0, 84, 119
2, 14236, Note_on_c, 0, 79, 0
2, 14255, Note_on_c, 0, 83, 113
2, 14269, Note_on_c, 0, 84, 0
2, 14290, Note_on_c, 0, 81, 110
2, 14292, Control_c, 0, 64, 0
2, 14300, Note_on_c, 0, 83, 0
2, 14321, Note_on_c, 0, 79, 110
2, 14338, Note_on_c, 0, 81, 0
2, 14345, Note_on_c, 0, 77, 117
2, 14351, Note_on_c, 0, 79, 0
2, 14375, Note_on_c, 0, 76, 101
2, 14385, Note_on_c, 0, 77, 0
2, 14405, Note_on_c, 0, 74, 106
2, 14410, Note_on_c, 0, 76, 0
2, 14432, Note_on_c, 0, 79, 104
2, 14435, Note_on_c, 0, 74, 0
2, 14460, Note_on_c, 0, 77, 100
2, 14467, Note_on_c, 0, 79, 0
2, 14485, Note_on_c, 0, 74, 101
2, 14490, Note_on_c, 0, 77, 0
2, 14520, Note_on_c, 0, 74, 0
2, 14520, Note_on_c, 0, 72, 105
2, 14522, Note_on_c, 0, 60, 91
2, 14548, Note_on_c, 0, 72, 0
2, 14555, Note_on_c, 0, 79, 102
2, 14585, Note_on_c, 0, 67, 102
2, 14590, Note_on_c, 0, 79, 0
2, 14610, Note_on_c, 0, 60, 0
2, 14611, Note_on_c, 0, 67, 0
2, 14612, Note_on_c, 0, 79, 94
2, 14640, Note_on_c, 0, 69, 103
2, 14645, Note_on_c, 0, 79, 0
2, 14665, Note_on_c, 0, 69, 0
2, 14665, Note_on_c, 0, 79, 93
2, 14691, Note_on_c, 0, 67, 92
2, 14691, Note_on_c, 0, 65, 100
2, 14692, Note_on_c, 0, 71, 103
2, 14705, Note_on_c, 0, 79, 0
2, 14718, Note_on_c, 0, 71, 0
2, 14720, Note_on_c, 0, 67, 0
2, 14721, Note_on_c, 0, 65, 0
2, 14721, Note_on_c, 0, 79, 103
2, 14750, Note_on_c, 0, 67, 87
2, 14750, Note_on_c, 0, 72, 108
2, 14751, Note_on_c, 0, 64, 83
2, 14759, Note_on_c, 0, 79, 0
2, 14775, Note_on_c, 0, 72, 0
2, 14776, Note_on_c, 0, 79, 106
2, 14779, Note_on_c, 0, 67, 0
2, 14780, Note_on_c, 0, 64, 0
2, 14805, Note_on_c, 0, 62, 80
2, 14805, Note_on_c, 0, 74, 104
2, 14806, Note_on_c, 0, 67, 81
2, 14816, Note_on_c, 0, 79, 0
2, 14830, Note_on_c, 0, 74, 0
2, 14834, Note_on_c, 0, 62, 0
2, 14835, Note_on_c, 0, 67, 0
2, 14839, Note_on_c, 0, 79, 112
2, 14875, Note_on_c, 0, 67, 61
2, 14875, Note_on_c, 0, 76, 96
2, 14876, Note_on_c, 0, 64, 57
2, 14876, Note_on_c, 0, 60, 65
2, 14877, Note_on_c, 0, 79, 0
2, 14906, Note_on_c, 0, 79, 107
2, 14910, Note_on_c, 0, 67, 0
2, 14910, Note_on_c, 0, 76, 0
2, 14910, Control_c, 0, 64, 127
2, 14929, Note_on_c, 0, 60, 0
2, 14932, Note_on_c, 0, 64, 0
2, 14936, Note_on_c, 0, 84, 119
2, 14946, Note_on_c, 0, 79, 0
2, 14970, Note_on_c, 0, 83, 118
2, 14976, Note_on_c, 0, 84, 0
2, 15005, Control_c, 0, 64, 0
2, 15005, Note_on_c, 0, 81, 109
2, 15015, Note_on_c, 0, 83, 0
2, 15035, Note_on_c, 0, 79, 105
2, 15055, Note_on_c, 0, 81, 0
2, 15060, Note_on_c, 0, 77, 100
2, 15065, Note_on_c, 0, 79, 0
2, 15090, Note_on_c, 0, 76, 98
2, 15100, Note_on_c, 0, 77, 0
2, 15123, Note_on_c, 0, 74, 104
2, 15130, Note_on_c, 0, 76, 0
2, 15151, Note_on_c, 0, 79, 103
2, 15153, Note_on_c, 0, 74, 0
2, 15187, Note_on_c, 0, 77, 106
2, 15194, Note_on_c, 0, 79, 0
2, 15220, Note_on_c, 0, 74, 98
2, 15222, Note_on_c, 0, 77, 0
2, 15250, Note_on_c, 0, 74, 0
2, 15259, Note_on_c, 0, 76, 94
2, 15292, Note_on_c, 0, 76, 0
2, 15295, Note_on_c, 0, 77, 92
2, 15328, Note_on_c, 0, 76, 91
2, 15330, Note_on_c, 0, 77, 0
2, 15360, Note_on_c, 0, 75, 93
2, 15366, Note_on_c, 0, 76, 0
2, 15390, Note_on_c, 0, 75, 0
2, 15395, Note_on_c, 0, 76, 97
2, 15431, Note_on_c, 0, 76, 0
2, 15431, Note_on_c, 0, 71, 92
2, 15459, Note_on_c, 0, 71, 0
2, 15465, Note_on_c, 0, 76, 91
2, 15500, Note_on_c, 0, 76, 0
2, 15503, Note_on_c, 0, 75, 85
2, 15540, Note_on_c, 0, 76, 86
2, 15541, Note_on_c, 0, 75, 0
2, 15575, Note_on_c, 0, 76, 0
2, 15575, Note_on_c, 0, 71, 76
2, 15600, Note_on_c, 0, 71, 0
2, 15612, Note_on_c, 0, 76, 93
2, 15648, Note_on_c, 0, 76, 0
2, 15650, Note_on_c, 0, 75, 83
2, 15710, Note_on_c, 0, 75, 0
2, 15710, Note_on_c, 0, 76, 74
2, 15950, Note_on_c, 0, 76, 0
2, 15950, Note_on_c, 0, 71, 74
2, 16020, Note_on_c, 0, 76, 73
2, 16025, Note_on_c, 0, 71, 0
2, 16091, Note_on_c, 0, 75, 76
2, 16092, Note_on_c, 0, 76, 0
2, 16176, Note_on_c, 0, 75, 0
2, 16185, Note_on_c, 0, 76, 66
2, 16451, Note_on_c, 0, 76, 0
2, 16451, Note_on_c, 0, 71, 69
2, 16546, Note_on_c, 0, 71, 0
2, 16560, Note_on_c, 0, 76, 62
2, 16660, Note_on_c, 0, 75, 61
2, 16673, Note_on_c, 0, 76, 0
2, 16760, Note_on_c, 0, 76, 65
2, 16783, Note_on_c, 0, 75, 0
2, 16819, Note_on_c, 0, 76, 0
2, 16840, Note_on_c, 0, 75, 60
2, 16927, Note_on_c, 0, 76, 69
2, 16935, Note_on_c, 0, 75, 0
2, 16986, Note_on_c, 0, 76, 0
2, 17015, Note_on_c, 0, 75, 65
2, 17146, Note_on_c, 0, 76, 66
2, 17178, Note_on_c, 0, 75, 0
2, 17235, Note_on_c, 0, 76, 0
2, 17265, Note_on_c, 0, 75, 64
2, 17358, Note_on_c, 0, 75, 0
2, 17366, Note_on_c, 0, 76, 59
2, 17440, Note_on_c, 0, 75, 60
2, 17452, Note_on_c, 0, 76, 0
2, 17515, Note_on_c, 0, 76, 73
2, 17518, Note_on_c, 0, 75, 0
2, 17582, Note_on_c, 0, 71, 73
2, 17596, Note_on_c, 0, 76, 0
2, 17646, Note_on_c, 0, 74, 81
2, 17692, Note_on_c, 0, 71, 0
2, 17709, Note_on_c, 0, 74, 0
2, 17711, Note_on_c, 0, 72, 76
2, 17782, Note_on_c, 0, 69, 73
2, 17794, Note_on_c, 0, 72, 0
2, 17826, Control_c, 0, 64, 127
2, 17931, Note_on_c, 0, 69, 0
2, 17960, Note_on_c, 0, 60, 78
2, 18015, Note_on_c, 0, 64, 75
2, 18016, Note_on_c, 0, 60, 0
2, 18047, Control_c, 0, 64, 0
2, 18070, Note_on_c, 0, 64, 0
2, 18075, Note_on_c, 0, 69, 78
2, 18126, Note_on_c, 0, 69, 0
2, 18129, Note_on_c, 0, 71, 80
2, 18160, Control_c, 0, 64, 127
2, 18248, Note_on_c, 0, 71, 0
2, 18285, Note_on_c, 0, 64, 91
2, 18332, Note_on_c, 0, 68, 96
2, 18360, Note_on_c, 0, 64, 0
2, 18385, Control_c, 0, 64, 0
2, 18390, Note_on_c, 0, 71, 93
2, 18397, Note_on_c, 0, 68, 0
2, 18450, Note_on_c, 0, 71, 0
2, 18455, Note_on_c, 0, 72, 86
2, 18516, Control_c, 0, 64, 127
2, 18574, Note_on_c, 0, 72, 0
2, 18637, Note_on_c, 0, 64, 82
2, 18681, Control_c, 0, 64, 0
2, 18692, Note_on_c, 0, 64, 0
2, 18702, Note_on_c, 0, 76, 84
2, 18760, Note_on_c, 0, 75, 84
2, 18763, Note_on_c, 0, 76, 0
2, 18825, Note_on_c, 0, 76, 92
2, 18827, Note_on_c, 0, 75, 0
2, 18885, Note_on_c, 0, 75, 85
2, 18903, Note_on_c, 0, 76, 0
2, 18936, Note_on_c, 0, 76, 90
2, 18938, Note_on_c, 0, 75, 0
2, 18990, Note_on_c, 0, 71, 86
2, 19001, Note_on_c, 0, 76, 0
2, 19046, Note_on_c, 0, 74, 88
2, 19065, Note_on_c, 0, 71, 0
2, 19100, Note_on_c, 0, 72, 92
2, 19106, Note_on_c, 0, 74, 0
2, 19170, Note_on_c, 0, 69, 83
2, 19173, Note_on_c, 0, 72, 0
2, 19215, Control_c, 0, 64, 127
2, 19236, Note_on_c, 0, 69, 0
2, 19345, Note_on_c, 0, 60, 82
2, 19395, Control_c, 0, 64, 0
2, 19396, Note_on_c, 0, 64, 75
2, 19400, Note_on_c, 0, 60, 0
2, 19447, Note_on_c, 0, 69, 85
2, 19456, Note_on_c, 0, 64, 0
2, 19498, Note_on_c, 0, 69, 0
2, 19500, Note_on_c, 0, 71, 90
2, 19530, Control_c, 0, 64, 127
2, 19589, Note_on_c, 0, 71, 0
2, 19656, Note_on_c, 0, 64, 75
2, 19681, Control_c, 0, 64, 0
2, 19712, Note_on_c, 0, 72, 94
2, 19726, Note_on_c, 0, 64, 0
2, 19767, Note_on_c, 0, 71, 83
2, 19770, Note_on_c, 0, 72, 0
2, 19826, Note_on_c, 0, 71, 0
2, 19828, Note_on_c, 0, 69, 80
2, 19881, Control_c, 0, 64, 127
2, 19908, Note_on_c, 0, 69, 0
2, 20001, Note_on_c, 0, 71, 96
2, 20050, Control_c, 0, 64, 0
2, 20060, Note_on_c, 0, 72, 103
2, 20079, Note_on_c, 0, 71, 0
2, 20112, Note_on_c, 0, 74, 109
2, 20125, Note_on_c, 0, 72, 0
2, 20170, Note_on_c, 0, 76, 107
2, 20175, Note_on_c, 0, 74, 0
2, 20210, Control_c, 0, 64, 127
2, 20280, Note_on_c, 0, 60, 103
2, 20289, Note_on_c, 0, 76, 0
2, 20325, Note_on_c, 0, 67, 104
2, 20332, Note_on_c, 0, 60, 0
2, 20381, Note_on_c, 0, 77, 106
2, 20396, Control_c, 0, 64, 0
2, 20401, Note_on_c, 0, 67, 0
2, 20435, Note_on_c, 0, 76, 96
2, 20459, Note_on_c, 0, 77, 0
2, 20495, Note_on_c, 0, 74, 101
2, 20505, Note_on_c, 0, 76, 0
2, 20520, Control_c, 0, 64, 127
2, 20614, Note_on_c, 0, 74, 0
2, 20655, Note_on_c, 0, 65, 94
2, 20696, Control_c, 0, 64, 0
2, 20711, Note_on_c, 0, 76, 98
2, 20720, Note_on_c, 0, 65, 0
2, 20767, Note_on_c, 0, 74, 88
2, 20772, Note_on_c, 0, 76, 0
2, 20823, Note_on_c, 0, 74, 0
2, 20830, Note_on_c, 0, 72, 82
2, 20979, Note_on_c, 0, 72, 0
2, 21005, Note_on_c, 0, 64, 81
2, 21067, Note_on_c, 0, 74, 83
2, 21070, Note_on_c, 0, 64, 0
2, 21126, Note_on_c, 0, 74, 0
2, 21128, Note_on_c, 0, 72, 81
2, 21200, Note_on_c, 0, 71, 74
2, 21202, Control_c, 0, 64, 127
2, 21217, Note_on_c, 0, 72, 0
2, 21330, Note_on_c, 0, 64, 65
2, 21349, Note_on_c, 0, 71, 0
2, 21360, Note_on_c, 0, 64, 0
2, 21395, Note_on_c, 0, 64, 62
2, 21455, Note_on_c, 0, 64, 0
2, 21460, Note_on_c, 0, 76, 71
2, 21516, Note_on_c, 0, 64, 76
2, 21519, Note_on_c, 0, 76, 0
2, 21576, Note_on_c, 0, 64, 0
2, 21582, Note_on_c, 0, 76, 69
2, 21627, Note_on_c, 0, 76, 0
2, 21651, Note_on_c, 0, 76, 63
2, 21730, Note_on_c, 0, 88, 61
2, 21741, Note_on_c, 0, 76, 0
2, 21790, Note_on_c, 0, 88, 0
2, 21807, Control_c, 0, 64, 0
2, 21807, Note_on_c, 0, 75, 63
2, 21904, Note_on_c, 0, 75, 0
2, 21911, Note_on_c, 0, 76, 60
2, 22000, Note_on_c, 0, 76, 0
2, 22030, Note_on_c, 0, 75, 64
2, 22127, Note_on_c, 0, 75, 0
2, 22130, Note_on_c, 0, 76, 62
2, 22197, Note_on_c, 0, 76, 0
2, 22211, Note_on_c, 0, 75, 73
2, 22296, Note_on_c, 0, 76, 71
2, 22301, Note_on_c, 0, 75, 0
2, 22376, Note_on_c, 0, 76, 0
2, 22391, Note_on_c, 0, 75, 64
2, 22476, Note_on_c, 0, 75, 0
2, 22485, Note_on_c, 0, 76, 61
2, 22570, Note_on_c, 0, 75, 69
2, 22573, Note_on_c, 0, 76, 0
2, 22645, Note_on_c, 0, 75, 0
2, 22645, Note_on_c, 0, 76, 66
2, 22705, Note_on_c, 0, 75, 84
2, 22711, Note_on_c, 0, 76, 0
2, 22760, Note_on_c, 0, 75, 0
2, 22765, Note_on_c, 0, 76, 82
2, 22820, Note_on_c, 0, 71, 87
2, 22835, Note_on_c, 0, 76, 0
2, 22885, Note_on_c, 0, 74, 76
2, 22905, Note_on_c, 0, 71, 0
2, 22956, Note_on_c, 0, 72, 78
2, 22967, Note_on_c, 0, 74, 0
2, 23040, Note_on_c, 0, 69, 76
2, 23044, Note_on_c, 0, 72, 0
2, 23085, Control_c, 0, 64, 127
2, 23117, Note_on_c, 0, 69, 0
2, 23215, Note_on_c, 0, 60, 80
2, 23261, Note_on_c, 0, 60, 0
2, 23265, Note_on_c, 0, 64, 73
2, 23276, Control_c, 0, 64, 0
2, 23320, Note_on_c, 0, 64, 0
2, 23320, Note_on_c, 0, 69, 73
2, 23370, Note_on_c, 0, 69, 0
2, 23375, Note_on_c, 0, 71, 76
2, 23405, Control_c, 0, 64, 127
2, 23494, Note_on_c, 0, 71, 0
2, 23540, Note_on_c, 0, 64, 75
2, 23585, Note_on_c, 0, 68, 77
2, 23600, Control_c, 0, 64, 0
2, 23607, Note_on_c, 0, 64, 0
2, 23640, Note_on_c, 0, 71, 93
2, 23646, Note_on_c, 0, 68, 0
2, 23695, Note_on_c, 0, 71, 0
2, 23705, Note_on_c, 0, 72, 87
2, 23747, Control_c, 0, 64, 127
2, 23854, Note_on_c, 0, 72, 0
2, 23885, Note_on_c, 0, 64, 63
2, 23936, Note_on_c, 0, 64, 0
2, 23947, Control_c, 0, 64, 0
2, 23950, Note_on_c, 0, 76, 71
2, 24016, Note_on_c, 0, 75, 71
2, 24023, Note_on_c, 0, 76, 0
2, 24075, Note_on_c, 0, 76, 77
2, 24079, Note_on_c, 0, 75, 0
2, 24137, Note_on_c, 0, 75, 76
2, 24153, Note_on_c, 0, 76, 0
2, 24190, Note_on_c, 0, 76, 88
2, 24193, Note_on_c, 0, 75, 0
2, 24240, Note_on_c, 0, 71, 84
2, 24252, Note_on_c, 0, 76, 0
2, 24297, Note_on_c, 0, 74, 88
2, 24317, Note_on_c, 0, 71, 0
2, 24350, Note_on_c, 0, 74, 0
2, 24350, Note_on_c, 0, 72, 83
2, 24410, Note_on_c, 0, 72, 0
2, 24410, Note_on_c, 0, 69, 80
2, 24455, Control_c, 0, 64, 127
2, 24529, Note_on_c, 0, 69, 0
2, 24570, Note_on_c, 0, 60, 84
2, 24612, Note_on_c, 0, 60, 0
2, 24621, Note_on_c, 0, 64, 75
2, 24675, Note_on_c, 0, 69, 89
2, 24681, Note_on_c, 0, 64, 0
2, 24700, Control_c, 0, 64, 0
2, 24725, Note_on_c, 0, 69, 0
2, 24733, Note_on_c, 0, 71, 89
2, 24780, Control_c, 0, 64, 127
2, 24882, Note_on_c, 0, 71, 0
2, 24890, Note_on_c, 0, 64, 82
2, 24945, Note_on_c, 0, 72, 90
2, 24971, Note_on_c, 0, 64, 0
2, 24995, Control_c, 0, 64, 0
2, 25006, Note_on_c, 0, 71, 89
2, 25010, Note_on_c, 0, 72, 0
2, 25076, Note_on_c, 0, 71, 0
2, 25080, Note_on_c, 0, 69, 76
2, 25125, Control_c, 0, 64, 127
2, 25259, Note_on_c, 0, 69, 0
2, 25420, Control_c, 0, 64, 0
2, 25421, Note_on_c, 0, 73, 85
2, 25421, Note_on_c, 0, 70, 74
2, 25421, Note_on_c, 0, 67, 67
2, 25421, Note_on_c, 0, 64, 58
2, 25472, Control_c, 0, 64, 127
2, 25522, Note_on_c, 0, 64, 0
2, 25541, Note_on_c, 0, 67, 0
2, 25571, Note_on_c, 0, 70, 0
2, 25631, Note_on_c, 0, 73, 0
2, 25737, Note_on_c, 0, 74, 96
2, 25738, Note_on_c, 0, 65, 93
2, 25740, Control_c, 0, 64, 0
2, 25740, Note_on_c, 0, 69, 94
2, 25786, Control_c, 0, 64, 127
2, 25824, Note_on_c, 0, 65, 0
2, 25826, Note_on_c, 0, 69, 0
2, 25837, Note_on_c, 0, 74, 0
2, 25940, Control_c, 0, 64, 0
2, 25940, Note_on_c, 0, 76, 94
2, 25940, Note_on_c, 0, 73, 91
2, 25956, Control_c, 0, 64, 127
2, 25972, Note_on_c, 0, 73, 0
2, 25980, Note_on_c, 0, 76, 0
2, 25990, Note_on_c, 0, 77, 102
2, 25990, Note_on_c, 0, 74, 98
2, 26020, Note_on_c, 0, 74, 0
2, 26035, Note_on_c, 0, 77, 0
2, 26045, Note_on_c, 0, 74, 105
2, 26045, Note_on_c, 0, 77, 107
2, 26046, Note_on_c, 0, 68, 101
2, 26060, Control_c, 0, 64, 0
2, 26110, Control_c, 0, 64, 127
2, 26156, Note_on_c, 0, 68, 0
2, 26157, Note_on_c, 0, 74, 0
2, 26165, Note_on_c, 0, 77, 0
2, 26255, Note_on_c, 0, 68, 101
2, 26255, Note_on_c, 0, 74, 108
2, 26255, Note_on_c, 0, 77, 107
2, 26257, Control_c, 0, 64, 0
2, 26280, Control_c, 0, 64, 127
2, 26305, Note_on_c, 0, 74, 0
2, 26305, Note_on_c, 0, 68, 0
2, 26312, Note_on_c, 0, 77, 0
2, 26355, Note_on_c, 0, 72, 106
2, 26355, Note_on_c, 0, 76, 109
2, 26356, Note_on_c, 0, 69, 107
2, 26360, Control_c, 0, 64, 0
2, 26400, Control_c, 0, 64, 127
2, 26480, Control_c, 0, 64, 0
2, 26546, Control_c, 0, 64, 127
2, 26557, Note_on_c, 0, 76, 0
2, 26560, Note_on_c, 0, 72, 0
2, 26567, Note_on_c, 0, 69, 0
2, 26657, Note_on_c, 0, 65, 112
2, 26657, Note_on_c, 0, 74, 106
2, 26662, Control_c, 0, 64, 0
2, 26707, Control_c, 0, 64, 127
2, 26836, Note_on_c, 0, 74, 0
2, 26836, Note_on_c, 0, 65, 0
2, 26858, Note_on_c, 0, 72, 113
2, 26858, Note_on_c, 0, 64, 97
2, 26900, Note_on_c, 0, 62, 89
2, 26900, Note_on_c, 0, 71, 111
2, 26917, Note_on_c, 0, 64, 0
2, 26917, Note_on_c, 0, 72, 0
2, 26955, Note_on_c, 0, 60, 100
2, 26955, Note_on_c, 0, 66, 102
2, 26955, Note_on_c, 0, 69, 113
2, 26959, Note_on_c, 0, 62, 0
2, 26959, Note_on_c, 0, 71, 0
2, 26960, Control_c, 0, 64, 0
2, 27005, Control_c, 0, 64, 127
2, 27040, Note_on_c, 0, 66, 0
2, 27045, Note_on_c, 0, 60, 0
2, 27048, Note_on_c, 0, 69, 0
2, 27140, Control_c, 0, 64, 0
2, 27149, Note_on_c, 0, 69, 117
2, 27149, Note_on_c, 0, 60, 115
2, 27214, Note_on_c, 0, 60, 0
2, 27219, Note_on_c, 0, 69, 0
2, 27250, Note_on_c, 0, 60, 112
2, 27251, Note_on_c, 0, 69, 115
2, 27352, Note_on_c, 0, 72, 100
2, 27352, Note_on_c, 0, 64, 76
2, 27354, Note_on_c, 0, 69, 0
2, 27369, Note_on_c, 0, 60, 0
2, 27446, Note_on_c, 0, 62, 70
2, 27446, Note_on_c, 0, 71, 96
2, 27462, Note_on_c, 0, 72, 0
2, 27471, Note_on_c, 0, 64, 0
2, 27559, Note_on_c, 0, 71, 0
2, 27565, Note_on_c, 0, 62, 0
2, 27565, Note_on_c, 0, 69, 87
2, 27566, Note_on_c, 0, 60, 80
2, 27605, Control_c, 0, 64, 127
2, 27774, Note_on_c, 0, 69, 0
2, 27775, Note_on_c, 0, 60, 0
2, 27871, Control_c, 0, 64, 0
2, 27873, Note_on_c, 0, 73, 102
2, 27875, Note_on_c, 0, 64, 100
2, 27875, Note_on_c, 0, 67, 95
2, 27875, Note_on_c, 0, 70, 103
2, 27920, Control_c, 0, 64, 127
2, 28082, Note_on_c, 0, 73, 0
2, 28084, Note_on_c, 0, 64, 0
2, 28084, Note_on_c, 0, 67, 0
2, 28084, Note_on_c, 0, 70, 0
2, 28167, Note_on_c, 0, 74, 99
2, 28170, Note_on_c, 0, 69, 95
2, 28170, Note_on_c, 0, 65, 90
2, 28175, Control_c, 0, 64, 0
2, 28211, Control_c, 0, 64, 127
2, 28316, Note_on_c, 0, 74, 0
2, 28319, Note_on_c, 0, 65, 0
2, 28319, Note_on_c, 0, 69, 0
2, 28346, Control_c, 0, 64, 0
2, 28356, Note_on_c, 0, 73, 92
2, 28357, Note_on_c, 0, 76, 96
2, 28380, Control_c, 0, 64, 127
2, 28386, Note_on_c, 0, 73, 0
2, 28392, Note_on_c, 0, 76, 0
2, 28409, Note_on_c, 0, 77, 97
2, 28409, Note_on_c, 0, 74, 96
2, 28430, Note_on_c, 0, 74, 0
2, 28438, Note_on_c, 0, 77, 0
2, 28460, Note_on_c, 0, 74, 97
2, 28461, Note_on_c, 0, 77, 96
2, 28466, Control_c, 0, 64, 0
2, 28510, Control_c, 0, 64, 127
2, 28639, Note_on_c, 0, 74, 0
2, 28640, Note_on_c, 0, 77, 0
2, 28640, Control_c, 0, 64, 0
2, 28650, Note_on_c, 0, 77, 107
2, 28650, Note_on_c, 0, 74, 98
2, 28671, Control_c, 0, 64, 127
2, 28739, Note_on_c, 0, 74, 0
2, 28739, Note_on_c, 0, 77, 0
2, 28750, Note_on_c, 0, 74, 97
2, 28750, Note_on_c, 0, 77, 103
2, 28755, Control_c, 0, 64, 0
2, 28795, Control_c, 0, 64, 127
2, 28915, Note_on_c, 0, 77, 0
2, 28920, Note_on_c, 0, 74, 0
2, 29025, Control_c, 0, 64, 0
2, 29040, Note_on_c, 0, 75, 97
2, 29041, Note_on_c, 0, 67, 90
2, 29076, Control_c, 0, 64, 127
2, 29077, Control_c, 0, 64, 0
2, 29077, Control_c, 0, 64, 127
2, 29100, Note_on_c, 0, 75, 0
2, 29119, Note_on_c, 0, 67, 0
2, 29233, Note_on_c, 0, 65, 87
2, 29233, Note_on_c, 0, 74, 100
2, 29280, Note_on_c, 0, 63, 91
2, 29280, Note_on_c, 0, 72, 95
2, 29292, Note_on_c, 0, 74, 0
2, 29292, Note_on_c, 0, 65, 0
2, 29336, Note_on_c, 0, 65, 97
2, 29336, Note_on_c, 0, 70, 98
2, 29337, Note_on_c, 0, 62, 93
2, 29339, Note_on_c, 0, 63, 0
2, 29339, Note_on_c, 0, 72, 0
2, 29345, Control_c, 0, 64, 0
2, 29452, Note_on_c, 0, 62, 0
2, 29461, Note_on_c, 0, 65, 0
2, 29476, Note_on_c, 0, 70, 0
2, 29535, Note_on_c, 0, 65, 87
2, 29535, Note_on_c, 0, 69, 87
2, 29536, Note_on_c, 0, 62, 80
2, 29571, Note_on_c, 0, 62, 0
2, 29585, Note_on_c, 0, 65, 0
2, 29635, Note_on_c, 0, 69, 0
2, 29638, Note_on_c, 0, 62, 71
2, 29638, Note_on_c, 0, 65, 76
2, 29638, Note_on_c, 0, 68, 88
2, 29728, Note_on_c, 0, 62, 0
2, 29735, Note_on_c, 0, 65, 0
2, 29740, Note_on_c, 0, 68, 0
2, 29835, Note_on_c, 0, 68, 93
2, 29835, Note_on_c, 0, 62, 83
2, 29836, Note_on_c, 0, 65, 80
2, 29924, Note_on_c, 0, 62, 0
2, 29924, Note_on_c, 0, 68, 0
2, 29925, Note_on_c, 0, 65, 0
2, 29950, Note_on_c, 0, 60, 73
2, 29951, Note_on_c, 0, 64, 73
2, 29952, Note_on_c, 0, 69, 77
2, 30099, Note_on_c, 0, 60, 0
2, 30100, Note_on_c, 0, 64, 0
2, 30101, Note_on_c, 0, 69, 0
2, 30326, Note_on_c, 0, 71, 74
2, 30326, Note_on_c, 0, 64, 62
2, 30326, Note_on_c, 0, 62, 59
2, 30475, Note_on_c, 0, 62, 0
2, 30475, Note_on_c, 0, 64, 0
2, 30505, Note_on_c, 0, 71, 0
2, 30745, Control_c, 0, 64, 127
2, 30761, Note_on_c, 0, 60, 81
2, 30795, Note_on_c, 0, 64, 80
2, 30820, Note_on_c, 0, 60, 0
2, 30832, Note_on_c, 0, 69, 98
2, 30854, Note_on_c, 0, 64, 0
2, 30869, Note_on_c, 0, 72, 101
2, 30891, Note_on_c, 0, 69, 0
2, 30905, Note_on_c, 0, 76, 96
2, 30907, Note_on_c, 0, 72, 0
2, 30940, Note_on_c, 0, 74, 103
2, 30941, Control_c, 0, 64, 0
2, 30941, Note_on_c, 0, 64, 70
2, 30941, Note_on_c, 0, 60, 83
2, 30950, Note_on_c, 0, 76, 0
2, 30977, Note_on_c, 0, 72, 103
2, 30980, Control_c, 0, 64, 127
2, 30982, Note_on_c, 0, 74, 0
2, 31000, Note_on_c, 0, 60, 0
2, 31000, Note_on_c, 0, 64, 0
2, 31012, Note_on_c, 0, 71, 103
2, 31017, Note_on_c, 0, 72, 0
2, 31040, Note_on_c, 0, 71, 0
2, 31045, Note_on_c, 0, 69, 103
2, 31045, Note_on_c, 0, 64, 81
2, 31045, Note_on_c, 0, 60, 84
2, 31050, Control_c, 0, 64, 0
2, 31085, Note_on_c, 0, 72, 109
2, 31090, Note_on_c, 0, 69, 0
2, 31100, Control_c, 0, 64, 127
2, 31120, Note_on_c, 0, 72, 0
2, 31120, Note_on_c, 0, 76, 99
2, 31122, Note_on_c, 0, 60, 0
2, 31134, Note_on_c, 0, 64, 0
2, 31150, Note_on_c, 0, 76, 0
2, 31155, Note_on_c, 0, 81, 105
2, 31185, Note_on_c, 0, 81, 0
2, 31190, Note_on_c, 0, 84, 113
2, 31226, Note_on_c, 0, 88, 110
2, 31233, Note_on_c, 0, 84, 0
2, 31255, Control_c, 0, 64, 0
2, 31260, Note_on_c, 0, 60, 96
2, 31260, Note_on_c, 0, 64, 73
2, 31261, Note_on_c, 0, 86, 108
2, 31281, Note_on_c, 0, 88, 0
2, 31295, Note_on_c, 0, 60, 0
2, 31295, Note_on_c, 0, 64, 0
2, 31297, Note_on_c, 0, 86, 0
2, 31300, Note_on_c, 0, 84, 110
2, 31300, Control_c, 0, 64, 127
2, 31333, Note_on_c, 0, 83, 107
2, 31337, Note_on_c, 0, 84, 0
2, 31363, Note_on_c, 0, 83, 0
2, 31365, Control_c, 0, 64, 0
2, 31366, Note_on_c, 0, 60, 94
2, 31366, Note_on_c, 0, 64, 81
2, 31366, Note_on_c, 0, 81, 101
2, 31402, Note_on_c, 0, 84, 110
2, 31416, Note_on_c, 0, 81, 0
2, 31420, Control_c, 0, 64, 127
2, 31440, Note_on_c, 0, 88, 107
2, 31445, Note_on_c, 0, 84, 0
2, 31460, Note_on_c, 0, 88, 0
2, 31480, Note_on_c, 0, 93, 113
2, 31502, Note_on_c, 0, 60, 0
2, 31506, Note_on_c, 0, 64, 0
2, 31520, Note_on_c, 0, 96, 108
2, 31535, Note_on_c, 0, 93, 0
2, 31557, Note_on_c, 0, 100, 115
2, 31575, Note_on_c, 0, 96, 0
2, 31595, Control_c, 0, 64, 0
2, 31600, Note_on_c, 0, 64, 78
2, 31600, Note_on_c, 0, 98, 116
2, 31601, Note_on_c, 0, 60, 94
2, 31627, Note_on_c, 0, 100, 0
2, 31640, Control_c, 0, 64, 127
2, 31645, Note_on_c, 0, 96, 111
2, 31659, Note_on_c, 0, 60, 0
2, 31660, Note_on_c, 0, 64, 0
2, 31660, Note_on_c, 0, 98, 0
2, 31680, Note_on_c, 0, 95, 109
2, 31685, Note_on_c, 0, 96, 0
2, 31729, Note_on_c, 0, 60, 92
2, 31730, Note_on_c, 0, 94, 110
2, 31731, Note_on_c, 0, 64, 70
2, 31735, Control_c, 0, 64, 0
2, 31748, Note_on_c, 0, 95, 0
2, 31780, Note_on_c, 0, 93, 106
2, 31795, Note_on_c, 0, 94, 0
2, 31825, Note_on_c, 0, 92, 106
2, 31835, Note_on_c, 0, 93, 0
2, 31865, Note_on_c, 0, 91, 99
2, 31868, Note_on_c, 0, 92, 0
2, 31905, Note_on_c, 0, 90, 97
2, 31910, Note_on_c, 0, 91, 0
2, 31919, Note_on_c, 0, 64, 0
2, 31919, Note_on_c, 0, 60, 0
2, 31945, Note_on_c, 0, 89, 94
2, 31955, Note_on_c, 0, 90, 0
2, 31985, Note_on_c, 0, 89, 0
2, 31985, Note_on_c, 0, 88, 91
2, 32020, Note_on_c, 0, 87, 87
2, 32027, Note_on_c, 0, 88, 0
2, 32060, Note_on_c, 0, 86, 84
2, 32079, Note_on_c, 0, 87, 0
2, 32100, Note_on_c, 0, 85, 81
2, 32110, Note_on_c, 0, 86, 0
2, 32145, Note_on_c, 0, 84, 81
2, 32160, Note_on_c, 0, 85, 0
2, 32185, Note_on_c, 0, 84, 0
2, 32185, Note_on_c, 0, 83, 76
2, 32225, Note_on_c, 0, 82, 75
2, 32230, Note_on_c, 0, 83, 0
2, 32265, Note_on_c, 0, 81, 78
2, 32270, Note_on_c, 0, 82, 0
2, 32312, Note_on_c, 0, 80, 72
2, 32315, Note_on_c, 0, 81, 0
2, 32360, Note_on_c, 0, 80, 0
2, 32365, Note_on_c, 0, 79, 72
2, 32431, Note_on_c, 0, 78, 64
2, 32440, Note_on_c, 0, 79, 0
2, 32510, Note_on_c, 0, 77, 72
2, 32514, Note_on_c, 0, 78, 0
2, 32620, Note_on_c, 0, 77, 0
2, 32620, Note_on_c, 0, 76, 72
2, 32715, Note_on_c, 0, 75, 71
2, 32722, Note_on_c, 0, 76, 0
2, 32785, Note_on_c, 0, 76, 77
2, 32786, Note_on_c, 0, 75, 0
2, 32842, Note_on_c, 0, 71, 71
2, 32866, Note_on_c, 0, 76, 0
2, 32900, Note_on_c, 0, 74, 74
2, 32942, Note_on_c, 0, 71, 0
2, 32962, Note_on_c, 0, 72, 75
2, 32967, Note_on_c, 0, 74, 0
2, 33050, Note_on_c, 0, 72, 0
2, 33050, Note_on_c, 0, 69, 69
2, 33095, Control_c, 0, 64, 127
2, 33130, Note_on_c, 0, 69, 0
2, 33230, Note_on_c, 0, 60, 75
2, 33280, Note_on_c, 0, 60, 0
2, 33281, Note_on_c, 0, 64, 71
2, 33322, Note_on_c, 0, 64, 0
2, 33330, Note_on_c, 0, 69, 78
2, 33376, Control_c, 0, 64, 0
2, 33378, Note_on_c, 0, 69, 0
2, 33382, Note_on_c, 0, 71, 77
2, 33412, Control_c, 0, 64, 127
2, 33492, Note_on_c, 0, 71, 0
2, 33521, Note_on_c, 0, 64, 75
2, 33565, Note_on_c, 0, 68, 78
2, 33569, Note_on_c, 0, 64, 0
2, 33610, Note_on_c, 0, 71, 90
2, 33622, Note_on_c, 0, 68, 0
2, 33661, Note_on_c, 0, 71, 0
2, 33665, Note_on_c, 0, 72, 91
2, 33675, Control_c, 0, 64, 0
2, 33720, Control_c, 0, 64, 127
2, 33820, Note_on_c, 0, 72, 0
2, 33825, Note_on_c, 0, 64, 68
2, 33880, Note_on_c, 0, 64, 0
2, 33880, Note_on_c, 0, 76, 76
2, 33890, Control_c, 0, 64, 0
2, 33936, Note_on_c, 0, 75, 69
2, 33948, Note_on_c, 0, 76, 0
2, 33995, Note_on_c, 0, 76, 76
2, 33996, Note_on_c, 0, 75, 0
2, 34050, Note_on_c, 0, 75, 73
2, 34070, Note_on_c, 0, 76, 0
2, 34095, Note_on_c, 0, 76, 87
2, 34100, Note_on_c, 0, 75, 0
2, 34145, Note_on_c, 0, 71, 84
2, 34167, Note_on_c, 0, 76, 0
2, 34190, Note_on_c, 0, 74, 77
2, 34211, Note_on_c, 0, 71, 0
2, 34243, Note_on_c, 0, 74, 0
2, 34245, Note_on_c, 0, 72, 75
2, 34300, Note_on_c, 0, 69, 71
2, 34305, Note_on_c, 0, 72, 0
2, 34332, Control_c, 0, 64, 127
2, 34435, Note_on_c, 0, 69, 0
2, 34452, Note_on_c, 0, 60, 70
2, 34492, Note_on_c, 0, 60, 0
2, 34495, Note_on_c, 0, 64, 75
2, 34540, Note_on_c, 0, 64, 0
2, 34545, Note_on_c, 0, 69, 77
2, 34587, Note_on_c, 0, 69, 0
2, 34590, Control_c, 0, 64, 0
2, 34590, Note_on_c, 0, 71, 74
2, 34622, Control_c, 0, 64, 127
2, 34710, Note_on_c, 0, 71, 0
2, 34755, Note_on_c, 0, 64, 66
2, 34803, Note_on_c, 0, 64, 0
2, 34805, Note_on_c, 0, 72, 83
2, 34850, Note_on_c, 0, 72, 0
2, 34855, Note_on_c, 0, 71, 71
2, 34892, Control_c, 0, 64, 0
2, 34900, Note_on_c, 0, 71, 0
2, 34908, Note_on_c, 0, 69, 66
2, 34950, Control_c, 0, 64, 127
2, 35027, Note_on_c, 0, 69, 0
2, 35090, Note_on_c, 0, 71, 94
2, 35121, Control_c, 0, 64, 0
2, 35145, Note_on_c, 0, 72, 96
2, 35175, Note_on_c, 0, 71, 0
2, 35203, Note_on_c, 0, 74, 104
2, 35215, Note_on_c, 0, 72, 0
2, 35260, Note_on_c, 0, 76, 103
2, 35263, Note_on_c, 0, 74, 0
2, 35300, Control_c, 0, 64, 127
2, 35322, Note_on_c, 0, 76, 0
2, 35371, Note_on_c, 0, 60, 91
2, 35411, Note_on_c, 0, 67, 103
2, 35438, Note_on_c, 0, 60, 0
2, 35465, Note_on_c, 0, 77, 107
2, 35486, Note_on_c, 0, 67, 0
2, 35516, Note_on_c, 0, 76, 104
2, 35530, Note_on_c, 0, 77, 0
2, 35560, Control_c, 0, 64, 0
2, 35565, Note_on_c, 0, 74, 104
2, 35579, Note_on_c, 0, 76, 0
2, 35605, Control_c, 0, 64, 127
2, 35625, Note_on_c, 0, 74, 0
2, 35716, Note_on_c, 0, 65, 91
2, 35767, Note_on_c, 0, 76, 97
2, 35786, Note_on_c, 0, 65, 0
2, 35801, Control_c, 0, 64, 0
2, 35820, Note_on_c, 0, 74, 91
2, 35833, Note_on_c, 0, 76, 0
2, 35875, Note_on_c, 0, 72, 91
2, 35882, Note_on_c, 0, 74, 0
2, 35912, Control_c, 0, 64, 127
2, 35935, Note_on_c, 0, 72, 0
2, 36045, Note_on_c, 0, 64, 83
2, 36066, Control_c, 0, 64, 0
2, 36105, Note_on_c, 0, 74, 79
2, 36115, Note_on_c, 0, 64, 0
2, 36160, Note_on_c, 0, 74, 0
2, 36165, Note_on_c, 0, 72, 78
2, 36235, Note_on_c, 0, 71, 75
2, 36240, Note_on_c, 0, 72, 0
2, 36265, Control_c, 0, 64, 127
2, 36354, Note_on_c, 0, 71, 0
2, 36386, Note_on_c, 0, 64, 72
2, 36421, Note_on_c, 0, 64, 0
2, 36456, Note_on_c, 0, 64, 69
2, 36497, Note_on_c, 0, 64, 0
2, 36531, Note_on_c, 0, 76, 72
2, 36569, Note_on_c, 0, 76, 0
2, 36590, Note_on_c, 0, 64, 59
2, 36635, Note_on_c, 0, 64, 0
2, 36665, Note_on_c, 0, 76, 66
2, 36695, Note_on_c, 0, 76, 0
2, 36740, Note_on_c, 0, 76, 66
2, 36806, Note_on_c, 0, 76, 0
2, 36830, Note_on_c, 0, 88, 64
2, 36855, Control_c, 0, 64, 0
2, 36900, Note_on_c, 0, 88, 0
2, 36916, Note_on_c, 0, 75, 77
2, 37031, Note_on_c, 0, 76, 67
2, 37036, Note_on_c, 0, 75, 0
2, 37096, Note_on_c, 0, 76, 0
2, 37120, Note_on_c, 0, 75, 65
2, 37191, Note_on_c, 0, 75, 0
2, 37210, Note_on_c, 0, 76, 64
2, 37282, Note_on_c, 0, 76, 0
2, 37290, Note_on_c, 0, 75, 60
2, 37415, Note_on_c, 0, 76, 59
2, 37425, Note_on_c, 0, 75, 0
2, 37503, Note_on_c, 0, 76, 0
2, 37522, Note_on_c, 0, 75, 67
2, 37620, Note_on_c, 0, 75, 0
2, 37621, Note_on_c, 0, 76, 64
2, 37705, Note_on_c, 0, 75, 74
2, 37706, Note_on_c, 0, 76, 0
2, 37780, Note_on_c, 0, 76, 71
2, 37785, Note_on_c, 0, 75, 0
2, 37852, Note_on_c, 0, 75, 79
2, 37870, Note_on_c, 0, 76, 0
2, 37907, Note_on_c, 0, 76, 78
2, 37913, Note_on_c, 0, 75, 0
2, 37970, Note_on_c, 0, 71, 73
2, 38000, Note_on_c, 0, 76, 0
2, 38026, Note_on_c, 0, 74, 75
2, 38058, Note_on_c, 0, 71, 0
2, 38092, Note_on_c, 0, 72, 77
2, 38104, Note_on_c, 0, 74, 0
2, 38167, Note_on_c, 0, 69, 68
2, 38172, Note_on_c, 0, 72, 0
2, 38212, Control_c, 0, 64, 127
2, 38240, Note_on_c, 0, 69, 0
2, 38340, Note_on_c, 0, 60, 78
2, 38385, Note_on_c, 0, 60, 0
2, 38390, Note_on_c, 0, 64, 77
2, 38435, Note_on_c, 0, 64, 0
2, 38442, Note_on_c, 0, 69, 78
2, 38470, Control_c, 0, 64, 0
2, 38493, Note_on_c, 0, 71, 84
2, 38501, Note_on_c, 0, 69, 0
2, 38530, Control_c, 0, 64, 127
2, 38612, Note_on_c, 0, 71, 0
2, 38651, Note_on_c, 0, 64, 70
2, 38700, Note_on_c, 0, 68, 72
2, 38716, Note_on_c, 0, 64, 0
2, 38750, Control_c, 0, 64, 0
2, 38755, Note_on_c, 0, 71, 74
2, 38770, Note_on_c, 0, 68, 0
2, 38823, Note_on_c, 0, 72, 80
2, 38844, Note_on_c, 0, 71, 0
2, 38875, Control_c, 0, 64, 127
2, 38911, Note_on_c, 0, 72, 0
2, 39020, Note_on_c, 0, 64, 81
2, 39080, Note_on_c, 0, 64, 0
2, 39081, Control_c, 0, 64, 0
2, 39085, Note_on_c, 0, 76, 84
2, 39141, Note_on_c, 0, 75, 81
2, 39150, Note_on_c, 0, 76, 0
2, 39195, Note_on_c, 0, 76, 88
2, 39196, Note_on_c, 0, 75, 0
2, 39255, Note_on_c, 0, 75, 79
2, 39270, Note_on_c, 0, 76, 0
2, 39306, Note_on_c, 0, 76, 81
2, 39312, Note_on_c, 0, 75, 0
2, 39361, Note_on_c, 0, 71, 77
2, 39384, Note_on_c, 0, 76, 0
2, 39415, Note_on_c, 0, 74, 83
2, 39441, Note_on_c, 0, 71, 0
2, 39474, Note_on_c, 0, 72, 77
2, 39475, Note_on_c, 0, 74, 0
2, 39539, Note_on_c, 0, 69, 74
2, 39549, Note_on_c, 0, 72, 0
2, 39580, Control_c, 0, 64, 127
2, 39607, Note_on_c, 0, 69, 0
2, 39706, Note_on_c, 0, 60, 81
2, 39760, Note_on_c, 0, 64, 80
2, 39761, Note_on_c, 0, 60, 0
2, 39820, Note_on_c, 0, 64, 0
2, 39825, Note_on_c, 0, 69, 81
2, 39875, Note_on_c, 0, 69, 0
2, 39875, Control_c, 0, 64, 0
2, 39883, Note_on_c, 0, 71, 80
2, 39922, Control_c, 0, 64, 127
2, 40002, Note_on_c, 0, 71, 0
2, 40080, Note_on_c, 0, 62, 70
2, 40150, Control_c, 0, 64, 0
2, 40165, Note_on_c, 0, 72, 82
2, 40260, Note_on_c, 0, 71, 75
2, 40265, Note_on_c, 0, 62, 0
2, 40270, Note_on_c, 0, 72, 0
2, 40388, Note_on_c, 0, 69, 68
2, 40388, Note_on_c, 0, 60, 55
2, 40409, Note_on_c, 0, 71, 0
2, 40490, Control_c, 0, 121, 0
2, 40777, Note_on_c, 0, 60, 0
2, 40777, Note_on_c, 0, 69, 0
2, 40777, End_track
3, 0, Start_track
3, 0, MIDI_port, 0
3, 0, Title_t, "Piano L"
3, 0, Control_c, 1, 0, 0
3, 0, Control_c, 1, 32, 0
3, 0, Program_c, 1, 0
3, 0, Control_c, 1, 7, 127
3, 0, Control_c, 1, 10, 70
3, 0, Control_c, 1, 91, 127
3, 106, Control_c, 1, 121, 0
3, 159, Control_c, 1, 7, 127
3, 715, Note_on_c, 1, 45, 65
3, 760, Control_c, 1, 64, 127
3, 772, Note_on_c, 1, 45, 0
3, 775, Note_on_c, 1, 52, 66
3, 835, Note_on_c, 1, 57, 63
3, 850, Note_on_c, 1, 52, 0
3, 894, Note_on_c, 1, 57, 0
3, 956, Control_c, 1, 64, 0
3, 1066, Note_on_c, 1, 40, 68
3, 1095, Control_c, 1, 64, 127
3, 1122, Note_on_c, 1, 52, 70
3, 1125, Note_on_c, 1, 40, 0
3, 1175, Note_on_c, 1, 56, 74
3, 1181, Note_on_c, 1, 52, 0
3, 1234, Note_on_c, 1, 56, 0
3, 1285, Control_c, 1, 64, 0
3, 1420, Note_on_c, 1, 45, 64
3, 1471, Control_c, 1, 64, 127
3, 1487, Note_on_c, 1, 52, 62
3, 1495, Note_on_c, 1, 45, 0
3, 1550, Note_on_c, 1, 57, 60
3, 1562, Note_on_c, 1, 52, 0
3, 1609, Note_on_c, 1, 57, 0
3, 1680, Control_c, 1, 64, 0
3, 2146, Note_on_c, 1, 45, 66
3, 2180, Control_c, 1, 64, 127
3, 2201, Note_on_c, 1, 45, 0
3, 2210, Note_on_c, 1, 52, 61
3, 2265, Note_on_c, 1, 52, 0
3, 2271, Note_on_c, 1, 57, 58
3, 2330, Note_on_c, 1, 57, 0
3, 2385, Control_c, 1, 64, 0
3, 2500, Note_on_c, 1, 40, 62
3, 2531, Control_c, 1, 64, 127
3, 2545, Note_on_c, 1, 40, 0
3, 2560, Note_on_c, 1, 52, 78
3, 2610, Note_on_c, 1, 52, 0
3, 2620, Note_on_c, 1, 56, 79
3, 2679, Note_on_c, 1, 56, 0
3, 2705, Control_c, 1, 64, 0
3, 2866, Note_on_c, 1, 45, 61
3, 2917, Control_c, 1, 64, 127
3, 2935, Note_on_c, 1, 52, 70
3, 2939, Note_on_c, 1, 45, 0
3, 3010, Note_on_c, 1, 52, 0
3, 3010, Note_on_c, 1, 57, 57
3, 3127, Control_c, 1, 64, 0
3, 3159, Note_on_c, 1, 57, 0
3, 3620, Note_on_c, 1, 45, 40
3, 3651, Control_c, 1, 64, 127
3, 3672, Note_on_c, 1, 45, 0
3, 3675, Note_on_c, 1, 52, 44
3, 3731, Note_on_c, 1, 57, 48
3, 3735, Note_on_c, 1, 52, 0
3, 3790, Note_on_c, 1, 57, 0
3, 3832, Control_c, 1, 64, 0
3, 3961, Note_on_c, 1, 40, 59
3, 4002, Control_c, 1, 64, 127
3, 4006, Note_on_c, 1, 40, 0
3, 4020, Note_on_c, 1, 52, 46
3, 4068, Note_on_c, 1, 52, 0
3, 4077, Note_on_c, 1, 56, 54
3, 4136, Note_on_c, 1, 56, 0
3, 4165, Control_c, 1, 64, 0
3, 4310, Note_on_c, 1, 45, 57
3, 4361, Control_c, 1, 64, 127
3, 4370, Note_on_c, 1, 45, 0
3, 4370, Note_on_c, 1, 52, 48
3, 4430, Note_on_c, 1, 52, 0
3, 4431, Note_on_c, 1, 57, 44
3, 4490, Note_on_c, 1, 57, 0
3, 4521, Control_c, 1, 64, 0
3, 5036, Note_on_c, 1, 45, 62
3, 5066, Control_c, 1, 64, 127
3, 5094, Note_on_c, 1, 45, 0
3, 5100, Note_on_c, 1, 52, 69
3, 5155, Note_on_c, 1, 57, 69
3, 5158, Note_on_c, 1, 52, 0
3, 5214, Note_on_c, 1, 57, 0
3, 5225, Control_c, 1, 64, 0
3, 5385, Note_on_c, 1, 40, 65
3, 5425, Control_c, 1, 64, 127
3, 5430, Note_on_c, 1, 40, 0
3, 5445, Note_on_c, 1, 52, 68
3, 5503, Note_on_c, 1, 52, 0
3, 5510, Note_on_c, 1, 56, 75
3, 5560, Note_on_c, 1, 56, 0
3, 5585, Control_c, 1, 64, 0
3, 5760, Note_on_c, 1, 45, 65
3, 5810, Control_c, 1, 64, 127
3, 5825, Note_on_c, 1, 45, 0
3, 5825, Note_on_c, 1, 52, 67
3, 5890, Note_on_c, 1, 57, 66
3, 5900, Note_on_c, 1, 52, 0
3, 5931, Note_on_c, 1, 57, 0
3, 6010, Control_c, 1, 64, 0
3, 6133, Note_on_c, 1, 48, 68
3, 6193, Note_on_c, 1, 48, 0
3, 6195, Note_on_c, 1, 55, 80
3, 6201, Control_c, 1, 64, 127
3, 6277, Note_on_c, 1, 55, 0
3, 6360, Control_c, 1, 64, 0
3, 6486, Note_on_c, 1, 43, 76
3, 6530, Control_c, 1, 64, 127
3, 6539, Note_on_c, 1, 43, 0
3, 6547, Note_on_c, 1, 55, 86
3, 6600, Note_on_c, 1, 55, 0
3, 6605, Note_on_c, 1, 59, 84
3, 6650, Note_on_c, 1, 59, 0
3, 6706, Control_c, 1, 64, 0
3, 6848, Note_on_c, 1, 45, 71
3, 6887, Control_c, 1, 64, 127
3, 6911, Note_on_c, 1, 52, 81
3, 6923, Note_on_c, 1, 45, 0
3, 6973, Note_on_c, 1, 57, 66
3, 6979, Note_on_c, 1, 52, 0
3, 7040, Note_on_c, 1, 57, 0
3, 7056, Control_c, 1, 64, 0
3, 7221, Note_on_c, 1, 40, 63
3, 7260, Control_c, 1, 64, 127
3, 7279, Note_on_c, 1, 40, 0
3, 7290, Note_on_c, 1, 52, 64
3, 7345, Note_on_c, 1, 52, 0
3, 7986, Control_c, 1, 64, 0
3, 9017, Note_on_c, 1, 45, 69
3, 9056, Control_c, 1, 64, 127
3, 9072, Note_on_c, 1, 45, 0
3, 9076, Note_on_c, 1, 52, 66
3, 9136, Note_on_c, 1, 52, 0
3, 9136, Note_on_c, 1, 57, 68
3, 9164, Note_on_c, 1, 57, 0
3, 9257, Control_c, 1, 64, 0
3, 9360, Note_on_c, 1, 40, 65
3, 9390, Control_c, 1, 64, 127
3, 9400, Note_on_c, 1, 40, 0
3, 9417, Note_on_c, 1, 52, 73
3, 9469, Note_on_c, 1, 52, 0
3, 9475, Note_on_c, 1, 56, 81
3, 9527, Note_on_c, 1, 56, 0
3, 9572, Control_c, 1, 64, 0
3, 9705, Note_on_c, 1, 45, 66
3, 9732, Control_c, 1, 64, 127
3, 9762, Note_on_c, 1, 45, 0
3, 9765, Note_on_c, 1, 52, 63
3, 9826, Note_on_c, 1, 57, 67
3, 9830, Note_on_c, 1, 52, 0
3, 9893, Note_on_c, 1, 57, 0
3, 9955, Control_c, 1, 64, 0
3, 10433, Note_on_c, 1, 45, 62
3, 10471, Control_c, 1, 64, 127
3, 10490, Note_on_c, 1, 52, 68
3, 10493, Note_on_c, 1, 45, 0
3, 10545, Note_on_c, 1, 52, 0
3, 10550, Note_on_c, 1, 57, 63
3, 10610, Note_on_c, 1, 57, 0
3, 10620, Control_c, 1, 64, 0
3, 10792, Note_on_c, 1, 40, 66
3, 10825, Control_c, 1, 64, 127
3, 10837, Note_on_c, 1, 40, 0
3, 10850, Note_on_c, 1, 52, 80
3, 10900, Note_on_c, 1, 52, 0
3, 10910, Note_on_c, 1, 56, 74
3, 10970, Note_on_c, 1, 56, 0
3, 10996, Control_c, 1, 64, 0
3, 11175, Note_on_c, 1, 45, 69
3, 11200, Control_c, 1, 64, 127
3, 11245, Note_on_c, 1, 52, 78
3, 11260, Note_on_c, 1, 45, 0
3, 11320, Note_on_c, 1, 52, 0
3, 11322, Note_on_c, 1, 57, 67
3, 11389, Note_on_c, 1, 57, 0
3, 11427, Note_on_c, 1, 58, 60
3, 11430, Control_c, 1, 64, 0
3, 11466, Control_c, 1, 64, 127
3, 11502, Note_on_c, 1, 58, 0
3, 11510, Note_on_c, 1, 57, 69
3, 11565, Note_on_c, 1, 57, 0
3, 11580, Note_on_c, 1, 55, 77
3, 11580, Note_on_c, 1, 58, 67
3, 11639, Note_on_c, 1, 58, 0
3, 11639, Note_on_c, 1, 55, 0
3, 11682, Control_c, 1, 64, 0
3, 11696, Note_on_c, 1, 53, 85
3, 11740, Control_c, 1, 64, 127
3, 11747, Note_on_c, 1, 57, 71
3, 11781, Note_on_c, 1, 53, 0
3, 11812, Note_on_c, 1, 57, 0
3, 11847, Note_on_c, 1, 57, 91
3, 11892, Note_on_c, 1, 57, 0
3, 11939, Note_on_c, 1, 57, 82
3, 11990, Note_on_c, 1, 57, 0
3, 11996, Note_on_c, 1, 53, 80
3, 12000, Control_c, 1, 64, 0
3, 12045, Control_c, 1, 64, 127
3, 12045, Note_on_c, 1, 58, 99
3, 12054, Note_on_c, 1, 53, 0
3, 12095, Note_on_c, 1, 58, 0
3, 12135, Note_on_c, 1, 58, 97
3, 12180, Note_on_c, 1, 58, 0
3, 12225, Note_on_c, 1, 58, 84
3, 12278, Note_on_c, 1, 58, 0
3, 12285, Control_c, 1, 64, 0
3, 12286, Note_on_c, 1, 53, 84
3, 12330, Control_c, 1, 64, 127
3, 12336, Note_on_c, 1, 53, 0
3, 12381, Note_on_c, 1, 58, 81
3, 12382, Note_on_c, 1, 53, 57
3, 12383, Note_on_c, 1, 55, 81
3, 12391, Control_c, 1, 64, 0
3, 12412, Note_on_c, 1, 53, 0
3, 12425, Control_c, 1, 64, 127
3, 12426, Note_on_c, 1, 58, 0
3, 12428, Note_on_c, 1, 55, 0
3, 12471, Control_c, 1, 64, 0
3, 12480, Note_on_c, 1, 55, 73
3, 12481, Note_on_c, 1, 58, 66
3, 12482, Note_on_c, 1, 53, 75
3, 12495, Control_c, 1, 64, 127
3, 12524, Note_on_c, 1, 53, 0
3, 12526, Note_on_c, 1, 58, 0
3, 12526, Note_on_c, 1, 55, 0
3, 12572, Control_c, 1, 64, 0
3, 12582, Note_on_c, 1, 53, 70
3, 12633, Note_on_c, 1, 53, 0
3, 12635, Note_on_c, 1, 57, 71
3, 12635, Control_c, 1, 64, 127
3, 12683, Note_on_c, 1, 57, 0
3, 12737, Note_on_c, 1, 57, 78
3, 12767, Note_on_c, 1, 57, 0
3, 12807, Control_c, 1, 64, 0
3, 12836, Note_on_c, 1, 57, 77
3, 12882, Note_on_c, 1, 57, 0
3, 12888, Note_on_c, 1, 53, 74
3, 12934, Note_on_c, 1, 53, 0
3, 12937, Control_c, 1, 64, 127
3, 12937, Note_on_c, 1, 57, 74
3, 12992, Note_on_c, 1, 57, 0
3, 13036, Note_on_c, 1, 57, 71
3, 13079, Note_on_c, 1, 57, 0
3, 13142, Note_on_c, 1, 57, 84
3, 13165, Note_on_c, 1, 57, 0
3, 13200, Note_on_c, 1, 52, 69
3, 13207, Control_c, 1, 64, 0
3, 13250, Note_on_c, 1, 57, 84
3, 13270, Control_c, 1, 64, 127
3, 13303, Note_on_c, 1, 57, 0
3, 13340, Note_on_c, 1, 52, 0
3, 13350, Note_on_c, 1, 57, 83
3, 13396, Note_on_c, 1, 57, 0
3, 13405, Control_c, 1, 64, 0
3, 13406, Note_on_c, 1, 50, 77
3, 13450, Control_c, 1, 64, 127
3, 13456, Note_on_c, 1, 53, 93
3, 13461, Note_on_c, 1, 50, 0
3, 13509, Note_on_c, 1, 55, 97
3, 13511, Control_c, 1, 64, 0
3, 13515, Note_on_c, 1, 53, 0
3, 13554, Note_on_c, 1, 55, 0
3, 13565, Control_c, 1, 64, 127
3, 13610, Note_on_c, 1, 55, 98
3, 13647, Note_on_c, 1, 55, 0
3, 13717, Control_c, 1, 64, 0
3, 13725, Note_on_c, 1, 55, 92
3, 13766, Control_c, 1, 64, 127
3, 13781, Note_on_c, 1, 55, 0
3, 13820, Control_c, 1, 64, 0
3, 13867, Control_c, 1, 64, 127
3, 14002, Control_c, 1, 64, 0
3, 14195, Control_c, 1, 64, 127
3, 14290, Note_on_c, 1, 57, 65
3, 14290, Note_on_c, 1, 53, 71
3, 14292, Control_c, 1, 64, 0
3, 14380, Note_on_c, 1, 57, 0
3, 14396, Note_on_c, 1, 53, 0
3, 14405, Note_on_c, 1, 59, 81
3, 14405, Note_on_c, 1, 55, 66
3, 14516, Note_on_c, 1, 59, 0
3, 14525, Note_on_c, 1, 55, 0
3, 14910, Control_c, 1, 64, 127
3, 15005, Control_c, 1, 64, 0
3, 15006, Note_on_c, 1, 53, 83
3, 15006, Note_on_c, 1, 57, 65
3, 15112, Note_on_c, 1, 57, 0
3, 15122, Note_on_c, 1, 59, 71
3, 15123, Note_on_c, 1, 55, 62
3, 15126, Note_on_c, 1, 53, 0
3, 15240, Note_on_c, 1, 55, 0
3, 15241, Note_on_c, 1, 59, 0
3, 15260, Note_on_c, 1, 56, 72
3, 15262, Note_on_c, 1, 59, 78
3, 15457, Note_on_c, 1, 59, 0
3, 15463, Note_on_c, 1, 56, 0
3, 17786, Note_on_c, 1, 45, 65
3, 17826, Control_c, 1, 64, 127
3, 17846, Note_on_c, 1, 52, 67
3, 17849, Note_on_c, 1, 45, 0
3, 17900, Note_on_c, 1, 57, 67
3, 17919, Note_on_c, 1, 52, 0
3, 17960, Note_on_c, 1, 57, 0
3, 18047, Control_c, 1, 64, 0
3, 18130, Note_on_c, 1, 40, 77
3, 18160, Control_c, 1, 64, 127
3, 18170, Note_on_c, 1, 40, 0
3, 18182, Note_on_c, 1, 52, 87
3, 18230, Note_on_c, 1, 52, 0
3, 18236, Note_on_c, 1, 56, 86
3, 18295, Note_on_c, 1, 56, 0
3, 18385, Control_c, 1, 64, 0
3, 18455, Note_on_c, 1, 45, 63
3, 18516, Control_c, 1, 64, 127
3, 18525, Note_on_c, 1, 52, 67
3, 18527, Note_on_c, 1, 45, 0
3, 18585, Note_on_c, 1, 57, 62
3, 18615, Note_on_c, 1, 52, 0
3, 18644, Note_on_c, 1, 57, 0
3, 18681, Control_c, 1, 64, 0
3, 19172, Note_on_c, 1, 45, 71
3, 19215, Control_c, 1, 64, 127
3, 19228, Note_on_c, 1, 45, 0
3, 19232, Note_on_c, 1, 52, 73
3, 19292, Note_on_c, 1, 57, 68
3, 19307, Note_on_c, 1, 52, 0
3, 19352, Note_on_c, 1, 57, 0
3, 19395, Control_c, 1, 64, 0
3, 19500, Note_on_c, 1, 40, 71
3, 19530, Control_c, 1, 64, 127
3, 19542, Note_on_c, 1, 40, 0
3, 19557, Note_on_c, 1, 52, 69
3, 19593, Note_on_c, 1, 52, 0
3, 19605, Note_on_c, 1, 56, 84
3, 19664, Note_on_c, 1, 56, 0
3, 19681, Control_c, 1, 64, 0
3, 19831, Note_on_c, 1, 45, 71
3, 19881, Control_c, 1, 64, 127
3, 19886, Note_on_c, 1, 45, 0
3, 19891, Note_on_c, 1, 52, 73
3, 19952, Note_on_c, 1, 57, 69
3, 19964, Note_on_c, 1, 52, 0
3, 19990, Note_on_c, 1, 57, 0
3, 20050, Control_c, 1, 64, 0
3, 20172, Note_on_c, 1, 48, 76
3, 20210, Control_c, 1, 64, 127
3, 20225, Note_on_c, 1, 55, 94
3, 20227, Note_on_c, 1, 48, 0
3, 20300, Note_on_c, 1, 55, 0
3, 20396, Control_c, 1, 64, 0
3, 20493, Note_on_c, 1, 43, 81
3, 20520, Control_c, 1, 64, 127
3, 20540, Note_on_c, 1, 43, 0
3, 20551, Note_on_c, 1, 55, 73
3, 20594, Note_on_c, 1, 55, 0
3, 20605, Note_on_c, 1, 59, 76
3, 20665, Note_on_c, 1, 59, 0
3, 20696, Control_c, 1, 64, 0
3, 20831, Note_on_c, 1, 45, 66
3, 20887, Note_on_c, 1, 52, 81
3, 20896, Note_on_c, 1, 45, 0
3, 20945, Note_on_c, 1, 57, 69
3, 20960, Note_on_c, 1, 52, 0
3, 21005, Note_on_c, 1, 57, 0
3, 21202, Note_on_c, 1, 40, 67
3, 21202, Control_c, 1, 64, 127
3, 21254, Note_on_c, 1, 40, 0
3, 21270, Note_on_c, 1, 52, 64
3, 21330, Note_on_c, 1, 52, 0
3, 21807, Control_c, 1, 64, 0
3, 23040, Note_on_c, 1, 45, 68
3, 23085, Control_c, 1, 64, 127
3, 23091, Note_on_c, 1, 45, 0
3, 23101, Note_on_c, 1, 52, 68
3, 23155, Note_on_c, 1, 57, 65
3, 23161, Note_on_c, 1, 52, 0
3, 23200, Note_on_c, 1, 57, 0
3, 23276, Control_c, 1, 64, 0
3, 23375, Note_on_c, 1, 40, 65
3, 23405, Control_c, 1, 64, 127
3, 23412, Note_on_c, 1, 40, 0
3, 23431, Note_on_c, 1, 52, 70
3, 23476, Note_on_c, 1, 52, 0
3, 23485, Note_on_c, 1, 56, 78
3, 23537, Note_on_c, 1, 56, 0
3, 23600, Control_c, 1, 64, 0
3, 23707, Note_on_c, 1, 45, 61
3, 23747, Control_c, 1, 64, 127
3, 23770, Note_on_c, 1, 52, 65
3, 23775, Note_on_c, 1, 45, 0
3, 23825, Note_on_c, 1, 57, 59
3, 23827, Note_on_c, 1, 52, 0
3, 23892, Note_on_c, 1, 57, 0
3, 23947, Control_c, 1, 64, 0
3, 24415, Note_on_c, 1, 45, 63
3, 24455, Control_c, 1, 64, 127
3, 24470, Note_on_c, 1, 45, 0
3, 24470, Note_on_c, 1, 52, 71
3, 24515, Note_on_c, 1, 57, 64
3, 24520, Note_on_c, 1, 52, 0
3, 24567, Note_on_c, 1, 57, 0
3, 24700, Control_c, 1, 64, 0
3, 24735, Note_on_c, 1, 40, 64
3, 24775, Note_on_c, 1, 40, 0
3, 24780, Control_c, 1, 64, 127
3, 24787, Note_on_c, 1, 52, 74
3, 24840, Note_on_c, 1, 52, 0
3, 24845, Note_on_c, 1, 56, 86
3, 24890, Note_on_c, 1, 56, 0
3, 24995, Control_c, 1, 64, 0
3, 25082, Note_on_c, 1, 45, 80
3, 25108, Note_on_c, 1, 45, 0
3, 25125, Control_c, 1, 64, 127
3, 25145, Note_on_c, 1, 45, 80
3, 25165, Note_on_c, 1, 45, 0
3, 25200, Note_on_c, 1, 45, 86
3, 25218, Note_on_c, 1, 45, 0
3, 25252, Note_on_c, 1, 45, 87
3, 25272, Note_on_c, 1, 45, 0
3, 25306, Note_on_c, 1, 45, 81
3, 25336, Note_on_c, 1, 45, 0
3, 25365, Note_on_c, 1, 45, 72
3, 25383, Note_on_c, 1, 45, 0
3, 25420, Control_c, 1, 64, 0
3, 25421, Note_on_c, 1, 45, 80
3, 25446, Note_on_c, 1, 45, 0
3, 25472, Control_c, 1, 64, 127
3, 25480, Note_on_c, 1, 45, 83
3, 25500, Note_on_c, 1, 45, 0
3, 25530, Note_on_c, 1, 45, 83
3, 25550, Note_on_c, 1, 45, 0
3, 25580, Note_on_c, 1, 45, 79
3, 25600, Note_on_c, 1, 45, 0
3, 25635, Note_on_c, 1, 45, 79
3, 25655, Note_on_c, 1, 45, 0
3, 25688, Note_on_c, 1, 45, 80
3, 25708, Note_on_c, 1, 45, 0
3, 25740, Control_c, 1, 64, 0
3, 25741, Note_on_c, 1, 45, 81
3, 25761, Note_on_c, 1, 45, 0
3, 25786, Control_c, 1, 64, 127
3, 25795, Note_on_c, 1, 45, 81
3, 25810, Note_on_c, 1, 45, 0
3, 25845, Note_on_c, 1, 45, 86
3, 25863, Note_on_c, 1, 45, 0
3, 25891, Note_on_c, 1, 45, 87
3, 25907, Note_on_c, 1, 45, 0
3, 25940, Control_c, 1, 64, 0
3, 25940, Note_on_c, 1, 45, 93
3, 25955, Note_on_c, 1, 45, 0
3, 25956, Control_c, 1, 64, 127
3, 25990, Note_on_c, 1, 45, 90
3, 26008, Note_on_c, 1, 45, 0
3, 26045, Note_on_c, 1, 45, 86
3, 26060, Control_c, 1, 64, 0
3, 26065, Note_on_c, 1, 45, 0
3, 26100, Note_on_c, 1, 45, 90
3, 26110, Control_c, 1, 64, 127
3, 26120, Note_on_c, 1, 45, 0
3, 26150, Note_on_c, 1, 45, 90
3, 26166, Note_on_c, 1, 45, 0
3, 26203, Note_on_c, 1, 45, 89
3, 26219, Note_on_c, 1, 45, 0
3, 26254, Note_on_c, 1, 45, 86
3, 26257, Control_c, 1, 64, 0
3, 26279, Note_on_c, 1, 45, 0
3, 26280, Control_c, 1, 64, 127
3, 26305, Note_on_c, 1, 45, 102
3, 26323, Note_on_c, 1, 45, 0
3, 26356, Note_on_c, 1, 45, 101
3, 26360, Control_c, 1, 64, 0
3, 26381, Note_on_c, 1, 45, 0
3, 26400, Control_c, 1, 64, 127
3, 26405, Note_on_c, 1, 45, 105
3, 26420, Note_on_c, 1, 45, 0
3, 26455, Note_on_c, 1, 45, 108
3, 26473, Note_on_c, 1, 45, 0
3, 26480, Control_c, 1, 64, 0
3, 26505, Note_on_c, 1, 45, 103
3, 26520, Note_on_c, 1, 45, 0
3, 26546, Control_c, 1, 64, 127
3, 26556, Note_on_c, 1, 45, 105
3, 26571, Note_on_c, 1, 45, 0
3, 26605, Note_on_c, 1, 45, 102
3, 26620, Note_on_c, 1, 45, 0
3, 26658, Note_on_c, 1, 38, 83
3, 26658, Note_on_c, 1, 45, 92
3, 26662, Control_c, 1, 64, 0
3, 26679, Note_on_c, 1, 45, 0
3, 26688, Note_on_c, 1, 38, 0
3, 26707, Control_c, 1, 64, 127
3, 26713, Note_on_c, 1, 45, 96
3, 26713, Note_on_c, 1, 38, 86
3, 26733, Note_on_c, 1, 38, 0
3, 26733, Note_on_c, 1, 45, 0
3, 26760, Note_on_c, 1, 38, 99
3, 26761, Note_on_c, 1, 45, 98
3, 26781, Note_on_c, 1, 45, 0
3, 26783, Note_on_c, 1, 38, 0
3, 26807, Note_on_c, 1, 45, 103
3, 26808, Note_on_c, 1, 38, 104
3, 26823, Note_on_c, 1, 38, 0
3, 26825, Note_on_c, 1, 45, 0
3, 26855, Note_on_c, 1, 38, 103
3, 26858, Note_on_c, 1, 45, 112
3, 26870, Note_on_c, 1, 38, 0
3, 26878, Note_on_c, 1, 45, 0
3, 26900, Note_on_c, 1, 45, 95
3, 26900, Note_on_c, 1, 38, 95
3, 26915, Note_on_c, 1, 45, 0
3, 26916, Note_on_c, 1, 38, 0
3, 26955, Note_on_c, 1, 45, 81
3, 26955, Note_on_c, 1, 39, 87
3, 26960, Control_c, 1, 64, 0
3, 26975, Note_on_c, 1, 39, 0
3, 26986, Note_on_c, 1, 45, 0
3, 27005, Control_c, 1, 64, 127
3, 27010, Note_on_c, 1, 45, 87
3, 27010, Note_on_c, 1, 39, 98
3, 27028, Note_on_c, 1, 39, 0
3, 27031, Note_on_c, 1, 45, 0
3, 27055, Note_on_c, 1, 39, 96
3, 27055, Note_on_c, 1, 45, 94
3, 27072, Note_on_c, 1, 39, 0
3, 27075, Note_on_c, 1, 45, 0
3, 27100, Note_on_c, 1, 39, 104
3, 27100, Note_on_c, 1, 45, 93
3, 27116, Note_on_c, 1, 39, 0
3, 27120, Note_on_c, 1, 45, 0
3, 27140, Control_c, 1, 64, 0
3, 27149, Note_on_c, 1, 45, 101
3, 27149, Note_on_c, 1, 39, 97
3, 27170, Note_on_c, 1, 39, 0
3, 27170, Note_on_c, 1, 45, 0
3, 27195, Note_on_c, 1, 39, 105
3, 27196, Note_on_c, 1, 45, 101
3, 27220, Note_on_c, 1, 39, 0
3, 27221, Note_on_c, 1, 45, 0
3, 27250, Note_on_c, 1, 45, 92
3, 27250, Note_on_c, 1, 40, 84
3, 27270, Note_on_c, 1, 40, 0
3, 27270, Note_on_c, 1, 45, 0
3, 27300, Note_on_c, 1, 45, 83
3, 27302, Note_on_c, 1, 40, 83
3, 27322, Note_on_c, 1, 40, 0
3, 27322, Note_on_c, 1, 45, 0
3, 27352, Note_on_c, 1, 45, 86
3, 27352, Note_on_c, 1, 40, 79
3, 27369, Note_on_c, 1, 40, 0
3, 27372, Note_on_c, 1, 45, 0
3, 27398, Note_on_c, 1, 40, 86
3, 27400, Note_on_c, 1, 45, 93
3, 27416, Note_on_c, 1, 45, 0
3, 27416, Note_on_c, 1, 40, 0
3, 27446, Note_on_c, 1, 44, 95
3, 27447, Note_on_c, 1, 40, 86
3, 27464, Note_on_c, 1, 44, 0
3, 27465, Note_on_c, 1, 40, 0
3, 27503, Note_on_c, 1, 44, 103
3, 27503, Note_on_c, 1, 40, 66
3, 27518, Note_on_c, 1, 44, 0
3, 27521, Note_on_c, 1, 40, 0
3, 27564, Note_on_c, 1, 45, 66
3, 27566, Note_on_c, 1, 33, 77
3, 27589, Note_on_c, 1, 45, 0
3, 27596, Note_on_c, 1, 33, 0
3, 27605, Control_c, 1, 64, 127
3, 27625, Note_on_c, 1, 45, 66
3, 27646, Note_on_c, 1, 45, 0
3, 27675, Note_on_c, 1, 45, 81
3, 27695, Note_on_c, 1, 45, 0
3, 27726, Note_on_c, 1, 45, 76
3, 27744, Note_on_c, 1, 45, 0
3, 27776, Note_on_c, 1, 45, 75
3, 27791, Note_on_c, 1, 45, 0
3, 27821, Note_on_c, 1, 45, 75
3, 27837, Note_on_c, 1, 45, 0
3, 27871, Control_c, 1, 64, 0
3, 27876, Note_on_c, 1, 45, 98
3, 27901, Note_on_c, 1, 45, 0
3, 27920, Control_c, 1, 64, 127
3, 27922, Note_on_c, 1, 45, 93
3, 27950, Note_on_c, 1, 45, 0
3, 27971, Note_on_c, 1, 45, 92
3, 27996, Note_on_c, 1, 45, 0
3, 28021, Note_on_c, 1, 45, 89
3, 28049, Note_on_c, 1, 45, 0
3, 28070, Note_on_c, 1, 45, 93
3, 28100, Note_on_c, 1, 45, 0
3, 28120, Note_on_c, 1, 45, 95
3, 28145, Note_on_c, 1, 45, 0
3, 28170, Note_on_c, 1, 45, 96
3, 28175, Control_c, 1, 64, 0
3, 28185, Note_on_c, 1, 45, 0
3, 28211, Control_c, 1, 64, 127
3, 28220, Note_on_c, 1, 45, 93
3, 28235, Note_on_c, 1, 45, 0
3, 28265, Note_on_c, 1, 45, 90
3, 28292, Note_on_c, 1, 45, 0
3, 28312, Note_on_c, 1, 45, 92
3, 28334, Note_on_c, 1, 45, 0
3, 28346, Control_c, 1, 64, 0
3, 28355, Note_on_c, 1, 45, 87
3, 28375, Note_on_c, 1, 45, 0
3, 28380, Control_c, 1, 64, 127
3, 28408, Note_on_c, 1, 45, 90
3, 28425, Note_on_c, 1, 45, 0
3, 28460, Note_on_c, 1, 45, 93
3, 28466, Control_c, 1, 64, 0
3, 28485, Note_on_c, 1, 45, 0
3, 28505, Note_on_c, 1, 45, 91
3, 28510, Control_c, 1, 64, 127
3, 28522, Note_on_c, 1, 45, 0
3, 28550, Note_on_c, 1, 45, 93
3, 28567, Note_on_c, 1, 45, 0
3, 28598, Note_on_c, 1, 45, 90
3, 28613, Note_on_c, 1, 45, 0
3, 28640, Control_c, 1, 64, 0
3, 28648, Note_on_c, 1, 45, 86
3, 28663, Note_on_c, 1, 45, 0
3, 28671, Control_c, 1, 64, 127
3, 28699, Note_on_c, 1, 45, 96
3, 28719, Note_on_c, 1, 45, 0
3, 28750, Note_on_c, 1, 46, 88
3, 28755, Control_c, 1, 64, 0
3, 28786, Note_on_c, 1, 46, 0
3, 28795, Control_c, 1, 64, 127
3, 28810, Note_on_c, 1, 46, 93
3, 28825, Note_on_c, 1, 46, 0
3, 28855, Note_on_c, 1, 46, 87
3, 28872, Note_on_c, 1, 46, 0
3, 28895, Note_on_c, 1, 46, 87
3, 28913, Note_on_c, 1, 46, 0
3, 28940, Note_on_c, 1, 46, 91
3, 28955, Note_on_c, 1, 46, 0
3, 28988, Note_on_c, 1, 46, 93
3, 29003, Note_on_c, 1, 46, 0
3, 29025, Control_c, 1, 64, 0
3, 29040, Note_on_c, 1, 46, 86
3, 29060, Note_on_c, 1, 46, 0
3, 29076, Control_c, 1, 64, 127
3, 29077, Control_c, 1, 64, 0
3, 29077, Control_c, 1, 64, 127
3, 29087, Note_on_c, 1, 46, 89
3, 29107, Note_on_c, 1, 46, 0
3, 29136, Note_on_c, 1, 46, 90
3, 29156, Note_on_c, 1, 46, 0
3, 29185, Note_on_c, 1, 46, 92
3, 29200, Note_on_c, 1, 46, 0
3, 29233, Note_on_c, 1, 46, 88
3, 29248, Note_on_c, 1, 46, 0
3, 29280, Note_on_c, 1, 46, 88
3, 29298, Note_on_c, 1, 46, 0
3, 29335, Note_on_c, 1, 46, 88
3, 29345, Control_c, 1, 64, 0
3, 29355, Note_on_c, 1, 46, 0
3, 29383, Note_on_c, 1, 46, 87
3, 29398, Note_on_c, 1, 46, 0
3, 29430, Note_on_c, 1, 46, 91
3, 29450, Note_on_c, 1, 46, 0
3, 29480, Note_on_c, 1, 46, 89
3, 29500, Note_on_c, 1, 46, 0
3, 29536, Note_on_c, 1, 46, 89
3, 29556, Note_on_c, 1, 46, 0
3, 29585, Note_on_c, 1, 46, 87
3, 29605, Note_on_c, 1, 46, 0
3, 29638, Note_on_c, 1, 47, 73
3, 29663, Note_on_c, 1, 47, 0
3, 29688, Note_on_c, 1, 47, 81
3, 29711, Note_on_c, 1, 47, 0
3, 29738, Note_on_c, 1, 47, 87
3, 29758, Note_on_c, 1, 47, 0
3, 29788, Note_on_c, 1, 47, 78
3, 29806, Note_on_c, 1, 47, 0
3, 29835, Note_on_c, 1, 47, 83
3, 29855, Note_on_c, 1, 47, 0
3, 29888, Note_on_c, 1, 47, 97
3, 29903, Note_on_c, 1, 47, 0
3, 29950, Note_on_c, 1, 48, 68
3, 30099, Note_on_c, 1, 48, 0
3, 30326, Note_on_c, 1, 56, 58
3, 30326, Note_on_c, 1, 52, 61
3, 30475, Note_on_c, 1, 52, 0
3, 30475, Note_on_c, 1, 56, 0
3, 30720, Note_on_c, 1, 33, 64
3, 30721, Note_on_c, 1, 57, 67
3, 30745, Control_c, 1, 64, 127
3, 30759, Note_on_c, 1, 57, 0
3, 30809, Note_on_c, 1, 33, 0
3, 30941, Control_c, 1, 64, 0
3, 30941, Note_on_c, 1, 57, 73
3, 30980, Control_c, 1, 64, 127
3, 31000, Note_on_c, 1, 57, 0
3, 31045, Note_on_c, 1, 57, 74
3, 31050, Control_c, 1, 64, 0
3, 31100, Control_c, 1, 64, 127
3, 31134, Note_on_c, 1, 57, 0
3, 31255, Control_c, 1, 64, 0
3, 31260, Note_on_c, 1, 57, 77
3, 31295, Note_on_c, 1, 57, 0
3, 31300, Control_c, 1, 64, 127
3, 31365, Control_c, 1, 64, 0
3, 31366, Note_on_c, 1, 57, 81
3, 31420, Control_c, 1, 64, 127
3, 31501, Note_on_c, 1, 57, 0
3, 31595, Control_c, 1, 64, 0
3, 31601, Note_on_c, 1, 57, 77
3, 31640, Control_c, 1, 64, 127
3, 31656, Note_on_c, 1, 57, 0
3, 31730, Note_on_c, 1, 57, 69
3, 31735, Control_c, 1, 64, 0
3, 31908, Note_on_c, 1, 57, 0
3, 33052, Note_on_c, 1, 45, 63
3, 33095, Control_c, 1, 64, 127
3, 33115, Note_on_c, 1, 52, 61
3, 33122, Note_on_c, 1, 45, 0
3, 33175, Note_on_c, 1, 57, 63
3, 33198, Note_on_c, 1, 52, 0
3, 33218, Note_on_c, 1, 57, 0
3, 33376, Control_c, 1, 64, 0
3, 33382, Note_on_c, 1, 40, 74
3, 33412, Control_c, 1, 64, 127
3, 33420, Note_on_c, 1, 40, 0
3, 33430, Note_on_c, 1, 52, 71
3, 33477, Note_on_c, 1, 56, 79
3, 33480, Note_on_c, 1, 52, 0
3, 33498, Note_on_c, 1, 56, 0
3, 33668, Note_on_c, 1, 45, 63
3, 33675, Control_c, 1, 64, 0
3, 33720, Control_c, 1, 64, 127
3, 33725, Note_on_c, 1, 52, 76
3, 33743, Note_on_c, 1, 45, 0
3, 33775, Note_on_c, 1, 57, 68
3, 33790, Note_on_c, 1, 52, 0
3, 33834, Note_on_c, 1, 57, 0
3, 33890, Control_c, 1, 64, 0
3, 34299, Note_on_c, 1, 45, 62
3, 34332, Control_c, 1, 64, 127
3, 34354, Note_on_c, 1, 45, 0
3, 34360, Note_on_c, 1, 52, 60
3, 34405, Note_on_c, 1, 57, 65
3, 34420, Note_on_c, 1, 52, 0
3, 34457, Note_on_c, 1, 57, 0
3, 34590, Control_c, 1, 64, 0
3, 34591, Note_on_c, 1, 40, 69
3, 34622, Control_c, 1, 64, 127
3, 34632, Note_on_c, 1, 40, 0
3, 34650, Note_on_c, 1, 52, 67
3, 34698, Note_on_c, 1, 52, 0
3, 34705, Note_on_c, 1, 56, 76
3, 34742, Note_on_c, 1, 56, 0
3, 34892, Control_c, 1, 64, 0
3, 34907, Note_on_c, 1, 45, 55
3, 34950, Control_c, 1, 64, 127
3, 34971, Note_on_c, 1, 52, 67
3, 34975, Note_on_c, 1, 45, 0
3, 35035, Note_on_c, 1, 57, 58
3, 35039, Note_on_c, 1, 52, 0
3, 35095, Note_on_c, 1, 57, 0
3, 35121, Control_c, 1, 64, 0
3, 35260, Note_on_c, 1, 48, 64
3, 35300, Control_c, 1, 64, 127
3, 35320, Note_on_c, 1, 55, 74
3, 35325, Note_on_c, 1, 48, 0
3, 35402, Note_on_c, 1, 55, 0
3, 35560, Control_c, 1, 64, 0
3, 35565, Note_on_c, 1, 43, 71
3, 35605, Control_c, 1, 64, 127
3, 35613, Note_on_c, 1, 43, 0
3, 35620, Note_on_c, 1, 55, 71
3, 35670, Note_on_c, 1, 59, 67
3, 35673, Note_on_c, 1, 55, 0
3, 35713, Note_on_c, 1, 59, 0
3, 35801, Control_c, 1, 64, 0
3, 35875, Note_on_c, 1, 45, 64
3, 35912, Control_c, 1, 64, 127
3, 35932, Note_on_c, 1, 45, 0
3, 35935, Note_on_c, 1, 52, 62
3, 35986, Note_on_c, 1, 57, 64
3, 36005, Note_on_c, 1, 52, 0
3, 36045, Note_on_c, 1, 57, 0
3, 36066, Control_c, 1, 64, 0
3, 36236, Note_on_c, 1, 40, 61
3, 36265, Control_c, 1, 64, 127
3, 36299, Note_on_c, 1, 40, 0
3, 36317, Note_on_c, 1, 52, 63
3, 36375, Note_on_c, 1, 52, 0
3, 36855, Control_c, 1, 64, 0
3, 38168, Note_on_c, 1, 45, 64
3, 38212, Control_c, 1, 64, 127
3, 38231, Note_on_c, 1, 52, 61
3, 38243, Note_on_c, 1, 45, 0
3, 38281, Note_on_c, 1, 52, 0
3, 38290, Note_on_c, 1, 57, 57
3, 38349, Note_on_c, 1, 57, 0
3, 38470, Control_c, 1, 64, 0
3, 38493, Note_on_c, 1, 40, 66
3, 38530, Control_c, 1, 64, 127
3, 38533, Note_on_c, 1, 40, 0
3, 38546, Note_on_c, 1, 52, 71
3, 38601, Note_on_c, 1, 56, 78
3, 38605, Note_on_c, 1, 52, 0
3, 38660, Note_on_c, 1, 56, 0
3, 38750, Control_c, 1, 64, 0
3, 38825, Note_on_c, 1, 45, 58
3, 38875, Control_c, 1, 64, 127
3, 38895, Note_on_c, 1, 52, 62
3, 38900, Note_on_c, 1, 45, 0
3, 38960, Note_on_c, 1, 57, 62
3, 38966, Note_on_c, 1, 52, 0
3, 39020, Note_on_c, 1, 57, 0
3, 39081, Control_c, 1, 64, 0
3, 39539, Note_on_c, 1, 45, 67
3, 39580, Control_c, 1, 64, 127
3, 39604, Note_on_c, 1, 45, 0
3, 39605, Note_on_c, 1, 52, 68
3, 39655, Note_on_c, 1, 57, 74
3, 39672, Note_on_c, 1, 52, 0
3, 39715, Note_on_c, 1, 57, 0
3, 39875, Control_c, 1, 64, 0
3, 39882, Note_on_c, 1, 40, 65
3, 39922, Control_c, 1, 64, 127
3, 39927, Note_on_c, 1, 40, 0
3, 39947, Note_on_c, 1, 52, 63
3, 39993, Note_on_c, 1, 52, 0
3, 40015, Note_on_c, 1, 56, 68
3, 40051, Note_on_c, 1, 56, 0
3, 40150, Control_c, 1, 64, 0
3, 40388, Note_on_c, 1, 45, 58
3, 40388, Note_on_c, 1, 33, 55
3, 40490, Control_c, 1, 121, 0
3, 40777, Note_on_c, 1, 33, 0
3, 40777, Note_on_c, 1, 45, 0
3, 40777, End_track
0, 0, End_of_file
