0, 0, Header, 1, 6, 120
1, 0, Start_track
1, 0, Title_t, "untitled"
1, 0, SMPTE_offset, 96, 0, 3, 0, 0
1, 0, MIDI_port, 0
1, 0, System_exclusive, 10, 65, 16, 66, 18, 64, 0, 127, 0, 65, 247
1, 0, MIDI_port, 0
1, 0, System_exclusive, 10, 65, 16, 66, 18, 64, 1, 48, 3, 12, 247
1, 0, MIDI_port, 0
1, 0, Time_signature, 4, 2, 24, 8
1, 0, Key_signature, 0, "major"
1, 0, Tempo, 300000
1, 475, Tempo, 352941
1, 5283, Tempo, 355030
1, 5760, Tempo, 357143
1, 7203, Tempo, 361446
1, 8160, Tempo, 365854
1, 8643, Tempo, 359281
1, 9123, Tempo, 370370
1, 9600, Tempo, 361446
1, 11040, Tempo, 357143
1, 18240, Tempo, 361446
1, 18726, Tempo, 365854
1, 19200, Tempo, 370370
1, 19680, Tempo, 361446
1, 20400, Tempo, 352941
1, 20643, Tempo, 357143
1, 20880, Tempo, 368098
1, 21120, Tempo, 375000
1, 21360, Tempo, 361446
1, 22560, Tempo, 357143
1, 23283, Tempo, 379747
1, 23400, Tempo, 416667
1, 23520, Tempo, 377358
1, 23640, Tempo, 357143
1, 25436, Tempo, 352941
1, 36480, Tempo, 357143
1, 36720, Tempo, 363636
1, 36960, Tempo, 375000
1, 36960, End_track
2, 0, Start_track
2, 0, MIDI_port, 0
2, 0, Title_t, "Etude No. 1"
2, 119, Control_c, 0, 93, 20
2, 119, Control_c, 0, 0, 0
2, 119, Control_c, 0, 91, 64
2, 120, Control_c, 0, 0, 0
2, 122, Program_c, 0, 0
2, 123, Control_c, 0, 7, 127
2, 480, Note_on_c, 0, 36, 93
2, 480, Note_on_c, 0, 48, 94
2, 480, Control_c, 0, 64, 127
2, 506, Note_on_c, 0, 48, 0
2, 510, Note_on_c, 0, 48, 80
2, 540, Note_on_c, 0, 55, 82
2, 566, Note_on_c, 0, 55, 0
2, 570, Note_on_c, 0, 60, 72
2, 596, Note_on_c, 0, 60, 0
2, 600, Note_on_c, 0, 64, 82
2, 626, Note_on_c, 0, 64, 0
2, 630, Note_on_c, 0, 60, 61
2, 656, Note_on_c, 0, 60, 0
2, 660, Note_on_c, 0, 67, 73
2, 686, Note_on_c, 0, 67, 0
2, 690, Note_on_c, 0, 72, 72
2, 716, Note_on_c, 0, 72, 0
2, 720, Note_on_c, 0, 76, 80
2, 746, Note_on_c, 0, 76, 0
2, 750, Note_on_c, 0, 72, 66
2, 776, Note_on_c, 0, 72, 0
2, 780, Note_on_c, 0, 79, 70
2, 806, Note_on_c, 0, 79, 0
2, 810, Note_on_c, 0, 84, 67
2, 836, Note_on_c, 0, 84, 0
2, 840, Note_on_c, 0, 88, 78
2, 866, Note_on_c, 0, 88, 0
2, 870, Note_on_c, 0, 84, 59
2, 896, Note_on_c, 0, 84, 0
2, 900, Note_on_c, 0, 91, 76
2, 926, Note_on_c, 0, 91, 0
2, 930, Note_on_c, 0, 96, 73
2, 956, Note_on_c, 0, 96, 0
2, 960, Note_on_c, 0, 100, 78
2, 986, Note_on_c, 0, 100, 0
2, 990, Note_on_c, 0, 96, 65
2, 1016, Note_on_c, 0, 96, 0
2, 1020, Note_on_c, 0, 91, 57
2, 1046, Note_on_c, 0, 91, 0
2, 1050, Note_on_c, 0, 84, 52
2, 1076, Note_on_c, 0, 84, 0
2, 1080, Note_on_c, 0, 88, 77
2, 1106, Note_on_c, 0, 88, 0
2, 1110, Note_on_c, 0, 84, 71
2, 1136, Note_on_c, 0, 84, 0
2, 1140, Note_on_c, 0, 79, 69
2, 1166, Note_on_c, 0, 79, 0
2, 1170, Note_on_c, 0, 72, 66
2, 1196, Note_on_c, 0, 72, 0
2, 1200, Note_on_c, 0, 76, 79
2, 1226, Note_on_c, 0, 76, 0
2, 1230, Note_on_c, 0, 72, 55
2, 1256, Note_on_c, 0, 72, 0
2, 1260, Note_on_c, 0, 67, 70
2, 1286, Note_on_c, 0, 67, 0
2, 1290, Note_on_c, 0, 60, 58
2, 1316, Note_on_c, 0, 60, 0
2, 1320, Note_on_c, 0, 64, 77
2, 1346, Note_on_c, 0, 64, 0
2, 1350, Note_on_c, 0, 60, 61
2, 1376, Note_on_c, 0, 60, 0
2, 1380, Note_on_c, 0, 55, 76
2, 1396, Note_on_c, 0, 48, 0
2, 1406, Note_on_c, 0, 55, 0
2, 1410, Note_on_c, 0, 48, 66
2, 1414, Note_on_c, 0, 36, 0
2, 1418, Control_c, 0, 64, 0
2, 1436, Note_on_c, 0, 48, 0
2, 1446, Control_c, 0, 64, 127
2, 1449, Note_on_c, 0, 41, 93
2, 1450, Note_on_c, 0, 29, 94
2, 1470, Note_on_c, 0, 48, 56
2, 1496, Note_on_c, 0, 48, 0
2, 1500, Note_on_c, 0, 57, 72
2, 1526, Note_on_c, 0, 57, 0
2, 1530, Note_on_c, 0, 60, 63
2, 1556, Note_on_c, 0, 60, 0
2, 1560, Note_on_c, 0, 65, 78
2, 1586, Note_on_c, 0, 65, 0
2, 1590, Note_on_c, 0, 60, 54
2, 1616, Note_on_c, 0, 60, 0
2, 1620, Note_on_c, 0, 69, 63
2, 1646, Note_on_c, 0, 69, 0
2, 1650, Note_on_c, 0, 72, 63
2, 1676, Note_on_c, 0, 72, 0
2, 1680, Note_on_c, 0, 77, 79
2, 1706, Note_on_c, 0, 77, 0
2, 1710, Note_on_c, 0, 72, 60
2, 1736, Note_on_c, 0, 72, 0
2, 1740, Note_on_c, 0, 81, 65
2, 1766, Note_on_c, 0, 81, 0
2, 1770, Note_on_c, 0, 84, 65
2, 1796, Note_on_c, 0, 84, 0
2, 1800, Note_on_c, 0, 89, 77
2, 1826, Note_on_c, 0, 89, 0
2, 1830, Note_on_c, 0, 84, 46
2, 1856, Note_on_c, 0, 84, 0
2, 1860, Note_on_c, 0, 93, 56
2, 1873, Note_on_c, 0, 41, 0
2, 1886, Note_on_c, 0, 93, 0
2, 1890, Note_on_c, 0, 96, 61
2, 1900, Note_on_c, 0, 29, 0
2, 1900, Control_c, 0, 64, 0
2, 1916, Note_on_c, 0, 96, 0
2, 1918, Note_on_c, 0, 30, 93
2, 1918, Control_c, 0, 64, 127
2, 1919, Note_on_c, 0, 42, 95
2, 1920, Note_on_c, 0, 100, 77
2, 1946, Note_on_c, 0, 100, 0
2, 1950, Note_on_c, 0, 96, 62
2, 1976, Note_on_c, 0, 96, 0
2, 1980, Note_on_c, 0, 93, 52
2, 2006, Note_on_c, 0, 93, 0
2, 2010, Note_on_c, 0, 84, 51
2, 2036, Note_on_c, 0, 84, 0
2, 2040, Note_on_c, 0, 88, 79
2, 2066, Note_on_c, 0, 88, 0
2, 2070, Note_on_c, 0, 84, 65
2, 2096, Note_on_c, 0, 84, 0
2, 2100, Note_on_c, 0, 81, 65
2, 2126, Note_on_c, 0, 81, 0
2, 2130, Note_on_c, 0, 72, 67
2, 2156, Note_on_c, 0, 72, 0
2, 2160, Note_on_c, 0, 76, 76
2, 2186, Note_on_c, 0, 76, 0
2, 2190, Note_on_c, 0, 72, 73
2, 2216, Note_on_c, 0, 72, 0
2, 2220, Note_on_c, 0, 69, 62
2, 2246, Note_on_c, 0, 69, 0
2, 2250, Note_on_c, 0, 60, 57
2, 2276, Note_on_c, 0, 60, 0
2, 2280, Note_on_c, 0, 62, 79
2, 2306, Note_on_c, 0, 62, 0
2, 2310, Note_on_c, 0, 60, 46
2, 2336, Note_on_c, 0, 60, 0
2, 2340, Note_on_c, 0, 57, 66
2, 2366, Note_on_c, 0, 57, 0
2, 2370, Note_on_c, 0, 48, 56
2, 2384, Note_on_c, 0, 42, 0
2, 2385, Note_on_c, 0, 30, 0
2, 2385, Control_c, 0, 64, 0
2, 2396, Note_on_c, 0, 48, 0
2, 2401, Note_on_c, 0, 43, 99
2, 2402, Note_on_c, 0, 31, 90
2, 2406, Control_c, 0, 64, 127
2, 2430, Note_on_c, 0, 47, 58
2, 2456, Note_on_c, 0, 47, 0
2, 2460, Note_on_c, 0, 55, 68
2, 2486, Note_on_c, 0, 55, 0
2, 2490, Note_on_c, 0, 59, 66
2, 2516, Note_on_c, 0, 59, 0
2, 2520, Note_on_c, 0, 62, 77
2, 2546, Note_on_c, 0, 62, 0
2, 2550, Note_on_c, 0, 59, 53
2, 2569, Note_on_c, 0, 43, 0
2, 2576, Note_on_c, 0, 59, 0
2, 2580, Note_on_c, 0, 67, 60
2, 2606, Note_on_c, 0, 67, 0
2, 2610, Note_on_c, 0, 71, 68
2, 2633, Note_on_c, 0, 30, 86
2, 2633, Note_on_c, 0, 42, 97
2, 2636, Note_on_c, 0, 71, 0
2, 2640, Note_on_c, 0, 74, 78
2, 2644, Note_on_c, 0, 31, 0
2, 2645, Control_c, 0, 64, 0
2, 2666, Note_on_c, 0, 74, 0
2, 2670, Note_on_c, 0, 71, 58
2, 2696, Note_on_c, 0, 71, 0
2, 2700, Note_on_c, 0, 79, 67
2, 2722, Note_on_c, 0, 42, 0
2, 2726, Note_on_c, 0, 79, 0
2, 2730, Note_on_c, 0, 83, 66
2, 2756, Note_on_c, 0, 83, 0
2, 2760, Note_on_c, 0, 86, 77
2, 2760, Control_c, 0, 64, 127
2, 2761, Note_on_c, 0, 28, 96
2, 2761, Note_on_c, 0, 40, 89
2, 2776, Note_on_c, 0, 30, 0
2, 2786, Note_on_c, 0, 86, 0
2, 2790, Note_on_c, 0, 83, 59
2, 2816, Note_on_c, 0, 83, 0
2, 2820, Note_on_c, 0, 91, 65
2, 2846, Note_on_c, 0, 91, 0
2, 2848, Note_on_c, 0, 40, 0
2, 2850, Note_on_c, 0, 93, 66
2, 2852, Note_on_c, 0, 28, 0
2, 2866, Control_c, 0, 64, 0
2, 2876, Note_on_c, 0, 93, 0
2, 2876, Note_on_c, 0, 38, 93
2, 2879, Note_on_c, 0, 26, 101
2, 2880, Note_on_c, 0, 98, 78
2, 2883, Control_c, 0, 64, 127
2, 2906, Note_on_c, 0, 98, 0
2, 2910, Note_on_c, 0, 93, 63
2, 2936, Note_on_c, 0, 93, 0
2, 2940, Note_on_c, 0, 90, 64
2, 2966, Note_on_c, 0, 90, 0
2, 2970, Note_on_c, 0, 84, 61
2, 2996, Note_on_c, 0, 84, 0
2, 3000, Note_on_c, 0, 86, 76
2, 3026, Note_on_c, 0, 86, 0
2, 3030, Note_on_c, 0, 81, 59
2, 3056, Note_on_c, 0, 81, 0
2, 3060, Note_on_c, 0, 78, 58
2, 3086, Note_on_c, 0, 78, 0
2, 3090, Note_on_c, 0, 72, 65
2, 3116, Note_on_c, 0, 72, 0
2, 3120, Note_on_c, 0, 74, 77
2, 3146, Note_on_c, 0, 74, 0
2, 3150, Note_on_c, 0, 69, 65
2, 3176, Note_on_c, 0, 69, 0
2, 3180, Note_on_c, 0, 66, 62
2, 3206, Note_on_c, 0, 66, 0
2, 3210, Note_on_c, 0, 60, 61
2, 3236, Note_on_c, 0, 60, 0
2, 3240, Note_on_c, 0, 62, 76
2, 3266, Note_on_c, 0, 62, 0
2, 3270, Note_on_c, 0, 57, 65
2, 3289, Note_on_c, 0, 26, 0
2, 3289, Note_on_c, 0, 38, 0
2, 3296, Note_on_c, 0, 57, 0
2, 3300, Note_on_c, 0, 54, 67
2, 3326, Note_on_c, 0, 54, 0
2, 3330, Note_on_c, 0, 48, 62
2, 3350, Control_c, 0, 64, 0
2, 3356, Note_on_c, 0, 48, 0
2, 3368, Note_on_c, 0, 43, 104
2, 3369, Note_on_c, 0, 31, 102
2, 3371, Control_c, 0, 64, 127
2, 3390, Note_on_c, 0, 48, 52
2, 3416, Note_on_c, 0, 48, 0
2, 3420, Note_on_c, 0, 53, 67
2, 3446, Note_on_c, 0, 53, 0
2, 3450, Note_on_c, 0, 56, 67
2, 3476, Note_on_c, 0, 56, 0
2, 3480, Note_on_c, 0, 62, 75
2, 3506, Note_on_c, 0, 62, 0
2, 3510, Note_on_c, 0, 60, 52
2, 3536, Note_on_c, 0, 60, 0
2, 3540, Note_on_c, 0, 65, 62
2, 3566, Note_on_c, 0, 65, 0
2, 3570, Note_on_c, 0, 68, 73
2, 3596, Note_on_c, 0, 68, 0
2, 3600, Note_on_c, 0, 74, 78
2, 3626, Note_on_c, 0, 74, 0
2, 3630, Note_on_c, 0, 72, 60
2, 3656, Note_on_c, 0, 72, 0
2, 3660, Note_on_c, 0, 77, 70
2, 3686, Note_on_c, 0, 77, 0
2, 3690, Note_on_c, 0, 80, 63
2, 3716, Note_on_c, 0, 80, 0
2, 3720, Note_on_c, 0, 86, 77
2, 3746, Note_on_c, 0, 86, 0
2, 3750, Note_on_c, 0, 84, 57
2, 3776, Note_on_c, 0, 84, 0
2, 3780, Note_on_c, 0, 89, 63
2, 3806, Note_on_c, 0, 89, 0
2, 3810, Note_on_c, 0, 92, 53
2, 3818, Control_c, 0, 64, 0
2, 3836, Note_on_c, 0, 92, 0
2, 3839, Control_c, 0, 64, 127
2, 3840, Note_on_c, 0, 98, 79
2, 3866, Note_on_c, 0, 98, 0
2, 3870, Note_on_c, 0, 91, 49
2, 3896, Note_on_c, 0, 91, 0
2, 3900, Note_on_c, 0, 89, 66
2, 3926, Note_on_c, 0, 89, 0
2, 3930, Note_on_c, 0, 83, 63
2, 3956, Note_on_c, 0, 83, 0
2, 3960, Note_on_c, 0, 86, 78
2, 3986, Note_on_c, 0, 86, 0
2, 3990, Note_on_c, 0, 79, 59
2, 4016, Note_on_c, 0, 79, 0
2, 4020, Note_on_c, 0, 77, 52
2, 4046, Note_on_c, 0, 77, 0
2, 4050, Note_on_c, 0, 71, 50
2, 4076, Note_on_c, 0, 71, 0
2, 4080, Note_on_c, 0, 74, 77
2, 4106, Note_on_c, 0, 74, 0
2, 4110, Note_on_c, 0, 67, 53
2, 4136, Note_on_c, 0, 67, 0
2, 4140, Note_on_c, 0, 65, 70
2, 4166, Note_on_c, 0, 65, 0
2, 4170, Note_on_c, 0, 59, 58
2, 4196, Note_on_c, 0, 59, 0
2, 4200, Note_on_c, 0, 63, 78
2, 4226, Note_on_c, 0, 63, 0
2, 4230, Note_on_c, 0, 55, 46
2, 4256, Note_on_c, 0, 55, 0
2, 4260, Note_on_c, 0, 53, 65
2, 4276, Note_on_c, 0, 31, 0
2, 4284, Note_on_c, 0, 43, 0
2, 4286, Note_on_c, 0, 53, 0
2, 4290, Note_on_c, 0, 47, 60
2, 4304, Control_c, 0, 64, 0
2, 4316, Note_on_c, 0, 47, 0
2, 4326, Control_c, 0, 64, 127
2, 4328, Note_on_c, 0, 36, 97
2, 4329, Note_on_c, 0, 48, 97
2, 4344, Note_on_c, 0, 48, 0
2, 4350, Note_on_c, 0, 48, 86
2, 4380, Note_on_c, 0, 55, 66
2, 4406, Note_on_c, 0, 55, 0
2, 4410, Note_on_c, 0, 60, 68
2, 4436, Note_on_c, 0, 60, 0
2, 4440, Note_on_c, 0, 64, 78
2, 4466, Note_on_c, 0, 64, 0
2, 4470, Note_on_c, 0, 60, 62
2, 4496, Note_on_c, 0, 60, 0
2, 4500, Note_on_c, 0, 67, 62
2, 4526, Note_on_c, 0, 67, 0
2, 4530, Note_on_c, 0, 72, 63
2, 4556, Note_on_c, 0, 72, 0
2, 4560, Note_on_c, 0, 76, 79
2, 4586, Note_on_c, 0, 76, 0
2, 4590, Note_on_c, 0, 72, 54
2, 4616, Note_on_c, 0, 72, 0
2, 4620, Note_on_c, 0, 79, 72
2, 4646, Note_on_c, 0, 79, 0
2, 4650, Note_on_c, 0, 84, 72
2, 4676, Note_on_c, 0, 84, 0
2, 4680, Note_on_c, 0, 88, 82
2, 4706, Note_on_c, 0, 88, 0
2, 4710, Note_on_c, 0, 84, 54
2, 4736, Note_on_c, 0, 84, 0
2, 4740, Note_on_c, 0, 91, 70
2, 4766, Note_on_c, 0, 91, 0
2, 4770, Note_on_c, 0, 96, 68
2, 4796, Note_on_c, 0, 96, 0
2, 4800, Note_on_c, 0, 100, 78
2, 4826, Note_on_c, 0, 100, 0
2, 4830, Note_on_c, 0, 96, 76
2, 4856, Note_on_c, 0, 96, 0
2, 4860, Note_on_c, 0, 91, 67
2, 4886, Note_on_c, 0, 91, 0
2, 4890, Note_on_c, 0, 84, 64
2, 4916, Note_on_c, 0, 84, 0
2, 4920, Note_on_c, 0, 88, 79
2, 4946, Note_on_c, 0, 88, 0
2, 4950, Note_on_c, 0, 84, 73
2, 4976, Note_on_c, 0, 84, 0
2, 4980, Note_on_c, 0, 79, 68
2, 5006, Note_on_c, 0, 79, 0
2, 5010, Note_on_c, 0, 72, 66
2, 5036, Note_on_c, 0, 72, 0
2, 5040, Note_on_c, 0, 76, 77
2, 5066, Note_on_c, 0, 76, 0
2, 5070, Note_on_c, 0, 72, 70
2, 5096, Note_on_c, 0, 72, 0
2, 5100, Note_on_c, 0, 67, 71
2, 5126, Note_on_c, 0, 67, 0
2, 5130, Note_on_c, 0, 60, 63
2, 5156, Note_on_c, 0, 60, 0
2, 5160, Note_on_c, 0, 64, 79
2, 5184, Note_on_c, 0, 48, 0
2, 5186, Note_on_c, 0, 64, 0
2, 5190, Note_on_c, 0, 60, 64
2, 5216, Note_on_c, 0, 60, 0
2, 5220, Note_on_c, 0, 55, 58
2, 5246, Note_on_c, 0, 55, 0
2, 5250, Note_on_c, 0, 48, 58
2, 5258, Note_on_c, 0, 36, 0
2, 5263, Control_c, 0, 64, 0
2, 5276, Note_on_c, 0, 48, 0
2, 5283, Control_c, 0, 64, 127
2, 5287, Note_on_c, 0, 33, 101
2, 5287, Note_on_c, 0, 45, 93
2, 5310, Note_on_c, 0, 48, 46
2, 5336, Note_on_c, 0, 48, 0
2, 5340, Note_on_c, 0, 53, 71
2, 5366, Note_on_c, 0, 53, 0
2, 5370, Note_on_c, 0, 60, 60
2, 5396, Note_on_c, 0, 60, 0
2, 5400, Note_on_c, 0, 65, 79
2, 5426, Note_on_c, 0, 65, 0
2, 5430, Note_on_c, 0, 60, 59
2, 5456, Note_on_c, 0, 60, 0
2, 5460, Note_on_c, 0, 65, 60
2, 5486, Note_on_c, 0, 65, 0
2, 5490, Note_on_c, 0, 72, 68
2, 5516, Note_on_c, 0, 72, 0
2, 5520, Note_on_c, 0, 77, 79
2, 5546, Note_on_c, 0, 77, 0
2, 5550, Note_on_c, 0, 72, 54
2, 5576, Note_on_c, 0, 72, 0
2, 5580, Note_on_c, 0, 77, 65
2, 5606, Note_on_c, 0, 77, 0
2, 5610, Note_on_c, 0, 84, 62
2, 5636, Note_on_c, 0, 84, 0
2, 5640, Note_on_c, 0, 89, 80
2, 5666, Note_on_c, 0, 89, 0
2, 5670, Note_on_c, 0, 84, 57
2, 5696, Note_on_c, 0, 84, 0
2, 5700, Note_on_c, 0, 89, 59
2, 5726, Note_on_c, 0, 89, 0
2, 5730, Note_on_c, 0, 96, 60
2, 5756, Note_on_c, 0, 96, 0
2, 5760, Note_on_c, 0, 100, 80
2, 5786, Note_on_c, 0, 100, 0
2, 5790, Note_on_c, 0, 96, 72
2, 5816, Note_on_c, 0, 96, 0
2, 5820, Note_on_c, 0, 90, 67
2, 5846, Note_on_c, 0, 90, 0
2, 5850, Note_on_c, 0, 84, 52
2, 5876, Note_on_c, 0, 84, 0
2, 5880, Note_on_c, 0, 88, 80
2, 5906, Note_on_c, 0, 88, 0
2, 5910, Note_on_c, 0, 84, 65
2, 5936, Note_on_c, 0, 84, 0
2, 5940, Note_on_c, 0, 78, 60
2, 5966, Note_on_c, 0, 78, 0
2, 5970, Note_on_c, 0, 72, 60
2, 5996, Note_on_c, 0, 72, 0
2, 6000, Note_on_c, 0, 76, 76
2, 6026, Note_on_c, 0, 76, 0
2, 6030, Note_on_c, 0, 72, 58
2, 6056, Note_on_c, 0, 72, 0
2, 6060, Note_on_c, 0, 66, 52
2, 6086, Note_on_c, 0, 66, 0
2, 6090, Note_on_c, 0, 60, 42
2, 6116, Note_on_c, 0, 60, 0
2, 6120, Note_on_c, 0, 64, 77
2, 6146, Note_on_c, 0, 64, 0
2, 6150, Note_on_c, 0, 60, 59
2, 6176, Note_on_c, 0, 60, 0
2, 6180, Note_on_c, 0, 54, 57
2, 6201, Note_on_c, 0, 45, 0
2, 6206, Note_on_c, 0, 54, 0
2, 6210, Note_on_c, 0, 48, 56
2, 6212, Note_on_c, 0, 33, 0
2, 6227, Control_c, 0, 64, 0
2, 6236, Note_on_c, 0, 48, 0
2, 6243, Note_on_c, 0, 43, 94
2, 6244, Note_on_c, 0, 31, 102
2, 6246, Control_c, 0, 64, 127
2, 6270, Note_on_c, 0, 48, 46
2, 6296, Note_on_c, 0, 48, 0
2, 6300, Note_on_c, 0, 55, 62
2, 6326, Note_on_c, 0, 55, 0
2, 6330, Note_on_c, 0, 60, 64
2, 6356, Note_on_c, 0, 60, 0
2, 6360, Note_on_c, 0, 62, 75
2, 6386, Note_on_c, 0, 62, 0
2, 6390, Note_on_c, 0, 60, 45
2, 6416, Note_on_c, 0, 60, 0
2, 6420, Note_on_c, 0, 67, 61
2, 6446, Note_on_c, 0, 67, 0
2, 6450, Note_on_c, 0, 72, 63
2, 6476, Note_on_c, 0, 72, 0
2, 6480, Note_on_c, 0, 74, 74
2, 6506, Note_on_c, 0, 74, 0
2, 6510, Note_on_c, 0, 72, 56
2, 6536, Note_on_c, 0, 72, 0
2, 6540, Note_on_c, 0, 79, 60
2, 6566, Note_on_c, 0, 79, 0
2, 6570, Note_on_c, 0, 84, 52
2, 6596, Note_on_c, 0, 84, 0
2, 6600, Note_on_c, 0, 86, 73
2, 6626, Note_on_c, 0, 86, 0
2, 6630, Note_on_c, 0, 84, 51
2, 6656, Note_on_c, 0, 84, 0
2, 6660, Note_on_c, 0, 91, 48
2, 6686, Note_on_c, 0, 91, 0
2, 6690, Note_on_c, 0, 96, 55
2, 6695, Control_c, 0, 64, 0
2, 6716, Note_on_c, 0, 96, 0
2, 6720, Note_on_c, 0, 98, 76
2, 6721, Control_c, 0, 64, 127
2, 6746, Note_on_c, 0, 98, 0
2, 6750, Note_on_c, 0, 95, 61
2, 6776, Note_on_c, 0, 95, 0
2, 6780, Note_on_c, 0, 91, 48
2, 6806, Note_on_c, 0, 91, 0
2, 6810, Note_on_c, 0, 83, 61
2, 6836, Note_on_c, 0, 83, 0
2, 6840, Note_on_c, 0, 86, 71
2, 6866, Note_on_c, 0, 86, 0
2, 6870, Note_on_c, 0, 83, 48
2, 6896, Note_on_c, 0, 83, 0
2, 6900, Note_on_c, 0, 79, 51
2, 6926, Note_on_c, 0, 79, 0
2, 6930, Note_on_c, 0, 71, 52
2, 6956, Note_on_c, 0, 71, 0
2, 6960, Note_on_c, 0, 74, 71
2, 6986, Note_on_c, 0, 74, 0
2, 6990, Note_on_c, 0, 71, 62
2, 7016, Note_on_c, 0, 71, 0
2, 7020, Note_on_c, 0, 67, 59
2, 7046, Note_on_c, 0, 67, 0
2, 7050, Note_on_c, 0, 59, 47
2, 7076, Note_on_c, 0, 59, 0
2, 7080, Note_on_c, 0, 62, 71
2, 7106, Note_on_c, 0, 62, 0
2, 7110, Note_on_c, 0, 59, 52
2, 7136, Note_on_c, 0, 59, 0
2, 7140, Note_on_c, 0, 55, 50
2, 7148, Note_on_c, 0, 31, 0
2, 7158, Note_on_c, 0, 43, 0
2, 7166, Note_on_c, 0, 55, 0
2, 7170, Note_on_c, 0, 47, 49
2, 7183, Control_c, 0, 64, 0
2, 7196, Note_on_c, 0, 47, 0
2, 7196, Note_on_c, 0, 48, 86
2, 7198, Note_on_c, 0, 36, 90
2, 7203, Control_c, 0, 64, 127
2, 7230, Note_on_c, 0, 50, 50
2, 7256, Note_on_c, 0, 50, 0
2, 7260, Note_on_c, 0, 55, 57
2, 7286, Note_on_c, 0, 55, 0
2, 7290, Note_on_c, 0, 62, 57
2, 7316, Note_on_c, 0, 62, 0
2, 7320, Note_on_c, 0, 64, 70
2, 7346, Note_on_c, 0, 64, 0
2, 7350, Note_on_c, 0, 62, 53
2, 7376, Note_on_c, 0, 62, 0
2, 7380, Note_on_c, 0, 67, 57
2, 7406, Note_on_c, 0, 67, 0
2, 7410, Note_on_c, 0, 74, 57
2, 7436, Note_on_c, 0, 74, 0
2, 7440, Note_on_c, 0, 76, 65
2, 7466, Note_on_c, 0, 76, 0
2, 7470, Note_on_c, 0, 74, 45
2, 7496, Note_on_c, 0, 74, 0
2, 7500, Note_on_c, 0, 79, 55
2, 7526, Note_on_c, 0, 79, 0
2, 7530, Note_on_c, 0, 86, 58
2, 7556, Note_on_c, 0, 86, 0
2, 7560, Note_on_c, 0, 88, 69
2, 7586, Note_on_c, 0, 88, 0
2, 7590, Note_on_c, 0, 86, 43
2, 7616, Note_on_c, 0, 86, 0
2, 7620, Note_on_c, 0, 91, 60
2, 7646, Note_on_c, 0, 91, 0
2, 7650, Note_on_c, 0, 98, 61
2, 7655, Control_c, 0, 64, 0
2, 7676, Note_on_c, 0, 98, 0
2, 7678, Control_c, 0, 64, 127
2, 7680, Note_on_c, 0, 100, 68
2, 7706, Note_on_c, 0, 100, 0
2, 7710, Note_on_c, 0, 96, 48
2, 7736, Note_on_c, 0, 96, 0
2, 7740, Note_on_c, 0, 91, 54
2, 7766, Note_on_c, 0, 91, 0
2, 7770, Note_on_c, 0, 84, 43
2, 7796, Note_on_c, 0, 84, 0
2, 7800, Note_on_c, 0, 88, 67
2, 7826, Note_on_c, 0, 88, 0
2, 7830, Note_on_c, 0, 84, 46
2, 7856, Note_on_c, 0, 84, 0
2, 7860, Note_on_c, 0, 79, 47
2, 7886, Note_on_c, 0, 79, 0
2, 7890, Note_on_c, 0, 72, 50
2, 7916, Note_on_c, 0, 72, 0
2, 7920, Note_on_c, 0, 76, 66
2, 7946, Note_on_c, 0, 76, 0
2, 7950, Note_on_c, 0, 72, 60
2, 7976, Note_on_c, 0, 72, 0
2, 7980, Note_on_c, 0, 67, 53
2, 8006, Note_on_c, 0, 67, 0
2, 8010, Note_on_c, 0, 60, 43
2, 8036, Note_on_c, 0, 60, 0
2, 8040, Note_on_c, 0, 64, 67
2, 8066, Note_on_c, 0, 64, 0
2, 8070, Note_on_c, 0, 60, 51
2, 8077, Note_on_c, 0, 48, 0
2, 8096, Note_on_c, 0, 60, 0
2, 8100, Note_on_c, 0, 55, 60
2, 8126, Note_on_c, 0, 55, 0
2, 8130, Note_on_c, 0, 48, 47
2, 8148, Control_c, 0, 64, 0
2, 8154, Note_on_c, 0, 36, 0
2, 8156, Note_on_c, 0, 48, 0
2, 8165, Control_c, 0, 64, 127
2, 8168, Note_on_c, 0, 33, 87
2, 8168, Note_on_c, 0, 45, 77
2, 8190, Note_on_c, 0, 52, 44
2, 8216, Note_on_c, 0, 52, 0
2, 8220, Note_on_c, 0, 60, 51
2, 8246, Note_on_c, 0, 60, 0
2, 8250, Note_on_c, 0, 64, 46
2, 8276, Note_on_c, 0, 64, 0
2, 8280, Note_on_c, 0, 65, 67
2, 8306, Note_on_c, 0, 65, 0
2, 8310, Note_on_c, 0, 64, 45
2, 8336, Note_on_c, 0, 64, 0
2, 8340, Note_on_c, 0, 72, 56
2, 8366, Note_on_c, 0, 72, 0
2, 8370, Note_on_c, 0, 76, 52
2, 8396, Note_on_c, 0, 76, 0
2, 8400, Note_on_c, 0, 77, 67
2, 8426, Note_on_c, 0, 77, 0
2, 8430, Note_on_c, 0, 76, 42
2, 8456, Note_on_c, 0, 76, 0
2, 8460, Note_on_c, 0, 84, 55
2, 8486, Note_on_c, 0, 84, 0
2, 8490, Note_on_c, 0, 88, 58
2, 8516, Note_on_c, 0, 88, 0
2, 8520, Note_on_c, 0, 89, 66
2, 8546, Note_on_c, 0, 89, 0
2, 8550, Note_on_c, 0, 88, 44
2, 8576, Note_on_c, 0, 88, 0
2, 8580, Note_on_c, 0, 96, 49
2, 8597, Note_on_c, 0, 33, 0
2, 8606, Note_on_c, 0, 96, 0
2, 8610, Note_on_c, 0, 100, 55
2, 8613, Note_on_c, 0, 45, 0
2, 8630, Control_c, 0, 64, 0
2, 8636, Note_on_c, 0, 100, 0
2, 8640, Note_on_c, 0, 101, 65
2, 8645, Note_on_c, 0, 35, 85
2, 8645, Note_on_c, 0, 47, 74
2, 8645, Control_c, 0, 64, 127
2, 8666, Note_on_c, 0, 101, 0
2, 8670, Note_on_c, 0, 98, 57
2, 8696, Note_on_c, 0, 98, 0
2, 8700, Note_on_c, 0, 95, 40
2, 8726, Note_on_c, 0, 95, 0
2, 8730, Note_on_c, 0, 86, 40
2, 8756, Note_on_c, 0, 86, 0
2, 8760, Note_on_c, 0, 89, 67
2, 8786, Note_on_c, 0, 89, 0
2, 8790, Note_on_c, 0, 86, 64
2, 8816, Note_on_c, 0, 86, 0
2, 8820, Note_on_c, 0, 83, 55
2, 8845, Note_on_c, 0, 47, 0
2, 8846, Note_on_c, 0, 83, 0
2, 8850, Note_on_c, 0, 74, 56
2, 8876, Note_on_c, 0, 74, 0
2, 8880, Note_on_c, 0, 77, 66
2, 8889, Note_on_c, 0, 33, 84
2, 8889, Note_on_c, 0, 45, 68
2, 8897, Note_on_c, 0, 35, 0
2, 8906, Note_on_c, 0, 77, 0
2, 8910, Note_on_c, 0, 74, 60
2, 8936, Note_on_c, 0, 74, 0
2, 8940, Note_on_c, 0, 71, 57
2, 8966, Note_on_c, 0, 71, 0
2, 8970, Note_on_c, 0, 62, 51
2, 8996, Note_on_c, 0, 62, 0
2, 9000, Note_on_c, 0, 65, 66
2, 9026, Note_on_c, 0, 65, 0
2, 9030, Note_on_c, 0, 62, 58
2, 9056, Note_on_c, 0, 62, 0
2, 9060, Note_on_c, 0, 59, 48
2, 9077, Note_on_c, 0, 45, 0
2, 9086, Note_on_c, 0, 59, 0
2, 9090, Note_on_c, 0, 50, 51
2, 9110, Control_c, 0, 64, 0
2, 9116, Note_on_c, 0, 50, 0
2, 9118, Note_on_c, 0, 33, 0
2, 9127, Note_on_c, 0, 32, 80
2, 9127, Control_c, 0, 64, 127
2, 9128, Note_on_c, 0, 44, 77
2, 9150, Note_on_c, 0, 50, 43
2, 9176, Note_on_c, 0, 50, 0
2, 9180, Note_on_c, 0, 59, 47
2, 9206, Note_on_c, 0, 59, 0
2, 9210, Note_on_c, 0, 62, 43
2, 9236, Note_on_c, 0, 62, 0
2, 9240, Note_on_c, 0, 64, 64
2, 9266, Note_on_c, 0, 64, 0
2, 9270, Note_on_c, 0, 62, 42
2, 9296, Note_on_c, 0, 62, 0
2, 9300, Note_on_c, 0, 71, 51
2, 9326, Note_on_c, 0, 71, 0
2, 9330, Note_on_c, 0, 74, 57
2, 9356, Note_on_c, 0, 74, 0
2, 9360, Note_on_c, 0, 76, 65
2, 9386, Note_on_c, 0, 76, 0
2, 9390, Note_on_c, 0, 74, 44
2, 9416, Note_on_c, 0, 74, 0
2, 9420, Note_on_c, 0, 83, 51
2, 9446, Note_on_c, 0, 83, 0
2, 9450, Note_on_c, 0, 86, 56
2, 9476, Note_on_c, 0, 86, 0
2, 9480, Note_on_c, 0, 88, 66
2, 9506, Note_on_c, 0, 88, 0
2, 9510, Note_on_c, 0, 86, 40
2, 9536, Note_on_c, 0, 86, 0
2, 9540, Note_on_c, 0, 95, 49
2, 9566, Note_on_c, 0, 95, 0
2, 9567, Note_on_c, 0, 32, 0
2, 9570, Note_on_c, 0, 98, 43
2, 9571, Note_on_c, 0, 44, 0
2, 9595, Control_c, 0, 64, 0
2, 9596, Note_on_c, 0, 98, 0
2, 9599, Note_on_c, 0, 45, 77
2, 9600, Note_on_c, 0, 100, 64
2, 9601, Note_on_c, 0, 33, 79
2, 9610, Control_c, 0, 64, 127
2, 9626, Note_on_c, 0, 100, 0
2, 9630, Note_on_c, 0, 96, 43
2, 9656, Note_on_c, 0, 96, 0
2, 9660, Note_on_c, 0, 93, 51
2, 9686, Note_on_c, 0, 93, 0
2, 9690, Note_on_c, 0, 84, 55
2, 9716, Note_on_c, 0, 84, 0
2, 9720, Note_on_c, 0, 88, 63
2, 9746, Note_on_c, 0, 88, 0
2, 9750, Note_on_c, 0, 84, 50
2, 9776, Note_on_c, 0, 84, 0
2, 9780, Note_on_c, 0, 81, 43
2, 9799, Note_on_c, 0, 45, 0
2, 9806, Note_on_c, 0, 81, 0
2, 9810, Note_on_c, 0, 72, 43
2, 9836, Note_on_c, 0, 72, 0
2, 9840, Note_on_c, 0, 76, 63
2, 9842, Note_on_c, 0, 43, 70
2, 9843, Note_on_c, 0, 33, 0
2, 9844, Note_on_c, 0, 31, 79
2, 9866, Note_on_c, 0, 76, 0
2, 9870, Note_on_c, 0, 72, 40
2, 9896, Note_on_c, 0, 72, 0
2, 9900, Note_on_c, 0, 69, 51
2, 9926, Note_on_c, 0, 69, 0
2, 9930, Note_on_c, 0, 60, 38
2, 9956, Note_on_c, 0, 60, 0
2, 9960, Note_on_c, 0, 64, 65
2, 9986, Note_on_c, 0, 64, 0
2, 9990, Note_on_c, 0, 60, 51
2, 10016, Note_on_c, 0, 60, 0
2, 10020, Note_on_c, 0, 57, 50
2, 10046, Note_on_c, 0, 57, 0
2, 10050, Note_on_c, 0, 48, 46
2, 10058, Note_on_c, 0, 43, 0
2, 10068, Control_c, 0, 64, 0
2, 10076, Note_on_c, 0, 48, 0
2, 10082, Note_on_c, 0, 31, 0
2, 10087, Control_c, 0, 64, 127
2, 10088, Note_on_c, 0, 41, 82
2, 10089, Note_on_c, 0, 29, 83
2, 10110, Note_on_c, 0, 48, 48
2, 10136, Note_on_c, 0, 48, 0
2, 10140, Note_on_c, 0, 57, 58
2, 10166, Note_on_c, 0, 57, 0
2, 10170, Note_on_c, 0, 60, 57
2, 10196, Note_on_c, 0, 60, 0
2, 10200, Note_on_c, 0, 64, 64
2, 10226, Note_on_c, 0, 64, 0
2, 10230, Note_on_c, 0, 60, 51
2, 10256, Note_on_c, 0, 60, 0
2, 10260, Note_on_c, 0, 69, 50
2, 10286, Note_on_c, 0, 69, 0
2, 10290, Note_on_c, 0, 72, 43
2, 10316, Note_on_c, 0, 72, 0
2, 10320, Note_on_c, 0, 76, 67
2, 10346, Note_on_c, 0, 76, 0
2, 10350, Note_on_c, 0, 72, 46
2, 10376, Note_on_c, 0, 72, 0
2, 10380, Note_on_c, 0, 81, 54
2, 10406, Note_on_c, 0, 81, 0
2, 10410, Note_on_c, 0, 84, 45
2, 10436, Note_on_c, 0, 84, 0
2, 10440, Note_on_c, 0, 88, 69
2, 10466, Note_on_c, 0, 88, 0
2, 10470, Note_on_c, 0, 84, 54
2, 10496, Note_on_c, 0, 84, 0
2, 10500, Note_on_c, 0, 93, 56
2, 10526, Note_on_c, 0, 93, 0
2, 10530, Note_on_c, 0, 96, 60
2, 10552, Control_c, 0, 64, 0
2, 10556, Note_on_c, 0, 96, 0
2, 10560, Note_on_c, 0, 99, 68
2, 10570, Control_c, 0, 64, 127
2, 10586, Note_on_c, 0, 99, 0
2, 10590, Note_on_c, 0, 95, 45
2, 10616, Note_on_c, 0, 95, 0
2, 10620, Note_on_c, 0, 93, 46
2, 10646, Note_on_c, 0, 93, 0
2, 10650, Note_on_c, 0, 83, 49
2, 10676, Note_on_c, 0, 83, 0
2, 10680, Note_on_c, 0, 87, 74
2, 10706, Note_on_c, 0, 87, 0
2, 10710, Note_on_c, 0, 83, 51
2, 10736, Note_on_c, 0, 83, 0
2, 10740, Note_on_c, 0, 81, 40
2, 10766, Note_on_c, 0, 81, 0
2, 10770, Note_on_c, 0, 71, 47
2, 10796, Note_on_c, 0, 71, 0
2, 10800, Note_on_c, 0, 75, 72
2, 10826, Note_on_c, 0, 75, 0
2, 10830, Note_on_c, 0, 71, 60
2, 10856, Note_on_c, 0, 71, 0
2, 10860, Note_on_c, 0, 69, 61
2, 10886, Note_on_c, 0, 69, 0
2, 10890, Note_on_c, 0, 59, 54
2, 10916, Note_on_c, 0, 59, 0
2, 10920, Note_on_c, 0, 63, 76
2, 10946, Note_on_c, 0, 63, 0
2, 10950, Note_on_c, 0, 59, 60
2, 10976, Note_on_c, 0, 59, 0
2, 10980, Note_on_c, 0, 57, 55
2, 11001, Note_on_c, 0, 41, 0
2, 11006, Note_on_c, 0, 57, 0
2, 11010, Note_on_c, 0, 47, 47
2, 11026, Note_on_c, 0, 29, 0
2, 11032, Control_c, 0, 64, 0
2, 11036, Note_on_c, 0, 47, 0
2, 11041, Note_on_c, 0, 40, 97
2, 11044, Note_on_c, 0, 28, 94
2, 11050, Control_c, 0, 64, 127
2, 11070, Note_on_c, 0, 47, 54
2, 11096, Note_on_c, 0, 47, 0
2, 11100, Note_on_c, 0, 57, 62
2, 11126, Note_on_c, 0, 57, 0
2, 11130, Note_on_c, 0, 59, 51
2, 11156, Note_on_c, 0, 59, 0
2, 11160, Note_on_c, 0, 64, 76
2, 11186, Note_on_c, 0, 64, 0
2, 11190, Note_on_c, 0, 59, 51
2, 11216, Note_on_c, 0, 59, 0
2, 11220, Note_on_c, 0, 69, 49
2, 11246, Note_on_c, 0, 69, 0
2, 11250, Note_on_c, 0, 71, 51
2, 11276, Note_on_c, 0, 71, 0
2, 11280, Note_on_c, 0, 76, 75
2, 11306, Note_on_c, 0, 76, 0
2, 11310, Note_on_c, 0, 71, 52
2, 11336, Note_on_c, 0, 71, 0
2, 11340, Note_on_c, 0, 81, 53
2, 11366, Note_on_c, 0, 81, 0
2, 11370, Note_on_c, 0, 83, 65
2, 11396, Note_on_c, 0, 83, 0
2, 11400, Note_on_c, 0, 88, 78
2, 11426, Note_on_c, 0, 88, 0
2, 11430, Note_on_c, 0, 83, 56
2, 11456, Note_on_c, 0, 83, 0
2, 11460, Note_on_c, 0, 93, 55
2, 11486, Note_on_c, 0, 93, 0
2, 11489, Control_c, 0, 64, 0
2, 11490, Note_on_c, 0, 95, 52
2, 11511, Control_c, 0, 64, 127
2, 11516, Note_on_c, 0, 95, 0
2, 11520, Note_on_c, 0, 100, 75
2, 11546, Note_on_c, 0, 100, 0
2, 11550, Note_on_c, 0, 95, 62
2, 11576, Note_on_c, 0, 95, 0
2, 11580, Note_on_c, 0, 92, 69
2, 11606, Note_on_c, 0, 92, 0
2, 11610, Note_on_c, 0, 83, 63
2, 11636, Note_on_c, 0, 83, 0
2, 11640, Note_on_c, 0, 88, 76
2, 11666, Note_on_c, 0, 88, 0
2, 11670, Note_on_c, 0, 83, 61
2, 11696, Note_on_c, 0, 83, 0
2, 11700, Note_on_c, 0, 80, 67
2, 11726, Note_on_c, 0, 80, 0
2, 11730, Note_on_c, 0, 71, 65
2, 11756, Note_on_c, 0, 71, 0
2, 11760, Note_on_c, 0, 76, 76
2, 11786, Note_on_c, 0, 76, 0
2, 11790, Note_on_c, 0, 71, 56
2, 11816, Note_on_c, 0, 71, 0
2, 11820, Note_on_c, 0, 68, 57
2, 11846, Note_on_c, 0, 68, 0
2, 11850, Note_on_c, 0, 59, 44
2, 11876, Note_on_c, 0, 59, 0
2, 11880, Note_on_c, 0, 64, 75
2, 11906, Note_on_c, 0, 64, 0
2, 11910, Note_on_c, 0, 59, 59
2, 11921, Note_on_c, 0, 28, 0
2, 11931, Note_on_c, 0, 40, 0
2, 11936, Note_on_c, 0, 59, 0
2, 11940, Note_on_c, 0, 56, 61
2, 11966, Note_on_c, 0, 56, 0
2, 11970, Note_on_c, 0, 47, 59
2, 11986, Control_c, 0, 64, 0
2, 11996, Note_on_c, 0, 47, 0
2, 12003, Note_on_c, 0, 45, 83
2, 12004, Control_c, 0, 64, 127
2, 12007, Note_on_c, 0, 33, 89
2, 12030, Note_on_c, 0, 52, 48
2, 12056, Note_on_c, 0, 52, 0
2, 12060, Note_on_c, 0, 57, 56
2, 12086, Note_on_c, 0, 57, 0
2, 12090, Note_on_c, 0, 61, 54
2, 12116, Note_on_c, 0, 61, 0
2, 12120, Note_on_c, 0, 67, 67
2, 12146, Note_on_c, 0, 67, 0
2, 12150, Note_on_c, 0, 64, 52
2, 12176, Note_on_c, 0, 64, 0
2, 12180, Note_on_c, 0, 69, 47
2, 12206, Note_on_c, 0, 69, 0
2, 12210, Note_on_c, 0, 73, 53
2, 12236, Note_on_c, 0, 73, 0
2, 12240, Note_on_c, 0, 79, 68
2, 12266, Note_on_c, 0, 79, 0
2, 12270, Note_on_c, 0, 76, 49
2, 12296, Note_on_c, 0, 76, 0
2, 12300, Note_on_c, 0, 81, 54
2, 12326, Note_on_c, 0, 81, 0
2, 12330, Note_on_c, 0, 85, 51
2, 12356, Note_on_c, 0, 85, 0
2, 12360, Note_on_c, 0, 91, 66
2, 12386, Note_on_c, 0, 91, 0
2, 12390, Note_on_c, 0, 85, 55
2, 12391, Note_on_c, 0, 33, 0
2, 12399, Note_on_c, 0, 45, 0
2, 12416, Note_on_c, 0, 85, 0
2, 12420, Note_on_c, 0, 81, 45
2, 12446, Note_on_c, 0, 81, 0
2, 12450, Note_on_c, 0, 76, 46
2, 12459, Control_c, 0, 64, 0
2, 12476, Note_on_c, 0, 76, 0
2, 12476, Control_c, 0, 64, 127
2, 12480, Note_on_c, 0, 91, 68
2, 12481, Note_on_c, 0, 50, 81
2, 12483, Note_on_c, 0, 38, 84
2, 12506, Note_on_c, 0, 91, 0
2, 12510, Note_on_c, 0, 84, 52
2, 12536, Note_on_c, 0, 84, 0
2, 12540, Note_on_c, 0, 81, 59
2, 12566, Note_on_c, 0, 81, 0
2, 12570, Note_on_c, 0, 76, 54
2, 12596, Note_on_c, 0, 76, 0
2, 12600, Note_on_c, 0, 79, 68
2, 12626, Note_on_c, 0, 79, 0
2, 12630, Note_on_c, 0, 72, 39
2, 12656, Note_on_c, 0, 72, 0
2, 12660, Note_on_c, 0, 69, 53
2, 12686, Note_on_c, 0, 69, 0
2, 12690, Note_on_c, 0, 64, 44
2, 12716, Note_on_c, 0, 64, 0
2, 12720, Note_on_c, 0, 67, 68
2, 12746, Note_on_c, 0, 67, 0
2, 12750, Note_on_c, 0, 60, 53
2, 12776, Note_on_c, 0, 60, 0
2, 12780, Note_on_c, 0, 57, 54
2, 12806, Note_on_c, 0, 57, 0
2, 12810, Note_on_c, 0, 52, 41
2, 12818, Control_c, 0, 64, 0
2, 12836, Note_on_c, 0, 52, 0
2, 12838, Control_c, 0, 64, 127
2, 12840, Note_on_c, 0, 66, 67
2, 12866, Note_on_c, 0, 66, 0
2, 12870, Note_on_c, 0, 60, 53
2, 12871, Note_on_c, 0, 50, 0
2, 12884, Note_on_c, 0, 38, 0
2, 12896, Note_on_c, 0, 60, 0
2, 12900, Note_on_c, 0, 57, 48
2, 12926, Note_on_c, 0, 57, 0
2, 12930, Note_on_c, 0, 50, 38
2, 12946, Control_c, 0, 64, 0
2, 12956, Note_on_c, 0, 50, 0
2, 12958, Control_c, 0, 64, 127
2, 12959, Note_on_c, 0, 43, 79
2, 12962, Note_on_c, 0, 31, 87
2, 12990, Note_on_c, 0, 50, 50
2, 13016, Note_on_c, 0, 50, 0
2, 13020, Note_on_c, 0, 55, 46
2, 13046, Note_on_c, 0, 55, 0
2, 13050, Note_on_c, 0, 60, 43
2, 13076, Note_on_c, 0, 60, 0
2, 13080, Note_on_c, 0, 65, 69
2, 13106, Note_on_c, 0, 65, 0
2, 13110, Note_on_c, 0, 62, 48
2, 13136, Note_on_c, 0, 62, 0
2, 13140, Note_on_c, 0, 67, 54
2, 13166, Note_on_c, 0, 67, 0
2, 13170, Note_on_c, 0, 72, 52
2, 13196, Note_on_c, 0, 72, 0
2, 13200, Note_on_c, 0, 77, 67
2, 13226, Note_on_c, 0, 77, 0
2, 13230, Note_on_c, 0, 74, 48
2, 13256, Note_on_c, 0, 74, 0
2, 13260, Note_on_c, 0, 79, 54
2, 13286, Note_on_c, 0, 79, 0
2, 13290, Note_on_c, 0, 84, 56
2, 13316, Note_on_c, 0, 84, 0
2, 13320, Note_on_c, 0, 89, 68
2, 13346, Note_on_c, 0, 89, 0
2, 13350, Note_on_c, 0, 86, 54
2, 13376, Note_on_c, 0, 86, 0
2, 13380, Note_on_c, 0, 91, 52
2, 13406, Note_on_c, 0, 91, 0
2, 13410, Note_on_c, 0, 96, 62
2, 13422, Control_c, 0, 64, 0
2, 13436, Note_on_c, 0, 96, 0
2, 13438, Control_c, 0, 64, 127
2, 13440, Note_on_c, 0, 101, 71
2, 13466, Note_on_c, 0, 101, 0
2, 13470, Note_on_c, 0, 95, 57
2, 13496, Note_on_c, 0, 95, 0
2, 13500, Note_on_c, 0, 91, 55
2, 13526, Note_on_c, 0, 91, 0
2, 13530, Note_on_c, 0, 86, 44
2, 13556, Note_on_c, 0, 86, 0
2, 13560, Note_on_c, 0, 89, 69
2, 13586, Note_on_c, 0, 89, 0
2, 13590, Note_on_c, 0, 83, 47
2, 13616, Note_on_c, 0, 83, 0
2, 13620, Note_on_c, 0, 79, 54
2, 13646, Note_on_c, 0, 79, 0
2, 13650, Note_on_c, 0, 74, 42
2, 13676, Note_on_c, 0, 74, 0
2, 13680, Note_on_c, 0, 77, 69
2, 13706, Note_on_c, 0, 77, 0
2, 13710, Note_on_c, 0, 71, 37
2, 13736, Note_on_c, 0, 71, 0
2, 13740, Note_on_c, 0, 67, 45
2, 13766, Note_on_c, 0, 67, 0
2, 13770, Note_on_c, 0, 62, 52
2, 13796, Note_on_c, 0, 62, 0
2, 13800, Note_on_c, 0, 65, 68
2, 13806, Note_on_c, 0, 31, 0
2, 13813, Note_on_c, 0, 43, 0
2, 13826, Note_on_c, 0, 65, 0
2, 13830, Note_on_c, 0, 59, 53
2, 13856, Note_on_c, 0, 59, 0
2, 13860, Note_on_c, 0, 55, 36
2, 13886, Note_on_c, 0, 55, 0
2, 13890, Note_on_c, 0, 50, 48
2, 13907, Control_c, 0, 64, 0
2, 13916, Note_on_c, 0, 50, 0
2, 13921, Note_on_c, 0, 36, 83
2, 13922, Note_on_c, 0, 48, 83
2, 13922, Control_c, 0, 64, 127
2, 13943, Note_on_c, 0, 48, 0
2, 13950, Note_on_c, 0, 48, 77
2, 13980, Note_on_c, 0, 55, 45
2, 14006, Note_on_c, 0, 55, 0
2, 14010, Note_on_c, 0, 58, 42
2, 14036, Note_on_c, 0, 58, 0
2, 14040, Note_on_c, 0, 64, 69
2, 14066, Note_on_c, 0, 64, 0
2, 14070, Note_on_c, 0, 60, 50
2, 14096, Note_on_c, 0, 60, 0
2, 14100, Note_on_c, 0, 67, 54
2, 14126, Note_on_c, 0, 67, 0
2, 14130, Note_on_c, 0, 70, 49
2, 14156, Note_on_c, 0, 70, 0
2, 14160, Note_on_c, 0, 76, 69
2, 14186, Note_on_c, 0, 76, 0
2, 14190, Note_on_c, 0, 72, 55
2, 14216, Note_on_c, 0, 72, 0
2, 14220, Note_on_c, 0, 79, 55
2, 14246, Note_on_c, 0, 79, 0
2, 14250, Note_on_c, 0, 82, 50
2, 14276, Note_on_c, 0, 82, 0
2, 14280, Note_on_c, 0, 88, 71
2, 14306, Note_on_c, 0, 88, 0
2, 14310, Note_on_c, 0, 84, 43
2, 14324, Note_on_c, 0, 36, 0
2, 14332, Note_on_c, 0, 48, 0
2, 14336, Note_on_c, 0, 84, 0
2, 14340, Note_on_c, 0, 91, 53
2, 14366, Note_on_c, 0, 91, 0
2, 14370, Note_on_c, 0, 94, 49
2, 14380, Control_c, 0, 64, 0
2, 14395, Note_on_c, 0, 42, 78
2, 14396, Note_on_c, 0, 94, 0
2, 14396, Control_c, 0, 64, 127
2, 14398, Note_on_c, 0, 30, 83
2, 14400, Note_on_c, 0, 99, 67
2, 14426, Note_on_c, 0, 99, 0
2, 14430, Note_on_c, 0, 94, 44
2, 14456, Note_on_c, 0, 94, 0
2, 14460, Note_on_c, 0, 87, 46
2, 14486, Note_on_c, 0, 87, 0
2, 14490, Note_on_c, 0, 84, 48
2, 14516, Note_on_c, 0, 84, 0
2, 14520, Note_on_c, 0, 87, 68
2, 14546, Note_on_c, 0, 87, 0
2, 14550, Note_on_c, 0, 82, 50
2, 14576, Note_on_c, 0, 82, 0
2, 14580, Note_on_c, 0, 75, 42
2, 14606, Note_on_c, 0, 75, 0
2, 14610, Note_on_c, 0, 72, 45
2, 14636, Note_on_c, 0, 72, 0
2, 14640, Note_on_c, 0, 75, 68
2, 14666, Note_on_c, 0, 75, 0
2, 14670, Note_on_c, 0, 70, 46
2, 14696, Note_on_c, 0, 70, 0
2, 14700, Note_on_c, 0, 63, 51
2, 14726, Note_on_c, 0, 63, 0
2, 14730, Note_on_c, 0, 60, 46
2, 14756, Note_on_c, 0, 60, 0
2, 14760, Note_on_c, 0, 63, 67
2, 14786, Note_on_c, 0, 63, 0
2, 14790, Note_on_c, 0, 58, 48
2, 14816, Note_on_c, 0, 58, 0
2, 14820, Note_on_c, 0, 51, 54
2, 14846, Note_on_c, 0, 51, 0
2, 14850, Note_on_c, 0, 48, 52
2, 14852, Note_on_c, 0, 42, 0
2, 14853, Note_on_c, 0, 30, 0
2, 14867, Control_c, 0, 64, 0
2, 14876, Note_on_c, 0, 48, 0
2, 14882, Control_c, 0, 64, 127
2, 14883, Note_on_c, 0, 41, 86
2, 14884, Note_on_c, 0, 29, 76
2, 14910, Note_on_c, 0, 48, 48
2, 14936, Note_on_c, 0, 48, 0
2, 14940, Note_on_c, 0, 51, 47
2, 14966, Note_on_c, 0, 51, 0
2, 14970, Note_on_c, 0, 57, 48
2, 14996, Note_on_c, 0, 57, 0
2, 15000, Note_on_c, 0, 63, 69
2, 15026, Note_on_c, 0, 63, 0
2, 15030, Note_on_c, 0, 60, 46
2, 15056, Note_on_c, 0, 60, 0
2, 15060, Note_on_c, 0, 63, 50
2, 15086, Note_on_c, 0, 63, 0
2, 15090, Note_on_c, 0, 69, 46
2, 15116, Note_on_c, 0, 69, 0
2, 15120, Note_on_c, 0, 75, 69
2, 15146, Note_on_c, 0, 75, 0
2, 15150, Note_on_c, 0, 72, 52
2, 15176, Note_on_c, 0, 72, 0
2, 15180, Note_on_c, 0, 75, 52
2, 15206, Note_on_c, 0, 75, 0
2, 15210, Note_on_c, 0, 81, 48
2, 15236, Note_on_c, 0, 81, 0
2, 15240, Note_on_c, 0, 87, 69
2, 15266, Note_on_c, 0, 87, 0
2, 15270, Note_on_c, 0, 84, 48
2, 15289, Note_on_c, 0, 29, 0
2, 15296, Note_on_c, 0, 84, 0
2, 15299, Note_on_c, 0, 41, 0
2, 15300, Note_on_c, 0, 87, 51
2, 15326, Note_on_c, 0, 87, 0
2, 15330, Note_on_c, 0, 93, 53
2, 15343, Control_c, 0, 64, 0
2, 15356, Note_on_c, 0, 93, 0
2, 15360, Note_on_c, 0, 99, 67
2, 15360, Control_c, 0, 64, 127
2, 15366, Note_on_c, 0, 35, 79
2, 15366, Note_on_c, 0, 47, 84
2, 15386, Note_on_c, 0, 99, 0
2, 15390, Note_on_c, 0, 92, 50
2, 15416, Note_on_c, 0, 92, 0
2, 15420, Note_on_c, 0, 87, 50
2, 15446, Note_on_c, 0, 87, 0
2, 15450, Note_on_c, 0, 83, 58
2, 15476, Note_on_c, 0, 83, 0
2, 15480, Note_on_c, 0, 87, 68
2, 15506, Note_on_c, 0, 87, 0
2, 15510, Note_on_c, 0, 80, 62
2, 15536, Note_on_c, 0, 80, 0
2, 15540, Note_on_c, 0, 75, 57
2, 15566, Note_on_c, 0, 75, 0
2, 15570, Note_on_c, 0, 71, 53
2, 15596, Note_on_c, 0, 71, 0
2, 15600, Note_on_c, 0, 75, 65
2, 15626, Note_on_c, 0, 75, 0
2, 15630, Note_on_c, 0, 68, 50
2, 15656, Note_on_c, 0, 68, 0
2, 15660, Note_on_c, 0, 63, 45
2, 15686, Note_on_c, 0, 63, 0
2, 15690, Note_on_c, 0, 59, 52
2, 15716, Note_on_c, 0, 59, 0
2, 15720, Note_on_c, 0, 63, 69
2, 15746, Note_on_c, 0, 63, 0
2, 15750, Note_on_c, 0, 56, 59
2, 15776, Note_on_c, 0, 56, 0
2, 15780, Note_on_c, 0, 51, 65
2, 15792, Note_on_c, 0, 47, 0
2, 15806, Note_on_c, 0, 51, 0
2, 15806, Note_on_c, 0, 35, 0
2, 15810, Note_on_c, 0, 47, 54
2, 15829, Control_c, 0, 64, 0
2, 15836, Note_on_c, 0, 47, 0
2, 15844, Note_on_c, 0, 34, 90
2, 15844, Control_c, 0, 64, 127
2, 15870, Note_on_c, 0, 46, 62
2, 15896, Note_on_c, 0, 46, 0
2, 15900, Note_on_c, 0, 53, 56
2, 15926, Note_on_c, 0, 53, 0
2, 15930, Note_on_c, 0, 56, 53
2, 15956, Note_on_c, 0, 56, 0
2, 15960, Note_on_c, 0, 62, 66
2, 15986, Note_on_c, 0, 62, 0
2, 15990, Note_on_c, 0, 58, 51
2, 16016, Note_on_c, 0, 58, 0
2, 16020, Note_on_c, 0, 65, 58
2, 16046, Note_on_c, 0, 65, 0
2, 16050, Note_on_c, 0, 68, 65
2, 16076, Note_on_c, 0, 68, 0
2, 16080, Note_on_c, 0, 74, 70
2, 16106, Note_on_c, 0, 74, 0
2, 16110, Note_on_c, 0, 70, 63
2, 16136, Note_on_c, 0, 70, 0
2, 16140, Note_on_c, 0, 77, 63
2, 16166, Note_on_c, 0, 77, 0
2, 16170, Note_on_c, 0, 80, 63
2, 16196, Note_on_c, 0, 80, 0
2, 16200, Note_on_c, 0, 86, 69
2, 16226, Note_on_c, 0, 86, 0
2, 16230, Note_on_c, 0, 82, 51
2, 16256, Note_on_c, 0, 82, 0
2, 16260, Note_on_c, 0, 89, 63
2, 16286, Note_on_c, 0, 89, 0
2, 16290, Note_on_c, 0, 92, 59
2, 16298, Control_c, 0, 64, 0
2, 16316, Note_on_c, 0, 92, 0
2, 16320, Note_on_c, 0, 98, 69
2, 16321, Control_c, 0, 64, 127
2, 16326, Note_on_c, 0, 46, 91
2, 16346, Note_on_c, 0, 98, 0
2, 16350, Note_on_c, 0, 92, 54
2, 16376, Note_on_c, 0, 92, 0
2, 16380, Note_on_c, 0, 88, 62
2, 16406, Note_on_c, 0, 88, 0
2, 16410, Note_on_c, 0, 82, 52
2, 16436, Note_on_c, 0, 82, 0
2, 16440, Note_on_c, 0, 86, 72
2, 16466, Note_on_c, 0, 86, 0
2, 16470, Note_on_c, 0, 80, 46
2, 16496, Note_on_c, 0, 80, 0
2, 16500, Note_on_c, 0, 76, 58
2, 16526, Note_on_c, 0, 76, 0
2, 16530, Note_on_c, 0, 70, 52
2, 16556, Note_on_c, 0, 70, 0
2, 16560, Note_on_c, 0, 74, 73
2, 16586, Note_on_c, 0, 74, 0
2, 16590, Note_on_c, 0, 68, 69
2, 16616, Note_on_c, 0, 68, 0
2, 16620, Note_on_c, 0, 64, 63
2, 16646, Note_on_c, 0, 64, 0
2, 16650, Note_on_c, 0, 58, 51
2, 16676, Note_on_c, 0, 58, 0
2, 16680, Note_on_c, 0, 62, 71
2, 16706, Note_on_c, 0, 62, 0
2, 16710, Note_on_c, 0, 56, 60
2, 16736, Note_on_c, 0, 56, 0
2, 16740, Note_on_c, 0, 52, 66
2, 16760, Note_on_c, 0, 46, 0
2, 16761, Note_on_c, 0, 34, 0
2, 16766, Note_on_c, 0, 52, 0
2, 16770, Note_on_c, 0, 46, 66
2, 16796, Note_on_c, 0, 46, 0
2, 16797, Control_c, 0, 64, 0
2, 16798, Note_on_c, 0, 45, 94
2, 16799, Note_on_c, 0, 33, 89
2, 16815, Control_c, 0, 64, 127
2, 16817, Control_c, 0, 64, 126
2, 16821, Note_on_c, 0, 45, 0
2, 16830, Note_on_c, 0, 45, 83
2, 16860, Note_on_c, 0, 52, 64
2, 16886, Note_on_c, 0, 52, 0
2, 16890, Note_on_c, 0, 57, 53
2, 16916, Note_on_c, 0, 57, 0
2, 16920, Note_on_c, 0, 61, 78
2, 16946, Note_on_c, 0, 61, 0
2, 16950, Note_on_c, 0, 57, 50
2, 16976, Note_on_c, 0, 57, 0
2, 16980, Note_on_c, 0, 64, 60
2, 17006, Note_on_c, 0, 64, 0
2, 17010, Note_on_c, 0, 69, 68
2, 17036, Note_on_c, 0, 69, 0
2, 17040, Note_on_c, 0, 73, 76
2, 17066, Note_on_c, 0, 73, 0
2, 17070, Note_on_c, 0, 69, 58
2, 17096, Note_on_c, 0, 69, 0
2, 17100, Note_on_c, 0, 76, 56
2, 17126, Note_on_c, 0, 76, 0
2, 17130, Note_on_c, 0, 81, 55
2, 17156, Note_on_c, 0, 81, 0
2, 17160, Note_on_c, 0, 85, 76
2, 17186, Note_on_c, 0, 85, 0
2, 17190, Note_on_c, 0, 81, 62
2, 17216, Note_on_c, 0, 81, 0
2, 17220, Note_on_c, 0, 88, 70
2, 17246, Note_on_c, 0, 88, 0
2, 17250, Note_on_c, 0, 93, 68
2, 17276, Note_on_c, 0, 93, 0
2, 17280, Note_on_c, 0, 97, 79
2, 17306, Note_on_c, 0, 97, 0
2, 17310, Note_on_c, 0, 93, 60
2, 17336, Note_on_c, 0, 93, 0
2, 17340, Note_on_c, 0, 88, 67
2, 17366, Note_on_c, 0, 88, 0
2, 17370, Note_on_c, 0, 81, 62
2, 17396, Note_on_c, 0, 81, 0
2, 17400, Note_on_c, 0, 85, 77
2, 17426, Note_on_c, 0, 85, 0
2, 17430, Note_on_c, 0, 81, 63
2, 17456, Note_on_c, 0, 81, 0
2, 17460, Note_on_c, 0, 76, 65
2, 17486, Note_on_c, 0, 76, 0
2, 17490, Note_on_c, 0, 69, 62
2, 17516, Note_on_c, 0, 69, 0
2, 17520, Note_on_c, 0, 73, 75
2, 17546, Note_on_c, 0, 73, 0
2, 17550, Note_on_c, 0, 69, 63
2, 17576, Note_on_c, 0, 69, 0
2, 17580, Note_on_c, 0, 64, 60
2, 17606, Note_on_c, 0, 64, 0
2, 17610, Note_on_c, 0, 57, 49
2, 17636, Note_on_c, 0, 57, 0
2, 17640, Note_on_c, 0, 61, 77
2, 17656, Note_on_c, 0, 45, 0
2, 17666, Note_on_c, 0, 61, 0
2, 17670, Note_on_c, 0, 57, 62
2, 17696, Note_on_c, 0, 57, 0
2, 17700, Note_on_c, 0, 52, 63
2, 17724, Note_on_c, 0, 33, 0
2, 17726, Note_on_c, 0, 52, 0
2, 17730, Note_on_c, 0, 45, 56
2, 17747, Control_c, 0, 64, 0
2, 17756, Note_on_c, 0, 45, 0
2, 17763, Note_on_c, 0, 38, 95
2, 17766, Control_c, 0, 64, 127
2, 17790, Note_on_c, 0, 45, 49
2, 17816, Note_on_c, 0, 45, 0
2, 17820, Note_on_c, 0, 50, 65
2, 17846, Note_on_c, 0, 50, 0
2, 17850, Note_on_c, 0, 54, 58
2, 17876, Note_on_c, 0, 54, 0
2, 17880, Note_on_c, 0, 60, 76
2, 17906, Note_on_c, 0, 60, 0
2, 17910, Note_on_c, 0, 57, 53
2, 17936, Note_on_c, 0, 57, 0
2, 17940, Note_on_c, 0, 62, 68
2, 17966, Note_on_c, 0, 62, 0
2, 17970, Note_on_c, 0, 66, 59
2, 17996, Note_on_c, 0, 66, 0
2, 18000, Note_on_c, 0, 72, 76
2, 18026, Note_on_c, 0, 72, 0
2, 18030, Note_on_c, 0, 69, 57
2, 18056, Note_on_c, 0, 69, 0
2, 18060, Note_on_c, 0, 74, 65
2, 18086, Note_on_c, 0, 74, 0
2, 18090, Note_on_c, 0, 78, 60
2, 18116, Note_on_c, 0, 78, 0
2, 18120, Note_on_c, 0, 84, 75
2, 18146, Note_on_c, 0, 84, 0
2, 18150, Note_on_c, 0, 81, 55
2, 18176, Note_on_c, 0, 81, 0
2, 18180, Note_on_c, 0, 86, 58
2, 18206, Note_on_c, 0, 86, 0
2, 18206, Note_on_c, 0, 38, 0
2, 18210, Note_on_c, 0, 90, 64
2, 18225, Control_c, 0, 64, 0
2, 18236, Note_on_c, 0, 90, 0
2, 18236, Note_on_c, 0, 31, 83
2, 18238, Note_on_c, 0, 43, 84
2, 18240, Note_on_c, 0, 96, 76
2, 18242, Control_c, 0, 64, 127
2, 18266, Note_on_c, 0, 96, 0
2, 18270, Note_on_c, 0, 89, 63
2, 18296, Note_on_c, 0, 89, 0
2, 18300, Note_on_c, 0, 86, 63
2, 18326, Note_on_c, 0, 86, 0
2, 18330, Note_on_c, 0, 79, 53
2, 18356, Note_on_c, 0, 79, 0
2, 18360, Note_on_c, 0, 84, 77
2, 18386, Note_on_c, 0, 84, 0
2, 18390, Note_on_c, 0, 77, 57
2, 18416, Note_on_c, 0, 77, 0
2, 18420, Note_on_c, 0, 74, 59
2, 18446, Note_on_c, 0, 74, 0
2, 18450, Note_on_c, 0, 67, 58
2, 18476, Note_on_c, 0, 67, 0
2, 18480, Note_on_c, 0, 72, 81
2, 18506, Note_on_c, 0, 72, 0
2, 18510, Note_on_c, 0, 65, 51
2, 18536, Note_on_c, 0, 65, 0
2, 18540, Note_on_c, 0, 62, 58
2, 18566, Note_on_c, 0, 62, 0
2, 18570, Note_on_c, 0, 55, 62
2, 18586, Control_c, 0, 64, 0
2, 18596, Note_on_c, 0, 55, 0
2, 18600, Note_on_c, 0, 59, 80
2, 18601, Control_c, 0, 64, 127
2, 18626, Note_on_c, 0, 59, 0
2, 18630, Note_on_c, 0, 53, 66
2, 18656, Note_on_c, 0, 53, 0
2, 18660, Note_on_c, 0, 50, 54
2, 18671, Note_on_c, 0, 43, 0
2, 18686, Note_on_c, 0, 50, 0
2, 18690, Note_on_c, 0, 43, 54
2, 18701, Note_on_c, 0, 31, 0
2, 18708, Control_c, 0, 64, 0
2, 18716, Note_on_c, 0, 43, 0
2, 18720, Control_c, 0, 64, 127
2, 18726, Note_on_c, 0, 36, 86
2, 18750, Note_on_c, 0, 43, 45
2, 18776, Note_on_c, 0, 43, 0
2, 18780, Note_on_c, 0, 48, 58
2, 18806, Note_on_c, 0, 48, 0
2, 18810, Note_on_c, 0, 52, 47
2, 18836, Note_on_c, 0, 52, 0
2, 18840, Note_on_c, 0, 59, 73
2, 18866, Note_on_c, 0, 59, 0
2, 18870, Note_on_c, 0, 55, 44
2, 18896, Note_on_c, 0, 55, 0
2, 18900, Note_on_c, 0, 60, 54
2, 18926, Note_on_c, 0, 60, 0
2, 18930, Note_on_c, 0, 64, 57
2, 18956, Note_on_c, 0, 64, 0
2, 18960, Note_on_c, 0, 71, 75
2, 18986, Note_on_c, 0, 71, 0
2, 18990, Note_on_c, 0, 67, 50
2, 19016, Note_on_c, 0, 67, 0
2, 19020, Note_on_c, 0, 72, 61
2, 19046, Note_on_c, 0, 72, 0
2, 19050, Note_on_c, 0, 76, 57
2, 19076, Note_on_c, 0, 76, 0
2, 19080, Note_on_c, 0, 83, 76
2, 19106, Note_on_c, 0, 83, 0
2, 19110, Note_on_c, 0, 79, 52
2, 19136, Note_on_c, 0, 79, 0
2, 19140, Note_on_c, 0, 84, 48
2, 19166, Note_on_c, 0, 84, 0
2, 19170, Note_on_c, 0, 88, 49
2, 19185, Note_on_c, 0, 36, 0
2, 19195, Control_c, 0, 64, 0
2, 19196, Note_on_c, 0, 88, 0
2, 19200, Note_on_c, 0, 95, 74
2, 19204, Note_on_c, 0, 29, 78
2, 19206, Note_on_c, 0, 41, 80
2, 19212, Control_c, 0, 64, 127
2, 19226, Note_on_c, 0, 95, 0
2, 19230, Note_on_c, 0, 88, 53
2, 19256, Note_on_c, 0, 88, 0
2, 19260, Note_on_c, 0, 84, 58
2, 19286, Note_on_c, 0, 84, 0
2, 19290, Note_on_c, 0, 77, 46
2, 19316, Note_on_c, 0, 77, 0
2, 19320, Note_on_c, 0, 83, 75
2, 19346, Note_on_c, 0, 83, 0
2, 19350, Note_on_c, 0, 76, 60
2, 19376, Note_on_c, 0, 76, 0
2, 19380, Note_on_c, 0, 72, 59
2, 19406, Note_on_c, 0, 72, 0
2, 19410, Note_on_c, 0, 65, 52
2, 19436, Note_on_c, 0, 65, 0
2, 19440, Note_on_c, 0, 71, 73
2, 19466, Note_on_c, 0, 71, 0
2, 19470, Note_on_c, 0, 64, 60
2, 19496, Note_on_c, 0, 64, 0
2, 19500, Note_on_c, 0, 60, 44
2, 19526, Note_on_c, 0, 60, 0
2, 19530, Note_on_c, 0, 53, 59
2, 19537, Control_c, 0, 64, 0
2, 19552, Control_c, 0, 64, 127
2, 19556, Note_on_c, 0, 53, 0
2, 19560, Note_on_c, 0, 57, 69
2, 19586, Note_on_c, 0, 57, 0
2, 19590, Note_on_c, 0, 52, 55
2, 19616, Note_on_c, 0, 52, 0
2, 19620, Note_on_c, 0, 48, 62
2, 19633, Note_on_c, 0, 41, 0
2, 19646, Note_on_c, 0, 48, 0
2, 19650, Note_on_c, 0, 41, 55
2, 19658, Control_c, 0, 64, 0
2, 19671, Note_on_c, 0, 29, 0
2, 19673, Control_c, 0, 64, 127
2, 19676, Note_on_c, 0, 41, 0
2, 19682, Note_on_c, 0, 35, 82
2, 19710, Note_on_c, 0, 41, 48
2, 19736, Note_on_c, 0, 41, 0
2, 19740, Note_on_c, 0, 47, 59
2, 19766, Note_on_c, 0, 47, 0
2, 19770, Note_on_c, 0, 50, 54
2, 19796, Note_on_c, 0, 50, 0
2, 19800, Note_on_c, 0, 57, 72
2, 19826, Note_on_c, 0, 57, 0
2, 19830, Note_on_c, 0, 53, 55
2, 19856, Note_on_c, 0, 53, 0
2, 19860, Note_on_c, 0, 59, 60
2, 19886, Note_on_c, 0, 59, 0
2, 19890, Note_on_c, 0, 62, 57
2, 19916, Note_on_c, 0, 62, 0
2, 19920, Note_on_c, 0, 69, 67
2, 19946, Note_on_c, 0, 69, 0
2, 19950, Note_on_c, 0, 65, 50
2, 19976, Note_on_c, 0, 65, 0
2, 19980, Note_on_c, 0, 71, 56
2, 20006, Note_on_c, 0, 71, 0
2, 20010, Note_on_c, 0, 74, 56
2, 20036, Note_on_c, 0, 74, 0
2, 20040, Note_on_c, 0, 81, 67
2, 20066, Note_on_c, 0, 81, 0
2, 20070, Note_on_c, 0, 77, 52
2, 20096, Note_on_c, 0, 77, 0
2, 20100, Note_on_c, 0, 83, 53
2, 20126, Note_on_c, 0, 83, 0
2, 20130, Note_on_c, 0, 86, 59
2, 20136, Note_on_c, 0, 35, 0
2, 20136, Control_c, 0, 64, 0
2, 20155, Note_on_c, 0, 28, 85
2, 20155, Note_on_c, 0, 40, 94
2, 20156, Note_on_c, 0, 86, 0
2, 20157, Control_c, 0, 64, 127
2, 20160, Note_on_c, 0, 91, 66
2, 20186, Note_on_c, 0, 91, 0
2, 20190, Note_on_c, 0, 86, 54
2, 20216, Note_on_c, 0, 86, 0
2, 20220, Note_on_c, 0, 83, 55
2, 20246, Note_on_c, 0, 83, 0
2, 20250, Note_on_c, 0, 76, 51
2, 20276, Note_on_c, 0, 76, 0
2, 20280, Note_on_c, 0, 79, 67
2, 20306, Note_on_c, 0, 79, 0
2, 20310, Note_on_c, 0, 74, 54
2, 20327, Note_on_c, 0, 28, 0
2, 20336, Note_on_c, 0, 74, 0
2, 20338, Note_on_c, 0, 40, 0
2, 20340, Note_on_c, 0, 71, 56
2, 20366, Note_on_c, 0, 71, 0
2, 20370, Note_on_c, 0, 64, 53
2, 20373, Control_c, 0, 64, 0
2, 20396, Note_on_c, 0, 64, 0
2, 20396, Control_c, 0, 64, 127
2, 20400, Note_on_c, 0, 69, 55
2, 20402, Note_on_c, 0, 45, 88
2, 20403, Note_on_c, 0, 33, 90
2, 20426, Note_on_c, 0, 69, 0
2, 20430, Note_on_c, 0, 72, 52
2, 20456, Note_on_c, 0, 72, 0
2, 20460, Note_on_c, 0, 79, 59
2, 20486, Note_on_c, 0, 79, 0
2, 20490, Note_on_c, 0, 76, 50
2, 20516, Note_on_c, 0, 76, 0
2, 20520, Note_on_c, 0, 81, 55
2, 20546, Note_on_c, 0, 81, 0
2, 20550, Note_on_c, 0, 84, 46
2, 20562, Note_on_c, 0, 45, 0
2, 20576, Note_on_c, 0, 84, 0
2, 20578, Note_on_c, 0, 33, 0
2, 20580, Note_on_c, 0, 91, 64
2, 20606, Note_on_c, 0, 91, 0
2, 20610, Note_on_c, 0, 88, 55
2, 20617, Control_c, 0, 64, 0
2, 20634, Control_c, 0, 64, 127
2, 20636, Note_on_c, 0, 88, 0
2, 20640, Note_on_c, 0, 89, 71
2, 20646, Note_on_c, 0, 38, 86
2, 20650, Note_on_c, 0, 26, 88
2, 20666, Note_on_c, 0, 89, 0
2, 20670, Note_on_c, 0, 84, 51
2, 20696, Note_on_c, 0, 84, 0
2, 20700, Note_on_c, 0, 81, 60
2, 20726, Note_on_c, 0, 81, 0
2, 20730, Note_on_c, 0, 74, 55
2, 20756, Note_on_c, 0, 74, 0
2, 20760, Note_on_c, 0, 77, 75
2, 20786, Note_on_c, 0, 77, 0
2, 20790, Note_on_c, 0, 72, 61
2, 20814, Note_on_c, 0, 26, 0
2, 20816, Note_on_c, 0, 72, 0
2, 20819, Note_on_c, 0, 38, 0
2, 20820, Note_on_c, 0, 69, 49
2, 20846, Note_on_c, 0, 69, 0
2, 20850, Note_on_c, 0, 62, 51
2, 20857, Control_c, 0, 64, 0
2, 20876, Note_on_c, 0, 62, 0
2, 20880, Note_on_c, 0, 67, 49
2, 20881, Control_c, 0, 64, 127
2, 20891, Note_on_c, 0, 43, 88
2, 20893, Note_on_c, 0, 31, 94
2, 20906, Note_on_c, 0, 67, 0
2, 20910, Note_on_c, 0, 71, 48
2, 20936, Note_on_c, 0, 71, 0
2, 20940, Note_on_c, 0, 77, 62
2, 20966, Note_on_c, 0, 77, 0
2, 20970, Note_on_c, 0, 74, 56
2, 20996, Note_on_c, 0, 74, 0
2, 21000, Note_on_c, 0, 79, 57
2, 21026, Note_on_c, 0, 79, 0
2, 21030, Note_on_c, 0, 83, 57
2, 21037, Note_on_c, 0, 43, 0
2, 21049, Note_on_c, 0, 31, 0
2, 21056, Note_on_c, 0, 83, 0
2, 21060, Note_on_c, 0, 89, 71
2, 21086, Note_on_c, 0, 89, 0
2, 21090, Note_on_c, 0, 86, 59
2, 21100, Control_c, 0, 64, 0
2, 21116, Note_on_c, 0, 86, 0
2, 21120, Note_on_c, 0, 88, 74
2, 21121, Control_c, 0, 64, 127
2, 21125, Note_on_c, 0, 36, 90
2, 21126, Note_on_c, 0, 24, 88
2, 21146, Note_on_c, 0, 88, 0
2, 21150, Note_on_c, 0, 83, 47
2, 21176, Note_on_c, 0, 83, 0
2, 21180, Note_on_c, 0, 79, 57
2, 21206, Note_on_c, 0, 79, 0
2, 21210, Note_on_c, 0, 72, 51
2, 21236, Note_on_c, 0, 72, 0
2, 21240, Note_on_c, 0, 76, 74
2, 21255, Note_on_c, 0, 24, 0
2, 21261, Note_on_c, 0, 36, 0
2, 21266, Note_on_c, 0, 76, 0
2, 21270, Note_on_c, 0, 71, 61
2, 21296, Note_on_c, 0, 71, 0
2, 21300, Note_on_c, 0, 67, 62
2, 21326, Note_on_c, 0, 67, 0
2, 21330, Note_on_c, 0, 60, 50
2, 21336, Control_c, 0, 64, 0
2, 21353, Control_c, 0, 64, 127
2, 21356, Note_on_c, 0, 60, 0
2, 21360, Note_on_c, 0, 65, 56
2, 21360, Note_on_c, 0, 41, 93
2, 21362, Note_on_c, 0, 29, 84
2, 21386, Note_on_c, 0, 65, 0
2, 21390, Note_on_c, 0, 69, 53
2, 21416, Note_on_c, 0, 69, 0
2, 21420, Note_on_c, 0, 76, 56
2, 21446, Note_on_c, 0, 76, 0
2, 21450, Note_on_c, 0, 72, 57
2, 21476, Note_on_c, 0, 72, 0
2, 21480, Note_on_c, 0, 77, 62
2, 21506, Note_on_c, 0, 77, 0
2, 21510, Note_on_c, 0, 81, 55
2, 21536, Note_on_c, 0, 81, 0
2, 21540, Note_on_c, 0, 88, 75
2, 21551, Note_on_c, 0, 29, 0
2, 21560, Note_on_c, 0, 41, 0
2, 21566, Note_on_c, 0, 88, 0
2, 21570, Note_on_c, 0, 84, 61
2, 21573, Control_c, 0, 64, 0
2, 21595, Control_c, 0, 64, 127
2, 21596, Note_on_c, 0, 84, 0
2, 21600, Note_on_c, 0, 86, 80
2, 21606, Note_on_c, 0, 47, 90
2, 21606, Note_on_c, 0, 35, 97
2, 21626, Note_on_c, 0, 86, 0
2, 21630, Note_on_c, 0, 81, 66
2, 21656, Note_on_c, 0, 81, 0
2, 21660, Note_on_c, 0, 77, 60
2, 21686, Note_on_c, 0, 77, 0
2, 21690, Note_on_c, 0, 71, 61
2, 21716, Note_on_c, 0, 71, 0
2, 21720, Note_on_c, 0, 74, 77
2, 21746, Note_on_c, 0, 74, 0
2, 21750, Note_on_c, 0, 69, 63
2, 21776, Note_on_c, 0, 69, 0
2, 21780, Note_on_c, 0, 65, 52
2, 21806, Note_on_c, 0, 65, 0
2, 21810, Note_on_c, 0, 59, 50
2, 21836, Note_on_c, 0, 59, 0
2, 21840, Note_on_c, 0, 62, 77
2, 21866, Note_on_c, 0, 62, 0
2, 21870, Note_on_c, 0, 57, 62
2, 21896, Note_on_c, 0, 57, 0
2, 21900, Note_on_c, 0, 53, 60
2, 21913, Note_on_c, 0, 47, 0
2, 21926, Note_on_c, 0, 53, 0
2, 21928, Control_c, 0, 64, 0
2, 21930, Note_on_c, 0, 47, 59
2, 21940, Note_on_c, 0, 35, 0
2, 21951, Control_c, 0, 64, 127
2, 21956, Note_on_c, 0, 47, 0
2, 21964, Note_on_c, 0, 35, 99
2, 22080, Note_on_c, 0, 87, 79
2, 22083, Note_on_c, 0, 47, 93
2, 22106, Note_on_c, 0, 87, 0
2, 22110, Note_on_c, 0, 81, 74
2, 22136, Note_on_c, 0, 81, 0
2, 22140, Note_on_c, 0, 78, 69
2, 22166, Note_on_c, 0, 78, 0
2, 22170, Note_on_c, 0, 71, 70
2, 22196, Note_on_c, 0, 71, 0
2, 22200, Note_on_c, 0, 75, 80
2, 22226, Note_on_c, 0, 75, 0
2, 22230, Note_on_c, 0, 69, 66
2, 22256, Note_on_c, 0, 69, 0
2, 22260, Note_on_c, 0, 66, 65
2, 22286, Note_on_c, 0, 66, 0
2, 22290, Note_on_c, 0, 59, 62
2, 22316, Note_on_c, 0, 59, 0
2, 22320, Note_on_c, 0, 63, 78
2, 22346, Note_on_c, 0, 63, 0
2, 22350, Note_on_c, 0, 57, 65
2, 22376, Note_on_c, 0, 57, 0
2, 22380, Note_on_c, 0, 54, 65
2, 22391, Note_on_c, 0, 47, 0
2, 22406, Note_on_c, 0, 54, 0
2, 22410, Note_on_c, 0, 35, 0
2, 22410, Note_on_c, 0, 47, 57
2, 22421, Control_c, 0, 64, 0
2, 22436, Note_on_c, 0, 47, 0
2, 22438, Control_c, 0, 64, 127
2, 22441, Note_on_c, 0, 35, 97
2, 22562, Note_on_c, 0, 28, 85
2, 22562, Note_on_c, 0, 40, 94
2, 22566, Note_on_c, 0, 35, 0
2, 22590, Note_on_c, 0, 47, 57
2, 22616, Note_on_c, 0, 47, 0
2, 22620, Note_on_c, 0, 52, 68
2, 22646, Note_on_c, 0, 52, 0
2, 22650, Note_on_c, 0, 56, 62
2, 22676, Note_on_c, 0, 56, 0
2, 22680, Note_on_c, 0, 64, 77
2, 22706, Note_on_c, 0, 64, 0
2, 22710, Note_on_c, 0, 59, 56
2, 22736, Note_on_c, 0, 59, 0
2, 22740, Note_on_c, 0, 64, 58
2, 22766, Note_on_c, 0, 64, 0
2, 22770, Note_on_c, 0, 68, 66
2, 22796, Note_on_c, 0, 68, 0
2, 22800, Note_on_c, 0, 76, 79
2, 22826, Note_on_c, 0, 76, 0
2, 22830, Note_on_c, 0, 71, 56
2, 22856, Note_on_c, 0, 71, 0
2, 22860, Note_on_c, 0, 76, 70
2, 22886, Note_on_c, 0, 76, 0
2, 22890, Note_on_c, 0, 80, 64
2, 22916, Note_on_c, 0, 80, 0
2, 22920, Note_on_c, 0, 88, 78
2, 22946, Note_on_c, 0, 88, 0
2, 22950, Note_on_c, 0, 83, 56
2, 22976, Note_on_c, 0, 83, 0
2, 22980, Note_on_c, 0, 88, 62
2, 23006, Note_on_c, 0, 88, 0
2, 23010, Note_on_c, 0, 92, 58
2, 23036, Note_on_c, 0, 92, 0
2, 23040, Note_on_c, 0, 100, 75
2, 23066, Note_on_c, 0, 100, 0
2, 23070, Note_on_c, 0, 92, 52
2, 23096, Note_on_c, 0, 92, 0
2, 23100, Note_on_c, 0, 88, 56
2, 23126, Note_on_c, 0, 88, 0
2, 23130, Note_on_c, 0, 83, 61
2, 23156, Note_on_c, 0, 83, 0
2, 23160, Note_on_c, 0, 88, 79
2, 23186, Note_on_c, 0, 88, 0
2, 23190, Note_on_c, 0, 80, 59
2, 23216, Note_on_c, 0, 80, 0
2, 23220, Note_on_c, 0, 76, 55
2, 23246, Note_on_c, 0, 76, 0
2, 23250, Note_on_c, 0, 71, 60
2, 23276, Note_on_c, 0, 71, 0
2, 23280, Note_on_c, 0, 76, 80
2, 23306, Note_on_c, 0, 76, 0
2, 23310, Note_on_c, 0, 68, 60
2, 23336, Note_on_c, 0, 68, 0
2, 23340, Note_on_c, 0, 64, 61
2, 23358, Note_on_c, 0, 40, 0
2, 23361, Note_on_c, 0, 28, 0
2, 23366, Note_on_c, 0, 64, 0
2, 23370, Note_on_c, 0, 59, 62
2, 23373, Control_c, 0, 64, 0
2, 23391, Control_c, 0, 64, 127
2, 23396, Note_on_c, 0, 59, 0
2, 23398, Note_on_c, 0, 38, 88
2, 23400, Note_on_c, 0, 65, 77
2, 23400, Note_on_c, 0, 26, 88
2, 23426, Note_on_c, 0, 65, 0
2, 23430, Note_on_c, 0, 59, 69
2, 23456, Note_on_c, 0, 59, 0
2, 23460, Note_on_c, 0, 55, 70
2, 23486, Note_on_c, 0, 55, 0
2, 23490, Note_on_c, 0, 50, 62
2, 23500, Control_c, 0, 64, 0
2, 23503, Note_on_c, 0, 38, 0
2, 23516, Note_on_c, 0, 50, 0
2, 23519, Note_on_c, 0, 26, 0
2, 23522, Control_c, 0, 64, 127
2, 23534, Note_on_c, 0, 36, 93
2, 23536, Note_on_c, 0, 24, 90
2, 23550, Note_on_c, 0, 48, 68
2, 23576, Note_on_c, 0, 48, 0
2, 23580, Note_on_c, 0, 55, 69
2, 23606, Note_on_c, 0, 55, 0
2, 23610, Note_on_c, 0, 60, 59
2, 23636, Note_on_c, 0, 60, 0
2, 23640, Note_on_c, 0, 64, 77
2, 23666, Note_on_c, 0, 64, 0
2, 23670, Note_on_c, 0, 60, 62
2, 23696, Note_on_c, 0, 60, 0
2, 23700, Note_on_c, 0, 67, 62
2, 23726, Note_on_c, 0, 67, 0
2, 23730, Note_on_c, 0, 72, 67
2, 23756, Note_on_c, 0, 72, 0
2, 23760, Note_on_c, 0, 76, 79
2, 23786, Note_on_c, 0, 76, 0
2, 23790, Note_on_c, 0, 72, 56
2, 23816, Note_on_c, 0, 72, 0
2, 23820, Note_on_c, 0, 79, 58
2, 23846, Note_on_c, 0, 79, 0
2, 23850, Note_on_c, 0, 84, 63
2, 23870, Note_on_c, 0, 24, 0
2, 23876, Note_on_c, 0, 84, 0
2, 23880, Note_on_c, 0, 88, 77
2, 23906, Note_on_c, 0, 88, 0
2, 23910, Note_on_c, 0, 84, 59
2, 23936, Note_on_c, 0, 84, 0
2, 23940, Note_on_c, 0, 91, 63
2, 23966, Note_on_c, 0, 91, 0
2, 23970, Note_on_c, 0, 96, 63
2, 23996, Note_on_c, 0, 96, 0
2, 24000, Note_on_c, 0, 100, 78
2, 24005, Note_on_c, 0, 48, 99
2, 24026, Note_on_c, 0, 100, 0
2, 24030, Note_on_c, 0, 96, 65
2, 24056, Note_on_c, 0, 96, 0
2, 24060, Note_on_c, 0, 91, 66
2, 24086, Note_on_c, 0, 91, 0
2, 24090, Note_on_c, 0, 84, 58
2, 24116, Note_on_c, 0, 84, 0
2, 24120, Note_on_c, 0, 88, 81
2, 24146, Note_on_c, 0, 88, 0
2, 24150, Note_on_c, 0, 84, 54
2, 24176, Note_on_c, 0, 84, 0
2, 24180, Note_on_c, 0, 79, 55
2, 24206, Note_on_c, 0, 79, 0
2, 24210, Note_on_c, 0, 72, 56
2, 24236, Note_on_c, 0, 72, 0
2, 24240, Note_on_c, 0, 76, 80
2, 24266, Note_on_c, 0, 76, 0
2, 24270, Note_on_c, 0, 72, 55
2, 24296, Note_on_c, 0, 72, 0
2, 24300, Note_on_c, 0, 67, 61
2, 24326, Note_on_c, 0, 67, 0
2, 24330, Note_on_c, 0, 60, 59
2, 24356, Note_on_c, 0, 60, 0
2, 24360, Note_on_c, 0, 64, 77
2, 24369, Note_on_c, 0, 48, 0
2, 24386, Note_on_c, 0, 64, 0
2, 24390, Note_on_c, 0, 60, 55
2, 24403, Note_on_c, 0, 36, 0
2, 24416, Note_on_c, 0, 60, 0
2, 24420, Note_on_c, 0, 55, 57
2, 24446, Note_on_c, 0, 55, 0
2, 24450, Note_on_c, 0, 48, 51
2, 24471, Control_c, 0, 64, 0
2, 24476, Note_on_c, 0, 48, 0
2, 24482, Note_on_c, 0, 41, 96
2, 24485, Note_on_c, 0, 29, 96
2, 24489, Control_c, 0, 64, 127
2, 24510, Note_on_c, 0, 48, 60
2, 24536, Note_on_c, 0, 48, 0
2, 24540, Note_on_c, 0, 57, 50
2, 24566, Note_on_c, 0, 57, 0
2, 24570, Note_on_c, 0, 60, 52
2, 24596, Note_on_c, 0, 60, 0
2, 24600, Note_on_c, 0, 65, 81
2, 24626, Note_on_c, 0, 65, 0
2, 24630, Note_on_c, 0, 60, 49
2, 24656, Note_on_c, 0, 60, 0
2, 24660, Note_on_c, 0, 69, 54
2, 24686, Note_on_c, 0, 69, 0
2, 24690, Note_on_c, 0, 72, 55
2, 24716, Note_on_c, 0, 72, 0
2, 24720, Note_on_c, 0, 77, 77
2, 24746, Note_on_c, 0, 77, 0
2, 24750, Note_on_c, 0, 72, 52
2, 24776, Note_on_c, 0, 72, 0
2, 24780, Note_on_c, 0, 81, 63
2, 24806, Note_on_c, 0, 81, 0
2, 24810, Note_on_c, 0, 84, 58
2, 24836, Note_on_c, 0, 84, 0
2, 24840, Note_on_c, 0, 89, 78
2, 24866, Note_on_c, 0, 89, 0
2, 24870, Note_on_c, 0, 84, 56
2, 24878, Note_on_c, 0, 41, 0
2, 24896, Note_on_c, 0, 84, 0
2, 24900, Note_on_c, 0, 93, 53
2, 24926, Note_on_c, 0, 93, 0
2, 24930, Note_on_c, 0, 96, 48
2, 24938, Control_c, 0, 64, 0
2, 24956, Note_on_c, 0, 96, 0
2, 24957, Control_c, 0, 64, 127
2, 24960, Note_on_c, 0, 100, 79
2, 24968, Note_on_c, 0, 30, 87
2, 24969, Note_on_c, 0, 42, 92
2, 24982, Note_on_c, 0, 29, 0
2, 24986, Note_on_c, 0, 100, 0
2, 24990, Note_on_c, 0, 96, 50
2, 25016, Note_on_c, 0, 96, 0
2, 25020, Note_on_c, 0, 93, 66
2, 25046, Note_on_c, 0, 93, 0
2, 25050, Note_on_c, 0, 84, 59
2, 25076, Note_on_c, 0, 84, 0
2, 25080, Note_on_c, 0, 88, 79
2, 25106, Note_on_c, 0, 88, 0
2, 25110, Note_on_c, 0, 84, 72
2, 25136, Note_on_c, 0, 84, 0
2, 25140, Note_on_c, 0, 81, 65
2, 25166, Note_on_c, 0, 81, 0
2, 25170, Note_on_c, 0, 72, 57
2, 25196, Note_on_c, 0, 72, 0
2, 25200, Note_on_c, 0, 76, 78
2, 25226, Note_on_c, 0, 76, 0
2, 25230, Note_on_c, 0, 72, 61
2, 25256, Note_on_c, 0, 72, 0
2, 25260, Note_on_c, 0, 69, 61
2, 25286, Note_on_c, 0, 69, 0
2, 25290, Note_on_c, 0, 60, 54
2, 25316, Note_on_c, 0, 60, 0
2, 25320, Note_on_c, 0, 62, 78
2, 25346, Note_on_c, 0, 62, 0
2, 25350, Note_on_c, 0, 60, 58
2, 25376, Note_on_c, 0, 60, 0
2, 25380, Note_on_c, 0, 57, 60
2, 25406, Note_on_c, 0, 57, 0
2, 25410, Note_on_c, 0, 48, 66
2, 25421, Note_on_c, 0, 30, 0
2, 25422, Control_c, 0, 64, 0
2, 25432, Note_on_c, 0, 42, 0
2, 25436, Note_on_c, 0, 48, 0
2, 25441, Control_c, 0, 64, 127
2, 25451, Note_on_c, 0, 31, 85
2, 25451, Note_on_c, 0, 43, 97
2, 25470, Note_on_c, 0, 47, 51
2, 25496, Note_on_c, 0, 47, 0
2, 25500, Note_on_c, 0, 55, 59
2, 25526, Note_on_c, 0, 55, 0
2, 25530, Note_on_c, 0, 59, 60
2, 25556, Note_on_c, 0, 59, 0
2, 25560, Note_on_c, 0, 62, 79
2, 25586, Note_on_c, 0, 62, 0
2, 25590, Note_on_c, 0, 59, 66
2, 25616, Note_on_c, 0, 59, 0
2, 25616, Note_on_c, 0, 43, 0
2, 25620, Note_on_c, 0, 67, 62
2, 25646, Note_on_c, 0, 67, 0
2, 25650, Note_on_c, 0, 71, 66
2, 25676, Note_on_c, 0, 71, 0
2, 25678, Control_c, 0, 64, 0
2, 25680, Note_on_c, 0, 74, 80
2, 25681, Note_on_c, 0, 31, 0
2, 25684, Note_on_c, 0, 42, 88
2, 25685, Note_on_c, 0, 30, 86
2, 25706, Note_on_c, 0, 74, 0
2, 25710, Note_on_c, 0, 71, 57
2, 25736, Note_on_c, 0, 71, 0
2, 25740, Note_on_c, 0, 79, 65
2, 25766, Note_on_c, 0, 79, 0
2, 25770, Note_on_c, 0, 83, 63
2, 25777, Note_on_c, 0, 42, 0
2, 25794, Control_c, 0, 64, 127
2, 25796, Note_on_c, 0, 83, 0
2, 25800, Note_on_c, 0, 86, 77
2, 25809, Note_on_c, 0, 40, 89
2, 25810, Note_on_c, 0, 28, 90
2, 25822, Note_on_c, 0, 30, 0
2, 25826, Note_on_c, 0, 86, 0
2, 25830, Note_on_c, 0, 83, 55
2, 25856, Note_on_c, 0, 83, 0
2, 25860, Note_on_c, 0, 91, 67
2, 25886, Note_on_c, 0, 91, 0
2, 25890, Note_on_c, 0, 93, 63
2, 25909, Control_c, 0, 64, 0
2, 25916, Note_on_c, 0, 93, 0
2, 25919, Note_on_c, 0, 40, 0
2, 25920, Note_on_c, 0, 98, 78
2, 25921, Control_c, 0, 64, 127
2, 25927, Note_on_c, 0, 28, 0
2, 25927, Note_on_c, 0, 26, 101
2, 25927, Note_on_c, 0, 38, 84
2, 25946, Note_on_c, 0, 98, 0
2, 25950, Note_on_c, 0, 93, 50
2, 25976, Note_on_c, 0, 93, 0
2, 25980, Note_on_c, 0, 90, 62
2, 26006, Note_on_c, 0, 90, 0
2, 26010, Note_on_c, 0, 84, 52
2, 26036, Note_on_c, 0, 84, 0
2, 26040, Note_on_c, 0, 86, 79
2, 26066, Note_on_c, 0, 86, 0
2, 26070, Note_on_c, 0, 81, 66
2, 26096, Note_on_c, 0, 81, 0
2, 26100, Note_on_c, 0, 78, 51
2, 26126, Note_on_c, 0, 78, 0
2, 26130, Note_on_c, 0, 72, 53
2, 26156, Note_on_c, 0, 72, 0
2, 26160, Note_on_c, 0, 74, 76
2, 26186, Note_on_c, 0, 74, 0
2, 26190, Note_on_c, 0, 69, 47
2, 26216, Note_on_c, 0, 69, 0
2, 26220, Note_on_c, 0, 66, 55
2, 26246, Note_on_c, 0, 66, 0
2, 26250, Note_on_c, 0, 60, 52
2, 26276, Note_on_c, 0, 60, 0
2, 26280, Note_on_c, 0, 62, 77
2, 26306, Note_on_c, 0, 62, 0
2, 26310, Note_on_c, 0, 57, 42
2, 26328, Note_on_c, 0, 26, 0
2, 26336, Note_on_c, 0, 57, 0
2, 26340, Note_on_c, 0, 54, 61
2, 26344, Note_on_c, 0, 38, 0
2, 26366, Note_on_c, 0, 54, 0
2, 26370, Note_on_c, 0, 48, 60
2, 26381, Control_c, 0, 64, 0
2, 26396, Note_on_c, 0, 48, 0
2, 26400, Control_c, 0, 64, 127
2, 26405, Note_on_c, 0, 43, 94
2, 26408, Note_on_c, 0, 31, 91
2, 26430, Note_on_c, 0, 48, 49
2, 26456, Note_on_c, 0, 48, 0
2, 26460, Note_on_c, 0, 53, 59
2, 26486, Note_on_c, 0, 53, 0
2, 26490, Note_on_c, 0, 56, 64
2, 26516, Note_on_c, 0, 56, 0
2, 26520, Note_on_c, 0, 62, 78
2, 26546, Note_on_c, 0, 62, 0
2, 26550, Note_on_c, 0, 60, 65
2, 26576, Note_on_c, 0, 60, 0
2, 26580, Note_on_c, 0, 65, 61
2, 26606, Note_on_c, 0, 65, 0
2, 26610, Note_on_c, 0, 68, 52
2, 26636, Note_on_c, 0, 68, 0
2, 26640, Note_on_c, 0, 74, 77
2, 26666, Note_on_c, 0, 74, 0
2, 26670, Note_on_c, 0, 72, 60
2, 26696, Note_on_c, 0, 72, 0
2, 26700, Note_on_c, 0, 77, 68
2, 26726, Note_on_c, 0, 77, 0
2, 26730, Note_on_c, 0, 80, 57
2, 26756, Note_on_c, 0, 80, 0
2, 26760, Note_on_c, 0, 86, 77
2, 26786, Note_on_c, 0, 86, 0
2, 26790, Note_on_c, 0, 84, 53
2, 26816, Note_on_c, 0, 84, 0
2, 26820, Note_on_c, 0, 89, 67
2, 26846, Note_on_c, 0, 89, 0
2, 26850, Note_on_c, 0, 92, 58
2, 26857, Control_c, 0, 64, 0
2, 26873, Control_c, 0, 64, 127
2, 26876, Note_on_c, 0, 92, 0
2, 26880, Note_on_c, 0, 98, 76
2, 26906, Note_on_c, 0, 98, 0
2, 26910, Note_on_c, 0, 91, 70
2, 26936, Note_on_c, 0, 91, 0
2, 26940, Note_on_c, 0, 89, 63
2, 26966, Note_on_c, 0, 89, 0
2, 26970, Note_on_c, 0, 83, 58
2, 26996, Note_on_c, 0, 83, 0
2, 27000, Note_on_c, 0, 86, 77
2, 27026, Note_on_c, 0, 86, 0
2, 27030, Note_on_c, 0, 79, 58
2, 27056, Note_on_c, 0, 79, 0
2, 27060, Note_on_c, 0, 77, 65
2, 27086, Note_on_c, 0, 77, 0
2, 27090, Note_on_c, 0, 71, 52
2, 27116, Note_on_c, 0, 71, 0
2, 27120, Note_on_c, 0, 74, 77
2, 27146, Note_on_c, 0, 74, 0
2, 27150, Note_on_c, 0, 67, 57
2, 27176, Note_on_c, 0, 67, 0
2, 27180, Note_on_c, 0, 65, 53
2, 27206, Note_on_c, 0, 65, 0
2, 27210, Note_on_c, 0, 59, 60
2, 27229, Note_on_c, 0, 31, 0
2, 27236, Note_on_c, 0, 59, 0
2, 27240, Note_on_c, 0, 63, 76
2, 27266, Note_on_c, 0, 63, 0
2, 27270, Note_on_c, 0, 55, 48
2, 27296, Note_on_c, 0, 55, 0
2, 27300, Note_on_c, 0, 53, 56
2, 27326, Note_on_c, 0, 53, 0
2, 27330, Note_on_c, 0, 47, 54
2, 27339, Control_c, 0, 64, 0
2, 27356, Note_on_c, 0, 47, 0
2, 27358, Control_c, 0, 64, 127
2, 27363, Note_on_c, 0, 43, 0
2, 27372, Note_on_c, 0, 36, 96
2, 27372, Note_on_c, 0, 48, 96
2, 27387, Note_on_c, 0, 48, 0
2, 27390, Note_on_c, 0, 48, 87
2, 27420, Note_on_c, 0, 55, 61
2, 27446, Note_on_c, 0, 55, 0
2, 27450, Note_on_c, 0, 60, 53
2, 27476, Note_on_c, 0, 60, 0
2, 27480, Note_on_c, 0, 64, 76
2, 27506, Note_on_c, 0, 64, 0
2, 27510, Note_on_c, 0, 60, 51
2, 27536, Note_on_c, 0, 60, 0
2, 27540, Note_on_c, 0, 67, 70
2, 27566, Note_on_c, 0, 67, 0
2, 27570, Note_on_c, 0, 72, 62
2, 27596, Note_on_c, 0, 72, 0
2, 27600, Note_on_c, 0, 76, 80
2, 27626, Note_on_c, 0, 76, 0
2, 27630, Note_on_c, 0, 72, 47
2, 27656, Note_on_c, 0, 72, 0
2, 27660, Note_on_c, 0, 79, 61
2, 27686, Note_on_c, 0, 79, 0
2, 27690, Note_on_c, 0, 84, 63
2, 27716, Note_on_c, 0, 84, 0
2, 27720, Note_on_c, 0, 88, 77
2, 27746, Note_on_c, 0, 88, 0
2, 27750, Note_on_c, 0, 84, 63
2, 27776, Note_on_c, 0, 84, 0
2, 27780, Note_on_c, 0, 91, 55
2, 27806, Note_on_c, 0, 91, 0
2, 27810, Note_on_c, 0, 96, 63
2, 27821, Control_c, 0, 64, 0
2, 27836, Note_on_c, 0, 96, 0
2, 27836, Control_c, 0, 64, 127
2, 27840, Note_on_c, 0, 100, 78
2, 27866, Note_on_c, 0, 100, 0
2, 27870, Note_on_c, 0, 96, 65
2, 27896, Note_on_c, 0, 96, 0
2, 27900, Note_on_c, 0, 91, 48
2, 27926, Note_on_c, 0, 91, 0
2, 27930, Note_on_c, 0, 84, 52
2, 27956, Note_on_c, 0, 84, 0
2, 27960, Note_on_c, 0, 88, 76
2, 27986, Note_on_c, 0, 88, 0
2, 27990, Note_on_c, 0, 84, 55
2, 28016, Note_on_c, 0, 84, 0
2, 28020, Note_on_c, 0, 79, 56
2, 28046, Note_on_c, 0, 79, 0
2, 28050, Note_on_c, 0, 72, 55
2, 28076, Note_on_c, 0, 72, 0
2, 28080, Note_on_c, 0, 76, 76
2, 28106, Note_on_c, 0, 76, 0
2, 28110, Note_on_c, 0, 72, 50
2, 28136, Note_on_c, 0, 72, 0
2, 28140, Note_on_c, 0, 67, 60
2, 28166, Note_on_c, 0, 67, 0
2, 28170, Note_on_c, 0, 60, 54
2, 28196, Note_on_c, 0, 60, 0
2, 28200, Note_on_c, 0, 64, 77
2, 28226, Note_on_c, 0, 64, 0
2, 28230, Note_on_c, 0, 60, 56
2, 28251, Note_on_c, 0, 48, 0
2, 28256, Note_on_c, 0, 60, 0
2, 28260, Note_on_c, 0, 55, 69
2, 28286, Note_on_c, 0, 55, 0
2, 28290, Note_on_c, 0, 48, 62
2, 28313, Control_c, 0, 64, 0
2, 28316, Note_on_c, 0, 48, 0
2, 28316, Note_on_c, 0, 36, 0
2, 28328, Control_c, 0, 64, 127
2, 28330, Note_on_c, 0, 45, 90
2, 28330, Note_on_c, 0, 33, 89
2, 28350, Note_on_c, 0, 48, 65
2, 28376, Note_on_c, 0, 48, 0
2, 28380, Note_on_c, 0, 53, 66
2, 28406, Note_on_c, 0, 53, 0
2, 28410, Note_on_c, 0, 60, 54
2, 28436, Note_on_c, 0, 60, 0
2, 28440, Note_on_c, 0, 65, 77
2, 28466, Note_on_c, 0, 65, 0
2, 28470, Note_on_c, 0, 60, 51
2, 28496, Note_on_c, 0, 60, 0
2, 28500, Note_on_c, 0, 65, 63
2, 28526, Note_on_c, 0, 65, 0
2, 28530, Note_on_c, 0, 72, 65
2, 28556, Note_on_c, 0, 72, 0
2, 28560, Note_on_c, 0, 77, 77
2, 28586, Note_on_c, 0, 77, 0
2, 28590, Note_on_c, 0, 72, 58
2, 28616, Note_on_c, 0, 72, 0
2, 28620, Note_on_c, 0, 77, 60
2, 28646, Note_on_c, 0, 77, 0
2, 28650, Note_on_c, 0, 84, 65
2, 28676, Note_on_c, 0, 84, 0
2, 28680, Note_on_c, 0, 89, 75
2, 28706, Note_on_c, 0, 89, 0
2, 28710, Note_on_c, 0, 84, 51
2, 28736, Note_on_c, 0, 84, 0
2, 28740, Note_on_c, 0, 89, 58
2, 28766, Note_on_c, 0, 89, 0
2, 28770, Note_on_c, 0, 96, 68
2, 28771, Control_c, 0, 64, 0
2, 28787, Control_c, 0, 64, 127
2, 28796, Note_on_c, 0, 96, 0
2, 28800, Note_on_c, 0, 100, 77
2, 28826, Note_on_c, 0, 100, 0
2, 28830, Note_on_c, 0, 96, 68
2, 28856, Note_on_c, 0, 96, 0
2, 28860, Note_on_c, 0, 90, 63
2, 28886, Note_on_c, 0, 90, 0
2, 28890, Note_on_c, 0, 84, 59
2, 28916, Note_on_c, 0, 84, 0
2, 28920, Note_on_c, 0, 88, 77
2, 28946, Note_on_c, 0, 88, 0
2, 28950, Note_on_c, 0, 84, 59
2, 28976, Note_on_c, 0, 84, 0
2, 28980, Note_on_c, 0, 78, 51
2, 29006, Note_on_c, 0, 78, 0
2, 29010, Note_on_c, 0, 72, 49
2, 29019, Control_c, 0, 64, 0
2, 29036, Note_on_c, 0, 72, 0
2, 29036, Control_c, 0, 64, 127
2, 29040, Note_on_c, 0, 75, 78
2, 29066, Note_on_c, 0, 75, 0
2, 29070, Note_on_c, 0, 72, 62
2, 29096, Note_on_c, 0, 72, 0
2, 29100, Note_on_c, 0, 66, 55
2, 29118, Note_on_c, 0, 45, 0
2, 29126, Note_on_c, 0, 66, 0
2, 29130, Note_on_c, 0, 60, 65
2, 29139, Control_c, 0, 64, 0
2, 29155, Control_c, 0, 64, 127
2, 29156, Note_on_c, 0, 60, 0
2, 29160, Note_on_c, 0, 63, 77
2, 29163, Note_on_c, 0, 44, 92
2, 29165, Note_on_c, 0, 32, 86
2, 29173, Note_on_c, 0, 33, 0
2, 29186, Note_on_c, 0, 63, 0
2, 29190, Note_on_c, 0, 60, 58
2, 29216, Note_on_c, 0, 60, 0
2, 29220, Note_on_c, 0, 54, 57
2, 29246, Note_on_c, 0, 54, 0
2, 29250, Note_on_c, 0, 48, 58
2, 29266, Note_on_c, 0, 44, 0
2, 29267, Control_c, 0, 64, 0
2, 29276, Note_on_c, 0, 48, 0
2, 29276, Note_on_c, 0, 32, 0
2, 29290, Note_on_c, 0, 43, 99
2, 29292, Note_on_c, 0, 31, 85
2, 29292, Control_c, 0, 64, 127
2, 29310, Note_on_c, 0, 48, 68
2, 29336, Note_on_c, 0, 48, 0
2, 29340, Note_on_c, 0, 55, 70
2, 29366, Note_on_c, 0, 55, 0
2, 29370, Note_on_c, 0, 60, 58
2, 29396, Note_on_c, 0, 60, 0
2, 29400, Note_on_c, 0, 62, 76
2, 29426, Note_on_c, 0, 62, 0
2, 29430, Note_on_c, 0, 60, 51
2, 29456, Note_on_c, 0, 60, 0
2, 29460, Note_on_c, 0, 67, 56
2, 29486, Note_on_c, 0, 67, 0
2, 29490, Note_on_c, 0, 72, 64
2, 29516, Note_on_c, 0, 72, 0
2, 29520, Note_on_c, 0, 74, 75
2, 29546, Note_on_c, 0, 74, 0
2, 29550, Note_on_c, 0, 72, 58
2, 29576, Note_on_c, 0, 72, 0
2, 29580, Note_on_c, 0, 79, 53
2, 29606, Note_on_c, 0, 79, 0
2, 29610, Note_on_c, 0, 84, 49
2, 29636, Note_on_c, 0, 84, 0
2, 29640, Note_on_c, 0, 86, 72
2, 29666, Note_on_c, 0, 86, 0
2, 29670, Note_on_c, 0, 84, 55
2, 29696, Note_on_c, 0, 84, 0
2, 29700, Note_on_c, 0, 91, 51
2, 29726, Note_on_c, 0, 91, 0
2, 29730, Note_on_c, 0, 96, 63
2, 29738, Control_c, 0, 64, 0
2, 29752, Control_c, 0, 64, 127
2, 29756, Note_on_c, 0, 96, 0
2, 29760, Note_on_c, 0, 98, 72
2, 29786, Note_on_c, 0, 98, 0
2, 29790, Note_on_c, 0, 95, 49
2, 29816, Note_on_c, 0, 95, 0
2, 29820, Note_on_c, 0, 91, 44
2, 29846, Note_on_c, 0, 91, 0
2, 29850, Note_on_c, 0, 83, 50
2, 29876, Note_on_c, 0, 83, 0
2, 29880, Note_on_c, 0, 86, 68
2, 29906, Note_on_c, 0, 86, 0
2, 29910, Note_on_c, 0, 83, 54
2, 29936, Note_on_c, 0, 83, 0
2, 29940, Note_on_c, 0, 79, 43
2, 29966, Note_on_c, 0, 79, 0
2, 29970, Note_on_c, 0, 71, 55
2, 29996, Note_on_c, 0, 71, 0
2, 30000, Note_on_c, 0, 74, 68
2, 30026, Note_on_c, 0, 74, 0
2, 30030, Note_on_c, 0, 71, 44
2, 30056, Note_on_c, 0, 71, 0
2, 30060, Note_on_c, 0, 67, 40
2, 30086, Note_on_c, 0, 67, 0
2, 30090, Note_on_c, 0, 59, 54
2, 30116, Note_on_c, 0, 59, 0
2, 30120, Note_on_c, 0, 62, 66
2, 30146, Note_on_c, 0, 62, 0
2, 30150, Note_on_c, 0, 59, 52
2, 30176, Note_on_c, 0, 59, 0
2, 30180, Note_on_c, 0, 55, 52
2, 30188, Note_on_c, 0, 43, 0
2, 30206, Note_on_c, 0, 55, 0
2, 30210, Note_on_c, 0, 47, 51
2, 30223, Control_c, 0, 64, 0
2, 30236, Note_on_c, 0, 47, 0
2, 30240, Control_c, 0, 64, 127
2, 30250, Note_on_c, 0, 42, 76
2, 30250, Note_on_c, 0, 30, 73
2, 30255, Note_on_c, 0, 31, 0
2, 30270, Note_on_c, 0, 48, 47
2, 30296, Note_on_c, 0, 48, 0
2, 30300, Note_on_c, 0, 57, 46
2, 30326, Note_on_c, 0, 57, 0
2, 30330, Note_on_c, 0, 60, 43
2, 30356, Note_on_c, 0, 60, 0
2, 30360, Note_on_c, 0, 62, 66
2, 30386, Note_on_c, 0, 62, 0
2, 30390, Note_on_c, 0, 60, 52
2, 30416, Note_on_c, 0, 60, 0
2, 30420, Note_on_c, 0, 69, 49
2, 30446, Note_on_c, 0, 69, 0
2, 30450, Note_on_c, 0, 72, 57
2, 30476, Note_on_c, 0, 72, 0
2, 30480, Note_on_c, 0, 74, 69
2, 30506, Note_on_c, 0, 74, 0
2, 30510, Note_on_c, 0, 72, 47
2, 30536, Note_on_c, 0, 72, 0
2, 30540, Note_on_c, 0, 81, 52
2, 30566, Note_on_c, 0, 81, 0
2, 30570, Note_on_c, 0, 84, 50
2, 30596, Note_on_c, 0, 84, 0
2, 30600, Note_on_c, 0, 86, 67
2, 30626, Note_on_c, 0, 86, 0
2, 30630, Note_on_c, 0, 84, 46
2, 30656, Note_on_c, 0, 84, 0
2, 30660, Note_on_c, 0, 93, 48
2, 30686, Note_on_c, 0, 93, 0
2, 30690, Note_on_c, 0, 96, 59
2, 30691, Control_c, 0, 64, 0
2, 30707, Control_c, 0, 64, 127
2, 30716, Note_on_c, 0, 96, 0
2, 30718, Note_on_c, 0, 42, 0
2, 30720, Note_on_c, 0, 30, 0
2, 30720, Note_on_c, 0, 99, 71
2, 30724, Note_on_c, 0, 41, 82
2, 30725, Note_on_c, 0, 29, 73
2, 30746, Note_on_c, 0, 99, 0
2, 30750, Note_on_c, 0, 96, 65
2, 30776, Note_on_c, 0, 96, 0
2, 30780, Note_on_c, 0, 93, 61
2, 30806, Note_on_c, 0, 93, 0
2, 30810, Note_on_c, 0, 84, 57
2, 30836, Note_on_c, 0, 84, 0
2, 30840, Note_on_c, 0, 87, 71
2, 30866, Note_on_c, 0, 87, 0
2, 30870, Note_on_c, 0, 84, 62
2, 30896, Note_on_c, 0, 84, 0
2, 30900, Note_on_c, 0, 81, 60
2, 30926, Note_on_c, 0, 81, 0
2, 30930, Note_on_c, 0, 72, 53
2, 30940, Control_c, 0, 64, 0
2, 30952, Control_c, 0, 64, 127
2, 30956, Note_on_c, 0, 72, 0
2, 30960, Note_on_c, 0, 75, 72
2, 30986, Note_on_c, 0, 75, 0
2, 30990, Note_on_c, 0, 71, 65
2, 31016, Note_on_c, 0, 71, 0
2, 31020, Note_on_c, 0, 69, 59
2, 31046, Note_on_c, 0, 69, 0
2, 31050, Note_on_c, 0, 59, 58
2, 31076, Note_on_c, 0, 59, 0
2, 31080, Note_on_c, 0, 63, 76
2, 31106, Note_on_c, 0, 63, 0
2, 31110, Note_on_c, 0, 59, 49
2, 31136, Note_on_c, 0, 59, 0
2, 31140, Note_on_c, 0, 57, 65
2, 31166, Note_on_c, 0, 57, 0
2, 31170, Note_on_c, 0, 47, 56
2, 31172, Note_on_c, 0, 41, 0
2, 31181, Control_c, 0, 64, 0
2, 31194, Note_on_c, 0, 29, 0
2, 31196, Note_on_c, 0, 47, 0
2, 31198, Control_c, 0, 64, 127
2, 31208, Note_on_c, 0, 40, 96
2, 31209, Note_on_c, 0, 28, 76
2, 31230, Note_on_c, 0, 47, 54
2, 31256, Note_on_c, 0, 47, 0
2, 31260, Note_on_c, 0, 56, 62
2, 31286, Note_on_c, 0, 56, 0
2, 31290, Note_on_c, 0, 59, 61
2, 31316, Note_on_c, 0, 59, 0
2, 31320, Note_on_c, 0, 64, 79
2, 31346, Note_on_c, 0, 64, 0
2, 31350, Note_on_c, 0, 59, 66
2, 31376, Note_on_c, 0, 59, 0
2, 31380, Note_on_c, 0, 68, 57
2, 31406, Note_on_c, 0, 68, 0
2, 31410, Note_on_c, 0, 71, 62
2, 31436, Note_on_c, 0, 71, 0
2, 31440, Note_on_c, 0, 76, 78
2, 31466, Note_on_c, 0, 76, 0
2, 31470, Note_on_c, 0, 71, 57
2, 31496, Note_on_c, 0, 71, 0
2, 31500, Note_on_c, 0, 80, 62
2, 31512, Note_on_c, 0, 28, 0
2, 31526, Note_on_c, 0, 80, 0
2, 31530, Note_on_c, 0, 83, 63
2, 31556, Note_on_c, 0, 83, 0
2, 31560, Note_on_c, 0, 88, 76
2, 31586, Note_on_c, 0, 88, 0
2, 31590, Note_on_c, 0, 83, 52
2, 31616, Note_on_c, 0, 83, 0
2, 31620, Note_on_c, 0, 92, 65
2, 31646, Note_on_c, 0, 92, 0
2, 31650, Note_on_c, 0, 95, 60
2, 31676, Note_on_c, 0, 95, 0
2, 31680, Note_on_c, 0, 100, 77
2, 31685, Note_on_c, 0, 52, 84
2, 31706, Note_on_c, 0, 100, 0
2, 31710, Note_on_c, 0, 95, 66
2, 31736, Note_on_c, 0, 95, 0
2, 31740, Note_on_c, 0, 92, 65
2, 31766, Note_on_c, 0, 92, 0
2, 31770, Note_on_c, 0, 83, 59
2, 31796, Note_on_c, 0, 83, 0
2, 31800, Note_on_c, 0, 88, 75
2, 31826, Note_on_c, 0, 88, 0
2, 31830, Note_on_c, 0, 83, 59
2, 31856, Note_on_c, 0, 83, 0
2, 31860, Note_on_c, 0, 80, 67
2, 31886, Note_on_c, 0, 80, 0
2, 31890, Note_on_c, 0, 71, 57
2, 31916, Note_on_c, 0, 71, 0
2, 31920, Note_on_c, 0, 76, 79
2, 31946, Note_on_c, 0, 76, 0
2, 31950, Note_on_c, 0, 71, 55
2, 31976, Note_on_c, 0, 71, 0
2, 31980, Note_on_c, 0, 68, 53
2, 32006, Note_on_c, 0, 68, 0
2, 32010, Note_on_c, 0, 59, 52
2, 32036, Note_on_c, 0, 59, 0
2, 32040, Note_on_c, 0, 64, 77
2, 32066, Note_on_c, 0, 64, 0
2, 32070, Note_on_c, 0, 59, 64
2, 32075, Note_on_c, 0, 40, 0
2, 32096, Note_on_c, 0, 59, 0
2, 32100, Note_on_c, 0, 56, 58
2, 32126, Note_on_c, 0, 56, 0
2, 32130, Note_on_c, 0, 52, 0
2, 32130, Note_on_c, 0, 47, 50
2, 32139, Control_c, 0, 64, 0
2, 32156, Note_on_c, 0, 47, 0
2, 32156, Control_c, 0, 64, 127
2, 32168, Note_on_c, 0, 38, 81
2, 32190, Note_on_c, 0, 50, 49
2, 32216, Note_on_c, 0, 50, 0
2, 32220, Note_on_c, 0, 57, 66
2, 32246, Note_on_c, 0, 57, 0
2, 32250, Note_on_c, 0, 60, 58
2, 32276, Note_on_c, 0, 60, 0
2, 32280, Note_on_c, 0, 65, 69
2, 32306, Note_on_c, 0, 65, 0
2, 32310, Note_on_c, 0, 62, 56
2, 32336, Note_on_c, 0, 62, 0
2, 32340, Note_on_c, 0, 69, 62
2, 32366, Note_on_c, 0, 69, 0
2, 32370, Note_on_c, 0, 72, 67
2, 32396, Note_on_c, 0, 72, 0
2, 32400, Note_on_c, 0, 77, 69
2, 32426, Note_on_c, 0, 77, 0
2, 32430, Note_on_c, 0, 74, 52
2, 32456, Note_on_c, 0, 74, 0
2, 32460, Note_on_c, 0, 81, 54
2, 32486, Note_on_c, 0, 81, 0
2, 32490, Note_on_c, 0, 84, 53
2, 32516, Note_on_c, 0, 84, 0
2, 32520, Note_on_c, 0, 89, 68
2, 32546, Note_on_c, 0, 89, 0
2, 32550, Note_on_c, 0, 86, 50
2, 32576, Note_on_c, 0, 86, 0
2, 32580, Note_on_c, 0, 93, 49
2, 32606, Note_on_c, 0, 93, 0
2, 32609, Control_c, 0, 64, 0
2, 32610, Note_on_c, 0, 96, 42
2, 32628, Control_c, 0, 64, 127
2, 32636, Note_on_c, 0, 96, 0
2, 32638, Note_on_c, 0, 38, 0
2, 32640, Note_on_c, 0, 101, 70
2, 32646, Note_on_c, 0, 31, 74
2, 32647, Note_on_c, 0, 43, 85
2, 32666, Note_on_c, 0, 101, 0
2, 32670, Note_on_c, 0, 95, 43
2, 32696, Note_on_c, 0, 95, 0
2, 32700, Note_on_c, 0, 91, 48
2, 32726, Note_on_c, 0, 91, 0
2, 32730, Note_on_c, 0, 86, 50
2, 32756, Note_on_c, 0, 86, 0
2, 32760, Note_on_c, 0, 89, 72
2, 32786, Note_on_c, 0, 89, 0
2, 32790, Note_on_c, 0, 83, 46
2, 32816, Note_on_c, 0, 83, 0
2, 32820, Note_on_c, 0, 79, 42
2, 32846, Note_on_c, 0, 79, 0
2, 32850, Note_on_c, 0, 74, 49
2, 32876, Note_on_c, 0, 74, 0
2, 32880, Note_on_c, 0, 77, 65
2, 32906, Note_on_c, 0, 77, 0
2, 32910, Note_on_c, 0, 71, 49
2, 32936, Note_on_c, 0, 71, 0
2, 32940, Note_on_c, 0, 67, 43
2, 32966, Note_on_c, 0, 67, 0
2, 32970, Note_on_c, 0, 62, 39
2, 32996, Note_on_c, 0, 62, 0
2, 33000, Note_on_c, 0, 65, 63
2, 33026, Note_on_c, 0, 65, 0
2, 33030, Note_on_c, 0, 59, 40
2, 33056, Note_on_c, 0, 59, 0
2, 33060, Note_on_c, 0, 55, 54
2, 33086, Note_on_c, 0, 55, 0
2, 33090, Note_on_c, 0, 50, 38
2, 33099, Control_c, 0, 64, 0
2, 33108, Note_on_c, 0, 31, 0
2, 33116, Note_on_c, 0, 50, 0
2, 33118, Control_c, 0, 64, 127
2, 33120, Note_on_c, 0, 43, 0
2, 33124, Note_on_c, 0, 36, 79
2, 33150, Note_on_c, 0, 48, 48
2, 33176, Note_on_c, 0, 48, 0
2, 33180, Note_on_c, 0, 55, 55
2, 33206, Note_on_c, 0, 55, 0
2, 33210, Note_on_c, 0, 60, 44
2, 33236, Note_on_c, 0, 60, 0
2, 33240, Note_on_c, 0, 64, 66
2, 33266, Note_on_c, 0, 64, 0
2, 33270, Note_on_c, 0, 60, 50
2, 33296, Note_on_c, 0, 60, 0
2, 33300, Note_on_c, 0, 67, 55
2, 33326, Note_on_c, 0, 67, 0
2, 33330, Note_on_c, 0, 72, 49
2, 33356, Note_on_c, 0, 72, 0
2, 33360, Note_on_c, 0, 76, 67
2, 33386, Note_on_c, 0, 76, 0
2, 33390, Note_on_c, 0, 72, 44
2, 33416, Note_on_c, 0, 72, 0
2, 33420, Note_on_c, 0, 82, 47
2, 33446, Note_on_c, 0, 82, 0
2, 33450, Note_on_c, 0, 84, 61
2, 33476, Note_on_c, 0, 84, 0
2, 33480, Note_on_c, 0, 91, 64
2, 33506, Note_on_c, 0, 91, 0
2, 33510, Note_on_c, 0, 84, 62
2, 33536, Note_on_c, 0, 84, 0
2, 33540, Note_on_c, 0, 82, 52
2, 33566, Note_on_c, 0, 82, 0
2, 33567, Control_c, 0, 64, 0
2, 33570, Note_on_c, 0, 76, 43
2, 33586, Control_c, 0, 64, 127
2, 33596, Note_on_c, 0, 76, 0
2, 33598, Note_on_c, 0, 48, 80
2, 33600, Note_on_c, 0, 90, 65
2, 33626, Note_on_c, 0, 90, 0
2, 33630, Note_on_c, 0, 84, 53
2, 33656, Note_on_c, 0, 84, 0
2, 33660, Note_on_c, 0, 81, 45
2, 33686, Note_on_c, 0, 81, 0
2, 33690, Note_on_c, 0, 75, 45
2, 33716, Note_on_c, 0, 75, 0
2, 33720, Note_on_c, 0, 78, 68
2, 33746, Note_on_c, 0, 78, 0
2, 33750, Note_on_c, 0, 72, 57
2, 33776, Note_on_c, 0, 72, 0
2, 33780, Note_on_c, 0, 69, 52
2, 33806, Note_on_c, 0, 69, 0
2, 33810, Note_on_c, 0, 63, 41
2, 33810, Control_c, 0, 64, 0
2, 33828, Control_c, 0, 64, 127
2, 33836, Note_on_c, 0, 63, 0
2, 33840, Note_on_c, 0, 77, 68
2, 33866, Note_on_c, 0, 77, 0
2, 33870, Note_on_c, 0, 71, 51
2, 33896, Note_on_c, 0, 71, 0
2, 33900, Note_on_c, 0, 68, 41
2, 33926, Note_on_c, 0, 68, 0
2, 33930, Note_on_c, 0, 62, 55
2, 33956, Note_on_c, 0, 62, 0
2, 33960, Note_on_c, 0, 65, 68
2, 33986, Note_on_c, 0, 65, 0
2, 33990, Note_on_c, 0, 59, 49
2, 34016, Note_on_c, 0, 59, 0
2, 34020, Note_on_c, 0, 56, 38
2, 34039, Note_on_c, 0, 36, 0
2, 34046, Note_on_c, 0, 56, 0
2, 34050, Note_on_c, 0, 50, 53
2, 34064, Control_c, 0, 64, 0
2, 34065, Note_on_c, 0, 48, 0
2, 34076, Note_on_c, 0, 50, 0
2, 34079, Control_c, 0, 64, 127
2, 34093, Note_on_c, 0, 36, 82
2, 34110, Note_on_c, 0, 48, 48
2, 34136, Note_on_c, 0, 48, 0
2, 34140, Note_on_c, 0, 55, 59
2, 34166, Note_on_c, 0, 55, 0
2, 34170, Note_on_c, 0, 60, 49
2, 34196, Note_on_c, 0, 60, 0
2, 34200, Note_on_c, 0, 64, 70
2, 34226, Note_on_c, 0, 64, 0
2, 34230, Note_on_c, 0, 60, 45
2, 34256, Note_on_c, 0, 60, 0
2, 34260, Note_on_c, 0, 67, 55
2, 34286, Note_on_c, 0, 67, 0
2, 34290, Note_on_c, 0, 72, 45
2, 34316, Note_on_c, 0, 72, 0
2, 34320, Note_on_c, 0, 76, 72
2, 34346, Note_on_c, 0, 76, 0
2, 34350, Note_on_c, 0, 72, 56
2, 34376, Note_on_c, 0, 72, 0
2, 34380, Note_on_c, 0, 79, 53
2, 34406, Note_on_c, 0, 79, 0
2, 34410, Note_on_c, 0, 84, 59
2, 34436, Note_on_c, 0, 84, 0
2, 34440, Note_on_c, 0, 88, 72
2, 34466, Note_on_c, 0, 88, 0
2, 34470, Note_on_c, 0, 84, 57
2, 34496, Note_on_c, 0, 84, 0
2, 34500, Note_on_c, 0, 79, 50
2, 34526, Note_on_c, 0, 79, 0
2, 34530, Note_on_c, 0, 72, 61
2, 34539, Control_c, 0, 64, 0
2, 34556, Note_on_c, 0, 72, 0
2, 34556, Control_c, 0, 64, 127
2, 34560, Note_on_c, 0, 87, 75
2, 34564, Note_on_c, 0, 36, 0
2, 34566, Note_on_c, 0, 31, 76
2, 34567, Note_on_c, 0, 43, 89
2, 34586, Note_on_c, 0, 87, 0
2, 34590, Note_on_c, 0, 81, 59
2, 34616, Note_on_c, 0, 81, 0
2, 34620, Note_on_c, 0, 78, 62
2, 34646, Note_on_c, 0, 78, 0
2, 34650, Note_on_c, 0, 72, 61
2, 34676, Note_on_c, 0, 72, 0
2, 34680, Note_on_c, 0, 75, 74
2, 34706, Note_on_c, 0, 75, 0
2, 34710, Note_on_c, 0, 69, 57
2, 34736, Note_on_c, 0, 69, 0
2, 34740, Note_on_c, 0, 66, 65
2, 34766, Note_on_c, 0, 66, 0
2, 34770, Note_on_c, 0, 60, 54
2, 34770, Control_c, 0, 64, 0
2, 34788, Control_c, 0, 64, 127
2, 34796, Note_on_c, 0, 60, 0
2, 34800, Note_on_c, 0, 74, 78
2, 34826, Note_on_c, 0, 74, 0
2, 34830, Note_on_c, 0, 68, 49
2, 34856, Note_on_c, 0, 68, 0
2, 34860, Note_on_c, 0, 65, 66
2, 34886, Note_on_c, 0, 65, 0
2, 34890, Note_on_c, 0, 59, 62
2, 34916, Note_on_c, 0, 59, 0
2, 34920, Note_on_c, 0, 62, 79
2, 34946, Note_on_c, 0, 62, 0
2, 34950, Note_on_c, 0, 56, 62
2, 34976, Note_on_c, 0, 56, 0
2, 34980, Note_on_c, 0, 53, 57
2, 34998, Note_on_c, 0, 31, 0
2, 35006, Note_on_c, 0, 53, 0
2, 35006, Note_on_c, 0, 43, 0
2, 35010, Note_on_c, 0, 47, 59
2, 35022, Control_c, 0, 64, 0
2, 35036, Note_on_c, 0, 47, 0
2, 35039, Control_c, 0, 64, 127
2, 35049, Note_on_c, 0, 31, 96
2, 35049, Note_on_c, 0, 43, 93
2, 35070, Note_on_c, 0, 46, 53
2, 35096, Note_on_c, 0, 46, 0
2, 35100, Note_on_c, 0, 52, 56
2, 35126, Note_on_c, 0, 52, 0
2, 35130, Note_on_c, 0, 55, 63
2, 35156, Note_on_c, 0, 55, 0
2, 35160, Note_on_c, 0, 61, 77
2, 35186, Note_on_c, 0, 61, 0
2, 35190, Note_on_c, 0, 58, 63
2, 35216, Note_on_c, 0, 58, 0
2, 35220, Note_on_c, 0, 64, 60
2, 35246, Note_on_c, 0, 64, 0
2, 35250, Note_on_c, 0, 67, 58
2, 35276, Note_on_c, 0, 67, 0
2, 35280, Note_on_c, 0, 73, 74
2, 35306, Note_on_c, 0, 73, 0
2, 35310, Note_on_c, 0, 70, 54
2, 35336, Note_on_c, 0, 70, 0
2, 35340, Note_on_c, 0, 76, 46
2, 35366, Note_on_c, 0, 76, 0
2, 35370, Note_on_c, 0, 79, 48
2, 35396, Note_on_c, 0, 79, 0
2, 35400, Note_on_c, 0, 85, 75
2, 35426, Note_on_c, 0, 85, 0
2, 35430, Note_on_c, 0, 82, 66
2, 35456, Note_on_c, 0, 82, 0
2, 35460, Note_on_c, 0, 88, 46
2, 35486, Note_on_c, 0, 88, 0
2, 35490, Note_on_c, 0, 91, 57
2, 35506, Control_c, 0, 64, 0
2, 35516, Note_on_c, 0, 91, 0
2, 35520, Note_on_c, 0, 97, 76
2, 35522, Control_c, 0, 64, 127
2, 35546, Note_on_c, 0, 97, 0
2, 35550, Note_on_c, 0, 90, 53
2, 35576, Note_on_c, 0, 90, 0
2, 35580, Note_on_c, 0, 87, 46
2, 35606, Note_on_c, 0, 87, 0
2, 35610, Note_on_c, 0, 81, 52
2, 35636, Note_on_c, 0, 81, 0
2, 35640, Note_on_c, 0, 85, 77
2, 35666, Note_on_c, 0, 85, 0
2, 35670, Note_on_c, 0, 78, 50
2, 35696, Note_on_c, 0, 78, 0
2, 35700, Note_on_c, 0, 75, 52
2, 35726, Note_on_c, 0, 75, 0
2, 35730, Note_on_c, 0, 69, 55
2, 35756, Note_on_c, 0, 69, 0
2, 35760, Note_on_c, 0, 73, 75
2, 35786, Note_on_c, 0, 73, 0
2, 35790, Note_on_c, 0, 66, 56
2, 35816, Note_on_c, 0, 66, 0
2, 35820, Note_on_c, 0, 63, 42
2, 35846, Note_on_c, 0, 63, 0
2, 35850, Note_on_c, 0, 57, 51
2, 35876, Note_on_c, 0, 57, 0
2, 35880, Note_on_c, 0, 72, 74
2, 35906, Note_on_c, 0, 72, 0
2, 35910, Note_on_c, 0, 66, 56
2, 35936, Note_on_c, 0, 66, 0
2, 35940, Note_on_c, 0, 63, 43
2, 35966, Note_on_c, 0, 63, 0
2, 35970, Note_on_c, 0, 57, 48
2, 35980, Control_c, 0, 64, 0
2, 35982, Note_on_c, 0, 31, 0
2, 35989, Note_on_c, 0, 43, 0
2, 35996, Note_on_c, 0, 57, 0
2, 35997, Control_c, 0, 64, 127
2, 36008, Note_on_c, 0, 31, 89
2, 36008, Note_on_c, 0, 43, 85
2, 36030, Note_on_c, 0, 56, 56
2, 36056, Note_on_c, 0, 56, 0
2, 36060, Note_on_c, 0, 62, 60
2, 36086, Note_on_c, 0, 62, 0
2, 36090, Note_on_c, 0, 65, 67
2, 36116, Note_on_c, 0, 65, 0
2, 36120, Note_on_c, 0, 72, 78
2, 36146, Note_on_c, 0, 72, 0
2, 36150, Note_on_c, 0, 68, 67
2, 36176, Note_on_c, 0, 68, 0
2, 36180, Note_on_c, 0, 74, 54
2, 36206, Note_on_c, 0, 74, 0
2, 36210, Note_on_c, 0, 77, 46
2, 36236, Note_on_c, 0, 77, 0
2, 36240, Note_on_c, 0, 84, 76
2, 36266, Note_on_c, 0, 84, 0
2, 36270, Note_on_c, 0, 80, 63
2, 36296, Note_on_c, 0, 80, 0
2, 36300, Note_on_c, 0, 86, 72
2, 36326, Note_on_c, 0, 86, 0
2, 36330, Note_on_c, 0, 89, 74
2, 36356, Note_on_c, 0, 89, 0
2, 36360, Note_on_c, 0, 96, 82
2, 36386, Note_on_c, 0, 96, 0
2, 36390, Note_on_c, 0, 89, 61
2, 36416, Note_on_c, 0, 89, 0
2, 36420, Note_on_c, 0, 86, 69
2, 36446, Note_on_c, 0, 86, 0
2, 36450, Note_on_c, 0, 80, 59
2, 36461, Control_c, 0, 64, 0
2, 36476, Note_on_c, 0, 80, 0
2, 36477, Control_c, 0, 64, 127
2, 36480, Note_on_c, 0, 95, 81
2, 36506, Note_on_c, 0, 95, 0
2, 36510, Note_on_c, 0, 89, 61
2, 36536, Note_on_c, 0, 89, 0
2, 36540, Note_on_c, 0, 86, 62
2, 36566, Note_on_c, 0, 86, 0
2, 36570, Note_on_c, 0, 79, 61
2, 36596, Note_on_c, 0, 79, 0
2, 36600, Note_on_c, 0, 83, 84
2, 36626, Note_on_c, 0, 83, 0
2, 36630, Note_on_c, 0, 77, 60
2, 36656, Note_on_c, 0, 77, 0
2, 36660, Note_on_c, 0, 74, 65
2, 36686, Note_on_c, 0, 74, 0
2, 36690, Note_on_c, 0, 67, 57
2, 36716, Note_on_c, 0, 67, 0
2, 36720, Note_on_c, 0, 71, 84
2, 36746, Note_on_c, 0, 71, 0
2, 36750, Note_on_c, 0, 65, 71
2, 36776, Note_on_c, 0, 65, 0
2, 36780, Note_on_c, 0, 62, 59
2, 36806, Note_on_c, 0, 62, 0
2, 36810, Note_on_c, 0, 55, 67
2, 36836, Note_on_c, 0, 55, 0
2, 36840, Note_on_c, 0, 59, 85
2, 36866, Note_on_c, 0, 59, 0
2, 36870, Note_on_c, 0, 53, 64
2, 36891, Note_on_c, 0, 31, 0
2, 36893, Note_on_c, 0, 43, 0
2, 36896, Note_on_c, 0, 53, 0
2, 36900, Note_on_c, 0, 50, 50
2, 36926, Note_on_c, 0, 50, 0
2, 36930, Note_on_c, 0, 43, 67
2, 36945, Control_c, 0, 64, 0
2, 36956, Note_on_c, 0, 43, 0
2, 36962, Control_c, 0, 64, 127
2, 36966, Note_on_c, 0, 36, 96
2, 36968, Note_on_c, 0, 24, 96
2, 36990, Note_on_c, 0, 43, 79
2, 37020, Note_on_c, 0, 52, 77
2, 37023, Note_on_c, 0, 43, 0
2, 37047, Note_on_c, 0, 55, 77
2, 37054, Note_on_c, 0, 52, 0
2, 37079, Note_on_c, 0, 60, 88
2, 37085, Note_on_c, 0, 55, 0
2, 37103, Note_on_c, 0, 60, 0
2, 37109, Note_on_c, 0, 55, 79
2, 37140, Note_on_c, 0, 64, 77
2, 37145, Note_on_c, 0, 55, 0
2, 37171, Note_on_c, 0, 64, 0
2, 37177, Note_on_c, 0, 67, 76
2, 37200, Note_on_c, 0, 67, 0
2, 37203, Note_on_c, 0, 72, 91
2, 37228, Note_on_c, 0, 72, 0
2, 37230, Note_on_c, 0, 67, 75
2, 37259, Note_on_c, 0, 76, 79
2, 37261, Note_on_c, 0, 67, 0
2, 37285, Note_on_c, 0, 79, 77
2, 37289, Note_on_c, 0, 76, 0
2, 37316, Note_on_c, 0, 79, 0
2, 37317, Note_on_c, 0, 84, 93
2, 37342, Note_on_c, 0, 84, 0
2, 37342, Note_on_c, 0, 79, 77
2, 37375, Note_on_c, 0, 88, 75
2, 37381, Note_on_c, 0, 79, 0
2, 37405, Note_on_c, 0, 91, 74
2, 37407, Note_on_c, 0, 88, 0
2, 37439, Note_on_c, 0, 96, 90
2, 37444, Note_on_c, 0, 91, 0
2, 37468, Note_on_c, 0, 91, 78
2, 37471, Note_on_c, 0, 96, 0
2, 37502, Note_on_c, 0, 88, 81
2, 37506, Note_on_c, 0, 91, 0
2, 37532, Note_on_c, 0, 88, 0
2, 37535, Note_on_c, 0, 79, 81
2, 37569, Note_on_c, 0, 84, 94
2, 37571, Note_on_c, 0, 79, 0
2, 37597, Note_on_c, 0, 79, 81
2, 37599, Note_on_c, 0, 84, 0
2, 37632, Note_on_c, 0, 76, 79
2, 37636, Note_on_c, 0, 79, 0
2, 37657, Note_on_c, 0, 76, 0
2, 37663, Note_on_c, 0, 67, 80
2, 37698, Note_on_c, 0, 72, 93
2, 37703, Note_on_c, 0, 67, 0
2, 37731, Note_on_c, 0, 67, 86
2, 37737, Note_on_c, 0, 72, 0
2, 37764, Note_on_c, 0, 64, 84
2, 37771, Note_on_c, 0, 67, 0
2, 37798, Note_on_c, 0, 64, 0
2, 37801, Note_on_c, 0, 55, 77
2, 37836, Note_on_c, 0, 60, 93
2, 37843, Note_on_c, 0, 55, 0
2, 37876, Note_on_c, 0, 55, 78
2, 37883, Note_on_c, 0, 60, 0
2, 37890, Note_on_c, 0, 24, 0
2, 37899, Note_on_c, 0, 36, 0
2, 37916, Note_on_c, 0, 52, 82
2, 37921, Note_on_c, 0, 55, 0
2, 37956, Note_on_c, 0, 52, 0
2, 37957, Note_on_c, 0, 43, 89
2, 37990, Note_on_c, 0, 43, 0
2, 38004, Note_on_c, 0, 24, 111
2, 38004, Note_on_c, 0, 36, 103
2, 39115, Note_on_c, 0, 24, 0
2, 39117, Note_on_c, 0, 36, 0
2, 39134, Control_c, 0, 64, 0
2, 39134, End_track
3, 0, Start_track
3, 0, MIDI_port, 0
3, 0, Title_t, "In C Major"
3, 0, End_track
4, 0, Start_track
4, 0, MIDI_port, 0
4, 0, Title_t, "Op. 10, No. 1"
4, 0, End_track
5, 0, Start_track
5, 0, MIDI_port, 0
5, 0, Title_t, "Chopin, Frederic"
5, 0, End_track
6, 0, Start_track
6, 0, MIDI_port, 0
6, 0, Title_t, "Sequenced by Anousone Kitisa"
6, 0, End_track
0, 0, End_of_file
